<svg width="24" height="24" viewBox="0 0 24 24" fill="none" xmlns="http://www.w3.org/2000/svg">
<path fill-rule="evenodd" clip-rule="evenodd" d="M12.8312 1.10191L19.9072 4.97262C20.1938 5.12942 20.3023 5.49486 20.1494 5.78886C20.0992 5.88533 20.0244 5.96601 19.933 6.02227L12.9084 10.3451C12.3495 10.689 11.6514 10.689 11.0925 10.3451L4.06792 6.02229C3.78934 5.85086 3.69901 5.48028 3.86616 5.19457C3.92101 5.1008 3.99968 5.02409 4.09375 4.97263L11.1704 1.10188C11.6894 0.817979 12.3122 0.817991 12.8312 1.10191ZM22.0002 8.34958V17.1187C22.0002 17.7545 21.675 18.3436 21.1434 18.6707L14.0677 23.025C13.7891 23.1964 13.4278 23.1038 13.2606 22.818C13.2058 22.7243 13.1768 22.617 13.1768 22.5077V13.7385C13.1768 13.1028 13.502 12.5136 14.0335 12.1865L21.1093 7.83225C21.3879 7.66083 21.7492 7.75347 21.9164 8.03918C21.9712 8.13295 22.0002 8.24024 22.0002 8.34958ZM9.96665 12.1864L2.89087 7.83217C2.79945 7.77592 2.69484 7.7462 2.58823 7.7462C2.26336 7.7462 2 8.01631 2 8.3495V17.1186C2 17.7544 2.32523 18.3435 2.85676 18.6706L9.93254 23.0249C10.024 23.0812 10.1286 23.1109 10.2352 23.1109C10.56 23.1109 10.8234 22.8408 10.8234 22.5076V13.7384C10.8234 13.1027 10.4982 12.5135 9.96665 12.1864Z" fill="white"/>
</svg>
