<svg width="24" height="24" viewBox="0 0 24 24" fill="none" xmlns="http://www.w3.org/2000/svg">
<path fill-rule="evenodd" clip-rule="evenodd" d="M11.2646 1.83998C11.7212 1.58313 12.2788 1.58313 12.7354 1.83998L19.7354 5.77747C20.2077 6.04315 20.5 6.54293 20.5 7.08484V15.9151C20.5 16.4571 20.2077 16.9568 19.7354 17.2225L12.7354 21.16C12.2788 21.4169 11.7212 21.4169 11.2646 21.16L4.26461 17.2225C3.79229 16.9568 3.5 16.4571 3.5 15.9151V7.08484C3.5 6.54293 3.79229 6.04315 4.26461 5.77748L11.2646 1.83998ZM12.2451 2.71155C12.0929 2.62593 11.9071 2.62593 11.7549 2.71155L4.75487 6.64905C4.6932 6.68374 4.64073 6.73041 4.59972 6.7852L12 11.4104L19.4003 6.78519C19.3593 6.7304 19.3068 6.68374 19.2451 6.64905L12.2451 2.71155ZM4.5 15.9151V7.90212L11.5 12.2771V20.1451L4.75487 16.3509C4.59743 16.2624 4.5 16.0958 4.5 15.9151ZM12.5 20.1451L19.2451 16.3509C19.4026 16.2624 19.5 16.0958 19.5 15.9151V7.9021L12.5 12.2771V20.1451Z" fill="#F90086"/>
</svg>
