<svg xmlns="http://www.w3.org/2000/svg" viewBox="0 0 100 100"><g style="fill:#999"><path d="M78.2 77.4H25c-1.6 0-3.2-.9-4-2.3-.8-1.4-.8-3.2 0-4.6l26.6-45.6c.8-1.4 2.3-2.3 4-2.3 1.6 0 3.2.9 4 2.3L82 70.3c.5.7.8 1.6.8 2.5 0 2.5-2.1 4.6-4.6 4.6zM51.6 25.2c-.7 0-1.4.4-1.7 1L23.3 71.8c-.4.6-.4 1.4 0 2 .4.6 1 1 1.7 1h53.1c1.1 0 2-.9 2-2 0-.4-.1-.8-.4-1.1L53.3 26.2c-.3-.6-1-1-1.7-1z"/><path d="m51.7 70.5c-.6 0-1.1-.2-1.5-.6-.5-.4-.7-1-.7-1.7 0-.6.2-1.2.7-1.6.9-.9 2.4-.9 3.2 0 .4.4.7 1 .7 1.6 0 .9-.4 1.4-.7 1.7-.5.4-1.1.6-1.7.6m0-2.6c-.1 0-.1 0-.2.1s-.1.2-.1.3c0 .1 0 .2.1.3.1.1.3.1.4 0 .1-.1.1-.2.1-.2s0-.2-.2-.3l-.1-.2m0-3.7c-.7 0-1.3-.6-1.3-1.3v-30.4c0-.7.6-1.3 1.3-1.3s1.3.6 1.3 1.3v30.4c0 .7-.6 1.3-1.3 1.3"/></g></svg>