<svg width="27" height="32" viewBox="0 0 27 32" fill="none" xmlns="http://www.w3.org/2000/svg">
<path d="M11.7143 4.8354V8.44369C11.7143 9.44161 12.5123 10.2478 13.5 10.2478H17.0714C18.0592 10.2478 18.8571 9.44161 18.8571 8.44369V4.8354C18.8571 3.83748 18.0592 3.03125 17.0714 3.03125H13.5C12.5123 3.03125 11.7143 3.83748 11.7143 4.8354ZM5.61495 12.8977C4.76116 13.3938 4.47098 14.4989 4.96205 15.3615L6.74777 18.4849C7.23884 19.3475 8.33259 19.6407 9.18638 19.1446L12.2779 17.3404C13.1317 16.8443 13.4219 15.7392 12.9308 14.8766L11.1451 11.7532C10.654 10.8906 9.56027 10.5974 8.70647 11.0935L5.61495 12.8977ZM17.0714 12.052C16.0837 12.052 15.2857 12.8583 15.2857 13.8561V17.4644C15.2857 18.4623 16.0837 19.2686 17.0714 19.2686H20.6429C21.6306 19.2686 22.4286 18.4623 22.4286 17.4644V13.8561C22.4286 12.8583 21.6306 12.052 20.6429 12.052H17.0714ZM20.6429 21.0727C19.6551 21.0727 18.8571 21.879 18.8571 22.8769V26.4852C18.8571 27.483 19.6551 28.2893 20.6429 28.2893H24.2143C25.202 28.2893 26 27.483 26 26.4852V22.8769C26 21.879 25.202 21.0727 24.2143 21.0727H20.6429ZM9.92857 22.8769V26.4852C9.92857 27.483 10.7266 28.2893 11.7143 28.2893H15.2857C16.2734 28.2893 17.0714 27.483 17.0714 26.4852V22.8769C17.0714 21.879 16.2734 21.0727 15.2857 21.0727H11.7143C10.7266 21.0727 9.92857 21.879 9.92857 22.8769ZM2.78571 21.0727C1.79799 21.0727 1 21.879 1 22.8769V26.4852C1 27.483 1.79799 28.2893 2.78571 28.2893H6.35714C7.34487 28.2893 8.14286 27.483 8.14286 26.4852V22.8769C8.14286 21.879 7.34487 21.0727 6.35714 21.0727H2.78571Z" stroke="black" stroke-width="2"/>
</svg>
