<svg id="Layer_1" data-name="Layer 1" xmlns="http://www.w3.org/2000/svg" viewBox="0 0 100 100"><defs><style>.cls-1,.cls-2{fill:none;}.cls-2{stroke:#989898;stroke-miterlimit:10;stroke-width:8px;}.cls-3{fill:#989898;}</style></defs><rect class="cls-1" y="-0.73" width="99.46" height="99.46"/><path class="cls-2" d="M56.36,26.91V3.44H21.16a4.24,4.24,0,0,0-4.24,4.24V92.07a4.24,4.24,0,0,0,4.24,4.24H78.49a4.24,4.24,0,0,0,4.24-4.24L82,31.57H61A4.66,4.66,0,0,1,56.36,26.91Z"/><line class="cls-2" x1="57.4" y1="2.23" x2="83.09" y2="30.43"/><path class="cls-3" d="M72.41,65.56l-4.16-2.4a18.83,18.83,0,0,0,0-6.86l4.16-2.4a1.18,1.18,0,0,0,.53-1.37A24.33,24.33,0,0,0,67.6,43.3a1.16,1.16,0,0,0-1.44-.22L62,45.48a18.3,18.3,0,0,0-5.94-3.43V37.26a1.16,1.16,0,0,0-.91-1.14,24.42,24.42,0,0,0-10.66,0,1.16,1.16,0,0,0-.92,1.14v4.8a18.73,18.73,0,0,0-5.93,3.43l-4.15-2.4a1.16,1.16,0,0,0-1.45.22,24.31,24.31,0,0,0-5.34,9.23,1.18,1.18,0,0,0,.54,1.37l4.16,2.4a18.78,18.78,0,0,0,0,6.85l-4.16,2.41a1.18,1.18,0,0,0-.54,1.36A24.43,24.43,0,0,0,32,76.17a1.19,1.19,0,0,0,1.45.22L37.65,74a18.33,18.33,0,0,0,5.93,3.43v4.8a1.17,1.17,0,0,0,.92,1.14,24.57,24.57,0,0,0,10.66,0,1.17,1.17,0,0,0,.91-1.14v-4.8A19.08,19.08,0,0,0,62,74l4.16,2.4a1.16,1.16,0,0,0,1.44-.22A24.15,24.15,0,0,0,73,66.93,1.2,1.2,0,0,0,72.41,65.56Zm-22.59,2a7.81,7.81,0,1,1,7.81-7.81A7.82,7.82,0,0,1,49.82,67.54Z"/></svg>