<svg xmlns="http://www.w3.org/2000/svg" viewBox="0 0 100 100" style="enable-background:new 0 0 100 100"><path d="m92 96.1h-84c-2.6 0-5-1.5-6.3-3.9s-1.3-5.4 0-7.7l42-76.7c1.3-2.4 3.7-3.9 6.3-3.9s5 1.5 6.3 3.8l41.8 76.3c.8 1.1 1.2 2.7 1.2 4.3 0 4.3-3.2 7.8-7.3 7.8" style="fill:#ff9800"/><path d="m50.1 78.7c-.6 0-1.2-.2-1.6-.6-.5-.4-.8-1.1-.8-1.8s.2-1.2.7-1.7c.9-.9 2.5-.9 3.4 0 .5.4.7 1 .7 1.7 0 .9-.4 1.5-.8 1.8-.4.4-1 .6-1.6.6zm0-2.7c-.1 0-.2 0-.2.1-.1.1-.1.2-.1.3 0 .1 0 .2.1.3.1.1.3.1.5 0 .1-.1.1-.2.1-.3 0 0 0-.2-.2-.3 0 0-.2-.1-.2-.1zm0-11.1c-.8 0-1.4-.6-1.4-1.4v-32.4c0-.8.6-1.4 1.4-1.4.8 0 1.4.6 1.4 1.4v32.4c0 .8-.7 1.4-1.4 1.4z" style="fill:#fff;stroke-miterlimit:10;stroke:#fff;stroke-width:6"/></svg>