<svg xmlns="http://www.w3.org/2000/svg" viewBox="0 0 100 100"><g style="stroke-miterlimit:10;stroke:#999;stroke-width:2"><path d="M57.1 76.2H43.4c-.5 0-.8-.4-.8-.8V61.6c0-.5.4-.8.8-.8h13.8c.5 0 .8.4.8.8v13.8c0 .5-.4.8-.9.8zm-13-1.5h12.2V62.4H44.1v12.3zm13-39.3H43.4c-.5 0-.8-.4-.8-.8V20.9c0-.4.4-.8.8-.8h13.8c.5 0 .8.4.8.8v13.8c0 .4-.4.7-.9.7zm-13-1.5h12.2V21.6H44.1v12.3zM80 76.2H66.1c-.5 0-.8-.4-.8-.8V61.6c0-.5.4-.8.8-.8h13.8c.5 0 .8.4.8.8v13.8c0 .5-.3.8-.7.8zm-13-1.5h12.2V62.4H67v12.3zm-32.4 1.5H20.8c-.4 0-.8-.4-.8-.8V61.6c0-.5.4-.8.8-.8h13.8c.5 0 .8.4.8.8v13.8c0 .5-.4.8-.8.8zm-13-1.5h12.2V62.4H21.6v12.3z" style="fill:#999"/><g style="fill:#575757"><path d="M50.2 62.4c-.5 0-.8-.4-.8-.8V34.8c0-.5.4-.8.8-.8s.8.4.8.8v26.9c0 .4-.3.7-.8.7zm22.9 0c-.4 0-.8-.4-.8-.8V47.4c0-.5.4-.8.8-.8.5 0 .8.4.8.8v14.2c0 .5-.4.8-.8.8zm-45.4 0c-.4 0-.8-.4-.8-.8V47.4c0-.5.4-.8.8-.8.5 0 .8.4.8.8v14.2c-.1.5-.3.8-.8.8z"/><path d="M73.1 48.2H27.7c-.4 0-.8-.4-.8-.8s.4-.8.8-.8h45.4c.5 0 .8.4.8.8s-.4.8-.8.8z"/></g></g><path d="M44.1 62.4h12.2v12.2H44.1zm-22.5 0h12.2v12.2H21.6zm45.4 0h12.2v12.2H67zM44.1 21.6h12.2v12.2H44.1z" style="fill:#fff"/></svg>