<svg width="16px" height="16px" viewBox="-512 -384 2048 2048" xmlns="http://www.w3.org/2000/svg"><g transform="scale(1 -1) translate(0 -1280)"><path d="M704 280v-240q0 -16 -12 -28t-28 -12h-240q-16 0 -28 12t-12 28v240q0 16 12 28t28 12h240q16 0 28 -12t12 -28zM1020 880q0 -54 -15.5 -101t-35 -76.5t-55 -59.5t-57.5 -43.5t-61 -35.5q-41 -23 -68.5 -65t-27.5 -67q0 -17 -12 -32.5t-28 -15.5h-240q-15 0 -25.5 18.5 t-10.5 37.5v45q0 83 65 156.5t143 108.5q59 27 84 56t25 76q0 42 -46.5 74t-107.5 32q-65 0 -108 -29q-35 -25 -107 -115q-13 -16 -31 -16q-12 0 -25 8l-164 125q-13 10 -15.5 25t5.5 28q160 266 464 266q80 0 161 -31t146 -83t106 -127.5t41 -158.5z" fill="white" /></g></svg>
