<svg xmlns="http://www.w3.org/2000/svg" id="Layer_3" viewBox="0 0 100 100">
  <style>
    .st0{fill:#565656;}
  </style>
  <path d="M50.5 34c1.7 0 3.1-1.4 3.1-3.1 0-1.7-1.4-3.1-3.1-3.1-1.7 0-3.1 1.4-3.1 3.1-.1 1.7 1.3 3.1 3.1 3.1zm-9.8-2.8c-1.7 0-3.1 1.4-3.1 3.1 0 1.7 1.4 3.1 3.1 3.1 1.7 0 3.1-1.4 3.1-3.1 0-1.7-1.4-3.1-3.1-3.1zm-6.6 7.7c-1.7 0-3.1 1.4-3.1 3.1 0 1.7 1.4 3.1 3.1 3.1s3.1-1.4 3.1-3.1c0-1.7-1.4-3.1-3.1-3.1zm23.2 2.2l-9.1 13.2c-1.8.4-3.4 1.6-4.2 3.4-1.4 3 0 6.6 3 8s6.6 0 8-3c.8-1.8.7-3.8-.2-5.4l4-15.5-1.5-.7zm22.8 6.8h-.2v-.5c0-16.5-13.5-30-30-30s-30 13.5-30 30v.5h-.2c-9.6 0-17.4 7.8-17.4 17.4s7.8 17.4 17.4 17.4c6.6 0 12.4-3.7 15.3-9.2 4.4 2.5 9.4 4 14.8 4s10.4-1.5 14.8-4c2.9 5.5 8.7 9.2 15.3 9.2 9.6 0 17.4-7.8 17.4-17.4s-7.6-17.4-17.2-17.4zM19.9 75.4c-5.6 0-10.2-4.6-10.2-10.2S14.3 55 19.9 55 30 59.7 30 65.3s-4.5 10.1-10.1 10.1zm42.9-10.1v.9c-3.7 2.5-8.1 4-12.8 4s-9.2-1.5-12.8-4v-.9c0-6.9-4.1-12.9-9.9-15.7-.1-.7-.1-1.5-.1-2.2 0-12.6 10.2-22.8 22.8-22.8s22.8 10.2 22.8 22.8c0 .8-.1 1.5-.1 2.2-5.9 2.8-9.9 8.8-9.9 15.7zm17.3 10.1c-5.6 0-10.2-4.6-10.2-10.2S74.5 55 80.1 55s10.2 4.6 10.2 10.2c0 5.7-4.6 10.2-10.2 10.2zM66.2 38.9c-1.7 0-3.1 1.4-3.1 3.1 0 1.7 1.4 3.1 3.1 3.1s3.1-1.4 3.1-3.1c0-1.7-1.4-3.1-3.1-3.1zm-5.9-7.7c-1.7 0-3.1 1.4-3.1 3.1 0 1.7 1.4 3.1 3.1 3.1 1.7 0 3.1-1.4 3.1-3.1 0-1.7-1.4-3.1-3.1-3.1z" class="st0"/>
</svg>
