<?xml version="1.0" standalone="no"?>
<!DOCTYPE svg PUBLIC "-//W3C//DTD SVG 20010904//EN"
 "http://www.w3.org/TR/2001/REC-SVG-20010904/DTD/svg10.dtd">
<svg version="1.0" xmlns="http://www.w3.org/2000/svg"
 width="260.000000pt" height="200.000000pt" viewBox="0 0 40.000000 75.000000"
 preserveAspectRatio="xMidYMid meet">

<g transform="scale(0.01600,-0.016000)" fill="#000000" stroke="none">
<path d="M0 0 c-200 -32 -274 -50 -395 -99 -367 -146 -664 -418 -836
-763 -119 -239 -169 -452 -169 -725 0 -266 47 -473 161 -710 112 -232 312
-468 512 -602 20 -14 37 -29 37 -35 0 -13 -40 -82 -140 -245 -45 -74 -127
-209 -182 -300 -54 -91 -105 -171 -112 -178 -10 -10 -19 -10 -42 -1 -16 7 -76
12 -134 12 -152 0 -249 -39 -350 -143 -127 -130 -173 -330 -116 -499 57 -169
167 -273 345 -330 44 -14 198 -14 242 0 237 76 381 276 367 509 -8 120 -42
202 -130 312 l-21 27 179 297 c98 163 193 320 209 349 17 29 37 63 46 76 l16
24 64 -29 c89 -40 95 -42 174 -66 188 -56 396 -79 569 -62 295 30 515 105 738
254 48 32 92 58 99 58 6 0 299 -286 651 -635 400 -398 656 -644 682 -657 91
-48 213 -15 271 72 27 40 30 53 30 120 0 61 -4 82 -23 112 -13 20 -312 323
-665 673 -489 484 -639 639 -632 649 39 54 105 158 105 166 0 13 25 13 48 0 9
-5 38 -18 65 -30 26 -11 68 -30 95 -42 26 -11 106 -47 177 -79 l130 -58 -4
-60 c-8 -150 68 -322 182 -413 68 -54 138 -85 230 -103 65 -12 86 -12 154 0
97 17 142 36 214 88 238 175 268 527 63 748 -13 14 -24 31 -24 38 0 6 16 38
37 69 20 31 44 71 53 88 10 16 62 102 117 190 119 190 244 392 258 416 36 63
179 290 186 294 5 2 34 -3 66 -12 73 -21 195 -14 278 17 302 111 418 480 235
748 -66 98 -185 178 -299 202 -77 16 -203 6 -276 -22 -64 -24 -141 -76 -191
-130 -110 -119 -154 -324 -103 -480 26 -80 32 -92 80 -156 22 -29 39 -57 39
-63 0 -10 -25 -51 -231 -383 -55 -87 -99 -161 -99 -163 0 -3 -5 -10 -10 -17
-6 -7 -45 -68 -87 -137 -41 -69 -85 -141 -98 -160 -12 -19 -46 -75 -76 -123
-52 -85 -55 -88 -84 -83 -137 27 -222 16 -341 -40 -55 -26 -87 -50 -136 -103
l-65 -70 -241 107 c-162 72 -242 112 -242 122 0 8 8 38 18 66 19 50 38 127 64
254 20 100 17 453 -5 555 -24 108 -58 238 -67 250 -3 6 -15 33 -25 60 -105
290 -373 605 -653 769 -30 17 -66 38 -80 47 -40 23 -175 78 -258 104 -203 64
-472 91 -644 64z m434 -429 c277 -64 521 -227 685 -455 105 -146 154 -251 197
-422 25 -97 27 -126 28 -283 0 -158 -3 -185 -28 -285 -15 -60 -34 -116 -41
-123 -13 -14 -27 -9 -240 88 -38 17 -83 38 -100 45 -16 7 -52 23 -80 35 -45
21 -75 34 -168 73 -27 11 -29 15 -24 62 13 125 -38 292 -118 383 -192 221
-525 229 -722 19 -97 -104 -133 -196 -133 -343 0 -143 41 -249 139 -353 17
-18 31 -37 31 -42 0 -5 -43 -79 -96 -166 -53 -87 -125 -206 -160 -265 -35 -59
-68 -110 -74 -113 -11 -7 -8 -9 -118 85 -156 135 -268 295 -334 475 -67 186
-82 279 -75 470 9 237 67 424 193 616 59 90 189 227 282 297 86 64 225 139
317 170 59 20 187 48 255 56 83 10 298 -4 384 -24z m3398 1 c97 -42 172 -124
206 -222 21 -62 15 -171 -12 -234 -63 -142 -171 -215 -318 -215 -135 0 -249
72 -310 198 -29 59 -33 77 -33 147 0 71 4 89 32 146 41 82 92 134 168 170 51
25 72 29 142 29 58 0 94 -5 125 -19z m-3517 -889 c40 -19 78 -48 112 -86 159
-174 104 -445 -112 -547 -134 -64 -320 -22 -407 93 -59 77 -72 117 -72 218 -1
84 2 101 26 150 42 84 112 151 193 183 24 10 71 16 120 16 68 1 89 -3 140 -27z
m341 -633 c38 -17 89 -40 114 -51 25 -11 70 -31 100 -45 30 -14 69 -31 85 -38
17 -8 55 -24 85 -38 30 -13 74 -32 98 -42 23 -11 42 -24 42 -30 0 -18 -90
-143 -150 -208 -160 -175 -356 -288 -609 -349 -113 -27 -359 -30 -471 -5 -107
23 -250 71 -250 83 0 2 16 28 35 58 19 30 35 57 35 60 0 3 26 47 59 98 32 51
93 151 136 221 61 102 81 127 94 121 32 -14 154 -16 214 -4 93 19 189 73 250
141 28 32 55 58 58 58 3 1 37 -13 75 -30z m2046 -402 c69 -34 131 -100 166
-175 21 -46 26 -73 26 -137 1 -85 -9 -118 -57 -197 -49 -81 -184 -158 -275
-158 -97 0 -215 58 -275 134 -56 70 -77 130 -77 215 0 149 86 275 227 332 71
29 191 22 265 -14z m-3894 -1453 c27 -9 75 -36 106 -60 44 -35 62 -59 91 -119
35 -73 37 -80 33 -163 -2 -72 -8 -97 -33 -145 -31 -63 -102 -134 -160 -161
-174 -83 -378 -2 -464 184 -20 44 -25 70 -25 130 2 241 226 407 452 334z"/>
</g>
</svg>
