<svg xmlns="http://www.w3.org/2000/svg" viewBox="0 0 100 100" style="enable-background:new 0 0 100 100"><path d="m17.8 90.2c-3.2 3.9-8.8 4.6-13 1.4-3.9-3.2-4.6-8.8-1.4-13 3.2-3.9 8.8-4.6 13-1.4 3.8 3.1 4.5 9.1 1.4 13" style="fill:#ff7e41"/><g style="fill:#ffb28d"><path d="m42.4 90.8c-3.2 3.9-8.8 4.6-13 1.4-3.9-3.2-4.6-8.8-1.4-13 3.2-3.9 8.8-4.6 13-1.4 3.8 3.2 4.5 9.1 1.4 13"/><path d="m26 56.9h18.3v28.5h-18.3z"/></g><path d="m42.4 62.3c-3.2 3.9-8.8 4.6-13 1.4-3.9-3.2-4.6-8.8-1.4-13 3.2-3.9 8.8-4.6 13-1.4 3.8 3.2 4.5 9.1 1.4 13" style="fill:#ff7e41"/><g style="fill:#ffb28d"><path d="m94.4 90.8c-3.2 3.9-8.8 4.6-13 1.4-3.9-3.2-4.6-8.8-1.4-13 3.2-3.9 8.8-4.6 13-1.4 3.8 3.2 4.5 9.1 1.4 13"/><path d="m78 38.1h18.3v47.3h-18.3z"/></g><path d="m94.4 43.3c-3.2 3.9-8.8 4.6-13 1.4-3.9-3.2-4.6-8.8-1.4-13 3.2-3.9 8.8-4.6 13-1.4 3.8 3.2 4.5 9.1 1.4 13" style="fill:#ff7e41"/><g style="fill:#de66c6"><path d="m68.4 91.8c-3.2 3.9-8.8 4.6-13 1.4-3.9-3.2-4.6-8.8-1.4-13 3.2-3.9 8.8-4.6 13-1.4 3.8 3.2 4.5 9.1 1.4 13"/><path d="m52 14.5h18.3v71.9h-18.3z"/></g><path d="m68.4 20.3c-3.2 3.9-8.8 4.6-13 1.4-3.9-3.2-4.6-8.8-1.4-13 3.2-3.9 8.8-4.6 13-1.4 3.8 3.2 4.5 9.1 1.4 13" style="fill:#c800a1"/></svg>