<?xml version="1.0" encoding="utf-8"?>
<!-- Generator: Adobe Illustrator 23.0.6, SVG Export Plug-In . SVG Version: 6.00 Build 0)  -->
<svg version="1.1" id="Layer_1" xmlns="http://www.w3.org/2000/svg" xmlns:xlink="http://www.w3.org/1999/xlink" x="0px" y="0px"
	 viewBox="0 0 100 100" style="enable-background:new 0 0 100 100;" xml:space="preserve">
<style type="text/css">
	.st0{fill:#990F3D;}
</style>
<polyline points="50.46,10.1 50.46,10.1 50.39,10.1 "/>
<path class="st0" d="M89.18,81.8V41c0-1.66-1.34-3-3-3h-7v-9.95c0.03-1.05,0.11-10.69-6.9-18.01C67.2,4.73,59.81,2.03,50.31,2
	c-0.01,0-0.02,0-0.03,0h-0.01h-0.1c-0.01,0-0.02,0-0.03,0c-9.5,0.02-16.89,2.73-21.97,8.04c-7.01,7.33-6.93,16.96-6.9,18.01V38h-7
	c-1.66,0-3,1.34-3,3v40.8c-0.15,1.3-0.51,6.48,2.9,10.5c2.64,3.11,6.71,4.69,12.1,4.69h24h23.9c5.39,0,9.46-1.58,12.1-4.69
	C89.69,88.28,89.33,83.1,89.18,81.8z M55.09,75.02v6.43h-0.07c0.03,0.23,0.07,0.46,0.07,0.69c0,2.68-2.18,4.86-4.86,4.86
	c-2.68,0-4.86-2.18-4.86-4.86c0-0.24,0.04-0.47,0.07-0.69h-0.07v-6.43c-4.49-1.9-7.64-6.34-7.64-11.52c0-6.9,5.6-12.5,12.5-12.5
	c6.9,0,12.5,5.6,12.5,12.5C62.73,68.68,59.58,73.12,55.09,75.02z M71.52,28.84V38H29.87v-9.16c-0.02-0.76-0.08-7.69,4.96-12.96
	c3.65-3.82,8.97-5.76,15.81-5.78l0.12,0c6.83,0.02,12.15,1.96,15.8,5.78C71.6,21.16,71.55,28.09,71.52,28.84z"/>
</svg>
