<svg xmlns="http://www.w3.org/2000/svg" viewBox="0 0 100 100"><ellipse cx="49.8" cy="50.1" rx="49.5" ry="49.5" style="fill:#8bc34a"/><path d="M76.3 48c.8.8 1.2 1.9 1.2 3.2s-.4 2.3-1.2 3.1c-.8.8-1.9 1.2-3.2 1.2H54.5v18.6c0 1.3-.4 2.4-1.2 3.2-.8.8-1.9 1.2-3.2 1.2s-2.3-.4-3.2-1.2c-.8-.8-1.3-1.9-1.3-3.2V55.5H27c-1.3 0-2.3-.4-3.1-1.2-.8-.8-1.2-1.8-1.2-3.1s.4-2.3 1.2-3.2c.8-.8 1.8-1.3 3.1-1.3h18.6V28.1c0-1.3.4-2.3 1.3-3.2.8-.8 1.9-1.2 3.2-1.2s2.3.4 3.2 1.2c.8.8 1.2 1.9 1.2 3.2v18.6H73c1.4 0 2.4.4 3.3 1.3z" style="fill:#fff"/></svg>