<svg id="Layer_1" data-name="Layer 1" xmlns="http://www.w3.org/2000/svg" viewBox="0 0 96.43 97.35"><defs><style>.cls-1{fill:#f08857;}.cls-2{fill:#c373ae;}.cls-3{fill:#b13693;}.cls-4{fill:#f3b594;}.cls-5{fill:#c7c7c7;}.cls-6{fill:#a6a4a4;}.cls-7{fill:none;stroke:#000;stroke-miterlimit:10;}</style></defs><circle class="cls-1" cx="12.91" cy="72.59" r="7.15"/><path class="cls-2" d="M64.7,34.21V20.09A7.72,7.72,0,0,0,57,12.37H54.33a7.73,7.73,0,0,0-7.73,7.72V74.2a7.71,7.71,0,0,0,3.19,6.25H51.6l11-22.59.3-10.59s-3.82-.64-3.29-5.36,5.14-3.29,5.14-3.29Z" transform="translate(-1.38 -2.18)"/><circle class="cls-3" cx="54.27" cy="19.09" r="9.31"/><path class="cls-1" d="M84.77,41.72c.29.91.79-2,.79-3a9.31,9.31,0,0,0-18.62,0h13.7A3.87,3.87,0,0,1,84.77,41.72Z" transform="translate(-1.38 -2.18)"/><rect class="cls-4" x="23.47" y="41.94" width="18.1" height="37.81" rx="7.72"/><circle class="cls-1" cx="32.51" cy="51.24" r="9.31"/><path class="cls-5" d="M46.35,92.11H6.18a4.8,4.8,0,0,1-4.8-4.8V7a4.8,4.8,0,0,1,4.8-4.8H86.51A4.8,4.8,0,0,1,91.31,7V77.35h-1V7a3.8,3.8,0,0,0-3.8-3.8H6.18A3.8,3.8,0,0,0,2.38,7V87.31a3.8,3.8,0,0,0,3.8,3.8H46.35Z" transform="translate(-1.38 -2.18)"/><path class="cls-6" d="M90.53,99.53H53.38A7.27,7.27,0,0,1,47,88.87L62.13,57.64a2.31,2.31,0,0,0,.22-.93l0-9a3.62,3.62,0,0,1-2.17-1.05A3.71,3.71,0,0,1,59.09,44V41.91a3.75,3.75,0,0,1,3.74-3.74H81.2a3.75,3.75,0,0,1,3.74,3.74V44a3.73,3.73,0,0,1-1.12,2.67,3.79,3.79,0,0,1-2.19,1l0,9a2.24,2.24,0,0,0,.22,1L97,88.88a7.27,7.27,0,0,1-6.44,10.65ZM63.38,46.76l0,10A3.44,3.44,0,0,1,63,58.08L47.84,89.32a6.28,6.28,0,0,0,5.54,9.21H90.53a6.28,6.28,0,0,0,5.55-9.19L80.92,58.14a3.17,3.17,0,0,1-.32-1.38l0-10h.51A2.73,2.73,0,0,0,83.94,44V41.91a2.74,2.74,0,0,0-2.74-2.74H62.83a2.74,2.74,0,0,0-2.74,2.74V44A2.71,2.71,0,0,0,60.91,46a2.68,2.68,0,0,0,2,.79Z" transform="translate(-1.38 -2.18)"/><path class="cls-1" d="M77.49,85.11a13.08,13.08,0,0,1-6.65-2,13,13,0,0,0-8.2-1.9,8.29,8.29,0,0,0-4.18,1.56,8.83,8.83,0,0,1-8.88,1L50,83A7.82,7.82,0,0,0,57.85,82a9.21,9.21,0,0,1,4.67-1.76,14,14,0,0,1,8.84,2,10.79,10.79,0,0,0,11.27.43c7.36-4.11,9.24-4.23,9.43-4.23v1c-.06,0-1.86.15-8.95,4.1A11.36,11.36,0,0,1,77.49,85.11Z" transform="translate(-1.38 -2.18)"/><path class="cls-7" d="M77.28,91.5" transform="translate(-1.38 -2.18)"/><path class="cls-1" d="M66.75,95.46a3.91,3.91,0,0,1-1.51-.3l.38-.93a2.93,2.93,0,0,0,1.13.23,3,3,0,1,0-3-3,2.73,2.73,0,0,0,0,.41l-1,.14a4.91,4.91,0,0,1,0-.55,4,4,0,1,1,4,4Z" transform="translate(-1.38 -2.18)"/><path class="cls-1" d="M81.44,89.19a2.72,2.72,0,1,1,2.72-2.72A2.71,2.71,0,0,1,81.44,89.19Zm0-4.43a1.72,1.72,0,1,0,1.72,1.71A1.72,1.72,0,0,0,81.44,84.76Z" transform="translate(-1.38 -2.18)"/><path class="cls-3" d="M71.63,62.61A2.39,2.39,0,1,1,74,60.21,2.4,2.4,0,0,1,71.63,62.61Zm0-3.78A1.39,1.39,0,1,0,73,60.21,1.39,1.39,0,0,0,71.63,58.83Z" transform="translate(-1.38 -2.18)"/><path class="cls-3" d="M66.75,77.36A4.48,4.48,0,0,1,63.57,76h0a4.5,4.5,0,1,1,3.18,1.32Zm-2.48-2a3.51,3.51,0,0,0,6-2.48,3.45,3.45,0,0,0-1-2.48,3.51,3.51,0,0,0-5,5Z" transform="translate(-1.38 -2.18)"/><line class="cls-1" x1="65.56" y1="36.49" x2="79.82" y2="36.49"/></svg>