<svg xmlns="http://www.w3.org/2000/svg" id="Layer_1" viewBox="0 0 100 100">
  <style>
    .st0{fill:#FFFFFF;stroke:#999999;stroke-width:3;stroke-linecap:round;stroke-linejoin:round;stroke-miterlimit:10;} .st1{fill:none;stroke:#999999;stroke-width:3;stroke-linecap:round;stroke-linejoin:round;stroke-miterlimit:10;} .st2{fill:#8BC34A;stroke:#8BC34A;stroke-width:3;stroke-linecap:round;stroke-linejoin:round;stroke-miterlimit:10;} .st3{fill:#FFFFFF;}
  </style>
  <path d="M49.9 27h18.4L45 4.7v17.5c0 2.6 2.2 4.8 4.9 4.8z" class="st0"/>
  <path d="M49.9 27c-2.7 0-4.8-2.1-4.8-4.8V4.7h-37c-2.7 0-4.8 2.1-4.8 4.8v76.9c0 2.7 2.1 4.8 4.8 4.8h55.3c2.7 0 4.8-2.1 4.8-4.8V27H49.9z" class="st0"/>
  <path d="M17.7 60h35.1M17.7 45.7h35.1M17.7 74.6h35.1" class="st1"/>
  <circle cx="77.8" cy="51.9" r="20.2" class="st2"/>
  <path d="M87.5 48.9L81.6 43l1.2-1.2 5.9 5.9c0 .1-1.2 1.2-1.2 1.2m-15.8 8.7l-2.3-2.3 11.1-11.1 2.3 2.3-11.1 11.1m-6 6.2c-.1.3 0 .7.2.9.2.2.6.3.9.2l7.1-2.8-5.4-5.4c-.1 0-2.8 7.1-2.8 7.1M90.4 46c1.7-1.7 1.7-4.2 0-5.9-1.7-1.7-4.2-1.7-5.9 0l-.5.6 5.9 5.9.5-.6M84 47.8l2.3 2.3-11.1 11-2.3-2.3 11.1-11" class="st3"/>
</svg>
