<svg xmlns="http://www.w3.org/2000/svg" id="Layer_1" viewBox="0 0 100 100">
  <style>
    .st0{fill:none;stroke:#FFCBB3;stroke-width:10;stroke-miterlimit:10;} .st1{fill:#C800A1;} .st2{fill:#FF7E41;} .st3{fill:#DADADA;} .st4{fill:#999999;}
  </style>
  <path d="M81.3 77.6V48.8m-31.1-29v28.7m31.1.3H50.2m0-29H18" class="st0"/>
  <path d="M25.2 26.1c-3.2 3.9-8.8 4.6-13 1.4-3.9-3.2-4.6-8.8-1.4-13 3.2-3.9 8.8-4.6 13-1.4 3.8 3.2 4.5 9.1 1.4 13m63 57.3c-3.2 3.9-8.8 4.6-13 1.4-3.9-3.2-4.6-8.8-1.4-13 3.2-3.9 8.8-4.6 13-1.4 3.8 3.2 4.5 9.1 1.4 13" class="st1"/>
  <path d="M57.2 55.8c-3.2 3.9-8.8 4.6-13 1.4-3.9-3.2-4.6-8.8-1.4-13 3.2-3.9 8.8-4.6 13-1.4 3.8 3.2 4.5 9.1 1.4 13m31.3 0c-3.2 3.9-8.8 4.6-13 1.4-3.9-3.2-4.6-8.8-1.4-13 3.2-3.9 8.8-4.6 13-1.4 3.8 3.2 4.5 9.1 1.4 13M57.2 26.1c-3.2 3.9-8.8 4.6-13 1.4-3.9-3.2-4.6-8.8-1.4-13 3.2-3.9 8.8-4.6 13-1.4 3.8 3.2 4.5 9.1 1.4 13" class="st2"/>
  <path d="M25.2 55.8c-3.2 3.9-8.8 4.6-13 1.4-3.9-3.2-4.6-8.8-1.4-13 3.2-3.9 8.8-4.6 13-1.4 3.8 3.2 4.5 9.1 1.4 13m63.3-29.7c-3.2 3.9-8.8 4.6-13 1.4-3.9-3.2-4.6-8.8-1.4-13 3.2-3.9 8.8-4.6 13-1.4 3.8 3.2 4.5 9.1 1.4 13M57.3 83.2c-3.2 3.9-8.8 4.6-13 1.4-3.9-3.2-4.6-8.8-1.4-13 3.2-3.9 8.8-4.6 13-1.4 3.8 3.2 4.5 9.1 1.4 13" class="st3"/>
  <path d="M25.2 83.4c-3.2 3.9-8.8 4.6-13 1.4-3.9-3.2-4.6-8.8-1.4-13 3.2-3.9 8.8-4.6 13-1.4 3.8 3.2 4.5 9.1 1.4 13" class="st4"/>
</svg>
