<?xml version="1.0" encoding="UTF-8"?><svg id="Layer_1" xmlns="http://www.w3.org/2000/svg" viewBox="0 0 100 100"><defs><style>.cls-1{fill:#dadada;}.cls-2{fill:#c800a1;}.cls-3{fill:#ffcbb3;}.cls-4{fill:#999;}.cls-5{fill:#ff7e41;}</style></defs><rect class="cls-3" x="51.87" y="49.16" width="33.95" height="10"/><rect class="cls-3" x="78.21" y="20.57" width="10" height="33.59"/><rect class="cls-3" x="46.87" y="52.55" width="10" height="30.29"/><rect class="cls-3" x="20.39" y="76.37" width="29.17" height="10"/><rect class="cls-3" x="14.95" y="20.57" width="10" height="63.97"/><path class="cls-4" d="m60.14,28.44c-3.66,4.44-10.06,5.24-14.86,1.59-4.46-3.64-5.26-10.02-1.6-14.8,3.66-4.44,10.06-5.24,14.86-1.59,4.34,3.64,5.14,10.36,1.6,14.8"/><path class="cls-5" d="m60.14,58.55c-3.66,4.44-10.06,5.24-14.86,1.59-4.46-3.64-5.26-10.02-1.6-14.8,3.66-4.44,10.06-5.24,14.86-1.59,4.34,3.64,5.14,10.36,1.6,14.8"/><path class="cls-5" d="m28.22,58.55c-3.66,4.44-10.06,5.24-14.86,1.59-4.46-3.64-5.26-10.02-1.6-14.8,3.66-4.44,10.06-5.24,14.86-1.59,4.34,3.64,5.14,10.36,1.6,14.8"/><path class="cls-5" d="m28.22,86.58c-3.66,4.44-10.06,5.24-14.86,1.59-4.46-3.64-5.26-10.02-1.6-14.8,3.66-4.44,10.06-5.24,14.86-1.59,4.34,3.64,5.14,10.36,1.6,14.8"/><path class="cls-5" d="m60.14,86.58c-3.66,4.44-10.06,5.24-14.86,1.59-4.46-3.64-5.26-10.02-1.6-14.8,3.66-4.44,10.06-5.24,14.86-1.59,4.34,3.64,5.14,10.36,1.6,14.8"/><path class="cls-5" d="m91.48,58.55c-3.66,4.44-10.06,5.24-14.86,1.59-4.46-3.64-5.26-10.02-1.6-14.8,3.66-4.44,10.06-5.24,14.86-1.59,4.34,3.64,5.14,10.36,1.6,14.8"/><path class="cls-2" d="m91.48,28.44c-3.66,4.44-10.06,5.24-14.86,1.59-4.46-3.64-5.26-10.02-1.6-14.8,3.66-4.44,10.06-5.24,14.86-1.59,4.34,3.64,5.14,10.36,1.6,14.8"/><path class="cls-1" d="m91.48,86.58c-3.66,4.44-10.06,5.24-14.86,1.59-4.46-3.64-5.26-10.02-1.6-14.8,3.66-4.44,10.06-5.24,14.86-1.59,4.34,3.64,5.14,10.36,1.6,14.8"/><path class="cls-2" d="m28.22,28.44c-3.66,4.44-10.06,5.24-14.86,1.59-4.46-3.64-5.26-10.02-1.6-14.8,3.66-4.44,10.06-5.24,14.86-1.59,4.34,3.64,5.14,10.36,1.6,14.8"/></svg>