<svg width="30" height="30" viewBox="0 0 30 30" fill="none" xmlns="http://www.w3.org/2000/svg">
  <g clip-path="url(#clip0_345_23)">
    <mask id="mask0_345_23" style="mask-type:luminance" maskUnits="userSpaceOnUse" x="0" y="0" width="30" height="30">
      <path d="M30 0H0V30H30V0Z" fill="white"></path>
    </mask>
    <g mask="url(#mask0_345_23)">
      <path d="M13.7943 2.52107C13.1492 2.71504 12.5528 3.04395 12.0445 3.48597C11.5363 3.92799 11.1278 4.47302 10.8462 5.08492C10.5609 5.65308 10.441 6.28997 10.5 6.92299C10.4384 7.58821 10.5801 8.25647 10.9062 8.83953C11.3902 9.82929 12.199 10.6231 13.1977 11.0884C13.7561 11.3647 14.379 11.4843 15 11.4345C15.6211 11.4843 16.244 11.3647 16.8023 11.0884C17.802 10.6281 18.6099 9.83363 19.087 8.84184C19.4237 8.26172 19.5702 7.59066 19.5058 6.92299C19.561 6.28693 19.4392 5.64799 19.1539 5.07684C18.8019 4.31247 18.2479 3.65867 17.5517 3.18593C16.8555 2.71318 16.0434 2.43942 15.2031 2.39415C14.73 2.37488 14.2563 2.41755 13.7943 2.52107ZM16.6373 3.54915C17.1239 3.7874 17.5528 4.12856 17.8943 4.54901C18.2359 4.96946 18.482 5.45914 18.6156 5.98413C18.7491 6.50912 18.767 7.05687 18.6679 7.58944C18.5687 8.12201 18.355 8.62666 18.0415 9.06845C17.728 9.51023 17.3222 9.87858 16.8522 10.148C16.3823 10.4174 15.8593 10.5814 15.3197 10.6286C14.78 10.6759 14.2366 10.6053 13.7269 10.4217C13.2173 10.2381 12.7536 9.94587 12.3681 9.5653C11.897 9.08857 11.561 8.49518 11.3947 7.8459C11.2283 7.19661 11.2375 6.51478 11.4214 5.87023C11.6052 5.22569 11.9571 4.64159 12.441 4.17778C12.9248 3.71397 13.5233 3.38711 14.175 3.23069C15.0093 3.09327 15.8655 3.20401 16.6373 3.54915Z" fill="black" stroke="black"></path>
      <path d="M10.0754 10.8851C9.31713 11.2477 8.62949 11.7423 8.04458 12.3459L7.97766 12.4105C7.72613 12.6548 7.41232 12.8254 7.07047 12.9035C6.72863 12.9816 6.3719 12.9644 6.0392 12.8536C4.15381 12.2051 4.08458 12.2559 4.08458 14.199C4.08458 15.5836 4.07189 15.6205 3.75458 15.8363C3.49814 16.0645 3.30156 16.3522 3.18207 16.674C3.06259 16.9959 3.02383 17.3421 3.0692 17.6824C3.02383 18.0227 3.06259 18.369 3.18207 18.6908C3.30156 19.0127 3.49814 19.3003 3.75458 19.5286C4.08458 19.7443 4.08458 19.7594 4.08458 21.5086C4.08458 23.1459 4.09728 23.2855 4.37651 23.5774C4.59228 23.8313 5.65843 24.2247 9.59305 25.494C12.3092 26.3697 14.708 27.0805 14.9238 27.0805C15.1396 27.0805 17.5892 26.3882 20.3815 25.532C26.4484 23.679 25.92 24.0597 25.92 21.5086V20.409C25.92 20.2187 25.9582 20.0304 26.0323 19.8552C26.1064 19.68 26.215 19.5215 26.3515 19.389C26.5709 19.168 26.7375 18.9001 26.8386 18.6056C26.9397 18.311 26.9728 17.9974 26.9354 17.6882C26.9728 17.379 26.9397 17.0654 26.8386 16.7708C26.7375 16.4762 26.5709 16.2084 26.3515 15.9874C26.215 15.8549 26.1064 15.6964 26.0323 15.5212C25.9582 15.346 25.92 15.1577 25.92 14.9674V14.0443C25.92 11.9374 25.92 11.9247 24.0542 12.5847L23.8234 12.6655C23.4729 12.7899 23.0947 12.8138 22.7313 12.7345C22.368 12.6551 22.034 12.4758 21.7673 12.2167C21.1806 11.6525 20.5079 11.1851 19.7746 10.832L19.1757 10.5297C19.0305 10.4564 18.8682 10.4234 18.7058 10.4341C18.5435 10.4449 18.387 10.499 18.2527 10.5909C18.2115 10.6193 18.179 10.6585 18.1589 10.7043C18.1387 10.75 18.1316 10.8005 18.1385 10.85C18.1453 10.8995 18.1657 10.9462 18.1975 10.9848C18.2293 11.0234 18.2711 11.0524 18.3184 11.0686L18.405 11.0986C19.3858 11.4341 20.2966 11.9468 21.0923 12.6113C21.6761 13.0936 21.8411 13.2967 21.7142 13.3601C21.6127 13.4236 20.1784 13.9567 18.5157 14.5532C17.3556 15.0539 16.1419 15.4202 14.8984 15.6447C12.5878 15.1172 10.3282 14.3867 8.14612 13.4617C8.14612 13.0428 10.1515 11.6155 11.3573 11.177L11.678 11.0617C11.722 11.0456 11.7609 11.0181 11.7906 10.982C11.8204 10.9458 11.84 10.9025 11.8474 10.8562C11.8548 10.81 11.8497 10.7627 11.8328 10.7191C11.8158 10.6755 11.7875 10.6372 11.7507 10.6082C11.6185 10.4887 11.4691 10.3895 11.3077 10.314C10.8869 10.4821 10.4756 10.6728 10.0754 10.8851ZM25.1538 14.3074C25.1538 15.3736 25.1284 15.5132 24.938 15.5132C24.67 15.566 24.4176 15.6791 24.1999 15.8441C23.9821 16.009 23.8049 16.2214 23.6815 16.4651C23.453 17.2527 23.453 18.089 23.6815 18.8767C23.8049 19.1204 23.9821 19.3328 24.1999 19.4977C24.4176 19.6626 24.67 19.7758 24.938 19.8286C25.1284 19.8286 25.1538 19.9936 25.1538 21.4786C25.1538 22.9128 25.1284 23.1286 24.938 23.2301C24.7073 23.357 15.6219 26.1747 15.4696 26.1747C15.4188 26.1747 15.3807 23.9824 15.3807 21.2882C15.3807 16.719 15.3934 16.4017 15.6115 16.4017C15.7269 16.4017 17.858 15.6528 20.333 14.7643C22.808 13.8759 24.915 13.1143 25.0038 13.1143C25.1157 13.1063 25.1538 13.4236 25.1538 14.3074ZM9.6692 14.8959C12.2204 15.7463 14.378 16.457 14.4669 16.4824C14.5823 16.5205 14.6192 17.5994 14.6192 21.3563C14.6192 24.0101 14.5684 26.1793 14.5177 26.1793C14.3527 26.1793 5.31574 23.2474 5.07458 23.1205C4.87151 23.019 4.84381 22.7905 4.84381 21.4197C4.84381 19.9982 4.8692 19.8332 5.07458 19.8332C5.34017 19.7783 5.58996 19.6642 5.80532 19.4994C6.02069 19.3346 6.19608 19.1233 6.31843 18.8813C6.5469 18.0937 6.5469 17.2573 6.31843 16.4697C6.19618 16.2282 6.02108 16.0173 5.80615 15.8527C5.59121 15.6881 5.34196 15.574 5.07689 15.519C4.87381 15.519 4.84612 15.3793 4.84612 14.4401C4.80859 14.0773 4.8431 13.7107 4.94766 13.3613C4.99843 13.3601 7.11805 14.0467 9.6692 14.8959ZM5.36651 16.5205C5.63305 16.7363 5.67112 16.8759 5.67112 17.6743C5.67112 18.4728 5.63305 18.6136 5.36651 18.8282C5.21393 18.9687 5.01604 19.0498 4.80876 19.0568C4.60149 19.0637 4.39858 18.9962 4.23689 18.8663C3.98305 18.7013 3.95766 18.5617 3.95766 17.6732C3.95766 16.7847 3.98305 16.6451 4.23689 16.4801C4.39885 16.3505 4.60191 16.2834 4.80919 16.2908C5.01647 16.2982 5.21422 16.3797 5.36651 16.5205ZM25.763 16.4824C26.0169 16.6474 26.0423 16.787 26.0423 17.6755C26.0423 18.564 26.0169 18.7036 25.763 18.8686C25.6014 18.9985 25.3985 19.066 25.1912 19.0591C24.9839 19.0521 24.786 18.971 24.6334 18.8305C24.3669 18.6147 24.3288 18.4751 24.3288 17.6767C24.3288 16.8782 24.3669 16.7374 24.6334 16.5228C24.7857 16.382 24.9835 16.3005 25.1907 16.2931C25.398 16.2857 25.6011 16.3529 25.763 16.4824Z" fill="black" stroke="black"></path>
    </g>
  </g>
  <defs>
    <clipPath id="clip0_345_23">
      <rect width="30" height="30" fill="white"></rect>
    </clipPath>
  </defs>  
  <g class="hover-visible">
    <ellipse fill="currentColor" cx="15.201" cy="6.617" rx="3.718" ry="3.921"></ellipse>
    <ellipse fill="currentColor" cx="4.858" cy="17.654" rx="0.822" ry="1.308"></ellipse>
    <ellipse fill="currentColor" cx="25.46" cy="17.874" rx="0.941" ry="1.324"></ellipse>
    <path fill="currentColor" d="M 8.096 13.49 C 8.096 13.49 12.133 10.537 12.133 10.537 C 12.133 10.537 18.2 10.567 18.224 10.567 C 18.248 10.567 21.876 13.246 21.867 13.254 C 21.858 13.262 14.944 15.918 14.944 15.909 C 14.944 15.9 8.167 13.573 8.096 13.49 Z"></path>
  </g>
</svg>