<svg xmlns="http://www.w3.org/2000/svg" width="12" height="12" preserveAspectRatio="xMinYMid meet"><g><path d="M10.543 8.603c.394-2.517.719-3.667 1.058-5.136.829-3.596-2.253-2.818-2.903-2.834l.448.938c1.401.401 1.806 1.264.824 4.858" stroke="#999" stroke-width=".629" stroke-linecap="round" stroke-linejoin="round" fill="none"/><path d="M1.858 3.95c-1.005.094-1.874 4.655-.751 5.851 1.348 1.436 5.25 1.919 6.101 1.629 1.892-.646 2.795-1.17 2.849-2.236.081-1.587-.444-7.532-1.701-7.924" stroke="#999" stroke-width="1.215" fill="none"/><path d="M3.478 8.71l-1.121-.484c-.111-.493-.104-.585.148-.659l1.183.278c-.229.098-.294.235-.211.865z" stroke="#999" stroke-width=".452" stroke-linecap="round" stroke-linejoin="round" fill="none"/><path d="M3.464 7.777l-1.035-.253c-.143-.316-.119-.551.139-.693l1.116.24c-.091.094-.289.124-.22.706z" stroke="#999" stroke-width=".452" stroke-linecap="round" stroke-linejoin="round" fill="none"/><path d="M3.603 7.079l-1.094-.244c-.143-.316-.128-.556.13-.698l1.255.257c-.086.068-.711.136-.291.685z" stroke="#999" stroke-width=".452" stroke-linecap="round" stroke-linejoin="round" fill="none"/><path d="M8.801 1.485c-1.967-1.03-1.806 1.814-3.807 3.913-2.1 2.203-3.011-.63-3.068-.799-.888-2.61 1.187-3.488 2.58-3.878 1.353-.379 3.817-.363 4.295.764z" stroke="#999" stroke-width="1.163" stroke-linejoin="round" fill="none"/><path d="M12.071 8.146c0 2.119-1.636 3.836-3.653 3.836-2.017 0-3.653-1.718-3.653-3.836 0-2.119 1.636-3.836 3.653-3.836 2.017 0 3.653 1.718 3.653 3.836" fill="#fff"/><path d="M2.569 11.917zm9.123-4.167l-2.706-3c-.309-.333-.773-.333-1.082 0l-2.706 3.084c-.309.333-.232.75.232.75h1.778v2.5c0 .417.387.833.851.833h.773c.387 0 .696-.417.696-.833v-2.5h1.933c.387 0 .541-.5.232-.833z" fill="#88b77b" overflow="visible"/></g></svg>