<!DOCTYPE svg PUBLIC "-//W3C//DTD SVG 1.1//EN" "http://www.w3.org/Graphics/SVG/1.1/DTD/svg11.dtd" [
	<!ENTITY ns_flows "http://ns.adobe.com/Flows/1.0/">
]><svg xmlns="http://www.w3.org/2000/svg" width="12" height="12" viewBox="-0.5 0 12 12" preserveAspectRatio="xMinYMid meet" overflow="visible" enable-background="new -0.5 0 12 12"><path d="M10 0h-9c-.5 0-1 .5-1 1v10c0 .5.5 1 1 1h9c.5 0 1-.5 1-1v-10c0-.5-.5-1-1-1zm-4 5h1v1h-1v-1zm-4 0h1v1h-1v-1zm0 2h1v1h-1v-1zm1 3h-1v-1h1v1zm2 0h-1v-1h1v1zm0-2h-1v-1h1v1zm0-2h-1v-1h1v1zm1 1h1v1h-1v-1zm1 3h-1v-1h1v1zm2 0h-1v-3h1v3zm0-4h-1v-1h1v1z" fill="#88b77b"/></svg>