<!DOCTYPE svg PUBLIC "-//W3C//DTD SVG 1.1//EN" "http://www.w3.org/Graphics/SVG/1.1/DTD/svg11.dtd" [
	<!ENTITY ns_flows "http://ns.adobe.com/Flows/1.0/">
]><svg xmlns="http://www.w3.org/2000/svg" width="12" height="12" viewBox="0 0 12 12" preserveAspectRatio="xMinYMid meet" overflow="visible"><path d="M12 6.4v1.6h-3.1c.1-.2.2-.6.2-1.1 0-1.8-1-3.2-2.3-3.7v-.3c0-1.6 1-2.9 2.2-2.9 1.2 0 2.2 1.3 2.2 2.9 0 1.1-.5 1.7-.5 1.7-.3.4-.2 1 .3 1.2l1 .6zm-9.3.5c0-1.9 1.1-3.4 2.6-3.8v-.2c0-1.6-1-2.9-2.2-2.9-1.2 0-2.2 1.3-2.2 2.9 0 1.1.5 1.7.5 1.7.3.4.2 1-.3 1.3l-1.1.5v1.6h2.9c-.1-.2-.2-.6-.2-1.1zm8 5.1c-.1-.5-.4-.9-.8-1.1l-2.1-1.1c-.5-.3-.6-.8-.2-1.2 0 0 .5-.6.5-1.7 0-1.6-1-2.9-2.2-2.9-1.2 0-2.2 1.3-2.2 2.9 0 1.1.5 1.7.5 1.7.3.4.2 1-.3 1.3l-2.1 1.1c-.3.1-.6.6-.8 1h9.7z" fill="#88b77b"/></svg>