<!DOCTYPE svg PUBLIC "-//W3C//DTD SVG 1.1//EN" "http://www.w3.org/Graphics/SVG/1.1/DTD/svg11.dtd" [
	<!ENTITY ns_flows "http://ns.adobe.com/Flows/1.0/">
]><svg xmlns="http://www.w3.org/2000/svg" width="12" height="12" viewBox="0 0 12 12" preserveAspectRatio="xMinYMid meet" overflow="visible"><path d="M11 0h-10c-.5 0-1 .5-1 1v10c0 .5.5 1 1 1h10c.5 0 1-.5 1-1v-10c0-.5-.5-1-1-1zm0 10c0 .5-.5 1-1 1h-8c-.5 0-1-.5-1-1v-6c0-.5.5-1 1-1h8c.5 0 1 .5 1 1v6zm-7-3.4l.7-.7 1.8-1.8c.2-.2.5-.2.7 0l.7.7c.2.2.2.5 0 .7l-1.5 1.5 1.5 1.5c.2.2.2.5 0 .7l-.7.7c-.2.2-.5.2-.7 0l-2.5-2.6c-.2-.2-.2-.5 0-.7z" fill="#88b77b"/></svg>