<!DOCTYPE svg PUBLIC "-//W3C//DTD SVG 1.1//EN" "http://www.w3.org/Graphics/SVG/1.1/DTD/svg11.dtd" [
	<!ENTITY ns_flows "http://ns.adobe.com/Flows/1.0/">
]><svg xmlns="http://www.w3.org/2000/svg" width="12" height="12" viewBox="0 0 12 12" preserveAspectRatio="xMinYMid meet" overflow="visible"><path d="M11.9 7c.1-.3.1-.7.1-1 0-.3 0-.7-.1-1l-1.6-.3c-.1-.3-.2-.6-.4-.9l.9-1.3c-.3-.5-.8-1-1.3-1.4l-1.4.9c-.2-.1-.5-.2-.8-.3l-.3-1.6c-.3-.1-.7-.1-1-.1-.3 0-.7 0-1 .1l-.3 1.6-.9.3-1.3-.9c-.5.4-1 .9-1.4 1.4l.9 1.3-.3.9-1.6.3c-.1.3-.1.7-.1 1 0 .3 0 .7.1 1l1.6.3c.1.3.2.6.3.8l-.9 1.4c.4.5.9 1 1.4 1.4l1.3-.9.9.4.3 1.5c.3.1.7.1 1 .1.3 0 .7 0 1-.1l.3-1.6c.3-.1.6-.2.9-.4l1.3.9c.5-.4 1-.9 1.4-1.4l-1-1.3.4-.9 1.6-.2zm-5.9.5c-.8 0-1.5-.7-1.5-1.5s.7-1.5 1.5-1.5 1.5.7 1.5 1.5-.7 1.5-1.5 1.5z" fill="#88b77b"/></svg>