<!DOCTYPE svg PUBLIC "-//W3C//DTD SVG 1.1//EN" "http://www.w3.org/Graphics/SVG/1.1/DTD/svg11.dtd" [
	<!ENTITY ns_flows "http://ns.adobe.com/Flows/1.0/">
]><svg xmlns="http://www.w3.org/2000/svg" width="12" height="12" viewBox="0 0 12 12" preserveAspectRatio="xMinYMid meet" overflow="visible"><path d="M11 0h-10c-.5 0-1 .5-1 1v10c0 .5.5 1 1 1h10c.5 0 1-.5 1-1v-10c0-.5-.5-1-1-1zm-4 3h1v1h-1v-1zm0 2h1v1h-1v-1zm-1 5h-4v-1h4v1zm0-2h-4v-1h4v1zm0-2h-4v-1h4v1zm0-2h-4v-1h4v1zm1 3h1v1h-1v-1zm1 3h-1v-1h1v1zm2 0h-1v-1h1v1zm0-2h-1v-1h1v1zm0-2h-1v-1h1v1zm0-2h-1v-1h1v1z" fill="#88b77b"/></svg>