<!DOCTYPE svg PUBLIC "-//W3C//DTD SVG 1.1//EN" "http://www.w3.org/Graphics/SVG/1.1/DTD/svg11.dtd" [
	<!ENTITY ns_flows "http://ns.adobe.com/Flows/1.0/">
]><svg xmlns="http://www.w3.org/2000/svg" width="12" height="12" viewBox="0 0 12 12" preserveAspectRatio="xMinYMid meet" overflow="visible"><path d="M6.5 0h-1c-1.7 0-3 1.3-3 3v2h-1.5c-.5 0-1 .5-1 1v5c0 .6.4 1 1 1h10c.5 0 1-.5 1-1v-5c0-.6-.5-1-1-1h-1.5v-2c0-1.7-1.3-3-3-3zm.5 8c0 .4-.2.7-.6.9l.1.1.5 1h-2l.5-1 .1-.1c-.4-.2-.6-.5-.6-.9 0-.5.4-1 1-1s1 .5 1 1zm.5-5v2h-3v-2c0-.6.5-1 1-1h1c.6 0 1 .4 1 1z" fill="#88b77b"/></svg>