<!DOCTYPE svg PUBLIC "-//W3C//DTD SVG 1.1//EN" "http://www.w3.org/Graphics/SVG/1.1/DTD/svg11.dtd" [
	<!ENTITY ns_flows "http://ns.adobe.com/Flows/1.0/">
]><svg xmlns="http://www.w3.org/2000/svg" width="12" height="12" viewBox="0 0 12 12" preserveAspectRatio="xMinYMid meet" overflow="visible"><path d="M5.3 12h-5.3v-9.4l2.6-2.6h7.4v3.8l-1-1v-1.8h-5v3h-3v7h4c0 .4.1.7.3 1zm6.5-5l-3.5-3.6c-.4-.4-1-.4-1.4 0l-3.5 3.7c-.4.4-.3.9.3.9h2.3v3c0 .5.5 1 1.1 1h1c.5 0 .9-.5.9-1v-3h2.5c.5 0 .7-.6.3-1z" fill="#88b77b"/></svg>