<!DOCTYPE svg PUBLIC "-//W3C//DTD SVG 1.1//EN" "http://www.w3.org/Graphics/SVG/1.1/DTD/svg11.dtd" [
	<!ENTITY ns_flows "http://ns.adobe.com/Flows/1.0/">
]><svg xmlns="http://www.w3.org/2000/svg" width="12" height="12" viewBox="0 0 12 12" preserveAspectRatio="xMinYMid meet" overflow="visible"><path d="M11.4 9.4l-1.5-1.5-.3-.2c.4-.8.7-1.6.7-2.5 0-2.9-2.3-5.2-5.1-5.2-2.9 0-5.2 2.3-5.2 5.2s2.3 5.2 5.2 5.2c.9 0 1.7-.2 2.4-.6.1 0 .1.1.2.2l1.5 1.5c.6.6 1.5.6 2.1 0s.6-1.5 0-2.1zm-6.2-2.1c-1.2 0-2.2-.9-2.2-2.1 0-1.2 1-2.2 2.2-2.2 1.2 0 2.2 1 2.2 2.2-.1 1.2-1 2.1-2.2 2.1z" fill="#88b77b"/></svg>