<!DOCTYPE svg PUBLIC "-//W3C//DTD SVG 1.1//EN" "http://www.w3.org/Graphics/SVG/1.1/DTD/svg11.dtd" [
	<!ENTITY ns_flows "http://ns.adobe.com/Flows/1.0/">
]><svg xmlns="http://www.w3.org/2000/svg" width="12" height="12" viewBox="0 0 12 12" preserveAspectRatio="xMinYMid meet" overflow="visible"><path d="M11.5 4.7c.3.5.5.9.5 1.3 0 1.6-2.8 4.2-6 4.2l5.5-5.5zm.5-4.7v2.8l-9.2 9.2h-2.8l2.7-2.7c-1.6-.9-2.7-2.3-2.7-3.3 0-1.6 2.8-4.2 6-4.2 1.2 0 2.3.4 3.3.9l2.7-2.7zm-4.9 3.9c.2.1.4.3.5.5l.2-.2-.7-.3zm-2 .4c-.4 0-.8.3-.8.8s.3.8.8.8.8-.3.8-.8-.4-.8-.8-.8zm-.9 3.5l.2-.2c-.5-.4-.7-1-.7-1.6 0-.9.5-1.7 1.3-2.1-1.6.4-2.8 1.6-3 2.1.2.4 1 1.3 2.2 1.8z" fill="#88b77b"/></svg>