<?xml version="1.0" encoding="utf-8"?>
<!-- Generator: Adobe Illustrator 15.1.0, SVG Export Plug-In  -->
<!DOCTYPE svg PUBLIC "-//W3C//DTD SVG 1.1//EN" "http://www.w3.org/Graphics/SVG/1.1/DTD/svg11.dtd" [
	<!ENTITY ns_flows "http://ns.adobe.com/Flows/1.0/">
]>
<svg version="1.1"
	 xmlns="http://www.w3.org/2000/svg" xmlns:xlink="http://www.w3.org/1999/xlink" xmlns:a="http://ns.adobe.com/AdobeSVGViewerExtensions/3.0/"
	 x="0px" y="0px" width="12px" height="12px" viewBox="0 0 12 12" style="overflow:visible;enable-background:new 0 0 12 12;"
	 xml:space="preserve" preserveAspectRatio="xMinYMid meet">
<defs>
</defs>
<path style="fill:#999999;" d="M11.9,9.3L8.3,7.5C7.8,7.3,7.7,6.7,8,6.3c0,0,0.9-1.1,0.9-2.5C8.9,1.7,7.6,0,6,0
	C4.4,0,3.1,1.7,3.1,3.8C3.1,5.2,4,6.3,4,6.3c0.3,0.4,0.2,1-0.3,1.3L0.1,9.4c0,0-0.1,0-0.1,0.1V12h4.9L5,11.4l0.5-2L4.9,8.8L5.7,8
	h0.5l0.8,0.9L6.5,9.5l0.5,2L7.1,12H12V9.3C12,9.3,11.9,9.3,11.9,9.3z"/>
</svg>
