<!DOCTYPE svg PUBLIC "-//W3C//DTD SVG 1.1//EN" "http://www.w3.org/Graphics/SVG/1.1/DTD/svg11.dtd" [
	<!ENTITY ns_flows "http://ns.adobe.com/Flows/1.0/">
]><svg xmlns="http://www.w3.org/2000/svg" width="12" height="12" viewBox="0 0 12 12" preserveAspectRatio="xMinYMid meet" overflow="visible"><path d="M8.5 6.7c2.5-1.5 4-3.6 3.3-4.9-.4-.7-1.5-1-2.8-.8V.8 0S8 .6 6 .5 3 0 3 0v1.1C1.7.9.6 1.1.2 1.9c-.7 1.2.8 3.4 3.3 4.8.3.2.7.4 1 .5.4.8.7 1.4.8 1.9.1.2-.1.6-.3.9H4l-2 2h8l-2-2H6.9c-.2-.3-.5-.7-.4-.9.2-.5.5-1.1.8-1.8.4-.1.8-.3 1.2-.6zm-7-4.1c.1-.3.8-.3 1.6 0 .1.9.4 1.8.6 2.6-1.6-1.1-2.4-2-2.2-2.6zm2.6 3.7zm6.4-3.7c.2.6-.7 1.6-2.3 2.6.3-.8.5-1.7.7-2.6.8-.3 1.5-.3 1.6 0zM7.8 6.3z" fill="#999"/></svg>