<?xml version="1.0" encoding="UTF-8" standalone="no"?>
<!-- Created with Inkscape (http://www.inkscape.org/) -->

<svg
   xmlns:dc="http://purl.org/dc/elements/1.1/"
   xmlns:cc="http://creativecommons.org/ns#"
   xmlns:rdf="http://www.w3.org/1999/02/22-rdf-syntax-ns#"
   xmlns:svg="http://www.w3.org/2000/svg"
   xmlns="http://www.w3.org/2000/svg"
   xmlns:sodipodi="http://sodipodi.sourceforge.net/DTD/sodipodi-0.dtd"
   xmlns:inkscape="http://www.inkscape.org/namespaces/inkscape"
   width="12"
   height="12"
   id="svg3063"
   version="1.1"
   inkscape:version="0.48.3.1 r9886"
   sodipodi:docname="backpack.svg" preserveAspectRatio="xMinYMid meet">
  <defs
     id="defs3065" />
  <sodipodi:namedview
     id="base"
     pagecolor="#ffffff"
     bordercolor="#666666"
     borderopacity="1.0"
     inkscape:pageopacity="0.0"
     inkscape:pageshadow="2"
     inkscape:zoom="11.2"
     inkscape:cx="1.429084"
     inkscape:cy="4.5052503"
     inkscape:document-units="px"
     inkscape:current-layer="layer1"
     showgrid="false"
     inkscape:window-width="830"
     inkscape:window-height="592"
     inkscape:window-x="280"
     inkscape:window-y="204"
     inkscape:window-maximized="0" />
  <metadata
     id="metadata3068">
    <rdf:RDF>
      <cc:Work
         rdf:about="">
        <dc:format>image/svg+xml</dc:format>
        <dc:type
           rdf:resource="http://purl.org/dc/dcmitype/StillImage" />
        <dc:title />
      </cc:Work>
    </rdf:RDF>
  </metadata>
  <g
     inkscape:label="Layer 1"
     inkscape:groupmode="layer"
     id="layer1"
     transform="translate(0,-1040.3622)">
    <path
       d="m 10.543488,1048.9648 c 0.394394,-2.5165 0.718883,-3.667 1.05778,-5.1365 0.82931,-3.5958 -2.2531987,-2.8176 -2.9030487,-2.8336 l 0.447857,0.938 c 1.4007247,0.401 1.8058647,1.2639 0.823647,4.8576"
       id="path3476"
       style="fill:none;stroke:#999999;stroke-width:0.62900001;stroke-linecap:round;stroke-linejoin:round;stroke-miterlimit:4;stroke-opacity:1;stroke-dasharray:none"
       inkscape:connector-curvature="0"
       sodipodi:nodetypes="ccccc" />
    <path
       d="m 1.8580936,1044.3127 c -1.00476496,0.094 -1.87411891,4.6548 -0.75118,5.8508 1.348319,1.436 5.249987,1.9192 6.101278,1.6285 1.891616,-0.6461 2.7947904,-1.1697 2.8491554,-2.2359 0.081,-1.5869 -0.4443624,-7.5316 -1.7011894,-7.9244"
       id="path3468"
       style="fill:none;stroke:#999999;stroke-width:1.215;stroke-linecap:butt;stroke-linejoin:miter;stroke-miterlimit:4;stroke-opacity:1;stroke-dasharray:none"
       inkscape:connector-curvature="0" />
    <path
       d="m 3.4779306,1049.0721 -1.120545,-0.4837 c -0.110732,-0.4931 -0.10429,-0.5847 0.147902,-0.6592 l 1.183311,0.2782 c -0.229472,0.098 -0.293891,0.2349 -0.210668,0.8647 z"
       id="path3478"
       style="fill:none;stroke:#999999;stroke-width:0.45217568;stroke-linecap:round;stroke-linejoin:round;stroke-miterlimit:4;stroke-opacity:1;stroke-dasharray:none"
       inkscape:connector-curvature="0" />
    <path
       d="m 3.4644806,1048.139 -1.035364,-0.2526 c -0.142854,-0.3159 -0.119045,-0.5515 0.138893,-0.6934 l 1.116149,0.2397 c -0.09058,0.094 -0.289451,0.1236 -0.219678,0.7063 z"
       id="path3480"
       style="fill:none;stroke:#999999;stroke-width:0.45217568;stroke-linecap:round;stroke-linejoin:round;stroke-miterlimit:4;stroke-opacity:1;stroke-dasharray:none"
       inkscape:connector-curvature="0" />
    <path
       d="m 3.6034606,1047.4412 -1.093646,-0.244 c -0.142897,-0.3158 -0.128011,-0.5557 0.12997,-0.6977 l 1.254999,0.2569 c -0.08605,0.068 -0.710744,0.1364 -0.291323,0.6848 z"
       id="path3482"
       style="fill:none;stroke:#999999;stroke-width:0.45217568;stroke-linecap:round;stroke-linejoin:round;stroke-miterlimit:4;stroke-opacity:1;stroke-dasharray:none"
       inkscape:connector-curvature="0" />
    <path
       d="m 8.8008246,1041.8475 c -1.967048,-1.0297 -1.805695,1.8144 -3.806781,3.9135 -2.09976,2.2025 -3.010551,-0.6299 -3.068049,-0.7991 -0.88794,-2.6104 1.187184,-3.4884 2.580118,-3.8783 1.353455,-0.3789 3.817183,-0.3632 4.294712,0.7639 z"
       id="path3470"
       style="fill:none;stroke:#999999;stroke-width:1.163;stroke-linecap:butt;stroke-linejoin:round;stroke-miterlimit:4;stroke-opacity:1;stroke-dasharray:none"
       inkscape:connector-curvature="0" />
    <path
       inkscape:connector-curvature="0"
       id="path190"
       style="fill:#ffffff;fill-opacity:1;fill-rule:nonzero;stroke:none"
       d="m 12.071228,1048.5083 c 0,2.1186 -1.635668,3.8363 -3.653042,3.8363 -2.01742,0 -3.6530436,-1.7177 -3.6530436,-3.8363 0,-2.1187 1.6356236,-3.8364 3.6530436,-3.8364 2.017374,0 3.653042,1.7177 3.653042,3.8364" />
    <path
       style="fill:#999999;overflow:visible"
       d="m 2.5691904,1052.2788 z m 9.1231616,-4.1669 -2.7059844,-3.0004 c -0.309334,-0.3333 -0.773131,-0.3333 -1.082465,0 l -2.706035,3.0837 c -0.309232,0.3333 -0.231925,0.75 0.231923,0.75 l 1.778289,0 0,2.5003 c 0,0.4167 0.386591,0.8333 0.85054,0.8333 l 0.773081,0 c 0.386642,0 0.695875,-0.4166 0.695875,-0.8333 l 0,-2.5003 1.9328524,0 c 0.386591,0 0.541207,-0.5001 0.231924,-0.8333 z"
       id="path6-1-5"
       inkscape:connector-curvature="0"
       sodipodi:nodetypes="ccccccscsssscsc" />
  </g>
</svg>
