<?xml version="1.0" encoding="utf-8"?>
<!-- Generator: Adobe Illustrator 15.1.0, SVG Export Plug-In  -->
<!DOCTYPE svg PUBLIC "-//W3C//DTD SVG 1.1//EN" "http://www.w3.org/Graphics/SVG/1.1/DTD/svg11.dtd" [
	<!ENTITY ns_flows "http://ns.adobe.com/Flows/1.0/">
]>
<svg version="1.1"
	 xmlns="http://www.w3.org/2000/svg" xmlns:xlink="http://www.w3.org/1999/xlink" xmlns:a="http://ns.adobe.com/AdobeSVGViewerExtensions/3.0/"
	 x="0px" y="0px" width="12px" height="12px" viewBox="0 0 12 12" style="overflow:visible;enable-background:new 0 0 12 12;"
	 xml:space="preserve" preserveAspectRatio="xMinYMid meet">
<defs>
</defs>
<path style="fill:#999999;" d="M10.967,3.014c-0.376,0.716-0.843,1.336-1.418,1.811C9.201,5.111,8.335,5.7,7,5.914v0.545L6.453,7
	H5.547L5,6.459V5.914C3.663,5.7,2.797,5.111,2.45,4.824C1.881,4.354,1.418,3.741,1.041,3.018C0.183,4.692,0.021,6.605,0,7.533V11
	c0,0.55,0.453,1,1.003,1h9.994C11.547,12,12,11.55,12,11V7.774C11.999,6.983,11.909,4.852,10.967,3.014z M9,10c0,0.55-0.45,1-1,1H4
	c-0.55,0-1-0.45-1-1V8h1v1.5C4,9.775,4.225,10,4.5,10h3C7.775,10,8,9.775,8,9.5V8h1V10z M1.963,0h8.062c0,0,1.006,0,0.647,1.016
	c-0.29,1.111-0.814,2.257-1.761,3.038C8.37,4.5,7.352,5,6,5S3.628,4.5,3.087,4.053C2.135,3.267,1.613,2.109,1.326,0.997
	C0.973,0,1.963,0,1.963,0z"/>
</svg>
