<!DOCTYPE svg PUBLIC "-//W3C//DTD SVG 1.1//EN" "http://www.w3.org/Graphics/SVG/1.1/DTD/svg11.dtd" [
	<!ENTITY ns_flows "http://ns.adobe.com/Flows/1.0/">
]><svg xmlns="http://www.w3.org/2000/svg" width="12" height="12" viewBox="0 0 12 12" preserveAspectRatio="xMinYMid meet" overflow="visible"><path d="M10.967 3.014c-.376.716-.843 1.336-1.418 1.81-.35.287-1.215.876-2.55 1.09v.545L6.453 7h-.906L5 6.46v-.546C3.663 5.7 2.797 5.11 2.45 4.824c-.57-.47-1.032-1.083-1.41-1.806C.184 4.692.02 6.605 0 7.533V11c0 .55.453 1 1.003 1h9.994c.55 0 1.003-.45 1.003-1V7.774c0-.79-.09-2.922-1.033-4.76zM9 10c0 .55-.45 1-1 1H4c-.55 0-1-.45-1-1V8h1v1.5c0 .275.225.5.5.5h3c.275 0 .5-.225.5-.5V8h1v2zM1.963 0h8.062s1.006 0 .647 1.016c-.29 1.11-.814 2.257-1.76 3.038C8.37 4.5 7.35 5 6 5s-2.372-.5-2.913-.947C2.135 3.267 1.613 2.11 1.327.997.972 0 1.962 0 1.962 0z" fill="#888"/></svg>