<!DOCTYPE svg PUBLIC "-//W3C//DTD SVG 1.1//EN" "http://www.w3.org/Graphics/SVG/1.1/DTD/svg11.dtd" [
	<!ENTITY ns_flows "http://ns.adobe.com/Flows/1.0/">
]><svg xmlns="http://www.w3.org/2000/svg" width="12" height="12" viewBox="0 0 12 12" preserveAspectRatio="xMinYMid meet" overflow="visible"><path d="M6 0C2.7 0 0 2.7 0 6s2.7 6 6 6 6-2.7 6-6-2.7-6-6-6zm0 2.5c.5 0 1 .1 1.4.3L2.8 7.4c-.2-.4-.3-.9-.3-1.4 0-1.9 1.6-3.5 3.5-3.5zm0 7c-.5 0-1-.1-1.4-.3l4.6-4.6c.2.4.3.9.3 1.4 0 1.9-1.6 3.5-3.5 3.5z" fill="#888"/></svg>