<!DOCTYPE svg PUBLIC "-//W3C//DTD SVG 1.1//EN" "http://www.w3.org/Graphics/SVG/1.1/DTD/svg11.dtd" [
	<!ENTITY ns_flows "http://ns.adobe.com/Flows/1.0/">
]><svg xmlns="http://www.w3.org/2000/svg" width="12" height="12" viewBox="-0.5 0 12 12" preserveAspectRatio="xMinYMid meet" overflow="visible"><path d="M10 0H1C.5 0 0 .5 0 1v10c0 .5.5 1 1 1h9c.5 0 1-.5 1-1V1c0-.5-.5-1-1-1zM2 5h1v1H2V5zm0 2h1v1H2V7zm1 3H2V9h1v1zm2 0H4V9h1v1zm0-2H4V7h1v1zm0-2H4V5h1v1zm2 1v1H6V7h1zM6 6V5h1v1H6zm1 4H6V9h1v1zm2 0H8V7h1v3zm0-4H8V5h1v1zm0-2H2V2h7v2z" fill="#888"/></svg>