<?xml version="1.0" encoding="utf-8"?>
<!-- Generator: Adobe Illustrator 15.1.0, SVG Export Plug-In  -->
<!DOCTYPE svg PUBLIC "-//W3C//DTD SVG 1.1//EN" "http://www.w3.org/Graphics/SVG/1.1/DTD/svg11.dtd" [
	<!ENTITY ns_flows "http://ns.adobe.com/Flows/1.0/">
]>
<svg version="1.1"
	 xmlns="http://www.w3.org/2000/svg" xmlns:xlink="http://www.w3.org/1999/xlink" xmlns:a="http://ns.adobe.com/AdobeSVGViewerExtensions/3.0/"
	 x="0px" y="0px" width="12px" height="12px" viewBox="0 0 12 12" style="overflow:visible;enable-background:new 0 0 12 12;"
	 xml:space="preserve" preserveAspectRatio="xMinYMid meet">
<defs>
</defs>
<path style="fill:#999999;" d="M12,6.4V8H8.9C9,7.8,9.1,7.4,9.1,6.9c0-1.8-1-3.2-2.3-3.7c0-0.1,0-0.2,0-0.3c0-1.6,1-2.9,2.2-2.9
	c1.2,0,2.2,1.3,2.2,2.9c0,1.1-0.5,1.7-0.5,1.7c-0.3,0.4-0.2,1,0.3,1.2L12,6.4z M2.7,6.9c0-1.9,1.1-3.4,2.6-3.8c0-0.1,0-0.1,0-0.2
	c0-1.6-1-2.9-2.2-2.9C1.9,0,0.9,1.3,0.9,2.9c0,1.1,0.5,1.7,0.5,1.7c0.3,0.4,0.2,1-0.3,1.3L0,6.4V8h2.9C2.8,7.8,2.7,7.4,2.7,6.9z
	 M10.7,12c-0.1-0.5-0.4-0.9-0.8-1.1L7.8,9.8C7.3,9.5,7.2,9,7.6,8.6c0,0,0.5-0.6,0.5-1.7c0-1.6-1-2.9-2.2-2.9C4.7,4,3.7,5.3,3.7,6.9
	c0,1.1,0.5,1.7,0.5,1.7c0.3,0.4,0.2,1-0.3,1.3l-2.1,1.1C1.5,11.1,1.2,11.6,1,12H10.7z"/>
</svg>
