<?xml version="1.0" encoding="UTF-8" standalone="no"?>
<svg
   xmlns:dc="http://purl.org/dc/elements/1.1/"
   xmlns:cc="http://creativecommons.org/ns#"
   xmlns:rdf="http://www.w3.org/1999/02/22-rdf-syntax-ns#"
   xmlns:svg="http://www.w3.org/2000/svg"
   xmlns="http://www.w3.org/2000/svg"
   id="svg4"
   version="1.1"
   overflow="visible"
   preserveAspectRatio="xMinYMid meet"
   viewBox="0 0 12 12"
   height="12"
   width="12">
  <metadata
     id="metadata10">
    <rdf:RDF>
      <cc:Work
         rdf:about="">
        <dc:format>image/svg+xml</dc:format>
        <dc:type
           rdf:resource="http://purl.org/dc/dcmitype/StillImage" />
        <dc:title></dc:title>
      </cc:Work>
    </rdf:RDF>
  </metadata>
  <defs
     id="defs8" />
  <g
     style="overflow:visible"
     id="g870"
     transform="matrix(1.1075441,0,0,1.1075441,-0.6452645,-1.4759224)">
    <path
       id="path859"
       d="m 8.9412074,8.2774034 c 0.2106763,0.2106763 0.2106763,0.5266909 0,0.7373672 L 8.2038402,9.7521378 c -0.2106764,0.2106761 -0.5266909,0.2106761 -0.7373672,0 L 5.9917385,8.2774034 4.5170041,9.7521378 c -0.2106763,0.2106761 -0.5266908,0.2106761 -0.7373672,0 L 3.0422697,9.0147706 c -0.2106763,-0.2106763 -0.2106763,-0.5266909 0,-0.7373672 L 4.5170041,6.802669 3.0422697,5.2225964 c -0.2106763,-0.2106763 -0.2106763,-0.5266909 0,-0.7373672 L 3.7796369,3.747862 c 0.2106764,-0.2106764 0.5266909,-0.2106764 0.7373672,0 L 5.9917385,5.3279346 7.466473,3.8532002 C 7.6771493,3.6425238 8.098502,3.6425238 8.2038402,3.747862 l 0.7373672,0.7373672 c 0.2106763,0.2106763 0.2106763,0.632029 0.1053381,0.8427054 L 7.466473,6.802669 Z"
       style="fill:#c83328;fill-opacity:1;stroke-width:1.05338168" />
  </g>
</svg>
