<!DOCTYPE svg PUBLIC "-//W3C//DTD SVG 1.1//EN" "http://www.w3.org/Graphics/SVG/1.1/DTD/svg11.dtd" [
	<!ENTITY ns_flows "http://ns.adobe.com/Flows/1.0/">
]><svg xmlns="http://www.w3.org/2000/svg" width="12" height="12" viewBox="0 0 12 12" preserveAspectRatio="xMinYMid meet" overflow="visible"><path d="M11 0H1C.5 0 0 .5 0 1v10c0 .5.5 1 1 1h10c.5 0 1-.5 1-1V1c0-.5-.5-1-1-1zm0 10c0 .5-.5 1-1 1H2c-.5 0-1-.5-1-1V4c0-.5.5-1 1-1h8c.5 0 1 .5 1 1v6zM8.8 8.4c.2.2.2.5 0 .7l-.7.7c-.2.2-.5.2-.7 0L6 8.4 4.6 9.8c-.2.2-.5.2-.7 0l-.7-.7c-.2-.2-.2-.5 0-.7L4.6 7 3.2 5.5c-.2-.2-.2-.5 0-.7l.7-.7c.2-.2.5-.2.7 0L6 5.6l1.4-1.4c.2-.2.6-.2.7-.1l.7.7c.2.2.2.6.1.8L7.4 7l1.4 1.4z" fill="#999"/></svg>