<?xml version="1.0" encoding="UTF-8"?>
<svg xmlns="http://www.w3.org/2000/svg" xmlns:xlink="http://www.w3.org/1999/xlink" width="16px" height="16px" viewBox="0 0 16 16" version="1.1">
<g id="surface1">
<path style=" stroke:none;fill-rule:nonzero;fill:rgb(60%,60%,60%);fill-opacity:1;" d="M 11.402344 11.597656 C 11.449219 11.710938 11.433594 11.816406 11.355469 11.910156 L 8.230469 15.339844 C 8.171875 15.398438 8.105469 15.429688 8.027344 15.429688 C 7.945312 15.429688 7.871094 15.398438 7.8125 15.339844 L 4.644531 11.910156 C 4.566406 11.816406 4.550781 11.710938 4.597656 11.597656 C 4.652344 11.484375 4.738281 11.429688 4.855469 11.429688 L 6.855469 11.429688 L 6.855469 0.285156 C 6.855469 0.203125 6.882812 0.132812 6.9375 0.0820312 C 6.992188 0.0273438 7.058594 0 7.144531 0 L 8.855469 0 C 8.941406 0 9.007812 0.0273438 9.0625 0.0820312 C 9.117188 0.132812 9.144531 0.203125 9.144531 0.285156 L 9.144531 11.429688 L 11.144531 11.429688 C 11.269531 11.429688 11.355469 11.484375 11.402344 11.597656 Z M 11.402344 11.597656 "/>
</g>
</svg>
