<?xml version="1.0" encoding="utf-8"?>
<!-- Generator: Adobe Illustrator 15.1.0, SVG Export Plug-In  -->
<!DOCTYPE svg PUBLIC "-//W3C//DTD SVG 1.1//EN" "http://www.w3.org/Graphics/SVG/1.1/DTD/svg11.dtd" [
	<!ENTITY ns_flows "http://ns.adobe.com/Flows/1.0/">
]>
<svg version="1.1"
	 xmlns="http://www.w3.org/2000/svg" xmlns:xlink="http://www.w3.org/1999/xlink" xmlns:a="http://ns.adobe.com/AdobeSVGViewerExtensions/3.0/"
	 x="0px" y="0px" width="12px" height="12px" viewBox="0 0 12 12" style="overflow:visible;enable-background:new 0 0 12 12;"
	 xml:space="preserve" preserveAspectRatio="xMinYMid meet">
<defs>
</defs>
<path style="fill:#999999;" d="M5.8,12H0V2.6L2.6,0H10v4.1c0-0.8-0.4-1.5-1-1.8V1H4v3H1v7h3.8L5.8,12z M11.8,8l-3.5,3.7
	c-0.4,0.4-1,0.4-1.4,0L3.4,8C3,7.6,3.1,7,3.7,7H6V4.1C6,3.5,6.5,3,7.1,3h1C8.6,3,9,3.5,9,4.1V7h2.5C12,7,12.2,7.6,11.8,8z"/>
</svg>
