<!DOCTYPE svg PUBLIC "-//W3C//DTD SVG 1.1//EN" "http://www.w3.org/Graphics/SVG/1.1/DTD/svg11.dtd" [
	<!ENTITY ns_flows "http://ns.adobe.com/Flows/1.0/">
]><svg xmlns="http://www.w3.org/2000/svg" width="12" height="12" viewBox="0 0 12 12" preserveAspectRatio="xMinYMid meet" overflow="visible"><path d="M5.8 12H0V2.6L2.6 0H10v4.1c0-.8-.4-1.5-1-1.8V1H4v3H1v7h3.8l1 1zm6-4l-3.5 3.7c-.4.4-1 .4-1.4 0L3.4 8c-.4-.4-.3-1 .3-1H6V4.1C6 3.5 6.5 3 7.1 3h1c.5 0 .9.5.9 1.1V7h2.5c.5 0 .7.6.3 1z" fill="#888"/></svg>