<?xml version="1.0" encoding="utf-8"?>
<!-- Generator: Adobe Illustrator 15.1.0, SVG Export Plug-In  -->
<!DOCTYPE svg PUBLIC "-//W3C//DTD SVG 1.1//EN" "http://www.w3.org/Graphics/SVG/1.1/DTD/svg11.dtd" [
	<!ENTITY ns_flows "http://ns.adobe.com/Flows/1.0/">
]>
<svg version="1.1"
	 xmlns="http://www.w3.org/2000/svg" xmlns:xlink="http://www.w3.org/1999/xlink" xmlns:a="http://ns.adobe.com/AdobeSVGViewerExtensions/3.0/"
	 x="0px" y="0px" width="12px" height="12px" viewBox="0 -1 12 12" style="overflow:visible;enable-background:new 0 -1 12 12;"
	 xml:space="preserve" preserveAspectRatio="xMinYMid meet">
<defs>
</defs>
<path style="fill:#999999;" d="M0,0v10h12V0H0z M1,2.7l2.7,2.7L1,8.1V2.7z M4.4,6.1l1.2,1.2C5.7,7.4,5.9,7.5,6,7.5s0.3,0,0.4-0.1
	l1.2-1.2L10.4,9H1.6L4.4,6.1z M8.3,5.4L11,2.7v5.4L8.3,5.4z M11,1v0.3L6.4,5.9c-0.2,0.2-0.5,0.2-0.7,0L1,1.3V1H11z"/>
</svg>
