<svg xmlns="http://www.w3.org/2000/svg" viewBox="0 0 16 16" preserveAspectRatio="xMinYMid meet"><title>Artboard 1</title><path d="M15.75,6.75l-3.49,3.4L13.09,15a1.29,1.29,0,0,1,0,.19c0,.26-.12.48-.39.48a.78.78,0,0,1-.38-.12L8,13.25,3.68,15.51a.81.81,0,0,1-.38.12c-.28,0-.4-.23-.4-.48a1.3,1.3,0,0,1,0-.19l.83-4.81L.24,6.75A.75.75,0,0,1,0,6.28c0-.29.3-.4.54-.44l4.83-.7L7.53.76C7.62.58,7.78.37,8,.37s.38.21.47.39l2.16,4.38,4.83.7c.23,0,.54.15.54.44A.72.72,0,0,1,15.75,6.75Zm-1.87.12-4.06-.6L8,2.59,6.18,6.26l-4.06.6L5.07,9.72l-.7,4L8,11.85l3.63,1.91-.69-4Z" fill="#888"/></svg>