<?xml version="1.0" encoding="utf-8"?>
<!-- Generator: Adobe Illustrator 15.1.0, SVG Export Plug-In  -->
<!DOCTYPE svg PUBLIC "-//W3C//DTD SVG 1.1//EN" "http://www.w3.org/Graphics/SVG/1.1/DTD/svg11.dtd" [
	<!ENTITY ns_flows "http://ns.adobe.com/Flows/1.0/">
]>
<svg version="1.1"
	 xmlns="http://www.w3.org/2000/svg" xmlns:xlink="http://www.w3.org/1999/xlink" xmlns:a="http://ns.adobe.com/AdobeSVGViewerExtensions/3.0/"
	 x="0px" y="0px" width="12px" height="12px" viewBox="0 0 12 12" style="overflow:visible;enable-background:new 0 0 12 12;"
	 xml:space="preserve" preserveAspectRatio="xMinYMid meet">
<defs>
</defs>
<path style="fill:#999999;" d="M5,9c0,1.2,0.6,2.3,1.4,3H0V8.4l1.7-0.9C2.2,7.3,2.3,6.7,2,6.3c0,0-0.9-1.1-0.9-2.5
	C1.1,1.7,2.4,0,4,0c1.6,0,2.9,1.7,2.9,3.8C6.9,5.2,6,6.3,6,6.3c0,0,0,0.1,0,0.1C5.4,7.1,5,8,5,9z M12,8h-2V6H8v2H6v2h2v2h2v-2h2V8z"
	/>
</svg>
