<!DOCTYPE svg PUBLIC "-//W3C//DTD SVG 1.1//EN" "http://www.w3.org/Graphics/SVG/1.1/DTD/svg11.dtd" [
	<!ENTITY ns_flows "http://ns.adobe.com/Flows/1.0/">
]><svg xmlns="http://www.w3.org/2000/svg" width="12" height="12" viewBox="0 0 12 12" preserveAspectRatio="xMinYMid meet" overflow="visible"><path d="M2 12v-1.2c0-.5.2-1.2.7-1.5l3.2-1.8c.5-.3.6-.8.3-1.3 0 0-.9-1.1-.9-2.5C5.2 1.7 6.5 0 8.1 0S11 1.7 11 3.8c0 1.4-.9 2.5-.9 2.5-.3.4-.2 1 .3 1.2l1.6.9V12H2zm-.6-4.4L0 8.2V12h1v-1.8c0-.5.2-1.2.7-1.4l2.6-1.5c.5-.3.7-.9.4-1.4 0 0-.5-1-.5-2.1 0-1.3.4-2.4 1.1-3.3C4.9.2 4.4 0 3.9 0 2.3 0 1 1.7 1 3.8c0 1.4.9 2.5.9 2.5.3.4 0 1-.5 1.3z" fill="#888"/></svg>