<?xml version="1.0" encoding="utf-8"?>
<!-- Generator: Adobe Illustrator 15.1.0, SVG Export Plug-In  -->
<!DOCTYPE svg PUBLIC "-//W3C//DTD SVG 1.1//EN" "http://www.w3.org/Graphics/SVG/1.1/DTD/svg11.dtd" [
	<!ENTITY ns_flows "http://ns.adobe.com/Flows/1.0/">
]>
<svg version="1.1"
	 xmlns="http://www.w3.org/2000/svg" xmlns:xlink="http://www.w3.org/1999/xlink" xmlns:a="http://ns.adobe.com/AdobeSVGViewerExtensions/3.0/"
	 x="0px" y="0px" width="12px" height="12px" viewBox="0 0 12 12" style="overflow:visible;enable-background:new 0 0 12 12;"
	 xml:space="preserve" preserveAspectRatio="xMinYMid meet">
<defs>
</defs>
<path style="fill:#999999;" d="M3,10H0V6.4l1.2-0.6C1.6,5.6,1.8,5,1.4,4.6c0,0-0.5-0.6-0.5-1.7c0-1.6,1-2.9,2.2-2.9
	c1.2,0,2.2,1.3,2.2,2.9c0,1.1-0.5,1.7-0.5,1.7C4.4,5,4.6,5.5,5,5.8l0.9,0.5c0.1,0.5-0.1,1-0.5,1.3L3.9,8.3C3.4,8.6,3,9.3,3,9.8V10z
	 M12,12V8.4l-1.2-0.6c-0.5-0.3-0.6-0.8-0.3-1.2c0,0,0.5-0.6,0.5-1.7c0-1.6-1-2.9-2.2-2.9C7.7,2,6.7,3.3,6.7,4.9
	c0,1.1,0.5,1.7,0.5,1.7c0.3,0.4,0.2,1-0.3,1.3L4.9,8.9C4.4,9.2,4,9.9,4,10.4V12H12z"/>
</svg>
