<!DOCTYPE svg PUBLIC "-//W3C//DTD SVG 1.1//EN" "http://www.w3.org/Graphics/SVG/1.1/DTD/svg11.dtd" [
	<!ENTITY ns_flows "http://ns.adobe.com/Flows/1.0/">
]><svg xmlns="http://www.w3.org/2000/svg" width="12" height="12" viewBox="0 0 12 12" preserveAspectRatio="xMinYMid meet" overflow="visible"><path d="M3 10H0V6.4l1.2-.6c.4-.2.6-.8.2-1.2 0 0-.5-.6-.5-1.7C.9 1.3 1.9 0 3.1 0c1.2 0 2.2 1.3 2.2 2.9 0 1.1-.5 1.7-.5 1.7-.4.4-.2.9.2 1.2l.9.5c.1.5-.1 1-.5 1.3l-1.5.7c-.5.3-.9 1-.9 1.5v.2zm9 2V8.4l-1.2-.6c-.5-.3-.6-.8-.3-1.2 0 0 .5-.6.5-1.7C11 3.3 10 2 8.8 2 7.7 2 6.7 3.3 6.7 4.9c0 1.1.5 1.7.5 1.7.3.4.2 1-.3 1.3l-2 1c-.5.3-.9 1-.9 1.5V12h8z" fill="#999"/></svg>