<?xml version="1.0" encoding="utf-8"?>
<!-- Generator: Adobe Illustrator 15.1.0, SVG Export Plug-In  -->
<!DOCTYPE svg PUBLIC "-//W3C//DTD SVG 1.1//EN" "http://www.w3.org/Graphics/SVG/1.1/DTD/svg11.dtd" [
	<!ENTITY ns_flows "http://ns.adobe.com/Flows/1.0/">
]>
<svg version="1.1"
	 xmlns="http://www.w3.org/2000/svg" xmlns:xlink="http://www.w3.org/1999/xlink" xmlns:a="http://ns.adobe.com/AdobeSVGViewerExtensions/3.0/"
	 x="0px" y="0px" width="12px" height="12px" viewBox="0 0 12 12" style="overflow:visible;enable-background:new 0 0 12 12;"
	 xml:space="preserve" preserveAspectRatio="xMinYMid meet">
<defs>
</defs>
<path style="fill:#999999;" d="M2,12v-1.2c0-0.5,0.2-1.2,0.7-1.5l3.2-1.8c0.5-0.3,0.6-0.8,0.3-1.3c0,0-0.9-1.1-0.9-2.5
	C5.2,1.7,6.5,0,8.1,0S11,1.7,11,3.8c0,1.4-0.9,2.5-0.9,2.5c-0.3,0.4-0.2,1,0.3,1.2L12,8.4V12H2z M1.4,7.6L0,8.2V12h1v-1.8
	C1,9.7,1.2,9,1.7,8.8l2.6-1.5C4.8,7,5,6.4,4.7,5.9c0,0-0.5-1-0.5-2.1c0-1.3,0.4-2.4,1.1-3.3C4.9,0.2,4.4,0,3.9,0C2.3,0,1,1.7,1,3.8
	c0,1.4,0.9,2.5,0.9,2.5C2.2,6.7,1.9,7.3,1.4,7.6z"/>
</svg>
