<?xml version="1.0" encoding="utf-8"?>
<!-- Generator: Adobe Illustrator 15.1.0, SVG Export Plug-In  -->
<!DOCTYPE svg PUBLIC "-//W3C//DTD SVG 1.1//EN" "http://www.w3.org/Graphics/SVG/1.1/DTD/svg11.dtd" [
	<!ENTITY ns_flows "http://ns.adobe.com/Flows/1.0/">
]>
<svg version="1.1"
	 xmlns="http://www.w3.org/2000/svg" xmlns:xlink="http://www.w3.org/1999/xlink" xmlns:a="http://ns.adobe.com/AdobeSVGViewerExtensions/3.0/"
	 x="0px" y="0px" width="12px" height="12px" viewBox="0 -1.8 12 12" style="overflow:visible;enable-background:new 0 -1.8 12 12;"
	 xml:space="preserve" preserveAspectRatio="xMinYMid meet">
<defs>
</defs>
<path style="fill:#999999;" d="M6,0C2.8,0,0,2.6,0,4.2s2.8,4.2,6,4.2s6-2.6,6-4.2S9.2,0,6,0z M2,4.2C2.2,3.8,3.4,2.6,5,2.2
	C4.2,2.5,3.7,3.3,3.7,4.2c0,0.9,0.5,1.7,1.3,2.1C3.4,5.9,2.2,4.7,2,4.2z M5.1,4.1c-0.4,0-0.8-0.3-0.8-0.8s0.3-0.8,0.8-0.8
	s0.8,0.3,0.8,0.8S5.5,4.1,5.1,4.1z M7,6.3c0.8-0.4,1.3-1.2,1.3-2.1c0-0.9-0.5-1.7-1.3-2.1C8.6,2.6,9.8,3.8,10,4.2
	C9.8,4.7,8.6,5.9,7,6.3z"/>
</svg>
