<!DOCTYPE svg PUBLIC "-//W3C//DTD SVG 1.1//EN" "http://www.w3.org/Graphics/SVG/1.1/DTD/svg11.dtd" [
	<!ENTITY ns_flows "http://ns.adobe.com/Flows/1.0/">
]><svg xmlns="http://www.w3.org/2000/svg" width="12" height="12" viewBox="0 -1.8 12 12" preserveAspectRatio="xMinYMid meet" overflow="visible"><path d="M6 0C2.8 0 0 2.6 0 4.2s2.8 4.2 6 4.2 6-2.6 6-4.2S9.2 0 6 0zM2 4.2c.2-.4 1.4-1.6 3-2-.8.3-1.3 1.1-1.3 2 0 .9.5 1.7 1.3 2.1-1.6-.4-2.8-1.6-3-2.1zm3.1-.1c-.4 0-.8-.3-.8-.8s.3-.8.8-.8.8.3.8.8-.4.8-.8.8zM7 6.3c.8-.4 1.3-1.2 1.3-2.1 0-.9-.5-1.7-1.3-2.1 1.6.5 2.8 1.7 3 2.1-.2.5-1.4 1.7-3 2.1z" fill="#888"/></svg>