<?xml version="1.0" encoding="UTF-8" standalone="no"?>
<svg
   xmlns:dc="http://purl.org/dc/elements/1.1/"
   xmlns:cc="http://creativecommons.org/ns#"
   xmlns:rdf="http://www.w3.org/1999/02/22-rdf-syntax-ns#"
   xmlns:svg="http://www.w3.org/2000/svg"
   xmlns="http://www.w3.org/2000/svg"
   id="svg4"
   version="1.1"
   overflow="visible"
   preserveAspectRatio="xMinYMid meet"
   viewBox="0 -1 16 16"
   height="16"
   width="16">
  <metadata
     id="metadata10">
    <rdf:RDF>
      <cc:Work
         rdf:about="">
        <dc:format>image/svg+xml</dc:format>
        <dc:type
           rdf:resource="http://purl.org/dc/dcmitype/StillImage" />
        <dc:title></dc:title>
      </cc:Work>
    </rdf:RDF>
  </metadata>
  <defs
     id="defs8" />
  <path
     style="font-variant-east_asian:normal;opacity:1;vector-effect:none;fill:#999999;fill-opacity:1;stroke-width:1;stroke-linecap:butt;stroke-linejoin:miter;stroke-miterlimit:4;stroke-dasharray:none;stroke-dashoffset:0;stroke-opacity:1"
     id="path2"
     transform="translate(0,-1)"
     d="M 0 1 L 0 3 L 2 3 L 2 1 L 0 1 z M 4 1 L 4 3 L 16 3 L 16 1 L 4 1 z M 0 5 L 0 7 L 2 7 L 2 5 L 0 5 z M 4 5 L 4 7 L 16 7 L 16 5 L 4 5 z M 0 9 L 0 11 L 2 11 L 2 9 L 0 9 z M 4 9 L 4 11 L 16 11 L 16 9 L 4 9 z M 0 13 L 0 15 L 2 15 L 2 13 L 0 13 z M 4 13 L 4 15 L 16 15 L 16 13 L 4 13 z " />
</svg>
