<!DOCTYPE svg PUBLIC "-//W3C//DTD SVG 1.1//EN" "http://www.w3.org/Graphics/SVG/1.1/DTD/svg11.dtd" [
	<!ENTITY ns_flows "http://ns.adobe.com/Flows/1.0/">
]><svg xmlns="http://www.w3.org/2000/svg" width="12" height="12" viewBox="0 0 12 12" preserveAspectRatio="xMinYMid meet" overflow="visible"><path d="M6.5 0h-1c-1.7 0-3 1.3-3 3h2c0-.6.5-1 1-1h1c.5 0 1 .4 1 1v2H1c-.6 0-1 .4-1 1v5c0 .6.4 1 1 1h10c.6 0 1-.4 1-1V6c0-.6-.4-1-1-1H9.5V3c0-1.7-1.3-3-3-3zM10 7.5v2c0 .3-.2.5-.5.5H7l-.5-1-.1-.1c.4-.2.6-.5.6-.9 0-.5-.4-1-1-1-.5 0-1 .5-1 1 0 .4.2.7.6.9l-.1.1-.5 1H2.5c-.3 0-.5-.2-.5-.5v-2c0-.3.2-.5.5-.5h7c.3 0 .5.2.5.5z" fill="#999"/></svg>