<?xml version="1.0" encoding="utf-8"?>
<!-- Generator: Adobe Illustrator 15.1.0, SVG Export Plug-In  -->
<!DOCTYPE svg PUBLIC "-//W3C//DTD SVG 1.1//EN" "http://www.w3.org/Graphics/SVG/1.1/DTD/svg11.dtd" [
	<!ENTITY ns_flows "http://ns.adobe.com/Flows/1.0/">
]>
<svg version="1.1"
	 xmlns="http://www.w3.org/2000/svg" xmlns:xlink="http://www.w3.org/1999/xlink" xmlns:a="http://ns.adobe.com/AdobeSVGViewerExtensions/3.0/"
	 x="0px" y="0px" width="12px" height="12px" viewBox="0 0 12 12" style="overflow:visible;enable-background:new 0 0 12 12;"
	 xml:space="preserve" preserveAspectRatio="xMinYMid meet">
<defs>
</defs>
<path style="fill:#999999;" d="M6.5,0l-1,0c-1.7,0-3,1.3-3,3v1h2l0-1c0-0.6,0.5-1,1-1h1c0.6,0,1,0.4,1,1v2H1C0.5,5,0,5.5,0,6l0,5
	c0,0.6,0.4,1,1,1h10c0.5,0,1-0.5,1-1l0-5c0-0.6-0.5-1-1-1H9.5l0-2C9.5,1.3,8.2,0,6.5,0z M7,8c0,0.4-0.2,0.7-0.6,0.9L6.5,9L7,10H6H5
	l0.5-1l0.1-0.1C5.2,8.7,5,8.4,5,8c0-0.5,0.4-1,1-1S7,7.5,7,8z"/>
</svg>
