<?xml version="1.0" encoding="utf-8"?>
<!-- Generator: Adobe Illustrator 15.1.0, SVG Export Plug-In  -->
<!DOCTYPE svg PUBLIC "-//W3C//DTD SVG 1.1//EN" "http://www.w3.org/Graphics/SVG/1.1/DTD/svg11.dtd" [
	<!ENTITY ns_flows "http://ns.adobe.com/Flows/1.0/">
]>
<svg version="1.1"
	 xmlns="http://www.w3.org/2000/svg" xmlns:xlink="http://www.w3.org/1999/xlink" xmlns:a="http://ns.adobe.com/AdobeSVGViewerExtensions/3.0/"
	 x="0px" y="0px" width="16px" height="16px" viewBox="0 0 16 16" style="overflow:visible;enable-background:new 0 0 16 16;"
	 xml:space="preserve" preserveAspectRatio="xMinYMid meet">
<defs>
</defs>
<path style="fill:#999999;" d="M15,5.2V15c0,0.5-0.5,1-1,1H1c-0.5,0-1-0.5-1-1V2c0-0.5,0.5-1,1-1h9.8l-2,2H3C2.5,3,2,3.4,2,4v9
	c0,0.5,0.5,1,1,1h9c0.5,0,1-0.5,1-1V7.2L15,5.2z M15.4,0.6L15.4,0.6c-0.8-0.8-2.1-0.8-2.8,0l-1,1l2.8,2.8l1-1
	C16.2,2.6,16.2,1.4,15.4,0.6z M10.6,2.6L4,9.1V12h2.8c0,0,1.8-1.8,1.8-1.8l4.8-4.8L10.6,2.6z"/>
</svg>
