<!DOCTYPE svg PUBLIC "-//W3C//DTD SVG 1.1//EN" "http://www.w3.org/Graphics/SVG/1.1/DTD/svg11.dtd" [
	<!ENTITY ns_flows "http://ns.adobe.com/Flows/1.0/">
]><svg xmlns="http://www.w3.org/2000/svg" width="12" height="12" viewBox="0 0 12 12" preserveAspectRatio="xMinYMid meet" overflow="visible"><path d="M11.7 8L8 11.7c-.2.2-.5.3-.7.3-.3 0-.5-.1-.7-.3L3 8.1c-.4-.4-.4-1 0-1.4l.7-.7c.4-.4 1-.4 1.4 0l2.2 2.2 2.3-2.3c.4-.4 1-.4 1.4 0l.7.7c.4.4.4 1 0 1.4zM6.9 6c.4.4 1 .4 1.4 0l.7-.7c.4-.4.4-1 0-1.4L5.3.3c-.4-.4-1-.4-1.4 0l-.7.7L.3 3.9c-.4.4-.4 1 0 1.4l.7.8c.4.4 1 .4 1.4 0l2.2-2.2L6.9 6z" fill="#888"/></svg>