<?xml version="1.0" encoding="UTF-8" standalone="no"?>
<!DOCTYPE svg PUBLIC "-//W3C//DTD SVG 1.1//EN" "http://www.w3.org/Graphics/SVG/1.1/DTD/svg11.dtd">
<svg width="100%" height="100%" viewBox="0 0 477 463" version="1.1" xmlns="http://www.w3.org/2000/svg" xmlns:xlink="http://www.w3.org/1999/xlink" xml:space="preserve" xmlns:serif="http://www.serif.com/" style="fill-rule:evenodd;clip-rule:evenodd;stroke-linejoin:round;stroke-miterlimit:2;">
    <g transform="matrix(1,0,0,1,-17.6935,-24.597)">
        <path d="M305.553,239.194C309.748,244.771 309.834,249.859 312.24,256.055C313.38,258.991 319.189,270.934 320.908,272.918C322.591,274.862 322.316,273.072 324.14,276.478C325.678,279.352 324.828,279.48 325.409,280.846C325.956,282.13 329.094,283.98 330.061,285.038C334.122,289.48 336.663,294.934 338.62,300.59C339.047,301.822 338.457,302.929 339.302,304.446C340.263,306.168 347.65,310.187 349.845,312.057C355.527,316.899 356.678,324.089 364.162,326.674C366.846,327.6 372.301,327.443 373.951,328.231C374.44,328.464 379.917,334.922 381.31,336.189C384.741,339.312 393.252,346.577 397.64,347.138C400.445,347.497 401.425,345.559 404.15,348.361C407.898,352.216 408.823,358.984 410.545,363.686C411.12,365.254 412.687,366.776 412.971,368.068C413.378,369.918 412.87,371.721 413.47,373.809C413.939,375.446 415.712,376.818 415.923,378.208C416.035,378.946 415.447,383.963 415.238,384.852C414.685,387.204 410.239,389.917 409.381,393.178C408.627,396.045 409.447,399.416 408.98,402.421C408.62,404.742 403.384,418.173 402.185,420.587C401.745,421.471 399.363,422.916 398.352,424.129C396.298,426.593 394.269,431.405 391.924,433.299C389.343,435.383 383.37,438.234 380.109,440.492C370.359,447.243 362.201,453.572 351.454,458.925C346.991,461.147 342.193,462.681 337.821,465.148C334.959,466.763 326.501,473.7 324.751,474.203C320.724,475.361 314.205,474.745 309.688,475.592C304.278,476.606 299.29,479.456 294.25,481.145C283.919,484.606 270.571,487.022 259.651,487.395C254.524,487.57 254.607,484.894 250.66,483.291C246.714,481.689 241.07,482.034 237.093,483.441C236.542,483.636 236.6,484.574 235.582,484.858C229.561,486.54 220.863,481.503 213.701,482.856C212.44,483.094 211.748,484.258 210.244,484.505C205.72,485.25 191.62,483.145 186.854,481.856C179.072,479.752 174.53,474.23 167.643,471C154.497,464.833 149.185,464.276 137.103,454.452C135.339,453.017 131.937,449.014 130.727,448.201C128.519,446.718 122.508,446.278 119.784,445.107C114.639,442.895 111.422,427.61 109.105,422.314C105.618,414.345 97.606,404.339 98.847,395.23C99.125,393.193 100.979,390.862 101.006,389.522C101.048,387.41 98.564,385.419 98.335,383.707C97.905,380.487 103.529,372.725 106.206,370.824C107.719,369.749 110.024,369.27 111.312,367.986C112.649,366.653 112.986,364.345 114.385,362.55C116.846,359.393 122.474,356.987 124.328,354.339C125.552,352.591 125.201,351.373 125.988,349.758C126.344,349.026 132.649,340.263 133.108,339.859C134.333,338.782 138.583,339.379 141.347,336.589C142.276,335.651 145.02,330.98 145.219,329.799C145.766,326.546 142.696,326.689 146.153,322.268C153.153,313.316 166.952,314.02 170.456,302.321C171.219,299.773 170.963,295.046 171.706,293.359C172.763,290.958 184.432,284.701 187.291,281.714C193.586,275.139 194.467,266.084 202.91,259.323C210.163,253.515 221.435,252.705 225.232,243.635C226.309,241.063 226.091,238.477 228.201,236.392C230.951,233.673 235.019,233.812 237.978,231.986C240.479,230.444 242.858,226.145 245.573,225.398C257.687,222.064 284.894,221.782 296.424,226.486C297.806,227.05 301.772,228.956 302.505,230.06C303.616,231.734 302.486,232.534 302.435,234.094C302.333,237.236 304.071,237.224 305.553,239.194ZM118.43,174.442C120.199,175.668 123.027,177.404 124.594,178.766C129.597,183.115 126.066,183.826 127.407,187.872C127.652,188.611 131.558,193.161 132.542,195.212C135.287,200.937 135.594,206.595 137.663,212.216C141.919,223.779 151.442,229.76 150.411,243.7C150.298,245.229 149.125,248.19 149.378,249.272C149.639,250.384 152.119,251.473 152.571,253.473C153.089,255.765 152.472,258.738 152.763,261.223C153.447,267.064 154.864,272.843 155.855,278.621C155.255,281.584 152.757,282.918 151.337,285.472C148.19,291.131 148.635,296.429 143.776,302.266C140.81,305.829 132.434,309.199 129.603,312.242C128.466,313.465 127.398,316.654 125.912,318.506C124.105,320.759 118.724,323.818 117.828,325.713C116.474,328.573 116.677,331.992 114.36,335.294C113.108,337.079 110.951,338.171 109.774,339.501C105.737,344.062 102.75,350.274 95.667,350.119C91.796,350.034 86.021,348.346 82,347.871C79.68,347.597 76.977,348.178 74.804,347.691C72.111,347.09 69.707,343.477 67.612,342.406C63.314,340.208 60.242,340.915 55.964,340.436C49.741,339.738 49.648,332.57 46.304,331.941C41.052,330.953 40.334,334.041 36.854,327.776C35.002,324.441 35.349,321.625 34.263,319.02C33.326,316.769 31.059,317.372 30.112,316.215C29.315,315.241 28.006,310.97 27.04,309.224C25.088,305.697 22.016,302.419 21.638,298.175C21.459,296.163 22.272,293.978 22.095,292.623C21.851,290.744 18.265,286.671 17.781,283.843C17.288,280.965 19.007,280.434 19.79,278.167C20.445,276.27 21.869,269.141 20.964,267.646C20.325,266.59 19.066,266.665 18.796,265.275C18.235,262.386 19.616,252.648 21.402,250.278C22.078,249.381 23.443,249.237 24.053,247.824C24.856,245.966 25.058,242.398 25.907,240.033C29.476,230.095 38.206,223.35 40.666,212.243C41.751,207.339 40.99,203.762 44.14,199.329C45.347,197.63 47.735,196.262 49.162,194.641C50.403,193.23 51.736,190.186 52.869,189.273C54.443,188.006 57.911,188.249 59.478,186.523C60.657,185.225 61.509,181.595 62.802,179.917C63.903,178.488 65.525,177.848 66.755,176.495C68.95,174.081 70.518,169.139 74.15,168.573C75.948,168.292 78.039,168.839 79.766,168.516C81.025,168.281 81.719,167.114 83.223,166.866C89.558,165.825 98.368,168.209 104.591,169.836C108.059,170.743 116.181,172.884 118.43,174.442ZM491.686,211.975C490.547,214.384 487.257,219.556 486.869,222.191C486.361,225.631 488.154,230.647 487.964,234.624C487.743,239.22 485.604,243.53 484.739,247.85C483.443,254.322 483.447,261.444 482.022,267.826C481.37,270.747 479.12,274.44 478.919,276.685C478.729,278.81 479.841,280.346 479.315,282.712C478.728,285.35 474.418,286.285 473.044,288.4C469.882,293.268 473.158,301.446 469.26,306.122C467.865,307.794 465.65,307.95 465.401,310.782C465.316,311.746 465.878,312.61 465.822,313.458C465.603,316.788 460.253,317.632 458.181,319.437C455.792,321.517 454.096,327.521 450.302,327.367C447.153,327.24 445.091,323.75 441.71,327.361C440.669,328.473 440.41,330.244 439.158,331.049C438.322,331.587 434.803,332.491 433.769,332.514C429.793,332.602 428.025,328.826 424.683,330.177C423.13,330.805 422.926,332.109 420.746,331.989C418.922,331.888 418.6,330.377 417.316,330.204C416.091,330.038 414.455,330.851 412.837,330.809C405.708,330.624 395.137,322.018 390.394,316.893C389.48,315.905 389.363,314.445 388.115,313.5C386.492,312.272 383.905,312.091 381.616,310.354C376.148,306.203 373.092,298.44 366.555,295.347C364.543,294.395 360.132,293.851 359.248,292.442C358.241,290.839 358.622,287.656 357.611,285.569C356.671,283.628 354.333,282.686 353.477,280.628C352.807,279.019 350.507,267.352 350.811,265.959C351.075,264.751 352.119,263.815 352.349,262.397C352.738,260.009 351.869,257.607 352.001,255.697C352.133,253.784 353.966,250.972 354.034,248.763C354.153,244.929 350.831,243.998 351.224,239.734C351.292,239.001 354.717,227.395 355.089,226.557C355.936,224.652 360.481,221.776 362.265,219.551C364.435,216.847 366.531,213.792 368.577,211.112C371.78,206.916 373.975,199.223 378.722,196.862C381.186,195.637 382.336,196.507 384.401,193.465C385.315,192.119 385.601,190.227 386.404,189.228C387.134,188.319 388.394,188.287 389.141,186.858C390.207,184.822 389.31,182.154 390.35,180.692C391.195,179.503 397.79,177.615 399.843,175.718C403.798,172.063 405.45,164.037 410.379,160.456C412.088,159.215 414.932,158.403 416.221,157.207C418.018,155.539 417.715,153.136 418.727,151.771C419.604,150.587 423.05,149.736 424.394,148.36C425.274,147.46 425.506,146.215 426.391,145.252C429.07,142.336 438.46,139.714 442.367,139.666C444.453,139.64 447.389,140.696 449.531,140.597C455.704,140.314 461.231,135.403 467.566,137.039C468.52,137.285 473.756,140.311 474.374,141.009C476.513,143.421 474.564,147.023 476.627,150.102C478.266,152.548 479.558,151.556 481.176,152.361C488.592,156.052 487.069,162.305 488.926,169.006C489.755,172 492.219,174.277 493.024,176.82C494.567,181.696 493.497,188.607 493.623,193.809C493.839,202.732 495.875,203.111 491.686,211.975ZM236.868,91.754C237.658,93.174 240.948,96.028 241.192,97.366C241.584,99.516 240.254,102.024 240.662,104.681C241.024,107.045 243.501,108.748 243.495,110.958C243.49,113.212 241.491,114.345 241.991,117.492C242.875,123.044 246.934,123.78 250.177,127.539C250.282,130.316 248.592,135.018 250.569,137.32C251.286,138.154 252.729,138.295 253.423,139.005C255.117,140.737 254.438,143.919 254.943,145.995C256.911,154.09 262.003,163.855 258.111,172.126C256.803,174.903 254.152,175.703 254.839,179.004C255.022,179.882 255.766,180.505 255.921,181.34C256.141,182.524 252.976,191.623 252.231,192.912C251.565,194.064 244.856,198.783 242.91,201.177C239.507,205.365 239.758,207.688 237.732,211.765C236.765,213.712 231.054,214.588 228.69,217.025C227.124,218.64 226.343,222.435 224.726,223.273C223.217,224.054 219.766,224.197 217.538,225.162C215.411,226.084 212.16,229.419 210.405,229.148C208.088,228.789 207.457,227.045 203.449,227.527C200.183,227.921 195.851,233.013 191.631,229.278C191.06,228.772 191.447,227.847 190.929,227.492C189.089,226.231 181.056,226.975 177.985,226.357C171.81,225.113 171.585,221.357 167.055,218.566C163.648,216.466 157.908,215.728 155.98,212.054C154.986,210.16 155.176,208.251 153.83,206.262C151.208,202.389 144.604,200.621 141.071,197.461C134.938,191.976 138.527,188.337 139.066,181.863C139.347,178.483 139.537,170.256 138.164,167.465C137.001,165.1 131.795,160.479 131.358,158.908C130.823,156.98 132.972,150.887 132.842,147.858C132.664,143.697 129.515,139.703 129.395,137.048C129.256,133.989 130.85,130.328 130.585,126.253C130.325,122.275 128.099,118.389 128.877,114.373C129.285,112.272 133.331,110.299 133.855,108.571C134.61,106.076 132.703,103.159 132.8,100.172C133.126,90.097 142.217,85.686 142.552,76.144C147.93,75.85 147.625,72.714 150.194,69.884C152.87,66.936 156.605,67.408 156.714,62.166C156.738,61.008 156.158,59.685 156.253,58.83C156.582,55.837 162.031,54.5 163.847,52.618C165.115,51.303 165.197,49.186 166.588,47.701C168.989,45.136 174.05,43.114 177.036,41.129C179.347,39.593 181.625,36.307 184.17,36.296C187.633,36.281 192.301,41.008 196.724,41.436C199.541,41.709 200.999,40.045 203.448,39.747C206.357,39.393 208.798,40.385 211.408,40.379C213.554,40.374 216.464,38.892 218.207,40.337C219.748,41.615 224.229,48.143 225.404,50.158C227.594,53.911 229.478,58.633 230.99,62.726C232.518,66.864 237.378,80.271 237.672,83.863C237.912,86.786 234.934,88.277 236.868,91.754ZM379.124,54.434C379.73,54.82 381.727,54.316 382.744,54.503C385.073,54.929 387.372,60.936 387.581,63.28C388.164,69.806 387.409,77.591 387.535,84.317C387.564,85.851 388.268,87.241 388.165,88.822C388.034,90.828 386.339,92.582 385.992,94.641C384.424,103.943 389.464,114.857 389.284,124.597C389.154,131.595 385.087,137.014 386.004,143.716C386.379,146.457 388.451,149.724 388.118,152.323C387.896,154.057 386.181,155.127 385.941,156.477C385.596,158.421 387.091,161.503 386.307,164.169C385.925,165.467 383.895,165.995 383.587,167.714C383.274,169.457 384.216,170.845 384.135,172.2C384.054,173.56 379.955,178.103 378.809,179.93C373.938,187.695 369.338,199.767 359.745,202.847C356.995,203.729 353.666,203.718 350.946,204.827C348.753,205.721 347.257,207.668 345.141,208.666C342.186,210.061 338.582,210.229 335.54,211.547C330.622,213.679 324.642,220.388 318.748,219.008C318.445,218.938 317.876,217.275 315.769,217.401C314.783,217.459 314.159,218.201 313.388,218.347C310.569,218.884 307.97,216.85 305.162,216.046C299.398,214.394 294.253,214.393 289.979,209.671C289.169,208.775 288.995,207.27 287.943,206.602C286.418,205.635 284.047,206.175 282.083,205.086C276.995,202.265 267.261,181.817 267.886,176.257C268.06,174.713 269.164,173.485 268.985,171.712C268.851,170.394 267.034,167.108 266.528,165.045C265.694,161.649 265.398,157.822 264.755,154.337C263.814,149.243 262.039,148.685 264.029,142.873C264.482,141.551 265.587,140.632 265.894,139.637C267.266,135.193 263.903,128.959 263.896,125.062C263.894,123.756 264.893,123.195 264.994,122.276C265.18,120.58 265.246,117.158 264.986,115.529C264.649,113.401 262.506,112.525 262.452,110.398C262.44,109.923 265.269,101.877 265.551,101.421C265.888,100.873 266.849,100.728 267.288,100.204C270.031,96.934 267.085,92.903 268.266,90.394C269.226,88.352 271.53,88.848 272.59,88.029C273.457,87.359 278.716,80.09 279.324,78.743C279.904,77.46 279.519,76.072 280.561,74.875C282.945,72.135 285.342,74.752 287.432,68.128C288.89,63.509 289.334,56.679 293.024,53.014C295.629,50.426 297.897,51.617 300.477,49.973C303.56,48.008 303.113,44.379 304.9,42.769C306.258,41.546 310.398,39.594 312.378,38.046C315.086,35.93 319.158,30.838 321.549,29.631C323.383,28.704 332.429,25.052 334.199,24.688C336.303,24.256 342.546,25.384 343.199,27.671C343.571,28.971 342.728,31.243 344.238,31.738C347.889,30.872 353.161,33.883 356.215,32.524C358.187,31.646 357.473,29.918 360.515,31.344C366.403,34.105 373.946,44.16 377.239,49.796C377.848,50.839 378.913,54.3 379.124,54.434Z" style="fill:rgb(153,153,153);fill-rule:nonzero;"/>
    </g>
</svg>
