<?xml version="1.0" encoding="utf-8"?>
<!-- Generator: Adobe Illustrator 15.1.0, SVG Export Plug-In  -->
<!DOCTYPE svg PUBLIC "-//W3C//DTD SVG 1.1//EN" "http://www.w3.org/Graphics/SVG/1.1/DTD/svg11.dtd" [
	<!ENTITY ns_flows "http://ns.adobe.com/Flows/1.0/">
]>
<svg version="1.1"
	 xmlns="http://www.w3.org/2000/svg" xmlns:xlink="http://www.w3.org/1999/xlink" xmlns:a="http://ns.adobe.com/AdobeSVGViewerExtensions/3.0/"
	 x="0px" y="0px" width="12px" height="12px" viewBox="-0.4 -0.3 12 12"
	 style="overflow:visible;enable-background:new -0.4 -0.3 12 12;" xml:space="preserve" preserveAspectRatio="xMinYMid meet">
<defs>
</defs>
<path style="fill:#999999;" d="M7.8,5.6L11,2.4c0.4-0.4,0.4-1,0-1.4l-0.7-0.7c-0.4-0.4-1-0.4-1.4,0L5.6,3.5L2.4,0.3
	C2-0.1,1.4-0.1,1,0.3L0.3,1c-0.4,0.4-0.4,1,0,1.4l3.2,3.2L0.3,8.9c-0.4,0.4-0.4,1,0,1.4L1,11c0.4,0.4,1,0.4,1.4,0l3.2-3.2L8.9,11
	c0.4,0.4,1,0.4,1.4,0l0.7-0.7c0.4-0.4,0.4-1,0-1.4L7.8,5.6z"/>
</svg>
