<!DOCTYPE svg PUBLIC "-//W3C//DTD SVG 1.1//EN" "http://www.w3.org/Graphics/SVG/1.1/DTD/svg11.dtd" [
	<!ENTITY ns_flows "http://ns.adobe.com/Flows/1.0/">
]><svg xmlns="http://www.w3.org/2000/svg" width="12" height="12" viewBox="-0.1 0 12 12" preserveAspectRatio="xMinYMid meet" overflow="visible"><path d="M5.9 0C3 0 .5 2.3.2 5.1h2.3c.4-1.7 1.9-3 3.6-3 2.1 0 3.7 1.7 3.7 3.7S8.2 9.6 6.1 9.6c-.8 0-1.6-.3-2.3-.8h.8c.5 0 .8-.3.8-.8v-.7c-.2-.4-.5-.7-.9-.7H.8c-.5 0-.8.3-.8.7v3.8c0 .5.3.8.8.8h.8c.5 0 .8-.3.8-.8v-.7c1.1.8 2.3 1.4 3.7 1.4 3.2 0 5.8-2.6 5.8-5.8-.1-3.4-2.9-6-6-6z" fill="#989898"/></svg>