<!DOCTYPE svg PUBLIC "-//W3C//DTD SVG 1.1//EN" "http://www.w3.org/Graphics/SVG/1.1/DTD/svg11.dtd" [
	<!ENTITY ns_flows "http://ns.adobe.com/Flows/1.0/">
]><svg xmlns="http://www.w3.org/2000/svg" width="12" height="12" viewBox="0 0 12 12" preserveAspectRatio="xMinYMid meet" overflow="visible"><path d="M12 7v4c0 .5-.5 1-1 1H1c-.5 0-1-.5-1-1V7c0-.5.5-1 1-1h.5c.5 0 1 .5 1 1v2.5h7V7c0-.5.5-1 1-1h.5c.5 0 1 .4 1 1zm-2-4l-.4-.3c-.4-.4-1-.4-1.4 0l-1 1V1c0-.5-.5-1-1-1h-.5c-.5 0-1 .5-1 1v2.7l-1.1-1c-.4-.4-1-.4-1.4 0l-.3.3c-.4.4-.4 1 0 1.4l3.3 3.3c.2.2.5.3.8.3.3 0 .5-.1.7-.3L10 4.4c.4-.4.4-1 0-1.4z" fill="#999"/></svg>