<?xml version="1.0" encoding="utf-8"?>
<!-- Generator: Adobe Illustrator 15.1.0, SVG Export Plug-In  -->
<!DOCTYPE svg PUBLIC "-//W3C//DTD SVG 1.1//EN" "http://www.w3.org/Graphics/SVG/1.1/DTD/svg11.dtd" [
	<!ENTITY ns_flows "http://ns.adobe.com/Flows/1.0/">
]>
<svg version="1.1"
	 xmlns="http://www.w3.org/2000/svg" xmlns:xlink="http://www.w3.org/1999/xlink" xmlns:a="http://ns.adobe.com/AdobeSVGViewerExtensions/3.0/"
	 x="0px" y="0px" width="12px" height="12px" viewBox="0 0 12 12" style="overflow:visible;enable-background:new 0 0 12 12;"
	 xml:space="preserve" preserveAspectRatio="xMinYMid meet">
<defs>
</defs>
<path style="fill:#999999;" d="M11.5,4.7C11.8,5.2,12,5.6,12,6c0,1.6-2.8,4.2-6,4.2L11.5,4.7z M12,0v2.8L2.8,12H0l2.7-2.7
	C1.1,8.4,0,7,0,6c0-1.6,2.8-4.2,6-4.2c1.2,0,2.3,0.4,3.3,0.9L12,0z M7.1,3.9C7.3,4,7.5,4.2,7.6,4.4l0.2-0.2C7.6,4.1,7.3,4,7.1,3.9z
	 M5.1,4.3c-0.4,0-0.8,0.3-0.8,0.8s0.3,0.8,0.8,0.8s0.8-0.3,0.8-0.8S5.5,4.3,5.1,4.3z M4.2,7.8l0.2-0.2C3.9,7.2,3.7,6.6,3.7,6
	c0-0.9,0.5-1.7,1.3-2.1C3.4,4.3,2.2,5.5,2,6C2.2,6.4,3,7.3,4.2,7.8z"/>
</svg>
