<svg xmlns="http://www.w3.org/2000/svg" viewBox="0 0 16 16" width="16" height="16" preserveAspectRatio="xMinYMid meet"><path d="M5.9,12.4l-2.5,2.5c-0.2,0.2-0.5,0.2-0.7,0l-2.5-2.5c-0.3-0.3-0.1-0.9,0.4-0.9H2v-10C2,1.2,2.2,1,2.5,1h1 C3.8,1,4,1.2,4,1.5v10h1.5C5.9,11.5,6.2,12,5.9,12.4z M7,13.5v1C7,14.8,7.2,15,7.5,15h8c0.3,0,0.5-0.2,0.5-0.5v-1 c0-0.3-0.2-0.5-0.5-0.5h-8C7.2,13,7,13.2,7,13.5z M7.5,9h6C13.8,9,14,9.2,14,9.5v1c0,0.3-0.2,0.5-0.5,0.5h-6C7.2,11,7,10.8,7,10.5 v-1C7,9.2,7.2,9,7.5,9z M7.5,1h2C9.8,1,10,1.2,10,1.5v1C10,2.8,9.8,3,9.5,3h-2C7.2,3,7,2.8,7,2.5v-1C7,1.2,7.2,1,7.5,1z M7.5,5h4 C11.8,5,12,5.2,12,5.5v1C12,6.8,11.8,7,11.5,7h-4C7.2,7,7,6.8,7,6.5v-1C7,5.2,7.2,5,7.5,5z" fill="#888"/></svg>
