<?xml version="1.0" encoding="UTF-8" standalone="no"?>
<svg
   xmlns:dc="http://purl.org/dc/elements/1.1/"
   xmlns:cc="http://creativecommons.org/ns#"
   xmlns:rdf="http://www.w3.org/1999/02/22-rdf-syntax-ns#"
   xmlns:svg="http://www.w3.org/2000/svg"
   xmlns="http://www.w3.org/2000/svg"
   id="svg4"
   version="1.1"
   overflow="visible"
   preserveAspectRatio="xMinYMid meet"
   viewBox="0 0 12 12"
   height="12"
   width="12">
  <metadata
     id="metadata10">
    <rdf:RDF>
      <cc:Work
         rdf:about="">
        <dc:format>image/svg+xml</dc:format>
        <dc:type
           rdf:resource="http://purl.org/dc/dcmitype/StillImage" />
        <dc:title></dc:title>
      </cc:Work>
    </rdf:RDF>
  </metadata>
  <defs
     id="defs8" />
  <path
     id="path817"
     d="M 0.83007812,0 2.4765625,2.8515625 c -0.00413,0.00253 -0.00759,0.00528 -0.011719,0.00781 -0.6841481,0.4199472 -1.2524659,0.9183683 -1.675781,1.4355494 l -0.001953,-0.00391 C 0.76702729,4.3151909 0.75369622,4.3390817 0.734375,4.3632812 0.61825318,4.5101601 0.50948918,4.6544521 0.41992188,4.8007812 0.16145602,5.2230458 0,5.6382936 0,6 0,6.5777635 0.37498263,7.2840809 0.9921875,7.953125 1.2086374,6.7186864 2.2337061,5.7305349 3.0527344,4.9511719 c 6.855e-4,-5.145e-4 0.00127,-0.00144 0.00195,-0.00195 0.07644,-0.057316 0.1660785,-0.1133854 0.25,-0.1699219 C 3.3706164,4.734993 3.4474482,4.695444 3.517575,4.6523469 L 3.8476562,5.2265625 C 3.7609491,5.4702105 3.6992188,5.7266632 3.6992188,6 c 0,0.9 0.7704406,1.6996094 1.5704406,2.0996094 C 4.9571666,8.0214862 4.3966472,7.9072533 4.1191406,7.7792969 L 5.5019531,10.173828 C 5.6671848,10.1876 5.8322233,10.199219 6,10.199219 c 0.2341941,0 0.4643909,-0.01653 0.6933594,-0.04297 L 7.7578125,12 H 10.048828 L 8.6601562,9.5957031 C 9.9310576,9.031142 10.961746,8.147338 11.527344,7.2871094 c 0.001,0.00257 0.0029,0.00524 0.0039,0.00781 0.02334,-0.035832 0.03292,-0.069737 0.05469,-0.1054688 0.09793,-0.1587294 0.17694,-0.3148157 0.240234,-0.46875 0.0293,-0.07114 0.06244,-0.1415534 0.08398,-0.2109375 0.01215,-0.03944 0.02367,-0.078407 0.0332,-0.1171875 C 11.977033,6.2573717 12,6.1245785 12,6 12,4.4 9.2,1.8007813 6,1.8007812 c -0.2617853,0 -0.5183202,0.02382 -0.7734375,0.056641 -0.066288,0.0086 -0.1315397,0.018649 -0.1972656,0.029297 C 4.7819853,1.9264882 4.5366318,1.9745762 4.2988281,2.041016 L 3.1210938,0 Z M 7,3.9003906 c 0.038317,0.011974 0.073478,0.028259 0.1113281,0.041016 C 8.6539757,4.4612991 9.8047896,5.6095792 10,6 9.8290933,6.4272667 8.9249278,7.3633736 7.6679688,7.8769531 L 7.5664062,7.7011719 C 8.0270421,7.2668549 8.3007814,6.6613617 8.3007812,6 8.3007812,5.1187671 7.8159356,4.3394904 7.0449219,3.9316406 7.0284758,3.9229392 7.0167096,3.9087454 7,3.9003906 Z"
     style="fill:#888888" />
</svg>
