<svg id="tags" xmlns="http://www.w3.org/2000/svg" viewBox="0 0 16 12.76" preserveAspectRatio="xMinYMid meet"><defs><style>.cls-1{fill:#888;}</style></defs><title>tags</title><path class="cls-1" d="M12.45,9.86,8.32,14a1.12,1.12,0,0,1-.77.31A1.08,1.08,0,0,1,6.79,14l-6-6A2.93,2.93,0,0,1,0,6.13V2.63A1.09,1.09,0,0,1,1.08,1.55H4.58a3,3,0,0,1,1.85.77l6,6a1.12,1.12,0,0,1,.31.77A1.08,1.08,0,0,1,12.45,9.86ZM2.7,3.17A1.08,1.08,0,1,0,3.77,4.25,1.08,1.08,0,0,0,2.7,3.17Zm13,6.69L11.55,14a1.12,1.12,0,0,1-.77.31,1.21,1.21,0,0,1-.94-.5l4-4a1.08,1.08,0,0,0,.31-.76,1.12,1.12,0,0,0-.31-.77l-6-6a3,3,0,0,0-1.85-.77H7.82a3,3,0,0,1,1.85.77l6,6A1.12,1.12,0,0,1,16,9.1,1.08,1.08,0,0,1,15.69,9.86Z" transform="translate(0 -1.55)"/></svg>