<!DOCTYPE svg PUBLIC "-//W3C//DTD SVG 1.1//EN" "http://www.w3.org/Graphics/SVG/1.1/DTD/svg11.dtd" [
	<!ENTITY ns_flows "http://ns.adobe.com/Flows/1.0/">
]><svg xmlns="http://www.w3.org/2000/svg" width="12" height="12" viewBox="0 0 12 12" preserveAspectRatio="xMinYMid meet" overflow="visible"><path d="M4.5 11V5.3L2.4 7.4c-.4.4-1 .4-1.4 0l-.7-.7c-.4-.4-.4-1 0-1.4l5-5c.4-.4 1-.4 1.4 0l.7.7 4.3 4.3c.4.4.4 1 0 1.4l-.7.7c-.4.4-1 .4-1.4 0L7.5 5.3V11c0 .6-.5 1-1 1h-1c-.6 0-1-.5-1-1z" fill="#999"/></svg>