<?xml version="1.0" encoding="UTF-8"?>
<svg xmlns="http://www.w3.org/2000/svg" xmlns:xlink="http://www.w3.org/1999/xlink" width="16px" height="16px" viewBox="0 0 16 16" version="1.1">
<g id="surface1">
<path style=" stroke:none;fill-rule:nonzero;fill:rgb(60%,60%,60%);fill-opacity:1;" d="M 11.402344 4.402344 C 11.347656 4.515625 11.261719 4.570312 11.144531 4.570312 L 9.144531 4.570312 L 9.144531 15.714844 C 9.144531 15.796875 9.117188 15.867188 9.0625 15.917969 C 9.007812 15.972656 8.941406 16 8.855469 16 L 7.144531 16 C 7.058594 16 6.992188 15.972656 6.9375 15.917969 C 6.882812 15.867188 6.855469 15.796875 6.855469 15.714844 L 6.855469 4.570312 L 4.855469 4.570312 C 4.730469 4.570312 4.644531 4.515625 4.597656 4.402344 C 4.550781 4.289062 4.566406 4.183594 4.644531 4.089844 L 7.769531 0.660156 C 7.828125 0.601562 7.894531 0.570312 7.972656 0.570312 C 8.054688 0.570312 8.128906 0.601562 8.1875 0.660156 L 11.355469 4.089844 C 11.433594 4.183594 11.449219 4.289062 11.402344 4.402344 Z M 11.402344 4.402344 "/>
</g>
</svg>
