<?xml version="1.0" encoding="utf-8"?>
<!-- Generator: Adobe Illustrator 15.1.0, SVG Export Plug-In  -->
<!DOCTYPE svg PUBLIC "-//W3C//DTD SVG 1.1//EN" "http://www.w3.org/Graphics/SVG/1.1/DTD/svg11.dtd" [
	<!ENTITY ns_flows "http://ns.adobe.com/Flows/1.0/">
]>
<svg version="1.1"
	 xmlns="http://www.w3.org/2000/svg" xmlns:xlink="http://www.w3.org/1999/xlink" xmlns:a="http://ns.adobe.com/AdobeSVGViewerExtensions/3.0/"
	 x="0px" y="0px" width="12px" height="12px" viewBox="0 0 12 12" style="overflow:visible;enable-background:new 0 0 12 12;"
	 xml:space="preserve" preserveAspectRatio="xMinYMid meet">
<defs>
</defs>
<path style="fill:#999999;" d="M3.7,7.6L0.1,9.4c0,0-0.1,0-0.1,0.1V12h12V9.3c0,0-0.1-0.1-0.1-0.1L8.3,7.5C7.8,7.3,7.7,6.7,8,6.3
	c0,0,0.9-1.1,0.9-2.5C8.9,1.7,7.6,0,6,0C4.4,0,3.1,1.7,3.1,3.8C3.1,5.2,4,6.3,4,6.3C4.3,6.7,4.2,7.3,3.7,7.6z"/>
</svg>
