<!DOCTYPE svg PUBLIC "-//W3C//DTD SVG 1.1//EN" "http://www.w3.org/Graphics/SVG/1.1/DTD/svg11.dtd" [
	<!ENTITY ns_flows "http://ns.adobe.com/Flows/1.0/">
]><svg xmlns="http://www.w3.org/2000/svg" width="16" height="16" viewBox="-0.1 0 16 16" preserveAspectRatio="xMinYMid meet" overflow="visible"><path d="M15.8 8c0-1.9-3.6-5.5-7.9-5.5-.7 0-1.5.1-2.1.3L4.1 0H3l1.8 3.2C2 4.3 0 6.6 0 8c0 1.8 3.6 5.4 7.9 5.4.9 0 1.8-.2 2.6-.4l1.7 3h1.2l-1.9-3.3c2.5-1.2 4.3-3.4 4.3-4.7zM3.6 11.1L1.3 7.2c.2-.3.4-.6.7-.9l3.3 5.6c-.7-.2-1.2-.5-1.7-.8zm3 1.2L2.7 5.6c.3-.2.5-.4.8-.6l4.3 7.5c-.4-.1-.8-.1-1.2-.2zm2.3.1L4.4 4.5c.3-.2.6-.3.9-.5l4.7 8.1c-.4.1-.7.2-1.1.3zm2-.6l-.9-1.5c.6-.6 1-1.4 1-2.4 0-1.7-1.4-3.2-3.2-3.2-.3 0-.7.1-1 .2l.3.5-.2-.5-.6-1.2c.5-.1 1.1-.2 1.6-.2 3.8 0 6.9 3.2 6.9 4.5 0 .8-1.5 2.8-3.9 3.8z" fill="#989898"/></svg>