<!DOCTYPE svg PUBLIC "-//W3C//DTD SVG 1.1//EN" "http://www.w3.org/Graphics/SVG/1.1/DTD/svg11.dtd" [
	<!ENTITY ns_flows "http://ns.adobe.com/Flows/1.0/">
]><svg xmlns="http://www.w3.org/2000/svg" width="16" height="16" viewBox="0 -3.9 16 16" preserveAspectRatio="xMinYMid meet" overflow="visible"><path d="M13.8 3.8c.7.2 1.2.4 1.5.7.5.3.7.8.7 1.4 0 .6-.2 1.1-.7 1.5-.6.5-1.4.7-2.6.7h-4v-.3c.4 0 .6 0 .7-.1l.3-.3s.1-.4.1-.8V1.5c0-.4 0-.7-.1-.8L9.4.4S9 .3 8.7.3V.1h3.8c.9 0 1.6.1 1.9.2s.7.4.9.7.3.7.3 1c0 .4-.1.7-.4 1s-.7.7-1.4.8zm-2.2.3v2.8c0 .2.1.4.2.5s.3.2.5.2c.3 0 .6-.1.9-.2s.5-.3.6-.6.2-.6.2-.9c0-.4-.1-.7-.3-1s-.4-.5-.7-.6-.8-.2-1.4-.2zm0-.4c.6 0 1-.1 1.2-.2s.5-.3.6-.5.2-.5.2-.9-.1-.6-.2-.9-.3-.4-.6-.5-.7-.2-1.2-.2v3.2zM4.9 5.8H2.1l-.3.8c-.2.3-.2.5-.2.7 0 .2.1.4.3.5.1 0 .3.1.7.1v.2H0v-.2c.3 0 .5-.2.7-.4s.4-.6.7-1.2L4.2 0h.1l2.9 6.5c.3.6.5 1 .7 1.2.1.1.3.2.5.2v.2H4.6v-.2h.2c.3 0 .5 0 .7-.1.1-.1.1-.2.1-.3v-.2l-.2-.4-.5-1.1zm-.2-.4L3.5 2.7 2.3 5.4h2.4z" fill="#888"/></svg>