<!DOCTYPE svg PUBLIC "-//W3C//DTD SVG 1.1//EN" "http://www.w3.org/Graphics/SVG/1.1/DTD/svg11.dtd" [
	<!ENTITY ns_flows "http://ns.adobe.com/Flows/1.0/">
]><svg xmlns="http://www.w3.org/2000/svg" width="16" height="16" viewBox="0 0 16 16" preserveAspectRatio="xMinYMid meet" overflow="visible"><path d="M16 8v6c0 1.1-.9 2-2 2H8c-1.1 0-2-.9-2-2v-1h5c1.1 0 2-.9 2-2V6h1c1.1 0 2 .9 2 2zm-4-6v8c0 1.1-.9 2-2 2H2c-1.1 0-2-.9-2-2V2C0 .9.9 0 2 0h8c1.1 0 2 .9 2 2zm-2 1c0-.5-.5-1-1-1H3c-.5 0-1 .5-1 1v6c0 .5.5 1 1 1h6c.5 0 1-.5 1-1V3z" fill="#888"/></svg>