<!DOCTYPE svg PUBLIC "-//W3C//DTD SVG 1.1//EN" "http://www.w3.org/Graphics/SVG/1.1/DTD/svg11.dtd" [
	<!ENTITY ns_flows "http://ns.adobe.com/Flows/1.0/">
]><svg xmlns="http://www.w3.org/2000/svg" width="16" height="16" viewBox="-1 -1 16 16" preserveAspectRatio="xMinYMid meet" overflow="visible"><path d="M0 14.6c.9-.1 1.5-.2 1.8-.4s.4-.8.4-1.6V2.5c0-.8-.1-1.4-.4-1.6C1.5.6.9.5 0 .4V0h6.3c1.8 0 3.3.3 4.3.9 1.1.6 1.6 1.6 1.6 3 0 1.1-.4 1.9-1.1 2.4-.4.3-1.1.6-1.9.8 1 .3 1.9.7 2.7 1.3.8.6 1.1 1.4 1.1 2.4 0 1.8-.8 3-2.5 3.7-.8.3-1.9.5-3.1.5H0v-.4zm8.5-8.2C9.5 5.9 10 5.1 10 4c0-1.4-.6-2.3-1.7-2.7C7.7 1 6.8.8 5.5.8c-.5 0-.8.1-.9.2-.1 0-.1.3-.1.6v5.1h2.2c.7 0 1.3-.1 1.8-.3zm.8 7.1c.8-.5 1.2-1.3 1.2-2.6S10 8.8 9.1 8.3c-1-.5-2.1-.7-3.5-.7H4.5v5.6c0 .4.1.6.3.8.2.1.7.2 1.5.2 1.2 0 2.2-.2 3-.7z" fill="#888"/></svg>