<?xml version="1.0" encoding="utf-8"?>
<!-- Generator: Adobe Illustrator 15.1.0, SVG Export Plug-In  -->
<!DOCTYPE svg PUBLIC "-//W3C//DTD SVG 1.1//EN" "http://www.w3.org/Graphics/SVG/1.1/DTD/svg11.dtd" [
	<!ENTITY ns_flows "http://ns.adobe.com/Flows/1.0/">
]>
<svg version="1.1"
	 xmlns="http://www.w3.org/2000/svg" xmlns:xlink="http://www.w3.org/1999/xlink" xmlns:a="http://ns.adobe.com/AdobeSVGViewerExtensions/3.0/"
	 x="0px" y="0px" width="16px" height="16px" viewBox="-2.3 0 16 16" style="overflow:visible;enable-background:new -2.3 0 16 16;"
	 xml:space="preserve" preserveAspectRatio="xMinYMid meet">
<defs>
</defs>
<path style="fill:#999999;" d="M10.8,9.2c0.4,0.7,0.6,1.5,0.6,2.3c0,1.3-0.4,2.3-1.3,3.2S8.1,16,6.9,16H3.4H1.1H0V0h1.1h2.3h2.3
	C7,0,8.1,0.4,8.9,1.3c0.9,0.9,1.3,2,1.3,3.2c0,1.1-0.4,2.1-1.1,2.9C9.9,7.9,10.4,8.5,10.8,9.2z M3.4,6.9h1.8c0.5,0,0.9-0.2,1.3-0.7
	c0.4-0.5,0.5-1,0.5-1.6C7.1,4,6.9,3.4,6.5,3C6.2,2.5,5.7,2.3,5.2,2.3H3.4V6.9z M7.6,13c0.4-0.5,0.6-1,0.6-1.6c0-0.6-0.2-1.2-0.6-1.6
	C7.2,9.4,6.8,9.1,6.3,9.1H3.4v4.6h2.9C6.8,13.7,7.2,13.5,7.6,13z"/>
</svg>
