<?xml version="1.0" encoding="UTF-8"?>
<svg xmlns="http://www.w3.org/2000/svg" xmlns:xlink="http://www.w3.org/1999/xlink" width="16px" height="16px" viewBox="0 0 16 16" version="1.1" preserveAspectRatio="xMinYMid meet">
<g id="surface1">
<path style=" stroke:none;fill-rule:nonzero;fill:rgb(60%,60%,60%);fill-opacity:1;" d="M 11.402344 10.019531 C 11.402344 9.863281 11.34375 9.730469 11.230469 9.617188 L 9.617188 8 L 11.230469 6.382812 C 11.34375 6.269531 11.402344 6.136719 11.402344 5.980469 C 11.402344 5.820312 11.34375 5.683594 11.230469 5.570312 L 10.429688 4.769531 C 10.316406 4.65625 10.179688 4.597656 10.019531 4.597656 C 9.863281 4.597656 9.730469 4.65625 9.617188 4.769531 L 8 6.382812 L 6.382812 4.769531 C 6.269531 4.65625 6.136719 4.597656 5.980469 4.597656 C 5.820312 4.597656 5.683594 4.65625 5.570312 4.769531 L 4.769531 5.570312 C 4.65625 5.683594 4.597656 5.820312 4.597656 5.980469 C 4.597656 6.136719 4.65625 6.269531 4.769531 6.382812 L 6.382812 8 L 4.769531 9.617188 C 4.65625 9.730469 4.597656 9.863281 4.597656 10.019531 C 4.597656 10.179688 4.65625 10.316406 4.769531 10.429688 L 5.570312 11.230469 C 5.683594 11.34375 5.820312 11.402344 5.980469 11.402344 C 6.136719 11.402344 6.269531 11.34375 6.382812 11.230469 L 8 9.617188 L 9.617188 11.230469 C 9.730469 11.34375 9.863281 11.402344 10.019531 11.402344 C 10.179688 11.402344 10.316406 11.34375 10.429688 11.230469 L 11.230469 10.429688 C 11.34375 10.316406 11.402344 10.179688 11.402344 10.019531 Z M 14.855469 8 C 14.855469 9.242188 14.550781 10.390625 13.9375 11.441406 C 13.324219 12.492188 12.492188 13.324219 11.441406 13.9375 C 10.390625 14.550781 9.242188 14.855469 8 14.855469 C 6.757812 14.855469 5.609375 14.550781 4.558594 13.9375 C 3.507812 13.324219 2.675781 12.492188 2.0625 11.441406 C 1.449219 10.390625 1.144531 9.242188 1.144531 8 C 1.144531 6.757812 1.449219 5.609375 2.0625 4.558594 C 2.675781 3.507812 3.507812 2.675781 4.558594 2.0625 C 5.609375 1.449219 6.757812 1.144531 8 1.144531 C 9.242188 1.144531 10.390625 1.449219 11.441406 2.0625 C 12.492188 2.675781 13.324219 3.507812 13.9375 4.558594 C 14.550781 5.609375 14.855469 6.757812 14.855469 8 Z M 14.855469 8 "/>
</g>
</svg>
