<!DOCTYPE svg PUBLIC "-//W3C//DTD SVG 1.1//EN" "http://www.w3.org/Graphics/SVG/1.1/DTD/svg11.dtd" [
	<!ENTITY ns_flows "http://ns.adobe.com/Flows/1.0/">
]><svg xmlns="http://www.w3.org/2000/svg" width="16" height="16" viewBox="0 -5.5 16 16" preserveAspectRatio="xMinYMid meet" overflow="visible"><path d="M5.2 2c.5 0 .9.2 1.2.5.4.4.6.8.6 1.3s-.2.8-.5 1.2c-.3.3-.8.5-1.2.5S4.4 5.3 4 5s-.5-.8-.5-1.2v-.3c0-1 .3-1.8 1-2.5S6 0 7 0v1c-.7 0-1.3.2-1.8.7-.1.1-.1.2-.2.3h.2zM1.8 2c.4 0 .9.2 1.2.5.3.3.5.8.5 1.2S3.3 4.6 3 5c-.3.3-.8.5-1.2.5S.9 5.3.5 5 0 4.2 0 3.8v-.3C0 2.5.3 1.7 1 1s1.5-1 2.5-1v1c-.7 0-1.3.2-1.8.7-.1.1-.1.2-.2.3h.3zm9 1.5c-.5 0-.9-.2-1.2-.5-.4-.4-.6-.8-.6-1.3s.2-.9.5-1.2c.3-.3.8-.5 1.2-.5s.9.2 1.2.5.5.8.5 1.2V2c0 1-.3 1.8-1 2.5s-1.5 1-2.5 1v-1c.7 0 1.3-.2 1.8-.7.1-.1.2-.2.2-.3h-.1zm3.4 0c-.5 0-.9-.2-1.2-.5-.3-.3-.5-.8-.5-1.2s.2-.9.5-1.2c.3-.4.8-.6 1.2-.6s.9.2 1.2.5.6.8.6 1.2V2c0 1-.3 1.8-1 2.5s-1.5 1-2.5 1v-1c.7 0 1.3-.2 1.8-.7.1-.1.2-.2.2-.3h-.3z" fill="#888"/></svg>