<?xml version="1.0" encoding="utf-8"?>
<!-- Generator: Adobe Illustrator 15.1.0, SVG Export Plug-In  -->
<!DOCTYPE svg PUBLIC "-//W3C//DTD SVG 1.1//EN" "http://www.w3.org/Graphics/SVG/1.1/DTD/svg11.dtd" [
	<!ENTITY ns_flows "http://ns.adobe.com/Flows/1.0/">
]>
<svg version="1.1"
	 xmlns="http://www.w3.org/2000/svg" xmlns:xlink="http://www.w3.org/1999/xlink" xmlns:a="http://ns.adobe.com/AdobeSVGViewerExtensions/3.0/"
	 x="0px" y="0px" width="16px" height="16px" viewBox="0 -5.5 16 16" style="overflow:visible;enable-background:new 0 -5.5 16 16;"
	 xml:space="preserve" preserveAspectRatio="xMinYMid meet">
<defs>
</defs>
<path style="fill:#999999;" d="M5.2,2c0.5,0,0.9,0.2,1.2,0.5C6.8,2.9,7,3.3,7,3.8S6.8,4.6,6.5,5C6.2,5.3,5.7,5.5,5.3,5.5
	S4.4,5.3,4,5S3.5,4.2,3.5,3.8V3.5c0-1,0.3-1.8,1-2.5C5.2,0.3,6,0,7,0v1C6.3,1,5.7,1.2,5.2,1.7C5.1,1.8,5.1,1.9,5,2
	C5.1,2,5.2,2,5.2,2z M1.8,2C2.2,2,2.7,2.2,3,2.5c0.3,0.3,0.5,0.8,0.5,1.2S3.3,4.6,3,5C2.7,5.3,2.2,5.5,1.8,5.5S0.9,5.3,0.5,5
	S0,4.2,0,3.8V3.5c0-1,0.3-1.8,1-2.5c0.7-0.7,1.5-1,2.5-1v1C2.8,1,2.2,1.2,1.7,1.7C1.6,1.8,1.6,1.9,1.5,2C1.6,2,1.7,2,1.8,2z
	 M10.8,3.5c-0.5,0-0.9-0.2-1.2-0.5C9.2,2.6,9,2.2,9,1.7s0.2-0.9,0.5-1.2C9.8,0.2,10.3,0,10.7,0s0.9,0.2,1.2,0.5s0.5,0.8,0.5,1.2V2
	c0,1-0.3,1.8-1,2.5c-0.7,0.7-1.5,1-2.5,1v-1c0.7,0,1.3-0.2,1.8-0.7c0.1-0.1,0.2-0.2,0.2-0.3C10.9,3.5,10.8,3.5,10.8,3.5z M14.2,3.5
	c-0.5,0-0.9-0.2-1.2-0.5c-0.3-0.3-0.5-0.8-0.5-1.2s0.2-0.9,0.5-1.2C13.3,0.2,13.8,0,14.2,0s0.9,0.2,1.2,0.5S16,1.3,16,1.7V2
	c0,1-0.3,1.8-1,2.5c-0.7,0.7-1.5,1-2.5,1v-1c0.7,0,1.3-0.2,1.8-0.7c0.1-0.1,0.2-0.2,0.2-0.3C14.4,3.5,14.3,3.5,14.2,3.5z"/>
</svg>
