<!DOCTYPE svg PUBLIC "-//W3C//DTD SVG 1.1//EN" "http://www.w3.org/Graphics/SVG/1.1/DTD/svg11.dtd" [
	<!ENTITY ns_flows "http://ns.adobe.com/Flows/1.0/">
]><svg xmlns="http://www.w3.org/2000/svg" width="16" height="16" viewBox="0 -1.3 16 16" preserveAspectRatio="xMinYMid meet" overflow="visible"><path d="M7 14.7H0v-1h7v1zm-5.9-3h5.2v-.3c-.6 0-1.1-.1-1.3-.2-.2-.1-.3-.3-.3-.7 0-.1 0-.3.1-.5 0-.2.1-.3.1-.5l2.5-9h1c.7 0 1.2.1 1.5.4s.4.7.4 1.2v.6h.3l.7-2.7H1.7L1 2.8l.3.1C1.9 1.8 2.4 1.2 2.9 1 3.3.8 4.3.7 5.6.7L3 10.1c-.1.5-.4.9-.8 1.1-.2.1-.6.2-1.1.2v.3zm7 3h2.5v-.2c-.3 0-.5 0-.6-.1-.2-.1-.3-.2-.3-.3 0-.1.1-.2.2-.4.1-.1.2-.3.4-.5l1.3-1.6c.7 1.1 1.2 1.8 1.4 2s.2.5.2.6c0 .1-.1.2-.2.3-.1 0-.3.1-.6.1v.2h3.2v-.2c-.3 0-.5-.1-.7-.2l-.6-.6-2.1-3 1.6-2c.4-.5.7-.8.9-.9.2-.1.4-.1.7-.1v-.3H13v.2c.3 0 .4 0 .5.1.2.1.2.2.2.3 0 .1 0 .1-.1.2s-.2.3-.4.5L12 10.3l-1-1.7c-.1-.1-.1-.2-.1-.2-.1-.1-.1-.3-.1-.4 0-.2.1-.3.2-.3s.3-.1.6-.1v-.1H8.2v.2c.4 0 .6.1.9.3.2.2.6.7 1.1 1.4l1.2 1.8-1.7 2.1c-.5.6-.8.9-.9 1-.2.1-.4.2-.7.2v.2z" fill="#999"/></svg>