<!DOCTYPE svg PUBLIC "-//W3C//DTD SVG 1.1//EN" "http://www.w3.org/Graphics/SVG/1.1/DTD/svg11.dtd" [
	<!ENTITY ns_flows "http://ns.adobe.com/Flows/1.0/">
]><svg xmlns="http://www.w3.org/2000/svg" width="16" height="16" viewBox="-0.5 0 16 16" preserveAspectRatio="xMinYMid meet" overflow="visible"><path d="M14.9 13.1c.1.9-.2 1.6-.7 2.2-.5.5-1.1.7-1.9.7-1 0-1.9-.4-2.6-1.2-.9-.9-1.3-1.9-1.1-3.1l-1.1-1.1-1.1 1.1c.2 1.1-.2 2.2-1.1 3.1-.8.8-1.7 1.2-2.7 1.2-.8 0-1.4-.2-1.9-.7-.5-.6-.8-1.3-.7-2.2.1-.9.5-1.7 1.2-2.3.7-.8 1.6-1.2 2.6-1.2h.5l1.1-1.1-4.3-4.2C.5 3.7.3 3 .3 2.1S.5.5 1.1 0l6.4 6.4L13.9 0c.5.5.8 1.2.8 2.1s-.3 1.6-.8 2.1L9.6 8.5l1.1 1.1h.5c1 0 1.9.4 2.6 1.2.7.6 1 1.4 1.1 2.3zM5 12.2c0-.4-.1-.7-.3-.9-.3-.2-.5-.3-.9-.3-.3 0-.5.1-.8.2-.3.1-.6.3-.8.6-.2.2-.4.5-.6.8-.1.3-.2.6-.2.8 0 .4.1.7.3.9.2.2.5.3.9.3.3 0 .5-.1.8-.2.3-.1.6-.3.8-.6.2-.2.4-.5.6-.8.1-.2.2-.5.2-.8zm4-3.7c0-.4-.1-.8-.4-1.1-.4-.2-.7-.4-1.1-.4-.5 0-.8.2-1.1.5-.3.3-.4.6-.4 1s.1.8.4 1.1c.3.3.6.4 1.1.4.4 0 .8-.1 1.1-.4.2-.3.4-.6.4-1.1zm4.5 4.9c0-.2-.1-.5-.2-.8-.1-.3-.3-.6-.6-.8-.2-.2-.5-.4-.8-.6-.3-.1-.6-.2-.8-.2-.4 0-.6.1-.9.3-.2.2-.3.5-.3.9 0 .3.1.5.2.8.1.3.3.6.6.8s.5.4.8.6c.3.1.5.2.8.2.4 0 .7-.1.9-.3.2-.3.3-.6.3-.9z" fill="#888"/></svg>