<!DOCTYPE svg PUBLIC "-//W3C//DTD SVG 1.1//EN" "http://www.w3.org/Graphics/SVG/1.1/DTD/svg11.dtd" [
	<!ENTITY ns_flows "http://ns.adobe.com/Flows/1.0/">
]><svg xmlns="http://www.w3.org/2000/svg" width="16" height="16" viewBox="0 -1 16 16" preserveAspectRatio="xMinYMid meet" overflow="visible"><path d="M14.9 14.2c.2.2.6.3 1.1.4v.4h-5.7v-.4c.7-.1 1.1-.1 1.3-.2.2-.1.3-.3.3-.6 0-.1 0-.3-.1-.6l-.3-.9-.6-1.3h2.4l.7 1.6c.4.9.7 1.4.9 1.6zm-11.4-.6c0-.2.1-.4.2-.8.1-.2.3-.8.7-1.8h-1c-.7 1.6-1.2 2.6-1.4 2.9-.3.4-.7.6-1.3.6v.5H5v-.4c-.5 0-.9-.1-1.1-.2-.3-.2-.4-.4-.4-.8zM5.6 8l2-4.9 2 4.9H12L8.4 0H8L4.6 8h1zM16 9H0v1h16V9z" fill="#999"/></svg>