<!DOCTYPE svg PUBLIC "-//W3C//DTD SVG 1.1//EN" "http://www.w3.org/Graphics/SVG/1.1/DTD/svg11.dtd" [
	<!ENTITY ns_flows "http://ns.adobe.com/Flows/1.0/">
]><svg xmlns="http://www.w3.org/2000/svg" width="16" height="16" viewBox="0 -1 16 16" preserveAspectRatio="xMinYMid meet" overflow="visible"><path d="M15 7.1V9h-4V6.8l-1 1V9H6V6h.8l-.3-.3.7-.7H6V2h1.1l-.6-.6L7.9 0H0v14h16V6.1l-1 1zM5 13H1v-3h4v3zm0-4H1V6h4v3zm0-4H1V2h4v3zm5 8H6v-3h4v3zm5 0h-4v-3h4v3zm1-7.7l-1-1V2.8l1-1v3.5zM12.2 0l-.7.7-.8-.7h1.5zM15 0h1v1l-1-1zm0 1.4l-2.1 2.1L15 5.7l-1.4 1.4L11.5 5 9.3 7.1 7.9 5.7 10 3.6 7.9 1.4 9.3 0l2.1 2.1L13.6 0 15 1.4z" fill="#888"/></svg>