<?xml version="1.0" encoding="utf-8"?>
<!-- Generator: Adobe Illustrator 15.1.0, SVG Export Plug-In  -->
<!DOCTYPE svg PUBLIC "-//W3C//DTD SVG 1.1//EN" "http://www.w3.org/Graphics/SVG/1.1/DTD/svg11.dtd" [
	<!ENTITY ns_flows "http://ns.adobe.com/Flows/1.0/">
]>
<svg version="1.1"
	 xmlns="http://www.w3.org/2000/svg" xmlns:xlink="http://www.w3.org/1999/xlink" xmlns:a="http://ns.adobe.com/AdobeSVGViewerExtensions/3.0/"
	 x="0px" y="0px" width="16px" height="16px" viewBox="0 0 16 16" style="overflow:visible;enable-background:new 0 0 16 16;"
	 xml:space="preserve" preserveAspectRatio="xMinYMid meet">
<defs>
</defs>
<path style="fill:#999999;" d="M13.5,9.5c-0.1,0.5-0.3,0.9-0.5,1.3l1.6,2l-1.8,1.8l-2-1.6c-0.4,0.2-0.9,0.4-1.3,0.5L9.2,16H6.7
	l-0.2-2.5C6,13.4,5.6,13.2,5.2,13l-2,1.6l-1.8-1.8l1.6-2C2.8,10.4,2.6,10,2.5,9.5L0,9.2V6.8l2.5-0.3C2.6,6,2.8,5.6,3,5.2l-1.6-2
	l1.8-1.8l2,1.6C5.6,2.8,6,2.6,6.5,2.5L6.7,0h2.5l0.2,2.5C10,2.6,10.4,2.8,10.8,3l2-1.6l1.8,1.8l-1.6,2c0.2,0.4,0.4,0.9,0.5,1.3
	L16,6.8v2.5L13.5,9.5z M11,7L9,5H7L5,7v2l2,2h2l2-2V7z"/>
</svg>
