<!DOCTYPE svg PUBLIC "-//W3C//DTD SVG 1.1//EN" "http://www.w3.org/Graphics/SVG/1.1/DTD/svg11.dtd" [
	<!ENTITY ns_flows "http://ns.adobe.com/Flows/1.0/">
]><svg xmlns="http://www.w3.org/2000/svg" width="16" height="16" viewBox="0 0 16 16" preserveAspectRatio="xMinYMid meet" overflow="visible"><path d="M8 0C3.6 0 0 3.6 0 8s3.6 8 8 8 8-3.5 8-8-3.6-8-8-8zm0 15c-3.9 0-7-3.1-7-7s3.1-7 7-7 7 3.2 7 7c0 3.9-3.1 7-7 7zm0-2.2c-4.9 0-5.8-4.4-5.8-4.4-.1-.2 0-.5.3-.6.3 0 .6.2.6.4 0 .1.8 3.6 4.9 3.6 4.1 0 4.8-3.5 4.9-3.6.1-.3.3-.4.6-.4.3.1.4.3.4.6-.1.1-1 4.4-5.9 4.4zm3.4-7.6c0 .8-.3 1.5-.7 1.5-.4 0-.7-.7-.7-1.5s.3-1.5.7-1.5c.4 0 .7.7.7 1.5zM6 5.2c0 .8-.3 1.5-.7 1.5-.4 0-.7-.7-.7-1.5s.3-1.5.7-1.5c.4 0 .7.7.7 1.5z" fill="#999"/></svg>