<?xml version="1.0" encoding="utf-8"?>
<!-- Generator: Adobe Illustrator 15.1.0, SVG Export Plug-In  -->
<!DOCTYPE svg PUBLIC "-//W3C//DTD SVG 1.1//EN" "http://www.w3.org/Graphics/SVG/1.1/DTD/svg11.dtd" [
	<!ENTITY ns_flows "http://ns.adobe.com/Flows/1.0/">
]>
<svg version="1.1"
	 xmlns="http://www.w3.org/2000/svg" xmlns:xlink="http://www.w3.org/1999/xlink" xmlns:a="http://ns.adobe.com/AdobeSVGViewerExtensions/3.0/"
	 x="0px" y="0px" width="16px" height="16px" viewBox="0 0 16 16" style="overflow:visible;enable-background:new 0 0 16 16;"
	 xml:space="preserve" preserveAspectRatio="xMinYMid meet">
<defs>
</defs>
<path style="fill:#999999;" d="M16,8c0,2.2-0.8,4.1-2.3,5.7C12.1,15.2,10.2,16,8,16s-4.1-0.8-5.7-2.3C0.8,12.1,0,10.2,0,8
	s0.8-4.1,2.3-5.7S5.8,0,8,0s4.1,0.8,5.7,2.3S16,5.8,16,8z M14.8,8c0-1.9-0.7-3.4-2-4.8c-1.3-1.3-2.9-2-4.8-2c-1.9,0-3.4,0.7-4.8,2
	c-1.3,1.3-2,2.9-2,4.8s0.7,3.4,2,4.8c1.3,1.3,2.9,2,4.8,2c1.9,0,3.4-0.7,4.8-2C14.1,11.4,14.8,9.9,14.8,8z M3,8.2
	c0.2,1.4,0.7,2.5,1.7,3.4S6.7,13,8,13c1.3,0,2.4-0.5,3.3-1.4s1.5-2,1.7-3.4c-0.5,0.5-1.1,1-2,1.4C10,10,9.1,10.2,8,10.2
	S6,10,5.1,9.6C4.2,9.2,3.5,8.8,3,8.2z M5,4C4.7,4,4.5,4.1,4.3,4.3C4.1,4.5,4,4.7,4,5c0,0.3,0.1,0.5,0.3,0.7S4.7,6,5,6
	c0.3,0,0.5-0.1,0.7-0.3C5.9,5.5,6,5.3,6,5c0-0.3-0.1-0.5-0.3-0.7C5.5,4.1,5.3,4,5,4z M11,4c-0.3,0-0.5,0.1-0.7,0.3
	C10.1,4.5,10,4.7,10,5c0,0.3,0.1,0.5,0.3,0.7C10.5,5.9,10.7,6,11,6s0.5-0.1,0.7-0.3C11.9,5.5,12,5.3,12,5c0-0.3-0.1-0.5-0.3-0.7
	C11.5,4.1,11.3,4,11,4z"/>
</svg>
