<svg xmlns="http://www.w3.org/2000/svg" viewBox="0 0 16 16" preserveAspectRatio="xMinYMid meet"><title>Artboard 1</title><path d="M14.86,4.86V15.14A.86.86,0,0,1,14,16H2a.86.86,0,0,1-.86-.86V.86A.86.86,0,0,1,2,0h8a2.39,2.39,0,0,1,1.46.61l2.79,2.79A2.39,2.39,0,0,1,14.86,4.86Zm-1.14.86H10a.86.86,0,0,1-.86-.86V1.14H2.29V14.86H13.71ZM4.86,6.86h6.29a.28.28,0,0,1,.29.29v.57a.28.28,0,0,1-.29.29H4.86a.28.28,0,0,1-.29-.29V7.14A.28.28,0,0,1,4.86,6.86Zm6.57,2.57V10a.28.28,0,0,1-.29.29H4.86A.28.28,0,0,1,4.57,10V9.43a.28.28,0,0,1,.29-.29h6.29A.28.28,0,0,1,11.43,9.43Zm0,2.29v.57a.28.28,0,0,1-.29.29H4.86a.28.28,0,0,1-.29-.29v-.57a.28.28,0,0,1,.29-.29h6.29A.28.28,0,0,1,11.43,11.71ZM10.29,4.57h3.36a1.14,1.14,0,0,0-.2-.37L10.65,1.41a1.14,1.14,0,0,0-.37-.2Z" fill="#999"/></svg>