<?xml version="1.0" encoding="utf-8"?>
<!-- Generator: Adobe Illustrator 15.1.0, SVG Export Plug-In  -->
<!DOCTYPE svg PUBLIC "-//W3C//DTD SVG 1.1//EN" "http://www.w3.org/Graphics/SVG/1.1/DTD/svg11.dtd" [
	<!ENTITY ns_flows "http://ns.adobe.com/Flows/1.0/">
]>
<svg version="1.1"
	 xmlns="http://www.w3.org/2000/svg" xmlns:xlink="http://www.w3.org/1999/xlink" xmlns:a="http://ns.adobe.com/AdobeSVGViewerExtensions/3.0/"
	 x="0px" y="0px" width="16px" height="16px" viewBox="0 0 16 16" style="overflow:visible;enable-background:new 0 0 16 16;"
	 xml:space="preserve" preserveAspectRatio="xMinYMid meet">
<defs>
</defs>
<path style="fill:#999999;" d="M3.5,16v-2H0V8h2v4h1.5v-2l3,3L3.5,16z M3,7.2c0.2,0.1,0.4,0.2,0.7,0.2c0.2,0,0.5-0.1,0.7-0.2
	c0.2-0.1,0.4-0.3,0.6-0.6L4.7,6.5C4.6,6.6,4.5,6.7,4.5,6.7c0,0-0.1,0-0.1,0S4.3,6.5,4.2,6.5c0-0.1,0-0.2,0-0.4V4.1
	c0-0.5,0-0.9-0.1-1C4.1,2.8,3.9,2.6,3.6,2.4C3.3,2.2,3,2.1,2.5,2.1c-0.4,0-0.8,0.1-1.1,0.2S0.7,2.6,0.5,2.8C0.3,3.1,0.2,3.3,0.2,3.6
	c0,0.2,0.1,0.3,0.2,0.5C0.6,4.2,0.7,4.3,1,4.3c0.2,0,0.4-0.1,0.5-0.2C1.6,4,1.7,3.8,1.7,3.6c0-0.1-0.1-0.3-0.2-0.4
	C1.4,3.1,1.3,3,1.3,2.9c0-0.1,0-0.2,0.1-0.2C1.6,2.6,1.8,2.5,2,2.5c0.1,0,0.3,0,0.4,0.1c0.1,0.1,0.2,0.2,0.2,0.3
	c0,0.1,0.1,0.3,0.1,0.7v0.5C1.6,4.6,0.9,5,0.6,5.3C0.2,5.6,0.1,6,0.1,6.4c0,0.3,0.1,0.5,0.3,0.7c0.2,0.2,0.4,0.3,0.7,0.3
	c0.5,0,1-0.3,1.6-0.8C2.8,6.8,2.9,7,3,7.2z M2.1,6.5c-0.2,0-0.3,0-0.4-0.1C1.6,6.2,1.5,6,1.5,5.9c0-0.2,0.1-0.4,0.2-0.6
	C2,5,2.3,4.7,2.7,4.5v1.7C2.5,6.4,2.3,6.5,2.1,6.5z M5.3,0v0.2c0.2,0,0.3,0,0.4,0.1c0.1,0,0.1,0.1,0.2,0.2c0,0.1,0,0.2,0,0.5v6.4
	h0.2l0.8-0.5c0.2,0.2,0.4,0.3,0.6,0.4S8,7.4,8.3,7.4c0.5,0,0.9-0.1,1.3-0.4c0.4-0.2,0.7-0.6,0.9-1s0.3-0.9,0.3-1.5
	c0-0.5-0.1-0.9-0.3-1.3s-0.4-0.7-0.7-0.9c-0.3-0.2-0.6-0.3-1-0.3c-0.5,0-1,0.2-1.4,0.7V0H5.3z M8.3,2.7c0.2,0,0.4,0.1,0.6,0.3
	C9,3.3,9.1,3.8,9.1,4.6c0,0.8,0,1.4-0.1,1.7C8.9,6.6,8.8,6.8,8.7,6.9C8.5,7,8.4,7.1,8.2,7.1C8,7.1,7.8,7,7.7,6.9
	C7.5,6.7,7.5,6.6,7.4,6.3c0-0.1,0-0.4,0-0.9V3.2C7.7,2.9,8,2.7,8.3,2.7z M9.3,15.2c0.2,0.1,0.4,0.2,0.7,0.2c0.2,0,0.5-0.1,0.7-0.2
	c0.2-0.1,0.4-0.3,0.6-0.6L11,14.5c-0.1,0.1-0.2,0.2-0.3,0.2c0,0-0.1,0-0.1,0s-0.1-0.1-0.1-0.1c0-0.1,0-0.2,0-0.4v-1.9
	c0-0.5,0-0.9-0.1-1c-0.1-0.2-0.3-0.5-0.5-0.7c-0.3-0.2-0.7-0.3-1.1-0.3c-0.4,0-0.8,0.1-1.1,0.2S7,10.6,6.8,10.8
	c-0.2,0.2-0.3,0.5-0.3,0.7c0,0.2,0.1,0.3,0.2,0.5c0.2,0.1,0.3,0.2,0.6,0.2c0.2,0,0.4-0.1,0.5-0.2C7.9,12,8,11.8,8,11.6
	c0-0.1-0.1-0.3-0.2-0.4c-0.1-0.1-0.2-0.2-0.2-0.3c0-0.1,0-0.2,0.1-0.2c0.2-0.1,0.3-0.2,0.6-0.2c0.1,0,0.3,0,0.4,0.1
	c0.1,0.1,0.2,0.2,0.2,0.3C9,11,9,11.2,9,11.6v0.5c-1.1,0.5-1.8,0.9-2.2,1.2c-0.3,0.3-0.5,0.7-0.5,1c0,0.3,0.1,0.5,0.3,0.7
	c0.2,0.2,0.4,0.3,0.7,0.3c0.5,0,1-0.3,1.6-0.8C9,14.8,9.1,15,9.3,15.2z M8.4,14.5c-0.2,0-0.3,0-0.4-0.1c-0.1-0.1-0.2-0.3-0.2-0.4
	c0-0.2,0.1-0.4,0.2-0.6c0.2-0.3,0.5-0.6,1-0.8v1.7C8.8,14.4,8.6,14.5,8.4,14.5z M15.3,14.5c-0.2,0.1-0.3,0.1-0.5,0.1
	c-0.3,0-0.5-0.1-0.7-0.2c-0.3-0.2-0.5-0.5-0.6-1c-0.2-0.4-0.2-0.9-0.2-1.4c0-0.6,0.1-1,0.3-1.3c0.1-0.2,0.3-0.3,0.4-0.3
	c0.1,0,0.2,0,0.3,0.1s0.1,0.2,0.2,0.5c0,0.4,0.1,0.6,0.3,0.7C14.8,12,15,12,15.2,12c0.2,0,0.4-0.1,0.5-0.2c0.1-0.1,0.2-0.3,0.2-0.5
	c0-0.3-0.2-0.6-0.5-0.9c-0.3-0.3-0.7-0.4-1.2-0.4c-0.8,0-1.4,0.3-1.8,0.9c-0.4,0.5-0.5,1.1-0.5,1.8c0,0.7,0.2,1.3,0.6,1.8
	s0.9,0.8,1.6,0.8c0.4,0,0.8-0.1,1.1-0.3c0.4-0.2,0.6-0.5,0.9-1L15.8,14C15.6,14.2,15.4,14.4,15.3,14.5z"/>
</svg>
