<!DOCTYPE svg PUBLIC "-//W3C//DTD SVG 1.1//EN" "http://www.w3.org/Graphics/SVG/1.1/DTD/svg11.dtd" [
	<!ENTITY ns_flows "http://ns.adobe.com/Flows/1.0/">
]><svg xmlns="http://www.w3.org/2000/svg" width="16" height="16" viewBox="0 -1 16 16" preserveAspectRatio="xMinYMid meet" overflow="visible"><path d="M16 0v14h-4c0-.4-.1-.7-.3-1H15V2H1v2.1c-.4.3-.7.6-1 1V0h16zM6.6 13h-1c-.5.2-1 .2-1.6.2-.5 0-1-.1-1.5-.2H1v-.8c-.4-.3-.7-.6-1-1V14h7.5l-.9-1zm7.4-3H8.9c-.1.1-.1.3-.2.4 0 0 .3.3.7.6H14v-1zm0-3H9.1c.1.3.1.7.1 1H14V7zm0-3H7.1c.4.3.7.6 1 1H14V4zm-3.3 9.4c.4.4.5 1 .1 1.4-.4.4-1 .3-1.4-.1l-2.2-2.6c-.2-.3-.4-.6-.3-.8-.7.6-1.7 1-2.7 1C1.8 12.2 0 10.4 0 8.1 0 5.8 1.8 4 4.1 4s4.1 1.8 4.1 4.1c0 1-.4 2-1 2.7.2 0 .5.1.8.3l2.7 2.3m-6.6-2.5c1.5 0 2.7-1.2 2.7-2.7 0-1.5-1.2-2.8-2.7-2.8-1.5 0-2.8 1.2-2.8 2.8.1 1.4 1.3 2.7 2.8 2.7" fill="#999"/></svg>