<!DOCTYPE svg PUBLIC "-//W3C//DTD SVG 1.1//EN" "http://www.w3.org/Graphics/SVG/1.1/DTD/svg11.dtd" [
	<!ENTITY ns_flows "http://ns.adobe.com/Flows/1.0/">
]><svg xmlns="http://www.w3.org/2000/svg" width="16" height="16" viewBox="0 0 16 16" preserveAspectRatio="xMinYMid meet" overflow="visible"><path d="M8 0C3.6 0 0 3.6 0 8s3.6 8 8 8 8-3.6 8-8-3.6-8-8-8zm0 15c-3.9 0-7-3.1-7-7s3.1-7 7-7 7 3.1 7 7-3.1 7-7 7zm.5-2c-.8 0-1.5-.7-1.5-1.5s.6-1.6 1.5-1.6c.8 0 1.5.7 1.5 1.5S9.3 13 8.5 13zM6 6.6c-.6 0-1-.4-1-1C4.9 4.5 6.1 3 8.3 3c1.4 0 3.4 1 3.4 2.6 0 .8-.5 1.5-1.5 1.9-1.5.5-.7 1.6-2 1.6-.6 0-1-.3-1-.9 0-1.2 1.2-1.8 1.2-3 0-.3-.1-.7-.5-.7s-.4.4-.4.7c-.1.9-.6 1.4-1.5 1.4z" fill="#989898"/></svg>