<?xml version="1.0" encoding="utf-8"?>
<!-- Generator: Adobe Illustrator 15.1.0, SVG Export Plug-In  -->
<!DOCTYPE svg PUBLIC "-//W3C//DTD SVG 1.1//EN" "http://www.w3.org/Graphics/SVG/1.1/DTD/svg11.dtd" [
	<!ENTITY ns_flows "http://ns.adobe.com/Flows/1.0/">
]>
<svg version="1.1"
	 xmlns="http://www.w3.org/2000/svg" xmlns:xlink="http://www.w3.org/1999/xlink" xmlns:a="http://ns.adobe.com/AdobeSVGViewerExtensions/3.0/"
	 x="0px" y="0px" width="16px" height="16px" viewBox="0 0 16 16" style="overflow:visible;enable-background:new 0 0 16 16;"
	 xml:space="preserve" preserveAspectRatio="xMinYMid meet">
<defs>
</defs>
<path style="fill:#999999;" d="M2.3,2.3C3.9,0.8,5.8,0,8,0c2.2,0,4.1,0.8,5.7,2.3C15.2,3.9,16,5.8,16,8s-0.8,4.1-2.3,5.7
	C12.1,15.2,10.2,16,8,16c-2.2,0-4.1-0.8-5.7-2.3C0.8,12.1,0,10.2,0,8S0.8,3.9,2.3,2.3z M12.6,3.4C11.3,2.1,9.8,1.5,8,1.5
	c-1.8,0-3.3,0.6-4.6,1.9C2.1,4.7,1.5,6.2,1.5,8s0.6,3.3,1.9,4.6c1.3,1.3,2.8,1.9,4.6,1.9c1.8,0,3.3-0.6,4.6-1.9
	c1.3-1.3,1.9-2.8,1.9-4.6S13.9,4.7,12.6,3.4z M11,4c0.3,0,0.5,0.1,0.7,0.3C11.9,4.5,12,4.7,12,5v3l-3,2H7V9l3-2V6H5V4H11z M7,11h2v2
	H7V11z"/>
</svg>
