<?xml version="1.0" encoding="utf-8"?>
<!-- Generator: Adobe Illustrator 15.1.0, SVG Export Plug-In  -->
<!DOCTYPE svg PUBLIC "-//W3C//DTD SVG 1.1//EN" "http://www.w3.org/Graphics/SVG/1.1/DTD/svg11.dtd" [
	<!ENTITY ns_flows "http://ns.adobe.com/Flows/1.0/">
]>
<svg version="1.1"
	 xmlns="http://www.w3.org/2000/svg" xmlns:xlink="http://www.w3.org/1999/xlink" xmlns:a="http://ns.adobe.com/AdobeSVGViewerExtensions/3.0/"
	 x="0px" y="0px" width="16px" height="16px" viewBox="0 -1.5 16 16" style="overflow:visible;enable-background:new 0 -1.5 16 16;"
	 xml:space="preserve" preserveAspectRatio="xMinYMid meet">
<defs>
</defs>
<path style="fill:#999999;" d="M16,0v13H0V0H16z M15,1H1v11h14V1z M11,6.5L9,8L5,3l-3,8h12L11,6.5z M12.5,5c0.4,0,0.8-0.1,1.1-0.4
	C13.9,4.3,14,3.9,14,3.5c0-0.4-0.1-0.8-0.4-1.1C13.3,2.1,12.9,2,12.5,2s-0.8,0.1-1.1,0.4C11.1,2.7,11,3.1,11,3.5
	c0,0.4,0.1,0.8,0.4,1.1C11.7,4.9,12.1,5,12.5,5z"/>
</svg>
