<?xml version="1.0" encoding="utf-8"?>
<!-- Generator: Adobe Illustrator 15.1.0, SVG Export Plug-In  -->
<!DOCTYPE svg PUBLIC "-//W3C//DTD SVG 1.1//EN" "http://www.w3.org/Graphics/SVG/1.1/DTD/svg11.dtd" [
	<!ENTITY ns_flows "http://ns.adobe.com/Flows/1.0/">
]>
<svg version="1.1"
	 xmlns="http://www.w3.org/2000/svg" xmlns:xlink="http://www.w3.org/1999/xlink" xmlns:a="http://ns.adobe.com/AdobeSVGViewerExtensions/3.0/"
	 x="0px" y="0px" width="16px" height="16px" viewBox="0 -0.6 16 16" style="overflow:visible;enable-background:new 0 -0.6 16 16;"
	 xml:space="preserve" preserveAspectRatio="xMinYMid meet">
<defs>
</defs>
<path style="fill:#999999;" d="M1.5,4.8L0,4c0.9-1.8,2.2-3.1,4-4l0.8,1.5C3.3,2.2,2.2,3.3,1.5,4.8z M14.7,8c0,1.9-0.7,3.4-2,4.8
	c-1.3,1.3-2.9,2-4.8,2c-1.9,0-3.4-0.7-4.8-2c-1.3-1.3-2-2.9-2-4.8s0.7-3.4,2-4.8c1.3-1.3,2.9-2,4.8-2c1.9,0,3.4,0.7,4.8,2
	C14.1,4.6,14.7,6.1,14.7,8z M11.6,4.4C10.6,3.5,9.4,3,8,3S5.4,3.5,4.4,4.4C3.5,5.4,3,6.6,3,8c0,1.4,0.5,2.6,1.5,3.6
	c1,1,2.2,1.5,3.6,1.5s2.6-0.5,3.6-1.5c1-1,1.5-2.2,1.5-3.6C13,6.6,12.5,5.4,11.6,4.4z M8,7.7l2.6,2.1l-0.7,0.8L7.1,8.4
	C7,8.3,6.9,8.2,6.9,8V4.6H8V7.7z M11.2,1.5L12,0c1.8,0.9,3.1,2.2,4,4l-1.5,0.8C13.8,3.3,12.7,2.2,11.2,1.5z"/>
</svg>
