<!DOCTYPE svg PUBLIC "-//W3C//DTD SVG 1.1//EN" "http://www.w3.org/Graphics/SVG/1.1/DTD/svg11.dtd" [
	<!ENTITY ns_flows "http://ns.adobe.com/Flows/1.0/">
]><svg xmlns="http://www.w3.org/2000/svg" width="16" height="16" viewBox="0 0 16 16" preserveAspectRatio="xMinYMid meet" overflow="visible"><path d="M8.5 9.5c.3.5.5 1.1.5 1.7 0 .6-.3 1.1-.7 1.6l-2.5 2.5c-.6.5-1.1.7-1.8.7s-1.3-.2-1.7-.7L.8 13.8C.2 13.3 0 12.7 0 12s.2-1.3.7-1.7l2.5-2.5C3.7 7.3 4.3 7 5 7c.5 0 1 .2 1.5.5l-1 1c-.2 0-.3-.1-.5-.1-.3 0-.5.1-.8.3l-2.5 2.5c-.2.2-.3.5-.3.7 0 .3.1.5.3.7l1.5 1.5c.2.2.5.3.7.3s.5-.1.7-.3l2.5-2.5c.2-.2.3-.5.3-.8 0-.2 0-.3-.1-.4l1.2-.9zM5 10l5-5c.1-.1.3-.2.5-.2s.4.1.5.2c.1.1.2.3.2.5s-.1.4-.2.5l-5 5c-.1.1-.3.2-.5.2s-.4-.1-.5-.2c-.1-.1-.2-.3-.2-.5s.1-.4.2-.5zm11-6c0 .7-.2 1.3-.7 1.7l-2.5 2.5c-.5.5-1.1.8-1.8.8-.5 0-1-.2-1.5-.5l1-1c.1.1.3.1.4.1.3 0 .5-.1.8-.3l2.5-2.5c.2-.2.3-.5.3-.7s-.1-.5-.3-.7l-1.5-1.5c-.2-.2-.5-.3-.7-.3s-.5.1-.7.3L8.8 4.2c-.3.3-.4.5-.4.8 0 .2 0 .3.1.4l-1 1C7.2 6 7 5.4 7 4.8s.3-1.1.7-1.6L10.2.7C10.8.2 11.3 0 12 0s1.3.2 1.7.7l1.5 1.5c.6.5.8 1.1.8 1.8z" fill="#888"/></svg>