<!DOCTYPE svg PUBLIC "-//W3C//DTD SVG 1.1//EN" "http://www.w3.org/Graphics/SVG/1.1/DTD/svg11.dtd" [
	<!ENTITY ns_flows "http://ns.adobe.com/Flows/1.0/">
]><svg xmlns="http://www.w3.org/2000/svg" width="16" height="16" viewBox="0 -0.5 16 16" preserveAspectRatio="xMinYMid meet" overflow="visible"><path d="M14.3 9c0-1.2-.4-2.2-1.2-3-.8-.8-1.8-1.2-3-1.2-1.3 0-2.3.4-3.1 1.2-.8.8-1.2 1.8-1.2 3 0 .9.3 1.7.8 2.5.5.7 1.2 1.2 2 1.5H1L0 3h16l-.7 7h-1.2c.1-.3.2-.7.2-1zm.7-7H1l1-2h5.5L8 1h6.5l.5 1zm1 11.9c0 .3-.1.5-.3.7l-.1.1c-.2.2-.4.3-.7.3-.3 0-.5-.1-.7-.3l-2.7-3.1c-.5.3-1 .4-1.6.4-.8 0-1.5-.3-2.1-.9C7.3 10.5 7 9.8 7 9s.3-1.5.9-2.1C8.5 6.3 9.2 6 10 6s1.5.3 2.1.9c.6.6.9 1.3.9 2.1 0 .6-.1 1.1-.4 1.6l3.1 2.7c.2.1.3.4.3.6zM11.9 9c0-.5-.2-1-.6-1.4-.3-.3-.8-.5-1.3-.5s-1 .2-1.4.6c-.3.3-.5.8-.5 1.3s.2 1 .6 1.4c.4.4.8.6 1.4.6.5 0 1-.2 1.4-.6s.4-.9.4-1.4z" fill="#888"/></svg>