<!DOCTYPE svg PUBLIC "-//W3C//DTD SVG 1.1//EN" "http://www.w3.org/Graphics/SVG/1.1/DTD/svg11.dtd" [
	<!ENTITY ns_flows "http://ns.adobe.com/Flows/1.0/">
]><svg xmlns="http://www.w3.org/2000/svg" width="16" height="16" viewBox="0 -0.6 16 16" preserveAspectRatio="xMinYMid meet" overflow="visible"><path d="M16 15.4H0v-1h16v1zm-14.7-3H5V12c-.4 0-.7 0-.9-.1-.3-.1-.5-.3-.5-.6 0-.2.1-.5.2-1 .1-.2.2-.7.5-1.4h4l.5 1.1c.1.2.2.4.2.6.1.3.1.5.1.6 0 .3-.1.5-.3.6s-.5.1-1 .2v.5h5.8V12c-.4 0-.7-.1-.9-.4s-.6-1-1-2.1L7.6 0h-.5l-4 9.9c-.3.8-.6 1.3-.7 1.5-.3.4-.6.6-1 .6v.4zm3.3-4.2L6.2 4h.2l1.7 4.2H4.6z" fill="#888"/></svg>