<!DOCTYPE svg PUBLIC "-//W3C//DTD SVG 1.1//EN" "http://www.w3.org/Graphics/SVG/1.1/DTD/svg11.dtd" [
	<!ENTITY ns_flows "http://ns.adobe.com/Flows/1.0/">
]><svg xmlns="http://www.w3.org/2000/svg" width="16" height="16" viewBox="-4 -1 16 16" preserveAspectRatio="xMinYMid meet" overflow="visible"><path d="M0 14.6c.5 0 .9-.1 1.1-.3.3-.2.6-.7.8-1.4L4.7 2.8c.1-.4.2-.7.2-.9.1-.2.1-.3.1-.5C5 1 4.9.8 4.6.6 4.4.5 4 .4 3.3.4V0H9v.4c-.6.1-1 .2-1.2.4-.2.1-.4.6-.6 1.3L4.3 12.2c-.1.4-.2.7-.2.9s-.1.4-.1.5c0 .4.1.6.4.8s.7.2 1.2.2v.4H0v-.4z" fill="#999"/></svg>