<?xml version="1.0" encoding="utf-8"?>
<!-- Generator: Adobe Illustrator 15.1.0, SVG Export Plug-In  -->
<!DOCTYPE svg PUBLIC "-//W3C//DTD SVG 1.1//EN" "http://www.w3.org/Graphics/SVG/1.1/DTD/svg11.dtd" [
	<!ENTITY ns_flows "http://ns.adobe.com/Flows/1.0/">
]>
<svg version="1.1"
	 xmlns="http://www.w3.org/2000/svg" xmlns:xlink="http://www.w3.org/1999/xlink" xmlns:a="http://ns.adobe.com/AdobeSVGViewerExtensions/3.0/"
	 x="0px" y="0px" width="16px" height="16px" viewBox="0 0 16 16" style="overflow:visible;enable-background:new 0 0 16 16;"
	 xml:space="preserve" preserveAspectRatio="xMinYMid meet">
<defs>
</defs>
<path style="fill:#999999;" d="M13.1,10.6L16,12l-8,4l-8-4l2.9-1.4L4,11.1L2.2,12L8,14.9l5.8-2.9L12,11.1L13.1,10.6z M8,9.1L2.9,6.6
	L0,8l8,4l8-4l-2.9-1.4L8,9.1z M16,4L8,8L0,4l8-4L16,4z M8,6.9L13.8,4L8,1.1L2.2,4L8,6.9z"/>
</svg>
