<!DOCTYPE svg PUBLIC "-//W3C//DTD SVG 1.1//EN" "http://www.w3.org/Graphics/SVG/1.1/DTD/svg11.dtd" [
	<!ENTITY ns_flows "http://ns.adobe.com/Flows/1.0/">
]><svg xmlns="http://www.w3.org/2000/svg" width="16" height="16" viewBox="-0.1 0 16 16" preserveAspectRatio="xMinYMid meet" overflow="visible"><path d="M15.9 2H8.3L4.6 16H2L0 8.7l1.9-.5 1.3 4.9L6.8 0h9.1v2zm-3.1 4.2c-.1.3-.1.7-.2 1h-.1c-.4-.8-1.2-1.2-2.1-1.2-1.8 0-3.6 1.6-3.6 4.3 0 2.4 1.5 3.9 3.2 3.9 1.1 0 2-.5 2.5-1.4.2.9.8 1.4 1.7 1.4.3 0 .7-.1.8-.1l.1-1.7c-.4 0-.7-.2-.7-1.1 0-1.7.1-3.9.2-5.1h-1.8zm-3.5 3.9c0-1.2.6-2.3 1.5-2.3.7 0 1.2.6 1.4 1.5v1.5c-.1.8-.7 1.5-1.4 1.5-.9 0-1.5-1-1.5-2.2z" fill="#888"/></svg>