<!DOCTYPE svg PUBLIC "-//W3C//DTD SVG 1.1//EN" "http://www.w3.org/Graphics/SVG/1.1/DTD/svg11.dtd" [
	<!ENTITY ns_flows "http://ns.adobe.com/Flows/1.0/">
]><svg xmlns="http://www.w3.org/2000/svg" width="16" height="16" viewBox="0 -2.8 16 16" preserveAspectRatio="xMinYMid meet" overflow="visible"><path d="M16 3.1v1.7c-.9-.9-1.9-1.7-3-2.3-1.6-.8-3.2-1.2-5-1.2-1.8 0-3.4.4-5 1.2-1.1.6-2.1 1.3-3 2.3V3.1c.8-.7 1.6-1.3 2.6-1.8C4.2.4 6.1 0 8 0s3.8.4 5.4 1.3c1 .5 1.8 1.1 2.6 1.8zm0 3.4c-.9 1.2-2.1 2.2-3.5 2.9-1.4.7-2.9 1.1-4.5 1.1s-3.1-.4-4.5-1.1C2.1 8.7.9 7.7 0 6.5c.9-1.2 2.1-2.2 3.5-2.9C4.9 2.9 6.4 2.5 8 2.5s3.1.4 4.5 1.1c1.4.7 2.6 1.7 3.5 2.9zm-1.3 0c-.8-.8-1.6-1.5-2.6-2-.5-.2-1-.5-1.6-.6.3.4.5 1 .5 1.6 0 .8-.3 1.5-.9 2.1-.6.6-1.3.9-2.1.9s-1.5-.3-2.1-.9C5.3 7 5 6.3 5 5.5c0-.6.2-1.2.5-1.7-.6.2-1.1.4-1.6.7-1 .5-1.9 1.2-2.6 2 .7.8 1.6 1.5 2.6 2 .6.3 1.3.6 2 .7.7.2 1.4.3 2.1.3.7 0 1.4-.1 2.1-.2.7-.2 1.3-.4 2-.7 1-.6 1.9-1.3 2.6-2.1zM6 5.5c0 .3.1.5.3.7.2.2.4.3.7.3.3 0 .5-.1.7-.3.2-.2.3-.4.3-.7 0-.3-.1-.5-.3-.7-.2-.2-.4-.3-.7-.3-.3 0-.5.1-.7.3-.2.2-.3.4-.3.7z" fill="#999"/></svg>