<?xml version="1.0" encoding="utf-8"?>
<!-- Generator: Adobe Illustrator 15.1.0, SVG Export Plug-In  -->
<!DOCTYPE svg PUBLIC "-//W3C//DTD SVG 1.1//EN" "http://www.w3.org/Graphics/SVG/1.1/DTD/svg11.dtd" [
	<!ENTITY ns_flows "http://ns.adobe.com/Flows/1.0/">
]>
<svg version="1.1"
	 xmlns="http://www.w3.org/2000/svg" xmlns:xlink="http://www.w3.org/1999/xlink" xmlns:a="http://ns.adobe.com/AdobeSVGViewerExtensions/3.0/"
	 x="0px" y="0px" width="16px" height="16px" viewBox="0 -2.8 16 16" style="overflow:visible;enable-background:new 0 -2.8 16 16;"
	 xml:space="preserve" preserveAspectRatio="xMinYMid meet">
<defs>
</defs>
<path style="fill:#999999;" d="M16,3.1v1.7c-0.9-0.9-1.9-1.7-3-2.3c-1.6-0.8-3.2-1.2-5-1.2c-1.8,0-3.4,0.4-5,1.2
	C1.9,3.1,0.9,3.8,0,4.8V3.1c0.8-0.7,1.6-1.3,2.6-1.8C4.2,0.4,6.1,0,8,0s3.8,0.4,5.4,1.3C14.4,1.8,15.2,2.4,16,3.1z M16,6.5
	c-0.9,1.2-2.1,2.2-3.5,2.9c-1.4,0.7-2.9,1.1-4.5,1.1c-1.6,0-3.1-0.4-4.5-1.1C2.1,8.7,0.9,7.7,0,6.5c0.9-1.2,2.1-2.2,3.5-2.9
	C4.9,2.9,6.4,2.5,8,2.5c1.6,0,3.1,0.4,4.5,1.1C13.9,4.3,15.1,5.3,16,6.5z M14.7,6.5c-0.8-0.8-1.6-1.5-2.6-2c-0.5-0.2-1-0.5-1.6-0.6
	C10.8,4.3,11,4.9,11,5.5c0,0.8-0.3,1.5-0.9,2.1C9.5,8.2,8.8,8.5,8,8.5c-0.8,0-1.5-0.3-2.1-0.9C5.3,7,5,6.3,5,5.5
	c0-0.6,0.2-1.2,0.5-1.7C4.9,4,4.4,4.2,3.9,4.5C2.9,5,2,5.7,1.3,6.5C2,7.3,2.9,8,3.9,8.5c0.6,0.3,1.3,0.6,2,0.7
	C6.6,9.4,7.3,9.5,8,9.5c0.7,0,1.4-0.1,2.1-0.2c0.7-0.2,1.3-0.4,2-0.7C13.1,8,14,7.3,14.7,6.5z M6,5.5C6,5.8,6.1,6,6.3,6.2
	C6.5,6.4,6.7,6.5,7,6.5c0.3,0,0.5-0.1,0.7-0.3C7.9,6,8,5.8,8,5.5C8,5.2,7.9,5,7.7,4.8C7.5,4.6,7.3,4.5,7,4.5c-0.3,0-0.5,0.1-0.7,0.3
	C6.1,5,6,5.2,6,5.5z"/>
</svg>
