<!DOCTYPE svg PUBLIC "-//W3C//DTD SVG 1.1//EN" "http://www.w3.org/Graphics/SVG/1.1/DTD/svg11.dtd" [
	<!ENTITY ns_flows "http://ns.adobe.com/Flows/1.0/">
]><svg xmlns="http://www.w3.org/2000/svg" width="16" height="16" viewBox="0 0 16 16" preserveAspectRatio="xMinYMid meet" overflow="visible"><path d="M5 10l.6-.6.8.1.1.9-.5.6c-.1.1-.3.2-.5.2s-.4-.1-.5-.2c-.1-.1-.2-.3-.2-.5s.1-.4.2-.5zm5.5-5.2c-.2 0-.4.1-.5.2l-.6.6.1.8.9.1.6-.5c.1-.1.2-.3.2-.5s-.1-.4-.2-.5c-.1-.1-.3-.2-.5-.2zm4.8-2.6L13.8.7C13.3.2 12.7 0 12 0s-1.3.2-1.7.7L8.8 2.2l.3 1.7 2.2-2.2c.2-.2.5-.3.7-.3s.5.1.7.3l1.5 1.5c.2.2.3.5.3.7s-.1.5-.3.7L12 6.8l1.7.3 1.5-1.5c.6-.4.8-.9.8-1.6s-.2-1.3-.7-1.8zm-8.4 9.9l-2.2 2.2c-.2.2-.5.3-.7.3s-.5-.1-.7-.3l-1.5-1.5c-.2-.2-.3-.5-.3-.7 0-.3.1-.5.3-.7L4 9.2l-1.8-.4-1.5 1.5c-.5.5-.7 1-.7 1.7s.2 1.3.7 1.7l1.5 1.5c.5.6 1.1.8 1.8.8s1.3-.2 1.7-.7l1.5-1.5-.3-1.7zM14 8.3l-5.4-1L7.7 2l-1.5.2.9 4.9-4.9-.9L2 7.7l5.4 1 1 5.4 1.5-.3-1-4.9 4.9.9.2-1.5z" fill="#888"/></svg>