<!DOCTYPE svg PUBLIC "-//W3C//DTD SVG 1.1//EN" "http://www.w3.org/Graphics/SVG/1.1/DTD/svg11.dtd" [
	<!ENTITY ns_flows "http://ns.adobe.com/Flows/1.0/">
]><svg xmlns="http://www.w3.org/2000/svg" width="16" height="16" viewBox="0 -1 16 16" preserveAspectRatio="xMinYMid meet" overflow="visible"><path d="M15.7 3.3c.2.2.3.4.3.7v5c0 .3-.1.5-.3.7-.2.2-.4.3-.7.3h-3v4H4v-4H1c-.3 0-.5-.1-.7-.3C.1 9.5 0 9.3 0 9V4c0-.3.1-.5.3-.7.2-.2.4-.3.7-.3h14c.3 0 .5.1.7.3zM4 2h8V0H4v2zm7 6H5v5h6V8zm3.5-4.2c-.2 0-.4.1-.5.2-.1.1-.2.3-.2.5s.1.4.2.5c.1.1.3.2.5.2s.4 0 .5-.2c.1-.1.2-.3.2-.5s-.1-.4-.2-.5c-.1-.2-.3-.2-.5-.2z" fill="#888"/></svg>