<!DOCTYPE svg PUBLIC "-//W3C//DTD SVG 1.1//EN" "http://www.w3.org/Graphics/SVG/1.1/DTD/svg11.dtd" [
	<!ENTITY ns_flows "http://ns.adobe.com/Flows/1.0/">
]><svg xmlns="http://www.w3.org/2000/svg" width="16" height="16" viewBox="-3.6 -0.2 16 16" preserveAspectRatio="xMinYMid meet" overflow="visible"><path d="M1.1 1c.7-.7 1.8-1 3.2-1s2.6.4 3.4 1.1c.8.7 1.2 1.6 1.2 2.7 0 .5-.1 1-.2 1.4-.3.7-.9 1.3-1.7 1.9-.4.2-.6.4-.7.4-.1.1-.4.3-.7.5-.4.2-.7.5-.8.7-.2.3-.3.9-.3 1.8h-.7v-1c0-.6.3-1.5.8-2.5.6-1 .8-2.1.8-3.3 0-.9-.2-1.6-.5-2.2S4.2.8 3.4.8c-.5 0-.8.1-1 .3-.1.2-.2.4-.2.7V2l.2.2.2.2.3.6c.1.2.1.4.1.6 0 .4-.1.8-.4 1S2 5 1.6 5 .8 4.8.5 4.5C.2 4.3 0 3.9 0 3.3 0 2.5.4 1.7 1.1 1zm1.7 11.8c.4-.4.8-.6 1.4-.6.5 0 1 .2 1.4.6.4.4.6.8.6 1.4s-.2 1-.6 1.4c-.4.4-.8.6-1.4.6-.5 0-1-.2-1.4-.6-.4-.4-.6-.8-.6-1.4s.2-1 .6-1.4z" fill="#888"/></svg>