<!DOCTYPE svg PUBLIC "-//W3C//DTD SVG 1.1//EN" "http://www.w3.org/Graphics/SVG/1.1/DTD/svg11.dtd" [
	<!ENTITY ns_flows "http://ns.adobe.com/Flows/1.0/">
]><svg xmlns="http://www.w3.org/2000/svg" width="16" height="16" viewBox="-1.2 0 16 16" preserveAspectRatio="xMinYMid meet" overflow="visible"><path d="M7.5 3.9V0l6 6-6 6V8c-1.3 0-2.4.2-3.3.5s-1.6.8-2 1.3c-.4.6-.6 1.2-.7 1.9-.1.7 0 1.4.2 2.2.2.7.5 1.4.9 2.1-.7-.8-1.3-1.6-1.7-2.5-.4-.9-.7-1.8-.8-2.7C0 9.9.1 9 .3 8.2c.2-1 .7-1.7 1.2-2.3.6-.6 1.4-1.1 2.4-1.5C5 4 6.2 3.9 7.5 3.9z" fill="#999"/></svg>