<!DOCTYPE svg PUBLIC "-//W3C//DTD SVG 1.1//EN" "http://www.w3.org/Graphics/SVG/1.1/DTD/svg11.dtd" [
	<!ENTITY ns_flows "http://ns.adobe.com/Flows/1.0/">
]><svg xmlns="http://www.w3.org/2000/svg" width="16" height="16" viewBox="-2 -2 16 16" preserveAspectRatio="xMinYMid meet" overflow="visible"><path d="M0 12h2v2H0v-2zm3-3h2v2H3V9zm0 3h2v2H3v-2zm3-6h2v2H6V6zm0 3h2v2H6V9zm0 3h2v2H6v-2zm3-9h2v2H9V3zm0 3h2v2H9V6zm0 3h2v2H9V9zm0 3h2v2H9v-2zm3-12h2v2h-2V0zm0 3h2v2h-2V3zm0 3h2v2h-2V6zm0 3h2v2h-2V9zm0 3h2v2h-2v-2z" fill="#888"/></svg>