<!DOCTYPE svg PUBLIC "-//W3C//DTD SVG 1.1//EN" "http://www.w3.org/Graphics/SVG/1.1/DTD/svg11.dtd" [
	<!ENTITY ns_flows "http://ns.adobe.com/Flows/1.0/">
]><svg xmlns="http://www.w3.org/2000/svg" width="16" height="16" viewBox="0 -1.2 16 16" preserveAspectRatio="xMinYMid meet" overflow="visible"><path d="M9.2 0c1.9 0 3.5.7 4.8 2 1.3 1.3 2 2.9 2 4.8s-.7 3.5-2 4.8c-1.3 1.3-2.9 2-4.8 2v-1.5c1.5 0 2.7-.5 3.8-1.6 1-1 1.6-2.3 1.6-3.8C14.5 5.3 14 4.1 13 3s-2.3-1.6-3.8-1.6C7.7 1.5 6.5 2 5.5 3c-.8.8-1.3 1.7-1.5 2.8h2.8L3.4 9.7 0 5.8h2.5c.2-1.7 1-3 2.3-4.2C6 .6 7.5 0 9.2 0zm2.9 5.8v1.9H8.2V2.9h1.9v2.9h2z" fill="#999"/></svg>