<!DOCTYPE svg PUBLIC "-//W3C//DTD SVG 1.1//EN" "http://www.w3.org/Graphics/SVG/1.1/DTD/svg11.dtd" [
	<!ENTITY ns_flows "http://ns.adobe.com/Flows/1.0/">
]><svg xmlns="http://www.w3.org/2000/svg" width="16" height="16" viewBox="0 0 16 16" preserveAspectRatio="xMinYMid meet" overflow="visible"><path d="M0 0v6h6L3.8 3.8C4.8 2.7 6.3 2 8 2c2.6 0 4.8 1.6 5.6 3.9l1.9-.7C14.4 2.2 11.4 0 8 0 5.8 0 3.8.9 2.3 2.3L0 0zm8 14c-2.6 0-4.8-1.6-5.6-3.9l-1.9.7C1.6 13.8 4.6 16 8 16c2.2 0 4.2-.9 5.7-2.3L16 16v-6h-6l2.2 2.2C11.2 13.3 9.7 14 8 14" fill="#999"/></svg>