<!DOCTYPE svg PUBLIC "-//W3C//DTD SVG 1.1//EN" "http://www.w3.org/Graphics/SVG/1.1/DTD/svg11.dtd" [
	<!ENTITY ns_flows "http://ns.adobe.com/Flows/1.0/">
]><svg xmlns="http://www.w3.org/2000/svg" width="16" height="16" viewBox="-1.6 -0.1 16 16" preserveAspectRatio="xMinYMid meet" overflow="visible"><path d="M13.1 9.2c-.9 2.6-4.9 4.1-4.9 4.1-.5.2-1.2 1.3-1.2 1.3s-1 1.5-1.5 1.3c0 0-.7-.1-1.9-.5s-1.8-.8-1.8-.8c-.5-.2-.3-2-.3-2v-.7h1V13.8c.2.1.7.4 1.5.6.7.3 1.3.4 1.5.4.2-.2.5-.5.7-.9.3-.5 1-1.4 1.7-1.7 1-.4 3.7-1.8 4.3-3.6 1.1-3-.5-6.4-3.5-7.5-3-1.1-6.4.5-7.5 3.5-.1.6-.2.9-.2 1.3H0c0-.5.1-1 .2-1.4C1.5 1 5.5-.9 9 .4c3.6 1.3 5.4 5.2 4.1 8.8zM8 3.2c-1.8-.6-3.7.1-4.7 1.7h1.2c.6-.5 1.4-.9 2.2-.9.3 0 .7.1 1 .2.7.2 1.2.8 1.5 1.4.3.7.4 1.5.1 2.2-.1.4-1.5 1.4-2.6 1.8-.4.2-.9.4-1.3.8v1.4c.6-.6 1.1-1 1.7-1.2 1.1-.5 2.9-1.6 3.2-2.4.7-2-.3-4.2-2.3-5z" fill="#989898"/></svg>