<!DOCTYPE svg PUBLIC "-//W3C//DTD SVG 1.1//EN" "http://www.w3.org/Graphics/SVG/1.1/DTD/svg11.dtd" [
	<!ENTITY ns_flows "http://ns.adobe.com/Flows/1.0/">
]><svg xmlns="http://www.w3.org/2000/svg" width="16" height="16" viewBox="0 0 16 16" preserveAspectRatio="xMinYMid meet" overflow="visible"><path d="M15.7 5.3c.2.2.3.5.3.8v8.8c0 .3-.1.6-.3.8s-.5.3-.8.3h-4.7c-.3 0-.6-.1-.8-.3-.3-.2-.4-.5-.4-.8V9H7v5.9c0 .3-.1.6-.3.8-.2.2-.5.3-.8.3H1.1c-.3 0-.6-.1-.8-.3s-.3-.5-.3-.8V6.1c0-.3.1-.6.3-.8.2-.2.5-.3.8-.3H2V1h4v4h4V1h4v4h.9c.3 0 .6.1.8.3zM1 1h6V0H1v1zm4.8 13.9c.1-.1.2-.3.2-.4 0-.1-.1-.3-.2-.4-.1-.1-.2-.1-.4-.1H1.6c-.1 0-.3 0-.4.1-.1.1-.2.3-.2.4 0 .1.1.3.2.4.1.1.2.1.4.1h3.9c.1 0 .2 0 .3-.1zm3.1-7c.1-.1.1-.3.1-.4s0-.3-.1-.4C8.8 7 8.6 7 8.5 7h-1c-.1 0-.3 0-.4.1-.1.1-.1.3-.1.4s0 .3.1.4c.1.1.3.1.4.1h1c.1 0 .3 0 .4-.1zM9 1h6V0H9v1zm5.8 13.9c.1-.1.2-.2.2-.4 0-.1-.1-.3-.2-.4-.1-.1-.2-.1-.4-.1h-3.9c-.1 0-.3 0-.4.1-.1.1-.2.2-.2.4 0 .1.1.3.2.4.1.1.2.1.4.1h3.9c.2 0 .3 0 .4-.1z" fill="#888"/></svg>