<!DOCTYPE svg PUBLIC "-//W3C//DTD SVG 1.1//EN" "http://www.w3.org/Graphics/SVG/1.1/DTD/svg11.dtd" [
	<!ENTITY ns_flows "http://ns.adobe.com/Flows/1.0/">
]><svg xmlns="http://www.w3.org/2000/svg" width="16" height="16" viewBox="-1 0 16 16" preserveAspectRatio="xMinYMid meet" overflow="visible"><path d="M1 7H0V1C0 .7.1.5.3.3.5.1.7 0 1 0h2c.3 0 .5.1.7.3.2.2.3.4.3.7v6H3V4H1v3zm0-4h2V1H1v2zm10 5l-5.5 4.7-2.2-2.3L2 11.5 5.5 16 12 9l-1-1zM8.3 3.5c.5 0 .7.3.7 1V6c0 .3-.1.5-.3.7-.2.2-.4.3-.7.3H5V0h3c.3 0 .5.1.7.3.2.2.3.4.3.7v1.5c0 .7-.2 1-.7 1zM8 1H6v2h2V1zm0 3H6v2h2V4zm3-3v5h3v1h-3c-.3 0-.5-.1-.7-.3-.2-.2-.3-.4-.3-.7V1c0-.3.1-.5.3-.7.2-.2.4-.3.7-.3h3v1h-3z" fill="#888"/></svg>