<?xml version="1.0" encoding="utf-8"?>
<!-- Generator: Adobe Illustrator 15.1.0, SVG Export Plug-In  -->
<!DOCTYPE svg PUBLIC "-//W3C//DTD SVG 1.1//EN" "http://www.w3.org/Graphics/SVG/1.1/DTD/svg11.dtd" [
	<!ENTITY ns_flows "http://ns.adobe.com/Flows/1.0/">
]>
<svg version="1.1"
	 xmlns="http://www.w3.org/2000/svg" xmlns:xlink="http://www.w3.org/1999/xlink" xmlns:a="http://ns.adobe.com/AdobeSVGViewerExtensions/3.0/"
	 x="0px" y="0px" width="16px" height="16px" viewBox="0 -1 16 16" style="overflow:visible;enable-background:new 0 -1 16 16;"
	 xml:space="preserve" preserveAspectRatio="xMinYMid meet">
<defs>
</defs>
<path style="fill:#999999;" d="M0,7h16v1H0V7z M11.4,7.1c1,0.8,1.6,1.7,1.6,2.9c0,1.2-0.5,2.1-1.6,2.9C10.5,13.6,9.3,14,8,14
	c-1.3,0-2.5-0.4-3.4-1.1C3.5,12.1,3,11.2,3,10h2c0,0.5,0.3,1,0.9,1.4S7.2,12,8,12s1.5-0.2,2.1-0.6S11,10.5,11,10
	c0-0.5-0.3-1-0.9-1.4C9.5,8.2,8.8,8,8,8C6.7,8,5.5,7.6,4.6,6.9C3.5,6.1,3,5.2,3,4c0-1.2,0.5-2.1,1.6-2.9C5.5,0.4,6.7,0,8,0
	c1.3,0,2.5,0.4,3.4,1.1C12.5,1.9,13,2.8,13,4h-2c0-0.5-0.3-1-0.9-1.4C9.5,2.2,8.8,2,8,2S6.5,2.2,5.9,2.6C5.3,3,5,3.5,5,4
	c0,0.5,0.3,1,0.9,1.4C6.5,5.8,7.2,6,8,6C9.3,6,10.5,6.4,11.4,7.1z"/>
</svg>
