<!DOCTYPE svg PUBLIC "-//W3C//DTD SVG 1.1//EN" "http://www.w3.org/Graphics/SVG/1.1/DTD/svg11.dtd" [
	<!ENTITY ns_flows "http://ns.adobe.com/Flows/1.0/">
]><svg xmlns="http://www.w3.org/2000/svg" width="16" height="16" viewBox="0 0 16 16" preserveAspectRatio="xMinYMid meet" overflow="visible"><path d="M5 9.2v.3h3.7l.3-.3c-.3-.1-.5-.1-.6-.2-.1-.1-.2-.5-.3-1L6.7 0h-.3L1.2 8.2c-.2.4-.4.6-.6.8-.1.1-.3.1-.6.2v.3h2.7v-.3c-.3 0-.6-.1-.7-.1s-.2-.2-.2-.4c0-.1 0-.2.1-.3s.1-.2.2-.3l.8-1.4h3c.1.5.1.9.1 1 .1.4.1.6.1.8 0 .2-.1.4-.2.5s-.5.2-.9.2zM3.2 6.1l2.1-3.4.5 3.4H3.2zm3.6 7.6c.3-.1.5-.2.6-.3.2-.1.4-.4.6-.7l5.2-8.2h.4l1.3 8c.1.5.2.9.3 1s.4.2.8.2v.3h-4.2v-.3c.4 0 .7-.1.9-.2s.2-.3.2-.6c0-.1 0-.4-.1-.8 0-.1-.1-.4-.1-1h-3l-.8 1.4c-.1.1-.1.2-.1.3s-.2.2-.2.4.1.3.2.4.4.1.7.1v.3H6.8v-.3zm5.7-3.2L12 7.1l-2 3.4h2.5zM16 16H5v-1h11v1z" fill="#999"/></svg>