<!DOCTYPE svg PUBLIC "-//W3C//DTD SVG 1.1//EN" "http://www.w3.org/Graphics/SVG/1.1/DTD/svg11.dtd" [
	<!ENTITY ns_flows "http://ns.adobe.com/Flows/1.0/">
]><svg xmlns="http://www.w3.org/2000/svg" width="16" height="16" viewBox="0 -0.9 16 16" preserveAspectRatio="xMinYMid meet" overflow="visible"><path d="M10.7 7.9c1.4-1.5 2.4-2.6 2.9-3.3s.8-1.4.8-2c0-.6-.2-1-.5-1.3-.3-.3-.7-.5-1.1-.5-.5 0-1 .2-1.3.6-.2.2-.4.5-.5 1l-.3-.1c.2-.9.5-1.5 1-1.9.5-.3 1-.5 1.5-.5.7 0 1.2.2 1.6.6s.6.9.6 1.5-.2 1.3-.7 1.9c-.4.6-1.4 1.6-2.9 3.2h2.7c.4 0 .6 0 .8-.1.2-.1.3-.3.5-.7l.2.1-.7 1.6h-4.7v-.1zM0 14.8c.4 0 .8-.2 1-.3.2-.2.7-.7 1.3-1.5l2.5-3.1L3 7.3c-.7-1.1-1.3-1.8-1.6-2-.3-.3-.7-.5-1.2-.5v-.3H5v.3c-.5 0-.8 0-.9.1-.2.1-.3.2-.3.4 0 .1.1.3.2.5 0 .2 0 .3.1.4l1.7 2.4 1.8-2.2c.2-.3.4-.5.5-.7.1-.1.1-.2.1-.3 0-.2-.1-.4-.3-.5-.1 0-.4-.1-.8-.1v-.3h3.8v.3c-.4 0-.8.1-1 .2-.4.2-.8.7-1.4 1.3L6.2 9.2l3 4.4c.3.5.6.8.8.9s.5.2.9.3v.3H6.3v-.3c.5 0 .8 0 .9-.1s.3-.2.3-.4-.1-.4-.4-.8c-.2-.4-.9-1.4-2-2.9L3.2 13c-.3.3-.5.6-.6.8-.2.3-.3.4-.3.6 0 .2.1.4.4.5.2.1.4.1.8.1v.3H0v-.5z" fill="#888"/></svg>