<!DOCTYPE svg PUBLIC "-//W3C//DTD SVG 1.1//EN" "http://www.w3.org/Graphics/SVG/1.1/DTD/svg11.dtd" [
	<!ENTITY ns_flows "http://ns.adobe.com/Flows/1.0/">
]><svg xmlns="http://www.w3.org/2000/svg" width="16" height="16" viewBox="0 -0.1 16 16" preserveAspectRatio="xMinYMid meet" overflow="visible"><path d="M15 4.4v1.5h-1.5l-1 1H15v3h-4V8.4l-1 1v.5h-.5l-1 1H10v3H6v-3H5v3H1v-3h4v-1H1v-3h4v.5l1.5-1.5H6v-3h3.5l2-2H0v14h16V3.4l-1 1zM1 2.9h4v3H1v-3zm14 11h-4v-3h4v3zM12.4 1.4L13.5.3c.4-.4 1-.4 1.4 0l.7.7c.4.4.4 1 0 1.4l-1.1 1.1-2.1-2.1zm-.8.8L6 7.8v2.1h2.1l5.6-5.6-2.1-2.1z" fill="#999"/></svg>