<!DOCTYPE svg PUBLIC "-//W3C//DTD SVG 1.1//EN" "http://www.w3.org/Graphics/SVG/1.1/DTD/svg11.dtd" [
	<!ENTITY ns_flows "http://ns.adobe.com/Flows/1.0/">
]><svg xmlns="http://www.w3.org/2000/svg" width="16" height="16" viewBox="-2 -1.6 16 16" preserveAspectRatio="xMinYMid meet" overflow="visible"><path d="M0 12c.4 0 .8-.2 1-.6.2-.2.4-.7.7-1.5l4-9.9h.5l4 9.5c.5 1.1.8 1.7 1 2.1s.5.5.9.4v.5H6.4V12c.6 0 1-.1 1.2-.1s.3-.3.3-.6c0-.1 0-.4-.1-.6-.1-.2-.1-.4-.2-.6L7 8.9H3c-.3.7-.4 1.2-.5 1.4-.2.5-.2.8-.2 1 0 .3.2.4.5.6.2 0 .5 0 .9.1v.5H0V12zm6.8-3.8L5 4h-.1L3.2 8.2h3.6z" fill="#999"/></svg>