<!DOCTYPE svg PUBLIC "-//W3C//DTD SVG 1.1//EN" "http://www.w3.org/Graphics/SVG/1.1/DTD/svg11.dtd" [
	<!ENTITY ns_flows "http://ns.adobe.com/Flows/1.0/">
]><svg xmlns="http://www.w3.org/2000/svg" width="16" height="16" viewBox="0 0 16 16" preserveAspectRatio="xMinYMid meet" overflow="visible"><path fill="#FFF" d="M0 0v16h8.5L16 8.5V0"/><path d="M3.6 11.9c0-.2.1-.5.2-1 .1-.2.2-.7.5-1.4h4l.5 1.1c.1.2.2.4.2.6.1.3.1.5.1.6 0 .3-.1.5-.3.6s-.6.1-1.2.1v.5h2.8l1.7-1.7c-.1-.3-.3-.7-.5-1.3L7.6.5h-.5l-4 9.9c-.3.8-.6 1.3-.7 1.5-.3.4-.6.6-1 .6v.5H5v-.5c-.4 0-.7 0-.9-.1-.4-.1-.5-.3-.5-.5zm2.6-7.3h.2l1.7 4.2H4.6l1.6-4.2z" fill="#888"/></svg>