<!DOCTYPE svg PUBLIC "-//W3C//DTD SVG 1.1//EN" "http://www.w3.org/Graphics/SVG/1.1/DTD/svg11.dtd" [
	<!ENTITY ns_flows "http://ns.adobe.com/Flows/1.0/">
]><svg xmlns="http://www.w3.org/2000/svg" width="16" height="16" viewBox="0 -2.5 16 16" preserveAspectRatio="xMinYMid meet" overflow="visible"><path d="M3.5 4c1 0 1.8.3 2.5 1s1 1.5 1 2.5-.3 1.8-1 2.5-1.5 1-2.5 1-1.8-.3-2.5-1-1-1.5-1-2.5V7c0-1.9.7-3.6 2-5C3.4.6 5 0 7 0v2c-1.4 0-2.6.5-3.5 1.5-.2.2-.4.3-.5.5h.5zm9 0c1 0 1.8.3 2.5 1s1 1.5 1 2.5-.3 1.8-1 2.5-1.5 1-2.5 1-1.8-.3-2.5-1-1-1.5-1-2.5V7c0-1.9.7-3.6 2-5 1.4-1.4 3-2 5-2v2c-1.4 0-2.6.5-3.5 1.5-.2.2-.4.3-.5.5h.5z" fill="#888"/></svg>