<!DOCTYPE svg PUBLIC "-//W3C//DTD SVG 1.1//EN" "http://www.w3.org/Graphics/SVG/1.1/DTD/svg11.dtd" [
	<!ENTITY ns_flows "http://ns.adobe.com/Flows/1.0/">
]><svg xmlns="http://www.w3.org/2000/svg" width="16" height="16" viewBox="-1.2 0 16 16" preserveAspectRatio="xMinYMid meet" overflow="visible"><path d="M10.9 16c.4-.7.7-1.4.9-2.1.2-.7.3-1.4.2-2.2-.1-.7-.3-1.4-.7-1.9-.4-.6-1-1-1.9-1.3C8.4 8.2 7.3 8 6 8v4L0 6l6-6v3.9c1.4 0 2.5.2 3.6.5 1 .4 1.8.9 2.4 1.5.6.6 1 1.4 1.3 2.2.3.8.3 1.7.2 2.6-.1.9-.4 1.8-.8 2.7-.5 1-1.1 1.8-1.8 2.6z" fill="#999"/></svg>