<!DOCTYPE svg PUBLIC "-//W3C//DTD SVG 1.1//EN" "http://www.w3.org/Graphics/SVG/1.1/DTD/svg11.dtd" [
	<!ENTITY ns_flows "http://ns.adobe.com/Flows/1.0/">
]><svg xmlns="http://www.w3.org/2000/svg" width="16" height="16" viewBox="0 0 16 16" preserveAspectRatio="xMinYMid meet" overflow="visible"><path d="M15 11v4h-4v-1h3v-3h1zm-5 4v-1H8v-3H7v3H5v1h5zm-6-1H1v-3H0v4h4v-1zm11-4V5h-1v2h-3v1h3v2h1zM7 8v2h1V8h2V7H8V5H7v2H5v1h2zM1 8h3V7H1V5H0v5h1V8zm13-7v3h1V0h-4v1h3zM7 1v3h1V1h2V0H5v1h2zM1 1h3V0H0v4h1V1z" fill="#999"/></svg>