<?xml version="1.0" encoding="utf-8"?>
<svg xmlns="http://www.w3.org/2000/svg" height="48" width="48" viewBox="0 0 48 48">
  <g>
    <ellipse cy="24" cx="24" ry="24" rx="24" fill="#15B715" />
    <path id="path1" transform="rotate(0,24,24) translate(9,10.4563647232302) scale(0.937502514577696,0.937502514577696)  " fill="#ECECEC" d="M30.574984,14.206012L31.999914,15.598011 19.311893,28.893012 12.976915,23.821014 14.203846,22.250029 19.133914,26.196017z M1.9970007,3.9820013L1.9970007,7.9900098 24.040011,7.9900098 24.040011,3.9820013 19.999988,3.9820013 19.999988,6 17.999988,6 17.999988,3.9820013 7.9999876,3.9820013 7.9999876,6 5.9999876,6 5.9999876,3.9820013z M5.9999876,0L7.9999876,0 7.9999876,1.9789991 17.999988,1.9789991 17.999988,0 19.999988,0 19.999988,1.9789991 26.037012,1.9789991 26.037012,16.207012 24.040011,18.275014 24.040011,9.9930191 1.9970007,9.9930191 1.9970007,24.01602 10.084005,24.01602 12.579006,26.019021 0,26.019021 0,1.9789991 5.9999876,1.9789991z" />
  </g>
</svg>

