<svg id="Layer_1" data-name="Layer 1" xmlns="http://www.w3.org/2000/svg" width="48" height="48" viewBox="0 0 48 48"><defs><style>.cls-1{fill:#06c;}.cls-2{fill:#fff;}</style></defs><title>48px_sourcefile_20170718_multi</title><circle class="cls-1" cx="24" cy="24" r="24"/><path id="path1" class="cls-2" d="M25.82,19a.93.93,0,0,1,.64.26.92.92,0,0,1,0,1.29l-7.16,7.16-3.43-3.43A.91.91,0,1,1,17.16,23l2.14,2.14,5.87-5.87A1,1,0,0,1,25.82,19Zm4.48-5V33a2.75,2.75,0,0,1-2.78,2.74H24.41l4.28,1.76a.89.89,0,0,0,.69,0,.93.93,0,0,0,.51-.53L37.5,18A1,1,0,0,0,37,16.73ZM14.76,12a.94.94,0,0,0-1,.92V33a.94.94,0,0,0,1,.92H27.52a.94.94,0,0,0,1-.92V12.86a.94.94,0,0,0-1-.92H14.76Zm0-1.84H27.52a2.77,2.77,0,0,1,2.55,1.67l0,.11L37.69,15a2.8,2.8,0,0,1,1.52,3.62l-7.63,19a2.71,2.71,0,0,1-1.5,1.52,2.6,2.6,0,0,1-1.07.22A2.91,2.91,0,0,1,28,39.17l-8.38-3.45H14.76A2.76,2.76,0,0,1,12,33V12.86A2.76,2.76,0,0,1,14.76,10.13Z"/></svg>