<?xml version="1.0" encoding="UTF-8" standalone="no"?>
<svg
   xmlns:dc="http://purl.org/dc/elements/1.1/"
   xmlns:cc="http://creativecommons.org/ns#"
   xmlns:rdf="http://www.w3.org/1999/02/22-rdf-syntax-ns#"
   xmlns:svg="http://www.w3.org/2000/svg"
   xmlns="http://www.w3.org/2000/svg"
   xmlns:xlink="http://www.w3.org/1999/xlink"
   id="svg969"
   version="1.1"
   overflow="visible"
   preserveAspectRatio="xMinYMid meet"
   viewBox="-0.1 -2 24 24"
   height="24"
   width="24">
  <metadata
     id="metadata975">
    <rdf:RDF>
      <cc:Work
         rdf:about="">
        <dc:format>image/svg+xml</dc:format>
        <dc:type
           rdf:resource="http://purl.org/dc/dcmitype/StillImage" />
        <dc:title></dc:title>
      </cc:Work>
    </rdf:RDF>
  </metadata>
  <defs
     id="defs973">
    <linearGradient
       gradientTransform="translate(-0.2)"
       y2="8.8710003"
       x2="11.5"
       y1="2"
       x1="11.5"
       gradientUnits="userSpaceOnUse"
       id="i">
      <stop
         id="stop1538"
         stop-color="#D0813A"
         offset="0" />
      <stop
         id="stop1540"
         stop-color="#AF551D"
         offset="1" />
    </linearGradient>
    <linearGradient
       gradientTransform="translate(-0.2)"
       y2="10.935"
       x2="11.499"
       y1="1"
       x1="11.499"
       gradientUnits="userSpaceOnUse"
       id="h">
      <stop
         id="stop1531"
         stop-color="#D58738"
         offset="0" />
      <stop
         id="stop1533"
         stop-color="#AB551F"
         offset="1" />
    </linearGradient>
    <linearGradient
       gradientTransform="translate(-0.2)"
       y2="13.001"
       x2="11.499"
       x1="11.499"
       gradientUnits="userSpaceOnUse"
       id="g">
      <stop
         id="stop1524"
         stop-color="#8D470D"
         offset="0" />
      <stop
         id="stop1526"
         stop-color="#7C3D09"
         offset="1" />
    </linearGradient>
    <linearGradient
       gradientTransform="translate(-0.2)"
       y2="5"
       x2="11.999"
       y1="2"
       x1="11.999"
       gradientUnits="userSpaceOnUse"
       id="f-0">
      <stop
         id="stop1517"
         stop-color="#FFC30F"
         offset="0" />
      <stop
         id="stop1519"
         stop-color="#F5AE0D"
         offset="1" />
    </linearGradient>
    <linearGradient
       gradientTransform="translate(-0.2)"
       y2="6"
       x2="11.999"
       y1="1"
       x1="11.999"
       gradientUnits="userSpaceOnUse"
       id="e-9">
      <stop
         id="stop1510"
         stop-color="#FFEBA8"
         offset="0" />
      <stop
         id="stop1512"
         stop-color="#F8BE27"
         offset="1" />
    </linearGradient>
    <linearGradient
       gradientTransform="translate(-0.2)"
       y2="7"
       x2="11.999"
       x1="11.999"
       gradientUnits="userSpaceOnUse"
       id="d-3">
      <stop
         id="stop1503"
         stop-color="#F0A829"
         offset="0" />
      <stop
         id="stop1505"
         stop-color="#C7671A"
         offset="1" />
    </linearGradient>
    <linearGradient
       gradientTransform="translate(-0.2)"
       y2="18"
       x2="11.999"
       y1="2"
       x1="11.999"
       gradientUnits="userSpaceOnUse"
       id="c-6">
      <stop
         id="stop1496"
         stop-color="#FFC30F"
         offset="0" />
      <stop
         id="stop1498"
         stop-color="#F5AE0D"
         offset="1" />
    </linearGradient>
    <linearGradient
       gradientTransform="translate(-0.2)"
       y2="19"
       x2="11.999"
       y1="1"
       x1="11.999"
       gradientUnits="userSpaceOnUse"
       id="b-0">
      <stop
         id="stop1489"
         stop-color="#FFEBA8"
         offset="0" />
      <stop
         id="stop1491"
         stop-color="#F8BE27"
         offset="1" />
    </linearGradient>
    <linearGradient
       gradientTransform="translate(-0.2)"
       y2="20"
       x2="11.999"
       x1="11.999"
       gradientUnits="userSpaceOnUse"
       id="a-6">
      <stop
         id="stop1482"
         stop-color="#F0A829"
         offset="0" />
      <stop
         id="stop1484"
         stop-color="#C7671A"
         offset="1" />
    </linearGradient>
    <linearGradient
       y2="18"
       x2="11.966"
       y1="6.9569998"
       x1="11.966"
       gradientUnits="userSpaceOnUse"
       id="f-9"
       gradientTransform="translate(-2.1,-7)">
      <stop
         id="stop960-2"
         stop-color="#95BFF8"
         offset="0" />
      <stop
         id="stop962-0"
         stop-color="#84ADEF"
         offset=".557" />
      <stop
         id="stop964-2"
         stop-color="#7CA4EB"
         offset="1" />
    </linearGradient>
    <linearGradient
       y2="18"
       x2="11.966"
       y1="6.957"
       x1="11.966"
       gradientUnits="userSpaceOnUse"
       id="linearGradient2278"
       xlink:href="#f" />
    <linearGradient
       y2="18"
       x2="11.966"
       y1="6.957"
       x1="11.966"
       gradientUnits="userSpaceOnUse"
       id="linearGradient2280"
       xlink:href="#f" />
    <linearGradient
       y2="19"
       x2="11.967"
       y1="5.954"
       x1="11.967"
       gradientUnits="userSpaceOnUse"
       id="e-2"
       gradientTransform="translate(-1,-6)">
      <stop
         id="stop953-2"
         stop-color="#BBE0F7"
         offset="0" />
      <stop
         id="stop955-8"
         stop-color="#82B4FB"
         offset="1" />
    </linearGradient>
    <linearGradient
       y2="19"
       x2="11.967"
       y1="5.954"
       x1="11.967"
       gradientUnits="userSpaceOnUse"
       id="linearGradient2321"
       xlink:href="#e" />
    <linearGradient
       y2="19"
       x2="11.967"
       y1="5.954"
       x1="11.967"
       gradientUnits="userSpaceOnUse"
       id="linearGradient2323"
       xlink:href="#e" />
    <linearGradient
       y2="20"
       x2="11.935"
       x1="11.935"
       gradientUnits="userSpaceOnUse"
       id="a-7"
       gradientTransform="translate(-1.9)">
      <stop
         id="stop923-3"
         stop-color="#76A1F0"
         offset="0" />
      <stop
         id="stop925-6"
         stop-color="#6B90D5"
         offset="1" />
    </linearGradient>
    <linearGradient
       y2="20"
       x2="11.935"
       x1="11.935"
       gradientUnits="userSpaceOnUse"
       id="linearGradient2348"
       xlink:href="#a" />
    <linearGradient
       y2="20"
       x2="11.935"
       x1="11.935"
       gradientUnits="userSpaceOnUse"
       id="linearGradient2350"
       xlink:href="#a" />
  </defs>
  <linearGradient
     y2="20"
     x2="11.935"
     x1="11.935"
     gradientUnits="userSpaceOnUse"
     id="a">
    <stop
       id="stop923"
       stop-color="#76A1F0"
       offset="0" />
    <stop
       id="stop925"
       stop-color="#6B90D5"
       offset="1" />
  </linearGradient>
  <path
     id="path1487"
     d="m 0.8,-5e-7 h 22 V 20 h -22 z"
     style="opacity:1;vector-effect:none;fill:url(#linearGradient2348);fill-opacity:1;stroke-width:1;stroke-linecap:butt;stroke-linejoin:miter;stroke-miterlimit:4;stroke-dasharray:none;stroke-dashoffset:0;stroke-opacity:1" />
  <path
     id="path1494"
     d="m 1.8,0.9999995 h 20 V 19 h -20 z"
     style="opacity:1;vector-effect:none;fill:url(#linearGradient2323);fill-opacity:1;stroke-width:1;stroke-linecap:butt;stroke-linejoin:miter;stroke-miterlimit:4;stroke-dasharray:none;stroke-dashoffset:0;stroke-opacity:1" />
  <path
     id="path1501"
     d="m 2.8,1.9999995 h 18 V 18 h -18 z"
     style="opacity:1;vector-effect:none;fill:url(#linearGradient2278);fill-opacity:1;stroke-width:1;stroke-linecap:butt;stroke-linejoin:miter;stroke-miterlimit:4;stroke-dasharray:none;stroke-dashoffset:0;stroke-opacity:1" />
  <path
     id="path1508"
     d="m -0.2,-5e-7 h 24 v 7 h -24 z"
     style="opacity:1;vector-effect:none;fill:url(#linearGradient2350);fill-opacity:1;stroke-width:1;stroke-linecap:butt;stroke-linejoin:miter;stroke-miterlimit:4;stroke-dasharray:none;stroke-dashoffset:0;stroke-opacity:1" />
  <path
     id="path1515"
     d="m 0.8,0.9999995 h 22 v 5 h -22 z"
     style="opacity:1;vector-effect:none;fill:url(#linearGradient2321);fill-opacity:1;stroke-width:1;stroke-linecap:butt;stroke-linejoin:miter;stroke-miterlimit:4;stroke-dasharray:none;stroke-dashoffset:0;stroke-opacity:1" />
  <path
     id="path1522"
     d="m 1.8,1.9999995 h 20 v 3 h -20 z"
     style="opacity:1;vector-effect:none;fill:url(#linearGradient2280);fill-opacity:1;stroke-width:1;stroke-linecap:butt;stroke-linejoin:miter;stroke-miterlimit:4;stroke-dasharray:none;stroke-dashoffset:0;stroke-opacity:1" />
  <linearGradient
     y2="19"
     x2="11.935"
     y1=".989"
     x1="11.935"
     gradientUnits="userSpaceOnUse"
     id="b">
    <stop
       id="stop930"
       stop-color="#BBE0F7"
       offset="0" />
    <stop
       id="stop932"
       stop-color="#82B4FB"
       offset="1" />
  </linearGradient>
  <linearGradient
     y2="18"
     x2="11.935"
     y1="1.992"
     x1="11.935"
     gradientUnits="userSpaceOnUse"
     id="c">
    <stop
       id="stop937"
       stop-color="#95BFF8"
       offset="0" />
    <stop
       id="stop939"
       stop-color="#84ADEF"
       offset=".557" />
    <stop
       id="stop941"
       stop-color="#7CA4EB"
       offset="1" />
  </linearGradient>
  <linearGradient
     y2="20"
     x2="11.936"
     y1="5"
     x1="11.936"
     gradientUnits="userSpaceOnUse"
     id="d">
    <stop
       id="stop946"
       stop-color="#76A1F0"
       offset="0" />
    <stop
       id="stop948"
       stop-color="#6B90D5"
       offset="1" />
  </linearGradient>
  <linearGradient
     y2="19"
     x2="11.967"
     y1="5.954"
     x1="11.967"
     gradientUnits="userSpaceOnUse"
     id="e">
    <stop
       id="stop953"
       stop-color="#BBE0F7"
       offset="0" />
    <stop
       id="stop955"
       stop-color="#82B4FB"
       offset="1" />
  </linearGradient>
  <linearGradient
     y2="18"
     x2="11.966"
     y1="6.957"
     x1="11.966"
     gradientUnits="userSpaceOnUse"
     id="f">
    <stop
       id="stop960"
       stop-color="#95BFF8"
       offset="0" />
    <stop
       id="stop962"
       stop-color="#84ADEF"
       offset=".557" />
    <stop
       id="stop964"
       stop-color="#7CA4EB"
       offset="1" />
  </linearGradient>
  <style
     id="style2"
     type="text/css">
	.st0{fill:none;}
	.st1{fill:#8DB7E2;}
	.st2{fill:#FFFFFF;}
	.st3{opacity:0.2;}
	.st4{fill:#2574A9;}
	.st5{fill:#2376C1;}
</style>
  <g
     id="g848"
     transform="matrix(0.05279347,0,0,0.05279347,2.6957661,8.5728055)"
     style="fill:#ffffff;fill-opacity:1">
    <path
       id="path844"
       d="M 325.7,14.7 C 317.6,6.9 305.3,3 289,3 H 245.5 234 v 31 h -66 l -5.4,22.2 c 4.5,-2.1 10.9,-4.2 15.3,-5.3 4.4,-1.1 8.8,-0.9 13.1,-0.9 14.6,0 26.5,4.5 35.6,13.3 9.1,8.8 13.6,20 13.6,33.4 0,9.4 -2.3,18.5 -7,27.2 -4.7,8.7 -11.3,15.4 -19.9,20 -3.1,1.6 -6.5,3.1 -10.2,4.1 H 245.5 259 V 95 h 25 c 18.2,0 31.7,-4.2 40.6,-12.5 8.9,-8.3 13.3,-19.9 13.3,-34.6 0,-14.3 -4.1,-25.4 -12.2,-33.2 z m -37,45.9 c -3.5,3 -9.6,4.4 -18.3,4.4 H 259 V 33 h 13.2 c 8.4,0 14.2,1.5 17.2,4.7 3.1,3.2 4.6,6.9 4.6,11.5 0,4.7 -1.8,8.4 -5.3,11.4 z"
       style="fill:#ffffff;fill-opacity:1" />
    <path
       id="path846"
       d="m 176.5,76.3 c -7.9,0 -14.7,4.6 -18,11.2 L 119,81.9 136.8,3 H 113.2 101 V 65 H 51 V 3 H 7 V 148 H 51 V 95 h 50 v 53 h 12.2 42 c -6.7,-2 -12.5,-4.6 -17.2,-8.1 -4.8,-3.6 -8.7,-7.7 -11.7,-12.3 -3,-4.6 -5.3,-9.7 -7.3,-16.5 l 39.6,-5.7 c 3.3,6.6 10.1,11.1 17.9,11.1 11.1,0 20.1,-9 20.1,-20.1 0,-11.1 -9.1,-20.1 -20.1,-20.1 z"
       style="fill:#ffffff;fill-opacity:1" />
  </g>
</svg>
