<svg width="24" height="24" viewBox="0 0 24 24" fill="none" xmlns="http://www.w3.org/2000/svg" preserveAspectRatio="xMinYMid meet">
<path fill-rule="evenodd" clip-rule="evenodd" d="M6 5C3.79086 5 2 6.79086 2 9V15C2 17.2091 3.79086 19 6 19H18C20.2091 19 22 17.2091 22 15V9C22 6.79086 20.2091 5 18 5H6ZM17.1971 9.01325C18.0317 9.03729 18.6613 9.44287 18.8567 10.079C19.1068 10.892 19.0738 11.676 18.3909 12.3054C17.9409 12.719 17.3532 12.7837 16.7655 12.8034C16.5408 12.8096 16.482 12.8085 16.382 12.8065C16.3134 12.8052 16.2254 12.8034 16.0511 12.8034V14.9854H13.3822C13.9965 14.7635 14.4046 14.3493 14.6515 13.7588C14.8984 13.1683 14.9231 12.5809 14.6394 11.9972C14.2434 11.1805 13.1575 10.6239 11.5664 11.162C11.5861 11.0808 11.6044 11.0015 11.6223 10.9237L11.6223 10.9237L11.6223 10.9236L11.6223 10.9235C11.6707 10.7132 11.7165 10.5142 11.7809 10.3212C11.7987 10.2694 11.9529 10.2362 12.0449 10.2362C12.6016 10.2304 13.1571 10.231 13.7126 10.2315H13.7126H13.7126L13.7141 10.2315C13.877 10.2317 14.0399 10.2318 14.2028 10.2318H14.5468V9.04653C14.5931 9.02705 14.6417 9.01318 14.6915 9.00523C14.9303 9.00523 15.1691 9.00392 15.4078 9.00262H15.4079H15.4079C16.0046 8.99935 16.601 8.99608 17.1971 9.01325ZM11.5402 12.2672C11.8175 12.0219 12.1856 11.9504 12.5093 12.0989C12.6697 12.1705 12.8029 12.2891 12.8902 12.438C12.9775 12.587 13.0146 12.7588 12.9961 12.9292C12.9846 13.0998 12.9177 13.2625 12.8049 13.3938C12.6921 13.5251 12.5392 13.6182 12.3684 13.6596C12.0288 13.7484 11.749 13.6424 11.5027 13.4081C11.4291 13.3385 11.3117 13.2571 11.2241 13.2664C10.8573 13.3056 10.4919 13.3593 10.1263 13.4131C10.0036 13.4311 9.88086 13.4492 9.75804 13.4667C9.87037 14.0967 10.1712 14.432 11.1486 15.0003H8.75881V12.8269H6.9008V14.9898H5V9.01883H6.88557V11.5423H8.74485V9.02377H10.4701L9.72757 12.2536C9.85941 12.2718 9.98968 12.2905 10.1189 12.3091L10.1189 12.3091L10.1189 12.3091C10.4903 12.3626 10.8527 12.4147 11.2171 12.4472C11.3193 12.4564 11.4488 12.3486 11.5402 12.2672ZM16.0669 11.7373V10.0039L16.0806 10.0039C16.606 10.0038 17.3739 10.0037 17.3739 10.8555C17.3739 11.5428 16.8975 11.7373 16.0669 11.7373Z" fill="#3D73B8"/>
</svg>
