<?xml version="1.0" encoding="utf-8"?>
<!-- Generator: Adobe Illustrator 25.2.1, SVG Export Plug-In . SVG Version: 6.00 Build 0)  -->
<svg width="24px" height="24px" version="1.1" id="Layer_1" xmlns="http://www.w3.org/2000/svg" xmlns:xlink="http://www.w3.org/1999/xlink" x="0px" y="0px"
	 viewBox="0 0 74.4 74.4" style="enable-background:new 0 0 74.4 74.4;" xml:space="preserve" preserveAspectRatio="xMinYMid meet">
<g>
	<path d="M40.9,38.3c-1.9-1.5-4.7-1.2-6.2,0.7l0,0L34,39.8l-4.3-0.6c-2.4-0.3-4.3-0.7-4.4-0.7c0-0.6,0.1-1.2,0.3-1.8
		c0.3-1.6,3.3-14.7,3.5-15.4l0.1-0.3h-8v13.9H10.2V21h-10v32.3h10V41.3H21v11.9H27c3.2,0,5.9,0,5.8-0.1c-0.3-0.2-0.8-0.3-1.1-0.5
		c-2.1-0.8-3.9-2.4-5.1-4.3c-0.7-1.1-1.5-3.2-1.4-3.4c0.2-0.2,2-0.3,4.4-0.7l4.3-0.6l0.8,0.8c1.5,1.9,4.3,2.1,6.2,0.6
		c1.9-1.5,2.1-4.3,0.6-6.2C41.3,38.8,41.1,38.5,40.9,38.3z"/>
	<path d="M74.2,30.8c0.1-1.2-0.1-2.5-0.4-3.6c-1-3.1-3-4.9-6.4-5.8c-1.2-0.3-1.8-0.3-8.8-0.4L51,21v6.7H36.4l-0.5,2.2
		c-0.3,1.2-0.5,2.3-0.6,2.5c0,0.1,0,0.2,0.2,0.1c0.2-0.1,0.8-0.3,1.7-0.5c1.4-0.4,1.6-0.4,4.2-0.4c2.5,0,2.9,0.1,4.1,0.4
		c1.7,0.5,3.2,1.5,4.4,2.8c1.9,1.9,2.9,4.4,2.7,7.1c0,5-3,9.7-6.9,11c-0.3,0.1-0.7,0.3-0.9,0.4c1.9,0.2,3.8,0.2,5.7,0.2h5.8V41.5H59
		c2.7,0.1,5.4-0.1,8-0.6c3.4-0.8,6-3.4,6.9-6.7C74.2,33,74.3,31.9,74.2,30.8z M64.4,32.2c-0.4,1.1-1.3,1.9-2.5,2.3
		c-1.1,0.3-2.2,0.3-3.4,0.3l-2.5,0.1v-7.5l2.6,0.1c1.1,0,2.1,0.1,3.2,0.3C63.8,28.3,64.9,30.3,64.4,32.2L64.4,32.2z"/>
</g>
</svg>
