<!DOCTYPE svg PUBLIC "-//W3C//DTD SVG 1.1//EN" "http://www.w3.org/Graphics/SVG/1.1/DTD/svg11.dtd" [
	<!ENTITY ns_flows "http://ns.adobe.com/Flows/1.0/">
]><svg xmlns="http://www.w3.org/2000/svg" width="24" height="24" viewBox="-0.1 -2 24 24" preserveAspectRatio="xMinYMid meet" overflow="visible"><linearGradient id="a" gradientUnits="userSpaceOnUse" x1="11.935" x2="11.935" y2="20"><stop offset="0" stop-color="#76A1F0"/><stop offset="1" stop-color="#6B90D5"/></linearGradient><path d="M21.9 19c0 .5-.5 1-1 1h-18c-.5 0-1-.5-1-1V1.1c0-.5.5-1.1 1-1.1h4c.5 0 1.4.3 1.8.6l.9.7c.5.4 1.3.7 1.8.7h9.5c.5 0 1 .5 1 1v16z" fill="url(#a)"/><linearGradient id="b" gradientUnits="userSpaceOnUse" x1="11.935" y1=".989" x2="11.935" y2="19"><stop offset="0" stop-color="#BBE0F7"/><stop offset="1" stop-color="#82B4FB"/></linearGradient><path d="M2.9 19V1.1L3 1h3.9c.3 0 .9.2 1.2.4l.9.8c.7.4 1.7.8 2.4.8h9.5v16h-18z" fill="url(#b)"/><linearGradient id="c" gradientUnits="userSpaceOnUse" x1="11.935" y1="1.992" x2="11.935" y2="18"><stop offset="0" stop-color="#95BFF8"/><stop offset=".557" stop-color="#84ADEF"/><stop offset="1" stop-color="#7CA4EB"/></linearGradient><path d="M3.9 18V2h3c.1 0 .5.1.6.2l.9.8c.8.6 2.1 1 3 1h8.5v14h-16z" fill="url(#c)"/><linearGradient id="d" gradientUnits="userSpaceOnUse" x1="11.936" y1="5" x2="11.936" y2="20"><stop offset="0" stop-color="#76A1F0"/><stop offset="1" stop-color="#6B90D5"/></linearGradient><path d="M23 19c0 .5-.5 1-1.1 1h-20c-.5 0-1-.5-1.1-1L0 6c0-.5.4-1 .9-1h22c.5 0 1 .5.9 1L23 19z" fill="url(#d)"/><linearGradient id="e" gradientUnits="userSpaceOnUse" x1="11.967" y1="5.954" x2="11.967" y2="19"><stop offset="0" stop-color="#BBE0F7"/><stop offset="1" stop-color="#82B4FB"/></linearGradient><path d="M1.9 19l-.1-.1L1 6h21.9L22 18.9s0 .1-.1.1h-20z" fill="url(#e)"/><linearGradient id="f" gradientUnits="userSpaceOnUse" x1="11.966" y1="6.957" x2="11.966" y2="18"><stop offset="0" stop-color="#95BFF8"/><stop offset=".557" stop-color="#84ADEF"/><stop offset="1" stop-color="#7CA4EB"/></linearGradient><path fill="url(#f)" d="M2.8 18L2.1 7h19.8l-.8 11"/></svg>