<?xml version="1.0" encoding="utf-8"?>
<!-- Generator: Adobe Illustrator 25.2.1, SVG Export Plug-In . SVG Version: 6.00 Build 0)  -->
<svg width="24px" height="24px" version="1.1" id="Layer_1" xmlns="http://www.w3.org/2000/svg" xmlns:xlink="http://www.w3.org/1999/xlink" x="0px" y="0px"
	 viewBox="0 0 74.4 74.4" style="enable-background:new 0 0 74.4 74.4;" xml:space="preserve" preserveAspectRatio="xMinYMid meet">
<path d="M74.3,21c0-2.2-1.4-3.9-3.2-3.9H38l-7.4-11C30,5.4,29.1,5,28.3,5H3.4C1.6,5,0.1,6.8,0.1,9.1V65c0,2.2,1.5,3.9,3.3,4.1h67.7
	c1.5,0,2.9-1.3,3.2-3.1c0-44.1,0.1-18.7,0.1-39.8L74.3,21L74.3,21z M69.1,22.6v41.2L5.2,63.6V10.2l22.3,0.3l7.7,11.4
	c0.4,0.5,1,0.8,1.5,0.8H69.1z"/>
</svg>
