<svg id="Layer_1" data-name="Layer 1" xmlns="http://www.w3.org/2000/svg" width="48" height="48" viewBox="0 0 48 48"><defs><style>.cls-1{fill:#9c0;}.cls-2{fill:#fff;}</style></defs><title>48px_sourcefile_20170718_multi</title><circle class="cls-1" cx="24.09" cy="24" r="24"/><path class="cls-2" d="M29.38,14.44A1.52,1.52,0,0,0,27.2,13c-.66.11-.69.69-.9,1.16s.15.39.32.56.09.38.09.58a32.69,32.69,0,0,0,.09,3.32,1.14,1.14,0,0,0,.73,1.07c1.13.53,1.91,0,1.95-1.2S29.45,15.79,29.38,14.44Z"/><path class="cls-2" d="M35.25,32.32a2.28,2.28,0,0,1-.36-1.26c-.07-1.24-.15-2.49-.26-3.73A7.86,7.86,0,0,0,34,24.86c-.17.56-.32,1-.45,1.43-.09.15-.17.32-.26.47-.94,1.65-2.08,3.09-4.11,3.45A7.2,7.2,0,0,1,25.91,30a1.19,1.19,0,0,0-.77-.13c.22.45.43.88.64,1.31h0c-.19.32-.39.3-.56,0s-.36-.66-.53-1a1.36,1.36,0,0,0-1-1c-1.11-.43-2.19-.88-3.26-1.37a8.5,8.5,0,0,1-3.51-2.55c-.34-.45-.56-.41-.81,0-.3.15-.54.49-1,.22,0-.24.13-.36.32-.45a1.08,1.08,0,0,0,.62-.9,5.31,5.31,0,0,0-1.33-4.33.88.88,0,0,0-1.07-.47c-.47.13-.32.58-.34.86a14.25,14.25,0,0,1-.56,4.44,1.9,1.9,0,0,0,.56,1.65c.94,1.22,1.76,2.49,2.64,3.75a6.17,6.17,0,0,0,1.48,1.48,48.35,48.35,0,0,1,7.86,6.49,1.55,1.55,0,0,0,1.91.45h0a12.84,12.84,0,0,0,5.44-2.29,9.43,9.43,0,0,0,2.4-2C36.07,33.17,36,33.54,35.25,32.32Z"/><path class="cls-2" d="M20.53,12.24a5.75,5.75,0,0,1-.66-.52c-1.07-1-1.74-1-2.61.21a2.75,2.75,0,0,0-.77,1.14,1.44,1.44,0,0,0,.19,1.48c.21.21.6-.26.92-.39,0,0,0,0,0-.08-.21-.19-.43-.39-.64-.6s-.21-.28-.06-.43.3-.06.41.08a1.24,1.24,0,0,0,1.11.49l-.17-.08a.67.67,0,0,1,.17.08,2.54,2.54,0,0,0,2-.17A.64.64,0,0,0,20.53,12.24Z"/><path class="cls-2" d="M32.81,16.78A1.11,1.11,0,0,0,31.42,16a2,2,0,0,0-.94.71c-.07.11-.24.26-.11.36.51.39.15.84.13,1.28a4.59,4.59,0,0,0,.06,2.36,1,1,0,0,0,1.44,0A4.91,4.91,0,0,0,32.81,16.78Z"/><path class="cls-2" d="M25.59,15.86a25,25,0,0,0-.9-3.67c-.41-1.2-1.42-1.44-2.44-.62a2.17,2.17,0,0,0-.86,1.67l-.37.54c.69.24.45-.28.51-.54.36-.15.45.13.56.36A13.89,13.89,0,0,1,22.87,16a1.35,1.35,0,0,0,2.19,1h0A1,1,0,0,0,25.59,15.86Z"/><path class="cls-2" d="M33.49,22.28h0a1.53,1.53,0,0,0-.11-.64,1.87,1.87,0,0,0-.47-1.11,5,5,0,0,1-.77,1.22h0a2,2,0,0,1-2-.08l-.22-.39-.11-.11h0a3,3,0,0,0-.07-1,2.18,2.18,0,0,1-3.09.06h0c-.11-.19-.22-.36-.32-.54s-.09-.49-.13-.73,0-.22,0-.56-.11-.73-.17-1.11a2.42,2.42,0,0,1-3.32.51c-.13-.32-.24-.66-.37-1h0a2.4,2.4,0,0,0-.24-1c-.19-1.09-.26-1.12-1.33-1.22-.51,0-1,.09-1.5.09a3.65,3.65,0,0,0-2.62,1A3.14,3.14,0,0,0,15.43,17a1.21,1.21,0,0,0-.34.73c-.19.43-.41.86.13,1.2h0l.62.84.34.62h0c.08.21.17.41.24.6h0c0,.17.09.32.13.49h0l.11.49h0V22h0l.11,1.13c0,.3,0,.6.24.83h0a5.14,5.14,0,0,0,1.22,1.33h0a2.81,2.81,0,0,0,1.2.84h0a7.11,7.11,0,0,0,1.69.84h0a4.27,4.27,0,0,0,1.33.6h0a5.21,5.21,0,0,0,1.58.62,6.74,6.74,0,0,0,2.06.71,5.1,5.1,0,0,0,3.86,0h0a2.35,2.35,0,0,0,1.2-.73h0a1.88,1.88,0,0,0,.73-.84,2.66,2.66,0,0,0,.84-1.22,3.88,3.88,0,0,0,.6-1.33A4.33,4.33,0,0,0,33.49,22.28ZM18,19.37a1,1,0,0,1-.24-.62,1,1,0,0,1,1.2-.39l1,.28c.28.24.56.49.84.71.13.3.19.6-.11.84a2,2,0,0,1-1.58-.11C18.6,20,18.35,19.61,18,19.37ZM22,24a1.28,1.28,0,0,1-1.76.6.92.92,0,0,1-.45-.26,7.33,7.33,0,0,1-.49-.83.62.62,0,0,1,.34-.71,1.27,1.27,0,0,1,1.58-.13c.21.24.41.49.6.73A.54.54,0,0,1,22,24Zm.66-4.71c.47-.49.77-.49,1.33,0l.11.49C23.42,20.27,23,20.14,22.7,19.26Zm3,5.44a.85.85,0,0,1-.84-.11.8.8,0,0,1-.36-.84l.24-.36c.28,0,.56.08.84.13a2,2,0,0,1,.38.6A.73.73,0,0,1,25.74,24.69Zm4-.26a2.27,2.27,0,0,1-.58-.17c-.11-.07-.19-.21-.32-.26a.8.8,0,0,1-.36-1.11,1.55,1.55,0,0,1,.13-.24,2.09,2.09,0,0,1,1.82.24c.43,0,.73.17.79.64C31,24.36,30.6,24.6,29.75,24.43Z"/></svg>