<?xml version="1.0" encoding="utf-8"?>
<!-- Generator: Adobe Illustrator 25.2.1, SVG Export Plug-In . SVG Version: 6.00 Build 0)  -->
<svg width="24px" height="24px" version="1.1" id="Layer_1" xmlns="http://www.w3.org/2000/svg" xmlns:xlink="http://www.w3.org/1999/xlink" x="0px" y="0px"
	 viewBox="0 0 74.4 74.4" style="enable-background:new 0 0 74.4 74.4;" xml:space="preserve" preserveAspectRatio="xMinYMid meet">
<path d="M74.5,35.8c-0.4-1.8-1.4-3.4-2.8-4.5l0,0L71.3,31c-1-0.5-2-0.9-3.2-0.9c-0.5,0-1.1,0.1-1.5,0.2c-1.8,0.4-3.4,1.4-4.5,2.9
	c-0.4,0.5-0.7,0.9-0.9,1.5l-10.7,0.1c-0.2-1.1-0.5-1.9-1.1-2.9c-0.7-1.5-1.4-2.5-2.6-3.6l2.8-5c0.4,0.1,0.7,0.1,1.1,0.1
	c3.9,0,6.7-3.5,6.7-7.4s-3.2-7.1-7.1-7.1s-7.1,3.2-7.1,7.1c0,1.9,0.4,3.6,1.8,5l-2.7,4.7c-1.2-0.4-2.3-0.6-3.6-0.6
	c-1.4,0-2.6,0.3-3.9,0.7l-8.2-14.3c0.4-0.4,0.5-0.9,0.8-1.3l0,0l0.1-0.2c0.8-1.6,0.9-3.4,0.4-5.1S26.3,1.8,24.8,1l-0.4-0.2l0,0
	l-0.2-0.1c-0.9-0.4-2-0.7-2.9-0.7c-1.3,0-2.6,0.4-3.7,1.1c-1.2,0.7-2,1.7-2.7,2.9c-0.8,1.7-1,3.6-0.4,5.3s1.9,3.2,3.5,4
	c0.9,0.4,1.9,0.7,2.8,0.7c0.5,0,1,0.2,1.4,0.1l8.2,14.3c-1.7,1.4-2.9,3-3.6,5C26.3,35,26,36.3,26.1,38l-9.8,2.7
	c-2.2-4.2-7.4-5.5-11.6-3.3S-1.2,44.8,1,49c2.2,4.2,7.4,5.9,11.6,3.7c2.7-1.4,4.8-3.9,4.9-6.9L27.7,43l0.1,0.1
	c0.7,1.5,1.1,2.3,2.3,3.3l-5.6,9.8c-0.6-0.2-1.3-0.3-2-0.3c-4.6,0-7.9,3.9-7.9,8.6c0,0.7,0.1,1.3,0.3,2c1.1,4.3,5.4,6.9,9.7,5.8
	c0.7-0.2,1.4-0.4,2-0.9c1.2-0.7,2.3-1.8,3-3.1c0.9-1.6,1.2-3.4,1.1-5.2c-0.3-1.7-0.6-3.1-1.7-4.4l5.6-9.7c1.2,0.4,2.2,0.5,3.4,0.5
	c0.4,0,0.7,0,1.1,0l3.2,11.9c-1.2,0.9-2.2,2.1-2.7,3.6c-0.6,1.8-0.5,3.7,0.3,5.3c0.8,1.7,2.2,2.9,3.9,3.6l0,0
	c0.7,0.3,1.4,0.4,2.2,0.4c1.1,0,2.1-0.3,3-0.7c1.7-0.8,2.9-2.3,3.6-4l0,0c0.2-0.5,0.3-1,0.4-1.5c0.2-1.3-0.1-2.6-0.6-3.7
	c-0.8-1.7-2.1-2.9-3.8-3.6l0,0l0,0c-0.6-0.2-1.3-0.3-1.9-0.4l-3.2-11.9l0.2-0.1c1.4-0.7,2.7-1.7,3.7-2.8c1.1-1.2,1.9-2.5,2.4-4v-0.1
	c0.1-0.4,0.2-0.8,0.4-1.2v-0.2l0.1-0.1l10.8-0.1c0.4,1.4,1.3,2.3,2.6,3.2l0,0c1.2,0.8,2.6,1.2,3.9,1.2c2.3,0,4.5-1.2,5.8-3.1l0,0
	C74.4,39.5,74.9,37.5,74.5,35.8z M47.2,64.7c0.6,0.2,1.3,0.9,1.5,1.4c0.3,0.6,0.4,1.3,0.1,2l0,0c-0.3,0.6-0.7,1.2-1.3,1.4l0,0l0,0
	c-0.4,0.2-0.6,0.2-1,0.3c-0.3,0-0.6-0.1-0.9-0.2l0,0c-0.6-0.2-1.1-0.7-1.4-1.2c-0.3-0.6-0.4-1.3-0.1-2c0.4-1.1,1.2-1.8,2.4-1.8
	C46.8,64.6,46.9,64.6,47.2,64.7L47.2,64.7L47.2,64.7z M45,39.5L45,39.5c-0.5,1.8-1.8,3.2-3.4,4l0,0c-2.1,1.1-4.6,1-6.6-0.2
	c-1.2-0.7-2.2-1.8-2.7-3c-0.8-1.7-0.9-3.6-0.4-5.3c0.5-1.8,1.8-3.2,3.5-4l0,0c1-0.4,2-0.6,3.1-0.6c0.7,0,1.5,0.1,2.2,0.4
	c1.7,0.5,3.1,1.8,3.9,3.4l0,0C45.5,35.8,45.7,37.7,45,39.5z M12.4,45.2c0,2-1.6,3.6-3.6,3.6s-3.6-1.6-3.6-3.6s1.6-3.6,3.6-3.6l0,0
	l0,0C10.8,41.6,12.4,43.2,12.4,45.2L12.4,45.2L12.4,45.2z M50.3,14.1L50.3,14.1c1.1,0,1.9,0.9,1.9,1.9s-0.9,1.9-1.9,1.9
	S48.4,17,48.4,16S49.2,14.1,50.3,14.1L50.3,14.1L50.3,14.1z"/>
</svg>
