<svg width="24" height="24" viewBox="0 0 24 24" fill="none" xmlns="http://www.w3.org/2000/svg" preserveAspectRatio="xMinYMid meet">
<path fill-rule="evenodd" clip-rule="evenodd" d="M8.99463 4.50824C8.99463 4.22903 9.22097 4.00269 9.50019 4.00269C9.7794 4.00269 10.0057 4.22903 10.0057 4.50824C10.0057 4.78745 9.7794 5.0138 9.50019 5.0138C9.22097 5.0138 8.99463 4.78745 8.99463 4.50824ZM9.50019 3.00269C8.66869 3.00269 7.99463 3.67675 7.99463 4.50824C7.99463 5.33081 8.65428 5.9993 9.47344 6.01357L10.4907 9.08119C9.91962 9.3844 9.44902 9.8518 9.14184 10.4204L6.39476 8.93853C6.46359 8.72252 6.50073 8.49237 6.50073 8.25354C6.50073 7.00867 5.49157 5.99951 4.2467 5.99951C3.00184 5.99951 1.99268 7.00867 1.99268 8.25354C1.99268 9.49841 3.00184 10.5076 4.2467 10.5076C4.89269 10.5076 5.47521 10.2358 5.88618 9.8004L8.80512 11.375C8.76924 11.5691 8.75049 11.7692 8.75049 11.9737C8.75049 12.7205 9.00063 13.4089 9.42169 13.9597L7.26349 16.1314C6.85739 15.846 6.36244 15.6785 5.82837 15.6785C4.44833 15.6785 3.32959 16.7972 3.32959 18.1772C3.32959 19.5573 4.44833 20.676 5.82837 20.676C7.20841 20.676 8.32715 19.5573 8.32715 18.1772C8.32715 17.6931 8.18944 17.241 7.95105 16.8582L10.1428 14.6527C10.6749 15.0268 11.3234 15.2465 12.0233 15.2465C12.203 15.2465 12.3793 15.232 12.5512 15.2041L13.5877 18.2918C13.2256 18.5667 12.9917 19.0019 12.9917 19.4916C12.9917 20.3231 13.6658 20.9972 14.4973 20.9972C15.3288 20.9972 16.0028 20.3231 16.0028 19.4916C16.0028 18.6745 15.3518 18.0094 14.5402 17.9867L13.502 14.8942C14.2058 14.5371 14.7632 13.9331 15.0601 13.1961L18.2356 13.8747C18.2634 14.8922 19.097 15.7086 20.1213 15.7086C21.1631 15.7086 22.0076 14.864 22.0076 13.8222C22.0076 12.7804 21.1631 11.9358 20.1213 11.9358C19.4132 11.9358 18.7962 12.3259 18.4736 12.9029L15.2868 12.222C15.2929 12.14 15.296 12.0572 15.296 11.9737C15.296 11.25 15.0611 10.5812 14.6634 10.0393L17.1137 7.59794C17.5105 7.86244 17.9871 8.0166 18.4998 8.0166C19.8817 8.0166 21.002 6.89633 21.002 5.5144C21.002 4.13248 19.8817 3.01221 18.4998 3.01221C17.1178 3.01221 15.9976 4.13248 15.9976 5.5144C15.9976 6.02206 16.1487 6.49441 16.4085 6.88888L13.9561 9.33236C13.4145 8.93536 12.7463 8.70093 12.0233 8.70093C11.8227 8.70093 11.6263 8.71898 11.4356 8.75354L10.4225 5.69834C10.7773 5.42292 11.0057 4.99225 11.0057 4.50824C11.0057 3.67675 10.3317 3.00269 9.50019 3.00269ZM14.2465 12.4477C14.279 12.2948 14.296 12.1362 14.296 11.9737C14.296 10.7185 13.2785 9.70093 12.0233 9.70093C10.768 9.70093 9.75049 10.7185 9.75049 11.9737C9.75049 13.2289 10.768 14.2465 12.0233 14.2465C13.0803 14.2465 13.9688 13.5249 14.223 12.5474C14.2247 12.5341 14.227 12.5208 14.2299 12.5074C14.2343 12.4869 14.2399 12.467 14.2465 12.4477ZM18.4998 4.01221C17.6701 4.01221 16.9976 4.68476 16.9976 5.5144C16.9976 6.34404 17.6701 7.0166 18.4998 7.0166C19.3294 7.0166 20.002 6.34404 20.002 5.5144C20.002 4.68476 19.3294 4.01221 18.4998 4.01221ZM4.32959 18.1772C4.32959 17.3495 5.00062 16.6785 5.82837 16.6785C6.65612 16.6785 7.32715 17.3495 7.32715 18.1772C7.32715 19.005 6.65612 19.676 5.82837 19.676C5.00062 19.676 4.32959 19.005 4.32959 18.1772ZM4.2467 6.99951C3.55412 6.99951 2.99268 7.56096 2.99268 8.25354C2.99268 8.94612 3.55412 9.50757 4.2467 9.50757C4.93928 9.50757 5.50073 8.94612 5.50073 8.25354C5.50073 7.56096 4.93928 6.99951 4.2467 6.99951ZM19.2349 13.8222C19.2349 13.3326 19.6317 12.9358 20.1213 12.9358C20.6108 12.9358 21.0076 13.3326 21.0076 13.8222C21.0076 14.3117 20.6108 14.7086 20.1213 14.7086C19.6317 14.7086 19.2349 14.3117 19.2349 13.8222ZM14.4973 18.9861C14.218 18.9861 13.9917 19.2124 13.9917 19.4916C13.9917 19.7709 14.218 19.9972 14.4973 19.9972C14.7765 19.9972 15.0028 19.7709 15.0028 19.4916C15.0028 19.2124 14.7765 18.9861 14.4973 18.9861Z" fill="#212529"/>
</svg>
