<!DOCTYPE svg PUBLIC "-//W3C//DTD SVG 1.1//EN" "http://www.w3.org/Graphics/SVG/1.1/DTD/svg11.dtd" [
	<!ENTITY ns_flows "http://ns.adobe.com/Flows/1.0/">
]><svg xmlns="http://www.w3.org/2000/svg" width="16" height="16" viewBox="-0.1 -0.1 16 16" preserveAspectRatio="xMinYMid meet" overflow="visible"><path d="M15.6 14.1L8.8.7c-.5-1-1.3-1-1.8 0L.2 14.1c-.5 1 0 1.8 1.1 1.8h13.2c1.1 0 1.6-.8 1.1-1.8zm-3.3-3l-1.2.2c-.1.2-.2.4-.3.7l.7 1c-.3.4-.6.8-1 1l-1-.7-.6.3-.2 1.2c-.2 0-.5.1-.7.1-.3 0-.5 0-.7-.1L7 13.6l-.6-.3-1 .7c-.4-.3-.8-.6-1-1l.6-1c-.1-.2-.2-.4-.3-.7l-1.2-.2c0-.2-.1-.5-.1-.7 0-.3 0-.5.1-.7l1.2-.2c.1-.3.1-.5.3-.7l-.7-1c.3-.4.6-.8 1-1l1 .7c.2-.2.4-.3.7-.3L7.2 6c.2 0 .5-.1.7-.1.3 0 .5 0 .7.1l.2 1.2.6.3 1-.7c.4.3.8.6 1 1l-.7 1c.3.2.4.4.4.6l1.2.2c0 .2.1.5.1.7 0 .3 0 .6-.1.8zM9 10.4c0 .6-.5 1.1-1.1 1.1s-1.1-.5-1.1-1.1c0-.6.5-1.1 1.1-1.1S9 9.8 9 10.4z" fill="#9C3"/></svg>