<!DOCTYPE svg PUBLIC "-//W3C//DTD SVG 1.1//EN" "http://www.w3.org/Graphics/SVG/1.1/DTD/svg11.dtd" [
	<!ENTITY ns_flows "http://ns.adobe.com/Flows/1.0/">
]><svg xmlns="http://www.w3.org/2000/svg" width="16" height="16" viewBox="-0.5 0 16 16" preserveAspectRatio="xMinYMid meet" overflow="visible" enable-background="new -0.5 0 16 16"><path d="M14 0h-13c-.5 0-1 .5-1 1v14c0 .5.5 1 1 1h13c.5 0 1-.5 1-1v-14c0-.5-.5-1-1-1zm-10 14h-2v-2h2v2zm0-3h-2v-2h2v2zm0-3h-2v-2h2v2zm3 6h-2v-2h2v2zm0-3h-2v-2h2v2zm0-3h-2v-2h2v2zm3 6h-2v-2h2v2zm0-3h-2v-2h2v2zm0-3h-2v-2h2v2zm3 6h-2v-5h2v5zm0-6h-2v-2h2v2zm0-3h-11v-3h11v3z" fill="#999"/></svg>