<!DOCTYPE svg PUBLIC "-//W3C//DTD SVG 1.1//EN" "http://www.w3.org/Graphics/SVG/1.1/DTD/svg11.dtd" [
	<!ENTITY ns_flows "http://ns.adobe.com/Flows/1.0/">
]><svg xmlns="http://www.w3.org/2000/svg" width="16" height="16" viewBox="0 0 16 16" preserveAspectRatio="xMinYMid meet" overflow="visible"><path d="M10 0v2h-4v-2h4zm1 2h1c1.1 0 2 .9 2 2v1h2v-3c0-1.1-.9-2-2-2h-3v2zm5 4h-2v4h2v-4zm-2 5v1c0 1.1-.9 2-2 2h-1v2h3c1.1 0 2-.9 2-2v-3h-2zm-4 5v-2h-4v2h4zm-5-2h-1c-1.1 0-2-.9-2-2v-1h-2v3c0 1.1.9 2 2 2h3v-2zm-5-4h2v-4h-2v4zm2-5v-1c0-1.1.9-2 2-2h1v-2h-3c-1.1 0-2 .9-2 2v3h2z" fill="#999"/><path d="M10.2 8l2.6-2.6c.4-.4.4-1 0-1.4l-.8-.7c-.4-.4-1-.4-1.4 0l-2.6 2.6-2.6-2.6c-.4-.4-1-.4-1.4 0l-.7.7c-.4.4-.4 1 0 1.4l2.6 2.6-2.6 2.6c-.3.4-.3 1 0 1.4l.7.7c.4.4 1 .4 1.4 0l2.6-2.5 2.5 2.5c.4.4 1 .4 1.4 0l.7-.7c.4-.4.4-1 0-1.4l-2.4-2.6z" fill="#FF403C"/></svg>