<!DOCTYPE svg PUBLIC "-//W3C//DTD SVG 1.1//EN" "http://www.w3.org/Graphics/SVG/1.1/DTD/svg11.dtd" [
	<!ENTITY ns_flows "http://ns.adobe.com/Flows/1.0/">
]><svg xmlns="http://www.w3.org/2000/svg" width="16" height="16" viewBox="-0.1 0 16 16" preserveAspectRatio="xMinYMid meet" overflow="visible" enable-background="new -0.1 0 16 16"><path d="M15.6 7.3l-.7-.7c-.4-.4-1.1-.4-1.4 0l-4 4v-9.6c0-.5-.4-1-1-1h-1c-.5 0-1 .5-1 1v9.6l-4-4c-.5-.4-1.1-.4-1.5 0l-.7.7c-.4.4-.4 1 0 1.4l7 7c.4.4 1 .4 1.4 0l.7-.7 6.2-6.2c.4-.4.4-1.1 0-1.5z" fill="#999"/></svg>