<!DOCTYPE svg PUBLIC "-//W3C//DTD SVG 1.1//EN" "http://www.w3.org/Graphics/SVG/1.1/DTD/svg11.dtd" [
	<!ENTITY ns_flows "http://ns.adobe.com/Flows/1.0/">
]><svg xmlns="http://www.w3.org/2000/svg" width="16" height="16" viewBox="0 -2.6 16 16" preserveAspectRatio="xMinYMid meet" overflow="visible" enable-background="new 0 -2.6 16 16"><path d="M7.9 10.9c-4.3 0-7.9-3.6-7.9-5.4 0-1.9 3.6-5.5 7.9-5.5 4.3 0 7.9 3.6 7.9 5.5 0 1.8-3.6 5.4-7.9 5.4zm0-8.9c-3.3 0-5.8 2.8-5.9 3.5.1.7 2.6 3.4 5.9 3.4 3.3 0 5.8-2.8 5.9-3.5-.1-.6-2.6-3.4-5.9-3.4zm0 .2c-1.8 0-3.2 1.4-3.2 3.2 0 1.8 1.4 3.2 3.2 3.2 1.8 0 3.2-1.4 3.2-3.2 0-1.7-1.4-3.2-3.2-3.2zm-1.2 3.1c-.6 0-1.1-.5-1.1-1.1 0-.6.5-1.1 1.1-1.1.6 0 1.1.5 1.1 1.1-.1.6-.5 1.1-1.1 1.1z" fill="#999"/></svg>