<!DOCTYPE svg PUBLIC "-//W3C//DTD SVG 1.1//EN" "http://www.w3.org/Graphics/SVG/1.1/DTD/svg11.dtd" [
	<!ENTITY ns_flows "http://ns.adobe.com/Flows/1.0/">
]><svg xmlns="http://www.w3.org/2000/svg" width="16" height="16" viewBox="0 0 16 16" preserveAspectRatio="xMinYMid meet" overflow="visible"><path d="M7 0h-1.4l-5.6 5.6v10.4h16v-16h-9zm7 14h-12v-7h5v-5h7v12zm-7-1h-4v-1h4v1zm0-2h-4v-1h4v1zm0-2h-4v-1h4v1zm3 4h-2v-1h2v1zm0-2h-2v-1h2v1zm0-2h-2v-1h2v1zm3 4h-2v-1h2v1zm0-2h-2v-1h2v1zm0-2h-2v-1h2v1z" fill="#999"/></svg>