<!DOCTYPE svg PUBLIC "-//W3C//DTD SVG 1.1//EN" "http://www.w3.org/Graphics/SVG/1.1/DTD/svg11.dtd" [
	<!ENTITY ns_flows "http://ns.adobe.com/Flows/1.0/">
]><svg xmlns="http://www.w3.org/2000/svg" width="16" height="16" viewBox="-0.1 -0.1 16 16" preserveAspectRatio="xMinYMid meet" overflow="visible" enable-background="new -0.1 -0.1 16 16"><path d="M15.6 14.1l-6.8-13.4c-.5-1-1.3-1-1.8 0l-6.8 13.4c-.5 1 0 1.8 1.1 1.8h13.2c1.1 0 1.6-.8 1.1-1.8zm-3.3-3l-1.2.2c-.1.2-.2.4-.3.7l.7 1c-.3.4-.6.8-1 1l-1-.7-.6.3-.2 1.2-.7.1c-.3 0-.5 0-.7-.1l-.3-1.2-.6-.3-1 .7c-.4-.3-.8-.6-1-1l.6-1c-.1-.2-.2-.4-.3-.7l-1.2-.2-.1-.7c0-.3 0-.5.1-.7l1.2-.2c.1-.3.1-.5.3-.7l-.7-1c.3-.4.6-.8 1-1l1 .7c.2-.2.4-.3.7-.3l.2-1.2.7-.1c.3 0 .5 0 .7.1l.2 1.2.6.3 1-.7c.4.3.8.6 1 1l-.7 1c.3.2.4.4.4.6l1.2.2.1.7c0 .3 0 .6-.1.8zm-3.3-.7c0 .6-.5 1.1-1.1 1.1s-1.1-.5-1.1-1.1c0-.6.5-1.1 1.1-1.1s1.1.5 1.1 1.1z" fill="#9c3"/></svg>