<?xml version="1.0" encoding="UTF-8" standalone="no"?>
<!-- Created with Inkscape (http://www.inkscape.org/) -->

<svg
   xmlns:dc="http://purl.org/dc/elements/1.1/"
   xmlns:cc="http://creativecommons.org/ns#"
   xmlns:rdf="http://www.w3.org/1999/02/22-rdf-syntax-ns#"
   xmlns:svg="http://www.w3.org/2000/svg"
   xmlns="http://www.w3.org/2000/svg"
   xmlns:sodipodi="http://sodipodi.sourceforge.net/DTD/sodipodi-0.dtd"
   xmlns:inkscape="http://www.inkscape.org/namespaces/inkscape"
   width="100%"
   height="100%"
   viewBox="0 0 3.7041668 0.26458333"
   version="1.1"
   id="svg8"
   sodipodi:docname="dash.svg"
   inkscape:version="0.92.3 (2405546, 2018-03-11)">
  <defs
     id="defs2">
    <path
       inkscape:connector-curvature="0"
       id="a"
       d="M 0,0 H 24 V 24 H 0 Z" />
    <clipPath
       id="clipPath45"
       clipPathUnits="userSpaceOnUse">
      <g
         inkscape:label="Clip"
         id="use47">
        <path
           style="fill:#a0a0a0;stroke:none"
           inkscape:connector-curvature="0"
           clip-path="url(#b)"
           d="M 0.47222438,3.48779 H 1.7951445 V 2.95863 H 0.47222438 Z m 1.71980012,0 h 1.32291 V 2.95863 h -1.32291 z m 1.71979,0 h 1.32291 V 2.95863 h -1.32291 z M 0.47222438,4.54613 H 1.0013944 V 4.01696 H 0.47222438 Z m 1.05834012,0 h 0.52916 V 4.01696 h -0.52916 z m 1.05833,0 h 0.52917 V 4.01696 h -0.52917 z m 1.05833,0 h 0.52917 V 4.01696 h -0.52917 z m 1.05834,0 h 0.52916 V 4.01696 h -0.52916 z M 0.47222438,2.42946 H 2.5888945 V 1.90029 H 0.47222438 Z m 2.64584012,0 h 2.11666 V 1.90029 h -2.11666 z M 0.47222438,0.31279005 V 1.37113 H 5.2347245 V 0.31279005 Z"
           id="path970" />
      </g>
    </clipPath>
  </defs>
  <sodipodi:namedview
     id="base"
     pagecolor="#ffffff"
     bordercolor="#666666"
     borderopacity="1.0"
     inkscape:pageopacity="0.0"
     inkscape:pageshadow="2"
     inkscape:zoom="90.509668"
     inkscape:cx="4.6299538"
     inkscape:cy="-1.7224644"
     inkscape:document-units="mm"
     inkscape:current-layer="layer2"
     showgrid="true"
     inkscape:window-width="2560"
     inkscape:window-height="1377"
     inkscape:window-x="-8"
     inkscape:window-y="-8"
     inkscape:window-maximized="1"
     units="px">
    <inkscape:grid
       type="xygrid"
       id="grid4556" />
  </sodipodi:namedview>
  <metadata
     id="metadata5">
    <rdf:RDF>
      <cc:Work
         rdf:about="">
        <dc:format>image/svg+xml</dc:format>
        <dc:type
           rdf:resource="http://purl.org/dc/dcmitype/StillImage" />
        <dc:title></dc:title>
      </cc:Work>
    </rdf:RDF>
  </metadata>
  <g
     inkscape:label="Capa 1"
     inkscape:groupmode="layer"
     id="layer1"
     transform="translate(-102.14352,-59.762972)">
    <g
       transform="translate(101.65909,57.894997)"
       style="display:inline"
       inkscape:label="Capa 2"
       id="layer2">
      <rect
         ry="4.440899e-016"
         y="1.8679752"
         x="0.48442999"
         height="0.26458338"
         width="0.5291667"
         id="rect1149"
         style="opacity:1;fill:#2f4b59;fill-opacity:1;stroke-width:0.26458332" />
      <rect
         ry="4.440899e-016"
         y="1.867975"
         x="1.27818"
         height="0.26458335"
         width="0.52916664"
         id="rect1149-7"
         style="display:inline;opacity:1;fill:#2f4b59;fill-opacity:1;stroke-width:0.26458332" />
      <rect
         ry="4.440899e-016"
         y="1.867975"
         x="2.0719299"
         height="0.26458335"
         width="0.52916676"
         id="rect1149-9"
         style="display:inline;opacity:1;fill:#2f4b59;fill-opacity:1;stroke-width:0.26458332" />
      <rect
         ry="4.440899e-016"
         y="1.867975"
         x="2.86568"
         height="0.26458335"
         width="0.5291667"
         id="rect1149-6"
         style="display:inline;opacity:1;fill:#2f4b59;fill-opacity:1;stroke-width:0.26458332" />
      <rect
         ry="4.440899e-016"
         y="1.867975"
         x="3.65943"
         height="0.26458335"
         width="0.52916664"
         id="rect1149-4"
         style="display:inline;opacity:1;fill:#2f4b59;fill-opacity:1;stroke-width:0.26458332" />
      <path
         style="fill:#a0a0a0;stroke:none"
         d="M 6.1411564e-4,0.49728776 V 1.0330468e-4 H 1.0005073 2.0004005 V 0.49728776 0.99447222 H 1.0005073 6.1411564e-4 Z"
         id="path4561"
         inkscape:connector-curvature="0"
         transform="matrix(0.26458333,0,0,0.26458333,0.48443,1.867975)" />
      <path
         style="fill:#a0a0a0;stroke:none"
         d="M 3.0058179,0.49728776 V 1.0330468e-4 h 0.994369 0.9943689 V 0.49728776 0.99447222 H 4.0001869 3.0058179 Z"
         id="path4563"
         inkscape:connector-curvature="0"
         transform="matrix(0.26458333,0,0,0.26458333,0.48443,1.867975)" />
      <path
         style="fill:#a0a0a0;stroke:none"
         d="M 5.9999732,0.49728776 V 1.0330468e-4 H 6.9998664 7.9997596 V 0.49728776 0.99447222 H 6.9998664 5.9999732 Z"
         id="path4565"
         inkscape:connector-curvature="0"
         transform="matrix(0.26458333,0,0,0.26458333,0.48443,1.867975)" />
      <path
         style="fill:#a0a0a0;stroke:none;stroke-width:0.01104854"
         d="M 9.0051771,0.49728776 V 1.0330468e-4 H 9.999546 10.993915 V 0.49728776 0.99447222 H 9.999546 9.0051771 Z"
         id="path4567"
         inkscape:connector-curvature="0"
         transform="matrix(0.26458333,0,0,0.26458333,0.48443,1.867975)" />
      <path
         style="fill:#000000;stroke:none;stroke-width:0.01104854"
         d="M 12.010381,0.49728776 V 1.0330468e-4 h 0.994369 0.994369 V 0.49728776 0.99447222 H 13.00475 12.010381 Z"
         id="path4569"
         inkscape:connector-curvature="0"
         transform="matrix(0.26458333,0,0,0.26458333,0.48443,1.867975)" />
      <path
         style="fill:#000000;stroke:none;stroke-width:0.01104854"
         d="M 9.0051771,0.49728776 V 1.0330468e-4 H 9.999546 10.993915 V 0.49728776 0.99447222 H 9.999546 9.0051771 Z"
         id="path4571"
         inkscape:connector-curvature="0"
         transform="matrix(0.26458333,0,0,0.26458333,0.48443,1.867975)" />
      <path
         style="fill:#000000;stroke:none;stroke-width:0.01104854"
         d="M 2.9941406 0 L 2.9941406 0.49804688 L 2.9941406 0.99414062 L 3.9941406 0.99414062 L 4.9941406 0.99414062 L 4.9941406 0.49804688 L 4.9941406 0 L 3.9941406 0 L 2.9941406 0 z M 6 0 L 6 0.49804688 L 6 0.99414062 L 7 0.99414062 L 8 0.99414062 L 8 0.49804688 L 8 0 L 7 0 L 6 0 z "
         transform="matrix(0.26458333,0,0,0.26458333,0.48443,1.867975)"
         id="path4573" />
      <path
         style="fill:#000000;stroke:none;stroke-width:0.01104854"
         d="M 6.1411564e-4,0.49728776 V 1.0330468e-4 H 1.0005073 2.0004005 V 0.49728776 0.99447222 H 1.0005073 6.1411564e-4 Z"
         id="path4581"
         inkscape:connector-curvature="0"
         transform="matrix(0.26458333,0,0,0.26458333,0.48443,1.867975)" />
    </g>
  </g>
</svg>
