<?xml version="1.0" encoding="UTF-8" standalone="no"?>
<!-- Created with Inkscape (http://www.inkscape.org/) -->

<svg
   xmlns:dc="http://purl.org/dc/elements/1.1/"
   xmlns:cc="http://creativecommons.org/ns#"
   xmlns:rdf="http://www.w3.org/1999/02/22-rdf-syntax-ns#"
   xmlns:svg="http://www.w3.org/2000/svg"
   xmlns="http://www.w3.org/2000/svg"
   xmlns:sodipodi="http://sodipodi.sourceforge.net/DTD/sodipodi-0.dtd"
   xmlns:inkscape="http://www.inkscape.org/namespaces/inkscape"
   width="100%"
   height="100%"
   viewBox="0 0 3.7041668 0.26458333"
   version="1.1"
   id="svg8"
   sodipodi:docname="dotdash.svg"
   inkscape:version="0.92.3 (2405546, 2018-03-11)">
  <defs
     id="defs2">
    <path
       inkscape:connector-curvature="0"
       id="a"
       d="M 0,0 H 24 V 24 H 0 Z" />
    <clipPath
       id="clipPath45"
       clipPathUnits="userSpaceOnUse">
      <g
         inkscape:label="Clip"
         id="use47">
        <path
           style="fill:#a0a0a0;stroke:none"
           inkscape:connector-curvature="0"
           clip-path="url(#b)"
           d="M 0.47222438,3.48779 H 1.7951445 V 2.95863 H 0.47222438 Z m 1.71980012,0 h 1.32291 V 2.95863 h -1.32291 z m 1.71979,0 h 1.32291 V 2.95863 h -1.32291 z M 0.47222438,4.54613 H 1.0013944 V 4.01696 H 0.47222438 Z m 1.05834012,0 h 0.52916 V 4.01696 h -0.52916 z m 1.05833,0 h 0.52917 V 4.01696 h -0.52917 z m 1.05833,0 h 0.52917 V 4.01696 h -0.52917 z m 1.05834,0 h 0.52916 V 4.01696 h -0.52916 z M 0.47222438,2.42946 H 2.5888945 V 1.90029 H 0.47222438 Z m 2.64584012,0 h 2.11666 V 1.90029 h -2.11666 z M 0.47222438,0.31279005 V 1.37113 H 5.2347245 V 0.31279005 Z"
           id="path970" />
      </g>
    </clipPath>
  </defs>
  <sodipodi:namedview
     id="base"
     pagecolor="#ffffff"
     bordercolor="#666666"
     borderopacity="1.0"
     inkscape:pageopacity="0.0"
     inkscape:pageshadow="2"
     inkscape:zoom="90.509668"
     inkscape:cx="4.6299538"
     inkscape:cy="-1.7224644"
     inkscape:document-units="mm"
     inkscape:current-layer="layer2"
     showgrid="true"
     inkscape:window-width="2560"
     inkscape:window-height="1377"
     inkscape:window-x="-8"
     inkscape:window-y="-8"
     inkscape:window-maximized="1"
     units="px">
    <inkscape:grid
       type="xygrid"
       id="grid4556" />
  </sodipodi:namedview>
  <metadata
     id="metadata5">
    <rdf:RDF>
      <cc:Work
         rdf:about="">
        <dc:format>image/svg+xml</dc:format>
        <dc:type
           rdf:resource="http://purl.org/dc/dcmitype/StillImage" />
        <dc:title></dc:title>
      </cc:Work>
    </rdf:RDF>
  </metadata>
  <g
     inkscape:label="Capa 1"
     inkscape:groupmode="layer"
     id="layer1"
     transform="translate(-102.14352,-59.762972)">
    <g
       transform="translate(101.65909,57.894997)"
       style="display:inline"
       inkscape:label="Capa 2"
       id="layer2">
      <rect
         ry="4.440899e-016"
         y="1.8679477"
         x="2.0717676"
         height="0.26458335"
         width="0.52916664"
         id="rect1149-7"
         style="display:inline;opacity:1;fill:#2f4b59;fill-opacity:1;stroke-width:0.26458332" />
      <path
         style="fill:#a0a0a0;stroke:none;stroke-width:0.32464805"
         d="M 1.8071842,1.9994945 V 1.8679477 H 2.2032896 2.5993949 V 1.9994945 2.1310412 H 2.2032896 1.8071842 Z"
         id="path4563"
         inkscape:connector-curvature="0" />
      <path
         style="fill:#000000;stroke:none;stroke-width:0.0020729"
         d="M 3.1301008,1.9994944 V 1.8679477 H 3.2623925 3.3946841 V 1.9994944 2.1310412 H 3.2623925 3.1301008 Z"
         id="path4571"
         inkscape:connector-curvature="0" />
      <path
         style="fill:#000000;stroke:none;stroke-width:0.00206653"
         d="M 1.27818,1.9995218 V 1.867975 H 1.4103904 1.5426008 V 1.9995218 2.1310685 H 1.4103904 1.27818 Z"
         id="path4581"
         inkscape:connector-curvature="0" />
      <path
         style="display:inline;fill:#000000;stroke:none;stroke-width:0.00206653"
         d="M 0.48459253,2.0010116 V 1.8694648 h 0.1322104 0.1322104 v 0.1315468 0.1315467 h -0.1322104 -0.1322104 z"
         id="path4581-1"
         inkscape:connector-curvature="0" />
      <path
         style="display:inline;fill:#000000;stroke:none;stroke-width:0.00206653"
         d="M 3.9240133,1.9995218 V 1.867975 H 4.0562237 4.1884341 V 1.9995218 2.1310685 H 4.0562237 3.9240133 Z"
         id="path4581-3"
         inkscape:connector-curvature="0" />
      <path
         style="fill:#000000;stroke:none;stroke-width:0.00338266"
         d="M 1.8088295,1.9995491 V 1.8680023 H 2.3372547 2.86568 V 1.9995491 2.1310958 H 2.3372547 1.8088295 Z"
         id="path4604"
         inkscape:connector-curvature="0" />
    </g>
  </g>
</svg>
