<?xml version="1.0" encoding="UTF-8" standalone="no"?>
<!-- Created with Inkscape (http://www.inkscape.org/) -->

<svg
   xmlns:dc="http://purl.org/dc/elements/1.1/"
   xmlns:cc="http://creativecommons.org/ns#"
   xmlns:rdf="http://www.w3.org/1999/02/22-rdf-syntax-ns#"
   xmlns:svg="http://www.w3.org/2000/svg"
   xmlns="http://www.w3.org/2000/svg"
   xmlns:sodipodi="http://sodipodi.sourceforge.net/DTD/sodipodi-0.dtd"
   xmlns:inkscape="http://www.inkscape.org/namespaces/inkscape"
   width="100%"
   height="100%"
   viewBox="0 0 3.9687501 0.26458334"
   version="1.1"
   id="svg8"
   inkscape:version="0.92.3 (2405546, 2018-03-11)"
   sodipodi:docname="dotted.svg">
  <defs
     id="defs2">
    <path
       d="M 0,0 H 24 V 24 H 0 Z"
       id="a"
       inkscape:connector-curvature="0" />
    <clipPath
       clipPathUnits="userSpaceOnUse"
       id="clipPath45">
      <g
         id="use47"
         inkscape:label="Clip">
        <path
           id="path970"
           d="M 0.47222438,3.48779 H 1.7951445 V 2.95863 H 0.47222438 Z m 1.71980012,0 h 1.32291 V 2.95863 h -1.32291 z m 1.71979,0 h 1.32291 V 2.95863 h -1.32291 z M 0.47222438,4.54613 H 1.0013944 V 4.01696 H 0.47222438 Z m 1.05834012,0 h 0.52916 V 4.01696 h -0.52916 z m 1.05833,0 h 0.52917 V 4.01696 h -0.52917 z m 1.05833,0 h 0.52917 V 4.01696 h -0.52917 z m 1.05834,0 h 0.52916 V 4.01696 h -0.52916 z M 0.47222438,2.42946 H 2.5888945 V 1.90029 H 0.47222438 Z m 2.64584012,0 h 2.11666 V 1.90029 h -2.11666 z M 0.47222438,0.31279005 V 1.37113 H 5.2347245 V 0.31279005 Z"
           clip-path="url(#b)"
           inkscape:connector-curvature="0"
           style="fill:#a0a0a0;stroke:none" />
      </g>
    </clipPath>
  </defs>
  <sodipodi:namedview
     id="base"
     pagecolor="#ffffff"
     bordercolor="#666666"
     borderopacity="1.0"
     inkscape:pageopacity="0.0"
     inkscape:pageshadow="2"
     inkscape:zoom="181.01934"
     inkscape:cx="4.3813455"
     inkscape:cy="0.61926441"
     inkscape:document-units="mm"
     inkscape:current-layer="layer2"
     showgrid="true"
     inkscape:window-width="2560"
     inkscape:window-height="1377"
     inkscape:window-x="-8"
     inkscape:window-y="-8"
     inkscape:window-maximized="1"
     inkscape:measure-start="0.252538,12.8163"
     inkscape:measure-end="0.252538,6.31345"
     units="px">
    <inkscape:grid
       type="xygrid"
       id="grid5197" />
  </sodipodi:namedview>
  <metadata
     id="metadata5">
    <rdf:RDF>
      <cc:Work
         rdf:about="">
        <dc:format>image/svg+xml</dc:format>
        <dc:type
           rdf:resource="http://purl.org/dc/dcmitype/StillImage" />
        <dc:title></dc:title>
      </cc:Work>
    </rdf:RDF>
  </metadata>
  <g
     inkscape:groupmode="layer"
     id="layer2"
     inkscape:label="Capa 2"
     style="display:inline"
     transform="translate(-0.56794775,-3.5678523)">
    <ellipse
       style="opacity:1;fill:#2f4b59;fill-opacity:1;stroke-width:0.22132659"
       id="path1290"
       cx="0.70174301"
       cy="3.7010031"
       rx="0.13238193"
       ry="0.13311274" />
    <ellipse
       style="display:inline;opacity:1;fill:#2f4b59;fill-opacity:1;stroke-width:0.22132659"
       id="path1290-3"
       cx="1.2279582"
       cy="3.7010031"
       rx="0.13238193"
       ry="0.13311276" />
    <ellipse
       style="display:inline;opacity:1;fill:#2f4b59;fill-opacity:1;stroke-width:0.22132659"
       id="path1290-6"
       cx="1.7600199"
       cy="3.7010314"
       rx="0.13238193"
       ry="0.13311276" />
    <ellipse
       style="display:inline;opacity:1;fill:#2f4b59;fill-opacity:1;stroke-width:0.22132659"
       id="path1290-3-7"
       cx="2.2862351"
       cy="3.7010314"
       rx="0.13238193"
       ry="0.13311276" />
    <ellipse
       style="fill:#a0a0a0;stroke:none"
       id="path1290-5"
       cx="2.8182967"
       cy="3.702493"
       rx="0.13238193"
       ry="0.13311276" />
    <ellipse
       style="fill:#a0a0a0;stroke:none"
       id="path1290-3-3"
       cx="3.344512"
       cy="3.702493"
       rx="0.13238193"
       ry="0.13311276" />
    <ellipse
       style="fill:#a0a0a0;stroke:none"
       id="path1290-6-1"
       cx="3.8765736"
       cy="3.7025213"
       rx="0.13238193"
       ry="0.13311276" />
    <ellipse
       style="fill:#a0a0a0;stroke:none"
       id="path1290-3-7-9"
       cx="4.4027886"
       cy="3.7025213"
       rx="0.13238193"
       ry="0.13311276" />
    <path
       style="fill:#000000;stroke:none;stroke-width:0.00552427"
       d="M 6.4204039,0.99882122 C 6.3357226,0.98711032 6.2417243,0.94339261 6.1695806,0.88216589 6.1021611,0.82494852 6.0345912,0.7157429 6.0117721,0.62711811 5.999016,0.57757578 5.9946573,0.47698154 6.0030204,0.42513863 6.0227322,0.30294627 6.087626,0.19075559 6.183003,0.1139785 c 0.1986995,-0.15995023 0.4829503,-0.14438739 0.6613986,0.0362118 0.066723,0.0675269 0.108284,0.1394386 0.1319669,0.22833555 0.017975,0.0674702 0.018066,0.18180052 1.977e-4,0.24859223 C 6.9165935,0.85130355 6.7166374,1.00545 6.4903524,1.0019409 c -0.029357,-4.553e-4 -0.060833,-0.00186 -0.069948,-0.00312 z"
       id="path5256"
       inkscape:connector-curvature="0"
       transform="matrix(0.26458333,0,0,0.26458333,0.56794775,3.5678523)" />
    <path
       style="fill:#000000;stroke:none;stroke-width:0.00552427"
       d="M 8.4176885,1.0023715 C 8.2539347,0.97323992 8.104666,0.85005783 8.0425323,0.69277861 8.0012846,0.5883681 7.9973025,0.46367996 8.0317905,0.35642879 8.0831873,0.19659431 8.2061956,0.077296 8.371677,0.02679326 8.41537,0.0134587 8.428698,0.01198766 8.5058165,0.01198766 c 0.077152,0 0.090436,0.0014677 0.134221,0.01482921 0.1737967,0.05303596 0.2999768,0.18231897 0.3475892,0.3561369 0.016918,0.0617633 0.016722,0.1896295 -3.867e-4,0.25245075 C 8.9664746,0.71165096 8.9249413,0.78802175 8.8711995,0.84877786 8.8187917,0.90802584 8.7208719,0.96817234 8.638399,0.99177385 8.5906369,1.005442 8.4680386,1.0113287 8.4176885,1.0023715 Z"
       id="path5258"
       inkscape:connector-curvature="0"
       transform="matrix(0.26458333,0,0,0.26458333,0.56794775,3.5678523)" />
    <path
       style="fill:#000000;stroke:none;stroke-width:0.00552427"
       d="M 10.406426,1.0023715 C 10.314246,0.9859727 10.219879,0.9365105 10.148967,0.86742393 10.054267,0.77516453 10.005459,0.66692016 9.9989089,0.53464798 9.9939589,0.43469378 10.011701,0.3555975 10.058571,0.2686649 c 0.06315,-0.11712402 0.167761,-0.20095131 0.301844,-0.24187164 0.04369,-0.01333456 0.05702,-0.0148056 0.134139,-0.0148056 0.07715,0 0.09044,0.0014677 0.134221,0.01482921 0.173579,0.05296941 0.300181,0.18256972 0.347438,0.35566559 0.01706,0.0625028 0.01708,0.19015644 2.3e-5,0.25292206 -0.0463,0.1704129 -0.181329,0.30823061 -0.349141,0.35635624 -0.04771,0.013682 -0.170274,0.0195756 -0.220669,0.0106107 z"
       id="path5260"
       inkscape:connector-curvature="0"
       transform="matrix(0.26458333,0,0,0.26458333,0.56794775,3.5678523)" />
    <path
       style="fill:#a0a0a0;stroke:none;stroke-width:0.00552427"
       d="M 12.501953 0.01171875 C 12.455429 0.011771166 12.441356 0.017699159 12.419922 0.021484375 C 12.409299 0.023348771 12.399226 0.022814985 12.388672 0.025390625 C 12.383607 0.026794101 12.377037 0.025537371 12.371094 0.02734375 C 12.352469 0.033004539 12.341759 0.049185223 12.324219 0.056640625 C 12.277957 0.075169273 12.231087 0.089422611 12.189453 0.12304688 C 12.175994 0.13391601 12.166712 0.15115458 12.154297 0.1640625 C 12.141872 0.17675939 12.132072 0.18920946 12.121094 0.203125 C 12.070361 0.26867083 12.02799 0.34493822 12.013672 0.42578125 C 12.013487 0.42682428 12.013847 0.4286169 12.013672 0.4296875 C 12.013026 0.43370909 12.014167 0.44072551 12.013672 0.4453125 C 12.007734 0.49568535 12.009264 0.563535 12.019531 0.61328125 C 12.019531 0.61328125 12.021484 0.61523438 12.021484 0.61523438 C 12.022252 0.6188909 12.020639 0.6257351 12.021484 0.62890625 C 12.0361 0.68374245 12.073997 0.72404606 12.103516 0.76953125 C 12.124149 0.80161433 12.132886 0.84058722 12.160156 0.8671875 C 12.226256 0.9319002 12.30814 0.97895303 12.402344 1 C 12.454242 1.0111193 12.550556 1.0109131 12.603516 1 C 12.608886 0.99889349 12.611891 0.99345395 12.617188 0.9921875 C 12.621961 0.99116017 12.630741 0.99334961 12.634766 0.9921875 C 12.660273 0.98482092 12.67399 0.96166436 12.697266 0.95117188 C 12.758837 0.92388317 12.816054 0.89290688 12.861328 0.84375 C 12.869728 0.83466001 12.884785 0.83402512 12.892578 0.82421875 C 12.932372 0.77414232 12.958261 0.71638028 12.976562 0.65820312 C 12.978331 0.65294723 12.982747 0.64987808 12.984375 0.64453125 C 12.989846 0.62656787 12.988034 0.60415819 12.990234 0.58984375 C 13.005278 0.49978395 12.995754 0.40900535 12.960938 0.32226562 C 12.957564 0.31433875 12.959133 0.30543419 12.955078 0.296875 C 12.951273 0.28884219 12.94359 0.28506387 12.939453 0.27734375 C 12.931746 0.2625656 12.929193 0.2466231 12.919922 0.23242188 C 12.898903 0.20022409 12.868346 0.1749536 12.839844 0.1484375 C 12.826303 0.13569282 12.815455 0.12037241 12.800781 0.109375 C 12.749851 0.07152998 12.691409 0.040621051 12.628906 0.0234375 C 12.625511 0.022504182 12.62038 0.022284984 12.617188 0.021484375 C 12.617188 0.021484375 12.615234 0.021484375 12.615234 0.021484375 C 12.613153 0.020972442 12.609458 0.021943071 12.607422 0.021484375 C 12.579699 0.015239048 12.558854 0.011654638 12.501953 0.01171875 z M 14.492188 0.01171875 C 14.417968 0.01180237 14.403665 0.01388312 14.359375 0.02734375 C 14.150442 0.090845079 14.008387 0.26931141 13.998047 0.48242188 C 13.993217 0.58193747 14.009566 0.65756296 14.056641 0.74804688 C 14.122276 0.87420605 14.247199 0.96743088 14.392578 1 C 14.446236 1.0120208 14.570097 1.0074795 14.623047 0.9921875 C 14.794629 0.94263406 14.922076 0.81638781 14.972656 0.64453125 C 14.993106 0.57520927 14.997302 0.48374777 14.982422 0.41210938 C 14.94284 0.22150511 14.806369 0.074911349 14.619141 0.0234375 C 14.582613 0.0133949 14.560677 0.01164158 14.492188 0.01171875 z "
       transform="matrix(0.26458333,0,0,0.26458333,0.56794775,3.5678523)"
       id="path5262" />
    <path
       style="fill:#a0a0a0;stroke:none;stroke-width:0.00552427"
       d="m 12.405952,1.0004219 c -0.185187,-0.0386652 -0.334071,-0.18223359 -0.38426,-0.37054166 -0.01233,-0.0462792 -0.01655,-0.14786318 -0.0083,-0.19921734 0.03098,-0.19202609 0.167006,-0.34584018 0.356889,-0.40355167 0.04429,-0.01346063 0.05809,-0.01503788 0.13231,-0.0151215 0.06849,-7.717e-5 0.09053,0.0020142 0.127058,0.0120568 0.187228,0.05147385 0.323543,0.1969653 0.363125,0.38756957 0.01496,0.0720255 0.01126,0.1642629 -0.0094,0.23449644 -0.04951,0.16826761 -0.178407,0.29728526 -0.345473,0.34579677 -0.05277,0.0153218 -0.17745,0.0198972 -0.231977,0.008513 z"
       id="path5270"
       inkscape:connector-curvature="0"
       transform="matrix(0.26458333,0,0,0.26458333,0.56794775,3.5678523)" />
    <path
       style="fill:#000000;stroke:none;stroke-width:0.00552427"
       d="m 14.392014,0.99912539 c -0.192513,-0.0412467 -0.345141,-0.19432875 -0.384662,-0.38580686 -0.01146,-0.0555244 -0.01348,-0.13808863 -0.0046,-0.18820283 0.05289,-0.29859152 0.35586,-0.48486744 0.640533,-0.39381723 0.158741,0.05077176 0.279224,0.17506927 0.329628,0.34006472 0.01347,0.0440846 0.01484,0.0567981 0.01484,0.13698308 0,0.080166 -0.0014,0.0929046 -0.01483,0.13693741 -0.05665,0.18544179 -0.197448,0.31651514 -0.380508,0.35423537 -0.05296,0.0109131 -0.148505,0.0107256 -0.200402,-3.9389e-4 z"
       id="path5272"
       inkscape:connector-curvature="0"
       transform="matrix(0.26458333,0,0,0.26458333,0.56794775,3.5678523)" />
    <path
       style="fill:#000000;stroke:none;stroke-width:0.00552427"
       d="M 12.411856,1.0026068 C 12.248499,0.9683844 12.108377,0.85360237 12.046358,0.70320556 c -0.03093,-0.075017 -0.03513,-0.0987644 -0.0349,-0.19762143 1.93e-4,-0.0845356 0.0013,-0.0945581 0.01562,-0.13810679 0.07558,-0.2303231 0.276084,-0.37125789 0.508288,-0.35728304 0.07318,0.0044044 0.11556,0.01554292 0.183569,0.04824989 0.133947,0.06441785 0.228093,0.17782552 0.268011,0.32284383 0.01014,0.0368397 0.01215,0.0584434 0.01207,0.12982038 -8.2e-5,0.0772419 -0.0016,0.0904612 -0.01512,0.13500414 -0.05168,0.16985506 -0.180085,0.29826267 -0.345926,0.34594548 -0.04672,0.0134334 -0.182181,0.0197529 -0.226116,0.0105488 z"
       id="path5274"
       inkscape:connector-curvature="0"
       transform="matrix(0.26458333,0,0,0.26458333,0.56794775,3.5678523)" />
    <path
       style="fill:#a0a0a0;stroke:none;stroke-width:0.00552427"
       d="M 4.4071025,0.99376519 C 4.2856581,0.96771355 4.1723928,0.89402529 4.1018569,0.79517795 3.9995168,0.65176117 3.9798054,0.45494936 4.0521087,0.29845831 4.1170817,0.15783283 4.2347885,0.05836073 4.3841077,0.01789143 4.4433968,0.00182257 4.5638969,9.5987331e-4 4.6211848,0.01619412 4.8312794,0.07206344 4.9778263,0.24115273 4.9994654,0.45266331 5.0223748,0.67659188 4.8929099,0.88875928 4.6839871,0.96966969 4.5999817,1.0022028 4.4907492,1.0117086 4.4071025,0.99376519 Z"
       id="path5276"
       inkscape:connector-curvature="0"
       transform="matrix(0.26458333,0,0,0.26458333,0.56794775,3.5678523)" />
    <path
       style="fill:#a0a0a0;stroke:none;stroke-width:0.00552427"
       d="M 2.398132,0.99455853 C 2.2730599,0.96645501 2.1615062,0.89395281 2.0907295,0.79476805 1.9869352,0.64931342 1.9687374,0.45340873 2.0440847,0.29262181 c 0.026908,-0.057419 0.047545,-0.0875064 0.09327,-0.13597734 0.06127,-0.06494892 0.1447405,-0.11404164 0.2359179,-0.13875304 0.063047,-0.0170873283 0.180021,-0.0170873283 0.243068,0 C 2.8215702,0.07351387 2.9675094,0.24350059 2.9884985,0.45137261 3.0130292,0.6943206 2.8599393,0.919387 2.6246271,0.98632101 2.5697993,1.0019167 2.4502319,1.0062653 2.398132,0.99455853 Z"
       id="path5278"
       inkscape:connector-curvature="0"
       transform="matrix(0.26458333,0,0,0.26458333,0.56794775,3.5678523)" />
    <path
       style="fill:#000000;stroke:none;stroke-width:0.00552427"
       d="M 0.40939414,0.99455853 C 0.21809672,0.95157428 0.07294017,0.81322701 0.02427356,0.62750387 0.00537901,0.55539787 0.00440349,0.458695 0.02185236,0.38749181 0.07987097,0.15073667 0.29634745,-0.01044242 0.53603194,0.00465579 c 0.0884716,0.005573 0.16465319,0.03051784 0.23789017,0.07789462 0.1272237,0.08230061 0.21217098,0.22138185 0.22555938,0.36930065 0.0224526,0.24806331 -0.12633517,0.46627077 -0.36455138,0.53463943 -0.0537536,0.0154274 -0.17368957,0.0197178 -0.22553597,0.008068 z"
       id="path5280"
       inkscape:connector-curvature="0"
       transform="matrix(0.26458333,0,0,0.26458333,0.56794775,3.5678523)" />
    <path
       style="fill:#000000;stroke:none;stroke-width:0.00552427"
       d="M 2.3662686,0.98350009 C 2.1526168,0.91869829 2.0138549,0.7449643 2.0022045,0.52768122 1.9948719,0.39092573 2.0400803,0.26592906 2.1325329,0.1673367 2.1961117,0.0995357 2.2590491,0.05921899 2.3523174,0.02654624 2.3930612,0.0122733 2.400702,0.01146456 2.4948067,0.01146456 c 0.094105,0 0.1017456,8.0874e-4 0.1424894,0.01508168 0.090483,0.03169704 0.1555714,0.07264266 0.2139655,0.13460072 0.062246,0.0660454 0.092849,0.11997587 0.1184414,0.20872484 0.074959,0.25994414 -0.082105,0.53754626 -0.347838,0.61478513 -0.017144,0.004983 -0.062197,0.008914 -0.1187719,0.0103624 -0.085167,0.002181 -0.094149,0.001425 -0.1368245,-0.0115192 z"
       id="path5282"
       inkscape:connector-curvature="0"
       transform="matrix(0.26458333,0,0,0.26458333,0.56794775,3.5678523)" />
    <path
       style="fill:#000000;stroke:none;stroke-width:0.00552427"
       d="M 4.4458615,0.99703229 C 4.3411095,0.98459097 4.2250745,0.92583531 4.1484597,0.84643949 3.9923259,0.68463843 3.9671389,0.42419204 4.0894989,0.23675525 4.152332,0.14050467 4.2559139,0.05912623 4.3523431,0.03025346 c 0.012913,-0.0038664 0.023489,-0.0085008 0.023502,-0.0102986 4.07e-5,-0.0056289 0.054711,-0.0088098 0.1436074,-0.0083555 0.077805,3.9763e-4 0.089558,0.001789 0.1286787,0.01523306 0.106177,0.0364889 0.1869495,0.09313634 0.2494105,0.17491672 0.088906,0.11640469 0.1231843,0.2786113 0.088317,0.41792122 C 4.9386273,0.80838355 4.7889731,0.95319173 4.6049918,0.98820462 4.5459563,0.9994395 4.491544,1.002458 4.4458615,0.99703229 Z"
       id="path5284"
       inkscape:connector-curvature="0"
       transform="matrix(0.26458333,0,0,0.26458333,0.56794775,3.5678523)" />
  </g>
</svg>
