<!DOCTYPE svg PUBLIC "-//W3C//DTD SVG 1.1//EN" "http://www.w3.org/Graphics/SVG/1.1/DTD/svg11.dtd" [
	<!ENTITY ns_flows "http://ns.adobe.com/Flows/1.0/">
]><svg xmlns="http://www.w3.org/2000/svg" width="24" height="24" viewBox="-2 0 24 24" preserveAspectRatio="xMinYMid meet" overflow="visible"><linearGradient id="a" gradientUnits="userSpaceOnUse" x1="12.001" x2="12.001" y2="24"><stop offset="0" stop-color="#90C50E"/><stop offset="1" stop-color="#70A034"/></linearGradient><path fill="url(#a)" d="M4 0h16v24H4z"/><linearGradient id="b" gradientUnits="userSpaceOnUse" x1="12.001" y1="1" x2="12.001" y2="23"><stop offset="0" stop-color="#D9F991"/><stop offset=".239" stop-color="#D7F88D"/><stop offset=".45" stop-color="#D1F383"/><stop offset=".651" stop-color="#C6EC71"/><stop offset=".844" stop-color="#B7E257"/><stop offset="1" stop-color="#A8D73D"/></linearGradient><path fill="url(#b)" d="M5 1h14v22H5z"/><linearGradient id="c" gradientUnits="userSpaceOnUse" x1="12.001" y1="2" x2="12.001" y2="22"><stop offset="0" stop-color="#B3E810"/><stop offset="1" stop-color="#90C60D"/></linearGradient><path fill="url(#c)" d="M6 2h12v20H6z"/><linearGradient id="d" gradientUnits="userSpaceOnUse" x1="12.001" y1="4" x2="12.001" y2="9"><stop offset="0" stop-color="#90C50E"/><stop offset="1" stop-color="#70A034"/></linearGradient><path d="M7 4v5h10V4H7zm9 4H8V5h8v3z" fill="url(#d)"/><linearGradient id="e" gradientUnits="userSpaceOnUse" x1="2.5" x2="2.5" y2="24"><stop offset="0" stop-color="#656565"/><stop offset=".013" stop-color="#646464"/><stop offset=".445" stop-color="#3C3C3C"/><stop offset=".789" stop-color="#242424"/><stop offset="1" stop-color="#1B1B1B"/></linearGradient><path d="M4 0H1C.5 0 0 .5 0 1v22c0 .5.5 1 1 1h4V0H4z" fill="url(#e)"/><linearGradient id="f" gradientUnits="userSpaceOnUse" x1="2.5" y1="1" x2="2.5" y2="23"><stop offset="0" stop-color="#8E8E8E"/><stop offset=".042" stop-color="#8A8A8A"/><stop offset=".461" stop-color="#626262"/><stop offset=".795" stop-color="#4A4A4A"/><stop offset="1" stop-color="#414141"/></linearGradient><path fill="url(#f)" d="M1 1h3v22H1z"/><linearGradient id="g" gradientUnits="userSpaceOnUse" x1="2.5" y1="2" x2="2.5" y2="22"><stop offset="0" stop-color="#7C7C7C"/><stop offset=".39" stop-color="#5C5C5C"/><stop offset=".768" stop-color="#444"/><stop offset="1" stop-color="#3B3B3B"/></linearGradient><path fill="url(#g)" d="M2 2h1v20H2z"/></svg>