<?xml version="1.0" encoding="utf-8"?>
<!-- Generator: Adobe Illustrator 25.2.1, SVG Export Plug-In . SVG Version: 6.00 Build 0)  -->
<svg width="24px" height="24px" version="1.1" id="Layer_1" xmlns="http://www.w3.org/2000/svg" xmlns:xlink="http://www.w3.org/1999/xlink" x="0px" y="0px"
	 viewBox="0 0 74.4 74.4" style="enable-background:new 0 0 74.4 74.4;" xml:space="preserve" preserveAspectRatio="xMinYMid meet">
<path id="book-2-6_1_" d="M74.4,5.6c0-1.3-1.1-2.5-2.5-2.5c-0.4,0-0.7,0.1-1,0.3l-6.6,3.3V2.5c0-1.3-1.1-2.5-2.6-2.5
	c-0.4,0-0.7,0.1-1,0.2L37.1,12L13.5,0.3c-1.2-0.6-2.7-0.1-3.3,1.1C10,1.6,10,2,9.9,2.3v4.2L3.5,3.3C2.3,2.7,0.7,3.2,0.2,4.4
	C0,4.7,0,5.1,0,5.4v49.1c0,0.9,0.5,1.7,1.3,2.2L36,73.8c0.7,0.3,1.5,0.3,2.3,0L73,56.7c0.8-0.4,1.3-1.2,1.3-2.2L74.4,5.6L74.4,5.6z
	 M36.3,62.4c0.4,0.1,0.9,0.1,1.3,0c0.1,0,0.2-0.1,0.3-0.1l0,0c0,0,24.7-12.2,24.8-12.2c0.8-0.4,1.3-1.2,1.3-2.2V12.3l5.2-2.6v42.9
	L36.9,68.6L5.3,51.8V10.2l5,2.1v35.6c0,0.9,0.5,1.7,1.3,2.2c0.1,0,24.1,12.2,24.2,12.2l0,0C36.1,62.3,36.2,62.3,36.3,62.4L36.3,62.4
	L36.3,62.4z M39.8,55.7V16.8l19-9.4v39L39.8,55.7z M15.5,46.2V7.3l19,9.4v38.8L15.5,46.2z"/>
</svg>
