<?xml version="1.0" encoding="utf-8"?>
<!-- Generator: Adobe Illustrator 17.1.0, SVG Export Plug-In . SVG Version: 6.00 Build 0)  -->
<!DOCTYPE svg PUBLIC "-//W3C//DTD SVG 1.1//EN" "http://www.w3.org/Graphics/SVG/1.1/DTD/svg11.dtd">
<svg version="1.1" id="Layer_1" xmlns="http://www.w3.org/2000/svg" xmlns:xlink="http://www.w3.org/1999/xlink" x="0px" y="0px"
	 viewBox="0 0 345 150" enable-background="new 0 0 345 150" xml:space="preserve" preserveAspectRatio="xMinYMid meet">
<g>
	<path fill="#FFFFFF" d="M325.7,14.7C317.6,6.9,305.3,3,289,3h-43.5H234v31h-66l-5.4,22.2c4.5-2.1,10.9-4.2,15.3-5.3
		c4.4-1.1,8.8-0.9,13.1-0.9c14.6,0,26.5,4.5,35.6,13.3c9.1,8.8,13.6,20,13.6,33.4c0,9.4-2.3,18.5-7,27.2c-4.7,8.7-11.3,15.4-19.9,20
		c-3.1,1.6-6.5,3.1-10.2,4.1h42.4H259V95h25c18.2,0,31.7-4.2,40.6-12.5c8.9-8.3,13.3-19.9,13.3-34.6
		C337.9,33.6,333.8,22.5,325.7,14.7z M288.7,60.6c-3.5,3-9.6,4.4-18.3,4.4H259V33h13.2c8.4,0,14.2,1.5,17.2,4.7
		c3.1,3.2,4.6,6.9,4.6,11.5C294,53.9,292.2,57.6,288.7,60.6z"/>
	<path fill="#FFFFFF" d="M176.5,76.3c-7.9,0-14.7,4.6-18,11.2L119,81.9L136.8,3h-23.6H101v62H51V3H7v145h44V95h50v53h12.2h42
		c-6.7-2-12.5-4.6-17.2-8.1c-4.8-3.6-8.7-7.7-11.7-12.3c-3-4.6-5.3-9.7-7.3-16.5l39.6-5.7c3.3,6.6,10.1,11.1,17.9,11.1
		c11.1,0,20.1-9,20.1-20.1S187.5,76.3,176.5,76.3z"/>
</g>
</svg>
