<?xml version="1.0" standalone="no"?>
<!DOCTYPE svg PUBLIC "-//W3C//DTD SVG 1.1//EN" "http://www.w3.org/Graphics/SVG/1.1/DTD/svg11.dtd" >
<svg xmlns="http://www.w3.org/2000/svg">
<metadata>
<json>
<![CDATA[
{
	"fontFamily": "h5p-core-26",
	"description": "Font generated by IcoMoon.",
	"majorVersion": 1,
	"minorVersion": 1,
	"copyright": "H5P",
	"fontURL": "",
	"version": "Version 1.1",
	"fontId": "h5p-core-26",
	"psName": "h5p-core-26",
	"subFamily": "Regular",
	"fullName": "h5p-core-26"
}
]]>
</json>
</metadata>
<defs>
<font id="h5p-core-26" horiz-adv-x="1024">
<font-face units-per-em="1024" ascent="960" descent="-64" />
<missing-glyph horiz-adv-x="1024" />
<glyph unicode="&#x20;" horiz-adv-x="512" d="" />
<glyph unicode="&#xe565;" glyph-name="arrow-down" data-tags="arrow-down" d="M234 544.334h556l-278-278z" />
<glyph unicode="&#xe566;" glyph-name="arrow-left" data-tags="arrow-left" d="M381 143.334v524l262-262z" />
<glyph unicode="&#xe58e;" glyph-name="colapse" data-tags="colapse" d="M512 563.334l256-256-60-60-196 196-196-196-60 60z" />
<glyph unicode="&#xe58f;" glyph-name="expand" data-tags="expand" d="M708 563.334l60-60-256-256-256 256 60 60 196-196z" />
<glyph unicode="&#xe600;" glyph-name="move" data-tags="move" d="M386.662 831.728h71.27v-71.27h-71.27v71.27zM566.067 831.728h71.27v-71.27h-71.27v71.27zM386.662 675.465h71.27v-71.27h-71.27v71.27zM566.067 675.465h71.27v-71.27h-71.27v71.27zM386.662 519.1h71.27v-71.27h-71.27v71.27zM566.067 519.1h71.27v-71.27h-71.27v71.27zM386.662 362.838h71.27v-71.27h-71.27v71.27zM566.067 362.838h71.27v-71.27h-71.27v71.27zM386.662 206.473h71.27v-71.27h-71.27v71.27zM566.067 206.473h71.27v-71.27h-71.27v71.27zM386.662 50.211h71.27v-71.27h-71.27v71.27zM566.067 50.211h71.27v-71.27h-71.27v71.27z" />
<glyph unicode="&#xe601;" glyph-name="check-mark" data-tags="check-mark" d="M454.301 373.92l-116.917 116.917-84.781-84.707 201.696-201.697 317.097 317.097-84.781 84.706z" />
<glyph unicode="&#xe602;" glyph-name="drag-text" data-tags="drag-text" d="M664.59 368.273c-11.375 15.656-27.155 24.342-47.213 24.342-21.285 0-37.429-12.844-48.315-23.852h-1.833c1.224 11.007-0.247 23.852-0.247 30.824v51.006h-50.15v-233.623h41.222l7.828 19.57h3.179c11.375-19.57 27.032-21.894 47.091-21.894 20.182 0 36.205 7.706 47.948 23.118s17.615 37.553 17.615 65.685c0 27.276-5.749 49.048-17.123 64.827zM625.816 265.403c-5.625-8.807-13.333-13.21-22.875-13.21-11.741 0-21.285 3.915-26.663 11.865s-9.173 21.038-9.173 39.262v5.015c0 16.267 3.915 27.888 9.296 34.98 5.26 7.093 14.312 10.643 25.808 10.643 9.907 0 17.736-4.16 23.485-12.597s8.563-20.916 8.563-37.673c0-16.758-2.814-29.479-8.441-38.285zM793.389 252.192c8.929 0 17.247 1.224 24.83 3.546s13.087 6.115 22.875 11.131v-39.753c-9.786-4.771-15.168-8.073-22.75-9.907-7.706-1.833-17.368-2.69-28.991-2.69-52.963 0-79.505 29.111-79.505 87.335 0 28.991 7.217 51.006 21.649 66.297s35.105 22.875 62.016 22.875c19.692 0 37.306-3.915 52.963-11.622l-13.7-35.962c-7.34 2.936-14.066 5.382-20.428 7.217-6.237 1.833-12.597 2.814-18.837 2.814-24.219 0-36.205-17.123-36.205-51.495-0.247-33.147 11.865-49.783 36.083-49.783zM443.199 377.69c-12.233 9.907-25.565 14.923-48.315 14.923-23.852 0-45.622-5.137-65.195-15.411l15.168-31.313c18.348 8.195 33.272 12.352 46.848 12.352 17.736 0 24.83-8.684 24.83-25.931v-7.46l-27.888-0.979c-25.442-0.856-43.178-5.749-55.9-14.312-12.597-8.563-18.837-22.018-18.837-40.12 0-17.247 4.771-30.824 14.188-40.243 9.419-9.296 22.262-14.557 38.651-14.557 13.333 0 24.096 0.856 32.415 4.771 8.316 3.792 16.391 8.563 24.219 18.348h1.224l9.052-19.57h23.363v114.12c0 20.303-1.591 35.473-13.822 45.38zM416.655 283.751c0-10.275-1.591-18.469-8.073-24.709s-13.7-9.296-24.462-9.296c-15.045 0-22.383 6.605-22.383 19.692 0 9.173 3.424 15.902 10.031 20.428s15.045 6.85 28.5 7.34l16.391 0.489v-13.942zM904.086 488.752c8.073 0 14.677-6.605 14.677-14.677v-290.868c0-8.073-6.605-14.677-14.677-14.677h-621.612c-8.073 0-14.677 6.605-14.677 14.677v290.868c0 8.073 6.605 14.677 14.677 14.677h621.612zM904.086 525.448h-621.612c-28.378 0-51.373-22.994-51.373-51.373v-290.868c0-28.378 22.994-51.373 51.373-51.373h621.612c28.378 0 51.373 22.994 51.373 51.373v290.868c0 28.378-22.994 51.373-51.373 51.373v0zM251.527 265.893h-65.439v32.781h65.439v-32.781zM133.614 265.893h-35.595c-16.267 0-29.479 13.21-29.479 29.479v9.419h32.781v-6.115h32.291v-32.781zM101.445 370.228h-32.781v65.439h32.781v-65.439zM101.445 501.108h-32.781v65.439h32.781v-65.439zM760.609 511.993h-32.781v65.439h32.781v-65.439zM101.445 632.106h-32.781v17.247c0 16.267 13.21 29.479 29.479 29.479h27.643v-32.781h-24.342v-13.942zM727.584 646.053h-24.342v32.781h27.643c16.267 0 29.479-13.21 29.479-29.479v-17.247h-32.781v13.942zM649.668 646.053h-65.439v32.781h65.439v-32.781zM518.666 646.053h-65.439v32.781h65.439v-32.781zM387.664 646.053h-65.439v32.781h65.439v-32.781zM256.787 646.053h-65.439v32.781h65.439v-32.781z" />
<glyph unicode="&#xe603;" glyph-name="mark-the-words" data-tags="mark-the-words" d="M530.856 435.878c-14.608 0-24.039-4.517-30.676-13.41s-9.298-23.772-9.298-44.357v-6.375c0-23.241 2.257-39.841 9.164-49.802 6.908-10.092 17.264-15.007 32.139-15.007 12.084 0 21.38 5.578 28.553 16.732s10.625 27.358 10.625 48.606c0 21.248-3.717 37.184-10.891 47.809-7.303 10.492-17.132 15.804-29.616 15.804zM646.264 624.46h-249.671c-42.629 0-78.621-35.326-78.621-77.955v-269.991c0-42.629 35.989-90.307 78.621-90.307h249.671c42.629 0 76.894 34.795 76.894 77.423v282.873c0 42.629-34.263 77.955-76.894 77.955zM608.944 288.467c-14.876-19.522-35.061-28.553-60.692-28.553-25.366 0-45.286 3.188-59.631 28.419h-4.117l-9.828-25.232h-47.676v296.286h63.746v-65.737c0-8.898-3.055-23.241-4.517-36.52h2.257c13.811 13.282 34.129 28.95 61.223 28.95 25.499 0 45.417-11.555 59.895-31.342 14.477-19.922 21.646-47.942 21.646-82.603 0-35.724-7.437-64.012-22.312-83.667zM874.152 309.583c11.155 0 21.115 1.46 30.676 4.517 9.562 2.921 16.203 7.7 28.155 13.945v-49.802c-11.951-5.977-18.46-10.092-28.021-12.351s-21.514-3.452-36.124-3.452c-66.402 0-99.471 36.388-99.471 109.296 0 36.255 9.030 63.879 27.093 83.003s43.957 28.686 77.691 28.686c24.701 0 46.747-4.781 66.402-14.477l-17.132-45.022c-9.164 3.717-17.662 6.773-25.632 9.030-7.835 2.39-15.804 3.588-23.64 3.588-30.278 0-45.417-21.514-45.417-64.409 0.132-41.702 15.138-62.549 45.417-62.549zM244.4 480.235c-15.271 12.485-31.608 18.725-60.159 18.725-29.88 0-56.84-6.375-81.407-19.255l19.126-39.309c22.975 10.358 41.702 15.404 58.699 15.404 22.179 0 31.209-10.758 31.209-32.404v-9.298l-34.927-1.197c-31.872-1.197-54.052-7.171-69.987-17.929-15.804-10.758-23.506-27.624-23.506-50.199 0-21.646 5.977-38.647 17.795-50.333 11.688-11.688 27.89-18.195 48.342-18.195 16.601 0 30.147 1.46 40.505 6.24s20.452 11.42 30.278 23.373h1.593l11.287-23.906h27.757v141.435c0 25.499-1.328 44.357-16.601 56.84zM211.862 362.569c0-12.881-1.989-23.109-9.96-30.943-8.099-7.7-17.132-11.688-30.676-11.688-18.858 0-28.021 8.233-28.021 24.569 0 11.42 4.25 19.922 12.485 25.499s18.858 8.633 35.724 9.164l20.452 0.93v-17.53z" />
<glyph unicode="&#xe604;" glyph-name="multiple-choice" data-tags="multiple-choice" d="M284.42 691.344l-127.695-127.695c-2.611-2.611-6.398-4.178-10.055-4.178s-7.444 1.434-10.055 4.178l-73.901 73.901c-2.611 2.742-4.178 6.398-4.178 10.055s1.434 7.444 4.178 10.055l20.238 20.238c2.611 2.611 6.398 4.178 10.055 4.178s7.444-1.434 10.055-4.178l43.611-43.74 97.402 97.535c2.611 2.611 6.398 4.178 10.055 4.178s7.444-1.434 10.055-4.178l20.238-20.238c2.611-2.611 4.178-6.398 4.178-10.055s-1.568-7.311-4.178-10.055zM249.426 340.503l-21.281-21.281c-2.874-2.874-6.791-4.44-10.575-4.44-3.917 0-7.834 1.568-10.575 4.44l-45.961 45.961-46.091-45.961c-2.874-2.874-6.791-4.44-10.575-4.44-3.917 0-7.834 1.568-10.575 4.44l-21.414 21.281c-2.874 2.874-4.44 6.791-4.44 10.575 0 3.917 1.568 7.834 4.44 10.575l45.961 45.961-45.961 46.091c-2.874 2.874-4.44 6.791-4.44 10.575 0 3.917 1.568 7.834 4.44 10.575l21.281 21.281c2.874 2.874 6.791 4.44 10.575 4.44 3.917 0 7.834-1.568 10.575-4.44l45.961-45.961 45.961 45.961c2.874 2.874 6.791 4.44 10.575 4.44 3.917 0 7.834-1.568 10.575-4.44l21.281-21.281c2.874-2.874 4.44-6.791 4.44-10.575 0-3.917-1.568-7.834-4.44-10.575l-45.961-45.961 45.961-45.961c2.874-2.874 4.44-6.791 4.44-10.575 0.262-3.917-1.305-7.834-4.178-10.709zM249.426 100.518l-21.281-21.281c-2.874-2.874-6.791-4.44-10.575-4.44-3.917 0-7.834 1.568-10.575 4.44l-45.961 45.961-45.961-45.961c-2.874-2.874-6.791-4.44-10.575-4.44-3.917 0-7.834 1.568-10.575 4.44l-21.544 21.281c-2.874 2.874-4.44 6.791-4.44 10.575 0 3.917 1.568 7.834 4.44 10.575l45.961 45.961-45.961 46.222c-2.874 2.874-4.44 6.791-4.44 10.575 0 3.917 1.568 7.834 4.44 10.575l21.281 21.281c2.874 2.874 6.791 4.44 10.575 4.44 3.917 0 7.834-1.568 10.575-4.44l45.961-45.961 45.961 45.961c2.874 2.874 6.791 4.44 10.575 4.44 3.917 0 7.834-1.568 10.575-4.44l21.281-21.281c2.874-2.874 4.44-6.791 4.44-10.575 0-3.917-1.568-7.834-4.44-10.575l-45.961-45.961 45.961-45.961c2.874-2.874 4.44-6.791 4.44-10.575 0.262-4.048-1.305-7.965-4.178-10.837zM965.466 611.696c0-20.238-16.323-36.559-36.559-36.559h-581.029c-20.238 0-36.559 16.323-36.559 36.559v26.115c0 20.238 16.323 36.559 36.559 36.559h581.029c20.238 0 36.559-16.323 36.559-36.559v-26.115zM965.466 385.813c0-20.238-16.323-36.559-36.559-36.559h-581.029c-20.238 0-36.559 16.323-36.559 36.559v26.115c0 20.238 16.323 36.559 36.559 36.559h581.029c20.238 0 36.559-16.323 36.559-36.559v-26.115zM965.466 159.929c0-20.238-16.323-36.559-36.559-36.559h-581.029c-20.238 0-36.559 16.323-36.559 36.559v26.115c0 20.238 16.323 36.559 36.559 36.559h581.029c20.238 0 36.559-16.323 36.559-36.559v-26.115z" />
<glyph unicode="&#xe888;" glyph-name="arrow-up-circle" data-tags="arrow-up-circle" d="M513.344 667.735c-148.616 0-264.722-120.75-260.077-269.367 0-125.395 88.241-232.212 208.991-255.434v213.636h-92.885c-13.933 0-13.933 9.288-9.288 18.577l139.327 171.838c4.645 9.288 13.933 9.288 23.221 4.645 0 0 4.645-4.645 4.645-4.645l139.327-171.838c9.288-9.288 4.645-18.577-9.288-18.577h-92.885v-213.636c143.972 32.51 232.212 171.838 199.703 315.808-23.221 120.75-130.039 204.347-250.789 208.991z" />
<glyph unicode="&#xe889;" glyph-name="info-circle" data-tags="info-circle" d="M512 665.6c-144.077 0-260.266-116.191-260.266-260.266s116.191-260.266 260.266-260.266 260.266 116.191 260.266 260.266v0c0 139.429-116.191 255.619-260.266 260.266zM470.171 614.477h88.305v-69.714h-88.305v69.714zM600.305 224.077h-181.257v51.123h51.123v162.666h-51.123v51.123h139.429v-218.438h46.477l-4.648-46.477z" />
<glyph unicode="&#xe88a;" glyph-name="search" data-tags="search" d="M769.263 201.83l-110.68 110.68c71.943 99.612 49.806 243.494-49.806 315.437s-243.494 44.27-315.437-55.339c-71.943-99.612-49.806-243.494 49.806-315.437 77.475-55.339 182.623-55.339 260.098 0l110.68-110.68c5.533-5.533 11.068-5.533 16.601 0 0 0 0 0 0 0l33.205 33.205c11.068 5.533 11.068 16.601 5.533 22.137 0 0 0 0 0 0zM475.96 279.305c-88.544 0-160.486 71.943-160.486 160.486s71.943 160.486 160.486 160.486 160.486-71.943 160.486-160.486-71.943-160.486-160.486-160.486v0z" />
<glyph unicode="&#xe88c;" glyph-name="fullscreen" data-tags="fullscreen" d="M357.075 551.65c5.737 5.737 0 5.737-5.737 5.737l-103.284 11.476c-5.737 5.737-11.476 0-11.476-5.737l11.476-109.021c0-5.737 5.737-5.737 5.737-5.737l103.284 103.284zM282.484 488.532l63.118-63.118c5.737-5.737 11.476-5.737 17.213 0l22.953 22.953c5.737 5.737 5.737 11.476 0 17.213l-63.118 57.379-40.166-34.429zM775.945 448.366c5.737-5.737 5.737 0 5.737 5.737l11.476 109.021c0 5.737-5.737 11.476-11.476 11.476l-109.021-11.476c-5.737 0-5.737-5.737-5.737-5.737l109.021-109.021zM712.83 522.961l-63.118-63.118c-5.737-5.737-5.737-11.476 0-17.213l22.953-22.953c5.737-5.737 11.476-5.737 17.213 0l63.118 63.118-40.166 40.166zM678.401 241.801c-5.737-5.737 0-5.737 5.737-5.737l109.021-11.476c5.737 0 11.476 5.737 11.476 11.476l-17.213 103.284c0 5.737-5.737 5.737-5.737 5.737l-103.284-103.284zM747.256 310.656l-63.118 63.118c-5.737 5.737-11.476 5.737-17.213 0l-22.953-22.953c-5.737-5.737-5.737-11.476 0-17.213l63.118-63.118 40.166 40.166zM253.794 345.085c-5.737 5.737-5.737 0-5.737-5.737l-11.476-109.021c0-5.737 5.737-11.476 11.476-11.476l109.021 11.476c5.737 0 5.737 5.737 5.737 5.737l-109.021 109.021zM322.649 270.491l63.118 63.118c5.737 5.737 5.737 11.476 0 17.213l-22.953 22.953c-5.737 5.737-11.476 5.737-17.213 0l-63.118-63.118 40.166-40.166zM150.51 654.934v-499.201h722.979v499.201h-722.979zM833.324 195.899h-636.911v413.13h636.911v-413.13z" />
<glyph unicode="&#xe88e;" glyph-name="h5p" data-tags="h5p" d="M891.406 553.191c-22.319 16.738-50.216 27.897-89.273 27.897h-139.487v-66.954h-156.225l-11.159-55.795c11.159 5.579 27.897 11.159 39.057 11.159s22.319 0 33.476 0c33.476 0 66.954-11.159 89.273-33.476s33.476-50.216 33.476-83.692c0-22.319-5.579-44.635-16.738-66.954s-27.897-39.057-50.216-50.216c-5.579-5.579-16.738 0-22.319-11.159h117.17v133.908h66.954c44.635 0 78.113 11.159 100.43 27.897 22.319 22.319 33.476 50.216 33.476 83.692 0 39.057-11.159 66.954-27.897 83.692v0zM796.555 441.602c-11.159-5.579-22.319-11.159-44.635-11.159h-33.476v83.692h39.057c22.319 0 33.476-5.579 44.635-11.159 5.579-5.579 11.159-16.738 11.159-27.897 0-16.738-5.579-27.897-16.738-33.476v0zM523.16 402.545c-16.738 0-33.476-11.159-44.635-27.897l-94.851 16.738 44.635 195.281h-94.851v-150.646h-117.17v150.646h-111.589v-362.667h111.589v133.908h117.17v-133.908h139.487c-16.738 11.159-33.476 11.159-44.635 22.319s-22.319 22.319-27.897 33.476c-5.579 11.159-11.159 22.319-16.738 39.057l94.851 16.738c5.579-16.738 22.319-27.897 44.635-27.897 27.897 0 50.216 22.319 50.216 50.216 0 22.319-22.319 44.635-50.216 44.635v0z" />
<glyph unicode="&#xe88f;" glyph-name="rights-of-use" data-tags="rights-of-use" d="M878.277 393.017c0-5.907 0-5.907 0-5.907-23.631-23.631-47.261-35.448-76.799-41.355-11.813 0-23.631-5.907-35.448-5.907s-17.724 0-29.537 0c0 0-5.907 0-5.907 5.907-64.985 59.079-135.877 118.153-200.863 183.139 0 0-5.907 0-5.907 0-23.631-5.907-47.261-11.813-70.892-17.724s-53.168 0-76.799 11.813c-17.724 11.813-23.631 17.724-29.537 35.448-5.907 5.907 0 23.631 11.813 23.631 41.355 11.813 88.616 29.537 129.971 47.261 11.813 5.907 29.537 5.907 41.355 5.907 5.907 0 11.813-5.907 11.813-5.907 41.355-17.724 82.709-29.537 124.060-47.261 0 0 5.907 0 5.907 0 29.537 5.907 64.985 17.724 94.523 23.631 5.907 0 5.907 0 5.907 0l106.34-212.676zM269.786 398.927c17.724 11.813 35.448 5.907 53.168-11.813 11.813-11.813 11.813-29.537 5.907-47.261 17.724 5.907 35.448-5.907 41.355-17.724 11.813-17.724 5.907-35.448-5.907-47.261 5.907 0 11.813 0 17.724 0 11.813-5.907 23.631-11.813 29.537-29.537s0-29.537-5.907-35.448c-5.907-5.907-11.813-11.813-17.724-17.724s-11.813-11.813-17.724-17.724-35.448-17.724-53.168 0c-29.537 29.537-53.168 64.985-82.709 94.523-17.724 23.631-35.448 41.355-47.261 64.985-5.907 11.813-11.813 17.724-11.813 29.537 0 5.907 0 17.724 5.907 23.631 11.813 11.813 17.724 17.724 29.537 29.537 17.724 17.724 47.261 11.813 64.985-5.907-5.907 0-5.907-5.907-5.907-11.813v0zM417.477 192.158l29.537-29.537c17.724-17.724 47.261-11.813 59.079 5.907l-5.907 5.907c-23.631 23.631-47.261 47.261-70.892 70.892-5.907 5.907-5.907 5.907-5.907 11.813s5.907 5.907 11.813 11.813c5.907 0 11.813 0 11.813-5.907 11.813-11.813 29.537-29.537 47.261-47.261 11.813-11.813 29.537-29.537 47.261-47.261 5.907-11.813 17.724-11.813 29.537-11.813 11.813 5.907 23.631 11.813 29.537 23.631 0 5.907 0 5.907 0 5.907-41.355 41.355-88.616 82.709-129.971 129.971-5.907 5.907-5.907 5.907-5.907 11.813 0 11.813 11.813 11.813 23.631 5.907 0 0 5.907 0 5.907-5.907 41.355-41.355 88.616-88.616 129.971-129.971 5.907-5.907 5.907-5.907 5.907-5.907 17.724 0 35.448 17.724 35.448 35.448 0 5.907 0 5.907 0 5.907-47.261 47.261-100.429 100.429-147.691 147.691-5.907 5.907-5.907 5.907-5.907 11.813s5.907 11.813 5.907 11.813c5.907 0 11.813 0 11.813-5.907 5.907-5.907 5.907-5.907 11.813-11.813 35.448-35.448 70.892-70.892 106.34-106.34 11.813-11.813 23.631-23.631 29.537-29.537 0 0 5.907-5.907 5.907 0 23.631 5.907 35.448 29.537 29.537 53.168h35.448c0 0 0 0 0 0 0-5.907 0-17.724 0-23.631-5.907-29.537-23.631-47.261-53.168-59.079 0 0-5.907 0-5.907-5.907-11.813-29.537-35.448-53.168-64.985-53.168-5.907 0-5.907 0-5.907-5.907-17.724-35.448-59.079-47.261-88.616-35.448-5.907 0-11.813 5.907-11.813 5.907-5.907-5.907-11.813-11.813-23.631-17.724-29.537-11.813-59.079-5.907-76.799 11.813-11.813 11.813-17.724 17.724-29.537 29.537 17.724 23.631 23.631 29.537 29.537 41.355v0 0zM252.062 706.126c29.537-11.813 64.985-23.631 94.523-29.537 35.448-11.813 64.985-23.631 100.429-29.537 0 0 0 0 5.907 0-17.724-5.907-35.448-11.813-47.261-17.724 0 0-5.907 0-5.907 0-47.261 11.813-94.523 23.631-135.877 41.355-5.907 0-5.907 0-5.907 0l-76.799-183.139c0-11.813 5.907-17.724 11.813-23.631s5.907-5.907 5.907-11.813c-5.907-5.907-11.813-17.724-23.631-23.631-17.724 17.724-29.537 35.448-29.537 64.985l88.616 212.676c-5.907-11.813 5.907 5.907 17.724 0v0z" />
<glyph unicode="&#xe890;" glyph-name="delete-circle" data-tags="delete-circle" d="M512 665.6c-147.107 0-260.266-118.817-260.266-260.266s118.817-260.266 260.266-260.266 260.266 118.817 260.266 260.266-113.158 260.266-260.266 260.266zM653.449 326.122c5.659-5.659 5.659-16.973 0-28.29l-33.949-33.949c-5.659-5.659-16.973-5.659-28.29 0l-79.212 79.212-79.212-79.212c-5.659-5.659-16.973-5.659-28.29 0l-33.949 33.949c-5.659 5.659-5.659 16.973 0 28.29l84.871 79.212-79.212 79.212c-5.659 5.659-5.659 16.973 0 28.29l33.949 33.949c5.659 5.659 16.973 5.659 28.29 0l73.554-84.871 79.212 79.212c5.659 5.659 16.973 5.659 28.29 0l33.949-33.949c5.659-5.659 5.659-16.973 0-28.29l-79.212-73.554 79.212-79.212z" />
<glyph unicode="&#xe891;" glyph-name="window" data-tags="window" d="M186.821 527.986c-5.704-5.704 0-5.704 5.704-5.704l108.394-11.41c5.704 0 11.41 5.704 11.41 11.41l-17.114 102.687c0 5.704-5.704 5.704-5.704 5.704l-102.687-102.687zM255.28 590.741l-62.752 62.752c-5.704 5.704-11.41 5.704-17.114 0l-17.114-22.821c-5.704-5.704-5.704-11.41 0-17.114l62.752-62.752 34.228 39.935zM734.49 624.969c-5.704 5.704-5.704 0-5.704-5.704l-11.41-108.394c0-5.704 5.704-11.41 11.41-11.41l108.394 11.41c5.704 0 5.704 5.704 5.704 5.704l-108.394 108.394zM797.242 550.807l62.752 62.752c5.704 5.704 5.704 11.41 0 17.114l-22.821 22.821c-5.704 5.704-11.41 5.704-17.114 0l-62.752-62.752 39.935-39.935zM831.473 288.384c5.704 5.704 0 5.704-5.704 5.704l-102.687 17.114c-5.704 0-11.41-5.704-11.41-11.41l11.41-108.394c0-5.704 5.704-5.704 5.704-5.704l102.687 102.687zM763.014 225.629l62.752-62.752c5.704-5.704 11.41-5.704 17.114 0l22.821 22.821c5.704 5.704 5.704 11.41 0 17.114l-62.752 62.752-39.935-39.935zM283.804 191.401c5.704-5.704 5.704 0 5.704 5.704l11.41 108.394c0 5.704-5.704 11.41-11.41 11.41l-108.394-11.41c-5.704 0-5.704-5.704-5.704-5.704l108.394-108.394zM221.052 259.86l-62.752-62.752c-5.704-5.704-5.704-11.41 0-17.114l22.821-22.821c5.704-5.704 11.41-5.704 17.114 0l62.752 62.752-39.935 39.935zM335.149 533.693v-239.605h347.998v239.605h-347.998zM637.507 334.022h-262.424v154.032h262.424v-154.032z" />
<glyph unicode="&#xe892;" glyph-name="code" data-tags="code" d="M446.523 289.97c6.235-6.235 6.235-12.472 6.235-18.707v-62.359c0-6.235-6.235-6.235-6.235-6.235l-230.728 155.897c-6.235 6.235-6.235 12.472-6.235 18.707v49.886c0 6.235 6.235 12.472 6.235 18.707l230.728 155.897c6.235 6.235 6.235 0 6.235-6.235v-62.359c0-6.235-6.235-12.472-6.235-18.707l-162.134-112.245c-6.235-6.235-6.235-6.235 0-12.472l162.134-99.776zM733.375 395.98c6.235 6.235 6.235 6.235 0 12.472l-155.897 112.245c-6.235 6.235-6.235 12.472-6.235 18.707v62.359c0 6.235 6.235 6.235 6.235 6.235l230.728-155.897c6.235-6.235 6.235-12.472 6.235-18.707v-49.886c0-6.235-6.235-12.472-6.235-18.707l-230.728-155.897c-6.235-6.235-6.235 0-6.235 6.235v62.359c0 6.235 6.235 12.472 6.235 18.707l155.897 99.776z" />
<glyph unicode="&#xe893;" glyph-name="download" data-tags="download" d="M353.050 490.694c-11.773 0-17.66-5.887-5.887-17.66l153.059-188.382c5.887-11.773 23.547-11.773 29.433 0l153.059 188.382c5.887 11.773 5.887 17.66-5.887 17.66h-323.782zM570.865 478.92v135.399c0 11.773-11.773 23.547-23.547 23.547h-70.643c-11.773 0-23.547-11.773-23.547-23.547v-141.286h117.739zM647.395 343.521c-5.887 0-17.66-5.887-23.547-11.773l-76.53-94.19c-5.887-5.887-17.66-17.66-23.547-23.547 0 0-5.887-5.887-11.773-5.887s-17.66 11.773-17.66 11.773c-5.887 5.887-17.66 17.66-23.547 23.547l-76.53 94.19c-5.887 5.887-17.66 11.773-23.547 11.773h-123.626c-5.887 0-17.66-5.887-17.66-17.66v-141.286c0-5.887 5.887-17.66 17.66-17.66h529.824c5.887 0 17.66 5.887 17.66 17.66v141.286c0 5.887-5.887 17.66-17.66 17.66l-129.513-5.887zM300.067 231.671c-17.66 0-29.433 11.773-29.433 29.433s11.773 29.433 29.433 29.433c17.66 0 29.433-11.773 29.433-29.433s-11.773-29.433-29.433-29.433v0z" />
<glyph unicode="&#xe894;" glyph-name="delete" data-tags="delete" d="M615.111 405.334l134.045 134.045c10.311 10.311 10.311 30.934 0 41.245l-61.866 61.866c-10.311 10.311-30.934 10.311-41.245 0l-134.045-134.045-134.045 134.045c-10.311 10.311-30.934 10.311-41.245 0l-61.866-61.866c-10.311-10.311-10.311-30.934 0-41.245l134.045-134.045-134.045-134.045c-10.311-10.311-10.311-30.934 0-41.245l61.866-61.866c10.311-10.311 30.934-10.311 41.245 0l134.045 134.045 134.045-134.045c10.311-10.311 30.934-10.311 41.245 0l61.866 61.866c10.311 10.311 10.311 30.934 0 41.245l-134.045 134.045z" />
<glyph unicode="&#xe900;" glyph-name="edit-image" data-tags="edit-image" d="M300.336 728.331c69.018 23.142 133.325 14.234 189.133-33.28 56.627-48.128 77.619-110.592 63.181-183.808-2.355-12.186 0.307-19.456 8.704-27.853 93.901-93.389 156.774-156.467 250.47-250.163 5.427-5.427 10.957-10.854 15.667-16.896 39.424-50.278 16.794-124.006-44.237-142.029-36.966-10.957-68.403 0-95.334 27.034-95.642 96.051-160.973 160.973-256.614 257.024-6.963 6.963-12.8 8.909-22.63 6.758-117.76-26.317-229.171 60.826-231.731 181.453-0.614 26.419 3.584 52.326 15.974 77.926 34.816-34.816 68.506-67.789 101.274-101.786 10.445-10.752 20.992-15.36 36.045-15.36 14.643 0 25.19 3.891 34.816 14.848 10.752 12.39 23.040 23.347 34.611 35.021 14.336 14.438 14.336 46.080-0.205 60.518-35.123 35.226-70.349 70.349-106.598 106.496 3.891 2.253 5.632 3.482 7.475 4.096zM703.485 170.251c-0.41-24.269 20.685-45.466 44.851-45.158 23.757 0.41 44.032 20.992 43.93 44.544-0.102 23.757-20.275 44.032-44.237 44.134-23.859 0.307-44.237-19.661-44.544-43.52z" />
<glyph unicode="&#xe901;" glyph-name="hourglass" data-tags="hourglass" d="M733.414 96.086c-147.763 0-295.526 0-443.29 0 0 2.048 0.102 4.096 0 6.144-0.307 13.824-1.024 32.666-0.922 46.49 0.41 39.731 6.861 78.131 19.046 115.2 17.203 52.224 43.725 96.256 81.306 130.355 4.506 4.096 9.216 7.885 13.722 11.776-0.205 0.717-0.307 1.126-0.41 1.229-1.331 1.229-2.765 2.355-4.198 3.584-28.058 22.63-50.688 51.405-68.403 85.606-30.618 59.085-43.52 123.597-41.165 192.614 0.205 7.168 0.614 18.33 0.922 25.498 147.763 0 295.526 0 443.29 0 0.205-1.331 0.512-2.662 0.614-3.994 2.662-36.966 1.229-77.722-5.939-113.869-14.336-72.909-44.544-133.837-95.027-179.405-4.096-3.686-8.294-7.066-12.39-10.547 0.205-0.717 0.307-1.126 0.512-1.331 0.819-0.717 1.638-1.434 2.458-2.15 42.189-33.894 71.68-79.872 90.931-135.782 11.776-34.202 18.637-69.837 20.070-106.701 0.819-19.763-0.614-44.851-1.126-64.717zM687.437 139.299c0 6.554 0.205 12.493 0 18.432-1.331 37.581-7.27 74.138-19.866 108.749-17.92 49.562-45.568 88.269-88.678 108.646-2.458 1.126-2.97 3.072-2.97 5.837 0.102 16.691 0.102 33.485 0 50.176 0 3.994 1.331 5.427 4.096 6.963 9.114 5.325 18.432 10.24 26.829 16.896 29.696 23.552 49.152 56.934 62.362 95.744 10.342 30.413 15.77 62.259 17.818 94.822 0.614 9.114 0.102 18.227 0.102 27.546-116.634 0-233.574 0-351.027 0 0.307-8.704 0.614-16.998 1.024-25.395 1.946-37.274 8.499-73.216 21.504-107.213 18.125-47.104 45.261-83.558 86.528-103.117 2.253-1.024 2.867-2.662 2.867-5.427-0.102-17.203-0.102-34.509 0-51.712 0-3.072-1.024-4.506-3.277-5.632-5.632-2.867-11.366-5.734-16.691-9.216-34.304-22.733-56.832-57.754-71.987-100.147-12.493-35.123-18.125-71.987-19.661-109.875-0.205-5.325 0-10.752 0-16.282 117.35 0.205 234.189 0.205 351.027 0.205zM410.342 558.627c68.096 0 135.373 0 203.674 0-3.789-6.554-7.168-12.595-10.752-18.227-10.957-16.998-24.269-30.618-39.731-41.472s-27.75-25.293-32.768-46.592c-1.638-6.963-2.765-14.336-2.867-21.606-0.307-17.203-0.205-34.406 0.307-51.712 0.717-28.058 12.493-48.947 32.154-62.566 43.008-30.003 65.843-75.878 75.776-132.506 0.307-1.638 0.307-3.379 0.614-5.53-83.149 0-166.093 0-249.242 0 2.662 20.685 7.885 40.346 15.462 59.085 13.312 32.973 32.768 59.187 59.494 77.722 16.589 11.469 28.365 27.955 32.358 50.995 0.819 4.813 1.331 9.83 1.434 14.746 0.102 18.637 0.614 37.274-0.205 55.808-1.126 24.678-11.981 43.213-28.57 57.139-9.216 7.782-18.944 14.746-27.648 23.142-11.981 11.162-21.197 25.395-29.491 41.574z" />
<glyph unicode="&#xe902;" glyph-name="plus-icon" data-tags="plus-icon" d="M767.787 370.56c0-19.323-15.664-34.987-34.987-34.987h-151.040v-151.467c0-19.323-15.664-34.987-34.987-34.987h-69.547c-19.323 0-34.987 15.664-34.987 34.987v151.467h-151.467c-19.323 0-34.987 15.664-34.987 34.987v69.547c0 19.323 15.664 34.987 34.987 34.987h151.467v151.467c0 19.323 15.664 34.987 34.987 34.987h69.547c19.323 0 34.987-15.664 34.987-34.987v-151.467h151.467c19.323 0 34.987-15.664 34.987-34.987z" />
<glyph unicode="&#xe903;" glyph-name="video-upload-icon" data-tags="video-upload-icon" d="M395.848 365.868v-128c0-21.333 21.333-42.667 42.667-42.667h128c21.333 0 42.667 17.067 42.667 42.667v128c0 21.333-17.067 42.667-42.667 42.667h-128c-21.333 0-42.667-17.067-42.667-42.667zM796.915 536.534l-102.4 106.667c-12.8 12.8-38.4 21.333-55.467 21.333h-140.8l21.333-42.667h89.6v-136.533c0-17.067 12.8-29.867 29.867-29.867h140.8v-341.333h-426.667v328.533h-42.667v-341.333c0-17.067 12.8-29.867 29.867-29.867h448c17.067 0 29.867 12.8 29.867 29.867v384c4.267 17.067-8.533 38.4-21.333 51.2zM651.848 493.868v123.733c4.267 0 12.8-4.267 12.8-8.533l102.4-102.4c4.267-4.267 4.267-8.533 8.533-12.8h-123.733zM737.181 203.734v196.267c0 4.267-4.267 8.533-8.533 8.533s-8.533 0-12.8-4.267l-89.6-89.6v-29.867l89.6-89.6c8.533-4.267 8.533 0 12.8 0 4.267 4.267 8.533 4.267 8.533 8.533zM361.715 510.934v136.533l59.733-59.733c8.533-8.533 17.067-4.267 25.6 0l12.8 12.8c8.533 8.533 8.533 17.067 0 25.6l-115.2 106.667c-8.533 8.533-17.067 8.533-21.333 0l-115.2-110.933c-4.267-8.533-4.267-17.067 0-25.6l12.8-12.8c8.533-8.533 17.067-8.533 21.333 0l59.733 59.733v-136.533c0-8.533 8.533-17.067 17.067-17.067h25.6c0 0 17.067 8.533 17.067 21.333z" />
<glyph unicode="&#xe904;" glyph-name="play-icon" data-tags="play-icon" d="M375.444 640.024c81.067 46.933 187.733 46.933 273.067 0 42.667-25.6 72.533-55.467 98.133-98.133 72.533-128 29.867-294.4-98.133-371.2-128-72.533-294.4-29.867-371.2 98.133-46.933 81.067-46.933 187.733 0 273.067 21.333 42.667 55.467 72.533 98.133 98.133zM644.244 388.29c12.8 8.533 12.8 29.867 0 38.4l-192 110.933c-8.533 4.267-12.8 4.267-21.333 0s-12.8-12.8-12.8-21.333v-226.133c0-8.533 4.267-17.067 12.8-21.333s17.067-4.267 21.333 0l192 119.467z" />
<glyph unicode="&#xe905;" glyph-name="copy" data-tags="copy" d="M722.133 582.534h-247.733c-65.867 0-119.2-53.333-119.2-119.2v-288.533c0-65.867 53.333-119.2 119.2-119.2h247.867c65.867 0 119.2 53.333 119.2 119.2v288.533c-0.267 65.867-53.467 119.2-119.333 119.2zM778.533 177.867c0-31.333-25.067-56.4-56.4-56.4h-247.867c-31.333 0-56.4 25.067-56.4 56.4v285.467c0 31.333 25.067 56.4 56.4 56.4h247.733c31.333 0 56.4-25.067 56.4-56.4v-285.467zM245.2 347.334v288.533c0 31.333 25.067 56.4 56.4 56.4h247.733c31.333 0 56.4-25.067 56.4-56.4v-18.8h62.667v18.8c0 65.867-53.333 119.2-119.2 119.2h-247.467c-65.867 0-119.2-53.333-119.2-119.2v-288.533c0-65.867 53.333-119.2 119.2-119.2h18.8v62.667h-18.8c-31.467-3.067-56.533 22-56.533 56.533zM681.2 381.867h-163.067c-18.8 0-31.333 12.533-31.333 31.333s12.533 31.333 31.333 31.333h163.067c18.8 0 31.333-12.533 31.333-31.333s-15.6-31.333-31.333-31.333zM681.2 287.734h-163.067c-18.8 0-31.333 12.533-31.333 31.333s12.533 31.333 31.333 31.333h163.067c18.8 0 31.333-12.533 31.333-31.333s-15.6-31.333-31.333-31.333zM681.2 193.601h-163.067c-18.8 0-31.333 12.533-31.333 31.333s12.533 31.333 31.333 31.333h163.067c18.8 0 31.333-12.533 31.333-31.333s-15.6-31.333-31.333-31.333z" />
<glyph unicode="&#xe906;" glyph-name="examples-icon" data-tags="examples-icon" d="M213.333 253.868c89.6 38.4 183.467 68.267 273.067 17.067v281.6c-68.267 46.933-157.867 55.467-234.667 12.8l-38.4-311.467zM810.667 253.868l-42.667 315.733c-72.533 38.4-166.4 34.133-234.667-17.067v-285.867c93.867 51.2 187.733 21.333 277.333-12.8zM832 608.001c-51.2 29.867-110.933 46.933-170.667 55.467-51.2 0-102.4-8.533-149.333-29.867-46.933 21.333-98.133 29.867-149.333 29.867-59.733-4.267-119.467-25.6-170.667-55.467l-64-452.267c0 0 29.867-17.067 110.933 21.333 46.933 25.6 102.4 34.133 157.867 25.6 42.667-4.267 85.333-21.333 115.2-55.467v0c29.867 34.133 72.533 51.2 115.2 55.467 55.467 4.267 106.667-4.267 157.867-29.867 81.067-38.4 110.933-21.333 110.933-21.333l-64 456.533zM793.6 202.668c-42.667 21.333-89.6 34.133-140.8 34.133-8.533 0-21.333 0-29.867 0-42.667-4.267-81.067-17.067-115.2-42.667-34.133 25.6-72.533 38.4-115.2 42.667-12.8 0-21.333 0-34.133 0-46.933 0-93.867-8.533-136.533-29.867-21.333-12.8-46.933-21.333-72.533-25.6l64 413.867c46.933 25.6 98.133 38.4 149.333 42.667 46.933 0 93.867-8.533 136.533-25.6l12.8-8.533 12.8 4.267c42.667 17.067 89.6 25.6 136.533 25.6 51.2-4.267 102.4-17.067 149.333-42.667l59.733-418.133c-29.867 8.533-51.2 17.067-76.8 29.867z" />
<glyph unicode="&#xe907;" glyph-name="tutorials-icon" data-tags="tutorials-icon" d="M887.468 516.265l-375.467-110.933h-4.267l-217.6 68.267c-21.333-25.6-34.133-59.733-34.133-98.133 21.333-12.8 25.6-38.4 12.8-59.733-4.267-4.267-8.533-8.533-12.8-12.8l17.067-145.067c0-4.267 0-4.267-4.267-8.533 0 0 0 0-4.267 0h-64c-4.267 0-4.267 0-8.533 4.267 0 4.267-4.267 4.267-4.267 8.533l17.067 145.067c-12.8 8.533-17.067 21.333-17.067 34.133 0 17.067 8.533 29.867 21.333 38.4 0 38.4 12.8 76.8 34.133 110.933l-106.667 29.867c-8.533 4.267-8.533 8.533-8.533 17.067 0 4.267 4.267 4.267 4.267 4.267l375.467 119.467h4.267l375.467-123.733c4.267 0 8.533-4.267 8.533-8.533s-4.267-8.533-8.533-12.8zM725.334 319.999c4.267-46.933-93.867-85.333-213.333-85.333s-213.333 38.4-213.333 85.333l4.267 106.667 192-64c4.267 0 12.8 0 17.067 0s12.8 0 17.067 4.267l192 59.733 4.267-106.667z" />
<glyph unicode="&#xe908;" glyph-name="info-important-description" data-tags="info-important-description" d="M512 746.684c-188.5 0-341.3-152.8-341.3-341.3s152.8-341.4 341.3-341.4 341.3 152.8 341.3 341.3-152.8 341.4-341.3 341.4v0zM512 92.584c-172.7 0-312.7 140-312.7 312.7s140 312.7 312.7 312.7c172.7 0 312.7-140 312.7-312.7-0.2-172.6-140.1-312.5-312.7-312.7v0zM512 654.884c-137.9 0-249.6-111.8-249.6-249.6s111.7-249.6 249.6-249.6 249.6 111.8 249.6 249.6-111.8 249.6-249.6 249.6v0z" />
<glyph unicode="&#xe909;" glyph-name="icon-info" data-tags="icon-info" d="M468.875 544.641h87.467c0.028 0 0.062 0 0.095 0 6.056 0 11.499 2.629 15.248 6.808 3.979 4.15 6.419 9.769 6.419 15.957 0 0.097-0.001 0.194-0.002 0.29v70.385c0.001 0.082 0.002 0.179 0.002 0.276 0 6.188-2.44 11.806-6.409 15.946-3.759 4.19-9.201 6.819-15.257 6.819-0.033 0-0.067 0-0.1 0h-87.462c-0.028 0-0.062 0-0.095 0-6.056 0-11.499-2.629-15.248-6.808-3.979-4.15-6.419-9.769-6.419-15.957 0-0.097 0.001-0.194 0.002-0.29v-69.959c-0.001-0.082-0.002-0.179-0.002-0.276 0-6.188 2.44-11.806 6.409-15.946 3.715-4.373 9.2-7.159 15.338-7.245zM599.008 241.708h-22.187v209.92c0.001 0.082 0.002 0.179 0.002 0.276 0 6.188-2.44 11.806-6.409 15.946-3.759 4.19-9.201 6.819-15.257 6.819-0.033 0-0.067 0-0.1 0h-130.128c-0.028 0-0.062 0-0.095 0-6.056 0-11.499-2.629-15.248-6.808-3.979-4.15-6.419-9.769-6.419-15.957 0-0.097 0.001-0.194 0.002-0.29v-46.492c-0.001-0.082-0.002-0.179-0.002-0.276 0-6.188 2.44-11.806 6.409-15.946 3.759-4.19 9.201-6.819 15.257-6.819 0.033 0 0.067 0 0.1 0h22.182v-139.947h-22.187c-0.028 0-0.062 0-0.095 0-6.056 0-11.499-2.629-15.248-6.808-3.979-4.15-6.419-9.769-6.419-15.957 0-0.097 0.001-0.194 0.002-0.29v-46.492c-0.001-0.082-0.002-0.179-0.002-0.276 0-6.188 2.44-11.806 6.409-15.946 3.759-4.19 9.201-6.819 15.257-6.819 0.033 0 0.067 0 0.1 0h174.075c0.028 0 0.062 0 0.095 0 6.056 0 11.499 2.629 15.248 6.808 3.979 4.15 6.419 9.769 6.419 15.957 0 0.097-0.001 0.194-0.002 0.29v46.065c0.043 0.527 0.067 1.141 0.067 1.761 0 5.302-1.791 10.185-4.8 14.079-3.742 4.424-9.36 7.247-15.636 7.247-0.489 0-0.975-0.017-1.456-0.051z" />
<glyph unicode="&#xe90a;" glyph-name="paste" data-tags="paste" d="M394.402 723.734h-75.333c-65.867 0-119.2-53.333-119.2-119.2v-288.533c0-56.4 37.6-100.4 87.867-116v69.067c-15.733 9.467-25.067 25.067-25.067 47.067v288.4c0 31.333 25.067 56.4 56.4 56.4h131.733c0 0 0 0 3.2 3.2v0c0 31.333-28.267 59.6-59.6 59.6zM704.802 613.867c0 0-28.267 0-40.8 0-12.533 34.533-43.867 59.6-84.667 59.6s-69.067-25.067-81.6-59.6c-12.533 0-40.8 0-40.8 0-65.867 0-119.2-53.333-119.2-119.2v-288.533c0-65.867 53.333-119.2 119.2-119.2h247.867c65.867 0 119.2 53.333 119.2 119.2v285.467c3.2 65.867-53.2 122.267-119.2 122.267zM582.535 626.534c22 0 40.8-18.8 40.8-40.8s-18.8-40.8-40.8-40.8c-22 0-40.8 18.8-40.8 40.8s15.733 40.8 40.8 40.8zM764.402 203.067c0-31.333-25.067-56.4-56.4-56.4h-250.933c-31.333 0-56.4 25.067-56.4 56.4v288.533c0 18.8 9.467 37.6 25.067 47.067v0c0-43.867 34.533-78.4 78.4-78.4h160c43.867 0 78.4 34.533 78.4 78.4v0c12.533-9.467 22-28.267 22-47.067v-288.533z" />
<glyph unicode="&#xe90b;" glyph-name="reuse" data-tags="reuse" d="M734.974 624.751c-54.605 61.619-134.123 100.573-222.977 100.573-164.936 0-298.661-133.724-298.661-298.661h74.667c0 123.721 100.272 223.993 223.993 223.993 68.214 0 128.747-30.96 169.766-79.119l-70.213-70.213h199.109v199.109l-75.689-75.689zM511.999 202.671c-68.214 0-128.747 30.96-169.766 79.119l70.213 70.213h-199.109v-199.109l75.689 75.689c54.605-61.619 134.123-100.573 222.977-100.573 164.936 0 298.661 133.724 298.661 298.661h-74.667c0-123.721-100.272-223.993-223.993-223.993z" />
<glyph unicode="&#xe90c;" glyph-name="info-outlined" data-tags="info-outlined" d="M467.199 160.003h89.599v268.8h-89.599v-268.8zM512 832.002c-247.296 0-448.001-200.705-448.001-448.001s200.705-448.001 448.001-448.001 448.001 200.705 448.001 448.001-200.705 448.001-448.001 448.001zM512 25.603c-197.568 0-358.398 160.83-358.398 358.398s160.83 358.398 358.398 358.398 358.398-160.83 358.398-358.398-160.83-358.398-358.398-358.398zM467.199 518.401h89.599v89.599h-89.599v-89.599z" />
<glyph unicode="&#xe90d;" glyph-name="spinner" data-tags="spinner" d="M600 786.668c0-48.602-39.398-88-88-88s-88 39.398-88 88 39.398 88 88 88 88-39.398 88-88zM512 112c-48.602 0-88-39.398-88-88s39.398-88 88-88 88 39.398 88 88-39.398 88-88 88zM893.334 493.334c-48.602 0-88-39.398-88-88s39.398-88 88-88 88 39.398 88 88-39.398 88-88 88zM218.666 405.334c0 48.602-39.398 88-88 88s-88-39.398-88-88 39.398-88 88-88 88 39.398 88 88zM242.357 223.691c-48.602 0-88-39.398-88-88s39.398-88 88-88 88 39.398 88 88c0 48.6-39.4 88-88 88zM781.643 223.691c-48.602 0-88-39.398-88-88s39.398-88 88-88 88 39.398 88 88c0 48.6-39.398 88-88 88zM242.357 762.977c-48.602 0-88-39.398-88-88s39.398-88 88-88 88 39.398 88 88-39.4 88-88 88z" />
<glyph unicode="&#xe90e;" glyph-name="copy-enabled" data-tags="copy-enabled" d="M614.525 787.959h-317.672c-74.968 0-135.9-60.931-135.9-135.9v-370.388c0-43.817 20.88-82.842 53.231-107.83v70.346c-4.45 11.297-7.016 23.962-7.016 37.484v370.388c0 49.292 40.224 89.516 89.516 89.516h318.014c15.232 0 29.611-3.766 42.107-10.613h68.294c-24.646 34.402-65.039 56.997-110.57 56.997zM674.431 246.070h-209.327c-14.721 0-23.105-8.388-23.105-23.105s8.388-23.105 23.105-23.105h209.327c11.124 0 23.105 8.899 23.105 23.105 0 14.721-8.388 23.105-23.105 23.105zM674.431 366.911h-209.327c-14.721 0-23.105-8.388-23.105-23.105s8.388-23.105 23.105-23.105h209.327c11.124 0 23.105 8.899 23.105 23.105 0 14.721-8.388 23.105-23.105 23.105zM726.978 664.897h-318.014c-74.968 0-135.9-60.931-135.9-135.9v-370.388c0-74.968 60.931-135.9 135.9-135.9v0h318.183c74.968 0 135.9 60.931 135.9 135.9v370.388c-0.342 74.968-61.273 135.9-136.073 135.9zM816.494 162.545c0-49.292-40.224-89.516-89.516-89.516h-318.183c-49.292 0-89.516 40.224-89.516 89.516v366.449c0 49.292 40.224 89.516 89.516 89.516h318.014c49.292 0 89.516-40.224 89.516-89.516v-349.334h0.173v-17.115zM674.431 487.748h-209.327c-14.721 0-23.105-8.388-23.105-23.105s8.388-23.105 23.105-23.105h209.327c11.124 0 23.105 8.899 23.105 23.105 0 14.721-8.388 23.105-23.105 23.105z" />
<glyph unicode="&#xe90f;" glyph-name="copy-disabled" data-tags="copy-disabled" d="M614.525 787.959h-317.672c-74.968 0-135.9-60.931-135.9-135.9v-370.388c0-43.817 20.88-82.842 53.231-107.83v70.346c-4.45 11.297-7.016 23.962-7.016 37.484v370.388c0 49.292 40.224 89.516 89.516 89.516h318.014c15.232 0 29.611-3.766 42.107-10.613h68.294c-24.646 34.402-65.039 56.997-110.57 56.997zM726.978 664.897h-318.014c-74.968 0-135.9-60.931-135.9-135.9v-370.388c0-74.968 60.931-135.9 135.9-135.9v0h318.183c74.968 0 135.9 60.931 135.9 135.9v370.388c-0.342 74.968-61.273 135.9-136.073 135.9zM816.494 162.545c0-49.292-40.224-89.516-89.516-89.516h-318.183c-49.292 0-89.516 40.224-89.516 89.516v366.449c0 49.292 40.224 89.516 89.516 89.516h318.014c49.292 0 89.516-40.224 89.516-89.516v-349.334h0.173v-17.115zM709.521 447.524l-27.728 27.555-109.544-109.544-109.544 109.544-27.555-27.555 109.544-109.544-109.544-109.544 27.555-27.555 109.544 109.544 109.544-109.544 27.555 27.555-109.544 109.544 109.713 109.544z" />
<glyph unicode="&#xe910;" glyph-name="paste-enabled" data-tags="paste-enabled" d="M410.237 35.942c-75.402 0-136.793 61.394-136.793 136.793v373.025c0 75.402 61.394 136.793 136.793 136.793h64.85l4.152 11.413c15.219 41.678 47.732 65.715 89.237 65.715 42.716 0 78.512-25.075 93.212-65.715l4.152-11.413h64.85c37.007 0 73.499-15.911 99.786-43.581 25.594-26.805 38.737-61.048 37.007-96.326v-369.738c0-75.402-61.394-136.793-136.793-136.793l-320.453-0.173zM360.947 617.356c-24.729-15.046-40.64-44.619-40.64-75.575v-373.025c0-49.804 40.467-90.271 90.271-90.271h324.432c43.754 0 80.415 31.476 88.545 72.981h1.73l0.173 17.295v373.025c0 28.708-14.181 58.627-35.277 74.71l-27.67 20.923v-17.468c0-47.213-36.834-84.048-84.048-84.048h-207.351c-47.213 0-84.048 36.834-84.048 84.048v13.489l-26.113-16.084zM572.451 712.298c-27.843 0-48.766-20.923-48.766-48.766 0-26.459 22.307-48.766 48.766-48.766s48.766 22.307 48.766 48.766c0.173 26.286-22.134 48.766-48.766 48.766zM422.169 742.736c7.78 8.818 16.603 16.776 24.383 25.594 1.903 2.076 3.806 4.325 5.709 6.401h-158.585c-75.748 0-137.312-61.567-137.312-137.312v-374.236c0-44.965 21.788-84.913 55.167-109.988v68.829c-5.536 12.278-8.472 26.113-8.472 41.159v374.236c0 49.804 40.64 90.444 90.444 90.444h116.561c3.633 5.19 7.78 10.202 12.105 14.873z" />
<glyph unicode="&#xe911;" glyph-name="paste-disabled" data-tags="paste-disabled" d="M410.237 35.942c-75.402 0-136.793 61.394-136.793 136.793v373.025c0 75.402 61.394 136.793 136.793 136.793h64.85l4.152 11.413c15.219 41.678 47.732 65.715 89.237 65.715 42.716 0 78.512-25.075 93.212-65.715l4.152-11.413h64.85c37.007 0 73.499-15.911 99.786-43.581 25.594-26.805 38.737-61.048 37.007-96.326v-369.738c0-75.402-61.394-136.793-136.793-136.793l-320.453-0.173zM360.947 617.356c-24.729-15.046-40.64-44.619-40.64-75.575v-373.025c0-49.804 40.467-90.271 90.271-90.271h324.432c43.754 0 80.415 31.476 88.545 72.981h1.73l0.173 17.295v373.025c0 28.708-14.181 58.627-35.277 74.71l-27.67 20.923v-17.468c0-47.213-36.834-84.048-84.048-84.048h-207.351c-47.213 0-84.048 36.834-84.048 84.048v13.489l-26.113-16.084zM572.451 712.298c-27.843 0-48.766-20.923-48.766-48.766 0-26.459 22.307-48.766 48.766-48.766s48.766 22.307 48.766 48.766c0.173 26.286-22.134 48.766-48.766 48.766zM422.169 742.736c7.78 8.818 16.603 16.776 24.383 25.594 1.903 2.076 3.806 4.325 5.709 6.401h-158.585c-75.748 0-137.312-61.567-137.312-137.312v-374.236c0-44.965 21.788-84.913 55.167-109.988v68.829c-5.536 12.278-8.472 26.113-8.472 41.159v374.236c0 49.804 40.64 90.444 90.444 90.444h116.561c3.633 5.19 7.78 10.202 12.105 14.873zM718.585 442.515l-28.016 27.843-110.68-110.68-110.68 110.68-27.843-27.843 110.68-110.68-110.68-110.68 27.843-27.843 110.68 110.68 110.68-110.68 27.843 27.843-110.68 110.68 110.853 110.68z" />
<glyph unicode="&#xe912;" glyph-name="button-disabled" data-tags="button-disabled" d="M853.333 677.913l-68.754 68.754-272.579-272.579-272.579 272.579-68.754-68.754 272.579-272.579-272.579-272.579 68.754-68.754 272.579 272.579 272.579-272.579 68.754 68.754-272.579 272.579z" />
<glyph unicode="&#xe913;" glyph-name="audio-icon" data-tags="audio-icon" d="M472.8 568.867v-319.3c0-10.3-8.3-18.7-18.6-18.8-5 0-9.9 2-13.4 5.6l-97.8 97.7h-77c-10.3 0.2-18.7 8.5-18.8 18.8v112.6c0.2 10.3 8.5 18.7 18.8 18.8h76.9l97.8 97.8c7.4 7.3 19.3 7.2 26.6-0.2 3.4-3.5 5.4-8.1 5.4-13h0.1zM585.9 451.267c8.2-12.5 12.6-27.2 12.6-42.1s-4.4-29.5-12.6-42c-7.9-12.6-19.7-22.4-33.6-27.9-2.3-1.1-4.9-1.6-7.4-1.5-5 0-9.8 1.9-13.3 5.5-3.8 3.5-5.9 8.4-5.8 13.5-0.1 3.8 1.2 7.6 3.6 10.5s5.3 5.4 8.6 7.4c3.3 2.1 6.7 4.3 10.1 6.8 3.6 2.8 6.6 6.4 8.6 10.5 4.7 10.8 4.7 23 0 33.8-2 4.1-5 7.7-8.6 10.5-3.3 2.5-6.7 4.7-10.1 6.8-3.3 2-6.2 4.5-8.6 7.4-2.4 3-3.7 6.7-3.6 10.5-0.1 5.1 2.1 10 5.8 13.5 3.5 3.6 8.3 5.5 13.3 5.5 2.6 0.1 5.1-0.4 7.4-1.5 13.8-5 25.6-14.6 33.6-27.2v0zM663.3 492.967c33.6-50.8 33.6-116.8 0-167.6-16-25.1-39.2-44.6-66.6-56.2-2.4-1-4.9-1.5-7.4-1.5-5.2 0-10.1 2.1-13.6 5.8-3.7 3.4-5.8 8.3-5.8 13.3 0 7.7 4.6 14.6 11.7 17.5 7.8 3.8 15.4 8.2 22.6 13 50.6 36.9 61.8 107.8 24.9 158.4-7 9.6-15.4 18-24.9 24.9-7.2 4.9-14.7 9.3-22.6 13.1-7.1 2.9-11.7 9.8-11.7 17.5 0.1 10.4 8.6 18.9 19 19 2.6 0 5.3-0.5 7.7-1.5 27.3-11.2 50.6-30.7 66.7-55.7zM741 534.467c69.3-105.1 40.2-246.4-64.9-315.7-11.2-7.4-23.1-13.8-35.4-19.1-2.5-1-5.1-1.5-7.7-1.5-10.4 0.2-18.8 8.6-19 19 0.3 7.6 4.8 14.4 11.7 17.5 2.2 1.2 4.4 2.2 6.7 3.1s4.5 1.9 6.7 3.1c8.4 4.5 16.5 9.6 24.3 15.1 24 17.6 43.6 40.7 57 67.3 27.3 53.9 27.3 117.5 0 171.4-13.4 26.7-33 49.8-57 67.4-7.8 5.5-15.9 10.6-24.3 15.1-2.2 1.2-4.4 2.2-6.7 3.1s-4.5 1.9-6.7 3.1c-6.9 3.2-11.4 9.9-11.7 17.5 0.3 10.4 8.8 18.6 19.2 18.7 2.6 0 5.3-0.5 7.7-1.5 41-17.3 75.9-46.5 100.3-83.8h-0.2z" />
<glyph unicode="&#xe914;" glyph-name="audio-upload-icon" data-tags="audio-upload-icon" d="M796.9 536.567l-102.4 106.6c-12.8 12.8-38.4 21.3-55.5 21.3h-140.8l21.3-42.7h89.6v-136.5c0-17.1 12.8-29.9 29.9-29.9h140.8v-341.3h-426.6v328.6h-42.7v-341.3c0-17.1 12.8-29.9 29.9-29.9h448c17.1 0 29.9 12.8 29.9 29.9v384c4.2 17-8.6 38.4-21.4 51.2zM651.8 493.867v123.7c4.3 0 12.8-4.3 12.8-8.5l102.4-102.4c4.3-4.3 4.3-8.5 8.5-12.8h-123.7zM361.7 510.967v136.5l59.7-59.7c8.5-8.5 17.1-4.3 25.6 0l12.8 12.8c8.5 8.5 8.5 17.1 0 25.6l-115.2 106.6c-8.5 8.5-17.1 8.5-21.3 0l-115.2-110.9c-4.3-8.5-4.3-17.1 0-25.6l12.8-12.8c8.5-8.5 17.1-8.5 21.3 0l59.7 59.7v-136.5c0-8.5 8.5-17.1 17.1-17.1h25.6c0 0 17.1 8.6 17.1 21.4zM532.7 380.467v-188c0-5.2-5.2-10.4-5.2-10.4h-5.2c-5.2 0-5.2 0-10.4 5.2l-57.5 57.4h-47c-5.2 0-10.4 5.2-10.4 10.4v62.7c0 5.2 5.2 10.4 10.4 10.4h47l57.5 57.5c5.2 5.2 12.8 9.7 16.5 6s4.3-6 4.3-11.2zM616.3 208.167c20.9 20.9 31.3 47 31.3 78.3s-10.4 57.5-31.3 78.3c-10.4 10.4-20.9 10.4-31.3 0s-10.4-20.9 0-31.3c10.4-10.4 15.7-26.1 15.7-47s-5.2-31.3-15.7-47c-10.4-10.4-10.4-20.9 0-31.3 5.2-5.2 10.4-5.2 15.7-5.2s10.4-0.1 15.6 5.2zM689.4 155.867c31.3 36.6 47 78.3 47 125.4 0 47-15.7 88.8-47 125.4-10.4 15.7-20.9 15.7-31.3 10.4-10.4-10.4-10.4-20.9-5.2-31.3 20.9-26.1 36.6-62.7 36.6-99.2s-10.4-73.1-36.6-99.2c-10.4-10.4-5.2-26.1 5.2-31.3 5.2-5.2 10.4-5.2 15.7-5.2s10.4-0.2 15.6 5z" />
<glyph unicode="&#xe915;" glyph-name="hub-icon1" data-tags="hub-icon" horiz-adv-x="3151" d="M2075.75 829.829c-52.861 50.54-132.54 71.428-238.778 71.428h-341.406v-180.502h-445.839l-34.811-150.332c127.383 60.081 304.017 51.572 410.513-46.415 114.232-105.723 118.616-280.81 42.547-410.255-29.918-49.803-71.932-89.584-122.082-115.998-22.836-11.385-46.301-15.51-67.962-24.535h346.563v334.96h180.502c126.093 0 261.47 37.648 320.52 159.615 53.377 110.621 42.805 274.363-49.251 361.003zM1834.909 540.254c-22.95-19.597-62.66-25.786-119.131-25.786h-91.283v206.287h103.144c45.641 0 96.439-7.22 124.031-47.704 10.884-15.937 17.38-35.624 17.38-56.827 0-30.173-13.153-57.274-34.039-75.882zM1104.65 433.758c-51.309-0.225-95.603-30.032-116.728-73.235l-258.2 30.431 117.068 510.304h-227.948v-386.79h-335.218v386.79h-283.645v-928.295h283.645v335.218h335.218v-335.218h347.595c-120.163 27.591-202.162 119.389-235.942 235.426l257.86 36.616c21.885-43.147 65.92-72.201 116.74-72.201 72.061 0 130.477 58.417 130.477 130.477 0 72.036-58.376 130.436-130.403 130.477zM2349.081-27.038h-88.704l40.484 192.364c4.125 17.792 10.83 46.673-3.352 62.144-6.816 6.002-15.818 9.665-25.676 9.665-7.905 0-15.26-2.356-21.401-6.404-38.017-22.343-51.426-80.878-60.709-120.588l-28.88-137.181h-88.704l97.213 458.991h88.704c-12.635-58.276-25.786-115.779-43.063-173.024h2.578c32.233 39.968 88.188 67.043 137.439 39.71s43.063-91.283 33.263-137.439zM2502.766 303.022h88.704l-40.226-192.364c-4.125-17.792-10.83-46.673 3.352-62.144 6.692-5.69 15.433-9.151 24.983-9.151 8.206 0 15.815 2.556 22.074 6.914 38.036 22.35 51.446 80.885 60.728 120.595l28.88 136.408h88.704l-69.88-330.318h-67.818l6.188 60.855h-1.805c-29.138-45.641-81.226-81.741-137.181-61.886-61.886 21.66-54.151 100.823-43.836 152.395zM3029.573 308.18c121.452 0 99.018-171.477 66.27-243.42-17.851-42.906-52.266-75.891-95.049-91.439-10.226-3.641-20.722-5.538-31.659-5.538-34.769 0-65.061 19.168-80.885 47.514l-2.561 0.47-16.503-42.805h-68.075l97.213 458.991h88.704l-18.308-84.836c-7.927-35.089-16.792-64.571-27.415-93.202l3.95 5.014c18.385 28.168 48.934 47.071 84.013 49.236zM2993.988 236.237c-77.358 0-118.358-206.287-35.843-197.779 65.496 7.22 115.263 198.81 35.843 198.81z" />
<glyph unicode="&#xe916;" glyph-name="close" data-tags="close" d="M996.811 59.66l-117.806-117.806c-18.123-18.123-36.248-27.186-54.371-27.186s-45.309 9.063-54.371 27.186l-253.734 253.734-253.734-253.734c-18.123-18.123-36.248-27.186-54.371-27.186s-45.309 9.063-54.371 27.186l-126.866 117.806c-18.123 18.123-27.186 36.248-27.186 54.371s9.063 45.309 27.186 54.371l253.734 253.734-253.734 262.795c-18.123 18.123-27.186 36.248-27.186 54.371s9.063 45.309 27.186 54.371l117.806 117.806c9.063 18.123 36.248 27.186 54.371 27.186s45.309-9.063 54.371-27.186l253.734-253.734 253.734 253.734c18.123 18.123 36.248 27.186 54.371 27.186s45.309-9.063 54.371-27.186l117.806-117.806c18.123-18.123 27.186-36.248 27.186-54.371s-9.063-45.309-27.186-54.371l-253.734-253.734 253.734-253.734c18.123-18.123 27.186-36.248 27.186-54.371 9.063-27.186 0-45.309-18.123-63.434z" />
<glyph unicode="&#xe917;" glyph-name="update" data-tags="update" d="M17.415 532.549c50.74 230.955 253.618 401.245 496.27 401.245 136.563 0 260.529-53.937 351.756-141.671l85.417 85.74c7.539 7.889 18.11 12.826 29.834 12.937 23.653 0 42.811-19.158 42.811-42.791v-298.542c0-23.633-19.158-42.791-42.791-42.791h-298.542c-23.633 0-42.791 19.158-42.791 42.791 0.229 11.723 5.137 22.256 12.928 29.845l91.562 91.562c-61.037 58.59-144.073 94.668-235.534 94.668-123.332 0-231.342-65.602-291.039-163.816-13.033-23.194-24.775-48.799-34.484-75.382-3.84-12.412-11.737-18.617-21.093-18.674h-124.399c-11.326 0.52-20.378 9.572-20.896 20.85 0.083 1.508 0.441 2.864 1.022 4.095zM0.497 293.715c0 23.633 19.158 42.791 42.791 42.791h298.542c23.633 0 42.791-19.158 42.791-42.791-0.229-11.723-5.137-22.256-12.928-29.845l-91.562-91.562c60.754-56.6 142.523-91.342 232.407-91.342 122.536 0 229.991 64.569 290.197 161.538 13.035 23.149 24.777 48.754 34.479 75.341 3.834 12.399 11.732 18.604 21.088 18.661h131.365c0.357 0.021 0.775 0.033 1.195 0.033 11.050 0 20.188-8.186 21.68-18.825l0.013-0.116c-52.365-229.436-254.678-398.058-496.375-398.058-0.42 0-0.841 0.001-1.261 0.002-136.546 0.841-260.466 54.489-352.455 141.536l-86.336-85.808c-7.598-7.8-18.131-12.708-29.812-12.936-23.675-0.001-42.833 19.158-42.833 42.79z" />
<glyph unicode="&#xe918;" glyph-name="question-outlined" data-tags="question-outlined" d="M512.133-85.333c-281.733 0-510.4 228.667-510.4 510.4s228.667 510.267 510.4 510.267c281.733 0 510.4-228.533 510.4-510.4 0-281.6-228.667-510.267-510.4-510.267zM86.8 425.067c0-234.533 190.667-425.333 425.333-425.333 234.533 0 425.333 190.667 425.333 425.333s-190.667 425.333-425.333 425.333c-234.533 0-425.333-190.8-425.333-425.333zM642.4 393.867c-34.533-20-55.867-32.533-55.867-53.867v-21.333c0-12-9.333-21.2-21.2-21.2h-106.267c-12 0-21.2 9.333-21.2 21.2v45.2c0 81.733 58.533 107.6 105.6 128.933 39.867 18.667 64.4 31.2 64.4 61.2 0 38.533-48.533 67.067-92.4 67.067-23.2 0-47.867-7.333-63.067-18-14.667-10-28.533-24.533-53.2-55.2-4-5.333-10-8-16.667-8-4.667 0-9.333 1.333-12.667 4l-71.733 54.533c-8.667 6.667-10.667 19.333-4.667 28.533 54.533 85.867 130.933 127.733 232 127.733 108.933 0 231.2-86.4 231.2-202 0-94.4-65.733-131.6-114.267-158.8zM586.533 116.667c0-12-9.333-21.2-21.2-21.2h-106.267c-12 0-21.2 9.333-21.2 21.2v106.267c0 12 9.333 21.2 21.2 21.2h106.267c12 0 21.2-9.333 21.2-21.2v-106.267z" />
<glyph unicode="&#xe919;" glyph-name="quality-approved" data-tags="quality-approved" d="M511.035-85.333c-282.358 0.552-511.035 229.567-511.035 512 0 282.771 229.229 512 512 512s512-229.229 512-512c-0.552-282.891-230.012-512-512.976-512 0 0 0 0 0 0zM511.035 787.393c-200.301 0-362.668-162.366-362.668-362.668s162.366-362.668 362.668-362.668c200.301 0 362.668 162.366 362.668 362.668 0.001 0.577 0.002 1.253 0.002 1.943 0 200.495-162.262 363.094-362.62 363.632zM499.397 200.728c-7.707-7.656-18.334-12.386-30.067-12.386s-22.347 4.73-30.068 12.387l-193.942 193.942c-7.656 7.707-12.386 18.334-12.386 30.067s4.73 22.347 12.387 30.068l67.875 67.875c7.707 7.656 18.334 12.386 30.067 12.386s22.347-4.73 30.068-12.387l96.965-96.965 183.27 183.27c7.707 7.656 18.334 12.386 30.067 12.386s22.347-4.73 30.068-12.387l67.875-67.875c7.896-7.603 12.796-18.261 12.796-30.067s-4.9-22.463-12.789-30.048z" />
<glyph unicode="&#xe91a;" glyph-name="arrow-thick" data-tags="arrow-thick" d="M994.077 384.642c0.101-1.517 0.165-3.291 0.165-5.083 0-42.816-34.052-77.683-76.553-78.988l-462.522-0.001 195.049-193.368c15.112-15.195 24.45-36.144 24.45-59.274s-9.339-44.072-24.453-59.277l-49.601-49.601c-15.104-14.984-35.883-24.284-58.829-24.382-0.165 0-0.335-0.001-0.504-0.001-23.093 0-44.016 9.312-59.21 24.387l-430.445 428.763c-14.984 15.104-24.284 35.883-24.382 58.829 0 0.165-0.001 0.335-0.001 0.504 0 23.093 9.312 44.016 24.387 59.21l430.445 427.083c15.191 15.487 36.309 25.124 59.67 25.223 23.094-0.338 43.872-9.928 58.854-25.205l49.613-48.774c15.36-15.238 24.867-36.357 24.867-59.69s-9.507-44.452-24.864-59.688l-192.53-192.53h462.402c42.621-1.315 76.673-36.173 76.673-78.99 0-1.784-0.056-3.557-0.173-5.321z" />
<glyph unicode="&#xe91b;" glyph-name="grid-view" data-tags="grid-view" d="M472.053 542.385c0-43.623-35.362-78.985-78.985-78.985h-314.083c-43.623 0-78.985 35.362-78.985 78.985v240.619c0 43.623 35.362 78.985 78.985 78.985h315.002c43.623 0 78.985-35.362 78.985-78.985zM472.053 70.331c0-43.623-35.362-78.985-78.985-78.985h-314.083c-43.623 0-78.985 35.362-78.985 78.985v236.026c0 43.623 35.362 78.985 78.985 78.985h315.002c43.623 0 78.985-35.362 78.985-78.985zM1023.081 542.385c0-43.623-35.362-78.985-78.985-78.985h-314.083c-43.623 0-78.985 35.362-78.985 78.985v240.619c0 43.623 35.362 78.985 78.985 78.985h315.002c43.623 0 78.985-35.362 78.985-78.985zM1023.081 70.331c0-43.623-35.362-78.985-78.985-78.985h-314.083c-43.623 0-78.985 35.362-78.985 78.985v236.026c0 43.623 35.362 78.985 78.985 78.985h315.002c43.623 0 78.985-35.362 78.985-78.985z" />
<glyph unicode="&#xe91c;" glyph-name="list-view" data-tags="list-view" d="M292.59 681.277c0.020-0.549 0.025-1.208 0.025-1.858 0-30.672-24.365-55.65-54.795-56.654l-182.939-0.001c-30.515 0.994-54.881 25.982-54.881 56.655 0 0.65 0.016 1.298 0.036 1.956l-0.001 117.84c-0.020 0.549-0.025 1.208-0.025 1.858 0 30.672 24.365 55.65 54.795 56.654l182.939 0.001c30.515-0.994 54.881-25.982 54.881-56.655 0-0.65-0.016-1.298-0.036-1.956zM292.59 367.702c0.020-0.549 0.025-1.208 0.025-1.858 0-30.672-24.365-55.65-54.795-56.654l-182.939-0.001c-30.515 0.994-54.881 25.982-54.881 56.655 0 0.65 0.016 1.298 0.036 1.956l-0.001 117.84c-0.020 0.549-0.025 1.208-0.025 1.858 0 30.672 24.365 55.65 54.795 56.654l182.939 0.001c30.515-0.994 54.881-25.982 54.881-56.655 0-0.65-0.016-1.298-0.036-1.956zM292.59 54.119c0.020-0.549 0.025-1.208 0.025-1.858 0-30.672-24.365-55.65-54.795-56.654l-182.939-0.001c-30.515 0.994-54.881 25.982-54.881 56.655 0 0.65 0.016 1.298 0.036 1.956l-0.001 117.84c-0.020 0.549-0.025 1.208-0.025 1.858 0 30.672 24.365 55.65 54.795 56.654l182.939 0.001c30.515-0.994 54.881-25.982 54.881-56.655 0-0.65-0.016-1.298-0.036-1.956zM1023.965 681.277c0.020-0.549 0.025-1.208 0.025-1.858 0-30.672-24.365-55.65-54.795-56.654l-548.623-0.001c-30.515 0.994-54.881 25.982-54.881 56.655 0 0.65 0.016 1.298 0.036 1.956l-0.001 117.84c-0.020 0.549-0.025 1.208-0.025 1.858 0 30.672 24.365 55.65 54.795 56.654l548.623 0.001c30.515-0.994 54.881-25.982 54.881-56.655 0-0.65-0.016-1.298-0.036-1.956zM1023.965 367.702c0.020-0.549 0.025-1.208 0.025-1.858 0-30.672-24.365-55.65-54.795-56.654l-548.623-0.001c-30.515 0.994-54.881 25.982-54.881 56.655 0 0.65 0.016 1.298 0.036 1.956l-0.001 117.84c-0.020 0.549-0.025 1.208-0.025 1.858 0 30.672 24.365 55.65 54.795 56.654l548.623 0.001c30.515-0.994 54.881-25.982 54.881-56.655 0-0.65-0.016-1.298-0.036-1.956zM1023.965 54.119c0.020-0.549 0.025-1.208 0.025-1.858 0-30.672-24.365-55.65-54.795-56.654l-548.623-0.001c-30.515 0.994-54.881 25.982-54.881 56.655 0 0.65 0.016 1.298 0.036 1.956l-0.001 117.84c-0.020 0.549-0.025 1.208-0.025 1.858 0 30.672 24.365 55.65 54.795 56.654l548.623 0.001c30.515-0.994 54.881-25.982 54.881-56.655 0-0.65-0.016-1.298-0.036-1.956z" />
<glyph unicode="&#xe91d;" glyph-name="filters" data-tags="filters" d="M217.543 813.256v98.249c0 14.999-12.163 27.162-27.162 27.162h-8.785c-14.999 0-27.162-12.163-27.162-27.162v-98.249c-63.792-14.19-110.78-70.3-110.78-137.38s46.988-123.189 109.844-137.208l0.936-592.841c0-14.999 12.163-27.162 27.162-27.162h7.99c14.999 0 27.162 12.163 27.162 27.162v588.669c69.551 9.191 122.666 68.109 122.666 139.435 0 71.041-52.699 129.772-121.13 139.246zM549.82 396.311v515.184c0 14.999-12.163 27.162-27.162 27.162h-4.796c-14.999 0-27.162-12.163-27.162-27.162v-513.593c-71.358-12.114-125.020-73.469-125.020-147.364s53.662-135.26 124.145-147.242l0.884-159.869c0-14.999 12.163-27.162 27.162-27.162h4.796c14.999 0 27.162 12.163 27.162 27.162v159.745c67.325 15.43 116.8 74.826 116.8 145.772s-49.464 130.342-115.794 145.579zM980.345 573.627c-0.075 69.212-51.022 126.499-117.453 136.489l-0.764 201.379c0 14.999-12.163 27.162-27.162 27.162h-6.387c-14.999 0-27.162-12.163-27.162-27.162v-205.273c-58.17-16.849-99.977-69.642-99.977-132.191s41.807-115.342 99-131.95l0.967-500.252c0-14.999 12.163-27.162 27.162-27.162h4.796c14.999 0 27.162 12.163 27.162 27.162v496.022c67.608 9.329 119.206 66.436 119.809 135.722z" />
<glyph unicode="&#xe91e;" glyph-name="feedback-forum" data-tags="feedback-forum" d="M471.58 234.31c0 109.286 123.509 197.614 276.21 197.614s276.21-88.328 276.21-197.614c-4.493-67.986-45.258-125.495-102.959-153.719 9.214-37.081 28.772-68.27 54.921-92.43 4.623-5.36 9.863-10.6 8.367-18.086v0c-1.109-6.844-6.975-12.007-14.049-12.007-0.325 0-0.646 0.011-0.965 0.032-13.354 1.595-25.288 3.96-36.882 7.142-53.939 13.188-102.324 38.963-142.365 74.031-6.318-0.709-14.167-0.923-22.067-0.923s-15.747 0.214-23.542 0.635c-149.37-0.047-272.878 86.784-272.878 195.321zM335.345 330.871c55.391 149.707 229.052 247.766 428.162 247.766h28.444c0.421 4.932 0.66 10.672 0.66 16.468s-0.24 11.537-0.709 17.21c0.049 156.449-177.354 282.952-397.424 282.952s-394.478-128.749-394.478-285.192c5.307-98.94 64.284-182.951 148.144-223.872-13.537-52.161-41.367-95.968-78.331-130.007-6.935-8.414-14.419-15.151-12.174-25.63v0c1.498-9.811 9.877-17.24 19.991-17.24 0.34 0 0.679 0.009 1.016 0.025 19.325 2.295 36.591 5.711 53.365 10.318 76.451 19.56 144.933 56.71 201.601 106.896 3.232-1.193-2.009 1.053 1.735 0.305z" />
<glyph unicode="&#xe91f;" glyph-name="info-circle1" data-tags="info-circle" d="M955.31 684.057c43.186-73.717 68.69-162.334 68.69-256.907s-25.502-183.189-70.005-259.347c-44.17-75.42-107.228-138.478-182.684-182.664-76.121-44.487-164.738-69.989-259.311-69.989s-183.189 25.502-259.347 70.005c-75.42 44.17-138.478 107.228-182.664 182.684-44.487 76.121-69.989 164.738-69.989 259.311s25.502 183.189 70.005 259.347c44.283 75.035 107.323 137.765 182.666 181.695 76.14 44.489 164.754 69.992 259.326 69.992s183.189-25.502 259.347-70.005c75.325-43.919 138.365-106.647 182.668-181.747zM682.95 104.567v106.239c0.016 0.297 0.025 0.643 0.025 0.989 0 11.2-9.082 20.282-20.282 20.282-0.349 0-0.695-0.009-1.039-0.027l-65.627 0.002v347.694c0.016 0.297 0.025 0.643 0.025 0.989 0 11.2-9.082 20.282-20.282 20.282-0.349 0-0.695-0.009-1.039-0.027l-211.466 0.002c-0.297 0.016-0.643 0.025-0.989 0.025-11.2 0-20.282-9.082-20.282-20.282 0-0.349 0.009-0.695 0.027-1.039l-0.002-106.192c-0.016-0.297-0.025-0.643-0.025-0.989 0-11.2 9.082-20.282 20.282-20.282 0.349 0 0.695 0.009 1.039 0.027l63.696-0.002v-213.445h-63.744c-0.297 0.016-0.643 0.025-0.989 0.025-11.2 0-20.282-9.082-20.282-20.282 0-0.349 0.009-0.695 0.027-1.039l-0.002-106.192c-0.016-0.297-0.025-0.643-0.025-0.989 0-11.2 9.082-20.282 20.282-20.282 0.349 0 0.695 0.009 1.039 0.027l298.39-0.002c0.297-0.016 0.643-0.025 0.989-0.025 11.2 0 20.282 9.082 20.282 20.282 0 0.349-0.009 0.695-0.027 1.039zM596.026 704.339v106.239c0.016 0.297 0.025 0.643 0.025 0.989 0 11.2-9.082 20.282-20.282 20.282-0.349 0-0.695-0.009-1.039-0.027l-126.474 0.002c-0.297 0.016-0.643 0.025-0.989 0.025-11.2 0-20.282-9.082-20.282-20.282 0-0.349 0.009-0.695 0.027-1.039l-0.002-106.192c-0.016-0.297-0.025-0.643-0.025-0.989 0-11.2 9.082-20.282 20.282-20.282 0.349 0 0.695 0.009 1.039 0.027l127.44-0.002c0.007 0 0.016 0 0.023 0 11.2 0 20.282 9.082 20.282 20.282 0 0.34-0.009 0.677-0.025 1.014z" />
<glyph unicode="&#xe920;" glyph-name="radio" data-tags="radio" d="M512-85.333c-282.77 0-512 229.23-512 512s229.23 512 512 512c282.77 0 512-229.23 512-512s-229.23-512-512-512zM512 848.828c-233.151 0-422.158-189.007-422.158-422.158s189.007-422.158 422.158-422.158c233.151 0 422.158 189.007 422.158 422.158s-189.007 422.158-422.158 422.158zM723.562 426.669c0-116.842-94.721-211.563-211.563-211.563s-211.563 94.721-211.563 211.563c0 116.842 94.721 211.563 211.563 211.563s211.563-94.721 211.563-211.563z" />
<glyph unicode="&#xe921;" glyph-name="check" data-tags="check" d="M903.312-106.665h-782.623c-77.323 0-140.006 62.681-140.006 140.006v786.653c0 77.323 62.681 140.006 140.006 140.006h782.623c77.323 0 140.006-62.681 140.006-140.006v-786.653c0-77.323-62.681-140.006-140.006-140.006zM120.688 866.326c-25.591 0-46.333-20.744-46.333-46.333v-786.653c0-25.591 20.744-46.333 46.333-46.333h782.623c25.591 0 46.333 20.744 46.333 46.333v786.653c0 25.591-20.744 46.333-46.333 46.333zM865.035 565.163c0.002-0.13 0.002-0.283 0.002-0.434 0-11.268-4.627-21.456-12.082-28.768l-375.705-375.705c-7.634-7.538-18.13-12.193-29.715-12.193s-22.077 4.655-29.719 12.196l-59.422 59.422-160.151 158.138c-7.538 7.634-12.193 18.13-12.193 29.715s4.655 22.077 12.196 29.719l59.422 59.422c7.634 7.538 18.13 12.193 29.715 12.193s22.077-4.655 29.719-12.196l127.916-128.921 286.054 287.063c7.634 7.538 18.13 12.193 29.715 12.193s22.077-4.655 29.719-12.196l59.422-59.422c8.938-7.191 14.717-17.991 15.106-30.153z" />
<glyph unicode="&#xe922;" glyph-name="radio-empty" data-tags="radio-empty" d="M512-85.333c-282.77 0-512 229.23-512 512s229.23 512 512 512c282.77 0 512-229.23 512-512s-229.23-512-512-512zM512 848.828c-233.152 0-422.159-189.007-422.159-422.159s189.007-422.159 422.159-422.159c233.152 0 422.159 189.007 422.159 422.159s-189.007 422.159-422.159 422.159z" />
<glyph unicode="&#xe923;" glyph-name="check-empty" data-tags="check-empty" d="M887.659-85.333h-751.318c-74.23 0-134.406 60.174-134.406 134.406v755.187c0 74.23 60.174 134.406 134.406 134.406h751.318c74.23 0 134.406-60.174 134.406-134.406v-755.187c0-74.23-60.174-134.406-134.406-134.406zM136.34 848.738c-24.567 0-44.48-19.914-44.48-44.48v-755.187c0-24.567 19.914-44.48 44.48-44.48h751.318c24.567 0 44.48 19.914 44.48 44.48v755.187c0 24.567-19.914 44.48-44.48 44.48z" />
<glyph unicode="&#xe924;" glyph-name="arrow-line" data-tags="arrow-line" d="M995.878 679.406l-43.703 43.703c-17.591 16.506-41.326 26.645-67.432 26.645s-49.837-10.139-67.483-26.693l-303.387-303.389-305.935 304.692c-17.468 16.781-41.244 27.116-67.432 27.116s-49.958-10.335-67.464-27.148l-44.92-44.92c-17.371-17.206-28.122-41.062-28.122-67.432s10.752-50.226 28.112-67.421l414.583-414.583c17.206-17.371 41.062-28.122 67.432-28.122s50.226 10.752 67.421 28.112l418.329 414.583c17.371 17.206 28.122 41.062 28.122 67.432s-10.752 50.226-28.112 67.421z" />
<glyph unicode="&#xe925;" glyph-name="accordion-arrow" data-tags="accordion-arrow" d="M780.996 381.833l-448.336-448.336c-11.456-11.546-27.295-18.725-44.814-18.83-34.979 0.498-63.186 28.705-63.682 63.617v896.72c0.498 34.958 28.705 63.167 63.617 63.663 17.586-0.103 33.426-7.284 44.877-18.826l448.34-448.34c11.63-11.401 18.839-27.276 18.839-44.833s-7.208-33.432-18.828-44.825z" />
<glyph unicode="&#xe926;" glyph-name="search1" data-tags="search" d="M944.067-85.333c-0.055 0-0.124 0-0.191 0-21.446 0-40.843 8.766-54.805 22.911l-210.858 213.607c-68.418-47.621-153.272-76.084-244.775-76.084-238.466 0-431.783 193.316-431.783 431.783s193.316 431.783 431.783 431.783c238.466 0 431.783-193.316 431.783-431.783 0-91.503-28.463-176.355-77.017-246.191l211.781-209.432c13.83-14.189 22.361-33.602 22.361-55.006 0-43.346-34.978-78.521-78.249-78.837zM432.526 780.065c-151.889 0-275.020-123.133-275.020-275.020s123.133-275.020 275.020-275.020c151.889 0 275.020 123.133 275.020 275.020s-123.133 275.020-275.020 275.020z" />
<glyph unicode="&#xe927;" glyph-name="scrollbar-bars-icon" data-tags="scrollbar-bars-icon" d="M865.309 785.364c0-28.745-11.977-51.5-28.745-51.5h-649.127c-16.767 0-28.745 22.756-28.745 51.5v101.802c0 28.745 11.977 51.5 28.745 51.5h644.34c16.767 0 28.745-22.756 28.745-51.5zM865.309 376.964c0-28.745-11.977-51.5-28.745-51.5h-649.127c-16.767 0-28.745 22.756-28.745 51.5v101.802c0 28.745 11.977 51.5 28.745 51.5h644.34c16.767 0 28.745-22.756 28.745-51.5zM865.309-33.833c0-28.745-11.977-51.5-28.745-51.5h-649.127c-16.767 0-28.745 22.756-28.745 51.5v101.802c0 28.745 11.977 51.5 28.745 51.5h644.34c16.767 0 28.745-22.756 28.745-51.5z" />
<glyph unicode="&#xe928;" glyph-name="loading-search" data-tags="loading-search" d="M514.586-66.658c-273.781 0-495.911 222.129-495.911 495.911 0 249.101 183.67 455.163 422.477 490.771v-130.89c-167.634-33.86-293.905-182.524-293.905-359.878 0-202.609 164.682-367.339 367.339-367.339s367.389 164.732 367.389 367.339c0 177.353-126.271 326.018-293.877 359.878v130.89c238.728-35.608 422.407-241.67 422.407-490.771 0-273.781-222.14-495.911-495.921-495.911z" />
<glyph unicode="&#xe929;" glyph-name="interactive-video" data-tags="interactive-video" d="M730.959 439.399l-333.075 202.495c-29.901 16.654-67.561-4.731-67.561-39.743v-393.635c0-34.821 37.471-56.397 67.561-39.743l333.075 191.14c31.036 17.221 31.036 62.073 0 79.484zM981.334 405.334c0 259.269-210.065 469.334-469.334 469.334s-469.334-210.065-469.334-469.334 210.065-469.334 469.334-469.334 469.334 210.065 469.334 469.334zM133.505 405.334c0 209.119 169.376 378.495 378.495 378.495s378.495-169.376 378.495-378.495-169.376-378.495-378.495-378.495-378.495 169.376-378.495 378.495z" />
<glyph unicode="&#xe92a;" glyph-name="audio" data-tags="audio" d="M395.248 701.266l-142.353-142.321h-163.296c-21.215 0-38.401-17.183-38.401-38.401v-230.402c0-21.2 17.183-38.401 38.401-38.401h163.296l142.353-142.321c24.048-24.048 65.552-7.153 65.552 27.153v537.538c0 34.337-41.537 51.168-65.552 27.153zM768.561 782.994c-17.872 11.728-41.888 6.784-53.616-11.12-11.745-17.872-6.752-41.888 11.12-53.616 106.033-69.584 169.312-186.561 169.312-312.93s-63.281-243.346-169.312-312.93c-17.872-11.711-22.864-35.744-11.12-53.6 11.264-17.136 35.089-23.296 53.616-11.12 127.872 83.936 204.241 225.137 204.241 377.667s-76.369 293.713-204.241 377.651zM819.201 405.344c0 101.648-51.296 195.104-137.232 249.986-17.903 11.423-41.648 6.111-52.992-11.936s-6.048-41.936 11.855-53.377c63.601-40.624 101.569-109.649 101.569-184.673s-37.969-144.049-101.569-184.673c-17.903-11.423-23.2-35.312-11.855-53.377 10.415-16.576 33.793-24.224 52.992-11.936 85.936 54.88 137.232 148.32 137.232 249.986zM592.368 528.337c-18.529 10.127-41.904 3.456-52.176-15.12-10.224-18.576-3.456-41.92 15.12-52.176 20.656-11.344 33.489-32.704 33.489-55.696 0-23.008-12.832-44.352-33.473-55.696-18.576-10.256-25.344-33.599-15.12-52.176 10.288-18.657 33.68-25.281 52.176-15.12 45.169 24.88 73.233 72 73.233 123.009s-28.064 98.113-73.249 122.976z" />
<glyph unicode="&#xe92b;" glyph-name="true-false" data-tags="true-false" d="M432.055 698.464l-220.797-228.412c-7.615-7.615-22.842-7.615-38.066 0l-30.453 30.453-83.749 98.977c-7.615 7.615-7.615 22.842 0 38.066l30.453 30.453c7.615 7.615 22.842 7.615 38.066 0l76.138-76.138 167.502 175.116c15.229 7.615 30.453 7.615 38.066 0l30.453-30.453c7.615-7.615 7.615-15.229 7.615-22.842 0 0-7.615-7.615-15.229-15.229v0zM965.011 74.141l-30.453-30.453c-7.615-7.615-22.842-7.615-30.453 0 0 0 0 0 0 0l-68.525 68.525-68.525-68.525c-7.615-7.615-22.842-7.615-30.453 0 0 0 0 0 0 0l-30.453 30.453c-7.615 7.615-7.615 22.842 0 30.453l68.525 68.525-68.525 68.525c-7.615 7.615-7.615 22.842 0 30.453l30.453 30.453c7.615 7.615 22.842 7.615 30.453 0 0 0 0 0 0 0l68.525-68.525 68.525 68.525c7.615 7.615 22.842 7.615 30.453 0 0 0 0 0 0 0l30.453-30.453c7.615-7.615 7.615-22.842 0-30.453l-68.525-68.525 68.525-68.525c7.615 0 7.615-15.229 0-30.453v0zM782.285 736.532l-571.029-593.868c-15.229-15.229-15.229-38.066 0-53.296v0c15.229-15.229 38.066-15.229 53.296 0l571.029 593.868c15.229 15.229 15.229 38.066 0 53.296v0c-15.229 15.229-38.066 15.229-53.296 0z" />
<glyph unicode="&#xe92c;" glyph-name="dialog-cards" data-tags="dialog-cards" d="M883.355 728.443l-393.459 142.977c-27.707 10.046-58.272-4.443-68.32-32.152l-19.379-53.538h182.587c48.939 0 89.419-39.339 89.419-88.278v-702.212c0 0.581 0.29 1.295 0.425 1.874l240.724 663.029c10.046 27.707-4.308 58.272-32.016 68.32zM631.135 695.153c0 29.425-23.822 53.25-53.25 53.25h-418.867c-29.425 0-53.25-23.822-53.25-53.25v-705.961c0-29.425 23.822-53.25 53.25-53.25h418.867c29.425 0 53.25 23.822 53.25 53.25v705.961zM258.060 268.83c-4.599-1.139-9.468-2.724-14.645-2.724-0.135 0-0.29 0-0.581 0-2.588 0-4.889 2.010-5.448 4.889-0.715 3.15 1.584 5.313 3.44 7.458 6.608 7.458 14.066 14.066 19.96 28.131-27.553 15.939-45.212 40.632-45.212 68.185 0 48.091 53.538 86.984 119.58 86.984s119.58-38.893 119.58-86.984c0-48.091-53.538-86.984-119.58-86.984-10.337 0-20.383 1.004-29.851 2.724-14.066-10.046-30.141-17.236-47.222-21.679zM494.764 234.939c1.874-2.145 4.018-4.308 3.44-7.458-0.715-3.014-3.15-5.313-5.892-4.889-5.159 0.715-10.046 1.584-14.645 2.724-17.236 4.443-33.155 11.766-47.222 21.813-9.468-1.72-19.514-2.724-29.851-2.724-30.722 0-58.988 8.462-80.242 22.393 4.889-0.29 10.046-0.715 14.936-0.715 36.595 0 71.064 10.472 97.32 29.56 28.421 20.674 44.073 48.806 44.073 79.236 0 8.907-1.295 17.505-3.883 25.833 28.712-15.785 47.377-40.903 47.377-69.325 0-27.707-17.659-52.109-45.212-68.185 5.738-14.222 13.216-20.809 19.804-28.286z" />
<glyph unicode="&#xe92d;" glyph-name="questionnaire" data-tags="questionnaire" d="M963.081 735.037l-52.066 52.080c-6.897 6.893-16.475 10.72-26.042 10.72-9.572 0-19.154-3.824-26.029-10.72l-251.187-251.57-112.573 112.953c-6.893 6.893-16.464 10.721-26.035 10.721s-19.148-3.836-26.035-10.721l-52.077-52.072c-6.893-6.893-10.72-16.464-10.72-26.035s3.83-19.154 10.72-26.035l190.684-190.684c6.889-6.897 16.461-10.72 26.035-10.72s19.154 3.814 26.035 10.72l329.288 329.292c6.893 6.893 10.72 16.461 10.72 26.029 0 9.576-3.818 19.148-10.72 26.035zM600.255 246.876v-123.873h-439.878v439.889h113.574c-4.097 14.933-6.405 30.385-6.405 45.997 0 22.061 4.391 43.86 12.438 64.193h-229.786v-660.251h660.242v249.411c-24.018-11.929-50.652-18.521-77.726-18.521-10.932 0-21.789 1.131-32.456 3.165z" />
<glyph unicode="&#xe92e;" glyph-name="course-presentation" data-tags="course-presentation" d="M889.506 774.691h-755.010c-43.453 0-81.476-38.023-81.476-81.476v-505.151c0-43.453 38.023-81.476 81.476-81.476h211.837v-70.613h331.336v70.613h211.837c43.453 0 81.476 38.023 81.476 81.476v505.151c0 43.453-32.591 81.476-81.476 81.476zM889.506 188.065h-755.010v499.718h755.010v-499.718z" />
<glyph unicode="&#xe92f;" glyph-name="interactive-content" data-tags="interactive-content" d="M194.945 470.87c0 166.751 135.346 302.097 302.097 302.097s302.097-135.346 302.097-302.097c0-20.188-1.495-40.381-5.982-59.822 37.389-2.991 72.533-11.962 98.703-24.675 5.982 27.665 8.973 55.336 8.973 84.497 1.495 222.086-180.213 403.798-403.798 403.798-222.086 0-403.798-181.709-403.798-403.798s181.709-403.798 403.798-403.798c1.495 0 4.486 0 5.982 0l-43.373 104.687c-148.806 17.197-264.712 143.571-264.712 299.105zM434.232 606.965c72.533 30.657 158.526-4.486 188.44-78.515l53.841-130.86c12.71 2.991 24.675 5.982 37.389 7.478 5.982 20.188 8.973 40.381 8.973 63.562 0 124.879-101.695 226.573-226.573 226.573s-225.825-100.947-225.825-225.825c0-98.703 63.562-183.205 152.543-213.113l-68.794 162.264c-27.665 74.029 7.478 159.273 80.010 188.44zM894.855 309.355c-15.702 20.188-36.641 37.389-55.336 35.145-5.982-1.495-10.468-4.486-15.702-2.991-10.468 1.495-18.692 10.468-32.153 11.962-11.962 1.495-21.683-7.478-32.153-7.478s-20.188 8.973-35.145 7.478c-14.205-1.495-24.675-11.962-36.641-12.71-10.468-1.495-21.683 4.486-35.145 1.495-15.702-4.486-29.161-11.962-36.641-21.683-14.205 24.675-104.687 186.197-136.842 184.7-52.346-2.991-43.373-68.046-30.657-101.695 0 0 114.411-257.235 123.384-280.413 18.692-50.849 11.962-84.497 11.962-84.497s-92.722 0-121.889-20.188c-11.962-7.478-18.692-14.205-20.188-24.675-5.982-23.178 1.495-44.869 21.683-55.336 0 0 246.763-15.702 354.442 32.153 53.841 24.675 81.505 75.524 92.722 137.589 20.188 83.749 38.885 145.814-15.702 201.151z" />
<glyph unicode="&#xe930;" glyph-name="enterfullscreen" data-tags="enter full screen" d="M105.912-10.74h93.202l299.575 299.575c6.656 6.656 6.656 13.315 0 19.972l-99.858 93.202c-6.656 6.656-13.315 6.656-19.972 0l-259.632-266.288-59.917-59.917 46.6-86.544zM225.741 122.404l-159.774 159.774c-13.315 6.656-19.972 0-19.972-13.315v-319.545c0-6.656 0-13.315 6.656-13.315h326.204c6.656 0 13.315 13.315 6.656 19.972l-159.774 166.43zM838.204 748.179h-93.202l-33.285-33.285-179.746-186.401c-6.656-6.656-6.656-13.315 0-19.972l93.202-93.202c6.656-6.656 13.315-6.656 19.972 0l179.746 186.401 59.917 59.917-46.6 86.544zM798.259 694.923l159.774-159.774c13.315-6.656 19.972 0 19.972 6.656v326.204c0 6.656 0 6.656-6.656 6.656h-326.204c-6.656 0-13.315-6.656-6.656-13.315l159.774-166.43z" />
<glyph unicode="&#xe931;" glyph-name="exit-full-screen" data-tags="exit-full-screen" d="M389.943 300.712h-81.368l-261.547-261.547c-5.813-5.813-5.813-11.626 0-17.435l81.368-81.368c5.813-5.813 11.626-5.813 17.435 0l226.676 232.487 52.308 52.308-34.873 75.559zM285.323 184.469l139.491-139.491c5.813-5.813 17.435 0 17.435 5.813v284.799c0 5.813-5.813 11.626-11.626 11.626h-278.986c-5.813 0-11.626-11.626-5.813-17.435l139.491-145.304zM703.802 573.885h81.368l191.803 191.803c5.813 5.813 5.813 11.626 0 17.435l-81.368 87.182c-5.813 5.813-11.626 5.813-17.435 0l-156.93-162.743-58.122-58.122 40.687-75.559zM738.675 626.197l-139.491 139.491c-5.813 5.813-17.435 0-17.435-11.626v-278.986c0-5.813 5.813-11.626 11.626-11.626h278.986c5.813 0 11.626 11.626 5.813 17.435l-139.491 145.304z" />
<glyph unicode="&#xe932;" glyph-name="add" data-tags="add" d="M1024 318.483c0-15.327-5.331-28.21-15.993-38.872s-23.545-15.993-38.872-15.993h-315.419v-315.419c0-15.327-5.331-28.21-15.993-38.872s-23.545-15.993-38.872-15.993h-173.702c-15.327 0-28.21 5.331-38.872 15.993s-15.993 23.545-15.993 38.872v315.419h-315.419c-15.327 0-28.21 5.331-38.872 15.993s-15.993 23.545-15.993 38.872v173.702c0 15.327 5.331 28.21 15.993 38.872s23.545 15.993 38.872 15.993h315.419v315.419c0 15.327 5.331 28.21 15.993 38.872s23.545 15.993 38.872 15.993h173.702c15.327 0 28.21-5.331 38.872-15.993s15.993-23.545 15.993-38.872v-315.419h315.419c15.327 0 28.21-5.331 38.872-15.993s15.993-23.545 15.993-38.872v-173.702z" />
<glyph unicode="&#xe933;" glyph-name="check1" data-tags="check" d="M398.114 343.324l-230.772 230.772-167.341-167.196 398.11-398.11 625.89 625.89-167.341 167.196z" />
<glyph unicode="&#xe934;" glyph-name="delete1" data-tags="delete" d="M874.599 767.933c65.306-65.306 109.312-142.066 132.22-230.279s22.907-176.427 0-264.64c-22.907-88.213-66.914-164.973-132.22-230.279s-142.066-109.312-230.279-132.22c-88.213-22.907-176.427-22.907-264.64 0s-164.973 66.914-230.279 132.22c-65.306 65.306-109.312 142.066-132.22 230.279s-22.907 176.427 0 264.64c22.907 88.213 66.914 164.973 132.22 230.279s142.066 109.312 230.279 132.22c88.213 22.907 176.427 22.907 264.64 0 88.414-22.706 164.973-66.914 230.279-132.22zM681.695 153.855l81.783 81.783c4.823 4.823 7.234 10.65 7.234 17.482s-2.411 12.659-7.234 17.482l-134.43 134.43 134.43 134.43c4.823 4.823 7.234 10.65 7.234 17.482s-2.411 12.659-7.234 17.482l-81.783 81.783c-4.823 4.823-10.65 7.234-17.482 7.234s-12.659-2.411-17.482-7.234l-134.43-134.43-134.43 134.43c-4.823 4.823-10.65 7.234-17.482 7.234s-12.659-2.411-17.482-7.234l-81.783-81.783c-4.823-4.823-7.234-10.65-7.234-17.482s2.411-12.659 7.234-17.482l134.43-134.43-134.43-134.43c-4.823-4.823-7.234-10.65-7.234-17.482s2.411-12.659 7.234-17.482l81.783-81.783c4.823-4.823 10.65-7.234 17.482-7.234s12.659 2.411 17.482 7.234l134.43 134.43 134.43-134.43c4.823-4.823 10.65-7.234 17.482-7.234s12.659 2.411 17.482 7.234z" />
<glyph unicode="&#xe935;" glyph-name="metadata" data-tags="metadata" d="M401.732 352.324c-2.032 0.739-4.063 0.924-6.095 0.739-1.847-0.369-4.248-0.924-7.388-1.847s-5.726-1.293-7.942-1.293c-2.216 0-4.987 0.739-8.681 2.216-2.955 1.108-6.834 3.14-11.636 6.28s-8.312 4.987-9.974 5.726c-1.108 0.739-3.509 2.032-7.019 3.879-3.694 1.847-6.465 3.325-8.681 4.433s-4.433 2.771-6.834 5.172c-2.401 2.401-3.879 4.802-4.618 7.388-0.739 2.216-1.662 6.465-2.771 13.114-1.108 6.465-2.586 11.267-4.433 14.038-2.216 3.694-5.172 7.203-9.235 10.898s-7.573 5.356-10.898 5.356c2.955 0 2.955 2.401 0 7.388-2.955 4.802-5.356 8.496-7.573 10.528-0.739 0.739-2.955 3.14-6.465 7.019-3.694 4.063-6.649 7.388-9.235 10.343s-4.618 6.28-6.465 9.974c-1.847 3.879-2.216 7.019-1.108 9.42 0.369 0.369 0 0.924-1.108 1.662s-2.401 1.478-4.063 2.216c-1.662 0.739-3.14 1.293-4.618 1.847s-2.586 0.739-3.325 0.739c0.739-1.478 1.478-4.063 2.401-7.942s1.847-6.649 2.955-8.496c0.739-1.478 3.879-6.649 9.235-15.7 9.42-15.146 13.668-26.413 13.114-33.616-2.216-0.739-3.694-0.369-4.433 1.108s-1.293 3.509-1.662 5.911c-0.369 2.586-0.739 4.433-1.108 5.356-1.108 2.216-3.879 4.433-8.496 7.019s-7.388 4.987-8.496 7.573c0.369 0 0.739 0.185 1.293 0.554s0.924 0.554 1.293 0.554c0.369 3.325-1.478 7.388-5.726 12.56-4.248 4.987-5.911 8.681-5.172 10.898-2.955 2.216-5.356 6.465-7.573 12.745s-4.063 10.343-5.356 12.19c-1.478 2.216-3.325 4.063-5.356 5.726s-4.802 3.509-8.127 5.356c-3.325 2.032-5.356 3.325-6.465 4.063-0.739 0.369-2.216 2.032-4.433 4.802-12.006 14.407-15.515 22.349-10.898 23.273-4.618-1.108-8.681 2.401-11.636 10.528-3.14 8.127-4.063 14.407-2.955 18.655l-1.108 0.554c0.369 1.478 0.554 5.726 0.554 12.745s0.369 13.483 1.293 19.209c0.924 5.726 2.586 8.681 5.172 8.681-2.586-0.369-4.433 1.847-5.726 6.834-1.293 4.802-1.293 8.312-0.185 9.974 0.369 1.108 2.032 0.369 4.802-2.216 2.955-2.586 4.433-4.248 4.802-4.802 4.618 2.586 6.465 5.726 5.356 9.789-0.739 1.478-4.618 5.172-11.452 11.452-15.515 10.159-23.457 14.961-23.827 14.592 2.216 4.063 1.662 7.388-1.662 10.343-3.694-2.216-5.726-2.771-6.28-1.662s-0.924 3.14-1.293 5.911c-0.369 2.955-1.293 4.433-2.771 4.802-1.847 0.369-4.063 1.847-6.465 4.433 32.139 51.348 74.805 91.613 127.631 120.612 2.216 0.369 6.095 0.554 12.006 0.554 2.955-0.369 5.541-1.293 8.127-2.771s5.172-3.509 7.942-5.911c2.771-2.586 4.802-4.433 6.28-5.356 0.739 2.216-0.185 5.356-2.771 9.789 0.739 2.216 4.618 4.433 12.006 6.465 8.312 1.108 13.668 0.924 16.254-0.554-2.216 3.325-5.726 7.758-10.898 13.483l-2.771-2.771c-2.955 2.586-10.528 1.293-22.719-3.879-0.739-0.369-2.586-1.293-5.356-2.955-2.955-1.662-5.172-2.771-7.019-3.509-2.216-0.739-4.433-0.924-6.465-0.554 17.362 9.42 34.355 16.808 50.978 22.349 1.108-0.739 2.955-2.216 5.356-4.618 2.586-2.401 4.433-4.063 5.911-5.172-1.108 0.739-1.847 0.369-2.216-1.108-1.478-4.433-1.478-7.942 0-10.898 1.847-2.586 4.248-4.063 7.388-4.433s6.834-0.185 11.082 0.554c4.433 0.739 7.203 1.108 8.681 1.108l5.356-0.554c11.636-1.108 16.069 0 13.483 3.325 1.108-1.478 2.401-4.433 3.879-9.051s3.14-7.758 4.802-9.42c1.847 1.478 2.216 4.063 1.108 7.573-1.108 3.694-1.108 6.095 0 7.573 0.369 0.739 1.478 1.478 3.325 2.216s3.879 1.478 6.28 2.401c2.401 0.924 3.879 1.478 4.618 1.847 2.216 1.478 0.739 4.063-4.433 7.573-0.739 0.369-2.216 0.924-4.618 1.662s-4.433 1.478-6.28 2.216c-1.847 0.739-3.694 1.662-5.726 2.955s-2.955 2.771-2.771 4.433c0.185 1.662 1.108 3.694 2.955 6.28 2.216 1.847 5.726 2.586 10.528 2.216s8.681-1.293 11.082-2.771c9.789-5.356 11.267-10.343 4.433-14.592 3.694-0.369 7.942-1.847 13.114-4.433 4.987-2.586 7.019-5.172 5.911-8.127 2.955 5.356 5.726 8.127 8.681 8.127 1.847-0.369 3.509-2.771 5.172-7.388s2.586-7.019 2.955-7.388c2.955-4.063 5.726-4.802 8.681-2.771 2.955 2.216 5.911 5.356 9.051 9.42 3.14 4.248 4.802 6.095 5.172 5.726-3.694 1.478-4.063 2.955-1.108 4.433 5.356 3.325 10.343 4.248 14.592 2.771 1.108-0.739 2.586-2.401 4.433-4.802 3.325-6.465 2.771-9.605-1.662-9.235 3.325-2.955 4.618-6.465 4.063-10.898s-3.325-6.28-8.496-5.911c-1.847 0-4.433 0.924-7.942 2.771s-6.095 2.771-7.942 2.955c-1.847 0.185-4.433-0.739-7.573-2.955-1.478-1.847-3.325-4.802-5.726-9.235s-4.433-7.388-6.28-9.235c-5.356-5.356-14.407-7.388-27.152-5.911 1.108 0 0.924-1.108-0.185-3.325-1.293-2.216-2.955-4.618-5.172-7.388s-3.509-4.248-3.879-4.618c-3.325-3.694-5.356-7.758-6.465-12.56 0-0.739-0.185-3.14-0.554-7.388s-1.108-7.388-2.216-9.42c4.433 1.108 7.758-1.108 10.343-6.465 2.216-4.987 2.216-7.758 0-8.127 12.006 1.847 22.349 1.108 31.584-2.216 13.114-4.618 20.502-9.42 22.349-14.038 2.216 3.325 7.388 3.509 15.7 0.554 3.325-1.847 6.095-7.203 8.681-16.254 1.478-5.356 3.879-10.159 7.388-14.038 3.509-4.063 7.203-4.987 11.082-3.325l1.662 1.108c1.478 0.739 2.586 1.293 3.509 1.847s1.847 1.293 2.955 2.216c1.108 0.924 1.662 1.662 1.847 2.401s-0.185 1.478-0.739 2.216c-2.586 2.216-4.433 5.172-5.726 9.051s-0.924 7.203 0.739 9.974c1.108 1.478 4.063 3.694 8.681 6.465 4.618 2.955 7.573 5.726 8.681 8.681 1.478 4.618-0.369 8.681-5.356 11.636-4.987 3.14-7.573 5.911-7.573 8.496 0 1.847 1.108 4.063 3.509 6.465 2.401 2.586 3.325 4.802 2.955 7.019 0 1.108-0.554 3.325-1.847 6.834s-2.032 5.911-2.216 7.573c-0.185 1.662 0.554 3.509 2.401 5.726 2.586 1.478 8.496 1.293 17.916-0.185 9.42-1.662 15.515-3.325 18.47-5.172 1.108-0.739 3.509-1.847 7.019-3.325 3.694-1.478 6.834-2.955 9.42-4.618 2.771-1.662 4.248-3.14 4.618-4.618h-2.771c2.586-2.216 4.063-4.618 4.618-7.573s-0.739-4.987-4.063-6.465c2.216 0.369 4.987-0.185 8.681-1.662 5.726-2.216 5.911-4.248 0.554-5.911 1.108 0.369 2.586 0.739 4.618 1.108s3.509 0.924 4.618 1.662c0.739 0.369 1.662 0.924 2.771 1.847s1.847 1.478 2.401 1.662c0.554 0.185 1.293 0.369 2.401 0.554s2.216-0.185 3.325-0.739c0.369 0 1.108 0.924 2.401 2.771s2.586 3.694 4.063 5.356c1.478 1.847 2.771 2.771 3.879 2.771s2.032-0.369 2.955-1.293c0.924-0.924 1.662-1.847 2.216-2.955s1.108-2.216 1.662-3.509c0.554-1.293 0.924-2.216 1.293-2.955 0.739-1.847 2.401-3.694 5.172-5.726s4.433-3.879 5.172-5.726c0.369-1.108 1.108-3.879 2.216-8.127 1.108-4.433 2.586-7.388 4.433-9.051s4.433-2.955 8.127-4.063c0.739-0.369 2.401-0.185 4.802 0.554 2.586 0.739 4.618 0.924 6.28 0.554s2.401-1.847 2.401-4.433c2.216 2.216 3.325 3.694 3.325 4.433 0.369-4.618 1.478-8.496 3.509-11.452s5.172-4.248 9.42-3.879l-1.108-12.006c-1.108-1.847-3.879-3.14-8.127-4.063-4.433-0.924-7.019-1.662-8.127-2.401-1.108-0.369-3.694-2.586-7.942-6.465-4.248-4.063-5.911-6.28-5.172-7.019-6.095 6.834-15.33 8.866-27.706 5.911-13.853-2.216-23.088-4.433-28.26-6.465-5.726-2.955-9.789-5.541-12.006-8.127-0.369-0.369-0.924-1.662-1.847-3.879s-1.847-4.248-2.771-5.911c-0.924-1.847-1.662-2.771-2.401-2.771 2.216 0.369 4.618 2.032 7.388 5.172s4.433 4.802 5.172 5.172c9.42 6.095 17.177 8.312 23.273 6.465 7.942-2.216 9.235-4.987 3.879-8.681-0.739-0.739-2.586-0.924-5.726-0.739s-5.172 0-6.28-0.185c3.325-0.739 5.911-1.662 8.127-2.955s2.771-2.955 1.662-5.172c5.726-3.325 6.834-6.834 3.325-10.898-4.618-4.618-10.343-6.649-16.808-5.911 1.108 0 1.108-0.739 0-2.216l-9.235-5.911c-0.739-0.369-3.14-1.293-7.019-2.771-4.063-1.478-6.649-3.14-8.127-4.802-1.108-1.478-1.662-3.694-1.662-6.465 0-2.955-0.185-4.987-0.554-6.465s-1.847-1.847-4.433-1.108c-1.108-2.216-4.433-3.879-9.974-5.172s-9.235-3.14-11.082-5.726c2.216-2.955 2.032-5.726-0.554-8.681-4.433-3.694-8.127-3.325-11.452 1.108-1.847-0.739-3.14-2.586-4.063-5.356-0.924-2.955-2.216-4.802-4.063-5.911 2.586-4.063 2.216-6.834-1.108-8.681 0.369 0 1.108-0.369 2.401-1.108s2.586-1.662 4.063-2.771c1.478-1.108 2.401-1.662 2.771-1.662-1.478-3.325-3.509-4.802-5.911-4.802 2.216-5.726-0.554-12.19-8.127-19.025-1.478-1.478-3.694-2.955-6.834-4.433s-5.911-2.586-8.496-3.509c-2.586-0.924-4.063-1.478-4.433-1.847-3.694-3.325-6.28-6.649-8.127-9.974-1.847-3.509-2.032-6.834-0.739-9.974 1.293-3.325 4.618-5.356 9.974-6.465l0.369-3.509c65.016 49.131 146.101 78.315 233.836 78.315 41.189 0 81.085-6.465 118.211-18.286-4.063 64.831-22.349 125.229-55.042 181.195-37.31 63.908-87.919 114.517-151.827 151.827s-133.726 55.965-209.27 55.965c-75.729 0-145.362-18.655-209.27-55.965s-114.517-87.919-151.827-151.827c-37.31-63.908-55.965-133.726-55.965-209.27 0-75.729 18.655-145.362 55.965-209.27s87.919-114.517 151.827-151.827c39.157-22.903 80.716-38.788 124.306-47.654-3.694 21.61-5.726 43.96-5.726 66.494 1.478 70.372 20.502 137.051 53.749 194.309zM480.416 471.273c-1.847-1.847-3.325-2.955-4.618-3.509s-2.216-0.554-2.771-0.185c-0.554 0.369-1.478 1.108-2.955 2.401s-2.771 2.216-3.879 2.955c-1.847 1.108-4.987 2.032-9.42 2.771-4.618 0.739-7.388 1.662-8.496 2.771-8.681-6.465-13.853-4.802-15.7 4.802-0.739-1.847-0.554-4.248 0.185-7.388 0.924-3.14 1.293-4.802 1.293-5.172-2.586-4.618-6.465-4.987-12.006-1.108-2.216 2.216-7.203 2.401-14.961 0.739-7.388-1.478-12.56-1.847-15.146-0.924 0.369-0.185 0.924-0.739 1.847-1.478 1.108-0.739 1.847-1.293 2.216-1.662-0.369-1.478-0.924-2.586-1.662-3.325s-1.478-0.924-2.216-0.739c-0.739 0.185-1.478 0.185-2.401 0s-1.662-0.369-2.401-0.739c-1.478-1.108-3.325-2.955-5.356-5.726s-3.879-4.433-4.802-5.172c2.216-5.726 3.14-10.159 2.955-13.299s-0.739-7.573-1.662-13.483c-0.924-5.911-1.293-10.713-1.293-14.407 0-5.726 1.662-12.56 5.172-20.133s7.573-12.929 12.19-15.7c2.586-1.478 6.834-2.401 13.114-2.771 2.032-0.185 3.879-0.185 5.541-0.185 20.687 31.584 45.991 59.844 74.621 84.040-0.369 1.108-0.739 2.216-0.924 3.509-0.739 3.694-2.771 8.127-6.465 13.114zM392.312 469.611c-0.185 0-0.185 0.185-0.369 0.185 0-0.185 0.185-0.185 0.369-0.185zM966.003 289.709c23.457-40.266 35.279-84.41 35.279-132.248s-11.821-91.798-35.279-132.248c-23.457-40.266-55.411-72.219-95.861-95.861-40.266-23.457-84.41-35.279-132.248-35.279s-91.798 11.821-132.248 35.279c-40.266 23.457-72.219 55.411-95.861 95.861-23.457 40.266-35.279 84.41-35.279 132.248s11.821 91.798 35.279 132.248c23.457 40.266 55.411 72.219 95.861 95.861 40.266 23.457 84.41 35.279 132.248 35.279s91.798-11.821 132.248-35.279c40.45-23.642 72.404-55.596 95.861-95.861zM825.812-7.111v54.857c0 3.14-1.108 5.911-3.14 7.942s-4.618 3.14-7.942 3.14h-32.693v175.469c0 3.14-1.108 5.911-3.14 7.942s-4.618 3.14-7.942 3.14h-109.714c-3.14 0-5.911-1.108-7.942-3.14s-3.14-4.618-3.14-7.942v-54.857c0-3.14 1.108-5.911 3.14-7.942s4.618-3.14 7.942-3.14h32.877v-109.53h-32.877c-3.14 0-5.911-1.108-7.942-3.14s-3.14-4.618-3.14-7.942v-54.857c0-3.14 1.108-5.911 3.14-7.942s4.618-3.14 7.942-3.14h153.674c3.14 0 5.911 1.108 7.942 3.14 2.032 2.216 2.955 4.802 2.955 7.942zM782.038 300.053v54.857c0 3.14-1.108 5.911-3.14 7.942s-4.618 3.14-7.942 3.14h-65.755c-3.14 0-5.911-1.108-7.942-3.14s-3.14-4.618-3.14-7.942v-54.857c0-3.14 1.108-5.911 3.14-7.942s4.618-3.14 7.942-3.14h65.755c3.14 0 5.911 1.108 7.942 3.14 2.032 2.216 3.14 4.802 3.14 7.942zM738.078-106.666c-47.654 0-92.352 12.006-132.618 35.463s-72.589 55.781-96.231 96.231c-23.457 40.266-35.463 84.964-35.463 132.618s12.006 92.352 35.463 132.618c23.457 40.266 55.781 72.589 96.231 96.231 40.266 23.457 84.964 35.463 132.618 35.463s92.352-12.006 132.618-35.463c40.266-23.457 72.589-55.781 96.231-96.231v0c23.457-40.266 35.463-84.964 35.463-132.618s-12.006-92.352-35.463-132.618c-23.457-40.266-55.781-72.589-96.231-96.231-40.266-23.642-84.964-35.463-132.618-35.463zM738.078 419.926c-47.284 0-91.613-11.821-131.694-35.094s-72.219-55.411-95.492-95.492c-23.273-40.081-35.094-84.225-35.094-131.694s11.821-91.613 35.094-131.694c23.273-40.081 55.411-72.219 95.492-95.492s84.225-35.094 131.694-35.094c47.284 0 91.613 11.821 131.694 35.094s72.219 55.411 95.492 95.492c23.273 40.081 35.094 84.225 35.094 131.694 0 47.284-11.821 91.613-35.094 131.694v0c-23.273 40.081-55.411 72.219-95.492 95.492-40.081 23.088-84.41 35.094-131.694 35.094zM814.915-18.932h-153.674c-3.509 0-6.28 1.108-8.496 3.325s-3.325 5.172-3.325 8.496v54.857c0 3.509 1.108 6.28 3.325 8.496s5.172 3.325 8.496 3.325h31.954v107.867h-31.954c-3.509 0-6.28 1.108-8.496 3.325s-3.325 5.172-3.325 8.496v55.042c0 3.509 1.108 6.28 3.325 8.496s5.172 3.325 8.496 3.325h109.714c3.509 0 6.28-1.108 8.496-3.325s3.325-5.172 3.325-8.496v-174.545h31.954c3.509 0 6.28-1.108 8.496-3.325s3.325-5.172 3.325-8.496v-54.857c0-3.509-1.108-6.28-3.325-8.496-2.032-2.401-4.987-3.509-8.312-3.509zM661.241 57.721c-2.955 0-5.356-0.924-7.203-2.771s-2.771-4.248-2.771-7.203v-54.857c0-2.955 0.924-5.356 2.771-7.203s4.248-2.771 7.203-2.771h153.674c2.955 0 5.356 0.924 7.203 2.771s2.771 4.248 2.771 7.203v54.857c0 2.955-0.924 5.356-2.771 7.203s-4.248 2.771-7.203 2.771h-33.801v176.577c0 2.955-0.924 5.356-2.771 7.203s-4.248 2.771-7.203 2.771h-109.714c-2.955 0-5.356-0.924-7.203-2.771s-2.771-4.248-2.771-7.203v-54.857c0-2.955 0.924-5.356 2.771-7.203s4.248-2.771 7.203-2.771h33.801v-111.561h-33.986zM770.955 288.232h-65.755c-3.509 0-6.28 1.108-8.496 3.325s-3.325 5.172-3.325 8.496v54.857c0 3.509 1.108 6.28 3.325 8.496s5.172 3.325 8.496 3.325h65.755c3.509 0 6.28-1.108 8.496-3.325s3.325-5.172 3.325-8.496v-54.857c0-3.509-1.108-6.28-3.325-8.496s-4.987-3.325-8.496-3.325zM705.201 365.068c-2.955 0-5.356-0.924-7.203-2.771s-2.771-4.248-2.771-7.203v-54.857c0-2.955 0.924-5.356 2.771-7.203s4.248-2.771 7.203-2.771h65.755c2.955 0 5.356 0.924 7.203 2.771s2.771 4.248 2.771 7.203v54.857c0 2.955-0.924 5.356-2.771 7.203s-4.248 2.771-7.203 2.771h-65.755z" />
<glyph unicode="&#xe936;" glyph-name="edit" data-tags="edit" d="M568.316 717.462c5.244 5.244 11.266 7.964 18.064 7.964s12.043-2.719 15.928-7.964l221.82-221.82c5.244-4.079 7.964-9.323 7.964-15.928s-2.719-12.626-7.964-18.064l-523.667-523.667-243.769-43.898c-15.928-2.719-29.913 1.942-41.956 13.985s-16.705 26.028-13.985 41.956l43.898 243.769 523.667 523.667zM176.536 69.87v95.954h-71.868l-23.891-127.809 63.904-63.904 127.809 23.891v71.868h-95.954zM248.599 237.887c5.244-5.244 12.043-7.964 20.007-7.964s14.568 2.719 20.007 7.964l307.674 307.674c5.244 5.244 7.964 12.043 7.964 20.007s-2.719 14.568-7.964 20.007c-5.244 5.244-12.043 7.964-20.007 7.964s-14.568-2.719-20.007-7.964l-307.674-307.868c-5.244-5.244-7.964-12.043-7.964-20.007s2.525-14.568 7.964-19.812zM996.029 633.551c18.647 18.647 27.97 41.373 27.97 67.983s-9.323 49.337-27.97 67.983l-119.845 119.845c-18.647 18.647-41.373 27.97-67.983 27.97s-49.337-9.323-67.983-27.97l-92.069-91.875c-5.244-5.244-7.964-11.266-7.964-18.064s2.719-12.043 7.964-15.928l221.82-221.82c4.079-5.244 9.323-7.964 15.928-7.964s12.626 2.719 18.064 7.964l92.069 91.875z" />
<glyph unicode="&#xe937;" glyph-name="details-arrow" data-tags="details-arrow" d="M512 938.668l-90.24-90.24 357.12-357.76h-778.879v-127.999h778.879l-357.12-357.76 90.24-90.24 511.999 511.999z" />
<glyph unicode="&#xe938;" glyph-name="check2" data-tags="check (2)" d="M910.2 938.667h-796.4c-62.6 0-113.8-51.2-113.8-113.8v-796.4c0-62.6 51.2-113.8 113.8-113.8h796.4c62.6 0 113.8 51.2 113.8 113.8v796.4c0 62.6-51.2 113.8-113.8 113.8zM398.2 142.267l-284.4 284.4 79.6 79.6 204.8-204.8 432.4 432.4 79.6-79.6-512-512z" />
<glyph unicode="&#xe939;" glyph-name="plus1" data-tags="plus (1)" d="M597.333 512v426.667h-170.667v-426.667h-426.667v-170.667h426.667v-426.667h170.667v426.667h426.667v170.667z" />
<glyph unicode="&#xe93a;" glyph-name="close1" data-tags="close (1)" d="M1024 835.536l-103.131 103.131-408.869-408.869-408.869 408.869-103.131-103.131 408.869-408.869-408.869-408.869 103.131-103.131 408.869 408.869 408.869-408.869 103.131 103.131-408.869 408.869z" />
<glyph unicode="&#xe93b;" glyph-name="hub-icon" data-tags="hub-icon" d="M237.9 730.7l37.4-65c5.4-10.5 16.3-17.1 28.5-17.1h66.4l39.7-71 8.9 14.8c3.6 6 9.6 9.2 20.6 11l14 2.3-39.8 71.1 31.1 54c5.3 10.7 5.3 21.9 0 32.6l-0.1 0.3-37.4 65c-5.4 10.5-16.3 17.1-28.5 17.1h-74.8c-12.2 0-23.1-6.5-28.5-17.1l-37.7-65.2c-5.3-10.7-5.3-21.9 0-32.6l0.2-0.2zM287.6 747.2l26 47.1h53.4l27.6-47.1-27.6-47.1h-53.4l-26 47.1zM594.4 600.9c9.7-3.9 17.2-9 21.3-14.4l8.8-11.8 43 70.4 58.6-1.6c13.7 0 24.8 6.1 30.4 16.9l39.7 63.5c5.3 10.7 5.3 21.9 0 32.6l-35.6 65.3-0.5 0.8c-5.4 8.1-16.1 16.2-27.9 16.3l-73 2c-13.7 0-24.8-6.1-30.4-16.9l-39.7-63.5c-5.3-10.7-5.3-21.9 0-32.6l32.3-59.2-38-63.3 11-4.5zM639.2 743.9l27.4 45.2 53.5-1.6 26-47-27.4-45.2-53.5 1.6-26 47zM968.1 458.4l-0.1 0.3-37.2 64.6c-1.3 3.1-4.4 7.7-13.7 13.3-4.6 2.8-10.9 6.1-15.1 6.1h-74.8c-12.2 0-23.1-6.5-28.5-17.1l-33.1-57.5-79.3 2.1 5.6-14.1c3.1-7.7 3-15-0.2-24.6l-4.3-12.8 80-2.2 31.2-55.9c5.4-10.6 16.3-17.1 28.5-17.1h74.9c12.2 0 23.1 6.5 28.5 17.1l37.6 65.3c5.3 10.6 5.3 21.8 0 32.5zM920.1 444.2l-27.7-47.2h-53.4l-25.9 47 27.7 47.3h53.4l25.9-47.1zM771.1 192.9c-10.2 17.3-20.6 34.6-20.7 34.8l-0.4 0.6-0.4 0.5c-6.2 7.7-14.3 15.6-27.5 15.6h-63.6l-35.7 63.4-9.2-12.3c-4.6-6.1-12.3-10.4-21.2-11.9l-14.1-2.3 35.3-62.8-32.5-56.4c-5.3-10.7-5.3-21.9 0-32.6l0.2-0.4 39.4-63.1c5.4-10.4 16.3-16.9 28.4-16.9h74.8c12.2 0 23.1 6.5 28.5 17l35.2 59.6 0.5 0.9 0.3 1c0.3 0.9 0.6 1.9 1 2.9 2.3 6.4 5.4 15.1 3.4 23-0.4 3.2-3.8 9.1-21.7 39.4zM740 145.8l-27.6-47.1h-53.5l-27.6 47.1 27.6 47.1h53.5l27.6-47.1zM431.4 283.9c-9.7 3.9-17.2 9-21.3 14.4l-8.8 11.8-43-70.4-60.5 1.6c-13.7 0-24.8-6.1-30.4-16.9l-39.7-63.4c-5.3-10.7-5.3-21.9 0-32.6l35.6-65.3 0.5-0.8c5.4-8.1 16.1-16.2 27.9-16.3l75-2c13.7 0 24.8 6.1 30.4 16.9l39.7 63.4c5.3 10.7 5.3 21.9 0 32.6l-32.3 59.2 38 63.3-11.1 4.5zM386.6 140.9l-27.4-45.2-53.5 1.6-26 47 27.4 45.2 53.5-1.6 26-47zM229.4 362.5l32 55.6 79.5-2.1-4.5 13.5c-3.2 9.6-3.3 17-0.2 24.6l5.3 13.3-79.9 2.2-32.2 56c-5.4 10.5-16.3 17.1-28.5 17.1h-74.9c-12.2 0-23.1-6.5-28.5-17.1l-37.6-65.3c-5.3-10.7-5.3-21.9 0-32.6l0.2-0.3 37.1-62.5c2.9-7.5 9.8-13.5 19-16.8 2.7-1.3 6.4-2.7 9.7-2.7h74.8c12.4 0 23.3 6.6 28.7 17.1zM215 444.2l-27.7-47.2h-53.4l-25.9 47 27.7 47.3h53.4l25.9-47.1zM605.7 319.9l0.4 0.5 59.1 102.5c8.1 11.3 8.1 27.2 0 38.5l-59.2 102.4-0.4 0.5c-8.2 11-21.1 17.8-33.6 17.8h-118.1c-11 0-19.3-3.3-26.8-10.8-2.1-2.1-3.2-4.3-3.8-5.6-0.1-0.2-0.2-0.4-0.3-0.5l-0.8-0.8-59.5-103.1c-8.1-11.3-8.1-27.2 0-38.5l58.7-101.7c5.8-11.2 19-19 32.4-19h120.2c12 0 22.9 6.2 31.7 17.8zM613.7 444.1l-51.3-88.5h-102.7l-51.3 88.5 51.3 88.5h102.7l51.3-88.5z" />
<glyph unicode="&#xe93c;" glyph-name="info1" data-tags="info (1)" d="M745.14 54.974c-0.699 25.827-20.941 46.069-46.768 46.768h-46.069v418.813c-1.395 25.827-21.639 46.069-46.768 46.069h-279.209c-25.827 0-46.768-20.941-47.465-46.768v-92.837c0.699-25.827 20.941-46.069 46.768-46.768h46.768v-279.209h-46.069c-25.827-0.699-46.069-20.941-46.768-46.768v-92.837c0.699-25.827 20.941-46.069 46.768-46.768h372.045c25.827 0.699 46.069 20.941 46.768 46.768v93.534zM638.343 924.708c-8.376 9.075-20.242 13.96-32.806 13.96h-185.673c-25.827-0.699-46.069-20.941-46.768-46.768v-139.604c0.699-25.827 20.941-46.069 46.768-46.768h186.372c25.129 1.395 45.371 21.639 46.069 46.768v139.604c0 12.564-5.584 24.43-13.96 32.806z" />
<glyph unicode="&#xe991;" glyph-name="drag-and-drop" data-tags="drag-and-drop" d="M626.476 280.209h-394.015c-42.596 0-79.867 37.271-79.867 79.867v287.523c0 42.596 37.271 79.867 79.867 79.867h388.69c42.596 0 79.867-37.271 79.867-79.867v0-287.523c5.326-47.922-31.948-79.867-74.544-79.867zM232.464 679.547c-15.974 0-31.948-15.974-31.948-31.948v0-287.523c0-15.974 15.974-31.948 31.948-31.948h388.69c15.974 0 31.948 15.974 31.948 31.948v287.523c0 15.974-15.974 31.948-31.948 31.948h-388.69zM738.291 83.201h-69.219v47.922h69.219v-47.922zM594.528 83.201h-69.219v47.922h69.219v-47.922zM450.768 83.201h-53.245c-10.648 0-21.297 0-26.622 5.326l15.974 47.922c5.326 0 5.326 0 10.648 0h53.245v-53.245zM818.158 88.527l-15.974 47.922c15.974 5.326 21.297 15.974 21.297 31.948h47.922c0-37.271-21.297-69.219-53.245-79.867zM370.901 168.394h-47.922v69.219h47.922v-69.219zM871.406 237.613h-47.922v69.219h47.922v-69.219zM871.406 381.376h-47.922v69.219h47.922v-69.219zM802.187 487.865c-5.326 0-5.326 0-10.648 0h-53.245v47.922h53.245c10.648 0 21.297 0 26.622-5.326l-15.974-42.596z" />
<glyph unicode="&#xe992;" glyph-name="summary" data-tags="summary" d="M871.415 740.13h-718.824c-14.417 0-26.37-11.954-26.37-26.37v-52.745c0-14.417 11.954-26.37 26.37-26.37h718.824c14.417 0 26.37 11.954 26.37 26.37v52.745c0 14.42-11.954 26.37-26.37 26.37zM871.415 570.352h-558.12c-14.417 0-26.37-11.954-26.37-26.37v-52.745c0-14.417 11.954-26.37 26.37-26.37h558.12c14.417 0 26.37 11.954 26.37 26.37v52.745c0 14.417-11.954 26.37-26.37 26.37zM871.415 373.188h-558.12c-14.417 0-26.37-11.954-26.37-26.37v-52.745c0-14.417 11.954-26.37 26.37-26.37h558.12c14.417 0 26.37 11.954 26.37 26.37v52.745c0 14.42-11.954 26.37-26.37 26.37zM871.415 176.024h-558.12c-14.417 0-26.37-11.954-26.37-26.37v-52.745c0-14.417 11.954-26.37 26.37-26.37h558.12c14.417 0 26.37 11.954 26.37 26.37v52.745c0 14.42-11.954 26.37-26.37 26.37zM201.792 570.352h-49.207c-14.417 0-26.37-11.954-26.37-26.37v-52.745c0-14.417 11.954-26.37 26.37-26.37h49.207c14.417 0 26.37 11.954 26.37 26.37v52.745c0 14.417-11.954 26.37-26.37 26.37zM201.792 373.188h-49.207c-14.417 0-26.37-11.954-26.37-26.37v-52.745c0-14.417 11.954-26.37 26.37-26.37h49.207c14.417 0 26.37 11.954 26.37 26.37v52.745c0 14.42-11.954 26.37-26.37 26.37zM201.792 176.024h-49.207c-14.417 0-26.37-11.954-26.37-26.37v-52.745c0-14.417 11.954-26.37 26.37-26.37h49.207c14.417 0 26.37 11.954 26.37 26.37v52.745c0 14.42-11.954 26.37-26.37 26.37z" />
<glyph unicode="&#xe993;" glyph-name="single-choice-set" data-tags="single-choice-set" d="M820.25 464.266h-414.758c-15.966 0-29.197-13.231-29.197-29.197v-58.389c0-15.966 13.231-29.197 29.197-29.197h414.758c15.966 0 29.197 13.231 29.197 29.197v58.389c0.001 15.966-13.231 29.197-29.197 29.197zM894.379 231.16h-488.887c-15.966 0-29.197-13.231-29.197-29.197v-58.389c0-15.966 13.231-29.197 29.197-29.197h488.887c15.966 0 29.197 13.231 29.197 29.197v58.389c0 15.964-13.231 29.197-29.197 29.197zM909.211 697.366h-503.718c-15.966 0-29.197-13.231-29.197-29.197v-58.389c0-15.966 13.231-29.197 29.197-29.197h503.718c15.966 0 29.197 13.231 29.197 29.197v58.389c0 15.966-13.231 29.197-29.197 29.197zM189.717 705.921c36.969 0 66.939-29.969 66.939-66.939s-29.969-66.939-66.939-66.939c-36.969 0-66.939 29.969-66.939 66.939s29.969 66.939 66.939 66.939zM189.717 736.327c-53.681 0-97.359-43.678-97.359-97.359s43.678-97.359 97.359-97.359c53.681 0 97.359 43.678 97.359 97.359s-43.678 97.359-97.359 97.359v0zM189.717 238.648c36.969 0 66.939-29.969 66.939-66.939s-29.969-66.939-66.939-66.939c-36.969 0-66.939 29.969-66.939 66.939s29.969 66.939 66.939 66.939zM189.717 269.060c-53.681 0-97.359-43.678-97.359-97.359s43.678-97.359 97.359-97.359c53.681 0 97.359 43.678 97.359 97.359s-43.678 97.359-97.359 97.359v0zM293.854 406.722c0-57.51-46.621-104.131-104.131-104.131s-104.131 46.621-104.131 104.131c0 57.51 46.621 104.131 104.131 104.131s104.131-46.621 104.131-104.131z" />
<glyph unicode="&#xe994;" glyph-name="fill-in-the-blanks" data-tags="fill-in-the-blanks" d="M891.945 238.81h-161.719c-16.625 0-30.41-13.778-30.41-30.41v-60.81c0-16.625 13.778-30.41 30.41-30.41h161.719c16.625 0 30.41 13.778 30.41 30.41v60.81c-0.001 16.625-13.778 30.41-30.41 30.41zM408.895 466.138h-282.411c-16.625 0-30.41-13.778-30.41-30.41v-60.81c0-16.625 13.778-30.41 30.41-30.41h282.411c16.625 0 30.41 13.778 30.41 30.41v60.81c-0.001 16.627-13.778 30.41-30.41 30.41zM864.346 466.138c16.625 0 30.41-13.778 30.41-30.41v-60.81c0-16.625-13.778-30.41-30.41-30.41h-323.882c-16.625 0-30.408 13.778-30.408 30.41v60.81c0 16.625 13.778 30.41 30.408 30.41h323.882zM864.346 499.321h-323.882c-35.058 0-63.579-28.52-63.579-63.58v-60.81c0-35.058 28.52-63.58 63.579-63.58h323.882c35.058 0 63.58 28.52 63.58 63.58v60.81c-0.001 35.058-28.524 63.58-63.58 63.58v0zM604.447 238.81c16.625 0 30.408-13.778 30.408-30.41v-60.81c0-16.625-13.778-30.41-30.408-30.41h-268.58c-16.625 0-30.408 13.778-30.408 30.41v60.81c0 16.625 13.778 30.41 30.408 30.41h268.58zM604.447 271.985h-268.58c-35.058 0-63.579-28.52-63.579-63.58v-60.81c0-35.058 28.52-63.58 63.579-63.58h268.58c35.058 0 63.579 28.52 63.579 63.58v60.81c0 35.058-28.52 63.58-63.579 63.58v0zM592.014 693.472c16.625 0 30.408-13.778 30.408-30.41v-60.81c0-16.625-13.778-30.41-30.408-30.41h-144.168c-16.625 0-30.41 13.778-30.41 30.41v60.81c0 16.625 13.778 30.41 30.41 30.41h144.168zM592.014 726.653h-144.168c-35.058 0-63.58-28.52-63.58-63.58v-60.81c0-35.058 28.52-63.58 63.58-63.58h144.168c35.058 0 63.579 28.52 63.579 63.58v60.81c0 35.058-28.52 63.58-63.579 63.58v0zM126.488 571.848h180.329c16.625 0 30.41 13.778 30.41 30.41v60.81c0 16.625-13.778 30.41-30.41 30.41h-180.329c-16.625 0-30.41-13.778-30.41-30.41v-60.81c0-16.627 13.778-30.41 30.41-30.41zM725.397 571.848h167.979c16.625 0 30.41 13.778 30.41 30.41v60.81c0 16.625-13.778 30.41-30.41 30.41h-167.979c-16.625 0-30.41-13.778-30.41-30.41v-60.81c0-16.627 13.778-30.41 30.41-30.41zM126.488 117.179h80.161c16.625 0 30.41 13.778 30.41 30.41v60.81c0 16.625-13.778 30.41-30.41 30.41h-80.161c-16.625 0-30.41-13.778-30.41-30.41v-60.81c0-16.627 13.778-30.41 30.41-30.41z" />
</font>
</defs>
</svg>
