<?xml version="1.0" encoding="utf-8"?>
<!-- Generator: Adobe Illustrator 21.1.0, SVG Export Plug-In . SVG Version: 6.00 Build 0)  -->
<svg version="1.1" id="Layer_1" xmlns="http://www.w3.org/2000/svg" xmlns:xlink="http://www.w3.org/1999/xlink" x="0px" y="0px"
	 viewBox="0 0 16 16" style="enable-background:new 0 0 16 16;" xml:space="preserve" preserveAspectRatio="xMinYMid meet">
<style type="text/css">
	.st0{fill:#999999;}
</style>
<title>audio</title>
<path class="st0" d="M13.5,8c0,2.8-2.1,5.2-4.9,5.5v1.3h2.5c0.3,0,0.6,0.4,0.5,0.7c0,0.3-0.3,0.5-0.5,0.5H4.9
	c-0.3,0-0.7-0.2-0.7-0.5c0-0.3,0.2-0.7,0.5-0.7c0.1,0,0.1,0,0.2,0h2.5v-1.3C4.6,13.2,2.5,10.8,2.5,8V6.8c0-0.3,0.4-0.6,0.7-0.5
	c0.3,0,0.5,0.3,0.5,0.5V8c0,2.4,1.9,4.3,4.3,4.3c2.4,0,4.3-1.9,4.3-4.3c0,0,0,0,0,0V6.8c0-0.3,0.4-0.6,0.7-0.5
	c0.3,0,0.5,0.3,0.5,0.5L13.5,8z M11.1,8c0,1.7-1.4,3.1-3.1,3.1S4.9,9.7,4.9,8c0,0,0,0,0,0V3.1c0.1-1.7,1.6-3,3.3-2.9
	c1.6,0.1,2.8,1.3,2.9,2.9L11.1,8z"/>
</svg>
