<?xml version="1.0" encoding="utf-8"?>
<!-- Generator: Adobe Illustrator 21.1.0, SVG Export Plug-In . SVG Version: 6.00 Build 0)  -->
<svg version="1.1" id="Layer_1" xmlns="http://www.w3.org/2000/svg" xmlns:xlink="http://www.w3.org/1999/xlink" x="0px" y="0px"
	 viewBox="0 0 16 16" style="enable-background:new 0 0 16 16;" xml:space="preserve" preserveAspectRatio="xMinYMid meet">
<style type="text/css">
	.st0{fill:#888;}
</style>
<title>video</title>
<path class="st0" d="M16,12.9c0,0.2-0.1,0.4-0.4,0.5c-0.1,0-0.1,0-0.2,0c-0.2,0-0.3-0.1-0.4-0.2l-3.6-3.6v1.5c0,1.4-1.2,2.6-2.6,2.6
	H2.6c-1.4,0-2.5-1.1-2.6-2.5V4.9c0-1.4,1.2-2.6,2.6-2.6l0,0h6.3c1.4,0,2.6,1.2,2.6,2.6v1.5L15,2.7c0.1-0.1,0.2-0.2,0.4-0.2
	c0.1,0,0.1,0,0.2,0C15.8,2.7,16,2.9,16,3.1V12.9z"/>
</svg>
