<?xml version="1.0" encoding="utf-8"?>
<svg version="1.1" x="0px" y="0px" width="16px" height="16px" viewBox="0.3 -0.8 16 16" style="overflow:visible;enable-background:new 0.3 -0.8 16 16;" xmlns="http://www.w3.org/2000/svg">
  <path style="fill: rgb(0, 0, 0);" d="M 14.065 9.742 L 13.277 11.103 L 12.418 12.678 L 11.559 11.103 L 10.771 9.814 L 14.065 9.814 L 14.065 9.742 Z M 14.065 7.594 L 13.277 6.305 L 12.418 4.73 L 11.559 6.305 L 10.771 7.594 L 14.065 7.594 Z M 2.536 4.515 L 2.966 4.515 C 3.109 3.656 3.396 3.083 3.682 2.796 C 4.04 2.51 4.613 2.438 5.544 2.438 L 6.475 2.438 L 6.475 10.673 C 6.475 11.389 6.403 11.819 6.188 12.034 C 5.974 12.248 5.615 12.32 4.899 12.392 L 4.899 12.678 L 9.697 12.678 L 9.697 12.392 C 9.053 12.32 8.623 12.248 8.408 12.105 C 8.193 11.962 8.122 11.532 8.122 10.959 L 8.122 2.438 L 9.053 2.438 C 9.983 2.438 10.628 2.582 10.914 2.868 C 11.201 3.154 11.487 3.727 11.63 4.587 L 12.06 4.587 L 11.917 1.722 L 2.608 1.722 L 2.536 4.515 Z"/>
</svg>