<?xml version="1.0" encoding="UTF-8" standalone="no"?>
<svg
   xmlns:svg="http://www.w3.org/2000/svg"
   xmlns="http://www.w3.org/2000/svg"
   version="1.1"
   width="600"
   height="400"
   id="tcpdf_box">
    <path
       d="M 90.985619,80.446426 346.35007,41.527969 531.84796,73.758171 510.33606,162.12434 141.88004,173.44107 c 0,0 -50.653416,-75.65219 -50.894421,-92.994643 z"
       id="path3233"
       style="fill:#a0892c;fill-rule:evenodd;stroke:#000000;stroke-width:1.752859;stroke-miterlimit:4" />
    <path
       d="M 529.05896,75.10788 300.27124,141.12856 300.79367,399.12354 497.22012,254.93323 529.05896,75.10788 z"
       id="path2459"
       style="fill:#e9ddaf;fill-rule:evenodd;stroke:#000000;stroke-width:1.752859;stroke-linejoin:round;stroke-miterlimit:4" />
    <path
       d="M 90.218147,82.241417 300.27124,141.12855 300.7012,399.02023 126.31743,290.06747 90.218147,82.241417 z"
       id="path3231"
       style="fill:#decd87;fill-rule:evenodd;stroke:#000000;stroke-width:1.752859;stroke-linejoin:round;stroke-miterlimit:4" />
    <path
       d="M 529.05896,75.10788 385.23331,336.05582 496.07782,253.785 529.05896,75.10788 z"
       id="path3204"
       style="fill:#f4eed7;fill-rule:evenodd" />
    <path
       d="M 599.14056,86.981453 529.51617,74.695641 300.48178,141.29306 392.57645,167.00775 599.14056,86.981453 z"
       id="path3243"
       style="fill:#f4eed7;fill-rule:evenodd;stroke:#000000;stroke-width:1.752859;stroke-miterlimit:4" />
    <path
       d="M 87.390083,82.159248 297.45667,141.08572 204.52271,194.32928 0.85943,106.64266 87.390083,82.159248 z"
       id="path3245"
       style="fill:#f4eed7;fill-rule:evenodd;stroke:#000000;stroke-width:1.752859;stroke-miterlimit:4" />
    <path
       d="M 303.71381,0.87646 344.51688,42.208691 90.712837,82.130967 20.69376,29.79868 303.71381,0.876461 z"
       id="path3247"
       style="fill:#f4eed7;fill-rule:evenodd;stroke:#000000;stroke-width:1.752859;stroke-miterlimit:4" />
    <path
       d="M 529.36993,74.145378 344.28207,41.9492 384.15726,4.13702 577.56598,34.24292 529.36993,74.145378 z"
       id="path3263"
       style="fill:#decd87;fill-rule:evenodd;stroke:#000000;stroke-width:1.752859;stroke-miterlimit:4" />
    <path
       d="M 94.075058,82.454048 343.50751,43.286419 284.91046,135.92899 C 204.24522,113.95545 163.67139,101.62348 94.075058,82.454049 z"
       id="path3206"
       style="fill:#c8ab37;fill-rule:evenodd" />
    <path
       d="m 344.40955,42.08839 -0.97239,86.93644 0.97239,-86.93644 z"
       id="path2426"
       style="fill:#caa98d;fill-rule:evenodd;stroke:#000000;stroke-width:1.752859;stroke-linejoin:round;stroke-miterlimit:4" />
    <path
       d="m 357.41141,198.77278 c 0,0 -1.06345,26.55933 -1.06345,26.55933 0,0 -12.12588,5.79739 -12.12588,5.79739 0,0 -2.89969,96.8629 -2.89969,96.8629 0,0 -19.9061,12.81561 -19.9061,12.81561 0,0 1.15698,-99.32809 1.15698,-99.32809 0,0 -13.59121,6.49803 -13.59121,6.49803 0,0 0,-28.30334 0,-28.30334 0,0 48.42935,-20.90183 48.42935,-20.90183"
       id="path5441"
       style="fill:#550000" />
    <path
       d="m 401.10504,230.8226 c 0,0 -17.00665,9.0165 -17.00665,9.0165 0,0 1.3512,-21.019 1.3512,-21.019 0.402,-6.2545 0.45517,-10.08344 0.15475,-11.44165 -0.26965,-1.42879 -1.06461,-1.83763 -2.3894,-1.22009 -1.50556,0.70219 -2.52317,2.11514 -3.04563,4.2332 -0.52157,2.11482 -0.96939,6.34812 -1.34085,12.65235 0,0 -3.23221,54.84809 -3.23221,54.84809 -0.32101,5.44577 -0.33578,8.85397 -0.048,10.25909 0.28671,1.39908 1.09888,1.68448 2.43259,0.86377 1.27319,-0.78342 2.14758,-2.10034 2.62838,-3.95581 0.50837,-1.87454 0.95707,-5.83545 1.34897,-11.93002 0,0 0.91309,-14.20398 0.91309,-14.20398 0,0 16.77621,-9.47276 16.77621,-9.47276 0,0 -0.33963,4.34254 -0.33963,4.34254 -0.89019,11.37775 -1.9667,19.58865 -3.23806,24.78162 -1.24018,5.15307 -3.53693,10.4162 -6.90912,15.83102 -3.36563,5.4292 -7.3844,9.66376 -12.10367,12.72073 -4.99368,3.23487 -9.10043,4.46546 -12.29227,3.63599 -3.24878,-0.84418 -5.33295,-3.60156 -6.21771,-8.30939 -0.89523,-4.8204 -1.10458,-12.86691 -0.61096,-24.25988 0,0 1.53271,-35.38347 1.53271,-35.38347 0.3931,-9.07071 0.87778,-16.0441 1.45276,-20.83719 0.58109,-4.87754 1.8923,-9.93605 3.93183,-15.15415 2.07186,-5.235 4.79159,-9.82054 8.13882,-13.73193 3.35501,-3.94881 7.07321,-6.78658 11.12744,-8.51622 5.4072,-2.30643 9.65549,-2.2641 12.78149,0.0581 3.06675,2.27881 4.88321,5.94397 5.48707,10.97809 0.5997,4.91933 0.45568,12.99251 -0.41431,24.11017 0,0 -0.86871,11.10411 -0.86871,11.10411"
       id="path5443"
       style="fill:#550000" />
    <path
       d="m 411.35443,175.49126 c 0,0 16.23862,-7.00843 16.23862,-7.00843 4.21411,-1.81866 7.33169,-2.52597 9.38946,-2.14839 2.05817,0.3633 3.48441,1.54648 4.29062,3.53996 0.82251,1.9665 1.22608,4.60317 1.21613,7.90484 0.0169,3.22044 -0.36075,8.38028 -1.12943,15.43508 0,0 -1.05478,9.68189 -1.05478,9.68189 -0.76248,6.99831 -1.66961,12.24153 -2.72592,15.78421 -1.05399,3.53464 -2.6333,6.67149 -4.74774,9.42722 -2.10278,2.75729 -4.73932,5.03327 -7.93247,6.83464 0,0 -3.97955,2.24502 -3.97955,2.24502 0,0 -4.02936,42.15401 -4.02936,42.15401 0,0 -14.95935,9.63092 -14.95935,9.63092 0,0 9.42377,-113.48097 9.42377,-113.48097 m 14.17023,13.51561 c 0,0 -2.79438,29.23405 -2.79438,29.23405 0.42658,-0.18139 0.79483,-0.35402 1.10511,-0.5179 1.37976,-0.72847 2.39001,-1.87172 3.03671,-3.4328 0.67474,-1.61934 1.21869,-4.50798 1.63415,-8.6878 0,0 0.93119,-9.36968 0.93119,-9.36968 0.39178,-3.9412 0.33706,-6.37085 -0.16742,-7.27288 -0.50681,-0.90578 -1.75189,-0.89307 -3.74564,0.0468"
       id="path5445"
       style="fill:#550000" />
    <path
       d="m 449.00479,159.24159 c 0,0 10.44077,-4.5061 10.44077,-4.5061 6.49575,-2.80348 10.69668,-4.00293 12.72158,-3.6608 2.0213,0.32964 3.39048,1.7039 4.12034,4.10832 0.72277,2.38149 0.98129,5.26491 0.78176,8.64975 -0.19201,3.31783 -0.96899,9.99964 -2.31472,19.94068 0,0 -4.79395,35.41017 -4.79395,35.41017 -1.18439,8.74899 -2.16592,14.65866 -2.95572,17.8175 -0.76312,3.09777 -1.73532,5.76644 -2.91974,8.01586 -1.18118,2.21374 -2.5317,4.11101 -4.05642,5.69523 -1.52753,1.55346 -3.76374,3.27924 -6.73096,5.18953 0,0 -16.30603,10.49793 -16.30603,10.49793 0,0 12.01309,-107.15807 12.01309,-107.15807 m 11.48944,13.27721 c 0,0 -8.43966,68.83415 -8.43966,68.83415 1.83639,-1.12169 3.05044,-2.53693 3.65325,-4.25322 0.60837,-1.758 1.3288,-5.94594 2.16813,-12.61931 0,0 5.08401,-40.4202 5.08401,-40.4202 0.61536,-4.89276 0.94013,-8.01438 0.9708,-9.3384 0.0297,-1.32778 -0.17337,-2.18634 -0.61277,-2.57413 -0.43551,-0.43419 -1.37487,-0.31191 -2.82376,0.37111"
       id="path5447"
       style="fill:#550000" />
    <path
       d="m 484.47485,143.93306 c 0,0 19.70978,-8.50664 19.70978,-8.50664 0,0 -3.18149,20.74545 -3.18149,20.74545 0,0 -7.77993,3.71959 -7.77993,3.71959 0,0 -2.85361,19.33512 -2.85361,19.33512 0,0 6.88156,-3.57958 6.88156,-3.57958 0,0 -2.83499,18.56089 -2.83499,18.56089 0,0 -6.82193,3.82412 -6.82193,3.82412 0,0 -5.83667,39.54715 -5.83667,39.54715 0,0 -11.29004,7.26862 -11.29004,7.26862 0,0 14.00732,-100.91472 14.00732,-100.91472"
       id="path5449"
       style="fill:#550000" />
</svg>
