<?xml version="1.0" encoding="utf-8"?>

<!DOCTYPE svg PUBLIC "-//W3C//DTD SVG 1.1//EN" "http://www.w3.org/Graphics/SVG/1.1/DTD/svg11.dtd">
<svg version="1.1"
	 id="svg2" xmlns:dc="http://purl.org/dc/elements/1.1/" xmlns:cc="http://creativecommons.org/ns#" xmlns:rdf="http://www.w3.org/1999/02/22-rdf-syntax-ns#" xmlns:svg="http://www.w3.org/2000/svg" xmlns:sodipodi="http://sodipodi.sourceforge.net/DTD/sodipodi-0.dtd" xmlns:inkscape="http://www.inkscape.org/namespaces/inkscape" sodipodi:docname="universal-access.svg" inkscape:version="0.48.4 r9939"
	 xmlns="http://www.w3.org/2000/svg" xmlns:xlink="http://www.w3.org/1999/xlink" x="0px" y="0px" width="1200px" height="1200px"
	 viewBox="0 0 1200 1200" enable-background="new 0 0 1200 1200" xml:space="preserve" preserveAspectRatio="xMinYMid meet">
<path id="path24717" inkscape:connector-curvature="0" d="M600,0C268.629,0,0,268.629,0,600s268.629,600,600,600
	s600-268.629,600-600S931.371,0,600,0z M600,80.167c287.105,0,519.833,232.727,519.833,519.833
	c0,287.105-232.727,519.871-519.833,519.871c-287.106,0-519.871-232.765-519.871-519.871S312.894,80.167,600,80.167z
	 M922.375,541.163c17.269,16.33,16.732,39.747,3.838,56.29c-15.771,16.638-40.629,17.347-56.29,3.838
	c-48.914-44.386-102.442-85.918-152.237-131.77c-0.152,1.96-13.502-8.813-19.189-8.956c-5.118,0-7.677,5.971-7.677,17.91
	c2.512,49.275-1.148,101.299,4.478,149.04c2.133,17.484,3.198,27.506,3.198,30.064l57.569,327.505
	c3.299,30.075-13.141,52.539-39.658,57.569c-26.557,7.224-53.846-15.676-57.569-39.658c0,0-46.445-264.445-47.335-268.657
	s-2.46-27.537-11.514-28.784c-11.634,4.222-10.286,23.812-11.516,28.784c-1.229,4.972-47.335,268.657-47.335,268.657
	c-7.78,27.743-31.696,44.14-57.568,39.658c-29.562-7.392-44.012-31.018-39.658-57.569l57.569-328.784
	c8.5-60.769,6.396-115.129,6.396-176.546c0-11.944-2.345-18.128-7.036-18.55c-4.69-0.427-10.874,2.771-18.55,9.595L330.051,601.29
	c-17.788,13.255-42.655,11.046-56.29-3.838c-13.784-19.696-12.902-41.007,3.838-56.29l199.573-176.546
	c9.384-5.972,18.126-10.021,26.228-12.154c8.104-2.132,18.125-3.198,30.062-3.198h133.05c11.939,0,21.962,1.066,30.063,3.198
	c8.103,2.133,16.845,6.61,26.227,13.433C786.344,421.632,853.806,481.598,922.375,541.163L922.375,541.163z M688.031,238.326
	c0,48.328-39.178,87.505-87.504,87.505c-48.328,0-87.506-39.177-87.506-87.505c0-48.327,39.178-87.504,87.506-87.504
	C648.854,150.821,688.031,189.999,688.031,238.326z"/>
</svg>
