<?xml version="1.0" encoding="utf-8"?>
<!-- Generator: Adobe Illustrator 21.0.0, SVG Export Plug-In . SVG Version: 6.00 Build 0)  -->
<svg version="1.1" id="repeat" xmlns="http://www.w3.org/2000/svg" xmlns:xlink="http://www.w3.org/1999/xlink" x="0px" y="0px"
	 viewBox="0 0 24 24" style="enable-background:new 0 0 24 24;" xml:space="preserve">
<style type="text/css">
	.st1{fill:#000000;}
</style>
<title>repeat</title>
<path class="st1" d="M21.8,11h-2.6c0,1.5-0.3,2.9-1,4.2c-0.8,1.6-2.1,2.8-3.7,3.6c-1.5,0.8-3.3,1.1-4.9,0.8c-1.6-0.2-3.2-1-4.4-2.1
	c-0.4-0.3-0.4-0.9-0.1-1.2c0.3-0.4,0.9-0.4,1.2-0.1l0,0c1,0.7,2.2,1.1,3.4,1.1s2.3-0.3,3.3-1c0.9-0.6,1.6-1.5,2-2.6
	c0.3-0.9,0.4-1.8,0.2-2.8h-2.4c-0.4,0-0.7-0.3-0.7-0.7c0-0.2,0.1-0.3,0.2-0.4l4.4-4.4c0.3-0.3,0.7-0.3,0.9,0L22,9.8
	c0.3,0.3,0.4,0.6,0.3,0.9S22,11,21.8,11z"/>
</svg>
