<svg width="38" height="38" viewBox="0 0 38 38" fill="none" xmlns="http://www.w3.org/2000/svg">
<path d="M1 19C1 9.05888 9.05888 1 19 1C28.9411 1 37 9.05888 37 19C37 28.9411 28.9411 37 19 37C9.05888 37 1 28.9411 1 19Z" fill="white"/>
<path d="M14.1613 16.4194C14.1613 16.9539 14.5945 17.3871 15.129 17.3871H22.8709C23.4054 17.3871 23.8387 16.9539 23.8387 16.4194C23.8387 15.8849 23.4054 15.4517 22.8709 15.4517H15.129C14.5945 15.4517 14.1613 15.8849 14.1613 16.4194Z" fill="black"/>
<path d="M14.1613 21.5807C14.1613 22.1152 14.5945 22.5484 15.129 22.5484H22.8709C23.4054 22.5484 23.8387 22.1152 23.8387 21.5807C23.8387 21.0462 23.4054 20.613 22.8709 20.613H15.129C14.5945 20.613 14.1613 21.0462 14.1613 21.5807Z" fill="black"/>
<path d="M19 36.5C9.33502 36.5 1.5 28.665 1.5 19H0.5C0.5 29.2173 8.78273 37.5 19 37.5V36.5ZM36.5 19C36.5 28.665 28.665 36.5 19 36.5V37.5C29.2173 37.5 37.5 29.2173 37.5 19H36.5ZM19 1.5C28.665 1.5 36.5 9.33502 36.5 19H37.5C37.5 8.78273 29.2173 0.5 19 0.5V1.5ZM19 0.5C8.78273 0.5 0.5 8.78273 0.5 19H1.5C1.5 9.33502 9.33502 1.5 19 1.5V0.5Z" fill="black" fill-opacity="0.15"/>
</svg>
