<svg width="38" height="38" viewBox="0 0 38 38" fill="none" xmlns="http://www.w3.org/2000/svg">
<path d="M1 19C1 9.05888 9.05888 1 19 1C28.9411 1 37 9.05888 37 19C37 28.9411 28.9411 37 19 37C9.05888 37 1 28.9411 1 19Z" fill="white"/>
<path fill-rule="evenodd" clip-rule="evenodd" d="M19 29C13.4772 29 9 24.5228 9 19C9 13.4772 13.4772 9 19 9C24.5228 9 29 13.4772 29 19C29 24.5228 24.5228 29 19 29ZM16.4193 19.9678C15.8848 19.9678 15.4516 19.5345 15.4516 19C15.4516 18.4655 15.8848 18.0323 16.4193 18.0323H21.5806C22.1151 18.0323 22.5483 18.4655 22.5483 19C22.5483 19.5345 22.1151 19.9678 21.5806 19.9678H16.4193ZM27.0645 19C27.0645 23.4539 23.4539 27.0645 19 27.0645C14.546 27.0645 10.9354 23.4539 10.9354 19C10.9354 14.5461 14.546 10.9355 19 10.9355C23.4539 10.9355 27.0645 14.5461 27.0645 19Z" fill="black"/>
<path d="M19 36.5C9.33502 36.5 1.5 28.665 1.5 19H0.5C0.5 29.2173 8.78273 37.5 19 37.5V36.5ZM36.5 19C36.5 28.665 28.665 36.5 19 36.5V37.5C29.2173 37.5 37.5 29.2173 37.5 19H36.5ZM19 1.5C28.665 1.5 36.5 9.33502 36.5 19H37.5C37.5 8.78273 29.2173 0.5 19 0.5V1.5ZM19 0.5C8.78273 0.5 0.5 8.78273 0.5 19H1.5C1.5 9.33502 9.33502 1.5 19 1.5V0.5Z" fill="black" fill-opacity="0.15"/>
</svg>
