<?xml version="1.0" encoding="utf-8"?>
<!-- Generator: Adobe Illustrator 25.2.3, SVG Export Plug-In . SVG Version: 6.00 Build 0)  -->
<svg width="24px" height="24px" version="1.1" id="Ebene_1" xmlns="http://www.w3.org/2000/svg" xmlns:xlink="http://www.w3.org/1999/xlink" x="0px" y="0px"
	 viewBox="0 0 24 24" style="enable-background:new 0 0 24 24;" xml:space="preserve" preserveAspectRatio="xMinYMid meet">
<g>
	<path d="M15.2,7.6L10.8,7c-0.2,0-0.4,0.1-0.4,0.3v0.3c0,0.1,0.1,0.2,0.3,0.3l4.3,0.6c0.2,0,0.4-0.1,0.4-0.3V7.8
		C15.4,7.7,15.3,7.6,15.2,7.6z"/>
	<path d="M10.4,4.3c-0.1,0-0.3,0-0.3,0.1C8.9,6,8,7.9,7.6,8.9c0,0.1-0.2,0.1-0.3,0C7.2,8.5,6.9,8,6.5,7.5C6.4,7.3,6.2,7.3,6,7.4l0,0
		C5.9,7.5,5.8,7.7,5.9,7.9c0.5,0.9,1,2,1.3,2.8c0.1,0.3,0.5,0.3,0.7,0c0.7-1.9,1.7-4.3,2.7-5.8C10.8,4.6,10.7,4.3,10.4,4.3z"/>
	<path d="M5.9,16.9l4.4,0.7c0.4,0.1,0.6-0.1,0.6-0.5v-2c0-0.3-0.2-0.5-0.5-0.5l-4.5-0.8c-0.3,0-0.5,0.2-0.5,0.5v2
		C5.4,16.6,5.5,16.8,5.9,16.9z M6.1,15.1c0-0.2,0.2-0.4,0.4-0.4l3.1,0.5c0.2,0,0.4,0.2,0.4,0.4v0.8c0,0.3-0.1,0.4-0.4,0.4l-3.1-0.5
		c-0.2,0-0.4-0.2-0.4-0.4V15.1z"/>
	<path d="M15.1,10l-4.4-0.6c-0.2,0-0.4,0.1-0.4,0.3v0.3c0,0.1,0.1,0.3,0.3,0.3l4.4,0.6c0.2,0,0.4-0.1,0.4-0.3v-0.3
		C15.4,10.2,15.3,10.1,15.1,10z"/>
	<path d="M22,8.6l-1.9-0.3V2.4c0-0.4-0.3-0.7-0.6-0.7L7.8,0.1C7.4,0,7,0.4,7,0.8v1.7L5.6,2.3C5.1,2.3,4.7,2.6,4.7,3v6.1l-2.9,1.7
		c-0.2,0.1-0.4,0.3-0.4,0.6v9.2c0,0.4,0.3,0.7,0.6,0.8l12.9,2.5v0l0,0l0,0v0l7.2-4.6c0.2-0.2,0.3-0.4,0.3-0.8V9.3
		C22.5,9,22.5,8.7,22,8.6z M21.2,9.3L20.1,10l0-0.8L21.2,9.3z M7.7,1.1c0-0.2,0.2-0.4,0.4-0.3l11,1.6c0.2,0,0.3,0.2,0.3,0.3l0,7.6
		l-1.5,0.9V4.6c0-0.4-0.3-0.7-0.6-0.7L7.7,2.6V1.1z M4.7,10v1.3L3.1,11L4.7,10z M14.4,22.9L2.6,20.7c-0.2,0-0.4-0.3-0.4-0.5v-7.9
		c0-0.3,0.3-0.5,0.5-0.5l11.7,1.9L14.4,22.9L14.4,22.9z M14.9,13l-9.4-1.6l0-8C5.5,3.2,5.7,3,5.9,3l10.9,1.5c0.2,0,0.3,0.2,0.3,0.3
		v6.9L14.9,13z M21.8,18.3c0,0.2-0.1,0.5-0.2,0.5l-6.2,3.8v-9l5.9-3.4c0.2-0.1,0.4,0.1,0.4,0.4V18.3z"/>
</g>
</svg>

