<?xml version="1.0" encoding="UTF-8" standalone="no"?>
<svg
   xmlns:dc="http://purl.org/dc/elements/1.1/"
   xmlns:cc="http://creativecommons.org/ns#"
   xmlns:rdf="http://www.w3.org/1999/02/22-rdf-syntax-ns#"
   xmlns:svg="http://www.w3.org/2000/svg"
   xmlns="http://www.w3.org/2000/svg"
   xmlns:sodipodi="http://sodipodi.sourceforge.net/DTD/sodipodi-0.dtd"
   xmlns:inkscape="http://www.inkscape.org/namespaces/inkscape"
   stroke-miterlimit="1.41421"
   viewBox="0 0 15.999997 15.93243"
   version="1.1"
   id="svg28"
   sodipodi:docname="icon.svg"
   width="15.999997"
   height="15.93243"
   style="clip-rule:evenodd;fill-rule:evenodd;stroke-linejoin:round;stroke-miterlimit:1.41420996"
   inkscape:version="0.92.3 (2405546, 2018-03-11)">
  <metadata
     id="metadata34">
    <rdf:RDF>
      <cc:Work
         rdf:about="">
        <dc:format>image/svg+xml</dc:format>
        <dc:type
           rdf:resource="http://purl.org/dc/dcmitype/StillImage" />
      </cc:Work>
    </rdf:RDF>
  </metadata>
  <defs
     id="defs32" />
  <sodipodi:namedview
     pagecolor="#ffffff"
     bordercolor="#666666"
     borderopacity="1"
     objecttolerance="10"
     gridtolerance="10"
     guidetolerance="10"
     inkscape:pageopacity="0"
     inkscape:pageshadow="2"
     inkscape:window-width="1920"
     inkscape:window-height="1025"
     id="namedview30"
     showgrid="false"
     inkscape:zoom="0.59"
     inkscape:cx="-220.81356"
     inkscape:cy="7.9662073"
     inkscape:window-x="1366"
     inkscape:window-y="27"
     inkscape:window-maximized="1"
     inkscape:current-layer="svg28" />
  <ellipse
     cx="8.5000076"
     cy="2.9873271"
     id="circle2"
     style="fill:#7b83eb;stroke-width:0.07257355"
     rx="2.3335271"
     ry="2.3236725" />
  <path
     d="m 8.3335258,3.48522 h -2.11302 l 0.0105,0.0463 10e-4,0.004 0.0105,0.0429 c 0.31723,1.1974 1.54203,1.94333 2.75701,1.67885 V 4.14895 c -10e-4,-0.36362 -0.30123,-0.66257 -0.66647,-0.66366 z"
     id="path4"
     inkscape:connector-curvature="0"
     style="fill-opacity:0.09803898;fill-rule:nonzero;stroke-width:0.07257355" />
  <path
     d="m 7.8335258,3.98311 h -1.44203 c 0.3856,0.80966 1.20858,1.3279 2.10851,1.3279 V 4.64727 c -10e-4,-0.36369 -0.30131,-0.66257 -0.66648,-0.66365 z"
     id="path6"
     inkscape:connector-curvature="0"
     style="fill-opacity:0.2;fill-rule:nonzero;stroke-width:0.07257355" />
  <ellipse
     cx="13.750038"
     cy="3.734199"
     id="circle8"
     style="fill:#5059c9;stroke-width:0.07257355"
     rx="1.7500364"
     ry="1.742646" />
  <g
     id="g24"
     transform="matrix(0.07272726,0,0,0.07242014,-12.363634,-6.51781)"
     style="fill-rule:nonzero">
    <path
       d="m 379.688,172.5 h -54.045 c -2.41,0 -4.393,1.983 -4.393,4.393 v 55.756 c -0.31,16.57 11.12,31.225 27.266,34.96 2.325,0.488 4.693,0.733 7.068,0.733 18.872,0 34.404,-15.521 34.416,-34.393 v -51.137 c 0,-5.657 -4.655,-10.312 -10.312,-10.312 z"
       id="path10"
       inkscape:connector-curvature="0"
       style="fill:#5059c9" />
    <path
       d="m 341.875,182.813 v 65.343 c 0,30.153 -24.812,54.965 -54.966,54.965 -19.618,0 -37.804,-10.503 -47.609,-27.496 -1.323,-2.199 -2.472,-4.498 -3.438,-6.875 -0.9,-2.242 -1.657,-4.538 -2.268,-6.875 -1.134,-4.496 -1.711,-9.114 -1.719,-13.75 v -65.313 c 0,-0.004 0,-0.009 0,-0.013 0,-5.65 4.649,-10.299 10.299,-10.299 h 89.402 c 5.65,0 10.299,4.649 10.299,10.299 z"
       id="path12"
       inkscape:connector-curvature="0"
       style="fill:#7b83eb" />
    <path
       d="m 277.711,145 h -19.828 c 5.302,11.18 16.618,18.336 28.992,18.336 v -9.165 c -0.015,-5.022 -4.143,-9.149 -9.164,-9.164 z"
       id="path14"
       inkscape:connector-curvature="0"
       style="fill-opacity:0.2" />
    <path
       d="m 293.75,172.5 v 87.106 c 0,4.255 -2.992,7.966 -7.15,8.869 -0.647,0.192 -1.319,0.285 -1.994,0.275 h -48.744 c -0.9,-2.242 -1.657,-4.538 -2.268,-6.875 -1.134,-4.496 -1.711,-9.114 -1.719,-13.75 v -65.313 c 0,-0.004 0,-0.009 0,-0.013 0,-5.65 4.649,-10.299 10.299,-10.299 z"
       id="path16"
       inkscape:connector-curvature="0"
       style="fill-opacity:0.09803898" />
    <path
       d="m 286.875,172.5 v 93.981 c 0.01,0.675 -0.083,1.347 -0.275,1.994 -0.903,4.158 -4.614,7.15 -8.869,7.15 H 239.3 c -1.323,-2.199 -2.472,-4.498 -3.437,-6.875 -0.901,-2.242 -1.658,-4.538 -2.269,-6.875 -1.134,-4.496 -1.711,-9.114 -1.719,-13.75 v -65.313 c 0,-0.004 0,-0.009 0,-0.013 0,-5.65 4.649,-10.299 10.299,-10.299 z m 0,0 v 80.231 c -0.023,5.008 -4.136,9.121 -9.144,9.144 h -44.137 c -1.134,-4.496 -1.711,-9.114 -1.719,-13.75 v -65.313 c 0,-0.004 0,-0.009 0,-0.013 0,-5.65 4.649,-10.299 10.299,-10.299 z m -44.688,0 c -0.004,0 -0.009,0 -0.013,0 -5.65,0 -10.299,4.649 -10.299,10.299 v 65.326 c 0.008,4.636 0.585,9.254 1.719,13.75 h 37.262 c 5.008,-0.023 9.121,-4.136 9.144,-9.144 V 172.5 Z"
       id="path18"
       inkscape:connector-curvature="0"
       style="fill-opacity:0.2" />
    <path
       d="m 179.164,145 h 91.665 c 5.027,0 9.164,4.137 9.164,9.164 v 91.665 c 0,5.027 -4.137,9.164 -9.164,9.164 h -91.665 c -5.027,0 -9.164,-4.137 -9.164,-9.164 v -91.665 c 0,-5.027 4.137,-9.164 9.164,-9.164 z"
       id="path20"
       inkscape:connector-curvature="0"
       style="fill:#4b53bc" />
    <path
       d="m 252.363,179.203 h -20.55 v 55.138 h -13.502 v -55.138 h -20.667 v -13.544 h 54.719 z"
       id="path22"
       inkscape:connector-curvature="0"
       style="fill:#ffffff" />
  </g>
  <path
     d="M 5.8e-6,0 H 15.999996 V 15.93243 H 5.8e-6 Z"
     id="path26"
     inkscape:connector-curvature="0"
     style="fill:none;stroke-width:0.07257355" />
</svg>
