<?xml version="1.0" encoding="UTF-8" standalone="no"?>
<!-- Generator: Adobe Illustrator 19.1.0, SVG Export Plug-In . SVG Version: 6.00 Build 0)  -->

<svg
   version="1.1"
   id="Layer_1"
   x="0px"
   y="0px"
   viewBox="0 0 62.277545 68.777405"
   enable-background="new 0 0 64 64"
   xml:space="preserve"
   sodipodi:docname="monologo.svg"
   inkscape:version="1.2.1 (9c6d41e4, 2022-07-14)"
   width="62.277546"
   height="68.777405"
   xmlns:inkscape="http://www.inkscape.org/namespaces/inkscape"
   xmlns:sodipodi="http://sodipodi.sourceforge.net/DTD/sodipodi-0.dtd"
   xmlns="http://www.w3.org/2000/svg"
   xmlns:svg="http://www.w3.org/2000/svg"><defs
   id="defs42"><inkscape:path-effect
   effect="powerstroke"
   id="path-effect220"
   is_visible="true"
   lpeversion="1"
   offset_points="3.5,0.5"
   not_jump="false"
   sort_points="true"
   interpolator_type="CentripetalCatmullRom"
   interpolator_beta="0.2"
   start_linecap_type="zerowidth"
   linejoin_type="round"
   miter_limit="4"
   scale_width="3"
   end_linecap_type="zerowidth" /><inkscape:path-effect
   effect="powerstroke"
   id="path-effect214"
   is_visible="true"
   lpeversion="1"
   offset_points="6.5,0.5"
   not_jump="false"
   sort_points="true"
   interpolator_type="CentripetalCatmullRom"
   interpolator_beta="0.2"
   start_linecap_type="zerowidth"
   linejoin_type="round"
   miter_limit="4"
   scale_width="2"
   end_linecap_type="zerowidth" /><inkscape:path-effect
   effect="powerstroke"
   id="path-effect208"
   is_visible="true"
   lpeversion="1"
   offset_points="9,0.5"
   not_jump="false"
   sort_points="true"
   interpolator_type="CentripetalCatmullRom"
   interpolator_beta="0.27692308"
   start_linecap_type="zerowidth"
   linejoin_type="round"
   miter_limit="4"
   scale_width="4"
   end_linecap_type="zerowidth" /><inkscape:path-effect
   effect="fill_between_many"
   method="bsplinespiro"
   linkedpaths="#path4,0,1"
   id="path-effect210"
   is_visible="true"
   lpeversion="0"
   join="true"
   close="true"
   autoreverse="true" /><inkscape:path-effect
   effect="fill_between_many"
   method="bsplinespiro"
   linkedpaths="#path2,0,1"
   id="path-effect216"
   join="true"
   close="true"
   autoreverse="true"
   is_visible="true"
   lpeversion="0" /><inkscape:path-effect
   effect="fill_between_many"
   method="bsplinespiro"
   linkedpaths="#path6,0,1"
   id="path-effect222"
   is_visible="true"
   lpeversion="0"
   join="true"
   close="true"
   autoreverse="true" />
	
	
	
</defs><sodipodi:namedview
   id="namedview40"
   pagecolor="#ffffff"
   bordercolor="#000000"
   borderopacity="0.25"
   inkscape:showpageshadow="2"
   inkscape:pageopacity="0.0"
   inkscape:pagecheckerboard="0"
   inkscape:deskcolor="#d1d1d1"
   showgrid="false"
   inkscape:zoom="6.0215803"
   inkscape:cx="46.748526"
   inkscape:cy="47.911011"
   inkscape:window-width="1792"
   inkscape:window-height="1021"
   inkscape:window-x="1024"
   inkscape:window-y="25"
   inkscape:window-maximized="1"
   inkscape:current-layer="Layer_1" />
<path
   inkscape:original-d="M 0,0"
   inkscape:path-effect="#path-effect216"
   d="m 49.757401,3.641675 c -0.217499,-0.1520998 -0.4856,-0.2114999 -0.746899,-0.1636999 -0.2603,0.0467 -0.491402,0.1949 -0.642403,0.4122999 L 25.351801,36.953377 C 25.263,37.080074 25.2055,37.226276 25.1831,37.380375 l -1.518,10.431801 c -0.0546,0.373397 0.1073,0.746799 0.417301,0.962299 0.170599,0.1189 0.370499,0.179401 0.570299,0.179401 0.1638,0 0.3286,-0.04 0.477801,-0.121902 l 9.256,-5.0443 c 0.136498,-0.0741 0.253498,-0.178398 0.341198,-0.306198 L 57.743,10.418475 c 0.314999,-0.4524 0.2038,-1.0743997 -0.2486,-1.3893001 z"
   id="path218"
   style="display:inline;fill:#000000"
   class="UnoptimicedTransforms"
   transform="translate(-1.8055,3.2774292)" /><path
   d="M 50.330485,2.8221785 C 50.155365,2.6997149 49.915939,2.5743131 49.615055,2.5081778 49.383745,2.4573352 49.116144,2.4420555 48.830556,2.4942985 48.363848,2.5780241 47.874557,2.8478978 47.54678,3.3198052 40.228727,13.832249 32.487364,24.952781 24.531081,36.382047 c -0.175786,0.250793 -0.29245,0.544008 -0.337581,0.854478 -0.508754,3.496197 -1.01859,6.999821 -1.517978,10.431651 -0.05528,0.378079 0.0014,0.753313 0.144047,1.082198 0.148035,0.341386 0.387798,0.633699 0.69204,0.845196 0.174826,0.121846 0.361251,0.209906 0.547603,0.26795 0.186355,0.05805 0.386352,0.09036 0.593488,0.09036 0.313591,0 0.648518,-0.07486 0.959004,-0.245293 3.042343,-1.657999 6.151063,-3.352177 9.253322,-5.042835 0.274442,-0.148983 0.510333,-0.360712 0.687204,-0.618455 7.952138,-11.423734 15.693166,-22.544232 23.011501,-33.057503 0.159036,-0.228407 0.262317,-0.477328 0.315332,-0.728236 0.05488,-0.259748 0.05575,-0.5196356 0.01178,-0.7653848 C 58.84487,9.2391499 58.749787,8.9971019 58.614372,8.7822606 58.470725,8.5543593 58.283851,8.3602813 58.065694,8.2084292 54.849594,5.9689647 52.180262,4.1102298 50.32884,2.8210304 Z m -1.144523,1.6401411 c 1.851422,1.2891994 4.520755,3.1479342 7.736999,5.3874999 0.0014,9.927e-4 4.61e-4,4.729e-4 -5.39e-4,-0.00111 1.99e-4,-0.00228 8.54e-4,-0.00299 -8.4e-5,-0.00164 -7.318404,10.513371 -15.059432,21.633869 -23.01537,33.0631 -4.04e-4,5.49e-4 0.0037,-0.002 0.0024,-0.0013 -3.103694,1.691438 -6.212414,3.385617 -9.257431,5.045079 1.03e-4,-6.2e-5 0.0017,-2.6e-5 7.27e-4,-2.6e-5 7.59e-4,-3.11e-4 0.0018,8.65e-4 0.0018,8.24e-4 -1.7e-5,-4e-5 1.76e-4,0.0016 9.7e-5,0.0022 0.499488,-3.432516 1.009323,-6.93614 1.518099,-10.432483 3.34e-4,-0.0023 2.49e-4,-2.4e-4 -0.002,0.003 7.958115,-11.431889 15.699479,-22.552421 23.01813,-33.0657249 3.36e-4,-4.82e-4 -0.0014,5.922e-4 -0.0017,6.547e-4 0.0018,-3.206e-4 -2.3e-5,-4.113e-4 -0.0014,-7.123e-4 z"
   id="path2"
   class="UnoptimicedTransforms"
   inkscape:path-effect="#path-effect214"
   inkscape:original-d="m 49.757401,3.641675 c -0.217499,-0.1520998 -0.4856,-0.2114999 -0.746899,-0.1636999 -0.2603,0.0467 -0.491402,0.1949 -0.642403,0.4122999 L 25.351801,36.953377 C 25.263,37.080074 25.2055,37.226276 25.1831,37.380375 l -1.518,10.431801 c -0.0546,0.373397 0.1073,0.746799 0.417301,0.962299 0.170599,0.1189 0.370499,0.179401 0.570299,0.179401 0.1638,0 0.3286,-0.04 0.477801,-0.121902 l 9.256,-5.0443 c 0.136498,-0.0741 0.253498,-0.178398 0.341198,-0.306198 L 57.743,10.418475 c 0.314999,-0.4524 0.2038,-1.0743997 -0.2486,-1.3893001 z M 33.2244,42.147774 25.9279,46.123573 27.1252,37.900974 49.4356,5.8509751 55.534801,10.096775 Z"
   inkscape:linked-fill="path218"
   style="display:inline;fill-rule:nonzero;stroke:none"
   transform="translate(-1.8055,3.2774292)" /><path
   d="m 54.4118,24.902404 c -0.373241,0 -0.77282,0.06942 -1.167298,0.23611 -0.338081,0.142858 -0.666205,0.355041 -0.953077,0.641913 -0.257794,0.257794 -0.482742,0.576389 -0.641915,0.953077 -0.146945,0.347753 -0.236111,0.742848 -0.236111,1.1673 0,10.076686 0,21.34239 0,33.495786 0,0.258224 -0.05136,0.504076 -0.147253,0.730427 -0.09361,0.220961 -0.230862,0.425784 -0.405811,0.600737 -0.170467,0.17047 -0.374009,0.309768 -0.600704,0.405807 -0.220232,0.0933 -0.465641,0.147244 -0.730329,0.147244 -13.60723,0 -27.722107,0 -42.1484016,0 -0.2609383,0 -0.5065959,-0.05244 -0.7304089,-0.147253 C 6.4273461,63.03902 6.2230238,62.901 6.0497654,62.727742 5.8777538,62.55573 5.739164,62.351761 5.6439528,62.127013 5.5498507,61.904883 5.4967003,61.659338 5.4967003,61.396604 c 0,-13.994592 0,-28.098886 0,-42.1484 0,-0.262445 0.053045,-0.507991 0.147249,-0.730359 0.095114,-0.224516 0.2336248,-0.428546 0.4058259,-0.60075 0.1730775,-0.173081 0.3773513,-0.311195 0.6007416,-0.405835 0.2235449,-0.09471 0.4691752,-0.147255 0.7303833,-0.147255 8.4588469,0 16.7765079,0 24.8432969,0 0.41337,0 0.808938,-0.08469 1.167302,-0.236133 0.363798,-0.153739 0.685361,-0.37425 0.952991,-0.641881 0.273194,-0.273195 0.491336,-0.596759 0.641877,-0.95299 0.154886,-0.366517 0.236132,-0.762657 0.236132,-1.167297 0,-0.40464 -0.08125,-0.80078 -0.236132,-1.167295 -0.150541,-0.356234 -0.368684,-0.679797 -0.641876,-0.952991 -0.267632,-0.267632 -0.589196,-0.488143 -0.952994,-0.641881 -0.358363,-0.151442 -0.753931,-0.236133 -1.167297,-0.236133 -8.066792,0 -16.384453,0 -24.8432866,0 -1.0802278,0 -2.1183245,0.219345 -3.0671563,0.621356 C 3.3726489,12.387498 2.5240618,12.963786 1.8102326,13.677607 1.0999311,14.387901 0.52209241,15.235323 0.12136442,16.181102 -0.27854097,17.124942 -0.5,18.162693 -0.5,19.248204 c 0,14.049514 0,28.153808 0,42.1484 0,1.086576 0.2218837,2.124266 0.62136444,3.067102 0.40114211,0.946756 0.97930836,1.793943 1.68886816,2.503494 0.7145988,0.714589 1.5634408,1.290542 2.503525,1.688847 0.9499608,0.402489 1.9881361,0.621355 3.0671428,0.621355 14.4262936,0 28.5411716,0 42.1483886,0 1.095008,0 2.132231,-0.225254 3.067108,-0.621361 0.954925,-0.4046 1.800173,-0.985532 2.50349,-1.68885 0.72142,-0.72142 1.294394,-1.572507 1.68885,-2.503489 0.40703,-0.96066 0.621361,-1.999632 0.621361,-3.067098 0,-12.15341 0,-23.419114 0,-33.495799 1e-6,-0.424447 -0.08916,-0.819534 -0.236098,-1.167275 C 57.014839,26.356853 56.789911,26.03827 56.532138,25.780479 56.245291,25.493611 55.91719,25.281418 55.579119,25.138548 55.18465,24.971843 54.785066,24.902404 54.4118,24.902404 Z m 0,4 c -0.1217,0 -0.256022,-0.02284 -0.389769,-0.07936 -0.113977,-0.04817 -0.223363,-0.119169 -0.318421,-0.214234 -0.08513,-0.08513 -0.160607,-0.191586 -0.214188,-0.318392 -0.04987,-0.118024 -0.07932,-0.250788 -0.07932,-0.389613 0,10.07669 0,21.342394 0,33.49579 0,0.529088 -0.10567,1.037554 -0.304406,1.506606 -0.193417,0.456496 -0.475933,0.87727 -0.834232,1.235568 -0.349086,0.349086 -0.767245,0.635804 -1.235566,0.834231 -0.456434,0.19339 -0.964044,0.304407 -1.506593,0.304407 -13.607229,0 -27.722107,0 -42.1484006,0 -0.5347484,0 -1.0428416,-0.107895 -1.5066665,-0.304413 C 5.4132257,64.777664 4.9934675,64.493576 4.6386447,64.138758 4.2863849,63.786502 4.0011254,63.367479 3.8044074,62.903195 3.6093667,62.442869 3.5,61.935032 3.5,61.396604 c 0,-13.994592 0,-28.098886 0,-42.1484 0,-0.537906 0.1091588,-1.045774 0.3044063,-1.506589 0.196515,-0.463805 0.4816015,-0.882933 0.8342344,-1.235562 0.3544346,-0.35443 0.7740814,-0.638698 1.2355934,-0.834236 0.4632722,-0.196284 0.9713267,-0.304413 1.5066658,-0.304413 8.4588471,0 16.7765081,0 24.8432971,0 -0.135165,0 -0.268132,-0.02797 -0.389745,-0.07936 -0.122568,-0.0518 -0.229552,-0.125364 -0.318392,-0.214204 -0.0905,-0.0905 -0.16348,-0.198363 -0.214204,-0.318392 -0.05255,-0.124351 -0.07936,-0.257511 -0.07936,-0.389746 0,-0.132235 0.02681,-0.265395 0.07936,-0.389745 0.05071,-0.119997 0.123464,-0.227652 0.214202,-0.318391 0.08884,-0.08884 0.195824,-0.162408 0.318393,-0.214205 0.121613,-0.05139 0.254581,-0.07936 0.389749,-0.07936 -8.066792,0 -16.384453,0 -24.8432866,0 -0.8059763,0 -1.5816116,0.163717 -2.2907546,0.464148 -0.7030525,0.29785 -1.3362699,0.727964 -1.8688344,1.260538 -0.5299327,0.529943 -0.9611803,1.162294 -1.2604987,1.868834 -0.298839,0.705409 -0.4641254,1.480776 -0.4641254,2.290679 0,14.049514 0,28.153808 0,42.1484 0,0.810712 0.1655989,1.586044 0.4641225,2.290715 0.299629,0.707279 0.731127,1.339461 1.2605134,1.868848 0.533146,0.533145 1.1665615,0.963001 1.8688482,1.260515 0.7099855,0.300775 1.4856713,0.464123 2.290716,0.464123 14.4262946,0 28.5411716,0 42.1483896,0 0.817004,0 1.591975,-0.168122 2.290688,-0.464132 0.713371,-0.302218 1.344086,-0.735784 1.868811,-1.260519 0.538142,-0.538152 0.965864,-1.173361 1.260491,-1.868841 0.304162,-0.717985 0.464119,-1.494276 0.464119,-2.290709 0,-12.15341 0,-23.419114 0,-33.495799 0,0.138826 -0.02946,0.271598 -0.07933,0.389634 -0.05359,0.126819 -0.129079,0.233281 -0.214216,0.318418 -0.09507,0.09507 -0.204457,0.166061 -0.318417,0.214215 -0.133726,0.05651 -0.268003,0.07933 -0.389633,0.07933 z"
   id="path4"
   inkscape:path-effect="#path-effect208"
   inkscape:original-d="m 54.4118,26.902404 c -0.551899,0 -0.998401,0.446501 -0.998401,0.9984 v 33.4958 c 0,2.141998 -1.742199,3.884201 -3.884098,3.884201 H 7.3809004 c -2.1420002,0 -3.8842001,-1.742203 -3.8842001,-3.884201 v -42.1484 c 0,-2.141899 1.7421999,-3.884199 3.8842001,-3.884199 H 32.2242 c 0.5518,0 0.998299,-0.446501 0.998299,-0.998301 0,-0.5518 -0.446499,-0.9983 -0.998299,-0.9983 H 7.3809004 C 4.1382003,13.367404 1.5,16.005604 1.5,19.248204 v 42.1484 c 0,3.242599 2.6382,5.880798 5.8809004,5.880798 H 49.5293 c 3.242599,0 5.880798,-2.638199 5.880798,-5.880798 v -33.4958 c 1e-6,-0.551899 -0.446498,-0.9984 -0.998298,-0.9984 z"
   inkscape:linked-fill="path212"
   style="display:inline;fill-rule:nonzero;stroke:none" /><path
   inkscape:original-d="M 0,0"
   inkscape:path-effect="#path-effect222"
   d="m 62.138145,3.7293209 -8.008099,-5.3388 c -0.460201,-0.306 -1.0793,-0.1823 -1.384399,0.277 -0.306202,0.4591 -0.182301,1.0782 0.276798,1.3844 l 8.008201,5.3386998 c 0.170601,0.1131001 0.362599,0.1676998 0.5528,0.1676998 0.322601,0 0.639499,-0.1559997 0.8316,-0.4445996 0.306099,-0.4592 0.1823,-1.0782996 -0.276901,-1.3844 z"
   id="path224"
   style="fill:#000000"
   class="UnoptimicedTransforms"
   transform="translate(-1.8055,3.2774292)" /><path
   d="m 61.081658,4.2587043 c -1.67916,-1.1194541 -4.565489,-3.0436972 -8.008099,-5.3388 -0.278414,-0.1851257 -0.589625,-0.3131947 -0.919305,-0.3759074 -0.313991,-0.059728 -0.639128,-0.059013 -0.95729,0.00462 -0.308454,0.061691 -0.610695,0.182696 -0.886098,0.3645516 -0.271242,0.17910786 -0.512588,0.41485199 -0.70322,0.70183122 -0.18791,0.28173505 -0.313243,0.59451268 -0.374528,0.91617075 -0.06119,0.32114791 -0.0577,0.64639603 0.0045,0.95751593 0.06298,0.3148967 0.186184,0.6158132 0.363989,0.8854718 0.182549,0.2768552 0.419568,0.5161103 0.699966,0.7031241 1.397097,0.9313806 2.743285,1.8288221 4.004364,2.6695257 1.261079,0.8407036 2.607267,1.7381451 4.0041,2.6693495 0.413984,0.2744571 0.893124,0.4196175 1.38484,0.4196175 0.409736,-10e-8 0.807409,-0.1005512 1.159844,-0.2848545 0.378032,-0.1976891 0.691549,-0.4847376 0.920428,-0.8285904 0.19602,-0.2940618 0.316564,-0.6091842 0.375286,-0.9175052 0.06425,-0.3373476 0.05429,-0.6632401 -0.0045,-0.9574361 C 62.077928,5.5074836 61.945192,5.2095129 61.781836,4.9618181 61.570256,4.6410009 61.314813,4.4141243 61.081587,4.2586573 Z m -1.664045,2.4961882 c -0.0445,-0.029666 -0.0966,-0.075345 -0.140176,-0.1414136 -0.03337,-0.050592 -0.05981,-0.1104199 -0.07327,-0.177742 -0.01171,-0.058537 -0.01382,-0.1234817 -7.34e-4,-0.1921959 0.01213,-0.063697 0.03697,-0.127381 0.07495,-0.1843518 0.04464,-0.067068 0.108752,-0.1262355 0.18615,-0.1667098 0.0707,-0.036971 0.14929,-0.056705 0.230369,-0.056705 0.101534,0 0.198355,0.030589 0.276031,0.082085 C 58.577307,4.9887872 57.231119,4.0913457 55.97004,3.2506421 54.708961,2.4099385 53.362773,1.512497 51.96594,0.58129258 c 0.05428,0.0362007 0.102595,0.0843387 0.140246,0.14144013 0.03622,0.0549363 0.06074,0.11531019 0.0732,0.17760619 0.01231,0.0615408 0.01321,0.1267836 7.22e-4,0.1923129 -0.01267,0.066478 -0.03851,0.1297735 -0.0751,0.184628 -0.03557,0.053554 -0.0846,0.102069 -0.141049,0.1393426 -0.05657,0.037352 -0.117553,0.061517 -0.178646,0.073736 -0.06303,0.012607 -0.128049,0.012894 -0.191674,7.915e-4 -0.0676,-0.012859 -0.129937,-0.039025 -0.182683,-0.074097 3.441098,2.2940959 6.327427,4.218339 8.006586,5.3377931 z"
   id="path6"
   inkscape:path-effect="#path-effect220"
   inkscape:original-d="m 60.2496,5.5067749 -8.008099,-5.3388 c -0.460201,-0.306 -1.0793,-0.1823 -1.384399,0.277 -0.306202,0.4591 -0.182301,1.0782 0.276798,1.3844 l 8.008201,5.3386998 c 0.170601,0.1131001 0.362599,0.1676998 0.5528,0.1676998 0.322601,0 0.639499,-0.1559997 0.8316,-0.4445996 0.306099,-0.4592 0.1823,-1.0782996 -0.276901,-1.3844 z"
   inkscape:linked-fill="path224"
   style="fill-rule:nonzero;stroke:none"
   class="UnoptimicedTransforms"
   transform="translate(0.08304504,1.4999752)" />















</svg>
