<svg width="24" height="24" viewBox="0 0 24 24" fill="none" xmlns="http://www.w3.org/2000/svg" preserveAspectRatio="xMinYMid meet">
<path fill-rule="evenodd" clip-rule="evenodd" d="M5.79541 4.91064C4.9631 4.91064 4.28992 5.5883 4.29544 6.4206L4.36838 17.4131C4.37385 18.2376 5.0438 18.9031 5.86834 18.9031L18.8452 18.9031C19.6736 18.9031 20.3452 18.2315 20.3452 17.4031L20.3451 10.3949C20.3451 9.56648 19.6735 8.89491 18.8451 8.89491H14.2757C13.4905 8.89491 12.7509 8.52597 12.2785 7.89865L10.4789 5.5084C10.1955 5.13202 9.7517 4.91065 9.28055 4.91065L5.79541 4.91064ZM3.29547 6.42723C3.28626 5.04007 4.40822 3.91064 5.79541 3.91064L9.28055 3.91065C10.0657 3.91065 10.8053 4.27953 11.2776 4.90674H18.849C20.2297 4.90674 21.349 6.02603 21.349 7.40674V10.4067C21.349 10.428 21.3477 10.449 21.3451 10.4695L21.3452 17.4031C21.3452 18.7838 20.2259 19.9031 18.8452 19.9031L5.86834 19.9031C4.4941 19.9031 3.37752 18.7939 3.3684 17.4197L3.29547 6.42723ZM13.0774 7.29716L12.0305 5.90674H18.849C19.6774 5.90674 20.349 6.57831 20.349 7.40674V8.39767C19.9305 8.08205 19.4097 7.89491 18.8451 7.89491H14.2757C13.8046 7.89491 13.3608 7.67354 13.0774 7.29716ZM13.8545 15.91C13.5784 15.91 13.3545 16.1339 13.3545 16.41C13.3545 16.6862 13.5784 16.91 13.8545 16.91H17.8533C18.1294 16.91 18.3533 16.6862 18.3533 16.41C18.3533 16.1339 18.1294 15.91 17.8533 15.91H13.8545Z" fill="#212529"/>
</svg>
