<svg id="Layer_1" data-name="Layer 1" xmlns="http://www.w3.org/2000/svg" width="48" height="48" viewBox="0 0 48 48"><defs><style>.cls-1{fill:#f33;}.cls-2{fill:#fff;}</style></defs><title>48px_sourcefile_20170718_multi</title><circle class="cls-1" cx="24" cy="24" r="24"/><path class="cls-2" d="M32,14.64a21.65,21.65,0,0,1,3.34.41c3,.84,4.35,3.77,3.43,7.42a17.86,17.86,0,0,1-4.12,7.46c-3.81,4.33-8.33,7.58-14.08,8.78a9.4,9.4,0,0,1-3.62,0c-3.06-.56-4.67-3.47-3.86-6.81a11.45,11.45,0,0,1,1-2.57,25.67,25.67,0,0,1,1.69-2.55c-.83-.75-1.74-1.54-2.59-2.4a1.3,1.3,0,0,1-.32-1.11,32.07,32.07,0,0,0,2.23-11.17,4.35,4.35,0,0,1,.13-.73h15.3c-.09,1.63-.11,3.28-.28,4.89a48.57,48.57,0,0,1-3.68,14,1.69,1.69,0,0,1-1.71,1.16c-3.11.24-6,0-7.59-3.17-1.91,1.43-3,4.82-2.21,6.81a3.47,3.47,0,0,0,3.9,2.06,19.21,19.21,0,0,0,5.32-1.28C29.92,33.51,34.42,29.74,37,24a13.29,13.29,0,0,0,.94-3.37c.49-3.21-1.35-5.29-4.82-5.61-.36,0-.73-.06-1.09-.08C32,14.81,32,14.72,32,14.64ZM20.25,29.72c1.42,0,2.68,0,3.92,0a1.08,1.08,0,0,0,1.22-.82,46.81,46.81,0,0,0,3.06-11.34c.19-1.42.24-2.89.36-4.33H17.17c-.79,3.6-1.54,7.07-2.31,10.61h5.38Z"/></svg>