<svg width="20" height="16" viewBox="0 0 20 16" fill="none" xmlns="http://www.w3.org/2000/svg" preserveAspectRatio="xMinYMid meet">
<path d="M 1.2410829,0.19189453 2.4527494,1.1271248 C 2.8877066,0.47246361 3.6644158,0.00484849 4.5343302,0.00484849 c 1.3670084,0 2.4854697,1.12227631 2.4854697,2.49394731 0,0.6546611 -0.2485469,1.2469736 -0.6524357,1.6834144 L 7.610099,5.1797891 C 8.16928,4.4627793 9.0081756,3.9951642 10.002364,3.9951642 c 1.646573,0 2.982563,1.3404966 2.982563,2.9927367 0,0.7170598 -0.248546,1.371671 -0.683503,1.9015849 l 0.807777,0.5923624 c 0.528113,-0.6858354 0.869914,-1.5274929 0.869914,-2.4939473 0,-0.2182703 -0.03102,-0.4676651 -0.06213,-0.6858355 0.403938,-0.187046 0.869914,-0.3117435 1.367008,-0.3117435 h 1.335891 c 1.833082,0 3.324365,1.4963685 3.324365,3.3357045 0,0.3740921 -0.310684,0.6546107 -0.683504,0.6546107 h -5.530171 l 5.902991,4.6761509 c 0.341703,0.249395 0.403939,0.71696 0.124273,1.028803 -0.248547,0.342868 -0.714522,0.405217 -1.025305,0.124697 L 0.34010009,1.3453451 C -0.001652,1.0959504 -0.06378873,0.62833531 0.2158266,0.3165919 0.46437358,-0.02632585 0.93039917,-0.08867453 1.2410829,0.19189453 Z M 3.3537321,5.9903219 h 0.4660257 l 2.267991,1.8081118 C 6.2741591,8.6713153 6.7091163,9.4194995 7.3615521,9.9806371 H 7.3304836 0.71292056 c -0.37282047,0 -0.65243581,-0.2805186 -0.65243581,-0.6546107 0,-1.839336 1.46021355,-3.3357045 3.29324735,-3.3357045 z M 8.16928,10.978216 h 1.957356 l 5.7476,4.551454 c -0.155292,0.249395 -0.434857,0.43644 -0.745641,0.43644 H 4.845014 c -0.4660255,0 -0.8077776,-0.374092 -0.8077776,-0.810532 0,-2.306902 1.8330338,-4.177362 4.1320436,-4.177362 z m 7.798211,-5.9854729 c -0.900934,0 -1.70881,-0.4676151 -2.174786,-1.2469737 -0.434957,-0.7481842 -0.434957,-1.7145887 0,-2.4939473 0.465976,-0.74818415 1.273852,-1.24697361 2.174786,-1.24697361 0.869914,0 1.677692,0.49878946 2.143668,1.24697361 0.435056,0.7793586 0.435056,1.7457631 0,2.4939473 -0.465976,0.7793586 -1.273754,1.2469737 -2.143668,1.2469737 z" fill="#212529" />
</svg>
