<svg width="20" height="16" viewBox="0 0 20 16" fill="none" xmlns="http://www.w3.org/2000/svg" preserveAspectRatio="xMinYMid meet">
<path d="M3.99937 3.99875C5.1036 3.99875 5.99875 3.1036 5.99875 1.99937C5.99875 0.89515 5.1036 0 3.99937 0C2.89515 0 2 0.89515 2 1.99937C2 3.1036 2.89515 3.99875 3.99937 3.99875Z" fill="#212529"/>
<path d="M11.9997 9.99937C11.9997 11.1036 11.1046 11.9987 10.0003 11.9987C8.89613 11.9987 8.00098 11.1036 8.00098 9.99937C8.00098 8.89515 8.89613 8 10.0003 8C11.1046 8 11.9997 8.89515 11.9997 9.99937Z" fill="#212529"/>
<path d="M6 15.4456C6 13.7887 7.34315 12.4456 9 12.4456H11C12.6569 12.4456 14 13.7887 14 15.4456V15.5C14 15.7761 13.7761 16 13.5 16H6.5C6.22386 16 6 15.7761 6 15.5V15.4456Z" fill="#212529"/>
<path d="M0 7.44556C0 5.7887 1.34315 4.44556 3 4.44556H5C6.65685 4.44556 8 5.7887 8 7.44556V7.5C8 7.77614 7.77614 8 7.5 8L0.5 8C0.223858 8 0 7.77614 0 7.5V7.44556Z" fill="#212529"/>
<path d="M15.9994 3.99875C17.1036 3.99875 17.9987 3.1036 17.9987 1.99937C17.9987 0.89515 17.1036 0 15.9994 0C14.8951 0 14 0.89515 14 1.99937C14 3.1036 14.8951 3.99875 15.9994 3.99875Z" fill="#212529"/>
<path d="M12 7.44556C12 5.7887 13.3431 4.44556 15 4.44556H16.9993C18.6561 4.44556 19.9993 5.7887 19.9993 7.44556V7.5C19.9993 7.77614 19.7754 8 19.4993 8H12.5C12.2239 8 12 7.77614 12 7.5V7.44556Z" fill="#212529"/>
<path d="M2.29289 10.7071C1.90237 10.3166 1.90237 9.68342 2.29289 9.29289C2.68342 8.90237 3.31658 8.90237 3.70711 9.29289L5.70711 11.2929C6.09763 11.6834 6.09763 12.3166 5.70711 12.7071C5.31658 13.0976 4.68342 13.0976 4.29289 12.7071L2.29289 10.7071Z" fill="#212529"/>
<path d="M17.7071 9.29289C18.0976 9.68342 18.0976 10.3166 17.7071 10.7071L15.7071 12.7071C15.3166 13.0976 14.6834 13.0976 14.2929 12.7071C13.9024 12.3166 13.9024 11.6834 14.2929 11.2929L16.2929 9.29289C16.6834 8.90237 17.3166 8.90237 17.7071 9.29289Z" fill="#212529"/>
<path d="M8.5 2C7.94772 2 7.5 2.44772 7.5 3C7.5 3.55228 7.94772 4 8.5 4L11.5 4C12.0523 4 12.5 3.55228 12.5 3C12.5 2.44771 12.0523 2 11.5 2L8.5 2Z" fill="#212529"/>
</svg>
