<svg width="109" height="109" viewBox="0 0 109 109" fill="none" xmlns="http://www.w3.org/2000/svg" preserveAspectRatio="xMinYMid meet">
<g id="Timer">
<path id="Vector" d="M54.48 108.96C84.5685 108.96 108.96 84.5685 108.96 54.48C108.96 24.3915 84.5685 0 54.48 0C24.3915 0 0 24.3915 0 54.48C0 84.5685 24.3915 108.96 54.48 108.96Z" fill="#C4E5FF"/>
<g id="timer">
<path id="Vector_2" d="M77.4187 27.8948L69.895 35.4184C68.8484 36.465 68.8484 38.1619 69.895 39.2085C70.9416 40.2551 72.6385 40.2551 73.6851 39.2085L81.2087 31.6849C82.2553 30.6383 82.2554 28.9414 81.2087 27.8948C80.1621 26.8482 78.4653 26.8482 77.4187 27.8948Z" fill="#0056B2"/>
<path id="Vector_3" d="M60.32 16H49.68C48.1999 16 47 17.1999 47 18.68C47 20.1601 48.1999 21.36 49.68 21.36H60.32C61.8001 21.36 63 20.1601 63 18.68C63 17.1999 61.8001 16 60.32 16Z" fill="#0056B2"/>
<path id="Vector_4" d="M86.7 58.85C86.7 76.4403 72.4403 90.7 54.85 90.7C37.2597 90.7 23 76.4403 23 58.85C23 41.2597 37.2597 27 54.85 27C72.4403 27 86.7 41.2597 86.7 58.85Z" fill="white" stroke="#0056B2" stroke-width="4"/>
<path id="Union" fill-rule="evenodd" clip-rule="evenodd" d="M51.64 43.68C51.64 42.1999 52.8399 41 54.32 41C55.8001 41 57 42.1999 57 43.68V56H64.9509C66.431 56 67.6309 57.1999 67.6309 58.68C67.6309 60.1601 66.431 61.36 64.9509 61.36H54.3109C52.8307 61.36 51.6309 60.1601 51.6309 58.68C51.6309 58.6049 51.634 58.5304 51.64 58.4569V43.68Z" fill="#0056B2"/>
</g>
</g>
</svg>
