<svg id="Icon" xmlns="http://www.w3.org/2000/svg" viewBox="0 0 40 40"><title>control_forever</title><path d="M20.09,35.49c-0.41,0-.83,0-1.24,0a13.9,13.9,0,0,1-1.74-.25,8.48,8.48,0,0,1-1-.25l-0.53-.15A14.87,14.87,0,0,1,10,31.49,14.63,14.63,0,0,1,6.75,27,16.82,16.82,0,0,1,6,24.89c-0.15-.64-0.27-1.2-0.33-1.7a6.67,6.67,0,0,1-.08-0.82V22.17l0-.33A1.82,1.82,0,0,1,7.26,19.9H7.37a1.8,1.8,0,0,1,1.78,1.48s0,0.14.06,0.35c0,0,0,.13,0,0.25a4,4,0,0,0,.12.53c0.09,0.33.22,0.73,0.39,1.18a11.2,11.2,0,0,0,.68,1.4A10,10,0,0,0,13,27.93a9.57,9.57,0,0,0,3.89,1.74h0l0.42,0.06a4.75,4.75,0,0,0,.61.08l0.68,0H19a9.64,9.64,0,0,0,2-.3A9,9,0,0,0,24.15,28c0.2-.16.39-0.31,0.57-0.48l-2-2a1.43,1.43,0,0,1,1-2.44h8.84A1.43,1.43,0,0,1,34,24.52v8.83a1.44,1.44,0,0,1-1.44,1.43,1.41,1.41,0,0,1-1-.42l-2.14-2.15a16.17,16.17,0,0,1-1.7,1.17,15.49,15.49,0,0,1-5.58,2A13.31,13.31,0,0,1,20.09,35.49Z" fill="#fff"/><path d="M7.37,20.4a1.31,1.31,0,0,1,1.29,1.07s0,0.12.06,0.33,0.09,0.56.19,0.86,0.22,0.72.39,1.19A11.65,11.65,0,0,0,10,25.33a10.41,10.41,0,0,0,2.69,3,10.12,10.12,0,0,0,4.09,1.83c0.24,0,.86.15,1.13,0.15h0c0.19,0,.4,0,0.62,0H19a10.12,10.12,0,0,0,2.1-.32,9.57,9.57,0,0,0,3.31-1.63,8.84,8.84,0,0,0,1-.87l-2.34-2.34a0.93,0.93,0,0,1,.65-1.59h8.84a0.93,0.93,0,0,1,.92.93v8.83a0.93,0.93,0,0,1-.94.93A0.91,0.91,0,0,1,31.91,34l-2.46-2.47-0.09.08A16.43,16.43,0,0,1,27.46,33a15,15,0,0,1-5.39,1.89,12.89,12.89,0,0,1-2,.14c-0.4,0-.81,0-1.21,0a13.29,13.29,0,0,1-1.66-.24,15.58,15.58,0,0,1-1.53-.39,14.28,14.28,0,0,1-5.39-3.19,14.06,14.06,0,0,1-3.09-4.38,16.32,16.32,0,0,1-.71-2c-0.14-.61-0.26-1.15-0.32-1.63a9.13,9.13,0,0,1-.09-1l0-.33a1.32,1.32,0,0,1,1.23-1.4H7.37m0-1H7.23a2.31,2.31,0,0,0-2.17,2.45l0,0.37c0,0.05,0,.11,0,0.17a7.39,7.39,0,0,0,.09.89c0.06,0.49.19,1.06,0.33,1.7v0a17.34,17.34,0,0,0,.75,2.12,15.14,15.14,0,0,0,3.32,4.71,15.35,15.35,0,0,0,5.77,3.42l0.06,0L16,35.43a9.09,9.09,0,0,0,1.09.26,14.07,14.07,0,0,0,1.74.25c0.47,0,.9,0,1.31,0a13.76,13.76,0,0,0,2.13-.15,16,16,0,0,0,5.74-2q0.72-.44,1.41-0.95l1.83,1.84a1.91,1.91,0,0,0,1.36.57,1.94,1.94,0,0,0,1.94-1.93V24.52a1.93,1.93,0,0,0-1.92-1.93H23.74a1.93,1.93,0,0,0-1.36,3.3l1.6,1.6-0.14.11a8.48,8.48,0,0,1-3,1.46,9.21,9.21,0,0,1-1.88.29H18.6c-0.18,0-.36,0-0.52,0H17.9l-0.5-.08L17,29.17a9.19,9.19,0,0,1-3.64-1.64,9.48,9.48,0,0,1-2.44-2.72,10.68,10.68,0,0,1-.65-1.34c-0.12-.32-0.27-0.76-0.35-1.07l0-.07a3.69,3.69,0,0,1-.1-0.46c0-.1,0-0.19-0.05-0.27s-0.05-.29-0.06-0.35A2.3,2.3,0,0,0,7.37,19.4h0Z" fill="#cf8b17"/><path d="M32.63,20.11a1.81,1.81,0,0,1-1.78-1.48l-0.1-.54a3.83,3.83,0,0,0-.13-0.59c-0.09-.33-0.22-0.73-0.39-1.18a12.68,12.68,0,0,0-.68-1.4A10,10,0,0,0,27,12.08a9.56,9.56,0,0,0-3.9-1.74l-0.4-.06a4.84,4.84,0,0,0-.62-0.08l-0.67,0H21a9.87,9.87,0,0,0-2,.3A9.2,9.2,0,0,0,15.86,12c-0.19.15-.37,0.3-0.55,0.47l2,2a1.43,1.43,0,0,1-1,2.44H7.44A1.43,1.43,0,0,1,6,15.49V6.66a1.43,1.43,0,0,1,2.44-1L10.61,7.8a16.77,16.77,0,0,1,1.7-1.18,15.5,15.5,0,0,1,5.57-2,13.44,13.44,0,0,1,2-.15c0.41,0,.83,0,1.24,0a13.73,13.73,0,0,1,1.75.25,8.46,8.46,0,0,1,1,.25l0.53,0.15a14.86,14.86,0,0,1,5.61,3.31,14.61,14.61,0,0,1,3.2,4.54A14.78,14.78,0,0,1,34,15.14a14.11,14.11,0,0,1,.34,1.69,6.83,6.83,0,0,1,.08.82v0.18c0,0.25,0,.37,0,0.37a1.81,1.81,0,0,1-1.69,1.9H32.63Z" fill="#fff"/><path d="M19.92,5c0.4,0,.81,0,1.21,0a13.16,13.16,0,0,1,1.67.24,15.56,15.56,0,0,1,1.53.39,14.28,14.28,0,0,1,5.39,3.19,14.06,14.06,0,0,1,3.09,4.38,14.3,14.3,0,0,1,.7,2,14.15,14.15,0,0,1,.33,1.62,9.15,9.15,0,0,1,.09,1c0,0.22,0,.33,0,0.33a1.31,1.31,0,0,1-1.22,1.4h-0.1a1.32,1.32,0,0,1-1.28-1.07s0-.12-0.06-0.33a6.67,6.67,0,0,0-.18-0.86C31,17,30.89,16.63,30.72,16.16A13.2,13.2,0,0,0,30,14.68a10.56,10.56,0,0,0-2.69-3,10.11,10.11,0,0,0-4.1-1.83c-0.23,0-.85-0.15-1.12-0.15h0c-0.19,0-.4,0-0.62,0H21a10.32,10.32,0,0,0-2.11.32,9.75,9.75,0,0,0-3.31,1.63,10.71,10.71,0,0,0-1,.86l2.34,2.35a0.93,0.93,0,0,1-.66,1.59H7.44a0.93,0.93,0,0,1-.93-0.93V6.66A0.93,0.93,0,0,1,8.11,6l2.46,2.47,0.09-.08A16.44,16.44,0,0,1,12.56,7a14.94,14.94,0,0,1,5.38-1.89,13,13,0,0,1,2-.14m0-1a14,14,0,0,0-2.13.15,16,16,0,0,0-5.73,2q-0.72.44-1.41,0.95L8.82,5.29a1.93,1.93,0,0,0-3.3,1.37v8.83a1.93,1.93,0,0,0,1.93,1.93h8.83a1.93,1.93,0,0,0,1.37-3.3L16,12.53l0.14-.11A8.65,8.65,0,0,1,19.12,11,9.4,9.4,0,0,1,21,10.68h0.4l0.53,0h0.18l0.5,0.08,0.43,0.07a9,9,0,0,1,3.65,1.64,9.56,9.56,0,0,1,2.44,2.72,12.19,12.19,0,0,1,.65,1.33c0.13,0.35.28,0.78,0.35,1.07l0,0.07a3.69,3.69,0,0,1,.11.51l0,0.23,0.05,0.3a2.32,2.32,0,0,0,2.27,1.91H32.8a2.32,2.32,0,0,0,2.15-2.43c0-.06,0-0.19,0-0.38s0-.11,0-0.17a7.39,7.39,0,0,0-.09-0.89,14.54,14.54,0,0,0-.35-1.7,15.3,15.3,0,0,0-.75-2.16,15.14,15.14,0,0,0-3.32-4.71,15.35,15.35,0,0,0-5.77-3.42l-0.06,0-0.52-.14A9.09,9.09,0,0,0,23,4.32a13.92,13.92,0,0,0-1.75-.25c-0.47,0-.9,0-1.3,0h0Z" fill="#cf8b17"/></svg>