<svg id="Icon" xmlns="http://www.w3.org/2000/svg" viewBox="0 0 40 40"><title>control_repeat</title><path d="M34.75,23v0.1l0,0.25a13.62,13.62,0,0,1-1,4.69,14.19,14.19,0,0,1-2.33,3.8,15.36,15.36,0,0,1-3,2.57l-0.05,0a14.25,14.25,0,0,1-3,1.4,8.62,8.62,0,0,1-1.32.37,9.2,9.2,0,0,1-1.22.21l-0.26,0c-0.28,0-.54.07-0.78,0.08h-1a3,3,0,0,1-.28-6s0.18,0,.5,0l0.27,0,0.24,0a0.59,0.59,0,0,0,.19,0,1.57,1.57,0,0,1,.25,0l0.08,0a1.9,1.9,0,0,0,.44-0.12l0.06,0A3.28,3.28,0,0,0,23.15,30l0.07,0a7.69,7.69,0,0,0,1.52-.86,8.7,8.7,0,0,0,1.46-1.45,7.69,7.69,0,0,0,1.08-2,6.34,6.34,0,0,0,.37-2.34V23.06l0-.48V22.44a0.62,0.62,0,0,1,0-.13L27.52,22a0.15,0.15,0,0,1,0-.07c0-.13-0.06-0.29-0.12-0.48l-0.07-.22a2.28,2.28,0,0,0-.1-0.31l0-.08a6.75,6.75,0,0,0-3-3.47,6.24,6.24,0,0,0-2-.7l-0.25,0a5.73,5.73,0,0,0-.67-0.06H20c-0.92,0-1.78,0-2.53,0h-1v3A2.06,2.06,0,0,1,13,21.1L5.9,14a2.05,2.05,0,0,1,0-2.91L13,4a2,2,0,0,1,1.45-.62,2.06,2.06,0,0,1,2.06,2.06v3h1l2.52,0h0.79L21.69,8.6A13.63,13.63,0,0,1,23.83,9a14.36,14.36,0,0,1,10.24,9.5,8.29,8.29,0,0,1,.3,1.07l0,0.15A11.73,11.73,0,0,1,34.64,21l0.07,0.64c0,0.16,0,.28,0,0.39v1Z" fill="#cf8b17"/><path d="M33.75,23.08l0,0.29a12.59,12.59,0,0,1-1,4.34,13.32,13.32,0,0,1-2.15,3.52,14.17,14.17,0,0,1-2.78,2.4A12.88,12.88,0,0,1,25,34.94a8.25,8.25,0,0,1-1.23.35,7.56,7.56,0,0,1-1.11.19c-0.34,0-.69.09-0.92,0.1h-1a2,2,0,0,1-.2-4l0.45,0,0.54-.05a5,5,0,0,0,.53-0.11,3.21,3.21,0,0,0,.66-0.17,5.22,5.22,0,0,0,.8-0.29,8.57,8.57,0,0,0,1.76-1A10.06,10.06,0,0,0,27,28.26,8.42,8.42,0,0,0,28.22,26a7.44,7.44,0,0,0,.43-2.71V23l0-.47a2.62,2.62,0,0,0,0-.43l-0.07-.29a3.92,3.92,0,0,0-.15-0.62,5.11,5.11,0,0,0-.22-0.66,7.72,7.72,0,0,0-3.5-4,7.4,7.4,0,0,0-2.29-.81,7.21,7.21,0,0,0-1.12-.11H20c-1.84,0-3.38,0-4.47,0v4.05a1.05,1.05,0,0,1-1.8.74L6.6,13.31a1,1,0,0,1,0-1.49l7.08-7.09a1.05,1.05,0,0,1,1.8.74v4c1.09,0,2.64,0,4.48,0h0.72l1,0.06a12.86,12.86,0,0,1,2,.33,13,13,0,0,1,4,1.68,13.22,13.22,0,0,1,5.56,7.17,9,9,0,0,1,.31,1.13,10,10,0,0,1,.21,1.22l0.07,0.63c0,0.21,0,.33,0,0.49v0.83Z" fill="#fff"/></svg>