<svg id="Icon" xmlns="http://www.w3.org/2000/svg" viewBox="0 0 40 40"><title>wedo_whendistanceclose</title><rect x="8.46" y="4.35" width="22.79" height="13.29" rx="1" ry="1" fill="#fff" stroke="#7c87a5" stroke-linecap="round" stroke-linejoin="round"/><path d="M11.36,0.54h5.82a1,1,0,0,1,1,1V4.35a0,0,0,0,1,0,0H10.36a0,0,0,0,1,0,0V1.54a1,1,0,0,1,1-1Z" fill="#fff"/><g opacity="0.1"><path d="M18.69,1.49V4.35a0.5,0.5,0,0,1-.5.5H15.5a0.5,0.5,0,0,1-.5-0.5V0.54A0.5,0.5,0,0,1,15.5,0h1.74A1.46,1.46,0,0,1,18.69,1.49Z" fill="#231f20"/></g><path d="M11.36,0.54h5.82a1,1,0,0,1,1,1V4.35a0,0,0,0,1,0,0H10.36a0,0,0,0,1,0,0V1.54a1,1,0,0,1,1-1Z" fill="none" stroke="#7c87a5" stroke-linecap="round" stroke-linejoin="round"/><path d="M22.53,0.54h5.82a1,1,0,0,1,1,1V4.35a0,0,0,0,1,0,0H21.53a0,0,0,0,1,0,0V1.54a1,1,0,0,1,1-1Z" fill="#fff"/><g opacity="0.1"><path d="M29.85,1.49V4.35a0.5,0.5,0,0,1-.5.5H26.67a0.5,0.5,0,0,1-.5-0.5V0.54a0.5,0.5,0,0,1,.5-0.5H28.4A1.45,1.45,0,0,1,29.85,1.49Z" fill="#231f20"/></g><path d="M22.53,0.54h5.82a1,1,0,0,1,1,1V4.35a0,0,0,0,1,0,0H21.53a0,0,0,0,1,0,0V1.54a1,1,0,0,1,1-1Z" fill="none" stroke="#7c87a5" stroke-linecap="round" stroke-linejoin="round"/><path d="M8.46,10.85h1.9V7.71A4.18,4.18,0,0,1,13.6,3.56,4.09,4.09,0,0,1,18.47,6.9,1.58,1.58,0,0,0,19.17,8h0a1.58,1.58,0,0,0,1.72,0h0a1.58,1.58,0,0,0,.7-1.08,4.09,4.09,0,0,1,4.87-3.33,4.18,4.18,0,0,1,3.24,4.15v3.14h1.56" fill="#fff"/><path d="M30.38,12.6H25.23a3.18,3.18,0,0,1-2.94-2h0a1,1,0,0,0-1.23-.52l-0.5.2a1.41,1.41,0,0,1-1.07,0l-0.37-.16a1,1,0,0,0-1.32.53h0a3.18,3.18,0,0,1-2.93,1.94H9.34a0.87,0.87,0,0,0-.87.87v3.3a0.87,0.87,0,0,0,.87.87h21a0.87,0.87,0,0,0,.87-0.87v-3.3A0.87,0.87,0,0,0,30.38,12.6Z" fill="#e6e7e8" stroke="#7c87a5" stroke-linecap="round" stroke-linejoin="round"/><circle cx="14.44" cy="7.69" r="2.17" fill="#7c87a5" stroke="#7c87a5" stroke-linecap="round" stroke-linejoin="round"/><circle cx="25.72" cy="7.69" r="2.17" fill="#e6e7e8" stroke="#7c87a5" stroke-linecap="round" stroke-linejoin="round"/><path d="M18.47,6.9A1.58,1.58,0,0,0,19.17,8h0a1.58,1.58,0,0,0,1.72,0h0a1.58,1.58,0,0,0,.7-1.08" fill="#fff" stroke="#7c87a5" stroke-linecap="round" stroke-linejoin="round"/><path d="M8.46,10.85h1.9V7.71A4.18,4.18,0,0,1,13.6,3.56,4.09,4.09,0,0,1,18.47,6.9,1.58,1.58,0,0,0,19.17,8h0a1.58,1.58,0,0,0,1.72,0h0a1.58,1.58,0,0,0,.7-1.08,4.09,4.09,0,0,1,4.87-3.33,4.18,4.18,0,0,1,3.24,4.15v3.14h1.56" fill="none" stroke="#7c87a5" stroke-linecap="round" stroke-linejoin="round"/><g opacity="0.1"><path d="M31.75,5.3V16.7a1.45,1.45,0,0,1-1.45,1.45H9.41A1.45,1.45,0,0,1,8,16.7v-1a0.5,0.5,0,0,1,.5-0.5H25.54a3.3,3.3,0,0,0,3.3-3.3V4.35a0.51,0.51,0,0,1,.5-0.5h1A1.45,1.45,0,0,1,31.75,5.3Z" fill="#231f20"/></g><path d="M34.15,4.43A23.69,23.69,0,0,0,32.94,2" fill="none" stroke="#fff" stroke-linecap="round" stroke-linejoin="round" stroke-width="1.5"/><path d="M33.5,23.13A22.34,22.34,0,0,0,35.14,7.25" fill="none" stroke="#fff" stroke-linecap="round" stroke-linejoin="round" stroke-width="1.5"/><path d="M38.62,8.59C38.47,7.65,38.28,6.69,38,5.71" fill="none" stroke="#fff" stroke-linecap="round" stroke-linejoin="round" stroke-width="1.5"/><path d="M35.91,27.38A29.86,29.86,0,0,0,39,12.93" fill="none" stroke="#fff" stroke-linecap="round" stroke-linejoin="round" stroke-width="1.5"/><path d="M32.31,10.38q-0.1-.77-0.24-1.6" fill="none" stroke="#fff" stroke-linecap="round" stroke-linejoin="round" stroke-width="1.5"/><path d="M22.19,25.18l8.08,2.41a1.73,1.73,0,0,0,2.41-1c0.59-1.82-1.48-2.36-1.48-2.36l-6.77-2s-5.74-2-6.25-3.43a9.34,9.34,0,0,0,4-1.32c1.91-1.21,3.53-.67,3.85-3.31s-2.36-1.55-3.28-1.33-5.48.68-7.22,0.82S9.52,15,8.93,15.74a9.38,9.38,0,0,0-.87,1.33L6.23,17s-1.35-.55-3.52,4.81S2.1,28.18,2.1,28.18a13.81,13.81,0,0,1,3.38,1.37c0.65,0.6.79,2.06,3.08,3.21S20.5,38.6,20.5,38.6s1.87,1.21,2.71-.31-1-2.27-1.53-2.47-5.25-2.57-5.25-2.57l0.73-.83,8.54,3.85s1.95,1.29,3-.54-1.5-2.68-1.5-2.68l-7.95-3.66,0.23-.3,10.15,3.77S31.9,34,32.69,32.2s-1.76-2.45-1.76-2.45l-9.18-3.66Z" fill="#fff"/><path d="M30.16,21.93s2.56-2.58,2.35-9.1" fill="none" stroke="#fff" stroke-linecap="round" stroke-linejoin="round" stroke-width="1.5"/><path d="M22.19,25.18l8.08,2.41a1.73,1.73,0,0,0,2.41-1c0.59-1.82-1.48-2.36-1.48-2.36l-6.77-2s-5.74-2-6.25-3.43a9.34,9.34,0,0,0,4-1.32c1.91-1.21,3.53-.67,3.85-3.31s-2.36-1.55-3.28-1.33-5.48.68-7.22,0.82S9.52,15,8.93,15.74a9.38,9.38,0,0,0-.87,1.33L6.23,17s-1.35-.55-3.52,4.81S2.1,28.18,2.1,28.18a13.81,13.81,0,0,1,3.38,1.37c0.65,0.6.79,2.06,3.08,3.21S20.5,38.6,20.5,38.6s1.87,1.21,2.71-.31-1-2.27-1.53-2.47-5.25-2.57-5.25-2.57l0.73-.83,8.54,3.85s1.95,1.29,3-.54-1.5-2.68-1.5-2.68l-7.95-3.66,0.23-.3,10.15,3.77S31.9,34,32.69,32.2s-1.76-2.45-1.76-2.45l-9.18-3.66Z" fill="none" stroke="#7c87a5" stroke-linecap="round" stroke-linejoin="round"/></svg>