<svg id="Icon" xmlns="http://www.w3.org/2000/svg" viewBox="0 0 40 40"><title>set-motor-speed_med</title><path d="M11.51,0.76h5.87a1,1,0,0,1,1,1v3a0,0,0,0,1,0,0H10.51a0,0,0,0,1,0,0v-3a1,1,0,0,1,1-1Z" fill="#e6e7e8"/><path d="M15.68,0.76v4h2.71V1.52a0.88,0.88,0,0,0-1-.76H15.68Z" fill="#231f20" stroke="#231f20" stroke-linecap="round" stroke-linejoin="round" opacity="0.1"/><path d="M11.51,0.76h5.87a1,1,0,0,1,1,1v3a0,0,0,0,1,0,0H10.51a0,0,0,0,1,0,0v-3a1,1,0,0,1,1-1Z" fill="none" stroke="#3d79cc" stroke-linecap="round" stroke-linejoin="round"/><path d="M29.65,3.8H21.76v-2a1,1,0,0,1,1-1h5.87a1,1,0,0,1,1,1v2Z" fill="#e6e7e8"/><path d="M26.94,0.76v4h2.71V1.52a0.88,0.88,0,0,0-1-.76H26.94Z" fill="#231f20" stroke="#231f20" stroke-linecap="round" stroke-linejoin="round" opacity="0.1"/><path d="M7.17,37.33a1.59,1.59,0,0,1-1.59-1.59V29.62a17.46,17.46,0,0,1,0-19.51v-4A1.84,1.84,0,0,1,7.42,4.3h25.3a1.84,1.84,0,0,1,1.84,1.84v3.94a17.46,17.46,0,0,1,0,19.55v6.1A1.6,1.6,0,0,1,33,37.33H7.17Z" fill="#e6e7e8"/><path d="M32.73,4.8a1.34,1.34,0,0,1,1.34,1.34v4.1a17,17,0,0,1,0,19.24v6.26A1.1,1.1,0,0,1,33,36.83H7.17a1.1,1.1,0,0,1-1.09-1.09V29.47a17,17,0,0,1-3-9.61,16.78,16.78,0,0,1,3-9.59V6.14A1.35,1.35,0,0,1,7.42,4.8h25.3m0-1H7.42A2.34,2.34,0,0,0,5.08,6.14V10a18,18,0,0,0,0,19.81v6a2.1,2.1,0,0,0,2.09,2.09H33a2.1,2.1,0,0,0,2.09-2.09v-6a18,18,0,0,0,0-19.86V6.14A2.34,2.34,0,0,0,32.73,3.8h0Z" fill="#3d79cc"/><g opacity="0.1"><path d="M37.06,19.86a16.88,16.88,0,0,1-3,9.62v6.26a1.11,1.11,0,0,1-1.1,1.1H7.17a1.1,1.1,0,0,1-1.09-1.1V33.94h24a1.11,1.11,0,0,0,1.1-1.1V26.59a17,17,0,0,0,0-19.24V4.8h1.55a1.34,1.34,0,0,1,1.34,1.35v4.09A16.88,16.88,0,0,1,37.06,19.86Z" fill="#231f20"/></g><path d="M22.68,0.76h6.06a0.91,0.91,0,0,1,.91.91V4.21a0,0,0,0,1,0,0H21.76a0,0,0,0,1,0,0V1.67A0.91,0.91,0,0,1,22.68.76Z" fill="none" stroke="#3d79cc" stroke-linecap="round" stroke-linejoin="round"/><path d="M20.09,32.53A11.93,11.93,0,1,1,32,20.6,11.94,11.94,0,0,1,20.09,32.53Z" fill="#e6e7e8"/><path d="M20.09,9.05A11.55,11.55,0,1,1,8.54,20.6,11.55,11.55,0,0,1,20.09,9.05m0-.75a12.3,12.3,0,1,0,12.3,12.3A12.31,12.31,0,0,0,20.09,8.3h0Z" fill="#8e9bba"/><path d="M35.67,19.81A5.15,5.15,0,0,1,30.49,25H25.23v6a5.17,5.17,0,0,1-10.34,0V25H9.63a5.16,5.16,0,1,1,0-10.33h7.14a5.17,5.17,0,0,1,6.58,0h7.13A5.17,5.17,0,0,1,35.67,19.81Z" fill="#e6e7e8" stroke="#8e9bba" stroke-linecap="round" stroke-linejoin="round" stroke-width="0.75"/><circle cx="9.7" cy="19.89" r="2.64" fill="#231f20" opacity="0.15"/><circle cx="30.46" cy="19.89" r="2.64" fill="#231f20" opacity="0.15"/><circle cx="20.08" cy="30.99" r="2.64" fill="#231f20" opacity="0.15"/><circle cx="20.08" cy="20.61" r="4.45" transform="translate(-8.69 20.24) rotate(-45)" fill="#e57055" stroke="#d65b56" stroke-linecap="round" stroke-linejoin="round"/><line x1="18.62" y1="22.08" x2="21.55" y2="19.15" fill="#e57055" stroke="#58595b" stroke-linecap="round" stroke-linejoin="round"/><line x1="18.62" y1="19.15" x2="21.55" y2="22.08" fill="#e57055" stroke="#58595b" stroke-linecap="round" stroke-linejoin="round"/><path d="M26,8.57H36.64a2.24,2.24,0,0,1,2.21,2.63L35.49,30.7a2.24,2.24,0,0,1-2.21,1.86H29.21A2.24,2.24,0,0,1,27,30.69L23.74,11.18A2.24,2.24,0,0,1,26,8.57Z" fill="#fff"/><path d="M38.81,11.37l-0.92,5.35H24.68l-0.89-5.36A2.23,2.23,0,0,1,26,8.76H36.61A2.23,2.23,0,0,1,38.81,11.37Z" fill="#2ff42f" stroke="#fff" stroke-linecap="round" stroke-linejoin="round" opacity="0.2"/><polygon points="37.89 16.71 36.52 24.66 26.01 24.66 24.68 16.71 37.89 16.71" fill="#2ff42f" stroke="#fff" stroke-linecap="round" stroke-linejoin="round"/><path d="M36.52,24.67l-1,6.1a2.22,2.22,0,0,1-2.2,1.85h-4A2.23,2.23,0,0,1,27,30.75l-1-6.08H36.52Z" fill="#2ff42f" stroke="#fff" stroke-linecap="round" stroke-linejoin="round"/><path d="M36.64,9.57A1.24,1.24,0,0,1,37.87,11L34.51,30.53a1.24,1.24,0,0,1-1.23,1H29.21a1.24,1.24,0,0,1-1.23-1L24.73,11A1.24,1.24,0,0,1,26,9.57H36.64m0-1H26a2.24,2.24,0,0,0-2.21,2.61L27,30.69a2.24,2.24,0,0,0,2.21,1.88h4.07a2.24,2.24,0,0,0,2.21-1.86l3.36-19.51a2.24,2.24,0,0,0-2.21-2.63h0Z" fill="#fff"/><path d="M36.64,8.57a2.24,2.24,0,0,1,2.21,2.63L35.49,30.7a2.24,2.24,0,0,1-2.21,1.86H29.21A2.24,2.24,0,0,1,27,30.69L23.74,11.18A2.24,2.24,0,0,1,26,8.57H36.64m0-1H26a3.24,3.24,0,0,0-3.2,3.78L26,30.86a3.23,3.23,0,0,0,3.2,2.71h4.07a3.24,3.24,0,0,0,3.2-2.69l3.36-19.51a3.24,3.24,0,0,0-3.2-3.8h0Z" fill="#3d79cc"/></svg>