<svg id="Icon" xmlns="http://www.w3.org/2000/svg" viewBox="0 0 40 40"><title>start-when-tilted-forward</title><path d="M5.66,5.61h0A5.65,5.65,0,0,1,4,1.61V1.11" fill="none" stroke="#7c87a5" stroke-linecap="round" stroke-linejoin="round" stroke-width="2"/><path d="M39.46,14.5l-4,4a1.58,1.58,0,0,1-1.13.46,1.65,1.65,0,0,1-1.14-.46l-4-4a1.6,1.6,0,0,1,1.15-2.72h0.63a6.37,6.37,0,0,0,0-.81,6,6,0,0,0-.47-1.69,6.43,6.43,0,0,0-.51-0.92,7.39,7.39,0,0,0-.74-0.91A6.72,6.72,0,0,0,27.3,6.09a6.83,6.83,0,0,0-2-.63,6.37,6.37,0,0,0-1.17-.1H23.72a2.73,2.73,0,0,0-.31,0l-0.18,0H22.92A1.37,1.37,0,0,1,21.54,4.2a1.39,1.39,0,0,1,.83-1.44l0.2-.08h0l0.58-.2A11.43,11.43,0,0,1,25.37,2c0.33,0,.67,0,1,0a11.71,11.71,0,0,1,2.2.21A11.28,11.28,0,0,1,32.16,3.6a10.87,10.87,0,0,1,1.59,1.15,12,12,0,0,1,1.4,1.43,12.25,12.25,0,0,1,2.54,5.54v0h0.64A1.6,1.6,0,0,1,39.46,14.5Z" fill="#3d79cc"/><rect x="12.98" y="1.01" width="11.83" height="40.55" rx="0.84" ry="0.84" transform="translate(-9.52 19.59) rotate(-45)" fill="#fff" stroke="#7c87a5" stroke-linecap="round" stroke-linejoin="round"/><path d="M33.84,33.84l-7.52-7.52a0.84,0.84,0,0,0-.6-0.25H21.64a0.84,0.84,0,0,1-.6-0.25l-6.68-6.68a0.84,0.84,0,0,1-.25-0.6V14.47a0.84,0.84,0,0,0-.25-0.6L6.35,6.35a0.84,0.84,0,0,0-1.19,0L1,10.53a0.84,0.84,0,0,0,0,1.19L28.46,39.21a0.84,0.84,0,0,0,1.19,0L33.84,35A0.84,0.84,0,0,0,33.84,33.84Z" fill="#e6e7e8" stroke="#7c87a5" stroke-linecap="round" stroke-linejoin="round"/><path d="M17.89,17.24a5.07,5.07,0,0,1,5.12,5" fill="none" stroke="#7c87a5" stroke-linecap="round" stroke-linejoin="round" stroke-width="0.75"/><polyline points="18.74 18.72 17.36 17.36 18.72 15.97" fill="none" stroke="#7c87a5" stroke-linecap="round" stroke-linejoin="round" stroke-width="0.75"/><polyline points="24.24 21.4 22.88 22.78 21.5 21.42" fill="none" stroke="#7c87a5" stroke-linecap="round" stroke-linejoin="round" stroke-width="0.75"/><path d="M11.11,3.53h5a1,1,0,0,1,1,1V6.92a0,0,0,0,1,0,0h-7a0,0,0,0,1,0,0V4.53A1,1,0,0,1,11.11,3.53Z" transform="translate(7.67 -8.08) rotate(45)" fill="#fff"/><path d="M15.56,4.79l-2.4,2.4,1.69,1.69,1.8-1.8a0.84,0.84,0,0,0,0-1.19Z" fill="#231f20" stroke="#231f20" stroke-linecap="round" stroke-linejoin="round" opacity="0.1"/><path d="M11.11,3.53h5a1,1,0,0,1,1,1V6.92a0,0,0,0,1,0,0h-7a0,0,0,0,1,0,0V4.53A1,1,0,0,1,11.11,3.53Z" transform="translate(7.67 -8.08) rotate(45)" fill="none" stroke="#7c87a5" stroke-linecap="round" stroke-linejoin="round"/><path d="M18.14,10.55h5a1,1,0,0,1,1,1v2.39a0,0,0,0,1,0,0h-7a0,0,0,0,1,0,0V11.55A1,1,0,0,1,18.14,10.55Z" transform="translate(14.7 -10.99) rotate(45)" fill="#fff"/><path d="M22.59,11.82l-2.4,2.4,1.69,1.69,1.8-1.8a0.84,0.84,0,0,0,0-1.19Z" fill="#231f20" stroke="#231f20" stroke-linecap="round" stroke-linejoin="round" opacity="0.1"/><path d="M18.14,10.55h5a1,1,0,0,1,1,1v2.39a0,0,0,0,1,0,0h-7a0,0,0,0,1,0,0V11.55A1,1,0,0,1,18.14,10.55Z" transform="translate(14.7 -10.99) rotate(45)" fill="none" stroke="#7c87a5" stroke-linecap="round" stroke-linejoin="round"/><path d="M25.45,17.86h5a1,1,0,0,1,1,1v2.39a0,0,0,0,1,0,0h-7a0,0,0,0,1,0,0V18.86a1,1,0,0,1,1-1Z" transform="translate(22.01 -14.02) rotate(45)" fill="#fff"/><path d="M29.9,19.13l-2.4,2.4,1.69,1.69,1.8-1.8a0.84,0.84,0,0,0,0-1.19Z" fill="#231f20" stroke="#231f20" stroke-linecap="round" stroke-linejoin="round" opacity="0.1"/><path d="M25.45,17.86h5a1,1,0,0,1,1,1v2.39a0,0,0,0,1,0,0h-7a0,0,0,0,1,0,0V18.86a1,1,0,0,1,1-1Z" transform="translate(22.01 -14.02) rotate(45)" fill="none" stroke="#7c87a5" stroke-linecap="round" stroke-linejoin="round"/><path d="M32.47,24.89h5a1,1,0,0,1,1,1v2.39a0,0,0,0,1,0,0h-7a0,0,0,0,1,0,0V25.89A1,1,0,0,1,32.47,24.89Z" transform="translate(29.03 -16.93) rotate(45)" fill="#fff"/><path d="M36.92,26.15l-2.4,2.4,1.69,1.69,1.8-1.8a0.84,0.84,0,0,0,0-1.19Z" fill="#231f20" stroke="#231f20" stroke-linecap="round" stroke-linejoin="round" opacity="0.1"/><path d="M32.47,24.89h5a1,1,0,0,1,1,1v2.39a0,0,0,0,1,0,0h-7a0,0,0,0,1,0,0V25.89A1,1,0,0,1,32.47,24.89Z" transform="translate(29.03 -16.93) rotate(45)" fill="none" stroke="#7c87a5" stroke-linecap="round" stroke-linejoin="round"/><path d="M1.57,9.93L26.65,35a3.38,3.38,0,0,0,4.78,0l4.78-4.78,0.6,0.6a0.84,0.84,0,0,1,0,1.19l-7.17,7.17a0.84,0.84,0,0,1-1.19,0L1,11.73a0.84,0.84,0,0,1,0-1.19Z" fill="#231f20" stroke="#231f20" stroke-linecap="round" stroke-linejoin="round" opacity="0.1"/><path d="M38.75,13.79l-4,4a0.61,0.61,0,0,1-.85,0l-4-4a0.6,0.6,0,0,1,.43-1h1.55c0-.07,0-0.24,0-0.5a6.31,6.31,0,0,0,0-1.43,7.05,7.05,0,0,0-.56-2,8.57,8.57,0,0,0-.59-1.06,10.47,10.47,0,0,0-.84-1,7.76,7.76,0,0,0-2.14-1.55,8.16,8.16,0,0,0-2.31-.72,8.29,8.29,0,0,0-1.76-.1c-0.21,0-.4,0-0.52,0L23,4.44a0.39,0.39,0,0,1-.43-0.35,0.4,0.4,0,0,1,.24-0.41h0s0.23-.1.69-0.25a10,10,0,0,1,2-.41,10,10,0,0,1,6.18,1.43A10.49,10.49,0,0,1,33.1,5.51a11.1,11.1,0,0,1,1.27,1.3A11.29,11.29,0,0,1,36,9.62a11.67,11.67,0,0,1,.66,2.27c0.08,0.47.12,0.78,0.13,0.88h1.5A0.6,0.6,0,0,1,38.75,13.79Z" fill="#4c97ff"/></svg>