<?xml version="1.0" encoding="utf-8"?>
<!-- Generator: Adobe Illustrator 15.1.0, SVG Export Plug-In  -->
<!DOCTYPE svg PUBLIC "-//W3C//DTD SVG 1.1//EN" "http://www.w3.org/Graphics/SVG/1.1/DTD/svg11.dtd" [
	<!ENTITY ns_flows "http://ns.adobe.com/Flows/1.0/">
]>
<svg version="1.1"
	 xmlns="http://www.w3.org/2000/svg" xmlns:xlink="http://www.w3.org/1999/xlink" xmlns:a="http://ns.adobe.com/AdobeSVGViewerExtensions/3.0/"
	 x="0px" y="0px" width="24px" height="24px" viewBox="0 0 24 24" style="overflow:visible;enable-background:new 0 0 24 24;"
	 xml:space="preserve" preserveAspectRatio="xMinYMid meet">
<defs>
</defs>
<linearGradient id="SVGID_1_" gradientUnits="userSpaceOnUse" x1="11.9854" y1="0" x2="11.9854" y2="24.0161">
	<stop  offset="0" style="stop-color:#F0A829"/>
	<stop  offset="1" style="stop-color:#C7671A"/>
	<a:midPointStop  offset="0" style="stop-color:#F0A829"/>
	<a:midPointStop  offset="0.5" style="stop-color:#F0A829"/>
	<a:midPointStop  offset="1" style="stop-color:#C7671A"/>
</linearGradient>
<path style="fill:url(#SVGID_1_);" d="M14.4,0L0.6,13.9c-0.8,0.8-0.8,2.1,0,2.8l6.7,6.7c0.8,0.8,2,0.8,2.8,0L24,9.6V0H14.4z"/>
<linearGradient id="SVGID_2_" gradientUnits="userSpaceOnUse" x1="11.9854" y1="1" x2="11.9854" y2="23.0161">
	<stop  offset="0" style="stop-color:#FFEBA8"/>
	<stop  offset="1" style="stop-color:#F8BE27"/>
	<a:midPointStop  offset="0" style="stop-color:#FFEBA8"/>
	<a:midPointStop  offset="0.5" style="stop-color:#FFEBA8"/>
	<a:midPointStop  offset="1" style="stop-color:#F8BE27"/>
</linearGradient>
<path style="fill:url(#SVGID_2_);" d="M8.7,23c-0.3,0-0.5-0.1-0.7-0.3L1.3,16C1.1,15.8,1,15.6,1,15.3c0-0.3,0.1-0.5,0.3-0.7L14.9,1
	H23v8.2L9.4,22.7C9.2,22.9,9,23,8.7,23C8.7,23,8.7,23,8.7,23z"/>
<linearGradient id="SVGID_3_" gradientUnits="userSpaceOnUse" x1="11.9844" y1="2" x2="11.9844" y2="22.0142">
	<stop  offset="0" style="stop-color:#FFC30F"/>
	<stop  offset="1" style="stop-color:#F5AE0D"/>
	<a:midPointStop  offset="0" style="stop-color:#FFC30F"/>
	<a:midPointStop  offset="0.5" style="stop-color:#FFC30F"/>
	<a:midPointStop  offset="1" style="stop-color:#F5AE0D"/>
</linearGradient>
<polygon style="fill:url(#SVGID_3_);" points="2,15.3 15.3,2 22,2 22,8.8 8.7,22 "/>
<linearGradient id="SVGID_4_" gradientUnits="userSpaceOnUse" x1="8.7197" y1="9.9688" x2="8.7197" y2="20.6313">
	<stop  offset="0" style="stop-color:#76A1F0"/>
	<stop  offset="1" style="stop-color:#6B90D5"/>
	<a:midPointStop  offset="0" style="stop-color:#76A1F0"/>
	<a:midPointStop  offset="0.5" style="stop-color:#76A1F0"/>
	<a:midPointStop  offset="1" style="stop-color:#6B90D5"/>
</linearGradient>
<polygon style="fill:url(#SVGID_4_);" points="3.4,15.3 8.7,10 14.1,15.3 8.7,20.6 "/>
<linearGradient id="SVGID_5_" gradientUnits="userSpaceOnUse" x1="11.1465" y1="22.0312" x2="11.1465" y2="23.8711" gradientTransform="matrix(0.7071 -0.7071 0.7071 0.7071 -14.0909 8.2514)">
	<stop  offset="0" style="stop-color:#57C3F6"/>
	<stop  offset="0.1648" style="stop-color:#83D3F8"/>
	<stop  offset="0.3554" style="stop-color:#AFE3FB"/>
	<stop  offset="0.5396" style="stop-color:#D2EFFD"/>
	<stop  offset="0.7128" style="stop-color:#EBF8FE"/>
	<stop  offset="0.8709" style="stop-color:#FAFDFF"/>
	<stop  offset="1" style="stop-color:#FFFFFF"/>
	<a:midPointStop  offset="0" style="stop-color:#57C3F6"/>
	<a:midPointStop  offset="0.3354" style="stop-color:#57C3F6"/>
	<a:midPointStop  offset="1" style="stop-color:#FFFFFF"/>
</linearGradient>
<polygon style="fill:url(#SVGID_5_);" points="7.4,17.9 8.7,19.2 12.6,15.3 11.3,14 "/>
<path style="fill:#F2EFD5;" d="M12.6,15.3L12.3,15c-0.3,0.2-0.8,0.5-1.4,1.1c-1.1,0.9-1,0.5-2,0.9c-0.4,0.2-0.9,0.6-1.4,1l1.2,1.2
	L12.6,15.3z"/>
<linearGradient id="SVGID_6_" gradientUnits="userSpaceOnUse" x1="8.3882" y1="23.1035" x2="13.9038" y2="23.1035" gradientTransform="matrix(0.7071 -0.7071 0.7071 0.7071 -14.0909 8.2514)">
	<stop  offset="0" style="stop-color:#F8E5B5"/>
	<stop  offset="1" style="stop-color:#F9E5B6"/>
	<a:midPointStop  offset="0" style="stop-color:#F8E5B5"/>
	<a:midPointStop  offset="0.4451" style="stop-color:#F8E5B5"/>
	<a:midPointStop  offset="1" style="stop-color:#F9E5B6"/>
</linearGradient>
<path style="fill:url(#SVGID_6_);" d="M12.6,15.3l-0.2-0.2c-0.4,0.2-0.6,0.6-1.3,1.2C10,17.2,10,16.6,9,17c-0.4,0.2-0.9,0.6-1.3,1.1
	l1.1,1.1L12.6,15.3z"/>
<linearGradient id="SVGID_7_" gradientUnits="userSpaceOnUse" x1="12.1709" y1="17.6572" x2="10.1204" y2="22.7323" gradientTransform="matrix(0.7071 -0.7071 0.7071 0.7071 -14.0909 8.2514)">
	<stop  offset="0" style="stop-color:#57C3F6"/>
	<stop  offset="4.801393e-03" style="stop-color:#59C4F6"/>
	<stop  offset="0.1237" style="stop-color:#85D3F8"/>
	<stop  offset="0.2474" style="stop-color:#AAE1FA"/>
	<stop  offset="0.376" style="stop-color:#C9ECFC"/>
	<stop  offset="0.51" style="stop-color:#E1F4FD"/>
	<stop  offset="0.6519" style="stop-color:#F2FAFE"/>
	<stop  offset="0.807" style="stop-color:#FCFEFF"/>
	<stop  offset="1" style="stop-color:#FFFFFF"/>
	<a:midPointStop  offset="0" style="stop-color:#57C3F6"/>
	<a:midPointStop  offset="0.25" style="stop-color:#57C3F6"/>
	<a:midPointStop  offset="1" style="stop-color:#FFFFFF"/>
</linearGradient>
<polygon style="fill:url(#SVGID_7_);" points="4.8,15.3 7.4,17.9 11.3,14 8.7,11.4 "/>
<path style="fill:#FFFFFF;" d="M9,11.6C8.7,11.8,8.7,12,8.7,12s-0.4-0.1-0.6,0.4c-0.1,0.4,0.3,0.5,0.3,0.5s0,0-0.1,0.1
	c0,0.1,0.1,0.1,0.1,0.1s-0.2,0.1-0.1,0.4c0.1,0.3,0.3,0.3,0.3,0.3s-0.1,0.5,0.4,0.6c0.4,0.1,0.5-0.3,0.5-0.3s0.3,0,0.6-0.2
	c0.3-0.2,0.4-0.5,0.4-0.5s0.1,0,0.2,0L9,11.6z"/>
<path style="fill:#FFFFFF;" d="M7.9,14.5c0,0-0.1,0-0.2,0.1c0,0.1,0.1,0.2,0.1,0.2s0,0,0,0c0,0,0,0,0,0s-0.1,0,0,0.1
	C7.8,15,7.9,15,7.9,15s0,0.1,0.1,0.2c0.1,0,0.1-0.1,0.1-0.1s0.1,0,0.2,0c0.1-0.1,0.1-0.1,0.1-0.1s0.1,0,0.1-0.1c0-0.1,0-0.2,0-0.2
	s0.2,0,0.1-0.2c-0.1-0.1-0.2,0-0.2,0s-0.1-0.1-0.1-0.1c-0.1,0-0.1,0.1-0.1,0.1s0,0,0,0c0,0-0.1,0-0.1,0S8,14.3,7.9,14.3
	C7.8,14.4,7.9,14.5,7.9,14.5z"/>
<path style="fill:#FFFFFF;" d="M19.6,8.4l-5.5,5.5l-0.7-0.7l5.5-5.5L19.6,8.4z M17.5,6.3L12,11.8l0.7,0.7L18.2,7L17.5,6.3z
	 M16.1,4.9l-5.5,5.5l0.7,0.7l5.5-5.5L16.1,4.9z"/>
<ellipse style="fill:#FFFFFF;" cx="19.7" cy="4.3" rx="1.3" ry="1.3"/>
</svg>
