<?xml version="1.0" encoding="utf-8"?>
<!-- Generator: Adobe Illustrator 25.2.1, SVG Export Plug-In . SVG Version: 6.00 Build 0)  -->
<svg width="24px" height="24px" version="1.1" id="Layer_1" xmlns="http://www.w3.org/2000/svg" xmlns:xlink="http://www.w3.org/1999/xlink" x="0px" y="0px"
	 viewBox="0 0 74.4 74.4" style="enable-background:new 0 0 74.4 74.4;" xml:space="preserve" preserveAspectRatio="xMinYMid meet">
<g id="label-2-6_1_">
	<path id="Subtraction_10-6_1_" d="M71.9,49.9L52.6,71.3c-1.7,1.9-4,3-6.4,3.1s-4.8-0.8-6.6-2.6l-34.2-33c-1.8-1.7-2.9-4-3-6.5
		L0,9.9V9.8C-0.2,4.6,3.8,0.1,8.9,0l0,0h0.2l21.6,0.9c2.4-0.1,4.7,0.8,6.5,2.5l34.2,33c3.8,3.5,4,9.5,0.6,13.4
		C72,49.8,71.9,49.8,71.9,49.9L71.9,49.9z M5.2,9.4l2.4,22.2v0.1c0,1.1,0.5,2.1,1.3,3l34.3,33.1c0.8,0.7,1.8,1.2,2.9,1.1
		c1,0,2.1-0.5,2.9-1.3l19.3-21.4c1.5-1.7,1.5-4.4-0.2-5.9l0,0l-34.2-33c-0.8-0.8-1.8-1.2-3-1.2h-0.2L9.2,5.2
		C6.8,5.3,5.2,7.2,5.2,9.4L5.2,9.4z M28.6,28.1c-3.3,3.7-8.9,3.9-12.6,0.5c-3.5-3.4-3.8-9.2-0.5-13s8.9-3.9,12.6-0.5
		c1.8,1.8,2.9,4.1,2.9,6.7C31,24.2,30.1,26.5,28.6,28.1z M19.5,19.2c-1.4,1.5-1.4,4,0.1,5.4s3.9,1.4,5.3-0.1s1.4-4-0.1-5.4
		c-0.7-0.7-1.6-1.1-2.5-1.1C21.2,18.1,20.2,18.5,19.5,19.2z"/>
</g>
</svg>
