<?xml version="1.0" encoding="utf-8"?>
<!-- Generator: Adobe Illustrator 26.0.3, SVG Export Plug-In . SVG Version: 6.00 Build 0)  -->
<svg width="24px" height="24px" version="1.1" id="Layer_1" xmlns="http://www.w3.org/2000/svg" xmlns:xlink="http://www.w3.org/1999/xlink" x="0px" y="0px"
	 viewBox="0 0 24 24" style="enable-background:new 0 0 24 24;" xml:space="preserve" preserveAspectRatio="xMinYMid meet">
<path d="M24,4V2.4c0-0.6-0.3-1.2-0.7-1.7C22.8,0.3,22.2,0,21.6,0H20c-0.6,0-1.2,0.3-1.7,0.7c-0.5,0.5-0.7,1.1-0.7,1.7H6.4
	c0-0.6-0.3-1.2-0.7-1.7C5.2,0.3,4.6,0,4,0H2.4C1.8,0,1.2,0.3,0.7,0.7C0.3,1.2,0,1.8,0,2.4V4c0,0.6,0.3,1.2,0.7,1.7
	c0.5,0.5,1.1,0.7,1.7,0.7v11.2c-0.6,0-1.2,0.3-1.7,0.7C0.3,18.8,0,19.4,0,20v1.6c0,0.6,0.3,1.2,0.7,1.7C1.2,23.7,1.8,24,2.4,24H4
	c0.6,0,1.2-0.3,1.7-0.7c0.5-0.5,0.7-1.1,0.7-1.7h11.2c0,0.6,0.3,1.2,0.7,1.7c0.5,0.5,1.1,0.7,1.7,0.7h1.6c0.6,0,1.2-0.3,1.7-0.7
	c0.5-0.5,0.7-1.1,0.7-1.7V20c0-0.6-0.3-1.2-0.7-1.7c-0.5-0.5-1.1-0.7-1.7-0.7V6.4c0.6,0,1.2-0.3,1.7-0.7C23.7,5.2,24,4.6,24,4z
	 M19.4,2.5c0-0.2,0.1-0.4,0.2-0.5c0.1-0.1,0.3-0.2,0.5-0.2h1.4c0.2,0,0.4,0.1,0.5,0.2c0.1,0.1,0.2,0.3,0.2,0.5v1.4
	c0,0.2-0.1,0.4-0.2,0.5c-0.1,0.1-0.3,0.2-0.5,0.2h-1.4c-0.2,0-0.4-0.1-0.5-0.2c-0.1-0.1-0.2-0.3-0.2-0.5V2.5z M1.8,3.9V2.5
	C1.8,2.3,1.8,2.1,2,2c0.1-0.1,0.3-0.2,0.5-0.2h1.4c0.2,0,0.4,0.1,0.5,0.2c0.1,0.1,0.2,0.3,0.2,0.5v1.4c0,0.2-0.1,0.4-0.2,0.5
	C4.3,4.6,4.1,4.6,3.9,4.6H2.5C2.3,4.6,2.1,4.6,2,4.4C1.8,4.3,1.8,4.1,1.8,3.9z M4.6,21.5c0,0.2-0.1,0.4-0.2,0.5s-0.3,0.2-0.5,0.2
	H2.5c-0.2,0-0.4-0.1-0.5-0.2s-0.2-0.3-0.2-0.5v-1.4c0-0.2,0.1-0.4,0.2-0.5c0.1-0.1,0.3-0.2,0.5-0.2h1.4c0.2,0,0.4,0.1,0.5,0.2
	s0.2,0.3,0.2,0.5V21.5z M22.2,20.1v1.4c0,0.2-0.1,0.4-0.2,0.5s-0.3,0.2-0.5,0.2h-1.4c-0.2,0-0.4-0.1-0.5-0.2s-0.2-0.3-0.2-0.5v-1.4
	c0-0.2,0.1-0.4,0.2-0.5s0.3-0.2,0.5-0.2h1.4c0.2,0,0.4,0.1,0.5,0.2S22.2,19.9,22.2,20.1z M19.8,17.5c-0.6,0-1.2,0.2-1.7,0.7
	c-0.4,0.4-0.7,1-0.7,1.7h-11c0-0.6-0.2-1.2-0.7-1.7c-0.4-0.4-1-0.7-1.7-0.7v-11c0.6,0,1.2-0.2,1.7-0.7c0.4-0.4,0.7-1,0.7-1.7h11
	c0,0.6,0.2,1.2,0.7,1.7c0.4,0.4,1,0.7,1.7,0.7V17.5z M16.8,8c0,0.4-0.1,0.6-0.2,0.7S16.2,9,16,9h-3.1v7c0,0.3-0.2,0.6-0.5,0.7
	c-0.2,0.1-0.6,0.1-0.8,0c-0.2-0.1-0.5-0.4-0.5-0.7V9H8C7.7,9,7.5,8.8,7.3,8.6c-0.1-0.2-0.1-0.7,0-1C7.5,7.4,7.7,7.2,8,7.2h8
	c0.2,0,0.4,0.1,0.6,0.2C16.7,7.6,16.8,7.8,16.8,8z"/>
</svg>
