<svg xmlns="http://www.w3.org/2000/svg" style="isolation:isolate" width="16" height="16" preserveAspectRatio="xMinYMid meet"><defs><clipPath id="a"><path d="M0 0h16v16H0z"/></clipPath></defs><g clip-path="url(#a)" stroke="#000" stroke-miterlimit="10"><path d="M6 13.5h4m-4-5h4m-4-5h4" fill="none" vector-effect="non-scaling-stroke"/><path d="M12.5 13.5a1 1 0 1 1 2 0 1 1 0 0 1-2 0zm0-5a1 1 0 1 1 2 0 1 1 0 0 1-2 0zm0-5a1 1 0 1 1 2 0 1 1 0 0 1-2 0zm-11.2 0a1 1 0 1 1 2 0 1 1 0 0 1-2 0zm0 5a1 1 0 1 1 2 0 1 1 0 0 1-2 0zm0 5a1 1 0 1 1 2 0 1 1 0 0 1-2 0z" vector-effect="non-scaling-stroke"/></g></svg>