<svg id="Layer_1" data-name="Layer 1" xmlns="http://www.w3.org/2000/svg" width="48" height="48" viewBox="0 0 48 48"><defs><style>.cls-1{fill:#336;}.cls-2{fill:#fff;}</style></defs><title>48px_sourcefile_20170718_multi</title><circle class="cls-1" cx="24.09" cy="23.77" r="23.96"/><path id="path1" class="cls-2" d="M25.57,26.3l-.34.24L24.6,27l-.22.17.66,5.6,1-1.63,2.12,1Zm4.68-3.44-.19.15-.64.47,2.79,3.78.26-1.31,1.78-.49Zm-11-2.58-.26.19-3.82,2.71c1.54.43,3.31,1.74,3.84,5.54l3.22-2.3.15-.09v-.06l.11,0,.34-.24.19-.15v-.09a5.52,5.52,0,0,0-3.61-5.41ZM23,17.63l-.36.24c-.86.6-1.7,1.18-2.51,1.76l-.06,0,.13.07A6.44,6.44,0,0,1,24,25v.13l.71-.51,1.63-1.18.15-.11,0-.19c.26-3.09-2.12-4.83-3.37-5.5ZM26.86,15l-.13.09-2.34,1.59-.54.37,0,0a6.89,6.89,0,0,1,3.54,5.47v.11l.52-.37c.6-.45,1.2-.88,1.8-1.31l.15-.11,0-.09c.64-2.81-1.7-4.83-2.92-5.67Zm6.65-3.86a2,2,0,0,0-1,.24c-1.18.67-2.83,1.72-4.68,3l-.19.13.15.11c1.25,1,3.15,2.81,3.11,5.34v.19l.52-.39c1.83-1.37,3.44-2.6,4.59-3.52,1.48-1.18.52-2.86.19-3.35A3.58,3.58,0,0,0,33.51,11.15Zm.06-1.85a5.51,5.51,0,0,1,4.19,2.51c1.4,2.08,1.18,4.4-.56,5.8-1.25,1-3,2.36-5,3.86l-.32.22,6.87,4.44-4.64,1.25-.86,4.27-5.26-7.11-.06,0-.73.52-.07.06,4.68,10.78L26.71,33.5l-2.88,4.74-1.16-9.85-.56.39c-1.2.86-2.32,1.65-3.3,2.34l0,0-1.35,1a6.19,6.19,0,0,1-3.56,1.31A3.87,3.87,0,0,1,12.18,33a5.48,5.48,0,0,1-2.7-4.61,3,3,0,0,1,1-2.81.91.91,0,1,1,1,1.54c-.3.26-.41,2.17.64,3.5s2.38,1.22,4.23-.07c.3-.21.6-.43.94-.66-.34-5.22-2.9-5.17-4.14-5.13h-.26a1,1,0,0,1-1-.71A1,1,0,0,1,12.35,23c.54-.39,14.1-10.22,19.28-13.18A3.79,3.79,0,0,1,33.56,9.3Z"/></svg>