<?xml version="1.0" encoding="utf-8"?>
<!-- Generator: Adobe Illustrator 25.2.1, SVG Export Plug-In . SVG Version: 6.00 Build 0)  -->
<svg width="24px" height="24px" version="1.1" id="Layer_1" xmlns="http://www.w3.org/2000/svg" xmlns:xlink="http://www.w3.org/1999/xlink" x="0px" y="0px"
	 viewBox="0 0 74.4 74.4" style="enable-background:new 0 0 74.4 74.4;" xml:space="preserve" preserveAspectRatio="xMinYMid meet">
<path id="Path_963-6_1_" d="M37.9,74.4c-1,0-1.9-0.8-1.9-1.8v-0.1V64H15.6c-1.8,0-3.2-1.4-3.2-3.2l0,0V3.2c0-1.8,1.4-3.2,3.2-3.2h34
	c0.8,0,1.7,0.3,2.2,0.9L63.9,13c0.6,0.6,0.9,1.4,0.9,2.2v45.5c0,1.8-1.4,3.2-3.2,3.2l0,0H41.1v8.5c0,1.1-0.9,2-1.9,2H37.9z
	 M59.6,58.6V21.5h-13c-1.8,0-3.2-1.4-3.2-3.1l0,0v-13H17.7v53.3H36v-7.8h-5.1c-1.1,0-2-0.9-2-2c0-0.4,0.2-0.8,0.4-1.2l7.9-10.5
	c0.7-0.8,1.8-0.9,2.7-0.3c0.1,0.1,8,10.8,8,10.8c0.7,0.9,0.5,2.1-0.4,2.8c-0.3,0.2-0.7,0.4-1.1,0.4h-5.2v7.8L59.6,58.6z M49.3,15.6
	h9.1l-9.1-9.1C49.3,6.5,49.3,15.6,49.3,15.6z"/>
</svg>
