<?xml version="1.0" encoding="utf-8"?>
<!-- Generator: Adobe Illustrator 15.1.0, SVG Export Plug-In  -->
<!DOCTYPE svg PUBLIC "-//W3C//DTD SVG 1.1//EN" "http://www.w3.org/Graphics/SVG/1.1/DTD/svg11.dtd" [
	<!ENTITY ns_flows "http://ns.adobe.com/Flows/1.0/">
]>
<svg version="1.1"
	 xmlns="http://www.w3.org/2000/svg" xmlns:xlink="http://www.w3.org/1999/xlink" xmlns:a="http://ns.adobe.com/AdobeSVGViewerExtensions/3.0/"
	 x="0px" y="0px" width="16px" height="16px" viewBox="-0.1 0 16 16" style="overflow:visible;enable-background:new -0.1 0 16 16;"
	 xml:space="preserve" preserveAspectRatio="xMinYMid meet">
<defs>
</defs>
<path style="fill:#999;" d="M15.8,8c0-1.9-3.6-5.5-7.9-5.5c-0.7,0-1.5,0.1-2.1,0.3L4.1,0H3l1.8,3.2C2,4.3,0,6.6,0,8
	c0,1.8,3.6,5.4,7.9,5.4c0.9,0,1.8-0.2,2.6-0.4l1.7,3h1.2l-1.9-3.3C14,11.5,15.8,9.3,15.8,8z M3.6,11.1L1.3,7.2
	C1.5,6.9,1.7,6.6,2,6.3l3.3,5.6C4.6,11.7,4.1,11.4,3.6,11.1z M6.6,12.3L2.7,5.6C3,5.4,3.2,5.2,3.5,5l4.3,7.5
	C7.4,12.4,7,12.4,6.6,12.3z M8.9,12.4L4.4,4.5C4.7,4.3,5,4.2,5.3,4l4.7,8.1C9.6,12.2,9.3,12.3,8.9,12.4z M10.9,11.8l-0.9-1.5
	c0.6-0.6,1-1.4,1-2.4c0-1.7-1.4-3.2-3.2-3.2c-0.3,0-0.7,0.1-1,0.2l0.3,0.5L6.9,4.9l0,0L6.3,3.7c0.5-0.1,1.1-0.2,1.6-0.2
	c3.8,0,6.9,3.2,6.9,4.5C14.8,8.8,13.3,10.8,10.9,11.8z"/>
</svg>
