<?xml version="1.0" encoding="utf-8"?>
<!-- Generator: Adobe Illustrator 15.1.0, SVG Export Plug-In  -->
<!DOCTYPE svg PUBLIC "-//W3C//DTD SVG 1.1//EN" "http://www.w3.org/Graphics/SVG/1.1/DTD/svg11.dtd" [
	<!ENTITY ns_flows "http://ns.adobe.com/Flows/1.0/">
]>
<svg version="1.1"
	 xmlns="http://www.w3.org/2000/svg" xmlns:xlink="http://www.w3.org/1999/xlink" xmlns:a="http://ns.adobe.com/AdobeSVGViewerExtensions/3.0/"
	 x="0px" y="0px" width="16px" height="16px" viewBox="0 -3.9 16 16" style="overflow:visible;enable-background:new 0 -3.9 16 16;"
	 xml:space="preserve" preserveAspectRatio="xMinYMid meet">
<defs>
</defs>
<path style="fill:#999;" d="M13.8,3.8C14.5,4,15,4.2,15.3,4.5C15.8,4.8,16,5.3,16,5.9c0,0.6-0.2,1.1-0.7,1.5
	c-0.6,0.5-1.4,0.7-2.6,0.7h-4V7.8c0.4,0,0.6,0,0.7-0.1s0.2-0.2,0.3-0.3s0.1-0.4,0.1-0.8V1.5c0-0.4,0-0.7-0.1-0.8S9.5,0.5,9.4,0.4
	S9,0.3,8.7,0.3V0.1h3.8c0.9,0,1.6,0.1,1.9,0.2s0.7,0.4,0.9,0.7s0.3,0.7,0.3,1c0,0.4-0.1,0.7-0.4,1S14.5,3.7,13.8,3.8z M11.6,4.1v2.5
	l0,0.3c0,0.2,0.1,0.4,0.2,0.5s0.3,0.2,0.5,0.2c0.3,0,0.6-0.1,0.9-0.2s0.5-0.3,0.6-0.6s0.2-0.6,0.2-0.9c0-0.4-0.1-0.7-0.3-1
	S13.3,4.4,13,4.3S12.2,4.1,11.6,4.1z M11.6,3.7c0.6,0,1-0.1,1.2-0.2s0.5-0.3,0.6-0.5s0.2-0.5,0.2-0.9s-0.1-0.6-0.2-0.9
	s-0.3-0.4-0.6-0.5s-0.7-0.2-1.2-0.2V3.7z M4.9,5.8H2.1L1.8,6.6C1.6,6.9,1.6,7.1,1.6,7.3c0,0.2,0.1,0.4,0.3,0.5
	C2,7.8,2.2,7.9,2.6,7.9v0.2H0V7.9c0.3,0,0.5-0.2,0.7-0.4s0.4-0.6,0.7-1.2L4.2,0h0.1l2.9,6.5c0.3,0.6,0.5,1,0.7,1.2
	C8,7.8,8.2,7.9,8.4,7.9v0.2H4.6V7.9h0.2c0.3,0,0.5,0,0.7-0.1c0.1-0.1,0.1-0.2,0.1-0.3c0-0.1,0-0.1,0-0.2c0,0-0.1-0.2-0.2-0.4
	L4.9,5.8z M4.7,5.4L3.5,2.7L2.3,5.4H4.7z"/>
</svg>
