<?xml version="1.0" encoding="utf-8"?>
<!-- Generator: Adobe Illustrator 15.1.0, SVG Export Plug-In  -->
<!DOCTYPE svg PUBLIC "-//W3C//DTD SVG 1.1//EN" "http://www.w3.org/Graphics/SVG/1.1/DTD/svg11.dtd" [
	<!ENTITY ns_flows "http://ns.adobe.com/Flows/1.0/">
]>
<svg version="1.1"
	 xmlns="http://www.w3.org/2000/svg" xmlns:xlink="http://www.w3.org/1999/xlink" xmlns:a="http://ns.adobe.com/AdobeSVGViewerExtensions/3.0/"
	 x="0px" y="0px" width="16px" height="16px" viewBox="0 -1 16 16" style="overflow:visible;enable-background:new 0 -1 16 16;"
	 xml:space="preserve" preserveAspectRatio="xMinYMid meet">
<defs>
</defs>
<path style="fill:#999;" d="M14.9,14.2c0.2,0.2,0.6,0.3,1.1,0.4V15h-5.7v-0.4c0.7-0.1,1.1-0.1,1.3-0.2c0.2-0.1,0.3-0.3,0.3-0.6
	c0-0.1,0-0.3-0.1-0.6c-0.1-0.3-0.2-0.6-0.3-0.9L10.9,11h2.4l0.7,1.6C14.4,13.5,14.7,14,14.9,14.2z M3.5,13.6c0-0.2,0.1-0.4,0.2-0.8
	C3.8,12.6,4,12,4.4,11h-1c-0.7,1.6-1.2,2.6-1.4,2.9c-0.3,0.4-0.7,0.6-1.3,0.6V15H5v-0.4c-0.5,0-0.9-0.1-1.1-0.2
	C3.6,14.2,3.5,14,3.5,13.6z M5.6,8l2-4.9l2,4.9H12L8.4,0H8L4.6,8H5.6z M16,9H0v1h16V9z"/>
</svg>
