<?xml version="1.0" encoding="utf-8"?>
<!-- Generator: Adobe Illustrator 15.1.0, SVG Export Plug-In  -->
<!DOCTYPE svg PUBLIC "-//W3C//DTD SVG 1.1//EN" "http://www.w3.org/Graphics/SVG/1.1/DTD/svg11.dtd" [
	<!ENTITY ns_flows "http://ns.adobe.com/Flows/1.0/">
]>
<svg version="1.1"
	 xmlns="http://www.w3.org/2000/svg" xmlns:xlink="http://www.w3.org/1999/xlink" xmlns:a="http://ns.adobe.com/AdobeSVGViewerExtensions/3.0/"
	 x="0px" y="0px" width="16px" height="16px" viewBox="0 -1 16 16" style="overflow:visible;enable-background:new 0 -1 16 16;"
	 xml:space="preserve" preserveAspectRatio="xMinYMid meet">
<defs>
</defs>
<path style="fill:#999;" d="M15,7.1V9h-4V6.8l-1,1V9H6V6h0.8L6.5,5.7L7.2,5H6V2h1.1L6.5,1.4L7.9,0H0v14h16V6.1L15,7.1z M5,13H1
	v-3h4V13z M5,9H1V6h4V9z M5,5H1V2h4V5z M10,13H6v-3h4V13z M15,13h-4v-3h4V13z M16,5.3l-1-1V2.8l1-1V5.3z M12.2,0l-0.7,0.7L10.7,0
	H12.2z M15,0h1v1L15,0z M15,1.4l-2.1,2.1L15,5.7l-1.4,1.4L11.5,5L9.3,7.1L7.9,5.7L10,3.6L7.9,1.4L9.3,0l2.1,2.1L13.6,0L15,1.4z"/>
</svg>
