<?xml version="1.0" encoding="utf-8"?>
<!-- Generator: Adobe Illustrator 15.1.0, SVG Export Plug-In  -->
<!DOCTYPE svg PUBLIC "-//W3C//DTD SVG 1.1//EN" "http://www.w3.org/Graphics/SVG/1.1/DTD/svg11.dtd" [
	<!ENTITY ns_flows "http://ns.adobe.com/Flows/1.0/">
]>
<svg version="1.1"
	 xmlns="http://www.w3.org/2000/svg" xmlns:xlink="http://www.w3.org/1999/xlink" xmlns:a="http://ns.adobe.com/AdobeSVGViewerExtensions/3.0/"
	 x="0px" y="0px" width="16px" height="16px" viewBox="0 -1 16 16" style="overflow:visible;enable-background:new 0 -1 16 16;"
	 xml:space="preserve" preserveAspectRatio="xMinYMid meet">
<defs>
</defs>
<path style="fill:#999;" d="M16,0v14h-4c0-0.4-0.1-0.7-0.3-1H15V2H1v2.1c-0.4,0.3-0.7,0.6-1,1V0H16z M6.6,13h-1
	c-0.5,0.2-1,0.2-1.6,0.2c-0.5,0-1-0.1-1.5-0.2H1v-0.8c-0.4-0.3-0.7-0.6-1-1V14h7.5L6.6,13z M14,10H8.9c-0.1,0.1-0.1,0.3-0.2,0.4
	c0,0,0.3,0.3,0.7,0.6H14V10z M14,7H9.1c0.1,0.3,0.1,0.7,0.1,1H14V7z M14,4H7.1c0.4,0.3,0.7,0.6,1,1H14V4z M10.7,13.4
	c0.4,0.4,0.5,1,0.1,1.4c-0.4,0.4-1,0.3-1.4-0.1l-2.2-2.6c-0.2-0.3-0.4-0.6-0.3-0.8c-0.7,0.6-1.7,1-2.7,1C1.8,12.2,0,10.4,0,8.1
	C0,5.8,1.8,4,4.1,4c2.3,0,4.1,1.8,4.1,4.1c0,1-0.4,2-1,2.7c0.2,0,0.5,0.1,0.8,0.3L10.7,13.4 M4.1,10.9c1.5,0,2.7-1.2,2.7-2.7
	c0-1.5-1.2-2.8-2.7-2.8c-1.5,0-2.8,1.2-2.8,2.8C1.4,9.6,2.6,10.9,4.1,10.9"/>
</svg>
