<?xml version="1.0" encoding="utf-8"?>
<!-- Generator: Adobe Illustrator 15.1.0, SVG Export Plug-In  -->
<!DOCTYPE svg PUBLIC "-//W3C//DTD SVG 1.1//EN" "http://www.w3.org/Graphics/SVG/1.1/DTD/svg11.dtd" [
	<!ENTITY ns_flows "http://ns.adobe.com/Flows/1.0/">
]>
<svg version="1.1"
	 xmlns="http://www.w3.org/2000/svg" xmlns:xlink="http://www.w3.org/1999/xlink" xmlns:a="http://ns.adobe.com/AdobeSVGViewerExtensions/3.0/"
	 x="0px" y="0px" width="16px" height="16px" viewBox="0 0 16 16" style="overflow:visible;enable-background:new 0 0 16 16;"
	 xml:space="preserve" preserveAspectRatio="xMinYMid meet">
<defs>
</defs>
<path style="fill:#999;" d="M11.9,13.4c0.3-0.2,0.5-0.4,0.8-0.7c1.3-1.3,2-2.9,2-4.8s-0.7-3.4-2-4.8c-1.3-1.3-2.9-2-4.8-2
	c-1.9,0-3.4,0.7-4.8,2c-1.3,1.3-2,2.9-2,4.8s0.7,3.4,2,4.8c0.3,0.3,0.5,0.5,0.8,0.7l-0.8,1.8c-0.1,0.2,0,0.5,0.2,0.7h0
	c0.2,0.1,0.5,0,0.7-0.2L4.9,14c0.9,0.5,2,0.7,3.1,0.7s2.2-0.2,3.1-0.7l0.8,1.7c0.1,0.2,0.4,0.4,0.7,0.2h0c0.2-0.1,0.4-0.4,0.2-0.7
	L11.9,13.4z M8,13.7c-1.6,0-2.9-0.5-4-1.7c-1.1-1.1-1.7-2.4-1.7-4S2.8,5.1,4,4c1.1-1.1,2.4-1.7,4-1.7c1.6,0,2.9,0.5,4,1.7
	c1.1,1.1,1.7,2.4,1.7,4s-0.5,2.9-1.7,4C10.9,13.2,9.6,13.7,8,13.7z M8,7.7l2.6,2.1l-0.7,0.8L7.1,8.4C7,8.3,6.9,8.2,6.9,8V4.6H8V7.7z
	 M11.2,1.5L12,0c1.8,0.9,3.1,2.2,4,4l-1.5,0.8C13.8,3.3,12.7,2.2,11.2,1.5z M1.5,4.8L0,4c0.9-1.8,2.2-3.1,4-4l0.8,1.5
	C3.3,2.2,2.2,3.3,1.5,4.8z"/>
</svg>
