<?xml version="1.0" encoding="utf-8"?>
<!-- Generator: Adobe Illustrator 15.1.0, SVG Export Plug-In  -->
<!DOCTYPE svg PUBLIC "-//W3C//DTD SVG 1.1//EN" "http://www.w3.org/Graphics/SVG/1.1/DTD/svg11.dtd" [
	<!ENTITY ns_flows "http://ns.adobe.com/Flows/1.0/">
]>
<svg version="1.1"
	 xmlns="http://www.w3.org/2000/svg" xmlns:xlink="http://www.w3.org/1999/xlink" xmlns:a="http://ns.adobe.com/AdobeSVGViewerExtensions/3.0/"
	 x="0px" y="0px" width="16px" height="16px" viewBox="0 0 16 16" style="overflow:visible;enable-background:new 0 0 16 16;"
	 xml:space="preserve" preserveAspectRatio="xMinYMid meet">
<defs>
</defs>
<path style="fill:#999;" d="M5,10l0.6-0.6l0.8,0.1l0.1,0.9L6,11c-0.1,0.1-0.3,0.2-0.5,0.2c-0.2,0-0.4-0.1-0.5-0.2
	c-0.1-0.1-0.2-0.3-0.2-0.5C4.8,10.3,4.9,10.1,5,10z M10.5,4.8c-0.2,0-0.4,0.1-0.5,0.2L9.4,5.6l0.1,0.8l0.9,0.1L11,6
	c0.1-0.1,0.2-0.3,0.2-0.5c0-0.2-0.1-0.4-0.2-0.5C10.9,4.9,10.7,4.8,10.5,4.8z M15.3,2.2l-1.5-1.5C13.3,0.2,12.7,0,12,0
	c-0.7,0-1.3,0.2-1.7,0.7L8.8,2.2l0.3,1.7l2.2-2.2c0.2-0.2,0.5-0.3,0.7-0.3s0.5,0.1,0.7,0.3l1.5,1.5c0.2,0.2,0.3,0.5,0.3,0.7
	s-0.1,0.5-0.3,0.7l-2.2,2.2l1.7,0.3l1.5-1.5C15.8,5.2,16,4.7,16,4S15.8,2.7,15.3,2.2z M6.9,12.1l-2.2,2.2c-0.2,0.2-0.5,0.3-0.7,0.3
	s-0.5-0.1-0.7-0.3l-1.5-1.5c-0.2-0.2-0.3-0.5-0.3-0.7c0-0.3,0.1-0.5,0.3-0.7l2.2-2.2L2.2,8.8l-1.5,1.5C0.2,10.8,0,11.3,0,12
	c0,0.7,0.2,1.3,0.7,1.7l1.5,1.5C2.7,15.8,3.3,16,4,16s1.3-0.2,1.7-0.7l1.5-1.5L6.9,12.1z M14,8.3l-5.4-1L7.7,2L6.2,2.2l0.9,4.9
	L2.2,6.2L2,7.7l5.4,1l1,5.4l1.5-0.3L8.9,8.9l4.9,0.9L14,8.3z"/>
</svg>
