<?xml version="1.0" encoding="utf-8"?>
<!-- Generator: Adobe Illustrator 15.1.0, SVG Export Plug-In  -->
<!DOCTYPE svg PUBLIC "-//W3C//DTD SVG 1.1//EN" "http://www.w3.org/Graphics/SVG/1.1/DTD/svg11.dtd" [
	<!ENTITY ns_flows "http://ns.adobe.com/Flows/1.0/">
]>
<svg version="1.1"
	 xmlns="http://www.w3.org/2000/svg" xmlns:xlink="http://www.w3.org/1999/xlink" xmlns:a="http://ns.adobe.com/AdobeSVGViewerExtensions/3.0/"
	 x="0px" y="0px" width="16px" height="16px" viewBox="0 -0.1 16 16" style="overflow:visible;enable-background:new 0 -0.1 16 16;"
	 xml:space="preserve" preserveAspectRatio="xMinYMid meet">
<defs>
</defs>
<path style="fill:#999;" d="M15,4.4v1.5h-1.5l-1,1H15v3h-4V8.4l-1,1v0.5H9.5l-1,1H10v3H6v-3l-1,0v3H1v-3h4v-1H1v-3h4v0.5l1.5-1.5
	H6v-3h3.5l2-2H0v14h16V3.4L15,4.4z M1,2.9h4v3H1V2.9z M15,13.9h-4v-3h4V13.9z M12.4,1.4l1.1-1.1c0.4-0.4,1-0.4,1.4,0L15.6,1
	c0.4,0.4,0.4,1,0,1.4l-1.1,1.1L12.4,1.4z M11.6,2.2L6,7.8l0,2.1l2.1,0l5.6-5.6L11.6,2.2z"/>
</svg>
