<svg id="Layer_1" data-name="Layer 1" xmlns="http://www.w3.org/2000/svg" width="48" height="48" viewBox="0 0 48 48"><defs><style>.cls-1{fill:#f33;}.cls-2{fill:#fff;}</style></defs><title>48px_sourcefile_20170718_multi</title><circle class="cls-1" cx="24" cy="24" r="24"/><path id="path1" class="cls-2" d="M33.15,28.59A1.41,1.41,0,1,0,34.52,30,1.38,1.38,0,0,0,33.15,28.59Zm-18.28,0A1.41,1.41,0,1,0,16.24,30,1.38,1.38,0,0,0,14.87,28.59Zm9.13,0A1.41,1.41,0,1,0,25.37,30,1.38,1.38,0,0,0,24,28.57Zm0-1.84A3.22,3.22,0,0,1,27.21,30,3.26,3.26,0,0,1,26,32.46l-.07.06.17.07a5.6,5.6,0,0,1,2.42,2l0,.06,0,0a5.49,5.49,0,0,1,2.42-2l.17-.07-.07-.06a3.21,3.21,0,1,1,4.09,0l-.07.06.17.07a5.55,5.55,0,0,1,3.36,5.1H36.83a3.66,3.66,0,1,0-7.31,0H27.68v0h0a3.66,3.66,0,1,0-7.31,0h0v0H18.53a3.66,3.66,0,1,0-7.31,0H9.38a5.55,5.55,0,0,1,3.36-5.1l.17-.07-.08-.06a3.21,3.21,0,1,1,4.09,0l-.08.06.17.07a5.6,5.6,0,0,1,2.42,2l0,0,0-.06a5.49,5.49,0,0,1,2.42-2l.17-.07L22,32.46A3.23,3.23,0,0,1,20.83,30,3.17,3.17,0,0,1,24,26.74Zm-7.31-5.48h6.39v.92H16.69Zm0-1.84h6.39v.92H16.69Zm0-1.82h6.39v.92H16.69Zm11.89-1.84a1.84,1.84,0,1,0,1.84,1.84A1.84,1.84,0,0,0,28.57,15.77Zm0-.92a2.74,2.74,0,1,1-2.74,2.74A2.74,2.74,0,0,1,28.57,14.85Zm-6.34-1.71.64.64-2.7,2.7L18.39,14.7l-1.46,1.46-.64-.64,2.1-2.1,1.78,1.78Zm-7.37-1v11H33.15v-11ZM13,10.29H35V24.92H13Z"/></svg>