<?xml version="1.0" encoding="utf-8"?>
<svg version="1.1" id="Layer_1" xmlns="http://www.w3.org/2000/svg" x="0px" y="0px"
	 width="1792px" height="1792px" viewBox="0 0 1792 1792" enable-background="new 0 0 1792 1792" xml:space="preserve">
<path fill="#979797" d="M1565.87,343.352c13.72,15.722,25.479,37.061,35.28,64.014c9.8,26.953,14.699,51.66,14.699,74.121v970.315
	c0,22.463-6.859,41.553-20.579,57.275c-13.72,15.725-30.381,23.586-49.979,23.586H557.45c-19.601,0-36.261-7.861-49.98-23.586
	c-13.72-15.723-20.58-34.813-20.58-57.275V104.141c0-22.46,6.86-41.552,20.58-57.276c13.72-15.722,30.38-23.583,49.98-23.583
	h658.559c19.6,0,41.161,5.615,64.682,16.845c23.519,11.231,42.14,24.708,55.859,40.43L1565.87,343.352z M1239.53,137.833v316.701
	h276.361c-4.901-16.284-10.291-27.796-16.17-34.534l-230.055-263.636C1263.784,149.625,1253.74,143.448,1239.53,137.833z
	 M1521.771,1424.849V562.346h-305.762c-19.599,0-36.26-7.861-49.979-23.584s-20.579-34.814-20.579-57.276V131.095H580.97v1293.754
	H1521.771z M769.13,697.113c0-7.861,2.206-14.32,6.615-19.373c4.41-5.054,10.044-7.582,16.905-7.582h517.441
	c6.859,0,12.493,2.527,16.904,7.582c4.409,5.053,6.614,11.511,6.614,19.373v53.906c0,7.861-2.205,14.318-6.614,19.374
	c-4.411,5.053-10.045,7.58-16.904,7.58H792.65c-6.86,0-12.495-2.527-16.905-7.58c-4.41-5.055-6.615-11.512-6.615-19.374V697.113z
	 M1310.091,885.784c6.859,0,12.493,2.529,16.904,7.581c4.409,5.053,6.614,11.511,6.614,19.373v53.907
	c0,7.861-2.205,14.319-6.614,19.373c-4.411,5.053-10.045,7.581-16.904,7.581H792.65c-6.86,0-12.495-2.528-16.905-7.581
	c-4.41-5.054-6.615-11.512-6.615-19.373v-53.907c0-7.861,2.206-14.319,6.615-19.373c4.41-5.052,10.044-7.581,16.905-7.581H1310.091z
	 M1310.091,1101.41c6.859,0,12.493,2.527,16.904,7.58c4.409,5.055,6.614,11.513,6.614,19.375v53.904
	c0,7.861-2.205,14.319-6.614,19.372c-4.411,5.055-10.045,7.581-16.904,7.581H792.65c-6.86,0-12.495-2.526-16.905-7.581
	c-4.41-5.053-6.615-11.511-6.615-19.372v-53.904c0-7.862,2.206-14.32,6.615-19.375c4.41-5.053,10.044-7.58,16.905-7.58H1310.091z"/>
<path fill="#d8a470" d="M721.664,1433.633c-20.461-150.164,641.578,34.125,634.712-95.579
	c0-54.585-573.261-232.075-778.011-279.797c-61.452-13.663-443.658-81.913-443.658-81.913
	c-13.63,6.798-88.711,225.212-95.543,354.913c34.125,20.462,498.212,457.223,682.5,443.626
	c184.289-13.664,969.164-245.741,948.703-320.789C1629.376,1310.729,742.126,1597.392,721.664,1433.633z"/>
<path fill="#fedba8" d="M155.202,1331.257c-20.495-13.663-34.125-27.326-47.789-34.125
	c6.832-81.913,40.957-191.153,61.418-245.74c122.87,20.462,348.082,61.452,389.005,68.25
	c177.49,40.99,641.577,156.962,662.039,204.75c34.125,75.116-566.462-129.635-552.799,116.04
	c13.663,238.875,846.261-40.924,866.789,34.125c13.597,47.787-689.366,245.673-819.001,238.875
	C578.365,1699.767,264.376,1426.767,155.202,1331.257z"/>
<path fill="#eabc89" d="M728.462,1638.383c-54.586-6.866-191.086-68.25-518.673-354.914l-20.461-20.462
	c6.798-47.788,20.461-95.576,34.125-143.365c143.298,27.327,293.461,54.587,320.788,61.452
	c102.375,27.26,184.222,47.788,259.337,61.385c-68.25,6.865-122.837,27.327-156.962,68.25
	c-20.528,20.528-47.788,61.45-40.99,129.703c6.865,75.048,54.586,163.826,273,163.826h61.451
	C844.501,1624.719,769.452,1638.383,728.462,1638.383z"/>
</svg>
