<svg version="1.1" id="Layer_1" xmlns="http://www.w3.org/2000/svg" x="0px" y="0px"
	 width="1792px" height="1792px" viewBox="0 0 1792 1792" enable-background="new 0 0 1792 1792" xml:space="preserve">
<path fill="#979797" d="M1728,608c0,8.667-3.167,16.167-9.5,22.5c-6.334,6.333-13.834,9.5-22.5,9.5h-96v128h96c8.666,0,16.166,3.167,22.5,9.5
	c6.333,6.333,9.5,13.833,9.5,22.5v192c0,8.667-3.167,16.167-9.5,22.5c-6.334,6.333-13.834,9.5-22.5,9.5h-96v128h96
	c8.666,0,16.166,3.167,22.5,9.5c6.333,6.333,9.5,13.833,9.5,22.5v192c0,8.667-3.167,16.167-9.5,22.5
	c-6.334,6.333-13.834,9.5-22.5,9.5h-96v224c0,44-15.667,81.667-47,113c-31.334,31.333-69,47-113,47H224c-44,0-81.667-15.667-113-47
	c-31.334-31.333-47-69-47-113V160c0-44,15.666-81.667,47-113c31.333-31.333,69-47,113-47h1216c44,0,81.666,15.667,113,47
	c31.333,31.333,47,69,47,113v224h96c8.666,0,16.166,3.167,22.5,9.5c6.333,6.333,9.5,13.833,9.5,22.5V608z M1472,1632V160
	c0-8.667-3.167-16.167-9.5-22.5c-6.334-6.333-13.834-9.5-22.5-9.5H224c-8.667,0-16.167,3.167-22.5,9.5
	c-6.334,6.333-9.5,13.833-9.5,22.5v1472c0,8.667,3.166,16.167,9.5,22.5c6.333,6.333,13.833,9.5,22.5,9.5h1216
	c8.666,0,16.166-3.167,22.5-9.5C1468.833,1648.167,1472,1640.667,1472,1632z"/>
<g>
	<path fill="#979797" d="M512.813,572.738h162.434l207.362,580.614l-149.474,24.192l-44.064-129.603H483.436l-39.744,123.554H298.539
		L512.813,572.738z M518.861,932.165h133.921l-66.529-207.362L518.861,932.165z"/>
	<path fill="#979797" d="M1174.635,1171.495l-8.641-52.704c-34.56,36.288-75.169,61.344-133.06,61.344c-67.391,0-114.911-40.606-114.911-117.504
		c0-99.361,76.032-146.019,241.922-160.706v-7.776c0-37.153-20.736-53.568-63.937-53.568c-47.521,0-91.583,12.096-136.513,31.968
		l-15.553-98.497c48.385-19.872,102.818-32.833,171.938-32.833c116.641,0,174.53,38.881,174.53,146.881v283.395H1174.635z
		 M1159.946,964.999c-88.994,13.823-113.184,43.2-113.184,80.351c0,26.785,16.417,41.473,41.471,41.473
		c24.193,0,48.385-11.231,71.713-31.968V964.999z"/>
</g>
</svg>
