<svg version="1.1" id="Layer_1" xmlns="http://www.w3.org/2000/svg" x="0px" y="0px"
	 width="24px" height="24px" viewBox="0 0 24 24" enable-background="new 0 0 24 24" xml:space="preserve">
<path fill="#979797" d="M5,10h1v4H5V10z"/>
<path fill="#979797" d="M18,5h-7v1h7v3h1V5"/>
<path fill="#979797" d="M10,14H1c-0.6,0-1,0.4-1,1v9h11v-9C11,14.4,10.6,14,10,14z"/>
<path fill="#EAEAEA" d="M1,17h9v6H1V17z"/>
<path fill="#D3D3D3" d="M2,18h7v4H2V18z"/>
<path fill="#D3D3D3" d="M1,15h9v1H1V15z"/>
<path fill="#979797" d="M23,9h-9c-0.6,0-1,0.4-1,1v9h11v-9C24,9.4,23.6,9,23,9z"/>
<path fill="#EAEAEA" d="M14,12h9v6h-9V12z"/>
<path fill="#D3D3D3" d="M15,13h7v4h-7V13z"/>
<path fill="#D3D3D3" d="M14,10h9v1h-9V10z"/>
<path fill="#979797" d="M10,0H1C0.4,0,0,0.4,0,1v9h11V1C11,0.4,10.6,0,10,0z"/>
<path fill="#EAEAEA" d="M1,3h9v6H1V3z"/>
<path fill="#D3D3D3" d="M2,4h7v4H2V4z"/>
<path fill="#D3D3D3" d="M1,1h9v1H1V1z"/>
</svg>
