<svg version="1.1" id="Layer_1" xmlns="http://www.w3.org/2000/svg" x="0px" y="0px"
	 width="24px" height="24px" viewBox="0 0 24 24" enable-background="new 0 0 24 24" xml:space="preserve">
<path fill="#979797" d="M3,19.2l-3,1.6V24h16v-0.4c0-0.5-0.5-1.199-1-1.5L9,19c-0.5-0.3-0.6-0.8-0.3-1.2c0,0,1.6-2,1.6-4.2
	C10.4,10.5,8.4,8,6,8s-4.4,2.6-4.4,5.7c0,2.1,1.6,4.2,1.6,4.2C3.6,18.3,3.5,18.9,3,19.2z"/>
<path fill="#E2E2E2" d="M1,23v-1.7L3.5,20c0.5-0.3,0.8-0.7,1-1.2c0.1-0.5,0-1.1-0.4-1.5c0,0-1.4-1.8-1.4-3.6C2.6,11.1,4.2,9,6,9
	s3.4,2.1,3.4,4.7c0,1.7-1.4,3.5-1.4,3.6c-0.3,0.4-0.5,1-0.4,1.5s0.5,1,1,1.2l5.9,3H1z"/>
<path fill="#FFFFFF" d="M2,22l1.9-1.1C4.7,20.5,5.2,19.8,5.4,19c0.2-0.8,0-1.7-0.6-2.3c-0.3-0.4-1.2-1.8-1.2-3c0-2,1.1-3.7,2.4-3.7
	s2.4,1.7,2.4,3.7c0,1.1-0.9,2.5-1.2,3c-0.5,0.7-0.7,1.5-0.5,2.3c0.2,0.8,0.7,1.5,1.5,1.9l2.2,1.1H2z"/>
<path fill="#979797" d="M24,24v-3.4l-3-1.5c-0.5-0.3-0.6-0.8-0.3-1.199c0,0,1.6-2,1.6-4.199C22.3,10.5,20.4,8,17.9,8
	c-2.4,0-4.4,2.6-4.4,5.7c0,2.1,1.6,4.2,1.6,4.2c0.301,0.398,0.2,1-0.3,1.3l-6,3.2c-0.5,0.3-1,0.898-1,1.5V24H24z"/>
<path fill="#C4C4C4" d="M9.8,23l5.7-3c0.5-0.3,0.8-0.7,1-1.2c0.1-0.5,0-1.1-0.4-1.5c0,0-1.398-1.8-1.398-3.6
	c0-2.6,1.5-4.7,3.398-4.7c1.9,0,3.4,2.1,3.4,4.7c0,1.8-1.4,3.6-1.4,3.6c-0.3,0.4-0.5,1-0.398,1.5c0.1,0.5,0.5,1,1,1.2l2.398,1.2V23
	H9.8z"/>
<path fill="#FFFFFF" d="M13.9,22l2.1-1.1c0.8-0.4,1.3-1.102,1.5-1.9s0-1.7-0.6-2.3c-0.301-0.4-1.2-1.8-1.2-3c0-2,1.1-3.7,2.399-3.7
	c1.301,0,2.399,1.7,2.399,3.7c0,1.2-0.899,2.5-1.2,3c-0.5,0.7-0.699,1.5-0.6,2.3c0.199,0.8,0.699,1.5,1.5,1.9l1.898,1V22H13.9z"/>
<path fill="#979797" d="M12.5,10.4c1.4-1.1,2.4-2.6,2.4-4.3c0.1-3.3-3.2-6-7.3-6.1C3.4-0.1,0.1,2.5,0,5.8c-0.1,3.3,3.2,6,7.3,6.1
	c1,0,2-0.1,2.9-0.4c0.8,1,2.8,1.4,2.8,1.4S12.2,11.7,12.5,10.4z"/>
<path fill="#E2E2E2" d="M11.4,11.2c-0.2-0.1-0.3-0.2-0.4-0.3l-0.4-0.6l-0.7,0.2c-0.8,0.2-1.6,0.4-2.4,0.4H7.4C3.8,10.8,1,8.6,1,5.8
	C1,3.2,3.9,1,7.4,1h0.2c1.8,0,3.4,0.6,4.6,1.6c1.1,1,1.8,2.2,1.7,3.5c0,1.3-0.7,2.6-2,3.5l-0.3,0.2l-0.1,0.4
	C11.4,10.5,11.4,10.9,11.4,11.2z"/>
<path fill="#B2B2B2" d="M7.4,9.9C4.4,9.9,2,8,2,5.9S4.5,2,7.4,2h0.1c1.5,0,2.9,0.5,4,1.4c0.9,0.8,1.4,1.7,1.4,2.7S12.3,8.1,11.3,8.8
	l-0.6,0.4v0.1L9.6,9.6C9,9.8,8.2,9.9,7.5,9.9H7.4z"/>
<path fill="#FFFFFF" d="M5.5,4.5h1.9V6c0,0.5-0.1,1-0.3,1.3C6.9,7.6,6.5,7.9,5.9,8.1L5.5,7.3C5.9,7.2,6.1,7,6.2,6.9
	c0.1-0.2,0.2-0.3,0.2-0.6H5.5V4.5z M7.7,4.5h1.9V6c0,0.5-0.1,1-0.3,1.3C9.1,7.6,8.7,7.9,8.2,8.1L7.7,7.3C8.1,7.2,8.3,7,8.4,6.9
	c0.1-0.2,0.2-0.3,0.2-0.6H7.7V4.5z"/>
</svg>
