<!DOCTYPE svg PUBLIC "-//W3C//DTD SVG 1.1//EN" "http://www.w3.org/Graphics/SVG/1.1/DTD/svg11.dtd" [
	<!ENTITY ns_flows "http://ns.adobe.com/Flows/1.0/">
]><svg xmlns="http://www.w3.org/2000/svg" width="24" height="24" viewBox="-4.2 -0.3 24 24" preserveAspectRatio="xMinYMid meet" overflow="visible"><linearGradient id="a" gradientUnits="userSpaceOnUse" x1="7.824" x2="7.824" y2="23.326"><stop offset="0" stop-color="#76A1F0"/><stop offset="1" stop-color="#6B90D5"/></linearGradient><path d="M2.4 8.4C1.1 8.4 0 7.5 0 6.1 0 3.3 2.8 0 7.7 0c3.3 0 7.9 2.2 7.9 6 0 2-1.2 3.5-3.6 4.4-3.3 1.2-1.4 3.7-4.5 3.7-1.3 0-2.1-.8-2.1-2.1 0-2.7 2.8-4.2 2.8-6.9 0-.7-.3-1.6-1.1-1.6-.9 0-1 .9-1 1.5-.3 2.1-1.6 3.4-3.7 3.4zm4.9 14.9c-2 0-3.6-1.6-3.6-3.6s1.6-3.6 3.6-3.6 3.6 1.6 3.6 3.6c-.1 2-1.7 3.6-3.6 3.6z" fill="url(#a)"/><linearGradient id="b" gradientUnits="userSpaceOnUse" x1="7.824" y1="1" x2="7.824" y2="22.326"><stop offset="0" stop-color="#BBE0F7"/><stop offset="1" stop-color="#82B4FB"/></linearGradient><path d="M7.3 22.3c-1.4 0-2.6-1.1-2.6-2.6 0-1.4 1.1-2.6 2.6-2.6s2.6 1.1 2.6 2.6c-.1 1.5-1.2 2.6-2.6 2.6zm.3-9.2c-.8 0-1.1-.4-1.1-1.1 0-1.1.6-1.9 1.2-2.9.7-1.1 1.5-2.3 1.5-4 0-1.3-.7-2.6-2.1-2.6-1.8 0-2 1.7-2 2.4-.2 1.1-.8 2.5-2.7 2.5-.8 0-1.4-.5-1.4-1.3C1 4 3.1 1 7.7 1c2.9 0 6.9 1.9 6.9 5 0 1.6-1 2.7-2.9 3.4-2 .8-2.5 2-2.9 2.8-.3.8-.3.9-1.2.9z" fill="url(#b)"/><linearGradient id="c" gradientUnits="userSpaceOnUse" x1="7.824" y1="2.099" x2="7.824" y2="21.326"><stop offset="0" stop-color="#95BFF8"/><stop offset=".557" stop-color="#84ADEF"/><stop offset="1" stop-color="#7CA4EB"/></linearGradient><path d="M7.3 21.3c-.9 0-1.6-.7-1.6-1.6s.7-1.6 1.6-1.6c.9 0 1.6.7 1.6 1.6s-.7 1.6-1.6 1.6zm.3-9.2h-.1V12c0-.8.5-1.5 1-2.3.8-1.2 1.7-2.6 1.7-4.6 0-1.3-.5-2.3-1.3-3 2.2.4 4.8 1.8 4.8 3.9 0 .4 0 1.6-2.3 2.5-2.4.9-3.1 2.5-3.5 3.4 0 .1-.1.2-.1.2h-.2zM2.4 6.4c-.4 0-.4-.2-.4-.3 0-1.1.9-2.7 2.7-3.5-.3.5-.6 1.2-.7 2.2-.1 1.4-.9 1.6-1.6 1.6z" fill="url(#c)"/></svg>