<?xml version="1.0" encoding="utf-8"?>
<svg xmlns="http://www.w3.org/2000/svg" height="48" width="48" viewBox="0 0 48 48">
  <g>
    <ellipse cy="24" cx="24" ry="24" rx="24" fill="#0066CC" />
    <path id="path1" transform="rotate(0,24,24) translate(12.625,11) scale(0.8125,0.8125)  " fill="#FFFFFF" d="M26,22.617545L25.856231,22.72726C23.420451,24.535196 19.112828,25.688011 14,25.688011 8.8871708,25.688011 4.5795498,24.535196 2.1437683,22.727261L2,22.617545 2,25.465996C2,27.609997 6.9279995,29.999998 14,29.999998 21.072,29.999998 26,27.609997 26,25.465996z M2,16.306508L2,19.154008C2,21.299009 6.9279995,23.688011 14,23.688011 21.072,23.688011 26,21.299009 26,19.154008L26,16.306508 25.856231,16.416223C23.420451,18.224159 19.112828,19.376974 14,19.376974 8.8871708,19.376974 4.5795498,18.224159 2.1437683,16.416223z M2,9.9975402L2,12.842971C2,14.986972 6.9279995,17.376973 14,17.376973 21.072,17.376973 26,14.986972 26,12.842971L26,9.9975405 25.856231,10.107255C23.420451,11.915192 19.112828,13.068007 14,13.068007 8.8871708,13.068007 4.5795498,11.915192 2.1437683,10.107255z M14,2.000001C6.9279995,2.000001 2,4.3900023 2,6.5340033 2,8.6790045 6.9279995,11.068006 14,11.068006 21.072,11.068006 26,8.6790045 26,6.5340033 26,4.3900023 21.072,2.000001 14,2.000001z M14,0C21.981,0 28,2.8090014 28,6.5340033 28,6.5922066 27.998531,6.6501861 27.995607,6.7079349L27.992941,6.7430058 28,6.7430058 28,12.842971 28,19.154008 28,25.465996 28,25.578005 27.997171,25.578005 27.995607,25.639927C27.811427,29.278093 21.856297,32 14,32 6.1437016,32 0.18857193,29.278093 0.0043926239,25.639927L0.0032596588,25.59503 0,25.59503 0,25.465996 0,19.154008 0,12.842971 0,6.5340033 0,6.2939935 0.0094165802,6.2939935 0.01750946,6.1875257C0.37810326,2.6361818,6.2684059,0,14,0z" />
  </g>
</svg>