<svg id="Layer_1" data-name="Layer 1" xmlns="http://www.w3.org/2000/svg" width="48" height="48" viewBox="0 0 48 48"><defs><style>.cls-1{fill:#2a5699;}.cls-2{fill:#fff;}</style></defs><title>48px_sourcefile_20170718_multi</title><circle class="cls-1" cx="24.11" cy="24" r="24"/><path id="path1" class="cls-2" d="M23.34,32.91c.58,0,.94.28.94.79s-.39.84-1,.84a1.34,1.34,0,0,1-.41,0V32.93Zm-6.56-6.28H31.37v1.76H16.78ZM15,11.59v18.6H33.17v-13H27.43V11.59ZM13,9.38H28.61l6.66,6.51V38.63H13Zm3.83,14.06H31.37V25.2H16.78Zm0-3.43H31.41v1.76H16.82Z"/><path class="cls-1" d="M18,32h1.28a3.79,3.79,0,0,1,.86.09,1.4,1.4,0,0,1,.64.34,2.44,2.44,0,0,1,.75,2,3.4,3.4,0,0,1-.08.79,3.87,3.87,0,0,1-.22.66,1.82,1.82,0,0,1-.41.53,1.71,1.71,0,0,1-.43.28,2.43,2.43,0,0,1-.49.15,2.94,2.94,0,0,1-.6,0H18a.73.73,0,0,1-.39-.07.4.4,0,0,1-.17-.22,1.93,1.93,0,0,1,0-.37V32.63a.62.62,0,0,1,.15-.45A.54.54,0,0,1,18,32Zm.38.79v3.28h.75a2,2,0,0,0,.38,0,1.56,1.56,0,0,0,.28-.07,1.2,1.2,0,0,0,.26-.15,1.81,1.81,0,0,0,.49-1.43,2.06,2.06,0,0,0-.22-1.07.92.92,0,0,0-.53-.45,3,3,0,0,0-.77-.09Z"/><path class="cls-1" d="M24.47,31.93a2.54,2.54,0,0,1,1.29.3,2,2,0,0,1,.82.86,2.88,2.88,0,0,1,.28,1.31,3.38,3.38,0,0,1-.15,1,2.06,2.06,0,0,1-.45.79,1.9,1.9,0,0,1-.75.51,2.87,2.87,0,0,1-1,.17,2.5,2.5,0,0,1-1-.19,2.16,2.16,0,0,1-.75-.53,2,2,0,0,1-.45-.81,3.57,3.57,0,0,1-.15-1,2.87,2.87,0,0,1,.17-1,2.2,2.2,0,0,1,.47-.79,2.55,2.55,0,0,1,.73-.51A2.21,2.21,0,0,1,24.47,31.93Zm1.39,2.47a2.3,2.3,0,0,0-.17-.92,1.26,1.26,0,0,0-.49-.58,1.39,1.39,0,0,0-1.27-.09,1.43,1.43,0,0,0-.43.32,1.35,1.35,0,0,0-.28.54,2.3,2.3,0,0,0-.11.73,2.33,2.33,0,0,0,.11.75,1.37,1.37,0,0,0,.3.54,1.18,1.18,0,0,0,.43.32,1.65,1.65,0,0,0,.54.11,1.29,1.29,0,0,0,.69-.19,1.41,1.41,0,0,0,.51-.58A2.08,2.08,0,0,0,25.86,34.41Z"/><path class="cls-1" d="M31.8,35.32a1.38,1.38,0,0,1-.11.51,1.54,1.54,0,0,1-.36.53,1.79,1.79,0,0,1-.62.41,2.46,2.46,0,0,1-.88.17,2.62,2.62,0,0,1-.69-.07,2.52,2.52,0,0,1-.56-.22,1.9,1.9,0,0,1-.47-.41,1.78,1.78,0,0,1-.32-.51,5.64,5.64,0,0,1-.21-.6,2.57,2.57,0,0,1-.07-.68,3.08,3.08,0,0,1,.17-1.05,2.24,2.24,0,0,1,.49-.79,1.9,1.9,0,0,1,.75-.51,2.47,2.47,0,0,1,.9-.17,2.4,2.4,0,0,1,1.05.22,1.67,1.67,0,0,1,.69.58,1.24,1.24,0,0,1,.24.66.46.46,0,0,1-.11.3.34.34,0,0,1-.28.13.39.39,0,0,1-.28-.09,1.6,1.6,0,0,1-.21-.3,1.66,1.66,0,0,0-.45-.54,1,1,0,0,0-.64-.17,1.15,1.15,0,0,0-1,.45,2.12,2.12,0,0,0-.36,1.29,2.65,2.65,0,0,0,.15.94,1.23,1.23,0,0,0,.45.56,1.14,1.14,0,0,0,.68.19,1.23,1.23,0,0,0,.71-.21,1.19,1.19,0,0,0,.43-.62,1.26,1.26,0,0,1,.15-.32c.06-.09.17-.11.3-.11a.37.37,0,0,1,.3.13A.43.43,0,0,1,31.8,35.32Z"/><path class="cls-2" d="M20.78,17.94,20,15l-.79,2.91a3.51,3.51,0,0,1-.15.47.62.62,0,0,1-.19.26.54.54,0,0,1-.36.11.51.51,0,0,1-.3-.08.6.6,0,0,1-.19-.19,1.11,1.11,0,0,1-.11-.3c0-.11-.06-.22-.08-.32L17,14.66a1.58,1.58,0,0,1-.08-.43.45.45,0,0,1,.45-.45.37.37,0,0,1,.36.17,2.62,2.62,0,0,1,.17.51l.64,2.81.71-2.64a2.78,2.78,0,0,1,.15-.47,1,1,0,0,1,.21-.28.52.52,0,0,1,.39-.11.53.53,0,0,1,.38.11.85.85,0,0,1,.19.26c0,.09.08.24.15.47l.71,2.64.64-2.81a2,2,0,0,1,.09-.34.78.78,0,0,1,.15-.22.48.48,0,0,1,.62,0,.49.49,0,0,1,.13.32,1.7,1.7,0,0,1-.08.43l-.81,3.24c-.06.22-.09.38-.13.49a.53.53,0,0,1-.19.26.56.56,0,0,1-.37.11.54.54,0,0,1-.36-.11.57.57,0,0,1-.19-.24A2.62,2.62,0,0,1,20.78,17.94Z"/></svg>