<?xml version="1.0" encoding="utf-8"?>
<svg xmlns="http://www.w3.org/2000/svg" height="48" width="48" viewBox="0 0 48 48">
  <g>
    <ellipse cy="24" cx="24" ry="24" rx="24" fill="#0066CC" />
    <path id="path1" transform="rotate(0,24,24) translate(14.0846556425095,11) scale(0.8125,0.8125)  " fill="#FFFFFF" d="M12.236001,25.650002C12.874002,25.650002 13.264994,25.950996 13.264994,26.514 13.264994,27.106995 12.844004,27.445 12.152993,27.445 11.965005,27.445 11.815011,27.436996 11.703012,27.406998L11.703012,25.695C11.799996,25.671997,11.979989,25.650002,12.236001,25.650002z M6.7269945,24.980995L6.7269945,30.043999 9.7850104,30.043999 9.7850104,29.285995 7.6510062,29.285995 7.6510062,27.797997 9.5589972,27.797997 9.5589972,27.046997 7.6510062,27.046997 7.6510062,25.739998 9.6720038,25.739998 9.6720038,24.980995z M12.198007,24.943001C11.57499,24.943001,11.117012,24.988998,10.785988,25.048996L10.785988,30.043999 11.703012,30.043999 11.703012,28.136002C11.823007,28.157997 11.979989,28.166 12.152993,28.166 12.806986,28.166 13.384989,27.992996 13.753,27.625 14.038004,27.354996 14.189006,26.956001 14.189006,26.475998 14.189006,26.002998 13.992991,25.604996 13.693003,25.356995 13.370005,25.085999 12.874002,24.943001 12.198007,24.943001z M16.819989,24.897995C15.72401,24.897995 15.033,25.528999 15.033,26.355995 15.033,27.084 15.56599,27.528 16.400006,27.827995 17.046002,28.060997 17.301007,28.285995 17.301007,28.669998 17.301007,29.083 16.97099,29.360001 16.376996,29.360001 15.904003,29.360001 15.453014,29.209999 15.152995,29.036995L14.949992,29.804001C15.228007,29.969002 15.784008,30.118996 16.316998,30.118996 17.624005,30.118996 18.240003,29.413002 18.240003,28.601997 18.240003,27.873001 17.811994,27.43 16.932996,27.099998 16.257001,26.835999 15.964001,26.655998 15.964001,26.265999 15.964001,25.973 16.220014,25.656998 16.806012,25.656998 17.279004,25.656998 17.632001,25.799995 17.811994,25.897995L18.037,25.153999C17.775006,25.018997,17.369,24.897995,16.819989,24.897995z M18.999007,19.320999L18.999007,19.775002 19.453017,19.775002 19.453017,19.320999z M8.3339901,17.847L8.3339901,18.300995 8.7880011,18.300995 8.7880011,17.847z M19.290999,13.720001L19.290999,14.586998 20.158004,14.586998 20.158004,13.720001z M4.2500029,13.720001L4.2500029,14.586998 5.1170082,14.586998 5.1170082,13.720001z M9.5869818,11.919998L9.5869818,12.786995 10.453987,12.786995 10.453987,11.919998z M7.7519894,10.484001C8.7280035,10.497002,9.4369879,10.970001,9.9709845,11.605995L10.767982,11.605995 10.767982,12.889C10.872993,13.109001 10.970009,13.327995 11.053993,13.539001 11.224983,13.971001 11.371986,14.434998 11.513986,14.884995 11.910012,16.136002 12.285989,17.328995 13.172007,17.944L14.549998,17.944 14.549998,18.368996C14.604014,18.370995 14.654002,18.376999 14.708995,18.376999 15.690014,18.363998 17.284009,17.442001 18.337995,16.278 18.763015,15.808998 19.061019,15.340996 19.235,14.900002L18.978011,14.900002 18.978011,13.406998 20.471999,13.406998 20.471999,14.900002 19.891006,14.900002C19.707015,15.484001 19.345992,16.098 18.802016,16.698997 17.842999,17.756996 16.552014,18.581001 15.473003,18.876999L18.686017,19.316002 18.686017,19.007996 19.766006,19.007996 19.766006,20.087997 18.686017,20.087997 18.686017,19.631996 14.549998,19.067001 14.549998,19.437996 13.056009,19.437996 13.056009,18.862999 9.1009894,18.322998 9.1009894,18.613998 8.0199948,18.613998 8.0199948,17.533997 9.1009894,17.533997 9.1009894,18.006996 12.902994,18.526001C11.785989,17.804001 11.331001,16.378998 10.917,15.073997 10.777992,14.633995 10.63401,14.181 10.470985,13.769997 10.374001,13.525002 10.273994,13.306999 10.172005,13.099998L9.2739935,13.099998 9.2739935,11.767998C8.6860104,11.191002 8.0000057,11.002998 7.1519828,11.167 6.3859911,11.314995 5.647007,11.824997 5.2699928,12.466995 5.1349831,12.696999 5.0119968,13.022995 5.0069919,13.406998L5.4310036,13.406998 5.4310036,14.900002 3.9369841,14.900002 3.9369841,13.406998 4.3849826,13.406998C4.3859897,12.977997 4.4929843,12.552002 4.7299838,12.148994 5.2019997,11.347 6.0839887,10.735001 7.0329943,10.552002 7.2879996,10.501999 7.5269828,10.480995 7.7519894,10.484001z M2.2839985,2.4179993L2.2839985,22.778 22.124009,22.778 22.124009,8.5029984 15.837994,8.5029984 15.837994,2.4179993z M0,0L15.837994,0 17.129987,0 24.407001,7.125 24.407001,32 0,32z" />
  </g>
</svg>