<svg id="Layer_1" data-name="Layer 1" xmlns="http://www.w3.org/2000/svg" width="48" height="48" viewBox="0 0 48 48"><defs><style>.cls-1{fill:#06c;}.cls-2{fill:#fff;}</style></defs><title>48px_sourcefile_20170718_multi</title><circle class="cls-1" cx="24.11" cy="24" r="24"/><path id="path1" class="cls-2" d="M22.66,33c.58,0,.94.28.94.79s-.38.85-1,.85a1.71,1.71,0,0,1-.41,0V33A2.29,2.29,0,0,1,22.66,33Zm-3.47-.87v3.22c0,.87-.32,1.11-.84,1.11a2,2,0,0,1-.57-.09l-.11.74a2.47,2.47,0,0,0,.77.12c1,0,1.67-.46,1.67-1.85V32.1Zm3.51,0a8,8,0,0,0-1.4.1v5h.91V35.23a2.76,2.76,0,0,0,.45,0,2.22,2.22,0,0,0,1.59-.54,1.52,1.52,0,0,0,.43-1.14,1.42,1.42,0,0,0-.49-1.11A2.27,2.27,0,0,0,22.7,32.06Zm5.48,0a2.55,2.55,0,0,0-2.79,2.61,2.49,2.49,0,0,0,.7,1.85,2.71,2.71,0,0,0,2,.67,5,5,0,0,0,1.62-.28V34.35H27.9v.72h.89v1.25a1.78,1.78,0,0,1-.69.1,1.66,1.66,0,0,1-1.74-1.82,1.68,1.68,0,0,1,1.82-1.8,2.71,2.71,0,0,1,1.14.22l.2-.74A3.32,3.32,0,0,0,28.18,32ZM18.09,19.73v8.11h4.73a11,11,0,0,0,1.37-.73c.65-.3,2.06-.84,2.22-.86s.53-.13.86-.23c-.27-1.34-2.17-2.3-3-3.39a6.91,6.91,0,0,0-1.17,1.45,3.23,3.23,0,0,1,.67-1.53,3.43,3.43,0,0,0-1.54.09c-1.06.28.51-.64,1.56-.69a9.48,9.48,0,0,0-1-1.12,2.28,2.28,0,0,1,1.17.78c.06-.44.23-1.11.65-1.27s-.29.07-.17,1.36l.12,0c1.09-.35,3.61,1.17,2,.68-1.3-.4-1.82-.15-2,0,1.2,1,3.53,1.88,4.4,3.28a11.17,11.17,0,0,1,1.39-.25V19.73ZM17,18.61H31.55V29H17Zm-1.92-7V30.2H33.18v-13H27.44V11.59ZM13,9.38H28.62l6.65,6.51V38.63H13Z"/></svg>