<svg id="Layer_1" data-name="Layer 1" xmlns="http://www.w3.org/2000/svg" width="48" height="48" viewBox="0 0 48 48"><defs><style>.cls-1{fill:#06c;}.cls-2{fill:#fff;}</style></defs><title>48px_sourcefile_20170718_multi</title><circle class="cls-1" cx="24" cy="24" r="24"/><path id="path1" class="cls-2" d="M25.29,32.91c.58,0,.94.28.94.79s-.38.85-1,.85a1.7,1.7,0,0,1-.41,0V32.95A2.29,2.29,0,0,1,25.29,32.91Zm3.91-.52a2.41,2.41,0,0,0-1.28.34l.19.61a1.8,1.8,0,0,1,.91-.28c.49,0,.71.25.71.56s-.49.63-.89.63h-.38v.62h.39c.51,0,1,.23,1,.76,0,.35-.25.71-.9.71a2.2,2.2,0,0,1-1-.28l-.19.64A2.43,2.43,0,0,0,29,37c1.11,0,1.74-.6,1.74-1.35a1.13,1.13,0,0,0-1-1.11h0a1.09,1.09,0,0,0,.82-1C30.59,32.89,30.12,32.38,29.2,32.38ZM18.3,32.3,18,36.92h.79l.1-1.86c0-.63.06-1.37.08-2h0c.12.58.29,1.21.47,1.8l.62,2h.65l.67-2c.21-.58.4-1.21.55-1.77h0c0,.62,0,1.35.05,1.94l.09,1.89h.82l-.27-4.63h-1.1l-.64,1.85c-.18.54-.34,1.11-.46,1.61h0c-.12-.51-.26-1.06-.43-1.61l-.6-1.86Zm7,0a7.34,7.34,0,0,0-1.29.1v4.57h.84V35.18a2.54,2.54,0,0,0,.41,0,2,2,0,0,0,1.46-.49,1.4,1.4,0,0,0,.4-1.05,1.31,1.31,0,0,0-.45-1A2.09,2.09,0,0,0,25.26,32.26ZM21.92,21.69l.36,2.71a1.55,1.55,0,0,0,.85-1.6A1.3,1.3,0,0,0,21.92,21.69Zm-.54-2.16c-.94.75-2,1.69-2,3a2.1,2.1,0,0,0,2.26,2l.32-.05c.07,0,0-.1,0-.16l0-.2-.1-.8-.2-1.61a1.17,1.17,0,0,0-.86,1.39.91.91,0,0,0,.21.35l.15.14c.06,0,.15.08.2.13a.08.08,0,0,1,0,.14c-.06,0-.14,0-.19-.06a1.51,1.51,0,0,1-.37-.28,1.61,1.61,0,0,1-.33-1.71,1.9,1.9,0,0,1,.58-.75,1.67,1.67,0,0,1,.38-.22l.1,0c.06,0,0-.06,0-.11l0-.35Zm1-4.37-.13,0a1.17,1.17,0,0,0-.57.63A3.58,3.58,0,0,0,21.45,18a3.22,3.22,0,0,0,1.39-2.28C22.85,15.45,22.67,15.14,22.39,15.16Zm0-1.24c.12,0,.21.16.26.24a3.18,3.18,0,0,1,.25.62,4.94,4.94,0,0,1,.25,1.54,3.93,3.93,0,0,1-.55,1.84,4.7,4.7,0,0,1-.94,1.15c-.06.05,0,.2,0,.28l0,.35.11.8a1.67,1.67,0,0,1,1.52.67A2.11,2.11,0,0,1,23.67,23a2.15,2.15,0,0,1-1,1.39,2.88,2.88,0,0,1-.39.21l.08.64a9.14,9.14,0,0,1,.14,1.21,1.58,1.58,0,0,1-.66,1.39,1.48,1.48,0,0,1-1.57,0,1.27,1.27,0,0,1-.59-1.49.77.77,0,0,1,1.34-.22.83.83,0,0,1,0,1,.69.69,0,0,1-.68.21c0,.3.46.44.7.43a1.22,1.22,0,0,0,.91-.41,1.53,1.53,0,0,0,.29-1,7.32,7.32,0,0,0-.1-.82L22,24.74a2.55,2.55,0,0,1-2.9-1.58,3.17,3.17,0,0,1-.24-1.79,3.68,3.68,0,0,1,.8-1.63A12.21,12.21,0,0,1,21,18.4l.16-.15s.05,0,0-.1l0-.15q0-.31-.07-.63a6.32,6.32,0,0,1,0-1.11,4.54,4.54,0,0,1,.39-1.43,2.41,2.41,0,0,1,.39-.62A.85.85,0,0,1,22.38,13.92Zm-7.45-2.33V30.2H33.07v-13H27.32V11.59ZM12.85,9.38H28.5l6.65,6.51V38.63H12.85Z"/></svg>