<svg id="Layer_1" data-name="Layer 1" xmlns="http://www.w3.org/2000/svg" width="48" height="48" viewBox="0 0 48 48"><defs><style>.cls-1,.cls-4{fill:#da251c;}.cls-2{fill:#fff;}.cls-3{fill:none;}.cls-4{isolation:isolate;font-size:6.75px;font-family:ArialRoundedMTBold, Arial Rounded MT Bold;}</style></defs><title>48px_sourcefile_20170718_multi</title><circle class="cls-1" cx="24.11" cy="24" r="24"/><path id="path1" class="cls-2" d="M23.34,32.91c.58,0,.94.28.94.79s-.39.84-1,.84a1.34,1.34,0,0,1-.41,0V32.93ZM15,11.59v18.6H33.17v-13H27.43V11.59ZM13,9.38H28.61l6.66,6.51V38.63H13Z"/><rect class="cls-3" x="16.82" y="31.93" width="26.06" height="8.81"/><text class="cls-4" transform="translate(16.82 36.84)">PDF</text><path id="path1-2" data-name="path1" class="cls-2" d="M19.76,24.07a3.64,3.64,0,0,0-1.65,1.2c0-.06-.09.11-.09.11l.09-.11a.78.78,0,0,1-.06.17c-.15.38.3.38.3.38C19.61,25.61,19.76,24.07,19.76,24.07ZM27,22.78a3.34,3.34,0,0,0-.37,0,3.13,3.13,0,0,0,2.59.9c.51-.08-.26-.54-.26-.54A5,5,0,0,0,27,22.78Zm-4.58-3.17a11.48,11.48,0,0,1-1.09,3.26l3.36-.54A14.24,14.24,0,0,1,22.41,19.61ZM22.48,15h0c-.06,0-.09.06-.13.15a5.69,5.69,0,0,0,.26,2.47,4.17,4.17,0,0,0,.09-2.16S22.61,15,22.48,15Zm-.43-1c.36,0,.67.73.67.73a4.16,4.16,0,0,1,.06,3.77,9,9,0,0,0,3,3.84,9,9,0,0,1,3.34.41c1.11.62.73,1.22.73,1.22-1.16,1.39-4.57-.79-4.57-.79l-4.39.79a4.19,4.19,0,0,1-2.76,2.89c-1,.15-.88-1-.88-1A4.15,4.15,0,0,1,20,23.53c.79-.9,2.06-5.12,2.06-5.12-1.29-3.11-.37-4.16-.37-4.16C21.83,14,21.94,14,22.05,13.93Z"/></svg>