<svg id="Layer_1" data-name="Layer 1" xmlns="http://www.w3.org/2000/svg" width="48" height="48" viewBox="0 0 48 48"><defs><style>.cls-1{fill:#06c;}.cls-2{fill:#fff;}</style></defs><title>48px_sourcefile_20170718_multi</title><circle class="cls-1" cx="24.09" cy="24" r="24"/><path id="path1" class="cls-2" d="M19.6,32.91c.58,0,.94.28.94.79s-.38.85-1,.85a1.69,1.69,0,0,1-.41,0V33A2.28,2.28,0,0,1,19.6,32.91Zm2.69-.61v4.63h.78V35.28c0-.76,0-1.37,0-2h0a16,16,0,0,0,.83,1.6l1.21,2H26V32.3h-.78v1.61c0,.71,0,1.3.08,1.92h0a12.74,12.74,0,0,0-.79-1.55l-1.19-2Zm-2.72,0a7.32,7.32,0,0,0-1.29.1v4.57h.84V35.19a2.42,2.42,0,0,0,.41,0A2,2,0,0,0,21,34.72a1.4,1.4,0,0,0,.4-1.05,1.31,1.31,0,0,0-.45-1A2.09,2.09,0,0,0,19.57,32.27Zm9.87,0a2.35,2.35,0,0,0-2.57,2.4,2.3,2.3,0,0,0,.65,1.7,2.49,2.49,0,0,0,1.81.62,4.59,4.59,0,0,0,1.49-.26V34.38H29.18V35H30V36.2a1.63,1.63,0,0,1-.64.1,1.53,1.53,0,0,1-1.61-1.68A1.55,1.55,0,0,1,29.43,33a2.5,2.5,0,0,1,1.05.2l.19-.68A3.06,3.06,0,0,0,29.44,32.26Zm-.87-5.86h2.22v2.22H28.57Zm-4.44,0h2.22v2.22H24.13Zm-4.44-.08h2.22v2.22H19.69ZM17.47,24.1h2.22v2.22H17.47Zm11-2.22h2.22V24.1H28.57v2.22H26.35V24.1h2.14Zm-4.44,0h2.22V24.1H24.13v2.22H21.91V24.1h2.14Zm-4.44-.08h2.22V24H19.61Zm6.66-2.22h2.22V21.8H26.27Zm-4.44,0h2.22V21.8H21.83Zm-4.44,0h2.22V21.8H17.39Zm-2.37-8V30.2H33.16v-13H27.41V11.59ZM12.94,9.38H28.59l6.65,6.51V38.63H12.94Z"/></svg>