<svg id="Layer_1" data-name="Layer 1" xmlns="http://www.w3.org/2000/svg" width="48" height="48" viewBox="0 0 48 48"><defs><style>.cls-1{fill:#d24625;}.cls-2{fill:#fff;}</style></defs><title>48px_sourcefile_20170718_multi</title><circle class="cls-1" cx="24.18" cy="24" r="24"/><path id="path1" class="cls-2" d="M24.51,32.82c.58,0,.94.28.94.79s-.38.85-1,.85a1.7,1.7,0,0,1-.41,0V32.86A2.31,2.31,0,0,1,24.51,32.82Zm-4,0c.58,0,.94.28.94.79s-.38.85-1,.85a1.69,1.69,0,0,1-.41,0V32.86A2.29,2.29,0,0,1,20.5,32.82Zm6.27-.61v.71h1.32v3.92h.84V32.92h1.33v-.71Zm-2.29,0a7.32,7.32,0,0,0-1.29.1v4.57H24V35.09a2.43,2.43,0,0,0,.41,0,2,2,0,0,0,1.46-.49,1.4,1.4,0,0,0,.4-1.05,1.31,1.31,0,0,0-.45-1A2.09,2.09,0,0,0,24.48,32.17Zm-4,0a7.32,7.32,0,0,0-1.29.1v4.57H20V35.09a2.42,2.42,0,0,0,.41,0,2,2,0,0,0,1.46-.49,1.4,1.4,0,0,0,.4-1.05,1.31,1.31,0,0,0-.45-1A2.09,2.09,0,0,0,20.47,32.17Zm6.07-5.66h5.13v1.11H26.54Zm0-2.12h5.13V25.5H26.54Zm0-2.1h5.13V23.4H26.54Zm-5.77-1.86a4.12,4.12,0,0,1,1,.1l-.92,4,3.9-1.2a4.07,4.07,0,1,1-4-2.91Zm-5.65-8.85V30.2H33.25v-13H27.5V11.59ZM13,9.38H28.69l6.65,6.51V38.63H13Z"/></svg>