<?xml version="1.0" encoding="utf-8"?>
<svg xmlns="http://www.w3.org/2000/svg" height="48" width="48" viewBox="0 0 48 48">
  <g>
    <ellipse cy="24" cx="24" ry="24" rx="24" fill="#0066CC" />
    <path id="path1" transform="rotate(0,24,24) translate(13.591873884201,11) scale(0.8125,0.8125)  " fill="#FFFFFF" d="M11.563998,15.950012L20.536015,15.950012 20.635014,18.541992 20.336003,18.541992C20.237004,18.044006 20.237004,17.744995 20.136998,17.544983 19.937993,17.245972 19.738011,17.046997 19.439,16.846985 19.140019,16.747986 18.841008,16.64801 18.342992,16.64801L16.748021,16.64801 16.748021,25.021973C16.748021,25.719971 16.84702,26.117981 16.946996,26.317993 17.146001,26.517029 17.445012,26.617004 17.944005,26.617004L18.342992,26.617004 18.342992,26.916016 13.657017,26.916016 13.657017,26.617004 14.056004,26.617004C14.55402,26.617004 14.854008,26.517029 15.053013,26.218018 15.153019,26.018982 15.252018,25.619995 15.252018,25.021973L15.252018,16.64801 13.955997,16.64801C13.458011,16.64801 13.058993,16.64801 12.860019,16.747986 12.561007,16.846985 12.360995,17.046997 12.16199,17.346008 11.963016,17.64502 11.863009,18.044006 11.763003,18.541992L11.463992,18.541992z M12.062015,2.6920166L12.062015,8.572998C12.062015,8.572998,11.963016,12.460999,7.6759967,12.161987L2.6919865,12.161987 2.6919865,28.510986C2.6919868,28.909973,2.990998,29.208984,3.3890085,29.208984L22.230992,29.208984C22.629003,29.208984,22.928014,28.909973,22.928014,28.510986L22.928014,3.3889771C22.928014,2.9910278,22.629003,2.6920166,22.230992,2.6920166z M10.866,0L22.230992,0C24.125007,0,25.620002,1.4949951,25.620002,3.3889771L25.620002,28.611023C25.620002,30.505005,24.125007,32,22.230992,32L3.3890085,32C1.4949956,31.900024,4.3499313E-08,30.405029,0,28.510986L0,11.463989 2.4920048,8.8720093 8.4729938,2.59198z" />
  </g>
</svg>