<?xml version="1.0" encoding="utf-8"?>
<svg xmlns="http://www.w3.org/2000/svg" height="48" width="48" viewBox="0 0 48 48">
  <g>
    <ellipse cy="24" cx="24" ry="24" rx="24" fill="#A2A2A2" />
    <path id="path1" transform="rotate(0,24,24) translate(14.8764382004738,11) scale(0.8125,0.8125)  " fill="#FFFFFF" d="M3.3169894,18.909973L3.3169894,20.480957 14.341993,20.480957 14.341993,18.909973z M3.3169894,12.10199L3.3169894,13.672974 19.114001,13.672974 19.114001,12.10199z M16.406999,1.1129761L21.374013,6.3989868 17.453996,6.3989868C16.875993,6.3989868,16.406999,5.9299927,16.406999,5.3519897z M2.2689838,0L14.893996,0 14.893996,5.6429443C14.893996,6.8959961,15.910995,7.9119873,17.163987,7.9119873L22.457999,7.9119873 22.457999,29.730957C22.457999,30.983948,21.442006,32,20.189015,32L2.2689838,32C1.0159922,32,4.4543413E-08,30.983948,0,29.730957L0,2.2689819C4.4543413E-08,1.0159912,1.0159922,0,2.2689838,0z" />
  </g>
</svg>