<?xml version="1.0" encoding="utf-8"?>
<!-- Generator: Adobe Illustrator 25.2.1, SVG Export Plug-In . SVG Version: 6.00 Build 0)  -->
<svg width="24px" height="24px" version="1.1" id="Layer_1" xmlns="http://www.w3.org/2000/svg" xmlns:xlink="http://www.w3.org/1999/xlink" x="0px" y="0px"
	 viewBox="0 0 74.4 74.4" style="enable-background:new 0 0 74.4 74.4;" xml:space="preserve" preserveAspectRatio="xMinYMid meet">
<path d="M68.2,26.6v-5.1l0,0c3.4,0,6.2-2.8,6.2-6.2V7.6c0-3.4-2.8-6.2-6.2-6.2h-7.7c-3.4,0-6.2,2.8-6.2,6.2v1.9H22.9
	C22.1,3.2,16.3-0.7,10,0.1C4.2,0.8,0,5.6,0,11.4l0,0c0,6.4,5.2,11.4,11.6,11.4l0,0l0,0c5.3,0,9.8-3.1,11.1-8.1h31.8v0.5
	c0,3.4,2.8,6.2,6.2,6.2H63v4.2c0,4.9-5.1,8.9-10.4,8.9H23.3c-8.6,0-15.7,6.4-15.7,14.3v4.4H7c-3.4,0-6.2,2.8-6.2,6.2v7.7
	c0,3.4,2.8,6.2,6.2,6.2h7.8c3.4,0,6.2-2.8,6.2-6.2v-1.2h30.7c1.2,6.1,7.1,9.5,13.2,8.3c5.2-1,8.6-5.7,8.6-10.9l0,0
	c0-6.2-4.6-11.2-10.8-11.2l0,0c-5.4,0-9.9,3.3-11,8.6H20.9v-1.2c0-3.4-2.8-6.2-6.2-6.2h-1.8v-3.9c0-4.9,5.1-9.6,10.3-9.6h29.3
	C61,39.9,68.2,34.5,68.2,26.6z M11.4,17.5c-3.4,0-6.2-2.8-6.2-6.1C5.2,8,8,5.2,11.3,5.2c3.4,0,6.2,2.8,6.2,6.1l0,0
	C17.6,14.9,14.8,17.5,11.4,17.5z M60.4,16.2c-0.6,0-0.9-0.4-0.9-0.9V7.6c0-0.6,0.4-0.9,0.9-0.9h7.8c0.6,0,0.9,0.4,0.9,0.9v7.7
	c0,0.6-0.4,0.9-0.9,0.9H60.4z M62.4,57.5L62.4,57.5c3.2,0,5.9,2.6,5.9,5.9c0,3.2-2.6,5.9-5.9,5.9s-5.9-2.6-5.9-5.9l0,0
	C56.5,60,59.1,57.5,62.4,57.5L62.4,57.5z M14.6,58.4c0.6,0,1,0.4,1,0.9v7.8c0,0.6-0.4,0.9-1,0.9H6.8c-0.6,0-1-0.4-1-0.9v-7.8
	c0-0.6,0.4-0.9,1-0.9H14.6z"/>
</svg>
