<svg width="24" height="24" viewBox="0 0 24 24" fill="none" xmlns="http://www.w3.org/2000/svg" preserveAspectRatio="xMinYMid meet">
<path fill-rule="evenodd" clip-rule="evenodd" d="M3.99927 5.49438C3.99927 4.66596 4.67084 3.99438 5.49927 3.99438H8.50415C9.33258 3.99438 10.0042 4.66596 10.0042 5.49438V6.50087L14.048 6.49259C14.2857 5.07478 15.5187 3.99438 17.004 3.99438C18.6595 3.99438 20.0015 5.33638 20.0015 6.99182C20.0015 8.64726 18.6595 9.98926 17.004 9.98926C15.5192 9.98926 14.2866 8.90965 14.0482 7.49259L10.0042 7.50088V8.49927C10.0042 8.73786 9.94845 8.96344 9.84933 9.16371L14.8381 14.1525C15.0368 14.0553 15.2602 14.0007 15.4963 14.0007H18.5012C19.3296 14.0007 20.0012 14.6723 20.0012 15.5007V18.5056C20.0012 19.334 19.3296 20.0056 18.5012 20.0056H15.4963C14.6679 20.0056 13.9963 19.334 13.9963 18.5056V17.499L9.95083 17.5073C9.70905 18.9203 8.47833 19.9956 6.99646 19.9956C5.34102 19.9956 3.99902 18.6536 3.99902 16.9982C3.99902 15.3427 5.34102 14.0007 6.99646 14.0007C8.48474 14.0007 9.71968 15.0854 9.95391 16.5073L13.9963 16.499V15.5007C13.9963 15.2737 14.0468 15.0585 14.137 14.8656L9.13293 9.86152C8.94169 9.94993 8.72868 9.99927 8.50415 9.99927H5.49927C4.67084 9.99927 3.99927 9.32769 3.99927 8.49927V5.49438ZM9.00415 5.49438V6.94828C9.00222 6.96623 9.00124 6.98446 9.00126 7.00293C9.00127 7.02104 9.00226 7.03892 9.00415 7.05652V8.49927C9.00415 8.77541 8.78029 8.99927 8.50415 8.99927H5.49927C5.22313 8.99927 4.99927 8.77541 4.99927 8.49927V5.49438C4.99927 5.21824 5.22313 4.99438 5.49927 4.99438H8.50415C8.78029 4.99438 9.00415 5.21824 9.00415 5.49438ZM14.9963 17.0539V18.5056C14.9963 18.7818 15.2202 19.0056 15.4963 19.0056H18.5012C18.7774 19.0056 19.0012 18.7818 19.0012 18.5056V15.5007C19.0012 15.2246 18.7774 15.0007 18.5012 15.0007H15.4963C15.2202 15.0007 14.9963 15.2246 14.9963 15.5007V16.9411C14.9984 16.9594 14.9995 16.9781 14.9995 16.997C14.9995 17.0162 14.9984 17.0352 14.9963 17.0539ZM15.0066 6.99182C15.0066 5.88867 15.9009 4.99438 17.004 4.99438C18.1072 4.99438 19.0015 5.88867 19.0015 6.99182C19.0015 8.09497 18.1072 8.98926 17.004 8.98926C15.9009 8.98926 15.0066 8.09497 15.0066 6.99182ZM6.99646 15.0007C8.09961 15.0007 8.9939 15.895 8.9939 16.9982C8.9939 18.1013 8.09961 18.9956 6.99646 18.9956C5.89331 18.9956 4.99902 18.1013 4.99902 16.9982C4.99902 15.895 5.89331 15.0007 6.99646 15.0007Z" fill="#212529"/>
</svg>
