<?xml version="1.0" encoding="utf-8"?>
<!-- Generator: Adobe Illustrator 21.1.0, SVG Export Plug-In . SVG Version: 6.00 Build 0)  -->
<svg version="1.1"
	 id="svg2" inkscape:version="0.91 r13725" sodipodi:docname="folder.svg" xmlns:cc="http://creativecommons.org/ns#" xmlns:dc="http://purl.org/dc/elements/1.1/" xmlns:inkscape="http://www.inkscape.org/namespaces/inkscape" xmlns:rdf="http://www.w3.org/1999/02/22-rdf-syntax-ns#" xmlns:sodipodi="http://sodipodi.sourceforge.net/DTD/sodipodi-0.dtd" xmlns:svg="http://www.w3.org/2000/svg"
	 xmlns="http://www.w3.org/2000/svg" xmlns:xlink="http://www.w3.org/1999/xlink" x="0px" y="0px" viewBox="0 0 64 64"
	 style="enable-background:new 0 0 64 64;" xml:space="preserve">
<style type="text/css">
	.st0{opacity:0.2;}
	.st1{display:none;}
	.st2{display:inline;fill:#FFCC33;}
	.st3{fill:#FFCC33;}
</style>
<sodipodi:namedview  bordercolor="#666666" borderopacity="1" gridtolerance="10" guidetolerance="10" id="namedview26" inkscape:current-layer="Layer_1" inkscape:cx="-38.508475" inkscape:cy="32" inkscape:pageopacity="0" inkscape:pageshadow="2" inkscape:window-height="689" inkscape:window-maximized="0" inkscape:window-width="1638" inkscape:window-x="10" inkscape:window-y="34" inkscape:zoom="3.6875" objecttolerance="10" pagecolor="#ffffff" showgrid="false">
	</sodipodi:namedview>
<g id="Layer_1">
	<g id="g9" transform="matrix(1.3728813,0,0,1.4865403,-11.79661,-17.004985)" class="st0">
		<g id="g11" class="st1">
			<path id="path13" inkscape:connector-curvature="0" class="st2" d="M31.9,21.4h-0.5H12.2c-1.6,0-2.8,1.3-2.8,3v27.1
				c0,1.7,1.3,3,2.8,3h39.4c1.6,0,2.8-1.3,2.8-3V27.4v-3.1v-3C54.4,21.4,31.9,21.4,31.9,21.4z"/>
		</g>
	</g>
	<g id="g15" transform="matrix(1.3728813,0,0,1.4865403,-11.79661,-17.004985)">
		<g id="g17">
			<path id="path19" inkscape:connector-curvature="0" class="st3" d="M31.9,19.1h-0.5H12.2c-1.6,0-2.8,1.3-2.8,3V50
				c0,1.7,1.3,3.1,2.8,3.1h39.4c1.6,0,2.8-1.4,2.8-3.1V25.3v-3.1v-3C54.4,19.1,31.9,19.1,31.9,19.1z"/>
		</g>
	</g>
	<g id="g21" transform="matrix(1.3728813,0,0,1.4865403,-11.79661,-17.004985)">
		<path id="path23" inkscape:connector-curvature="0" class="st3" d="M54.4,16c0-1.7-1.3-3.1-2.8-3.1H37.5c-1.6,0-2.8,1.4-2.8,3.1
			c0,0-0.4,2.8-2.8,3.1h22.5V16z"/>
	</g>
</g>
<g id="Layer_2">
</g>
</svg>
