<!-- Generated by IcoMoon.io -->
<svg version="1.1" xmlns="http://www.w3.org/2000/svg" width="24" height="24" viewBox="0 0 24 24">
<title>my-media-big</title>
<path d="M3 15c0 0.552-0.448 1-1 1s-1-0.448-1-1v-8c0-2.209 1.791-4 4-4h11c0.552 0 1 0.448 1 1s-0.448 1-1 1h-11c-1.105 0-2 0.895-2 2v8z"></path>
<path d="M18 21h-9c-2.209 0-4-1.791-4-4v-6c0-2.209 1.791-4 4-4h9c2.209 0 4 1.791 4 4v6c0 2.209-1.791 4-4 4zM20 11c0-1.105-0.895-2-2-2h-9c-1.105 0-2 0.895-2 2v6c0 1.105 0.895 2 2 2h9c1.105 0 2-0.895 2-2v-6z"></path>
<path d="M17.5 20c0-2.209-1.791-4-4-4s-4 1.791-4 4h8z"></path>
<path d="M15.5 13c0 1.105-0.895 2-2 2s-2-0.895-2-2c0-1.105 0.895-2 2-2s2 0.895 2 2z"></path>
</svg>
