<!-- Generated by IcoMoon.io -->
<svg version="1.1" xmlns="http://www.w3.org/2000/svg" width="16" height="16" viewBox="0 0 16 16">
<title>my-media</title>
<path d="M1.7 10.25c0 0.387-0.313 0.7-0.7 0.7s-0.7-0.313-0.7-0.7v-5.25c0-2.043 1.657-3.7 3.7-3.7h7.5c0.387 0 0.7 0.313 0.7 0.7s-0.313 0.7-0.7 0.7h-7.5c-1.27 0-2.3 1.030-2.3 2.3v5.25z"></path>
<path d="M15.95 11.2c0 2.043-1.657 3.7-3.7 3.7h-5.25c-2.043 0-3.7-1.657-3.7-3.7v-3c0-2.043 1.657-3.7 3.7-3.7h5.25c2.043 0 3.7 1.657 3.7 3.7v3zM14.55 11.2v-3c0-1.27-1.030-2.3-2.3-2.3h-5.25c-1.27 0-2.3 1.030-2.3 2.3v3c0 1.27 1.030 2.3 2.3 2.3h5.25c1.27 0 2.3-1.030 2.3-2.3z"></path>
<path d="M12.422 13.844c0-1.571-1.274-2.844-2.844-2.844s-2.844 1.274-2.844 2.844h5.689z"></path>
<path d="M11 8.822c0 0.785-0.637 1.422-1.422 1.422s-1.422-0.637-1.422-1.422c0-0.785 0.637-1.422 1.422-1.422s1.422 0.637 1.422 1.422z"></path>
</svg>
