<svg viewBox="0 0 640 512" xmlns="http://www.w3.org/2000/svg"><path d="m128 96h384v256h64v-272c0-26.37-21.6-48-48-48h-416c-26.37 0-48 21.63-48 48v272h64zm496 288h-608c-8.75 0-16 7.3-16 16v16c0 35.25 28.75 64 64 64h512c35.25 0 64-28.75 64-64v-16c0-8.7-7.2-16-16-16zm-258.1-97.8c3.9 3.9 9 5.8 14.1 5.8s10.23-1.938 14.14-5.844l48-48c7.812-7.813 7.812-20.5 0-28.31l-48-48c-7.812-7.813-20.47-7.813-28.28 0-7.812 7.813-7.812 20.5 0 28.31l33.86 33.84-33.86 33.84c-7.86 7.864-7.86 20.564.04 28.364zm-91.8-124.3c-7.812-7.813-20.47-7.813-28.28 0l-48 48c-7.812 7.813-7.812 20.5 0 28.31l48 48c3.98 3.89 9.08 5.79 14.18 5.79s10.23-1.938 14.14-5.844c7.812-7.813 7.812-20.5 0-28.31l-33.84-33.846 33.86-33.84c6.94-7.76 6.94-20.46-.06-28.26z"/></svg>