<svg height="50" viewBox="0 0 145 50" width="145" xmlns="http://www.w3.org/2000/svg"><g fill="#fff" fill-rule="evenodd" transform="translate(5 5)"><path d="m130 0h-125c-2.75 0-5 2.25-5 5v30c0 2.75 2.25 5 5 5h125c2.75 0 5-2.25 5-5v-30c0-2.75-2.25-5-5-5m0 .8c2.316 0 4.2 1.884 4.2 4.2v30c0 2.316-1.884 4.2-4.2 4.2h-125c-2.316 0-4.2-1.884-4.2-4.2v-30c0-2.316 1.884-4.2 4.2-4.2z"/><g transform="translate(41.042 6.765998)"><path d="m6.377 3.4770024c0 .838-.249 1.506-.746 2.003-.564.592-1.299.888-2.204.888-.866 0-1.602-.3-2.208-.901-.606-.6-.909-1.345-.909-2.233 0-.889.303-1.633.909-2.233.606-.601 1.342-.901 2.208-.901.43 0 .841.084 1.232.251.39.168.704.391.938.671l-.527.527c-.398-.474-.944-.711-1.643-.711-.632 0-1.177.221-1.638.666-.461.444-.692 1.021-.692 1.73s.231 1.286.692 1.73c.461.445 1.006.666 1.638.666.67 0 1.229-.223 1.676-.669.29-.291.458-.696.503-1.216h-2.179v-.72h2.908c.028.156.042.307.042.452"/><path d="m6.377 3.4770024h-.1c-.001.819-.24 1.455-.716 1.932l-.001.001-.001.001c-.546.571-1.249.856-2.132.857-.843-.001-1.548-.289-2.137-.872-.588-.583-.879-1.296-.88-2.162.001-.866.292-1.579.88-2.162.589-.583 1.294-.871 2.137-.872.417 0 .814.081 1.192.243.379.163.679.377.902.643l.076-.064-.071-.071-.527.528.071.07.076-.064c-.415-.498-.999-.749-1.719-.747-.655-.001-1.231.233-1.708.694-.481.462-.723 1.071-.722 1.802-.001.731.241 1.34.722 1.802.477.461 1.053.695 1.708.695.692.001 1.282-.234 1.747-.7.31-.311.486-.741.532-1.277l.009-.109h-2.188v-.521h2.808v-.099l-.099.017c.027.152.041.296.041.435h.2c0-.152-.015-.308-.044-.47l-.015-.082h-3.091v.92h2.279v-.1l-.1-.008c-.044.503-.204.882-.474 1.153-.43.428-.957.64-1.605.641-.608-.001-1.124-.211-1.569-.638-.441-.427-.66-.971-.661-1.659.001-.688.22-1.232.661-1.659.445-.427.961-.637 1.569-.637.677.001 1.187.225 1.566.676l.07.083.605-.605.065-.064-.059-.071c-.246-.293-.574-.525-.976-.698-.403-.172-.828-.2590024-1.271-.2590024-.889-.0009976-1.656.3110024-2.278.9300024-.625.617-.94 1.393-.93900237 2.304-.00099763.911.31400237 1.687.93900237 2.305.622.618 1.389.93 2.278.92900242.926.00099758 1.694-.30700242 2.277-.91900242l-.073-.069.071.071c.518-.518.775-1.217.775-2.074z"/><path d="m10.986.9710024h-2.733v1.903h2.464v.72h-2.464v1.903h2.733v.737h-3.503v-6h3.503z"/><path d="m10.986.9710024v-.1h-2.833v2.103h2.464v.52h-2.464v2.103h2.733v.537h-3.303v-5.8h3.303v.637h.1v-.1.1h.1v-.837h-3.703v6.2h3.703v-.937h-2.733v-1.703h2.464v-.92h-2.464v-1.703h2.733v-.1z"/><path d="m14.237 6.2340024h-.772v-5.263h-1.675v-.737h4.123v.737h-1.676z"/><path d="m14.237 6.2340024v-.1h-.672v-5.263h-1.676v-.537h3.924v.537h-1.676v5.363h.1v-.1.1h.1v-5.163h1.676v-.937h-4.324v.937h1.676v5.263h.972v-.1z"/><path d="m18.896 6.2340024h.771v-6h-.771z"/><path d="m18.896 6.2340024h.1v-5.9h.57v5.8h-.67v.1h.1-.1v.1h.871v-6.2h-.971v6.2h.1z"/><path d="m23.086 6.2340024h-.771v-5.263h-1.676v-.737h4.123v.737h-1.676z"/><path d="m23.086 6.2340024v-.1h-.671v-5.263h-1.676v-.537h3.923v.537h-1.676v5.363h.1v-.1.1h.1v-5.163h1.676v-.937h-4.323v.937h1.676v5.263h.971v-.1z"/><path d="m28.737 4.9560024c.445.45.988.674 1.63.674.643 0 1.187-.224 1.63-.674.444-.45.667-1.024.667-1.722s-.223-1.272-.667-1.722c-.443-.45-.987-.674-1.63-.674-.642 0-1.185.224-1.63.674-.443.45-.666 1.024-.666 1.722s.223 1.272.666 1.722zm3.83.503c-.589.606-1.323.909-2.2.909s-1.61-.303-2.199-.909c-.59-.606-.884-1.348-.884-2.225s.294-1.619.884-2.225c.589-.606 1.322-.909 2.199-.909.872 0 1.604.304 2.196.913s.888 1.349.888 2.221c0 .877-.295 1.619-.884 2.225z"/><path d="m28.737 4.9560024-.071.07c.461.468 1.035.706 1.701.70500313.666.00099687 1.241-.23700313 1.701-.70500313.464-.467.697-1.073.6960032-1.792.0009968-.719-.2320032-1.324-.6960032-1.792-.46-.468-1.035-.705-1.701-.70400315-.666-.00099685-1.24.23600315-1.701.70400315-.462.468-.696 1.073-.6950032 1.792-.0009968.719.2330032 1.325.6950032 1.792l.143-.14c-.425-.431-.637-.975-.638-1.652.001-.677.213-1.221.638-1.652h-.001c.429-.432.94-.643 1.559-.644.62.001 1.132.212 1.559.644.425.432.637.975.638 1.652-.001.677-.213 1.22-.638 1.652-.427.432-.939.644-1.559.645-.619-.002-1.13-.213-1.559-.645zm3.83.503-.071-.07c-.573.588-1.275.878-2.129.879-.854-.001-1.555-.291-2.127-.879l-.003-.003.003.003c-.572-.589-.855-1.3-.856-2.155.001-.855.284-1.566.856-2.155.572-.588 1.273-.878 2.127-.879.849.001 1.548.293 2.125.883.574.592.858 1.302.859 2.151-.001.855-.284 1.566-.855 2.155l.143.139c.607-.622.913-1.395.9120024-2.294.0009976-.894-.3070024-1.665-.9160024-2.29-.609-.628-1.373-.945-2.268-.94400237-.9-.00099763-1.665.31500237-2.271.94000237-.607.623-.913 1.395-.9120024 2.294-.0009976.899.3050024 1.672.9120024 2.294l.003.003-.003-.003c.606.626 1.371.941 2.271.94000237.9.00099763 1.666-.31400237 2.272-.94000237z"/><path d="m34.533 6.2340024v-6h.939l2.916 4.667h.033l-.033-1.156v-3.511h.771v6h-.805l-3.05-4.894h-.034l.034 1.157v3.737z"/><path d="m34.533 6.2340024h.1v-5.9h.783l2.916 4.668h.192l-.036-1.258v-3.41h.571v5.8h-.649l-3.051-4.894h-.191l.036 1.258v3.636h-.671v.1h.1-.1v.1h.871v-3.839l-.034-1.157-.1.002v.1h.034v-.1l-.085.053 3.08 4.941h.96v-6.2h-.971v3.613l.033 1.157.1-.003v-.099h-.033v.099l.085-.052-2.946-4.715h-1.094v6.2h.1z"/><path d="m65.894 23.2340024h1.866v-12.501h-1.866zm16.807-7.998-2.139 5.42h-.064l-2.22-5.42h-2.01l3.329 7.575-1.898 4.214h1.947l5.13-11.789zm-10.582 6.578c-.612 0-1.464-.305-1.464-1.061 0-.965 1.062-1.335 1.978-1.335.821 0 1.206.177 1.705.418-.145 1.158-1.142 1.978-2.219 1.978zm.225-6.851c-1.351 0-2.75.595-3.329 1.914l1.656.691c.354-.691 1.013-.917 1.705-.917.965 0 1.946.579 1.962 1.609v.128c-.338-.193-1.061-.482-1.946-.482-1.785 0-3.603.981-3.603 2.814 0 1.673 1.464 2.751 3.104 2.751 1.255 0 1.946-.563 2.381-1.223h.064v.965h1.801v-4.792c0-2.22-1.656-3.458-3.795-3.458zm-11.532 1.795h-2.654v-4.285h2.654c1.395 0 2.187 1.155 2.187 2.142 0 .969-.792 2.143-2.187 2.143zm-.048-6.025h-4.471v12.501h1.865v-4.736h2.606c2.068 0 4.101-1.498 4.101-3.883s-2.033-3.882-4.101-3.882zm-24.381 11.083c-1.289 0-2.368-1.079-2.368-2.561 0-1.498 1.079-2.594 2.368-2.594 1.273 0 2.271 1.096 2.271 2.594 0 1.482-.998 2.561-2.271 2.561zm2.142-5.88h-.064c-.419-.499-1.224-.95-2.239-.95-2.127 0-4.076 1.868-4.076 4.269 0 2.384 1.949 4.237 4.076 4.237 1.015 0 1.82-.451 2.239-.967h.064v.612c0 1.628-.869 2.498-2.271 2.498-1.144 0-1.853-.822-2.143-1.515l-1.627.677c.467 1.128 1.708 2.513 3.77 2.513 2.191 0 4.044-1.289 4.044-4.43v-7.637h-1.773zm3.062 7.298h1.869v-12.502h-1.869zm4.623-4.124c-.048-1.643 1.273-2.481 2.223-2.481.742 0 1.37.37 1.579.902zm5.8-1.418c-.354-.95-1.434-2.706-3.641-2.706-2.191 0-4.011 1.723-4.011 4.253 0 2.384 1.804 4.253 4.22 4.253 1.95 0 3.078-1.192 3.545-1.885l-1.45-.967c-.483.709-1.144 1.176-2.095 1.176-.95 0-1.627-.435-2.062-1.288l5.687-2.352zm-45.308-1.401v1.804h4.317c-.129 1.015-.467 1.756-.982 2.272-.629.628-1.612 1.32-3.335 1.32-2.658 0-4.737-2.142-4.737-4.8 0-2.659 2.079-4.801 4.737-4.801 1.434 0 2.481.564 3.254 1.289l1.273-1.273c-1.08-1.031-2.513-1.821-4.527-1.821-3.641 0-6.702 2.965-6.702 6.606s3.061 6.605 6.702 6.605c1.965 0 3.447-.644 4.607-1.853 1.192-1.192 1.563-2.867 1.563-4.221 0-.419-.032-.805-.097-1.127zm11.079 5.525c-1.289 0-2.401-1.063-2.401-2.577 0-1.531 1.112-2.578 2.401-2.578 1.288 0 2.4 1.047 2.4 2.578 0 1.514-1.112 2.577-2.4 2.577zm0-6.83c-2.353 0-4.27 1.788-4.27 4.253 0 2.448 1.917 4.253 4.27 4.253 2.352 0 4.269-1.805 4.269-4.253 0-2.465-1.917-4.253-4.269-4.253zm9.313 6.83c-1.289 0-2.401-1.063-2.401-2.577 0-1.531 1.112-2.578 2.401-2.578s2.4 1.047 2.4 2.578c0 1.514-1.111 2.577-2.4 2.577zm0-6.83c-2.352 0-4.269 1.788-4.269 4.253 0 2.448 1.917 4.253 4.269 4.253s4.269-1.805 4.269-4.253c0-2.465-1.917-4.253-4.269-4.253z"/></g><path d="m9.51 32.39-.075-.072c-.29-.308-.462-.785-.462-1.405v.146-22.116c0-.002 0-.003 0-.005v.005.147c0-.671.2-1.176.536-1.479l12.389 12.39z"/><path d="m28.029 24.132-4.131-4.131 4.131-4.131 4.986 2.833c.633.36.989.824 1.048 1.297v.002c-.059.473-.415.937-1.048 1.297z"/><path d="m11.393 33.715c-.346 0-.648-.113-.883-.325l12.388-12.389 4.131 4.131-14.515 8.247c-.402.228-.782.336-1.121.336"/><path d="m10.509 6.611c.235-.212.537-.324.883-.324.338 0 .719.108 1.122.336l14.515 8.247-4.131 4.131z"/></g></svg>