<svg height="50" viewBox="0 0 145 50" width="145" xmlns="http://www.w3.org/2000/svg"><g fill="#fff" fill-rule="evenodd" transform="translate(4 5)"><path d="m133 0c2.761424 0 5 2.23857625 5 5v31c0 2.7614237-2.238576 5-5 5h-128c-2.76142375 0-5-2.2385763-5-5v-31c0-2.76142375 2.23857625-5 5-5zm0 1h-128c-2.14219539 0-3.89107888 1.68396847-3.99510469 3.80035966l-.00489531.19964034v31c0 2.1421954 1.68396847 3.8910789 3.80035966 3.9951047l.19964034.0048953h128c2.142195 0 3.891079-1.6839685 3.995105-3.8003597l.004895-.1996403v-31c0-2.14219539-1.683968-3.89107888-3.80036-3.99510469z" fill-rule="nonzero"/><g transform="translate(12 6)"><path d="m23 19.0444056c-.628652 1.3594214-.9295492 1.9660759-1.7386939 3.1673941-1.1296162 1.6776264-2.7210481 3.7662768-4.6930398 3.7838191-1.7528056.0157659-2.2027857-1.1129402-4.5810568-1.100061-2.37827113.0126571-2.87491076 1.1198239-4.62794399 1.1044422-1.97199167-.0179266-3.48034679-1.9042847-4.60973537-3.581245-3.15805453-4.690026-3.48808545-10.1941061-1.54044779-13.1201263 1.38430902-2.07954613 3.56706527-3.29685226 5.62054043-3.29685226 2.09034759 0 3.40432592 1.1184916 5.13277752 1.1184916 1.6763295 0 2.6982873-1.12026804 5.1147965-1.12026804 1.826778 0 3.7623525.97015879 5.1416541 2.64867339-4.5186923 2.41573761-3.7848856 8.71255441.7811491 10.39573221"/><path d="m15.5352783 4.04764222c.9499518-1.04964784 1.6724573-2.53263848 1.4105121-4.04764222-1.5524504.09201114-3.3695566.94194817-4.4301513 2.05011001-.9627656 1.00618636-1.757226 2.49829331-1.4477216 3.94821082 1.695128.04515755 3.4489041-.8259802 4.4673608-1.95067861"/></g><g fill-rule="nonzero"><path d="m46.259 14c1.128 0 2.016-.315 2.664-.945.642-.642.963-1.524.963-2.646 0-.504-.087-.987-.261-1.449s-.426-.858-.756-1.188c-.138-.138-.285-.2565-.441-.3555s-.321-.1815-.495-.2475c-.42-.156-.942-.234-1.566-.234h-1.692v7.065zm.288-.621h-1.161v-5.823h.702c.564 0 1.002.048 1.314.144.324.102.609.27.855.504.336.324.57.714.702 1.17.042.156.0735.318.0945.486s.0315.348.0315.54c0 .972-.273 1.731-.819 2.277-.468.468-1.041.702-1.719.702zm7.194.738c.588 0 1.104-.228 1.548-.684.48-.486.72-1.101.72-1.845 0-.708-.222-1.302-.666-1.782-.45-.486-1.002-.729-1.656-.729-.66 0-1.215.243-1.665.729-.438.48-.657 1.077-.657 1.791 0 .756.249 1.371.747 1.845.468.45 1.011.675 1.629.675zm-.063-.594c-.432 0-.801-.171-1.107-.513-.33-.378-.495-.849-.495-1.413 0-.558.168-1.029.504-1.413.306-.348.675-.522 1.107-.522.42 0 .789.168 1.107.504.348.366.522.84.522 1.422 0 .564-.162 1.029-.486 1.395-.336.36-.72.54-1.152.54zm5.88.477.765-2.412c.012-.054.039-.162.081-.324s.102-.378.18-.648c.024-.09.0555-.198.0945-.324s.0855-.27.1395-.432c0 .06.006.126.018.198s.03.159.054.261c.012.06.0465.1725.1035.3375s.1335.3915.2295.6795l.855 2.664h.603l1.611-4.815h-.675l-.738 2.358c-.066.252-.1335.495-.2025.729s-.1365.465-.2025.693c-.012.042-.0255.084-.0405.126s-.0315.093-.0495.153c-.066-.27-.1455-.5625-.2385-.8775s-.1845-.6195-.2745-.9135l-.747-2.268h-.612l-.774 2.475c-.042.114-.078.225-.108.333s-.06.213-.09.315c-.042.144-.081.2925-.117.4455s-.069.3165-.099.4905l-1.278-4.059h-.702l1.602 4.815zm6.807 0v-2.475c0-.48.165-.912.495-1.296.33-.378.723-.567 1.179-.567.342 0 .636.111.882.333.246.216.369.492.369.828v3.177h.648v-3.222c0-.516-.177-.927-.531-1.233-.348-.312-.78-.468-1.296-.468-.444 0-.843.132-1.197.396-.216.162-.405.366-.567.612l-.027-.9h-.567v4.815zm5.817 0v-7.056h-.648v7.056zm3.855.117c.588 0 1.104-.228 1.548-.684.48-.486.72-1.101.72-1.845 0-.708-.222-1.302-.666-1.782-.45-.486-1.002-.729-1.656-.729-.66 0-1.215.243-1.665.729-.438.48-.657 1.077-.657 1.791 0 .756.249 1.371.747 1.845.468.45 1.011.675 1.629.675zm-.063-.594c-.432 0-.801-.171-1.107-.513-.33-.378-.495-.849-.495-1.413 0-.558.168-1.029.504-1.413.306-.348.675-.522 1.107-.522.42 0 .789.168 1.107.504.348.366.522.84.522 1.422 0 .564-.162 1.029-.486 1.395-.336.36-.72.54-1.152.54zm5.34.594c.414 0 .777-.123 1.089-.369.078-.066.156-.1485.234-.2475s.156-.2145.234-.3465c0 .336.039.555.117.657.096.162.297.243.603.243.06 0 .144-.0075.252-.0225s.216-.0405.324-.0765v-.504c-.018.006-.0405.015-.0675.027s-.0585.024-.0945.036c-.024.006-.048.0105-.072.0135s-.054.0045-.09.0045c-.12 0-.2025-.0375-.2475-.1125s-.0675-.1635-.0675-.2655v-2.268c0-.498-.141-.912-.423-1.242-.324-.378-.786-.567-1.386-.567-.588 0-1.137.171-1.647.513v.738c.12-.102.231-.186.333-.252s.195-.123.279-.171c.156-.084.3105-.1455.4635-.1845s.3075-.0585.4635-.0585c.414 0 .7275.1185.9405.3555s.3195.5655.3195.9855l-.432.045c-.456.06-.8475.126-1.1745.198s-.5895.156-.7875.252c-.54.252-.81.645-.81 1.179 0 .426.168.777.504 1.053.324.258.705.387 1.143.387zm.045-.594c-.15 0-.2865-.024-.4095-.072s-.2265-.111-.3105-.189-.15-.1665-.198-.2655-.072-.2025-.072-.3105c0-.366.204-.63.612-.792.306-.132.834-.237 1.584-.315l.306-.036v.288c0 .462-.147.861-.441 1.197-.306.33-.663.495-1.071.495zm6.087.594c.396 0 .744-.114 1.044-.342.084-.066.168-.1455.252-.2385s.168-.1995.252-.3195l.063.783h.621v-7.056h-.693v2.637c-.138-.084-.2625-.156-.3735-.216s-.2085-.108-.2925-.144c-.234-.096-.486-.144-.756-.144-.648 0-1.188.255-1.62.765-.426.498-.639 1.101-.639 1.809 0 .684.201 1.266.603 1.746.408.48.921.72 1.539.72zm.081-.594c-.402 0-.75-.168-1.044-.504-.318-.366-.477-.825-.477-1.377 0-.516.144-.969.432-1.359.306-.414.705-.621 1.197-.621.198 0 .402.042.612.126s.456.249.738.495v1.386c0 .54-.144.984-.432 1.332s-.63.522-1.026.522zm9.582.594c.588 0 1.104-.228 1.548-.684.48-.486.72-1.101.72-1.845 0-.708-.222-1.302-.666-1.782-.45-.486-1.002-.729-1.656-.729-.66 0-1.215.243-1.665.729-.438.48-.657 1.077-.657 1.791 0 .756.249 1.371.747 1.845.468.45 1.011.675 1.629.675zm-.063-.594c-.432 0-.801-.171-1.107-.513-.33-.378-.495-.849-.495-1.413 0-.558.168-1.029.504-1.413.306-.348.675-.522 1.107-.522.42 0 .789.168 1.107.504.348.366.522.84.522 1.422 0 .564-.162 1.029-.486 1.395-.336.36-.72.54-1.152.54zm4.422.477v-2.475c0-.48.165-.912.495-1.296.33-.378.723-.567 1.179-.567.342 0 .636.111.882.333.246.216.369.492.369.828v3.177h.648v-3.222c0-.516-.177-.927-.531-1.233-.348-.312-.78-.468-1.296-.468-.444 0-.843.132-1.197.396-.216.162-.405.366-.567.612l-.027-.9h-.567v4.815zm10.473.072c.138 0 .2745-.0135.4095-.0405s.2505-.0555.3465-.0855v-.585c-.114.048-.2175.087-.3105.117s-.2055.045-.3375.045c-.228 0-.3885-.054-.4815-.162s-.1395-.288-.1395-.54v-3.06h1.269v-.585h-1.269v-1.413h-.594l-.063 1.413h-.81v.585h.81v3.258c0 .372.111.642.333.81.198.162.477.243.837.243zm2.802-.072v-2.493c0-.486.156-.918.468-1.296.306-.366.69-.549 1.152-.549.318 0 .588.12.81.36s.333.534.333.882v3.096h.657v-3.186c0-.564-.177-1.002-.531-1.314-.168-.138-.3525-.243-.5535-.315s-.4275-.108-.6795-.108c-.408 0-.777.123-1.107.369-.216.162-.399.363-.549.603v-3.105h-.648v7.056zm7.068.117c.378 0 .756-.099 1.134-.297.108-.054.2235-.1215.3465-.2025s.2565-.1755.4005-.2835v-.783c-.132.132-.255.2475-.369.3465s-.222.1815-.324.2475c-.366.252-.747.378-1.143.378-.522 0-.9435-.1815-1.2645-.5445s-.4815-.8895-.4815-1.5795h3.663c0-.654-.168-1.194-.504-1.62-.378-.468-.888-.702-1.53-.702-.66 0-1.215.243-1.665.729-.444.48-.666 1.077-.666 1.791 0 .756.246 1.371.738 1.845.456.45 1.011.675 1.665.675zm1.206-3.267h-2.817c.126-.36.309-.648.549-.864.258-.234.573-.351.945-.351.336 0 .6225.1005.8595.3015s.3915.5055.4635.9135z"/><path d="m45.35 31.202 1.235-3.534h4.978l1.254 3.534h2.052l-4.674-13.015h-1.976l-4.712 13.015zm5.643-5.092h-3.876l1.9-5.453h.057zm7.351 7.942v-3.363c.513.285 1.292.57 2.375.57 2.66 0 4.37-1.349 4.37-4.94v-.266c0-3.572-1.843-4.731-3.952-4.731-1.178 0-2.185.418-2.774.969h-.076v-.779h-1.805v12.54zm2.147-4.256c-.931 0-1.748-.304-2.147-.608v-5.662c.399-.304 1.216-.627 2.242-.627 1.634 0 2.546.741 2.546 3.268v.399c0 2.47-.969 3.23-2.641 3.23zm8.567 4.256v-3.363c.513.285 1.292.57 2.375.57 2.66 0 4.37-1.349 4.37-4.94v-.266c0-3.572-1.843-4.731-3.952-4.731-1.178 0-2.185.418-2.774.969h-.076v-.779h-1.805v12.54zm2.147-4.256c-.931 0-1.748-.304-2.147-.608v-5.662c.399-.304 1.216-.627 2.242-.627 1.634 0 2.546.741 2.546 3.268v.399c0 2.47-.969 3.23-2.641 3.23zm15.044 1.634c3.097 0 4.503-1.52 4.503-3.895 0-2.242-1.235-3.097-3.192-3.724l-1.292-.399c-1.349-.418-1.748-.912-1.748-2.033 0-1.159.817-1.786 2.261-1.786 1.425 0 2.489.342 3.287.684v-1.596c-.722-.361-1.634-.722-3.287-.722-2.793 0-4.199 1.482-4.199 3.591s1.102 3.059 2.888 3.61l1.273.418c1.482.475 1.995.969 1.995 2.109 0 1.292-.779 2.109-2.622 2.109-1.387 0-2.66-.342-3.667-.817v1.596c.893.494 2.147.855 3.8.855zm9.859-.133c.893 0 1.33-.19 1.729-.361v-1.254c-.38.057-.798.114-1.197.114-1.045 0-1.33-.323-1.33-1.197v-5.586h2.337v-1.501h-2.337v-2.28h-1.881v2.28h-1.368v1.501h1.368v5.852c0 1.767 1.064 2.432 2.679 2.432zm7.636.076c2.641 0 4.484-1.824 4.484-4.902v-.285c0-3.059-1.653-4.864-4.465-4.864-2.698 0-4.522 1.843-4.522 4.921v.323c0 3.021 1.634 4.807 4.503 4.807zm.019-1.463c-1.444 0-2.603-.76-2.603-3.325v-.513c0-2.128.931-3.249 2.565-3.249 1.406 0 2.546.76 2.546 3.325v.513c0 2.128-.931 3.249-2.508 3.249zm8.396 1.292v-7.41c.665-.437 1.558-.703 2.47-.703.19 0 .513.019.76.057v-1.672c-.095-.057-.38-.076-.608-.076-1.045 0-2.033.551-2.603 1.197h-.076v-1.083h-1.805v9.69zm9.118.171c1.615 0 2.736-.494 3.344-.931v-1.311c-.893.399-1.729.703-3.002.703-1.9 0-2.983-.741-3.116-2.964h6.422v-.912c0-3.059-1.273-4.636-4.009-4.636-2.337 0-4.332 1.577-4.332 4.902v.247c0 3.04 1.558 4.902 4.693 4.902zm1.691-5.871h-4.465c.152-2.166 1.311-2.698 2.337-2.698 1.406 0 2.128.741 2.128 2.698z"/></g></g></svg>