<svg id="Layer_1" data-name="Layer 1" xmlns="http://www.w3.org/2000/svg" width="48" height="48" viewBox="0 0 48 48"><defs><style>.cls-1{fill:#f33;}.cls-2{fill:#fff;}</style></defs><title>48px_sourcefile_20170718_multi</title><circle class="cls-1" cx="24" cy="24.04" r="24"/><path id="path1" class="cls-2" d="M18.49,32H38.63v1.84H18.49Zm-5.89-.15A1.41,1.41,0,1,0,14,33.23,1.4,1.4,0,0,0,12.6,31.82Zm0-1.84a3.22,3.22,0,1,1-3.22,3.24A3.22,3.22,0,0,1,12.6,30Zm5.89-7.16H38.63v1.84H18.49Zm-5.89-.19A1.41,1.41,0,1,0,14,24,1.4,1.4,0,0,0,12.6,22.63Zm0-1.82A3.22,3.22,0,1,1,9.38,24,3.22,3.22,0,0,1,12.6,20.81Zm5.89-7.14H38.63v1.84H18.49Zm-5.89-.21A1.41,1.41,0,1,0,14,14.87,1.4,1.4,0,0,0,12.6,13.46Zm0-1.84a3.22,3.22,0,1,1-3.22,3.23A3.22,3.22,0,0,1,12.6,11.63Z"/></svg>