<?xml version="1.0" encoding="utf-8"?>
<svg width="1792" height="1792" viewBox="0 0 1792 1792" xmlns="http://www.w3.org/2000/svg"><path fill="#979797" d="M1092 644q0 107-76.5 183t-183.5 76-183.5-76-76.5-183q0-108 76.5-184t183.5-76 183.5 76 76.5 184zm-48 220q46 0 82.5 17t60 47.5 39.5 67 24 81 11.5 82.5 3.5 79q0 67-39.5 118.5t-105.5 51.5h-576q-66 0-105.5-51.5t-39.5-118.5q0-48 4.5-93.5t18.5-98.5 36.5-91.5 63-64.5 93.5-26h5q7 4 32 19.5t35.5 21 33 17 37 16 35 9 39.5 4.5 39.5-4.5 35-9 37-16 33-17 35.5-21 32-19.5zm684-256q0 13-9.5 22.5t-22.5 9.5h-96v128h96q13 0 22.5 9.5t9.5 22.5v192q0 13-9.5 22.5t-22.5 9.5h-96v128h96q13 0 22.5 9.5t9.5 22.5v192q0 13-9.5 22.5t-22.5 9.5h-96v224q0 66-47 113t-113 47h-1216q-66 0-113-47t-47-113v-1472q0-66 47-113t113-47h1216q66 0 113 47t47 113v224h96q13 0 22.5 9.5t9.5 22.5v192zm-256 1024v-1472q0-13-9.5-22.5t-22.5-9.5h-1216q-13 0-22.5 9.5t-9.5 22.5v1472q0 13 9.5 22.5t22.5 9.5h1216q13 0 22.5-9.5t9.5-22.5z"/></svg>