<svg xmlns="http://www.w3.org/2000/svg"  x="0px" y="0px"
	 width="1792px" height="1792px" viewBox="0 0 1792 1792" enable-background="new 0 0 1792 1792" xml:space="preserve">
<path fill="#979797" d="M1619.869,380.144c18.663,18.663,34.657,44,48.003,75.998c13.325,31.999,19.998,61.329,19.998,88v1152.002
	c0,26.671-9.342,49.327-28.006,68.001c-18.674,18.663-41.341,27.995-68.012,27.995H247.872c-26.672,0-49.333-9.332-68.002-27.995
	c-18.668-18.663-28-41.319-28-68.001V96.136c0-26.66,9.332-49.327,28-68.001C198.539,9.471,221.2,0.14,247.872,0.14h896
	c26.646,0,55.989,6.662,87.998,19.998c31.999,13.335,57.336,29.33,75.998,48.003L1619.869,380.144z M1175.87,136.143v376h375.998
	c-6.674-19.336-13.998-33.008-21.994-41.005l-312.999-313C1208.867,150.141,1195.217,142.806,1175.87,136.143z M1559.864,1664.145
	V640.138h-415.992c-26.66,0-49.328-9.331-67.991-27.994c-18.663-18.675-27.994-41.342-27.994-68.002V128.135H279.87v1536.01
	H1559.864z"/>
<g enable-background="new    ">
	<path fill="#979797" d="M619.581,862.952h142.977l182.523,511.059l-131.569,21.297l-38.786-114.076H593.725l-34.983,108.75H430.976
		L619.581,862.952z M624.905,1179.321h117.878L684.227,996.8L624.905,1179.321z"/>
	<path fill="#979797" d="M1177.253,1177.803v134.609h-92.782v-134.609H954.425v-89.741h130.046v-134.61h92.781v134.61h130.047v89.739h-130.046
		V1177.803z"/>
</g>
</svg>
