
<svg xmlns="http://www.w3.org/2000/svg"  x="0px" y="0px"
	 width="1792px" height="1792px" viewBox="0 0 1792 1792" enable-background="new 0 0 1792 1792" xml:space="preserve">
<path fill="#979797" d="M1184.401,658.849c14.783,14.783,27.455,34.847,38.016,60.191c10.56,25.344,15.841,48.576,15.841,69.696v912.384
	c0,21.121-7.394,39.072-22.177,53.857c-14.784,14.784-32.736,22.175-53.856,22.175H97.776c-21.12,0-39.072-7.391-53.856-22.175
	c-14.784-14.785-22.176-32.736-22.176-53.857V433.92c0-21.12,7.392-39.072,22.176-53.856c14.784-14.783,32.736-22.176,53.856-22.176
	h709.632c21.12,0,44.353,5.28,69.695,15.84c25.345,10.56,45.409,23.232,60.193,38.016L1184.401,658.849z M832.752,465.601v297.792
	h297.792c-5.279-15.312-11.086-26.136-17.423-32.472L865.224,483.024C858.889,476.688,848.064,470.88,832.752,465.601z
	 M1136.88,1675.777V864.769H807.408c-21.121,0-39.073-7.392-53.856-22.176c-14.784-14.784-22.175-32.736-22.175-53.856V459.265
	H123.12v1216.513H1136.88z M325.872,991.489c0-7.393,2.376-13.465,7.128-18.218c4.752-4.751,10.823-7.127,18.216-7.127h557.568
	c7.392,0,13.464,2.376,18.216,7.127c4.751,4.753,7.128,10.825,7.128,18.218v50.688c0,7.392-2.377,13.464-7.128,18.216
	c-4.752,4.751-10.824,7.128-18.216,7.128H351.216c-7.393,0-13.464-2.377-18.216-7.128c-4.752-4.752-7.128-10.824-7.128-18.216
	V991.489z M908.784,1168.897c7.392,0,13.464,2.374,18.216,7.127c4.751,4.753,7.128,10.824,7.128,18.216v50.688
	c0,7.392-2.377,13.464-7.128,18.215c-4.752,4.754-10.824,7.128-18.216,7.128H351.216c-7.393,0-13.464-2.374-18.216-7.128
	c-4.752-4.751-7.128-10.823-7.128-18.215v-50.688c0-7.392,2.376-13.463,7.128-18.216s10.823-7.127,18.216-7.127H908.784z
	 M908.784,1371.648c7.392,0,13.464,2.376,18.216,7.129c4.751,4.751,7.128,10.823,7.128,18.215v50.688
	c0,7.392-2.377,13.463-7.128,18.217c-4.752,4.751-10.824,7.127-18.216,7.127H351.216c-7.393,0-13.464-2.376-18.216-7.127
	c-4.752-4.754-7.128-10.825-7.128-18.217v-50.688c0-7.392,2.376-13.464,7.128-18.215c4.752-4.753,10.823-7.129,18.216-7.129H908.784
	z"/>
<path fill="#979797" d="M1503.216,189.209v195.148c0,4.065-1.308,7.406-3.921,10.02c-2.613,2.613-5.954,3.92-10.02,3.92h-139.393
	c-4.065,0-7.405-1.308-10.018-3.92c-2.614-2.614-3.922-5.955-3.922-10.02v-27.878c0-4.065,1.308-7.405,3.922-10.018
	c2.612-2.613,5.952-3.92,10.018-3.92h97.575V189.209c0-4.066,1.308-7.405,3.921-10.019c2.613-2.614,5.953-3.921,10.019-3.921h27.878
	c4.065,0,7.406,1.307,10.02,3.921C1501.908,181.804,1503.216,185.144,1503.216,189.209z M1684.424,342.541
	c0-42.979-10.6-82.619-31.799-118.919c-21.198-36.3-49.949-65.05-86.248-86.25c-36.301-21.199-75.94-31.798-118.919-31.798
	s-82.619,10.6-118.919,31.798c-36.3,21.2-65.05,49.95-86.249,86.25s-31.798,75.939-31.798,118.919
	c0,42.979,10.599,82.619,31.798,118.919c21.199,36.299,49.949,65.049,86.249,86.248c36.3,21.2,75.94,31.8,118.919,31.8
	s82.618-10.6,118.919-31.8c36.299-21.199,65.05-49.949,86.248-86.248C1673.824,425.16,1684.424,385.52,1684.424,342.541z
	 M1782,342.541c0,60.693-14.958,116.667-44.867,167.924c-29.912,51.255-70.494,91.838-121.751,121.75
	c-51.256,29.911-107.23,44.867-167.924,44.867c-60.694,0-116.668-14.956-167.924-44.867c-51.257-29.912-91.84-70.495-121.751-121.75
	c-29.909-51.256-44.867-107.23-44.867-167.924s14.958-116.668,44.867-167.923c29.911-51.256,70.494-91.84,121.751-121.75
	C1330.79,22.956,1386.764,8,1447.458,8c60.693,0,116.668,14.956,167.924,44.867c51.257,29.91,91.839,70.494,121.751,121.75
	C1767.042,225.873,1782,281.848,1782,342.541z"/>
</svg>
