
<svg xmlns="http://www.w3.org/2000/svg"  x="0px" y="0px"
	 width="1792px" height="1792px" viewBox="0 0 1792 1792" enable-background="new 0 0 1792 1792" xml:space="preserve">
<path fill="#979797" d="M1414.569,532.112l-311.904,571.825h623.807L1414.569,532.112z M374.888,532.112L62.984,1103.937h623.808L374.888,532.112z
	 M1041.746,376.16c-7.582,21.661-19.902,41.019-36.959,58.076c-17.057,17.058-36.416,29.376-58.074,36.958v1048.615h493.848
	c7.58,0,13.807,2.437,18.682,7.31c4.873,4.873,7.311,11.102,7.311,18.682v51.984c0,7.581-2.438,13.808-7.311,18.682
	c-4.875,4.874-11.102,7.311-18.682,7.311H348.897c-7.582,0-13.809-2.437-18.682-7.311c-4.874-4.874-7.31-11.101-7.31-18.682V1545.8
	c0-7.58,2.437-13.809,7.31-18.682c4.873-4.873,11.1-7.31,18.682-7.31h493.847V471.193c-21.66-7.581-41.018-19.9-58.076-36.958
	c-17.057-17.057-29.376-36.416-36.957-58.076H348.897c-7.582,0-13.809-2.437-18.682-7.31c-4.874-4.873-7.31-11.101-7.31-18.681
	v-51.984c0-7.582,2.437-13.808,7.31-18.682c4.873-4.874,11.1-7.31,18.682-7.31h398.814c11.372-30.865,30.323-55.91,56.857-75.133
	c26.533-19.223,56.586-28.835,90.16-28.835c33.573,0,63.625,9.612,90.161,28.835c26.533,19.223,45.484,44.268,56.857,75.133h398.814
	c7.58,0,13.807,2.437,18.682,7.31c4.873,4.874,7.311,11.101,7.311,18.682v51.984c0,7.581-2.438,13.808-7.311,18.681
	c-4.875,4.874-11.102,7.31-18.682,7.31H1041.746z M894.728,389.156c17.87,0,33.167-6.362,45.893-19.087
	c12.725-12.725,19.088-28.023,19.088-45.892c0-17.87-6.363-33.167-19.088-45.893c-12.727-12.725-28.023-19.088-45.893-19.088
	s-33.167,6.363-45.892,19.088c-12.726,12.726-19.088,28.023-19.088,45.893c0,17.869,6.362,33.167,19.088,45.892
	C861.561,382.793,876.859,389.156,894.728,389.156z M1778.457,1103.937c0,39.529-12.592,74.997-37.771,106.404
	s-56.992,56.046-95.439,73.915s-77.568,31.271-117.369,40.206c-39.799,8.936-77.57,13.402-113.309,13.402
	c-35.74,0-73.51-4.467-113.309-13.402c-39.801-8.935-78.924-22.337-117.371-40.206c-38.445-17.869-70.26-42.508-95.439-73.915
	s-37.77-66.875-37.77-106.404c0-5.957,9.477-27.888,28.43-65.793c18.951-37.905,43.861-85.15,74.725-141.737
	c30.867-56.587,59.838-109.519,86.912-158.795c27.074-49.277,54.691-99.094,82.85-149.454c28.158-50.359,43.32-77.434,45.486-81.225
	c9.746-17.869,24.908-26.804,45.486-26.804c20.576,0,35.738,8.935,45.486,26.804c2.164,3.791,17.326,30.866,45.484,81.225
	c28.158,50.36,55.775,100.177,82.85,149.454c27.076,49.276,56.047,102.208,86.912,158.795
	c30.865,56.587,55.773,103.832,74.727,141.737C1768.979,1076.049,1778.457,1097.979,1778.457,1103.937z M738.777,1103.937
	c0,39.529-12.59,74.997-37.77,106.404s-56.993,56.046-95.439,73.915c-38.447,17.869-77.57,31.271-117.37,40.206
	c-39.8,8.936-77.57,13.402-113.309,13.402c-35.739,0-73.508-4.467-113.308-13.402c-39.8-8.935-78.924-22.337-117.371-40.206
	c-38.447-17.869-70.26-42.508-95.439-73.915C23.591,1178.934,11,1143.466,11,1103.937c0-5.957,9.476-27.888,28.429-65.793
	c18.952-37.905,43.861-85.15,74.727-141.737c30.866-56.587,59.835-109.519,86.911-158.795
	c27.075-49.277,54.691-99.094,82.85-149.454c28.158-50.359,43.32-77.434,45.486-81.225c9.747-17.869,24.908-26.804,45.486-26.804
	c20.577,0,35.739,8.935,45.486,26.804c2.166,3.791,17.328,30.866,45.486,81.225c28.158,50.36,55.774,100.177,82.85,149.454
	c27.075,49.276,56.045,102.208,86.911,158.795c30.866,56.587,55.774,103.832,74.727,141.737
	C729.3,1076.049,738.777,1097.979,738.777,1103.937z"/>
</svg>
