<svg version="1.1" id="Layer_1" xmlns="http://www.w3.org/2000/svg" x="0px" y="0px"
	 width="24px" height="24px" viewBox="0 0 24 24" enable-background="new 0 0 24 24" xml:space="preserve">
<path fill="#A5A5A5" d="M4,0h16v24H4V0z"/>
<path fill="#D8D8D8" d="M5,1h14v22H5V1z"/>
<path fill="#F9F9F9" d="M6,2h12v20H6V2z"/>
<path fill="#8C8C8C" d="M7,4v5h10V4H7z M16,8H8V5h8V8z"/>
<path fill="#979797" d="M4,0H1C0.5,0,0,0.5,0,1v22c0,0.5,0.5,1,1,1h4V0H4z"/>
<path fill="#A3A3A3" d="M1,1h3v22H1V1z"/>
<path fill="#A8A8A8" d="M2,2h1v20H2V2z"/>
</svg>
