<?xml version="1.0" encoding="utf-8"?>
<svg version="1.1" id="Layer_1" xmlns="http://www.w3.org/2000/svg" x="0px" y="0px"
	 width="1792px" height="1792px" viewBox="0 0 1792 1792" enable-background="new 0 0 1792 1792" xml:space="preserve">
<path fill="#979797" d="M376.16,1489.6v-115.52c0-15.644-5.716-29.181-17.147-40.612c-11.432-11.433-24.97-17.148-40.613-17.148H202.88
	c-15.644,0-29.181,5.716-40.612,17.148c-11.432,11.432-17.147,24.969-17.147,40.612v115.52c0,15.644,5.715,29.182,17.147,40.613
	c11.431,11.431,24.968,17.146,40.612,17.146H318.4c15.643,0,29.181-5.716,40.613-17.146
	C370.444,1518.781,376.16,1505.243,376.16,1489.6z M376.16,1143.04V1027.52c0-15.643-5.716-29.18-17.147-40.612
	c-11.432-11.432-24.97-17.147-40.613-17.147H202.88c-15.644,0-29.181,5.716-40.612,17.147
	c-11.432,11.433-17.147,24.97-17.147,40.612v115.521c0,15.643,5.715,29.18,17.147,40.612c11.431,11.432,24.968,17.147,40.612,17.147
	H318.4c15.643,0,29.181-5.716,40.613-17.147C370.444,1172.22,376.16,1158.683,376.16,1143.04z M376.16,796.48V680.96
	c0-15.643-5.716-29.181-17.147-40.613c-11.432-11.432-24.97-17.147-40.613-17.147H202.88c-15.644,0-29.181,5.715-40.612,17.147
	c-11.432,11.432-17.147,24.97-17.147,40.613v115.52c0,15.643,5.715,29.18,17.147,40.612c11.431,11.432,24.968,17.148,40.612,17.148
	H318.4c15.643,0,29.181-5.716,40.613-17.148C370.444,825.66,376.16,812.123,376.16,796.48z M1300.32,1489.6v-462.08
	c0-15.643-5.716-29.18-17.147-40.612c-11.431-11.432-24.969-17.147-40.612-17.147H549.441c-15.644,0-29.182,5.716-40.613,17.147
	c-11.432,11.433-17.148,24.97-17.148,40.612v462.08c0,15.644,5.716,29.182,17.148,40.613c11.431,11.431,24.969,17.146,40.613,17.146
	h693.119c15.644,0,29.182-5.716,40.612-17.146C1294.604,1518.781,1300.32,1505.243,1300.32,1489.6z M376.16,449.92V334.4
	c0-15.644-5.716-29.181-17.147-40.612c-11.432-11.432-24.97-17.147-40.613-17.147H202.88c-15.644,0-29.181,5.716-40.612,17.147
	c-11.432,11.432-17.147,24.969-17.147,40.612v115.52c0,15.643,5.715,29.181,17.147,40.613
	c11.431,11.432,24.968,17.147,40.612,17.147H318.4c15.643,0,29.181-5.715,40.613-17.147
	C370.444,479.101,376.16,465.563,376.16,449.92z M1646.88,1489.6v-115.52c0-15.644-5.716-29.181-17.147-40.612
	c-11.432-11.433-24.97-17.148-40.613-17.148H1473.6c-15.644,0-29.182,5.716-40.612,17.148
	c-11.432,11.432-17.147,24.969-17.147,40.612v115.52c0,15.644,5.716,29.182,17.147,40.613
	c11.431,11.431,24.969,17.146,40.612,17.146h115.52c15.644,0,29.182-5.716,40.613-17.146
	C1641.164,1518.781,1646.88,1505.243,1646.88,1489.6z M1300.32,796.48V334.4c0-15.644-5.716-29.181-17.147-40.612
	c-11.431-11.432-24.969-17.147-40.612-17.147H549.441c-15.644,0-29.182,5.716-40.613,17.147
	c-11.432,11.432-17.148,24.969-17.148,40.612v462.08c0,15.643,5.716,29.18,17.148,40.612c11.431,11.432,24.969,17.148,40.613,17.148
	h693.119c15.644,0,29.182-5.716,40.612-17.148C1294.604,825.66,1300.32,812.123,1300.32,796.48z M1646.88,1143.04V1027.52
	c0-15.643-5.716-29.18-17.147-40.612c-11.432-11.432-24.97-17.147-40.613-17.147H1473.6c-15.644,0-29.182,5.716-40.612,17.147
	c-11.432,11.433-17.147,24.97-17.147,40.612v115.521c0,15.643,5.716,29.18,17.147,40.612c11.431,11.432,24.969,17.147,40.612,17.147
	h115.52c15.644,0,29.182-5.716,40.613-17.147C1641.164,1172.22,1646.88,1158.683,1646.88,1143.04z M1646.88,796.48V680.96
	c0-15.643-5.716-29.181-17.147-40.613c-11.432-11.432-24.97-17.147-40.613-17.147H1473.6c-15.644,0-29.182,5.715-40.612,17.147
	c-11.432,11.432-17.147,24.97-17.147,40.613v115.52c0,15.643,5.716,29.18,17.147,40.612c11.431,11.432,24.969,17.148,40.612,17.148
	h115.52c15.644,0,29.182-5.716,40.613-17.148S1646.88,812.123,1646.88,796.48z M1646.88,449.92V334.4
	c0-15.644-5.716-29.181-17.147-40.612s-24.97-17.147-40.613-17.147H1473.6c-15.644,0-29.182,5.716-40.612,17.147
	c-11.432,11.432-17.147,24.969-17.147,40.612v115.52c0,15.643,5.716,29.181,17.147,40.613
	c11.431,11.432,24.969,17.147,40.612,17.147h115.52c15.644,0,29.182-5.715,40.613-17.147
	C1641.164,479.101,1646.88,465.563,1646.88,449.92z M1762.401,305.52v1212.96c0,39.71-14.14,73.704-42.418,101.982
	S1657.71,1662.88,1618,1662.88H174c-39.71,0-73.704-14.139-101.982-42.417C43.739,1592.185,29.6,1558.19,29.6,1518.48V305.52
	c0-39.71,14.139-73.704,42.417-101.982C100.296,175.259,134.29,161.12,174,161.12h1444c39.71,0,73.704,14.139,101.982,42.417
	S1762.401,265.81,1762.401,305.52z"/>
</svg>
