<svg xmlns="http://www.w3.org/2000/svg"  x="0px" y="0px"
	 width="1792px" height="1792px" viewBox="0 0 1792 1792" enable-background="new 0 0 1792 1792" xml:space="preserve">
<path fill="#979797" d="M1641,1045V429c-112.667,60.667-214.667,91-306,91c-54.667,0-103-10.667-145-32c-66.667-32.667-128-58.167-184-76.5
	C950,393.167,890.666,384,828,384c-115.334,0-249.667,42.333-403,127v599c163.333-75.333,307.666-113,433-113
	c36.666,0,71.166,2.5,103.5,7.5c32.333,5,65,13.667,98,26s58.666,22.667,77,31c18.333,8.333,45.833,21.5,82.5,39.5l28,14
	c29.333,14.667,63,22,101,22C1428,1137,1525.666,1106.333,1641,1045z M297,256c0,23.333-5.834,44.667-17.5,64
	c-11.667,19.333-27.167,34.667-46.5,46v1266c0,9.333-3,17-9,23s-13.667,9-23,9h-64c-9.334,0-17-3-23-9s-9-13.667-9-23V366
	c-19.334-11.333-34.834-26.667-46.5-46C46.833,300.667,41,279.333,41,256c0-35.333,12.5-65.5,37.5-90.5S133.666,128,169,128
	c35.333,0,65.5,12.5,90.5,37.5S297,220.667,297,256z M1769,320v763c0,26-11.667,45-35,57c-6.667,3.333-12.334,6.333-17,9
	c-145.334,77.333-268.334,116-369,116c-58.667,0-111.334-11.667-158-35l-28-14c-42.667-22-75.667-38-99-48
	c-23.334-10-53.667-19.667-91-29c-37.334-9.333-75.334-14-114-14c-68,0-146.5,14.667-235.5,44s-165.167,63.333-228.5,102
	c-10,6-21,9-33,9c-10.667,0-21.334-2.667-32-8c-21.334-12.667-32-31.333-32-56V474c0-23.333,10.333-41.667,31-55
	c23.333-14,49.5-28.167,78.5-42.5s67-31.667,114-52S618.333,287.667,673,275c54.666-12.667,106.333-19,155-19
	c74.666,0,144.333,10.333,209,31c64.666,20.667,134.333,49.333,209,86c25.333,12.667,55,19,89,19c81.333,0,184.666-37.333,310-112
	c14.666-8,25-13.667,31-17c20.666-10.667,41.333-10,62,2C1758.666,278.333,1769,296.667,1769,320z"/>
</svg>
