<svg xmlns="http://www.w3.org/2000/svg" x="0px" y="0px"
	 width="1792px" height="1792px" viewBox="0 0 1792 1792" enable-background="new 0 0 1792 1792" xml:space="preserve">
<path fill="#979797" d="M807,1000V808c-120.667,10.667-248.667,49.667-384,117v185C559.666,1046,687.666,1009.333,807,1000z M807,582V385
	c-114.667,5.333-242.667,47.333-384,126v189C566.333,626,694.333,586.667,807,582z M1639,1045V861
	c-156.667,77.333-284.667,101-384,71V708c-13.334-4-26.334-9-39-15c-3.334-2-14.334-7.667-33-17c-18.667-9.333-30.167-15-34.5-17
	c-4.334-2-14.834-7-31.5-15c-16.667-8-28.167-13.167-34.5-15.5c-6.334-2.333-17.167-6.667-32.5-13
	c-15.334-6.333-27.334-10.5-36-12.5c-8.667-2-20.334-4.833-35-8.5c-14.667-3.667-27.834-6.167-39.5-7.5
	c-11.667-1.333-24.834-2.667-39.5-4c-14.667-1.333-29.334-2-44-2c-15.334,0-31.667,1-49,3v222h19c68,0,132.166,9.667,192.5,29
	c60.333,19.333,126.166,46.667,197.5,82c12.666,6,25.666,11,39,15v188c28,11.333,58.333,17,91,17
	C1426,1137,1523.666,1106.333,1639,1045z M1639,618V429c-112.667,60.667-214.667,91-306,91c-30,0-56-2.667-78-8v196
	C1353.666,736,1481.666,706,1639,618z M295,256c0,23.333-5.834,44.667-17.5,64c-11.667,19.333-27.167,34.667-46.5,46v1266
	c0,9.333-3,17-9,23s-13.667,9-23,9h-64c-9.334,0-17-3-23-9s-9-13.667-9-23V366c-19.334-11.333-34.834-26.667-46.5-46
	C44.833,300.667,39,279.333,39,256c0-35.333,12.5-65.5,37.5-90.5S131.666,128,167,128c35.333,0,65.5,12.5,90.5,37.5
	S295,220.667,295,256z M1767,320v763c0,26-11.667,45-35,57c-6.667,3.333-12.334,6.333-17,9c-145.334,77.333-268.334,116-369,116
	c-58.667,0-111.334-11.667-158-35l-28-14c-42.667-22-75.667-38-99-48c-23.334-10-53.667-19.667-91-29
	c-37.334-9.333-75.334-14-114-14c-68,0-146.5,14.667-235.5,44s-165.167,63.333-228.5,102c-10,6-21,9-33,9
	c-10.667,0-21.334-2.667-32-8c-21.334-12.667-32-31.333-32-56V474c0-23.333,10.333-41.667,31-55c23.333-14,49.5-28.167,78.5-42.5
	s67-31.667,114-52S616.333,287.667,671,275c54.666-12.667,106.333-19,155-19c74.666,0,144.333,10.333,209,31
	c64.666,20.667,134.333,49.333,209,86c25.333,12.667,55,19,89,19c81.333,0,184.666-37.333,310-112c14.666-8,25-13.667,31-17
	c20.666-10.667,41.333-10,62,2C1756.666,278.333,1767,296.667,1767,320z"/>
</svg>
