
<svg xmlns="http://www.w3.org/2000/svg"  x="0px" y="0px"
	 width="50px" height="50px" viewBox="0 0 50 50" enable-background="new 0 0 50 50" xml:space="preserve">
<g>
	<path fill="#979797" d="M24.929,40.929c-1.198,1.999-2.317,3.889-3.461,5.763
		c-0.733,1.202-1.689,1.557-2.571,1.007c-1.061-0.664-1.246-1.556-0.507-2.843c1.063-1.855,2.168-3.685,3.373-5.723
		c-6.603,0-13.023,0-19.588,0c0-9.54,0-18.92,0-28.395c-0.611-0.064-1.092-0.115-1.674-0.176c0-1.706,0-3.429,0-5.318
		c7.493,0,14.982,0,22.609,0c0-1.195,0-2.235,0-3.368c1.287,0,2.435,0,3.723,0c0,1.09,0,2.129,0,3.334c7.623,0,15.108,0,22.668,0
		c0,1.852,0,3.536,0,5.317c-0.465,0.056-0.941,0.113-1.615,0.192c0,9.387,0,18.8,0,28.314c-6.597,0-12.999,0-19.715,0
		c1.124,1.905,2.137,3.593,3.122,5.295c0.294,0.512,0.802,1.142,0.693,1.587c-0.171,0.704-0.669,1.658-1.238,1.841
		c-0.56,0.18-1.655-0.267-2.03-0.794c-1.192-1.671-2.151-3.508-3.211-5.277C25.356,41.437,25.155,41.221,24.929,40.929z M5,8
		c0,8.297,0,19.852,0,28c12.784,0,27.319,0,40,0c0-8.265,0-19.813,0-28C32.244,8,17.741,8,5,8z"/>
	<path fill="#979797" d="M22.503,21.011c-2.496,0-4.896,0-7.461,0c0,2.558,0,4.999,0,7.436
		c-4.324-0.106-7.559-3.419-7.526-7.542c0.029-3.985,3.41-7.384,7.389-7.43C19.049,13.428,22.341,16.6,22.503,21.011z"/>
	<path fill="#979797" d="M28.556,16.5c0-1.003,0-1.959,0-3c4.09,0,9.261,0,13.444,0c0,0.95,0,1.933,0,3
		C37.928,16.5,32.726,16.5,28.556,16.5z"/>
	<path fill="#979797" d="M18.85,30.873c0-2.381,0-4.663,0-7.042c2.338,0,4.652,0,6.969,0
		C26.652,28.209,23.722,31.142,18.85,30.873z"/>
</g>
<path fill="#979797" d="M28.556,23.5c0-1.003,0-1.959,0-3c4.09,0,9.261,0,13.444,0c0,0.949,0,1.933,0,3
	C37.928,23.5,32.726,23.5,28.556,23.5z"/>
<path fill="#979797" d="M28.556,30.5c0-1.003,0-1.959,0-3c4.09,0,9.261,0,13.444,0c0,0.949,0,1.933,0,3
	C37.807,30.5,32.844,30.5,28.556,30.5z"/>
</svg>
