<?xml version="1.0" encoding="utf-8"?>
<svg xmlns="http://www.w3.org/2000/svg"  x="0px" y="0px"
	 width="512px" height="512px" viewBox="0 0 512 512" enable-background="new 0 0 512 512" xml:space="preserve">
<g>
	<g>
		<path fill="#979797" d="M2.729,243.658c0-23.35-0.043-46.697,0.015-70.046c0.034-13.317,5.106-18.331,18.392-18.342
			c27.593-0.022,55.19,0.149,82.78-0.201c3.491-0.044,7.649-1.959,10.291-4.345c8.738-7.891,16.623-16.729,25.387-24.588
			c14.92-13.378,32.412-20.738,52.734-20.406c11.544,0.19,23.248-0.574,34.578,1.117c9.095,1.357,17.677,5.946,26.612,8.702
			c2.501,0.773,5.999,1.15,8.081-0.013c12.272-6.859,25.336-10.156,39.298-9.784c16.938,0.453,34.053-0.154,50.758,2.135
			c21.266,2.915,35.875,17.652,49.507,32.993c2.507,2.819,5.34,5.471,7.257,8.661c6.387,10.631,15.275,13.868,27.673,13.11
			c19.029-1.163,38.187-0.325,57.292-0.303c13.765,0.016,18.559,4.576,18.577,18.015c0.053,44.575,0.055,89.149-0.005,133.723
			c-0.02,13.618-4.626,18.022-18.485,18.032c-28.535,0.023-57.074,0.1-85.61-0.09c-4.354-0.028-6.525,1.297-8.58,5.254
			c-7.958,15.313-21.015,24.25-37.467,28.85c-3.343,0.935-6.954,2.917-9.178,5.505c-9.296,10.822-20.209,18.896-34.062,22.887
			c-2.092,0.6-4.094,2.223-5.651,3.843c-12.348,12.817-27.129,20.017-45.12,20.218c-1.82,0.022-3.827,0.287-5.424,1.084
			c-29.301,14.622-57.174,8.686-81.882-9.227c-19.319-14.005-35.979-31.71-53.602-48.006c-8.987-8.313-17.261-17.401-26.355-25.586
			c-2.794-2.516-7.215-4.449-10.929-4.517c-22.634-0.41-45.278-0.192-67.919-0.21c-14.421-0.01-18.926-4.527-18.952-19.125
			C2.701,289.881,2.729,266.77,2.729,243.658z M338.1,338.303c15.672,3.268,28.163-1.476,35.587-13.242
			c6.427-10.185,4.953-23.944-3.872-35.516c-5.43-7.121-10.821-14.273-16.429-21.253c-11.896-14.792-23.922-29.483-36.383-44.818
			c-9.639,10.782-18.342,20.339-26.845,30.07c-15.974,18.286-35.834,24.997-59.632,20.559
			c-39.973-7.452-58.911-54.321-34.783-86.876c7.28-9.822,15.709-18.793,23.626-28.142c5.672-6.698,11.372-13.374,17.197-20.223
			c-11.767-5.554-41.692-7.675-56.451-3.331c-6.598,1.942-13.521,4.95-18.611,9.401c-12.392,10.834-23.636,22.973-35.736,34.16
			c-2.584,2.388-6.774,3.961-10.334,4.189c-9.096,0.581-18.255,0.194-27.696,0.194c0,40.462,0,80.183,0,120.866
			c17.125-3.896,27.217,6.367,37.511,16.91c13.663,13.994,27.845,27.48,41.777,41.213c12.078,11.903,23.63,24.557,39.619,31.414
			c16.691,7.157,33.159,8.549,48.813-3.183c1.473-1.104,4.317-0.871,6.419-0.561c14.589,2.166,27.843-4.571,34.892-17.422
			c1.078-1.968,3.916-3.914,6.134-4.163C320.868,366.521,333.252,356.192,338.1,338.303z M427.036,190.554
			c-4.072,0-7.669-0.475-11.087,0.1c-6.997,1.179-11.318-2.153-15.503-7.184c-8.89-10.688-18.221-21.012-27.346-31.505
			c-9.779-11.241-21.981-17.646-36.973-17.941c-13.199-0.261-26.414-0.239-39.612-0.001c-11.029,0.198-21.058,3.768-28.449,12.129
			c-17.005,19.244-33.857,38.636-50.259,58.394c-7.042,8.483-6.707,18.365-1.161,27.757c9.762,16.537,33.501,20.178,47.85,7.179
			c5.389-4.883,10.025-10.606,14.887-16.055c10.04-11.254,19.931-22.646,30.029-33.849c4.368-4.848,9.847-7.727,16.417-5.168
			c6.605,2.57,9.584,7.59,9.266,15.02c-0.106,2.512,2.16,5.441,3.973,7.667c15.61,19.176,31.397,38.209,47.068,57.336
			c9.451,11.534,18.04,23.56,19.67,39.089c7.396,0,14.116,0,21.235,0C427.036,265.964,427.036,228.796,427.036,190.554z
			 M44.88,275.518c-8.364,0.053-13.934,5.892-13.813,14.475c0.116,8.146,5.699,13.789,13.739,13.891
			c8.204,0.101,14.302-5.943,14.29-14.165C59.084,281.379,53.16,275.465,44.88,275.518z M470.037,275.522
			c-8.435-0.146-14.166,5.49-14.259,14.022c-0.09,8.194,5.316,14.019,13.291,14.319c8.306,0.317,14.49-5.436,14.739-13.703
			C484.055,281.887,478.199,275.663,470.037,275.522z"/>
	</g>
</g>
</svg>
