
<svg xmlns="http://www.w3.org/2000/svg"  x="0px" y="0px"
	 width="792px" height="792px" viewBox="0 0 792 792" enable-background="new 0 0 792 792" xml:space="preserve">
<path fill="#979797" d="M25.071,436.228c33.531-0.038,67.065,0.014,100.596-0.227c4.362-0.031,8.86-1.125,13.045-2.49
	c16.024-5.229,24.06-17.252,20.261-33.651c-6.248-26.988,0.648-51.6,21.823-66.138c25.697-17.643,49.754-12.747,71.115,6.181
	c13.066,11.576,20.944,26.799,16.714,46.344c-5.755,26.589,13.043,49.514,40.352,49.854c15.542,0.194,31.101-0.316,46.639-0.89
	c15.342-0.566,22.846,5.42,23.918,20.671c0.604,8.577,0.022,17.228,0.194,25.84c0.272,13.818,0.965,27.632,1.033,41.449
	c0.061,12.505-9.523,21.847-20.994,18.664c-24.451-6.778-41.791,4.62-58.715,19.597c-35.441,31.366-30.639,89.917-3.783,117.056
	c11.299,11.419,24.262,19.598,38.668,25.268c6.356,2.507,14.52,1.635,21.643,0.669c10.106-1.364,15.643,0.251,19.747,9.651
	c2.102,4.815,3.045,10.404,3.292,15.701c0.505,10.811,0.2,21.661,0.196,32.493c0,2.219,0.029,4.461-0.259,6.656
	c-1.308,9.984-7.55,16.133-17.613,16.818c-6.148,0.423-12.345,0.146-18.52,0.147c-99.312,0.031-198.624,0.084-297.936,0.031
	c-7.14-0.005-14.279-0.772-21.417-1.186C25.071,668.567,25.071,552.397,25.071,436.228z"/>
<path fill="#979797" d="M380.91,7.145c-0.021,34.025-0.528,109.472,0.217,143.479c0.507,23.118,27.118,41.114,49.535,34.853
	c6.393-1.786,12.795-3.817,19.334-4.75c24.18-3.451,64.528,30.848,63.636,65.819c-0.945,37.021-38.153,56.62-65.878,54.14
	c-5.598-0.502-11.105-2.169-16.618-3.458c-25.263-5.899-50.009,13.388-50.234,39.291c-0.076,8.643,0.374,17.294,0.163,25.929
	c-0.275,11.323-5.272,17.334-16.58,17.809c-16.262,0.684-32.712,1.405-48.829-0.291c-15.449-1.625-20.212-8.751-16.618-22.465
	c2.935-11.19,0.829-21.292-4.799-31.275c-6.549-11.61-11.952-23.932-22.875-32.387c-18.571-14.371-38.535-25.523-63.071-22.607
	c-22.118,2.627-39.454,14.777-54.237,30.631c-10.731,11.508-19.977,24.091-20.02,40.9c-0.016,6.393,0.764,12.784,0.915,19.183
	c0.305,13.129-4.909,18.717-18.112,18.605c-30.591-0.26-61.18-0.838-91.769-1.289c0-110.119,0-261.642,0-372.118
	C147.982,7.146,260.399,7.145,380.91,7.145z"/>
<path fill="#979797" d="M768.044,763.341c0.001,16.389-6.046,22.627-22.249,22.632c-91.931,0.017-183.859,0.007-275.79-0.077
	c-4.164-0.003-8.447-0.341-12.464-1.357c-9.663-2.439-19.265-8.159-19.265-18.063c0-12.098,0.243-24.221,1.09-36.281
	c1.253-17.772-1.567-33.775-15.176-46.854c-6.936-6.666-14.662-8.229-23.163-5.927c-25.884,7.003-45.528-3.575-60.125-23.276
	c-14.494-19.561-12.728-41.751-2.184-62.579c10.254-20.259,34.05-30.771,57.823-27.562c25.747,3.476,42.702-11.016,43.039-37.821
	c0.241-19.494-0.912-39.001-1.149-58.504c-0.07-5.885,0.234-11.909,1.453-17.638c1.924-9.037,13.512-14.958,22.728-15.143
	c18.766-0.374,37.617-0.929,56.307,0.401c22.148,1.576,37.709,27.458,31.358,49.869c-1.681,5.925-3.831,11.868-4.402,17.931
	c-1.844,19.593,13.856,43.899,33.868,53.313c13.961,6.569,38.242,6.627,56.013-8.949c19.588-17.166,25.06-36.693,18.193-61.024
	c-4.858-17.21-1.65-32.173,13.34-43.651c6.298-4.82,12.762-8.195,20.871-8.244c19.262-0.116,38.522-0.537,57.786-0.642
	c12.946-0.07,18.992,5.125,20.903,18.139"/>
</svg>
