<svg xmlns="http://www.w3.org/2000/svg"   x="0px" y="0px"
	 width="1792px" height="1792px" viewBox="0 0 1792 1792" enable-background="new 0 0 1792 1792" xml:space="preserve">
<path fill="#979797" d="M1154.208,527.13c0,9.99-3.65,18.635-10.949,25.936c-7.303,7.3-15.948,10.951-25.937,10.951
	c-9.991,0-18.636-3.651-25.937-10.951c-7.302-7.301-10.951-15.946-10.951-25.936c0-35.351-20.748-62.631-62.246-81.843
	c-41.498-19.213-82.228-28.818-122.188-28.818c-9.99,0-18.636-3.651-25.936-10.951c-7.301-7.299-10.951-15.945-10.951-25.937
	c0-9.99,3.649-18.636,10.951-25.936c7.3-7.3,15.946-10.951,25.936-10.951c38.424,0,76.655,6.147,114.696,18.443
	c38.039,12.296,71.467,33.046,100.285,62.247S1154.208,487.167,1154.208,527.13z M1338.645,527.13
	c0-55.331-13.256-106.819-39.769-154.465c-26.513-47.646-61.095-86.646-103.745-117.001
	c-42.651-30.355-89.912-54.178-141.784-71.469c-51.873-17.291-104.32-25.936-157.347-25.936c-53.025,0-105.474,8.646-157.346,25.936
	c-51.873,17.291-99.134,41.113-141.784,71.469c-42.651,30.355-77.233,69.355-103.746,117.001
	c-26.512,47.646-39.769,99.134-39.769,154.465c0,77.616,26.127,146.779,78.385,207.489c7.684,8.454,19.404,21.133,35.158,38.041
	c15.753,16.907,27.473,29.586,35.158,38.04c98.365,117.578,152.543,232.08,162.534,343.509h262.82
	c9.989-111.43,64.167-225.932,162.534-343.509c7.683-8.453,19.403-21.133,35.158-38.04c15.752-16.907,27.473-29.587,35.157-38.041
	C1312.516,673.909,1338.645,604.746,1338.645,527.13z M1486.193,527.13c0,119.114-39.577,222.091-118.73,308.929
	c-34.581,37.656-63.208,71.085-85.877,100.286c-22.672,29.202-45.532,65.898-68.587,110.085
	c-23.054,44.188-36.12,85.495-39.191,123.918c36.116,21.519,54.177,53.025,54.177,94.523c0,28.435-9.606,53.024-28.817,73.773
	c19.211,20.749,28.817,45.341,28.817,73.774c0,39.962-17.291,71.085-51.872,93.37c9.988,17.675,14.986,35.734,14.986,54.178
	c0,35.352-12.104,62.63-36.313,81.844c-24.206,19.212-53.986,28.817-89.335,28.817c-15.372,33.813-38.426,60.711-69.164,80.69
	c-30.739,19.979-64.168,29.972-100.286,29.972c-36.12,0-69.548-9.992-100.286-29.972c-30.74-19.979-53.794-46.878-69.164-80.69
	c-35.351,0-65.128-9.605-89.336-28.817c-24.208-19.214-36.311-46.492-36.311-81.844c0-18.443,4.994-36.503,14.985-54.178
	c-34.582-22.285-51.873-53.408-51.873-93.37c0-28.434,9.605-53.025,28.818-73.774c-19.213-20.749-28.818-45.339-28.818-73.773
	c0-41.498,18.059-73.005,54.178-94.523c-3.075-38.423-16.139-79.73-39.193-123.918c-23.054-44.187-45.917-80.883-68.586-110.085
	c-22.671-29.2-51.296-62.63-85.878-100.286c-79.154-86.838-118.73-189.815-118.73-308.929c0-76.08,17.098-146.972,51.296-212.677
	c34.197-65.705,79.153-120.268,134.868-163.686c55.714-43.418,118.73-77.617,189.045-102.592
	C751.334,23.199,822.994,10.711,896,10.711c73.005,0,144.667,12.488,214.981,37.463c70.316,24.975,133.331,59.174,189.048,102.592
	c55.714,43.418,100.67,97.981,134.868,163.686C1469.093,380.158,1486.193,451.05,1486.193,527.13z"/>
</svg>
