<svg version="1.1" id="Layer_1" xmlns="http://www.w3.org/2000/svg" x="0px" y="0px"
	 width="1792px" height="1792px" viewBox="0 0 1792 1792" enable-background="new 0 0 1792 1792" xml:space="preserve">
<path fill="#979797" d="M1771.52,1443.2v109.44H20.48V239.36h109.44V1443.2H1771.52z M1662.08,376.16v371.925c0,11.97-5.558,20.377-16.673,25.223
	c-11.114,4.845-21.233,2.708-30.352-6.413L1511.6,663.44l-541.215,541.215c-5.7,5.7-12.255,8.55-19.665,8.55
	s-13.965-2.85-19.664-8.55L731.841,1005.44L376.16,1361.12L212,1196.96l500.175-500.175c5.7-5.7,12.255-8.55,19.666-8.55
	c7.409,0,13.964,2.85,19.665,8.55L950.72,896l396.721-396.72l-103.456-103.455c-9.119-9.12-11.257-19.238-6.412-30.353
	c4.845-11.115,13.253-16.672,25.223-16.672h371.925c7.98,0,14.535,2.565,19.665,7.695
	C1659.516,361.625,1662.08,368.18,1662.08,376.16z"/>
</svg>
