
<svg xmlns="http://www.w3.org/2000/svg"   x="0px" y="0px"
	 width="1792px" height="1792px" viewBox="0 0 1792 1792" enable-background="new 0 0 1792 1792" xml:space="preserve">
<path fill="#979797" d="M1756.904,131.042c16.134,11.524,24.201,26.795,24.201,45.811v1217.02c0,11.523-3.17,21.896-9.508,31.116
	c-6.339,9.221-14.693,15.847-25.066,19.881l-553.191,221.276c-13.829,6.338-27.659,6.338-41.488,0l-532.446-212.634L86.96,1666.146
	c-5.764,2.88-12.678,4.321-20.745,4.321c-10.949,0-21.321-3.17-31.117-9.508c-16.135-11.525-24.202-26.796-24.202-45.812V398.129
	c0-11.525,3.168-21.897,9.507-31.117c6.339-9.22,14.695-15.847,25.067-19.881l553.19-221.276c13.83-6.339,27.66-6.339,41.49,0
	l532.446,212.632l532.446-212.632C1723.48,118.364,1740.768,120.093,1756.904,131.042z M647.065,247.73v1097.737l497.872,198.803
	V446.533L647.065,247.73z M121.534,435.296v1097.737l470.212-187.566V247.73L121.534,435.296z M1670.467,1356.704V258.967
	l-470.212,187.566V1544.27L1670.467,1356.704z"/>
</svg>
