<?xml version="1.0" encoding="utf-8"?>
<svg version="1.1" id="Layer_1" xmlns="http://www.w3.org/2000/svg" x="0px" y="0px"
	 width="1792px" height="1792px" viewBox="0 0 1792 1792" enable-background="new 0 0 1792 1792" xml:space="preserve">
<path fill="#979797" d="M991.792,1625.077c0-25.458-9.575-47.253-28.727-65.383c-19.15-18.131-42.172-27.194-69.065-27.194
	c-26.893,0-49.916,9.063-69.065,27.194c-19.152,18.13-28.727,39.925-28.727,65.383c0,25.46,9.575,47.253,28.727,65.385
	c19.15,18.13,42.173,27.193,69.065,27.193c26.894,0,49.915-9.063,69.065-27.193C982.217,1672.33,991.792,1650.537,991.792,1625.077z
	 M1255.251,1435.5v-1166c0-14.355-3.95-26.777-11.85-37.266c-7.901-10.49-17.257-15.734-28.066-15.734H576.666
	c-10.811,0-20.167,5.245-28.066,15.734c-7.901,10.489-11.85,22.911-11.85,37.266v1166c0,14.354,3.949,26.775,11.85,37.265
	c7.899,10.49,17.255,15.735,28.066,15.735h638.669c10.81,0,20.165-5.245,28.066-15.735
	C1251.301,1462.275,1255.251,1449.854,1255.251,1435.5z M1015.75,122.366c0-14.755-6.654-22.133-19.958-22.133H796.208
	c-13.306,0-19.959,7.378-19.959,22.133c0,14.756,6.653,22.134,19.959,22.134h199.584
	C1009.096,144.5,1015.75,137.122,1015.75,122.366z M1375.001,190.441v1416.547c0,47.957-15.8,89.458-47.4,124.501
	c-31.602,35.045-69.024,52.568-112.266,52.568H576.666c-43.243,0-80.666-17.523-112.266-52.568
	c-31.601-35.043-47.401-76.544-47.401-124.501V190.441c0-47.956,15.8-89.456,47.401-124.501
	C496,30.895,533.423,13.373,576.666,13.373h638.669c43.241,0,80.664,17.522,112.266,52.567
	C1359.201,100.985,1375.001,142.485,1375.001,190.441z"/>
</svg>
