<?xml version="1.0" encoding="utf-8"?>
<svg version="1.1" id="Layer_1" xmlns="http://www.w3.org/2000/svg" x="0px" y="0px"
	 width="1792px" height="1792px" viewBox="0 0 1792 1792" enable-background="new 0 0 1792 1792" xml:space="preserve">
<path fill="#979797" d="M1378.771,849.43l13.972,245.267c2.07,35.703-19.146,68.819-63.645,99.349c-44.5,30.527-105.3,54.718-182.397,72.571
	c-77.101,17.852-160.666,26.776-250.7,26.776s-173.602-8.925-250.7-26.776c-77.099-17.854-137.898-42.044-182.397-72.571
	c-44.5-30.529-65.715-63.646-63.645-99.349l13.971-245.267l445.516,140.486c11.383,3.621,23.801,5.433,37.255,5.433
	c13.453,0,25.871-1.812,37.257-5.433L1378.771,849.43z M1790.137,597.955c0,11.9-5.693,19.922-17.076,24.061L903.762,895.224
	c-2.07,0.517-4.657,0.776-7.762,0.776c-3.105,0-5.692-0.259-7.761-0.776L382.182,735.335c-22.25,17.593-40.619,46.44-55.107,86.542
	c-14.488,40.102-23.285,86.283-26.39,138.545c32.599,18.627,48.898,46.827,48.898,84.601c0,35.704-15.006,63.387-45.018,83.05
	l45.018,336.076c1.034,7.244-1.036,13.713-6.209,19.404c-4.657,5.692-10.866,8.538-18.628,8.538H175.724
	c-7.762,0-13.971-2.846-18.628-8.538c-5.174-5.691-7.245-12.16-6.209-19.404l45.018-336.076
	c-30.012-19.663-45.018-47.346-45.018-83.05c0-37.773,16.816-66.491,50.45-86.153c5.692-107.11,31.047-192.488,76.064-256.133
	L18.94,622.016c-11.384-4.139-17.076-12.161-17.076-24.061c0-11.901,5.691-19.921,17.076-24.061l869.299-273.208
	c2.069-0.517,4.656-0.776,7.761-0.776c3.104,0,5.691,0.259,7.762,0.776l869.299,273.208
	C1784.444,578.033,1790.137,586.054,1790.137,597.955z"/>
</svg>
