
<svg xmlns="http://www.w3.org/2000/svg"   x="0px" y="0px"
	 width="1792px" height="1792px" viewBox="0 0 1792 1792" enable-background="new 0 0 1792 1792" xml:space="preserve">
<path fill="#979797" d="M896,555.405H564.086v331.915H896V555.405z M1006.639,1108.596v110.638H453.448v-110.638H1006.639z M1006.639,444.767
	v553.19H453.448v-553.19H1006.639z M1559.828,1108.596v110.638h-442.552v-110.638H1559.828z M1559.828,887.319v110.638h-442.552
	V887.319H1559.828z M1559.828,666.043v110.638h-442.552V666.043H1559.828z M1559.828,444.767v110.638h-442.552V444.767H1559.828z
	 M232.172,1274.553V444.767H121.534v829.786c0,14.98,5.474,27.947,16.423,38.896c10.948,10.949,23.914,16.424,38.896,16.424
	c14.982,0,27.947-5.475,38.896-16.424C226.697,1302.5,232.172,1289.533,232.172,1274.553z M1670.467,1274.553V334.129H342.81
	v940.424c0,19.015-3.169,37.455-9.508,55.319h1281.846c14.981,0,27.947-5.475,38.896-16.424
	C1664.992,1302.5,1670.467,1289.533,1670.467,1274.553z M1781.105,223.49v1051.063c0,46.099-16.135,85.283-48.403,117.553
	c-32.271,32.27-71.454,48.403-117.554,48.403H176.853c-46.1,0-85.284-16.134-117.553-48.403
	c-32.27-32.27-48.404-71.454-48.404-117.553V334.129h221.276V223.49H1781.105z"/>
</svg>
