<svg xmlns="http://www.w3.org/2000/svg"  x="0px" y="0px"
	 width="1792px" height="1792px" viewBox="0 0 1792 1792" enable-background="new 0 0 1792 1792" xml:space="preserve">
<g enable-background="new    ">
	<path fill="#979797" d="M836.602,1251.299c-92.4,0-168.301-20.898-233.201-50.6l24.2-152.9c60.5,29.699,130.9,53.9,207.901,53.9
		c74.8,0,129.801-37.4,129.801-104.502c0-60.5-40.701-96.8-113.301-96.8c-45.1,0-78.1,9.9-106.701,22.001L632,897.098l25.3-403.702
		h438.903l23.1,148.5H795.901l-8.8,132.001c25.3-6.6,59.4-13.2,105.601-13.2c144.101,0,244.202,79.201,244.202,227.702
		C1136.903,1158.899,1011.502,1251.299,836.602,1251.299z"/>
</g>
<path fill="#979797" d="M1730.05,140.47l6.931,1461.989c0,51.721-48.051,93.561-107.431,93.561l-1486.03,6.932c-51.72,0-93.569-48.04-93.569-107.42
	L43.02,133.54c0-51.721,48.05-93.561,107.431-93.561L1636.48,33.04C1688.199,33.04,1730.05,81.09,1730.05,140.47z M1572.59,1462.909
	L1566.97,278.7c0-48.101-33.891-87.011-75.79-87.011L287.49,197.3c-48.09,0-87.01,33.9-87.01,75.79l5.61,1184.21
	c0,48.09,33.899,87.01,75.79,87.01l1203.689-5.608C1533.67,1538.699,1572.59,1504.8,1572.59,1462.909z"/>
</svg>
