<svg xmlns="http://www.w3.org/2000/svg"  x="0px" y="0px"
	 width="1792px" height="1792px" viewBox="0 0 1792 1792" enable-background="new 0 0 1792 1792" xml:space="preserve">
<g enable-background="new    ">
	<path fill="#979797" d="M777.201,818.997c53.9-35.2,110-53.9,179.301-53.9c115.501,0,211.201,72.601,211.201,224.401
		c0,158.4-119.9,261.801-276.102,261.801c-169.401,0-286.001-108.9-286.001-314.602c0-266.201,183.701-411.402,430.103-458.702
		l22,145.201C918.002,655.096,813.501,713.397,777.201,818.997z M770.601,937.798c1.1,125.401,52.8,180.401,121,180.401
		c63.801,0,105.601-45.102,105.601-116.602s-35.2-106.7-104.5-106.7C849.802,894.898,810.201,911.399,770.601,937.798z"/>
</g>
<path fill="#979797" d="M1730.05,140.47l6.931,1461.989c0,51.721-48.051,93.561-107.431,93.561l-1486.03,6.932c-51.72,0-93.569-48.04-93.569-107.42
	L43.02,133.54c0-51.721,48.05-93.561,107.431-93.561L1636.48,33.04C1688.199,33.04,1730.05,81.09,1730.05,140.47z M1572.59,1462.909
	L1566.97,278.7c0-48.101-33.891-87.011-75.79-87.011L287.49,197.3c-48.09,0-87.01,33.9-87.01,75.79l5.61,1184.21
	c0,48.09,33.899,87.01,75.79,87.01l1203.689-5.608C1533.67,1538.699,1572.59,1504.8,1572.59,1462.909z"/>
</svg>
