<svg xmlns="http://www.w3.org/2000/svg"  x="0px" y="0px"
     width="1792px" height="1792px" viewBox="0 0 1792 1792" enable-background="new 0 0 1792 1792" xml:space="preserve">
<path
   style="fill:#979797"

   id="path2"
   d="M 632,1244.003 V 672 l -148.501,58.3 -20.9,-143 190.301,-88 h 163.901 v 744.703 z" />
<path
   fill="#979797"
   d="M1730.05,140.47l6.931,1461.989c0,51.721-48.051,93.561-107.431,93.561l-1486.03,6.932c-51.72,0-93.569-48.04-93.569-107.42  L43.02,133.54c0-51.721,48.05-93.561,107.431-93.561L1636.48,33.04C1688.199,33.04,1730.05,81.09,1730.05,140.47z M1572.59,1462.909  L1566.97,278.7c0-48.101-33.891-87.011-75.79-87.011L287.49,197.3c-48.09,0-87.01,33.9-87.01,75.79l5.61,1184.21  c0,48.09,33.899,87.01,75.79,87.01l1203.689-5.608C1533.67,1538.699,1572.59,1504.8,1572.59,1462.909z"
   id="path8" />
<path
   style="fill:#979797"

   id="path2-0"
   d="M 1078,1244.0031 V 672 l -148.501,58.3 -20.90003,-143 190.30103,-88 h 163.901 v 744.7031 z" /></svg>