<svg xmlns="http://www.w3.org/2000/svg"  x="0px" y="0px"
	 width="1792px" height="1792px" viewBox="0 0 1792 1792" enable-background="new 0 0 1792 1792" xml:space="preserve">
<g enable-background="new    ">
	<path fill="#979797" d="M1006.202,922.399c-53.899,34.1-108.9,52.8-171.601,52.8c-124.301,0-215.602-73.7-215.602-229.901
		c0-163.901,118.801-266.202,276.102-266.202c168.301,0,286.002,108.901,286.002,314.602c0,267.301-185.901,412.502-440.002,458.703
		l-20.9-145.201C864.302,1079.699,968.803,1023.598,1006.202,922.399z M1016.103,804.698v-2.2
		c0-133.101-51.7-190.301-121.001-190.301c-62.7,0-105.601,44-105.601,121.001c0,75.9,35.2,112.201,105.601,112.201
		C935.802,845.398,975.402,832.198,1016.103,804.698z"/>
</g>
<path fill="#979797" d="M1730.05,140.47l6.931,1461.989c0,51.721-48.051,93.561-107.431,93.561l-1486.03,6.932c-51.72,0-93.569-48.04-93.569-107.42
	L43.02,133.54c0-51.721,48.05-93.561,107.431-93.561L1636.48,33.04C1688.199,33.04,1730.05,81.09,1730.05,140.47z M1572.59,1462.909
	L1566.97,278.7c0-48.101-33.891-87.011-75.79-87.011L287.49,197.3c-48.09,0-87.01,33.9-87.01,75.79l5.61,1184.21
	c0,48.09,33.899,87.01,75.79,87.01l1203.689-5.608C1533.67,1538.699,1572.59,1504.8,1572.59,1462.909z"/>
</svg>
