<svg xmlns="http://www.w3.org/2000/svg"  x="0px" y="0px"
	 width="1792px" height="1792px" viewBox="0 0 1792 1792" enable-background="new 0 0 1792 1792" xml:space="preserve">
<g enable-background="new    ">
	<path fill="#979797" d="M514.101,1237V664.997l-148.501,58.3l-20.9-143l190.301-88h163.901V1237H514.101z"/>
	<path fill="#979797" d="M1123.499,1251.299c-185.901,0-310.202-137.5-310.202-386.102c0-248.601,124.3-386.102,310.202-386.102
		c184.801,0,308.002,137.501,308.002,386.102C1431.501,1113.799,1308.3,1251.299,1123.499,1251.299z M1123.499,618.796
		c-85.8,0-127.601,88-127.601,246.401c0,158.4,41.801,246.402,127.601,246.402c85.801,0,126.501-88.002,126.501-246.402
		C1250,706.797,1209.3,618.796,1123.499,618.796z"/>
</g>
<path fill="#979797" d="M1730.05,140.47l6.931,1461.989c0,51.721-48.051,93.561-107.431,93.561l-1486.03,6.932c-51.72,0-93.569-48.04-93.569-107.42
	L43.02,133.54c0-51.721,48.05-93.561,107.431-93.561L1636.48,33.04C1688.199,33.04,1730.05,81.09,1730.05,140.47z M1572.59,1462.909
	L1566.97,278.7c0-48.101-33.891-87.011-75.79-87.011L287.49,197.3c-48.09,0-87.01,33.9-87.01,75.79l5.61,1184.21
	c0,48.09,33.899,87.01,75.79,87.01l1203.689-5.608C1533.67,1538.699,1572.59,1504.8,1572.59,1462.909z"/>
</svg>
