<svg xmlns="http://www.w3.org/2000/svg"  x="0px" y="0px"
	 width="1792px" height="1792px" viewBox="0 0 1792 1792" enable-background="new 0 0 1792 1792" xml:space="preserve">
<g enable-background="new    ">
	<path fill="#979797" d="M888.302,1251.299c-95.701,0-181.501-23.1-244.202-58.299l23.1-143.002c61.601,34.102,130.901,55,204.601,55
		c72.601,0,117.701-29.699,117.701-85.799c0-60.502-40.7-94.602-144.101-94.602h-62.7l-22-136.401h79.201
		c94.601,0,135.301-34.1,135.301-86.9c0-47.3-35.2-75.9-106.701-75.9c-68.2,0-134.201,23.1-190.301,61.601l-23.1-139.701
		c58.3-39.6,143.001-68.2,240.901-68.2c166.101,0,260.702,80.301,260.702,195.801c0,97.9-53.9,147.401-130.9,176.001
		c89.1,28.6,143,80.3,143,178.2C1168.803,1173.199,1048.902,1251.299,888.302,1251.299z"/>
</g>
<path fill="#979797" d="M1730.05,140.47l6.931,1461.989c0,51.721-48.051,93.561-107.431,93.561l-1486.03,6.932c-51.72,0-93.569-48.04-93.569-107.42
	L43.02,133.54c0-51.721,48.05-93.561,107.431-93.561L1636.48,33.04C1688.199,33.04,1730.05,81.09,1730.05,140.47z M1572.59,1462.909
	L1566.97,278.7c0-48.101-33.891-87.011-75.79-87.011L287.49,197.3c-48.09,0-87.01,33.9-87.01,75.79l5.61,1184.21
	c0,48.09,33.899,87.01,75.79,87.01l1203.689-5.608C1533.67,1538.699,1572.59,1504.8,1572.59,1462.909z"/>
</svg>
