<svg xmlns="http://www.w3.org/2000/svg"  x="0px" y="0px"
	 width="1792px" height="1792px" viewBox="0 0 1792 1792" enable-background="new 0 0 1792 1792" xml:space="preserve">
<g enable-background="new    ">
	<path fill="#979797" d="M756.501,849.798c-70.4-40.7-107.801-95.701-107.801-169.401c0-127.601,114.401-201.301,266.202-201.301
		c159.5,0,257.4,80.301,257.4,191.401c0,71.5-41.8,128.701-111.1,172.701c89.1,44,133.1,99,133.1,190.301
		c0,124.301-107.8,217.801-284.9,217.801c-187.001,0-284.902-95.699-284.902-209C624.5,963.098,674,895.998,756.501,849.798z
		 M912.701,1126.998c62.701,0,110.002-38.5,110.002-92.4c0-58.3-35.201-85.8-150.702-130.9c-47.3,31.9-79.2,72.601-79.2,122.102
		C792.801,1086.299,844.501,1126.998,912.701,1126.998z M939.102,790.397c42.9-29.7,69.301-63.8,69.301-108.9
		c0-50.601-40.7-84.701-100.101-84.701c-57.2,0-95.701,34.1-95.701,80.3C812.601,724.397,844.501,754.097,939.102,790.397z"/>
</g>
<path fill="#979797" d="M1730.05,140.47l6.931,1461.989c0,51.721-48.051,93.561-107.431,93.561l-1486.03,6.932c-51.72,0-93.569-48.04-93.569-107.42
	L43.02,133.54c0-51.721,48.05-93.561,107.431-93.561L1636.48,33.04C1688.199,33.04,1730.05,81.09,1730.05,140.47z M1572.59,1462.909
	L1566.97,278.7c0-48.101-33.891-87.011-75.79-87.011L287.49,197.3c-48.09,0-87.01,33.9-87.01,75.79l5.61,1184.21
	c0,48.09,33.899,87.01,75.79,87.01l1203.689-5.608C1533.67,1538.699,1572.59,1504.8,1572.59,1462.909z"/>
</svg>
