
<svg xmlns="http://www.w3.org/2000/svg"   x="0px" y="0px"
	 width="792px" height="792px" viewBox="0 0 792 792" enable-background="new 0 0 792 792" xml:space="preserve">
<g>
	<path fill="#979797" d="M269.648,256.733c-0.526-5.521-0.507-11.163-1.704-16.534
		c-2.001-8.987-2.735-18.033-2.788-27.167c-0.081-14.01-0.413-28.039,0.115-42.029c0.646-17.146,3.124-34.044,7.355-50.777
		c2.528-9.993,5.4-19.935,9.384-29.241c5.317-12.416,12.34-24.045,20.527-35.101c9.792-13.222,22.237-22.973,36.416-29.905
		c21.903-10.709,45.453-15.349,70.058-12.954c4.458,0.433,8.956,0.484,13.437,0.714c8.717,2.428,17.479,4.708,26.14,7.327
		c5.976,1.807,11.444,4.864,16.959,7.761c10.935,5.745,19.282,14.568,27.653,23.324c6.664,6.967,11.615,15.063,16.015,23.671
		c2.905,5.686,5.896,11.256,8.279,17.214c2.764,6.922,4.804,14.014,6.955,21.124c2.342,7.736,3.562,15.603,5.13,23.47
		c4.067,20.385,3.796,40.963,4.067,61.549c0.27,20.312-1.541,40.548-6.023,60.228c-2.617,11.483-5.332,23.144-10.056,34.312
		c-3.176,7.501-5.74,15.566-9.195,22.964c-3.301,7.071-5.867,14.27-8.488,21.556c-4.169,11.584-7.938,23.282-10.536,35.29
		c-4.794,22.171-1.232,44.676-2.109,67.015c-0.104,2.626,1.565,3.894,3.856,5.178c7.739,4.337,16.359,6.632,24.148,10.801
		c11.485,5.116,23.139,9.831,34.506,15.249c10.016,4.772,20.671,8.206,30.667,13.021c10.197,4.914,20.733,9.056,31.038,13.691
		c7.362,3.314,15.01,6.318,22.504,9.485c7.748,3.272,15.58,6.389,23.313,9.7c7.279,3.113,14.678,6.093,22.105,8.923
		c4.649,1.771,9.598,3.032,13.844,5.497c4.867,2.826,10.287,3.848,15.349,5.953c5.03,2.093,10.115,4.153,15.235,6.069
		c11.418,4.276,20.13,12.562,28.479,21.168c2.651,4.81,6.462,8.793,9.338,13.514c3.491,5.735,6.584,11.553,9.629,17.526
		c4.091,8.023,6.411,16.509,9.499,24.804c1.996,5.357,2.621,10.85,2.753,16.255c0.416,17.046,0.037,34.108,0.245,51.163
		c0.051,4.168-1.41,5.02-5.326,5.02c-254.227-0.102-508.454-0.104-762.681-0.114c-3.05-0.002-6.102-0.031-9.151-0.049
		c-0.345-21.705-1.382-43.481,0.555-65.08c0.836-9.318,5.038-18.507,9.041-27.282c4.053-8.888,8.392-17.604,14.177-25.573
		c7.398-10.194,15.473-19.439,26.506-26.078c5.251-3.16,10.229-6.287,16.323-7.422c1.75-0.326,3.346-1.406,3.522-3.577
		c6.661-1.99,13.211-4.209,19.525-7.209c4.194-1.992,8.736-3.276,13.172-4.723c2.513-0.821,5.063-1.462,6.928-3.517
		c4.582,0.348,8.089-2.501,12.032-4.051c0.342-0.046,0.685-0.071,1.029-0.079c6.566-3.611,13.663-5.984,20.504-8.935
		c7.302-3.147,14.696-6.135,21.874-9.609c7.014-3.396,14.273-6.312,21.505-9.199c7.218-2.881,14.187-6.316,21.359-9.292
		c3.896-1.62,8.224-2.551,11.659-5.271c4.754,0.8,7.502-3.413,11.464-4.592c3.532-1.348,6.48-3.976,10.293-4.715
		c0.625-0.097,1.252-0.193,1.878-0.291c3.28-3.545,8.078-4.396,12.228-5.787c3.252-1.089,5.768-4.186,9.557-3.672
		c4.851,0.35,8.227-3.231,12.348-4.809c7.699-2.944,15.341-6.115,22.705-9.93c3.119-1.615,4.748-3.579,4.748-6.981
		c-0.004-17.954,0.152-35.912-0.116-53.86c-0.086-5.684-2.604-11.073-4.118-16.505c-2.236-8.024-3.964-16.309-6.931-23.993
		c-3.01-7.792-5.588-15.827-9.773-23.292c-3.855-6.877-7.481-14.205-9.078-22.111c-0.998-4.938-3.835-9.102-4.761-14.166
		c-1.109-6.077-3.029-12.058-4.217-18.181C272.052,261.174,271.311,258.732,269.648,256.733z"/>
</g>
</svg>
