<svg xmlns="http://www.w3.org/2000/svg"  x="0px" y="0px"
	 width="512px" height="512px" viewBox="0 0 512 512" enable-background="new 0 0 512 512" xml:space="preserve">
<g>
	<path fill="#979797" d="M476.792,221.434c1.865,86.152-51.66,167.177-131.619,200.319
		c-8.841,3.666-10.854,2.201-9.717-7.558c0.979-8.396,1.716-16.916,3.861-25.038c0.896-3.393,4.646-6.824,7.968-8.666
		c31.005-17.159,54.794-41.52,72.111-72.169c37.491-66.345,26.948-153.031-25.063-208.85
		c-38.718-41.552-86.438-61.625-143.206-59.385c-70.56,2.785-136.274,51.336-160.69,118.216
		c-29.212,80.021-2.744,163.831,67.306,213.112c0.248,0.173,0.46,0.445,0.733,0.527c21.391,6.487,27.3,22.993,27.632,42.969
		c0.047,2.808,0.047,6.735-1.615,8.117c-1.474,1.222-5.573,0.26-8.033-0.827c-72.246-31.912-117.015-86.799-130.657-164.283
		C29.402,164.753,74.765,74.65,155.167,31.681c81.781-43.705,161.727-36.607,236.341,16.872
		c47.53,34.069,73.926,82.742,83.571,140.385c0.646,3.869,1.489,7.75,1.638,11.649C476.988,207.526,476.792,214.483,476.792,221.434
		z"/>
	<path fill="#979797"  d="M197.461,355.87c-0.385-41.039,11.773-55.86,45.83-59.989
		c13.585-1.646,27.836-1.293,41.367,0.821c27.226,4.254,41.149,21.322,39.079,49.685c-2.282,31.24-6.97,62.321-11.142,93.401
		c-1.765,13.132-4.647,26.136-7.455,39.105c-4.707,21.757-11.581,29.09-33.514,31.646c-10.783,1.258-22.232-0.231-32.982-2.42
		c-11.146-2.271-18.426-10.562-20.862-21.677C207.82,441.018,200.417,395.188,197.461,355.87z"/>
	<path fill="#979797" clip-rule="evenodd" d="M151.823,222.165c0.02,29.26,10.887,54.151,31.019,75.007
		c4.668,4.837,5.925,8.645,2.762,14.951c-2.921,5.824-4.257,12.514-5.79,18.942c-1.606,6.733-4.318,7.897-9.938,3.512
		c-74.091-57.812-71.423-174.927,5.296-229.626c64.029-45.652,147.287-35.206,197.803,24.816
		c50.65,60.181,40.834,155.706-20.986,204.286c-6.412,5.039-8.933,4.118-10.883-4.063c-0.769-3.226-0.524-7.04-2.201-9.646
		c-8.139-12.658-2.091-20.748,6.215-31.068c27.615-34.308,32.651-73.181,14.286-113.034c-19.02-41.267-53.114-62.891-98.532-63.423
		C199.757,112.101,152.093,160.761,151.823,222.165z"/>
	<path fill="#979797"  clip-rule="evenodd" d="M197.341,212.377c0.015-34.959,28.501-63.461,63.343-63.374
		c34.843,0.087,63.476,28.765,63.376,63.47c-0.103,34.874-28.636,63.362-63.472,63.371
		C225.747,275.851,197.326,247.334,197.341,212.377z"/>
</g>
</svg>
