<svg xmlns="http://www.w3.org/2000/svg"  x="0px" y="0px"
	 width="1792px" height="1792px" viewBox="0 0 1792 1792" enable-background="new 0 0 1792 1792" xml:space="preserve">
<path fill="#979797" d="M425.123,483.875c0-32.437-11.475-60.129-34.425-83.079c-22.95-22.95-50.643-34.425-83.079-34.425
	s-60.129,11.475-83.079,34.425c-22.95,22.95-34.425,50.642-34.425,83.079c0,32.436,11.475,60.129,34.425,83.079
	c22.95,22.95,50.643,34.425,83.079,34.425s60.129-11.475,83.079-34.425C413.648,544.005,425.123,516.311,425.123,483.875z
	 M1404.629,1012.644c0,32.436-11.321,59.976-33.966,82.62l-450.738,451.655c-23.868,22.644-51.713,33.966-83.538,33.966
	c-32.436,0-59.976-11.322-82.62-33.966L97.397,889.631c-23.256-22.644-42.993-53.551-59.211-92.718
	c-16.218-39.168-24.327-74.97-24.327-107.406V307.619c0-31.825,11.628-59.365,34.883-82.62
	c23.256-23.257,50.796-34.884,82.62-34.884h381.888c32.436,0,68.238,8.108,107.406,24.327c39.168,16.218,70.38,35.955,93.636,59.211
	l656.37,655.453C1393.308,952.974,1404.629,980.82,1404.629,1012.644z M1757.141,1012.644c0,32.436-11.322,59.976-33.966,82.62
	l-450.738,451.655c-23.867,22.644-51.713,33.966-83.537,33.966c-22.033,0-40.087-4.284-54.163-12.852
	c-14.074-8.569-30.293-22.339-48.653-41.31l431.46-431.46c22.645-22.645,33.966-50.185,33.966-82.62
	c0-31.824-11.321-59.67-33.966-83.538l-656.37-655.453c-23.256-23.256-54.467-42.993-93.636-59.211
	c-39.168-16.218-74.971-24.327-107.406-24.327h205.632c32.437,0,68.238,8.108,107.406,24.327
	c39.169,16.218,70.38,35.955,93.636,59.211l656.37,655.453C1745.818,952.974,1757.141,980.82,1757.141,1012.644z"/>
</svg>
