
<svg xmlns="http://www.w3.org/2000/svg"   x="0px" y="0px"
	 width="1792px" height="1792px" viewBox="0 0 1792 1792" enable-background="new 0 0 1792 1792" xml:space="preserve">
<path fill="#979797" d="M1662.884,1220.674V335.2c0-7.994-2.92-14.912-8.762-20.753c-5.842-5.842-12.762-8.763-20.753-8.763H157.579
	c-7.994,0-14.912,2.921-20.753,8.763c-5.842,5.841-8.762,12.759-8.762,20.753v885.474c0,7.994,2.92,14.912,8.762,20.753
	c5.842,5.842,12.759,8.763,20.753,8.763h1475.79c7.991,0,14.911-2.921,20.753-8.763
	C1659.964,1235.586,1662.884,1228.668,1662.884,1220.674z M1780.948,335.2v885.474c0,40.584-14.451,75.327-43.352,104.228
	c-28.902,28.9-63.644,43.351-104.227,43.351H954.505v118.064h324.674c8.608,0,15.681,2.767,21.215,8.3
	c5.533,5.535,8.302,12.607,8.302,21.215v59.032c0,8.608-2.769,15.68-8.302,21.215c-5.534,5.533-12.606,8.3-21.215,8.3h-767.41
	c-8.61,0-15.68-2.767-21.214-8.3c-5.534-5.535-8.301-12.606-8.301-21.215v-59.032c0-8.607,2.767-15.68,8.301-21.215
	c5.534-5.533,12.604-8.3,21.214-8.3h324.673v-118.064H157.579c-40.584,0-75.327-14.45-104.228-43.351
	C24.45,1296.001,10,1261.258,10,1220.674V335.2c0-40.584,14.45-75.327,43.352-104.228c28.9-28.901,63.644-43.352,104.228-43.352
	h1475.79c40.583,0,75.324,14.45,104.227,43.352C1766.496,259.874,1780.948,294.616,1780.948,335.2z"/>
</svg>
