<svg version="1.1" xmlns="http://www.w3.org/2000/svg"   x="0px" y="0px"
	 width="792px" height="792px" viewBox="0 0 792 792" enable-background="new 0 0 792 792" xml:space="preserve">

<path fill="#979797" d="M757.883,747.675c-11.537,48.018-54.384,34.124-82.73,34.529c-195.412,2.021-390.825,2.021-586.429,0
	c-27.775-0.405-70.41,14.702-81.967-33.93c-9.57-41.151,3.725-79.495,37.172-108.146c46.361-39.741,104.851-52.657,158.05-77.281
	c63.57-29.455,108.957-61.74,48.117-141.434c-38.337-50.247-51.842-114.403-55.949-179.575
	c-5.463-87.369,14.48-161.82,94.88-203.997c78.241-40.956,153.158-36.521,219.08,26.639
	c-7.45,65.369,17.592,134.777,68.843,185.427c-2.352,35.103-11.539,69.004-25.235,102.097
	c-84.104,166.253-83.913,165.85,92.13,243.73c26.609,11.911,52.817,26.64,76.103,44.198
	C754.769,666.335,767.663,706.688,757.883,747.675z"/>

<path fill="#979797" d="M723.289,127.876c0,2.077-0.702,3.875-2.104,5.392c-1.402,1.518-3.063,2.278-4.98,2.278
	c-1.92,0-3.579-0.76-4.98-2.278c-1.402-1.518-2.104-3.315-2.104-5.392c0-7.35-3.984-13.023-11.95-17.018
	c-7.972-3.994-15.791-5.992-23.466-5.992c-1.918,0-3.579-0.759-4.979-2.276c-1.4-1.519-2.103-3.315-2.103-5.393
	s0.702-3.874,2.103-5.393c1.4-1.518,3.062-2.277,4.979-2.277c7.378,0,14.721,1.278,22.024,3.835
	c7.305,2.557,13.726,6.871,19.26,12.942C720.521,112.375,723.289,119.566,723.289,127.876z M758.704,127.876
	c0-11.505-2.547-22.212-7.637-32.118c-5.091-9.907-11.73-18.016-19.922-24.328c-8.19-6.312-17.266-11.265-27.225-14.861
	c-9.961-3.594-20.033-5.392-30.216-5.392c-10.181,0-20.253,1.798-30.214,5.392c-9.961,3.596-19.036,8.549-27.224,14.861
	c-8.193,6.312-14.832,14.421-19.922,24.328c-5.091,9.906-7.639,20.613-7.639,32.118c0,16.138,5.02,30.519,15.056,43.142
	c1.472,1.758,3.724,4.394,6.75,7.91c3.022,3.515,5.275,6.151,6.749,7.909c18.889,24.447,29.291,48.256,31.21,71.426h50.467
	c1.918-23.17,12.322-46.979,31.212-71.426c1.476-1.758,3.724-4.395,6.75-7.909c3.026-3.516,5.275-6.152,6.751-7.91
	C753.688,158.395,758.704,144.014,758.704,127.876z M787.035,127.876c0,24.767-7.599,46.179-22.798,64.234
	c-6.64,7.83-12.136,14.781-16.49,20.853c-4.354,6.071-8.743,13.702-13.171,22.889c-4.426,9.189-6.934,17.776-7.525,25.766
	c6.936,4.475,10.401,11.027,10.401,19.654c0,5.912-1.843,11.026-5.532,15.34c3.689,4.314,5.532,9.426,5.532,15.338
	c0,8.31-3.319,14.781-9.959,19.415c1.918,3.676,2.878,7.429,2.878,11.266c0,7.351-2.326,13.021-6.972,17.018
	c-4.648,3.995-10.366,5.991-17.155,5.991c-2.951,7.032-7.377,12.624-13.281,16.778c-5.903,4.154-12.321,6.232-19.258,6.232
	c-6.933,0-13.354-2.078-19.254-6.232c-5.906-4.154-10.332-9.746-13.281-16.778c-6.79,0-12.508-1.996-17.155-5.991
	c-4.649-3.997-6.973-9.667-6.973-17.018c0-3.836,0.96-7.589,2.877-11.266c-6.64-4.634-9.96-11.105-9.96-19.415
	c0-5.912,1.844-11.024,5.533-15.338c-3.689-4.314-5.533-9.428-5.533-15.34c0-8.627,3.467-15.179,10.403-19.654
	c-0.592-7.989-3.101-16.577-7.527-25.766c-4.427-9.187-8.818-16.818-13.169-22.889c-4.354-6.072-9.853-13.023-16.493-20.853
	c-15.197-18.056-22.794-39.467-22.794-64.234c0-15.82,3.28-30.56,9.847-44.221c6.566-13.663,15.201-25.009,25.897-34.036
	c10.698-9.028,22.8-16.139,36.302-21.332c13.501-5.193,27.26-7.789,41.28-7.789c14.019,0,27.778,2.596,41.284,7.789
	c13.5,5.193,25.601,12.304,36.298,21.332c10.699,9.027,19.331,20.373,25.899,34.036C783.753,97.316,787.035,112.056,787.035,127.876
	z"/>
</svg>
