<svg xmlns="http://www.w3.org/2000/svg"  x="0px" y="0px"
	 width="1792px" height="1792px" viewBox="0 0 1792 1792" enable-background="new 0 0 1792 1792" xml:space="preserve">
<path fill="#979797" d="M559.094,896c-99.144,3.06-180.234,42.229-243.27,117.504H192.812c-50.184,0-92.412-12.394-126.684-37.179
	C31.856,951.539,14.72,915.279,14.72,867.542c0-216.037,37.944-324.054,113.832-324.054c3.672,0,16.983,6.426,39.933,19.278
	c22.95,12.852,52.785,25.857,89.505,39.015c36.72,13.158,73.133,19.737,109.242,19.737c41.004,0,81.702-7.039,122.094-21.114
	c-3.06,22.643-4.59,42.839-4.59,60.588C484.736,746.06,509.522,824.396,559.094,896z M1542.271,1480.766
	c0,73.44-22.337,131.427-67.013,173.961c-44.677,42.534-104.04,63.802-178.093,63.802H494.834
	c-74.052,0-133.416-21.268-178.092-63.802s-67.014-100.521-67.014-173.961c0-32.437,1.071-64.107,3.213-95.013
	c2.143-30.906,6.426-64.26,12.852-100.063c6.426-35.801,14.536-69.003,24.327-99.602c9.792-30.602,22.95-60.437,39.474-89.506
	c16.523-29.07,35.496-53.856,56.916-74.358c21.42-20.502,47.583-36.873,78.489-49.113c30.906-12.239,65.025-18.359,102.357-18.359
	c6.12,0,19.278,6.579,39.474,19.737c20.196,13.157,42.534,27.846,67.014,44.064c24.48,16.217,57.222,30.904,98.226,44.063
	c41.004,13.159,82.314,19.738,123.93,19.738c41.616,0,82.926-6.579,123.93-19.738c41.005-13.158,73.746-27.846,98.227-44.063
	c24.48-16.219,46.818-30.907,67.014-44.064c20.196-13.158,33.354-19.737,39.475-19.737c37.332,0,71.45,6.12,102.356,18.359
	c30.906,12.24,57.069,28.611,78.489,49.113s40.392,45.288,56.916,74.358c16.523,29.069,29.681,58.904,39.474,89.506
	c9.793,30.599,17.901,63.801,24.327,99.602c6.427,35.803,10.711,69.156,12.853,100.063
	C1541.201,1416.658,1542.271,1448.329,1542.271,1480.766z M602.24,308.48c0,64.872-22.95,120.258-68.85,166.158
	c-45.9,45.9-101.287,68.85-166.158,68.85c-64.872,0-120.258-22.95-166.158-68.85c-45.9-45.9-68.85-101.286-68.85-166.158
	c0-64.872,22.95-120.258,68.85-166.158c45.9-45.9,101.286-68.85,166.158-68.85c64.872,0,120.258,22.95,166.158,68.85
	C579.29,188.222,602.24,243.608,602.24,308.48z M1248.512,660.992c0,97.308-34.425,180.387-103.275,249.237
	c-68.85,68.85-151.928,103.274-249.236,103.274c-97.308,0-180.387-34.425-249.237-103.274
	c-68.85-68.85-103.275-151.93-103.275-249.237c0-97.308,34.425-180.387,103.275-249.237C715.613,342.905,798.692,308.48,896,308.48
	c97.309,0,180.387,34.425,249.236,103.275C1214.087,480.605,1248.512,563.684,1248.512,660.992z M1777.28,867.542
	c0,47.736-17.136,83.997-51.409,108.783c-34.272,24.785-76.498,37.179-126.683,37.179h-123.013
	C1413.14,938.229,1332.05,899.06,1232.906,896c49.572-71.604,74.358-149.94,74.358-235.008c0-17.749-1.53-37.945-4.591-60.588
	c40.392,14.075,81.09,21.114,122.095,21.114c36.107,0,72.521-6.58,109.241-19.737c36.721-13.158,66.556-26.163,89.505-39.015
	c22.95-12.852,36.261-19.278,39.934-19.278C1739.336,543.488,1777.28,651.506,1777.28,867.542z M1659.775,308.48
	c0,64.872-22.949,120.258-68.85,166.158c-45.9,45.9-101.286,68.85-166.157,68.85c-64.873,0-120.259-22.95-166.158-68.85
	c-45.9-45.9-68.851-101.286-68.851-166.158c0-64.872,22.95-120.258,68.851-166.158c45.899-45.9,101.285-68.85,166.158-68.85
	c64.871,0,120.257,22.95,166.157,68.85C1636.826,188.222,1659.775,243.608,1659.775,308.48z"/>
</svg>
