<?xml version="1.0" encoding="utf-8"?>
<svg width="1792" height="1792" viewBox="0 0 1792 1792" xmlns="http://www.w3.org/2000/svg"><path fill="#979797" d="M1329 784q47 14 89.5 38t89 73 79.5 115.5 55 172 22 236.5q0 154-100 263.5t-241 109.5h-854q-141 0-241-109.5t-100-263.5q0-131 22-236.5t55-172 79.5-115.5 89-73 89.5-38q-79-125-79-272 0-104 40.5-198.5t109.5-163.5 163.5-109.5 198.5-40.5 198.5 40.5 163.5 109.5 109.5 163.5 40.5 198.5q0 147-79 272zm-433-656q-159 0-271.5 112.5t-112.5 271.5 112.5 271.5 271.5 112.5 271.5-112.5 112.5-271.5-112.5-271.5-271.5-112.5zm427 1536q88 0 150.5-71.5t62.5-173.5q0-239-78.5-377t-225.5-145q-145 127-336 127t-336-127q-147 7-225.5 145t-78.5 377q0 102 62.5 173.5t150.5 71.5h854z"/></svg>