<svg xmlns="http://www.w3.org/2000/svg" style="isolation:isolate" width="16" height="16" preserveAspectRatio="xMinYMid meet"><defs><clipPath id="a"><path d="M0 0h16v16H0z"/></clipPath></defs><g clip-path="url(#a)"><clipPath id="b"><path d="M0 .571h16v14.858H0V.571z" fill="#FFF"/></clipPath><g clip-path="url(#b)"><path d="M13.183 13.632a1.127 1.127 0 1 1 2.253-.071 1.127 1.127 0 0 1-2.253.071zm0-5.633a1.129 1.129 0 1 1 1.127 1.093 1.129 1.129 0 0 1-1.127-1.093zm0-5.634a1.128 1.128 0 1 1 2.254-.073 1.128 1.128 0 0 1-2.254.073zm-12.62 0a1.13 1.13 0 0 1 1.703-1.006A1.127 1.127 0 1 1 .563 2.365zm0 5.634a1.129 1.129 0 1 1 1.128 1.093A1.129 1.129 0 0 1 .563 8v-.001zm0 5.633a1.13 1.13 0 0 1 1.703-1.006 1.127 1.127 0 0 1-.576 2.099 1.129 1.129 0 0 1-1.127-1.093z" vector-effect="non-scaling-stroke" stroke-width="1.127" stroke="#000" stroke-miterlimit="10"/><path d="M7.211 10.68v-.36a3.366 3.366 0 0 1 .191-1.194 2.79 2.79 0 0 1 .475-.779 8.98 8.98 0 0 1 .856-.833c.307-.249.577-.54.8-.867.122-.217.184-.462.18-.711-.004-.46-.2-.896-.542-1.205a1.837 1.837 0 0 0-1.329-.53 1.777 1.777 0 0 0-1.261.473c-.402.4-.657.925-.722 1.488l-1.126-.147a3.157 3.157 0 0 1 .934-2.073c.603-.5 1.37-.757 2.152-.721.823-.038 1.63.24 2.254.778.543.468.852 1.153.846 1.87a2.372 2.372 0 0 1-.294 1.126 5.517 5.517 0 0 1-1.127 1.296 5.918 5.918 0 0 0-.754.756c-.121.17-.209.361-.259.563a4.71 4.71 0 0 0-.102 1.025H7.256l-.045.045zm-.067 2.389v-1.352h1.352v1.352H7.144z"/></g></g></svg>