<svg id="Layer_1" data-name="Layer 1" xmlns="http://www.w3.org/2000/svg" width="48" height="48" viewBox="0 0 48 48"><defs><style>.cls-1{fill:#909;}.cls-2{fill:#fff;}</style></defs><title>48px_sourcefile_20170718_multi</title><circle class="cls-1" cx="24" cy="24" r="24"/><path id="path1" class="cls-2" d="M24.45,24.26A5.77,5.77,0,0,0,18.69,30v2.55H30.22V30A5.8,5.8,0,0,0,24.45,24.26Zm0-1.76A7.54,7.54,0,0,1,32,30v4.31H16.91V30A7.54,7.54,0,0,1,24.45,22.5Zm8.85-1.16a5,5,0,0,1,5.32,5.32V32H32.79v-1.8h4.05V26.64A3.29,3.29,0,0,0,33.3,23.1a4,4,0,0,0-2.87,1.2l-1.26-1.24A5.74,5.74,0,0,1,33.3,21.34Zm-18.11,0a6.22,6.22,0,0,1,4.33,1.72L18.26,24.3a4.44,4.44,0,0,0-3.06-1.2c-2,0-4,1.22-4,3.54v3.54h4.93V32H9.38V26.64C9.38,23.63,11.87,21.34,15.19,21.34ZM33.3,16.22a1.61,1.61,0,1,0,1.61,1.61A1.6,1.6,0,0,0,33.3,16.22Zm-18.11,0a1.61,1.61,0,1,0,1.61,1.61A1.62,1.62,0,0,0,15.19,16.22Zm9.23-.79a2.4,2.4,0,1,0,2.4,2.4A2.39,2.39,0,0,0,24.41,15.43Zm8.89-1a3.38,3.38,0,1,1-3.37,3.38A3.38,3.38,0,0,1,33.3,14.44Zm-18.11,0a3.38,3.38,0,1,1-3.37,3.38A3.38,3.38,0,0,1,15.19,14.44Zm9.23-.79a4.18,4.18,0,1,1-4.18,4.18A4.19,4.19,0,0,1,24.41,13.65Z"/></svg>