<?xml version="1.0" encoding="UTF-8" standalone="no"?>
<svg
   xmlns:dc="http://purl.org/dc/elements/1.1/"
   xmlns:cc="http://creativecommons.org/ns#"
   xmlns:rdf="http://www.w3.org/1999/02/22-rdf-syntax-ns#"
   xmlns:svg="http://www.w3.org/2000/svg"
   xmlns="http://www.w3.org/2000/svg"
   xmlns:sodipodi="http://sodipodi.sourceforge.net/DTD/sodipodi-0.dtd"
   xmlns:inkscape="http://www.inkscape.org/namespaces/inkscape"
   fill="#000000"
   height="24"
   viewBox="0 0 24 24"
   width="24"
   version="1.1"
   id="svg6"
   sodipodi:docname="icon.svg"
   inkscape:version="0.92.2 (5c3e80d, 2017-08-06)">
  <metadata
     id="metadata12">
    <rdf:RDF>
      <cc:Work
         rdf:about="">
        <dc:format>image/svg+xml</dc:format>
        <dc:type
           rdf:resource="http://purl.org/dc/dcmitype/StillImage" />
      </cc:Work>
    </rdf:RDF>
  </metadata>
  <defs
     id="defs10" />
  <sodipodi:namedview
     pagecolor="#ffffff"
     bordercolor="#666666"
     borderopacity="1"
     objecttolerance="10"
     gridtolerance="10"
     guidetolerance="10"
     inkscape:pageopacity="0"
     inkscape:pageshadow="2"
     inkscape:window-width="1029"
     inkscape:window-height="710"
     id="namedview8"
     showgrid="false"
     inkscape:zoom="9.8333333"
     inkscape:cx="12"
     inkscape:cy="12"
     inkscape:window-x="0"
     inkscape:window-y="27"
     inkscape:window-maximized="0"
     inkscape:current-layer="svg6" />
  <path
     d="M 11.898305,6 V 9 L 17.220339,5 11.898305,1 V 4 C 6.0174576,4 1.2542373,7.58 1.2542373,12 c 0,1.57 0.6120339,3.03 1.6498305,4.26 L 4.8466101,14.8 C 4.2478814,13.97 3.9152542,13.01 3.9152542,12 c 0,-3.31 3.5790679,-6 7.9830508,-6 z m 8.994237,1.74 -1.942543,1.46 c 0.585425,0.84 0.931357,1.79 0.931357,2.8 0,3.31 -3.579068,6 -7.983051,6 v -3 l -5.3220338,4 5.3220338,4 v -3 c 5.880848,0 10.644068,-3.58 10.644068,-8 0,-1.57 -0.612034,-3.03 -1.649831,-4.26 z"
     id="path2"
     inkscape:connector-curvature="0"
     style="stroke-width:1.15347672;fill:#ff6600" />
  <path
     d="M0 0h24v24H0z"
     fill="none"
     id="path4" />
</svg>
