<?xml version="1.0" encoding="UTF-8" standalone="no"?>
<!-- Generator: Adobe Illustrator 27.9.1, SVG Export Plug-In . SVG Version: 6.00 Build 0)  -->

<svg
   version="1.1"
   id="Layer_1"
   x="0px"
   y="0px"
   viewBox="0 0 19 20"
   style="enable-background:new 0 0 19 20;"
   xml:space="preserve"
   sodipodi:docname="confirm.svg"
   inkscape:version="1.3.2 (091e20ef0f, 2023-11-25, custom)"
   xmlns:inkscape="http://www.inkscape.org/namespaces/inkscape"
   xmlns:sodipodi="http://sodipodi.sourceforge.net/DTD/sodipodi-0.dtd"
   xmlns="http://www.w3.org/2000/svg"
   xmlns:svg="http://www.w3.org/2000/svg"><defs
   id="defs1" /><sodipodi:namedview
   id="namedview1"
   pagecolor="#ffffff"
   bordercolor="#000000"
   borderopacity="0.25"
   inkscape:showpageshadow="2"
   inkscape:pageopacity="0.0"
   inkscape:pagecheckerboard="0"
   inkscape:deskcolor="#d1d1d1"
   inkscape:zoom="38.6"
   inkscape:cx="9.4948187"
   inkscape:cy="10"
   inkscape:window-width="1920"
   inkscape:window-height="1000"
   inkscape:window-x="0"
   inkscape:window-y="0"
   inkscape:window-maximized="1"
   inkscape:current-layer="Layer_1" />
<g
   id="check-circle">
	<g
   id="Icon_00000070817771302605241390000012277136077757963954_">
		<path
   d="M9.5,19.3c-5.1,0-9.3-4.2-9.3-9.3s4.2-9.3,9.3-9.3s9.3,4.2,9.3,9.3S14.6,19.3,9.5,19.3z M9.5,2.4c-4.2,0-7.6,3.4-7.6,7.6    s3.4,7.6,7.6,7.6s7.6-3.4,7.6-7.6S13.7,2.4,9.5,2.4z M8.2,13.4c-0.2,0-0.4-0.1-0.6-0.2l-2.5-2.5c-0.3-0.3-0.3-0.9,0-1.2    s0.9-0.3,1.2,0l1.9,1.9l4.5-4.5c0.3-0.3,0.9-0.3,1.2,0c0.3,0.3,0.3,0.9,0,1.2l-5.1,5.1C8.7,13.3,8.5,13.4,8.2,13.4z"
   id="path1" />
	</g>
</g>
<path
   style="fill:#fcfcfc;stroke-width:0.0259067;fill-opacity:1"
   d="M 9.0803109,19.270688 C 7.1425604,19.194182 5.2809604,18.484448 3.6917098,17.216288 3.2700754,16.879839 2.6063052,16.214637 2.2691957,15.790704 0.91932842,14.093176 0.22025056,12.117451 0.22025056,10 c 0,-1.8593181 0.53940667,-3.6127666 1.58993324,-5.1683938 C 2.4103645,3.9428544 3.2437049,3.0859532 4.119171,2.4573378 5.3243845,1.5919524 6.8055842,0.99409358 8.2124352,0.80516767 8.8593953,0.71828745 9.7781026,0.69581258 10.357559,0.75269027 c 1.791544,0.1758526 3.508898,0.87584323 4.927415,2.00840683 0.368129,0.2939188 1.157573,1.0837845 1.447975,1.4487475 1.621871,2.0382886 2.324099,4.5851526 1.957202,7.0984454 -0.238418,1.633188 -0.903841,3.157123 -1.956999,4.481865 -0.289354,0.363972 -1.079029,1.153129 -1.448178,1.44723 -1.375177,1.095602 -2.982717,1.773013 -4.715026,1.986896 -0.360646,0.04453 -1.0183063,0.06502 -1.4896371,0.04641 z m 0.9857541,-1.681211 c 2.93893,-0.228605 5.441917,-2.072774 6.523531,-4.806455 0.209316,-0.529029 0.363546,-1.126657 0.460813,-1.785613 0.06485,-0.439361 0.06485,-1.5554567 0,-1.9948183 C 16.856015,7.6856199 16.409113,6.557085 15.685947,5.5569948 13.905884,3.0952866 10.909034,1.9366627 7.9173041,2.5535287 5.1155938,3.1312145 2.8227816,5.3277873 2.1289923,8.0988798 1.9554392,8.7920756 1.8965104,9.2739658 1.8965104,10 c 0,1.19717 0.2340192,2.236036 0.7440716,3.303109 1.3443703,2.812536 4.3164986,4.5282 7.425483,4.286368 z"
   id="path2" /><path
   style="fill:#fcfcfc;fill-opacity:1;stroke-width:0.0259067"
   d="M 8.043743,13.366962 C 7.9937085,13.355073 7.8771282,13.310792 7.7846756,13.26856 7.62985,13.197837 7.5139008,13.088801 6.315872,11.887338 4.8485246,10.415785 4.900697,10.481444 4.8985351,10.103627 c -0.00105,-0.1840607 0.00969,-0.2435962 0.06542,-0.3626944 0.1373225,-0.2934424 0.3827776,-0.4404145 0.735527,-0.4404145 0.1322563,0 0.2392031,0.017271 0.3422924,0.055277 0.1393009,0.051357 0.2211599,0.1261811 1.1541092,1.0549339 l 1.0041738,0.999656 2.2989345,-2.2943655 c 2.590221,-2.5850732 2.393814,-2.415715 2.804117,-2.4179362 0.189787,-0.00103 0.240465,0.00876 0.366853,0.070823 0.08066,0.039608 0.187084,0.1167748 0.236508,0.1714811 0.193262,0.2139182 0.253614,0.5782804 0.145097,0.8759983 -0.05225,0.1433439 -0.170413,0.2658999 -2.687824,2.7877173 -1.4482451,1.450779 -2.673976,2.658864 -2.7238464,2.684631 -0.1747972,0.09032 -0.4134679,0.121636 -0.5961534,0.07823 z"
   id="path3" /><path
   style="fill:#a0e9a3;stroke-width:0.0259067;fill-opacity:1"
   d="M 9.0803109,19.257084 C 7.3798404,19.193791 5.6577249,18.596504 4.1792956,17.557249 3.3784212,16.994279 2.5177711,16.138893 1.969702,15.361172 1.0552418,14.063533 0.50952093,12.692612 0.30996955,11.19171 0.21608954,10.485603 0.22185903,9.4188124 0.32328006,8.7305699 0.47853448,7.6770142 0.71925267,6.9010922 1.1792394,5.9715026 1.6738281,4.971986 2.1963139,4.2405347 2.9656751,3.4705915 4.034822,2.4006355 5.2649034,1.6458925 6.7227979,1.1653276 7.6304852,0.8661271 8.4560505,0.7438817 9.5725389,0.74335271 c 0.6788941,-3.2165e-4 0.9440281,0.0229545 1.5686321,0.13771046 1.461076,0.26843763 2.93352,0.93744473 4.079036,1.85331613 0.462329,0.3696443 1.18943,1.0965759 1.538754,1.5383958 0.945206,1.1954801 1.595775,2.6332073 1.864748,4.1210073 0.10939,0.6050777 0.13241,0.8843264 0.13241,1.6062176 0,0.723254 -0.02323,1.004106 -0.13286,1.606218 -0.26971,1.481312 -0.892129,2.86876 -1.830457,4.08031 -0.320037,0.413227 -1.135221,1.232635 -1.566245,1.574361 -1.502624,1.191317 -3.359649,1.896976 -5.2312933,1.987862 -0.2823691,0.01371 -0.5600305,0.02282 -0.6170254,0.02025 -0.056995,-0.0026 -0.1910621,-0.0079 -0.2979274,-0.01191 z m 1.5285981,-1.715476 c 1.621835,-0.250074 3.063267,-0.960823 4.204936,-2.073392 1.167023,-1.137278 1.888966,-2.498588 2.192392,-4.134019 C 17.081582,10.928097 17.111366,10.549833 17.111289,10 17.111205,9.4025337 17.078002,9.0303378 16.981865,8.5492228 16.832495,7.8017049 16.64988,7.2608845 16.321411,6.5932642 15.396877,4.7141303 13.663181,3.2621856 11.653173,2.6836832 10.865483,2.4569773 10.177243,2.3711496 9.3134715,2.3919084 8.087942,2.4213612 7.114893,2.6625173 6.0492228,3.2009051 4.2085083,4.1308536 2.7973492,5.8103782 2.2046417,7.7766251 2.0977363,8.1312731 1.9716936,8.7238795 1.9328683,9.0544041 c -0.078565,0.668835 -0.058091,1.5522569 0.051549,2.2243019 0.2508633,1.53767 1.0002199,2.989466 2.121446,4.110068 1.2372495,1.236561 2.8500353,2.005883 4.6117529,2.199872 0.383435,0.04222 1.4910648,0.01467 1.8912928,-0.04704 z"
   id="path4" /><path
   style="fill:#a0e9a3;fill-opacity:1;stroke-width:0.0259067"
   d="M 7.8964702,13.299661 C 7.7994614,13.259964 7.6610775,13.16957 7.5467293,13.071208 7.2091538,12.780824 5.1065022,10.641897 5.0121168,10.492867 4.9317972,10.366046 4.9213186,10.328469 4.9132072,10.138171 4.9052527,9.951557 4.9126098,9.9067767 4.9728999,9.7748381 5.0799157,9.5406456 5.2465462,9.393937 5.4654861,9.3411448 c 0.042287,-0.010196 0.1637485,-0.018085 0.2699149,-0.017531 0.3377487,0.00176 0.3496529,0.010863 1.4735388,1.1263462 l 0.9913232,0.983911 2.156345,-2.1496077 c 1.18599,-1.1822843 2.240925,-2.2216674 2.344301,-2.3097402 0.267425,-0.2278393 0.350396,-0.2647317 0.594691,-0.2644254 0.320975,4.026e-4 0.567788,0.1408232 0.699901,0.3981993 0.09576,0.1865495 0.114372,0.5246548 0.03835,0.6965189 -0.07492,0.1693733 -0.652252,0.7650838 -3.194984,3.2967001 -2.074444,2.065375 -2.1933036,2.178939 -2.3250948,2.221503 -0.2002982,0.06469 -0.4227065,0.05627 -0.6173,-0.02336 z"
   id="path5" /></svg>
