<?xml version="1.0" encoding="UTF-8" standalone="no"?>
<!-- Generator: Adobe Illustrator 27.9.1, SVG Export Plug-In . SVG Version: 6.00 Build 0)  -->

<svg
   version="1.1"
   id="Layer_1"
   x="0px"
   y="0px"
   viewBox="0 0 19 20"
   style="enable-background:new 0 0 19 20;"
   xml:space="preserve"
   sodipodi:docname="rotate-left.svg"
   inkscape:version="1.3.2 (091e20ef0f, 2023-11-25, custom)"
   xmlns:inkscape="http://www.inkscape.org/namespaces/inkscape"
   xmlns:sodipodi="http://sodipodi.sourceforge.net/DTD/sodipodi-0.dtd"
   xmlns="http://www.w3.org/2000/svg"
   xmlns:svg="http://www.w3.org/2000/svg"><defs
   id="defs4" /><sodipodi:namedview
   id="namedview4"
   pagecolor="#ffffff"
   bordercolor="#000000"
   borderopacity="0.25"
   inkscape:showpageshadow="2"
   inkscape:pageopacity="0.0"
   inkscape:pagecheckerboard="0"
   inkscape:deskcolor="#d1d1d1"
   inkscape:zoom="38.6"
   inkscape:cx="9.4948187"
   inkscape:cy="10"
   inkscape:window-width="1920"
   inkscape:window-height="1000"
   inkscape:window-x="0"
   inkscape:window-y="0"
   inkscape:window-maximized="1"
   inkscape:current-layer="Layer_1" />
<g
   id="g4">
	<path
   d="M10.7,1.8c0.3-0.4,0.4-0.9,0.1-1.3c-0.3-0.4-1-0.5-1.4-0.2L7.2,1.9C7,2.1,6.8,2.4,6.8,2.7c0,0.3,0.1,0.6,0.4,0.8l2.2,1.9   c0.3,0.2,0.7,0.3,1,0.1C10.8,5.3,11,5,11,4.6V4c3.1,0.8,5.4,3.7,5.3,7c0,1.8-0.8,3.6-2.2,4.9c-1.4,1.3-3.2,2-5.1,1.9   c-0.5,0.1-1,0.5-1,1s0.5,1,1,1c0.1,0,0.2,0,0.3,0c2.3,0,4.5-0.9,6.2-2.5c1.8-1.6,2.8-3.9,2.9-6.3C18.5,6.4,15.2,2.5,10.7,1.8z"
   id="path1" />
	<circle
   cx="4.5"
   cy="3.9"
   r="0.8"
   id="circle1" />
	<circle
   cx="4.8"
   cy="17.5"
   r="0.8"
   id="circle2" />
	<circle
   cx="2.2"
   cy="14.5"
   r="0.8"
   id="circle3" />
	<path
   d="M2.1,10.6c0-0.4-0.3-0.8-0.7-0.8h0c-0.4,0-0.7,0.3-0.7,0.8c0,0.4,0.3,0.8,0.7,0.8h0C1.8,11.4,2.1,11,2.1,10.6z"
   id="path3" />
	<circle
   cx="2.1"
   cy="6.9"
   r="0.8"
   id="circle4" />
</g>
<path
   style="fill:#fcfcfc;stroke-width:0.0259067"
   d="M 4.3264249,4.6665348 C 4.098518,4.6069522 3.8952665,4.4405842 3.7904798,4.2278464 3.705988,4.0563114 3.7054178,3.7427555 3.7892882,3.5725426 3.8649286,3.4190321 4.0077438,3.2765874 4.1709845,3.1918367 4.3610895,3.0931385 4.6320873,3.0943941 4.8375652,3.194925 5.3115304,3.4268146 5.4255148,4.0167104 5.0753946,4.4257472 4.9111116,4.6176749 4.5650693,4.7289246 4.3264249,4.6665348 Z"
   id="path4" /><path
   style="fill:#fcfcfc;stroke-width:0.0259067"
   d="M 1.9028643,7.6604407 C 1.3258384,7.4978408 1.1256282,6.790029 1.5362526,6.364342 1.9172818,5.9693358 2.5487484,6.0690494 2.8042561,6.56457 2.8953166,6.7411688 2.9022678,7.0258774 2.8198982,7.2052437 2.6574658,7.558953 2.253792,7.7593285 1.9028643,7.6604407 Z"
   id="path5" /><path
   style="fill:#fcfcfc;stroke-width:0.0259067"
   d="M 1.3082902,11.372305 C 1.082099,11.332241 0.91266159,11.187814 0.79249126,10.932642 0.7362867,10.813297 0.7255692,10.754392 0.72650058,10.569948 c 0.001716,-0.339852 0.12156811,-0.555617 0.38023032,-0.684514 0.4349909,-0.2167651 0.922468,0.113873 0.971918,0.659217 0.03353,0.369774 -0.2365184,0.763773 -0.5639806,0.822843 -0.063638,0.01148 -0.1565077,0.01364 -0.2063781,0.0048 z"
   id="path6" /><path
   style="fill:#fcfcfc;stroke-width:0.0259067"
   d="M 1.9617044,15.248462 C 1.7660747,15.184614 1.6125557,15.047158 1.4961368,14.831606 1.4038033,14.660649 1.3969675,14.376748 1.4807776,14.19372 c 0.1882422,-0.411091 0.6570303,-0.5909 1.0493096,-0.402475 0.4851281,0.233023 0.6033402,0.860673 0.2341783,1.243377 -0.2031731,0.210626 -0.5385823,0.299994 -0.8025611,0.21384 z"
   id="path7" /><path
   style="fill:#fcfcfc;stroke-width:0.0259067"
   d="m 4.5552449,18.243846 c -0.2672717,-0.09565 -0.446956,-0.29831 -0.5173311,-0.58349 -0.037017,-0.150002 -0.03692,-0.178769 0.0011,-0.327158 0.1881663,-0.734485 1.1380217,-0.837952 1.4718769,-0.16033 0.083624,0.169731 0.08379,0.484202 3.44e-4,0.653553 -0.1759081,0.357002 -0.6033232,0.543629 -0.9559851,0.417425 z"
   id="path8" /><path
   style="fill:#fcfcfc;stroke-width:0.0259067"
   d="M 8.765191,19.745081 C 8.5667039,19.678835 8.4657655,19.612568 8.305942,19.443578 8.1067968,19.233011 8.0309025,19.053522 8.0318433,18.795337 c 6.426e-4,-0.176368 0.011716,-0.228295 0.074304,-0.348443 0.1015852,-0.195009 0.3139378,-0.390499 0.5537261,-0.509756 l 0.2002302,-0.09958 0.5569948,-0.01801 c 1.1514796,-0.03724 1.9837016,-0.237222 2.9404146,-0.706597 0.45427,-0.222871 0.975129,-0.551949 1.360104,-0.859311 0.284874,-0.227443 0.873783,-0.816815 1.097332,-1.098197 0.722846,-0.909848 1.203147,-1.969644 1.408917,-3.108808 0.06295,-0.348502 0.06799,-0.431811 0.06966,-1.15285 0.0015,-0.629503 -0.0071,-0.83382 -0.04506,-1.0751292 C 16.004204,8.2659946 15.328946,6.9381205 14.225697,5.840937 13.402492,5.0222578 12.529838,4.4830176 11.438187,4.1184492 11.226046,4.0476026 11.041624,3.9896373 11.028359,3.9896373 c -0.0133,0 -0.03013,0.1830539 -0.03751,0.4080311 -0.01487,0.4528899 -0.04049,0.5571886 -0.185415,0.7546083 C 10.649428,5.3647951 10.305203,5.5715902 10.075786,5.5906153 9.9199078,5.603542 9.645256,5.5302832 9.4904117,5.4344767 9.4381174,5.4021207 9.0652095,5.0900259 8.6617277,4.7409326 8.2582459,4.3918394 7.7212795,3.927994 7.468469,3.710165 6.8986571,3.2191984 6.8231865,3.1021619 6.8231865,2.7094883 c 0,-0.2024672 0.064417,-0.376583 0.2199722,-0.5945742 C 7.1505433,1.964428 7.2684462,1.8711284 8.2925507,1.1262381 8.9145004,0.67385808 9.4715041,0.27705436 9.530337,0.244452 9.8614878,0.06094375 10.384991,0.13221528 10.68291,0.40136731 c 0.133947,0.12101303 0.260994,0.37498673 0.280078,0.55988893 0.02255,0.21852356 -0.103446,0.62071976 -0.244712,0.78113056 -0.02204,0.025023 -0.03463,0.05093 -0.02799,0.057572 0.0066,0.00664 0.139667,0.036478 0.29561,0.066302 3.017329,0.5770598 5.508565,2.589306 6.693593,5.4066169 0.686584,1.6322985 0.876549,3.4760773 0.533214,5.1753093 -0.379969,1.88054 -1.285057,3.50734 -2.658934,4.779149 -0.772536,0.715143 -1.446555,1.190788 -2.27814,1.607649 -1.210696,0.606903 -2.450476,0.913007 -3.8326248,0.946281 -0.4732429,0.01139 -0.5470693,0.0075 -0.6778142,-0.03618 z"
   id="path9" /></svg>
