<?xml version="1.0" encoding="UTF-8" standalone="no"?>
<!-- Generator: Adobe Illustrator 27.9.1, SVG Export Plug-In . SVG Version: 6.00 Build 0)  -->

<svg
   version="1.1"
   id="Layer_1"
   x="0px"
   y="0px"
   viewBox="0 0 19 20"
   style="enable-background:new 0 0 19 20;"
   xml:space="preserve"
   sodipodi:docname="rotate-right.svg"
   inkscape:version="1.3.2 (091e20ef0f, 2023-11-25, custom)"
   xmlns:inkscape="http://www.inkscape.org/namespaces/inkscape"
   xmlns:sodipodi="http://sodipodi.sourceforge.net/DTD/sodipodi-0.dtd"
   xmlns="http://www.w3.org/2000/svg"
   xmlns:svg="http://www.w3.org/2000/svg"><defs
   id="defs5" /><sodipodi:namedview
   id="namedview5"
   pagecolor="#ffffff"
   bordercolor="#000000"
   borderopacity="0.25"
   inkscape:showpageshadow="2"
   inkscape:pageopacity="0.0"
   inkscape:pagecheckerboard="0"
   inkscape:deskcolor="#d1d1d1"
   inkscape:zoom="38.6"
   inkscape:cx="9.4948187"
   inkscape:cy="10"
   inkscape:window-width="1920"
   inkscape:window-height="1000"
   inkscape:window-x="0"
   inkscape:window-y="0"
   inkscape:window-maximized="1"
   inkscape:current-layer="Layer_1" />
<g
   id="g5">
	<path
   d="M9.5,0.3C9.1,0,8.5,0.1,8.2,0.6C7.9,0.9,7.9,1.5,8.3,1.8C3.8,2.5,0.4,6.5,0.6,11c0.1,2.4,1.1,4.7,2.9,6.3   c1.7,1.6,3.9,2.5,6.2,2.5c0.1,0,0.2,0,0.3,0c0.5,0,1-0.5,1-1s-0.5-0.9-1-1c-1.9,0.1-3.7-0.6-5.1-1.9c-1.4-1.3-2.2-3.1-2.2-4.9   C2.6,7.7,4.9,4.8,8,4v0.6C8,5,8.2,5.3,8.6,5.5c0.3,0.2,0.7,0.1,1-0.1l2.2-1.9C12,3.3,12.2,3,12.2,2.7S12,2.1,11.8,1.9L9.5,0.3z"
   id="path1" />
	<circle
   cx="14.5"
   cy="3.9"
   r="0.8"
   id="circle1" />
	<circle
   cx="14.2"
   cy="17.5"
   r="0.8"
   id="circle2" />
	<circle
   cx="16.8"
   cy="14.5"
   r="0.8"
   id="circle3" />
	<circle
   cx="17.7"
   cy="10.6"
   r="0.8"
   id="circle4" />
	<circle
   cx="16.9"
   cy="6.9"
   r="0.8"
   id="circle5" />
</g>
<path
   style="fill:#fcfcfc;stroke-width:0.0259067"
   d="M 9.0673575,19.765209 C 7.2370956,19.618991 5.5208142,18.935124 4.0803109,17.778078 2.0694643,16.162919 0.97624091,14.192798 0.65553547,11.606218 0.61097116,11.246794 0.61096626,10.022696 0.6555277,9.6632124 0.70691392,9.2486725 0.85420285,8.5501301 0.97170142,8.1637054 1.9396684,4.980294 4.6740578,2.5160938 7.9466101,1.8779977 8.1342904,1.841403 8.292701,1.8066081 8.2986334,1.8006758 8.3045658,1.7947435 8.2710788,1.751549 8.2242176,1.704688 8.0170308,1.4975011 7.9436878,1.1147172 8.0611681,0.85371583 8.1287984,0.70346438 8.3290749,0.43960106 8.4531948,0.33722269 8.6649503,0.16255931 9.0244725,0.10422349 9.2808101,0.20293444 9.459108,0.2715937 11.707199,1.8387254 11.863138,2.0030604 c 0.07162,0.075472 0.168023,0.219311 0.220207,0.3285458 0.166132,0.3477607 0.121794,0.6293075 -0.155903,0.9900021 -0.06856,0.089048 -0.557851,0.5316088 -1.22796,1.1106777 C 9.4130313,5.5439611 9.3568554,5.5817503 8.9896373,5.5824863 8.8017166,5.5828627 8.7668627,5.5744886 8.6160003,5.4927148 8.3855383,5.3677946 8.1905316,5.1821982 8.1034777,5.0049246 8.0344391,4.864337 8.030687,4.8374246 8.0224277,4.4235751 8.0176645,4.1849093 8.004608,3.9896373 7.9934135,3.9896373 c -0.058323,0 -0.5691674,0.1670135 -0.8229345,0.2690472 -2.3025741,0.9258101 -3.9666052,2.9648323 -4.3857891,5.3741318 -0.1424575,0.8187877 -0.13155,1.8081897 0.028753,2.6081167 0.4799893,2.395194 2.3265991,4.451744 4.6995108,5.233797 0.6828489,0.225049 1.2372186,0.317608 2.060944,0.3441 l 0.5583533,0.01796 0.198244,0.09799 c 0.476493,0.235513 0.714269,0.620069 0.63156,1.021423 -0.06432,0.312103 -0.294208,0.590987 -0.612314,0.742806 -0.164947,0.07872 -0.176877,0.08046 -0.5829013,0.08467 -0.2279793,0.0024 -0.5427461,-0.0059 -0.6994819,-0.01846 z"
   id="path5" /><path
   style="fill:#fcfcfc;stroke-width:0.0259067"
   d="M 14.326425,4.6665348 C 14.098518,4.6069522 13.895267,4.4405842 13.79048,4.2278464 13.70599,4.0563114 13.70542,3.7427555 13.78928,3.5725426 c 0.07564,-0.1535105 0.218456,-0.2959552 0.381696,-0.3807059 0.190106,-0.098698 0.461103,-0.097443 0.666581,0.00309 0.473965,0.2318896 0.58795,0.8217854 0.23783,1.2308222 -0.164283,0.1919277 -0.510326,0.3031774 -0.74897,0.2407876 z"
   id="path6" /><path
   style="fill:#fcfcfc;stroke-width:0.0259067"
   d="M 16.720968,7.6601279 C 16.253003,7.5290056 16.015359,7.0850677 16.167666,6.6265146 c 0.06209,-0.1869434 0.259189,-0.3815145 0.465261,-0.4593007 0.392048,-0.1479864 0.847633,0.059737 0.995027,0.4536808 0.107931,0.2884731 0.05288,0.5702481 -0.156088,0.7988904 -0.199507,0.2182924 -0.493622,0.3124308 -0.750898,0.2403428 z"
   id="path7" /><path
   style="fill:#fcfcfc;stroke-width:0.0259067"
   d="m 17.572566,11.371324 c -0.151833,-0.02432 -0.366507,-0.139187 -0.454498,-0.243188 -0.198468,-0.234581 -0.253662,-0.571171 -0.137286,-0.837206 0.07487,-0.171154 0.289992,-0.3733723 0.458146,-0.4306684 0.397533,-0.1354528 0.845038,0.074242 0.992572,0.4651044 0.209821,0.555882 -0.270085,1.140283 -0.858934,1.045958 z"
   id="path8" /><path
   style="fill:#fcfcfc;stroke-width:0.0259067"
   d="m 16.526537,15.231685 c -0.189377,-0.07286 -0.332228,-0.206689 -0.427765,-0.400752 -0.076,-0.154373 -0.08126,-0.181985 -0.07015,-0.368084 0.01375,-0.230223 0.06692,-0.354996 0.217009,-0.509204 0.489085,-0.502513 1.332086,-0.145643 1.332086,0.563914 0,0.525608 -0.557229,0.904164 -1.051183,0.714126 z"
   id="path9" /><path
   style="fill:#fcfcfc;stroke-width:0.0259067"
   d="m 13.956087,18.242659 c -0.472913,-0.168784 -0.680609,-0.710694 -0.433798,-1.131845 0.256455,-0.437607 0.852126,-0.522467 1.214405,-0.173007 0.05466,0.05273 0.130216,0.154162 0.167893,0.225405 0.05757,0.108849 0.06851,0.162631 0.06851,0.336788 0,0.174157 -0.01094,0.227939 -0.06851,0.336788 -0.188846,0.357085 -0.596472,0.531511 -0.9485,0.405871 z"
   id="path10" /></svg>
