<?xml version="1.0" encoding="utf-8"?>
<!-- Generator: Adobe Illustrator 15.1.0, SVG Export Plug-In  -->
<!DOCTYPE svg PUBLIC "-//W3C//DTD SVG 1.1//EN" "http://www.w3.org/Graphics/SVG/1.1/DTD/svg11.dtd" [
	<!ENTITY ns_flows "http://ns.adobe.com/Flows/1.0/">
]>
<svg version="1.1"
	 xmlns="http://www.w3.org/2000/svg" xmlns:xlink="http://www.w3.org/1999/xlink" xmlns:a="http://ns.adobe.com/AdobeSVGViewerExtensions/3.0/"
	 x="0px" y="0px" width="24px" height="24px" viewBox="0 0 24 24" style="overflow:visible;enable-background:new 0 0 24 24;"
	 xml:space="preserve" preserveAspectRatio="xMinYMid meet">
<defs>
</defs>
<linearGradient id="SVGID_1_" gradientUnits="userSpaceOnUse" x1="11.9995" y1="0" x2="11.9995" y2="24.001">
	<stop  offset="0" style="stop-color:#90C50E"/>
	<stop  offset="1" style="stop-color:#70A034"/>
	<a:midPointStop  offset="0" style="stop-color:#90C50E"/>
	<a:midPointStop  offset="0.5" style="stop-color:#90C50E"/>
	<a:midPointStop  offset="1" style="stop-color:#70A034"/>
</linearGradient>
<path style="fill:url(#SVGID_1_);" d="M21.1,12.3c1,0,1.7,0.9,1.7,0.9c0.3,0.4,0.7,0.8,0.9,0.8s0.3-0.5,0.3-1V8c0-0.5-0.5-1-1-1h-3
	c-0.5,0-1-0.1-1-0.3c0-0.2,0.3-0.7,0.7-1.1c0,0,0.8-0.9,0.8-2.1C20.5,1.6,18.9,0,17,0s-3.5,1.6-3.5,3.5c0,1.2,0.8,2.1,0.8,2.1
	C14.7,6,15,6.5,15,6.7C15,6.9,14.5,7,14,7H8C7.5,7,7,7.5,7,8v6c0,0.5-0.1,1-0.3,1S6,14.7,5.6,14.3c0,0-0.9-0.8-2.1-0.8
	C1.6,13.5,0,15.1,0,17s1.6,3.5,3.5,3.5c1.2,0,2.1-0.8,2.1-0.8C6,19.3,6.5,19,6.7,19S7,19.5,7,20v3c0,0.5,0.5,1,1,1h4
	c0.5,0,1-0.1,1-0.3s-0.3-0.6-0.7-1c0,0-0.6-0.6-0.6-1.6c0-1.4,1.3-2.5,2.7-2.5c1.4,0,2.4,1.1,2.4,2.5c0,1-0.9,1.7-0.9,1.7
	c-0.4,0.3-0.8,0.7-0.8,0.9s0.5,0.3,1,0.3h7c0.5,0,1-0.5,1-1v-6c0-0.5-0.1-1-0.3-1s-0.6,0.3-1,0.7c0,0-0.6,0.6-1.6,0.6
	c-1.4,0-2.5-1.3-2.5-2.7S19.7,12.3,21.1,12.3z"/>
<linearGradient id="SVGID_2_" gradientUnits="userSpaceOnUse" x1="11.9995" y1="1" x2="11.9995" y2="23.001">
	<stop  offset="0" style="stop-color:#D9F991"/>
	<stop  offset="0.2388" style="stop-color:#D7F88D"/>
	<stop  offset="0.4501" style="stop-color:#D1F383"/>
	<stop  offset="0.6509" style="stop-color:#C6EC71"/>
	<stop  offset="0.844" style="stop-color:#B7E257"/>
	<stop  offset="1" style="stop-color:#A8D73D"/>
	<a:midPointStop  offset="0" style="stop-color:#D9F991"/>
	<a:midPointStop  offset="0.7317" style="stop-color:#D9F991"/>
	<a:midPointStop  offset="1" style="stop-color:#A8D73D"/>
</linearGradient>
<path style="fill:url(#SVGID_2_);" d="M17,23c0.4-0.4,0.7-1.1,0.7-1.9c0-2-1.5-3.5-3.4-3.5c-2,0-3.7,1.6-3.7,3.5
	c0,0.9,0.3,1.5,0.6,1.9H8v-3c0-1.5-0.7-2-1.3-2c-0.6,0-1.3,0.6-1.7,0.9c0,0-0.7,0.6-1.5,0.6C2.1,19.5,1,18.4,1,17s1.1-2.5,2.5-2.5
	c0.8,0,1.4,0.6,1.5,0.6C5.3,15.4,6.1,16,6.7,16C7.3,16,8,15.5,8,14V8h6c1.5,0,2-0.7,2-1.3c0-0.6-0.5-1.3-0.9-1.7
	c0,0-0.6-0.7-0.6-1.5C14.5,2.1,15.6,1,17,1s2.5,1.1,2.5,2.5c0,0.8-0.6,1.5-0.6,1.5C18.5,5.4,18,6.1,18,6.7C18,7.3,18.5,8,20,8h3v4
	c-0.4-0.4-1.1-0.7-1.9-0.7c-2,0-3.5,1.5-3.5,3.4c0,2,1.6,3.7,3.5,3.7c0.9,0,1.5-0.3,1.9-0.6V23H17z"/>
<linearGradient id="SVGID_3_" gradientUnits="userSpaceOnUse" x1="11.9995" y1="2" x2="11.9995" y2="22.001">
	<stop  offset="0" style="stop-color:#B3E810"/>
	<stop  offset="1" style="stop-color:#90C60D"/>
	<a:midPointStop  offset="0" style="stop-color:#B3E810"/>
	<a:midPointStop  offset="0.5" style="stop-color:#B3E810"/>
	<a:midPointStop  offset="1" style="stop-color:#90C60D"/>
</linearGradient>
<path style="fill:url(#SVGID_3_);" d="M18.6,22c0.1-0.3,0.1-0.6,0.1-0.9c0-2.5-1.9-4.5-4.4-4.5c-2.5,0-4.7,2.1-4.7,4.5
	c0,0.3,0,0.6,0.1,0.9H9v-2c0-2.1-1.2-3-2.3-3C7.8,17,9,16.1,9,14V9h5c2.1,0,3-1.2,3-2.3c0-0.7-0.4-1.5-1.2-2.4
	c-0.1-0.1-0.3-0.5-0.3-0.8C15.5,2.7,16.2,2,17,2s1.5,0.7,1.5,1.5c0,0.3-0.3,0.7-0.3,0.8C17.4,5.2,17,6,17,6.7C17,7.8,17.9,9,20,9h2
	v1.4c-0.3-0.1-0.6-0.1-0.9-0.1c-2.5,0-4.5,1.9-4.5,4.4c0,2.5,2.1,4.7,4.5,4.7c0.3,0,0.6,0,0.9-0.1V22H18.6z M3.5,18.5
	C2.7,18.5,2,17.8,2,17s0.7-1.5,1.5-1.5c0.3,0,0.7,0.3,0.8,0.3C5.2,16.6,6,17,6.7,17c-0.7,0-1.5,0.4-2.4,1.2
	C4.2,18.3,3.8,18.5,3.5,18.5z"/>
</svg>
