<?xml version="1.0" encoding="utf-8"?>
<!-- Generator: Adobe Illustrator 25.2.1, SVG Export Plug-In . SVG Version: 6.00 Build 0)  -->
<svg width="24px" height="24px" version="1.1" id="Layer_1" xmlns="http://www.w3.org/2000/svg" xmlns:xlink="http://www.w3.org/1999/xlink" x="0px" y="0px"
	 viewBox="0 0 74.4 74.4" style="enable-background:new 0 0 74.4 74.4;" xml:space="preserve" preserveAspectRatio="xMinYMid meet">
<path d="M69.9,38.6c1.1,1,2.9,0.8,3.7-0.3c0.4-0.4,0.7-1.1,0.7-1.7V13.2c0-1.4-1.2-2.6-2.6-2.6l0,0H53.1c-0.6-14.1-20.7-14.1-21.3,0
	H13.2c-1.4,0-2.6,1.2-2.6,2.6l0,0v18.6c-14.1,0.6-14.1,20.7,0,21.3v18.6c0,1.4,1.2,2.6,2.6,2.6l0,0h23.4c1.4,0,2.6-1.3,2.6-2.8
	c0-0.7-0.2-1.2-0.7-1.7c-4.6-5.4,3-12.2,7.8-7.2c1.9,2,1.9,5.1,0,7.2c-1,1.1-0.9,2.8,0.2,3.7c0.4,0.4,1.1,0.7,1.8,0.7h23.4
	c1.4,0,2.6-1.2,2.6-2.6l0,0V48.2c0-1.4-1.3-2.6-2.8-2.6c-0.7,0-1.2,0.2-1.7,0.7c-2.2,2-5.5,1.8-7.5-0.3l0,0
	C58,41,64.9,34.2,69.9,38.6z M66.4,53.1c0.9,0,1.8-0.1,2.6-0.3v16.3H52.7c1.4-5.7-2-11.5-7.6-13c-5.7-1.4-11.5,2-13,7.6
	c-0.4,1.8-0.4,3.6,0,5.4H15.8v-19c0-1.4-1.2-2.6-2.6-2.6l0,0c-0.9,0.2-1.8,0.3-2.6,0.4c-7.1-0.2-7.1-10.5,0-10.6
	c0.7,0,1.2,0.1,1.8,0.3c1.4,0.4,2.9-0.2,3.4-1.7c0.1-0.2,0.1-0.6,0.1-0.9V15.9H35c1.4,0,2.6-1.2,2.6-2.6c0-0.3,0-0.6-0.1-0.9
	c-1-2.8,0.4-5.8,3.3-6.7c2.8-1,5.8,0.4,6.7,3.3c0.2,0.6,0.3,1.1,0.3,1.8l0,0c0,0.6-0.1,1.2-0.3,1.8c-0.4,1.4,0.2,2.9,1.7,3.4
	c0.3,0.1,0.6,0.1,0.9,0.1h19.1v16.3c-5.7-1.4-11.5,2-12.9,7.7c-1.4,5.7,2,11.5,7.7,12.9C64.7,53,65.5,53.3,66.4,53.1L66.4,53.1z"/>
</svg>
