<svg xmlns="http://www.w3.org/2000/svg" viewBox="0 0 156.119 197.938" height="197.938" width="156.119">
  <path d="M231.696 171.946l-.47-.764c-8.255-9.05-47.545-23.856-55.804-23.856h-1.966l-.067-13.8h2.1c11.07 0 35.6 4.847 56.44 19.197 20.63-14.256 43.15-19.195 55.19-19.198h1.42l.07 13.8h-1.567c-9.616 0-45.89 15.914-53.13 23.857l-.47.764z" fill="#be6116" stroke="#be6116" stroke-width="3.139" transform="matrix(1.10117 0 0 1.21395 -176.32 -90.795)"/>
  <path d="M231.853 170.445l-.378-.614c-7.487-8.21-44.28-23.64-54.84-23.64h-1.578v-11.15h1.687c14.97 0 38.46 8.48 55.188 20 16.562-11.44 38.26-19.99 53.835-19.99h1.147v11.15h-1.256c-10.894 0-45.064 16.025-52.012 23.646l-.378.615z" fill="#fccf78" stroke="#fcd078" stroke-width="1.319" transform="matrix(1.10117 0 0 1.21395 -176.32 -90.795)"/>
  <path d="M79.09 114.485l-.335-.6C70.683 104.125 33.97 85.35 19.61 85.35h-1.498V74.425h1.498c14.473 0 44.42 13.562 59.283 24.848C93.61 88.06 123.28 74.425 137.12 74.425h1.02V85.35h-1.02c-14.85 0-48.69 19.167-56.436 28.534l-.335.6z" fill="#f7931e"/>
  <path d="M231.696 171.946l-.47-.764c-8.255-9.05-47.545-23.856-55.804-23.856h-1.966l-.067-13.8h2.1c11.07 0 35.6 4.847 56.44 19.197 20.63-14.256 43.15-19.195 55.19-19.198h1.42l.07 13.8h-1.567c-9.616 0-45.89 15.914-53.13 23.857l-.47.764z" fill="#be6116" stroke="#be6116" stroke-width="3.139" transform="matrix(1.20972 0 0 1.26295 -201.395 -58.942)"/>
  <path d="M231.853 170.445l-.378-.614c-7.487-8.21-44.28-23.64-54.84-23.64h-1.578v-11.15h1.687c14.97 0 38.46 8.48 55.188 20 16.562-11.44 38.26-19.99 53.835-19.99h1.147v11.15h-1.256c-10.894 0-45.064 16.025-52.012 23.646l-.378.615z" fill="#fccf78" stroke="#fcd078" stroke-width="1.319" transform="matrix(1.20972 0 0 1.26295 -201.395 -58.942)"/>
  <path d="M79.194 154.624l-.37-.625c-8.868-10.16-49.2-29.69-64.973-29.69h-1.64v-11.37h1.65c15.9 0 48.8 14.11 65.13 25.85 16.17-11.67 48.768-25.85 63.97-25.85h1.12v11.36h-1.12c-16.312 0-53.49 19.94-62 29.68l-.37.624z" fill="#f7931e"/>
  <path d="M134.717 45.796c-16.18 0-45.296 16.09-54.325 27.393h-.283c-9.04-11.31-42.53-27.4-58.71-27.4V29.51c16.17 0 46.71-17.076 55.74-26.966h.28c9.03 9.89 41.11 26.966 57.29 26.966z" fill="#bd6116" stroke="#be6116" stroke-width="5.1"/>
  <path d="M275.616 114.36c-12 0-36.482 12.64-43.18 20.64h-.21c-6.7-8-34.362-20.64-46.362-20.64v-9.27c12 0 37.465-13.09 44.162-20.09h.21c6.7 7 33.38 20.09 45.38 20.09z" fill="#fcd078" stroke="#fccf78" stroke-width="1.978" transform="matrix(1.20058 0 0 1.25397 -198.917 -99.94)"/>
  <path d="M130.013 41.76c-12.977 0-43.112 15.462-50.355 24.5h-.227c-7.24-9.038-40.25-24.5-53.23-24.5v-8.217c12.98 0 43.62-15.854 50.86-23.76h.23c7.25 7.906 39.76 23.76 52.74 23.76z" fill="#f7931e"/>
  <path d="M231.696 171.946l-.47-.764c-8.255-9.05-47.545-23.856-55.804-23.856h-1.966l-.067-13.8h2.1c11.07 0 35.6 4.847 56.44 19.197 20.63-14.256 43.15-19.195 55.19-19.198h1.42l.07 13.8h-1.567c-9.616 0-45.89 15.914-53.13 23.857l-.47.764z" fill="#666" stroke="#666" stroke-width="3.139" transform="matrix(1.31867 0 0 1.27537 -226.563 -23.358)"/>
  <path d="M231.853 170.445l-.378-.614c-7.487-8.21-44.28-23.64-54.84-23.64h-1.578v-11.15h1.687c14.97 0 38.46 8.48 55.188 20 16.562-11.44 38.26-19.99 53.835-19.99h1.147v11.15h-1.256c-10.894 0-45.064 16.025-52.012 23.646l-.378.615z" fill="#ccc" stroke="#ccc" stroke-width="1.319" transform="matrix(1.31867 0 0 1.27537 -226.563 -23.358)"/>
  <path d="M79.296 192.308l-.402-.63c-9.667-10.254-53.63-29.98-70.826-29.98H6.272V150.22h1.795c17.33 0 53.192 14.25 70.992 26.107 17.62-11.78 53.15-26.105 69.72-26.105H150v11.48h-1.22c-17.782 0-58.306 20.136-67.582 29.977l-.4.63z" fill="gray"/>
</svg>
