<svg width="24" height="24" viewBox="0 0 6.35 6.35" xmlns="http://www.w3.org/2000/svg"><path style="fill:none;stroke:#000;stroke-width:.39687499;stroke-linecap:round;stroke-linejoin:round;stroke-miterlimit:4;stroke-dasharray:none;stroke-opacity:1;paint-order:normal" d="M.266 5.292s1.893.121 2.91.83c.907-.661 2.91-.83 2.91-.83l-.002-.688s-1.793.063-2.91.738c-1.039-.666-2.91-.738-2.91-.738Z"/><path d="M.564 3.865s1.571.08 2.611.705c1.007-.67 2.611-.715 2.611-.715v-.649s-1.642.057-2.611.644C2.079 3.233.564 3.216.564 3.216ZM.812 2.555s1.312.056 2.363.587c.982-.507 2.363-.587 2.363-.587v-.619s-1.402.047-2.363.519C2.13 1.955.812 1.936.812 1.936ZM5.387 1.28s-1.364.038-2.213.467c-.77-.41-2.202-.46-2.202-.46L.962.824S2.418.649 3.177.243c.755.4 2.202.588 2.202.588z" style="fill:none;stroke:#000;stroke-width:.39687499;stroke-linecap:round;stroke-linejoin:round;stroke-miterlimit:4;stroke-dasharray:none;stroke-opacity:1"/></svg>