<svg width="24" height="24" viewBox="0 0 24 24" fill="none" xmlns="http://www.w3.org/2000/svg" preserveAspectRatio="xMinYMid meet">
<path d="M8.00391 8.49805C8.00391 8.2219 8.22776 7.99805 8.50391 7.99805L15.5085 7.99805C15.7847 7.99805 16.0085 8.22191 16.0085 8.49805C16.0085 8.52777 16.006 8.55689 16.001 8.5852V10.3735C16.001 10.6496 15.7771 10.8735 15.501 10.8735C15.2248 10.8735 15.001 10.6496 15.001 10.3735V8.99805H12.5V14.9988H13.5C13.7761 14.9988 14 15.2226 14 15.4988C14 15.7749 13.7761 15.9988 13.5 15.9988H10.5C10.2239 15.9988 10 15.7749 10 15.4988C10 15.2226 10.2239 14.9988 10.5 14.9988H11.5V8.99805H9.00391V10.3735C9.00391 10.6496 8.78005 10.8735 8.50391 10.8735C8.22776 10.8735 8.00391 10.6496 8.00391 10.3735V8.49805Z" fill="#212529"/>
<path fill-rule="evenodd" clip-rule="evenodd" d="M3 2.50012C2.72386 2.50012 2.5 2.72398 2.5 3.00012V6.00012C2.5 6.27626 2.72386 6.50012 3 6.50012H4V17.4999H3C2.72386 17.4999 2.5 17.7237 2.5 17.9999V20.9999C2.5 21.276 2.72386 21.4999 3 21.4999H6C6.27614 21.4999 6.5 21.276 6.5 20.9999V19.9999H17.5V20.9999C17.5 21.276 17.7239 21.4999 18 21.4999H21C21.2761 21.4999 21.5 21.276 21.5 20.9999V17.9999C21.5 17.7237 21.2761 17.4999 21 17.4999H19.9998V6.50012H21C21.2761 6.50012 21.5 6.27626 21.5 6.00012V3.00012C21.5 2.72398 21.2761 2.50012 21 2.50012H18C17.7239 2.50012 17.5 2.72398 17.5 3.00012V4.00012H6.5V3.00012C6.5 2.72398 6.27614 2.50012 6 2.50012H3ZM6.5 5.00012V6.00012C6.5 6.27626 6.27614 6.50012 6 6.50012H5V17.4999H6C6.27614 17.4999 6.5 17.7237 6.5 17.9999V18.9999H17.5V17.9999C17.5 17.7237 17.7239 17.4999 18 17.4999H18.9998V6.50012H18C17.7239 6.50012 17.5 6.27626 17.5 6.00012V5.00012H6.5ZM3.5 5.50012V3.50012H5.5V5.50012H3.5ZM3.5 20.4999V18.4999H5.5V20.4999H3.5ZM18.5 3.50012V5.50012H20.5V3.50012H18.5ZM18.5 20.4999V18.4999H20.5V20.4999H18.5Z" fill="#212529"/>
</svg>
