<?xml version="1.0" encoding="UTF-8" standalone="no"?>
<!-- Created with Inkscape (http://www.inkscape.org/) -->

<svg
   xmlns:dc="http://purl.org/dc/elements/1.1/"
   xmlns:cc="http://creativecommons.org/ns#"
   xmlns:rdf="http://www.w3.org/1999/02/22-rdf-syntax-ns#"
   xmlns:svg="http://www.w3.org/2000/svg"
   xmlns="http://www.w3.org/2000/svg"
   xmlns:sodipodi="http://sodipodi.sourceforge.net/DTD/sodipodi-0.dtd"
   xmlns:inkscape="http://www.inkscape.org/namespaces/inkscape"
   width="29"
   height="29"
   id="svg2992"
   version="1.1"
   inkscape:version="0.92.3 (2405546, 2018-03-11)"
   sodipodi:docname="length.svg"
   inkscape:export-filename="C:\projects\GRAPH\resources-graph\icons\segment.png"
   inkscape:export-xdpi="90"
   inkscape:export-ydpi="90">
  <defs
     id="defs2994" />
  <sodipodi:namedview
     id="base"
     pagecolor="#ffffff"
     bordercolor="#666666"
     borderopacity="1.0"
     inkscape:pageopacity="0.0"
     inkscape:pageshadow="2"
     inkscape:zoom="32"
     inkscape:cx="10.836609"
     inkscape:cy="14.859517"
     inkscape:document-units="px"
     inkscape:current-layer="g5611"
     showgrid="true"
     inkscape:snap-nodes="true"
     guidetolerance="10000"
     objecttolerance="10000"
     inkscape:object-nodes="true"
     inkscape:window-width="2560"
     inkscape:window-height="1387"
     inkscape:window-x="-8"
     inkscape:window-y="-8"
     inkscape:window-maximized="1"
     inkscape:snap-grids="true">
    <inkscape:grid
       type="xygrid"
       id="grid3000"
       empspacing="1"
       visible="true"
       enabled="true"
       snapvisiblegridlinesonly="true"
       spacingx="0.5"
       spacingy="0.5"
       dotted="false"
       originx="0"
       originy="0" />
  </sodipodi:namedview>
  <metadata
     id="metadata2997">
    <rdf:RDF>
      <cc:Work
         rdf:about="">
        <dc:format>image/svg+xml</dc:format>
        <dc:type
           rdf:resource="http://purl.org/dc/dcmitype/StillImage" />
        <dc:title />
      </cc:Work>
    </rdf:RDF>
  </metadata>
  <g
     inkscape:label="Capa 1"
     inkscape:groupmode="layer"
     id="layer1"
     transform="translate(0,-1023.3622)">
    <path
       style="fill:none;stroke:#000000;stroke-width:1px;stroke-linecap:butt;stroke-linejoin:miter;stroke-opacity:1"
       d="M 40,1047.3622 Z"
       id="path838"
       inkscape:connector-curvature="0" />
    <path
       style="fill:none;stroke:#000000;stroke-width:1px;stroke-linecap:butt;stroke-linejoin:miter;stroke-opacity:1"
       d="M 29.208191,1033.0228 Z"
       id="path840"
       inkscape:connector-curvature="0" />
    <g
       id="g5611"
       transform="rotate(-39.838383,14.170859,1037.1254)">
      <path
         style="fill:#2f4b59;fill-opacity:1;stroke:#a0a1a0;stroke-width:0;stroke-miterlimit:4;stroke-dasharray:none;stroke-opacity:1;paint-order:markers fill stroke"
         sodipodi:nodetypes="cccccccccccccccccccccccccccccccccc"
         clip-path="none"
         d="m 26,1042.3622 v -7 H 2 v 7 z m -23,-6 h 3 v 2.5 h 1 v -2.5 h 2 v 4 h 1 v -4 h 2 v 2.5 h 1 v -2.5 h 2 v 4 h 1 v -4 h 2 v 2.5 h 1 v -2.5 h 2 v 4 h 1 v -4 h 3 v 5 H 3 Z"
         id="path2"
         inkscape:connector-curvature="0" />
      <path
         transform="translate(0,1023.3622)"
         inkscape:connector-curvature="0"
         id="path5607"
         d="m 3.0084838,15.487358 v -2.484375 h 1.484375 1.484375 v 1.25 1.25 h 0.515625 0.515625 v -1.25 -1.25 h 0.984375 0.984375 v 2 2 h 0.515625 0.5156252 v -2 -2 h 0.984375 0.984375 v 1.25 1.25 h 0.515625 0.515625 v -1.25 -1.25 h 0.984375 0.984375 v 2 2 h 0.515625 0.515625 v -2 -2 h 0.984375 0.984375 v 1.25 1.25 h 0.515625 0.515625 v -1.25 -1.25 h 0.984375 0.984375 v 2 2 h 0.515625 0.515625 v -2 -2 h 1.484375 1.484375 v 2.484375 2.484375 H 13.992859 3.0084838 Z"
         style="fill:#2f4b59;fill-opacity:0.3137255;stroke:#a0a1a0;stroke-width:0.03125;stroke-miterlimit:4;stroke-dasharray:none;stroke-opacity:1;paint-order:markers fill stroke" />
    </g>
  </g>
</svg>
