<?xml version="1.0" encoding="UTF-8" standalone="no"?>
<!-- Created with Inkscape (http://www.inkscape.org/) -->

<svg
   xmlns:dc="http://purl.org/dc/elements/1.1/"
   xmlns:cc="http://creativecommons.org/ns#"
   xmlns:rdf="http://www.w3.org/1999/02/22-rdf-syntax-ns#"
   xmlns:svg="http://www.w3.org/2000/svg"
   xmlns="http://www.w3.org/2000/svg"
   xmlns:sodipodi="http://sodipodi.sourceforge.net/DTD/sodipodi-0.dtd"
   xmlns:inkscape="http://www.inkscape.org/namespaces/inkscape"
   width="29"
   height="29"
   viewBox="0 0 7.6729167 7.6729167"
   version="1.1"
   id="svg2379"
   sodipodi:docname="polygon.svg"
   inkscape:version="0.92.3 (2405546, 2018-03-11)">
  <defs
     id="defs2373" />
  <sodipodi:namedview
     id="base"
     pagecolor="#ffffff"
     bordercolor="#666666"
     borderopacity="1.0"
     inkscape:pageopacity="0.0"
     inkscape:pageshadow="2"
     inkscape:zoom="31.678384"
     inkscape:cx="11.844532"
     inkscape:cy="13.547761"
     inkscape:document-units="mm"
     inkscape:current-layer="g3824"
     showgrid="false"
     inkscape:window-width="2560"
     inkscape:window-height="1387"
     inkscape:window-x="-8"
     inkscape:window-y="-8"
     inkscape:window-maximized="1"
     units="px" />
  <metadata
     id="metadata2376">
    <rdf:RDF>
      <cc:Work
         rdf:about="">
        <dc:format>image/svg+xml</dc:format>
        <dc:type
           rdf:resource="http://purl.org/dc/dcmitype/StillImage" />
        <dc:title />
      </cc:Work>
    </rdf:RDF>
  </metadata>
  <g
     inkscape:label="Capa 1"
     inkscape:groupmode="layer"
     id="layer1"
     transform="translate(650.11314,138.58007)" />
  <g
     inkscape:groupmode="layer"
     id="layer4"
     inkscape:label="Capa 2"
     transform="translate(0,1.7015213)">
    <g
       id="g3824"
       transform="translate(-0.07307882,-0.17776639)">
      <g
         inkscape:label="Capa 1"
         id="layer1-1"
         transform="matrix(-0.17564679,0.11738153,-0.11302428,-0.17089912,125.82965,178.18157)">
        <path
           sodipodi:nodetypes="cc"
           style="fill:none;stroke:#2f4b59;stroke-width:1px;stroke-linecap:butt;stroke-linejoin:miter;stroke-opacity:1"
           d="M 7.3116653,1046.431 22.5,1030.3622"
           id="path3797"
           inkscape:connector-curvature="0" />
      </g>
      <g
         inkscape:label="Capa 1"
         id="layer1-1-4"
         transform="matrix(-0.05318315,-0.20517175,0.19755568,-0.05174564,-200.94745,60.21296)">
        <path
           style="fill:none;stroke:#2f4b59;stroke-width:1px;stroke-linecap:butt;stroke-linejoin:miter;stroke-opacity:1"
           d="m 6.5,1046.3622 16,-16"
           id="path3797-0"
           inkscape:connector-curvature="0" />
        <ellipse
           cx="7.0741978"
           cy="1046.2612"
           style="fill:#2f4b59;fill-opacity:1;fill-rule:nonzero;stroke:none;stroke-width:1.20033514"
           id="path2984-1-9-1-9-7"
           rx="3.0008383"
           ry="3.0008378" />
      </g>
      <g
         inkscape:label="Capa 1"
         id="layer1-1-4-3"
         transform="matrix(0.20521174,-0.0489934,0.04717476,0.19966492,-49.285919,-206.32354)">
        <path
           style="fill:none;stroke:#2f4b59;stroke-width:1.03111529;stroke-linecap:butt;stroke-linejoin:miter;stroke-miterlimit:4;stroke-dasharray:none;stroke-opacity:1"
           d="m 6.2728541,1046.3788 7.8913699,-8.1764"
           id="path3797-0-6"
           inkscape:connector-curvature="0" />
        <ellipse
           cx="-1046.4188"
           cy="-15.075059"
           style="fill:#2f4b59;fill-opacity:1;fill-rule:nonzero;stroke:none;stroke-width:1.20033586"
           id="path2984-1-9-1-9-2"
           rx="3.100276"
           ry="2.9045925"
           transform="matrix(-0.02101743,-0.99977911,0.99974834,-0.02243354,0,0)" />
      </g>
      <g
         inkscape:label="Capa 1"
         id="layer1-1-4-3-5"
         transform="matrix(0.1642751,0.13298276,-0.12804636,0.15983482,135.55716,-167.83323)">
        <path
           style="fill:none;stroke:#2f4b59;stroke-width:0.99827725;stroke-linecap:butt;stroke-linejoin:miter;stroke-miterlimit:4;stroke-dasharray:none;stroke-opacity:1"
           d="M 6.5344087,1046.4414 18.998418,1034.1909"
           id="path3797-0-6-4"
           inkscape:connector-curvature="0" />
        <circle
           r="2.5"
           cy="14.5"
           cx="15.5"
           style="fill:#6793a9;fill-opacity:1;fill-rule:nonzero;stroke:none"
           id="path2984-1-9-8-7"
           transform="translate(-9,1031.8622)" />
      </g>
      <path
         inkscape:connector-curvature="0"
         id="path2351"
         d="m -646.63037,-133.45822 c -0.85142,-0.52204 -1.55404,-0.95275 -1.56136,-0.95712 -0.01,-0.006 -0.01,-0.0232 0.003,-0.0705 0.0417,-0.16126 -0.003,-0.33637 -0.11584,-0.45801 -0.0275,-0.0295 -0.0501,-0.0573 -0.0501,-0.0614 0,-0.006 0.66656,-1.10345 0.67741,-1.11522 9.3e-4,-9.6e-4 0.0275,0.004 0.057,0.0146 0.12484,0.0426 0.268,0.0333 0.39247,-0.0255 0.12429,-0.0586 0.24846,-0.21789 0.26857,-0.34436 0.006,-0.0393 0.0123,-0.0472 0.0334,-0.0472 0.0141,0 0.67759,-0.0543 1.47414,-0.12056 0.79656,-0.0663 1.44936,-0.11905 1.45068,-0.11726 9.2e-4,9.5e-4 0.0172,0.0315 0.0353,0.0662 0.0406,0.0776 0.14266,0.18145 0.20682,0.21048 0.0428,0.0194 -0.16996,-0.0669 -0.17666,-0.0405 -0.004,0.0164 0.0271,0.96211 -0.19603,1.98943 -0.22316,1.02732 -0.40815,1.87027 -0.41107,1.87319 -0.003,0.003 -0.0397,-6.1e-4 -0.0818,-0.008 -0.13929,-0.024 -0.31414,0.0285 -0.40658,0.12207 -0.022,0.0222 -0.0424,0.04 -0.0455,0.0396 -0.003,-4.2e-4 -0.70231,-0.4279 -1.55373,-0.94997 z"
         style="fill:#2f4b59;fill-opacity:0.31372549;stroke:none;stroke-width:0.01141234"
         transform="translate(650.11313,136.87855)"
         sodipodi:nodetypes="ccccsccccsccccccsccccc" />
      <ellipse
         cx="-0.89057249"
         cy="2.4764762"
         style="fill:#2f4b59;fill-opacity:1;fill-rule:nonzero;stroke:none;stroke-width:0.24973026"
         id="path2984-1-9-1-9"
         rx="0.63603538"
         ry="0.61283147"
         transform="matrix(-0.25092005,-0.96800781,0.96736638,-0.25338169,0,0)" />
      <ellipse
         cx="-1.6033207"
         cy="6.1121135"
         style="fill:#2f4b59;fill-opacity:1;fill-rule:nonzero;stroke:none;stroke-width:0.24973026"
         id="path2984-1-9-1-9-1"
         rx="0.63603538"
         ry="0.61283147"
         transform="matrix(-0.25092005,-0.96800781,0.96736638,-0.25338169,0,0)" />
    </g>
  </g>
</svg>
