<?xml version="1.0" encoding="UTF-8" standalone="no"?>
<!-- Created with Inkscape (http://www.inkscape.org/) -->

<svg
   xmlns:dc="http://purl.org/dc/elements/1.1/"
   xmlns:cc="http://creativecommons.org/ns#"
   xmlns:rdf="http://www.w3.org/1999/02/22-rdf-syntax-ns#"
   xmlns:svg="http://www.w3.org/2000/svg"
   xmlns="http://www.w3.org/2000/svg"
   xmlns:sodipodi="http://sodipodi.sourceforge.net/DTD/sodipodi-0.dtd"
   xmlns:inkscape="http://www.inkscape.org/namespaces/inkscape"
   width="29"
   height="29"
   id="svg2992"
   version="1.1"
   inkscape:version="0.48.4 r9939"
   sodipodi:docname="settings.svg"
   inkscape:export-filename="C:\Program Files (x86)\EasyPHP-5.3.8.1\www\GRAPH\resources-util\icons\cursor.png"
   inkscape:export-xdpi="90"
   inkscape:export-ydpi="90">
  <sodipodi:namedview
     id="base"
     pagecolor="#ffffff"
     bordercolor="#666666"
     borderopacity="1.0"
     inkscape:pageopacity="0.0"
     inkscape:pageshadow="2"
     inkscape:zoom="4"
     inkscape:cx="55.884168"
     inkscape:cy="37.475647"
     inkscape:document-units="px"
     inkscape:current-layer="layer1"
     showgrid="true"
     inkscape:snap-nodes="true"
     guidetolerance="10000"
     objecttolerance="10000"
     inkscape:object-nodes="true"
     inkscape:window-width="1280"
     inkscape:window-height="953"
     inkscape:window-x="-4"
     inkscape:window-y="-4"
     inkscape:window-maximized="1"
     inkscape:snap-grids="true">
    <inkscape:grid
       type="xygrid"
       id="grid3000"
       empspacing="5"
       visible="true"
       enabled="true"
       snapvisiblegridlinesonly="true"
       spacingx="1px"
       spacingy="1px" />
  </sodipodi:namedview>
  <defs
     id="defs2994" />
  <metadata
     id="metadata2997">
    <rdf:RDF>
      <cc:Work
         rdf:about="">
        <dc:format>image/svg+xml</dc:format>
        <dc:type
           rdf:resource="http://purl.org/dc/dcmitype/StillImage" />
        <dc:title />
      </cc:Work>
    </rdf:RDF>
  </metadata>
  <g
     inkscape:label="Capa 1"
     inkscape:groupmode="layer"
     id="layer1"
     transform="translate(0,-1023.3622)" />
  <path
     style="fill:#2f4b59;fill-opacity:1;stroke:none"
     d="m 11.21875,3.9375 -0.75,1.1875 C 10.42658,5.4942966 10.24826,5.8485848 10.3125,6.21875 10.171467,6.3655324 9.788819,6.375681 9.5625,6.46875 9.390087,6.419527 9.275931,6.050357 9.0625,5.90625 8.829308,5.5366009 8.428409,5.3872515 8.0625,5.1875 7.818586,5.0972166 7.580082,4.8089559 7.34375,5.0625 l -0.0625,1.375 C 7.429221,6.7784531 7.446881,7.2115033 7.6875,7.5 7.638663,7.697503 7.337113,7.868918 7.1875,8.0625 7.013702,8.106611 6.725201,7.83026 6.46875,7.8125 6.081926,7.609447 5.6354886,7.70912 5.21875,7.71875 4.962367,7.76231 4.609103,7.630878 4.53125,7.96875 l 0.625,1.21875 c 0.299104,0.221421 0.552898,0.558348 0.90625,0.6875 0.056309,0.195384 -0.12324,0.538857 -0.15625,0.78125 -0.128688,0.125022 -0.5189148,0.01233 -0.75,0.125 -0.4369869,0.01728 -0.7686368,0.314294 -1.125,0.53125 -0.2001935,0.165989 -0.601463,0.231016 -0.5,0.5625 l 1.1875,0.75 c 0.3692966,0.04217 0.7235848,0.22049 1.09375,0.15625 0.14678,0.141032 0.15693,0.523681 0.25,0.75 -0.049223,0.172413 -0.4183926,0.286569 -0.5625,0.5 -0.3696491,0.233192 -0.5189985,0.634091 -0.71875,1 -0.090283,0.243914 -0.3785441,0.482418 -0.125,0.71875 l 1.375,0.0625 c 0.340953,-0.147971 0.774003,-0.165631 1.0625,-0.40625 0.197503,0.04884 0.368918,0.350387 0.5625,0.5 0.044111,0.173798 -0.23224,0.462299 -0.25,0.71875 -0.203052,0.386824 -0.10335,0.833261 -0.09375,1.25 0.04356,0.256383 -0.087872,0.60965 0.25,0.6875 l 1.21875,-0.625 c 0.221421,-0.299104 0.558348,-0.552899 0.6875,-0.90625 0.195384,-0.05631 0.538857,0.12324 0.78125,0.15625 0.125022,0.128688 0.01233,0.518915 0.125,0.75 0.01728,0.436987 0.314294,0.768637 0.53125,1.125 0.165989,0.200193 0.231016,0.601463 0.5625,0.5 l 0.75,-1.1875 c 0.04217,-0.369297 0.22049,-0.723585 0.15625,-1.09375 0.141032,-0.14678 0.523681,-0.15693 0.75,-0.25 0.172413,0.04922 0.286569,0.418393 0.5,0.5625 0.233192,0.369649 0.634091,0.518998 1,0.71875 0.243914,0.09029 0.482418,0.378544 0.71875,0.125 l 0.0625,-1.375 C 15.258279,16.721547 15.240618,16.288497 15,16 c 0.04884,-0.197503 0.350387,-0.368918 0.5,-0.5625 0.173798,-0.04411 0.462299,0.23224 0.71875,0.25 0.386824,0.203052 0.833261,0.10335 1.25,0.09375 0.256383,-0.04356 0.60965,0.08787 0.6875,-0.25 l -0.625,-1.21875 C 17.232146,14.091079 16.978351,13.754152 16.625,13.625 c -0.05631,-0.195384 0.12324,-0.538857 0.15625,-0.78125 0.128688,-0.125022 0.518915,-0.01233 0.75,-0.125 0.436987,-0.01728 0.768636,-0.314294 1.125,-0.53125 0.200193,-0.165989 0.601463,-0.231016 0.5,-0.5625 l -1.1875,-0.75 c -0.383728,-0.04248 -0.771456,-0.24441 -1.15625,-0.15625 l -0.1875,-0.75 c 0.04922,-0.172413 0.418393,-0.286569 0.5625,-0.5 0.369649,-0.233192 0.518998,-0.634091 0.71875,-1 0.09029,-0.243914 0.378544,-0.482418 0.125,-0.71875 l -1.375,-0.0625 c -0.340953,0.147971 -0.774003,0.165631 -1.0625,0.40625 -0.197503,-0.048837 -0.368918,-0.350387 -0.5625,-0.5 C 14.98714,7.419952 15.26349,7.1314513 15.28125,6.875 15.484302,6.4881765 15.3846,6.0417388 15.375,5.625 15.33144,5.368617 15.46287,5.015353 15.125,4.9375 l -1.21875,0.625 C 13.684829,5.861604 13.347902,6.1153985 13.21875,6.46875 13.023366,6.525059 12.679893,6.345507 12.4375,6.3125 12.312478,6.1838123 12.42517,5.7935852 12.3125,5.5625 12.29522,5.1255131 11.998206,4.7938632 11.78125,4.4375 11.615261,4.2373065 11.550234,3.836037 11.21875,3.9375 z M 11.625,8.75 c 0.208072,0.019165 0.422335,0.055293 0.625,0.125 1.230329,0.366878 2.112544,1.589642 2.09375,2.875 0.05229,1.716693 -1.609942,3.227237 -3.3125,3 C 9.320489,14.625726 8.010645,12.825892 8.40625,11.15625 8.665373,9.679396 10.168499,8.615843 11.625,8.75 z"
     id="path3663"
     inkscape:connector-curvature="0" />
  <path
     style="fill:#2f4b59;fill-opacity:1;stroke:none"
     d="m 20.9375,13.59375 -0.53125,0.84375 -0.125,0.65625 L 20.3125,15.25 19.71875,15.40625 19.65625,15.25 19.21875,14.75 18.3125,14.28125 18.15625,14.375 18.125,15.375 18.34375,16 18.4375,16.125 18,16.5625 17.875,16.46875 17.25,16.25 l -1,0.03125 -0.09375,0.15625 0.46875,0.90625 0.5,0.4375 0.15625,0.0625 -0.15625,0.59375 -0.15625,-0.03125 -0.65625,0.125 -0.84375,0.53125 0,0.1875 0.84375,0.53125 0.65625,0.125 0.15625,-0.03125 0.15625,0.59375 -0.15625,0.0625 -0.5,0.4375 -0.46875,0.90625 0.09375,0.15625 1,0.03125 0.625,-0.21875 L 18,21.75 l 0.4375,0.4375 -0.09375,0.125 -0.21875,0.625 0.03125,1 0.15625,0.09375 0.90625,-0.46875 0.4375,-0.5 0.0625,-0.15625 0.59375,0.15625 -0.03125,0.15625 0.125,0.65625 0.53125,0.84375 0.1875,0 0.53125,-0.84375 0.125,-0.65625 -0.03125,-0.15625 0.59375,-0.15625 0.0625,0.15625 0.4375,0.5 0.90625,0.46875 0.15625,-0.09375 0.03125,-1 -0.21875,-0.625 -0.09375,-0.125 0.4375,-0.4375 0.125,0.09375 0.625,0.21875 1,-0.03125 0.09375,-0.15625 -0.46875,-0.90625 -0.5,-0.4375 -0.15625,-0.0625 0.15625,-0.59375 0.15625,0.03125 0.65625,-0.125 0.84375,-0.53125 0,-0.1875 -0.84375,-0.53125 -0.65625,-0.125 -0.15625,0.03125 -0.15625,-0.59375 0.15625,-0.0625 0.5,-0.4375 0.46875,-0.90625 -0.09375,-0.15625 -1,-0.03125 -0.625,0.21875 -0.125,0.09375 L 23.625,16.125 23.71875,16 23.9375,15.375 23.90625,14.375 23.75,14.28125 22.84375,14.75 l -0.4375,0.5 -0.0625,0.15625 L 21.75,15.25 l 0.03125,-0.15625 -0.125,-0.65625 -0.53125,-0.84375 -0.1875,0 z m 0.09375,3.5625 c 1.104569,0 2,0.895431 2,2 0,1.104569 -0.895431,2 -2,2 -1.104569,0 -2,-0.895431 -2,-2 0,-1.104569 0.895431,-2 2,-2 z"
     id="path3828"
     inkscape:connector-curvature="0" />
  <path
     sodipodi:type="arc"
     style="color:#000000;fill:#ff0000;fill-opacity:1;fill-rule:nonzero;stroke:none;stroke-width:0;marker:none;visibility:visible;display:inline;overflow:visible;enable-background:accumulate"
     id="path4610"
     sodipodi:cx="0"
     sodipodi:cy="0"
     sodipodi:rx="0"
     sodipodi:ry="0"
     d="M 0,0 A 0,0 0 1 1 0,0 0,0 0 1 1 0,0 z" />
</svg>
