<?xml version="1.0" encoding="UTF-8" standalone="no"?>
<!-- Created with Inkscape (http://www.inkscape.org/) -->

<svg
   xmlns:dc="http://purl.org/dc/elements/1.1/"
   xmlns:cc="http://creativecommons.org/ns#"
   xmlns:rdf="http://www.w3.org/1999/02/22-rdf-syntax-ns#"
   xmlns:svg="http://www.w3.org/2000/svg"
   xmlns="http://www.w3.org/2000/svg"
   xmlns:sodipodi="http://sodipodi.sourceforge.net/DTD/sodipodi-0.dtd"
   xmlns:inkscape="http://www.inkscape.org/namespaces/inkscape"
   width="29"
   height="29"
   id="svg2992"
   version="1.1"
   inkscape:version="0.91 r13725"
   sodipodi:docname="trash_cross.svg"
   inkscape:export-filename="C:\projects\GRAPH\resources-util\icons\toolbar\29x29\trash_cross.png"
   inkscape:export-xdpi="89.927963"
   inkscape:export-ydpi="89.927963">
  <defs
     id="defs2994" />
  <sodipodi:namedview
     id="base"
     pagecolor="#ffffff"
     bordercolor="#666666"
     borderopacity="1.0"
     inkscape:pageopacity="0.0"
     inkscape:pageshadow="2"
     inkscape:zoom="32"
     inkscape:cx="10.125418"
     inkscape:cy="12.743409"
     inkscape:document-units="px"
     inkscape:current-layer="g4004"
     showgrid="true"
     inkscape:snap-nodes="true"
     guidetolerance="10000"
     objecttolerance="10000"
     inkscape:object-nodes="true"
     inkscape:window-width="2560"
     inkscape:window-height="1377"
     inkscape:window-x="1912"
     inkscape:window-y="-8"
     inkscape:window-maximized="1">
    <inkscape:grid
       type="xygrid"
       id="grid3000"
       empspacing="5"
       visible="true"
       enabled="true"
       snapvisiblegridlinesonly="true"
       spacingx="0.5"
       spacingy="0.5" />
  </sodipodi:namedview>
  <metadata
     id="metadata2997">
    <rdf:RDF>
      <cc:Work
         rdf:about="">
        <dc:format>image/svg+xml</dc:format>
        <dc:type
           rdf:resource="http://purl.org/dc/dcmitype/StillImage" />
        <dc:title></dc:title>
      </cc:Work>
    </rdf:RDF>
  </metadata>
  <g
     inkscape:label="Capa 1"
     inkscape:groupmode="layer"
     id="layer1"
     transform="translate(0,-1023.3622)">
    <g
       id="g4004"
       transform="translate(-692,312.00002)"
       inkscape:export-filename="C:\Users\Juan\Desktop\trash.png"
       inkscape:export-xdpi="89.927963"
       inkscape:export-ydpi="89.927963">
      <path
         sodipodi:nodetypes="cccscsc"
         inkscape:connector-curvature="0"
         id="path3848"
         d="m 701,721.36218 11,0 0,-1 c 0,0 0,-1 -1,-1 -1,0 -9,0 -9,0 0,0 -1,0 -1,1 0,2 0,1 0,1 z"
         style="fill:#2f4b59;fill-opacity:1;stroke:none" />
      <path
         id="path3850"
         d="m 701,722.375 0,10 c 0,1 1,1 1,1 l 9,0 c 1,0 1,-1 1,-1 l 0,-10 z m 2.5,3.48718 1,-1 2,2 2,-2 1,1 -2,2 2,2 -1,1 -2,-2 -2,2 -1,-1 2,-2 z"
         style="fill:#2f4b59;fill-opacity:1;stroke:none"
         inkscape:connector-curvature="0"
         sodipodi:nodetypes="cscscccccccccccccccc" />
      <path
         sodipodi:nodetypes="ccccccscc"
         inkscape:connector-curvature="0"
         id="path3856"
         d="m 704,719.36218 c 0,-1 1,-2 2,-2 0,0 0,0 1,0 1,0 2,1 2,2 l -1,0 c 0,0 0,-1 -1,-1 0,0 0,0 -1,0 -1,0 -1,1 -1,1 z"
         style="fill:#2f4b59;fill-opacity:1;stroke:none" />
    </g>
  </g>
</svg>
