<?xml version="1.0" encoding="utf-8"?>
<!-- Generator: Adobe Illustrator 21.1.0, SVG Export Plug-In . SVG Version: 6.00 Build 0)  -->
<svg version="1.1"
	 id="svg2" inkscape:version="0.91 r13725" sodipodi:docname="icon.svg" xmlns:cc="http://creativecommons.org/ns#" xmlns:dc="http://purl.org/dc/elements/1.1/" xmlns:inkscape="http://www.inkscape.org/namespaces/inkscape" xmlns:rdf="http://www.w3.org/1999/02/22-rdf-syntax-ns#" xmlns:sodipodi="http://sodipodi.sourceforge.net/DTD/sodipodi-0.dtd" xmlns:svg="http://www.w3.org/2000/svg"
	 xmlns="http://www.w3.org/2000/svg" xmlns:xlink="http://www.w3.org/1999/xlink" x="0px" y="0px" viewBox="0 0 48 48"
	 style="enable-background:new 0 0 48 48;" xml:space="preserve">
<style type="text/css">
	.st0{fill:#CC0000;}
	.st1{fill:none;}
</style>
<sodipodi:namedview  bordercolor="#666666" borderopacity="1" gridtolerance="10" guidetolerance="10" id="namedview8" inkscape:current-layer="svg2" inkscape:cx="24" inkscape:cy="24" inkscape:pageopacity="0" inkscape:pageshadow="2" inkscape:window-height="663" inkscape:window-maximized="0" inkscape:window-width="1080" inkscape:window-x="10" inkscape:window-y="34" inkscape:zoom="4.9166667" objecttolerance="10" pagecolor="#ffffff" showgrid="false">
	</sodipodi:namedview>
<path id="path4" class="st0" d="M42.1,0.8H5.9C3.1,0.8,0.7,3.1,0.7,6v36.1c0,2.8,2.3,5.2,5.2,5.2H42c2.8,0,5.2-2.3,5.2-5.2V5.9
	C47.2,3.1,44.9,0.8,42.1,0.8z M16.3,36.9h-5.2V18.8h5.2V36.9z M26.6,36.9h-5.2V11.1h5.2C26.6,11.1,26.6,36.9,26.6,36.9z M36.9,36.9
	h-5.2V26.6h5.2V36.9z"/>
<path id="path6" class="st1" d="M0,0h48v48H0V0z"/>
</svg>
