<?xml version="1.0" encoding="utf-8"?>
<!-- Generator: Adobe Illustrator 15.1.0, SVG Export Plug-In  -->
<!DOCTYPE svg PUBLIC "-//W3C//DTD SVG 1.1//EN" "http://www.w3.org/Graphics/SVG/1.1/DTD/svg11.dtd" [
	<!ENTITY ns_flows "http://ns.adobe.com/Flows/1.0/">
]>
<svg version="1.1"
	 xmlns="http://www.w3.org/2000/svg" xmlns:xlink="http://www.w3.org/1999/xlink" xmlns:a="http://ns.adobe.com/AdobeSVGViewerExtensions/3.0/"
	 x="0px" y="0px" width="16px" height="16px" viewBox="-1 -1 16 16" style="overflow:visible;enable-background:new -1 -1 16 16;"
	 xml:space="preserve" preserveAspectRatio="xMinYMid meet">
<defs>
</defs>
<path style="fill:#999;" d="M0,14.6c0.9-0.1,1.5-0.2,1.8-0.4s0.4-0.8,0.4-1.6V2.5c0-0.8-0.1-1.4-0.4-1.6C1.5,0.6,0.9,0.5,0,0.4V0
	h6.3c1.8,0,3.3,0.3,4.3,0.9c1.1,0.6,1.6,1.6,1.6,3c0,1.1-0.4,1.9-1.1,2.4c-0.4,0.3-1.1,0.6-1.9,0.8c1,0.3,1.9,0.7,2.7,1.3
	C12.7,9,13,9.8,13,10.8c0,1.8-0.8,3-2.5,3.7C9.7,14.8,8.6,15,7.4,15H0V14.6z M8.5,6.4C9.5,5.9,10,5.1,10,4c0-1.4-0.6-2.3-1.7-2.7
	C7.7,1,6.8,0.8,5.5,0.8C5,0.8,4.7,0.9,4.6,1C4.5,1,4.5,1.3,4.5,1.6v5.1l2.2,0C7.4,6.7,8,6.6,8.5,6.4z M9.3,13.5
	c0.8-0.5,1.2-1.3,1.2-2.6c0-1.3-0.5-2.1-1.4-2.6C8.1,7.8,7,7.6,5.6,7.6c-0.3,0-0.6,0-0.7,0s-0.2,0-0.4,0v5.6c0,0.4,0.1,0.6,0.3,0.8
	c0.2,0.1,0.7,0.2,1.5,0.2C7.5,14.2,8.5,14,9.3,13.5z"/>
</svg>
