<?xml version="1.0" encoding="utf-8"?>
<!-- Generator: Adobe Illustrator 15.1.0, SVG Export Plug-In  -->
<!DOCTYPE svg PUBLIC "-//W3C//DTD SVG 1.1//EN" "http://www.w3.org/Graphics/SVG/1.1/DTD/svg11.dtd" [
	<!ENTITY ns_flows "http://ns.adobe.com/Flows/1.0/">
]>
<svg version="1.1"
	 xmlns="http://www.w3.org/2000/svg" xmlns:xlink="http://www.w3.org/1999/xlink" xmlns:a="http://ns.adobe.com/AdobeSVGViewerExtensions/3.0/"
	 x="0px" y="0px" width="16px" height="16px" viewBox="0 0 16 16" style="overflow:visible;enable-background:new 0 0 16 16;"
	 xml:space="preserve" preserveAspectRatio="xMinYMid meet">
<defs>
</defs>
<path style="fill:#999;" d="M8,0C3.6,0,0,3.6,0,8c0,4.4,3.6,8,8,8c4.4,0,8-3.6,8-8C16,3.6,12.4,0,8,0z M8,15c-3.9,0-7-3.1-7-7
	s3.1-7,7-7s7,3.1,7,7S11.9,15,8,15z M8.5,13C7.7,13,7,12.3,7,11.5c0-0.8,0.6-1.6,1.5-1.6c0.8,0,1.5,0.7,1.5,1.5S9.3,13,8.5,13z
	 M6,6.6c-0.6,0-1-0.4-1-1C4.9,4.5,6.1,3,8.3,3c1.4,0,3.4,1,3.4,2.6c0,0.8-0.5,1.5-1.5,1.9C8.7,8,9.5,9.1,8.2,9.1c-0.6,0-1-0.3-1-0.9
	c0-1.2,1.2-1.8,1.2-3c0-0.3-0.1-0.7-0.5-0.7c-0.4,0-0.4,0.4-0.4,0.7C7.4,6.1,6.9,6.6,6,6.6z"/>
</svg>
