<?xml version="1.0" encoding="utf-8"?>
<!-- Generator: Adobe Illustrator 15.1.0, SVG Export Plug-In  -->
<!DOCTYPE svg PUBLIC "-//W3C//DTD SVG 1.1//EN" "http://www.w3.org/Graphics/SVG/1.1/DTD/svg11.dtd" [
	<!ENTITY ns_flows "http://ns.adobe.com/Flows/1.0/">
]>
<svg version="1.1"
	 xmlns="http://www.w3.org/2000/svg" xmlns:xlink="http://www.w3.org/1999/xlink" xmlns:a="http://ns.adobe.com/AdobeSVGViewerExtensions/3.0/"
	 x="0px" y="0px" width="16px" height="16px" viewBox="-1 0 16 16" style="overflow:visible;enable-background:new -1 0 16 16;"
	 xml:space="preserve" preserveAspectRatio="xMinYMid meet">
<defs>
</defs>
<path style="fill:#999;" d="M13.7,4.1C13.9,4.5,14,4.9,14,5.2v9.5c0,0.3-0.1,0.6-0.4,0.9c-0.2,0.2-0.5,0.4-0.9,0.4H1.2
	c-0.3,0-0.6-0.1-0.9-0.4C0.1,15.4,0,15.1,0,14.7V1.2c0-0.3,0.1-0.6,0.4-0.9S0.9,0,1.2,0h7.5c0.3,0,0.7,0.1,1.1,0.3
	c0.4,0.2,0.8,0.4,1,0.6l2.2,2.2C13.4,3.4,13.6,3.7,13.7,4.1z M13,5.2c0-0.1,0-0.2,0-0.2H9V1C8.9,1,8.8,1,8.8,1H1.2
	C1.1,1,1,1.1,1,1.2v13.5C1,14.9,1.1,15,1.2,15h11.5c0.2,0,0.2-0.1,0.2-0.3V5.2z M10.2,1.6c-0.1,0-0.1-0.1-0.2-0.2V4h2.6
	c-0.1-0.1-0.1-0.1-0.2-0.2L10.2,1.6z"/>
</svg>
