<?xml version="1.0" encoding="utf-8"?>
<!-- Generator: Adobe Illustrator 15.1.0, SVG Export Plug-In  -->
<!DOCTYPE svg PUBLIC "-//W3C//DTD SVG 1.1//EN" "http://www.w3.org/Graphics/SVG/1.1/DTD/svg11.dtd" [
	<!ENTITY ns_flows "http://ns.adobe.com/Flows/1.0/">
]>
<svg version="1.1"
	 xmlns="http://www.w3.org/2000/svg" xmlns:xlink="http://www.w3.org/1999/xlink" xmlns:a="http://ns.adobe.com/AdobeSVGViewerExtensions/3.0/"
	 x="0px" y="0px" width="16px" height="16px" viewBox="0 -1 16 16" style="overflow:visible;enable-background:new 0 -1 16 16;"
	 xml:space="preserve" preserveAspectRatio="xMinYMid meet">
<defs>
</defs>
<path style="fill:#999;" d="M15.7,3.3C15.9,3.5,16,3.7,16,4v5c0,0.3-0.1,0.5-0.3,0.7C15.5,9.9,15.3,10,15,10h-3v4H4v-4H1
	c-0.3,0-0.5-0.1-0.7-0.3C0.1,9.5,0,9.3,0,9V4c0-0.3,0.1-0.5,0.3-0.7C0.5,3.1,0.7,3,1,3h14C15.3,3,15.5,3.1,15.7,3.3z M4,2h8V0H4V2z
	 M11,8H5v5h6V8z M14.5,3.8c-0.2,0-0.4,0.1-0.5,0.2c-0.1,0.1-0.2,0.3-0.2,0.5c0,0.2,0.1,0.4,0.2,0.5c0.1,0.1,0.3,0.2,0.5,0.2
	S14.9,5.2,15,5c0.1-0.1,0.2-0.3,0.2-0.5c0-0.2-0.1-0.4-0.2-0.5C14.9,3.8,14.7,3.8,14.5,3.8z"/>
</svg>
