<?xml version="1.0" encoding="utf-8"?>
<!-- Generator: Adobe Illustrator 15.1.0, SVG Export Plug-In  -->
<!DOCTYPE svg PUBLIC "-//W3C//DTD SVG 1.1//EN" "http://www.w3.org/Graphics/SVG/1.1/DTD/svg11.dtd" [
	<!ENTITY ns_flows "http://ns.adobe.com/Flows/1.0/">
]>
<svg version="1.1"
	 xmlns="http://www.w3.org/2000/svg" xmlns:xlink="http://www.w3.org/1999/xlink" xmlns:a="http://ns.adobe.com/AdobeSVGViewerExtensions/3.0/"
	 x="0px" y="0px" width="16px" height="16px" viewBox="-1.2 0 16 16" style="overflow:visible;enable-background:new -1.2 0 16 16;"
	 xml:space="preserve" preserveAspectRatio="xMinYMid meet">
<defs>
</defs>
<path style="fill:#999;" d="M7.5,3.9V0l6,6l-6,6V8C6.2,8,5.1,8.2,4.2,8.5S2.6,9.3,2.2,9.8c-0.4,0.6-0.6,1.2-0.7,1.9
	c-0.1,0.7,0,1.4,0.2,2.2c0.2,0.7,0.5,1.4,0.9,2.1c-0.7-0.8-1.3-1.6-1.7-2.5c-0.4-0.9-0.7-1.8-0.8-2.7c-0.1-0.9,0-1.8,0.2-2.6
	C0.5,7.2,1,6.5,1.5,5.9c0.6-0.6,1.4-1.1,2.4-1.5C5,4,6.2,3.9,7.5,3.9z"/>
</svg>
