<?xml version="1.0" encoding="utf-8"?>
<!-- Generator: Adobe Illustrator 15.1.0, SVG Export Plug-In  -->
<!DOCTYPE svg PUBLIC "-//W3C//DTD SVG 1.1//EN" "http://www.w3.org/Graphics/SVG/1.1/DTD/svg11.dtd" [
	<!ENTITY ns_flows "http://ns.adobe.com/Flows/1.0/">
]>
<svg version="1.1"
	 xmlns="http://www.w3.org/2000/svg" xmlns:xlink="http://www.w3.org/1999/xlink" xmlns:a="http://ns.adobe.com/AdobeSVGViewerExtensions/3.0/"
	 x="0px" y="0px" width="16px" height="16px" viewBox="0 0 16 16" style="overflow:visible;enable-background:new 0 0 16 16;"
	 xml:space="preserve" preserveAspectRatio="xMinYMid meet">
<defs>
</defs>
<path style="fill:#999;" d="M16,16h-1l1-1V16z M16,13.6v-1.4L12.2,16h1.4L16,13.6z M16,10.8V9.4l-2,2l0.5,0.8L14,12.8
	c-0.5,0.6-1.1,1-1.8,1.3c-0.4,0.1-0.7,0.2-1.1,0.2L9.4,16h1.4L16,10.8z M16,6.6l-3,3v0.6l0,0l0.3,0.5L16,8V6.6z M13,6.7v1.4l3-3V3.7
	L13,6.7z M12.6,4.3c0.1,0.3,0.3,0.7,0.3,1.1L16,2.3V0.9L12.6,4.3z M11.2,2.9c0,0,0.1,0,0.1,0.1C11.6,3,11.8,3.2,12,3.5L15.5,0h-1.4
	L11.2,2.9z M9.1,2.2c0.4,0.1,0.8,0.1,1.2,0.3L12.7,0h-1.4L9.1,2.2z M6.1,2.3c0.5-0.1,1-0.2,1.6-0.2L9.8,0H8.4L6.1,2.3z M9.9,14.1
	C9.5,14,9.2,13.8,9,13.6L6.6,16H8L9.9,14.1z M7,14.2c-0.4,0.1-0.7,0.1-1.1,0.1c-0.1,0-0.3,0-0.4,0L3.7,16h1.4L7,14.2z M4.4,13.9
	c-0.2-0.1-0.5-0.2-0.7-0.4c-0.1,0-0.1-0.1-0.2-0.2L0.9,16h1.4L4.4,13.9z M2.9,12.6c-0.2-0.3-0.3-0.7-0.3-1.1L0,14.1v1.4L2.9,12.6z
	 M2.7,10c0.2-0.7,0.7-1.4,1.7-2c0,0,0,0,0,0C4.2,7.8,3.9,7.7,3.7,7.5L0,11.3v1.4L2.7,10z M3.1,6.7C3,6.4,2.9,6.1,2.9,5.7
	c0-0.1,0-0.2,0-0.2l-3,3v1.4L3.1,6.7z M7,0H5.6L0,5.6V7L7,0z M4.2,0H2.8L0,2.8v1.4L4.2,0z M0,1.4L1.4,0H0V1.4z M4.9,8.8
	c0.9-0.6,2.3-1.1,4.3-1.7V5.6C9.2,5,9,4.5,8.8,4.2C8.5,3.9,8,3.8,7.4,3.8C7,3.8,6.7,3.8,6.5,4S6.1,4.3,6.1,4.5c0,0.1,0,0.2,0,0.2
	s0.1,0.1,0.1,0.2L6.4,5c0.1,0.1,0.2,0.2,0.2,0.4c0.1,0.1,0.1,0.3,0.1,0.4c0,0.4-0.1,0.7-0.4,0.9C6,7,5.7,7.1,5.4,7.1
	C5,7.1,4.6,7,4.3,6.7c-0.3-0.2-0.4-0.6-0.4-1c0-0.8,0.4-1.4,1.1-1.9c0.8-0.5,1.7-0.7,2.8-0.7c1.2,0,2.2,0.2,3,0.7
	C11.6,4.2,12,5.1,12,6.3v5.1c0,0.2,0,0.3,0.1,0.4s0.2,0.2,0.3,0.2c0.1,0,0.2,0,0.2,0c0.1,0,0.2-0.1,0.3-0.3l0.3,0.4
	c-0.4,0.5-0.9,0.8-1.4,1c-0.3,0.1-0.6,0.2-1,0.2c-0.6,0-1.1-0.2-1.4-0.5c-0.2-0.2-0.3-0.5-0.4-0.9c-0.6,0.6-1.2,1-2,1.2
	c-0.4,0.2-0.9,0.2-1.3,0.2c-0.6,0-1.1-0.2-1.6-0.5S3.5,11.8,3.5,11C3.5,10.1,4,9.3,4.9,8.8z M8.6,11.5c0.2-0.1,0.4-0.3,0.6-0.6V7.8
	C8.6,8,8.1,8.2,7.7,8.5C6.9,9,6.6,9.6,6.6,10.4c0,0.5,0.1,0.8,0.3,1s0.4,0.4,0.7,0.4C7.9,11.8,8.3,11.7,8.6,11.5z"/>
</svg>
