<?xml version="1.0" encoding="utf-8"?>
<!-- Generator: Adobe Illustrator 15.1.0, SVG Export Plug-In  -->
<!DOCTYPE svg PUBLIC "-//W3C//DTD SVG 1.1//EN" "http://www.w3.org/Graphics/SVG/1.1/DTD/svg11.dtd" [
	<!ENTITY ns_flows "http://ns.adobe.com/Flows/1.0/">
]>
<svg version="1.1"
	 xmlns="http://www.w3.org/2000/svg" xmlns:xlink="http://www.w3.org/1999/xlink" xmlns:a="http://ns.adobe.com/AdobeSVGViewerExtensions/3.0/"
	 x="0px" y="0px" width="16px" height="16px" viewBox="0 0 16 16" style="overflow:visible;enable-background:new 0 0 16 16;"
	 xml:space="preserve" preserveAspectRatio="xMinYMid meet">
<defs>
</defs>
<path style="fill:#999;" d="M11,14h4l1-2v4h-6v-3.3c1-0.5,1.9-1.2,2.5-2.2c0.6-1,1-2.2,1-3.4c0-1.7-0.5-3.1-1.6-4.2
	C10.8,1.6,9.5,1,8,1C6.5,1,5.2,1.6,4.1,2.8C3,3.9,2.5,5.3,2.5,7c0,1.3,0.3,2.4,1,3.4S5,12.2,6,12.7V16H0v-4l1,2h4v-0.5
	c-1.5-0.5-2.7-1.4-3.6-2.6C0.5,9.8,0,8.5,0,7c0-1.9,0.8-3.6,2.3-5C3.9,0.7,5.8,0,8,0s4.1,0.7,5.7,2c1.6,1.4,2.3,3,2.3,5
	c0,1.5-0.5,2.8-1.4,3.9c-0.9,1.2-2.1,2-3.6,2.6V14z"/>
</svg>
