<?xml version="1.0" encoding="utf-8"?>
<!-- Generator: Adobe Illustrator 15.1.0, SVG Export Plug-In  -->
<!DOCTYPE svg PUBLIC "-//W3C//DTD SVG 1.1//EN" "http://www.w3.org/Graphics/SVG/1.1/DTD/svg11.dtd" [
	<!ENTITY ns_flows "http://ns.adobe.com/Flows/1.0/">
]>
<svg version="1.1"
	 xmlns="http://www.w3.org/2000/svg" xmlns:xlink="http://www.w3.org/1999/xlink" xmlns:a="http://ns.adobe.com/AdobeSVGViewerExtensions/3.0/"
	 x="0px" y="0px" width="16px" height="16px" viewBox="0 -1 16 16" style="overflow:visible;enable-background:new 0 -1 16 16;"
	 xml:space="preserve" preserveAspectRatio="xMinYMid meet">
<defs>
</defs>
<path style="fill:#999;" d="M12.8,11c0,1.1-0.4,2.1-1.3,2.9c-0.9,0.8-2,1.1-3.3,1.1c-0.7,0-1.4-0.1-2.1-0.4
	c-0.7-0.3-1.2-0.4-1.3-0.4c-0.3,0-0.4,0.1-0.5,0.2S4.2,14.8,4.1,15H3.6l-0.6-4h0.7c0.3,0.7,0.6,1.2,1,1.7c0.9,1,1.9,1.5,3.2,1.5
	c0.7,0,1.3-0.2,1.8-0.7c0.5-0.4,0.8-1.1,0.8-1.8c0-0.2,0-0.5-0.1-0.7H12.8z M5.8,7.2L7.2,8h4.1c-0.5-0.4-1-0.8-1.7-1.2L7.6,5.6
	C6.9,5.1,6.4,4.7,6,4.3C5.7,3.9,5.5,3.4,5.5,2.9c0-0.6,0.2-1.1,0.7-1.5c0.4-0.4,1-0.5,1.6-0.5c0.8,0,1.5,0.3,2.3,0.8
	s1.4,1.5,1.7,2.9h0.5L11.8,0h-0.4c-0.1,0.2-0.1,0.4-0.2,0.5c-0.1,0.1-0.3,0.2-0.6,0.2c-0.1,0-0.5-0.1-1.2-0.4C8.7,0.1,8.1,0,7.6,0
	C6.4,0,5.4,0.4,4.7,1.1S3.6,2.7,3.6,3.8c0,0.8,0.3,1.6,0.9,2.3C4.8,6.5,5.3,6.8,5.8,7.2z M16,9H0v1h16V9z"/>
</svg>
