<?xml version="1.0" encoding="utf-8"?>
<!-- Generator: Adobe Illustrator 15.1.0, SVG Export Plug-In  -->
<!DOCTYPE svg PUBLIC "-//W3C//DTD SVG 1.1//EN" "http://www.w3.org/Graphics/SVG/1.1/DTD/svg11.dtd" [
	<!ENTITY ns_flows "http://ns.adobe.com/Flows/1.0/">
]>
<svg version="1.1"
	 xmlns="http://www.w3.org/2000/svg" xmlns:xlink="http://www.w3.org/1999/xlink" xmlns:a="http://ns.adobe.com/AdobeSVGViewerExtensions/3.0/"
	 x="0px" y="0px" width="16px" height="16px" viewBox="0 0 16 16" style="overflow:visible;enable-background:new 0 0 16 16;"
	 xml:space="preserve" preserveAspectRatio="xMinYMid meet">
<defs>
</defs>
<path style="fill:#999;" d="M0,0v16h16V0H0z M15,15H1V1h14V15z M5,12h2v1H5V12z M8,12h2v1H8V12z M12,9h2v4h-3v-1h2v0v-2v0h-1V9z
	 M9,9h2v1H9V9z M6,9h2v1H6V9z M4,13H2V9h3v1H3v0v2v0h1V13z M7,7H5V6h2V7z M8,6h2v1H8V6z M13,4h-1V3h2v4h-3V6h2V4z M11,4H9V3h2V4z
	 M8,4H6V3h2V4z M4,7H2V3h3v1H3v2h1V7z"/>
</svg>
