<?xml version="1.0" encoding="utf-8"?>
<!-- Generator: Adobe Illustrator 15.1.0, SVG Export Plug-In  -->
<!DOCTYPE svg PUBLIC "-//W3C//DTD SVG 1.1//EN" "http://www.w3.org/Graphics/SVG/1.1/DTD/svg11.dtd" [
	<!ENTITY ns_flows "http://ns.adobe.com/Flows/1.0/">
]>
<svg version="1.1"
	 xmlns="http://www.w3.org/2000/svg" xmlns:xlink="http://www.w3.org/1999/xlink" xmlns:a="http://ns.adobe.com/AdobeSVGViewerExtensions/3.0/"
	 x="0px" y="0px" width="16px" height="16px" viewBox="0 0 16 16" style="overflow:visible;enable-background:new 0 0 16 16;"
	 xml:space="preserve" preserveAspectRatio="xMinYMid meet">
<defs>
</defs>
<polygon style="fill:#FFFFFF;" points="0,0 0,16 8.5,16 16,8.5 16,0 "/>
<path style="fill:#999;" d="M3.6,11.9c0-0.2,0.1-0.5,0.2-1c0.1-0.2,0.2-0.7,0.5-1.4h4l0.5,1.1C8.9,10.8,9,11,9,11.2
	c0.1,0.3,0.1,0.5,0.1,0.6c0,0.3-0.1,0.5-0.3,0.6s-0.6,0.1-1.2,0.1V13h2.8l1.7-1.7C12,11,11.8,10.6,11.6,10l-4-9.5H7.1l-4,9.9
	c-0.3,0.8-0.6,1.3-0.7,1.5c-0.3,0.4-0.6,0.6-1,0.6V13H5v-0.5c-0.4,0-0.7,0-0.9-0.1C3.7,12.3,3.6,12.1,3.6,11.9z M6.2,4.6h0.2
	l1.7,4.2H4.6L6.2,4.6z"/>
</svg>
