<?xml version="1.0" encoding="utf-8"?>
<!-- Generator: Adobe Illustrator 15.1.0, SVG Export Plug-In  -->
<!DOCTYPE svg PUBLIC "-//W3C//DTD SVG 1.1//EN" "http://www.w3.org/Graphics/SVG/1.1/DTD/svg11.dtd" [
	<!ENTITY ns_flows "http://ns.adobe.com/Flows/1.0/">
]>
<svg version="1.1"
	 xmlns="http://www.w3.org/2000/svg" xmlns:xlink="http://www.w3.org/1999/xlink" xmlns:a="http://ns.adobe.com/AdobeSVGViewerExtensions/3.0/"
	 x="0px" y="0px" width="16px" height="16px" viewBox="-2 -1.6 16 16"
	 style="overflow:visible;enable-background:new -2 -1.6 16 16;" xml:space="preserve" preserveAspectRatio="xMinYMid meet">
<defs>
</defs>
<path style="fill:#999;" d="M0,12c0.4,0,0.8-0.2,1-0.6c0.2-0.2,0.4-0.7,0.7-1.5l4-9.9h0.5l4,9.5c0.5,1.1,0.8,1.7,1,2.1
	s0.5,0.5,0.9,0.4v0.5H6.4V12c0.6,0,1-0.1,1.2-0.1s0.3-0.3,0.3-0.6c0-0.1,0-0.4-0.1-0.6c-0.1-0.2-0.1-0.4-0.2-0.6L7,8.9H3
	c-0.3,0.7-0.4,1.2-0.5,1.4c-0.2,0.5-0.2,0.8-0.2,1c0,0.3,0.2,0.4,0.5,0.6C3,11.9,3.3,11.9,3.7,12v0.5H0V12z M6.8,8.2L5,4H4.9
	L3.2,8.2H6.8z"/>
</svg>
