<svg width="58" height="75" viewBox="0 0 58 75" fill="none" xmlns="http://www.w3.org/2000/svg">
<g clip-path="url(#clip0_3760_2351)">
<path d="M55.1143 48.929C53.1725 47.1995 50.939 45.6755 48.4175 44.4133C47.147 43.7758 46.7713 43.1473 46.91 42.0425C47.7485 35.4455 47.792 28.856 45.9943 22.3153C43.7698 14.2153 38.8288 7.08128 30.7055 0.456529C29.9405 -0.147221 28.5455 -0.231221 27.4145 0.685279C23.759 3.64853 20.6353 6.87578 18.0995 10.3948C13.598 16.646 11.4058 23.3323 10.8455 30.3238C10.4848 34.8043 10.7953 39.272 11.3533 43.7353C11.3833 43.9648 11.2363 44.2903 11.0053 44.441C8.87604 45.8248 6.62829 47.114 4.57779 48.5533C2.07729 50.3075 0.814294 52.4938 0.745294 55.0295C0.692794 56.9465 0.983794 58.8313 1.57779 60.6935C3.04404 65.291 5.52954 69.6208 8.33754 73.862C8.54679 74.1778 8.87229 74.5018 9.26454 74.6938C10.493 75.3028 11.84 74.9788 12.5968 73.9108C14.5475 71.1545 16.481 68.3945 18.4025 65.6315C18.6455 65.2798 18.9245 65.1433 19.4945 65.1433C22.0153 65.1508 24.536 65.1403 27.0568 65.1425V72.7048C27.0568 73.9715 28.0835 74.999 29.351 74.999C30.617 74.999 31.6453 73.9723 31.6453 72.7048V65.141C34.2523 65.1395 36.86 65.1478 39.4655 65.1403C40.0378 65.1373 40.3025 65.2835 40.5478 65.6368C42.3073 68.1658 44.087 70.688 45.8945 73.1983C46.1563 73.562 46.5185 73.955 46.9813 74.162C48.2795 74.75 49.6003 74.3825 50.2918 73.2335C51.8188 70.691 53.4013 68.1643 54.7408 65.5723C56.3323 62.4943 57.5473 59.3308 57.7805 56.0218C57.9598 53.4523 57.458 51.0163 55.1143 48.929ZM14.9248 63.5353C13.5245 65.5768 12.0898 67.6085 10.568 69.7835C8.08404 65.5295 5.78604 61.3843 5.23554 56.8753C5.03454 55.2403 5.01279 53.591 6.28629 52.1068C7.31004 50.9098 10.1623 48.8435 11.981 48.0058C12.2038 49.085 12.4243 50.1373 12.6388 51.1888C13.4293 55.0723 14.222 58.9565 14.9998 62.84C15.0448 63.065 15.0598 63.3388 14.9248 63.5353ZM40.7368 53.2153C40.2155 56.0458 39.7093 58.8763 39.1925 61.706C39.1783 61.7855 39.1513 61.865 39.1205 61.9738C36.632 61.9753 34.1383 61.9775 31.6445 61.9775V46.1C31.6445 44.8333 30.6178 43.8058 29.351 43.8058C28.0843 43.8058 27.0568 44.8325 27.0568 46.1V61.982C24.4865 61.9835 21.9155 61.9858 19.322 61.9873C18.8465 59.675 18.3343 57.443 17.9368 55.2005C17.0578 50.222 16.0318 45.2533 15.4408 40.2583C14.6128 33.2405 15.038 26.2565 17.8228 19.4293C19.916 14.291 23.2145 9.59828 27.7918 5.37053C28.2065 4.98728 28.6093 4.59953 29.021 4.21403C29.0525 4.18478 29.111 4.17053 29.255 4.10453C29.9863 4.77353 30.7595 5.43278 31.4608 6.12878C35.2498 9.88778 38.1643 13.9663 40.073 18.4063C42.0485 23.0068 42.902 27.7265 43.0265 32.5273C43.2088 39.476 42.0013 46.3475 40.7368 53.2153ZM53.354 55.9145C53.1365 58.9963 51.8795 61.9138 50.4575 64.796C49.7458 66.2368 48.911 67.6483 48.0343 69.2495C46.472 67.019 45.0283 64.976 43.607 62.921C43.505 62.774 43.4975 62.5693 43.5305 62.4005C44.4973 57.5555 45.4738 52.712 46.451 47.8685C46.4788 47.735 46.5388 47.603 46.6123 47.3885C48.8473 48.7168 50.981 50.0203 52.4285 51.7828C53.4793 53.0623 53.4545 54.4948 53.354 55.9145Z" fill="black"/>
<path d="M29.384 20.8237C27.5728 20.8245 25.8095 21.5182 24.4183 22.779C23.069 24.0015 22.2463 25.8172 22.1608 27.7597C22.0738 29.7307 22.7518 31.647 24.017 33.0172C25.4555 34.5735 27.359 35.43 29.3705 35.43C31.19 35.43 32.9638 34.7115 34.3648 33.408C37.2253 30.7462 37.391 26.0692 34.7248 23.196C33.305 21.666 31.4083 20.8237 29.384 20.8237ZM27.185 25.7182C27.788 25.1685 28.5635 24.8655 29.366 24.8655C30.2728 24.8655 31.1188 25.2367 31.748 25.9147C32.9308 27.183 32.8483 29.2762 31.5695 30.4845C30.9493 31.0702 30.1678 31.392 29.366 31.392C28.5035 31.392 27.6808 31.0237 27.0515 30.3555C26.4725 29.7412 26.1598 28.8682 26.1943 27.9615C26.2265 27.0795 26.588 26.2612 27.185 25.7182Z" fill="black"/>
</g>
<defs>
<clipPath id="clip0_3760_2351">
<rect width="57.0742" height="75" fill="white" transform="translate(0.739258)"/>
</clipPath>
</defs>
</svg>
