<?xml version="1.0" encoding="UTF-8" standalone="no"?>
<!-- Generator: Adobe Illustrator 15.1.0, SVG Export Plug-In  -->

<svg
   xmlns:a="http://ns.adobe.com/AdobeSVGViewerExtensions/3.0/"
   xmlns:dc="http://purl.org/dc/elements/1.1/"
   xmlns:cc="http://creativecommons.org/ns#"
   xmlns:rdf="http://www.w3.org/1999/02/22-rdf-syntax-ns#"
   xmlns:svg="http://www.w3.org/2000/svg"
   xmlns="http://www.w3.org/2000/svg"
   xmlns:xlink="http://www.w3.org/1999/xlink"
   xmlns:sodipodi="http://sodipodi.sourceforge.net/DTD/sodipodi-0.dtd"
   xmlns:inkscape="http://www.inkscape.org/namespaces/inkscape"
   version="1.1"
   x="0px"
   y="0px"
   width="24px"
   height="24px"
   viewBox="0 0 24 24"
   style="overflow:visible;enable-background:new 0 0 24 24;"
   xml:space="preserve"
   preserveAspectRatio="xMinYMid meet"
   id="svg2"
   inkscape:version="0.48.4 r9939"
   sodipodi:docname="Group_Choice.svg"><metadata
   id="metadata75"><rdf:RDF><cc:Work
       rdf:about=""><dc:format>image/svg+xml</dc:format><dc:type
         rdf:resource="http://purl.org/dc/dcmitype/StillImage" /><dc:title></dc:title></cc:Work></rdf:RDF></metadata><sodipodi:namedview
   pagecolor="#ffffff"
   bordercolor="#666666"
   borderopacity="1"
   objecttolerance="10"
   gridtolerance="10"
   guidetolerance="10"
   inkscape:pageopacity="0"
   inkscape:pageshadow="2"
   inkscape:window-width="1440"
   inkscape:window-height="878"
   id="namedview73"
   showgrid="false"
   inkscape:zoom="9.8333333"
   inkscape:cx="-4.1694915"
   inkscape:cy="12"
   inkscape:window-x="-8"
   inkscape:window-y="-8"
   inkscape:window-maximized="1"
   inkscape:current-layer="svg2" />
<defs
   id="defs4">
<linearGradient
   y2="23.9487"
   x2="11.8569"
   y1="1.8521"
   x1="11.8569"
   gradientUnits="userSpaceOnUse"
   id="SVGID_6_-1"><stop
     id="stop3188"
     style="stop-color:#DB6D17"
     offset="0" /><stop
     id="stop3190"
     style="stop-color:#BF3B08"
     offset="1" /><a:midPointStop
     style="stop-color:#DB6D17"
     offset="0" /><a:midPointStop
     style="stop-color:#DB6D17"
     offset="0.5" /><a:midPointStop
     style="stop-color:#BF3B08"
     offset="1" /></linearGradient><linearGradient
   y2="22.383301"
   x2="9.5522003"
   y1="9.0078001"
   x1="9.5522003"
   gradientUnits="userSpaceOnUse"
   id="SVGID_7_-7"><stop
     id="stop3197"
     style="stop-color:#F6A55E"
     offset="0" /><stop
     id="stop3199"
     style="stop-color:#EA5B03"
     offset="1" /><a:midPointStop
     style="stop-color:#F6A55E"
     offset="0" /><a:midPointStop
     style="stop-color:#F6A55E"
     offset="0.5" /><a:midPointStop
     style="stop-color:#EA5B03"
     offset="1" /></linearGradient><linearGradient
   y2="20.8174"
   x2="7.2484999"
   y1="14.7998"
   x1="7.2484999"
   gradientUnits="userSpaceOnUse"
   id="SVGID_8_-4"><stop
     id="stop3206"
     style="stop-color:#F17219"
     offset="0" /><stop
     id="stop3208"
     style="stop-color:#EA5B03"
     offset="1" /><a:midPointStop
     style="stop-color:#F17219"
     offset="0" /><a:midPointStop
     style="stop-color:#F17219"
     offset="0.5" /><a:midPointStop
     style="stop-color:#EA5B03"
     offset="1" /></linearGradient><linearGradient
   id="SVGID_1_-9"
   gradientUnits="userSpaceOnUse"
   x1="7.8237"
   y1="0"
   x2="7.8237"
   y2="23.3262"><stop
     offset="0"
     style="stop-color:#76A1F0"
     id="stop4136" /><stop
     offset="1"
     style="stop-color:#6B90D5"
     id="stop4138" /><a:midPointStop
     offset="0"
     style="stop-color:#76A1F0" /><a:midPointStop
     offset="0.5"
     style="stop-color:#76A1F0" /><a:midPointStop
     offset="1"
     style="stop-color:#6B90D5" /></linearGradient><linearGradient
   id="SVGID_2_-4"
   gradientUnits="userSpaceOnUse"
   x1="7.8237"
   y1="1"
   x2="7.8237"
   y2="22.3262"
   gradientTransform="translate(3.9966107,-0.15847424)"><stop
     offset="0"
     style="stop-color:#BBE0F7"
     id="stop4143" /><stop
     offset="1"
     style="stop-color:#82B4FB"
     id="stop4145" /><a:midPointStop
     offset="0"
     style="stop-color:#BBE0F7" /><a:midPointStop
     offset="0.5"
     style="stop-color:#BBE0F7" /><a:midPointStop
     offset="1"
     style="stop-color:#82B4FB" /></linearGradient><linearGradient
   id="SVGID_3_-8"
   gradientUnits="userSpaceOnUse"
   x1="7.8237"
   y1="2.0985999"
   x2="7.8237"
   y2="21.3262"
   gradientTransform="translate(3.9966107,-0.15847424)"><stop
     offset="0"
     style="stop-color:#95BFF8"
     id="stop4150" /><stop
     offset="0.5569"
     style="stop-color:#84ADEF"
     id="stop4152" /><stop
     offset="1"
     style="stop-color:#7CA4EB"
     id="stop4154" /><a:midPointStop
     offset="0"
     style="stop-color:#95BFF8" /><a:midPointStop
     offset="0.4"
     style="stop-color:#95BFF8" /><a:midPointStop
     offset="1"
     style="stop-color:#7CA4EB" /></linearGradient><linearGradient
   y2="23.3262"
   x2="7.8237"
   y1="0"
   x1="7.8237"
   gradientUnits="userSpaceOnUse"
   id="linearGradient4216"
   xlink:href="#SVGID_1_-9"
   inkscape:collect="always"
   gradientTransform="translate(3.9966107,-0.15847424)" /></defs>
<linearGradient
   id="SVGID_1_"
   gradientUnits="userSpaceOnUse"
   x1="7.9995"
   y1="7.9868"
   x2="7.9995"
   y2="24.001">
	<stop
   offset="0"
   style="stop-color:#db6d17;stop-opacity:1;"
   id="stop7" />
	<stop
   offset="1"
   style="stop-color:#bf3b08;stop-opacity:1;"
   id="stop9" />
	<a:midPointStop
   offset="0"
   style="stop-color:#F0A829" />
	<a:midPointStop
   offset="0.5"
   style="stop-color:#F0A829" />
	<a:midPointStop
   offset="1"
   style="stop-color:#C7671A" />
</linearGradient>
<path
   style="fill:url(#SVGID_1_);"
   d="M3,19.2l-3,1.6V24h16v-0.4c0-0.5-0.5-1.2-1-1.5l-6-3.1c-0.5-0.3-0.6-0.8-0.3-1.2  c0,0,1.6-2,1.6-4.2C10.4,10.5,8.4,8,6,8c-2.4,0-4.4,2.6-4.4,5.7c0,2.1,1.6,4.2,1.6,4.2C3.6,18.3,3.5,18.9,3,19.2z"
   id="path11" />
<linearGradient
   id="SVGID_2_"
   gradientUnits="userSpaceOnUse"
   x1="7.7212"
   y1="8.9868"
   x2="7.7212"
   y2="23.001">
	<stop
   offset="0"
   style="stop-color:#f6a55e;stop-opacity:1;"
   id="stop14" />
	<stop
   offset="1"
   style="stop-color:#ea5b03;stop-opacity:1;"
   id="stop16" />
	<a:midPointStop
   offset="0"
   style="stop-color:#FFEBA8" />
	<a:midPointStop
   offset="0.5"
   style="stop-color:#FFEBA8" />
	<a:midPointStop
   offset="1"
   style="stop-color:#F8BE27" />
</linearGradient>
<path
   style="fill:url(#SVGID_2_);"
   d="M1,23v-1.7L3.5,20c0.5-0.3,0.8-0.7,1-1.2c0.1-0.5,0-1.1-0.4-1.5c0,0-1.4-1.8-1.4-3.6  C2.6,11.1,4.2,9,6,9s3.4,2.1,3.4,4.7c0,1.7-1.4,3.5-1.4,3.6c-0.3,0.4-0.5,1-0.4,1.5c0.1,0.5,0.5,1,1,1.2l5.9,3H1z"
   id="path18" />
<linearGradient
   id="SVGID_3_"
   gradientUnits="userSpaceOnUse"
   x1="6.1343"
   y1="9.9868"
   x2="6.1343"
   y2="22.001">
	<stop
   offset="0"
   style="stop-color:#f17219;stop-opacity:1;"
   id="stop21" />
	<stop
   offset="1"
   style="stop-color:#ea5b03;stop-opacity:1;"
   id="stop23" />
	<a:midPointStop
   offset="0"
   style="stop-color:#FFC30F" />
	<a:midPointStop
   offset="0.5"
   style="stop-color:#FFC30F" />
	<a:midPointStop
   offset="1"
   style="stop-color:#F5AE0D" />
</linearGradient>
<path
   style="fill:url(#SVGID_3_);"
   d="M2,22L2,22l1.9-1.1c0.8-0.4,1.3-1.1,1.5-1.9c0.2-0.8,0-1.7-0.6-2.3c-0.3-0.4-1.2-1.8-1.2-3  c0-2,1.1-3.7,2.4-3.7s2.4,1.7,2.4,3.7c0,1.1-0.9,2.5-1.2,3c-0.5,0.7-0.7,1.5-0.5,2.3c0.2,0.8,0.7,1.5,1.5,1.9l2.2,1.1H2z"
   id="path25" />
<linearGradient
   id="SVGID_4_"
   gradientUnits="userSpaceOnUse"
   x1="16"
   y1="7.9868"
   x2="16"
   y2="24.001">
	<stop
   offset="0"
   style="stop-color:#90c50e;stop-opacity:1;"
   id="stop28" />
	<stop
   offset="1"
   style="stop-color:#70a034;stop-opacity:1;"
   id="stop30" />
	<a:midPointStop
   offset="0"
   style="stop-color:#8D470D" />
	<a:midPointStop
   offset="0.5"
   style="stop-color:#8D470D" />
	<a:midPointStop
   offset="1"
   style="stop-color:#7C3D09" />
</linearGradient>
<path
   style="fill:url(#SVGID_4_);"
   d="M24,24v-3.4l-3-1.5c-0.5-0.3-0.6-0.8-0.3-1.2c0,0,1.6-2,1.6-4.2c0-3.2-1.9-5.7-4.4-5.7  c-2.4,0-4.4,2.6-4.4,5.7c0,2.1,1.6,4.2,1.6,4.2c0.3,0.4,0.2,1-0.3,1.3l-6,3.2c-0.5,0.3-1,0.9-1,1.5V24H24z"
   id="path32" />
<linearGradient
   id="SVGID_5_"
   gradientUnits="userSpaceOnUse"
   x1="16.4121"
   y1="8.9868"
   x2="16.4121"
   y2="23.001">
	<stop
   offset="0"
   style="stop-color:#d9f991;stop-opacity:1;"
   id="stop35" />
	<stop
   offset="1"
   style="stop-color:#b1dd4b;stop-opacity:1;"
   id="stop37" />
	<a:midPointStop
   offset="0"
   style="stop-color:#D58738" />
	<a:midPointStop
   offset="0.5"
   style="stop-color:#D58738" />
	<a:midPointStop
   offset="1"
   style="stop-color:#AB551F" />
</linearGradient>
<path
   style="fill:url(#SVGID_5_);"
   d="M9.8,23l5.7-3c0.5-0.3,0.8-0.7,1-1.2c0.1-0.5,0-1.1-0.4-1.5c0,0-1.4-1.8-1.4-3.6  c0-2.6,1.5-4.7,3.4-4.7s3.4,2.1,3.4,4.7c0,1.8-1.4,3.6-1.4,3.6c-0.3,0.4-0.5,1-0.4,1.5s0.5,1,1,1.2l2.4,1.2V23H9.8z"
   id="path39" />
<linearGradient
   id="SVGID_6_"
   gradientUnits="userSpaceOnUse"
   x1="17.9424"
   y1="9.9868"
   x2="17.9424"
   y2="22.001">
	<stop
   offset="0"
   style="stop-color:#b3e73a;stop-opacity:1;"
   id="stop42" />
	<stop
   offset="1"
   style="stop-color:#90c61d;stop-opacity:1;"
   id="stop44" />
	<a:midPointStop
   offset="0"
   style="stop-color:#D0813A" />
	<a:midPointStop
   offset="0.5"
   style="stop-color:#D0813A" />
	<a:midPointStop
   offset="1"
   style="stop-color:#AF551D" />
</linearGradient>
<path
   style="fill:url(#SVGID_6_);"
   d="M13.9,22l2.1-1.1c0.8-0.4,1.3-1.1,1.5-1.9c0.2-0.8,0-1.7-0.6-2.3c-0.3-0.4-1.2-1.8-1.2-3  c0-2,1.1-3.7,2.4-3.7s2.4,1.7,2.4,3.7c0,1.2-0.9,2.5-1.2,3c-0.5,0.7-0.7,1.5-0.6,2.3c0.2,0.8,0.7,1.5,1.5,1.9l1.9,1V22H13.9z"
   id="path46" />
<linearGradient
   id="SVGID_7_"
   gradientUnits="userSpaceOnUse"
   x1="7.4507"
   y1="0"
   x2="7.4507"
   y2="12.9043">
	<stop
   offset="0"
   style="stop-color:#76A1F0"
   id="stop49" />
	<stop
   offset="1"
   style="stop-color:#6B90D5"
   id="stop51" />
	<a:midPointStop
   offset="0"
   style="stop-color:#76A1F0" />
	<a:midPointStop
   offset="0.5"
   style="stop-color:#76A1F0" />
	<a:midPointStop
   offset="1"
   style="stop-color:#6B90D5" />
</linearGradient>

<linearGradient
   id="SVGID_8_"
   gradientUnits="userSpaceOnUse"
   x1="7.4507"
   y1="1"
   x2="7.4507"
   y2="11.2168">
	<stop
   offset="0"
   style="stop-color:#BBE0F7"
   id="stop56" />
	<stop
   offset="1"
   style="stop-color:#82B4FB"
   id="stop58" />
	<a:midPointStop
   offset="0"
   style="stop-color:#BBE0F7" />
	<a:midPointStop
   offset="0.5"
   style="stop-color:#BBE0F7" />
	<a:midPointStop
   offset="1"
   style="stop-color:#82B4FB" />
</linearGradient>

<linearGradient
   id="SVGID_9_"
   gradientUnits="userSpaceOnUse"
   x1="7.4507"
   y1="2"
   x2="7.4507"
   y2="9.9097">
	<stop
   offset="0"
   style="stop-color:#95BFF8"
   id="stop63" />
	<stop
   offset="0.5569"
   style="stop-color:#84ADEF"
   id="stop65" />
	<stop
   offset="1"
   style="stop-color:#7CA4EB"
   id="stop67" />
	<a:midPointStop
   offset="0"
   style="stop-color:#95BFF8" />
	<a:midPointStop
   offset="0.4"
   style="stop-color:#95BFF8" />
	<a:midPointStop
   offset="1"
   style="stop-color:#7CA4EB" />
</linearGradient>


</svg>