<svg width="24" height="24" viewBox="0 0 24 24" fill="none" xmlns="http://www.w3.org/2000/svg" preserveAspectRatio="xMinYMid meet"><path d="M13.949 14.713c-.319-.505-.745-.93-1.328-1.328a7.254 7.254 0 0 0-3.162-1.09 3.214 3.214 0 0 0 2.232-3.081C11.584 7.009 9.911 6 8.397 6S5.183 7.009 5.103 9.214c0 1.435.983 2.683 2.284 3.081a7.258 7.258 0 0 0-3.081 1.09c-1.168.77-1.806 1.858-1.806 3.081v1.009c0 .266.107.504.239.691h11.183l.027-3.453zM7.334 9.214c.027-.558.531-.983 1.09-.983h.026a1.115 1.115 0 0 1 1.063.983c-.054.717-.585 1.036-1.089 1.036-.478 0-1.063-.265-1.09-1.036z" fill="none"/><path d="M8.424 11.977a2.767 2.767 0 0 0 2.789-2.763c-.133-3.666-5.472-3.666-5.632 0 0 1.514 1.275 2.763 2.843 2.763zm7.623.026c1.541 0 2.789-1.221 2.789-2.762-.132-3.666-5.472-3.666-5.632 0 0 1.514 1.275 2.762 2.843 2.762zm-1.568-2.762c.028-.824.771-1.488 1.621-1.461a1.558 1.558 0 0 1 1.514 1.461c-.106 2.019-3.054 2.019-3.135 0zm5.499 4.595a6.682 6.682 0 0 0-3.453-1.063h-.956c-1.221.053-2.417.399-3.453 1.063-1.063.691-1.594 1.647-1.594 2.683v1.01c0 .371.265.637.638.664h9.695a.67.67 0 0 0 .638-.664v-1.01c.079-1.036-.479-1.992-1.515-2.683zm.292 3.134h-8.367v-.345c.08-1.116 1.063-1.806 2.046-2.178.69-.265 1.434-.398 2.151-.398s1.461.133 2.152.398c.956.372 1.992 1.062 2.045 2.178l-.027.345z" fill="#212529"/><path d="M11.398 13.623c-1.035-.664-1.328-.823-2.55-.85h-.956c-1.222.053-2.417.399-3.453 1.063-1.063.691-1.594 1.647-1.594 2.683v1.01c0 .371.266.637.638.664h6.321q.081-3.081 1.594-4.57z" fill="#212529"/></svg>