<svg xmlns="http://www.w3.org/2000/svg" viewBox="0 0 74.4 74.4" style="enable-background:new 0 0 74.4 74.4" xml:space="preserve">
    <path d="M43.5 47.3c-1.2-1.9-2.8-3.5-5-5-3.5-2.2-7.6-3.7-11.9-4.1 4.9-1.6 8.4-6.1 8.4-11.6-.4-8.3-6.7-12.1-12.4-12.1s-12.1 3.8-12.4 12.1c0 5.4 3.7 10.1 8.6 11.6-4.2.5-8.2 1.9-11.6 4.1-4.4 2.9-6.8 7-6.8 11.6v3.8c0 1 .4 1.9.9 2.6h42.1l.1-13zM18.6 26.6c.1-2.1 2-3.7 4.1-3.7h.1c2.1.1 3.8 1.7 4 3.7-.2 2.7-2.2 3.9-4.1 3.9-1.8 0-4-1-4.1-3.9z" style="fill:none"/>
    <path d="M22.7 37c5.8 0 10.5-4.6 10.5-10.4-.5-13.8-20.6-13.8-21.2 0C12 32.3 16.8 37 22.7 37zM51.4 37.1c5.8 0 10.5-4.6 10.5-10.4-.5-13.8-20.6-13.8-21.2 0 0 5.7 4.8 10.4 10.7 10.4zm-5.9-10.4c.1-3.1 2.9-5.6 6.1-5.5 3.1.1 5.5 2.5 5.7 5.5-.4 7.6-11.5 7.6-11.8 0zM66.2 44c-3.9-2.5-8.4-3.9-13-4H49.6c-4.6.2-9.1 1.5-13 4-4 2.6-6 6.2-6 10.1v3.8c0 1.4 1 2.4 2.4 2.5h36.5c1.4-.1 2.4-1.2 2.4-2.5v-3.8c.3-3.9-1.8-7.5-5.7-10.1zm1.1 11.8H35.8v-1.3c.3-4.2 4-6.8 7.7-8.2 2.6-1 5.4-1.5 8.1-1.5s5.5.5 8.1 1.5c3.6 1.4 7.5 4 7.7 8.2l-.1 1.3z"/>
    <path d="M33.9 43.2c-3.9-2.5-5-3.1-9.6-3.2H20.7c-4.6.2-9.1 1.5-13 4-4 2.6-6 6.2-6 10.1v3.8c0 1.4 1 2.4 2.4 2.5h23.8c.3-11.6.3-11.6 6-17.2z"/>
</svg>