<?xml version="1.0" encoding="utf-8"?>
<svg viewBox="0 0 24 24" width="24px" height="24px" style="enable-background:new 0 0 74.4 74.4;" xmlns="http://www.w3.org/2000/svg">
    <path d="M 13.949 14.713 C 13.63 14.208 13.204 13.783 12.621 13.385 C 11.691 12.8 10.601 12.402 9.459 12.295 C 10.761 11.87 11.691 10.675 11.691 9.214 C 11.584 7.009 9.911 6 8.397 6 C 6.883 6 5.183 7.009 5.103 9.214 C 5.103 10.649 6.086 11.897 7.387 12.295 C 6.271 12.428 5.21 12.8 4.306 13.385 C 3.138 14.155 2.5 15.243 2.5 16.466 L 2.5 17.475 C 2.5 17.741 2.607 17.979 2.739 18.166 L 13.922 18.166 L 13.949 14.713 Z M 7.334 9.214 C 7.361 8.656 7.865 8.231 8.424 8.231 L 8.45 8.231 C 9.007 8.258 9.459 8.683 9.513 9.214 C 9.459 9.931 8.928 10.25 8.424 10.25 C 7.946 10.25 7.361 9.985 7.334 9.214 Z" style="fill:none" transform="matrix(1, 0, 0, 1, 0, -8.881784197001252e-16)"/>
    <path d="M 8.424 11.977 C 9.964 11.977 11.213 10.755 11.213 9.214 C 11.08 5.548 5.741 5.548 5.581 9.214 C 5.581 10.728 6.856 11.977 8.424 11.977 Z M 16.047 12.003 C 17.588 12.003 18.836 10.782 18.836 9.241 C 18.704 5.575 13.364 5.575 13.204 9.241 C 13.204 10.755 14.479 12.003 16.047 12.003 Z M 14.479 9.241 C 14.507 8.417 15.25 7.753 16.1 7.78 C 16.924 7.806 17.561 8.444 17.614 9.241 C 17.508 11.26 14.56 11.26 14.479 9.241 Z M 19.978 13.836 C 18.942 13.172 17.747 12.8 16.525 12.773 L 15.569 12.773 C 14.348 12.826 13.152 13.172 12.116 13.836 C 11.053 14.527 10.522 15.483 10.522 16.519 L 10.522 17.529 C 10.522 17.9 10.787 18.166 11.16 18.193 L 20.855 18.193 C 21.227 18.166 21.493 17.874 21.493 17.529 L 21.493 16.519 C 21.572 15.483 21.014 14.527 19.978 13.836 Z M 20.27 16.97 L 11.903 16.97 L 11.903 16.625 C 11.983 15.509 12.966 14.819 13.949 14.447 C 14.639 14.182 15.383 14.049 16.1 14.049 C 16.818 14.049 17.561 14.182 18.252 14.447 C 19.208 14.819 20.244 15.509 20.297 16.625 L 20.27 16.97 Z" transform="matrix(1, 0, 0, 1, 0, -8.881784197001252e-16)"/>
    <path d="M 11.398 13.623 C 10.363 12.959 10.07 12.8 8.848 12.773 L 7.892 12.773 C 6.67 12.826 5.475 13.172 4.439 13.836 C 3.376 14.527 2.845 15.483 2.845 16.519 L 2.845 17.529 C 2.845 17.9 3.111 18.166 3.483 18.193 L 9.804 18.193 C 9.885 15.112 9.885 15.112 11.398 13.623 Z" transform="matrix(1, 0, 0, 1, 0, -8.881784197001252e-16)"/>
</svg>