<svg id="Layer_1" data-name="Layer 1" xmlns="http://www.w3.org/2000/svg" width="48" height="48" viewBox="0 0 48 48"><defs><style>.cls-1{fill:#909;}.cls-2{fill:#fff;}</style></defs><title>48px_sourcefile_20170718_multi</title><circle class="cls-1" cx="24" cy="24" r="24"/><path id="path1" class="cls-2" d="M13.91,33a1.68,1.68,0,0,0-1.09.46A1.55,1.55,0,1,0,15,35.66a1.49,1.49,0,0,0,0-2.19A1.9,1.9,0,0,0,13.91,33Zm12.31-6.38,3.65,3.65,2.19.46L36,36.66l-1.46,1.46L28.59,34.2,28.14,32l-3.65-3.65Zm-9.39-.09,5,5c-2.37,2.55-4.29,4.65-5.2,5.56a3.77,3.77,0,0,1-5.38,0,3.85,3.85,0,0,1,0-5.38ZM12.09,16a.7.7,0,0,0-.46.18.72.72,0,0,0,0,1l8.48,8.48a.71.71,0,0,0,1-1l-8.48-8.48A1.29,1.29,0,0,0,12.09,16Zm2.1-2.1a.69.69,0,0,0-.46.18.68.68,0,0,0,0,1.09l8.48,8.48a.71.71,0,0,0,1-1L14.73,14A1.29,1.29,0,0,0,14.18,13.86Zm-.82-1.91A3.86,3.86,0,0,1,16.1,13L27,23.89l-5.47,5.47-11-10.76a3.8,3.8,0,0,1,0-5.47A3.94,3.94,0,0,1,13.36,11.94ZM31.51,9.76a6.67,6.67,0,0,1,2.74.55l-3.83,3.83a1.66,1.66,0,0,0,0,2.46l1.46,1.46a1.66,1.66,0,0,0,2.46,0l3.83-3.74a7.92,7.92,0,0,1,.46,2.55,7.11,7.11,0,1,1-7.11-7.11Z"/></svg>