<!DOCTYPE svg PUBLIC "-//W3C//DTD SVG 1.1//EN" "http://www.w3.org/Graphics/SVG/1.1/DTD/svg11.dtd" [
	<!ENTITY ns_flows "http://ns.adobe.com/Flows/1.0/">
]><svg xmlns="http://www.w3.org/2000/svg" width="16" height="16" viewBox="0 0 16 16" preserveAspectRatio="xMinYMid meet" overflow="visible"><path d="M16 9v6c0 .5-.5 1-1 1H1c-.5 0-1-.5-1-1V9c0-.5.5-1 1-1h1c.5 0 1 .5 1 1v4h10V9c0-.5.5-1 1-1h1c.5 0 1 .5 1 1zm-3.6-3.9l-.7-.7c-.4-.4-1-.4-1.4 0l-.8.8V1c0-.5-.4-1-1-1h-1c-.5 0-1 .5-1 1v4.2l-.8-.8c-.4-.4-1-.4-1.4 0l-.7.7c-.4.4-.4 1 0 1.4l3.7 3.7c.2.2.5.3.7.3.3 0 .5-.1.7-.3l3.7-3.7c.4-.3.4-1 0-1.4z" fill="#888"/></svg>