<?xml version="1.0" encoding="utf-8"?>
<!-- Generator: Adobe Illustrator 15.1.0, SVG Export Plug-In  -->
<!DOCTYPE svg PUBLIC "-//W3C//DTD SVG 1.1//EN" "http://www.w3.org/Graphics/SVG/1.1/DTD/svg11.dtd" [
	<!ENTITY ns_flows "http://ns.adobe.com/Flows/1.0/">
]>
<svg version="1.1"
	 xmlns="http://www.w3.org/2000/svg" xmlns:xlink="http://www.w3.org/1999/xlink" xmlns:a="http://ns.adobe.com/AdobeSVGViewerExtensions/3.0/"
	 x="0px" y="0px" width="24px" height="24px" viewBox="0 0 24 24" style="overflow:visible;enable-background:new 0 0 24 24;"
	 xml:space="preserve" preserveAspectRatio="xMinYMid meet">
<defs>
</defs>
<linearGradient id="SVGID_1_" gradientUnits="userSpaceOnUse" x1="7.7681" y1="10.2231" x2="7.7681" y2="23.9805">
	<stop  offset="0" style="stop-color:#DB6D17"/>
	<stop  offset="1" style="stop-color:#BF3B08"/>
	<a:midPointStop  offset="0" style="stop-color:#DB6D17"/>
	<a:midPointStop  offset="0.5" style="stop-color:#DB6D17"/>
	<a:midPointStop  offset="1" style="stop-color:#BF3B08"/>
</linearGradient>
<path style="fill:url(#SVGID_1_);" d="M10.9,19.1c-1.1-0.8-1.7-1.1-2-2.4c-0.2-1.1-1.3-6.4-1.3-6.4l-4.9,1c0,0,0.9,4.6,1.8,9
	c0.9,4.4,1,4.3,6.8,3.1C13.7,22.8,12.8,20.5,10.9,19.1z"/>
<linearGradient id="SVGID_2_" gradientUnits="userSpaceOnUse" x1="7.8569" y1="11.3994" x2="7.8569" y2="22.9805">
	<stop  offset="0" style="stop-color:#F6A55E"/>
	<stop  offset="1" style="stop-color:#EA5B03"/>
	<a:midPointStop  offset="0" style="stop-color:#F6A55E"/>
	<a:midPointStop  offset="0.5" style="stop-color:#F6A55E"/>
	<a:midPointStop  offset="1" style="stop-color:#EA5B03"/>
</linearGradient>
<path style="fill:url(#SVGID_2_);" d="M7,23c-0.8,0-0.9,0-1.5-3l-1.6-8l2.9-0.6L8,16.9c0.3,1.6,1,2.1,1.9,2.7l0.4,0.3
	c1.1,0.8,1.5,1.7,1.4,2.1c0,0.2-0.5,0.3-0.6,0.3l-0.5,0.1C9,22.7,7.8,23,7,23L7,23z"/>
<linearGradient id="SVGID_3_" gradientUnits="userSpaceOnUse" x1="7.7373" y1="12.5757" x2="7.7373" y2="21.8926">
	<stop  offset="0" style="stop-color:#F17219"/>
	<stop  offset="1" style="stop-color:#EA5B03"/>
	<a:midPointStop  offset="0" style="stop-color:#F17219"/>
	<a:midPointStop  offset="0.5" style="stop-color:#F17219"/>
	<a:midPointStop  offset="1" style="stop-color:#EA5B03"/>
</linearGradient>
<path style="fill:url(#SVGID_3_);" d="M7.7,21.9c-0.7,0-0.7,0-1.2-2.1l-1.4-7l1-0.2L7,17.1c0.4,1.9,1.4,2.7,2.3,3.3l0.4,0.3
	C10.8,21.6,10.6,21.4,7.7,21.9z"/>
<linearGradient id="SVGID_4_" gradientUnits="userSpaceOnUse" x1="11.0005" y1="0" x2="11.0005" y2="19.0039">
	<stop  offset="0" style="stop-color:#C3C3C3"/>
	<stop  offset="1" style="stop-color:#ACACAC"/>
	<a:midPointStop  offset="0" style="stop-color:#C3C3C3"/>
	<a:midPointStop  offset="0.5" style="stop-color:#C3C3C3"/>
	<a:midPointStop  offset="1" style="stop-color:#ACACAC"/>
</linearGradient>
<path style="fill:url(#SVGID_4_);" d="M12.5,5H4.6C2.1,5,0,7.2,0,9.5C0,11.8,2.1,14,4.6,14h7.6c0,0,5.7,0,9.8,5c0-4.9,0-9.5,0-9.5
	s0-4.3,0-9.5C18.7,4.8,12.5,5,12.5,5z"/>
<linearGradient id="SVGID_5_" gradientUnits="userSpaceOnUse" x1="11.0005" y1="2.6079" x2="11.0005" y2="16.5342">
	<stop  offset="0" style="stop-color:#E9E9E9"/>
	<stop  offset="1" style="stop-color:#C4C4C4"/>
	<a:midPointStop  offset="0" style="stop-color:#E9E9E9"/>
	<a:midPointStop  offset="0.5" style="stop-color:#E9E9E9"/>
	<a:midPointStop  offset="1" style="stop-color:#C4C4C4"/>
</linearGradient>
<path style="fill:url(#SVGID_5_);" d="M21,16.5C17,13,12.5,13,12.2,13H4.6C2.7,13,1,11.4,1,9.5S2.7,6,4.6,6h7.8
	c0.3,0,4.9-0.2,8.5-3.4V16.5z"/>
<linearGradient id="SVGID_6_" gradientUnits="userSpaceOnUse" x1="11.0005" y1="4.5991" x2="11.0005" y2="14.5273">
	<stop  offset="0" style="stop-color:#F7F7F7"/>
	<stop  offset="0.1044" style="stop-color:#FCFCFC"/>
	<stop  offset="0.3293" style="stop-color:#FFFFFF"/>
	<stop  offset="0.5692" style="stop-color:#E8E8E8"/>
	<stop  offset="0.8153" style="stop-color:#D7D7D7"/>
	<stop  offset="1" style="stop-color:#D1D1D1"/>
	<a:midPointStop  offset="0" style="stop-color:#F7F7F7"/>
	<a:midPointStop  offset="0.2222" style="stop-color:#F7F7F7"/>
	<a:midPointStop  offset="0.3293" style="stop-color:#FFFFFF"/>
	<a:midPointStop  offset="0.3545" style="stop-color:#FFFFFF"/>
	<a:midPointStop  offset="1" style="stop-color:#D1D1D1"/>
</linearGradient>
<path style="fill:url(#SVGID_6_);" d="M20,14.5C16.2,12,12.4,12,12.2,12H4.6C3.3,12,2,10.8,2,9.5S3.3,7,4.6,7h7.8
	c0.2,0,4-0.2,7.5-2.4V14.5z"/>
<linearGradient id="SVGID_7_" gradientUnits="userSpaceOnUse" x1="5.501" y1="5.0015" x2="5.501" y2="14.002">
	<stop  offset="0" style="stop-color:#DB6D17"/>
	<stop  offset="1" style="stop-color:#BF3B08"/>
	<a:midPointStop  offset="0" style="stop-color:#DB6D17"/>
	<a:midPointStop  offset="0.5" style="stop-color:#DB6D17"/>
	<a:midPointStop  offset="1" style="stop-color:#BF3B08"/>
</linearGradient>
<path style="fill:url(#SVGID_7_);" d="M11,5H4.6C2.1,5,0,7.2,0,9.5C0,11.8,2.1,14,4.6,14H11V5z"/>
<linearGradient id="SVGID_8_" gradientUnits="userSpaceOnUse" x1="6.001" y1="6.0015" x2="6.001" y2="13.0015">
	<stop  offset="0" style="stop-color:#F6A55E"/>
	<stop  offset="1" style="stop-color:#EA5B03"/>
	<a:midPointStop  offset="0" style="stop-color:#F6A55E"/>
	<a:midPointStop  offset="0.5" style="stop-color:#F6A55E"/>
	<a:midPointStop  offset="1" style="stop-color:#EA5B03"/>
</linearGradient>
<path style="fill:url(#SVGID_8_);" d="M11,6H4.6C2.7,6,1,7.6,1,9.5S2.7,13,4.6,13H11V6z"/>
<linearGradient id="SVGID_9_" gradientUnits="userSpaceOnUse" x1="6.501" y1="7.0015" x2="6.501" y2="12.0015">
	<stop  offset="0.2195" style="stop-color:#F6A55E"/>
	<stop  offset="0.5076" style="stop-color:#F28C3F"/>
	<stop  offset="1" style="stop-color:#EA5B03"/>
	<a:midPointStop  offset="0.2195" style="stop-color:#F6A55E"/>
	<a:midPointStop  offset="0.5304" style="stop-color:#F6A55E"/>
	<a:midPointStop  offset="1" style="stop-color:#EA5B03"/>
</linearGradient>
<path style="fill:url(#SVGID_9_);" d="M11,7H4.6C3.3,7,2,8.2,2,9.5S3.3,12,4.6,12H11V7z"/>
<linearGradient id="SVGID_10_" gradientUnits="userSpaceOnUse" x1="22.002" y1="1.464844e-03" x2="22.002" y2="19.002">
	<stop  offset="0" style="stop-color:#DB6D17"/>
	<stop  offset="1" style="stop-color:#BF3B08"/>
	<a:midPointStop  offset="0" style="stop-color:#DB6D17"/>
	<a:midPointStop  offset="0.5" style="stop-color:#DB6D17"/>
	<a:midPointStop  offset="1" style="stop-color:#BF3B08"/>
</linearGradient>
<path style="fill:url(#SVGID_10_);" d="M20,17c0,1.1,0.9,2,2,2l0,0c1.1,0,2-0.9,2-2V2c0-1.1-0.9-2-2-2l0,0c-1.1,0-2,0.9-2,2V17z"/>
<linearGradient id="SVGID_11_" gradientUnits="userSpaceOnUse" x1="22.002" y1="1.0015" x2="22.002" y2="18.002">
	<stop  offset="0" style="stop-color:#F6A55E"/>
	<stop  offset="1" style="stop-color:#EA5B03"/>
	<a:midPointStop  offset="0" style="stop-color:#F6A55E"/>
	<a:midPointStop  offset="0.5" style="stop-color:#F6A55E"/>
	<a:midPointStop  offset="1" style="stop-color:#EA5B03"/>
</linearGradient>
<path style="fill:url(#SVGID_11_);" d="M22,18c-0.6,0-1-0.4-1-1V2c0-0.6,0.4-1,1-1s1,0.4,1,1v15C23,17.6,22.6,18,22,18z"/>
<linearGradient id="SVGID_12_" gradientUnits="userSpaceOnUse" x1="22.002" y1="1.0015" x2="22.002" y2="18.002">
	<stop  offset="0" style="stop-color:#F17219"/>
	<stop  offset="9.009037e-02" style="stop-color:#F38A39"/>
	<stop  offset="0.183" style="stop-color:#F59E54"/>
	<stop  offset="0.2378" style="stop-color:#F6A55E"/>
	<stop  offset="0.2464" style="stop-color:#F5A35C"/>
	<stop  offset="0.3809" style="stop-color:#EC8740"/>
	<stop  offset="0.5155" style="stop-color:#E5722C"/>
	<stop  offset="0.649" style="stop-color:#E06620"/>
	<stop  offset="0.7805" style="stop-color:#DF621C"/>
	<stop  offset="1" style="stop-color:#D64701"/>
	<a:midPointStop  offset="0" style="stop-color:#F17219"/>
	<a:midPointStop  offset="0.4103" style="stop-color:#F17219"/>
	<a:midPointStop  offset="0.2378" style="stop-color:#F6A55E"/>
	<a:midPointStop  offset="0.296" style="stop-color:#F6A55E"/>
	<a:midPointStop  offset="0.7805" style="stop-color:#DF621C"/>
	<a:midPointStop  offset="0.5" style="stop-color:#DF621C"/>
	<a:midPointStop  offset="1" style="stop-color:#D64701"/>
</linearGradient>
<path style="fill:url(#SVGID_12_);" d="M22,18c-0.6,0-1-0.4-1-1V2c0-0.6,0.4-1,1-1s1,0.4,1,1v15C23,17.6,22.6,18,22,18z"/>
</svg>
