<!DOCTYPE svg PUBLIC "-//W3C//DTD SVG 1.1//EN" "http://www.w3.org/Graphics/SVG/1.1/DTD/svg11.dtd" [
	<!ENTITY ns_flows "http://ns.adobe.com/Flows/1.0/">
]><svg xmlns="http://www.w3.org/2000/svg" width="24" height="24" viewBox="0 0 24 24" preserveAspectRatio="xMinYMid meet" overflow="visible"><linearGradient id="a" gradientUnits="userSpaceOnUse" x1="7.768" y1="10.223" x2="7.768" y2="23.98"><stop offset="0" stop-color="#DB6D17"/><stop offset="1" stop-color="#BF3B08"/></linearGradient><path d="M10.9 19.1c-1.1-.8-1.7-1.1-2-2.4-.2-1.1-1.3-6.4-1.3-6.4l-4.9 1s.9 4.6 1.8 9 1 4.3 6.8 3.1c2.4-.6 1.5-2.9-.4-4.3z" fill="url(#a)"/><linearGradient id="b" gradientUnits="userSpaceOnUse" x1="7.857" y1="11.399" x2="7.857" y2="22.98"><stop offset="0" stop-color="#F6A55E"/><stop offset="1" stop-color="#EA5B03"/></linearGradient><path d="M7 23c-.8 0-.9 0-1.5-3l-1.6-8 2.9-.6L8 16.9c.3 1.6 1 2.1 1.9 2.7l.4.3c1.1.8 1.5 1.7 1.4 2.1 0 .2-.5.3-.6.3l-.5.1c-1.6.3-2.8.6-3.6.6z" fill="url(#b)"/><linearGradient id="c" gradientUnits="userSpaceOnUse" x1="7.737" y1="12.576" x2="7.737" y2="21.893"><stop offset="0" stop-color="#F17219"/><stop offset="1" stop-color="#EA5B03"/></linearGradient><path d="M7.7 21.9c-.7 0-.7 0-1.2-2.1l-1.4-7 1-.2.9 4.5c.4 1.9 1.4 2.7 2.3 3.3l.4.3c1.1.9.9.7-2 1.2z" fill="url(#c)"/><linearGradient id="d" gradientUnits="userSpaceOnUse" x1="11.001" x2="11.001" y2="19.004"><stop offset="0" stop-color="#C3C3C3"/><stop offset="1" stop-color="#ACACAC"/></linearGradient><path d="M12.5 5H4.6C2.1 5 0 7.2 0 9.5S2.1 14 4.6 14h7.6s5.7 0 9.8 5V9.5 0c-3.3 4.8-9.5 5-9.5 5z" fill="url(#d)"/><linearGradient id="e" gradientUnits="userSpaceOnUse" x1="11.001" y1="2.608" x2="11.001" y2="16.534"><stop offset="0" stop-color="#E9E9E9"/><stop offset="1" stop-color="#C4C4C4"/></linearGradient><path d="M21 16.5C17 13 12.5 13 12.2 13H4.6C2.7 13 1 11.4 1 9.5S2.7 6 4.6 6h7.8c.3 0 4.9-.2 8.5-3.4v13.9z" fill="url(#e)"/><linearGradient id="f" gradientUnits="userSpaceOnUse" x1="11.001" y1="4.599" x2="11.001" y2="14.527"><stop offset="0" stop-color="#F7F7F7"/><stop offset=".104" stop-color="#FCFCFC"/><stop offset=".329" stop-color="#FFF"/><stop offset=".569" stop-color="#E8E8E8"/><stop offset=".815" stop-color="#D7D7D7"/><stop offset="1" stop-color="#D1D1D1"/></linearGradient><path d="M20 14.5C16.2 12 12.4 12 12.2 12H4.6C3.3 12 2 10.8 2 9.5S3.3 7 4.6 7h7.8c.2 0 4-.2 7.5-2.4v9.9z" fill="url(#f)"/><linearGradient id="g" gradientUnits="userSpaceOnUse" x1="5.501" y1="5.002" x2="5.501" y2="14.002"><stop offset="0" stop-color="#DB6D17"/><stop offset="1" stop-color="#BF3B08"/></linearGradient><path d="M11 5H4.6C2.1 5 0 7.2 0 9.5S2.1 14 4.6 14H11V5z" fill="url(#g)"/><linearGradient id="h" gradientUnits="userSpaceOnUse" x1="6.001" y1="6.002" x2="6.001" y2="13.002"><stop offset="0" stop-color="#F6A55E"/><stop offset="1" stop-color="#EA5B03"/></linearGradient><path d="M11 6H4.6C2.7 6 1 7.6 1 9.5S2.7 13 4.6 13H11V6z" fill="url(#h)"/><linearGradient id="i" gradientUnits="userSpaceOnUse" x1="6.501" y1="7.002" x2="6.501" y2="12.002"><stop offset=".22" stop-color="#F6A55E"/><stop offset=".508" stop-color="#F28C3F"/><stop offset="1" stop-color="#EA5B03"/></linearGradient><path d="M11 7H4.6C3.3 7 2 8.2 2 9.5S3.3 12 4.6 12H11V7z" fill="url(#i)"/><linearGradient id="j" gradientUnits="userSpaceOnUse" x1="22.002" y1=".001" x2="22.002" y2="19.002"><stop offset="0" stop-color="#DB6D17"/><stop offset="1" stop-color="#BF3B08"/></linearGradient><path d="M20 17c0 1.1.9 2 2 2s2-.9 2-2V2c0-1.1-.9-2-2-2s-2 .9-2 2v15z" fill="url(#j)"/><linearGradient id="k" gradientUnits="userSpaceOnUse" x1="22.002" y1="1.002" x2="22.002" y2="18.002"><stop offset="0" stop-color="#F6A55E"/><stop offset="1" stop-color="#EA5B03"/></linearGradient><path d="M22 18c-.6 0-1-.4-1-1V2c0-.6.4-1 1-1s1 .4 1 1v15c0 .6-.4 1-1 1z" fill="url(#k)"/><linearGradient id="l" gradientUnits="userSpaceOnUse" x1="22.002" y1="1.002" x2="22.002" y2="18.002"><stop offset="0" stop-color="#F17219"/><stop offset=".09" stop-color="#F38A39"/><stop offset=".183" stop-color="#F59E54"/><stop offset=".238" stop-color="#F6A55E"/><stop offset=".246" stop-color="#F5A35C"/><stop offset=".381" stop-color="#EC8740"/><stop offset=".515" stop-color="#E5722C"/><stop offset=".649" stop-color="#E06620"/><stop offset=".78" stop-color="#DF621C"/><stop offset="1" stop-color="#D64701"/></linearGradient><path d="M22 18c-.6 0-1-.4-1-1V2c0-.6.4-1 1-1s1 .4 1 1v15c0 .6-.4 1-1 1z" fill="url(#l)"/></svg>