<?xml version="1.0" encoding="utf-8"?>
<!-- Generator: Adobe Illustrator 25.2.1, SVG Export Plug-In . SVG Version: 6.00 Build 0)  -->
<svg width="24px" height="24px" version="1.1" id="Layer_1" xmlns="http://www.w3.org/2000/svg" xmlns:xlink="http://www.w3.org/1999/xlink" x="0px" y="0px"
	 viewBox="0 0 74.4 74.4" style="enable-background:new 0 0 74.4 74.4;" xml:space="preserve" preserveAspectRatio="xMinYMid meet">
<g>
	<path d="M62.8,0.2C62-0.2,61.1,0,60.5,0.7C60.3,0.9,45.7,15.9,31,17.3v26.2c14.7,1.3,29.3,16.4,29.5,16.6c0.8,0.8,2.1,0.8,2.9,0
		c0.3-0.4,0.6-0.9,0.6-1.5V2.4C64,1.3,63.5,0.5,62.8,0.2z M58.9,52.3c-6.6-5.9-14.2-11.1-22.6-13.1V21.6c8.5-2,16-7.2,22.6-13.1
		V52.3z"/>
	<path d="M72.8,25.4c-0.8-1.5-2.1-2.6-3.4-3.4v16.7C74,36,75.6,30,72.8,25.4z"/>
	<path d="M25.8,43.2V17.3H12.9C5.7,17.3,0,23.1,0,30.2c0,7.2,5.8,12.9,12.9,12.9h12.9V43.2z M5.1,30.3c0-4.3,3.5-7.6,7.6-7.6h7.6V38
		h-7.6C8.6,37.9,5.1,34.6,5.1,30.3z"/>
	<path d="M24.4,48.4h-14c-0.6,0-1.1-0.1-1.7-0.3c2,8.4,4.7,16.4,8,24.1c0.6,1.3,2.3,2.2,3.2,2.2h12.4c1.2,0,1.9-1.6,1.6-3.5
		c-0.1-0.6-0.3-1.2-0.6-1.8C31.8,67.1,25.1,50.6,24.4,48.4z M20.9,69.2c-1.3-3.1-4.6-12.3-5.5-15.5h5.4c0,0,5.6,14.8,6,15.5H20.9
		L20.9,69.2z"/>
</g>
</svg>
