<svg width="24" height="24" viewBox="0 0 24 24" fill="none" xmlns="http://www.w3.org/2000/svg" preserveAspectRatio="xMinYMid meet">
<path fill-rule="evenodd" clip-rule="evenodd" d="M12.5787 5.54036C13.5627 4.76637 15.006 5.46739 15.006 6.71938V17.0841C15.006 18.3359 13.5632 19.037 12.579 18.2634L8.00196 14.6658L8.00206 9.1399L12.5787 5.54036ZM16.006 6.71938C16.006 4.63273 13.6006 3.46435 11.9604 4.75434L7.32395 8.401H4.50195C3.12124 8.401 2.00195 9.52029 2.00195 10.901V12.901C2.00195 14.2817 3.12124 15.401 4.50195 15.401H4.64338L6.5323 20.9794C6.71825 21.5285 7.23353 21.8981 7.8133 21.8981C8.73913 21.8981 9.39125 20.9888 9.09431 20.1118L7.56445 15.5938L11.961 19.0496C13.6013 20.3389 16.006 19.1704 16.006 17.0841V6.71938ZM6.44338 15.401H5.69915L7.47947 20.6587C7.52793 20.8018 7.66221 20.8981 7.8133 20.8981C8.05458 20.8981 8.22452 20.6611 8.14714 20.4326L6.44338 15.401ZM6.80196 14.401H7.00195V9.401H4.50195C3.67353 9.401 3.00195 10.0726 3.00195 10.901V12.901C3.00195 13.7294 3.67353 14.401 4.50195 14.401H5.00196H6.80196ZM17.9883 12.901C17.9883 12.6249 18.2121 12.401 18.4883 12.401H21.4983C21.7744 12.401 21.9983 12.6249 21.9983 12.901C21.9983 13.1771 21.7744 13.401 21.4983 13.401H18.4883C18.2121 13.401 17.9883 13.1771 17.9883 12.901ZM20.1175 8.82767C20.3382 8.66164 20.3825 8.34817 20.2164 8.12751C20.0504 7.90686 19.7369 7.86257 19.5163 8.02859L18.1872 9.02859C17.9665 9.19462 17.9223 9.50809 18.0883 9.72874C18.2543 9.9494 18.5678 9.99369 18.7884 9.82767L20.1175 8.82767ZM18.0887 16.0738C17.9227 16.2945 17.967 16.6079 18.1877 16.774L19.5167 17.774C19.7374 17.94 20.0509 17.8957 20.2169 17.675C20.3829 17.4544 20.3386 17.1409 20.118 16.9749L18.7889 15.9749C18.5682 15.8089 18.2548 15.8531 18.0887 16.0738Z" fill="#212529"/>
</svg>
