<?xml version="1.0" encoding="utf-8"?>
<!-- Generator: Adobe Illustrator 15.1.0, SVG Export Plug-In  -->
<!DOCTYPE svg PUBLIC "-//W3C//DTD SVG 1.1//EN" "http://www.w3.org/Graphics/SVG/1.1/DTD/svg11.dtd" [
	<!ENTITY ns_flows "http://ns.adobe.com/Flows/1.0/">
]>
<svg version="1.1"
	 xmlns="http://www.w3.org/2000/svg" xmlns:xlink="http://www.w3.org/1999/xlink" xmlns:a="http://ns.adobe.com/AdobeSVGViewerExtensions/3.0/"
	 x="0px" y="0px" width="12px" height="12px" viewBox="0 -0.4 12 12" style="overflow:visible;enable-background:new 0 -0.4 12 12;"
	 xml:space="preserve" preserveAspectRatio="xMinYMid meet">
<defs>
</defs>
<path style="fill:#999999;" d="M11,4.1H8.6L9.8,2c0.3-0.5,0.1-1.1-0.4-1.4L8.6,0.1C8.1-0.1,7.5,0,7.2,0.5L6,2.6L4.8,0.5
	C4.5,0,3.9-0.1,3.4,0.1L2.6,0.6C2.1,0.9,1.9,1.5,2.2,2l1.2,2.1H1c-0.5,0-1,0.4-1,1v1c0,0.6,0.5,1,1,1h2.4L2.2,9.2
	c-0.3,0.5-0.1,1.1,0.4,1.4L3.4,11c0.5,0.3,1.1,0.1,1.4-0.4L6,8.6l1.2,2.1c0.3,0.5,0.9,0.6,1.4,0.4l0.9-0.5c0.5-0.3,0.6-0.9,0.4-1.4
	L8.6,7.1H11c0.5,0,1-0.5,1-1v-1C12,4.5,11.5,4.1,11,4.1z"/>
</svg>
