<?xml version="1.0" encoding="utf-8"?>
<!-- Generator: Adobe Illustrator 15.1.0, SVG Export Plug-In  -->
<!DOCTYPE svg PUBLIC "-//W3C//DTD SVG 1.1//EN" "http://www.w3.org/Graphics/SVG/1.1/DTD/svg11.dtd" [
	<!ENTITY ns_flows "http://ns.adobe.com/Flows/1.0/">
]>
<svg version="1.1"
	 xmlns="http://www.w3.org/2000/svg" xmlns:xlink="http://www.w3.org/1999/xlink" xmlns:a="http://ns.adobe.com/AdobeSVGViewerExtensions/3.0/"
	 x="0px" y="0px" width="16px" height="16px" viewBox="0 -0.9 16 16" style="overflow:visible;enable-background:new 0 -0.9 16 16;"
	 xml:space="preserve" preserveAspectRatio="xMinYMid meet">
<defs>
</defs>
<path style="fill:#999;" d="M10.7,7.9c1.4-1.5,2.4-2.6,2.9-3.3s0.8-1.4,0.8-2c0-0.6-0.2-1-0.5-1.3c-0.3-0.3-0.7-0.5-1.1-0.5
	c-0.5,0-1,0.2-1.3,0.6c-0.2,0.2-0.4,0.5-0.5,1l-0.3-0.1c0.2-0.9,0.5-1.5,1-1.9c0.5-0.3,1-0.5,1.5-0.5c0.7,0,1.2,0.2,1.6,0.6
	s0.6,0.9,0.6,1.5c0,0.6-0.2,1.3-0.7,1.9c-0.4,0.6-1.4,1.6-2.9,3.2h2.7c0.4,0,0.6,0,0.8-0.1c0.2-0.1,0.3-0.3,0.5-0.7L16,6.4l-0.7,1.6
	h-4.7V7.9z M0,14.8c0.4,0,0.8-0.2,1-0.3c0.2-0.2,0.7-0.7,1.3-1.5l2.5-3.1L3,7.3C2.3,6.2,1.7,5.5,1.4,5.3C1.1,5,0.7,4.8,0.2,4.8V4.5
	H5v0.3c-0.5,0-0.8,0-0.9,0.1C3.9,5,3.8,5.1,3.8,5.3c0,0.1,0.1,0.3,0.2,0.5C4,6,4,6.1,4.1,6.2l1.7,2.4l1.8-2.2C7.8,6.1,8,5.9,8.1,5.7
	c0.1-0.1,0.1-0.2,0.1-0.3c0-0.2-0.1-0.4-0.3-0.5c-0.1,0-0.4-0.1-0.8-0.1V4.5h3.8v0.3c-0.4,0-0.8,0.1-1,0.2C9.5,5.2,9.1,5.7,8.5,6.3
	L6.2,9.2l3,4.4c0.3,0.5,0.6,0.8,0.8,0.9s0.5,0.2,0.9,0.3v0.3H6.3v-0.3c0.5,0,0.8,0,0.9-0.1s0.3-0.2,0.3-0.4c0-0.2-0.1-0.4-0.4-0.8
	c-0.2-0.4-0.9-1.4-2-2.9l-1.9,2.4c-0.3,0.3-0.5,0.6-0.6,0.8c-0.2,0.3-0.3,0.4-0.3,0.6c0,0.2,0.1,0.4,0.4,0.5
	c0.2,0.1,0.4,0.1,0.8,0.1v0.3H0V14.8z"/>
</svg>
