<svg id="Layer_1" data-name="Layer 1" xmlns="http://www.w3.org/2000/svg" width="48" height="48" viewBox="0 0 48 48"><defs><style>.cls-1{fill:#9c0;}.cls-2{fill:#fff;}</style></defs><title>48px_sourcefile_20170718_multi</title><circle class="cls-1" cx="24.11" cy="24" r="24"/><path id="path1" class="cls-2" d="M13.38,23.12l2.68,3.73a.91.91,0,1,1-1.48,1.07l-2-2.83a1.66,1.66,0,0,0-1.22,1.61v4.69h5.51a.92.92,0,1,1,0,1.84H9.48V26.72a3.52,3.52,0,0,1,3.38-3.53Zm3-4.61a1.72,1.72,0,0,0-1.54,1.86,1.72,1.72,0,0,0,1.54,1.86,1.72,1.72,0,0,0,1.54-1.86A1.73,1.73,0,0,0,16.38,18.51Zm19.76-.41L26.67,28.52l-3.79-4.58a3,3,0,0,0-2.4,2.61v6.68H32.41V25.76l4.11-7.12ZM16.38,16.67a3.55,3.55,0,0,1,3.38,3.69,3.55,3.55,0,0,1-3.37,3.69A3.55,3.55,0,0,1,13,20.36,3.55,3.55,0,0,1,16.38,16.67Zm19.91-1.48,2.44,3.34-4.46,7.72v8.81H18.67V26.49a4.79,4.79,0,0,1,4.5-4.44l.49-.06,3.08,3.71Zm-9.22-.41a2.64,2.64,0,0,0-2.4,2.83,2.64,2.64,0,0,0,2.4,2.83,2.64,2.64,0,0,0,2.4-2.83A2.64,2.64,0,0,0,27.07,14.78Zm0-1.84a4.47,4.47,0,0,1,4.24,4.67,4.47,4.47,0,0,1-4.24,4.67,4.47,4.47,0,0,1-4.24-4.67A4.49,4.49,0,0,1,27.07,12.94Z"/></svg>