<?xml version="1.0" encoding="utf-8"?>
<!-- Generator: Adobe Illustrator 16.0.4, SVG Export Plug-In . SVG Version: 6.00 Build 0)  -->
<!DOCTYPE svg PUBLIC "-//W3C//DTD SVG 1.1//EN" "http://www.w3.org/Graphics/SVG/1.1/DTD/svg11.dtd">
<svg version="1.1" id="Layer_1" xmlns="http://www.w3.org/2000/svg" xmlns:xlink="http://www.w3.org/1999/xlink" x="0px" y="0px"
	 width="512px" height="512px" viewBox="0 0 512 512" enable-background="new 0 0 512 512" xml:space="preserve">
<path fill-rule="evenodd" clip-rule="evenodd" fill="#472F92" d="M512.2,486.4c0,14.1-11.5,25.6-25.6,25.6H25.6
	C11.5,512,0,500.5,0,486.4V25.6C0,11.5,11.5,0,25.6,0h460.9c14.1,0,25.6,11.5,25.6,25.6V486.4z"/>
<path fill-rule="evenodd" clip-rule="evenodd" fill="#FFFFFF" d="M249.2,57.8c-0.1-0.6,0.3-0.7,0.7-0.7
	c40.1-0.9,57.5,21.1,65.2,52.6c0.8,44.5-12.7,74.6-40.7,90.3c-52.9,15.6-76.2-36.8-76.3-87.4c2.9-23,14.4-37.5,29.6-48.1
	C234.6,62,239.9,58,249.2,57.8z"/>
<path fill-rule="evenodd" clip-rule="evenodd" fill="#FFFFFF" d="M306.8,212.7c31.1,4.6,51.9,19.5,64.4,42.7
	c-76.7,0-153.5,0-230.3,0c12.1-22.7,34.5-39.5,64.4-41.9L306.8,212.7z"/>
<path fill-rule="evenodd" clip-rule="evenodd" fill="#FFFFFF" d="M386.1,441.3c0,9.7-7.1,13.7-16.4,13.7H142.5
	c-9.3,0-14.9-3.8-14.9-13.5L90.4,292c0-9.7,7.6-17.6,16.9-17.6h297.6c9.3,0,16.9,7.9,16.9,17.6L386.1,441.3z"/>
<g>
	<g>
		<path fill="#472F92" d="M201.9,388.9h23l0.9,8.2h-36.4l-8.8-40.4h15.7L201.9,388.9z"/>
		<path fill="#472F92" d="M240,356.7h35.2l-0.3,8.2h-27.2c-2.8,0-5.1,1.6-5,3.5l0.2,4.3h31.6l-0.6,15.4c-0.2,5-5.8,9-12.5,9h-31.3
			l-0.8-8.2h25.3c2.7,0,4.9-1.6,4.9-3.5l0-4.4h-30.9l-1.4-15.3C226.7,360.7,232.5,356.7,240,356.7z"/>
		<path fill="#472F92" d="M313.5,356.7h15.7l-5.9,31.4c-0.9,5-7.1,9-13.8,9h-31.2l2.2-40.3h15.6l-3.1,32.1h11c2.7,0,5.1-1.6,5.4-3.5
			L313.5,356.7z"/>
	</g>
</g>
</svg>
