<?xml version="1.0" encoding="utf-8"?>
<!-- Generator: Adobe Illustrator 16.0.4, SVG Export Plug-In . SVG Version: 6.00 Build 0)  -->
<!DOCTYPE svg PUBLIC "-//W3C//DTD SVG 1.1//EN" "http://www.w3.org/Graphics/SVG/1.1/DTD/svg11.dtd">
<svg version="1.1" id="Layer_1" xmlns="http://www.w3.org/2000/svg" xmlns:xlink="http://www.w3.org/1999/xlink" x="0px" y="0px"
	 width="512px" height="512px" viewBox="0 0 512 512" enable-background="new 0 0 512 512" xml:space="preserve">
<g>
	<path fill-rule="evenodd" clip-rule="evenodd" fill="#472F92" d="M512,486.4c0,14.1-11.5,25.6-25.6,25.6H25.6
		C11.5,512,0,500.5,0,486.4V25.6C0,11.5,11.5,0,25.6,0h460.8C500.5,0,512,11.5,512,25.6V486.4z"/>
	<g>
		<ellipse fill="#FFFFFF" cx="131" cy="128.9" rx="61.4" ry="61.4"/>
		<path fill="#FFFFFF" d="M251.4,421.6c0,0-24.3-0.8-29.6,0.5c0,0-5.3,25.3-20.9,22.8H52V264.2c0,0,3.9-71.2,86.8-85.5l19.9,191.7
			h75.9c0,0,33.7,3.9,37.5,42.7h145l-25.9-10.4l62.2-160.6c0,0,14.3,1.3,19.4,23.3l-58.3,155.4v20.7H252.2"/>
	</g>
</g>
</svg>
