<svg id="Layer_1" data-name="Layer 1" xmlns="http://www.w3.org/2000/svg" width="48" height="48" viewBox="0 0 48 48"><defs><style>.cls-1{fill:#9c0;}.cls-2{fill:#fff;}</style></defs><title>48px_sourcefile_20170718_multi</title><circle class="cls-1" cx="24.13" cy="24" r="24"/><path id="path1" class="cls-2" d="M14.68,31.14l4,4.11V31.14Zm11.85-4.89-.21.21-.56,3.17,3.13-.9.11-.11ZM31.91,21l-4.07,4,2.47,2.36,4-3.94Zm3.88-3.83-2.59,2.55,2.4,2.44,2.63-2.57ZM14.21,12.88a.82.82,0,0,0-.58.24.74.74,0,0,0-.22.53l0,15.67h7v7.31H30.3a.78.78,0,0,0,.81-.77V29.1l-1.28,1.26-6.39,1.84,1.18-6.64,6.49-6.37V13.65a.78.78,0,0,0-.81-.77Zm0-1.84H30.3a2.62,2.62,0,0,1,2.64,2.59v3.75l2.87-2.81,5,5L32.94,27.3v8.57a2.62,2.62,0,0,1-2.64,2.59H19.2L11.61,30.6l0-17a2.54,2.54,0,0,1,.75-1.82A2.67,2.67,0,0,1,14.21,11Z"/></svg>