<svg width="76" height="75" viewBox="0 0 76 75" fill="none" xmlns="http://www.w3.org/2000/svg">
<path fill-rule="evenodd" clip-rule="evenodd" d="M17.2354 12.5C12.9206 12.5 9.42285 15.9978 9.42285 20.3125V54.6875C9.42285 59.0022 12.9206 62.5 17.2354 62.5H57.8656C62.1803 62.5 65.6781 59.0022 65.6781 54.6875V20.3125C65.6781 15.9978 62.1803 12.5 57.8656 12.5H17.2354ZM12.5479 20.3125C12.5479 17.7237 14.6465 15.625 17.2354 15.625H57.8656C60.4546 15.625 62.5531 17.7237 62.5531 20.3125V54.6875C62.5531 57.2763 60.4546 59.375 57.8656 59.375H17.2354C14.6465 59.375 12.5479 57.2763 12.5479 54.6875V20.3125Z" fill="black"/>
<path d="M21.9809 26.1093C21.1179 26.1093 20.4184 26.809 20.4184 27.6718C20.4184 28.5346 21.1179 29.2343 21.9809 29.2343H46.9809C47.8437 29.2343 48.5434 28.5346 48.5434 27.6718C48.5434 26.809 47.8437 26.1093 46.9809 26.1093H21.9809Z" fill="black"/>
<path d="M20.4184 37.0468C20.4184 36.184 21.1179 35.4843 21.9809 35.4843H42.2934C43.1562 35.4843 43.8559 36.184 43.8559 37.0468C43.8559 37.9096 43.1562 38.6093 42.2934 38.6093H21.9809C21.1179 38.6093 20.4184 37.9096 20.4184 37.0468Z" fill="black"/>
<path d="M21.9809 44.8593C21.1179 44.8593 20.4184 45.559 20.4184 46.4218C20.4184 47.2846 21.1179 47.9843 21.9809 47.9843H32.9184C33.7812 47.9843 34.4809 47.2846 34.4809 46.4218C34.4809 45.559 33.7812 44.8593 32.9184 44.8593H21.9809Z" fill="black"/>
</svg>
