<svg xmlns="http://www.w3.org/2000/svg" style="isolation:isolate" width="16" height="16" preserveAspectRatio="xMinYMid meet"><defs><clipPath id="a"><path d="M0 0h16v16H0z"/></clipPath></defs><g clip-path="url(#a)"><path d="M2 15.5h12M2 .6h12m-.5 14.9V.6m-11 14.9V.6" fill="none" vector-effect="non-scaling-stroke" stroke="#000" stroke-miterlimit="10"/><path d="M3 1h10v14H3V1z" fill="#FFF"/><path d="M4 7.5h1m6 4h1m-3-2h3m-5 2h3m-4-4h3m-1-2h4m-8 8.1h3m3-6.1h2m-4 6.1h2M4 9.5h4m-4 2h2m-2-6h3" fill="#A5B0B0" vector-effect="non-scaling-stroke" stroke="#A5B0B0" stroke-miterlimit="10"/><path d="M9 2.5h2m-6 0h3" fill="#7C7C7C" vector-effect="non-scaling-stroke" stroke="#7C7C7C" stroke-miterlimit="10"/></g></svg>