<?xml version="1.0" encoding="utf-8"?>
<!-- Generator: Adobe Illustrator 15.1.0, SVG Export Plug-In  -->
<!DOCTYPE svg PUBLIC "-//W3C//DTD SVG 1.1//EN" "http://www.w3.org/Graphics/SVG/1.1/DTD/svg11.dtd" [
	<!ENTITY ns_flows "http://ns.adobe.com/Flows/1.0/">
]>
<svg version="1.1"
	 xmlns="http://www.w3.org/2000/svg" xmlns:xlink="http://www.w3.org/1999/xlink" xmlns:a="http://ns.adobe.com/AdobeSVGViewerExtensions/3.0/"
	 x="0px" y="0px" width="24px" height="24px" viewBox="-2 0 24 24" style="overflow:visible;enable-background:new -2 0 24 24;"
	 xml:space="preserve" preserveAspectRatio="xMinYMid meet">
<defs>
</defs>
<linearGradient id="SVGID_1_" gradientUnits="userSpaceOnUse" x1="17.5" y1="16" x2="17.5" y2="22">
	<stop  offset="0" style="stop-color:#DB6D17"/>
	<stop  offset="1" style="stop-color:#BF3B08"/>
	<a:midPointStop  offset="0" style="stop-color:#DB6D17"/>
	<a:midPointStop  offset="0.5" style="stop-color:#DB6D17"/>
	<a:midPointStop  offset="1" style="stop-color:#BF3B08"/>
</linearGradient>
<rect x="15" y="16" style="fill:url(#SVGID_1_);" width="5" height="6"/>
<linearGradient id="SVGID_2_" gradientUnits="userSpaceOnUse" x1="17.5" y1="17" x2="17.5" y2="21">
	<stop  offset="0" style="stop-color:#F6A55E"/>
	<stop  offset="1" style="stop-color:#EA5B03"/>
	<a:midPointStop  offset="0" style="stop-color:#F6A55E"/>
	<a:midPointStop  offset="0.5" style="stop-color:#F6A55E"/>
	<a:midPointStop  offset="1" style="stop-color:#EA5B03"/>
</linearGradient>
<rect x="16" y="17" style="fill:url(#SVGID_2_);" width="3" height="4"/>
<linearGradient id="SVGID_3_" gradientUnits="userSpaceOnUse" x1="17.5" y1="18" x2="17.5" y2="20">
	<stop  offset="0" style="stop-color:#F17219"/>
	<stop  offset="1" style="stop-color:#EA5B03"/>
	<a:midPointStop  offset="0" style="stop-color:#F17219"/>
	<a:midPointStop  offset="0.5" style="stop-color:#F17219"/>
	<a:midPointStop  offset="1" style="stop-color:#EA5B03"/>
</linearGradient>
<rect x="17" y="18" style="fill:url(#SVGID_3_);" width="1" height="2"/>
<linearGradient id="SVGID_4_" gradientUnits="userSpaceOnUse" x1="17.5" y1="9" x2="17.5" y2="15.0005">
	<stop  offset="0" style="stop-color:#90C50E"/>
	<stop  offset="1" style="stop-color:#70A034"/>
	<a:midPointStop  offset="0" style="stop-color:#90C50E"/>
	<a:midPointStop  offset="0.5" style="stop-color:#90C50E"/>
	<a:midPointStop  offset="1" style="stop-color:#70A034"/>
</linearGradient>
<rect x="15" y="9" style="fill:url(#SVGID_4_);" width="5" height="6"/>
<linearGradient id="SVGID_5_" gradientUnits="userSpaceOnUse" x1="17.5" y1="10" x2="17.5" y2="14.0005">
	<stop  offset="0" style="stop-color:#D9F991"/>
	<stop  offset="0.2388" style="stop-color:#D7F88D"/>
	<stop  offset="0.4501" style="stop-color:#D1F383"/>
	<stop  offset="0.6509" style="stop-color:#C6EC71"/>
	<stop  offset="0.844" style="stop-color:#B7E257"/>
	<stop  offset="1" style="stop-color:#A8D73D"/>
	<a:midPointStop  offset="0" style="stop-color:#D9F991"/>
	<a:midPointStop  offset="0.7317" style="stop-color:#D9F991"/>
	<a:midPointStop  offset="1" style="stop-color:#A8D73D"/>
</linearGradient>
<rect x="16" y="10" style="fill:url(#SVGID_5_);" width="3" height="4"/>
<linearGradient id="SVGID_6_" gradientUnits="userSpaceOnUse" x1="17.5" y1="11" x2="17.5" y2="13">
	<stop  offset="0" style="stop-color:#B3E810"/>
	<stop  offset="1" style="stop-color:#90C60D"/>
	<a:midPointStop  offset="0" style="stop-color:#B3E810"/>
	<a:midPointStop  offset="0.5" style="stop-color:#B3E810"/>
	<a:midPointStop  offset="1" style="stop-color:#90C60D"/>
</linearGradient>
<rect x="17" y="11" style="fill:url(#SVGID_6_);" width="1" height="2"/>
<linearGradient id="SVGID_7_" gradientUnits="userSpaceOnUse" x1="8.4995" y1="0" x2="8.4995" y2="24.0005">
	<stop  offset="0" style="stop-color:#95BFF8"/>
	<stop  offset="0.5569" style="stop-color:#84ADEF"/>
	<stop  offset="1" style="stop-color:#7CA4EB"/>
	<a:midPointStop  offset="0" style="stop-color:#95BFF8"/>
	<a:midPointStop  offset="0.4" style="stop-color:#95BFF8"/>
	<a:midPointStop  offset="1" style="stop-color:#7CA4EB"/>
</linearGradient>
<rect style="fill:url(#SVGID_7_);" width="17" height="24"/>
<linearGradient id="SVGID_8_" gradientUnits="userSpaceOnUse" x1="8.4995" y1="1" x2="8.4995" y2="23.0005">
	<stop  offset="0" style="stop-color:#E7F4FC"/>
	<stop  offset="1" style="stop-color:#DEEFFC"/>
	<a:midPointStop  offset="0" style="stop-color:#E7F4FC"/>
	<a:midPointStop  offset="0.5" style="stop-color:#E7F4FC"/>
	<a:midPointStop  offset="1" style="stop-color:#DEEFFC"/>
</linearGradient>
<rect x="1" y="1" style="fill:url(#SVGID_8_);" width="15" height="22"/>
<linearGradient id="SVGID_9_" gradientUnits="userSpaceOnUse" x1="8.4995" y1="2" x2="8.4995" y2="22.0005">
	<stop  offset="0" style="stop-color:#CEE9F9"/>
	<stop  offset="1" style="stop-color:#BBDFF8"/>
	<a:midPointStop  offset="0" style="stop-color:#CEE9F9"/>
	<a:midPointStop  offset="0.5" style="stop-color:#CEE9F9"/>
	<a:midPointStop  offset="1" style="stop-color:#BBDFF8"/>
</linearGradient>
<rect x="2" y="2" style="fill:url(#SVGID_9_);" width="13" height="20"/>
<linearGradient id="SVGID_10_" gradientUnits="userSpaceOnUse" x1="17.5" y1="2" x2="17.5" y2="8">
	<stop  offset="0" style="stop-color:#76A1F0"/>
	<stop  offset="1" style="stop-color:#6B90D5"/>
	<a:midPointStop  offset="0" style="stop-color:#76A1F0"/>
	<a:midPointStop  offset="0.5" style="stop-color:#76A1F0"/>
	<a:midPointStop  offset="1" style="stop-color:#6B90D5"/>
</linearGradient>
<rect x="15" y="2" style="fill:url(#SVGID_10_);" width="5" height="6"/>
<linearGradient id="SVGID_11_" gradientUnits="userSpaceOnUse" x1="17.5" y1="3" x2="17.5" y2="7">
	<stop  offset="0" style="stop-color:#BBE0F7"/>
	<stop  offset="1" style="stop-color:#82B4FB"/>
	<a:midPointStop  offset="0" style="stop-color:#BBE0F7"/>
	<a:midPointStop  offset="0.5" style="stop-color:#BBE0F7"/>
	<a:midPointStop  offset="1" style="stop-color:#82B4FB"/>
</linearGradient>
<rect x="16" y="3" style="fill:url(#SVGID_11_);" width="3" height="4"/>
<linearGradient id="SVGID_12_" gradientUnits="userSpaceOnUse" x1="17.5" y1="4" x2="17.5" y2="6">
	<stop  offset="0" style="stop-color:#95BFF8"/>
	<stop  offset="0.5569" style="stop-color:#84ADEF"/>
	<stop  offset="1" style="stop-color:#7CA4EB"/>
	<a:midPointStop  offset="0" style="stop-color:#95BFF8"/>
	<a:midPointStop  offset="0.4" style="stop-color:#95BFF8"/>
	<a:midPointStop  offset="1" style="stop-color:#7CA4EB"/>
</linearGradient>
<rect x="17" y="4" style="fill:url(#SVGID_12_);" width="1" height="2"/>
<linearGradient id="SVGID_13_" gradientUnits="userSpaceOnUse" x1="12.4248" y1="10.7285" x2="12.4248" y2="15.9702">
	<stop  offset="0" style="stop-color:#76A1F0"/>
	<stop  offset="5.472010e-02" style="stop-color:#739DE9"/>
	<stop  offset="0.2045" style="stop-color:#6F95DE"/>
	<stop  offset="0.4149" style="stop-color:#6C91D7"/>
	<stop  offset="1" style="stop-color:#6B90D5"/>
	<a:midPointStop  offset="0" style="stop-color:#76A1F0"/>
	<a:midPointStop  offset="0.13" style="stop-color:#76A1F0"/>
	<a:midPointStop  offset="1" style="stop-color:#6B90D5"/>
</linearGradient>
<path style="fill:url(#SVGID_13_);" d="M12.7,15.2C12,15.7,11.5,16,11,16c-0.3,0-0.5-0.1-0.7-0.3C10.1,15.5,10,15.3,10,15
	c0-0.4,0.2-0.7,0.5-1c0.3-0.3,1-0.7,2.2-1.2v-0.5c0-0.4,0-0.6-0.1-0.7c0-0.1-0.1-0.2-0.2-0.3c-0.1-0.1-0.2-0.1-0.4-0.1
	c-0.2,0-0.4,0.1-0.6,0.2c-0.1,0.1-0.1,0.1-0.1,0.2c0,0.1,0,0.2,0.2,0.3c0.1,0.2,0.2,0.3,0.2,0.4c0,0.2-0.1,0.3-0.2,0.4
	c-0.1,0.1-0.3,0.2-0.5,0.2c-0.2,0-0.4-0.1-0.6-0.2s-0.2-0.3-0.2-0.5c0-0.3,0.1-0.5,0.3-0.7c0.2-0.2,0.5-0.4,0.9-0.5s0.7-0.2,1.1-0.2
	c0.5,0,0.9,0.1,1.1,0.3c0.3,0.2,0.5,0.4,0.5,0.7c0.1,0.2,0.1,0.5,0.1,1v1.9c0,0.2,0,0.4,0,0.4c0,0.1,0,0.1,0.1,0.1c0,0,0.1,0,0.1,0
	c0.1,0,0.2-0.1,0.3-0.2l0.2,0.1c-0.2,0.3-0.4,0.5-0.6,0.6c-0.2,0.1-0.4,0.2-0.7,0.2c-0.3,0-0.5-0.1-0.7-0.2
	C12.8,15.6,12.7,15.4,12.7,15.2z M12.7,14.8v-1.7c-0.4,0.3-0.8,0.5-1,0.8c-0.1,0.2-0.2,0.4-0.2,0.6c0,0.2,0.1,0.3,0.2,0.4
	c0.1,0.1,0.2,0.1,0.4,0.1C12.2,15.1,12.4,15,12.7,14.8z"/>
<linearGradient id="SVGID_14_" gradientUnits="userSpaceOnUse" x1="6.3535" y1="8.2671" x2="6.3535" y2="15.7007">
	<stop  offset="0" style="stop-color:#76A1F0"/>
	<stop  offset="5.472010e-02" style="stop-color:#739DE9"/>
	<stop  offset="0.2045" style="stop-color:#6F95DE"/>
	<stop  offset="0.4149" style="stop-color:#6C91D7"/>
	<stop  offset="1" style="stop-color:#6B90D5"/>
	<a:midPointStop  offset="0" style="stop-color:#76A1F0"/>
	<a:midPointStop  offset="0.13" style="stop-color:#76A1F0"/>
	<a:midPointStop  offset="1" style="stop-color:#6B90D5"/>
</linearGradient>
<path style="fill:url(#SVGID_14_);" d="M7,13.6H4.4l-0.3,0.7c-0.1,0.2-0.2,0.4-0.2,0.6c0,0.2,0.1,0.4,0.2,0.5
	c0.1,0.1,0.3,0.1,0.7,0.1v0.2H2.5v-0.2c0.3,0,0.5-0.1,0.6-0.3c0.2-0.2,0.4-0.5,0.6-1.1l2.6-5.8h0.1l2.6,6c0.2,0.6,0.5,0.9,0.6,1.1
	c0.1,0.1,0.3,0.2,0.5,0.2v0.2H6.7v-0.2h0.1c0.3,0,0.5,0,0.6-0.1c0.1-0.1,0.1-0.1,0.1-0.2c0-0.1,0-0.1,0-0.2c0,0-0.1-0.2-0.2-0.4
	L7,13.6z M6.8,13.2l-1.1-2.5l-1.1,2.5H6.8z"/>
</svg>
