<!DOCTYPE svg PUBLIC "-//W3C//DTD SVG 1.1//EN" "http://www.w3.org/Graphics/SVG/1.1/DTD/svg11.dtd" [
	<!ENTITY ns_flows "http://ns.adobe.com/Flows/1.0/">
]><svg xmlns="http://www.w3.org/2000/svg" width="24" height="24" viewBox="-2 0 24 24" preserveAspectRatio="xMinYMid meet" overflow="visible"><linearGradient id="a" gradientUnits="userSpaceOnUse" x1="17.5" y1="16" x2="17.5" y2="22"><stop offset="0" stop-color="#DB6D17"/><stop offset="1" stop-color="#BF3B08"/></linearGradient><path fill="url(#a)" d="M15 16h5v6h-5z"/><linearGradient id="b" gradientUnits="userSpaceOnUse" x1="17.5" y1="17" x2="17.5" y2="21"><stop offset="0" stop-color="#F6A55E"/><stop offset="1" stop-color="#EA5B03"/></linearGradient><path fill="url(#b)" d="M16 17h3v4h-3z"/><linearGradient id="c" gradientUnits="userSpaceOnUse" x1="17.5" y1="18" x2="17.5" y2="20"><stop offset="0" stop-color="#F17219"/><stop offset="1" stop-color="#EA5B03"/></linearGradient><path fill="url(#c)" d="M17 18h1v2h-1z"/><linearGradient id="d" gradientUnits="userSpaceOnUse" x1="17.5" y1="9" x2="17.5" y2="15.001"><stop offset="0" stop-color="#90C50E"/><stop offset="1" stop-color="#70A034"/></linearGradient><path fill="url(#d)" d="M15 9h5v6h-5z"/><linearGradient id="e" gradientUnits="userSpaceOnUse" x1="17.5" y1="10" x2="17.5" y2="14.001"><stop offset="0" stop-color="#D9F991"/><stop offset=".239" stop-color="#D7F88D"/><stop offset=".45" stop-color="#D1F383"/><stop offset=".651" stop-color="#C6EC71"/><stop offset=".844" stop-color="#B7E257"/><stop offset="1" stop-color="#A8D73D"/></linearGradient><path fill="url(#e)" d="M16 10h3v4h-3z"/><linearGradient id="f" gradientUnits="userSpaceOnUse" x1="17.5" y1="11" x2="17.5" y2="13"><stop offset="0" stop-color="#B3E810"/><stop offset="1" stop-color="#90C60D"/></linearGradient><path fill="url(#f)" d="M17 11h1v2h-1z"/><linearGradient id="g" gradientUnits="userSpaceOnUse" x1="8.499" x2="8.499" y2="24"><stop offset="0" stop-color="#95BFF8"/><stop offset=".557" stop-color="#84ADEF"/><stop offset="1" stop-color="#7CA4EB"/></linearGradient><path fill="url(#g)" d="M0 0h17v24H0z"/><linearGradient id="h" gradientUnits="userSpaceOnUse" x1="8.499" y1="1" x2="8.499" y2="23"><stop offset="0" stop-color="#E7F4FC"/><stop offset="1" stop-color="#DEEFFC"/></linearGradient><path fill="url(#h)" d="M1 1h15v22H1z"/><linearGradient id="i" gradientUnits="userSpaceOnUse" x1="8.499" y1="2" x2="8.499" y2="22"><stop offset="0" stop-color="#CEE9F9"/><stop offset="1" stop-color="#BBDFF8"/></linearGradient><path fill="url(#i)" d="M2 2h13v20H2z"/><linearGradient id="j" gradientUnits="userSpaceOnUse" x1="17.5" y1="2" x2="17.5" y2="8"><stop offset="0" stop-color="#76A1F0"/><stop offset="1" stop-color="#6B90D5"/></linearGradient><path fill="url(#j)" d="M15 2h5v6h-5z"/><linearGradient id="k" gradientUnits="userSpaceOnUse" x1="17.5" y1="3" x2="17.5" y2="7"><stop offset="0" stop-color="#BBE0F7"/><stop offset="1" stop-color="#82B4FB"/></linearGradient><path fill="url(#k)" d="M16 3h3v4h-3z"/><linearGradient id="l" gradientUnits="userSpaceOnUse" x1="17.5" y1="4" x2="17.5" y2="6"><stop offset="0" stop-color="#95BFF8"/><stop offset=".557" stop-color="#84ADEF"/><stop offset="1" stop-color="#7CA4EB"/></linearGradient><path fill="url(#l)" d="M17 4h1v2h-1z"/><linearGradient id="m" gradientUnits="userSpaceOnUse" x1="12.425" y1="10.729" x2="12.425" y2="15.97"><stop offset="0" stop-color="#76A1F0"/><stop offset=".055" stop-color="#739DE9"/><stop offset=".204" stop-color="#6F95DE"/><stop offset=".415" stop-color="#6C91D7"/><stop offset="1" stop-color="#6B90D5"/></linearGradient><path d="M12.7 15.2c-.7.5-1.2.8-1.7.8-.3 0-.5-.1-.7-.3-.2-.2-.3-.4-.3-.7 0-.4.2-.7.5-1 .3-.3 1-.7 2.2-1.2v-.5c0-.4 0-.6-.1-.7 0-.1-.1-.2-.2-.3-.1-.1-.2-.1-.4-.1s-.4.1-.6.2c-.1.1-.1.1-.1.2s0 .2.2.3c.1.2.2.3.2.4 0 .2-.1.3-.2.4-.1.1-.3.2-.5.2s-.4-.1-.6-.2-.2-.3-.2-.5c0-.3.1-.5.3-.7.2-.2.5-.4.9-.5s.7-.2 1.1-.2c.5 0 .9.1 1.1.3.3.2.5.4.5.7.1.2.1.5.1 1v2.3c0 .1 0 .1.1.1h.1c.1 0 .2-.1.3-.2l.2.1c-.2.3-.4.5-.6.6-.2.1-.4.2-.7.2-.3 0-.5-.1-.7-.2-.1-.1-.2-.3-.2-.5zm0-.4v-1.7c-.4.3-.8.5-1 .8-.1.2-.2.4-.2.6 0 .2.1.3.2.4.1.1.2.1.4.1.1.1.3 0 .6-.2z" fill="url(#m)"/><linearGradient id="n" gradientUnits="userSpaceOnUse" x1="6.354" y1="8.267" x2="6.354" y2="15.701"><stop offset="0" stop-color="#76A1F0"/><stop offset=".055" stop-color="#739DE9"/><stop offset=".204" stop-color="#6F95DE"/><stop offset=".415" stop-color="#6C91D7"/><stop offset="1" stop-color="#6B90D5"/></linearGradient><path d="M7 13.6H4.4l-.3.7c-.1.2-.2.4-.2.6 0 .2.1.4.2.5.1.1.3.1.7.1v.2H2.5v-.2c.3 0 .5-.1.6-.3.2-.2.4-.5.6-1.1l2.6-5.8h.1l2.6 6c.2.6.5.9.6 1.1.1.1.3.2.5.2v.2H6.7v-.2h.1c.3 0 .5 0 .6-.1.1-.1.1-.1.1-.2v-.2l-.2-.4-.3-1.1zm-.2-.4l-1.1-2.5-1.1 2.5h2.2z" fill="url(#n)"/></svg>