<svg width="24" height="24" viewBox="0 0 24 24" fill="none" xmlns="http://www.w3.org/2000/svg" preserveAspectRatio="xMinYMid meet">
<path fill-rule="evenodd" clip-rule="evenodd" d="M5.00391 5.50049C5.00391 4.11978 6.12319 3.00049 7.50391 3.00049H7.50879H18.5039C18.78 3.00049 19.0039 3.22435 19.0039 3.50049V20.4995C19.0039 20.7757 18.78 20.9995 18.5039 20.9995L18.5025 20.9995L6.9928 20.9995C5.89005 20.9995 4.99609 20.1056 4.99609 19.0028C4.99609 18.9429 4.99873 18.8836 5.00391 18.825V5.50049ZM7.00879 4.08412C6.42364 4.28866 6.00391 4.84556 6.00391 5.50049V17.2678C6.29545 17.1013 6.63301 17.0061 6.9928 17.0061H7.00879L7.00879 4.08412ZM8.00879 17.0061L8.00879 4.00049H18.0039V17.0061H8.00879ZM6.9928 18.0061H18.0039V19.9995L6.9928 19.9995C6.45046 19.9995 6.0093 19.5664 5.99638 19.0271C6.00133 18.9989 6.00391 18.9699 6.00391 18.9402V18.8774C6.06558 18.3861 6.48481 18.0061 6.9928 18.0061ZM10.0068 13.502C10.0068 13.2258 10.2307 13.002 10.5068 13.002L15.5073 13.002C15.7835 13.002 16.0073 13.2258 16.0073 13.502C16.0073 13.7781 15.7835 14.002 15.5073 14.002L10.5068 14.002C10.2307 14.002 10.0068 13.7781 10.0068 13.502ZM11.7273 7.32404C11.6519 7.1332 11.4676 7.00781 11.2623 7.00781C11.0571 7.00781 10.8728 7.1332 10.7973 7.32404L9.54197 10.5005C9.44047 10.7573 9.56638 11.0478 9.8232 11.1493C10.08 11.2508 10.3705 11.1249 10.472 10.8681L10.6143 10.5078H11.9103L12.0527 10.8681C12.1542 11.1249 12.4447 11.2508 12.7015 11.1493C12.9583 11.0478 13.0842 10.7573 12.9827 10.5005L11.7273 7.32404ZM11.2623 8.86818L11.5151 9.50781H11.0096L11.2623 8.86818ZM14.0068 7.00781C13.7307 7.00781 13.5068 7.23167 13.5068 7.50781C13.5068 7.78396 13.7307 8.00781 14.0068 8.00781H15.0726L13.5908 10.2305C13.4885 10.3839 13.479 10.5812 13.566 10.7437C13.653 10.9063 13.8224 11.0078 14.0068 11.0078H16.0068C16.283 11.0078 16.5068 10.784 16.5068 10.5078C16.5068 10.2317 16.283 10.0078 16.0068 10.0078H14.9411L16.4229 7.78516C16.5251 7.63173 16.5347 7.43446 16.4477 7.27188C16.3607 7.1093 16.1912 7.00781 16.0068 7.00781H14.0068Z" fill="#212529"/>
</svg>
