<?xml version="1.0" encoding="utf-8"?>
<!-- Generator: Adobe Illustrator 25.2.1, SVG Export Plug-In . SVG Version: 6.00 Build 0)  -->
<svg width="24px" height="24px" version="1.1" id="Layer_1" xmlns="http://www.w3.org/2000/svg" xmlns:xlink="http://www.w3.org/1999/xlink" x="0px" y="0px"
	 viewBox="0 0 74.4 74.4" style="enable-background:new 0 0 74.4 74.4;" xml:space="preserve" preserveAspectRatio="xMinYMid meet">
<path d="M67.7,67.9V6.6c0-0.8-0.4-1.5-1.3-2l-8.7-4.4C57.4,0.1,57,0,56.7,0H8.8C7.5,0.1,6.6,1,6.6,2.2v70c-0.1,1,0.8,2.1,2.2,2.2
	h47.9c0.3,0,0.7-0.1,1-0.2l8.7-4.4C67.3,69.4,67.7,68.7,67.7,67.9z M62.5,66l-4.4,2.2V57.7l4.4-2.2V66z M62.5,49.6l-4.4,2.2V41.3
	l4.4-2.2V49.6z M62.5,33.5l-4.4,2.2V25.2l4.4-2.2V33.5z M61.4,17.7l-7.2,3c-0.7,0.5-1.3,1.2-1.3,2v46.4h-41V5.2h43.5L61.3,8
	L61.4,17.7z"/>
</svg>
