<?xml version="1.0" encoding="utf-8"?>
<!-- Generator: Adobe Illustrator 15.1.0, SVG Export Plug-In  -->
<!DOCTYPE svg PUBLIC "-//W3C//DTD SVG 1.1//EN" "http://www.w3.org/Graphics/SVG/1.1/DTD/svg11.dtd" [
	<!ENTITY ns_flows "http://ns.adobe.com/Flows/1.0/">
]>
<svg version="1.1"
	 xmlns="http://www.w3.org/2000/svg" xmlns:xlink="http://www.w3.org/1999/xlink" xmlns:a="http://ns.adobe.com/AdobeSVGViewerExtensions/3.0/"
	 x="0px" y="0px" width="16px" height="16px" viewBox="-0.1 0 16 16" style="overflow:visible;enable-background:new -0.1 0 16 16;"
	 xml:space="preserve" preserveAspectRatio="xMinYMid meet">
<defs>
</defs>
<path style="fill:#999999;" d="M5.5,10H0.3C0.2,9.9,0.1,9.9,0,9.8C0.2,9.6,1.1,8.7,1.8,8h1.8C4.1,8.5,4.7,9.2,5.5,10z M9.2,13
	c0.2-0.6,0.5-1.3,0.8-2H6.4c0,0,0,0.1-0.1,0.1c0,0,0-0.1-0.1-0.1H1.8c1,0.7,1.9,1.4,2.7,2H9.2z M15.2,1c0.2-0.3,0.4-0.7,0.6-1
	c-0.4,0.3-0.8,0.7-1.2,1H15.2z M10.7,5c-0.6,0.7-1.1,1.3-1.6,2h2.7c0.3-0.6,0.7-1.3,1-2H10.7z M8.4,8c-0.5,0.7-1,1.4-1.3,2h3.3
	c0.3-0.6,0.6-1.3,0.9-2H8.4z M13.6,2c-0.7,0.7-1.3,1.3-2,2h1.8c0.4-0.7,0.8-1.3,1.2-2H13.6z M5.7,14c1.5,1.2,2.4,2,2.4,2
	s0.2-0.7,0.6-1.8c0-0.1,0.1-0.2,0.1-0.2H5.7z"/>
</svg>
