<?xml version="1.0" encoding="utf-8"?>
<svg version="1.1" id="Layer_1" xmlns="http://www.w3.org/2000/svg" x="0px" y="0px"
	 width="1792px" height="1792px" viewBox="0 0 1792 1792" enable-background="new 0 0 1792 1792" xml:space="preserve">
<path fill="#fff" d="M1753.36,1429.921c0,38.4-13.439,71.039-40.319,97.92l-195.84,195.84c-26.881,26.881-59.521,40.319-97.92,40.319
	c-38.401,0-71.041-13.438-97.921-40.319L898,1300.321l-423.36,423.359c-26.88,26.881-59.521,40.319-97.92,40.319
	c-38.401,0-71.041-13.438-97.92-40.319l-195.84-195.84c-26.88-26.881-40.32-59.52-40.32-97.92c0-38.401,13.439-71.04,40.32-97.921
	l423.361-423.359L82.96,485.281c-26.88-26.88-40.32-59.52-40.32-97.92c0-38.401,13.439-71.04,40.32-97.92L278.8,93.601
	c26.879-26.879,59.52-40.32,97.92-40.32c38.399,0,71.04,13.44,97.92,40.32L898,516.961l423.359-423.36
	c26.88-26.879,59.52-40.32,97.921-40.32c38.399,0,71.039,13.44,97.92,40.32l195.84,195.84c26.88,26.881,40.319,59.52,40.319,97.92
	c0,38.4-13.439,71.04-40.319,97.92l-423.359,423.36L1713.04,1332C1739.92,1358.881,1753.36,1391.52,1753.36,1429.921z"/>
</svg>
