<?xml version="1.0" encoding="UTF-8" standalone="no"?>
<svg
   xmlns="http://www.w3.org/2000/svg"
   width="1792"
   height="1792"
   viewBox="0 0 1792 1792"
   version="1.1"
   >
  <path
     fill="#298A08"
     d="M1412 734q0-28-18-46l-91-90q-19-19-45-19t-45 19l-408 407-226-226q-19-19-45-19t-45 19l-91 90q-18 18-18 46 0 27 18 45l362 362q19 19 45 19 27 0 46-19l543-543q18-18 18-45zm252 162q0 209-103 385.5t-279.5 279.5-385.5 103-385.5-103-279.5-279.5-103-385.5 103-385.5 279.5-279.5 385.5-103 385.5 103 279.5 279.5 103 385.5z"
     id="path3772" />
  <path
     style="fill:#ffffff;stroke-width:7.59322023"
     d="M 581.82957,1135.2364 C 413.3021,966.26835 382.69831,932.20933 382.69831,913.62279 c 0,-17.3971 13.12178,-35.08356 63.1322,-85.09397 91.41908,-91.41909 84.11905,-93.21476 236.27675,58.11989 L 804.0188,1007.9008 1017.2396,795.53006 c 256.1309,-255.10991 232.3703,-244.27949 327.4112,-149.23853 96.9936,96.99353 116.7811,61.43627 -223.6235,401.84087 -268.36269,268.3627 -288.46544,286.7557 -313.41108,286.7557 -24.75356,0 -40.86307,-14.2448 -225.78665,-199.6517 z"
     id="path3782"
    />
</svg>
