<svg version="1.1" id="Layer_1" xmlns="http://www.w3.org/2000/svg" x="0px" y="0px"
	 width="1792px" height="1792px" viewBox="0 0 1792 1792" enable-background="new 0 0 1792 1792" xml:space="preserve">
<path fill="#BDBDBD" d="M896,352c-98.667,0-189.667,24.333-273,73c-83.334,48.667-149.334,114.667-198,198
	c-48.667,83.333-73,174.333-73,273s24.333,189.667,73,273c48.666,83.333,114.666,149.333,198,198c83.333,48.667,174.333,73,273,73
	c98.666,0,189.666-24.333,273-73c83.333-48.667,149.333-114.667,198-198c48.666-83.333,73-174.333,73-273s-24.334-189.667-73-273
	c-48.667-83.333-114.667-149.333-198-198C1085.666,376.333,994.666,352,896,352z M1664,896c0,139.333-34.334,267.833-103,385.5
	c-68.667,117.667-161.834,210.833-279.5,279.5c-117.667,68.667-246.167,103-385.5,103c-139.334,0-267.834-34.333-385.5-103
	c-117.667-68.667-210.834-161.833-279.5-279.5c-68.667-117.667-103-246.167-103-385.5s34.333-267.833,103-385.5
	C299.666,392.833,392.833,299.667,510.5,231C628.166,162.333,756.666,128,896,128c139.333,0,267.833,34.333,385.5,103
	c117.666,68.667,210.833,161.833,279.5,279.5C1629.666,628.167,1664,756.667,1664,896z"/>
<path fill="#e5e5e5" d="M1275,691.232c0,15.084-4.564,27.905-13.693,38.464l-354.059,409.536l-66.509,76.929
	c-9.129,10.56-20.214,15.839-33.254,15.839c-13.041,0-24.126-5.279-33.255-15.839l-66.508-76.929L530.694,934.465
	C521.565,923.905,517,911.084,517,896c0-15.084,4.564-27.906,13.693-38.465l66.508-76.929c9.128-10.559,20.213-15.838,33.254-15.838
	s24.126,5.279,33.255,15.838l143.775,166.869l320.805-371.636c9.129-10.559,20.214-15.838,33.255-15.838
	c13.04,0,24.125,5.279,33.254,15.838l66.508,76.929C1270.436,663.327,1275,676.148,1275,691.232z"/>
</svg>
