<?xml version="1.0" encoding="utf-8"?>
<!-- Generator: Adobe Illustrator 15.1.0, SVG Export Plug-In  -->
<!DOCTYPE svg PUBLIC "-//W3C//DTD SVG 1.1//EN" "http://www.w3.org/Graphics/SVG/1.1/DTD/svg11.dtd" [
	<!ENTITY ns_flows "http://ns.adobe.com/Flows/1.0/">
]>
<svg version="1.1"
	 xmlns="http://www.w3.org/2000/svg" xmlns:xlink="http://www.w3.org/1999/xlink" xmlns:a="http://ns.adobe.com/AdobeSVGViewerExtensions/3.0/"
	 x="0px" y="0px" width="74px" height="51px" viewBox="-0.535 -0.774 74 51"
	 style="overflow:visible;enable-background:new -0.535 -0.774 74 51;" xml:space="preserve" preserveAspectRatio="xMinYMid meet">
<defs>
</defs>
<radialGradient id="SVGID_1_" cx="137.084" cy="32.2324" r="123.3346" gradientUnits="userSpaceOnUse">
	<stop  offset="0" style="stop-color:#FAAF40"/>
	<stop  offset="0.0432" style="stop-color:#F9A538"/>
	<stop  offset="0.1116" style="stop-color:#F89D31"/>
	<stop  offset="0.2269" style="stop-color:#F89A2F"/>
	<stop  offset="0.5276" style="stop-color:#F7922D"/>
	<stop  offset="1" style="stop-color:#F37B28"/>
	<a:midPointStop  offset="0" style="stop-color:#FAAF40"/>
	<a:midPointStop  offset="0.1982" style="stop-color:#FAAF40"/>
	<a:midPointStop  offset="0.2269" style="stop-color:#F89A2F"/>
	<a:midPointStop  offset="0.6064" style="stop-color:#F89A2F"/>
	<a:midPointStop  offset="1" style="stop-color:#F37B28"/>
</radialGradient>
<path style="fill:url(#SVGID_1_);" d="M61.192,49.375V26.558c0-4.771-1.972-7.156-5.911-7.156c-3.942,0-5.912,2.386-5.912,7.156
	v22.817H37.754V26.558c0-4.771-1.938-7.156-5.811-7.156c-3.94,0-5.91,2.386-5.91,7.156v22.817H14.417V25.211
	c0-4.979,1.728-8.747,5.185-11.304c3.043-2.282,7.158-3.425,12.343-3.425c5.255,0,9.127,1.349,11.617,4.045
	c2.142-2.696,6.049-4.045,11.72-4.045c5.186,0,9.298,1.143,12.341,3.425c3.457,2.557,5.186,6.325,5.186,11.304v24.164H61.192z"/>
<path style="fill:#58595B;" d="M15.499,16.321c-0.394,1.999-0.788,3.999-1.181,5.997c10.983,3.72,21.4,0.111,26.883-9.489
	C33.184,7.282,25.601,12.914,15.499,16.321"/>
<linearGradient id="SVGID_2_" gradientUnits="userSpaceOnUse" x1="14.4287" y1="16.0166" x2="40.6895" y2="16.0166">
	<stop  offset="0" style="stop-color:#929497"/>
	<stop  offset="0.1245" style="stop-color:#757578"/>
	<stop  offset="0.2792" style="stop-color:#575658"/>
	<stop  offset="0.4403" style="stop-color:#403E3F"/>
	<stop  offset="0.6085" style="stop-color:#302D2E"/>
	<stop  offset="0.7884" style="stop-color:#262223"/>
	<stop  offset="1" style="stop-color:#231F20"/>
	<a:midPointStop  offset="0" style="stop-color:#929497"/>
	<a:midPointStop  offset="0.2606" style="stop-color:#929497"/>
	<a:midPointStop  offset="1" style="stop-color:#231F20"/>
</linearGradient>
<path style="fill:url(#SVGID_2_);" d="M15.499,14.889c-0.356,2.259-0.714,4.518-1.07,6.776c10.527,3.567,20.84,0.503,26.261-8.944
	C33.708,4.677,25.925,11.373,15.499,14.889"/>
<linearGradient id="SVGID_3_" gradientUnits="userSpaceOnUse" x1="19.457" y1="7.248" x2="30.3611" y2="22.8207">
	<stop  offset="0" style="stop-color:#231F20"/>
	<stop  offset="1" style="stop-color:#231F20;stop-opacity:0"/>
	<a:midPointStop  offset="0" style="stop-color:#231F20"/>
	<a:midPointStop  offset="0.5" style="stop-color:#231F20"/>
	<a:midPointStop  offset="1" style="stop-color:#231F20;stop-opacity:0"/>
</linearGradient>
<path style="fill:url(#SVGID_3_);" d="M27.993,17.575c-4.764-0.997-10.036,1.485-13.564,4.09
	C12.103,4.879,22.536,5.222,36.098,9.415c-0.857,4.143-2.387,9.598-5.017,12.903C31.081,20.182,30.052,18.6,27.993,17.575"/>
<linearGradient id="SVGID_4_" gradientUnits="userSpaceOnUse" x1="0.0078" y1="7.7275" x2="48.0068" y2="7.7275">
	<stop  offset="0" style="stop-color:#929497"/>
	<stop  offset="0.1245" style="stop-color:#757578"/>
	<stop  offset="0.2792" style="stop-color:#575658"/>
	<stop  offset="0.4403" style="stop-color:#403E3F"/>
	<stop  offset="0.6085" style="stop-color:#302D2E"/>
	<stop  offset="0.7884" style="stop-color:#262223"/>
	<stop  offset="1" style="stop-color:#231F20"/>
	<a:midPointStop  offset="0" style="stop-color:#929497"/>
	<a:midPointStop  offset="0.2606" style="stop-color:#929497"/>
	<a:midPointStop  offset="1" style="stop-color:#231F20"/>
</linearGradient>
<path style="fill:url(#SVGID_4_);" d="M0.008,14.889C17.625,4.318,27.468,2.282,48.007,0.202
	C24.279,18.919,23.64,14.889,0.008,14.889"/>
<line style="fill:#383738;stroke:#4A4A4C;stroke-width:0.5;" x1="48.007" y1="0.202" x2="29.186" y2="13.948"/>
<path style="opacity:0.23;fill:#231F20;" d="M25.506,7.567C25.733,9.723,25.286,5.423,25.506,7.567"/>
<line style="fill:#FFFFFF;stroke:#A8ABAD;stroke-width:0.5;" x1="0.008" y1="14.889" x2="29.186" y2="13.948"/>
<path style="fill:none;stroke:#F16922;stroke-width:0.5;" d="M23.79,7.733c-4.996,1.381-21.387,5.041-21.64,7.086
	c-0.483,3.917-0.123,10.143-0.123,10.143"/>
<path style="fill:#F16922;" d="M3.532,39.84C1.697,35.389-0.443,30.363,2.1,24.184C3.794,29.957,3.544,34.362,3.532,39.84"/>
<ellipse transform="matrix(0.942 -0.3356 0.3356 0.942 -1.1544 8.1596)" style="fill:#6D6E70;" cx="23.032" cy="7.42" rx="0.792" ry="0.411"/>
</svg>
