<svg id="Layer_1" data-name="Layer 1" xmlns="http://www.w3.org/2000/svg" width="48" height="48" viewBox="0 0 48 48"><defs><style>.cls-1{fill:#06c;}.cls-2{fill:#fff;}</style></defs><title>48px_sourcefile_20170718_multi</title><circle class="cls-1" cx="24" cy="24" r="24"/><path id="path1" class="cls-2" d="M11.2,20.34V34.05H36.8V20.34Zm10.51-5.48a1.37,1.37,0,1,1-1.37,1.37A1.37,1.37,0,0,1,21.71,14.86Zm-3.66,0a1.37,1.37,0,1,1-1.37,1.37A1.37,1.37,0,0,1,18.06,14.86Zm-3.66,0A1.37,1.37,0,1,1,13,16.23,1.37,1.37,0,0,1,14.4,14.86Zm-3.2-.91v4.57H36.8V13.95ZM9.38,12.12H38.63V35.88H9.38Z"/></svg>