<svg xmlns="http://www.w3.org/2000/svg" style="isolation:isolate" width="16" height="16" preserveAspectRatio="xMinYMid meet"><defs><clipPath id="a"><path d="M0 0h16v16H0z"/></clipPath></defs><g clip-path="url(#a)"><path d="M11.012 15.594v-1.181h1.18v1.181h-1.18zm1.073-1.588h-1.073v-.279a1.856 1.856 0 0 1 .172-.859c.18-.281.414-.526.687-.719a5.2 5.2 0 0 0 .611-.547.737.737 0 0 0 .15-.526.758.758 0 0 0-.225-.547 1.067 1.067 0 0 0-.74-.247 1.077 1.077 0 0 0-.752.257c-.223.207-.37.483-.418.784l-1.073-.129a1.79 1.79 0 0 1 .644-1.277c.434-.364.99-.551 1.556-.526a2.348 2.348 0 0 1 1.609.526c.375.301.595.754.601 1.234a1.348 1.348 0 0 1-.225.741c-.27.356-.588.674-.944.944a1.78 1.78 0 0 0-.462.493 1.666 1.666 0 0 0-.118.677zm-10.194 0v-1.074h4.292v1.074H1.891zm0-1.857v-1.073h4.292v1.073H1.891zm13.016-6.664v1.073h-4.12a2.81 2.81 0 0 1 .408-1.18 7.79 7.79 0 0 1 1.319-1.449c.35-.309.673-.646.966-1.009a1.3 1.3 0 0 0 .247-.719.83.83 0 0 0-.247-.601.901.901 0 0 0-1.169 0c-.167.21-.255.473-.247.741l-1.17-.118a1.918 1.918 0 0 1 .655-1.395 2.212 2.212 0 0 1 1.384-.419 2 2 0 0 1 1.427.494c.34.315.528.76.515 1.223.001.272-.05.542-.15.794a3.208 3.208 0 0 1-.472.784 7.619 7.619 0 0 1-.773.783q-.558.515-.708.676a2.018 2.018 0 0 0-.236.322h2.371zm-7.383.225V4.101H5.915V3.028h1.609v-1.61h1.074v1.577h1.663v1.074H8.598V5.71H7.524zm-2.403-.225v1.073H1c.046-.419.186-.822.408-1.18a7.813 7.813 0 0 1 1.341-1.449c.342-.309.658-.647.944-1.009.153-.209.239-.46.247-.719a.817.817 0 0 0-.214-.601.784.784 0 0 0-.58-.182.786.786 0 0 0-.59.225c-.167.21-.254.473-.247.741l-1.18-.161A1.921 1.921 0 0 1 1.783.828 2.213 2.213 0 0 1 3.178.409a2.002 2.002 0 0 1 1.428.494c.339.315.527.76.515 1.223 0 .272-.051.542-.151.794a3.208 3.208 0 0 1-.472.784 7.609 7.609 0 0 1-.772.783q-.558.515-.709.676a2.13 2.13 0 0 0-.236.322h2.34z"/><path vector-effect="non-scaling-stroke" stroke-width="1.073" stroke="#000" stroke-miterlimit="10" d="M1.676 8.071h12.877"/></g></svg>