<svg id="Layer_1" data-name="Layer 1" xmlns="http://www.w3.org/2000/svg" width="48" height="48" viewBox="0 0 48 48"><defs><style>.cls-1{fill:#336;}.cls-2{fill:#fff;}</style></defs><title>48px_sourcefile_20170718_multi</title><circle class="cls-1" cx="24.08" cy="24" r="24"/><path id="path1" class="cls-2" d="M15,23.55a3.83,3.83,0,0,0-3.73,3.92.82.82,0,0,0,.77.84h2.89l0-.21a7,7,0,0,1,2.17-4.52l0,0Zm6.81,0a5.1,5.1,0,0,0-5.06,5.12A1.26,1.26,0,0,0,18,29.94h7.37l0-.11A7.08,7.08,0,0,1,25,27.64a6.7,6.7,0,0,1,1.18-3.83l.06-.08h0a4.73,4.73,0,0,0-1.37-.19h-3Zm10-.09a.92.92,0,0,1,.92.92v2.36h2.36a.92.92,0,1,1,0,1.84H32.76v2.36a.92.92,0,1,1-1.84,0V28.57H28.58a.92.92,0,0,1,0-1.84h2.36V24.38A.9.9,0,0,1,31.84,23.46Zm0-.83a5,5,0,1,0,5,5A5,5,0,0,0,31.84,22.63ZM19.58,22l0,.06-.06.08.15-.06h0ZM16.43,17a2.32,2.32,0,0,0-2.25,2.38,2.35,2.35,0,0,0,1.65,2.29,2.24,2.24,0,0,0,1.22,0,2.3,2.3,0,0,0,1.42-1.26l0-.08,0-.11a5,5,0,0,1-.28-1.67,4.57,4.57,0,0,1,0-.51l0-.17,0,0A2.23,2.23,0,0,0,16.43,17Zm6.73-1.65a3.21,3.21,0,0,0-.86,6.28,3,3,0,0,0,1.72,0,3.21,3.21,0,0,0-.86-6.28Zm0-1.84a5,5,0,0,1,5,5,5.08,5.08,0,0,1-1.26,3.34l-.13.15.19.06c.17.06.34.11.51.19l.13.06.17-.13A6.86,6.86,0,1,1,26.57,32l-.17-.22H18a3.1,3.1,0,0,1-2.72-1.63l0,0H12.06a2.64,2.64,0,0,1-2.61-2.66,5.74,5.74,0,0,1,3.66-5.4l.17-.06h0a4.28,4.28,0,0,1-.92-2.66,4.15,4.15,0,0,1,4.09-4.2,4,4,0,0,1,2.38.79l.06,0,0-.06A4.87,4.87,0,0,1,23.16,13.48Z"/></svg>