<?xml version="1.0" encoding="utf-8"?>
<!-- Generator: Adobe Illustrator 15.1.0, SVG Export Plug-In  -->
<!DOCTYPE svg PUBLIC "-//W3C//DTD SVG 1.1//EN" "http://www.w3.org/Graphics/SVG/1.1/DTD/svg11.dtd" [
	<!ENTITY ns_flows "http://ns.adobe.com/Flows/1.0/">
]>
<svg version="1.1"
	 xmlns="http://www.w3.org/2000/svg" xmlns:xlink="http://www.w3.org/1999/xlink" xmlns:a="http://ns.adobe.com/AdobeSVGViewerExtensions/3.0/"
	 x="0px" y="0px" width="24px" height="24px" viewBox="-3 0 24 24" style="overflow:visible;enable-background:new -3 0 24 24;"
	 xml:space="preserve" preserveAspectRatio="xMinYMid meet">
<defs>
</defs>
<linearGradient id="SVGID_1_" gradientUnits="userSpaceOnUse" x1="9.4995" y1="0" x2="9.4995" y2="24.0005">
	<stop  offset="0" style="stop-color:#95BFF8"/>
	<stop  offset="0.5569" style="stop-color:#84ADEF"/>
	<stop  offset="1" style="stop-color:#7CA4EB"/>
	<a:midPointStop  offset="0" style="stop-color:#95BFF8"/>
	<a:midPointStop  offset="0.4" style="stop-color:#95BFF8"/>
	<a:midPointStop  offset="1" style="stop-color:#7CA4EB"/>
</linearGradient>
<polygon style="fill:url(#SVGID_1_);" points="11.5,0 0,0 0,24 19,24 19,7.9 "/>
<linearGradient id="SVGID_2_" gradientUnits="userSpaceOnUse" x1="9.4995" y1="1" x2="9.4995" y2="23.0005">
	<stop  offset="0" style="stop-color:#E7F4FC"/>
	<stop  offset="1" style="stop-color:#DEEFFC"/>
	<a:midPointStop  offset="0" style="stop-color:#E7F4FC"/>
	<a:midPointStop  offset="0.5" style="stop-color:#E7F4FC"/>
	<a:midPointStop  offset="1" style="stop-color:#DEEFFC"/>
</linearGradient>
<polygon style="fill:url(#SVGID_2_);" points="1,23 1,1 11.1,1 18,8.3 18,23 "/>
<linearGradient id="SVGID_3_" gradientUnits="userSpaceOnUse" x1="9.4995" y1="2" x2="9.4995" y2="22.0005">
	<stop  offset="0" style="stop-color:#CEE9F9"/>
	<stop  offset="1" style="stop-color:#BBDFF8"/>
	<a:midPointStop  offset="0" style="stop-color:#CEE9F9"/>
	<a:midPointStop  offset="0.5" style="stop-color:#CEE9F9"/>
	<a:midPointStop  offset="1" style="stop-color:#BBDFF8"/>
</linearGradient>
<polygon style="fill:url(#SVGID_3_);" points="2,22 2,2 10.6,2 17,8.7 17,22 "/>
<linearGradient id="SVGID_4_" gradientUnits="userSpaceOnUse" x1="14.2451" y1="0" x2="14.2451" y2="9.3594">
	<stop  offset="0" style="stop-color:#95BFF8"/>
	<stop  offset="0.5569" style="stop-color:#84ADEF"/>
	<stop  offset="1" style="stop-color:#7CA4EB"/>
	<a:midPointStop  offset="0" style="stop-color:#95BFF8"/>
	<a:midPointStop  offset="0.4" style="stop-color:#95BFF8"/>
	<a:midPointStop  offset="1" style="stop-color:#7CA4EB"/>
</linearGradient>
<path style="fill:url(#SVGID_4_);" d="M10,9c0,0,5.2-1.5,9,0.4c0-0.1,0-1.5,0-1.5L11.5,0c0,0-1.8,0-2,0C12.1,3.7,10,9,10,9z"/>
<linearGradient id="SVGID_5_" gradientUnits="userSpaceOnUse" x1="11.3223" y1="7.5449" x2="14.4504" y2="4.4168">
	<stop  offset="0" style="stop-color:#E7F4FC"/>
	<stop  offset="0.5181" style="stop-color:#E5F3FC"/>
	<stop  offset="0.7045" style="stop-color:#DEF0FB"/>
	<stop  offset="0.8371" style="stop-color:#D3EBFA"/>
	<stop  offset="0.872" style="stop-color:#CEE9F9"/>
	<stop  offset="1" style="stop-color:#BDD8F0"/>
	<a:midPointStop  offset="0" style="stop-color:#E7F4FC"/>
	<a:midPointStop  offset="0.87" style="stop-color:#E7F4FC"/>
	<a:midPointStop  offset="0.872" style="stop-color:#CEE9F9"/>
	<a:midPointStop  offset="0.5" style="stop-color:#CEE9F9"/>
	<a:midPointStop  offset="1" style="stop-color:#BDD8F0"/>
</linearGradient>
<path style="fill:url(#SVGID_5_);" d="M17.5,7.8c-0.9-0.2-2-0.3-3.1-0.3c-1.1,0-2.1,0.1-3,0.3c0.4-1.6,0.7-4.1-0.2-6.4L17.5,7.8z"/>
</svg>
