<!DOCTYPE svg PUBLIC "-//W3C//DTD SVG 1.1//EN" "http://www.w3.org/Graphics/SVG/1.1/DTD/svg11.dtd" [
	<!ENTITY ns_flows "http://ns.adobe.com/Flows/1.0/">
]><svg xmlns="http://www.w3.org/2000/svg" width="24" height="24" viewBox="-3 0 24 24" preserveAspectRatio="xMinYMid meet" overflow="visible"><linearGradient id="a" gradientUnits="userSpaceOnUse" x1="9.499" x2="9.499" y2="24"><stop offset="0" stop-color="#95BFF8"/><stop offset=".557" stop-color="#84ADEF"/><stop offset="1" stop-color="#7CA4EB"/></linearGradient><path fill="url(#a)" d="M11.5 0H0v24h19V7.9"/><linearGradient id="b" gradientUnits="userSpaceOnUse" x1="9.499" y1="1" x2="9.499" y2="23"><stop offset="0" stop-color="#E7F4FC"/><stop offset="1" stop-color="#DEEFFC"/></linearGradient><path fill="url(#b)" d="M1 23V1h10.1L18 8.3V23"/><linearGradient id="c" gradientUnits="userSpaceOnUse" x1="9.499" y1="2" x2="9.499" y2="22"><stop offset="0" stop-color="#CEE9F9"/><stop offset="1" stop-color="#BBDFF8"/></linearGradient><path fill="url(#c)" d="M2 22V2h8.6L17 8.7V22"/><linearGradient id="d" gradientUnits="userSpaceOnUse" x1="14.245" x2="14.245" y2="9.359"><stop offset="0" stop-color="#95BFF8"/><stop offset=".557" stop-color="#84ADEF"/><stop offset="1" stop-color="#7CA4EB"/></linearGradient><path d="M10 9s5.2-1.5 9 .4V7.9L11.5 0h-2c2.6 3.7.5 9 .5 9z" fill="url(#d)"/><linearGradient id="e" gradientUnits="userSpaceOnUse" x1="11.322" y1="7.545" x2="14.45" y2="4.417"><stop offset="0" stop-color="#E7F4FC"/><stop offset=".518" stop-color="#E5F3FC"/><stop offset=".705" stop-color="#DEF0FB"/><stop offset=".837" stop-color="#D3EBFA"/><stop offset=".872" stop-color="#CEE9F9"/><stop offset="1" stop-color="#BDD8F0"/></linearGradient><path d="M17.5 7.8c-.9-.2-2-.3-3.1-.3s-2.1.1-3 .3c.4-1.6.7-4.1-.2-6.4l6.3 6.4z" fill="url(#e)"/></svg>