<?xml version="1.0" encoding="utf-8"?>
<!-- Generator: Adobe Illustrator 25.2.1, SVG Export Plug-In . SVG Version: 6.00 Build 0)  -->
<svg width="24px" height="24px" version="1.1" id="Layer_1" xmlns="http://www.w3.org/2000/svg" xmlns:xlink="http://www.w3.org/1999/xlink" x="0px" y="0px"
	 viewBox="0 0 74.4 74.4" style="enable-background:new 0 0 74.4 74.4;" xml:space="preserve" preserveAspectRatio="xMinYMid meet">
<g>
	<path d="M66.5,15.1L52.4,1c-0.7-0.7-1.6-1-2.6-1H10.3C8.2,0,6.6,1.6,6.6,3.7l0,0v67c0,2.1,1.6,3.7,3.7,3.7l0,0H64
		c2.1,0,3.7-1.6,3.7-3.7l0,0V17.8C67.5,16.8,67.2,15.8,66.5,15.1z M48.4,6.7l12.5,12.5H48.4V6.7z M11.9,69.2V5h30.9v15.6
		c0,2.2,1.7,3.8,3.8,3.8h15.6v44.7L11.9,69.2L11.9,69.2z"/>
</g>
</svg>
