<svg xmlns="http://www.w3.org/2000/svg" xmlns:xlink="http://www.w3.org/1999/xlink" version="1.1" x="0px" y="0px" viewBox="0 0 100 100" enable-background="new 0 0 100 100" xml:space="preserve"><path fill="#ff8360" d="M73.532,46.58c-1.8-1.751-7.055-6.952-9.448-9.31c0,0-0.475-0.467-1.218-1.198c-2.391-2.358-7.59-7.618-9.446-9.311  c-0.966-0.881-5.877-1.089-6.732,0.184c-0.32,0.476-2.789,4.47-6.646,10.535l7.398,7.305c0.628,0.619-0.114,1.671-0.733,2.298  c-0.618,0.628-1.354,1.351-1.983,0.732l-6.908-6.822c-5.505,8.662-12.175,19.184-18.111,28.559l5.068,5.002  c0.628,0.618-0.008,1.669-0.627,2.298c-0.619,0.626-1.563,1.245-2.192,0.626l-4.574-4.514c-5.149,8.136-8.745,13.946-9.159,14.644  c-1.313,2.201-0.116,4.285,0.975,5.359c1.09,1.075,3.19,2.241,5.374,0.896c1.097-0.677,15.029-10.389,29.319-20.25l-6.186-6.108  c-0.626-0.619,0.136-1.62,0.754-2.248c0.618-0.627,1.628-1.202,2.255-0.583l6.621,6.538c13.167-9.088,25.226-17.283,26.109-17.896  C74.598,52.515,75.016,48.024,73.532,46.58"/><polygon fill="#ff8360" points="64.835,32.045 68.256,35.418 92.354,23.896 89.405,18.058 76.372,24.105 83.917,8.714 78.715,4.469 "/></svg>