<svg xmlns="http://www.w3.org/2000/svg" xmlns:xlink="http://www.w3.org/1999/xlink" version="1.1" x="0px" y="0px" viewBox="0 0 90 90" enable-background="new 0 0 90 90" xml:space="preserve"><path fill="#a9cf54" d="M70.4,15.2h-6.2c-0.2-3.7-3.6-6.7-7.7-6.7H32.8c-4.1,0-7.4,3-7.7,6.7h-6c-3.8,0-6.8,3.1-6.8,6.8v52.6c0,3.8,3.1,6.8,6.8,6.8  h51.3c3.8,0,6.8-3.1,6.8-6.8V22C77.2,18.3,74.2,15.2,70.4,15.2z M23.7,35.3c0.7-0.7,1.9-0.7,2.6,0.1l2.9,3l7.5-7.9  c0.7-0.7,1.8-0.7,2.6-0.1c0.7,0.7,0.7,1.8,0.1,2.6l-8.8,9.2c-0.3,0.4-0.8,0.6-1.3,0.6h0c-0.5,0-1-0.2-1.3-0.6l-4.2-4.4  C22.9,37.1,23,36,23.7,35.3z M29.1,67.4L29.1,67.4c-0.5,0-1-0.2-1.3-0.6l-4.2-4.4c-0.7-0.7-0.7-1.9,0.1-2.6c0.7-0.7,1.9-0.7,2.6,0.1  l2.9,3l7.5-7.9c0.7-0.7,1.8-0.7,2.6-0.1c0.7,0.7,0.7,1.8,0.1,2.6l-8.8,9.2C30.1,67.1,29.6,67.4,29.1,67.4z M64.7,67.4H40.9  c-1,0-1.8-0.8-1.8-1.8s0.8-1.8,1.8-1.8h23.9c1,0,1.8,0.8,1.8,1.8S65.7,67.4,64.7,67.4z M64.7,58.1H48.1c-1,0-1.8-0.8-1.8-1.8  s0.8-1.8,1.8-1.8h16.6c1,0,1.8,0.8,1.8,1.8S65.7,58.1,64.7,58.1z M64.7,42.8H40.9c-1,0-1.8-0.8-1.8-1.8s0.8-1.8,1.8-1.8h23.9  c1,0,1.8,0.8,1.8,1.8S65.7,42.8,64.7,42.8z M64.7,33.6H48.1c-1,0-1.8-0.8-1.8-1.8c0-1,0.8-1.8,1.8-1.8h16.6c1,0,1.8,0.8,1.8,1.8  C66.5,32.8,65.7,33.6,64.7,33.6z"/><path fill="none" stroke="#a9cf54" stroke-width="2" stroke-miterlimit="10" d="M62.5,17.2"/></svg>