<svg xmlns="http://www.w3.org/2000/svg" data-name="Layer 1" viewBox="0 0 100 100" x="0px" y="0px"><title>Artboard 19</title><path fill="#299FC7" d="M10.12,88.12H31.44a62.77,62.77,0,0,1,2.22-10.53H11.53V30.1H80.47v7.59l.07.05L91,45.91V15.4a9.13,9.13,0,0,0-9.12-9.12H10.12A9.13,9.13,0,0,0,1,15.4V79A9.13,9.13,0,0,0,10.12,88.12ZM35.76,15.33a3.6,3.6,0,1,1-3.6,3.6A3.6,3.6,0,0,1,35.76,15.33Zm-10.7,0a3.6,3.6,0,1,1-3.6,3.6A3.6,3.6,0,0,1,25.06,15.33Zm-10.7,0a3.6,3.6,0,1,1-3.6,3.6A3.6,3.6,0,0,1,14.37,15.33ZM99,63.89a3.22,3.22,0,0,1-1.24,2.55L75.61,83.73a3.24,3.24,0,0,1-5.23-2.55V73.26c-11.63.27-19.27,10.09-23.64,18.35a3.9,3.9,0,0,1-3.46,2.11,4.08,4.08,0,0,1-1.22-.19,3.87,3.87,0,0,1-2.72-4.22c3.83-31.13,27.73-34.44,31-34.75v-8a3.23,3.23,0,0,1,5.23-2.55L97.76,61.34A3.22,3.22,0,0,1,99,63.89Z"/></svg>