<svg xmlns="http://www.w3.org/2000/svg" xmlns:xlink="http://www.w3.org/1999/xlink" version="1.1" x="0px" y="0px" viewBox="0 0 100 100" enable-background="new 0 0 100 100" xml:space="preserve"><path fill="#7398c4" d="M68.97,1.209H32.171c-3.313,0-6,2.686-6,6v6.078H74.97V7.209C74.97,3.895,72.283,1.209,68.97,1.209z M56.633,8.299H44.508  c-0.553,0-1-0.447-1-1s0.447-1,1-1h12.125c0.553,0,1,0.447,1,1S57.186,8.299,56.633,8.299z M26.171,21.375H26.03  c-0.553,0-1,0.447-1,1v5.459c0,0.551,0.447,1,1,1h0.141v63.957c0,3.313,2.687,6,6,6H68.97c3.313,0,6-2.688,6-6V15.295H26.171V21.375  z M50.57,95.176c-2.368,0-4.295-1.926-4.295-4.295c0-2.367,1.927-4.293,4.295-4.293s4.295,1.926,4.295,4.293  C54.865,93.25,52.938,95.176,50.57,95.176z M35.749,51.891l6.037-5.887l-1.426-8.309c-0.097-0.563,0.135-1.132,0.597-1.468  c0.464-0.334,1.076-0.379,1.58-0.114l7.462,3.923l7.462-3.923c0.505-0.265,1.117-0.221,1.58,0.114  c0.462,0.336,0.693,0.904,0.597,1.467l-1.422,8.31l6.036,5.887c0.408,0.399,0.556,0.995,0.379,1.538s-0.646,0.938-1.211,1.021  l-8.343,1.211l-3.733,7.563c-0.252,0.512-0.773,0.836-1.345,0.836s-1.093-0.324-1.345-0.836l-3.731-7.563l-8.343-1.211  c-0.564-0.082-1.034-0.478-1.211-1.021S35.34,52.289,35.749,51.891z M47.264,53.625l2.735,5.544l2.737-5.544  c0.218-0.442,0.641-0.749,1.129-0.82l6.116-0.888l-4.425-4.315c-0.353-0.345-0.514-0.841-0.431-1.327l1.042-6.092l-5.471,2.876  c-0.438,0.229-0.959,0.229-1.396,0l-5.47-2.875l1.045,6.09c0.083,0.486-0.078,0.983-0.432,1.328l-4.426,4.315l6.116,0.888  C46.623,52.876,47.046,53.183,47.264,53.625z"/></svg>