<svg xmlns="http://www.w3.org/2000/svg" xmlns:xlink="http://www.w3.org/1999/xlink" viewBox="0 0 42 70" version="1.1" x="0px" y="0px"><title>Education- Solid - 033 - Top Grades</title><desc>Created with Sketch.</desc><g stroke="none" stroke-width="1" fill="none" fill-rule="evenodd"><g fill-rule="nonzero" fill="#ab48ab"><path d="M14.75049,18.99219 C18.3374573,21.0630126 22.9240012,19.8339619 24.9948634,16.2470175 C27.0657256,12.6600731 25.8367256,8.07351561 22.249804,6.00261379 C18.6628825,3.93171196 14.0763114,5.16066133 12.00537,8.74756 C9.93828736,12.3350864 11.1665506,16.9188943 14.75049,18.99219 L14.75049,18.99219 Z M13.23779,12.95606 L14.31787,12.10621 C14.0456471,11.723898 14.0771677,11.2034394 14.3935398,10.8567746 C14.7099119,10.5101099 15.2253281,10.4312624 15.63087,10.66749 L15.92811,10.83912 L20.43165,7.29542 C20.43714,7.29109 20.44398,7.29054 20.44953,7.28642 C20.5649675,7.22727196 20.6815046,7.17029526 20.79908,7.11552 L20.79926,7.11552 C20.9235418,7.08326603 21.0528814,7.07530709 21.18018,7.09208 C21.18433,7.09263 21.18818,7.0908 21.19239,7.09135 C21.2381956,7.10386054 21.2829899,7.119816 21.32639,7.13908 C21.4885185,7.16628129 21.635027,7.25203579 21.73813,7.38008 C21.7724137,7.40545728 21.8049197,7.43315203 21.83542,7.46297 L21.84036,7.4728 C21.8949948,7.55085125 21.938198,7.63630802 21.96866,7.72658 C21.9856895,7.75762633 22.0011099,7.78952852 22.01486,7.82216 C22.0201557,7.86219784 22.0231306,7.90250852 22.02377,7.94289 C22.0408696,8.03127834 22.0459422,8.1215726 22.03885,8.21132 C22.0383,8.21559 22.04013,8.21944 22.03952,8.22371 L21.22244,13.89595 L21.5195,14.06746 C21.9118245,14.2937746 22.1030564,14.7555172 21.9856241,15.1929489 C21.8681919,15.6303805 21.4714199,15.9342685 21.0185,15.93367 C20.98914,15.93367 20.95991,15.92494 20.9305,15.92232 L20.73433,17.28426 C20.6635525,17.7758392 20.2426979,18.1409677 19.74605,18.14168 C19.6978689,18.1416491 19.6497497,18.1382239 19.60205,18.13143 C19.3395188,18.0936899 19.1027466,17.9531672 18.9438572,17.740797 C18.7849678,17.5284268 18.7169868,17.2616191 18.75488,16.99911 L19.04988,14.95138 L16.09988,13.24813 L14.47409,14.52743 C14.1934061,14.7482791 13.8162219,14.802609 13.484619,14.6699541 C13.1530161,14.5372992 12.9173729,14.237813 12.866454,13.8843091 C12.815535,13.5308051 12.9570761,13.1769891 13.23776,12.95614 L13.23779,12.95606 Z"/><polygon points="19.704 10.412 17.793 11.916 19.357 12.819"/><path d="M33,12 C31.3438951,11.9981923 30.0018077,10.6561049 30,9 L30,0 L1,0 C0.448012177,0.000716188507 0.000716188507,0.448012177 0,1 L0,55 C0.000716188507,55.5519878 0.448012177,55.9992838 1,56 L41,56 C41.5519878,55.9992838 41.9992838,55.5519878 42,55 L42,12 L33,12 Z M3.98,51.19971 C3.96888189,51.2623796 3.94864726,51.3230835 3.91994,51.37989 C3.89797215,51.4436979 3.86759448,51.5042918 3.82961,51.56007 C3.79006,51.60987 3.75002,51.65968 3.70998,51.70997 C3.61418823,51.8001686 3.50219065,51.8714226 3.3799,51.91997 C3.26127734,51.9760174 3.13115212,52.0034296 3,52 C2.73528015,51.9960852 2.48176204,51.8925356 2.29,51.71 C2.24699106,51.6624866 2.20687864,51.6124296 2.16988,51.5601 C2.13189552,51.5043218 2.10151785,51.4437279 2.07955,51.37992 C2.05077627,51.3231846 2.03069521,51.2624458 2.01998,51.19974 C2.0087278,51.1336996 2.0020519,51.0669607 2,51 C2.00368941,50.7352342 2.10727134,50.4816371 2.29,50.29 C2.38373947,50.1973251 2.49607668,50.1255955 2.61959,50.07955 C2.8632186,49.9799416 3.1362114,49.9799416 3.37984,50.07955 C3.50227429,50.1280674 3.61433013,50.1994938 3.71,50.29 C3.79810308,50.3872214 3.86910682,50.4986601 3.92,50.61959 C3.97129341,50.7399396 3.99847352,50.8691845 4,51 C3.99769714,51.066935 3.9910162,51.1336476 3.98,51.19971 L3.98,51.19971 Z M3.98,47.19971 C3.96888189,47.2623796 3.94864726,47.3230835 3.91994,47.37989 C3.89797215,47.4436979 3.86759448,47.5042918 3.82961,47.56007 C3.79279225,47.6124072 3.75284965,47.6624749 3.71,47.71 C3.61420823,47.8001986 3.50221065,47.8714526 3.37992,47.92 C3.13774943,48.0267698 2.86184057,48.0267698 2.61967,47.92 C2.49746869,47.8715635 2.38561198,47.8002934 2.29008,47.71 C2.25008,47.65971 2.21,47.6099 2.16996,47.5601 C2.13197552,47.5043218 2.10159785,47.4437279 2.07963,47.37992 C2.05085627,47.3231846 2.03077521,47.2624458 2.02006,47.19974 C1.99336743,47.0677763 1.99336743,46.9318037 2.02006,46.79984 C2.03077506,46.7371341 2.05085613,46.6763954 2.07963,46.61966 C2.10170663,46.5560515 2.13207868,46.4956335 2.16996,46.43997 C2.20996,46.38968 2.25004,46.33987 2.29008,46.29007 C2.38546602,46.1994778 2.49735331,46.1280355 2.61967,46.07962 C2.86117901,45.9697546 3.13841099,45.9697546 3.37992,46.07962 C3.50232031,46.1281254 3.6143479,46.1995274 3.71,46.29 C3.75308734,46.3373177 3.79304851,46.3873902 3.82963,46.4399 C3.86751132,46.4955635 3.89788337,46.5559815 3.91996,46.61959 C3.94866726,46.6763965 3.96890189,46.7371004 3.98002,46.79977 C4.00671257,46.9317337 4.00671257,47.0677063 3.98002,47.19967 L3.98,47.19971 Z M3.71,43.71 C3.61420823,43.8001986 3.50221065,43.8714526 3.37992,43.92 C3.26128877,43.9760401 3.13115645,44.0034421 3,44 C2.93286971,43.998201 2.86595949,43.9915167 2.7998,43.98 C2.73713042,43.9688819 2.67642653,43.9486473 2.61962,43.91994 C2.55601148,43.8978634 2.49559352,43.8674913 2.43993,43.82961 C2.38741053,43.793036 2.33732795,43.7530815 2.29,43.71 C2.1073507,43.5183115 2.00378205,43.2647469 2,43 C2.00138901,42.869224 2.02843002,42.7399918 2.07959,42.61963 C2.12798902,42.4973023 2.19941786,42.3854013 2.29,42.29 C2.3398,42.25 2.38961,42.20992 2.4399,42.16988 C2.49556352,42.1319987 2.55598148,42.1016266 2.61959,42.07955 C2.6763359,42.0507802 2.73708491,42.0307058 2.7998,42.02 C2.99465583,41.9791628 3.19739095,41.9999822 3.37988,42.07957 C3.63078914,42.1709983 3.82845175,42.3686609 3.91988,42.61957 C3.97121716,42.7399175 3.99843817,42.8691697 4,43 C3.99599307,43.264701 3.89245661,43.5181869 3.71,43.71 L3.71,43.71 Z M3.92,39.37992 C3.8691153,39.501002 3.79811353,39.6126033 3.71,39.71 C3.66248512,39.7528555 3.61242748,39.7928048 3.5601,39.82963 C3.50432178,39.8676145 3.44372787,39.8979921 3.37992,39.91996 C3.32311347,39.9486673 3.26240958,39.9689019 3.19974,39.98002 C3.13373153,39.991507 3.06697592,39.9981846 3,40 C2.86919259,39.998443 2.73996161,39.9712358 2.61963,39.91992 C2.49742869,39.8714835 2.38557198,39.8002134 2.29004,39.70992 C2.10739473,39.5182579 2.00381293,39.2647246 2,39 C2.00138901,38.869224 2.02843002,38.7399918 2.07959,38.61963 C2.13044909,38.4985758 2.2016087,38.3870966 2.29,38.29 C2.38538602,38.1994078 2.49727331,38.1279655 2.61959,38.07955 C2.80208535,37.9999862 3.00481288,37.9791675 3.19967,38.01998 C3.26237584,38.0306952 3.32311456,38.0507763 3.37985,38.07955 C3.44365787,38.1015179 3.50425178,38.1318955 3.56003,38.16988 C3.60983,38.20988 3.65964,38.24996 3.70993,38.29 C3.79803308,38.3872214 3.86903682,38.4986601 3.91993,38.61959 C4.02669982,38.8617606 4.02669982,39.1376694 3.91993,39.37984 L3.92,39.37992 Z M3.92,35.37992 C3.87145256,35.5022107 3.80019864,35.6142082 3.71,35.71 C3.51818687,35.8924566 3.26470103,35.9959931 3,36 C2.93286971,35.998201 2.86595949,35.9915167 2.7998,35.98 C2.73713042,35.9688819 2.67642653,35.9486473 2.61962,35.91994 C2.36871086,35.8285117 2.17104825,35.6308491 2.07962,35.37994 C2.02849233,35.2597177 2.00144171,35.1306344 2,35 C2.00368941,34.7352342 2.10727134,34.4816371 2.29,34.29 C2.3398,34.25 2.38961,34.20992 2.44967,34.16988 C2.50072159,34.1302652 2.55819678,34.0997112 2.61959,34.07955 C2.6763359,34.0507802 2.73708491,34.0307058 2.7998,34.02 C2.99465583,33.9791628 3.19739095,33.9999822 3.37988,34.07957 C3.50108764,34.1304266 3.61272954,34.201591 3.71,34.29 C3.89253559,34.481762 3.99608525,34.7352802 4,35 C3.99839119,35.1306435 3.97118475,35.2597042 3.91992,35.37988 L3.92,35.37992 Z M3.71,31.71 C3.66248512,31.7528555 3.61242748,31.7928048 3.5601,31.82963 C3.50432178,31.8676145 3.44372787,31.8979921 3.37992,31.91996 C3.32311347,31.9486673 3.26240958,31.9689019 3.19974,31.98002 C3.13373153,31.991507 3.06697592,31.9981846 3,32 C2.93290244,31.9976985 2.86602681,31.9910177 2.7998,31.98 C2.73713042,31.9688819 2.67642653,31.9486473 2.61962,31.91994 C2.55601148,31.8978634 2.49559352,31.8674913 2.43993,31.82961 C2.38741053,31.793036 2.33732795,31.7530815 2.29,31.71 C2.1073507,31.5183115 2.00378205,31.2647469 2,31 C2.00138901,30.869224 2.02843002,30.7399918 2.07959,30.61963 C2.13044909,30.4985758 2.2016087,30.3870966 2.29,30.29 C2.52925326,30.0539818 2.87039653,29.9527268 3.19967,30.02 C3.26237584,30.0307152 3.32311456,30.0507963 3.37985,30.07957 C3.44365787,30.1015379 3.50425178,30.1319155 3.56003,30.1699 C3.60983,30.2099 3.65964,30.24998 3.70993,30.29002 C3.79803308,30.3872414 3.86903682,30.4986801 3.91993,30.61961 C3.97124488,30.7399485 3.99844876,30.8691865 4,31 C3.99599307,31.264701 3.89245661,31.5181869 3.71,31.71 Z M3.71,27.71 C3.66248512,27.7528555 3.61242748,27.7928048 3.5601,27.82963 C3.50432178,27.8676145 3.44372787,27.8979921 3.37992,27.91996 C3.32311347,27.9486673 3.26240958,27.9689019 3.19974,27.98002 C3.13373153,27.991507 3.06697592,27.9981846 3,28 C2.59565302,27.9984049 2.23171874,27.7544153 2.07666479,27.3809754 C1.92161083,27.0075356 2.00569729,26.5775256 2.29,26.29 C2.38708149,26.2015983 2.49854708,26.1304252 2.61959,26.07955 C2.99270688,25.9280095 3.42007582,26.010492 3.71,26.29 C4.09672008,26.6843133 4.09672008,27.3156067 3.71,27.70992 L3.71,27.71 Z M3.71,23.71 C3.42390954,23.9984599 2.99173321,24.0851619 2.61651849,23.929371 C2.24130378,23.77358 1.99763738,23.4062651 2,23 C2.00155636,22.9328546 2.0082425,22.8659263 2.02,22.7998 C2.03071506,22.7370941 2.05079613,22.6763554 2.07957,22.61962 C2.09973117,22.5582268 2.13028516,22.5007516 2.1699,22.4497 C2.20407801,22.3923054 2.24434399,22.3387627 2.29,22.29 C2.69094624,21.9198721 3.30897376,21.9198721 3.70992,22.29 C3.75542473,22.3387646 3.79553364,22.3922979 3.82955,22.44967 C3.86916484,22.5007216 3.89971883,22.5581968 3.91988,22.61959 C3.94858726,22.6763965 3.96882189,22.7371004 3.97994,22.79977 C3.99147824,22.8659379 3.99818263,22.9328582 4,23 C3.99599307,23.264701 3.89245661,23.5181869 3.71,23.71 L3.71,23.71 Z M3.92,19.37992 C3.8691153,19.501002 3.79811353,19.6126033 3.71,19.71 C3.31568674,20.0967201 2.68439326,20.0967201 2.29008,19.71 C2.20166776,19.6127431 2.13049668,19.5011149 2.07963,19.37992 C2.02850145,19.2597046 2.00144749,19.1306284 2,19 C2,18.4477153 2.44771525,18 3,18 C3.55228475,18 4,18.4477153 4,19 C3.99839119,19.1306435 3.97118475,19.2597042 3.91992,19.37988 L3.92,19.37992 Z M3.71,15.71 C3.65971,15.75 3.6099,15.79008 3.54984,15.82963 C3.4989134,15.8694376 3.44140313,15.9000103 3.37992,15.91996 C3.32311347,15.9486673 3.26240958,15.9689019 3.19974,15.98002 C3.13373153,15.991507 3.06697592,15.9981846 3,16 C2.73528015,15.9960852 2.48176204,15.8925356 2.29,15.71 C2.10569293,15.519389 2.00184398,15.2651381 2,15 C2,14.4477153 2.44771525,14 3,14 C3.55228475,14 4,14.4477153 4,15 C3.99793053,15.265093 3.89411446,15.5192634 3.71,15.71 Z M3.71,11.71 C3.37066847,12.0560333 2.83389996,12.1135469 2.42895974,11.8472606 C2.02401952,11.5809744 1.86414242,11.065351 2.04740047,10.6166847 C2.23065852,10.1680184 2.70580665,9.91177147 3.18137882,10.0051312 C3.656951,10.0984909 3.99996136,10.5153507 4,11 C3.99599307,11.264701 3.89245661,11.5181869 3.71,11.71 Z M3.71,7.71 C3.31787782,8.10212215 2.68212219,8.10212213 2.29000003,7.70999997 C1.89787787,7.31787781 1.89787785,6.68212218 2.29,6.29 C2.68212218,5.89787785 3.31787781,5.89787787 3.70999997,6.29000003 C4.10212213,6.68212219 4.10212215,7.31787782 3.71,7.71 L3.71,7.71 Z M3.71,3.71 C3.42390954,3.99845995 2.99173321,4.08516186 2.61651849,3.92937095 C2.24130378,3.77358004 1.99763738,3.40626507 2,3 C2.00262491,2.54863325 2.30729671,2.1549779 2.74358184,2.03924494 C3.17986697,1.92351199 3.63959866,2.11439473 3.86560276,2.50511327 C4.09160686,2.89583182 4.0278509,3.38951656 3.71,3.71 L3.71,3.71 Z M6.71,53.71 C6.51818687,53.8924566 6.26470103,53.9959931 6,54 C5.93290244,53.9976985 5.86602681,53.9910177 5.7998,53.98 C5.73713042,53.9688819 5.67642653,53.9486473 5.61962,53.91994 C5.55601148,53.8978634 5.49559352,53.8674913 5.43993,53.82961 C5.38964,53.79006 5.33983,53.75002 5.29003,53.70998 C5.20161776,53.6127231 5.13044668,53.5010949 5.07958,53.3799 C5.02847117,53.2596874 5.00143428,53.1306183 5,53 C5.00368941,52.7352342 5.10727134,52.4816371 5.29,52.29 C5.57969196,52.0104913 6.00690887,51.9279949 6.37984,52.07955 C6.50227429,52.1280674 6.61433013,52.1994938 6.71,52.29 C7.09672008,52.6843133 7.09672008,53.3156067 6.71,53.70992 L6.71,53.71 Z M6.71,49.71 C6.51818687,49.8924566 6.26470103,49.9959931 6,50 C5.86868818,50.003464 5.73839876,49.9760339 5.61963,49.91992 C5.4987001,49.8690268 5.38726142,49.7980231 5.29004,49.70992 C5.10739473,49.5182579 5.00381293,49.2647246 5,49 C5.00138901,48.869224 5.02843002,48.7399918 5.07959,48.61963 C5.17141568,48.3689744 5.36893439,48.1714557 5.61959,48.07963 C5.86109901,47.9697646 6.13833099,47.9697646 6.37984,48.07963 C6.63074914,48.1710583 6.82841175,48.3687209 6.91984,48.61963 C6.97118322,48.739956 6.99841768,48.8691872 7,49 C6.99599307,49.264701 6.89245661,49.5181869 6.71,49.71 L6.71,49.71 Z M6.92,45.37992 C6.87145256,45.5022107 6.80019864,45.6142082 6.71,45.71 C6.65971,45.75 6.6099,45.79008 6.5601,45.82963 C6.50432178,45.8676145 6.44372787,45.8979921 6.37992,45.91996 C6.32311347,45.9486673 6.26240958,45.9689019 6.19974,45.98002 C6.06777626,46.0067126 5.93180374,46.0067126 5.79984,45.98002 C5.73717042,45.9689019 5.67646653,45.9486673 5.61966,45.91996 C5.55605148,45.8978834 5.49563352,45.8675113 5.43997,45.82963 C5.38968,45.79008 5.33987,45.75004 5.29007,45.71 C5.19957237,45.6143539 5.12814638,45.5023259 5.07962,45.37992 C4.97350109,45.1376127 4.97350109,44.8619773 5.07962,44.61967 C5.13046598,44.4986038 5.20161554,44.3871109 5.29,44.29 C5.3398,44.25 5.38961,44.20992 5.4399,44.16988 C5.49556352,44.1319987 5.55598148,44.1016266 5.61959,44.07955 C5.6763359,44.0507802 5.73708491,44.0307058 5.7998,44.02 C5.93234836,43.9999807 6.06715164,43.9999807 6.1997,44.02 C6.26240584,44.0307152 6.32314456,44.0507963 6.37988,44.07957 C6.44368787,44.1015379 6.50428178,44.1319155 6.56006,44.1699 C6.60986,44.2099 6.65967,44.24998 6.70996,44.29002 C6.79806308,44.3872414 6.86906682,44.4986801 6.91996,44.61961 C7.02672982,44.8617806 7.02672982,45.1376894 6.91996,45.37986 L6.92,45.37992 Z M6.92,41.37992 C6.87145256,41.5022107 6.80019864,41.6142082 6.71,41.71 C6.51818687,41.8924566 6.26470103,41.9959931 6,42 C5.86919259,41.998443 5.73996161,41.9712358 5.61963,41.91992 C5.4987001,41.8690268 5.38726142,41.7980231 5.29004,41.70992 C5.19954237,41.6142739 5.12811638,41.5022459 5.07959,41.37984 C5.02848541,41.2596467 5.00144527,41.1305987 5,41 C5.00155636,40.9328546 5.0082425,40.8659263 5.02,40.7998 C5.03071506,40.7370941 5.05079613,40.6763554 5.07957,40.61962 C5.10164663,40.5560115 5.13201868,40.4955935 5.1699,40.43993 C5.20664724,40.3874075 5.24676491,40.3373255 5.29,40.29 C5.38708149,40.2015983 5.49854708,40.1304252 5.61959,40.07955 C5.86109901,39.9696846 6.13833099,39.9696846 6.37984,40.07955 C6.50106321,40.1304087 6.612719,40.2015801 6.71,40.29 C6.75308734,40.3373177 6.79304851,40.3873902 6.82963,40.4399 C6.86751132,40.4955635 6.89788337,40.5559815 6.91996,40.61959 C6.94866726,40.6763965 6.96890189,40.7371004 6.98002,40.79977 C6.99153141,40.8659399 6.99820907,40.9328602 7,41 C7.00341088,41.1311494 6.97598152,41.2612676 6.91992,41.37988 L6.92,41.37992 Z M6.71,37.71 C6.65971,37.75 6.6099,37.79008 6.5601,37.82963 C6.50432178,37.8676145 6.44372787,37.8979921 6.37992,37.91996 C6.32311347,37.9486673 6.26240958,37.9689019 6.19974,37.98002 C6.13373153,37.991507 6.06697592,37.9981846 6,38 C5.86919259,37.998443 5.73996161,37.9712358 5.61963,37.91992 C5.4987001,37.8690268 5.38726142,37.7980231 5.29004,37.70992 C4.90331992,37.3156067 4.90331992,36.6843133 5.29004,36.29 C5.38712149,36.2015983 5.49858708,36.1304252 5.61963,36.07955 C5.80212535,35.9999862 6.00485288,35.9791675 6.19971,36.01998 C6.26241584,36.0306952 6.32315456,36.0507763 6.37989,36.07955 C6.44369787,36.1015179 6.50429178,36.1318955 6.56007,36.16988 C6.60987,36.20988 6.65968,36.24996 6.70997,36.29 C7.09669008,36.6843133 7.09669008,37.3156067 6.70997,37.70992 L6.71,37.71 Z M6.98,33.19975 C6.96888189,33.2624196 6.94864726,33.3231235 6.91994,33.37993 C6.89797215,33.4437379 6.86759448,33.5043318 6.82961,33.56011 C6.79279094,33.6124335 6.75284836,33.6624878 6.71,33.71 C6.51818687,33.8924566 6.26470103,33.9959931 6,34 C5.86919259,33.998443 5.73996161,33.9712358 5.61963,33.91992 C5.49742869,33.8714835 5.38557198,33.8002134 5.29004,33.70992 C5.24703106,33.6624066 5.20691864,33.6123496 5.16992,33.56002 C5.13193552,33.5042418 5.10155785,33.4436479 5.07959,33.37984 C5.05081627,33.3231046 5.03073521,33.2623658 5.02002,33.19966 C5.00828274,33.1337121 5.00159001,33.0669654 5,33 C5.00138901,32.869224 5.02843002,32.7399918 5.07959,32.61963 C5.13044909,32.4985758 5.2016087,32.3870966 5.29,32.29 C5.38538602,32.1994078 5.49727331,32.1279655 5.61959,32.07955 C5.99217879,31.9227825 6.42251116,32.005837 6.71,32.29 C6.89253559,32.481762 6.99608525,32.7352802 7,33 C6.99817652,33.0669664 6.99149228,33.1337119 6.98,33.19971 L6.98,33.19975 Z M6.71,29.71 C6.51818687,29.8924566 6.26470103,29.9959931 6,30 C5.86919259,29.998443 5.73996161,29.9712358 5.61963,29.91992 C5.4987001,29.8690268 5.38726142,29.7980231 5.29004,29.70992 C5.10573733,29.5193353 5.00187525,29.265116 5,29 C5.00368941,28.7352342 5.10727134,28.4816371 5.29,28.29 C5.38708149,28.2015983 5.49854708,28.1304252 5.61959,28.07955 C5.99268253,27.9277611 6.42019086,28.0102705 6.71,28.29 C6.89253559,28.481762 6.99608525,28.7352802 7,29 C6.99793053,29.265093 6.89411446,29.5192634 6.71,29.71 Z M6.92,25.37992 C6.8691153,25.501002 6.79811353,25.6126033 6.71,25.71 C6.31568674,26.0967201 5.68439326,26.0967201 5.29008,25.71 C5.20166776,25.6127431 5.13049668,25.5011149 5.07963,25.37992 C4.97351109,25.1376127 4.97351109,24.8619773 5.07963,24.61967 C5.13047295,24.4986045 5.2016191,24.3871117 5.29,24.29 C5.69094624,23.9198721 6.30897376,23.9198721 6.70992,24.29 C6.79802308,24.3872214 6.86902682,24.4986601 6.91992,24.61959 C7.02668982,24.8617606 7.02668982,25.1376694 6.91992,25.37984 L6.92,25.37992 Z M6.71,21.71 C6.42390954,21.9984599 5.99173321,22.0851619 5.61651849,21.929371 C5.24130378,21.77358 4.99763738,21.4062651 5,21 C5.00138901,20.869224 5.02843002,20.7399918 5.07959,20.61963 C5.13044909,20.4985758 5.2016087,20.3870966 5.29,20.29 C5.69094624,19.9198721 6.30897376,19.9198721 6.70992,20.29 C6.79802308,20.3872214 6.86902682,20.4986601 6.91992,20.61959 C6.97124087,20.739934 6.99844821,20.8691791 7,21 C6.99599307,21.264701 6.89245661,21.5181869 6.71,21.71 Z M6.92,17.37992 C6.8691153,17.501002 6.79811353,17.6126033 6.71,17.71 C6.51818687,17.8924566 6.26470103,17.9959931 6,18 C5.86868818,18.003464 5.73839876,17.9760339 5.61963,17.91992 C5.36872086,17.8284917 5.17105825,17.6308291 5.07963,17.37992 C5.02850145,17.2597046 5.00144749,17.1306284 5,17 C5.00368941,16.7352342 5.10727134,16.4816371 5.29,16.29 C5.38708149,16.2015983 5.49854708,16.1304252 5.61959,16.07955 C5.99217879,15.9227825 6.42251116,16.005837 6.71,16.29 C6.89253559,16.481762 6.99608525,16.7352802 7,17 C6.99839119,17.1306435 6.97118475,17.2597042 6.91992,17.37988 L6.92,17.37992 Z M6.71,13.71 C6.37066847,14.0560333 5.83389996,14.1135469 5.42895974,13.8472606 C5.02401952,13.5809744 4.86414242,13.065351 5.04740047,12.6166847 C5.23065852,12.1680184 5.70580665,11.9117715 6.18137882,12.0051312 C6.656951,12.0984909 6.99996136,12.5153507 7,13 C6.99599307,13.264701 6.89245661,13.5181869 6.71,13.71 L6.71,13.71 Z M6.71,9.71 C6.31787783,10.1021222 5.68212218,10.1021222 5.29000001,9.70999999 C4.89787784,9.31787782 4.89787784,8.68212217 5.29,8.29 C5.68212217,7.89787784 6.31787782,7.89787784 6.70999999,8.29000001 C7.10212216,8.68212218 7.10212216,9.31787783 6.71,9.71 Z M6.71,5.71 C6.31787783,6.10212216 5.68212218,6.10212216 5.29000001,5.70999999 C4.89787784,5.31787782 4.89787784,4.68212217 5.29,4.29 C5.57609046,4.00154005 6.00826679,3.91483814 6.38348151,4.07062905 C6.75869622,4.22641996 7.00236262,4.59373493 7,5 C6.99599307,5.26470103 6.89245661,5.51818687 6.71,5.71 L6.71,5.71 Z M10.273,7.7476 C12.8964571,3.20705781 18.7036344,1.65232967 23.2447906,4.27472379 C27.7859468,6.89711792 29.3420343,12.7039312 26.7207033,17.2457011 C24.0993722,21.787471 18.2929234,23.3449178 13.75054,20.72465 C11.5559633,19.4766712 9.95280577,17.4015383 9.29932231,14.9629778 C8.64583885,12.5244173 8.99650212,9.92570114 10.27295,7.74756 L10.273,7.7476 Z M22,29 C22,29.5522847 21.5522847,30 21,30 L11,30 C10.4477153,30 10,29.5522847 10,29 C10,28.4477153 10.4477153,28 11,28 L21,28 C21.5522847,28 22,28.4477153 22,29 Z M21,50 L11,50 C10.4477153,50 10,49.5522847 10,49 C10,48.4477153 10.4477153,48 11,48 L21,48 C21.5522847,48 22,48.4477153 22,49 C22,49.5522847 21.5522847,50 21,50 Z M32,42 L11,42 C10.4477153,42 10,41.5522847 10,41 C10,40.4477153 10.4477153,40 11,40 L32,40 C32.5522847,40 33,40.4477153 33,41 C33,41.5522847 32.5522847,42 32,42 Z M39,38 L11,38 C10.4477153,38 10,37.5522847 10,37 C10,36.4477153 10.4477153,36 11,36 L39,36 C39.5522847,36 40,36.4477153 40,37 C40,37.5522847 39.5522847,38 39,38 Z M39,34 L11,34 C10.4477153,34 10,33.5522847 10,33 C10,32.4477153 10.4477153,32 11,32 L39,32 C39.5522847,32 40,32.4477153 40,33 C40,33.5522847 39.5522847,34 39,34 Z"/><path d="M33,10 L40.58594,10 L32,1.41406 L32,9 C32.0007162,9.55198782 32.4480122,9.99928381 33,10 Z"/></g></g></svg>