<svg xmlns="http://www.w3.org/2000/svg" xmlns:xlink="http://www.w3.org/1999/xlink" version="1.1" x="0px" y="0px" viewBox="0 0 100 100" style="enable-background:new 0 0 100 100;" xml:space="preserve"><g><circle fill="#F1D049" cx="34.9" cy="26" r="8.1"/><path fill="#F1D049" d="M35.9,63.4c0.2,0.9,0.3,1.8,0.3,2.8v0.1c0.4-0.7,0.9-1.4,1.5-2.1c1.9-2.2,4.3-3.9,7-4.9c-3.1-1.8-5.2-5.2-5.2-9.1   c0-4,2.2-7.4,5.5-9.2c-2.5-2.7-6.1-4.4-10-4.4c-1.9,0-3.6,0.4-5.2,1c0.5,1.3,0.8,2.6,0.8,4.1c0,3.9-2.1,7.2-5.2,9.1   C30.8,52.8,34.9,57.5,35.9,63.4z"/><circle fill="#F1D049" cx="65.1" cy="26" r="8.1"/><path fill="#F1D049" d="M74.7,50.8c-3.1-1.8-5.2-5.2-5.2-9.1c0-1.4,0.3-2.8,0.8-4.1c-1.6-0.7-3.4-1-5.2-1c-3.9,0-7.5,1.7-10,4.3   c3.3,1.8,5.6,5.3,5.6,9.3c0,3.9-2.1,7.2-5.2,9.1c2.6,0.9,4.9,2.5,6.7,4.5c0.6,0.7,1.1,1.4,1.6,2.2c0-1.1,0.1-2.1,0.3-3.1   C65.3,57.3,69.3,52.7,74.7,50.8z"/><circle fill="#F1D049" cx="50.1" cy="50.3" r="8.1"/><path fill="#F1D049" d="M63.8,74.7c0-7.6-6.2-13.7-13.7-13.7s-13.7,6.2-13.7,13.7V79c3.2,2,8.3,3.1,13.7,3.1s10.5-1.2,13.7-3.1V74.7z"/><circle fill="#F1D049" cx="19.9" cy="41.8" r="8.1"/><path fill="#F1D049" d="M33.7,70.4v-4.3c0-7.6-6.2-13.7-13.7-13.7S6.2,58.6,6.2,66.2v4.3c3.2,2,8.3,3.1,13.7,3.1C25.4,73.5,30.4,72.4,33.7,70.4z"/><circle fill="#F1D049" cx="80.1" cy="41.8" r="8.1"/><path fill="#F1D049" d="M80.1,52.4c-7.6,0-13.7,6.2-13.7,13.7v4.3c3.2,2,8.3,3.1,13.7,3.1c5.4,0,10.5-1.2,13.7-3.1v-4.3   C93.8,58.6,87.6,52.4,80.1,52.4z"/></g></svg>
