<svg xmlns="http://www.w3.org/2000/svg" xmlns:xlink="http://www.w3.org/1999/xlink" version="1.1" x="0px" y="0px" viewBox="0 0 100 100" enable-background="new 0 0 100 100" xml:space="preserve"><path fill="#F1D049" d="M98.3,39.1v31.5c0,5-3.6,9.2-8.3,10.2v9.3c0,2.2-1.8,3.9-3.9,3.9c-1,0-2-0.4-2.8-1.1L71.5,81.1H35.8  c-5.6,0-10.1-4.4-10.4-9.8l6-6h1.2v5.4c0,1.7,1.4,3.2,3.2,3.2h38.7l8.2,8.2v-8.2h5.2c1.7,0,3.2-1.4,3.2-3.2V39.1  c0-1.7-1.4-3.2-3.2-3.2h-6.3v-7.3h6.3C93.6,28.7,98.3,33.4,98.3,39.1z M1.7,47.9V16.4c0-5.8,4.7-10.4,10.4-10.4h52  c5.8,0,10.4,4.7,10.4,10.4v31.5c0,5.8-4.7,10.4-10.4,10.4H28.5L16.7,70.2C16,70.9,15,71.3,14,71.3c-1,0-1.9-0.4-2.7-1.1  c-0.8-0.7-1.2-1.8-1.2-2.9v-9.3C5.3,57.1,1.7,52.9,1.7,47.9z M41,44.1c0-0.9-0.7-1.6-1.6-1.6h-4.2c-0.9,0-1.6,0.7-1.6,1.6v2.7  c0,0.9,0.7,1.6,1.6,1.6h4.2c0.9,0,1.6-0.7,1.6-1.6V44.1z M27.2,23.9c0,0.6,0.4,1.1,1,1.1l4.7,0.1c0.8,0,1.5-0.5,1.7-1.2  c0.2-0.6,0.5-1.1,0.9-1.5c0.7-0.6,1.5-0.9,2.5-0.9c1.2,0,2.2,0.4,2.8,1.1c0.7,0.7,1,1.7,1,3c0,1.2-0.3,2.2-0.9,3.2  c-0.6,0.9-1.3,1.7-2.3,2.3c-1.9,1.3-3.2,2.5-4,3.6c-0.6,0.8-0.9,1.9-1,3.4c-0.1,0.7,0.5,1.2,1.2,1.2h5.1c0.6,0,1.1-0.4,1.2-1  c0.1-0.8,0.2-1.4,0.5-1.9c0.3-0.7,1-1.4,1.9-2c1.7-0.9,3.1-2.1,4.2-3.6c1.1-1.5,1.6-3.2,1.6-5.1c0-3-1-5.4-3-7.2  c-2-1.8-4.8-2.7-8.3-2.7c-3.3,0-5.9,0.8-7.9,2.3C28.3,19.4,27.4,21.4,27.2,23.9z"/></svg>