<svg height='100px' width='100px'  fill="#ff8360" xmlns="http://www.w3.org/2000/svg" xmlns:xlink="http://www.w3.org/1999/xlink" version="1.1" x="0px" y="0px" viewBox="0 0 100 100" enable-background="new 0 0 100 100" xml:space="preserve"><polygon points="66.667,11.111 55.556,11.111 55.556,0 44.444,0 44.444,11.111 33.333,11.111 33.333,22.222 44.444,22.222   44.444,33.333 55.556,33.333 55.556,22.222 66.667,22.222 "></polygon><path d="M99.718,74.429l-6.944-23.61c-1.082-3.68-4.945-5.788-8.622-4.703c-3.679,1.083-5.785,4.942-4.702,8.622l4.325,14.707  H70.833H62.5h-25h-8.333H16.76l5.066-14.355c1.276-3.616-0.621-7.583-4.237-8.859c-3.617-1.278-7.584,0.62-8.859,4.237L0.396,74.078  c-0.75,2.125-0.422,4.482,0.879,6.321c1.302,1.841,3.416,2.934,5.669,2.934h22.222V100h41.667V83.333h22.223  c2.189,0,4.249-1.032,5.56-2.784C99.927,78.797,100.335,76.528,99.718,74.429z"></path><path d="M50,37.5c-7.671,0-13.889,6.217-13.889,13.889c0,7.672,6.217,13.889,13.889,13.889c7.672,0,13.889-6.217,13.889-13.889  C63.889,43.717,57.672,37.5,50,37.5z M57.642,49.458C57.271,49.791,56.787,50,56.25,50c-1.15,0-2.083-0.933-2.083-2.083  c0-0.719,0.366-1.354,0.921-1.729c0.332-0.224,0.732-0.354,1.162-0.354c1.15,0,2.083,0.933,2.083,2.083  C58.333,48.53,58.063,49.076,57.642,49.458z M45.833,47.917c0,1.15-0.933,2.083-2.083,2.083c-0.537,0-1.022-0.209-1.392-0.543  c-0.422-0.381-0.692-0.927-0.692-1.541c0-1.15,0.934-2.083,2.083-2.083c0.431,0,0.83,0.131,1.163,0.354  C45.468,46.562,45.833,47.197,45.833,47.917z M50,61.111c-3.627,0-6.704-2.321-7.849-5.556H57.85  C56.703,58.79,53.627,61.111,50,61.111z"></path></svg>