<svg xmlns="http://www.w3.org/2000/svg" data-name="Layer 1" viewBox="0 0 100 100" x="0px" y="0px"><title>Artboard 58</title><path fill="#DF5A49" d="M51.7,98.71C92.07,84.72,91.44,51.85,91,27.84c0-2.46-.09-4.86-.09-7.16V18.28a2.79,2.79,0,0,0-2.79-2.79H85.69c-13.6,0-23.49-3.72-32.07-12.07L51.94,1.79a2.79,2.79,0,0,0-3.89,0L46.38,3.42C37.79,11.77,27.9,15.49,14.31,15.49H11.9a2.79,2.79,0,0,0-2.79,2.79v2.41c0,2.3,0,4.69-.09,7.16-.46,24-1.09,56.88,39.28,70.87h0A5.19,5.19,0,0,0,51.7,98.71Zm-8.81-37a1.58,1.58,0,0,1-.92-2l3.71-10.43a7,7,0,1,1,8.65,0L58,59.74a1.58,1.58,0,0,1-.92,2A19.57,19.57,0,0,1,42.89,61.74Z"/></svg>