<svg width="24" height="24" viewBox="0 0 24 24" fill="none" xmlns="http://www.w3.org/2000/svg" preserveAspectRatio="xMinYMid meet"><path d="M13.949 14.713c-.319-.505-.745-.93-1.328-1.328a7.248 7.248 0 0 0-3.162-1.09 3.215 3.215 0 0 0 2.232-3.081C11.584 7.009 9.911 6 8.397 6S5.183 7.009 5.103 9.214c0 1.435.983 2.683 2.284 3.081a7.25 7.25 0 0 0-3.081 1.09c-1.168.77-1.806 1.858-1.806 3.081v1.009c0 .266.107.504.239.691h11.183l.027-3.453zM7.334 9.214c.027-.558.531-.983 1.09-.983h.026c.548.022.999.439 1.063.983-.054.717-.585 1.036-1.089 1.036-.478 0-1.063-.265-1.09-1.036z" fill="none"/><path d="M19.525 3.698l-.007 16.467-14.616-.006.004-16.125 14.711-.002m1.005-1.096H3.832V21.23H20.62l.002-18.294z" fill="#212529"/><path d="M6.965 5.885h10.56v10.213H6.965V5.885z" fill="none" stroke="#212529" stroke-width="1.299"/><path d="M15.288 12.892c.151.277.356.573.65.874v.633h-3.341a3.68 3.68 0 0 0 .513-.521l.015-.018.015-.021c.408-.548.532-.549.808-.549.429 0 .861-.043 1.34-.398m-5.547.643c.19.383.398.662.606.862H8.83c.225-.331.424-.486.863-.824a.721.721 0 0 0 .048-.038m5.84-2.475c-1.444 2.252-1.722.172-3.152 2.094-.371.452-.701.649-.991.649-.578 0-.999-.786-1.28-1.904-1.591 1.349-1.737 1.142-2.536 2.654v.906h9.247v-2.198c-.996-.82-.955-1.48-1.288-2.201z" fill="#212529" stroke="#212529" stroke-dasharray="0 10.544" stroke-dashoffset="9.585" stroke-miterlimit="20" stroke-width=".959"/></svg>