<svg xmlns="http://www.w3.org/2000/svg" width="36" height="32" viewBox="0 0 36 32" version="1.1"><path d="" stroke="none" fill="#080404" fill-rule="evenodd"/><path d="M 8.500 1.881 C -0.060 5.812, -2.535 14.701, 3.250 20.739 C 6.566 24.200, 6.609 24.723, 3.826 27.686 C 0.810 30.896, 4.193 30.928, 11.108 27.756 C 16.753 25.166, 18.252 21.325, 13.250 22.269 C 10.268 22.832, 4 16.629, 4 13.114 C 4 3.610, 22.181 0.996, 26.905 9.822 C 28.686 13.151, 32.325 13.434, 31.513 10.180 C 29.469 1.988, 17.593 -2.295, 8.500 1.881 M 22.500 15.208 C 14.394 19.857, 18.080 30, 27.875 30 C 29.529 30, 31.160 30.450, 31.500 31 C 31.840 31.550, 32.995 32, 34.067 32 C 35.767 32, 35.857 31.743, 34.768 30 C 33.773 28.407, 33.771 27.596, 34.759 26.014 C 39.026 19.181, 29.781 11.032, 22.500 15.208" stroke="none" fill="#040404" fill-rule="evenodd"/></svg>