<?xml version="1.0" standalone="no"?><!DOCTYPE svg PUBLIC "-//W3C//DTD SVG 1.1//EN" "http://www.w3.org/Graphics/SVG/1.1/DTD/svg11.dtd">
<svg width="100%" height="100%" viewBox="0 0 512 512" version="1.1" xmlns="http://www.w3.org/2000/svg" xmlns:xlink="http://www.w3.org/1999/xlink" xml:space="preserve" style="fill-rule:evenodd;clip-rule:evenodd;stroke-linecap:round;stroke-linejoin:round;stroke-miterlimit:1.41421;">
    <title>Add</title>
    <desc>Add icon. Green circle with a plus sign in the middle of it.</desc>
    <circle cx="256" cy="256" r="256" style="fill:#000;"/>
    <rect x="89.095" y="87.5" width="333.811" height="337" style="fill:#fff;"/>
    <path d="M256,15c133.012,0 241,107.988 241,241c0,133.012 -107.988,241 -241,241c-133.012,0 -241,-107.988 -241,-241c0,-133.012 107.988,-241 241,-241ZM296.617,296.735c-0.065,31.468 -0.135,62.936 -0.135,94.403c-0.005,0.912 -0.048,1.823 -0.14,2.731c-0.207,2.033 -0.643,4.043 -1.298,5.979c-1.167,3.443 -3.028,6.642 -5.441,9.361c-1.518,1.711 -3.252,3.231 -5.147,4.512c-1.831,1.237 -3.812,2.251 -5.886,3.011c-2.022,0.741 -4.13,1.24 -6.269,1.485c-0.574,0.065 -1.149,0.113 -1.726,0.142c-0.348,0.018 -0.696,0.027 -1.044,0.033c-8.918,0.057 -17.836,0.002 -26.754,0.002c-0.912,-0.006 -1.823,-0.048 -2.731,-0.14c-2.033,-0.207 -4.043,-0.643 -5.979,-1.299c-3.753,-1.271 -7.214,-3.369 -10.081,-6.103c-3.021,-2.881 -5.366,-6.451 -6.802,-10.37c-0.741,-2.022 -1.24,-4.131 -1.485,-6.269c-0.066,-0.574 -0.113,-1.149 -0.143,-1.726c-0.017,-0.348 -0.026,-0.696 -0.033,-1.044c-0.202,-31.608 -0.263,-63.217 -0.257,-94.826c-31.467,-0.066 -62.935,-0.137 -94.403,-0.137c-0.912,-0.005 -1.823,-0.048 -2.731,-0.14c-2.033,-0.207 -4.043,-0.643 -5.979,-1.299c-3.753,-1.271 -7.213,-3.368 -10.081,-6.103c-3.021,-2.88 -5.366,-6.45 -6.802,-10.37c-0.741,-2.022 -1.24,-4.131 -1.485,-6.27c-0.066,-0.573 -0.113,-1.149 -0.143,-1.725c-0.017,-0.348 -0.026,-0.696 -0.033,-1.044c-0.056,-8.918 -0.002,-17.836 -0.002,-26.753c0.006,-0.913 0.048,-1.823 0.141,-2.731c0.206,-2.034 0.643,-4.044 1.298,-5.98c1.307,-3.857 3.485,-7.402 6.33,-10.315c2.84,-2.909 6.326,-5.169 10.144,-6.568c1.913,-0.702 3.906,-1.187 5.928,-1.444c0.686,-0.087 1.376,-0.148 2.066,-0.183c0.348,-0.018 0.696,-0.027 1.045,-0.034c31.608,-0.2 63.216,-0.26 94.825,-0.253c0.067,-31.468 0.137,-62.936 0.137,-94.404c0.006,-0.912 0.048,-1.822 0.141,-2.73c0.207,-2.034 0.643,-4.043 1.298,-5.98c1.272,-3.753 3.369,-7.213 6.103,-10.08c2.881,-3.021 6.451,-5.366 10.371,-6.803c2.021,-0.741 4.131,-1.24 6.27,-1.485c0.573,-0.065 1.148,-0.113 1.725,-0.142c0.348,-0.018 0.696,-0.026 1.044,-0.033c8.917,-0.057 17.835,-0.002 26.753,-0.002c0.912,0.006 1.823,0.048 2.731,0.14c2.033,0.207 4.043,0.643 5.98,1.299c3.856,1.306 7.402,3.485 10.315,6.329c2.909,2.84 5.169,6.327 6.568,10.144c0.701,1.914 1.186,3.906 1.444,5.929c0.087,0.686 0.148,1.375 0.183,2.066c0.018,0.348 0.027,0.696 0.033,1.044c0.2,31.608 0.26,63.216 0.254,94.824c31.468,0.066 62.935,0.136 94.402,0.136c0.913,0.005 1.823,0.047 2.731,0.14c2.034,0.207 4.043,0.643 5.979,1.298c3.444,1.166 6.642,3.028 9.361,5.441c1.711,1.518 3.231,3.252 4.512,5.147c1.237,1.831 2.251,3.812 3.011,5.886c0.741,2.021 1.24,4.13 1.485,6.269c0.066,0.573 0.113,1.149 0.143,1.725c0.017,0.349 0.026,0.697 0.033,1.045c0.057,8.918 0.002,17.836 0.002,26.754c-0.006,0.912 -0.048,1.823 -0.141,2.731c-0.207,2.033 -0.643,4.043 -1.298,5.979c-1.272,3.753 -3.369,7.213 -6.104,10.081c-2.88,3.021 -6.45,5.366 -10.37,6.802c-2.021,0.741 -4.13,1.24 -6.269,1.485c-0.573,0.066 -1.149,0.113 -1.725,0.142c-0.348,0.018 -0.696,0.027 -1.045,0.034c-31.607,0.202 -63.215,0.263 -94.824,0.256Z" style="fill:green;stroke-width:15;stroke:#000;"/>
</svg>
