<?xml version="1.0" standalone="no"?><!DOCTYPE svg PUBLIC "-//W3C//DTD SVG 1.1//EN" "http://www.w3.org/Graphics/SVG/1.1/DTD/svg11.dtd">
<svg width="100%" height="100%" viewBox="0 0 512 512" version="1.1" xmlns="http://www.w3.org/2000/svg" xmlns:xlink="http://www.w3.org/1999/xlink" xml:space="preserve" style="fill-rule:evenodd;clip-rule:evenodd;">
    <title>Delete</title>
    <desc>Delete icon. Red circle with a minus sign in the middle of it.</desc>
    <circle cx="256" cy="256" r="256" style="fill:#000;stroke-width:1px;stroke:#fff;"/>
    <rect x="90" y="217.5" width="332" height="77" style="fill:#fff;"/>
    <path d="M256,497c1.557,-0.002 3.114,-0.015 4.671,-0.044c2.836,-0.054 5.671,-0.158 8.504,-0.31c8.628,-0.466 17.231,-1.392 25.76,-2.779c10.331,-1.68 20.551,-4.038 30.573,-7.056c9.637,-2.902 19.091,-6.414 28.286,-10.507c12.205,-5.432 23.953,-11.886 35.088,-19.267c10.867,-7.203 21.15,-15.286 30.719,-24.141c9.736,-9.01 18.732,-18.818 26.867,-29.296c8.612,-11.091 16.257,-22.932 22.813,-35.35c5.36,-10.153 9.991,-20.691 13.841,-31.507c3.823,-10.738 6.875,-21.749 9.128,-32.923c3.171,-15.73 4.75,-31.774 4.75,-47.82c0,-10.764 -0.708,-21.528 -2.135,-32.198c-1.622,-12.134 -4.173,-24.144 -7.631,-35.889c-3.533,-12.001 -8.011,-23.723 -13.375,-35.025c-6.136,-12.927 -13.431,-25.302 -21.76,-36.937c-8.427,-11.771 -17.91,-22.784 -28.298,-32.866c-10.913,-10.593 -22.822,-20.158 -35.524,-28.522c-12.385,-8.155 -25.52,-15.165 -39.193,-20.903c-15.041,-6.312 -30.727,-11.079 -46.737,-14.202c-15.003,-2.927 -30.282,-4.408 -45.567,-4.457c-15.304,-0.048 -30.611,1.338 -45.651,4.174c-7.848,1.48 -15.621,3.354 -23.281,5.611c-7.996,2.357 -15.87,5.131 -23.577,8.31c-5.058,2.086 -10.044,4.347 -14.948,6.774c-8.172,4.046 -16.114,8.557 -23.775,13.503c-12.78,8.251 -24.776,17.71 -35.785,28.207c-10.476,9.989 -20.057,20.915 -28.588,32.608c-8.43,11.555 -15.833,23.858 -22.085,36.724c-5.463,11.243 -10.045,22.913 -13.686,34.871c-3.562,11.696 -6.223,23.664 -7.957,35.767c-1.635,11.406 -2.447,22.928 -2.447,34.45c0,15.044 1.387,30.087 4.175,44.871c2.07,10.977 4.909,21.808 8.492,32.387c3.688,10.888 8.162,21.508 13.374,31.753c6.042,11.878 13.073,23.251 20.992,33.969c8.313,11.254 17.603,21.785 27.73,31.44c9.783,9.328 20.346,17.837 31.546,25.406c11.265,7.614 23.174,14.274 35.561,19.879c9.615,4.35 19.517,8.063 29.622,11.106c9.781,2.946 19.751,5.262 29.828,6.934c8.266,1.371 16.604,2.309 24.967,2.813c2.828,0.17 5.659,0.291 8.49,0.363c1.555,0.04 3.109,0.062 4.664,0.074c0.519,0.003 1.039,0.004 1.559,0.005ZM106.619,291.659c99.65,0 199.302,0.769 298.95,-0.002c0.187,-0.004 0.187,-0.004 0.375,-0.011c0.493,-0.027 0.984,-0.076 1.474,-0.16c1.072,-0.183 2.127,-0.513 3.138,-0.982c1.974,-0.916 3.775,-2.362 5.251,-4.204c1.435,-1.792 2.556,-3.952 3.262,-6.304c0.374,-1.242 0.631,-2.534 0.768,-3.846c0.071,-0.675 0.106,-1.352 0.116,-2.032c0.063,-12 0.063,-24.001 0,-36c-0.01,-0.68 -0.045,-1.358 -0.116,-2.033c-0.137,-1.311 -0.394,-2.604 -0.768,-3.845c-0.747,-2.487 -1.956,-4.756 -3.51,-6.606c-1.512,-1.801 -3.343,-3.195 -5.337,-4.052c-1.025,-0.44 -2.09,-0.739 -3.169,-0.889c-0.493,-0.069 -0.988,-0.103 -1.484,-0.115c-99.711,-0.771 -199.427,-0.771 -299.138,0c-0.496,0.012 -0.991,0.046 -1.484,0.115c-1.079,0.15 -2.144,0.449 -3.169,0.889c-1.994,0.857 -3.825,2.251 -5.337,4.052c-1.554,1.85 -2.763,4.119 -3.51,6.606c-0.374,1.241 -0.631,2.534 -0.768,3.845c-0.071,0.675 -0.106,1.353 -0.116,2.033c-0.063,11.999 -0.063,24 0,36c0.01,0.68 0.045,1.357 0.116,2.032c0.137,1.312 0.394,2.604 0.768,3.846c0.706,2.352 1.827,4.512 3.262,6.304c1.476,1.842 3.277,3.288 5.251,4.204c1.011,0.469 2.066,0.799 3.138,0.982c0.49,0.084 0.981,0.133 1.474,0.16c0.188,0.007 0.375,0.011 0.563,0.013Z" style="fill:red;stroke-width:15;stroke:#000;"/>
</svg>
