<svg viewBox="0 0 20 17" fill="none" xmlns="http://www.w3.org/2000/svg" preserveAspectRatio="xMinYMid meet">
<rect width="20" height="16" transform="translate(0 0.0148163)" fill="white"/>
<path fill-rule="evenodd" clip-rule="evenodd" d="M5.56907 8.01482C5.56907 5.51482 7.54996 3.44339 10.0174 3.44339C11.6859 3.44339 13.1582 4.4178 13.9185 5.83659C13.3694 5.9892 12.8526 6.21932 12.3806 6.51442C11.889 5.70166 11.012 5.15767 10.0174 5.15767H9.91312C9.98262 5.37196 10.0174 5.55053 10.0174 5.7291C10.0174 7.01482 9.00956 8.01482 7.79322 8.01482C7.58471 8.01482 7.41095 8.01482 7.23718 7.94339V8.01482C7.23718 9.49173 8.26438 10.667 9.64451 10.8478C9.61985 11.0667 9.60718 11.2893 9.60718 11.5148C9.60718 11.8768 9.63982 12.2312 9.70231 12.5751C7.38348 12.4105 5.56907 10.4416 5.56907 8.01482ZM15.543 4.15767C16.1019 4.68782 16.5839 5.2544 16.9916 5.81235C18.1526 6.11518 19.1742 6.7632 19.9401 7.64022C19.9344 7.6221 19.9283 7.6041 19.9218 7.58625C19.4005 6.30053 18.3232 4.44339 16.6898 2.90767C15.0565 1.33624 12.7976 0.0148163 10.0174 0.0148163C7.20243 0.0148163 4.94353 1.33624 3.31016 2.90767C1.6768 4.44339 0.599479 6.30053 0.0781929 7.58625C-0.0260643 7.87196 -0.0260643 8.19339 0.0781929 8.4791C0.599479 9.7291 1.6768 11.5862 3.31016 13.1577C4.94353 14.7291 7.20243 16.0148 10.0174 16.0148C10.5453 16.0148 11.0545 15.9685 11.5441 15.8826C11.045 15.4302 10.6238 14.8935 10.3029 14.295C10.2085 14.2987 10.1133 14.3005 10.0174 14.3005C7.72372 14.3005 5.88184 13.2648 4.45699 11.9077C3.10165 10.622 2.19809 9.08625 1.71156 8.01482C2.19809 6.94339 3.10165 5.44339 4.45699 4.15767C5.88184 2.80053 7.72372 1.7291 10.0174 1.7291C12.2763 1.7291 14.1182 2.80053 15.543 4.15767ZM15.5 7.01482C13.0039 7.01482 11 9.0363 11 11.5148C11 14.0109 13.0039 16.0148 15.5 16.0148C17.9785 16.0148 20 14.0109 20 11.5148C20 9.0363 17.9785 7.01482 15.5 7.01482ZM17.5215 10.0558C17.7148 10.2492 17.7148 10.548 17.5215 10.7414L15.2715 12.9914C15.0781 13.1847 14.7793 13.1847 14.5859 12.9914L13.4609 11.8664C13.2676 11.673 13.2676 11.3742 13.4609 11.1808C13.6543 10.9875 13.9531 10.9875 14.1465 11.1808L14.9375 11.9543L16.8359 10.0558C17.0293 9.86247 17.3281 9.86247 17.5215 10.0558Z" fill="#212529"/>
</svg>
