<!DOCTYPE svg PUBLIC "-//W3C//DTD SVG 1.1//EN" "http://www.w3.org/Graphics/SVG/1.1/DTD/svg11.dtd" [
	<!ENTITY ns_flows "http://ns.adobe.com/Flows/1.0/">
]><svg xmlns="http://www.w3.org/2000/svg" width="24" height="24" viewBox="0 -2 24 24" preserveAspectRatio="xMinYMid meet" overflow="visible"><linearGradient id="a" gradientUnits="userSpaceOnUse" x1="11.999" x2="11.999" y2="20"><stop offset="0" stop-color="#F0A829"/><stop offset="1" stop-color="#C7671A"/></linearGradient><path fill="url(#a)" d="M1 0h22v20H1z"/><linearGradient id="b" gradientUnits="userSpaceOnUse" x1="11.999" y1="1" x2="11.999" y2="19"><stop offset="0" stop-color="#FFEBA8"/><stop offset="1" stop-color="#F8BE27"/></linearGradient><path fill="url(#b)" d="M2 1h20v18H2z"/><linearGradient id="c" gradientUnits="userSpaceOnUse" x1="11.999" y1="2" x2="11.999" y2="18"><stop offset="0" stop-color="#FFC30F"/><stop offset="1" stop-color="#F5AE0D"/></linearGradient><path fill="url(#c)" d="M3 2h18v16H3z"/><linearGradient id="d" gradientUnits="userSpaceOnUse" x1="11.999" x2="11.999" y2="7"><stop offset="0" stop-color="#F0A829"/><stop offset="1" stop-color="#C7671A"/></linearGradient><path fill="url(#d)" d="M0 0h24v7H0z"/><linearGradient id="e" gradientUnits="userSpaceOnUse" x1="11.999" y1="1" x2="11.999" y2="6"><stop offset="0" stop-color="#FFEBA8"/><stop offset="1" stop-color="#F8BE27"/></linearGradient><path fill="url(#e)" d="M1 1h22v5H1z"/><linearGradient id="f" gradientUnits="userSpaceOnUse" x1="11.999" y1="2" x2="11.999" y2="5"><stop offset="0" stop-color="#FFC30F"/><stop offset="1" stop-color="#F5AE0D"/></linearGradient><path fill="url(#f)" d="M2 2h20v3H2z"/><linearGradient id="g" gradientUnits="userSpaceOnUse" x1="11.499" x2="11.499" y2="13.001"><stop offset="0" stop-color="#8D470D"/><stop offset="1" stop-color="#7C3D09"/></linearGradient><path fill="url(#g)" d="M9 0v13l2.5-2 2.5 2V0"/><linearGradient id="h" gradientUnits="userSpaceOnUse" x1="11.499" y1="1" x2="11.499" y2="10.935"><stop offset="0" stop-color="#D58738"/><stop offset="1" stop-color="#AB551F"/></linearGradient><path fill="url(#h)" d="M10 1v9.9l1.5-1.2 1.5 1.2V1"/><linearGradient id="i" gradientUnits="userSpaceOnUse" x1="11.5" y1="2" x2="11.5" y2="8.871"><stop offset="0" stop-color="#D0813A"/><stop offset="1" stop-color="#AF551D"/></linearGradient><path fill="url(#i)" d="M11 2v6.8l.5-.4.5.5V2"/></svg>