<svg width="24" height="24" viewBox="0 0 24 24" fill="none" xmlns="http://www.w3.org/2000/svg" preserveAspectRatio="xMinYMid meet">
<path fill-rule="evenodd" clip-rule="evenodd" d="M12.2236 3.05511C12.0828 2.98472 11.9172 2.98472 11.7764 3.05511L3.77839 7.05411C3.772 7.05727 3.76567 7.06057 3.7594 7.06401C3.59987 7.15155 3.5 7.31935 3.5 7.50232V16.4977C3.5 16.6871 3.607 16.8602 3.77639 16.9449L11.7744 20.9439C11.7809 20.9472 11.7874 20.9503 11.794 20.9533C11.9301 21.0148 12.088 21.0127 12.2236 20.9449M12.2256 20.9439L20.2236 16.9449C20.393 16.8602 20.5 16.6871 20.5 16.4977V7.50232C20.5 7.33661 20.4181 7.18334 20.2841 7.09087C20.2708 7.08171 20.257 7.07314 20.2428 7.06521C20.2358 7.06132 20.2287 7.05761 20.2215 7.05407L12.2236 3.05511M12.5 19.6887L19.5 16.1887V8.31134L12.5 11.8113V19.6887ZM11.5 19.6887V11.8113L8.5 10.3113V13.0049C8.5 13.2811 8.27614 13.5049 8 13.5049C7.72386 13.5049 7.5 13.2811 7.5 13.0049V9.81134L4.5 8.31134V16.1887L11.5 19.6887ZM5.11803 7.50232L12 4.06134L14.7218 5.42223L7.83982 8.86321L5.11803 7.50232ZM8.95786 9.42223L12 10.9433L18.882 7.50232L15.8398 5.98125L8.95786 9.42223Z" fill="#212529"/>
</svg>
