<?xml version="1.0" encoding="utf-8"?>
<!-- Generator: Adobe Illustrator 25.2.1, SVG Export Plug-In . SVG Version: 6.00 Build 0)  -->
<svg width="24px" height="24px" version="1.1" id="Layer_1" xmlns="http://www.w3.org/2000/svg" xmlns:xlink="http://www.w3.org/1999/xlink" x="0px" y="0px"
	 viewBox="0 0 74.4 74.4" style="enable-background:new 0 0 74.4 74.4;" xml:space="preserve" preserveAspectRatio="xMinYMid meet">
<path d="M74.1,29.6l-13-22.9c-0.5-0.8-1.4-1.5-2.4-1.5h-43c-1,0-1.8,0.5-2.4,1.5L0.4,29.6l0,0c-0.2,0.5-0.3,1-0.3,1.5v35.2
	c0,1.6,1.3,2.9,2.7,2.9l0,0h68.9c1.5,0,2.7-1.3,2.7-2.9V31.1C74.4,30.5,74.3,30,74.1,29.6z M6.9,28.5l10.2-18.3l17.4,0.2v18.3
	L6.9,28.5z M40,28.7V10.5h17.5l9.6,18.3H40V28.7z M69.2,34v30H5.3V34H69.2z"/>
</svg>
