<?xml version="1.0" encoding="utf-8"?>
<svg xmlns="http://www.w3.org/2000/svg" height="48" width="48" viewBox="0 0 48 48">
  <g>
    <ellipse cy="24" cx="24" ry="24" rx="24" fill="#0066CC" />
    <path id="path1" transform="rotate(0,24,24) translate(11.6499993801117,11) scale(0.8125,0.8125)  " fill="#FFFFFF" d="M11.099978,22.800002L11.099978,24.800002 19.199985,24.800002 19.199985,22.800002z M0,21.4L30.400001,21.4 30.400001,32.000001 0,32.000001z M11.000003,9.499997L11.000003,11.499998 19.099979,11.499998 19.099979,9.499997z M0,8.2000015L30.400001,8.2000015 30.400001,19.300002 27.699989,19.300002 26.799993,13.700002 7.5999773,19.200003 0,19.200003z M6.3999956,0L23.399999,0 29.099983,5.0000008 29.099983,6.0999993 1.2999883,6.0999993 1.1999822,5.0000008z" />
  </g>
</svg>