<?xml version="1.0" encoding="utf-8"?>
<svg xmlns="http://www.w3.org/2000/svg" height="48" width="48" viewBox="0 0 48 48">
  <g>
    <ellipse cy="24" cx="24" ry="24" rx="24" fill="#0066CC" />
    <path id="path1" transform="rotate(0,24,24) translate(14.0809998512268,11) scale(0.8125,0.8125)  " fill="#FFFFFF" d="M6.6779938,27.817001L7.1360016,27.817001C7.7749939,27.817001 8.2850037,28.056999 8.2850037,28.642998 8.2850037,29.266998 7.7599945,29.491997 7.1660004,29.491997 6.9559937,29.491997 6.7980042,29.485001 6.6779938,29.470001z M18.132004,25.742996C18.770004,25.742996 19.160995,26.043999 19.160995,26.608002 19.160995,27.200996 18.740005,27.539001 18.048996,27.539001 17.861008,27.539001 17.711014,27.530998 17.599014,27.500999L17.599014,25.789001C17.695999,25.765999,17.875992,25.742996,18.132004,25.742996z M7.2039948,25.722C7.7899933,25.722 8.1499939,25.939995 8.1499939,26.413002 8.1499939,26.840996 7.7899933,27.140999 7.151001,27.140999L6.6779938,27.140999 6.6779938,25.758995C6.7749939,25.737,6.9329987,25.722,7.2039948,25.722z M10.488998,25.074997L10.151001,30.138 11.014999,30.138 11.126999,28.102997C11.164993,27.410995,11.194992,26.608002,11.216995,25.946999L11.231995,25.946999C11.367996,26.577995,11.548004,27.268997,11.742996,27.915001L12.419006,30.077995 13.133011,30.077995 13.869003,27.884995C14.094986,27.245995,14.305008,26.561996,14.469986,25.946999L14.492996,25.946999C14.485001,26.629997,14.522995,27.418999,14.552994,28.072998L14.650009,30.138 15.551987,30.138 15.258987,25.074997 14.056992,25.074997 13.358994,27.102997C13.16301,27.696999,12.990005,28.32,12.854996,28.867996L12.831985,28.867996C12.705002,28.305,12.546997,27.703995,12.367004,27.111L11.705994,25.074997z M18.094986,25.038002C17.470993,25.038002,17.012985,25.083,16.681992,25.142998L16.681992,30.138 17.599014,30.138 17.599014,28.229996C17.719009,28.251999 17.875992,28.259995 18.048996,28.259995 18.702988,28.259995 19.280991,28.086998 19.649002,27.719002 19.935013,27.448997 20.085007,27.050995 20.085007,26.57 20.085007,26.097 19.889999,25.698997 19.589005,25.450996 19.266006,25.18 18.770004,25.038002 18.094986,25.038002z M7.1060028,25.038002C6.5879974,25.038002,6.0540009,25.083,5.7610016,25.142998L5.7610016,30.123001C5.9940033,30.153 6.3849945,30.191002 6.8959961,30.191002 7.8199921,30.191002 8.4129944,30.032997 8.7740021,29.716995 9.0670013,29.476997 9.2619934,29.124001 9.2619934,28.672997 9.2619934,27.974998 8.7740021,27.554001 8.2400055,27.418999L8.2400055,27.403999C8.7890015,27.200996 9.0820007,26.772995 9.0820007,26.306999 9.0820007,25.878998 8.8710022,25.547997 8.5559998,25.361 8.2100067,25.119995 7.7899933,25.038002 7.1060028,25.038002z M18.175003,10.675995C18.981003,10.675995 19.633987,11.330002 19.633987,12.134995 19.633987,12.941002 18.981003,13.594002 18.175003,13.594002 17.37001,13.594002 16.715988,12.941002 16.715988,12.134995 16.715988,11.330002 17.37001,10.675995 18.175003,10.675995z M10.048004,10.675995L12.203995,18.209 13.081985,12.598 16.486008,18.589996 17.719986,17.448997 19.633987,21.323997 4.772995,21.323997 5.7109985,14.433998 8.0119934,17.448997z M2.2830048,2.4179993L2.2830048,22.778 22.124008,22.778 22.124008,8.5849991 15.91301,8.5849991 15.91301,2.4179993z M0,0L17.120987,0 24.416,7.1419983 24.416,8.5849991 24.406998,8.5849991 24.406998,32 0,32z" />
  </g>
</svg>