<?xml version="1.0" encoding="utf-8"?>
<svg xmlns="http://www.w3.org/2000/svg" height="48" width="48" viewBox="0 0 48 48">
  <g>
    <ellipse cy="24" cx="24" ry="24" rx="24" fill="#5E5555" />
    <path id="path1" transform="rotate(0,24,24) translate(14.639999628067,11) scale(0.8125,0.8125)  " fill="#FFFFFF" d="M17.248002,23.997986C16.677995,23.997986,16.217971,24.460999,16.217971,25.031006L16.217971,26.063995C16.217971,26.632996,16.677995,27.095978,17.248002,27.095978L18.407001,27.095978C18.974994,27.095978,19.435992,26.632996,19.435992,26.063995L19.435992,25.031006C19.435992,24.460999,18.974994,23.997986,18.407001,23.997986z M10.94099,23.997986C10.372996,23.997986,9.911997,24.460999,9.911997,25.031006L9.911997,26.063995C9.911997,26.632996,10.372996,27.095978,10.94099,27.095978L12.099011,27.095978C12.66798,27.095978,13.12898,26.632996,13.12898,26.063995L13.12898,25.031006C13.12898,24.460999,12.66798,23.997986,12.099011,23.997986z M4.6339766,23.997986C4.0659825,23.997986,3.6040072,24.460999,3.6040072,25.031006L3.6040072,26.063995C3.6040072,26.632996,4.0659825,27.095978,4.6339766,27.095978L5.7919976,27.095978C6.3599912,27.095978,6.8230044,26.632996,6.8230044,26.063995L6.8230044,25.031006C6.8230044,24.460999,6.3599912,23.997986,5.7919976,23.997986z M17.248002,18.579987C16.677995,18.579987,16.217971,19.041992,16.217971,19.610992L16.217971,20.643005C16.217971,21.213989,16.677995,21.675995,17.248002,21.675995L18.407001,21.675995C18.974994,21.675995,19.435992,21.213989,19.435992,20.643005L19.435992,19.610992C19.435992,19.041992,18.974994,18.579987,18.407001,18.579987z M10.94099,18.579987C10.372996,18.579987,9.911997,19.041992,9.911997,19.610992L9.911997,20.643005C9.911997,21.213989,10.372996,21.675995,10.94099,21.675995L12.099011,21.675995C12.66798,21.675995,13.12898,21.213989,13.12898,20.643005L13.12898,19.610992C13.12898,19.041992,12.66798,18.579987,12.099011,18.579987z M4.6339766,18.579987C4.0659825,18.579987,3.6040072,19.041992,3.6040072,19.610992L3.6040072,20.643005C3.6040072,21.213989,4.0659825,21.675995,4.6339766,21.675995L5.7919976,21.675995C6.3599912,21.675995,6.8230044,21.213989,6.8230044,20.643005L6.8230044,19.610992C6.8230044,19.041992,6.3599912,18.579987,5.7919976,18.579987z M17.248002,13.160004C16.677995,13.160004,16.217971,13.622986,16.217971,14.191986L16.217971,15.223999C16.217971,15.794006,16.677995,16.255981,17.248002,16.255981L18.407001,16.255981C18.974994,16.255981,19.435992,15.794006,19.435992,15.223999L19.435992,14.191986C19.435992,13.622986,18.974994,13.160004,18.407001,13.160004z M10.94099,13.160004C10.372996,13.160004,9.911997,13.622986,9.911997,14.191986L9.911997,15.223999C9.911997,15.794006,10.372996,16.255981,10.94099,16.255981L12.099011,16.255981C12.66798,16.255981,13.12898,15.794006,13.12898,15.223999L13.12898,14.191986C13.12898,13.622986,12.66798,13.160004,12.099011,13.160004z M4.6339766,13.160004C4.0659825,13.160004,3.6040072,13.622986,3.6040072,14.191986L3.6040072,15.223999C3.6040072,15.794006,4.0659825,16.255981,4.6339766,16.255981L5.7919976,16.255981C6.3599912,16.255981,6.8230044,15.794006,6.8230044,15.223999L6.8230044,14.191986C6.8230044,13.622986,6.3599912,13.160004,5.7919976,13.160004z M4.7630049,3.6109924C3.9109532,3.6109924,3.2179593,4.3059998,3.2179593,5.1589966L3.2179593,8.6439819C3.2179593,9.4979858,3.9109532,10.191986,4.7630049,10.191986L18.27797,10.191986C19.130023,10.191986,19.823016,9.4979858,19.823016,8.6439819L19.823016,5.1589966C19.823016,4.3059998,19.130023,3.6109924,18.27797,3.6109924z M3.8609652,0L19.178973,0C21.308004,0,23.04,1.7349854,23.04,3.868988L23.04,28.127991C23.04,30.261993,21.308004,32,19.178973,32L3.8609652,32C1.7329727,32,-1.6755075E-07,30.261993,0,28.127991L0,3.868988C-1.6755075E-07,1.7349854,1.7329727,0,3.8609652,0z" />
  </g>
</svg>