<?xml version="1.0" encoding="utf-8"?>
<svg xmlns="http://www.w3.org/2000/svg" height="48" width="48" viewBox="0 0 48 48">
  <g>
    <ellipse cy="24" cx="24" ry="24" rx="24" fill="#0066CC" />
    <path id="path1" transform="rotate(0,24,24) translate(14.0846564173698,11) scale(0.8125,0.8125)  " fill="#FFFFFF" d="M14.613993,25.084999L14.613993,30.147995 15.538006,30.147995 15.538006,28 17.401013,28 17.401013,27.240997 15.538006,27.240997 15.538006,25.844002 17.535992,25.844002 17.535992,25.084999z M12.441995,25.084999L12.441995,30.147995 13.366007,30.147995 13.366007,25.084999z M9.8029859,25.032997C8.1279972,25.032997 6.9859975,26.061996 6.9859975,27.661995 6.9790089,28.428001 7.2410028,29.097 7.6919916,29.525002 8.1730106,29.983002 8.8190067,30.200996 9.6749952,30.200996 10.35099,30.200996 10.982003,30.035995 11.305001,29.915001L11.305001,27.353996 9.5170057,27.353996 9.5170057,28.083 10.410988,28.083 10.410988,29.345001C10.290993,29.404999 10.043007,29.449997 9.7129896,29.449997 8.6609867,29.449997 7.9549925,28.765999 7.9549925,27.616997 7.9549925,26.436996 8.7139957,25.798996 9.7949903,25.798996 10.328987,25.798996 10.667,25.896996 10.944985,26.016998L11.147988,25.272995C10.91401,25.159996,10.426002,25.032997,9.8029859,25.032997z M10.250984,14.919998C11.957986,14.919998 13.341013,16.304001 13.341013,18.011002 13.341013,19.716995 11.957986,21.100998 10.250984,21.100998 8.5430057,21.100998 7.1600092,19.716995 7.1600092,18.011002 7.1600092,16.304001 8.5430057,14.919998 10.250984,14.919998z M7.8440001,8.348999L11.030984,13.869995 4.656986,13.869995z M2.2839985,2.4179993L2.2839985,22.778 22.124009,22.778 22.124009,8.5899963 15.742992,8.5899963 15.742992,2.4179993z M0,0L16.945996,0 24.407,7.3050003 24.407,32 0,32z" />
  </g>
</svg>