<?xml version="1.0" encoding="utf-8"?>
<svg xmlns="http://www.w3.org/2000/svg" height="48" width="48" viewBox="0 0 48 48">
  <g>
    <ellipse cy="24" cx="24" ry="24" rx="24" fill="#02723B" />
    <path id="path1" transform="rotate(0,24,24) translate(11,11.6187486614626) scale(0.812524650993786,0.812524650993786)  " fill="#FFFFFF" d="M24.657059,21.64202L24.657059,24.793019 29.859102,24.793019 29.859102,21.64202z M24.657059,17.491021L24.657059,20.64202 29.859102,20.64202 29.859102,17.491021z M24.657059,13.340021L24.657059,16.491021 29.859102,16.491021 29.859102,13.340021z M13.054056,9.3130452L10.936008,9.421993 9.4030447,13.339044 7.9020019,9.7839925 5.8020201,9.7839925 8.0030155,14.915033 5.8040342,19.910025 7.6690302,20.058036 9.2030315,16.390984 10.803012,20.358023 10.804049,20.356986 13.272014,20.356986 10.53702,14.689996z M24.657059,9.1880452L24.657059,12.339045 29.859102,12.339045 29.859102,9.1880452z M24.657059,5.0370461L24.657059,8.1880452 29.859102,8.1880452 29.859102,5.0370461z M31.031412,3.4354717C31.182783,3.4359052,31.990089,3.497225,31.990089,4.7560403L31.990089,25.60204 31.989113,25.60204C31.989113,25.60204,32.17411,26.575001,30.946079,26.645009L19.072081,26.645009 19.072081,24.645009 23.606091,24.645009 23.606091,21.49401 19.072081,21.49401 19.072081,20.543021 23.606091,20.543021 23.606091,17.392022 19.072081,17.392022 19.072081,16.441033 23.606091,16.441033 23.606091,13.290033 19.072081,13.290033 19.072081,12.340022 23.606091,12.340022 23.606091,9.1890218 19.072081,9.1890218 19.072081,8.2390096 23.606091,8.2390096 23.606091,5.0870339 19.072081,5.0870339 19.072081,3.4360334 31.007114,3.4360334C31.007114,3.4360334,31.015755,3.4354267,31.031412,3.4354717z M18.405087,0L18.405087,30.476001 0,27.275014 0,3.0670151z" />
  </g>
</svg>