<?xml version="1.0" encoding="utf-8"?>
<svg xmlns="http://www.w3.org/2000/svg" height="48" width="48" viewBox="0 0 48 48">
  <g>
    <ellipse cy="24" cx="24" ry="24" rx="24" fill="#0066CC" />
    <path id="path1" transform="rotate(0,24,24) translate(11,11.0004098882913) scale(0.812474527263561,0.812474527263561)  " fill="#FFFFFF" d="M10.519881,14.945064C11.300896,14.955074,12.079896,15.102078,12.819896,15.386075L10.878893,17.326085C9.6458764,17.201085,8.3688531,17.591071,7.4258485,18.533091L3.5977991,22.360102C1.9327704,24.026093 1.9317786,26.736124 3.5977991,28.402117 5.2638197,30.068108 7.9748359,30.068108 9.6398644,28.402117L13.467914,24.575106C14.410919,23.632109,14.800938,22.355097,14.675937,21.121083L16.615963,19.180096C17.523962,21.546103,17.034943,24.325104,15.126931,26.234108L11.298882,30.061119C8.7138591,32.64612 4.5238051,32.64612 1.9387672,30.062127 -0.64625573,27.477126 -0.64625573,23.287106 1.9387672,20.701098L5.7668166,16.875065C7.077837,15.564055,8.8018727,14.923061,10.519881,14.945064z M19.825993,10.418039L21.580012,12.17305 12.089907,21.665091 10.333873,19.911087z M25.383069,0C27.077088,3.0538786E-08 28.771109,0.64599859 30.063117,1.9390028 32.647133,4.5230274 32.647133,8.7120385 30.062109,11.298047L26.235068,15.125058C24.327055,17.033085,21.547022,17.52207,19.181973,16.614077L21.121998,14.674067C22.356022,14.799068,23.633046,14.409051,24.57605,13.466054L28.403094,9.6400513C30.068121,7.9740295 30.069129,5.2630205 28.403094,3.5980362 26.738064,1.9320143 24.027033,1.9320143 22.362034,3.5980362L18.533986,7.4240398C17.591958,8.3670363,17.201968,9.643042,17.32697,10.877056L15.385937,12.817066C14.478913,10.452035,14.968939,7.6730337,16.875945,5.7660436L20.703019,1.9390028C21.995026,0.64599859,23.689047,3.0538786E-08,25.383069,0z" />
  </g>
</svg>