<?xml version="1.0" encoding="utf-8"?>
<svg xmlns="http://www.w3.org/2000/svg" height="48" width="48" viewBox="0 0 48 48">
  <g>
    <ellipse cy="24" cx="24" ry="24" rx="24" fill="#0066CC" />
    <path id="path1" transform="rotate(0,24,24) translate(11.8133345246315,11) scale(0.8125,0.8125)  " fill="#FFFFFF" d="M2.6080074,2C2.2780542,2,1.9999808,2.2279663,1.9999809,2.4970093L1.9999809,29.502014C1.9999808,29.565979 2.0049856,29.630981 2.0770063,29.757019 2.2189729,29.994019 2.6049554,30.080994 2.8799772,29.919983 6.4660018,27.979004 10.029932,26.046021 13.594961,24.111023 18.282903,21.567993 22.973776,19.021973 27.665746,16.487976 27.804785,16.377014 27.889744,16.297974 27.947727,16.210999 28.020725,16.088989 28.002781,15.952026 27.983738,15.883972 27.960788,15.802002 27.902805,15.687988 27.755712,15.612L18.92279,10.807983C13.593862,7.9099731,8.2720144,5.0169678,2.942965,2.1090088L2.9219689,2.098999C2.8160129,2.0369873,2.6979721,2,2.6080074,2z M2.6080074,0C3.0469677,0 3.498013,0.12402344 3.9090199,0.35797119 9.2348955,3.2639771 14.552837,6.1549683 19.878835,9.0510254L28.695766,13.846985C29.288778,14.153992 29.725786,14.690002 29.909744,15.346985 30.089796,15.994995 29.991773,16.698975 29.637773,17.278015 29.382772,17.669983 29.100792,17.904968 28.833704,18.11499L28.692714,18.20697C23.976818,20.753967 19.260799,23.312012 14.547832,25.869019 10.982926,27.804016 7.4189956,29.737 3.857995,31.664978 3.4670076,31.893005 3.0280471,32 2.5900631,32 1.7029866,32 0.82103718,31.555969 0.34801912,30.763 0.10998452,30.343994 2.3663961E-07,29.937012 0,29.502014L0,2.4970093C2.3663961E-07,1.1199951,1.1700329,0,2.6080074,0z" />
  </g>
</svg>