<?xml version="1.0" encoding="utf-8"?>
<svg xmlns="http://www.w3.org/2000/svg" height="48" width="48" viewBox="0 0 48 48">
  <g>
    <ellipse cy="24" cx="24" ry="24" rx="24" fill="#0066CC" />
    <path id="path1" transform="rotate(0,24,24) translate(11.0000046491606,11) scale(0.812499709427461,0.812499709427461)  " fill="#FFFFFF" d="M6.786273,19.58038C4.8552475,20.543352 3.6762314,22.99128 4.065237,25.541203 4.450243,28.056129 6.2492657,29.899075 8.3792934,29.997072z M25.376723,19.580251L23.78369,29.997051C25.913715,29.899031 27.712743,28.056083 28.097726,25.541122 28.486738,22.991189 27.307741,20.543243 25.376723,19.580251z M16,0C24.823,0 32,8.0030079 32,17.841018 32,20.866021 31.309999,23.855024 30.002,26.485027 29.986563,26.51584 29.969746,26.545511 29.951663,26.574005L29.914128,26.627069 29.864518,26.820212C29.014498,29.873736 26.508523,31.999999 23.606687,31.999999 23.216699,31.999999 22.821676,31.959991 22.434679,31.88199 21.912671,31.774998 21.564675,31.277999 21.64567,30.750026L23.579709,18.101309C23.620694,17.830288 23.771697,17.58832 23.995698,17.432317 24.164454,17.315315 24.364144,17.253999 24.566082,17.253016 24.633395,17.252689 24.700958,17.259065 24.767708,17.272317 26.979605,17.722308 28.738765,19.392976 29.597425,21.560945L29.604015,21.578708 29.650576,21.362866C29.881711,20.212188 30,19.030144 30,17.841018 30,9.1060085 23.72,2.000001 16,2.000001 8.2810001,2.000001 2,9.1060085 2,17.841018 2,19.122894 2.1366634,20.391947 2.4033756,21.622048L2.4572048,21.853096 2.5655499,21.561043C3.4242134,19.393089 5.1833782,17.722435 7.3952808,17.272449 7.4622822,17.259199 7.5299702,17.252762 7.5973301,17.253012 7.7994108,17.253762 7.998538,17.314697 8.1672907,17.432444 8.3912935,17.588439 8.5422955,17.830432 8.5832958,18.101424L10.517322,30.75005C10.598323,31.278034 10.250318,31.77502 9.7283115,31.882016 9.3413057,31.960014 8.9463005,32.000012 8.5562963,32.000012L8.5552959,32.000012C5.8544168,32.000012,3.4959736,30.156921,2.4975262,27.438403L2.4337578,27.253311 2.3802185,27.190395C2.3527966,27.153262 2.3276253,27.113778 2.3050003,27.072028 0.79699898,24.296025 0,21.103022 0,17.841018 0,8.0030079 7.1779995,0 16,0z" />
  </g>
</svg>