<?xml version="1.0" encoding="utf-8"?>
<!-- Generator: Adobe Illustrator 15.1.0, SVG Export Plug-In  -->
<!DOCTYPE svg PUBLIC "-//W3C//DTD SVG 1.1//EN" "http://www.w3.org/Graphics/SVG/1.1/DTD/svg11.dtd" [
	<!ENTITY ns_flows "http://ns.adobe.com/Flows/1.0/">
]>
<svg version="1.1"
	 xmlns="http://www.w3.org/2000/svg" xmlns:xlink="http://www.w3.org/1999/xlink" xmlns:a="http://ns.adobe.com/AdobeSVGViewerExtensions/3.0/"
	 x="0px" y="0px" width="16px" height="16px" viewBox="0 0 16 16" style="overflow:visible;enable-background:new 0 0 16 16;"
	 xml:space="preserve" preserveAspectRatio="xMinYMid meet">
<defs>
</defs>
<path style="fill:#999999;" d="M16,9v6c0,0.5-0.5,1-1,1h-1H2H1c-0.5,0-1-0.5-1-1V9c0-0.5,0.5-1,1-1h1c0.5,0,1,0.5,1,1v4h10V9
	c0-0.5,0.5-1,1-1h1C15.5,8,16,8.5,16,9z M12.4,5.1l-0.7-0.7c-0.4-0.4-1-0.4-1.4,0L9.5,5.2V1c0-0.5-0.4-1-1-1h-1c-0.5,0-1,0.5-1,1
	v4.2L5.7,4.4C5.3,4,4.7,4,4.3,4.4L3.6,5.1c-0.4,0.4-0.4,1,0,1.4l3.7,3.7c0.2,0.2,0.5,0.3,0.7,0.3c0.3,0,0.5-0.1,0.7-0.3l3.7-3.7
	C12.8,6.2,12.8,5.5,12.4,5.1z"/>
</svg>
