<?xml version="1.0" encoding="utf-8"?>
<!-- Generator: Adobe Illustrator 14.0.0, SVG Export Plug-In . SVG Version: 6.00 Build 43363)  -->
<!DOCTYPE svg PUBLIC "-//W3C//DTD SVG 1.1//EN" "http://www.w3.org/Graphics/SVG/1.1/DTD/svg11.dtd">
<svg version="1.1"
	 id="svg2" xmlns:dc="http://purl.org/dc/elements/1.1/" xmlns:cc="http://creativecommons.org/ns#" xmlns:rdf="http://www.w3.org/1999/02/22-rdf-syntax-ns#" xmlns:svg="http://www.w3.org/2000/svg" xmlns:sodipodi="http://sodipodi.sourceforge.net/DTD/sodipodi-0.dtd" xmlns:inkscape="http://www.inkscape.org/namespaces/inkscape" inkscape:version="0.48.2 r9819" sodipodi:docname="icon.svg"
	 xmlns="http://www.w3.org/2000/svg" xmlns:xlink="http://www.w3.org/1999/xlink" x="0px" y="0px" width="24px" height="24px"
	 viewBox="0 0 24 24" enable-background="new 0 0 24 24" xml:space="preserve">
<sodipodi:namedview  id="namedview80" bordercolor="#666666" inkscape:cy="4.3482357" pagecolor="#ffffff" inkscape:cx="11.703799" guidetolerance="10" inkscape:zoom="27.812867" gridtolerance="10" objecttolerance="10" showgrid="false" borderopacity="1" inkscape:current-layer="svg2" inkscape:window-y="-4" inkscape:window-x="-4" inkscape:window-height="977" inkscape:window-width="1280" inkscape:pageshadow="2" inkscape:pageopacity="0" inkscape:window-maximized="1">
	</sodipodi:namedview>
<path id="circle493" sodipodi:nodetypes="sssss" inkscape:connector-curvature="0" fill="#E6F3FC" d="M11.998,1.063
	c-6.067,0-10.993,4.911-10.993,10.957S5.93,22.972,11.998,22.972c6.068,0,10.998-4.907,10.998-10.953S18.066,1.063,11.998,1.063z"/>
<ellipse id="circle351" sodipodi:cx="155.987" sodipodi:cy="44.988998" sodipodi:rx="80.691002" sodipodi:ry="80.691002" fill="#C8E6F8" cx="12" cy="12.017" rx="9.718" ry="9.68">
</ellipse>
<path id="path471" inkscape:connector-curvature="0" fill="#94BEF8" d="M11.999,0.089c-6.627,0-12,5.353-12,11.956
	S5.372,24,11.999,24C18.627,24,24,18.647,24,12.044S18.627,0.089,11.999,0.089z M12.099,22.877c-5.976,0-10.82-4.826-10.82-10.78
	s4.845-10.78,10.82-10.78c5.977,0,10.821,4.827,10.821,10.78C22.921,18.051,18.076,22.877,12.099,22.877z"/>
<g>
	
		<linearGradient id="SVGID_1_" gradientUnits="userSpaceOnUse" x1="-138.5999" y1="-709.9189" x2="-138.5999" y2="-713.1191" gradientTransform="matrix(1 0 0 -1 123.3447 -670.5391)">
		<stop  offset="0" style="stop-color:#F0A829"/>
		<stop  offset="1" style="stop-color:#C7671A"/>
	</linearGradient>
	<path fill="url(#SVGID_1_)" d="M-15.255,39.38v3.2"/>
	
		<linearGradient id="SVGID_2_" gradientUnits="userSpaceOnUse" x1="-137.5999" y1="-710.4189" x2="-137.5999" y2="-712.1208" gradientTransform="matrix(1 0 0 -1 123.3447 -670.5391)">
		<stop  offset="0" style="stop-color:#FFEBA8"/>
		<stop  offset="1" style="stop-color:#F8BE27"/>
	</linearGradient>
	<path fill="url(#SVGID_2_)" d="M-14.255,41.58v-1.7"/>
</g>
<linearGradient id="SVGID_3_" gradientUnits="userSpaceOnUse" x1="35.5515" y1="46.1875" x2="35.6931" y2="46.1875">
	<stop  offset="0" style="stop-color:#F0A829"/>
	<stop  offset="1" style="stop-color:#C7671A"/>
</linearGradient>
<path fill="url(#SVGID_3_)" d="M35.552,45.931 M35.693,46.443"/>
<ellipse id="ellipse353_2_" sodipodi:cx="184.918" sodipodi:cy="43.019001" sodipodi:rx="7.2020001" sodipodi:ry="3.5439999" transform="matrix(0.2477 -0.9688 0.9688 0.2477 1.0809 23.8169)" fill="#5F3B22" cx="15.877" cy="11.212" rx="0.463" ry="0.944">
</ellipse>
<ellipse id="ellipse355_2_" sodipodi:cx="126.753" sodipodi:cy="20.469" sodipodi:rx="9.1429996" sodipodi:ry="4.6269999" transform="matrix(0.3319 -0.9433 0.9433 0.3319 -2.2872 13.3017)" fill="#5F3B22" cx="8.247" cy="8.266" rx="0.605" ry="1.198">
</ellipse>
<ellipse id="ellipse357_2_" sodipodi:cx="149.448" sodipodi:cy="21.861" sodipodi:rx="3.8989999" sodipodi:ry="2.8770001" transform="matrix(0.4041 -0.9147 0.9147 0.4041 -1.0379 15.3014)" fill="#5F3B22" cx="11.225" cy="8.447" rx="0.376" ry="0.512">
</ellipse>
<ellipse id="ellipse359_2_" sodipodi:cx="159.392" sodipodi:cy="47.594002" sodipodi:rx="4.5549998" sodipodi:ry="3.362" transform="matrix(0.4054 -0.9141 0.9141 0.4054 -3.3476 18.4754)" fill="#5F3B22" cx="12.529" cy="11.811" rx="0.44" ry="0.597">
</ellipse>
<g id="g361_2_" transform="matrix(0.13116936,0,0,0.1306793,-8.4606486,6.1380018)">
	<path id="path363_2_" inkscape:connector-curvature="0" fill="#F9C896" d="M161.532,79.174c0,0-1.295-6.995-4.921-9.999
		c-3.626-2.997-12.858-5.082-24.621-11.12c-13.624-7.002-20.057-16.605-20.057-16.605"/>
	<path id="path365_2_" inkscape:connector-curvature="0" fill="none" stroke="#000000" stroke-width="3" stroke-linecap="round" d="
		M161.532,79.174c0,0-1.295-6.995-4.921-9.999c-3.626-2.997-12.858-5.082-24.621-11.12c-13.624-7.002-20.057-16.605-20.057-16.605"
		/>
</g>
<path id="path367_2_" inkscape:connector-curvature="0" fill="#EA8E5E" d="M18.61,12.75c0,0,0.264,2.346-1.314,3.262
	c-1.577,0.916-3.312,0.639-4.065,0.434c-0.755-0.205-0.931-0.564-2.007-1.021c-1.076-0.458-2.894-1.021-3.48-1.404
	c-1.104-0.72-1.521-1.91-1.521-1.91l0.581-0.555l7.969,3.117l2.705-1.307L18.61,12.75z"/>
<g id="g369_2_" transform="matrix(0.13116936,0,0,0.1306793,-8.4606486,6.1380018)">
	<g id="use374_2_">
		<path id="SVGID_10_" inkscape:connector-curvature="0" fill="#FAC997" d="M106.609,48.176c13.252-8.497,1.005-28.367-2.747-32.866
			c-3.752-4.506-7.497-2.75-8.748-1.51c-1.251,1.255-1.504,3.258-1.504,12.002c0,8.751-0.938,9.296-2.807,16.261
			c-1.444,5.366,2.807,10.746,6.812,16.739c3.998,6.001,16.997,22.501,16.997,22.501s0,0,13.997,9.752
			c14.004,9.745,41.67,35.429,41.67,35.429s13.982-0.957,30.495-11.479c16.245-10.171,23.824-22.322,23.824-22.322l-9.991-12.241
			l-3.492-33.083L208.6,41.45l-50.373,29.511L131.99,58.055l-20.057-16.321"/>
	</g>
	<g>
		<path id="path381_2_" inkscape:connector-curvature="0" fill="#E88C5D" d="M106.609,43.408c-1.243,2.9-1.504,4.813-1.504,4.813
			s-0.506,0.463,1.504-0.045c0.506-0.12,3.492-1.181,3.492-1.181c2.256-5.455,6.261-15.619,6.261-15.619l-8.249-20.401l-7.981,1.644
			c0,0,4.668,5.836,6.477,15.686C108.426,38.155,107.86,40.509,106.609,43.408z"/>
	</g>
</g>
<path id="path383_2_" inkscape:connector-curvature="0" fill="#E88C5D" d="M18.479,12.668c0,0,1.078,1.436-1.313,3.261
	c-1.45,1.106-3.313,0.64-4.066,0.434c-0.754-0.205-0.93-0.564-2.007-1.022c-1.076-0.457-2.894-1.02-3.48-1.402
	c-1.104-0.721-1.521-1.91-1.521-1.91l0.58-0.556l7.969,3.117l2.705-1.307L18.479,12.668z"/>
<ellipse id="ellipse385_2_" sodipodi:cx="134.519" sodipodi:cy="43.019001" sodipodi:rx="7.0139999" sodipodi:ry="5.177" transform="matrix(0.4052 -0.9142 0.9142 0.4052 -4.7401 15.1401)" fill="none" cx="9.265" cy="11.213" rx="0.677" ry="0.919">
</ellipse>
<path id="path387_2_" inkscape:connector-curvature="0" fill="none" d="M9.397,4.186c0,0-0.865,0.463-1.654,0.326
	c-0.563-0.098-0.835-0.42-0.96-1.047C6.658,2.84,7.097,2.184,7.097,2.184l-1.935,2.1l1.059,1.75L9.397,5.1V4.186z"/>
<path id="path389_2_" inkscape:connector-curvature="0" fill="none" d="M10.475,2.371c0,0-0.25,1.326,0.112,2.64
	c0.363,1.313,0.764,2.017,1.129,2.017s1.006-0.065,1.251-0.311c0.246-0.245-0.139,0.703-0.139,0.703l-1.96,0.338L10,6.406
	L9.461,5.295V4.362l0.124-0.567L9.397,3.074L10.475,2.371z"/>
<path id="path391_2_" inkscape:connector-curvature="0" fill="none" d="M13.951,3.368c0,0-0.049,1.96,0,3.513
	c0.042,1.32-0.032,1.442,0.32,2.139c0.353,0.697,0.5,0.817,0.5,0.817l-1.667-0.131l-0.276-2.205l0.146-1.748l-0.248-2.712
	L13.951,3.368z"/>
<path id="path393_2_" inkscape:connector-curvature="0" fill="none" stroke="#6A3011" stroke-width="0.75" stroke-linecap="round" d="
	M20.531,17.84c0,0-0.567-0.609-0.743-0.848c-0.175-0.24-0.099-1.416-0.256-3.198c-0.169-1.917-0.684-2.291-0.684-2.291"/>
<path id="path395_2_" inkscape:connector-curvature="0" fill="#BE692A" d="M12.082,15.178c0,0,0.89,0.277,2.285,0.441
	c2.951,0.349,5.601-3.17,4.065-6.295c-1.486-3.027-3.328-2.702-5.458-3.571C8.748,4.029,6.805,5.184,6.221,5.578
	c-1.158,0.785-1.387,2.18-1.387,2.18l1.373,2.252l0.014,1.801l3.045,2.117L12.082,15.178z"/>
<path id="path397_2_" inkscape:connector-curvature="0" fill="none" stroke="#573212" stroke-width="0.8262" d="M4.835,7.758
	c0,0,0.229-1.395,1.387-2.18c0.584-0.395,2.526-1.549,6.753,0.175c2.13,0.869,3.972,0.544,5.458,3.571
	c1.534,3.125-1.114,6.644-4.065,6.295c-1.396-0.164-2.285-0.441-2.285-0.441"/>
<path id="path401_2_" inkscape:connector-curvature="0" fill="none" d="M4.674,7.787c0,0,0.612,0.762,0.85,2.05
	c0.238,1.287,0.164,1.595,0,1.974c-0.163,0.379-0.197,0.629-0.197,0.629S5.26,12.5,5.523,12.434
	c0.066-0.016,0.516,0.131,0.613-0.106c0.297-0.714,0.666-2.089,0.666-2.089L5.721,7.572L4.674,7.787L4.674,7.787z"/>
<g id="g403_2_" transform="matrix(0.13116936,0,0,0.1306793,-8.4606486,6.1380018)">
	<g id="use408_2_">
		<path id="SVGID_9_" inkscape:connector-curvature="0" fill="#FAC997" d="M162.306-4.284c0,0,3.06-10.387,5.226-11.852
			c2.167-1.48,7.475-3.079,12.329-0.142c4.676,2.832,4.638,8.646,4.318,14.834c-0.223,4.536-0.03,18.167-0.03,18.167
			s-0.119,7.331-8.123,7.331c-7.996,0-8.666-4.828-8.994-5.829c-0.335-1.001-0.953-20.79-0.953-20.79"/>
	</g>
	<g>
		<defs>
			<path id="SVGID_4_" d="M162.306-4.284c0,0,3.06-10.387,5.226-11.852c2.167-1.48,7.475-3.079,12.329-0.142
				c4.676,2.832,4.638,8.646,4.318,14.834c-0.223,4.536-0.03,18.167-0.03,18.167s-0.119,7.331-8.123,7.331
				c-7.996,0-8.666-4.828-8.994-5.829c-0.335-1.001-0.953-20.79-0.953-20.79"/>
		</defs>
		<clipPath id="SVGID_5_">
			<use xlink:href="#SVGID_4_"  overflow="visible"/>
		</clipPath>
		<path id="path413_2_" inkscape:connector-curvature="0" clip-path="url(#SVGID_5_)" fill="#E88C5D" d="M170.861-21.196
			c0,0-0.372,14.998,0,26.88c0.32,10.103-0.246,11.038,2.442,16.366c2.688,5.336,3.812,6.255,3.812,6.255l-12.709-1.001
			l-2.107-16.874l0.834-14.102l-3.402-8.669L170.861-21.196z"/>
	</g>
</g>
<path id="path415_2_" inkscape:connector-curvature="0" fill="none" stroke="#6A3011" stroke-width="0.75" stroke-linecap="round" d="
	M12.829,5.5c0,0,0.401-1.279,0.686-1.471c0.284-0.193,0.98-0.402,1.617-0.019c0.613,0.37,0.608,1.13,0.566,1.938
	c-0.029,0.593-0.004,2.374-0.004,2.374s-0.016,0.958-1.065,0.958c-1.049,0-1.137-0.631-1.18-0.762
	c-0.044-0.131-0.088-3.311-0.088-3.311"/>
<g id="g417_2_" transform="matrix(0.13116936,0,0,0.1306793,-8.4606486,6.1380018)">
	<g id="use422_2_">
		<path id="SVGID_8_" inkscape:connector-curvature="0" fill="#FAC997" d="M184.076,8.225c0,0,6.455-9.506,11.287-9.005
			s8.666,4.506,8.502,11.665c-0.171,7.174-3.67,17.831-7.832,18.996c-4.169,1.173-7.892,0.284-9.001-2.16
			c-1.668-3.669,0.998-18.398,0.998-18.398l-1.668-1.607"/>
	</g>
	<g>
		<defs>
			<path id="SVGID_11_" d="M184.076,8.225c0,0,6.455-9.506,11.287-9.005s8.666,4.506,8.502,11.665
				c-0.171,7.174-3.67,17.831-7.832,18.996c-4.169,1.173-7.892,0.284-9.001-2.16c-1.668-3.669,0.998-18.398,0.998-18.398
				l-1.668-1.607"/>
		</defs>
		<clipPath id="SVGID_12_">
			<use xlink:href="#SVGID_11_"  overflow="visible"/>
		</clipPath>
		<path id="path427_2_" inkscape:connector-curvature="0" clip-path="url(#SVGID_12_)" fill="#E88C5D" d="M197.738-3.567
			c0,0-3.194,2.376-5.159,8.116c-1.965,5.754-3.842,12.629-3.715,17.636c0.127,4.992,0.499,10.387,1.623,11.135
			c1.124,0.732-9.373-1.943-9.373-1.943l3.186-16.769V0.932l10.565-9.147L197.738-3.567z"/>
	</g>
</g>
<path id="path429_2_" inkscape:connector-curvature="0" fill="none" d="M17.476,5.672c0,0-0.419,0.311-0.677,1.061
	c-0.258,0.752-0.504,1.65-0.487,2.305c0.017,0.652,0.213,1.455,0.36,1.551c0.148,0.097-1.377-0.35-1.377-0.35l0.418-2.191V6.26
	l1.386-1.195L17.476,5.672z"/>
<path id="path431_2_" inkscape:connector-curvature="0" fill="none" stroke="#6A3011" stroke-width="0.75" stroke-linecap="round" d="
	M15.684,7.213c0,0,0.847-1.242,1.48-1.177s1.137,0.589,1.115,1.524c-0.022,0.938-0.481,2.33-1.027,2.482
	c-0.547,0.153-1.035,0.037-1.181-0.282c-0.219-0.479,0.131-2.404,0.131-2.404l-0.219-0.21"/>
<g id="g433_2_" transform="matrix(0.13116936,0,0,0.1306793,-8.4606486,6.1380018)">
	<g id="use438_2_">
		<path id="SVGID_7_" inkscape:connector-curvature="0" fill="#FAC997" d="M128.864-11.055c0,0,13.833-15.23,17.168-15.888
			c3.335-0.673,5.762-1.001,8.882,1.659c3.119,2.675,8.294,23.51,8.45,25.005c0.164,1.495,0.335,8.997-6.753,9.506
			c-7.08,0.493-8.078-0.837-10.416-4.17c-1.042-1.495-1.549-5.425-2.665-9.341c-1.638-5.702-2.472-5.702-2.472-5.702"/>
	</g>
	<g>
		<defs>
			<path id="SVGID_13_" d="M128.864-11.055c0,0,13.833-15.23,17.168-15.888c3.335-0.673,5.762-1.001,8.882,1.659
				c3.119,2.675,8.294,23.51,8.45,25.005c0.164,1.495,0.335,8.997-6.753,9.506c-7.08,0.493-8.078-0.837-10.416-4.17
				c-1.042-1.495-1.549-5.425-2.665-9.341c-1.638-5.702-2.472-5.702-2.472-5.702"/>
		</defs>
		<clipPath id="SVGID_14_">
			<use xlink:href="#SVGID_13_"  overflow="visible"/>
		</clipPath>
		<path id="path443_2_" inkscape:connector-curvature="0" clip-path="url(#SVGID_14_)" fill="#E88C5D" d="M144.364-28.826
			c0,0,2.554,1.629,0.238,3.722c-3.499,3.169-0.916,10.896,0.618,16.478c2.77,10.051,4.847,14.116,8.607,14.692
			c2.755,0.418,7.668,0.232,9.537-1.637c1.876-1.876-1.057,5.373-1.057,5.373l-14.942,2.593l-6.626-10.343L134.06-8.215l2.561-5.373
			l0.946-4.342l-1.422-5.515L144.364-28.826z"/>
	</g>
</g>
<path id="path445_2_" inkscape:connector-curvature="0" fill="none" stroke="#6A3011" stroke-width="0.7263" stroke-linecap="round" d="
	M9.475,3.566c0,0,0.782-0.863,1.22-0.949c0.438-0.088,0.756-0.131,1.165,0.217c0.409,0.35,1.088,3.072,1.108,3.268
	c0.021,0.195,0.044,1.176-0.886,1.242c-0.929,0.064-1.174-0.289-1.716-1.766c-0.226-0.613-0.459-1.24-0.459-1.24"/>
<g id="g447_2_" transform="matrix(0.13116936,0,0,0.1306793,-8.4606486,6.1380018)">
	<g id="use452_2_">
		<path id="SVGID_6_" inkscape:connector-curvature="0" fill="#FAC997" d="M115.686-7.931c2.248-1.128,3.752-1.255,3.752-1.255
			s2.494,2.003,9.425-0.254c7.356-2.406,9.016-5.171,8.845-7.503c-0.164-2.332-1.176-3.333-3.008-4.006
			c-1.839-0.665-4.504-3.998-8.338-5.993c-3.834-2.003-6.001-0.673-7.832,0c-1.831,0.658-7.996,8.833-9.001,12.659
			c-0.998,3.841,1.757,8.699,1.757,8.699S113.17-6.676,115.686-7.931z"/>
	</g>
	<g>
		<defs>
			<path id="SVGID_15_" d="M115.686-7.931c2.248-1.128,3.752-1.255,3.752-1.255s2.494,2.003,9.425-0.254
				c7.356-2.406,9.016-5.171,8.845-7.503c-0.164-2.332-1.176-3.333-3.008-4.006c-1.839-0.665-4.504-3.998-8.338-5.993
				c-3.834-2.003-6.001-0.673-7.832,0c-1.831,0.658-7.996,8.833-9.001,12.659c-0.998,3.841,1.757,8.699,1.757,8.699
				S113.17-6.676,115.686-7.931z"/>
		</defs>
		<clipPath id="SVGID_16_">
			<use xlink:href="#SVGID_15_"  overflow="visible"/>
		</clipPath>
		<path id="path457_2_" inkscape:connector-curvature="0" clip-path="url(#SVGID_16_)" fill="#E88C5D" d="M136.145-14.941
			c0,0-6.596,3.542-12.612,2.496c-4.296-0.747-6.366-3.213-7.318-8.011c-0.953-4.783,2.397-9.805,2.397-9.805l-14.749,16.067
			l8.07,13.392l24.211-7.144V-14.941z"/>
	</g>
</g>
<path id="path459_2_" inkscape:connector-curvature="0" fill="none" stroke="#6A3011" stroke-width="0.75" stroke-linecap="round" d="
	M6.222,5.578c0,0-0.446-0.805-0.315-1.307c0.132-0.5,0.94-1.568,1.181-1.654c0.24-0.088,0.524-0.262,1.027,0
	C8.617,2.878,8.967,3.313,9.208,3.4c0.24,0.088,0.373,0.219,0.395,0.523c0.022,0.305-0.178,0.727-1.16,0.98
	c-1.256,0.324-1.88-0.741-1.88-0.741"/>
<ellipse id="ellipse461_2_" sodipodi:cx="134.519" sodipodi:cy="43.019001" sodipodi:rx="7.0139999" sodipodi:ry="5.177" transform="matrix(0.4052 -0.9142 0.9142 0.4052 -4.74 15.1402)" fill="#94541E" cx="9.266" cy="11.213" rx="0.677" ry="0.919">
</ellipse>
<ellipse id="ellipse463_2_" sodipodi:cx="184.918" sodipodi:cy="43.019001" sodipodi:rx="7.2020001" sodipodi:ry="3.5439999" transform="matrix(0.2477 -0.9688 0.9688 0.2477 1.081 23.8171)" fill="#94541E" cx="15.877" cy="11.212" rx="0.463" ry="0.944">
</ellipse>
<ellipse id="ellipse465_2_" sodipodi:cx="126.753" sodipodi:cy="20.469" sodipodi:rx="9.1429996" sodipodi:ry="4.6269999" transform="matrix(0.3319 -0.9433 0.9433 0.3319 -2.2871 13.3019)" fill="#94541E" cx="8.247" cy="8.266" rx="0.605" ry="1.198">
</ellipse>
<ellipse id="ellipse467_2_" sodipodi:cx="149.448" sodipodi:cy="21.861" sodipodi:rx="3.8989999" sodipodi:ry="2.8770001" transform="matrix(0.4041 -0.9147 0.9147 0.4041 -1.0378 15.3016)" fill="#94541E" cx="11.225" cy="8.447" rx="0.376" ry="0.512">
</ellipse>
<ellipse id="ellipse469_2_" sodipodi:cx="159.392" sodipodi:cy="47.594002" sodipodi:rx="4.5549998" sodipodi:ry="3.362" transform="matrix(0.4054 -0.9141 0.9141 0.4054 -3.3475 18.4756)" fill="#94541E" cx="12.529" cy="11.811" rx="0.44" ry="0.597">
</ellipse>
<path id="path477_2_" inkscape:connector-curvature="0" fill="none" stroke="#6A3011" stroke-width="0.75" stroke-linecap="round" d="
	M12.727,16.484c0,0-0.17-0.914-0.646-1.307c-0.476-0.392-1.687-0.664-3.229-1.453c-1.787-0.915-2.631-2.17-2.631-2.17"/>
<path id="path479_2_" inkscape:connector-curvature="0" fill="none" stroke="#6A3011" stroke-width="0.75" stroke-linecap="round" d="
	M5.523,12.434c1.738-1.11,0.132-3.707-0.36-4.295C4.671,7.55,4.18,7.779,4.016,7.941C3.852,8.105,3.818,8.367,3.818,9.51
	c0,1.144-0.123,1.215-0.368,2.125c-0.189,0.701,0.368,1.404,0.894,2.188c0.524,0.784,2.229,2.94,2.229,2.94s0,0,1.836,1.274
	c1.837,1.273,5.11,4.307,5.11,4.307"/>
<g id="g481_2_" transform="matrix(0.13116936,0,0,0.1306793,-8.4606486,6.1380018)">
	<g>
		<defs>
			<path id="SVGID_17_" d="M156.612,69.175c0,0,0.916,0.291,2.606,0.717c2.904,0.725,8.093,1.868,14.816,2.66
				c22.499,2.668,42.697-24.257,30.994-48.171c-11.331-23.166-25.373-20.678-41.61-27.329c-32.222-13.19-47.031-4.357-51.483-1.338
				c-8.83,6.008-10.572,16.68-10.572,16.68s11.324,12.786,10.952,20.924c-0.38,8.131-0.38,10.089-0.38,10.089
				s12.605,10.492,21.755,15.499"/>
		</defs>
		<clipPath id="SVGID_18_">
			<use xlink:href="#SVGID_17_"  overflow="visible"/>
		</clipPath>
		<g id="g489_2_" opacity="0.11" clip-path="url(#SVGID_18_)">
			<path id="path491_2_" inkscape:connector-curvature="0" fill="#2A1B10" d="M205.623,25.66c0,0,0.99,15.79-7.259,25.64
				c-6.269,7.488-14.868,14.027-36.064,9.012c-21.189-5.007-35.2-13.556-42.683-20.76c-7.49-7.196-9.649-13.892-9.649-13.892
				l-1.854,15.036l33.749,38.478l34.255,10.373l32.341-27.493l2.658-33.995L205.623,25.66z"/>
		</g>
	</g>
</g>
</svg>
