<?xml version="1.0" encoding="utf-8"?>
<!-- Generator: Adobe Illustrator 26.1.0, SVG Export Plug-In . SVG Version: 6.00 Build 0)  -->
<svg version="1.1" id="Layer_1" xmlns="http://www.w3.org/2000/svg" xmlns:xlink="http://www.w3.org/1999/xlink" x="0px" y="0px"
	 viewBox="0 0 74.4 74.4" style="enable-background:new 0 0 74.4 74.4;" xml:space="preserve">
<style type="text/css">
	.st0{fill:#FFFFFF;}
</style>
<path d="M22.9,23.8c0.1,0,0.2,0,0.3,0c0.1-2.1,0.6-3.9,1.3-5.5c-3.6,0.9-8-1.2-8.2-6.1c0.1-3.5,3.2-6.2,6.8-6.1
	c3.4,0.1,6.1,2.8,6.3,6.1c0,0.2,0,0.3,0,0.5c1.6-1,3.3-1.6,5.1-2C32.6-3,11.7-2.6,11,12.2C11,18.5,16.3,23.8,22.9,23.8z"/>
<g>
	<path d="M43.9,35.9c-0.8,0.4-1.6,0.8-2.5,1.1c1.2,0.1,2.3,0.3,3.4,0.6C44.6,37,44.3,36.4,43.9,35.9z"/>
	<path d="M16.3,44.5H5.5V43c0.3-4.7,4.5-7.5,8.6-9.1c2.9-1.1,6-1.7,9-1.7c1,0,2,0.1,3.1,0.2c-1.3-1.6-2.2-3.4-2.6-5.5
		c-0.1,0-0.2,0-0.3,0c0,0-0.1,0-0.1,0c0,0-0.1,0-0.1,0c-0.1,0-0.3,0-0.4,0c-0.5,0-0.9,0-1.4,0c-5.1,0.2-10.1,1.7-14.4,4.5
		c-4.4,2.9-6.7,6.9-6.7,11.2v4.2c0,1.5,1.1,2.7,2.7,2.8h10.3C13.8,47.8,14.9,46.1,16.3,44.5z"/>
</g>
<g>
	<path d="M37.1,35c6.5,0,11.7-5.1,11.7-11.6c-0.6-15.3-22.9-15.3-23.6,0C25.2,29.7,30.5,35,37.1,35L37.1,35z M30.5,23.4
		c0.1-3.5,3.2-6.2,6.8-6.1c3.4,0.1,6.1,2.8,6.3,6.1C43.2,31.8,30.8,31.8,30.5,23.4L30.5,23.4z"/>
	<path d="M53.5,42.6c-4.3-2.8-9.3-4.3-14.4-4.5c-0.5,0-0.9,0-1.4,0c-0.1,0-0.3,0-0.4,0c0,0-0.1,0-0.1,0c0,0-0.1,0-0.1,0
		c-0.1,0-0.3,0-0.4,0c-0.5,0-0.9,0-1.4,0c-5.1,0.2-10.1,1.7-14.4,4.5c-4.4,2.9-6.7,6.9-6.7,11.2V58c0,1.5,1.1,2.7,2.7,2.8h40.6
		c1.6-0.1,2.7-1.3,2.7-2.8v-4.2C60.2,49.5,57.9,45.5,53.5,42.6z M54.8,55.7H19.7v-1.5c0.3-4.7,4.5-7.5,8.6-9.1c2.9-1.1,6-1.7,9-1.7
		c3,0,6.1,0.6,9,1.7c4,1.6,8.3,4.4,8.6,9.1V55.7z"/>
</g>
<path class="st0" d="M74.3,59.3c-1.3-2.1-3.1-3.9-5.5-5.5c-3.9-2.5-8.4-4.1-13.2-4.6c5.5-1.8,9.3-6.8,9.3-12.9v0l0,0
	c-0.4-9.2-7.4-13.4-13.8-13.4c-6.4,0-13.4,4.2-13.8,13.4l0,0v0c0,6,4.1,11.2,9.6,12.9c-4.7,0.6-9.1,2.1-12.9,4.6
	c-4.9,3.2-7.6,7.8-7.6,12.9v4.2c0,1.1,0.4,2.1,1,2.9h46.8V59.3z M46.6,36.3c0.1-2.3,2.2-4.1,4.6-4.1l0.1,0c2.3,0.1,4.2,1.9,4.4,4.1
	c-0.2,3-2.4,4.3-4.6,4.3C49.2,40.6,46.8,39.5,46.6,36.3z"/>
<g>
	<path d="M51.2,47.9c6.5,0,11.7-5.1,11.7-11.6C62.3,21,40,21,39.3,36.3C39.3,42.6,44.6,47.9,51.2,47.9L51.2,47.9z"/>
	<path d="M67.7,55.5c-4.3-2.8-9.3-4.3-14.4-4.5c-0.5,0-0.9,0-1.4,0c-0.1,0-0.3,0-0.4,0c0,0-0.1,0-0.1,0c0,0-0.1,0-0.1,0
		c-0.1,0-0.3,0-0.4,0c-0.5,0-0.9,0-1.4,0c-5.1,0.2-10.1,1.7-14.4,4.5c-4.4,2.9-6.7,6.9-6.7,11.2v4.2c0,1.5,1.1,2.7,2.7,2.8h40.6
		c1.6-0.1,2.7-1.3,2.7-2.8v-4.2C74.4,62.4,72.1,58.4,67.7,55.5z"/>
</g>
</svg>
