<svg width="24" height="24" viewBox="0 0 24 24" fill="none" xmlns="http://www.w3.org/2000/svg" preserveAspectRatio="xMinYMid meet"><defs><style>.cls-1,.cls-2{fill:#000;stroke-width:0}.cls-2{fill:#fff}</style></defs><path class="cls-1" d="M8.2 8.5c0-.5.2-1 .3-1.4-.9.2-2.1-.3-2.1-1.6 0-.9.8-1.6 1.8-1.6.9 0 1.6.7 1.6 1.6.4-.1.9-.3 1.3-.4-.5-3.6-5.9-3.5-6.1.4 0 1.6 1.4 3 3.1 3zM13.6 11.6l-.6.3c.3 0 .6 0 .9.2 0-.2-.1-.3-.2-.4zM6.5 13.9H3.7v-.4c0-1.2 1.2-1.9 2.2-2.4.8-.3 1.6-.4 2.3-.4H9c-.3-.4-.6-.9-.7-1.4h-.6c-1.3 0-2.6.4-3.7 1.2-1.1.8-1.7 1.8-1.7 2.9v1.1c0 .4.3.7.7.7h2.7c.2-.5.4-.9.8-1.3z"/><path class="cls-1" d="M11.9 11.4c1.7 0 3-1.3 3-3-.2-4-5.9-4-6.1 0 0 1.6 1.4 3 3.1 3zm-1.7-3c0-.9.8-1.6 1.8-1.6.9 0 1.6.7 1.6 1.6-.1 2.2-3.3 2.2-3.4 0zM16.1 13.4c-1.1-.7-2.4-1.1-3.7-1.2h-1c-1.3 0-2.6.4-3.7 1.2-1.1.8-1.7 1.8-1.7 2.9v1.1c0 .4.3.7.7.7h10.5c.4 0 .7-.3.7-.7v-1.1c0-1.1-.6-2.2-1.7-2.9zm.4 3.4H7.3v-.4c0-1.2 1.2-1.9 2.2-2.4.8-.3 1.6-.4 2.3-.4s1.6.2 2.3.4c1 .4 2.2 1.1 2.2 2.4v.4z"/><path class="cls-2" d="M21.5 17.7c-.3-.5-.8-1-1.4-1.4-1-.6-2.2-1.1-3.4-1.2 1.4-.5 2.4-1.8 2.4-3.4-.1-2.4-1.9-3.5-3.6-3.5s-3.5 1.1-3.6 3.5c0 1.6 1.1 2.9 2.5 3.4-1.2.2-2.4.5-3.4 1.2-1.3.8-2 2-2 3.4v1.1c0 .3.1.5.3.8h12.2v-3.8zm-7.2-6c0-.6.6-1.1 1.2-1.1s1.1.5 1.1 1.1c0 .8-.6 1.1-1.2 1.1s-1.1-.3-1.2-1.1z"/><g><path class="cls-1" d="M15.5 14.7c1.7 0 3-1.3 3-3-.2-4-5.9-4-6.1 0 0 1.6 1.4 3 3.1 3zM19.8 16.7c-1.1-.7-2.4-1.1-3.7-1.2h-1c-1.3 0-2.6.4-3.7 1.2-1.1.8-1.7 1.8-1.7 2.9v1.1c0 .4.3.7.7.7h10.5c.4 0 .7-.3.7-.7v-1.1c0-1.1-.6-2.2-1.7-2.9z"/></g></svg>
