<svg xmlns="http://www.w3.org/2000/svg" viewBox="0 0 16 16" style="overflow:visible;enable-background:new 0 0 16 16"><path d="m8 0c-4.4 0-8 3.6-8 8 0 4.4 3.6 8 8 8 4.4 0 8-3.6 8-8 0-4.4-3.6-8-8-8m0 14c-3.3 0-6-2.7-6-6s2.7-6 6-6 6 2.7 6 6-2.7 6-6 6m-2.2-7.4c-.6 0-1-.4-1-1-.1-1.1 1.1-2.6 3.3-2.6 1.4 0 3.4 1 3.4 2.6 0 .8-.5 1.5-1.5 1.9-1.5.5-.7 1.6-2 1.6-.6 0-1-.3-1-.9 0-1.2 1.2-1.8 1.2-3 0-.3-.1-.7-.5-.7-.4 0-.4.4-.4.7-.1.9-.6 1.4-1.5 1.4m2.1 6.5c-.8 0-1.5-.7-1.5-1.5s.6-1.6 1.5-1.6c.8 0 1.5.7 1.5 1.5s-.7 1.6-1.5 1.6" style="fill:#999"/></svg>