<svg xmlns="http://www.w3.org/2000/svg" viewBox="0 0 16 16" style="overflow:visible;enable-background:new 0 0 16 16"><path d="m15.9 9.3c.1-.4.1-.9.1-1.3s0-.9-.1-1.3l-2.1-.4c-.1-.4-.3-.8-.5-1.2l1.2-1.8c-.5-.7-1.1-1.3-1.9-1.8l-1.8 1.2c-.4-.2-.8-.4-1.2-.5l-.3-2.1c-.4-.1-.9-.1-1.3-.1s-.9 0-1.3.1l-.4 2.1c-.4.2-.8.3-1.2.5l-1.7-1.2c-.8.5-1.4 1.1-1.9 1.9l1.2 1.8c-.2.3-.3.7-.5 1.1l-2.1.4c-.1.4-.1.9-.1 1.3 0 .4 0 .9.1 1.3l2.1.4c.1.4.3.8.5 1.2l-1.2 1.8c.5.7 1.1 1.3 1.9 1.8l1.8-1.2c.4.2.8.4 1.2.5l.4 2.1c.3.1.8.1 1.2.1s.9 0 1.3-.1l.4-2.1c.4-.1.8-.3 1.2-.5l1.8 1.2c.7-.5 1.3-1.1 1.9-1.9l-1.2-1.8c.2-.4.4-.8.5-1.2l2-.3m-7.9.7c-1.1 0-2-.9-2-2 0-1.1.9-2 2-2s2 .9 2 2c0 1.1-.9 2-2 2" style="fill:#999"/></svg>