<?xml version="1.0" encoding="iso-8859-1"?>
<!-- Generator: Adobe Illustrator 19.1.0, SVG Export Plug-In . SVG Version: 6.00 Build 0)  -->
<svg version="1.1" id="Capa_1" xmlns="http://www.w3.org/2000/svg" xmlns:xlink="http://www.w3.org/1999/xlink" x="0px" y="0px"
	 viewBox="-50 0 608 500" style="enable-background:new 100 0 608 500;" xml:space="preserve" preserveAspectRatio="xMinYMid meet">
<g>
	<path d="M394,196.1c0-11.9-9.7-21.6-21.6-21.6s-21.6,9.7-21.6,21.6c0,61.7-50.2,111.8-111.8,111.8
		s-111.8-50.2-111.8-111.8c0-11.9-9.7-21.6-21.6-21.6S84,184.2,84,196.1c0,78.2,58.1,143,133.4,153.5v85.2h-55.6
		c-11.9,0-21.6,9.7-21.6,21.6s9.7,21.6,21.6,21.6h154.5c11.9,0,21.6-9.7,21.6-21.6s-9.7-21.6-21.6-21.6h-55.6v-85.2
		C335.9,339.1,394,274.2,394,196.1z"/>

	<path d="M239,0L239,0c-46.4,0-84,37.6-84,84v110.7c0,46.4,37.6,84,84,84l0,0c46.4,0,84-37.6,84-84V84
		C323,37.6,285.4,0,239,0z M239.1,55.9c-15.1,0-27.4,12.3-27.4,27.4c0,6.9-5.6,12.5-12.5,12.5s-12.5-5.6-12.5-12.5
		c0-28.9,23.5-52.4,52.4-52.4c6.9,0,12.5,5.6,12.5,12.5S246,55.9,239.1,55.9z"/>
</g>
</svg>
