<?xml version="1.0" encoding="iso-8859-1"?>
<svg xmlns="http://www.w3.org/2000/svg" xmlns:xlink="http://www.w3.org/1999/xlink" width="18" height="18" viewBox="0 0 18 18" preserveAspectRatio="xMinYMid meet">
    <defs>
        <clipPath id="a">
            <rect width="18" height="18.07" transform="translate(0 0)" fill="none"/>
        </clipPath>
        <clipPath id="c">
            <rect width="18" height="18"/>
        </clipPath>
    </defs>
    <g id="b" clip-path="url(#c)">
        <g transform="translate(0 0)">
            <g clip-path="url(#a)">
                <path d="M17,0H1A1,1,0,0,0,0,1V13a1,1,0,0,0,1,1H8.15v2.07H6a1,1,0,0,0,0,2h6a1,1,0,0,0,0-2H10.15V14H17a1,1,0,0,0,1-1V1a1,1,0,0,0-1-1M16,12H2V2H16Z"/>
                <path d="M9,6A1,1,0,1,1,8,7,1,1,0,0,1,9,6M9,5a2,2,0,1,0,2,2A2,2,0,0,0,9,5"/>
                <path d="M4,6H3V4.5A1.5,1.5,0,0,1,4.5,3H6V4H4.5a.5.5,0,0,0-.5.5Z"/>
                <path d="M12,4V3h1.5A1.5,1.5,0,0,1,15,4.5V6H14V4.5a.5.5,0,0,0-.5-.5Z"/>
                <path d="M14,8h1V9.5A1.5,1.5,0,0,1,13.5,11H12V10h1.5a.5.5,0,0,0,.5-.5Z"/>
                <path d="M6,10v1H4.5A1.5,1.5,0,0,1,3,9.5V8H4V9.5a.5.5,0,0,0,.5.5Z"/>
            </g>
        </g>
    </g>
</svg>
