<?xml version="1.0" encoding="iso-8859-1"?>
<!-- Generator: Adobe Illustrator 19.0.0, SVG Export Plug-In . SVG Version: 6.00 Build 0)  -->
<svg version="1.1" id="Layer_1" xmlns="http://www.w3.org/2000/svg" xmlns:xlink="http://www.w3.org/1999/xlink" x="0px" y="0px"
	 viewBox="0 0 458.317 458.317" style="enable-background:new 0 0 458.317 458.317;" xml:space="preserve" preserveAspectRatio="xMinYMid meet">
<g>
	<g>
		<path d="M450.237,109.509c-4.964-2.582-10.953-2.187-15.534,1.026l-68.72,48.19V98.933c0-18.121-14.743-32.864-32.865-32.864
			H32.865C14.743,66.068,0,80.811,0,98.933v260.452c0,18.121,14.743,32.864,32.865,32.864h300.254
			c18.122,0,32.865-14.743,32.865-32.864V299.59l68.72,48.191c4.573,3.206,10.561,3.613,15.534,1.026
			c4.964-2.582,8.079-7.712,8.079-13.308V122.816C458.315,117.222,455.201,112.092,450.237,109.509z M95.621,125.816
			c20.745,0,37.622,16.877,37.622,37.622s-16.877,37.623-37.622,37.623s-37.623-16.878-37.623-37.623S74.875,125.816,95.621,125.816
			z M297.095,326.817H68.889c-8.284,0-15-6.716-15-15s6.716-15,15-15h228.206c8.284,0,15,6.716,15,15
			S305.379,326.817,297.095,326.817z"/>
	</g>
</g>
<g>
</g>
<g>
</g>
<g>
</g>
<g>
</g>
<g>
</g>
<g>
</g>
<g>
</g>
<g>
</g>
<g>
</g>
<g>
</g>
<g>
</g>
<g>
</g>
<g>
</g>
<g>
</g>
<g>
</g>
</svg>
