<!DOCTYPE svg PUBLIC "-//W3C//DTD SVG 1.1//EN" "http://www.w3.org/Graphics/SVG/1.1/DTD/svg11.dtd" [
	<!ENTITY ns_flows "http://ns.adobe.com/Flows/1.0/">
]><svg xmlns="http://www.w3.org/2000/svg" width="24" height="24" viewBox="0 0 24 24" preserveAspectRatio="xMinYMid meet" overflow="visible"><linearGradient id="a" gradientUnits="userSpaceOnUse" x1="11.985" x2="11.985" y2="24.016"><stop offset="0" stop-color="#F0A829"/><stop offset="1" stop-color="#C7671A"/></linearGradient><path d="M14.4 0L.6 13.9c-.8.8-.8 2.1 0 2.8l6.7 6.7c.8.8 2 .8 2.8 0L24 9.6V0h-9.6z" fill="url(#a)"/><linearGradient id="b" gradientUnits="userSpaceOnUse" x1="11.985" y1="1" x2="11.985" y2="23.016"><stop offset="0" stop-color="#FFEBA8"/><stop offset="1" stop-color="#F8BE27"/></linearGradient><path d="M8.7 23c-.3 0-.5-.1-.7-.3L1.3 16c-.2-.2-.3-.4-.3-.7 0-.3.1-.5.3-.7L14.9 1H23v8.2L9.4 22.7c-.2.2-.4.3-.7.3z" fill="url(#b)"/><linearGradient id="c" gradientUnits="userSpaceOnUse" x1="11.984" y1="2" x2="11.984" y2="22.014"><stop offset="0" stop-color="#FFC30F"/><stop offset="1" stop-color="#F5AE0D"/></linearGradient><path fill="url(#c)" d="M2 15.3L15.3 2H22v6.8L8.7 22"/><linearGradient id="d" gradientUnits="userSpaceOnUse" x1="8.72" y1="9.969" x2="8.72" y2="20.631"><stop offset="0" stop-color="#76A1F0"/><stop offset="1" stop-color="#6B90D5"/></linearGradient><path fill="url(#d)" d="M3.4 15.3L8.7 10l5.4 5.3-5.4 5.3"/><linearGradient id="e" gradientUnits="userSpaceOnUse" x1="11.146" y1="22.031" x2="11.146" y2="23.871" gradientTransform="rotate(-45 2.915 21.135)"><stop offset="0" stop-color="#57C3F6"/><stop offset=".165" stop-color="#83D3F8"/><stop offset=".355" stop-color="#AFE3FB"/><stop offset=".54" stop-color="#D2EFFD"/><stop offset=".713" stop-color="#EBF8FE"/><stop offset=".871" stop-color="#FAFDFF"/><stop offset="1" stop-color="#FFF"/></linearGradient><path fill="url(#e)" d="M7.4 17.9l1.3 1.3 3.9-3.9-1.3-1.3"/><path d="M12.6 15.3l-.3-.3c-.3.2-.8.5-1.4 1.1-1.1.9-1 .5-2 .9-.4.2-.9.6-1.4 1l1.2 1.2 3.9-3.9z" fill="#F2EFD5"/><linearGradient id="f" gradientUnits="userSpaceOnUse" x1="8.388" y1="23.104" x2="13.904" y2="23.104" gradientTransform="rotate(-45 2.915 21.135)"><stop offset="0" stop-color="#F8E5B5"/><stop offset="1" stop-color="#F9E5B6"/></linearGradient><path d="M12.6 15.3l-.2-.2c-.4.2-.6.6-1.3 1.2-1.1.9-1.1.3-2.1.7-.4.2-.9.6-1.3 1.1l1.1 1.1 3.8-3.9z" fill="url(#f)"/><linearGradient id="g" gradientUnits="userSpaceOnUse" x1="12.171" y1="17.657" x2="10.12" y2="22.732" gradientTransform="rotate(-45 2.915 21.135)"><stop offset="0" stop-color="#57C3F6"/><stop offset=".005" stop-color="#59C4F6"/><stop offset=".124" stop-color="#85D3F8"/><stop offset=".247" stop-color="#AAE1FA"/><stop offset=".376" stop-color="#C9ECFC"/><stop offset=".51" stop-color="#E1F4FD"/><stop offset=".652" stop-color="#F2FAFE"/><stop offset=".807" stop-color="#FCFEFF"/><stop offset="1" stop-color="#FFF"/></linearGradient><path fill="url(#g)" d="M4.8 15.3l2.6 2.6 3.9-3.9-2.6-2.6"/><path d="M9 11.6c-.3.2-.3.4-.3.4s-.4-.1-.6.4c-.1.4.3.5.3.5l-.1.1c0 .1.1.1.1.1s-.2.1-.1.4c.1.3.3.3.3.3s-.1.5.4.6c.4.1.5-.3.5-.3s.3 0 .6-.2.4-.5.4-.5h.2L9 11.6zM7.9 14.5s-.1 0-.2.1c0 .1.1.2.1.2s-.1 0 0 .1c0 .1.1.1.1.1s0 .1.1.2c.1 0 .1-.1.1-.1h.2l.1-.1s.1 0 .1-.1v-.2s.2 0 .1-.2c-.1-.1-.2 0-.2 0l-.1-.1c-.1 0-.1.1-.1.1h-.1s-.1-.2-.2-.2c-.1.1 0 .2 0 .2zM19.6 8.4l-5.5 5.5-.7-.7 5.5-5.5.7.7zm-2.1-2.1L12 11.8l.7.7L18.2 7l-.7-.7zm-1.4-1.4l-5.5 5.5.7.7 5.5-5.5-.7-.7z" fill="#FFF"/><ellipse cx="19.7" cy="4.3" rx="1.3" ry="1.3" fill="#FFF"/></svg>