<?xml version="1.0" encoding="utf-8"?>
<!-- Generator: Adobe Illustrator 15.1.0, SVG Export Plug-In  -->
<!DOCTYPE svg PUBLIC "-//W3C//DTD SVG 1.1//EN" "http://www.w3.org/Graphics/SVG/1.1/DTD/svg11.dtd" [
	<!ENTITY ns_flows "http://ns.adobe.com/Flows/1.0/">
]>
<svg version="1.1"
	 xmlns="http://www.w3.org/2000/svg" xmlns:xlink="http://www.w3.org/1999/xlink" xmlns:a="http://ns.adobe.com/AdobeSVGViewerExtensions/3.0/"
	 x="0px" y="0px" width="24px" height="24px" viewBox="0 0 24 24" style="overflow:visible;enable-background:new 0 0 24 24;"
	 xml:space="preserve" preserveAspectRatio="xMinYMid meet">
<defs>
</defs>
<linearGradient id="SVGID_1_" gradientUnits="userSpaceOnUse" x1="11.9653" y1="0" x2="11.9653" y2="24.0005">
	<stop  offset="0" style="stop-color:#95BFF8"/>
	<stop  offset="0.5569" style="stop-color:#84ADEF"/>
	<stop  offset="1" style="stop-color:#7CA4EB"/>
	<a:midPointStop  offset="0" style="stop-color:#95BFF8"/>
	<a:midPointStop  offset="0.4" style="stop-color:#95BFF8"/>
	<a:midPointStop  offset="1" style="stop-color:#7CA4EB"/>
</linearGradient>
<polygon style="fill:url(#SVGID_1_);" points="14.4,0 13.4,0 3,0 2,0 2,24 3,24 21,24 22,24 22,7.9 "/>
<linearGradient id="SVGID_2_" gradientUnits="userSpaceOnUse" x1="11.9653" y1="1" x2="11.9653" y2="23.0005">
	<stop  offset="0" style="stop-color:#E7F4FC"/>
	<stop  offset="1" style="stop-color:#DEEFFC"/>
	<a:midPointStop  offset="0" style="stop-color:#E7F4FC"/>
	<a:midPointStop  offset="0.5" style="stop-color:#E7F4FC"/>
	<a:midPointStop  offset="1" style="stop-color:#DEEFFC"/>
</linearGradient>
<polygon style="fill:url(#SVGID_2_);" points="14,1 13,1 4,1 3,1 3,23 4,23 20,23 21,23 21,8.3 "/>
<linearGradient id="SVGID_3_" gradientUnits="userSpaceOnUse" x1="11.9653" y1="2" x2="11.9653" y2="22.0005">
	<stop  offset="0" style="stop-color:#CEE9F9"/>
	<stop  offset="1" style="stop-color:#BBDFF8"/>
	<a:midPointStop  offset="0" style="stop-color:#CEE9F9"/>
	<a:midPointStop  offset="0.5" style="stop-color:#CEE9F9"/>
	<a:midPointStop  offset="1" style="stop-color:#BBDFF8"/>
</linearGradient>
<polygon style="fill:url(#SVGID_3_);" points="13.6,2 12.6,2 5,2 4,2 4,22 5,22 19,22 20,22 20,8.7 "/>
<linearGradient id="SVGID_4_" gradientUnits="userSpaceOnUse" x1="17.2109" y1="0" x2="17.2109" y2="9.3594">
	<stop  offset="0" style="stop-color:#95BFF8"/>
	<stop  offset="0.5569" style="stop-color:#84ADEF"/>
	<stop  offset="1" style="stop-color:#7CA4EB"/>
	<a:midPointStop  offset="0" style="stop-color:#95BFF8"/>
	<a:midPointStop  offset="0.4" style="stop-color:#95BFF8"/>
	<a:midPointStop  offset="1" style="stop-color:#7CA4EB"/>
</linearGradient>
<path style="fill:url(#SVGID_4_);" d="M13,9c0,0,5.2-1.5,9,0.4c0-0.1,0-1.5,0-1.5L14.4,0c0,0-1.8,0-2,0C15.1,3.7,13,9,13,9z"/>
<linearGradient id="SVGID_5_" gradientUnits="userSpaceOnUse" x1="14.2881" y1="7.5449" x2="17.4162" y2="4.4168">
	<stop  offset="0" style="stop-color:#E7F4FC"/>
	<stop  offset="0.5181" style="stop-color:#E5F3FC"/>
	<stop  offset="0.7045" style="stop-color:#DEF0FB"/>
	<stop  offset="0.8371" style="stop-color:#D3EBFA"/>
	<stop  offset="0.872" style="stop-color:#CEE9F9"/>
	<stop  offset="1" style="stop-color:#BDD8F0"/>
	<a:midPointStop  offset="0" style="stop-color:#E7F4FC"/>
	<a:midPointStop  offset="0.87" style="stop-color:#E7F4FC"/>
	<a:midPointStop  offset="0.872" style="stop-color:#CEE9F9"/>
	<a:midPointStop  offset="0.5" style="stop-color:#CEE9F9"/>
	<a:midPointStop  offset="1" style="stop-color:#BDD8F0"/>
</linearGradient>
<path style="fill:url(#SVGID_5_);" d="M20.5,7.8c-0.9-0.2-2-0.3-3.1-0.3c-1.1,0-2.1,0.1-3,0.3c0.4-1.6,0.7-4.1-0.2-6.4L20.5,7.8z"/>
<radialGradient id="SVGID_6_" cx="7.5312" cy="16.5" r="7.0005" gradientUnits="userSpaceOnUse">
	<stop  offset="0" style="stop-color:#8BB4F0"/>
	<stop  offset="7.721406e-02" style="stop-color:#88B1EF"/>
	<stop  offset="0.488" style="stop-color:#7FA7EC"/>
	<stop  offset="1" style="stop-color:#7CA4EB"/>
	<a:midPointStop  offset="0" style="stop-color:#8BB4F0"/>
	<a:midPointStop  offset="0.25" style="stop-color:#8BB4F0"/>
	<a:midPointStop  offset="1" style="stop-color:#7CA4EB"/>
</radialGradient>
<path style="fill:url(#SVGID_6_);" d="M7.5,23.5C0.4,23.2-1.6,15.1,3,11.2c1.8-1.6,3.8-1.7,4.6-1.7c0.4,0,0.8,0,1.1,0.1
	C9,9.6,9.4,9.7,9.7,9.8c0.3,0.1,0.7,0.3,1,0.4c0.3,0.2,0.6,0.4,0.9,0.6c0.3,0.2,0.6,0.4,0.8,0.7c0.3,0.3,0.5,0.5,0.7,0.8
	c0.2,0.3,0.4,0.6,0.6,0.9c0.2,0.3,0.3,0.7,0.4,1c0.1,0.3,0.2,0.7,0.3,1.1c0.1,0.4,0.1,0.8,0.1,1.1s0,0.8-0.1,1.1
	c-0.1,0.4-0.1,0.7-0.3,1.1c-0.1,0.3-0.3,0.7-0.4,1c-0.2,0.3-0.4,0.6-0.6,0.9c-0.2,0.3-0.4,0.6-0.7,0.8c-0.3,0.3-0.5,0.5-0.8,0.7
	c-0.3,0.2-0.6,0.4-0.9,0.6c-0.3,0.2-0.7,0.3-1,0.4c-0.3,0.1-0.7,0.2-1.1,0.3C8.3,23.5,7.9,23.5,7.5,23.5"/>
<radialGradient id="SVGID_7_" cx="7.5308" cy="16.5" r="6.4856" gradientUnits="userSpaceOnUse">
	<stop  offset="0" style="stop-color:#8BB4F0"/>
	<stop  offset="7.721406e-02" style="stop-color:#88B1EF"/>
	<stop  offset="0.488" style="stop-color:#7FA7EC"/>
	<stop  offset="1" style="stop-color:#7CA4EB"/>
	<a:midPointStop  offset="0" style="stop-color:#8BB4F0"/>
	<a:midPointStop  offset="0.25" style="stop-color:#8BB4F0"/>
	<a:midPointStop  offset="1" style="stop-color:#7CA4EB"/>
</radialGradient>
<path style="fill:url(#SVGID_7_);" d="M7.5,23C1,22.7-0.9,15.2,3.3,11.6C5,10.1,6.8,10,7.5,10c0.4,0,0.7,0,1.1,0.1
	c0.3,0.1,0.7,0.1,1,0.2s0.6,0.2,0.9,0.4c0.3,0.2,0.6,0.3,0.9,0.5c0.3,0.2,0.5,0.4,0.8,0.6c0.2,0.2,0.5,0.5,0.6,0.8
	c0.2,0.3,0.4,0.6,0.5,0.9s0.3,0.6,0.4,0.9s0.2,0.7,0.2,1c0.1,0.3,0.1,0.7,0.1,1.1c0,0.4,0,0.7-0.1,1.1c-0.1,0.3-0.1,0.7-0.2,1
	s-0.2,0.6-0.4,0.9s-0.3,0.6-0.5,0.9s-0.4,0.5-0.6,0.8s-0.5,0.5-0.8,0.6c-0.3,0.2-0.6,0.4-0.9,0.5c-0.3,0.2-0.6,0.3-0.9,0.4
	s-0.7,0.2-1,0.2C8.2,23,7.9,23,7.5,23"/>
<path style="fill:#B3E710;" d="M6.1,10.8L6.1,10.8c0-0.1,0-0.1,0-0.1c0,0,0,0,0,0c0,0,0,0,0,0C6.1,10.7,6,10.7,6.1,10.8
	c-0.1-0.1-0.1,0-0.2,0C5.9,10.7,6,10.8,6.1,10.8C6,10.8,6.1,10.8,6.1,10.8 M3,13c0,0,2,0,3.6,0c0,0,0.4-0.1,0.4-0.1l0,0v0l0,0v0v0
	l0,0v0l0,0c0-0.1-0.3-0.1-0.4-0.1c0-0.1-0.2-0.2-0.1-0.4c0,0-0.1,0-0.1,0c-0.1-0.1-0.3-0.1-0.4-0.1c-0.1,0-0.2-0.1-0.3-0.2
	c-0.1,0-0.1,0-0.2,0c0,0,0,0,0,0C5.6,12,5.6,12,5.4,11.9c0-0.2,0.2-0.3,0.4-0.5c0,0,0,0,0,0c0,0,0,0,0,0l0,0c0,0,0.1,0,0.1,0
	c0,0,0,0,0,0c0,0,0,0-0.1-0.1c0,0,0,0,0,0v0c0,0,0.1,0.1,0.2,0c0,0,0,0,0-0.1c0.1,0,0.1,0,0.2-0.1c0,0,0,0,0,0
	c-0.1,0-0.1-0.1-0.2-0.1c0.1,0,0.1,0,0.2,0.1c0,0,0.1,0,0.2-0.1c0,0,0,0,0,0c0,0,0,0,0,0l0,0c0,0,0.1,0,0.1,0c0,0,0,0,0,0
	c0,0,0.1,0,0.1,0c0,0,0,0,0-0.1l0,0c0,0,0,0.1,0.1,0.1c0.1-0.1,0.1-0.1,0.2-0.1c0-0.1,0-0.1,0-0.1c0,0,0,0,0,0c0,0,0,0,0,0
	c0,0,0,0,0-0.1c-0.1,0-0.1-0.1-0.2,0c0,0,0,0,0,0c0,0,0,0,0,0c0,0-0.2,0.2-0.2,0.2c-0.1,0,0-0.1,0-0.1c0.1,0,0.1,0,0-0.1
	c-0.1,0-0.1,0.1-0.1,0.1c0,0,0-0.1,0-0.1c0,0,0,0,0,0c0,0,0,0-0.1,0c0,0,0,0,0.1-0.1c0,0,0-0.1,0-0.1c0,0,0,0,0,0
	c-0.1,0-0.2,0.1-0.2,0.1c0,0,0,0,0,0c-0.1,0-0.1,0-0.1,0.1c0,0,0,0,0.1,0c0,0,0,0,0,0c0,0,0,0,0,0c0,0,0,0,0,0c0,0,0,0,0,0
	c0,0,0,0,0,0c0,0,0,0,0,0c0,0,0,0,0,0c0,0,0,0,0,0s0,0,0,0c0,0,0,0,0,0c0,0,0,0,0,0c0,0,0,0-0.1,0c0,0,0,0,0,0c0,0,0,0,0,0
	c0,0,0,0,0,0l-0.3,0.2c0,0,0,0,0,0c0,0,0,0,0.1-0.1c0,0-0.1,0-0.1,0c0,0,0,0,0,0c0,0,0,0,0,0c0,0,0,0,0,0h0l0,0l0,0h0l0,0l0,0
	c0,0,0,0,0,0c0,0,0,0,0,0c0,0,0,0,0,0c-0.1,0-0.1,0-0.3,0h0l0,0c0,0,0,0,0,0h0l0,0c0,0,0,0,0,0h0l0,0c-0.2,0.1-0.2,0.1-0.3,0.2
	c0-0.1,0-0.1,0.1-0.1c0,0,0,0,0,0c0,0,0,0,0,0c-0.1,0-0.2,0-0.2,0c0.1,0,0.1,0,0.2-0.1c-0.1,0-0.1,0-0.1-0.1c-0.1,0-0.1,0-0.1,0
	c0,0,0,0,0.1,0c0,0-0.1,0-0.1,0c0,0,0,0,0.1-0.1c0,0-0.3,0.1-0.5,0.2c0,0,0,0,0.1,0c0.1,0,0.2,0.1,0.3,0c0,0-0.1,0.2-0.1,0.2
	c0,0,0,0,0,0c-0.1,0-0.1,0-0.1,0c-0.1,0-0.1,0-0.1,0c0,0,0.4,0,0.4,0v-0.1c0-0.1-0.1-0.2,0-0.2c0,0-0.1,0-0.1,0c0,0,0,0,0-0.1
	c-0.1,0-0.2,0.1-0.3,0.1c-0.3,0.1-0.6,0.4-0.9,0.5c-0.1,0.1-0.3,0.2-0.4,0.3c0,0,0,0-0.1,0l0,0L3,11.8l0,0c0.1-0.1,0.1-0.1,0.2-0.2
	c0,0,0,0,0,0c0,0-0.1,0.1-0.1,0.1c0,0,0,0,0,0c0,0,0,0,0,0.1c0,0,0,0,0,0c0,0,0,0,0,0c0,0,0,0,0,0c0,0,0,0,0,0
	c0,0.1-0.1,0.1-0.1,0.2c0,0,0,0,0,0c0,0,0,0,0,0c0,0,0,0,0,0c0,0,0,0,0,0c0,0,0,0,0,0.1c0,0,0,0,0,0c0,0,0.1,0,0.1,0
	c0,0,0,0.1,0,0.1c0,0,0,0,0,0c-0.1,0-0.1,0-0.1,0.1l0,0C3,12.2,3,12.2,2.9,12.3c0,0,0,0,0,0v0c0,0.1-0.1,0.1-0.1,0.1c0,0,0,0,0.1,0
	l0,0c0,0.1-0.1,0.1-0.1,0.2c0,0,0,0.2,0,0.2c0,0,0,0.3-0.1,0.3c0,0,0,0,0,0c0,0,0,0,0,0c0,0,0,0,0,0c0,0,0,0,0,0c0,0,0,0,0,0
	c0,0,0,0,0,0c0,0,0,0,0,0h0c0,0,0-0.1,0-0.1c0,0,0-0.1,0-0.1c0,0,0,0-0.1,0c0,0,0,0,0,0c0,0,0,0,0,0c0,0,0,0-0.1,0.1c0,0,0,0,0,0
	c0,0,0,0,0,0 M8.3,10.4C8.3,10.4,8.3,10.4,8.3,10.4L8.3,10.4C8.3,10.4,8.3,10.4,8.3,10.4C8.3,10.4,8.3,10.4,8.3,10.4 M8.3,10.4
	c0,0-0.1-0.1-0.1-0.1c0,0,0,0,0,0c0,0,0,0,0,0c0,0,0,0,0,0l0,0c0,0,0,0,0,0c0,0,0,0,0,0c0,0,0,0,0,0l0,0C8.2,10.4,8.2,10.4,8.3,10.4
	C8.2,10.4,8.2,10.4,8.3,10.4L8.3,10.4L8.3,10.4L8.3,10.4C8.2,10.5,8.2,10.5,8.3,10.4C8.2,10.5,8.2,10.5,8.3,10.4
	C8.2,10.5,8.3,10.5,8.3,10.4C8.3,10.4,8.3,10.4,8.3,10.4 M5.9,10.7L5.9,10.7C6,10.6,6,10.6,5.9,10.7c0-0.1,0-0.1,0-0.1
	c0,0,0,0,0.1-0.1c0,0,0.1-0.1,0.1-0.1c0,0,0,0,0,0c0,0,0,0,0,0c0,0,0,0,0,0c-0.1,0-0.1,0.1-0.2,0.1c0,0,0,0,0.1-0.1c0,0,0,0,0,0
	c0,0,0,0,0,0c0,0,0,0,0,0c-0.1,0.1-0.1,0.1-0.1,0.1c0.1,0,0.1,0,0.1,0c0,0-0.1,0-0.1,0c0,0,0.1,0,0.1-0.1c0,0-0.3,0.1-0.4,0.1
	c0,0,0,0,0,0c0,0,0,0,0,0c0,0,0,0,0.1,0c0,0,0,0,0,0l0,0c0,0,0,0,0,0c0,0-0.1,0-0.1,0c0,0,0,0,0.1,0c0.1,0,0.1,0,0.1,0
	c-0.1,0-0.1,0-0.2,0c0,0,0,0,0,0c0,0,0,0,0,0c0,0,0,0,0,0c0,0,0,0,0,0c0,0,0,0,0,0c0,0,0,0,0,0c0,0,0,0,0,0c0,0,0,0,0,0c0,0,0,0,0,0
	c0,0,0,0,0,0c0,0,0,0,0,0.1c0,0,0,0,0,0c0,0,0,0,0,0c0,0-0.1,0-0.1,0.1c0,0,0.1,0,0.2,0c0,0,0,0,0,0c0,0,0.1,0,0.1,0c0,0,0,0,0.1,0
	c0,0,0,0,0,0c0,0.1,0.1,0.1,0.1,0.1C5.8,10.7,5.8,10.7,5.9,10.7c-0.1,0-0.1,0-0.1,0c0,0,0,0,0,0C5.8,10.7,5.9,10.7,5.9,10.7
	C5.9,10.7,5.9,10.7,5.9,10.7 M8.2,11L8.2,11C8.2,11,8.2,11,8.2,11c-0.1,0-0.1,0-0.1,0c0,0,0,0,0,0c0,0-0.1,0-0.1,0c0,0,0,0,0,0
	c0,0,0,0,0,0c0,0,0,0,0,0c0,0,0,0,0,0s0,0,0,0c0,0,0,0,0,0c0,0,0,0,0,0c0,0,0,0,0,0c0,0,0,0,0,0c0,0,0,0,0,0c0,0-0.1-0.1-0.1-0.1
	c0,0-0.1,0-0.1,0c0-0.1-0.1,0-0.1-0.1c0,0,0,0,0,0c0,0,0,0,0,0c0,0,0,0,0,0v0l0,0c0,0,0.1,0,0.1,0c0,0-0.1,0-0.1-0.1c0,0,0,0,0.1,0
	c0,0,0,0-0.1,0c0,0,0,0-0.1,0c0,0,0,0,0,0l0,0c0,0,0,0,0.1,0c0,0-0.1,0-0.1,0c0,0,0,0-0.1,0c0,0,0,0,0,0v0c0,0,0,0-0.1,0
	c0,0,0,0,0,0c0,0,0,0,0,0c0,0,0,0-0.1,0l0,0c0,0,0,0,0.1,0c0,0,0,0,0,0c-0.1-0.1-0.1-0.1-0.1-0.1c0,0,0,0.1-0.1,0.1c0,0,0,0,0,0
	c0,0,0,0,0,0c0,0,0,0,0,0c0,0,0,0-0.1,0c0,0,0,0,0,0c0,0,0,0,0,0c0,0,0,0,0,0c0,0,0,0,0,0c0,0,0,0,0,0s0,0,0,0c0,0,0,0,0,0
	c0,0,0,0,0,0c0,0,0,0,0.1,0c0,0,0-0.1-0.2,0c0,0,0,0,0,0c-0.1,0-0.1,0-0.1,0c0,0,0,0,0,0c0,0,0,0-0.1,0c0,0,0,0,0,0c0,0,0,0-0.1,0
	c0,0,0,0,0,0c0,0,0,0,0,0c0-0.1,0-0.1,0-0.1c0,0,0,0,0,0c0,0,0.1-0.1,0.1-0.1c0,0,0,0-0.1,0c-0.1,0-0.2,0.1-0.2,0.1c0,0,0,0,0,0
	c0,0-0.1,0-0.1,0.1c0.1,0,0.1,0,0.1,0c0,0-0.1,0-0.1,0c0,0.1,0.1,0.1,0.1,0.1c0,0,0,0,0,0c0,0,0,0,0,0c0,0,0,0,0,0c0,0,0,0,0,0
	c0,0,0,0,0,0c0,0,0,0,0,0s0,0,0,0c0,0,0,0,0,0s0,0,0,0c0,0,0,0,0,0c0,0,0,0,0,0s0,0,0,0c0,0,0,0,0,0c0,0,0.1,0,0.1,0c0,0,0,0,0,0
	c0,0,0,0,0,0l0,0c0,0,0,0,0,0c0.1,0,0.1,0,0.1,0c0,0-0.1,0-0.1,0l0,0c0,0,0,0,0.1,0c0,0,0.1,0,0.1,0.1c0,0,0,0,0,0c0,0,0,0,0.1,0.1
	c0,0,0,0,0,0c0,0,0,0-0.1,0c0,0,0,0,0,0c0,0,0,0,0,0c0,0,0,0,0.1,0c0,0,0,0,0,0c0,0,0,0,0,0s0,0,0,0s0,0,0,0s0,0,0,0s0,0,0,0
	s0,0,0,0c0,0,0,0,0,0c0,0,0,0,0,0c0,0,0,0,0,0c0,0,0.1,0,0.1,0c0,0,0,0.1,0,0.1c0,0-0.1,0.1-0.1,0.1c0,0,0,0-0.1,0
	c0,0,0.1,0,0.1,0.1c0,0,0,0,0,0c0,0-0.1,0-0.1,0c0,0,0,0,0,0h0c-0.1-0.1-0.1,0-0.1,0c0,0,0,0,0,0c-0.1,0-0.1,0-0.1,0.1
	c0.1,0,0.2,0,0.2,0c0,0,0.1,0,0.1,0c0,0,0,0,0,0c0,0,0,0,0,0c0,0,0.1,0,0.1,0c0,0,0,0,0,0h0c0,0,0,0,0,0l0,0h0h0h0l0,0
	c0,0,0,0,0.1,0.1c0,0,0,0,0,0c0,0.1,0.1,0,0.1,0.1c0,0,0.1,0,0.1,0.1c0.1,0,0.1,0,0.2,0c0,0,0,0,0,0c0-0.1-0.1-0.1-0.2-0.1
	c-0.1,0-0.1,0-0.1-0.1c0,0,0.1,0,0.1,0c0,0,0,0,0,0c0,0,0.1,0.1,0.1,0.1c0,0,0,0,0,0c0,0,0,0,0.1,0c0,0,0.1,0,0.1,0.1c0,0,0,0,0-0.1
	c0,0,0,0,0,0c0,0,0,0,0,0c0,0-0.1-0.1-0.1-0.1c0,0,0,0.1,0.1,0.1c0,0,0,0-0.1-0.1c0,0,0,0,0,0l0,0c0,0,0,0,0,0c0,0-0.1,0-0.1-0.1
	c0,0,0,0,0,0l0,0c0,0,0-0.1-0.1-0.1c0,0,0,0,0,0c0,0,0,0,0-0.1c0.1,0,0.1,0,0.1,0c0,0,0,0,0,0c0,0,0,0,0,0C7.9,11,7.9,11,8,11.1
	c0,0,0,0.1,0.1,0c0,0.1,0,0.1,0.1,0.1c0,0,0,0,0,0c0,0,0,0,0-0.1c0,0,0,0,0,0c0,0,0,0,0,0C8.2,11.1,8.2,11.1,8.2,11
	C8.2,11,8.2,11,8.2,11C8.2,11,8.2,11,8.2,11C8.2,11,8.2,11,8.2,11 M6.4,10.4L6.4,10.4C6.5,10.4,6.4,10.4,6.4,10.4
	C6.4,10.4,6.4,10.4,6.4,10.4c0-0.1,0.1-0.1,0.1-0.1c0,0,0,0,0,0c0,0,0,0,0,0c0,0,0,0,0,0c0,0,0,0-0.1,0c0,0,0,0,0,0c0,0-0.1,0-0.1,0
	l0,0L6.4,10.4C6.4,10.4,6.4,10.4,6.4,10.4c-0.1-0.1-0.1,0-0.1,0c0,0,0,0,0,0c-0.1,0-0.1,0.1-0.1,0.1c0,0,0,0,0,0.1c0,0,0,0,0.1,0
	c0,0,0,0,0,0c0,0,0,0,0,0C6.3,10.5,6.3,10.5,6.4,10.4C6.3,10.5,6.4,10.5,6.4,10.4 M8.1,10.3C8.1,10.3,8.1,10.3,8.1,10.3
	C8.1,10.3,8.1,10.3,8.1,10.3C8.1,10.3,8.1,10.3,8.1,10.3C8.1,10.3,8.1,10.3,8.1,10.3 M6.8,10.3C6.8,10.3,6.8,10.3,6.8,10.3
	C6.8,10.3,6.8,10.3,6.8,10.3C6.8,10.3,6.8,10.3,6.8,10.3C6.8,10.3,6.7,10.3,6.8,10.3C6.7,10.3,6.7,10.3,6.8,10.3c-0.1,0-0.1,0-0.2,0
	c0,0,0,0-0.1,0c0,0,0,0.1-0.1,0.1c0,0,0,0,0.1,0c0,0,0,0,0,0c0,0,0.1,0,0.1,0C6.6,10.4,6.8,10.3,6.8,10.3 M8.1,10.3
	C8.1,10.3,8.1,10.3,8.1,10.3L8.1,10.3C8.1,10.3,8.1,10.3,8.1,10.3L8.1,10.3 M5.9,10.3L5.9,10.3C6,10.3,6,10.3,5.9,10.3
	C6,10.3,6,10.3,5.9,10.3C6,10.3,6,10.3,5.9,10.3C6,10.3,6,10.3,5.9,10.3C6,10.3,6,10.3,5.9,10.3C6,10.3,5.9,10.3,5.9,10.3
	c-0.1,0-0.1,0-0.2,0c-0.1,0-0.1,0-0.2,0.1l0,0l0,0l0,0h0l0,0l0,0l0,0l0,0c0,0-0.1,0-0.1,0.1c0,0,0,0-0.1,0c0,0,0,0,0,0c0,0,0,0,0,0
	c0,0,0,0,0,0c0,0-0.1,0-0.1,0.1c0,0,0,0,0,0c0,0,0,0,0,0c0,0,0.1,0,0.1,0c0.1,0,0.1-0.1,0.2-0.1c0,0,0.1,0,0.1,0
	C5.8,10.4,5.9,10.4,5.9,10.3 M7.9,10.2C7.9,10.2,7.9,10.2,7.9,10.2C7.9,10.2,7.9,10.2,7.9,10.2C7.9,10.2,7.9,10.2,7.9,10.2
	C7.9,10.2,7.9,10.2,7.9,10.2 M7.2,10.2L7.2,10.2C7.2,10.2,7.2,10.2,7.2,10.2C7.2,10.2,7.2,10.2,7.2,10.2C7.2,10.2,7.2,10.2,7.2,10.2
	c-0.1,0-0.1,0-0.2,0c0,0,0,0,0,0c0,0,0,0,0,0c0,0,0,0,0,0c0,0,0,0,0,0c0,0,0,0,0,0c0,0,0,0,0.1,0c0,0,0,0,0,0c0,0,0,0,0,0
	c0,0,0,0,0,0c0,0,0,0,0,0c0,0,0,0,0,0c0,0,0,0,0,0c0,0,0,0,0,0s0,0,0,0c0,0,0,0,0,0c0,0,0,0,0,0c0,0-0.1,0.1-0.1,0.1c0,0,0,0,0,0
	c0,0,0,0,0,0c0,0,0,0,0,0c0,0,0,0,0,0c0,0,0,0,0,0c0,0,0,0,0,0c0.1,0,0.1,0,0.1,0c0,0,0,0,0.1,0c0,0,0,0,0,0c0,0,0,0,0,0
	c0,0,0,0,0,0C7.1,10.3,7.1,10.3,7.2,10.2C7.2,10.2,7.2,10.2,7.2,10.2 M6.8,10.2C6.8,10.1,6.8,10.1,6.8,10.2
	C6.8,10.1,6.8,10.1,6.8,10.2C6.8,10.1,6.8,10.1,6.8,10.2C6.8,10.2,6.8,10.2,6.8,10.2C6.8,10.1,6.8,10.1,6.8,10.2
	C6.8,10.1,6.8,10.1,6.8,10.2C6.8,10.1,6.8,10.1,6.8,10.2C6.8,10.2,6.7,10.2,6.8,10.2L6.8,10.2C6.7,10.2,6.7,10.2,6.8,10.2
	C6.7,10.1,6.7,10.2,6.8,10.2C6.7,10.2,6.7,10.2,6.8,10.2c-0.1,0-0.1,0-0.1,0c0,0,0,0,0,0s0,0,0,0s0,0,0,0c0,0,0,0,0,0s0,0,0,0
	s0,0,0,0s0,0,0,0s0,0,0,0c0,0,0,0,0,0C6.6,10.2,6.7,10.2,6.8,10.2C6.7,10.2,6.7,10.2,6.8,10.2c-0.1,0-0.1,0-0.1,0c0,0-0.1,0-0.1,0
	c0,0,0,0,0.1,0C6.7,10.2,6.7,10.2,6.8,10.2 M6.5,10.2C6.6,10.2,6.6,10.2,6.5,10.2C6.6,10.2,6.6,10.2,6.5,10.2
	C6.6,10.2,6.5,10.2,6.5,10.2C6.5,10.2,6.5,10.2,6.5,10.2c0,0,0.1,0,0.1-0.1c0,0,0,0,0,0C6.6,10.1,6.6,10.1,6.5,10.2
	c-0.1,0-0.1,0-0.1,0C6.4,10.2,6.4,10.2,6.5,10.2c-0.1,0-0.1,0-0.1,0C6.5,10.2,6.5,10.2,6.5,10.2c-0.1,0-0.1,0-0.1,0c0,0,0,0-0.1,0
	c0,0,0,0,0,0c0,0,0,0-0.1,0c0,0,0,0,0,0c0,0,0,0,0,0c0,0,0,0,0,0c0,0,0,0,0,0c0.1,0,0.1,0,0.1,0c0,0,0,0,0,0c0,0-0.1,0-0.1,0
	c0,0,0,0,0,0c0,0,0,0,0,0c0,0,0,0,0,0c0,0,0,0,0,0c0,0,0,0,0,0c0,0,0,0,0,0c0,0,0.1,0,0.1,0c0.1,0,0.1,0,0.1,0c0,0,0,0,0,0
	c0,0,0,0,0,0C6.5,10.2,6.5,10.2,6.5,10.2 M6.9,10.1C7,10.1,7,10.1,6.9,10.1C7,10.1,7,10.1,6.9,10.1C6.9,10.1,6.9,10.1,6.9,10.1
	C6.9,10.1,6.9,10.1,6.9,10.1L6.9,10.1L6.9,10.1L6.9,10.1C6.9,10.1,6.9,10.1,6.9,10.1L6.9,10.1L6.9,10.1L6.9,10.1L6.9,10.1
	C6.9,10.1,6.9,10.1,6.9,10.1C6.9,10.1,6.9,10.1,6.9,10.1L6.9,10.1L6.9,10.1L6.9,10.1L6.9,10.1L6.9,10.1L6.9,10.1L6.9,10.1
	C6.9,10.1,6.9,10.1,6.9,10.1L6.9,10.1C6.9,10.1,6.9,10.1,6.9,10.1 M6.6,10.1C6.7,10.1,6.7,10.1,6.6,10.1C6.7,10.1,6.7,10.1,6.6,10.1
	C6.7,10.1,6.6,10.1,6.6,10.1L6.6,10.1C6.6,10.1,6.6,10.1,6.6,10.1L6.6,10.1C6.6,10.1,6.6,10.1,6.6,10.1L6.6,10.1
	C6.6,10.1,6.6,10.1,6.6,10.1L6.6,10.1C6.6,10.1,6.6,10.1,6.6,10.1c-0.1,0-0.3,0.1-0.3,0.1c0,0,0,0,0,0c0,0,0,0-0.1,0
	c0,0,0.1,0,0.1,0c0,0,0.1,0,0.1,0c0,0-0.1,0-0.1,0c0,0,0.1,0,0.1,0C6.6,10.1,6.6,10.1,6.6,10.1 M6.8,10.1L6.8,10.1
	C6.8,10.1,6.8,10.1,6.8,10.1C6.8,10.1,6.8,10.1,6.8,10.1L6.8,10.1L6.8,10.1L6.8,10.1L6.8,10.1L6.8,10.1L6.8,10.1
	C6.8,10.1,6.8,10.1,6.8,10.1L6.8,10.1C6.8,10.1,6.8,10.1,6.8,10.1c-0.1,0-0.1,0-0.1,0c0,0,0,0,0,0C6.8,10.1,6.8,10.1,6.8,10.1
	 M7.1,10.1C7.1,10.1,7.1,10.1,7.1,10.1C7.1,10,7.1,10,7.1,10.1C7.1,10,7.1,10,7.1,10.1L7.1,10.1L7.1,10.1L7.1,10.1L7.1,10.1
	L7.1,10.1L7.1,10.1L7.1,10.1L7.1,10.1C7.1,10,7.1,10,7.1,10.1C7.1,10.1,7.1,10.1,7.1,10.1C7,10.1,7,10.1,7.1,10.1
	C7.1,10.1,7.1,10.1,7.1,10.1 M7,10.1c0,0,0.1,0,0.1,0c0,0,0,0,0,0c0,0,0,0,0.1,0c0,0,0,0,0,0c0,0,0,0,0,0c0,0,0,0,0,0
	C7.1,10,7,10.1,7,10.1C7,10.1,7,10.1,7,10.1C7,10,7,10.1,7,10.1C7,10.1,7,10.1,7,10.1C7,10.1,7,10.1,7,10.1C7,10.1,7,10.1,7,10.1
	C7,10.1,7,10.1,7,10.1C7,10.1,7,10.1,7,10.1 M7.3,10C7.3,10,7.4,10,7.3,10C7.4,10,7.3,10,7.3,10C7.3,10,7.4,10,7.3,10
	C7.4,10,7.4,10,7.3,10C7.4,10,7.4,10,7.3,10C7.4,10,7.4,10,7.3,10C7.4,10,7.4,10,7.3,10C7.4,10,7.4,10,7.3,10C7.4,10,7.4,10,7.3,10
	C7.4,10,7.4,10,7.3,10C7.4,10,7.4,10,7.3,10C7.4,10,7.4,10,7.3,10C7.4,10,7.4,10,7.3,10C7.4,10,7.4,10,7.3,10c0.1,0,0.1,0,0.1,0
	C7.4,10,7.4,10,7.3,10c0.1,0,0.1,0,0.2,0c0,0,0,0,0,0c0,0,0,0,0,0l0,0C7.5,10,7.4,10,7.3,10C7.4,10,7.4,10,7.3,10
	C7.3,10,7.3,10,7.3,10L7.3,10C7.3,10,7.3,10,7.3,10C7.3,10,7.3,10,7.3,10C7.3,10,7.3,10,7.3,10c-0.1,0-0.1,0-0.2,0c0,0,0,0,0,0
	c0,0,0,0,0,0c0,0,0,0,0,0c0,0,0,0,0,0c0,0,0,0,0,0C7.2,10.1,7.2,10.1,7.3,10C7.3,10,7.3,10,7.3,10C7.3,10.1,7.3,10,7.3,10
	C7.3,10,7.3,10,7.3,10C7.3,10,7.3,10,7.3,10 M7.5,10C7.5,10,7.5,10,7.5,10C7.5,10,7.5,10,7.5,10C7.5,10,7.5,10,7.5,10
	C7.5,10,7.5,10,7.5,10C7.5,10,7.5,10,7.5,10 M7.5,10L7.5,10L7.5,10C7.5,10,7.5,10,7.5,10C7.5,10,7.5,10,7.5,10C7.5,10,7.5,10,7.5,10
	C7.5,10,7.5,10,7.5,10C7.5,10,7.5,10,7.5,10C7.5,10,7.5,10,7.5,10C7.5,10,7.5,10,7.5,10L7.5,10C7.5,10,7.5,10,7.5,10L7.5,10
	C7.5,10,7.5,10,7.5,10L7.5,10C7.5,10,7.5,10,7.5,10L7.5,10C7.5,10,7.5,10,7.5,10c-0.1,0-0.1,0-0.1,0C7.4,10,7.4,10,7.5,10
	C7.4,10,7.4,10,7.5,10L7.5,10L7.5,10L7.5,10L7.5,10L7.5,10L7.5,10L7.5,10c-0.1,0-0.1,0-0.1,0l0,0c0,0,0,0,0,0l0,0c0,0,0,0,0,0
	c0,0,0,0,0,0c0,0,0,0,0,0c0,0-0.1,0-0.1,0c0,0,0,0,0,0c0,0,0,0,0,0c0,0,0,0,0,0c0,0,0,0,0,0c0,0,0,0,0,0c0,0,0,0,0,0l0,0l0,0h0
	c0,0,0,0,0,0c0,0,0,0,0,0c0,0,0,0,0,0c0,0,0,0,0,0c0,0-0.1,0-0.1,0c0,0,0,0,0,0c0,0,0,0,0,0c0,0,0,0,0,0c0,0,0,0,0.1,0c0,0,0,0,0,0
	c0,0,0,0,0,0l0,0c0,0,0,0,0,0c0,0,0,0,0,0c0,0,0,0,0,0c0,0,0,0,0,0c0,0,0,0,0,0c0,0,0.1,0,0.1,0c0,0,0,0,0,0l0,0c0,0,0,0,0,0
	c0,0,0,0,0,0c0,0,0,0,0,0c0,0,0,0,0,0c0,0,0,0,0,0c0,0,0,0,0,0l0,0c0,0-0.1,0-0.1,0c0,0,0,0,0,0c0,0,0.1,0,0.1,0
	C7.4,10.1,7.4,10.1,7.5,10C7.4,10.1,7.4,10.1,7.5,10C7.4,10.1,7.4,10.1,7.5,10C7.4,10.1,7.5,10,7.5,10C7.5,10,7.5,10,7.5,10
	C7.5,10,7.5,10,7.5,10L7.5,10C7.5,10,7.5,10,7.5,10C7.5,10,7.5,10,7.5,10C7.5,10,7.5,10,7.5,10C7.5,10,7.5,10,7.5,10
	C7.5,10,7.5,10,7.5,10C7.5,10,7.5,10,7.5,10 M9,11.2C8.6,10.5,8.1,10,7.5,10h0h0h0c0,0,0,0,0,0l0,0h0l0,0l0,0l0,0c0,0,0,0,0,0
	c0,0,0,0,0,0l0,0l0,0l0,0l0,0l0,0c0,0,0,0,0,0v0c0,0,0,0,0,0c0,0,0,0,0,0c0,0,0,0,0,0c0,0,0,0,0,0c0,0,0,0,0,0c0,0,0,0,0,0
	c0,0,0,0,0,0c0,0,0,0,0,0c0,0,0,0,0,0l0,0c0,0,0,0,0,0c0,0,0,0,0,0l0,0l0,0l0,0c0,0,0,0,0,0c0,0,0,0,0,0c0,0,0,0,0,0c0,0,0,0,0,0
	c0,0,0,0,0,0c0,0,0,0,0,0c0,0,0,0,0,0c0,0,0,0,0,0c0,0,0,0,0,0l0,0c0,0,0,0,0,0c0,0,0,0,0,0h0c0,0,0,0,0.1,0c0,0,0,0,0.1,0
	c0,0,0,0,0,0l0,0c0,0,0,0,0,0c0,0,0,0,0,0c0,0,0,0,0,0c0,0,0,0,0,0l0,0l0,0c0,0,0,0,0,0l0,0l0,0l0,0c0,0,0,0,0,0c0,0,0,0,0,0l0,0
	l0,0l0,0c0,0,0,0,0,0c0,0,0,0,0,0c0,0,0,0,0,0l0,0h0c0,0,0,0,0,0h0c0,0,0,0,0,0h0h0c0,0,0,0,0,0h0c0,0,0,0,0,0c0,0,0,0,0,0
	c0,0,0,0,0,0c0,0,0,0,0,0c0,0,0,0,0,0l0,0c0,0,0,0,0,0c0,0,0,0,0,0l0,0l0,0c0,0,0,0,0,0c0,0,0,0,0,0c0,0,0,0,0,0l0,0h0h0
	c0,0,0,0,0,0c0,0,0,0,0,0c0,0,0,0,0,0l0,0l0,0h0l0,0l0,0h0l0,0l0,0c0,0,0,0,0,0c0,0,0,0,0,0c0,0,0,0,0,0c0,0,0,0,0,0c0,0,0,0,0,0
	c0,0,0,0,0,0c0,0,0,0,0,0c0,0,0,0,0,0l0,0c0,0,0,0,0,0c0,0,0,0,0,0c0,0,0,0,0,0c0,0,0,0,0,0c0,0,0,0,0,0h0c0,0,0,0,0.1,0
	c0,0,0,0,0,0c0,0,0,0,0,0c0,0,0,0,0,0c0,0,0,0,0,0c0,0,0,0,0,0l0,0l0,0c-0.1,0-0.1,0-0.2,0c0,0,0,0,0,0c0,0,0,0,0,0c0,0,0,0,0,0
	c0,0,0,0,0,0l0,0c0,0,0,0,0,0c0,0,0,0,0,0c0,0,0,0,0,0c0,0,0.1,0,0.1,0c0,0,0,0,0,0c0,0,0,0,0,0l0,0l0,0l0,0c0,0,0,0,0,0
	c0,0,0,0,0,0l0,0l0,0l0,0l0,0l0,0l0,0l0,0l0,0l0,0l0,0h0c0,0,0,0,0,0c0,0,0,0,0,0l0,0c0,0,0,0,0,0c0,0,0,0,0,0c0,0,0,0,0,0l0,0v0
	l0,0c0,0,0,0,0,0c0,0,0,0,0,0c0,0,0,0,0,0c0,0-0.1,0-0.1,0c0,0,0,0,0,0c0,0,0,0,0,0l0,0l0,0c0,0,0,0,0,0c0,0,0,0,0,0
	c0,0-0.1,0-0.1,0c0,0,0,0,0,0l0,0c0,0,0,0,0,0c0,0,0,0,0,0c0,0,0,0,0,0c0,0,0,0,0,0c0,0,0,0,0,0c0,0,0,0,0,0c0,0,0,0,0,0
	c0,0,0,0,0,0c0,0,0,0,0,0c0,0,0,0,0,0v0c0,0,0,0,0,0c0,0,0,0,0,0c0,0,0,0,0,0c-0.1,0-0.1,0-0.1,0l0,0c0,0,0.1,0,0.1,0l0,0l0,0
	c0,0,0,0,0,0c-0.1,0-0.1,0-0.1,0c0,0,0,0,0,0l0,0l0,0c0,0,0,0,0,0c0,0,0,0-0.1,0h0c0,0,0,0,0,0c0,0,0,0,0,0c0,0,0,0,0,0c0,0,0,0,0,0
	l0,0c0,0,0.1,0,0.1,0c0,0,0,0,0.1-0.1l0,0l0,0c0,0,0,0-0.1,0c0,0,0,0,0,0c0,0,0,0,0,0c0,0,0,0,0,0c0,0,0,0,0,0c0,0,0,0-0.1,0.1l0,0
	c0,0,0,0,0,0c0,0,0,0,0,0c0,0,0,0,0,0c0,0,0,0,0,0c0,0,0,0,0,0c0,0,0,0,0,0l0,0l0,0c0,0,0,0,0,0c0,0,0,0,0,0c0,0,0,0,0,0l0,0l0,0
	c0,0,0,0,0.1,0c0,0,0,0,0,0.1l0,0c0,0,0,0,0-0.1l0,0l0,0c0,0,0,0,0,0h0l0,0c0,0,0,0,0-0.1l0,0l0,0c0,0,0,0,0,0c0,0,0,0,0.1,0
	c0,0,0,0,0,0c0,0,0,0,0,0c0,0-0.1-0.1-0.1,0l0,0l0,0c0,0,0,0,0,0c0,0,0.1,0,0.1,0c0,0,0,0,0,0c0,0-0.1,0-0.1,0c0,0,0,0,0,0l0,0
	c0,0,0,0,0,0c0,0,0,0,0,0c0,0,0,0,0.1,0c0,0,0,0,0,0c0,0,0,0,0,0c0,0,0,0,0,0c0.1,0,0.1,0,0.1,0c0,0,0,0,0,0c0,0,0,0,0,0
	c0,0,0,0,0,0l0,0c0,0,0,0,0,0C8.9,11.1,8.9,11.1,9,11.2C8.9,11.1,8.9,11.1,9,11.2L9,11.2C8.9,11.2,8.9,11.2,9,11.2
	C8.9,11.2,8.9,11.2,9,11.2C8.9,11.2,8.9,11.2,9,11.2C8.9,11.2,8.9,11.2,9,11.2C8.9,11.2,8.9,11.2,9,11.2C8.9,11.2,8.9,11.2,9,11.2
	C8.9,11.2,8.9,11.2,9,11.2C8.9,11.2,8.9,11.2,9,11.2C8.9,11.2,8.9,11.2,9,11.2C8.9,11.2,9,11.2,9,11.2C9,11.2,9,11.2,9,11.2"/>
<path style="fill:#B3E710;" d="M7.4,22.9L7.4,22.9C7.4,22.9,7.4,22.9,7.4,22.9L7.4,22.9C7.4,22.9,7.4,22.9,7.4,22.9L7.4,22.9
	C7.4,22.9,7.4,22.9,7.4,22.9C7.4,22.9,7.4,22.9,7.4,22.9 M9.4,20.1C9.4,20.1,9.4,20.1,9.4,20.1c-0.1,0-0.1,0-0.2,0c0,0,0,0.1,0,0.1
	C9.2,20.2,9.3,20.2,9.4,20.1 M8.8,22.1c0.3-0.5,0.6-1.2,0.8-2c0,0,0,0,0,0c0,0,0,0-0.1,0c-0.1,0-0.1,0.1-0.2,0.2c0,0,0,0,0,0
	c0,0-0.1,0-0.1,0c0,0,0-0.1,0-0.1c-0.1,0-0.1,0-0.1,0c0,0,0-0.1,0.1-0.1c-0.5,0-1.1,0-1.7,0c-0.5,0-1,0-1.4,0c0,0,0,0.1,0,0.1
	c0,0,0,0.1,0,0.2l0,0c0.1,0.1,0.1,0,0.1,0c0.1,0.1-0.1,0.1-0.1,0.2c0,0,0.1,0.1,0.1,0.1c0,0,0,0,0,0c0.1,0.1,0.2,0.1,0.6,0.7
	c0,0,0,0,0,0c0,0,0,0,0,0c0,0,0,0,0,0c0,0,0,0,0,0c0,0,0,0,0,0c0,0,0,0,0,0c0,0,0,0,0,0c0,0,0,0,0,0c0.1,0.2,0.4,0.2,0.5,0.3
	c0.1,0.1-0.1,0.3-0.1,0.4c0,0-0.1,0-0.1,0c0,0,0,0,0,0s0,0,0,0c0,0,0,0,0,0s0,0,0,0s0,0,0,0s0,0,0,0c0,0,0,0,0,0s0,0,0,0l0.1,0
	c0,0.1,0.1,0.7,0.1,0.7c0,0,0,0,0,0c0,0,0,0,0,0c0,0,0,0,0,0c0,0,0,0,0,0c0,0,0,0,0,0c0,0,0,0,0,0c0,0,0,0,0,0c0,0,0,0,0,0
	c0,0,0,0,0,0c0,0,0,0,0,0c0,0,0,0,0,0c0,0,0,0,0,0c0,0,0,0.1,0.1,0.1c0,0,0,0,0,0c0,0,0,0,0,0l0,0l0,0l0,0l0,0l0,0c0,0,0,0,0,0l0,0
	c0,0,0,0,0,0h0c0,0,0,0,0,0h0h0c0,0,0,0,0,0c0,0,0,0,0,0l0,0h0l0,0l0,0l0,0h0c0,0,0-0.1,0-0.1c0,0,0,0,0.1-0.1c0,0,0.1,0,0.2-0.1
	c0,0,0,0,0-0.1c0,0,0,0,0,0l0,0c0,0,0,0,0,0c0,0,0,0,0,0c0,0,0,0,0,0c0.1,0,0.2,0,0.4-0.2c0,0,0,0,0,0c0,0,0,0,0,0c0,0,0,0,0,0
	c0,0-0.1,0.1-0.1,0.1c0.2-0.1,0.2-0.1,0.4-0.3c0,0,0,0,0,0C8.7,22.1,8.8,22.1,8.8,22.1 M13.7,18.3C13.7,18.3,13.7,18.3,13.7,18.3
	C13.7,18.3,13.7,18.3,13.7,18.3C13.7,18.3,13.7,18.3,13.7,18.3C13.7,18.3,13.7,18.4,13.7,18.3L13.7,18.3
	C13.7,18.4,13.7,18.3,13.7,18.3 M14,15.4c0-0.2-0.1-0.5-0.1-0.7v0c0-0.1-0.1-0.1-0.2-0.2c0,0-0.1,0-0.3-0.6c0,0,0,0,0,0
	c0-0.1,0-0.1-0.1-0.1c0,0,0,0,0,0c0,0,0,0,0,0c0,0,0,0,0,0.1c0,0,0,0-0.1,0c0,0,0,0-0.1,0.1c0,0,0,0,0,0.1c0,0,0,0.1-0.1,0.1
	c0,0,0,0-0.1,0c-0.1,0-0.1,0-0.1-0.1c0,0-0.1,0.5,0,0.7c0.1,0.3-0.2,0.4-0.2,0.7c0,0.2-0.1,0.4-0.1,0.7c0,0,0,0,0,0
	c0.1,0.1,0.1,0.7,0,0.8c0,0,0,0.1,0.1,0.1c0,0,0,0,0,0c0,0,0,0.1,0,0.1c0,0,0,0,0,0l0,0l0,0l0,0l0,0h0l0,0l0,0l0-0.1
	c0,0,0-0.1,0-0.1c0,0,0,0,0,0c0,0,0,0.2,0,0.2c0,0,0.1,0.1,0.1,0.1c0,0,0.1,0.1,0.1,0.1v0c0,0-0.1,0-0.1,0c0,0,0,0,0.1,0.2
	c0,0,0,0,0,0s0,0,0,0c0,0,0,0,0,0s0,0,0,0s0,0,0,0s0,0,0,0c0,0,0,0,0,0c0,0,0,0,0,0v0v0L12.8,18c0,0,0,0,0,0c0,0,0.2,0.3,0.3,0.3
	c0.1,0,0.1-0.2,0.2-0.2c0,0,0,0,0-0.1c0,0,0,0,0,0c0.1,0,0.3-0.2,0.3-0.2c0,0,0.2,0,0.2,0.1l0.2,0v0c0,0.1-0.2,0.1-0.2,0.1
	c0,0,0,0,0,0c0,0,0.1,0,0.1,0c0,0,0.1,0.1,0.1,0.1v0l-0.1,0c0,0.1-0.1,0.2-0.2,0.3l0,0c0,0,0,0.1,0,0.1c0,0,0,0,0,0
	c0,0,0,0.1-0.1,0.2l0,0l0,0c0,0,0,0,0,0.1c-0.1,0.4-0.5,1-0.5,1c0,0,0,0,0,0s0,0,0,0c0.1,0,0.2-0.3,0.3-0.6c0.2-0.3,0.3-0.6,0.4-0.9
	s0.2-0.6,0.2-1c0.1-0.3,0.1-0.7,0.1-1C14.1,16.1,14.1,15.8,14,15.4 M13.4,13.8C13.4,13.8,13.4,13.8,13.4,13.8
	C13.4,13.8,13.4,13.8,13.4,13.8C13.4,13.8,13.4,13.8,13.4,13.8C13.4,13.8,13.4,13.8,13.4,13.8C13.4,13.8,13.4,13.8,13.4,13.8
	c0,0.1,0,0.1,0.1,0.2C13.5,13.9,13.5,13.9,13.4,13.8 M13.2,13.5C13.2,13.5,13.2,13.5,13.2,13.5C13.2,13.4,13.2,13.4,13.2,13.5
	C13.2,13.5,13.2,13.5,13.2,13.5C13.2,13.5,13.2,13.5,13.2,13.5C13.2,13.5,13.2,13.5,13.2,13.5c0,0,0,0.1,0,0.1c0,0,0,0.1,0,0.1
	c0,0,0,0,0,0c0,0,0,0,0,0c0,0,0,0,0,0c0,0,0,0,0,0C13.3,13.6,13.3,13.6,13.2,13.5 M13.1,13.3C13.1,13.3,13.1,13.2,13.1,13.3
	L13.1,13.3L13.1,13.3C13.1,13.3,13.1,13.3,13.1,13.3L13.1,13.3C13.1,13.3,13.1,13.3,13.1,13.3C13.1,13.3,13.1,13.3,13.1,13.3
	C13.1,13.3,13.1,13.3,13.1,13.3C13.1,13.3,13.1,13.3,13.1,13.3L13.1,13.3L13.1,13.3L13.1,13.3L13.1,13.3L13.1,13.3L13.1,13.3
	c0,0.1,0.1,0.1,0.1,0.1l0,0C13.2,13.4,13.1,13.3,13.1,13.3 M13.3,13.5C13.3,13.5,13.2,13.5,13.3,13.5l-0.1-0.1c0,0,0,0,0,0
	c0,0,0,0,0,0c0,0-0.2-0.4-0.3-0.4l0,0c0,0-0.1,0-0.3,0c0,0,0,0,0,0c0,0,0,0,0,0c0,0,0,0,0,0c0,0,0,0,0,0.1c0,0,0,0,0,0l0,0l0,0
	c0,0,0.1,0.1,0.1,0.2c0,0,0,0-0.1,0c0,0.1-0.1,0-0.1,0c0,0-0.1,0-0.1,0c0,0,0,0,0,0c0,0,0,0,0,0c0,0,0,0,0,0.1c0,0,0.1,0,0.1,0.1
	c0.1,0.1,0.1,0.3,0.1,0.4c0,0,0,0,0,0c0,0,0,0,0,0l0,0c0,0,0,0,0,0c0,0,0,0,0,0l0,0c0,0,0,0,0,0c0,0,0,0,0,0c0,0,0,0,0,0.1
	c0,0,0,0.1,0,0.1c0,0,0,0,0,0c0,0,0,0,0.1,0c0,0,0,0,0,0c0,0,0,0.1,0.1,0.1c0,0.1,0.1,0.1,0.1,0.1c0,0,0,0,0,0c0,0,0,0,0,0l0,0h0
	c0,0,0-0.1,0-0.1c0,0,0.1,0,0.1,0c0,0,0,0,0,0c0,0,0,0,0,0c0,0,0-0.1,0-0.1c0,0,0,0,0,0c0,0,0-0.1,0-0.1c0,0,0,0,0,0
	c0,0,0,0-0.1-0.1c0-0.1,0-0.1,0-0.2l0,0c0,0,0-0.1,0-0.1c0-0.1,0-0.1,0-0.1c-0.1-0.1-0.1-0.1-0.1-0.1c0,0,0,0,0,0c0,0,0,0,0,0
	c0,0,0,0,0,0c0,0,0,0,0,0c0,0,0-0.1,0-0.1c0,0,0,0,0,0C13,13,13.3,13.5,13.3,13.5C13.3,13.5,13.3,13.5,13.3,13.5L13.3,13.5
	L13.3,13.5L13.3,13.5L13.3,13.5C13.3,13.5,13.3,13.5,13.3,13.5C13.3,13.5,13.3,13.5,13.3,13.5C13.3,13.5,13.3,13.6,13.3,13.5
	C13.3,13.6,13.3,13.6,13.3,13.5c0.1,0.1,0.1,0.2,0.1,0.2c0,0,0,0,0,0l0,0l0,0c0,0,0,0,0,0.1c0,0,0,0,0,0l0,0l0,0c0,0,0,0,0-0.1
	C13.4,13.7,13.3,13.6,13.3,13.5 M12.9,12.9C12.9,12.9,12.9,12.9,12.9,12.9C12.9,12.9,12.9,12.9,12.9,12.9C12.9,12.9,13,13,12.9,12.9
	C13,13,12.9,12.9,12.9,12.9 M13.1,13.1c0-0.1-0.1-0.1-0.1-0.2c0,0,0,0,0,0c0,0,0,0,0,0c0,0,0,0,0,0C13,13,13,13,13.1,13.1
	C13,13,13,13,13.1,13.1C13,13.1,13.1,13.1,13.1,13.1C13.1,13.1,13.1,13.1,13.1,13.1 M9.2,12.9L9.2,12.9L9.2,12.9L9.2,12.9L9.2,12.9
	c-0.1,0-0.1,0-0.1,0.1C9.1,12.9,9.1,12.9,9.2,12.9C9.2,12.9,9.2,12.9,9.2,12.9C9.2,12.9,9.2,12.9,9.2,12.9 M2.7,12.5
	C2.8,12.5,2.7,12.5,2.7,12.5C2.7,12.5,2.7,12.5,2.7,12.5C2.7,12.6,2.7,12.6,2.7,12.5C2.7,12.6,2.7,12.6,2.7,12.5 M2.9,12.4
	C2.9,12.4,2.9,12.4,2.9,12.4C2.9,12.3,2.9,12.3,2.9,12.4c0.1-0.1,0.1-0.1,0.1-0.1c0,0,0,0,0,0C2.8,12.3,2.8,12.4,2.9,12.4
	C2.8,12.4,2.8,12.4,2.9,12.4C2.8,12.4,2.8,12.4,2.9,12.4C2.8,12.4,2.8,12.4,2.9,12.4C2.8,12.4,2.8,12.4,2.9,12.4
	C2.8,12.4,2.8,12.4,2.9,12.4C2.8,12.4,2.8,12.4,2.9,12.4C2.9,12.4,2.9,12.4,2.9,12.4 M2.9,12.2C3,12.1,3,12.1,2.9,12.2
	C3,12.1,3,12.1,2.9,12.2C3,12.1,3,12.1,2.9,12.2C2.9,12.1,2.9,12.2,2.9,12.2C2.9,12.2,2.9,12.2,2.9,12.2L2.9,12.2
	C2.9,12.2,2.9,12.2,2.9,12.2 M3,12.1C3,12,3,12,3,12.1C3.1,12,3.1,12,3,12.1C3.1,12,3.1,12,3,12.1C3,12,3,12,3,12.1
	C3,12.1,3,12.1,3,12.1C3,12,3,12.1,3,12.1 M9,13c0,0,0-0.2,0-0.2c0,0,0.1,0,0-0.1c0-0.2,0-0.1,0-0.1c0,0,0,0,0,0c0,0,0,0,0,0
	c0,0,0,0,0,0c0,0-0.1,0-0.1,0c-0.1,0-0.1,0.1-0.2,0.1c0,0,0-0.1,0-0.1c0.1,0,0.2-0.1,0.2-0.1c-0.3-0.1-0.3-0.2-0.3-0.2
	c0-0.1,0-0.3-0.1-0.3c0,0,0,0,0,0c0,0,0,0,0,0c0,0,0,0,0,0c0,0,0,0,0,0c0,0,0,0,0,0c0,0,0,0,0,0c0,0,0,0,0,0s0,0,0,0
	c0,0,0,0.1-0.1,0c0,0,0,0.1,0,0.1c0,0,0.1,0,0.1,0c0-0.1-0.1,0-0.1-0.1c0,0,0,0,0,0C8.4,12,8.4,12,8.3,12c0,0,0,0,0,0c0,0,0,0,0,0
	c-0.1-0.1-0.1-0.1-0.2-0.2c0,0,0,0-0.1,0.1c0,0,0,0,0,0.1C8,11.9,8,12,8,12c0,0,0,0,0,0c0,0,0-0.1-0.1-0.1C7.9,12,7.9,12,7.8,12
	c0,0,0,0,0,0c0-0.1-0.1,0-0.2,0c0,0,0,0,0,0c0,0,0-0.1,0-0.1c0,0,0,0.2,0,0.2c0,0,0-0.1,0-0.1c0,0,0,0,0,0c-0.1,0-0.2-0.2-0.2-0.2
	c0,0,0-0.1,0-0.1c0,0-0.1-0.1-0.1-0.1c-0.1,0-0.1,0-0.1,0c-0.1,0-0.1,0-0.2-0.1c0,0,0,0,0,0c0,0-0.1,0,0,0.1c0,0,0,0.1,0,0.1v0
	c0,0,0,0,0,0c0,0,0,0.1,0,0.1l-0.1,0.1C6.9,12,7.1,12,7,12.2c0,0.1-0.1,0.4-0.3,0.5c0,0,0.1,0.3,0.1,0.3c0,0,0,0,0,0
	c0,0,0.3-0.4,0.3-0.4c0,0,0,0,0,0c0,0,0,0,0,0s0,0,0,0c0,0,0,0,0,0c0,0,0,0,0,0c0,0,0,0,0,0c0,0,0,0,0,0c0,0,0,0,0,0
	c0,0.1-0.1,0.1-0.1,0.2c0,0-0.1,0.1-0.1,0.1c0,0-0.1,0-0.1-0.1c0,0,0,0-0.1,0c0,0,0,0.1,0,0.1c0.3,0,0.5,0,0.8,0c0.5,0,1,0,1.5,0
	c0,0-0.1-0.1-0.1-0.1C9,12.9,9,12.9,9,12.8 M9,11.3C9,11.2,9,11.2,9,11.3L9,11.3L9,11.3 M6.8,11.3L6.8,11.3c0,0,0,0-0.1,0
	c0,0,0-0.1,0-0.1c0,0,0,0,0,0c0,0,0,0-0.1,0c0,0,0,0-0.1-0.1c0,0,0,0,0,0c0,0,0,0,0,0c0,0,0,0,0,0c0,0,0,0,0,0c0,0,0,0,0,0
	c-0.1,0.1-0.1,0.1-0.1,0.2c-0.1,0-0.1,0-0.1,0.1c0,0,0,0,0,0c0,0,0.1,0,0.1,0c0,0,0,0,0,0.1c0,0,0,0,0,0c0,0,0,0,0.1,0
	c0,0,0,0,0.1,0c0,0,0,0,0,0c0,0,0,0,0,0c0,0,0,0,0,0C6.7,11.3,6.7,11.3,6.8,11.3C6.8,11.3,6.8,11.3,6.8,11.3 M7.3,10.8
	C7.3,10.8,7.3,10.8,7.3,10.8C7.3,10.8,7.2,10.8,7.3,10.8c-0.2,0-0.2,0.1-0.1,0.1C7.1,10.9,7.2,11,7.3,10.8"/>
<path style="fill:#B3E710;" d="M9.6,13.4C9.6,13.4,9.6,13.4,9.6,13.4C9.6,13.4,9.6,13.4,9.6,13.4C9.6,13.4,9.6,13.3,9.6,13.4
	L9.6,13.4C9.5,13.3,9.5,13.3,9.6,13.4C9.5,13.4,9.5,13.4,9.6,13.4c-0.1-0.1-0.1-0.1-0.1-0.1c0,0,0,0,0,0c0,0,0,0,0.1,0c0,0,0,0,0,0
	l0,0c0,0,0,0-0.1,0c0,0,0,0,0.1-0.1c0,0-0.1,0-0.1,0c0,0,0,0,0,0c0,0-0.1,0-0.1,0c0,0,0,0,0,0c0,0,0,0,0,0c0,0,0,0,0,0
	c0,0,0,0-0.1,0c0,0,0,0-0.1,0.1c0-0.1,0-0.1,0.1-0.2c0,0-0.1,0-0.1,0C9,13,9,13,9,13.1c0,0,0,0,0,0c0,0,0,0,0,0c0,0,0,0-0.1,0
	c0,0,0,0,0,0c0,0,0,0,0.1,0c0,0-0.1,0-0.1,0.1c0,0,0,0,0,0.1c0.1,0,0.1,0,0.2,0c0,0,0.1,0,0.1,0c0,0,0,0,0,0c0,0,0,0,0,0
	c0,0,0,0,0,0c0,0,0,0,0,0c0,0,0,0,0,0c0,0,0,0,0,0c0,0,0,0,0,0c0,0,0,0,0,0c0,0,0,0,0,0c0,0,0,0,0,0l0,0l0,0c0,0,0,0,0,0
	c0,0,0,0,0.1,0c0,0,0,0,0,0c0,0-0.1,0.1-0.1,0.1c0,0,0,0,0,0c0,0,0,0,0,0c0,0,0.1-0.1,0.1-0.1c0,0,0,0,0,0l0,0c0,0,0,0,0,0.1
	c0,0,0,0,0,0l0,0L9.6,13.4C9.5,13.4,9.5,13.5,9.6,13.4C9.6,13.5,9.6,13.5,9.6,13.4C9.6,13.5,9.6,13.4,9.6,13.4 M12.6,12.9
	C12.6,12.9,12.6,12.9,12.6,12.9C12.6,12.9,12.6,12.9,12.6,12.9L12.6,12.9C12.6,12.9,12.6,12.9,12.6,12.9 M11.6,11.8
	c0,0-0.1-0.2-0.2-0.1c0,0,0,0,0,0c0,0,0,0,0,0c0,0,0,0,0,0.1c0,0,0,0,0,0l0,0c0,0,0,0,0,0c0,0,0,0,0,0s0,0,0,0s0,0,0,0s0,0,0,0
	c0,0,0,0,0,0c0,0,0,0,0,0s0,0,0,0c0,0,0,0,0,0c0,0,0,0,0,0c0,0,0,0-0.1,0c0,0,0,0,0,0c0,0,0,0,0,0c0,0,0,0,0,0c0,0,0,0,0,0
	c0,0,0,0,0,0c0,0,0,0,0,0l0,0l0,0c0,0,0.1,0,0.1,0c0,0,0,0,0,0c0,0,0,0,0,0l0,0l0,0c0,0,0,0,0,0c0,0,0,0,0,0c0,0,0,0,0,0
	c0,0,0,0,0,0c0,0,0,0,0,0c0,0,0,0,0,0c0,0,0,0,0,0c0,0,0,0,0,0c0,0,0,0,0,0c0,0,0,0,0,0l0,0c0,0,0,0,0,0c0,0,0,0,0,0c0,0,0,0,0,0
	c0,0,0,0,0,0c0,0,0,0,0-0.1c0,0,0,0,0,0c0,0,0,0,0,0c0,0,0,0,0,0C11.7,11.9,11.7,11.9,11.6,11.8C11.6,11.9,11.6,11.9,11.6,11.8
	 M11.5,11.7L11.5,11.7C11.5,11.7,11.4,11.7,11.5,11.7C11.4,11.7,11.4,11.7,11.5,11.7C11.4,11.7,11.5,11.7,11.5,11.7 M11.8,11.7
	C11.8,11.6,11.8,11.6,11.8,11.7L11.8,11.7C11.8,11.7,11.8,11.7,11.8,11.7C11.8,11.7,11.8,11.7,11.8,11.7
	C11.8,11.7,11.8,11.7,11.8,11.7C11.9,11.7,11.9,11.7,11.8,11.7C11.9,11.7,11.9,11.7,11.8,11.7C11.9,11.7,11.9,11.7,11.8,11.7
	C11.9,11.7,11.9,11.7,11.8,11.7L11.8,11.7L11.8,11.7C11.9,11.7,11.8,11.7,11.8,11.7 M11.6,11.4C11.6,11.4,11.6,11.4,11.6,11.4
	L11.6,11.4C11.6,11.5,11.6,11.5,11.6,11.4C11.6,11.5,11.6,11.5,11.6,11.4c0.1,0.1,0.1,0.1,0.1,0.1C11.7,11.5,11.7,11.5,11.6,11.4
	C11.6,11.5,11.6,11.5,11.6,11.4C11.6,11.5,11.6,11.5,11.6,11.4 M9.4,11.4C9.4,11.4,9.4,11.4,9.4,11.4C9.4,11.4,9.4,11.4,9.4,11.4
	C9.4,11.4,9.4,11.4,9.4,11.4C9.4,11.4,9.3,11.4,9.4,11.4C9.3,11.4,9.4,11.4,9.4,11.4C9.4,11.4,9.4,11.4,9.4,11.4 M12.1,12.1
	c0,0-0.1-0.1-0.1-0.1C12,12,12,12,12.1,12.1C11.9,12,11.9,12,11.9,12c0,0-0.1-0.1-0.2-0.2c-0.2-0.1-0.2-0.2-0.2-0.2c0,0,0,0,0,0
	c0,0,0,0,0,0c0,0,0,0,0,0c0,0,0,0,0,0c0,0,0,0,0,0c0,0,0,0,0,0c0,0-0.1-0.1-0.1-0.1c0,0-0.1,0-0.1,0c0,0,0-0.1-0.1-0.1c0,0,0,0,0,0
	c0,0,0,0,0,0c0,0,0,0,0,0c0,0,0,0,0,0l0,0c0,0,0,0,0,0c0,0,0,0,0.1,0c0,0,0,0,0,0c0,0,0,0,0.1,0.1c0,0,0.1,0.1,0.1,0.1l0,0
	c0,0,0,0,0,0l0,0c0,0,0,0.1,0.1,0.1c0,0,0,0,0,0c0,0,0,0,0,0c0,0,0,0,0,0l0,0c0.1,0.1,0.1,0.1,0.1,0.1c0,0,0,0,0,0c0,0,0,0,0,0
	c0,0,0,0,0,0c0,0,0,0,0,0c0,0,0,0,0,0c0,0,0,0,0,0c0,0,0,0,0,0c0,0,0,0,0,0c0,0,0,0,0,0c0,0,0.1,0.1,0.1,0.1c0,0,0,0,0,0
	c0,0,0,0,0,0.1c0,0,0,0,0,0c0,0,0,0,0,0c0,0,0,0,0,0s0,0,0,0c0,0,0,0,0,0s0,0,0,0c0,0,0,0,0,0c0,0,0,0,0,0c0,0,0,0,0,0c0,0,0,0,0,0
	c0,0,0,0,0,0c0,0,0,0,0,0.1l0,0C11.9,12.1,11.9,12.1,12.1,12.1C12,12.2,12,12.2,12.1,12.1C12,12.2,12,12.2,12.1,12.1
	C12,12.2,12,12.1,12.1,12.1C12,12.2,12,12.2,12,12.2c0,0,0,0,0,0c0,0,0,0,0,0c0,0,0,0,0,0c0,0,0,0,0,0c0,0.1,0,0.1,0,0.1
	c0,0,0,0,0,0c0,0,0,0,0,0c0,0,0,0,0,0c0,0,0,0,0,0c0,0,0,0,0,0c0,0,0,0,0,0c0,0,0,0,0,0c0,0,0,0,0,0c0,0,0,0,0.1,0c0,0,0,0,0,0
	c0,0,0,0,0,0c0,0,0,0,0,0c0,0,0,0,0,0c0,0,0,0,0,0c0,0,0,0,0,0c0,0,0,0,0,0c0,0,0,0,0,0C12.1,12.2,12.1,12.2,12.1,12.1
	C12.1,12.2,12.1,12.2,12.1,12.1C12.1,12.2,12.1,12.2,12.1,12.1C12.1,12.2,12.1,12.2,12.1,12.1C12.1,12.1,12.1,12.1,12.1,12.1
	 M9.9,10.7c0,0-0.1,0-0.1,0c0,0,0,0-0.1,0c0,0-0.1,0-0.1,0c0,0,0,0,0,0c0,0,0,0,0,0c0,0,0,0,0,0s0,0,0,0c0,0,0,0,0,0c0,0,0,0,0,0
	c0,0,0,0,0,0c0,0,0,0,0,0c0,0,0,0,0,0c0,0,0,0-0.1,0c0,0,0,0,0,0c0,0,0,0-0.1,0c0,0,0,0,0,0c0,0,0,0,0,0c0,0,0,0,0,0l0,0
	c0,0-0.1,0-0.1,0c0,0,0,0,0,0l0,0c0,0,0,0,0.1,0c0,0,0,0,0,0c0,0,0,0,0,0c0,0,0,0,0,0c-0.1,0-0.1-0.1-0.2-0.1c0,0,0,0,0,0l0,0
	c0,0,0,0,0,0c0,0,0,0,0,0c0,0,0,0,0,0c0,0,0,0,0,0c0,0,0,0,0.1,0c0,0,0,0,0,0c0,0,0,0,0,0c0,0,0,0,0.1,0c0,0,0,0,0.1,0l0,0
	c0,0,0,0,0,0c0,0,0,0,0,0c0,0,0,0,0,0l0,0c0,0,0,0,0,0c0.1,0,0.1,0,0.1,0.1c0,0,0,0,0,0c0,0,0.1,0,0.1,0c0,0,0,0,0,0
	c0,0,0.1,0,0.1,0c0,0,0,0,0,0c0,0,0,0,0,0c0,0,0,0,0,0C10,10.8,10,10.8,9.9,10.7C10,10.8,10,10.8,9.9,10.7C10,10.8,10,10.7,9.9,10.7
	C10,10.7,10,10.7,9.9,10.7C10,10.7,9.9,10.7,9.9,10.7 M8.6,10.2C8.6,10.2,8.6,10.2,8.6,10.2C8.5,10.2,8.5,10.2,8.6,10.2
	C8.6,10.2,8.6,10.2,8.6,10.2L8.6,10.2C8.7,10.2,8.6,10.2,8.6,10.2L8.6,10.2L8.6,10.2L8.6,10.2L8.6,10.2C8.6,10.2,8.6,10.2,8.6,10.2
	 M12.1,11.9C12.1,11.9,12,11.8,12.1,11.9L12.1,11.9C12,11.9,12.1,11.9,12.1,11.9c0,0-0.1-0.1-0.1-0.1l0,0l0,0h0
	C12,11.8,12,11.9,12.1,11.9C12.1,11.9,12.1,11.9,12.1,11.9L12.1,11.9L12.1,11.9L12.1,11.9C12,11.8,12,11.8,12,11.8c0,0,0,0,0,0
	c0,0-0.1-0.1-0.1-0.1l0,0c0,0,0,0-0.1-0.1l0,0l0,0l0,0c0,0,0,0-0.1,0c0,0,0,0,0.1,0l0,0c0,0,0,0,0,0c0,0,0,0,0,0
	c0,0,0.1,0.1,0.1,0.1l0,0c0.1,0,0.1,0.1,0.2,0.2l0,0L12.1,11.9L12.1,11.9L12.1,11.9C12,11.9,12,11.9,12.1,11.9
	C12,11.9,12,11.9,12.1,11.9C12.1,11.9,12,11.9,12.1,11.9C12.1,11.9,12.1,11.9,12.1,11.9L12.1,11.9L12.1,11.9L12.1,11.9
	C12.1,11.9,12,11.9,12.1,11.9C12,11.9,12,11.9,12.1,11.9C12,11.9,12,11.9,12.1,11.9C12.1,11.9,12.1,11.9,12.1,11.9
	C12.1,12,12.1,12,12.1,11.9L12.1,11.9C12,11.9,12,11.9,12.1,11.9C12,11.9,12,11.9,12.1,11.9C12,12,12.1,12,12.1,11.9
	c0,0.1,0,0.1,0,0.2c0,0,0,0,0,0c0,0,0,0,0,0l0,0C12.1,12,12.1,12,12.1,11.9c0,0.1,0,0.1,0.1,0.3c0,0,0,0,0,0c0,0,0,0,0,0
	c0,0,0,0,0,0c0,0,0,0,0,0c0,0,0,0,0,0c0,0,0.1,0.1,0.1,0.1c0,0,0,0,0,0.1l0,0c0,0,0,0,0,0c0,0,0,0,0,0c0,0,0,0,0,0c0,0,0,0,0,0
	c0,0,0.1,0.1,0.1,0.1c0,0,0,0,0,0c0,0,0,0,0,0c0,0,0,0,0,0c0,0,0,0,0,0c0,0,0,0,0,0c0,0,0,0,0,0l0,0l0,0c0,0,0,0,0,0c0,0,0,0,0,0
	c0,0,0,0,0,0c0,0,0,0,0,0c0,0,0,0,0,0l0,0c0,0,0,0,0,0c0,0,0,0,0,0c0,0,0,0,0,0c0,0,0.1,0,0.1,0c0,0,0,0,0,0l0,0l0,0
	c0,0,0,0,0.1,0.1c0.1,0.1,0.1,0.1,0.2,0.2c0.2,0,0.3,0,0.3,0l0,0c0,0,0,0,0,0l0,0c0,0,0,0,0,0c0,0,0,0,0,0c0,0,0,0,0,0c0,0,0,0,0,0
	c0,0,0,0,0,0c0,0,0,0,0,0c-0.1-0.1-0.1-0.2-0.2-0.3C12.6,12.4,12.3,12.1,12.1,11.9 M10.5,10.7c-0.2-0.1-0.4-0.2-0.6-0.3l0,0
	c0,0,0,0,0,0c0,0,0,0,0,0c0,0,0,0,0.1,0c0,0,0,0,0,0c0,0,0,0,0,0c0,0,0,0,0,0c0,0,0.1,0,0.1,0c0,0,0,0,0,0c0,0,0,0,0,0
	c0,0,0.1,0,0.1,0c0,0,0,0,0,0c0,0,0.1,0,0.1,0.1C10.4,10.7,10.5,10.7,10.5,10.7C10.5,10.8,10.5,10.8,10.5,10.7
	c0.1,0.1,0.2,0.1,0.2,0.1l0,0c0,0,0.1,0,0.1,0.1c0,0,0,0,0,0l0,0h0l0,0h0c0,0,0,0,0,0l0,0h0l0,0l0,0c0,0,0,0,0.1,0c0,0,0,0,0,0
	c0,0,0,0,0.1,0.1c0,0,0,0,0,0c0,0,0,0,0,0c0,0,0.1,0.1,0.1,0.1c0,0,0,0,0.1,0c0,0,0,0,0,0c0,0,0.1,0,0.1,0.1l0,0c0,0,0,0,0,0
	c0,0,0,0,0,0c0,0,0,0,0,0l0,0l0,0l0,0l0,0l0,0l0,0l0,0l0,0c0,0,0,0,0,0c0,0,0,0,0,0l0,0c0,0,0,0,0,0c0,0,0,0,0,0c0,0,0,0,0,0
	c0,0,0,0,0,0c0,0,0,0,0,0c0,0,0,0,0,0c0,0,0,0,0,0l0,0l0,0c0,0,0.1,0.1,0.1,0.1l0,0l0,0c0,0,0,0,0,0c0,0,0,0,0,0
	c-0.1-0.1-0.1-0.1-0.2-0.2c0,0,0,0,0.1,0c0,0,0.1,0.1,0.1,0.1c0,0,0,0,0,0l0,0c0,0,0.1,0.1,0.1,0.1c0,0,0.1,0.1,0.1,0.1l0,0l0,0l0,0
	c0,0,0.1,0.1,0.1,0.1c0,0,0,0,0,0c0,0,0,0-0.1-0.1l0,0c0,0,0,0,0,0c0,0,0,0,0,0l0,0c0,0-0.1-0.1-0.1-0.1c-0.1-0.1-0.2-0.2-0.3-0.3
	C11.1,11.1,10.8,10.9,10.5,10.7 M8.3,10.1L8.3,10.1C8.3,10.1,8.3,10.1,8.3,10.1L8.3,10.1L8.3,10.1C8.3,10.1,8.2,10.1,8.3,10.1
	L8.3,10.1C8.2,10.1,8.3,10.1,8.3,10.1L8.3,10.1L8.3,10.1C8.3,10.1,8.3,10.1,8.3,10.1L8.3,10.1L8.3,10.1L8.3,10.1L8.3,10.1
	C8.3,10.1,8.3,10.1,8.3,10.1C8.3,10.1,8.3,10.1,8.3,10.1L8.3,10.1C8.3,10.1,8.3,10.1,8.3,10.1 M8.2,10.1L8.2,10.1L8.2,10.1
	C8.2,10.1,8.2,10.1,8.2,10.1C8.2,10.1,8.2,10.1,8.2,10.1C8.2,10.1,8.2,10.1,8.2,10.1C8.2,10.1,8.2,10.1,8.2,10.1L8.2,10.1
	C8.2,10.1,8.2,10.1,8.2,10.1C8.2,10.1,8.2,10.1,8.2,10.1 M8.2,10.1C8.2,10.1,8.2,10.1,8.2,10.1L8.2,10.1L8.2,10.1L8.2,10.1
	C8.1,10.1,8.1,10.1,8.2,10.1L8.2,10.1L8.2,10.1L8.2,10.1L8.2,10.1C8.2,10.1,8.2,10.1,8.2,10.1C8.2,10.1,8.2,10.1,8.2,10.1 M8,10
	L8,10C7.9,10,7.9,10,8,10C7.9,10,8,10,8,10C8,10,8,10,8,10 M7.9,10C7.8,10,7.8,10,7.9,10C7.8,10,7.8,10,7.9,10L7.9,10
	C7.8,10,7.9,10,7.9,10C7.9,10,7.9,10,7.9,10 M7.8,10L7.8,10C7.8,10,7.7,10,7.8,10C7.8,10,7.8,10,7.8,10C7.7,10,7.7,10,7.8,10
	C7.7,10,7.7,10,7.8,10C7.8,10,7.8,10,7.8,10L7.8,10C7.8,10,7.8,10,7.8,10 M7.7,10L7.7,10L7.7,10C7.6,10,7.6,10,7.7,10
	C7.6,10,7.6,10,7.7,10C7.6,10,7.6,10,7.7,10C7.6,10,7.7,10,7.7,10L7.7,10 M7.9,10c-0.1,0-0.2,0-0.2,0h0c0,0,0.1,0,0.1,0
	C7.8,10,7.8,10,7.9,10 M7.6,10C7.6,10,7.5,10,7.6,10L7.6,10C7.6,10,7.6,10,7.6,10C7.6,10,7.6,10,7.6,10 M8,10L8,10L8,10L8,10L8,10
	 M9,10H8.7c0,0,0,0.1,0,0.1c0,0,0,0.1,0,0.1c0,0,0,0,0,0c0,0,0.1,0,0.1,0c0,0,0.2,0,0.2,0.1C9,10.2,9,10,9,10H8.7l0,0.1c0,0,0,0,0,0
	l0-0.1c0,0,0-0.1,0-0.1c0,0,0,0,0,0c0,0,0.2,0.1,0.2,0.1c0,0,0.2,0.1,0.2,0.1v0c0,0-0.2-0.1-0.2-0.1c0,0-0.2-0.1-0.2-0.1h0
	c0,0,0,0,0,0c0,0,0,0,0,0s0,0,0,0C8.5,10,9,10.1,9,10v0.1c-1,0-0.3,0-0.3,0c0,0-0.1-0.1-0.1-0.1c0,0-0.1-0.1-0.1-0.1c0,0,0,0,0,0
	c0,0,0.1,0,0.1,0l0,0h0l0,0.1c0,0,0,0,0,0c0,0,0,0,0,0c0,0,0,0-0.1,0c0,0,0,0,0.1,0l0,0c0,0,0-0.1,0-0.1l0-0.1h0.2
	C8.8,10,9,10.1,9,10L9,10H8.3c0,0-0.3,0.1-0.3,0.1v-0.1c0,0,0.5-0.1,0.5-0.1h0l0,0.1c0,0,0,0,0,0c0,0,0,0,0,0c0,0,0,0,0,0
	c0,0-0.4,0-0.4,0v0.1l0,0l0,0v0l0,0l0,0l0,0l0.4,0h0l0,0h0c0,0-0.4,0-0.4,0l0,0v0.1v0l0,0v0v0l0,0c0,0,0.2-0.1,0.2-0.1
	c0,0,0.2,0,0.2,0h0c0,0,0,0.1,0,0l0,0c0,0,0,0,0,0c0,0,0,0,0,0c0,0,0,0,0,0c0,0,0,0-0.1,0c0,0,0,0,0,0c0,0,0,0,0,0c0,0,0,0,0,0
	c0,0,0,0,0,0c0,0,0,0-0.1,0h0c0,0,0,0,0,0c0,0,0,0,0,0c0,0,0,0,0,0c0,0-0.1,0-0.1,0c0,0-0.1,0-0.1,0V10h0.1l0,0l0,0c0,0,0,0,0,0
	c0,0,0,0,0,0c0,0-0.2,0-0.2,0v0v0l0,0v0l0,0v0v0c0,0,0.1,0,0.1,0c0,0,0,0,0,0c0,0-0.1,0-0.1,0c0,0,0,0,0,0v0v0v0h0h0c0,0,0,0,0,0h0
	c0,0,0,0,0,0h0v0c0,0,0,0,0,0c0,0,0,0,0,0l0,0c0,0,0,0,0,0c0,0,0,0,0,0c0,0-0.1,0-0.1,0c0,0,0,0,0,0l0,0c0,0,0,0,0,0c0,0,0,0,0,0
	c0,0,0,0,0,0c0,0,0,0,0,0h0c0,0,0,0,0,0h0c0,0,0,0,0,0h0c0,0,0,0,0,0c0,0-0.1,0-0.1,0h0c0,0,0,0,0,0c0,0,0,0-0.1,0c0,0,0,0,0,0
	c0,0,0,0,0,0c0,0,0,0,0,0c0,0,0,0,0,0h0c0,0,0,0,0,0c0,0,0,0,0,0c0,0,0,0,0,0c0,0,0,0,0,0h0h0c0,0,0,0,0,0c0,0,0,0,0,0
	c0.5,0,1,0.5,1.4,1.2c0,0,0,0,0,0c0,0,0,0,0,0c0,0,0,0,0,0l0,0c0,0,0,0,0,0c0,0,0,0,0,0l0,0c0,0,0,0,0,0c0,0,0,0,0,0c0,0,0,0,0,0
	c0,0,0,0,0,0c0,0,0,0,0,0c0,0,0,0,0,0c0,0,0-0.2,0-0.1c0,0,0-0.2,0-0.2c0,0,0,0,0,0c0,0,0,0,0,0c0,0,0,0,0,0c0,0,0,0.2,0,0.2
	c0,0,0,0.1,0,0.1c0,0,0.1,0,0.1,0.1c0,0,0,0,0,0c0,0,0,0,0,0c0,0,0,0,0,0c0,0,0,0,0,0c0,0,0,0,0,0c0,0,0,0,0.1,0c0,0,0,0,0,0
	c0,0,0,0,0,0l0,0l0,0h0c0,0,0,0,0,0h0c0,0,0,0,0,0c0,0-0.2,0-0.2,0c0,0-0.2,0-0.2,0c0,0,0,0,0,0c0,0,0,0,0,0c0,0,0,0,0,0
	c0,0,0.2,0,0.2,0c0,0,0.1,0,0.1,0c0,0,0,0,0,0c0,0,0,0,0,0l0,0l0,0l0,0c0,0-0.2,0-0.2,0c0,0-0.2,0-0.2,0c0,0,0-0.2,0-0.2
	c0,0,0.5-0.2,0.5-0.2h0c0,0,0,0.2,0,0.2c0,0,0,0.1,0,0.1c0,0,0,0,0,0c0,0,0,0,0,0.1c0,0,0,0,0,0c0,0,0,0,0,0c0,0,0,0,0,0
	c0,0,0,0,0,0c0,0,0,0,0,0c0,0,0,0,0,0c0,0,0,0,0.1,0c0,0,0.1,0,0.1,0c0,0,0.2,0,0.2,0c0,0,0,0,0,0c0,0-0.1,0-0.2,0c0,0,0.1,0,0,0
	c0,0,0.1,0,0.1,0c0,0,0-0.4,0-0.4s-0.3,0-0.3,0c0,0,0,0,0,0c0,0,0,0,0,0c0,0,0,0.2,0,0.2c0,0,0-0.1,0-0.1c0,0,0-0.1,0-0.1h0l0,0.2
	c0,0,0,0.1,0,0.1c0,0,0,0,0,0c0,0,0,0-0.1,0c0,0,0,0,0,0c0,0,0,0,0,0l0,0c0,0,0,0,0,0c0,0,0,0,0,0c0,0,0,0,0,0c0,0,0,0-0.1-0.1
	c0,0,0,0,0.1,0l0,0c0,0,0,0-0.1,0c0,0,0,0,0,0c0,0,0,0,0,0l0,0c0,0,0.2,0,0.2,0c0,0-0.7,0,0.3,0v0c-1,0-0.3,0-0.3,0H9.6c0,0,0,0,0,0
	c0,0,0,0,0,0l0,0c0,0,0,0,0,0c0,0-0.5,0-0.5,0v0l0,0v0l0,0v0h0.2H9v0l0.3,0c0,0,0.1,0,0.1,0c0,0,0.1,0,0.1,0c0,0,0,0,0,0L9,11v0
	c0,0,0.4,0,0.4,0c0,0,0,0,0,0s0,0,0,0s0,0,0,0s0,0,0,0s0,0,0,0s0,0,0,0s0,0,0,0s0,0,0,0l0,0c0,0,0,0-0.1,0l0,0l0,0c0,0,0,0,0,0
	c0,0,0,0,0,0c0,0,0,0,0,0l0,0l0,0c0,0,0,0-0.1,0c0,0,0,0,0.1,0c0,0,0,0.1,0,0.1c0,0,0,0.1-0.1,0.1c0,0,0,0,0,0c0,0,0,0,0,0
	c0,0,0,0,0,0c0,0,0,0,0,0c0,0-0.3-0.1-0.3-0.1v-0.1c0,0,0.1,0,0.1-0.1c0,0,0.1,0,0.1,0l0,0c0,0,0,0,0,0c0,0,0,0,0,0c0,0,0,0,0,0
	c0,0-0.1,0-0.1,0c0,0-0.2,0-0.2,0c0,0,0,0,0,0c0,0,0.2,0.3,0.2,0.3h0c0,0,0-0.2,0-0.2c0,0,0.1,0.1,0.1,0.1c0,0,0,0.1,0,0.1
	c0,0,0,0,0,0c0,0,0-0.2,0-0.2c0,0,0-0.1,0-0.1c0,0-0.1,0-0.1,0c0,0-0.2,0-0.2,0V11c0,0,0.2,0,0.2,0c0,0,0.1-0.2,0-0.2
	c0,0,0-0.1,0-0.1c0,0,0-0.1,0.1,0c0,0,0,0.2,0,0.2l0,0.2c0,0,0,0,0,0c0,0,0-0.3,0-0.3l0-0.1l0-0.1c0,0,0-0.3,0-0.3C9,10.2,9,10,9,10
	C9,10,9,10,9,10L9,10.2c0,0,0,0.1-0.1,0.1l0,0c0,0,0.1,0.1,0.1,0.1c0,0,0,0,0,0c0,0,0,0,0,0c0,0,0,0,0,0c0,0,0,0,0,0c0,0,0,0,0,0
	c0,0,0,0,0,0c0,0,0,0,0,0c0,0,0,0,0,0c0,0,0,0,0,0l0,0l0,0l0,0l0,0c0,0-0.1,0-0.1,0c0,0,0.1,0,0.1,0c0,0,0-0.1,0-0.1V10H8.8H9v0.1
	l0,0V10c0,0-0.1,0-0.1,0l0,0H9L9,10v0.2l-0.1,0c0,0-0.1-0.1-0.1-0.1c0,0-0.1-0.1-0.1-0.1"/>
<path style="fill:#B3E710;" d="M10.4,20.8c0,0,0.1-0.2,0.1-0.2c0,0-0.1,0-0.1,0c-0.1-0.2-0.1-0.2-0.1-0.2c0,0-0.1,0-0.1,0
	c0,0-0.1-0.1-0.1-0.1c0,0-0.1,0-0.2,0.1c0,0,0.1-0.1,0-0.1c0,0,0,0,0,0c0,0,0,0,0,0c0,0,0,0-0.1-0.1c-0.2,0.8-0.5,1.5-0.8,2
	c0.1,0,0.1,0,0.1,0c0,0,0.1,0,0.1-0.1c0,0,0.1,0,0.1,0c0,0,0.1-0.1,0.1-0.1c0-0.1,0.2-0.1,0.2-0.2c0.1-0.1,0.1-0.1,0.2-0.2
	c0-0.1,0.1-0.1,0.2-0.3c0,0,0,0,0,0c0,0,0,0,0,0c0,0,0,0,0,0c0,0,0.1,0,0.1-0.1c0,0,0.1-0.1,0.1-0.1c0.1-0.1,0.1-0.1,0.2-0.1
	C10.3,20.8,10.4,20.8,10.4,20.8 M12.8,20.3c0.1-0.1,0.1-0.2,0.2-0.3c0,0,0,0,0,0s0,0,0,0c0,0,0,0,0,0c-0.6,0.9-1.1,1.3-1.3,1.5
	c0.2-0.2,0.4-0.3,0.6-0.5C12.3,20.9,12.6,20.6,12.8,20.3 M9.5,20.1C9.5,20.1,9.5,20.1,9.5,20.1C9.5,20.1,9.5,20.1,9.5,20.1
	C9.5,20.1,9.5,20.1,9.5,20.1 M9.4,20C9.4,20,9.4,20,9.4,20c0,0-0.1,0-0.2,0c0,0,0,0,0,0s0,0,0,0s0,0,0,0s0,0,0,0s0,0,0,0s0,0,0,0
	c0,0,0,0,0,0c0,0,0,0,0,0c0,0,0,0,0,0.1C9.3,20.1,9.3,20.1,9.4,20C9.4,20.1,9.4,20.1,9.4,20 M8.1,18.8C8.1,18.8,8.1,18.8,8.1,18.8
	C8.1,18.8,8.1,18.8,8.1,18.8C8.1,18.8,8.1,18.8,8.1,18.8C8.1,18.8,8.1,18.8,8.1,18.8C8.1,18.8,8.1,18.9,8.1,18.8
	C8.1,18.9,8.1,18.9,8.1,18.8C8.1,18.9,8,18.9,8,18.9c0,0,0,0,0,0C8.1,18.9,8.1,18.9,8.1,18.8C8.1,18.9,8.1,18.9,8.1,18.8 M6.8,17.4
	L6.8,17.4c0-0.1-0.2-0.1-0.2-0.1c0,0,0,0,0,0c0,0,0,0,0,0c0,0,0,0,0,0h0c0,0,0,0,0,0c0,0,0,0,0,0c0,0,0,0,0,0h0l0,0
	c0,0,0.1,0.1,0.1,0.1C6.7,17.5,6.7,17.4,6.8,17.4C6.8,17.4,6.8,17.4,6.8,17.4C6.8,17.4,6.8,17.4,6.8,17.4
	C6.8,17.4,6.8,17.4,6.8,17.4L6.8,17.4 M8.2,17.4C8.2,17.4,8.2,17.4,8.2,17.4c0,0-0.1-0.1-0.2,0c0,0,0,0,0,0.1
	C8.1,17.4,8.2,17.4,8.2,17.4C8.2,17.4,8.2,17.4,8.2,17.4 M7.9,17.4C7.9,17.4,7.9,17.4,7.9,17.4c-0.1-0.1-0.2-0.1-0.2-0.1
	c-0.1,0-0.1,0-0.1,0c0,0,0,0,0,0c0,0,0,0,0,0c0,0,0,0,0,0s0,0-0.1,0c0,0,0,0-0.1,0c-0.1,0-0.1,0-0.2,0l0,0c0,0,0,0,0,0
	c0,0,0.1,0,0.1,0c0,0,0,0,0,0c0,0,0,0,0,0.1c0,0,0,0,0,0c-0.1,0-0.2,0-0.3,0c0,0,0,0,0,0l0,0c0,0,0,0,0.1,0.1c0,0,0,0,0,0
	c0,0,0,0,0.1,0c0.1,0,0.1,0,0.2,0c0,0,0,0.1,0.1,0.1c0-0.1,0-0.1,0.1-0.1c0,0,0,0,0,0c0,0,0.1,0,0.1,0c0,0,0,0,0,0
	C7.8,17.4,7.8,17.4,7.9,17.4C7.8,17.4,7.8,17.4,7.9,17.4C7.9,17.4,7.9,17.4,7.9,17.4 M7.1,17.1L7.1,17.1C7,17.1,7,17.1,6.9,17.1
	c0,0,0,0,0,0c0,0,0,0,0,0h0h0h0h0h0h0l0,0l0,0c-0.1,0-0.2,0-0.2-0.1c0,0,0-0.1-0.1-0.1c0,0-0.1,0-0.1,0c-0.1,0-0.1,0-0.2-0.1
	c0,0,0,0,0,0c-0.1,0-0.1,0-0.2,0c0,0,0,0,0,0h0c0,0,0,0,0,0c0,0,0,0,0,0h0c0,0,0,0,0,0h0c0,0,0,0,0,0c-0.1,0-0.3,0-0.3,0.1
	c0,0,0,0,0,0l0,0c0,0,0.1,0,0.1,0c0.2-0.1,0.2-0.1,0.3-0.1c0,0,0,0,0,0c0,0,0,0,0,0c0,0,0,0,0,0c0,0,0,0,0,0c0,0,0,0,0,0
	c0,0,0,0,0,0c0.1,0,0.1,0,0.2,0c0.1,0,0.1,0,0.1,0.1c0,0,0,0,0,0c0.1,0,0.1,0,0.1,0.1c0.1,0,0.1,0,0.2,0.1c0,0,0,0.1-0.1,0.1
	c0,0,0,0,0,0c0,0,0.1,0,0.1,0c0.1,0,0.1,0,0.2,0C7,17.2,7.1,17.2,7.1,17.1 M7,15L7,15C7,15,6.9,14.9,7,15C6.9,14.9,6.9,14.9,7,15
	C6.9,15,7,15,7,15 M6.9,14.9C6.9,14.9,6.9,14.9,6.9,14.9L6.9,14.9L6.9,14.9 M6.9,14.9C6.9,14.9,6.9,14.9,6.9,14.9L6.9,14.9
	C6.9,14.9,6.9,14.9,6.9,14.9 M6.9,14.9C6.9,14.9,6.9,14.9,6.9,14.9L6.9,14.9C6.9,14.9,6.9,14.9,6.9,14.9 M6.9,14.9
	C6.9,14.9,6.9,14.9,6.9,14.9L6.9,14.9C6.9,14.9,6.9,14.9,6.9,14.9 M8.9,13.6C8.9,13.6,8.9,13.6,8.9,13.6C8.9,13.6,8.8,13.5,8.9,13.6
	c-0.1,0-0.1,0-0.1,0c0,0,0,0,0,0c0,0,0,0,0,0c0,0,0-0.1,0-0.1c0,0,0,0-0.1,0c0,0,0,0,0,0c0,0,0,0.1-0.1,0.1c0,0,0,0,0,0.1
	C8.7,13.6,8.8,13.6,8.9,13.6C8.8,13.6,8.9,13.6,8.9,13.6 M2.7,13.3L2.7,13.3C2.7,13.2,2.7,13.2,2.7,13.3C2.7,13.2,2.7,13.2,2.7,13.3
	c0-0.1,0-0.1,0-0.1c0,0,0-0.1,0-0.1c0,0,0,0,0,0c0,0,0,0-0.1,0c0,0,0,0,0,0l0,0c0,0,0,0.1,0,0.1c0,0,0,0,0,0c0,0,0,0,0,0.1l0,0
	c0,0,0,0,0,0C2.6,13.2,2.6,13.2,2.7,13.3C2.6,13.2,2.6,13.2,2.7,13.3C2.7,13.2,2.6,13.2,2.7,13.3C2.6,13.2,2.6,13.2,2.7,13.3
	C2.6,13.2,2.7,13.3,2.7,13.3C2.7,13.3,2.7,13.3,2.7,13.3C2.7,13.3,2.7,13.3,2.7,13.3 M9.3,19.8C9.3,19.8,9.3,19.8,9.3,19.8
	c-0.1-0.1-0.1-0.1-0.1-0.3c0,0-0.4-0.3-0.5-0.2c0,0-0.1,0-0.1,0c0,0,0,0,0,0l0,0c-0.1-0.1-0.3-0.1-0.4-0.1c0,0-0.3,0-0.3,0
	c0,0,0,0,0,0c0-0.2,0.1-0.2-0.1-0.2c0,0,0.1,0,0.1,0C8,19,8.1,19,8.1,19c-0.1,0,0,0-0.1-0.1c0,0,0,0-0.1,0c0,0,0,0,0,0
	c0,0,0,0,0-0.1c0,0,0,0,0,0c0,0,0.1,0,0.1,0l0,0l0,0c-0.2,0-0.3,0-0.5,0c-0.1,0-0.3-0.1-0.4-0.1c0,0,0-0.1,0-0.1c0,0,0,0,0,0
	c0,0,0,0,0,0l0,0l0,0c0,0,0,0-0.2,0.1c0,0,0,0,0,0c0,0.1,0.1,0.1,0.1,0.2c0,0,0,0-0.1,0c-0.1-0.1-0.1-0.1,0-0.2c0-0.1,0-0.1,0-0.1
	c0,0,0.1,0,0.1,0c0,0,0.1,0,0.1,0c0,0-0.1,0-0.1,0c0,0,0,0,0,0c0,0-0.3,0.3-0.3,0.3c0,0,0,0,0,0c0,0,0-0.3-0.2-0.4
	c-0.1,0-0.2,0-0.3,0C6,18.5,5.8,18.2,5.9,18c0,0,0-0.1,0-0.2c0,0-0.1,0-0.1,0c0-0.1-0.2,0-0.2-0.1c-0.1,0-0.3,0-0.3,0c0,0,0,0,0,0
	l0,0l0,0c0.1-0.1,0.1-0.1,0.1-0.3c0,0,0,0,0-0.1l0,0c0,0,0,0,0-0.1l0,0c0,0,0,0,0,0.1c0-0.1,0-0.1,0-0.2c0,0,0,0,0,0l0,0l0-0.1
	C5.5,17,5.5,17,5.5,17c-0.2-0.1-0.3,0-0.4,0c-0.1,0,0,0-0.1,0c0,0.1,0,0-0.1,0c0,0,0,0,0,0c0,0,0,0.2,0,0.2c0,0,0,0.1,0,0.1
	c0,0,0,0,0,0c0,0,0,0,0,0c-0.1,0-0.3,0-0.4,0C4.2,17,4.2,17,4.2,16.9c0-0.3,0.1-0.8,0.1-0.8l0-0.1c0,0,0,0,0,0c0,0,0.1,0,0.1,0
	c0,0,0,0,0,0c0.1,0,0.1,0,0.2-0.1c0,0,0,0,0-0.1l0,0.1c0.1,0,0.2,0.1,0.3,0.1c0,0,0,0,0,0l0-0.1l0,0l0,0c0,0,0.1,0.1,0.1,0.1
	C5,16,5.1,16,5.1,16c0,0,0,0,0,0L5,15.9c0,0,0,0,0,0l0.1,0l0,0l0,0c0,0,0.1,0.1,0.1,0.1c0,0,0,0-0.1-0.1c0,0,0,0,0,0c0,0,0,0-0.1,0
	c0,0,0,0,0,0c0,0,0,0,0.1,0c0.1,0,0.1,0,0.2,0c0,0,0,0,0,0c0,0,0,0,0,0c0,0,0,0,0.1,0.1c0,0,0,0,0,0c0.1,0,0.1,0,0.1,0
	c0.2,0.1,0.2,0.1,0.2,0.1c0,0,0,0,0.2,0.1C6,16,6,16,6,16.1c0,0,0,0,0,0c0,0,0,0,0,0c0,0,0,0,0,0c0,0,0,0,0,0c0,0,0,0.1,0,0.1
	c0,0,0,0,0,0c0,0,0,0,0,0.1c0,0.1,0.1,0.1,0.1,0.2c0,0,0.1-0.3,0.1-0.3c0,0,0-0.2,0-0.2c0,0,0,0,0,0c0.1,0-0.2-0.3-0.1-0.6
	c0.1-0.2,0.4-0.2,0.6-0.4l0,0.1l0,0l0,0l0,0l0,0c0,0,0,0,0,0c0,0,0,0,0,0c0,0,0,0,0,0c0,0,0,0,0,0c0,0,0.1,0,0.1,0c0,0,0,0,0,0
	c0,0,0,0,0,0c0,0,0,0,0,0c0,0,0,0,0,0l0,0c0,0,0,0,0,0c0,0,0,0,0,0l0,0c0,0,0,0,0,0c0,0,0,0,0,0c0,0-0.1,0-0.1,0c0,0,0.1,0,0.1,0
	c0,0,0.1,0,0.1,0v0l-0.1,0l0,0l0,0l0.1,0l0,0v0l0,0c0,0,0,0.1,0,0.1c0,0,0,0,0,0c0,0,0-0.1,0-0.1c0,0,0,0,0,0l0,0l0,0l0,0.1
	c0,0,0,0,0,0c0,0,0-0.1,0-0.1c0,0-0.1-0.1-0.1-0.1l0,0c0,0,0,0,0.1,0c0,0,0,0,0,0c0,0,0,0.1,0,0.1c0,0,0,0.1,0,0.1c0,0,0,0,0,0l0,0
	l0,0c0,0,0,0,0,0l0-0.1c0,0,0-0.1-0.1-0.1c0,0,0,0,0,0c0,0,0,0,0,0c0,0-0.1,0-0.1-0.1c0,0,0.1,0,0.1,0l0.1,0c0,0,0,0.4,0,0.4
	s-0.2,0-0.2,0c0,0,0-0.2,0-0.2c0,0,0-0.1,0-0.1c0,0,0,0.2,0.1,0.2c0,0,0,0.1,0,0.1c0,0,0,0,0,0h0c0,0,0,0,0,0c0,0,0-0.3,0-0.3
	c0,0,0-0.1,0-0.1l0,0.2l0,0.2c0,0,0,0,0,0l0-0.3l0-0.1l0-0.1l0,0.2l0,0.3h0l0-0.2l0-0.2c0,0,0,0.5,0,0.5s-0.1,0-0.1,0l0-0.2l0.1-0.1
	l0-0.1c0,0,0,0,0,0l0,0l0,0l0,0c0,0,0,0,0,0c0,0,0,0,0,0c0,0,0,0,0,0l0,0l0,0l0,0l0,0l0,0l0,0l0,0c0,0,0,0.3,0,0.3s0,0,0,0
	c0,0,0,0,0,0c0,0,0-0.1,0,0l0-0.1c0,0,0-0.1,0-0.1C7,14.7,7,14.4,7,14.3c0,0,0-0.3,0-0.3h0l0,0.5C7,14.5,7,15,7,15c0,0-0.1,0-0.1,0
	s0-0.4,0-0.4l0,0c0,0,0.1-0.1,0.1-0.1c0-0.1,0.1-0.1,0-0.2l0,0c0,0,0,0,0,0c0.1,0,0.2-0.1,0.3-0.1c0,0,0,0,0,0c0,0,0,0,0,0
	c0,0,0,0,0,0c0,0,0,0,0,0c0,0,0,0,0,0c0,0,0,0,0,0c0,0,0,0,0,0c0,0,0,0,0,0c0,0,0.2,0,0.2,0c0,0,0.1,0,0.1,0c0,0,0,0,0,0L7.7,14
	c0,0,0.3,0,0.3,0s0,0.2,0,0.2l-0.2,0l-0.1,0c0,0-0.1-0.1-0.1-0.1c0,0,0,0,0,0c0,0,0,0,0,0c0,0,0.1,0,0.1,0c0-0.1,0.2-0.1,0.2-0.1
	c0,0,0,0,0,0l-0.1,0l-0.1,0.1L7.7,14c0,0,0,0,0,0l0-0.1l0,0l0,0l0,0l0,0c0,0,0,0.1,0,0c0,0,0,0.1,0,0.1h0l0-0.1l0,0l0,0l0,0
	c0,0,0,0,0,0c0,0,0,0,0,0c0,0,0,0,0,0c0,0,0,0,0,0c0,0,0,0.1,0.1,0.1c0,0,0,0.1,0,0.1c0,0,0,0,0,0l0-0.1l0-0.1l0,0c0,0,0.1,0,0.1,0
	c0,0,0,0,0,0l0,0c0,0,0.1,0,0.1-0.1l0,0.2l0,0.2c0,0,0,0,0,0c0,0,0-0.2-0.1-0.1c0,0,0-0.1,0-0.1c0.1,0,0.2-0.1,0.2-0.1
	c0,0-0.1,0-0.1,0c0,0-0.2,0-0.2,0l-0.2,0V14h0.2l0,0l0,0c0,0,0.1,0,0.1,0l0,0l0,0l0,0l0,0c0,0,0,0-0.1,0c0,0,0,0,0,0L8,13.8
	c0,0,0,0,0,0l0.1,0c0,0,0,0,0,0l0,0l0,0c0,0,0,0,0,0.1c0,0,0,0,0,0c0,0,0,0,0.1,0c0,0,0,0,0,0c0,0,0,0,0,0c0,0,0,0,0,0l0,0
	c0,0,0.1-0.1,0.1-0.1c0,0,0,0.1,0,0.1l0,0.1c0,0,0,0,0,0l-0.2-0.1L8,13.8v0c0,0,0.3,0,0.3,0l0.1,0l0.1,0l0,0c0.1,0,0.1,0,0.2-0.1
	c0,0,0,0,0,0c0,0,0,0,0,0c0,0,0,0,0,0l0,0l0,0l0,0c0,0,0,0-0.1,0l0,0l0,0l0,0c0,0-0.1,0-0.1,0c0,0,0,0.2-0.1,0.2c0,0,0,0.2,0,0.2
	c0,0,0,0,0,0l0-0.2c0,0-0.1-0.1-0.1-0.1l0,0.2c0,0,0,0.1,0,0.1c0,0,0,0,0,0S8,14,8,14s0-0.4,0-0.4l0.2,0l-0.1,0
	c-0.1,0-0.2,0-0.2-0.1c0,0,0,0,0,0c0,0,0.1,0,0.1,0c0,0,0.1-0.1,0.1-0.1l-0.1,0l-0.1,0c0,0,0,0,0,0c0,0,0,0,0,0c0,0,0,0,0,0
	c0-0.1,0.3-0.1,0.3-0.1c-0.2-0.2-0.6,0.1-0.7,0.3C7.8,13,8.2,13,8.6,13c0.1,0,0.2,0,0.3,0c-0.5,0-1,0-1.5,0c-0.3,0-0.5,0-0.8,0
	c-1.7,0-3.1,0-3.9,0c0,0,0,0,0,0c0,0,0,0,0,0c0,0,0,0,0,0c0,0,0,0,0,0c0,0,0,0.3-0.1,0.4c0,0,0,0,0,0c0,0,0,0,0-0.1c0,0,0,0,0,0
	c0,0-0.1,0-0.1,0c0,0,0,0.1,0,0.1c0,0,0,0,0,0l0,0l0,0l0,0c0,0,0,0,0,0c0,0,0,0,0,0c0,0,0,0,0,0c0,0,0,0,0,0c0,0,0,0,0,0
	c0,0,0,0,0,0c0,0,0,0,0,0c0,0,0,0,0,0c0,0,0,0,0,0c0,0.1-0.1,0.2-0.2,0.4c0,0.1,0,0.1-0.2,0.6c0,0,0,0,0,0c0,0,0,0,0,0l0,0.1l0,0
	c0,0,0,0,0,0c0,0,0,0,0,0c0,0,0,0.1,0,0.1c0,0,0,0,0,0l0,0c0,0.1,0.1,0.3,0,0.4c0,0,0.1,0,0.1,0c0,0,0,0,0,0c0,0,0,0,0,0l0,0
	c0,0,0.3,0,0.3,0c0,0.1-0.7,0.1,0.3,0.2c0,0,0,0,0,0c0,0,0,0,0,0c0,0,0,0,0,0c0,0,0,0,0,0c0,0,0,0,0,0c-1,0-1,0-1,0c0,0,0,0,0,0
	c0,0,0,0,0,0c1,0,0.4,0.6,0.4,0.6c0,0,0.1,0,0.1,0c0,0,0.3,0.5,0.5,0.7c0,0,0.1-0.1,0.1-0.1c0,0,0,0,0-0.1c0,0,0,0,0,0
	c0-0.1-0.1-0.4-0.1-0.4c0,0,0,0,0,0c0,0,0-0.1,0-0.1c0,0,0,0,0,0c0-0.2-0.1-0.3-0.2-0.5c0,0,0-0.1,0-0.1c0,0,0.1,0,0.1,0l0,0
	c0,0,0,0,0,0c0,0,0,0,0,0C2.8,16,2.8,16,3.1,16.3c0,0.1,0,0.1,0,0.1l0,0c0.1,0.2,0.2,0.3,0.3,0.5c0,0,0,0,0,0c0,0.1,0,0.1,0,0.2
	c0,0,0,0,0,0c0,0,0,0,0,0C3.5,17.3,4,17.6,4,17.6c0.1,0,0.2,0.1,0.3,0.1c0.1,0,0.2-0.1,0.4,0c0.2,0.1,0.2,0.2,0.4,0.3L5.4,18
	c0,0,0,0,0-0.1c0,0,0,0,0.1,0c0,0,0,0,0,0c0,0,0,0,0,0c0.1,0.1,0.2,0.2,0.3,0.2l0,0l0,0l0,0c0,0,0,0,0,0c0,0,0,0.1,0.1,0.1l0.1,0
	c0,0,0.1,0,0.1-0.1c0,0,0,0,0,0c0,0,0.1,0.1,0.1,0.1c0,0-0.1,0-0.1,0c0,0,0,0,0,0l-0.1,0v0.2C6,18.8,6,19,6,19c0,0,0,0,0,0
	c0.1,0,0.1,0,0.2,0c0,0,0,0,0,0c0,0,0,0,0,0c0,0,0-0.1,0-0.1c0,0,0.1-0.1,0.1-0.1c0,0-0.2-0.1-0.2-0.1c0,0-0.2-0.1-0.2-0.1
	c0,0,0,0,0,0c0,0,0.2,0,0.3,0c0,0,0.1,0,0.1,0c0.1,0,0.2,0,0.2,0.1c0,0,0.1,0.2,0.1,0.2c0,0,0,0.2,0.1,0.2c0,0,0,0,0,0
	c0,0,0-0.1,0-0.1c0,0-0.1-0.1-0.2-0.1c0,0,0,0,0,0c0,0,0,0,0-0.1c-0.2,0-0.1,0.2-0.2,0.3c0,0,0,0,0,0c0,0,0,0,0,0l0,0
	c0,0,0,0-0.1-0.1c0,0,0,0,0,0c0,0,0,0.1,0,0.1c0,0,0,0,0,0c0,0,0,0,0,0c0,0,0,0.1,0,0.1c0.1,0.1,0.1,0.3,0.1,0.3c0,0,0,0,0,0
	c0,0,0,0,0,0.1c0,0-0.1,0-0.1,0c0,0,0,0,0,0.1c0,0,0,0,0,0c0,0-0.1,0-0.1,0.1c0,0,0,0,0,0.1c0.4,0,0.9,0,1.4,0c0.6,0,1.2,0,1.7,0
	C9.1,20,9.3,19.9,9.3,19.8"/>
<linearGradient id="SVGID_8_" gradientUnits="userSpaceOnUse" x1="7.4653" y1="9.0342" x2="7.4653" y2="23.9663">
	<stop  offset="0" style="stop-color:#76A1F0"/>
	<stop  offset="1" style="stop-color:#6B90D5"/>
	<a:midPointStop  offset="0" style="stop-color:#76A1F0"/>
	<a:midPointStop  offset="0.5" style="stop-color:#76A1F0"/>
	<a:midPointStop  offset="1" style="stop-color:#6B90D5"/>
</linearGradient>
<path style="fill:url(#SVGID_8_);" d="M7.5,9C3.3,9,0,12.4,0,16.5C0,20.6,3.3,24,7.5,24c4.1,0,7.5-3.3,7.5-7.5
	C14.9,12.4,11.6,9,7.5,9z M13.7,18.6c-0.1,0.3-0.2,0.6-0.4,0.9s-0.3,0.6-0.5,0.9s-0.4,0.5-0.6,0.8s-0.5,0.5-0.8,0.6
	c-0.3,0.2-0.6,0.4-0.9,0.5c-0.3,0.2-0.6,0.3-0.9,0.4s-0.7,0.2-1,0.2C8.2,23,7.9,23,7.5,23C1,22.7-0.9,15.2,3.3,11.6
	C5,10.1,6.8,10,7.5,10c0.4,0,0.7,0,1.1,0.1c0.3,0.1,0.7,0.1,1,0.2s0.6,0.2,0.9,0.4c0.3,0.2,0.6,0.3,0.9,0.5c0.3,0.2,0.5,0.4,0.8,0.6
	c0.2,0.2,0.5,0.5,0.6,0.8c0.2,0.3,0.4,0.6,0.5,0.9s0.3,0.6,0.4,0.9s0.2,0.7,0.2,1c0.1,0.3,0.1,0.7,0.1,1.1c0,0.4,0,0.7-0.1,1.1
	C13.9,17.9,13.8,18.2,13.7,18.6z"/>
</svg>
