<?xml version="1.0" encoding="utf-8"?>
<!-- Generator: Adobe Illustrator 25.2.1, SVG Export Plug-In . SVG Version: 6.00 Build 0)  -->
<svg width="24px" height="24px" version="1.1" id="Layer_1" xmlns="http://www.w3.org/2000/svg" xmlns:xlink="http://www.w3.org/1999/xlink" x="0px" y="0px"
	 viewBox="0 0 74.4 74.4" style="enable-background:new 0 0 74.4 74.4;" xml:space="preserve" preserveAspectRatio="xMinYMid meet">
<path d="M37.2,0.2C8.6,0.2-14.7,35.9,11,63.6c7.6,7.6,17,11,26.2,10.9c9.2,0.1,18.6-3.2,26.2-10.9
	C89.1,35.9,65.8,0.2,37.2,0.2z M69,34.7H55.2c-0.2-4.2-1-8.1-1.9-12.3c3-1.4,5.7-3.3,8-5.6C65.6,22,68.5,28,69,34.7z M58,13.7
	c-1.8,1.6-3.8,3-5.9,4.2c-1-3.8-2.7-7.3-4.9-10.6C51.2,8.7,55,10.8,58,13.7z M37.2,34.8H23.7c0.1-3.6,0.8-6.9,1.5-10.5
	c3.9,1.4,7.9,2.1,12,2.1c4.1,0,8.1-0.7,12-2.1c0.7,3.6,1.4,6.9,1.5,10.5H37.2z M50.4,40c-0.1,3.6-0.5,7-1.2,10.5
	c-3.9-1.4-7.9-2.1-12-2.1c-4.1,0-8.1,0.7-12,2.1C24.5,47,24.1,43.6,24,40h13.2H50.4z M37.2,5.7c3.9,0,7.8,4.4,10.7,13.3
	c0,0.2,0.2,0.5,0.2,0.8c-3.5,1.4-7.2,2-10.9,2s-7.4-0.7-10.9-2c0-0.3,0.2-0.6,0.2-0.8C29.4,10.1,33.3,5.8,37.2,5.7z M27.2,7.3
	c-2.2,3.3-3.9,6.8-4.9,10.6c-2.1-1.2-4.1-2.6-5.9-4.2C19.4,10.8,23.2,8.7,27.2,7.3z M13.1,16.8c2.3,2.3,5,4.2,8,5.6
	c-0.9,4.2-1.7,8.1-1.9,12.3H5.4C5.9,28,8.8,22,13.1,16.8z M12.5,57.1c-4.1-5-6.5-10.8-6.9-17.3h13.8c0.1,4.2,0.6,8.3,1.5,12.4
	c-2.8,1.5-5.5,3.4-7.9,5.6L12.5,57.1z M16.2,61c1.8-1.6,3.8-3.1,5.9-4.3l0.1,0.2c1.1,3.8,2.8,7.3,4.9,10.4
	C23.1,65.9,19.4,63.8,16.2,61z M37.2,69c-4.1,0.1-8.2-4.6-11-14.1c3.6-1.4,7.3-2,11-2c3.7,0,7.4,0.7,11,2
	C45.4,64.4,41.3,69.1,37.2,69z M47.3,67.3c2.1-3.1,3.8-6.6,4.9-10.4l0.1-0.2c2.1,1.2,4.1,2.7,5.9,4.3C55,63.8,51.3,65.9,47.3,67.3z
	 M61.9,57.1l-0.5,0.7c-2.4-2.2-5.1-4.1-7.9-5.6c0.9-4.1,1.4-8.2,1.5-12.4h13.8C68.4,46.3,66,52.1,61.9,57.1z"/>
</svg>
