<svg width="24" height="24" viewBox="0 0 24 24" fill="none" xmlns="http://www.w3.org/2000/svg" preserveAspectRatio="xMinYMid meet">
<path fill-rule="evenodd" clip-rule="evenodd" d="M18.7785 5.21877C17.1473 3.58756 14.5026 3.58756 12.8714 5.21877L11.5714 6.51877C11.3761 6.71403 11.3761 7.03062 11.5714 7.22588C11.7666 7.42114 12.0832 7.42114 12.2785 7.22588L13.5785 5.92587C14.8191 4.68519 16.8307 4.68519 18.0714 5.92587C19.3121 7.16656 19.3121 9.1781 18.0714 10.4188L15.4714 13.0188C14.2307 14.2595 12.2191 14.2595 10.9785 13.0188C10.7832 12.8235 10.4666 12.8235 10.2713 13.0188C10.0761 13.2141 10.0761 13.5306 10.2713 13.7259C11.9026 15.3571 14.5473 15.3571 16.1785 13.7259L18.7785 11.1259C20.4097 9.49469 20.4097 6.84998 18.7785 5.21877ZM5.22145 18.781C6.85266 20.4122 9.49737 20.4122 11.1286 18.781L12.4286 17.481C12.6238 17.2857 12.6238 16.9692 12.4286 16.7739C12.2333 16.5786 11.9167 16.5786 11.7215 16.7739L10.4215 18.0739C9.18079 19.3146 7.16924 19.3146 5.92856 18.0739C4.68788 16.8332 4.68788 14.8217 5.92856 13.581L8.52857 10.981C9.76925 9.74029 11.7808 9.74029 13.0215 10.981C13.2167 11.1762 13.5333 11.1762 13.7286 10.981C13.9238 10.7857 13.9238 10.4691 13.7286 10.2739C12.0974 8.64266 9.45267 8.64266 7.82146 10.2739L5.22145 12.8739C3.59025 14.5051 3.59024 17.1498 5.22145 18.781Z" fill="#212529"/>
</svg>
