<svg width="24" height="24" viewBox="0 0 24 24" fill="none" xmlns="http://www.w3.org/2000/svg" preserveAspectRatio="xMinYMid meet">
<path fill-rule="evenodd" clip-rule="evenodd" d="M5.49902 4C4.11831 4 2.99902 5.11929 2.99902 6.5V17.5C2.99902 18.8807 4.11831 20 5.49902 20H18.5007C19.8814 20 21.0007 18.8807 21.0007 17.5V6.5C21.0007 5.11929 19.8814 4 18.5007 4H5.49902ZM3.99902 6.5C3.99902 5.67157 4.6706 5 5.49902 5H18.5007C19.3292 5 20.0007 5.67157 20.0007 6.5V17.5C20.0007 18.3284 19.3292 19 18.5007 19H5.49902C4.6706 19 3.99902 18.3284 3.99902 17.5V6.5ZM10.666 7.50439C10.666 7.22825 10.4422 7.00439 10.166 7.00439C9.88987 7.00439 9.66602 7.22825 9.66602 7.50439L9.66602 16.5048C9.66602 16.7809 9.88987 17.0048 10.166 17.0048C10.4422 17.0048 10.666 16.7809 10.666 16.5048L10.666 7.50439ZM13.8354 8.98486C14.1116 8.98486 14.3354 9.20872 14.3354 9.48486V16.5048C14.3354 16.7809 14.1116 17.0048 13.8354 17.0048C13.5593 17.0048 13.3354 16.7809 13.3354 16.5048V9.48486C13.3354 9.20872 13.5593 8.98486 13.8354 8.98486ZM6.49707 11.8684C6.77321 11.8684 6.99707 12.0923 6.99707 12.3684L6.99707 16.5049C6.99707 16.781 6.77321 17.0049 6.49707 17.0049C6.22093 17.0049 5.99707 16.781 5.99707 16.5049L5.99707 12.3684C5.99707 12.0923 6.22093 11.8684 6.49707 11.8684ZM17.5044 11.0005C17.7805 11.0005 18.0044 11.2243 18.0044 11.5005V16.5005C18.0044 16.7766 17.7805 17.0005 17.5044 17.0005C17.2283 17.0005 17.0044 16.7766 17.0044 16.5005V11.5005C17.0044 11.2243 17.2283 11.0005 17.5044 11.0005Z" fill="#212529"/>
</svg>
