<?xml version="1.0" encoding="utf-8"?>
<!-- Generator: Adobe Illustrator 25.2.1, SVG Export Plug-In . SVG Version: 6.00 Build 0)  -->
<svg width="24px" height="24px" version="1.1" id="Layer_1" xmlns="http://www.w3.org/2000/svg" xmlns:xlink="http://www.w3.org/1999/xlink" x="0px" y="0px"
	 viewBox="0 0 74.4 74.4" style="enable-background:new 0 0 74.4 74.4;" xml:space="preserve" preserveAspectRatio="xMinYMid meet">
<g>
	<path d="M18.6,45.9H3.1C1.3,45.9,0,47.2,0,49v22.4c0,1.7,1.3,3.1,3.1,3.1h15.5c1.8,0,3.1-1.3,3.1-3.1V48.9
		C21.7,47.2,20.3,45.9,18.6,45.9z M16.5,69.2H5.3V51.1h11.2V69.2z"/>
	<path d="M44.4,0H29.9c-1.8,0-3.1,1.3-3.1,3.1v68.3c0,1.7,1.3,3.1,3.1,3.1h14.5c1.8,0,3.1-1.3,3.1-3.1V3.1C47.5,1.3,46.1,0,44.4,0z
		 M42.3,69.2H32.1V5.3h10.2V69.2z"/>
	<path d="M71.3,19.4H55.8c-1.8,0-3.1,1.3-3.1,3.1v48.9c0,1.7,1.3,3.1,3.1,3.1h15.5c1.8,0,3.1-1.3,3.1-3.1V22.5
		C74.4,20.7,73,19.4,71.3,19.4z M69.2,69.2H58V24.6h11.2V69.2z"/>
</g>
</svg>
