<?xml version="1.0" encoding="UTF-8" standalone="no"?><!DOCTYPE svg PUBLIC "-//W3C//DTD SVG 1.1//EN" "http://www.w3.org/Graphics/SVG/1.1/DTD/svg11.dtd"><svg width="100%" height="100%" viewBox="0 0 2134 2134" version="1.1" xmlns="http://www.w3.org/2000/svg" xmlns:xlink="http://www.w3.org/1999/xlink" xml:space="preserve" xmlns:serif="http://www.serif.com/" style="fill-rule:evenodd;clip-rule:evenodd;stroke-linejoin:round;stroke-miterlimit:2;"><g id="Layer1"><path d="M618.779,159.558c276.585,-167.753 616.998,-192.16 914.686,-65.581c249.195,105.916 528.669,329.976 524.868,801.856c-5.935,736.935 -603.986,1241.9 -1087.5,1237.5c-400.534,-3.641 -850,-308.528 -850,-1066.67c0,-452.608 230.007,-744.971 497.946,-907.109Z" style="fill:#0d7fa4;"/><path d="M1112.5,362.5c229.129,-0.772 629.167,98.163 629.167,508.333c-0,410.171 -402.505,503.918 -612.5,500c-2.089,-0.039 -3.188,43.029 -3.723,75.882c-0.79,49.411 -33.979,92.419 -81.576,105.71c-13.768,3.585 -29.66,5.879 -48.035,5.908c-84.537,0.136 -111.062,-44.868 -118.359,-63.202c-1.452,-4.009 -2.208,-8.237 -2.234,-12.502c-0.569,-49.414 -3.067,-461.615 -4.03,-620.508c-0.236,-38.968 18.424,-75.634 50.067,-98.378c4.795,-3.445 9.708,-6.977 14.633,-10.517c41.289,-29.676 96.419,-31.458 139.538,-4.508c0.015,0.009 0.03,0.018 0.045,0.027c38.517,24.074 61.735,66.454 61.29,111.873c-1.191,121.529 -3.45,351.882 -3.45,351.882c0,0 427.117,-43.91 391.667,-375c-30.433,-284.236 -376.278,-283.622 -439.564,-283.333c-0,-0 -0,-0 -0,-0c-286.698,1.306 -433.415,157.899 -502.103,225c-51.155,49.974 -207.899,10.561 -108.333,-120.834c131.295,-173.267 361.347,-294.903 637.5,-295.833Z" style="fill:#fff;"/><circle cx="995.833" cy="1729.17" r="104.167" style="fill:#fff;"/></g></svg>
