<svg id="Layer_1" data-name="Layer 1" xmlns="http://www.w3.org/2000/svg" width="48" height="48" viewBox="0 0 48 48"><defs><style>.cls-1{fill:#336;}.cls-2{fill:#fff;}</style></defs><title>48px_sourcefile_20170718_multi</title><circle class="cls-1" cx="24" cy="24" r="24"/><path id="path1" class="cls-2" d="M36.79,22.09l-9.11,4.74V36l9.11-4.69V22.09Zm-25.54-.77v9.13l14.49,5.74V27Zm10.82-4.18a.55.55,0,0,1,.17,0l4.52,2a.46.46,0,0,1-.17.88.83.83,0,0,1-.19,0l-4.52-2a.47.47,0,0,1-.24-.6A.49.49,0,0,1,22.07,17.14Zm-2-1-7.73,3.47,14.27,5.66,9.26-4.69-7.24-2.87v4.46l.41.17a.44.44,0,0,1,.24.62.54.54,0,0,1-.49.26.58.58,0,0,1-.24-.06l-9.52-4a.44.44,0,0,1-.24-.62.58.58,0,0,1,.71-.21l.54.22Zm2-1.2a.55.55,0,0,1,.17,0l4.52,2a.46.46,0,0,1-.17.88.83.83,0,0,1-.19,0l-4.52-2a.47.47,0,0,1-.24-.6A.46.46,0,0,1,22.07,14.91Zm0-2.38a.55.55,0,0,1,.17,0l4.52,2a.46.46,0,0,1-.17.88.83.83,0,0,1-.19,0l-4.52-2a.47.47,0,0,1-.24-.6A.49.49,0,0,1,22.07,12.53Zm-1-1.69V19l6.43,2.72V13.46ZM20,9.38l8.59,3.51V16l10,4V32.4l-12,6.23-17.27-7V19.31L20,14.57Z"/></svg>