<?xml version="1.0" encoding="utf-8"?>
<!-- Generator: Adobe Illustrator 17.0.2, SVG Export Plug-In . SVG Version: 6.00 Build 0)  -->
<!DOCTYPE svg PUBLIC "-//W3C//DTD SVG 1.1//EN" "http://www.w3.org/Graphics/SVG/1.1/DTD/svg11.dtd">
<svg version="1.1" id="Layer_1" xmlns="http://www.w3.org/2000/svg" xmlns:xlink="http://www.w3.org/1999/xlink" x="0px" y="0px"
	 width="16px" height="16px" viewBox="-0.5 4.5 16 16" enable-background="new -0.5 4.5 16 16" xml:space="preserve">
<path fill="#999999" d="M12.584,9.718l-0.465-0.465c-0.266-0.266-0.731-0.266-0.93,0L8.53,11.911v-6.38
	c0-0.332-0.266-0.665-0.665-0.665H7.201c-0.332,0-0.665,0.332-0.665,0.665v6.38L3.878,9.253c-0.332-0.266-0.731-0.266-0.997,0
	L2.416,9.718c-0.266,0.266-0.266,0.665,0,0.93l4.652,4.652c0.266,0.266,0.665,0.266,0.93,0l0.465-0.465l0,0l4.12-4.12
	C12.85,10.449,12.85,9.984,12.584,9.718z"/>
<path fill="#999999" d="M15.45,18.104c0,0.886-0.718,1.604-1.604,1.604H1.154c-0.886,0-1.604-0.718-1.604-1.604l0,0
	c0-0.886,0.718-1.604,1.604-1.604h12.692C14.732,16.5,15.45,17.218,15.45,18.104L15.45,18.104z"/>
</svg>
