<?xml version="1.0" encoding="utf-8"?>
<!-- Generated by IcoMoon.io -->
<!DOCTYPE svg PUBLIC "-//W3C//DTD SVG 1.1//EN" "http://www.w3.org/Graphics/SVG/1.1/DTD/svg11.dtd">
<svg version="1.1" xmlns="http://www.w3.org/2000/svg" xmlns:xlink="http://www.w3.org/1999/xlink" width="1024" height="1024" viewBox="0 0 1024 1024">
	<path d="M809.011 409.702h-92.211v-71.68c0-148.326-68.301-235.52-204.8-235.52-136.448 0-204.8 87.194-204.8 235.52v71.68h-102.4c-28.262 0-51.2 33.126-51.2 61.44v399.36c0 28.16 21.965 58.317 48.742 66.918l61.235 19.814c26.778 8.653 71.731 15.718 99.942 15.718h296.96c28.16 0 73.165-7.066 99.942-15.718l61.235-19.814c26.829-8.602 48.742-38.758 48.742-66.918v-399.36c0-28.314-33.126-61.44-61.389-61.44zM409.6 317.542c0-73.984 40.858-112.64 102.4-112.64 61.594 0 102.4 38.656 102.4 112.64v92.16h-204.8v-92.16z" />
</svg>
