<?xml version="1.0" encoding="utf-8"?>
<!-- Generated by IcoMoon.io -->
<!DOCTYPE svg PUBLIC "-//W3C//DTD SVG 1.1//EN" "http://www.w3.org/Graphics/SVG/1.1/DTD/svg11.dtd">
<svg version="1.1" xmlns="http://www.w3.org/2000/svg" xmlns:xlink="http://www.w3.org/1999/xlink" width="1024" height="1024" viewBox="0 0 1024 1024">
	<path d="M808.96 409.6h-92.16v-122.88c0-148.326-68.352-235.52-204.8-235.52-136.499 0-204.8 87.194-204.8 235.52v20.48h102.4v-40.96c0-73.984 40.806-112.64 102.4-112.64 61.542 0 102.4 38.656 102.4 112.64v143.36h-409.6c-28.314 0-51.2 33.126-51.2 61.44v399.36c0 28.16 21.965 58.266 48.742 66.918l61.235 19.814c26.829 8.602 71.782 15.667 99.942 15.667h296.96c28.211 0 73.165-7.066 99.942-15.718l61.235-19.814c26.778-8.602 48.742-38.707 48.742-66.867v-399.36c0-28.314-33.126-61.44-61.44-61.44z" />
</svg>
