<svg xmlns="http://www.w3.org/2000/svg" viewBox="0 0 934.36 169.63" preserveAspectRatio="xMinYMid meet"><g id="Layer_2" data-name="Layer 2"><g id="Layer_1-2" data-name="Layer 1"><path d="M762.37,40.25a8.45,8.45,0,0,0-8.44,8.44v88.4l-72-91.84c-1.9-2.41-4.22-4.65-8.28-4.65H671.7A8.56,8.56,0,0,0,663.26,49V160a8.37,8.37,0,0,0,8.27,8.44A8.45,8.45,0,0,0,680,160V69.11l73.63,94.16c2.13,2.48,4.62,4.78,8.42,4.78h.7a7.83,7.83,0,0,0,7.92-8.09V48.69A8.37,8.37,0,0,0,762.37,40.25Z" style="fill:#414443"/><path d="M872.92,119.11c0-23.7-15.06-47.7-43.83-47.7a43.32,43.32,0,0,0-32.44,14.36c-8.25,9.1-12.8,21.37-12.8,34.58v.35c0,27.89,20.21,48.93,47,48.93,14.28,0,25.21-4.37,35.37-14.12a7.4,7.4,0,0,0,2.65-5.59,7.43,7.43,0,0,0-12.5-5.38c-7.52,6.92-15.51,10.15-25.17,10.15-16,0-27.93-11-30.27-27.66H865A7.92,7.92,0,0,0,872.92,119.11ZM828.74,86c11.75,0,24.9,7.35,27.31,27.83H800.93C803.23,97.36,814.46,86,828.74,86Z" style="fill:#414443"/><path d="M926.62,152.4a7.44,7.44,0,0,0-1.88.35,23.35,23.35,0,0,1-6.39.88c-9.38,0-13.75-4.31-13.75-13.57V88.47h22a7.66,7.66,0,0,0,7.74-7.56,7.75,7.75,0,0,0-7.74-7.56h-22V53.44A8.55,8.55,0,0,0,896.16,45a8.27,8.27,0,0,0-8.26,8.44V73.35h-5.82a7.66,7.66,0,0,0-7.56,7.56,7.75,7.75,0,0,0,7.56,7.56h5.82v53.35c0,17.6,9.69,27.28,27.28,27.28a35.66,35.66,0,0,0,13.94-2.57,7.23,7.23,0,0,0,4.89-6.75A7.4,7.4,0,0,0,926.62,152.4Z" style="fill:#414443"/><path d="M153.57,164.26V106.85q0-18-14.87-18t-14.88,18v57.41H94.6V106.85q0-18-14.62-18-14.88,0-14.87,18v57.41H35.88v-60.8q0-18.78,13-28.43Q60.41,66.41,80,66.41q19.83,0,29.23,10.18,8.08-10.19,29.49-10.18,19.56,0,31,8.62,13,9.64,13,28.43v60.8Z" style="fill:#f98012"/><path d="M511.75,164V0H541V164Z" style="fill:#f98012"/><path d="M474.47,164v-9.66q-3.92,5.22-13.32,8.36a49.12,49.12,0,0,1-15.93,2.87q-20.89,0-33.55-14.37T399,115.68c0-13.92,4.11-25.61,12.41-35,7.34-8.3,19.28-14.1,33-14.1,15.49,0,24.54,5.82,30,12.53V0h28.46V164Zm0-54.57q0-7.85-7.44-15t-15.28-7.19A20.73,20.73,0,0,0,434,96.36q-5.75,8.1-5.74,19.84,0,11.49,5.74,19.59,6.54,9.41,17.76,9.4,6.79,0,14.75-6.4t8-13.19Z" style="fill:#f98012"/><path d="M343.91,166.6q-22.2,0-36.69-14.1t-14.5-36.3q0-22.19,14.5-36.29T343.91,65.8q22.18,0,36.82,14.11t14.62,36.29q0,22.2-14.62,36.3T343.91,166.6Zm0-77.29q-10.57,0-16.26,8a32.07,32.07,0,0,0-5.67,19q0,11,5.28,18.63a20.35,20.35,0,0,0,33.3,0q5.54-7.6,5.54-18.63t-5.28-18.63Q354.73,89.31,343.91,89.31Z" style="fill:#f98012"/><path d="M238.15,166.6q-22.2,0-36.69-14.1T187,116.2Q187,94,201.46,79.91T238.15,65.8q22.18,0,36.82,14.11t14.62,36.29q0,22.2-14.62,36.3T238.15,166.6Zm0-77.29q-10.56,0-16.26,8a32.08,32.08,0,0,0-5.68,19q0,11,5.29,18.63a20.35,20.35,0,0,0,33.3,0q5.55-7.6,5.55-18.63t-5.29-18.63Q249,89.31,238.15,89.31Z" style="fill:#f98012"/><path d="M575.64,125.08c.62,7,9.67,21.94,24.55,21.94,14.48,0,21.33-8.36,21.67-11.75l30.81-.27c-3.36,10.28-17,32.13-53,32.13-15,0-28.68-4.66-38.52-14s-14.75-21.46-14.75-36.43q0-23.25,14.75-36.95T599.4,66.07q25.59,0,40,17,13.32,15.67,13.32,42Zm47.78-18a29.09,29.09,0,0,0-7.82-15.4,22,22,0,0,0-15.68-6.53,20.53,20.53,0,0,0-15.28,6.26,31.66,31.66,0,0,0-8.22,15.67Z" style="fill:#f98012"/><path d="M92.65,62l29-21.2-.37-1.29C68.94,45.9,45.11,50.45,0,76.6l.42,1.19,3.59,0a180.84,180.84,0,0,0-.17,26c-5,14.48-.13,24.33,4.45,35,.72-11.15.65-23.34-2.77-35.47a180.08,180.08,0,0,1,.19-25.51l29.91.29a135.7,135.7,0,0,0,.89,17.54c26.72,9.39,53.6,0,67.86-23.19C100.42,68,92.65,62,92.65,62Z" style="fill:#363636"/></g></g></svg>