<?xml version="1.0" encoding="UTF-8" standalone="no"?>
<!-- Generator: Adobe Illustrator 27.9.1, SVG Export Plug-In . SVG Version: 6.00 Build 0)  -->

<svg
   version="1.1"
   id="Layer_1"
   x="0px"
   y="0px"
   viewBox="0 0 19 20"
   style="enable-background:new 0 0 19 20;"
   xml:space="preserve"
   sodipodi:docname="crop.svg"
   inkscape:version="1.3.2 (091e20ef0f, 2023-11-25, custom)"
   xmlns:inkscape="http://www.inkscape.org/namespaces/inkscape"
   xmlns:sodipodi="http://sodipodi.sourceforge.net/DTD/sodipodi-0.dtd"
   xmlns="http://www.w3.org/2000/svg"
   xmlns:svg="http://www.w3.org/2000/svg"><defs
   id="defs1" /><sodipodi:namedview
   id="namedview1"
   pagecolor="#ffffff"
   bordercolor="#000000"
   borderopacity="0.25"
   inkscape:showpageshadow="2"
   inkscape:pageopacity="0.0"
   inkscape:pagecheckerboard="0"
   inkscape:deskcolor="#d1d1d1"
   inkscape:zoom="38.6"
   inkscape:cx="9.4948187"
   inkscape:cy="10"
   inkscape:window-width="1920"
   inkscape:window-height="1000"
   inkscape:window-x="0"
   inkscape:window-y="0"
   inkscape:window-maximized="1"
   inkscape:current-layer="Layer_1" />
<g
   id="crop-02">
	<g
   id="Icon">
		<path
   d="M14.6,19.2c-0.5,0-0.8-0.4-0.8-0.8V16H7.2c-1,0-1.6,0-2.2-0.3c-0.5-0.2-0.9-0.6-1.1-1.1c-0.3-0.5-0.3-1.1-0.3-2.2V5.8H1.2    C0.7,5.8,0.3,5.4,0.3,5c0-0.5,0.4-0.8,0.8-0.8h2.5V1.6c0-0.5,0.4-0.8,0.8-0.8s0.8,0.4,0.8,0.8v10.8c0,0.7,0,1.2,0.1,1.4    s0.2,0.3,0.4,0.4c0.2,0.1,0.7,0.1,1.4,0.1h10.8c0.5,0,0.8,0.4,0.8,0.8s-0.4,0.8-0.8,0.8h-2.5v2.5C15.5,18.9,15.1,19.2,14.6,19.2z     M14.6,12.5c-0.5,0-0.8-0.4-0.8-0.8v-4c0-0.7,0-1.2-0.1-1.4c-0.1-0.2-0.2-0.3-0.4-0.4s-0.7-0.1-1.4-0.1h-4C7.5,5.8,7.1,5.4,7.1,5    c0-0.5,0.4-0.8,0.8-0.8h4c1,0,1.6,0,2.2,0.3c0.5,0.2,0.9,0.6,1.1,1.1c0.3,0.5,0.3,1.1,0.3,2.2v4C15.5,12.1,15.1,12.5,14.6,12.5z"
   id="path1" />
	</g>
</g>
<path
   style="fill:#fcfcfc;stroke-width:0.0259067"
   d="m 14.404145,12.464267 c -0.217682,-0.05751 -0.393053,-0.203169 -0.511499,-0.424832 l -0.05845,-0.109383 -0.01518,-2.6295339 C 13.802898,6.5088853 13.799504,6.4350538 13.677676,6.2266554 13.591802,6.0797587 13.402969,5.9192767 13.256335,5.8685725 13.049559,5.7970722 12.408259,5.7791281 10.024517,5.7781439 L 7.7433339,5.7772021 7.6102265,5.7108719 C 7.4374981,5.6247977 7.2864503,5.4764363 7.1973047,5.3052941 7.139385,5.1940995 7.1259726,5.1343424 7.1258747,4.9870466 7.1256635,4.6693217 7.2734397,4.4371121 7.5647668,4.2973893 l 0.1554405,-0.07455 2.5722647,-2.04e-5 c 1.599877,-1.27e-5 2.667365,0.01015 2.823834,0.026885 0.337608,0.036107 0.604244,0.1048567 0.90672,0.2337889 0.335908,0.1431832 0.559615,0.2959775 0.782024,0.5341305 0.152089,0.1628552 0.216179,0.261445 0.365801,0.5627113 0.311126,0.6264571 0.290891,0.3859851 0.301664,3.5849161 l 0.0092,2.7274263 -0.07171,0.131751 c -0.135597,0.249136 -0.451529,0.437825 -0.757296,0.452291 -0.09396,0.0044 -0.205806,-0.0012 -0.248552,-0.01245 z"
   id="path2" /><path
   style="fill:#fcfcfc;stroke-width:0.0259067"
   d="m 14.415268,19.162373 c -0.268716,-0.07451 -0.450899,-0.237032 -0.545862,-0.486953 -0.04459,-0.117344 -0.04816,-0.221851 -0.04816,-1.407915 v -1.281162 l -3.9313476,-0.0092 C 6.3660619,15.96886 5.9369842,15.963486 5.7505065,15.92528 5.0592176,15.78365 4.5231443,15.490146 4.1989233,15.075778 4.1207601,14.975882 3.9937795,14.763496 3.9167443,14.60381 3.6100987,13.968164 3.6330244,14.346462 3.621692,9.735135 L 3.6119687,5.7785604 2.285259,5.7714044 0.95854922,5.7642487 0.81222896,5.6956487 C 0.62603863,5.6083562 0.4660678,5.4485093 0.382736,5.2664889 0.32674302,5.1441839 0.31911986,5.0972894 0.32947052,4.9388212 0.3499003,4.6260425 0.5265001,4.380329 0.80604311,4.2757386 0.94181153,4.2249409 1.0015104,4.2227979 2.2807646,4.2227979 h 1.333225 V 2.854443 c 0,-1.5733169 -0.00344,-1.5438454 0.2073013,-1.7744331 0.3906063,-0.42738551 1.0353472,-0.30886676 1.2914563,0.2374004 l 0.0686,0.1463203 0.012953,6.0621761 c 0.011948,5.5917433 0.016334,6.0719213 0.056513,6.1877533 0.094717,0.273057 0.2913322,0.462693 0.5646389,0.544596 0.062366,0.01869 2.0157772,0.03177 6.1664129,0.04129 5.800724,0.0133 6.080622,0.01607 6.19675,0.06121 0.398647,0.154983 0.611149,0.638395 0.442916,1.007568 -0.07344,0.161157 -0.259393,0.3569 -0.414164,0.435968 l -0.124465,0.06359 -1.355529,0.0071 -1.355529,0.0071 0.0062,1.421033 0.0062,1.421034 -0.06745,0.115087 c -0.07429,0.126764 -0.20915,0.23214 -0.369235,0.288508 -0.16024,0.05642 -0.397817,0.07184 -0.532332,0.03454 z"
   id="path3" /></svg>
