<?xml version="1.0" encoding="utf-8"?>
<!-- Generator: Adobe Illustrator 15.1.0, SVG Export Plug-In  -->
<!DOCTYPE svg PUBLIC "-//W3C//DTD SVG 1.1//EN" "http://www.w3.org/Graphics/SVG/1.1/DTD/svg11.dtd" [
	<!ENTITY ns_flows "http://ns.adobe.com/Flows/1.0/">
]>
<svg version="1.1"
	 xmlns="http://www.w3.org/2000/svg" xmlns:xlink="http://www.w3.org/1999/xlink" xmlns:a="http://ns.adobe.com/AdobeSVGViewerExtensions/3.0/"
	 x="0px" y="0px" width="16px" height="16px" viewBox="-4 -1 16 16" style="overflow:visible;enable-background:new -4 -1 16 16;"
	 xml:space="preserve" preserveAspectRatio="xMinYMid meet">
<defs>
</defs>
<path style="fill:#999999;" d="M0,14.6c0.5,0,0.9-0.1,1.1-0.3c0.3-0.2,0.6-0.7,0.8-1.4L4.7,2.8c0.1-0.4,0.2-0.7,0.2-0.9
	C5,1.7,5,1.6,5,1.4C5,1,4.9,0.8,4.6,0.6C4.4,0.5,4,0.4,3.3,0.4V0H9v0.4C8.4,0.5,8,0.6,7.8,0.8C7.6,0.9,7.4,1.4,7.2,2.1L4.3,12.2
	c-0.1,0.4-0.2,0.7-0.2,0.9s-0.1,0.4-0.1,0.5c0,0.4,0.1,0.6,0.4,0.8s0.7,0.2,1.2,0.2V15H0V14.6z"/>
</svg>
