<?xml version="1.0" encoding="utf-8"?>
<svg style="position: absolute; width: 0; height: 0;" width="0" height="0" version="1.1" xmlns="http://www.w3.org/2000/svg" xmlns:xlink="http://www.w3.org/1999/xlink">
  <defs>
    <symbol id="icon-Solutions---02" viewBox="0 0 512 512">
      <title>Solutions---02</title>
      <g>
        <ellipse cy="24" cx="24" ry="24" rx="24" fill="#0066CC" />
        <path class="path1" d="M5.5910779,1.5819702C4.8241001,1.5830078 3.9370643,1.9550171 2.9290553,2.927002 -1.2530075,7.3959961 5.5171023,9.3969727 5.5171023,9.3969727 6.0431105,9.6259766 6.6341215,10.059998 7.1431008,10.513977L1.9650531,15.75 8.1071025,21.963989C7.7051197,22.286987 7.2760979,22.570984 6.8851014,22.744019 6.8851014,22.744019 0.20202896,24.864014 4.2990686,29.213989 8.7191106,33.445007 10.696127,26.598022 10.696127,26.598022 10.864159,26.200989 11.147183,25.77002 11.464142,25.360962L15.569239,29.513977 20.615266,24.408997C20.350309,24.224976 20.080285,24.067017 19.828267,23.955017 19.828267,23.955017 13.146172,21.835022 17.242234,17.482971 21.662276,13.250977 23.639354,20.10199 23.639354,20.10199 23.749341,20.356995 23.905349,20.627014 24.08632,20.896973L29.173425,15.75 25.033355,11.563965C25.54337,11.115967 26.133344,10.680969 26.656362,10.451965 26.656362,10.451965 33.426471,8.4530029 29.242395,3.9799805 24.94235,-0.16400146 22.844298,6.5980225 22.844298,6.5980225 22.618283,7.1270142 22.190299,7.723999 21.7473,8.2379761L15.569239,1.9879761 10.43117,7.1879883C9.985119,6.6719971 9.5551206,6.0739746 9.3261129,5.5429688 9.3261129,5.5429688 8.0970927,1.5800171 5.5910779,1.5819702z M15.568201,0L21.557294,6.0599976C21.845323,5.1939697 23.341315,1.2310181 26.579333,1.2310181 27.790349,1.2310181 29.008382,1.8150024 30.201392,2.9619751 31.736447,4.6019897 32.278445,6.1879883 31.867429,7.7310181 31.174428,10.315002 27.990363,11.497009 27.190366,11.757019L31.139453,15.75 23.883315,23.093018 22.939332,21.687988C22.693296,21.325012,22.501338,20.979004,22.365289,20.661987L22.330316,20.580017 22.305291,20.494995C22.030324,19.562012 21.060279,17.508972 19.96926,17.508972 19.489274,17.508972 18.877267,17.852966 18.196227,18.505981 17.739251,18.992981 17.167222,19.77301 17.334216,20.424988 17.591239,21.453003 19.408279,22.343018 20.248256,22.617004L20.314298,22.635986 20.381253,22.666992C20.698274,22.804993,21.039283,23,21.399272,23.247986L22.784301,24.205017 15.568201,31.502014 11.794164,27.682983C11.259183,29.085022 9.8101283,32 7.0260945,32 5.80507,32 4.5670773,31.404968 3.343062,30.234985 1.4890334,28.268982 1.4310492,26.615967 1.699058,25.565979 2.2630306,23.362 4.6350714,22.130981 5.8230759,21.640991L0,15.75 4.9900566,10.703979C4.2040354,10.448975 0.99903666,9.2680054 0.30603408,6.6749878 -0.10699617,5.132019 0.43604087,3.5449829 1.9200082,1.960022 3.163067,0.75701904 4.3830539,0.17401123 5.5930921,0.17401123 8.8411218,0.17401123 10.336136,4.1610107 10.616169,5.0100098z" />
      </g>
    </symbol>
  </defs>
</svg>

