<!DOCTYPE svg PUBLIC "-//W3C//DTD SVG 1.1//EN" "http://www.w3.org/Graphics/SVG/1.1/DTD/svg11.dtd" [
	<!ENTITY ns_flows "http://ns.adobe.com/Flows/1.0/">
]><svg xmlns="http://www.w3.org/2000/svg" width="16" height="16" viewBox="0 0 16 16" preserveAspectRatio="xMinYMid meet" overflow="visible"><path d="M14 1h-2v1.5c0 .8-.7 1.5-1.5 1.5s-1.5-.7-1.5-1.5v-1.5h-3v1.5c0 .8-.7 1.5-1.5 1.5s-1.5-.7-1.5-1.5v-1.5h-2c-.6 0-1 .4-1 1v13c0 .6.4 1 1 1h13c.6 0 1-.4 1-1v-13c0-.6-.4-1-1-1zm-10 13h-2v-2h2v2zm0-3h-2v-2h2v2zm0-3h-2v-2h2v2zm3 6h-2v-2h2v2zm0-3h-2v-2h2v2zm0-3h-2v-2h2v2zm3 6h-2v-2h2v2zm0-3h-2v-2h2v2zm0-3h-2v-2h2v2zm3 6h-2v-2h2v2zm0-3h-2v-2h2v2zm0-3h-2v-2h2v2zm-8-5.5c0 .3-.2.5-.5.5s-.5-.2-.5-.5v-2c0-.3.2-.5.5-.5s.5.2.5.5v2zm6 0c0 .3-.2.5-.5.5s-.5-.2-.5-.5v-2c0-.3.2-.5.5-.5s.5.2.5.5v2z" fill="#999"/></svg>