<!DOCTYPE svg PUBLIC "-//W3C//DTD SVG 1.1//EN" "http://www.w3.org/Graphics/SVG/1.1/DTD/svg11.dtd" [
	<!ENTITY ns_flows "http://ns.adobe.com/Flows/1.0/">
]><svg xmlns="http://www.w3.org/2000/svg" width="16" height="16" viewBox="0 0 16 16" preserveAspectRatio="xMinYMid meet" overflow="visible"><path d="M10 0v2h-4v-2h4zm1 2h1c.4 0 .8.1 1.1.3.3-.3.8-.4 1.2-.4.5 0 1 .2 1.4.6l.3.3v-.8c0-1.1-.9-2-2-2h-3v2zm3 8h2v-3.6l-2 2v1.6zm0 1v1c0 1.1-.9 2-2 2h-1v2h3c1.1 0 2-.9 2-2v-3h-2zm-4 5v-2h-4v2h4zm-5-2h-1c-1.1 0-2-.9-2-2v-1h-2v3c0 1.1.9 2 2 2h3v-2zm-5-4h2v-4h-2v4zm2-5v-1c0-1.1.9-2 2-2h1v-2h-3c-1.1 0-2 .9-2 2v3h2z" fill="#999"/><path d="M15.7 3.9l-.7-.7c-.4-.4-1-.4-1.4 0l-6 6-2.2-2.2c-.4-.3-1-.3-1.4 0l-.7.7c-.4.4-.4 1 0 1.4l3.6 3.6c.4.4 1 .4 1.4 0l7.4-7.4c.4-.4.4-1 0-1.4z" fill="#76A1F0"/></svg>