<!DOCTYPE svg PUBLIC "-//W3C//DTD SVG 1.1//EN" "http://www.w3.org/Graphics/SVG/1.1/DTD/svg11.dtd" [
	<!ENTITY ns_flows "http://ns.adobe.com/Flows/1.0/">
]><svg xmlns="http://www.w3.org/2000/svg" width="16" height="16" viewBox="0 0 16 16" preserveAspectRatio="xMinYMid meet" overflow="visible"><path d="M15.7 7.3l-2.5-2.5c-.4-.4-.7-.3-.7.3v1.6h-3v-3h1.5c.5 0 .7-.3.3-.7l-2.6-2.7c-.4-.4-1-.4-1.4 0l-2.5 2.6c-.4.3-.3.7.2.7h1.5v3h-3v-1.6c0-.5-.3-.7-.7-.3l-2.5 2.6c-.4.4-.4 1 0 1.4l2.5 2.5c.4.4.7.3.7-.3v-1.3h3v3h-1.5c-.5 0-.7.2-.3.6l2.5 2.5c.4.4 1 .4 1.4 0l2.6-2.5c.4-.4.3-.6-.3-.6h-1.4v-3h3v1.4c0 .5.3.7.7.3l2.5-2.5c.4-.5.4-1.1 0-1.5z" fill="#999"/></svg>