<!DOCTYPE svg PUBLIC "-//W3C//DTD SVG 1.1//EN" "http://www.w3.org/Graphics/SVG/1.1/DTD/svg11.dtd" [
	<!ENTITY ns_flows "http://ns.adobe.com/Flows/1.0/">
]><svg xmlns="http://www.w3.org/2000/svg" width="16" height="16" viewBox="-0.1 0 16 16" preserveAspectRatio="xMinYMid meet" overflow="visible" enable-background="new -0.1 0 16 16"><path d="M5.9 15c0 .3.1 1 .3 1h-5.6c-.5 0-.8-.4-.5-.9l1.6-3.1h4.3v3zm-1.7-8l-2 4h4.1c.1-.2.2-.3.4-.5.3-.3.8-.5.8-.5 0-1.2.3-2.1 1.3-3l.1-.1h-4.7zm7.1-1l-2.9-5.6c-.2-.5-.7-.5-.9 0l-2.8 5.6h6.6zm3.1 4v1h.6c.5 0 1 .5 1 1v3c0 .5-.5 1-1 1h-7c-.5 0-1-.5-1-1v-3c0-.5.4-1 1-1h.6v-1c0-1.6 1.3-3 2.9-3 1.6 0 2.9 1.3 2.9 3zm-2.9 2c-.5 0-1 .4-1 1 0 .4.2.7.6.9l-.1.1-.5 1h2l-.5-1-.1-.1c.3-.2.6-.5.6-.9 0-.5-.5-1-1-1zm0-3c-.5 0-1 .4-1 1v1h1.9v-1c0-.6-.4-1-.9-1z" fill="#999"/></svg>