<!DOCTYPE svg PUBLIC "-//W3C//DTD SVG 1.1//EN" "http://www.w3.org/Graphics/SVG/1.1/DTD/svg11.dtd" [
	<!ENTITY ns_flows "http://ns.adobe.com/Flows/1.0/">
]><svg xmlns="http://www.w3.org/2000/svg" width="16" height="16" viewBox="0 0 16 16" preserveAspectRatio="xMinYMid meet" overflow="visible"><path d="M8 0c-4.4 0-8 3.6-8 8s3.6 8 8 8 8-3.6 8-8-3.6-8-8-8zm0 14c-3.3 0-6-2.7-6-6s2.7-6 6-6 6 2.7 6 6-2.7 6-6 6zm1.2-2c0 .5-.5 1-1 1h-.4c-.5 0-1-.5-1-1v-4.6c0-.5.5-1 1-1h.5c.5 0 1 .5 1 1v4.6zm0-7.8c0 .7-.6 1.2-1.2 1.2-.7 0-1.2-.6-1.2-1.2 0-.7.5-1.2 1.2-1.2s1.2.5 1.2 1.2z" fill="#999"/></svg>