<!DOCTYPE svg PUBLIC "-//W3C//DTD SVG 1.1//EN" "http://www.w3.org/Graphics/SVG/1.1/DTD/svg11.dtd" [
	<!ENTITY ns_flows "http://ns.adobe.com/Flows/1.0/">
]><svg xmlns="http://www.w3.org/2000/svg" width="16" height="16" viewBox="-0.7 0 16 16" preserveAspectRatio="xMinYMid meet" overflow="visible" enable-background="new -0.7 0 16 16"><path d="M13.8 5.9c-1.2-1.2-3.1-1.2-4.2 0-.4.3-.6.7-.7 1.1h-2.3l-1.3-2.1c.9-1.2.9-2.9-.2-4-1.1-1.2-3.1-1.2-4.2 0-1.2 1.2-1.2 3.1 0 4.2.7.7 1.8 1 2.8.8l1.1 2.1-1.2 2c-1-.2-2 0-2.8.8-1.2 1.2-1.2 3.1 0 4.2 1.2 1.2 3.1 1.2 4.2 0 1.1-1.1 1.2-2.8.2-4l1.4-2h2.3c.1 0 .3.8.7 1.1 1.2 1.2 3.1 1.2 4.2 0 1.2-1.2 1.2-3.1 0-4.2z" fill="#999"/></svg>