<!DOCTYPE svg PUBLIC "-//W3C//DTD SVG 1.1//EN" "http://www.w3.org/Graphics/SVG/1.1/DTD/svg11.dtd" [
	<!ENTITY ns_flows "http://ns.adobe.com/Flows/1.0/">
]><svg xmlns="http://www.w3.org/2000/svg" width="12" height="12" viewBox="-0.1 -0.1 12 12" preserveAspectRatio="xMinYMid meet" overflow="visible" enable-background="new -0.1 -0.1 12 12"><path d="M11.6 5.2l-1.8-1.7c-.4-.4-.9-.2-.9.3v1.1h-2v-2h1.1c.5 0 .7-.5.3-.9l-1.7-1.7c-.4-.4-1-.4-1.4 0l-1.7 1.8c-.4.4-.2.8.3.8h1.1v2h-2v-1.1c0-.5-.5-.7-.9-.3l-1.7 1.7c-.4.4-.4 1 0 1.4l1.8 1.7c.4.4.8.3.8-.3v-1.1h2v2h-1.1c-.5 0-.7.5-.3.9l1.7 1.8c.4.4 1 .4 1.4 0l1.7-1.8c.4-.4.3-.8-.3-.8h-1.1v-2h2v1.1c0 .5.5.7.9.3l1.8-1.7c.4-.4.4-1.1 0-1.5z" fill="#999"/></svg>