<!DOCTYPE svg PUBLIC "-//W3C//DTD SVG 1.1//EN" "http://www.w3.org/Graphics/SVG/1.1/DTD/svg11.dtd" [
	<!ENTITY ns_flows "http://ns.adobe.com/Flows/1.0/">
]><svg xmlns="http://www.w3.org/2000/svg" width="16" height="16" viewBox="0 0 16 16" preserveAspectRatio="xMinYMid meet" overflow="visible"><path d="M11 0c-2.7 0-5 2.2-5 5 0 .4.1.9.2 1.3l-6.2 6.2v2.1l6.9-6.9.1.3-7 7v1h2v-1h2v-2h2v-2h2l1.3-1.3c.6.1 1.1.3 1.7.3 2.8 0 5-2.2 5-5s-2.2-5-5-5zm1.5 2c.8 0 1.5.7 1.5 1.5s-.7 1.5-1.5 1.5-1.5-.7-1.5-1.5.7-1.5 1.5-1.5z" fill="#999"/></svg>