<!DOCTYPE svg PUBLIC "-//W3C//DTD SVG 1.1//EN" "http://www.w3.org/Graphics/SVG/1.1/DTD/svg11.dtd" [
	<!ENTITY ns_flows "http://ns.adobe.com/Flows/1.0/">
]><svg xmlns="http://www.w3.org/2000/svg" width="16" height="16" viewBox="0 -0.1 16 16" preserveAspectRatio="xMinYMid meet" overflow="visible" enable-background="new 0 -0.1 16 16"><path d="M8 0c-4 0-7.4 3-7.8 6.9h3c.5-2.3 2.5-4 4.9-4 2.8 0 5 2.2 5 5s-2.2 5-5 5c-1.1 0-2.1-.4-3-1h1c.6 0 1-.4 1-1v-1c0-.6-.4-1-1-1h-5.1c-.6 0-1 .4-1 1v5c0 .6.4 1 1 1h1c.6 0 1-.4 1-1v-.9c1.4 1.1 3.1 1.8 5 1.8 4.4 0 7.9-3.5 7.9-7.9s-3.6-7.9-7.9-7.9z" fill="#999"/></svg>