<!DOCTYPE svg PUBLIC "-//W3C//DTD SVG 1.1//EN" "http://www.w3.org/Graphics/SVG/1.1/DTD/svg11.dtd" [
	<!ENTITY ns_flows "http://ns.adobe.com/Flows/1.0/">
]><svg xmlns="http://www.w3.org/2000/svg" width="16" height="16" viewBox="-0.1 -0.1 16 16" preserveAspectRatio="xMinYMid meet" overflow="visible" enable-background="new -0.1 -0.1 16 16"><path d="M7 .7l-6.8 13.4c-.5 1 0 1.8 1.1 1.8h13.2c1.1 0 1.6-.8 1.1-1.8l-6.8-13.4c-.5-.9-1.3-.9-1.8 0zm3.6 8.3c0 1.2-.7 2.1-1.8 2.5l.2.4 1.1 2.4h-4.4l1.1-2.4.2-.4c-1-.4-1.8-1.4-1.8-2.5 0-1.5 1.2-2.7 2.7-2.7 1.5 0 2.7 1.2 2.7 2.7z" fill="#76A1F0"/></svg>