<!DOCTYPE svg PUBLIC "-//W3C//DTD SVG 1.1//EN" "http://www.w3.org/Graphics/SVG/1.1/DTD/svg11.dtd" [
	<!ENTITY ns_flows "http://ns.adobe.com/Flows/1.0/">
]><svg xmlns="http://www.w3.org/2000/svg" width="16" height="16" viewBox="-0.1 -0.1 16 16" preserveAspectRatio="xMinYMid meet" overflow="visible" enable-background="new -0.1 -0.1 16 16"><path d="M7 .7l-6.8 13.4c-.5 1 0 1.8 1.1 1.8h13.2c1.1 0 1.6-.8 1.1-1.8l-6.8-13.4c-.5-.9-1.3-.9-1.8 0zm2.4 12.7c0 .8-.7 1.5-1.5 1.5s-1.5-.7-1.5-1.5.7-1.5 1.5-1.5 1.5.6 1.5 1.5zm-.2-7.5v4c0 .5-.5 1-1 1h-.6c-.5 0-1-.5-1-1v-4c0-.6.5-1 1-1h.6c.6 0 1 .4 1 1z" fill="#FF403C"/></svg>