<!DOCTYPE svg PUBLIC "-//W3C//DTD SVG 1.1//EN" "http://www.w3.org/Graphics/SVG/1.1/DTD/svg11.dtd" [
	<!ENTITY ns_flows "http://ns.adobe.com/Flows/1.0/">
]><svg xmlns="http://www.w3.org/2000/svg" width="16" height="16" viewBox="0 0 16 16" preserveAspectRatio="xMinYMid meet" overflow="visible"><path d="M15.5 13.4l-2.1-2.1c-.2-.2-.4-.3-.7-.4.8-1.1 1.3-2.4 1.3-3.9 0-3.9-3.1-7-7-7s-7 3.1-7 7 3.1 7 7 7c1.5 0 2.8-.5 4-1.2.1.3.2.5.4.7l2.1 2.1c.6.6 1.5.6 2.1 0s.5-1.6-.1-2.2zm-8.5-2.4c-2.2 0-4-1.8-4-4s1.8-4 4-4 4 1.8 4 4-1.8 4-4 4z" fill="#999"/></svg>