<svg xmlns="http://www.w3.org/2000/svg" width="1000" height="1000" viewBox="0 0 1000 1000">
<g transform="translate(74.4,111)">
<path d="m109 860s553-29 562-249c7-163-736-67-700-251 39.1-195 610-179 610-179" stroke="#4caf50" stroke-linecap="round" stroke-dasharray="79.999, 79.999" stroke-width="40" fill="none"/>
<g transform="matrix(.9 0 0 -.9 134 914)">
<path d="m640 1.02e3q0 20-17 40-18 20-40 20-25 0-42-20-18-20-18-40 0-26 18-42 17-18 42-18 22 0 40 18 17 16 17 42zm59 0q0-26-8-42l-83-177q-4-7-11-12-6-4-14-4-10 0-16 4-8 5-12 12l-83 177q-8 16-8 42 0 50 34 80 34 40 85 40 48 0 82-40 34-30 34-80z" fill="#4caf50"/>
</g>
<g transform="matrix(0.9,0,0,-0.9,-582,1660)">
<path fill="#4caf50" d="m740 1.1e3q0 20-17 40-18 20-40 20-25 0-42-20-18-20-18-40t18-40q17-20 42-20 22 0 40 20 17 20 17 40zm59 0q0-20-8-40l-83-174q-4-7-11-12-6-4-14-4-10 0-16 4-8 5-12 12l-83 174q-8 20-8 40 0 50 34 80 34 40 85 40 48 0 82-40 34-30 34-80z"/>
</g></g></svg>
