<svg id="Layer_1" data-name="Layer 1" xmlns="http://www.w3.org/2000/svg" width="48" height="48" viewBox="0 0 48 48"><defs><style>.cls-1{fill:#06c;}.cls-2{fill:#fff;}</style></defs><title>48px_sourcefile_20170718_multi</title><circle class="cls-1" cx="24" cy="24.04" r="24"/><path class="cls-2" d="M24.71,28.73c-.06.6-.09,1.14-.13,1.69a1.48,1.48,0,0,1-.94,1.31,4.83,4.83,0,0,1-1.44.37,1.18,1.18,0,0,1-1.31-1.2c-.08-2-.15-3.94-.21-5.91-.06-1.8-.06-3.62-.11-5.42a1.43,1.43,0,0,1,.94-1.44A4.59,4.59,0,0,1,24,17.89a1,1,0,0,1,.92.92A20.34,20.34,0,0,1,25,20.95c0,1.63-.11,3.28-.15,4.91,0,.07,0,.17,0,.34.51-.07,1-.13,1.43-.22a9.62,9.62,0,0,0,3.62-1.65,5.26,5.26,0,0,0-.53-8.79,8,8,0,0,0-3.92-1.09,12.65,12.65,0,0,0-6.39,1.11,32,32,0,0,0-3.28,2.27c-.26.19-.47.43-.71.64a1.25,1.25,0,0,1-1.41.09,1,1,0,0,1-.36-1.29,6.22,6.22,0,0,1,1-1.63,13.09,13.09,0,0,1,7.07-3.92,13.8,13.8,0,0,1,9.21.88,8,8,0,0,1,4.84,6.21,8.34,8.34,0,0,1-5.08,8.85,14.57,14.57,0,0,1-5.12,1.11Z"/><path class="cls-2" d="M22.74,36.77a1.65,1.65,0,0,1-1.8-1.61,1.84,1.84,0,0,1,1.72-1.86,1.88,1.88,0,0,1,1.84,1.86A1.69,1.69,0,0,1,22.74,36.77Z"/></svg>