<!DOCTYPE svg PUBLIC "-//W3C//DTD SVG 1.1//EN" "http://www.w3.org/Graphics/SVG/1.1/DTD/svg11.dtd" [
	<!ENTITY ns_flows "http://ns.adobe.com/Flows/1.0/">
]><svg xmlns="http://www.w3.org/2000/svg" width="16" height="16" viewBox="0 0 16 16" preserveAspectRatio="xMinYMid meet" overflow="visible"><path d="M16 15c0 .5-.5 1-1 1H1c-.5 0-1-.5-1-1V1c0-.5.5-1 1-1h14c.5 0 1 .5 1 1v14z" fill="#FFF"/><path d="M15 0H1C.5 0 0 .5 0 1v14c0 .5.5 1 1 1h14c.5 0 1-.5 1-1V1c0-.5-.5-1-1-1zm0 14c0 .5-.5 1-1 1H2c-.5 0-1-.5-1-1V2c0-.5.5-1 1-1h12c.5 0 1 .5 1 1v12z" fill="#888"/></svg>