<svg width="128" height="119" viewBox="0 0 128 119" fill="none" xmlns="http://www.w3.org/2000/svg" preserveAspectRatio="xMinYMid meet">
<path d="M54.48 108.96C84.5685 108.96 108.96 84.5685 108.96 54.48C108.96 24.3915 84.5685 0 54.48 0C24.3915 0 0 24.3915 0 54.48C0 84.5685 24.3915 108.96 54.48 108.96Z" fill="#C4E5FF"/>
<path d="M73.6898 29.0098H33.5398C30.4856 29.0098 28.0098 31.4856 28.0098 34.5398V34.5498C28.0098 37.6039 30.4856 40.0798 33.5398 40.0798H73.6898C76.7439 40.0798 79.2198 37.6039 79.2198 34.5498V34.5398C79.2198 31.4856 76.7439 29.0098 73.6898 29.0098Z" fill="#85CAFF"/>
<path d="M73.6898 72.4297H33.5398C30.4856 72.4297 28.0098 74.9056 28.0098 77.9597V77.9697C28.0098 81.0238 30.4856 83.4997 33.5398 83.4997H73.6898C76.7439 83.4997 79.2198 81.0238 79.2198 77.9697V77.9597C79.2198 74.9056 76.7439 72.4297 73.6898 72.4297Z" fill="#85CAFF"/>
<path d="M96.6497 47.9404H36.3297C31.7347 47.9404 28.0098 51.6632 28.0098 56.2554C28.0098 60.8477 31.7347 64.5704 36.3297 64.5704H96.6497C101.245 64.5704 104.97 60.8477 104.97 56.2554C104.97 51.6632 101.245 47.9404 96.6497 47.9404Z" fill="#85CAFF" stroke="#0056B2" stroke-width="2" stroke-miterlimit="10"/>
<path d="M40.9306 59.9601C40.9276 59.9169 40.9276 59.8734 40.9306 59.8301V59.7101L40.8706 59.5801L40.8106 59.4702C40.7654 59.4004 40.7116 59.3366 40.6506 59.2802L40.5606 59.2001L40.3607 59.0601L40.2506 59.0001C39.9335 58.8481 39.597 58.7404 39.2506 58.6801C38.9327 58.6107 38.6324 58.4774 38.3676 58.2883C38.1029 58.0992 37.8794 57.8583 37.7107 57.5801C37.6981 57.4198 37.7211 57.2586 37.7782 57.1082C37.8352 56.9577 37.9248 56.8218 38.0406 56.7101L38.1306 56.6002C38.3931 56.251 38.565 55.8421 38.6306 55.4102C38.6306 55.4102 38.6306 55.3401 38.6306 55.3101C38.7701 54.6878 38.7701 54.0424 38.6306 53.4201C38.5121 53.014 38.2743 52.6528 37.948 52.3835C37.6216 52.1143 37.2219 51.9494 36.8006 51.9102H36.5106H36.2207H36.1606C35.7394 51.9494 35.3396 52.1143 35.0133 52.3835C34.6869 52.6528 34.4491 53.014 34.3307 53.4201C34.1959 54.0429 34.1959 54.6873 34.3307 55.3101C34.326 55.3433 34.326 55.377 34.3307 55.4102C34.387 55.8446 34.5598 56.2558 34.8307 56.6002C34.854 56.6391 34.8807 56.6759 34.9106 56.7101C35.0264 56.8218 35.1161 56.9577 35.1732 57.1082C35.2302 57.2586 35.2533 57.4198 35.2407 57.5801C35.0726 57.8569 34.8505 58.0969 34.5876 58.2859C34.3247 58.4749 34.0265 58.6089 33.7107 58.6801C33.3644 58.7412 33.028 58.8489 32.7107 59.0001L32.6107 59.0601C32.5433 59.1011 32.4797 59.1479 32.4206 59.2001L32.3407 59.2802C32.2859 59.3395 32.2357 59.4031 32.1906 59.4702L32.1306 59.5801L32.0706 59.7101C32.0667 59.75 32.0667 59.7902 32.0706 59.8301C32.065 59.8733 32.065 59.917 32.0706 59.9601C32.0741 59.9867 32.0741 60.0135 32.0706 60.0401C32.6082 60.766 33.3084 61.3558 34.1151 61.7622C34.9217 62.1686 35.8124 62.3803 36.7157 62.3803C37.6189 62.3803 38.5096 62.1686 39.3163 61.7622C40.1229 61.3558 40.8231 60.766 41.3607 60.0401C41.3607 60.0401 41.3607 59.9801 41.3607 59.9601H40.9306Z" fill="white"/>
<path d="M122.86 83.0704C122.534 82.7264 122.14 82.4544 121.702 82.2719C121.265 82.0893 120.794 82.0003 120.32 82.0104C119.858 82.001 119.398 82.0846 118.969 82.2564C118.539 82.4282 118.149 82.6846 117.82 83.0104C117.483 83.3324 117.215 83.7206 117.034 84.1508C116.854 84.581 116.764 85.0438 116.77 85.5104V86.5104H115.77V82.5104C115.774 81.6779 115.492 80.8694 114.97 80.2204C114.483 79.5632 113.771 79.1077 112.97 78.9404C112.729 78.8998 112.485 78.8797 112.24 78.8804C111.3 78.8804 110.399 79.253 109.733 79.9166C109.068 80.5802 108.693 81.4806 108.69 82.4203V86.4203H107.69V82.5604C107.712 81.5268 107.357 80.5207 106.69 79.7303C106.368 79.3381 105.969 79.0147 105.519 78.7794C105.069 78.544 104.576 78.4015 104.07 78.3604C103.934 78.3477 103.797 78.3477 103.66 78.3604C103.126 78.3526 102.596 78.4542 102.102 78.6589C101.609 78.8635 101.162 79.1669 100.79 79.5504C100.407 79.9199 100.104 80.3648 99.9011 80.857C99.698 81.3492 99.599 81.8781 99.6102 82.4104V86.4104H98.6102V73.6404V59.4404C98.6211 58.6568 98.3751 57.8912 97.9101 57.2604C97.8107 57.1158 97.6969 56.9817 97.5702 56.8604C96.967 56.2522 96.156 55.8949 95.3001 55.8604H94.8202C93.9643 55.8949 93.1533 56.2522 92.5501 56.8604C92.4262 56.9843 92.3126 57.1181 92.2102 57.2604C91.7452 57.8912 91.4992 58.6568 91.5101 59.4404V83.4404C91.5139 83.497 91.5139 83.5537 91.5101 83.6104V97.1804L90.5101 96.2303V90.7903C90.5224 90.3155 90.4403 89.843 90.2686 89.4001C90.097 88.9573 89.8392 88.5529 89.5101 88.2104C89.1829 87.8679 88.7883 87.5969 88.3512 87.4144C87.914 87.232 87.4438 87.1421 86.9702 87.1504C86.5045 87.1498 86.0433 87.2423 85.614 87.4227C85.1846 87.603 84.7958 87.8674 84.4702 88.2004C84.1335 88.5231 83.8666 88.9115 83.686 89.3415C83.5054 89.7715 83.4149 90.234 83.4201 90.7004V97.7903C83.4174 98.2751 83.5146 98.7553 83.7055 99.2009C83.8965 99.6465 84.1772 100.048 84.5301 100.38L94.3801 109.74C94.795 110.164 95.119 110.669 95.3322 111.222C95.5455 111.776 95.6434 112.368 95.6201 112.96C95.6212 113.225 95.6748 113.487 95.7778 113.731C95.8808 113.974 96.0312 114.195 96.2202 114.38C96.4037 114.574 96.6257 114.728 96.8719 114.831C97.1181 114.934 97.3831 114.985 97.6501 114.98H117.95C118.481 114.98 118.989 114.77 119.364 114.395C119.739 114.02 119.95 113.511 119.95 112.98V112.07C119.943 111.247 120.047 110.426 120.26 109.63L123.67 95.8404C123.886 95.0452 123.994 94.2244 123.99 93.4004V85.6204C123.982 85.1414 123.877 84.6691 123.683 84.2311C123.489 83.7932 123.209 83.3985 122.86 83.0704Z" fill="white"/>
<path d="M127.94 85.6397C127.955 84.6323 127.765 83.6323 127.382 82.7006C126.999 81.7688 126.43 80.9248 125.71 80.2197C124.773 79.2918 123.613 78.6205 122.342 78.2703C121.07 77.92 119.73 77.9026 118.45 78.2197C117.345 76.6425 115.685 75.5419 113.802 75.1393C111.919 74.7368 109.953 75.062 108.3 76.0497C106.946 75.0067 105.279 74.4502 103.57 74.4697C103.236 74.4696 102.902 74.4896 102.57 74.5297V59.4397C102.586 58.4331 102.397 57.4337 102.016 56.5021C101.634 55.5704 101.068 54.7259 100.35 54.0197C99.3935 53.0386 98.1809 52.3457 96.85 52.0197H96.7C96.5251 51.98 96.3482 51.9499 96.17 51.9297H95.85C95.59 51.9297 95.32 51.9297 95.04 51.9297H94.9C94.63 51.9297 94.36 51.9297 94.09 51.9297H93.78C93.6017 51.9491 93.4246 51.9792 93.2499 52.0197H93.09C91.7613 52.3439 90.5514 53.0372 89.6 54.0197C88.8812 54.7254 88.3129 55.5696 87.9296 56.5012C87.5463 57.4328 87.3559 58.4324 87.3699 59.4397V83.0697C87.2069 83.0556 87.043 83.0556 86.8799 83.0697C84.8667 83.075 82.9372 83.8757 81.5118 85.2974C80.0863 86.7191 79.2805 88.6465 79.2699 90.6597V97.7497C79.2589 98.7902 79.4689 99.8213 79.886 100.775C80.3032 101.728 80.9181 102.582 81.69 103.28L91.47 112.64C91.4322 114.308 92.0455 115.926 93.18 117.15C93.736 117.752 94.4147 118.228 95.1703 118.545C95.9259 118.862 96.7408 119.014 97.56 118.99H117.86C118.662 119.002 119.459 118.853 120.202 118.552C120.946 118.251 121.622 117.803 122.19 117.237C122.757 116.67 123.206 115.995 123.508 115.251C123.811 114.508 123.961 113.712 123.95 112.91C123.926 112.155 123.99 111.4 124.14 110.66L127.58 96.8697C127.842 95.7483 127.98 94.6013 127.99 93.4497L127.94 85.6397ZM123.57 95.8697L120.18 109.66C119.967 110.455 119.862 111.276 119.87 112.1V112.89C119.87 113.42 119.659 113.929 119.284 114.304C118.909 114.679 118.4 114.89 117.87 114.89H97.57C97.303 114.895 97.0379 114.844 96.7917 114.74C96.5454 114.637 96.3235 114.484 96.1399 114.29C95.951 114.104 95.8007 113.884 95.6977 113.64C95.5947 113.396 95.5411 113.134 95.54 112.87C95.5632 112.277 95.4653 111.686 95.2521 111.132C95.0389 110.578 94.7149 110.074 94.3 109.65L84.45 100.29C84.097 99.9573 83.8163 99.5559 83.6253 99.1103C83.4343 98.6647 83.3373 98.1845 83.34 97.6997V90.6097C83.3348 90.1433 83.4252 89.6809 83.6058 89.2509C83.7864 88.8208 84.0533 88.4324 84.3899 88.1097C84.7155 87.7767 85.1045 87.5123 85.5339 87.332C85.9632 87.1516 86.4243 87.0591 86.8899 87.0597C87.3636 87.0514 87.8338 87.1414 88.2709 87.3238C88.7081 87.5062 89.1027 87.7772 89.43 88.1197C89.7591 88.4622 90.0169 88.8666 90.1885 89.3095C90.3602 89.7524 90.4423 90.2249 90.43 90.6997V96.1397L91.43 97.0897V83.5597C91.4337 83.5031 91.4337 83.4463 91.43 83.3897V59.3897C91.4191 58.6061 91.6649 57.8405 92.1299 57.2097C92.2323 57.0675 92.3461 56.9337 92.47 56.8097C93.0732 56.2016 93.8842 55.8443 94.74 55.8097H95.22C96.0758 55.8443 96.8869 56.2016 97.49 56.8097C97.6167 56.9311 97.7306 57.0651 97.83 57.2097C98.295 57.8405 98.5408 58.6061 98.53 59.3897V73.5897V86.5397H99.53V82.5397C99.5188 82.0074 99.6178 81.4785 99.8209 80.9863C100.024 80.4941 100.327 80.0492 100.71 79.6797C101.082 79.2962 101.528 78.9928 102.022 78.7882C102.516 78.5836 103.046 78.482 103.58 78.4897C103.716 78.477 103.854 78.477 103.99 78.4897C104.496 78.5308 104.989 78.6733 105.439 78.9087C105.889 79.144 106.287 79.4674 106.61 79.8597C107.276 80.65 107.632 81.6561 107.61 82.6897V86.5497H108.61V82.5497C108.613 81.6099 108.988 80.7096 109.653 80.046C110.319 79.3824 111.22 79.0097 112.16 79.0097C112.405 79.0091 112.649 79.0291 112.89 79.0697C113.691 79.237 114.403 79.6925 114.89 80.3497C115.411 80.9987 115.694 81.8072 115.69 82.6397V86.6397H116.69V85.6397C116.684 85.1732 116.773 84.7103 116.954 84.2802C117.135 83.85 117.402 83.4617 117.74 83.1397C118.068 82.8139 118.459 82.5575 118.888 82.3857C119.318 82.214 119.778 82.1303 120.24 82.1397C120.714 82.1296 121.185 82.2186 121.622 82.4012C122.059 82.5837 122.454 82.8557 122.78 83.1997C123.109 83.5422 123.367 83.9466 123.539 84.3895C123.71 84.8323 123.792 85.3049 123.78 85.7797V93.5597C123.808 94.3355 123.738 95.1117 123.57 95.8697Z" fill="#0056B2"/>
</svg>
