<?xml version="1.0" encoding="utf-8"?>
<!-- Generator: Adobe Illustrator 15.1.0, SVG Export Plug-In  -->
<!DOCTYPE svg PUBLIC "-//W3C//DTD SVG 1.1//EN" "http://www.w3.org/Graphics/SVG/1.1/DTD/svg11.dtd" [
	<!ENTITY ns_flows "http://ns.adobe.com/Flows/1.0/">
]>
<svg version="1.1"
	 xmlns="http://www.w3.org/2000/svg" xmlns:xlink="http://www.w3.org/1999/xlink" xmlns:a="http://ns.adobe.com/AdobeSVGViewerExtensions/3.0/"
	 x="0px" y="0px" width="16px" height="16px" viewBox="0 0 16 16" style="overflow:visible;enable-background:new 0 0 16 16;"
	 xml:space="preserve" preserveAspectRatio="xMinYMid meet">
<defs>
</defs>
<path style="fill:#999999;" d="M4,16H0V2l2-2h8.5C11.3,0,12,0.7,12,1.5V4h-1V2.5C11,1.7,10.3,1,9.5,1H3.1l-1,1h6.4
	C9.3,2,10,2.7,10,3.5V4H8.6L6,6.6v3.6c-1.2,0.4-2,1.5-2,2.8V16z M16,16v-3c0-1.1-0.9-2-2-2H7c-1.1,0-2,0.9-2,2v3H16z M14,15H7v-1h7
	V15z M9,5L7,7v3h7V5H9z M13,9H8V8h2V6h3V9z"/>
</svg>
