<!DOCTYPE svg PUBLIC "-//W3C//DTD SVG 1.1//EN" "http://www.w3.org/Graphics/SVG/1.1/DTD/svg11.dtd" [
	<!ENTITY ns_flows "http://ns.adobe.com/Flows/1.0/">
]><svg xmlns="http://www.w3.org/2000/svg" width="16" height="16" viewBox="0 0 16 16" preserveAspectRatio="xMinYMid meet" overflow="visible"><path d="M4 16H0V2l2-2h8.5c.8 0 1.5.7 1.5 1.5V4h-1V2.5c0-.8-.7-1.5-1.5-1.5H3.1l-1 1h6.4c.8 0 1.5.7 1.5 1.5V4H8.6L6 6.6v3.6c-1.2.4-2 1.5-2 2.8v3zm12 0v-3c0-1.1-.9-2-2-2H7c-1.1 0-2 .9-2 2v3h11zm-2-1H7v-1h7v1zM9 5L7 7v3h7V5H9zm4 4H8V8h2V6h3v3z" fill="#999"/></svg>