<?xml version="1.0" encoding="UTF-8" standalone="no"?>
<svg
   xmlns:dc="http://purl.org/dc/elements/1.1/"
   xmlns:cc="http://creativecommons.org/ns#"
   xmlns:rdf="http://www.w3.org/1999/02/22-rdf-syntax-ns#"
   xmlns:svg="http://www.w3.org/2000/svg"
   xmlns="http://www.w3.org/2000/svg"
   xmlns:sodipodi="http://sodipodi.sourceforge.net/DTD/sodipodi-0.dtd"
   xmlns:inkscape="http://www.inkscape.org/namespaces/inkscape"
   fill="#000000"
   height="24"
   viewBox="0 0 24 24"
   width="24"
   version="1.1"
   id="svg6"
   sodipodi:docname="icon.svg"
   inkscape:version="0.92.2 (5c3e80d, 2017-08-06)">
  <metadata
     id="metadata12">
    <rdf:RDF>
      <cc:Work
         rdf:about="">
        <dc:format>image/svg+xml</dc:format>
        <dc:type
           rdf:resource="http://purl.org/dc/dcmitype/StillImage" />
      </cc:Work>
    </rdf:RDF>
  </metadata>
  <defs
     id="defs10" />
  <sodipodi:namedview
     pagecolor="#ffffff"
     bordercolor="#666666"
     borderopacity="1"
     objecttolerance="10"
     gridtolerance="10"
     guidetolerance="10"
     inkscape:pageopacity="0"
     inkscape:pageshadow="2"
     inkscape:window-width="1166"
     inkscape:window-height="746"
     id="namedview8"
     showgrid="false"
     inkscape:zoom="9.8333333"
     inkscape:cx="12"
     inkscape:cy="12"
     inkscape:window-x="0"
     inkscape:window-y="27"
     inkscape:window-maximized="0"
     inkscape:current-layer="svg6" />
  <path
     d="M0 0h24v24H0z"
     fill="none"
     id="path2" />
  <path
     d="m 2.9115254,12.40678 c 0,-2.370814 1.5596272,-4.2979664 3.4783051,-4.2979664 H 10.877967 V 5.4745763 H 6.3898305 c -3.0968135,0 -5.61016948,3.105627 -5.61016948,6.9322037 0,3.826576 2.51335598,6.932203 5.61016948,6.932203 H 10.877967 V 16.704746 H 6.3898305 c -1.9186779,0 -3.4783051,-1.927152 -3.4783051,-4.297966 z m 4.600339,1.38644 H 16.488135 V 11.020339 H 7.5118644 Z M 17.610169,5.4745763 h -4.488136 v 2.6342373 h 4.488136 c 1.918678,0 3.478306,1.9271524 3.478306,4.2979664 0,2.370814 -1.559628,4.297966 -3.478306,4.297966 h -4.488136 v 2.634237 h 4.488136 c 3.096814,0 5.61017,-3.105627 5.61017,-6.932203 0,-3.8265767 -2.513356,-6.9322037 -5.61017,-6.9322037 z"
     id="path4"
     inkscape:connector-curvature="0"
     style="stroke-width:1.24725032;fill:#0e232e" />
</svg>
