<!DOCTYPE svg PUBLIC "-//W3C//DTD SVG 1.1//EN" "http://www.w3.org/Graphics/SVG/1.1/DTD/svg11.dtd" [
	<!ENTITY ns_flows "http://ns.adobe.com/Flows/1.0/">
]><svg xmlns="http://www.w3.org/2000/svg" width="16" height="16" viewBox="0 0 16 16" preserveAspectRatio="xMinYMid meet" overflow="visible"><path d="M7.9 16c4 0 7.4-3 7.8-7h-3c-.5 2-2.5 4-4.9 4-2.8 0-5-2.2-5-5s2.2-5 5-5c1.1 0 2.1 0 3 1h-1c-.5 0-.8.5-.8 1.1v1c0 .5.3.9.8.9h5c.6 0 1.2-.4 1.2-.9v-5c0-.6-.6-1.1-1.2-1.1h-1c-.5 0-.8.5-.8 1.1v.9c-1-1.1-3.1-1.8-5-1.8-4.4 0-8 3.5-8 7.9 0 4.3 3.5 7.9 7.9 7.9z" fill="#999"/></svg>