<?xml version="1.0" encoding="utf-8"?>
<!-- Generator: Adobe Illustrator 15.1.0, SVG Export Plug-In  -->
<!DOCTYPE svg PUBLIC "-//W3C//DTD SVG 1.1//EN" "http://www.w3.org/Graphics/SVG/1.1/DTD/svg11.dtd" [
	<!ENTITY ns_flows "http://ns.adobe.com/Flows/1.0/">
]>
<svg version="1.1"
	 xmlns="http://www.w3.org/2000/svg" xmlns:xlink="http://www.w3.org/1999/xlink" xmlns:a="http://ns.adobe.com/AdobeSVGViewerExtensions/3.0/"
	 x="0px" y="0px" width="12px" height="12px" viewBox="0 0 12 12" style="overflow:visible;enable-background:new 0 0 12 12;"
	 xml:space="preserve" preserveAspectRatio="xMinYMid meet">
<defs>
</defs>
<path style="fill:#999999;" d="M11,5.2V11c0,0.5-0.5,1-1,1H1c-0.5,0-1-0.5-1-1V2c0-0.5,0.5-1,1-1h5.8l-1,1H2C1.5,2,1,2.4,1,3v3.8V10
	v1h1h3.2H9c0.5,0,1-0.5,1-1V6.2L11,5.2z M6.8,2.3L2,7.1V10h2.8l4.8-4.8L6.8,2.3z M11.4,0.6L11.4,0.6c-0.8-0.8-2.1-0.8-2.8,0L7.8,1.3
	l2.8,2.8l0.7-0.7C12.2,2.6,12.2,1.4,11.4,0.6z"/>
</svg>
