<svg width="24" height="24" viewBox="0 0 24 24" fill="none" xmlns="http://www.w3.org/2000/svg" preserveAspectRatio="xMinYMid meet">
<path fill-rule="evenodd" clip-rule="evenodd" d="M7.49707 3.49951C6.66864 3.49951 5.99707 4.17108 5.99707 4.99951V18.0189C5.99707 18.8473 6.66864 19.5189 7.49707 19.5189H8.50894C8.78508 19.5189 9.00894 19.7428 9.00894 20.0189C9.00894 20.295 8.78508 20.5189 8.50894 20.5189H7.49707C6.11636 20.5189 4.99707 19.3996 4.99707 18.0189V4.99951C4.99707 3.6188 6.11636 2.49951 7.49707 2.49951H13.4935C13.4974 2.49951 13.5013 2.49953 13.5052 2.49956L13.6907 2.49955C14.3565 2.49952 14.9947 2.76504 15.464 3.23726L18.2762 6.06682C18.7417 6.53521 19.0029 7.16875 19.0029 7.82911V18.0189C19.0029 19.3996 17.8836 20.5189 16.5029 20.5189H15.5031C15.227 20.5189 15.0031 20.295 15.0031 20.0189C15.0031 19.7428 15.227 19.5189 15.5031 19.5189H16.5029C17.3314 19.5189 18.0029 18.8473 18.0029 18.0189V8.01898C18.0029 7.74284 17.7791 7.51898 17.5029 7.51898H15.4935C14.665 7.51898 13.9935 6.84741 13.9935 6.01898V3.99951C13.9935 3.72563 13.7733 3.50319 13.5003 3.49956L12.8955 3.49958C12.8927 3.49958 12.8898 3.49956 12.887 3.49951H7.49707ZM14.9935 4.18237V6.01898C14.9935 6.29512 15.2173 6.51898 15.4935 6.51898H17.3157L14.9935 4.18237ZM12 11.0073C12.1326 11.0073 12.2598 11.06 12.3536 11.1538L15.3536 14.1538C15.5488 14.349 15.5488 14.6656 15.3536 14.8609C15.1583 15.0561 14.8417 15.0561 14.6464 14.8609L12.5 12.7144V21.0005C12.5 21.2766 12.2761 21.5005 12 21.5005C11.7239 21.5005 11.5 21.2766 11.5 21.0005V12.7144L9.35355 14.8609C9.15829 15.0561 8.84171 15.0561 8.64645 14.8609C8.45118 14.6656 8.45118 14.349 8.64645 14.1538L11.6464 11.1538C11.7402 11.06 11.8674 11.0073 12 11.0073Z" fill="#212529"/>
</svg>
