<?xml version="1.0" standalone="no"?>
<!DOCTYPE svg PUBLIC "-//W3C//DTD SVG 1.1//EN" "http://www.w3.org/Graphics/SVG/1.1/DTD/svg11.dtd" >
<svg xmlns="http://www.w3.org/2000/svg">
<metadata></metadata>
<defs>
<font id="alegreya_sansmedium" horiz-adv-x="983" >
<font-face units-per-em="2048" ascent="1638" descent="-410" />
<missing-glyph horiz-adv-x="327" />
<glyph unicode="&#xa8;I" horiz-adv-x="571" d="M37 1622q0 51 29.5 81t80.5 30q49 0 76 -27.5t27 -77.5q0 -52 -29 -82t-80 -30t-77.5 27.5t-26.5 78.5zM176 0l14 395l-14 920h217l-12 -901l8 -414h-213zM319 1622q0 51 30 81t81 30q49 0 75.5 -27.5t26.5 -77.5q0 -53 -28.5 -82.5t-79.5 -29.5t-78 27.5t-27 78.5z" />
<glyph unicode="&#xa8;O" horiz-adv-x="1308" d="M70 645q0 330 157 508t447 178q271 0 418 -168t147 -479q0 -337 -157 -519.5t-447 -182.5q-271 0 -418 173t-147 490zM287 672q0 -269 88.5 -394.5t275.5 -125.5q186 0 277.5 120t91.5 373q0 266 -89.5 389t-277.5 123t-277 -117.5t-89 -367.5zM381 1622q0 51 30 81 t81 30q49 0 75.5 -27.5t26.5 -77.5q0 -52 -29 -82t-80 -30t-77.5 27.5t-26.5 78.5zM717 1622q0 51 29.5 81t80.5 30q49 0 76 -27.5t27 -77.5q0 -52 -29 -82t-80 -30t-77.5 27.5t-26.5 78.5z" />
<glyph unicode="&#xb4;Y" horiz-adv-x="1107" d="M23 1315h225l26 -82l263 -551h16l287 547l32 86h224l-459 -854l-2 -84l8 -377h-213l14 377l-2 82zM356 1571q287 149 406 219l20 -4l56 -125l-9 -21q-135 -59 -415 -167l-23 8z" />
<glyph unicode="&#xa8;i" horiz-adv-x="501" d="M6 1251q0 51 30 81t81 30q49 0 75.5 -27.5t26.5 -77.5q0 -53 -28.5 -82.5t-79.5 -29.5t-78 27.5t-27 78.5zM145 0l13 395l-11 535l209 18l-16 -534l14 -414h-209zM289 1251q0 51 29.5 81t80.5 30q49 0 76 -27.5t27 -77.5q0 -52 -29 -82t-80 -30t-77.5 27.5t-26.5 78.5z " />
<glyph unicode="&#xa8;o" horiz-adv-x="1007" d="M76 457q0 243 114 374.5t326 131.5q198 0 306 -124.5t108 -351.5q0 -243 -114.5 -374t-326.5 -131q-198 0 -305.5 124t-107.5 351zM231 1251q0 51 30 81t81 30q49 0 75.5 -27.5t26.5 -77.5q0 -53 -28.5 -82.5t-79.5 -29.5t-78 27.5t-27 78.5zM270 502q0 -193 57.5 -285 t174.5 -92q116 0 173.5 77.5t57.5 237.5q0 192 -57.5 284.5t-173.5 92.5q-232 0 -232 -315zM567 1251q0 51 30 81t81 30q49 0 75.5 -27.5t26.5 -77.5q0 -53 -28.5 -82.5t-79.5 -29.5t-78 27.5t-27 78.5z" />
<glyph unicode="&#xb4;y" horiz-adv-x="890" d="M-45 -262l8 22q143 28 235.5 83.5t159.5 156.5l-348 940l203 10l31 -133l200 -596h15l200 576l33 147h187l-324 -895q-66 -185 -177.5 -286t-307.5 -154h-19q-55 53 -96 129zM283 1147q210 170 350 303l20 -2l78 -111l-4 -20q-162 -118 -371 -254l-20 2z" />
<glyph unicode="&#xfb01;" horiz-adv-x="1169" d="M66 819l10 121h139l-2 104q0 204 101 301t313 97q126 0 268 -39l-25 -168l-22 -8q-142 65 -244 65q-99 0 -145.5 -50t-46.5 -157l-2 -145h495l117 16l16 -8l-14 -534l12 -414h-209l15 395l-8 412h-426l-7 -391l15 -416h-209l12 397l-4 410h-141z" />
<glyph unicode="&#xfb02;" horiz-adv-x="1204" d="M66 819l10 121h137l-2 129q-1 189 106.5 288t307.5 99q117 0 260 -31l166 13l-17 -1022l15 -416h-209l14 397l-10 860q-130 50 -232 50q-197 0 -200 -207l-2 -160h239l8 -14l-12 -119h-237l-7 -395l15 -412h-209l12 395l-4 412h-141z" />
<glyph horiz-adv-x="0" />
<glyph horiz-adv-x="682" />
<glyph unicode=" "  horiz-adv-x="327" />
<glyph unicode="&#x09;" horiz-adv-x="327" />
<glyph unicode="&#xa0;" horiz-adv-x="327" />
<glyph unicode="!" horiz-adv-x="532" d="M129 102q0 54 32.5 86.5t86.5 32.5q52 0 80 -29.5t28 -82.5q0 -56 -31 -88.5t-83 -32.5q-54 0 -83.5 30t-29.5 84zM182 1323l19 25l164 10l24 -27l-57 -868l-121 -17l-23 25z" />
<glyph unicode="&#x22;" horiz-adv-x="634" d="M113 889l2 409l159 13l15 -17l-58 -405l-102 -15zM373 889l4 409l160 13l14 -17l-59 -405l-103 -15z" />
<glyph unicode="#" horiz-adv-x="1083" d="M41 401l10 111h215l49 227h-190l-14 15l10 110h221l66 312h118l15 -19l-62 -293h215l66 312h119l14 -19l-62 -293h199l12 -14l-10 -111h-227l-49 -227h202l15 -14l-10 -111h-234l-67 -321h-121l-13 16l66 305h-217l-68 -321h-123l-10 16l66 305h-187zM403 512h215l50 227 h-215z" />
<glyph unicode="$" horiz-adv-x="903" d="M88 53l23 176l22 11q99 -94 234 -115l24 324q-49 20 -81 35.5t-72 41.5t-63.5 53.5t-40.5 68t-17 87.5q0 116 86 198t233 97l21 287h102l21 -19l-21 -266q106 -10 205 -49l-29 -164l-28 -6q-76 59 -158 78l-25 -311q59 -25 99 -46.5t83 -55.5t65 -80t22 -103 q0 -113 -83.5 -198.5t-232.5 -104.5l-20 -262h-103l-16 18l18 242q-145 10 -268 63zM289 760q0 -41 30 -71t87 -58l20 264q-64 -11 -100.5 -50t-36.5 -85zM487 125q61 15 97.5 54t36.5 85q0 74 -113 131z" />
<glyph unicode="%" horiz-adv-x="1712" d="M74 948q0 184 82.5 281.5t238.5 97.5q142 0 218.5 -92t76.5 -262q0 -186 -81 -282.5t-236 -96.5q-145 0 -222 91.5t-77 262.5zM213 963q0 -234 170 -234t170 223q0 230 -172 230q-168 0 -168 -219zM289 -106l960 1501l88 -54l15 -30l-961 -1497l-92 53zM1020 346 q0 183 83 280t238 97q142 0 218.5 -92t76.5 -262q0 -185 -81 -282t-236 -97q-145 0 -222 92t-77 264zM1161 358q0 -119 41 -176t127 -57q170 0 170 223q0 230 -172 230q-166 0 -166 -220z" />
<glyph unicode="&#x26;" horiz-adv-x="1435" d="M106 348q0 224 236 344v10q-139 139 -139 299q0 151 105.5 238.5t299.5 87.5q183 0 328 -67l-47 -154h-29q-127 74 -256 74q-108 0 -164.5 -49.5t-56.5 -141.5q0 -58 28 -108t97 -109l463 -412q24 68 24 154q0 113 -47 209h-137l-10 14l16 133h588l12 -14l-14 -133h-299 l-6 -16q37 -110 37 -218q0 -127 -50 -233l271 -240v-14q-58 -61 -117 -94l-14 2l-236 213q-152 -139 -405 -139q-216 0 -347 98t-131 266zM287 381q0 -119 85 -184.5t232 -65.5q169 0 273 90l-443 400q-147 -88 -147 -240z" />
<glyph unicode="'" horiz-adv-x="372" d="M113 889l2 409l159 13l15 -17l-58 -405l-102 -15z" />
<glyph unicode="(" horiz-adv-x="595" d="M158 522q2 314 79.5 509t254.5 325h20l74 -68v-18q-138 -115 -198 -289t-62 -457q2 -274 62 -443t198 -284v-18l-74 -66h-20q-177 129 -254.5 317.5t-79.5 491.5z" />
<glyph unicode=")" horiz-adv-x="595" d="M10 -203q138 115 198 289t62 457q-2 274 -62 443t-198 284v18l74 68h20q177 -130 254.5 -319.5t79.5 -491.5q-2 -314 -79.5 -508.5t-254.5 -323.5h-20l-74 66v18z" />
<glyph unicode="*" horiz-adv-x="774" d="M66 1206q0 86 20 142l14 4l205 -129l-10 -76l-19 -8zM111 913v17l178 168l67 -35l2 -21l-118 -192q-46 12 -129 63zM328 1487q59 22 139 22l10 -14l-53 -248l-78 -8l-12 14zM395 1051l56 49l20 -2l131 -187q-27 -44 -96 -102l-19 4zM446 1208l9 19l207 78q42 -62 65 -127 l-10 -13l-236 -26z" />
<glyph unicode="+" d="M57 481l11 129h352v353l129 12l14 -17v-348h348l15 -14l-11 -129h-352v-352l-127 -11l-16 15v348h-348z" />
<glyph unicode="," horiz-adv-x="468" d="M76 -166q112 90 112 189q0 63 -63 108v19q75 48 149 67q88 -63 88 -154q0 -151 -217 -307l-67 62z" />
<glyph unicode="-" horiz-adv-x="626" d="M57 428v131l492 72l18 -17v-131l-491 -73z" />
<glyph unicode="." horiz-adv-x="468" d="M119 102q0 54 32 86.5t87 32.5q52 0 80 -29.5t28 -82.5q0 -55 -31 -88t-84 -33q-54 0 -83 30t-29 84z" />
<glyph unicode="/" horiz-adv-x="585" d="M27 -215l419 1606h142l16 -21l-420 -1603h-145z" />
<glyph unicode="0" horiz-adv-x="1075" d="M88 496q0 259 122 401.5t343 142.5q207 0 320.5 -134.5t113.5 -381.5q0 -258 -120 -399t-341 -141q-209 0 -323.5 133.5t-114.5 378.5zM252 510q0 -342 287 -342q286 0 286 332q0 348 -288 348q-285 0 -285 -338z" />
<glyph unicode="1" horiz-adv-x="718" d="M20 741v166l441 129l31 -22l-13 -590l10 -424h-210l12 401l-2 398l-250 -70z" />
<glyph unicode="2" horiz-adv-x="946" d="M90 4v129l281 295q106 114 155 188.5t49 131.5q0 49 -36.5 79.5t-102.5 30.5q-70 0 -142 -34.5t-134 -96.5h-23l-35 162q188 147 379 147q131 0 215 -65t84 -172q0 -83 -56.5 -183t-180.5 -239l-183 -207l5 -10h333l179 16l14 -14l-27 -172l-225 10h-463l-76 -4z" />
<glyph unicode="3" horiz-adv-x="860" d="M57 913q162 125 344 125q149 0 240.5 -74t91.5 -194q0 -85 -50 -166t-151 -135v-8q238 -63 238 -271q0 -173 -133.5 -280t-351.5 -107q-91 0 -211 19l-11 172l15 14q105 -45 217 -45q127 0 201.5 56.5t74.5 154.5q0 85 -59 132.5t-172 51.5h-129l-12 15l6 143l90 2 q83 0 155 59.5t72 147.5q0 67 -44 105t-118 38q-62 0 -121 -27.5t-128 -84.5h-23z" />
<glyph unicode="4" horiz-adv-x="1003" d="M49 154v135l510 737h193l-7 -725h185l12 -18l-10 -148l-184 4l8 -309l-13 -16l-159 -13l-13 15l7 323h-361l-154 -4zM231 301h349v481h-17z" />
<glyph unicode="5" horiz-adv-x="866" d="M53 -2l17 16q116 -51 233 -51q126 0 201.5 64t75.5 168q0 83 -56 131t-184 71l-182 35l-17 19l11 553l28 28l113 -6h285l200 10l13 -14l-23 -164l-14 -14l-168 14h-275l-6 -280l127 -27q187 -38 265.5 -117.5t78.5 -206.5q0 -190 -140 -309t-362 -119q-80 0 -206 23z" />
<glyph unicode="6" horiz-adv-x="972" d="M84 434q0 257 157 461.5t443 323.5h12l156 -95v-20q-235 -84 -366.5 -188.5t-180.5 -249.5l14 -17q113 76 242 76q155 0 243.5 -97t88.5 -253q0 -170 -110.5 -281.5t-303.5 -111.5q-194 0 -294.5 118.5t-100.5 333.5zM272 438q0 -160 53 -237.5t169 -77.5q100 0 156.5 58 t56.5 165q0 110 -53.5 169.5t-151.5 59.5q-113 0 -228 -88z" />
<glyph unicode="7" horiz-adv-x="868" d="M39 856l14 178l203 -8h461l92 4l2 -153l-373 -816l-100 -268l-168 45l-12 35l456 981h-393l-170 -18z" />
<glyph unicode="8" horiz-adv-x="987" d="M92 293q0 111 63.5 183t168.5 122v10q-187 97 -187 283q0 150 103.5 236.5t271.5 86.5q156 0 245 -77.5t89 -212.5q0 -98 -50.5 -166t-138.5 -123v-10q38 -19 66 -35t60 -42.5t52.5 -55.5t34 -71t13.5 -91q0 -159 -113.5 -252.5t-302.5 -93.5q-176 0 -275.5 85.5 t-99.5 223.5zM268 317q0 -85 58.5 -136.5t158.5 -51.5q103 0 163.5 52t60.5 134q0 27 -7.5 50t-17.5 40.5t-31.5 35t-36.5 28t-46 25.5t-47 21.5t-52 21.5q-45 -17 -77.5 -34t-63 -42.5t-46.5 -61.5t-16 -82zM309 897q0 -79 51.5 -124t147.5 -83q82 38 128 86t46 127 q0 76 -48.5 120t-131.5 44q-90 0 -141.5 -46t-51.5 -124z" />
<glyph unicode="9" horiz-adv-x="972" d="M80 653q0 171 110.5 282.5t303.5 111.5q194 0 294.5 -118.5t100.5 -334.5q0 -257 -156.5 -461t-443.5 -323h-13l-155 94v20q235 84 366.5 188.5t180.5 249.5l-15 17q-113 -76 -241 -76q-155 0 -243.5 97t-88.5 253zM266 682q0 -110 53.5 -169.5t151.5 -59.5q112 0 227 88 l2 49q0 160 -52.5 237.5t-168.5 77.5q-100 0 -156.5 -58t-56.5 -165z" />
<glyph unicode=":" horiz-adv-x="468" d="M111 102q0 54 31.5 86.5t86.5 32.5q52 0 80.5 -29.5t28.5 -82.5q0 -56 -31.5 -88.5t-85.5 -32.5q-52 0 -81 30t-29 84zM111 647q0 56 31.5 88.5t86.5 32.5q52 0 80.5 -30t28.5 -83q0 -55 -31.5 -87.5t-85.5 -32.5q-52 0 -81 29.5t-29 82.5z" />
<glyph unicode=";" horiz-adv-x="468" d="M68 -166q112 92 112 189q0 60 -63 108v19q75 48 149 67q88 -63 88 -154q0 -151 -217 -307l-69 62v16zM111 647q0 56 31.5 88.5t86.5 32.5q52 0 80.5 -30t28.5 -83q0 -55 -31.5 -87.5t-85.5 -32.5q-52 0 -81 29.5t-29 82.5z" />
<glyph unicode="&#x3c;" d="M72 453v170l16 20l774 311l45 -118l-10 -19l-670 -268v-12l674 -254l-31 -119l-20 -14z" />
<glyph unicode="=" d="M57 301l11 129h843l15 -14l-11 -129h-843zM57 662l11 126h843l15 -14l-11 -127h-843z" />
<glyph unicode="&#x3e;" d="M76 836l45 118l774 -311l16 -20v-170l-778 -303l-20 14l-31 119l674 254v12l-670 268z" />
<glyph unicode="?" horiz-adv-x="686" d="M113 1233l39 117l22 10q255 -14 394 -99t139 -227q0 -81 -46 -152t-133 -124l-159 -103l-4 -8l12 -188l-148 -19l-16 17l-16 239l10 21l190 106q121 70 121 178q0 188 -391 211zM193 102q0 54 31 86.5t85 32.5q52 0 81.5 -29.5t29.5 -82.5q0 -56 -31.5 -88.5t-85.5 -32.5 t-82 30t-28 84z" />
<glyph unicode="@" horiz-adv-x="1705" d="M68 381q0 193 63.5 359t177.5 284t279.5 185t361.5 67q318 0 509.5 -178t191.5 -475q0 -294 -188 -456t-539 -173l53 379h-23q-147 -248 -292 -389h-33q-178 85 -178 327q0 105 30.5 207t88.5 191.5t153 154t213 86.5h10l141 -45l117 47l23 -10l-103 -715l-4 -84 q185 25 288 149.5t103 323.5q0 241 -158.5 386t-424.5 139q-214 -3 -378 -97.5t-252.5 -259.5t-88.5 -376q0 -328 212.5 -515.5t569.5 -187.5l8 -20l-61 -101q-261 3 -456.5 97.5t-304.5 274.5t-109 425zM625 371q0 -68 9 -111.5t21 -58.5t27 -15q18 0 53 33.5t80.5 95.5 t102 166t108.5 228l2 16l2 27l-131 49q-127 0 -200.5 -122t-73.5 -308z" />
<glyph unicode="A" horiz-adv-x="1202" d="M23 0l469 1315h247l424 -1315h-217l-31 147l-57 183l-278 6l-252 -6l-62 -172l-33 -158h-210zM387 502l207 -4l211 4l-189 606h-14z" />
<glyph unicode="B" horiz-adv-x="1134" d="M176 0l14 395l-14 920l410 2q191 0 296 -83t105 -241q0 -110 -51 -189.5t-145 -119.5q270 -57 270 -315q0 -377 -563 -377q-195 0 -320 8h-2zM379 414l6 -252q80 -6 147 -6q152 0 234 57.5t82 167.5q0 177 -227 207l-240 -2zM383 750l211 -7q89 22 132.5 76.5t43.5 149.5 q0 99 -55.5 141.5t-186.5 42.5h-139z" />
<glyph unicode="C" horiz-adv-x="1062" d="M70 645q0 328 157 506t443 178q199 0 354 -90l-39 -186l-20 -6q-135 106 -303 106q-181 0 -276 -122t-95 -363q0 -248 96 -377t275 -129q181 0 327 112l21 -12l-17 -192q-177 -86 -348 -86q-277 0 -426 171.5t-149 489.5z" />
<glyph unicode="D" horiz-adv-x="1331" d="M176 0l14 395l-14 920h2l498 8q283 0 434.5 -159.5t151.5 -458.5q0 -347 -166.5 -532t-477.5 -185q-198 0 -440 12h-2zM381 414l6 -244q161 -14 268 -14q188 0 287.5 124.5t99.5 376.5q0 253 -95 373.5t-288 120.5q-112 0 -268 -8z" />
<glyph unicode="E" horiz-adv-x="1009" d="M176 0l14 395l-14 920h780l13 -19l-17 -161l-311 8l-250 -2l-6 -383l238 -4l217 6l14 -17l-16 -161l-232 6l-223 -4l-2 -170l6 -242l250 -2l317 10l13 -18l-15 -162h-776z" />
<glyph unicode="F" horiz-adv-x="907" d="M176 0l14 395l-14 920h735l15 -19l-17 -166l-307 13l-211 -2l-6 -414l207 -4l217 6l14 -18l-16 -160l-234 6l-190 -2l-2 -141l10 -414h-215z" />
<glyph unicode="G" horiz-adv-x="1226" d="M70 629q0 341 171 520.5t488 179.5q205 0 385 -88l-43 -197l-22 -2q-101 59 -182.5 85t-172.5 26q-204 0 -304.5 -124t-100.5 -390q0 -253 94.5 -367t298.5 -114q92 0 227 41l6 133l-6 196l199 15l-4 -178l6 -302q-253 -79 -440 -79q-301 0 -450.5 166.5t-149.5 478.5z " />
<glyph unicode="H" horiz-adv-x="1409" d="M176 0l14 395l-14 920h217l-8 -563l320 -7l319 7l-8 563h217l-12 -901l8 -414h-213l14 395l-2 178l-340 7l-305 -7l-2 -159l10 -414h-215z" />
<glyph unicode="I" horiz-adv-x="571" d="M176 0l14 395l-14 920h217l-12 -901l10 -414h-215z" />
<glyph unicode="J" horiz-adv-x="657" d="M12 1165l13 150h456l-12 -881l4 -190q0 -160 -83 -263.5t-288 -193.5l-73 117v22q137 71 193.5 140.5t56.5 177.5v170l-9 737l-239 -2z" />
<glyph unicode="K" horiz-adv-x="1150" d="M174 0l14 395l-14 920h217l-12 -901l10 -414h-215zM397 686v12l412 498l78 119h233l-504 -619q246 -331 543 -651l-4 -25q-97 -26 -205 -38l-22 12q-324 392 -531 692z" />
<glyph unicode="L" horiz-adv-x="866" d="M170 0l14 395l-14 920h217l-12 -901l4 -238h469l14 -18l-16 -158h-676z" />
<glyph unicode="M" horiz-adv-x="1622" d="M109 0l137 1315h241l62 -197l252 -698h16l266 704l62 191h239l125 -1315h-188l-27 399l-61 594h-14l-338 -848h-168l-314 848h-18l-62 -575l-32 -418h-178z" />
<glyph unicode="N" horiz-adv-x="1409" d="M176 0l14 389l-10 926h226l618 -985h16l-6 975l199 14l-14 -926l8 -393h-228l-616 985h-16l-2 -545l10 -440h-199z" />
<glyph unicode="O" horiz-adv-x="1308" d="M70 645q0 330 157 508t447 178q271 0 418 -168t147 -479q0 -336 -157.5 -519t-446.5 -183q-271 0 -418 173t-147 490zM287 672q0 -269 88.5 -394.5t275.5 -125.5t278 120t91 373q0 265 -89 388.5t-276 123.5q-188 0 -278 -117.5t-90 -367.5z" />
<glyph unicode="P" horiz-adv-x="1093" d="M176 0l14 395l-14 920l447 2q199 0 306 -101.5t107 -291.5q0 -222 -136.5 -351t-373.5 -129h-145v-30l10 -414h-215zM383 612l205 -4q229 44 229 297q0 123 -62.5 182t-189.5 64l-174 -6z" />
<glyph unicode="Q" horiz-adv-x="1316" d="M70 645q0 330 157 508t447 178q272 0 418.5 -168.5t146.5 -482.5q0 -253 -93.5 -422t-268.5 -235q288 -191 618 -256l8 -25q-43 -85 -96 -135l-18 -8q-395 121 -705 385l-45 -2q-275 0 -422 172.5t-147 490.5zM287 666q0 -265 90 -389.5t278 -124.5q182 0 273.5 122 t91.5 377q0 261 -90 383.5t-277 122.5q-188 0 -277 -118.5t-89 -372.5z" />
<glyph unicode="R" horiz-adv-x="1167" d="M176 0l14 395l-14 920l447 2q199 0 307 -99t108 -284q0 -131 -68 -237t-192 -171q133 -215 330 -477l-2 -24q-97 -34 -203 -43l-24 16q-183 300 -275 471h-223v-55l10 -414h-215zM385 641l225 -6q207 63 207 283q0 115 -63 171.5t-189 61.5l-174 -6z" />
<glyph unicode="S" horiz-adv-x="989" d="M78 72l26 209l27 12q75 -71 166.5 -107t169.5 -36q107 0 170 56.5t63 133.5q0 52 -32.5 93.5t-84.5 71.5t-115 59t-125.5 63t-114.5 75t-84.5 103.5t-32.5 140.5q0 164 126 273.5t324 109.5q156 0 311 -65l-34 -193l-33 -12q-137 100 -268 100q-100 0 -160 -55.5 t-60 -128.5q0 -43 25.5 -79.5t67 -62.5t95 -54t108.5 -52t108.5 -59t95 -73.5t67 -95.5t25.5 -126q0 -164 -129 -276.5t-334 -112.5q-187 0 -368 88z" />
<glyph unicode="T" horiz-adv-x="1013" d="M39 1155l16 160h910l12 -19l-12 -159l-238 12h-111l-10 -735l10 -414h-213l13 395l-10 754h-111l-242 -12z" />
<glyph unicode="U" horiz-adv-x="1292" d="M141 475l4 182l-4 658h209l-8 -811v-7q0 -333 303 -333q305 0 305 313v6l-10 832h213l-6 -668l-2 -155v-17q0 -230 -130 -358q-135 -133 -384 -133q-239 0 -367 128q-124 124 -123 349v14z" />
<glyph unicode="V" horiz-adv-x="1173" d="M25 1315h217l30 -150l301 -960h15l334 950l32 160h211l-465 -1315h-249z" />
<glyph unicode="W" horiz-adv-x="1837" d="M41 1315h209l22 -141l283 -949h16l258 762l-104 328h215l33 -162l287 -928h16l317 936l33 154h197l-455 -1315h-221l-232 707h-14l-239 -707h-224z" />
<glyph unicode="X" horiz-adv-x="1224" d="M39 0l434 657l-424 658h256l57 -115l250 -381l256 385l54 111h227l-410 -629l441 -686h-256l-60 117l-268 403l-281 -416l-55 -104h-221z" />
<glyph unicode="Y" horiz-adv-x="1107" d="M23 1315h225l26 -82l261 -551h18l287 547l32 86h222l-459 -856l-2 -82l10 -377h-213l12 377l-2 84z" />
<glyph unicode="Z" horiz-adv-x="1097" d="M63 -6v153l705 1000h-465l-211 -17l-12 13l16 174l809 -2l111 2v-156l-701 -995h500l207 16l10 -12l-18 -174l-264 4h-553z" />
<glyph unicode="[" horiz-adv-x="595" d="M184 -242l11 774l-11 773l394 20l10 -12v-96l-232 -27v-1319l232 -25v-96l-10 -12z" />
<glyph unicode="\" horiz-adv-x="585" d="M-2 1370l16 21h142l422 -1606l-15 -18h-143z" />
<glyph unicode="]" horiz-adv-x="595" d="M8 -154l232 27v1319l-232 25v98l10 10l394 -20l-11 -773l11 -774l-394 -20l-10 12v96z" />
<glyph unicode="^" horiz-adv-x="882" d="M39 274l311 725l21 13h170l305 -727l-17 -19l-116 -28l-256 622h-13l-268 -620l-18 -11z" />
<glyph unicode="_" horiz-adv-x="915" d="M-31 -299l13 119h950l14 -17l-10 -118h-952z" />
<glyph unicode="`" horiz-adv-x="796" d="M174 1337l78 111l20 2q134 -127 351 -303l-54 -82l-20 -2q-209 136 -371 254z" />
<glyph unicode="a" horiz-adv-x="962" d="M76 252q0 182 198 227l324 72l2 111q0 76 -38 114.5t-109 38.5q-131 0 -293 -131l-17 10l-26 146q180 123 368 123q141 0 223.5 -68t82.5 -188q0 -36 -12.5 -243.5t-12.5 -242.5q0 -39 13 -54t46 -15q21 0 62 8l18 -15l-20 -114q-58 -36 -129 -45q-63 6 -103 45.5 t-47 105.5h-14q-103 -109 -213 -153q-142 1 -222.5 73t-80.5 195zM262 279q0 -62 33.5 -97t91.5 -35q96 0 205 125l6 158l-266 -63q-37 -8 -53.5 -27.5t-16.5 -60.5z" />
<glyph unicode="b" horiz-adv-x="1056" d="M154 -4l14 397l-12 1028l209 17l-9 -625h13q66 55 120 86.5t125 54.5q179 0 273 -118.5t94 -333.5q0 -249 -121 -384.5t-336 -135.5q-106 0 -209 47l-129 -54zM350 418l6 -238q91 -55 176 -55q120 0 188 87q67 86 66 256v5q-3 151 -55 232t-151 81q-110 0 -226 -122z" />
<glyph unicode="c" horiz-adv-x="788" d="M76 463q0 232 115 366t317 134q141 0 252 -54l-35 -174l-20 -8q-109 64 -201 64q-109 0 -170.5 -81.5t-61.5 -230.5q0 -157 63.5 -244.5t180.5 -87.5q102 0 219 62l19 -12l-21 -168q-123 -47 -250 -47q-191 0 -299 128t-108 353z" />
<glyph unicode="d" horiz-adv-x="1064" d="M72 469q0 235 123.5 363.5t341.5 128.5q69 0 159 -17l-4 477l209 17l-16 -1022l6 -197q2 -38 13 -52.5t40 -14.5q25 0 64 8l18 -15l-18 -114q-58 -36 -131 -45q-63 6 -102 44t-50 99h-16q-62 -52 -108 -83t-105 -58q-204 0 -314 126t-110 355zM268 494 q1 -163 62.5 -249.5t169.5 -86.5q104 0 200 106l5 133l-7 373q-100 47 -182 47q-119 1 -185 -81q-63 -78 -63 -228v-14z" />
<glyph unicode="e" horiz-adv-x="942" d="M76 467q0 229 122.5 361.5t329.5 132.5q163 0 253.5 -96.5t90.5 -266.5q0 -52 -8 -102l-35 -33h-561q3 -155 70.5 -237.5t200.5 -82.5q132 0 276 86l19 -12l-25 -166q-141 -69 -287 -69q-211 0 -328.5 129.5t-117.5 355.5zM279 590l403 10l4 25q0 97 -45 144.5t-125 47.5 q-94 0 -155.5 -59t-81.5 -168z" />
<glyph unicode="f" horiz-adv-x="643" d="M66 819l10 121h139l-2 141q-1 174 96 267.5t275 93.5q76 0 166 -19l-13 -157l-14 -13q-89 39 -158 39q-150 0 -153 -176l-2 -176h241l6 -14l-12 -119h-237l-7 -391l15 -416h-209l12 397l-4 410h-141z" />
<glyph unicode="g" horiz-adv-x="1007" d="M104 -123q51 85 177 166v10q-71 24 -110.5 64.5t-39.5 107.5q53 75 131 125v10q-141 78 -141 263q0 156 104 244.5t279 88.5q110 0 188 -34q156 24 303 71l19 -12v-137q-62 -20 -176 -39l-4 -8q38 -63 38 -158q0 -151 -104 -240.5t-283 -89.5q-62 0 -125 13 q-43 -35 -43 -68q0 -29 33.5 -47t86.5 -27.5t117 -17.5t128.5 -22.5t117.5 -38t86.5 -68.5t33.5 -109q0 -137 -130 -229t-323 -92q-173 0 -268 75.5t-95 198.5zM283 -135q0 -56 54 -91.5t155 -35.5q108 0 177.5 41t69.5 106q0 23 -8.5 40.5t-29 30.5t-39 21.5t-54.5 16 t-58.5 11.5t-68.5 10.5t-67 9.5q-131 -83 -131 -160zM305 633q0 -91 48.5 -141t140.5 -50q93 0 143.5 51.5t50.5 145.5q0 182 -186 182q-96 0 -146.5 -48t-50.5 -140z" />
<glyph unicode="h" horiz-adv-x="1073" d="M156 0l12 397l-10 1024l209 17l-11 -627h13q119 104 252 145q157 0 238 -72q79 -70 79 -198v-6l-6 -266l10 -414h-211l14 621v8q1 71 -35 113q-38 44 -110 44q-121 0 -246 -122l-4 -248l15 -416h-209z" />
<glyph unicode="i" horiz-adv-x="501" d="M139 1266q0 54 32 86t87 32q52 0 80.5 -29.5t28.5 -82.5q0 -55 -31 -88t-84 -33q-54 0 -83.5 30.5t-29.5 84.5zM145 0l13 395l-11 535l209 18l-16 -534l14 -414h-209z" />
<glyph unicode="j" horiz-adv-x="563" d="M6 821l10 119h189l194 8l7 -4l-15 -530l10 -369q0 -161 -70.5 -261.5t-236.5 -180.5l-76 92v22q104 59 146.5 130.5t42.5 189.5l2 358l-8 412h-181zM156 1266q0 54 31.5 86t86.5 32q52 0 80.5 -29.5t28.5 -82.5q0 -55 -31 -88t-84 -33q-54 0 -83 30.5t-29 84.5z" />
<glyph unicode="k" horiz-adv-x="966" d="M156 0l12 397l-10 1024l209 17l-17 -1022l15 -416h-209zM381 496v14l270 344l51 90h228l-346 -430q134 -188 368 -477v-25q-46 -12 -190 -30l-25 8q-204 264 -356 506z" />
<glyph unicode="l" horiz-adv-x="520" d="M156 0l14 397l-12 1024l209 17l-17 -1022l15 -416h-209z" />
<glyph unicode="m" horiz-adv-x="1636" d="M145 0l13 395l-11 535l199 18l-2 -137h14q121 106 252 145q231 0 295 -153h13q122 107 270 153q157 0 238 -72q79 -70 79 -198v-6l-6 -266l10 -414h-211l15 621v8q0 71 -36 113q-38 44 -110 44q-117 0 -241 -118l-4 -254l8 -414h-209l14 621v8q1 71 -35 113 q-38 44 -110 44q-121 0 -246 -122l-2 -250l10 -414h-207z" />
<glyph unicode="n" horiz-adv-x="1064" d="M145 0l13 395l-11 535l199 18l-2 -137h14q119 104 252 145q156 0 238 -72q80 -70 80 -198v-6l-6 -266l10 -414h-211l14 621v8q1 71 -35 113q-38 44 -110 44q-121 0 -246 -122l-2 -250l12 -414h-209z" />
<glyph unicode="o" horiz-adv-x="1007" d="M76 457q0 243 114 374.5t326 131.5q198 0 306 -124.5t108 -351.5q0 -243 -114.5 -374t-326.5 -131q-198 0 -305.5 124t-107.5 351zM270 502q0 -193 58 -285t176 -92q116 0 173.5 77.5t57.5 237.5q0 192 -57.5 284.5t-173.5 92.5q-234 0 -234 -315z" />
<glyph unicode="p" horiz-adv-x="1044" d="M145 -379l13 774l-13 535l201 18l-2 -135h14q66 57 120.5 88t125.5 53q179 0 273 -119t94 -335q0 -249 -122 -383.5t-343 -134.5q-72 0 -160 16l6 -377h-207zM340 414l4 -244q89 -45 178 -45q120 0 188 87q64 83 64 246v15q-2 150 -54.5 231.5t-150.5 81.5 q-108 0 -227 -122z" />
<glyph unicode="q" horiz-adv-x="1044" d="M72 463q0 241 122 369.5t336 128.5q110 0 246 -39l107 36l18 -12l-16 -532l14 -793h-207l10 442v43h-18q-87 -70 -197 -118q-200 0 -307.5 125.5t-107.5 349.5zM268 485q1 -156 60.5 -241.5t163.5 -85.5q53 0 102 24t108 84l3 127l-7 371q-99 51 -184 51q-118 0 -184 -83 q-62 -78 -62 -233v-14z" />
<glyph unicode="r" horiz-adv-x="679" d="M145 0l15 395l-13 535l199 18l-2 -188h14q103 186 258 186q24 0 52 -4v-199l-23 -6q-40 11 -76 11q-64 0 -119 -47.5t-108 -151.5l-2 -135l14 -414h-209z" />
<glyph unicode="s" horiz-adv-x="770" d="M55 45l25 174l22 14q59 -52 131 -81t132 -29q66 0 105.5 36t39.5 85q0 35 -23.5 62.5t-61 47.5t-82.5 39t-90 43.5t-82.5 54t-61 77.5t-23.5 108q0 125 92.5 205t251.5 80q122 0 240 -48l-29 -163l-27 -7q-109 72 -208 72q-61 0 -97.5 -33.5t-36.5 -79.5q0 -35 23.5 -62 t61 -46.5t82.5 -38.5t90 -42.5t82.5 -53t61 -75.5t23.5 -105q0 -58 -22.5 -110.5t-65.5 -94.5t-111.5 -67t-154.5 -25q-143 0 -287 63z" />
<glyph unicode="t" horiz-adv-x="669" d="M41 819l10 121h125v150l184 69l19 -16l-4 -203h262l8 -14l-10 -119h-264l-11 -514v-5q0 -71 26 -100q28 -30 93 -30q69 0 144 37l20 -15l-20 -131q-112 -53 -209 -61q-127 20 -184.5 85t-57.5 187l8 148l-2 399h-129z" />
<glyph unicode="u" horiz-adv-x="1054" d="M135 930l207 18l-10 -626v-8q0 -70 34 -111q36 -43 107 -43q113 0 223 104v666l199 18l-14 -729q0 -38 12 -52.5t43 -14.5q24 0 63 8l19 -15l-21 -114q-59 -36 -129 -45q-125 12 -151 145h-17q-119 -108 -245 -143q-155 0 -237 72q-80 70 -79 198v6l4 256z" />
<glyph unicode="v" horiz-adv-x="886" d="M37 940l192 10l27 -139l178 -610h15l208 600l35 143h185l-334 -944h-226z" />
<glyph unicode="w" horiz-adv-x="1402" d="M37 940l190 10l21 -133l149 -600h15l174 590l35 137h200l23 -127l151 -600h13l174 590l32 137h179l-303 -944h-199l-174 680h-17l-202 -680h-205z" />
<glyph unicode="x" horiz-adv-x="913" d="M41 0l289 477l-289 461l221 12l41 -100l168 -254l158 258l49 90h186l-282 -463l301 -473l-219 -18l-46 106l-174 264l-174 -274l-43 -86h-186z" />
<glyph unicode="y" horiz-adv-x="890" d="M-45 -262l6 22q145 28 237 83.5t158 156.5l-346 940l203 10l31 -133l198 -596h17l200 576l31 147h187l-322 -895q-66 -185 -177.5 -286t-307.5 -154h-19q-55 53 -96 129z" />
<glyph unicode="z" horiz-adv-x="854" d="M61 119l502 686h-319l-158 -17l-12 17l14 143l186 -4h414l90 2l4 -125l-499 -682h335l164 17l13 -17l-17 -143l-211 4h-393l-111 -4z" />
<glyph unicode="{" horiz-adv-x="595" d="M84 489v103q156 34 156 170q0 41 -20.5 162t-20.5 184q0 115 64.5 175t189.5 60q38 0 116 -16l9 -16l-19 -111q-48 10 -74 10q-120 0 -120 -139q0 -48 22.5 -159t22.5 -154q0 -152 -140 -211v-10q68 -29 104 -83.5t36 -125.5q0 -46 -22.5 -157t-22.5 -159 q0 -143 120 -143q26 0 74 10l19 -106l-9 -17q-52 -16 -116 -16q-125 0 -189.5 60t-64.5 175q0 63 20.5 183t20.5 161q0 136 -156 170z" />
<glyph unicode="|" horiz-adv-x="636" d="M238 -514v1092l2 1048l145 12l14 -14l-2 -1032v-1116l-143 -11z" />
<glyph unicode="}" horiz-adv-x="595" d="M18 -227l19 108q45 -10 74 -10q120 0 120 141q0 48 -22.5 159.5t-22.5 154.5q0 152 140 211v10q-68 29 -104 82.5t-36 124.5q0 47 22.5 158t22.5 159q0 72 -29.5 106.5t-90.5 34.5q-29 0 -74 -10l-19 109l9 16q62 16 116 16q125 0 189.5 -60t64.5 -175 q0 -63 -21.5 -183.5t-21.5 -160.5q0 -140 158 -170v-102q-158 -37 -158 -173q0 -40 21.5 -160.5t21.5 -183.5q0 -115 -64.5 -175t-189.5 -60q-54 0 -116 16z" />
<glyph unicode="~" d="M86 469v20l156 166l22 13q46 -8 213.5 -56.5t204.5 -48.5q6 0 12.5 1.5t13.5 5.5t13 7.5t15 11l15 12.5t17 15.5t17 17t18.5 19l19.5 19.5h21l55 -70v-20l-156 -168l-22 -8q-51 7 -216.5 54.5t-199.5 47.5q-8 0 -16.5 -2.5t-18.5 -9t-18 -12.5t-20.5 -18t-20 -19.5 l-23.5 -23.5l-24 -24h-23z" />
<glyph unicode="&#xa1;" horiz-adv-x="532" d="M150 -377l57 869l121 16l22 -25l6 -852l-18 -24l-164 -10zM182 846q0 55 31 88t84 33q54 0 83.5 -30.5t29.5 -84.5t-32.5 -86.5t-86.5 -32.5q-52 0 -80.5 30t-28.5 83z" />
<glyph unicode="&#xa2;" horiz-adv-x="784" d="M70 545q0 214 96.5 344t267.5 149l21 299h102l18 -18l-20 -281q110 -13 193 -63l-31 -133l-21 -4q-70 44 -149 59l-53 -686h6q117 0 231 65l19 -10l-17 -125q-113 -63 -250 -69l-24 -320h-103l-16 19l22 313q-138 32 -215 153.5t-77 307.5zM233 561q0 -117 36.5 -198.5 t103.5 -120.5l49 651q-89 -25 -139 -112t-50 -220z" />
<glyph unicode="&#xa3;" horiz-adv-x="876" d="M43 12l12 111q148 35 148 213v244h-150l-8 12l10 102h146v172q-1 169 94 260t272 91q100 0 228 -35l-13 -154l-12 -12q-117 67 -217 67q-176 0 -176 -188v-201h260l8 -12l-10 -102h-260v-228q0 -133 -82 -200v-7h319l197 15l8 -15l-14 -149l-225 4h-525z" />
<glyph unicode="&#xa4;" horiz-adv-x="890" d="M47 1008v20l88 94l21 -2l129 -139q70 51 159 51q84 0 154 -47l127 139l20 2l95 -90v-20l-140 -129q52 -74 52 -162q0 -81 -50 -154l142 -125l2 -20l-90 -96l-21 2l-127 139q-72 -53 -164 -53q-85 0 -153 49l-125 -139h-21l-96 90l2 20l139 125q-53 72 -53 162 q0 87 49 158zM256 725q0 -81 54 -134.5t134 -53.5q83 0 137 53t54 135t-54 136t-137 54q-80 0 -134 -54.5t-54 -135.5z" />
<glyph unicode="&#xa5;" horiz-adv-x="1024" d="M49 250l6 88h375v6l-92 170h-281l-8 12l6 88h230l-217 410h186l22 -63l232 -422h14l250 415l31 70h182l-237 -410h229l10 -10l-8 -90h-291l-96 -166v-10h385l8 -10l-6 -88h-387l4 -240h-174l6 240h-371z" />
<glyph unicode="&#xa6;" horiz-adv-x="636" d="M238 311l141 17l18 -21v-831l-143 -11l-16 21v825zM238 764v862l147 12l14 -14l-2 -858l-143 -16z" />
<glyph unicode="&#xa7;" horiz-adv-x="870" d="M63 -141l27 172l21 14q61 -55 130 -85t132 -30q72 0 115.5 38t43.5 87q0 45 -47 87.5t-113.5 80.5t-133 82t-113.5 109.5t-47 144.5q0 86 52 161.5t140 121.5q-100 86 -100 194q0 121 101.5 207t252.5 86q123 0 238 -47l-27 -168l-26 -6q-119 82 -215 82q-64 0 -106 -38 t-42 -85q0 -33 25 -64t65 -57.5t89 -54t97.5 -60t88.5 -69t65 -87t25 -108.5q0 -87 -51.5 -161.5t-141.5 -118.5q103 -89 103 -199q0 -121 -102 -207t-259 -86q-65 0 -145 17.5t-142 46.5zM254 602q0 -20 6 -39t22 -38t28.5 -32t41 -32.5t43.5 -29.5t51.5 -32t49.5 -30 q129 58 129 151q0 21 -6 40.5t-22 39t-27.5 32.5t-41 34t-42 29.5t-51 32t-48.5 30.5q-133 -64 -133 -156z" />
<glyph unicode="&#xa8;" horiz-adv-x="796" d="M125 1251q0 51 30 81t81 30q49 0 75.5 -27.5t26.5 -77.5q0 -52 -29 -82t-80 -30t-77.5 27.5t-26.5 78.5zM461 1251q0 51 29.5 81t80.5 30q49 0 76 -27.5t27 -77.5q0 -52 -29 -82t-80 -30t-77.5 27.5t-26.5 78.5z" />
<glyph unicode="&#xa9;" horiz-adv-x="1404" d="M92 600q0 281 167 453t441 172q275 0 443 -172t168 -453t-168 -453t-443 -172q-274 0 -441 172t-167 453zM172 600q0 -246 145 -395.5t383 -149.5t384.5 149.5t146.5 395.5t-146.5 395.5t-384.5 149.5t-383 -149.5t-145 -395.5zM397 602q0 168 88 259t252 91 q96 0 189 -41l-27 -114l-12 -6q-68 43 -154 43q-188 0 -188 -220q0 -237 190 -237q87 0 164 41l14 -6l-12 -115q-86 -39 -176 -39q-162 0 -245 88.5t-83 255.5z" />
<glyph unicode="&#xaa;" horiz-adv-x="671" d="M61 862q0 134 140 158l205 37l2 61q0 90 -91 90q-74 0 -190 -73l-12 6l-21 114q123 76 254 76q106 0 163.5 -47t57.5 -133q0 -21 -6 -152t-6 -147q0 -27 7 -38t24 -11q20 0 35 10l12 -10l-17 -96q-45 -31 -94 -31q-47 0 -71.5 22t-36.5 76h-6q-69 -82 -150 -100 q-93 2 -146 51.5t-53 136.5zM221 879q0 -39 20 -60.5t56 -21.5q54 0 106 61l3 117l-130 -29q-55 -9 -55 -67z" />
<glyph unicode="&#xab;" horiz-adv-x="841" d="M41 442v39l289 359l98 -56l4 -22l-237 -297l237 -297l-4 -23l-98 -55zM397 442v39l289 359l98 -56l4 -22l-237 -297l237 -297l-4 -23l-98 -55z" />
<glyph unicode="&#xac;" d="M53 481l13 129h796l12 -14v-481l-126 -11l-17 15v348h-663z" />
<glyph unicode="&#xad;" horiz-adv-x="626" d="M57 428v131l492 72l18 -17v-131l-491 -73z" />
<glyph unicode="&#xae;" horiz-adv-x="905" d="M78 1063q0 169 103 272t272 103q170 0 273 -103t103 -272t-103 -273t-273 -104q-169 0 -272 104t-103 273zM139 1063q0 -143 87 -230.5t229 -87.5q141 0 228 88t87 230t-87 228.5t-228 86.5q-143 0 -229.5 -86.5t-86.5 -228.5zM313 877l2 118l-2 281h160q65 0 100 -31.5 t35 -89.5q0 -78 -78 -121q49 -75 105 -139l-2 -8q-31 -13 -82 -17l-10 7q-40 58 -82 137h-66v-8l4 -129h-84zM395 1081l70 -4q29 11 43 27.5t14 44.5q0 60 -78 63l-47 -2z" />
<glyph unicode="&#xaf;" horiz-adv-x="796" d="M98 1202l11 119h577l14 -14l-10 -121h-577z" />
<glyph unicode="&#xb0;" horiz-adv-x="600" d="M39 1071q0 109 76 184.5t186 75.5q109 0 184.5 -75.5t75.5 -184.5t-75.5 -183.5t-184.5 -74.5q-110 0 -186 74.5t-76 183.5zM133 1071q0 -67 49 -115.5t117 -48.5q69 0 117.5 48t48.5 116t-48.5 116t-117.5 48q-68 0 -117 -48.5t-49 -115.5z" />
<glyph unicode="&#xb1;" d="M57 -195l11 129h843l15 -14l-11 -129h-843zM57 481l13 129h350v353l129 12l16 -17v-348h346l17 -14l-13 -129h-350v-352l-129 -11l-16 15v348h-348z" />
<glyph unicode="&#xb2;" horiz-adv-x="724" d="M76 659v105l196 223q80 94 114 145t34 91q0 35 -24.5 57.5t-69.5 22.5q-48 0 -101.5 -27t-95.5 -74h-20l-29 133q147 111 289 111q100 0 164.5 -49.5t64.5 -134.5q0 -60 -39.5 -130.5t-130.5 -181.5l-121 -153l4 -4h221l136 6l6 -13l-19 -137l-176 6h-340l-55 -2z" />
<glyph unicode="&#xb3;" horiz-adv-x="641" d="M53 1368q115 80 246 80q106 0 171 -50t65 -134q0 -53 -30.5 -104.5t-94.5 -82.5v-8q151 -41 151 -184q0 -107 -94 -173.5t-246 -66.5q-71 0 -147 17l-11 122l13 13q80 -21 147 -21q78 0 122 29.5t44 83.5q0 46 -32 72.5t-93 27.5h-96l-8 10l2 117h61q52 2 92.5 34.5 t40.5 80.5q0 38 -25 59t-71 21q-69 0 -160 -60h-18z" />
<glyph unicode="&#xb4;" horiz-adv-x="796" d="M176 1147q210 170 350 303l21 -2l78 -111l-4 -20q-162 -118 -371 -254l-21 2z" />
<glyph unicode="&#xb5;" horiz-adv-x="1054" d="M135 -379l8 774l-8 535l197 18v-637q2 -71 40 -111t105 -40q106 0 219 104v666l199 18l-14 -719q-3 -90 53 -90q31 0 61 21l19 -15l-23 -114q-62 -43 -131 -43q-62 0 -98 31.5t-55 103.5h-17q-116 -107 -246 -135q-62 0 -112 18v-385h-197z" />
<glyph unicode="&#xb6;" horiz-adv-x="1024" d="M68 897q0 200 122 309t347 109h426l16 -19l-16 -143h-146l-6 -768l2 -115q0 -145 -81.5 -247.5t-274.5 -188.5l-58 96v23q115 66 166 138t51 169v96l-6 799h-108q-103 -12 -159 -80.5t-56 -183.5q0 -114 62 -197.5t179 -124.5l-71 -114q-188 40 -288.5 152.5 t-100.5 289.5z" />
<glyph unicode="&#xb7;" horiz-adv-x="468" d="M119 506q0 54 32 86.5t87 32.5q52 0 80 -29.5t28 -81.5q0 -55 -31 -88t-84 -33q-54 0 -83 29.5t-29 83.5z" />
<glyph unicode="&#xb8;" horiz-adv-x="796" d="M233 -342l19 96l10 4q60 -63 117 -63q27 0 43 13.5t16 37.5q0 28 -39 45l-100 59l49 195h111l-41 -147l69 -41q82 -44 82 -117q0 -63 -49.5 -103t-128.5 -40q-90 0 -158 61z" />
<glyph unicode="&#xb9;" horiz-adv-x="542" d="M25 1221v139l323 88l25 -21l-6 -493l6 -279h-178l4 258v340l-160 -41z" />
<glyph unicode="&#xba;" horiz-adv-x="700" d="M57 991q0 166 77.5 253t225.5 87q139 0 212 -82t73 -237q0 -165 -78 -252.5t-225 -87.5q-138 0 -211.5 82t-73.5 237zM223 1010q0 -116 31 -167.5t98 -51.5t99 47t32 153q0 115 -32 166t-99 51q-68 0 -98.5 -46.5t-30.5 -151.5z" />
<glyph unicode="&#xbb;" horiz-adv-x="831" d="M43 170l238 297l-238 297l4 22l98 56l289 -353v-38l-289 -359l-98 55zM399 170l238 297l-238 297l2 22l101 56l289 -353v-38l-289 -359l-101 55z" />
<glyph unicode="&#xbc;" horiz-adv-x="1476" d="M25 1102v139l323 88l25 -20l-6 -494l6 -278h-178l4 258v340l-160 -41zM115 -106l960 1501l88 -54l13 -30l-959 -1497l-92 53zM793 205v108l333 469h164l-4 -458h115l10 -15l-8 -121l-113 5l8 -181l-10 -12l-139 -6l-10 8l4 193h-221l-117 -7zM946 324h199v266h-12z" />
<glyph unicode="&#xbd;" horiz-adv-x="1515" d="M25 1102v139l323 88l25 -20l-6 -494l6 -278h-178l4 258v340l-160 -41zM115 -106l960 1501l88 -54l13 -30l-959 -1497l-92 53zM866 4v105l197 223q79 94 113 144.5t34 90.5q0 35 -24.5 57.5t-69.5 22.5q-48 0 -101 -26.5t-95 -73.5h-21l-29 133q147 111 289 111 q100 0 165 -50t65 -135q0 -59 -39.5 -129t-130.5 -182l-121 -154l4 -4h221l135 6l6 -12l-18 -137l-176 6h-340l-56 -2z" />
<glyph unicode="&#xbe;" horiz-adv-x="1554" d="M53 1249q115 80 246 80q106 0 171 -50t65 -134q0 -53 -30.5 -104.5t-94.5 -82.5v-8q151 -41 151 -184q0 -107 -94 -173.5t-246 -66.5q-71 0 -147 17l-11 123l13 12q80 -21 147 -21q78 0 122 29.5t44 83.5q0 46 -32 72.5t-93 27.5h-96l-8 11l2 116h61q52 2 92.5 34.5 t40.5 80.5q0 38 -25 59t-71 21q-71 0 -160 -59h-18zM193 -106l960 1501l88 -54l12 -30l-958 -1497l-92 53zM870 205v108l334 469h164l-4 -458h115l10 -15l-8 -121l-113 5l8 -181l-10 -12l-139 -6l-10 8l4 193h-222l-116 -7zM1024 324h199v266h-13z" />
<glyph unicode="&#xbf;" horiz-adv-x="686" d="M-12 -80q0 82 46 153t132 124l160 102l4 8l-13 189l148 18l16 -16l17 -240l-11 -20l-190 -107q-121 -70 -121 -178q0 -188 391 -211l15 -21l-39 -116l-23 -11q-255 13 -393.5 98t-138.5 228zM274 846q0 56 31.5 88.5t85.5 32.5t82.5 -30.5t28.5 -84.5t-31.5 -86.5 t-85.5 -32.5q-52 0 -81.5 30t-29.5 83z" />
<glyph unicode="&#xc0;" horiz-adv-x="1202" d="M23 0l466 1315h250l422 -1315h-215l-31 147l-57 183l-278 6l-254 -6l-60 -172l-33 -158h-210zM365 1663l55 125l20 4q119 -70 406 -219l-35 -90l-23 -8q-280 108 -415 167zM387 502l209 -4l209 4l-189 606h-16z" />
<glyph unicode="&#xc1;" horiz-adv-x="1202" d="M23 0l466 1315h250l422 -1315h-215l-31 147l-57 183l-278 6l-254 -6l-60 -172l-33 -158h-210zM387 502l209 -4l209 4l-189 606h-16zM416 1571q279 145 405 219l21 -4l55 -125l-8 -21q-127 -55 -416 -167l-22 8z" />
<glyph unicode="&#xc2;" horiz-adv-x="1202" d="M23 0l466 1315h250l422 -1315h-215l-31 147l-57 183l-278 6l-254 -6l-60 -172l-33 -158h-210zM326 1585q132 88 254 197h49q113 -102 254 -197l-39 -88h-23q-149 91 -217 135q-67 -45 -215 -135h-22zM387 502l209 -4l209 4l-189 606h-16z" />
<glyph unicode="&#xc3;" horiz-adv-x="1202" d="M23 0l466 1315h250l422 -1315h-215l-31 147l-57 183l-278 6l-254 -6l-60 -172l-33 -158h-210zM264 1556v19l133 158l23 8q44 -6 167.5 -40t149.5 -34q7 0 14.5 2.5t16 8t15.5 11t17.5 16.5t17 18t20 21.5t20.5 22.5h21l61 -65v-19l-133 -157l-21 -10q-44 6 -167 40.5 t-150 34.5q-11 0 -21.5 -4.5t-23 -16t-22 -21t-26.5 -28.5t-28 -30h-20zM387 502l209 -4l209 4l-189 606h-16z" />
<glyph unicode="&#xc4;" horiz-adv-x="1202" d="M23 0l466 1315h250l422 -1315h-215l-31 147l-57 183l-278 6l-254 -6l-60 -172l-33 -158h-210zM330 1622q0 51 29.5 81t80.5 30q49 0 76 -27.5t27 -77.5q0 -52 -29 -82t-80 -30t-77.5 27.5t-26.5 78.5zM387 502l209 -4l209 4l-189 606h-16zM666 1622q0 51 29.5 81t80.5 30 q49 0 76 -27.5t27 -77.5q0 -52 -29 -82t-80 -30t-77.5 27.5t-26.5 78.5z" />
<glyph unicode="&#xc5;" horiz-adv-x="1202" d="M23 0l466 1315h250l422 -1315h-215l-31 147l-57 183l-278 6l-254 -6l-60 -172l-33 -158h-210zM387 502l209 -4l209 4l-189 606h-16zM420 1640q0 85 48.5 133t135.5 48t133.5 -47.5t46.5 -126.5q0 -87 -51 -136t-135 -49q-81 0 -129.5 46.5t-48.5 131.5zM514 1645 q0 -91 88 -91q41 0 64.5 21.5t23.5 64.5q0 40 -23 63t-67 23q-86 0 -86 -81z" />
<glyph unicode="&#xc6;" horiz-adv-x="1667" d="M-35 0l668 1315h823l12 -19l-16 -161l-328 10h-188l59 -436l422 96l17 -14l14 -150l-432 -94l51 -379h223l336 12l14 -18l-16 -162h-747l-11 147l-49 353l-465 -115l-116 -227l-56 -158h-215zM451 580l344 82l-62 446h-14z" />
<glyph unicode="&#xc7;" horiz-adv-x="1062" d="M70 645q0 328 157 506t443 178q199 0 354 -90l-39 -186l-20 -6q-135 106 -303 106q-181 0 -276 -122t-95 -363q0 -248 96 -377t275 -129q181 0 327 112l21 -12l-17 -192q-155 -76 -305 -84l-24 -88l69 -41q82 -44 82 -117q0 -63 -49.5 -103t-128.5 -40q-90 0 -158 61 l19 96l10 4q60 -63 117 -63q27 0 43 13.5t16 37.5q0 28 -39 45l-100 59l35 136q-246 22 -378 192t-132 467z" />
<glyph unicode="&#xc8;" horiz-adv-x="1009" d="M176 0l14 395l-14 920h780l13 -19l-17 -161l-311 8l-250 -2l-6 -383l238 -4l217 6l14 -17l-16 -161l-232 6l-223 -4l-2 -170l4 -242l252 -2l317 10l13 -18l-15 -162h-776zM330 1663l55 125l21 4q126 -74 405 -219l-35 -90l-22 -8q-289 112 -416 167z" />
<glyph unicode="&#xc9;" horiz-adv-x="1009" d="M176 0l14 395l-14 920h780l13 -19l-17 -161l-311 8l-250 -2l-6 -383l238 -4l217 6l14 -17l-16 -161l-232 6l-223 -4l-2 -170l4 -242l252 -2l317 10l13 -18l-15 -162h-776zM381 1571q279 145 405 219l21 -4l55 -125l-8 -21q-127 -55 -416 -167l-22 8z" />
<glyph unicode="&#xca;" horiz-adv-x="1009" d="M176 0l14 395l-14 920h780l13 -19l-17 -161l-311 8l-250 -2l-6 -383l238 -4l217 6l14 -17l-16 -161l-232 6l-223 -4l-2 -170l4 -242l252 -2l317 10l13 -18l-15 -162h-776zM291 1585q132 88 254 197h49q113 -102 254 -197l-39 -88h-23q-149 91 -217 135q-67 -45 -215 -135 h-22z" />
<glyph unicode="&#xcb;" horiz-adv-x="1009" d="M176 0l14 395l-14 920h780l13 -19l-17 -161l-311 8l-250 -2l-6 -383l238 -4l217 6l14 -17l-16 -161l-232 6l-223 -4l-2 -170l4 -242l252 -2l317 10l13 -18l-15 -162h-776zM295 1622q0 51 30 81t81 30q49 0 75.5 -27.5t26.5 -77.5q0 -52 -29 -82t-80 -30t-77.5 27.5 t-26.5 78.5zM631 1622q0 51 29.5 81t80.5 30q49 0 76 -27.5t27 -77.5q0 -52 -29 -82t-80 -30t-77.5 27.5t-26.5 78.5z" />
<glyph unicode="&#xcc;" horiz-adv-x="571" d="M45 1663l55 125l21 4q126 -74 405 -219l-34 -90l-23 -8q-289 112 -416 167zM176 0l14 395l-14 920h217l-12 -901l8 -414h-213z" />
<glyph unicode="&#xcd;" horiz-adv-x="571" d="M96 1571q287 149 406 219l20 -4l56 -125l-9 -21q-135 -59 -415 -167l-23 8zM176 0l14 395l-14 920h217l-12 -901l8 -414h-213z" />
<glyph unicode="&#xce;" horiz-adv-x="571" d="M6 1585q132 88 254 197h49q113 -102 254 -197l-39 -88h-22q-149 91 -217 135q-67 -45 -215 -135h-23zM176 0l14 395l-14 920h217l-12 -901l8 -414h-213z" />
<glyph unicode="&#xd0;" horiz-adv-x="1378" d="M27 604l8 129h198l-8 582l498 8q283 0 434.5 -159.5t151.5 -458.5q0 -347 -166 -532t-475 -185q-197 0 -443 12l13 395l-2 193h-199zM428 414l6 -244q161 -14 268 -14q188 0 288 124.5t100 376.5q0 253 -95 373.5t-288 120.5q-113 0 -269 -8l-6 -410h275l10 -16l-8 -129 h-279z" />
<glyph unicode="&#xd1;" horiz-adv-x="1409" d="M176 0l14 389l-10 926h226l618 -985h14l-4 975l199 14l-14 -926l6 -393h-226l-618 985h-14l-2 -545l8 -440h-197zM360 1556v19l134 158l22 8q44 -6 168 -40t150 -34q9 0 18 4t16.5 9t19.5 16.5t19.5 19.5t23 25t23.5 26h21l61 -65v-19l-133 -157l-20 -10 q-44 6 -167.5 40.5t-150.5 34.5q-11 0 -21.5 -4.5t-23 -16t-22 -21t-26.5 -28.5t-28 -30h-20z" />
<glyph unicode="&#xd2;" horiz-adv-x="1308" d="M70 645q0 330 157 508t447 178q271 0 418 -168t147 -479q0 -337 -157 -519.5t-447 -182.5q-271 0 -418 173t-147 490zM287 672q0 -269 88.5 -394.5t275.5 -125.5q186 0 277.5 120t91.5 373q0 266 -89.5 389t-277.5 123t-277 -117.5t-89 -367.5zM416 1663l55 125l21 4 q126 -74 405 -219l-35 -90l-22 -8q-289 112 -416 167z" />
<glyph unicode="&#xd3;" horiz-adv-x="1308" d="M70 645q0 330 157 508t447 178q271 0 418 -168t147 -479q0 -337 -157 -519.5t-447 -182.5q-271 0 -418 173t-147 490zM287 672q0 -269 88.5 -394.5t275.5 -125.5q186 0 277.5 120t91.5 373q0 266 -89.5 389t-277.5 123t-277 -117.5t-89 -367.5zM467 1571q279 145 405 219 l21 -4l55 -125l-8 -21q-127 -55 -416 -167l-22 8z" />
<glyph unicode="&#xd4;" horiz-adv-x="1308" d="M70 645q0 330 157 508t447 178q271 0 418 -168t147 -479q0 -337 -157 -519.5t-447 -182.5q-271 0 -418 173t-147 490zM287 672q0 -269 88.5 -394.5t275.5 -125.5q186 0 277.5 120t91.5 373q0 266 -89.5 389t-277.5 123t-277 -117.5t-89 -367.5zM377 1585q132 88 254 197 h49q113 -102 254 -197l-39 -88h-23q-149 91 -217 135q-67 -45 -215 -135h-22z" />
<glyph unicode="&#xd5;" horiz-adv-x="1308" d="M70 645q0 330 157 508t447 178q271 0 418 -168t147 -479q0 -337 -157 -519.5t-447 -182.5q-271 0 -418 173t-147 490zM287 672q0 -269 88.5 -394.5t275.5 -125.5q186 0 277.5 120t91.5 373q0 266 -89.5 389t-277.5 123t-277 -117.5t-89 -367.5zM315 1556v19l134 158l22 8 q44 -6 167.5 -40t149.5 -34q7 0 14.5 2.5t16 8t15.5 11t17.5 16.5t17 18t20 21.5t20.5 22.5h21l61 -65v-19l-133 -157l-20 -10q-44 6 -167.5 40.5t-150.5 34.5q-11 0 -21.5 -4.5t-23 -16t-22 -21t-26.5 -28.5t-28 -30h-20z" />
<glyph unicode="&#xd7;" d="M143 272v19l248 248l-248 245v23l99 82l250 -248l249 248l99 -82v-23l-246 -245l246 -246v-21l-99 -84l-249 248l-250 -250z" />
<glyph unicode="&#xd8;" horiz-adv-x="1308" d="M70 645q0 330 157 508t447 178q102 0 198 -26l89 188l118 -47l15 -23l-86 -184q231 -160 231 -555q0 -337 -157 -519.5t-447 -182.5q-115 0 -207 30l-111 -235l-120 49l-11 18l111 236q-227 168 -227 565zM287 672q0 -281 98 -406l408 871q-59 20 -140 20 q-188 0 -277 -117.5t-89 -367.5zM506 176q62 -24 145 -24q186 0 277.5 120t91.5 373q0 287 -102 406z" />
<glyph unicode="&#xd9;" horiz-adv-x="1292" d="M141 475l2 182l-2 658h209l-8 -811q-3 -340 301 -340q310 0 307 319l-10 832h213l-6 -668l-2 -155q3 -242 -131.5 -375t-384.5 -133q-238 0 -365 127.5t-123 363.5zM412 1663l55 125l20 4q119 -70 406 -219l-35 -90l-22 -8q-289 112 -416 167z" />
<glyph unicode="&#xda;" horiz-adv-x="1292" d="M141 475l2 182l-2 658h209l-8 -811q-3 -340 301 -340q310 0 307 319l-10 832h213l-6 -668l-2 -155q3 -242 -131.5 -375t-384.5 -133q-238 0 -365 127.5t-123 363.5zM463 1571q279 145 405 219l21 -4l55 -125l-8 -21q-127 -55 -416 -167l-22 8z" />
<glyph unicode="&#xdb;" horiz-adv-x="1292" d="M141 475l2 182l-2 658h209l-8 -811q-3 -340 301 -340q310 0 307 319l-10 832h213l-6 -668l-2 -155q3 -242 -131.5 -375t-384.5 -133q-238 0 -365 127.5t-123 363.5zM373 1585q132 88 254 197h49q113 -102 254 -197l-39 -88h-23q-149 91 -217 135q-67 -45 -215 -135h-22z " />
<glyph unicode="&#xdc;" horiz-adv-x="1292" d="M141 475l2 182l-2 658h209l-8 -811q-3 -340 301 -340q310 0 307 319l-10 832h213l-6 -668l-2 -155q3 -242 -131.5 -375t-384.5 -133q-238 0 -365 127.5t-123 363.5zM377 1622q0 51 29.5 81t80.5 30q49 0 76 -27.5t27 -77.5q0 -52 -29 -82t-80 -30t-77.5 27.5t-26.5 78.5z M713 1622q0 51 29.5 81t80.5 30q49 0 76 -27.5t27 -77.5q0 -52 -29 -82t-80 -30t-77.5 27.5t-26.5 78.5z" />
<glyph unicode="&#xde;" horiz-adv-x="1105" d="M178 0l10 395l-8 701l-2 219h215l-2 -219l238 2q201 0 308 -101t107 -295q0 -225 -132.5 -348t-379.5 -123l-145 -4l4 -227h-213zM383 399l207 -6q233 48 233 295q0 121 -63 180.5t-191 65.5l-180 -6l-6 -514v-15z" />
<glyph unicode="&#xdf;" horiz-adv-x="1191" d="M63 819l13 121h135v80q0 200 117.5 311t318.5 111q168 0 258 -75.5t90 -199.5q0 -60 -22.5 -110t-54.5 -84t-64.5 -65.5t-55 -69t-22.5 -78.5t22.5 -75.5t58 -60t78.5 -50t86 -52t78.5 -59.5t58 -79.5t22.5 -104.5q0 -124 -94.5 -210.5t-260.5 -86.5q-140 0 -278 63 l24 174l21 14q59 -53 125.5 -81.5t126.5 -28.5q69 0 109 34t40 87q0 35 -22 65.5t-57.5 55t-78.5 49t-85.5 54t-78 64t-57.5 84.5t-22 109q0 60 23.5 108t57 80t67.5 62.5t57.5 72t23.5 91.5q0 74 -49 113.5t-135 39.5q-107 0 -167.5 -62.5t-61.5 -185.5l-9 -632l13 -412 h-207l12 389l-4 418h-141z" />
<glyph unicode="&#xe0;" horiz-adv-x="962" d="M76 252q0 182 198 227l324 72l2 111q0 76 -38 114.5t-109 38.5q-131 0 -293 -131l-17 10l-26 146q180 123 368 123q141 0 223.5 -68t82.5 -188q0 -36 -12.5 -243.5t-12.5 -242.5q0 -40 12.5 -54.5t44.5 -14.5q23 0 64 8l18 -15l-20 -114q-58 -36 -129 -45 q-63 6 -103 45.5t-47 105.5h-14q-108 -111 -213 -153q-142 1 -222.5 73t-80.5 195zM240 1337l77 111l21 2q140 -133 350 -303l-53 -82l-21 -2q-199 130 -370 254zM262 279q0 -62 33.5 -97t91.5 -35q96 0 205 125l6 158l-266 -63q-36 -8 -53 -28t-17 -60z" />
<glyph unicode="&#xe1;" horiz-adv-x="962" d="M76 252q0 182 198 227l324 72l2 111q0 76 -38 114.5t-109 38.5q-131 0 -293 -131l-17 10l-26 146q180 123 368 123q141 0 223.5 -68t82.5 -188q0 -36 -12.5 -243.5t-12.5 -242.5q0 -40 12.5 -54.5t44.5 -14.5q23 0 64 8l18 -15l-20 -114q-58 -36 -129 -45 q-63 6 -103 45.5t-47 105.5h-14q-108 -111 -213 -153q-142 1 -222.5 73t-80.5 195zM262 279q0 -62 33.5 -97t91.5 -35q96 0 205 125l6 158l-266 -63q-36 -8 -53 -28t-17 -60zM295 1147q210 170 350 303l21 -2l77 -111l-4 -20q-171 -124 -370 -254l-21 2z" />
<glyph unicode="&#xe2;" horiz-adv-x="962" d="M76 252q0 182 198 227l324 72l2 111q0 76 -38 114.5t-109 38.5q-131 0 -293 -131l-17 10l-26 146q180 123 368 123q141 0 223.5 -68t82.5 -188q0 -36 -12.5 -243.5t-12.5 -242.5q0 -40 12.5 -54.5t44.5 -14.5q23 0 64 8l18 -15l-20 -114q-58 -36 -129 -45 q-63 6 -103 45.5t-47 105.5h-14q-108 -111 -213 -153q-142 1 -222.5 73t-80.5 195zM174 1155q111 105 266 281h54q153 -175 264 -281l-56 -82h-20q-146 129 -215 205q-64 -69 -215 -205h-23zM262 279q0 -62 33.5 -97t91.5 -35q96 0 205 125l6 158l-266 -63q-36 -8 -53 -28 t-17 -60z" />
<glyph unicode="&#xe3;" horiz-adv-x="962" d="M76 252q0 182 198 227l324 72l2 111q0 76 -38 114.5t-109 38.5q-131 0 -293 -131l-17 10l-26 146q180 123 368 123q141 0 223.5 -68t82.5 -188q0 -36 -12.5 -243.5t-12.5 -242.5q0 -40 12.5 -54.5t44.5 -14.5q23 0 64 8l18 -15l-20 -114q-58 -36 -129 -45 q-63 6 -103 45.5t-47 105.5h-14q-108 -111 -213 -153q-142 1 -222.5 73t-80.5 195zM125 1186v18l133 158l23 8q44 -6 167.5 -40t149.5 -34q7 0 14.5 2.5t16 8t15.5 11.5t17.5 16.5t17.5 18t19.5 21.5t20.5 23h20l62 -66v-18l-133 -158l-21 -10q-44 6 -167 41t-150 35 q-11 0 -21.5 -5t-23 -16t-22 -21t-26.5 -28.5t-28 -30.5h-21zM262 279q0 -62 33.5 -97t91.5 -35q96 0 205 125l6 158l-266 -63q-36 -8 -53 -28t-17 -60z" />
<glyph unicode="&#xe4;" horiz-adv-x="962" d="M76 252q0 182 198 227l324 72l2 111q0 76 -38 114.5t-109 38.5q-131 0 -293 -131l-17 10l-26 146q180 123 368 123q141 0 223.5 -68t82.5 -188q0 -36 -12.5 -243.5t-12.5 -242.5q0 -40 12.5 -54.5t44.5 -14.5q23 0 64 8l18 -15l-20 -114q-58 -36 -129 -45 q-63 6 -103 45.5t-47 105.5h-14q-108 -111 -213 -153q-142 1 -222.5 73t-80.5 195zM190 1251q0 51 30 81t81 30q49 0 75.5 -27.5t26.5 -77.5q0 -53 -28.5 -82.5t-79.5 -29.5t-78 27.5t-27 78.5zM262 279q0 -62 33.5 -97t91.5 -35q96 0 205 125l6 158l-266 -63 q-36 -8 -53 -28t-17 -60zM526 1251q0 51 30 81t81 30q49 0 75.5 -27.5t26.5 -77.5q0 -53 -28.5 -82.5t-79.5 -29.5t-78 27.5t-27 78.5z" />
<glyph unicode="&#xe5;" horiz-adv-x="962" d="M76 252q0 182 198 227l324 72l2 111q0 76 -38 114.5t-109 38.5q-131 0 -293 -131l-17 10l-26 146q180 123 368 123q141 0 223.5 -68t82.5 -188q0 -36 -12.5 -243.5t-12.5 -242.5q0 -40 12.5 -54.5t44.5 -14.5q23 0 64 8l18 -15l-20 -114q-58 -36 -129 -45 q-63 6 -103 45.5t-47 105.5h-14q-108 -111 -213 -153q-142 1 -222.5 73t-80.5 195zM262 279q0 -62 33.5 -97t91.5 -35q96 0 205 125l6 158l-266 -63q-36 -8 -53 -28t-17 -60zM281 1270q0 85 48.5 132.5t135.5 47.5t133.5 -47.5t46.5 -126.5q0 -87 -51 -135.5t-135 -48.5 q-81 0 -129.5 46.5t-48.5 131.5zM375 1274q0 -90 88 -90q41 0 64.5 21.5t23.5 64.5q0 40 -23 63t-67 23q-42 0 -64 -21.5t-22 -60.5z" />
<glyph unicode="&#xe6;" horiz-adv-x="1402" d="M72 252q0 96 50.5 158t147.5 75l318 45v132q0 153 -146 153q-119 0 -286 -131l-17 10l-28 146q177 123 356 123q182 0 250 -129q112 127 291 127q160 0 252 -106t83 -302l-20 -29l-565 -82q15 -305 260 -305q133 0 264 88l21 -12l-29 -162q-128 -69 -273 -69 q-116 0 -203.5 49t-138.5 143q-113 -132 -268 -190q-148 2 -233.5 72t-85.5 196zM258 272q0 -60 35 -91t94 -31q51 0 98 28.5t121 102.5q-14 88 -16 135l-240 -43q-50 -9 -71 -34t-21 -67zM756 557l401 66q-1 95 -48.5 145.5t-127.5 50.5q-95 0 -160 -75t-65 -181v-6z" />
<glyph unicode="&#xe7;" horiz-adv-x="788" d="M76 463q0 232 115 366t317 134q141 0 252 -54l-35 -174l-20 -8q-106 64 -201 64q-109 0 -170.5 -81.5t-61.5 -230.5q0 -157 63.5 -244.5t180.5 -87.5q102 0 219 62l21 -12l-23 -168q-109 -41 -217 -47l-24 -84l69 -41q82 -44 82 -117q0 -63 -49.5 -103t-128.5 -40 q-90 0 -158 61l19 96l10 4q60 -63 117 -63q27 0 43 13.5t16 37.5q0 28 -39 45l-100 59l35 138q-158 25 -245 149.5t-87 325.5z" />
<glyph unicode="&#xe8;" horiz-adv-x="942" d="M76 467q0 229 123 361.5t331 132.5q162 0 252 -96.5t90 -266.5q0 -69 -8 -102l-35 -33h-561q3 -155 70.5 -237.5t200.5 -82.5q135 0 276 86l21 -12l-27 -166q-141 -69 -287 -69q-211 0 -328.5 129.5t-117.5 355.5zM279 590l403 10l4 25q0 97 -45 144.5t-125 47.5 q-94 0 -155.5 -59t-81.5 -168zM283 1337l77 111l21 2q140 -133 350 -303l-53 -82l-21 -2q-199 130 -370 254z" />
<glyph unicode="&#xe9;" horiz-adv-x="942" d="M76 467q0 229 123 361.5t331 132.5q162 0 252 -96.5t90 -266.5q0 -69 -8 -102l-35 -33h-561q3 -155 70.5 -237.5t200.5 -82.5q135 0 276 86l21 -12l-27 -166q-141 -69 -287 -69q-211 0 -328.5 129.5t-117.5 355.5zM279 590l403 10l4 25q0 97 -45 144.5t-125 47.5 q-94 0 -155.5 -59t-81.5 -168zM338 1147q210 170 350 303l21 -2l77 -111l-4 -20q-171 -124 -370 -254l-21 2z" />
<glyph unicode="&#xea;" horiz-adv-x="942" d="M76 467q0 229 123 361.5t331 132.5q162 0 252 -96.5t90 -266.5q0 -69 -8 -102l-35 -33h-561q3 -155 70.5 -237.5t200.5 -82.5q135 0 276 86l21 -12l-27 -166q-141 -69 -287 -69q-211 0 -328.5 129.5t-117.5 355.5zM217 1155q111 105 266 281h54q153 -175 264 -281 l-56 -82h-20q-146 129 -215 205q-64 -69 -215 -205h-23zM279 590l403 10l4 25q0 97 -45 144.5t-125 47.5q-94 0 -155.5 -59t-81.5 -168z" />
<glyph unicode="&#xeb;" horiz-adv-x="942" d="M76 467q0 229 123 361.5t331 132.5q162 0 252 -96.5t90 -266.5q0 -69 -8 -102l-35 -33h-561q3 -155 70.5 -237.5t200.5 -82.5q135 0 276 86l21 -12l-27 -166q-141 -69 -287 -69q-211 0 -328.5 129.5t-117.5 355.5zM233 1251q0 51 30 81t81 30q49 0 75.5 -27.5t26.5 -77.5 q0 -53 -28.5 -82.5t-79.5 -29.5t-78 27.5t-27 78.5zM279 590l403 10l4 25q0 97 -45 144.5t-125 47.5q-94 0 -155.5 -59t-81.5 -168zM569 1251q0 51 30 81t81 30q49 0 75.5 -27.5t26.5 -77.5q0 -53 -28.5 -82.5t-79.5 -29.5t-78 27.5t-27 78.5z" />
<glyph unicode="&#xec;" horiz-adv-x="501" d="M29 1337l77 111l21 2q140 -133 350 -303l-53 -82l-21 -2q-199 130 -370 254zM145 0l13 395l-11 535l209 18l-16 -534l14 -414h-209z" />
<glyph unicode="&#xed;" horiz-adv-x="501" d="M84 1147q210 170 350 303l21 -2l77 -111l-4 -20q-171 -124 -370 -254l-21 2zM145 0l13 395l-11 535l209 18l-16 -534l14 -414h-209z" />
<glyph unicode="&#xee;" horiz-adv-x="501" d="M-37 1155q111 105 266 281h54q153 -175 264 -281l-55 -82h-21q-146 129 -215 205q-64 -69 -215 -205h-23zM145 0l13 395l-11 535l209 18l-16 -534l14 -414h-209z" />
<glyph unicode="&#xf0;" horiz-adv-x="1007" d="M80 459q0 228 110.5 354.5t313.5 126.5q74 0 139 -18q-66 114 -176 208l-244 -131l-20 9l-43 90l202 108q-114 70 -235 121v27l125 94h12q145 -66 260 -156l234 125l18 -6l43 -92l-198 -107q303 -289 303 -706q0 -251 -111.5 -387.5t-318.5 -136.5q-194 0 -304 124.5 t-110 352.5zM262 459q0 -170 63.5 -254t182.5 -84q120 0 176.5 88.5t56.5 279.5q0 120 -22 230q-89 80 -205 80q-252 0 -252 -340z" />
<glyph unicode="&#xf1;" horiz-adv-x="1064" d="M145 0l13 395l-11 535l199 18l-2 -137h14q119 104 252 145q157 0 238.5 -71.5t79.5 -204.5l-6 -266l10 -414h-211l14 621q2 78 -35.5 121.5t-109.5 43.5q-121 0 -246 -122l-2 -250l12 -414h-209zM225 1186v18l133 158l23 8q44 -6 167.5 -40t149.5 -34q7 0 14.5 2.5t16 8 t15.5 11.5t17.5 16.5t17.5 18t19.5 21.5t20.5 23h21l61 -66v-18l-133 -158l-20 -10q-44 6 -167.5 41t-150.5 35q-11 0 -21.5 -5t-23 -16t-22 -21t-26.5 -28.5t-28 -30.5h-20z" />
<glyph unicode="&#xf2;" horiz-adv-x="1007" d="M76 457q0 243 114 374.5t326 131.5q198 0 306 -124.5t108 -351.5q0 -243 -114.5 -374t-326.5 -131q-198 0 -305.5 124t-107.5 351zM270 502q0 -193 57.5 -285t174.5 -92q116 0 173.5 77.5t57.5 237.5q0 192 -57.5 284.5t-173.5 92.5q-232 0 -232 -315zM281 1337l77 111 l21 2q140 -133 350 -303l-53 -82l-21 -2q-199 130 -370 254z" />
<glyph unicode="&#xf3;" horiz-adv-x="1007" d="M76 457q0 243 114 374.5t326 131.5q198 0 306 -124.5t108 -351.5q0 -243 -114.5 -374t-326.5 -131q-198 0 -305.5 124t-107.5 351zM270 502q0 -193 57.5 -285t174.5 -92q116 0 173.5 77.5t57.5 237.5q0 192 -57.5 284.5t-173.5 92.5q-232 0 -232 -315zM336 1147 q210 170 350 303l21 -2l77 -111l-4 -20q-171 -124 -370 -254l-21 2z" />
<glyph unicode="&#xf4;" horiz-adv-x="1007" d="M76 457q0 243 114 374.5t326 131.5q198 0 306 -124.5t108 -351.5q0 -243 -114.5 -374t-326.5 -131q-198 0 -305.5 124t-107.5 351zM215 1155q111 105 266 281h54q153 -175 264 -281l-56 -82h-20q-146 129 -215 205q-64 -69 -215 -205h-23zM270 502q0 -193 57.5 -285 t174.5 -92q116 0 173.5 77.5t57.5 237.5q0 192 -57.5 284.5t-173.5 92.5q-232 0 -232 -315z" />
<glyph unicode="&#xf5;" horiz-adv-x="1007" d="M76 457q0 243 114 374.5t326 131.5q198 0 306 -124.5t108 -351.5q0 -243 -114.5 -374t-326.5 -131q-198 0 -305.5 124t-107.5 351zM166 1186v18l133 158l23 8q44 -6 167.5 -40t149.5 -34q7 0 14.5 2.5t16 8t15.5 11.5t17.5 16.5t17.5 18t19.5 21.5t20.5 23h20l62 -66v-18 l-133 -158l-21 -10q-44 6 -167 41t-150 35q-11 0 -21.5 -5t-23 -16t-22 -21t-26.5 -28.5t-28 -30.5h-21zM270 502q0 -193 57.5 -285t174.5 -92q116 0 173.5 77.5t57.5 237.5q0 192 -57.5 284.5t-173.5 92.5q-232 0 -232 -315z" />
<glyph unicode="&#xf7;" d="M74 481l12 129h842l16 -14l-12 -129h-844zM422 186q0 50 29 80.5t79 30.5q47 0 74 -27.5t27 -74.5q0 -51 -29 -81t-78 -30q-50 0 -76 26t-26 76zM422 895q0 50 28.5 79.5t79.5 29.5q47 0 74 -28t27 -75q0 -51 -28.5 -80.5t-78.5 -29.5q-49 0 -75.5 27t-26.5 77z" />
<glyph unicode="&#xf8;" horiz-adv-x="1007" d="M76 457q0 243 114 374.5t326 131.5q86 0 156 -25l108 207l103 -51l10 -23l-105 -199q142 -123 142 -385q0 -243 -114.5 -374t-326.5 -131q-80 0 -151 22l-129 -248l-111 54l-6 20l127 242q-143 122 -143 385zM270 502q0 -161 41 -254l287 549q-41 20 -96 20 q-232 0 -232 -315zM410 143q40 -18 92 -18q116 0 173.5 77.5t57.5 237.5q0 163 -39 248z" />
<glyph unicode="&#xf9;" horiz-adv-x="1054" d="M135 930l207 18l-10 -626q-2 -76 34 -119t107 -43q113 0 223 104v666l199 18l-14 -729q0 -38 12 -52.5t43 -14.5q24 0 63 8l19 -15l-21 -114q-59 -36 -129 -45q-125 12 -151 145h-17q-119 -108 -245 -143q-155 0 -236.5 71.5t-79.5 204.5l4 256zM301 1337l78 111l20 2 q134 -127 351 -303l-54 -82l-20 -2q-209 136 -371 254z" />
<glyph unicode="&#xfa;" horiz-adv-x="1054" d="M135 930l207 18l-10 -626q-2 -76 34 -119t107 -43q113 0 223 104v666l199 18l-14 -729q0 -38 12 -52.5t43 -14.5q24 0 63 8l19 -15l-21 -114q-59 -36 -129 -45q-125 12 -151 145h-17q-119 -108 -245 -143q-155 0 -236.5 71.5t-79.5 204.5l4 256zM356 1147 q217 176 351 303l20 -2l78 -111l-4 -20q-162 -118 -371 -254l-20 2z" />
<glyph unicode="&#xfb;" horiz-adv-x="1054" d="M135 930l207 18l-10 -626q-2 -76 34 -119t107 -43q113 0 223 104v666l199 18l-14 -729q0 -38 12 -52.5t43 -14.5q24 0 63 8l19 -15l-21 -114q-59 -36 -129 -45q-125 12 -151 145h-17q-119 -108 -245 -143q-155 0 -236.5 71.5t-79.5 204.5l4 256zM236 1155 q111 105 266 281h53q153 -175 264 -281l-55 -82h-21q-146 129 -215 205q-64 -69 -215 -205h-22z" />
<glyph unicode="&#xfc;" horiz-adv-x="1054" d="M135 930l207 18l-10 -626q-2 -76 34 -119t107 -43q113 0 223 104v666l199 18l-14 -729q0 -38 12 -52.5t43 -14.5q24 0 63 8l19 -15l-21 -114q-59 -36 -129 -45q-125 12 -151 145h-17q-119 -108 -245 -143q-155 0 -236.5 71.5t-79.5 204.5l4 256zM252 1251q0 51 29.5 81 t80.5 30q49 0 76 -27.5t27 -77.5q0 -52 -29 -82t-80 -30t-77.5 27.5t-26.5 78.5zM588 1251q0 51 29.5 81t80.5 30q49 0 76 -27.5t27 -77.5q0 -52 -29 -82t-80 -30t-77.5 27.5t-26.5 78.5z" />
<glyph unicode="&#xfe;" horiz-adv-x="1056" d="M156 -379l12 774l-12 1026l209 17l-9 -625h13q113 98 245 141q179 0 273 -118.5t94 -333.5q0 -249 -121 -384.5t-336 -135.5q-86 0 -168 30l4 -391h-204zM350 416l2 -234q92 -57 180 -57q120 0 187.5 87t66.5 263q-3 149 -55 230t-149 81q-109 0 -228 -122z" />
<glyph unicode="&#xff;" horiz-adv-x="890" d="M-45 -262l8 22q143 28 235.5 83.5t159.5 156.5l-348 940l203 10l31 -133l200 -596h15l200 576l33 147h187l-324 -895q-66 -185 -177.5 -286t-307.5 -154h-19q-55 53 -96 129zM180 1251q0 51 30 81t81 30q49 0 75.5 -27.5t26.5 -77.5q0 -53 -28.5 -82.5t-79.5 -29.5 t-78 27.5t-27 78.5zM516 1251q0 51 30 81t81 30q49 0 75.5 -27.5t26.5 -77.5q0 -53 -28.5 -82.5t-79.5 -29.5t-78 27.5t-27 78.5z" />
<glyph unicode="&#x152;" horiz-adv-x="1757" d="M70 647q0 329 171.5 510.5t483.5 181.5q68 0 184.5 -12t173.5 -12h619l14 -19l-16 -161l-299 8h-264l-4 -385l227 -4l229 6l13 -17l-17 -161l-239 6l-218 -4v-178l2 -234l246 -2l324 10l14 -18l-16 -162h-615q-62 1 -195.5 -12t-199.5 -13q-294 0 -456 176.5t-162 495.5z M287 659q0 -261 103 -387.5t319 -126.5q117 0 182 21q25 11 36 29t11 51l-8 811q-3 67 -29 82q-50 26 -194 26q-212 0 -316 -125t-104 -381z" />
<glyph unicode="&#x153;" horiz-adv-x="1581" d="M68 461q0 238 113.5 369t316.5 131q227 0 327 -175q115 175 344 175q162 0 252 -96.5t90 -266.5q0 -64 -6 -102l-37 -33h-569q3 -155 72.5 -237.5t206.5 -82.5q135 0 276 86l21 -12l-25 -166q-141 -69 -287 -69q-238 0 -346 178q-106 -178 -342 -178q-195 0 -301 124.5 t-106 354.5zM270 502q0 -193 58 -285t176 -92q116 0 173.5 77.5t57.5 237.5q0 192 -57.5 284.5t-173.5 92.5q-234 0 -234 -315zM909 588l414 12l4 25q0 96 -46 144t-124 48q-98 0 -162 -59.5t-86 -169.5z" />
<glyph unicode="&#x178;" horiz-adv-x="1107" d="M23 1315h225l26 -82l263 -551h16l287 547l32 86h224l-459 -854l-2 -84l8 -377h-213l14 377l-2 82zM270 1622q0 51 30 81t81 30q49 0 75.5 -27.5t26.5 -77.5q0 -53 -28.5 -82.5t-79.5 -29.5t-78 27.5t-27 78.5zM606 1622q0 51 30 81t81 30q49 0 75.5 -27.5t26.5 -77.5 q0 -53 -28.5 -82.5t-79.5 -29.5t-78 27.5t-27 78.5z" />
<glyph unicode="&#x2c6;" horiz-adv-x="796" d="M106 1155q115 109 267 281h51q158 -180 266 -281l-55 -82h-21q-145 128 -215 203q-64 -67 -215 -203h-22z" />
<glyph unicode="&#x2dc;" horiz-adv-x="796" d="M59 1186v18l134 158l22 8q44 -6 167.5 -40t149.5 -34q7 0 14.5 2.5t16 8t15.5 11.5t17.5 16.5t17.5 18t19.5 21.5t20.5 23h21l61 -66v-18l-133 -158l-20 -10q-44 6 -167.5 41t-150.5 35q-11 0 -21.5 -5t-23 -16t-22 -21t-26.5 -28.5t-28 -30.5h-20z" />
<glyph unicode="&#x2000;" horiz-adv-x="910" />
<glyph unicode="&#x2001;" horiz-adv-x="1821" />
<glyph unicode="&#x2002;" horiz-adv-x="910" />
<glyph unicode="&#x2003;" horiz-adv-x="1821" />
<glyph unicode="&#x2004;" horiz-adv-x="607" />
<glyph unicode="&#x2005;" horiz-adv-x="455" />
<glyph unicode="&#x2006;" horiz-adv-x="303" />
<glyph unicode="&#x2007;" horiz-adv-x="303" />
<glyph unicode="&#x2008;" horiz-adv-x="227" />
<glyph unicode="&#x2009;" horiz-adv-x="364" />
<glyph unicode="&#x200a;" horiz-adv-x="101" />
<glyph unicode="&#x2010;" horiz-adv-x="626" d="M57 428v131l492 72l18 -17v-131l-491 -73z" />
<glyph unicode="&#x2011;" horiz-adv-x="626" d="M57 428v131l492 72l18 -17v-131l-491 -73z" />
<glyph unicode="&#x2012;" horiz-adv-x="626" d="M57 428v131l492 72l18 -17v-131l-491 -73z" />
<glyph unicode="&#x2013;" horiz-adv-x="968" d="M-31 469l13 129h1003l14 -16l-10 -129h-1005z" />
<glyph unicode="&#x2014;" horiz-adv-x="1867" d="M-33 469l10 129h1911l17 -16l-13 -129h-1912z" />
<glyph unicode="&#x2018;" horiz-adv-x="374" d="M68 1024q0 140 165 299l76 -51l4 -17q-86 -89 -86 -172q0 -86 80 -127v-18q-46 -41 -127 -84q-112 50 -112 170z" />
<glyph unicode="&#x2019;" horiz-adv-x="374" d="M70 920q84 90 84 172q0 86 -80 127v18q55 49 127 84q112 -50 112 -168q0 -141 -166 -301l-75 51z" />
<glyph unicode="&#x201a;" horiz-adv-x="468" d="M68 -166q112 92 112 189q0 60 -63 108v19q75 48 149 67q88 -63 88 -154q0 -151 -217 -307l-69 62v16z" />
<glyph unicode="&#x201c;" horiz-adv-x="657" d="M57 1022q0 141 166 301l76 -51l2 -17q-84 -90 -84 -172q0 -86 80 -127v-18q-55 -49 -127 -84q-113 51 -113 168zM356 1022q0 141 166 301l76 -51l2 -17q-84 -90 -84 -172q0 -86 80 -127v-18q-55 -49 -127 -84q-113 51 -113 168z" />
<glyph unicode="&#x201d;" horiz-adv-x="663" d="M63 920q87 90 87 172q0 87 -82 127v18q63 53 127 84q112 -50 112 -168q0 -141 -166 -301l-75 51zM354 920q84 90 84 172q0 86 -80 127v18q55 49 127 84q113 -51 113 -168q0 -141 -166 -301l-76 51z" />
<glyph unicode="&#x201e;" horiz-adv-x="765" d="M68 -166q112 92 112 189q0 60 -63 108v19q75 48 149 67q88 -63 88 -154q0 -151 -217 -307l-69 62v16zM365 -166q112 92 112 189q0 60 -63 108v19q74 48 147 67q88 -63 88 -154q0 -153 -215 -307l-69 62v16z" />
<glyph unicode="&#x2022;" horiz-adv-x="540" d="M135 489q0 63 37.5 101.5t101.5 38.5q60 0 93.5 -34.5t33.5 -94.5q0 -66 -37 -105t-100 -39q-61 0 -95 35t-34 98z" />
<glyph unicode="&#x2026;" horiz-adv-x="1232" d="M111 102q0 54 31.5 86.5t86.5 32.5q52 0 80.5 -29.5t28.5 -82.5q0 -56 -31.5 -88.5t-85.5 -32.5q-52 0 -81 30t-29 84zM494 102q0 54 31.5 86.5t86.5 32.5q51 0 80 -30t29 -82q0 -56 -31.5 -88.5t-85.5 -32.5t-82 30t-28 84zM874 102q0 54 32 86.5t87 32.5q51 0 80 -30 t29 -82q0 -56 -31.5 -88.5t-85.5 -32.5t-82.5 30t-28.5 84z" />
<glyph unicode="&#x202f;" horiz-adv-x="364" />
<glyph unicode="&#x2039;" horiz-adv-x="481" d="M45 442v37l289 361l100 -56l2 -22l-235 -297l235 -299l-2 -23l-100 -53z" />
<glyph unicode="&#x203a;" horiz-adv-x="491" d="M53 170l238 297l-238 297l4 22l99 56l288 -353v-38l-288 -359l-99 55z" />
<glyph unicode="&#x205f;" horiz-adv-x="455" />
<glyph unicode="&#x20ac;" horiz-adv-x="978" d="M27 340l8 100h135q-2 18 -2 56q0 43 2 63h-135l-8 12l8 101h149q40 176 159 269t310 93q144 0 271 -67l-33 -142l-14 -4q-107 70 -234 70q-222 0 -276 -219h348l12 -10l-10 -103h-367v-47q0 -49 2 -72h363l12 -12l-10 -100h-344q63 -197 266 -197q61 0 130 20t122 54 l18 -12l-14 -136q-123 -69 -264 -69q-186 0 -299 86.5t-148 253.5h-149z" />
<glyph unicode="&#x2122;" horiz-adv-x="1198" d="M53 1233l6 80h373l8 -10l-8 -80l-96 4h-35l-4 -244l4 -154h-108l6 144l-4 254h-35l-101 -4zM516 829l53 484h129l23 -72l80 -219h6l88 217l25 74h124l48 -484h-99l-8 146l-18 174h-9l-116 -270h-86l-107 270h-6l-20 -162l-13 -158h-94z" />
<glyph unicode="&#x25fc;" horiz-adv-x="952" d="M0 0v952h952v-952h-952z" />
</font>
</defs>
</svg>
