<?xml version="1.0" encoding="UTF-8" standalone="no"?>
<!-- Generator: Adobe Illustrator 15.1.0, SVG Export Plug-In  -->

<svg
   xmlns:dc="http://purl.org/dc/elements/1.1/"
   xmlns:cc="http://creativecommons.org/ns#"
   xmlns:rdf="http://www.w3.org/1999/02/22-rdf-syntax-ns#"
   xmlns:svg="http://www.w3.org/2000/svg"
   xmlns="http://www.w3.org/2000/svg"
   xmlns:sodipodi="http://sodipodi.sourceforge.net/DTD/sodipodi-0.dtd"
   xmlns:inkscape="http://www.inkscape.org/namespaces/inkscape"
   version="1.1"
   x="0px"
   y="0px"
   width="16px"
   height="16px"
   viewBox="-2 -1.6 16 16"
   style="overflow:visible;enable-background:new -2 -1.6 16 16;"
   xml:space="preserve"
   preserveAspectRatio="xMinYMid meet"
   id="svg2"
   inkscape:version="0.91 r13725"
   sodipodi:docname="icon.svg"
   inkscape:export-filename="/home/crazy/git/departament/agora/html/moodle2/lib/editor/atto/plugins/fontfamily/pix/icon.png"
   inkscape:export-xdpi="90"
   inkscape:export-ydpi="90"><metadata
     id="metadata10"><rdf:RDF><cc:Work
         rdf:about=""><dc:format>image/svg+xml</dc:format><dc:type
           rdf:resource="http://purl.org/dc/dcmitype/StillImage" /></cc:Work></rdf:RDF></metadata><sodipodi:namedview
     pagecolor="#ffffff"
     bordercolor="#666666"
     borderopacity="1"
     objecttolerance="10"
     gridtolerance="10"
     guidetolerance="10"
     inkscape:pageopacity="0"
     inkscape:pageshadow="2"
     inkscape:window-width="1248"
     inkscape:window-height="801"
     id="namedview8"
     showgrid="false"
     inkscape:zoom="14.75"
     inkscape:cx="7.0508475"
     inkscape:cy="8.6779661"
     inkscape:window-x="227"
     inkscape:window-y="131"
     inkscape:window-maximized="0"
     inkscape:current-layer="svg2" /><defs
     id="defs4" /><g
     id="g4186"
     transform="translate(0.01970792,0.744553)"><g
       transform="matrix(1.1907296,0,0,1.1907296,-1.0776139,-1.8827081)"
       style="font-style:normal;font-weight:normal;font-size:11.97679138px;line-height:125%;font-family:Sans;letter-spacing:0px;word-spacing:0px;fill:#999999;fill-opacity:1;stroke:none;stroke-width:1px;stroke-linecap:butt;stroke-linejoin:miter;stroke-opacity:1"
       id="flowRoot3338"><path
         d="m 10.208887,3.989989 q -0.2690101,0 -0.4912357,-0.3742748 -0.2339217,-0.3742747 -0.409363,-0.4678434 -0.1169608,-0.05848 -0.2690099,-0.05848 -0.6900691,0 -0.6900691,1.0643438 l 0,1.3918341 1.4737068,0 0,0.3859708 -1.4620107,0 0,3.7661395 q 0,0.7017654 0.2222256,0.8655104 0.1871374,0.175441 0.9005986,0.198833 l 0,0.175442 -3.1228548,0 0,-0.175442 q 0.7017652,-0.03509 0.8655103,-0.280706 0.128657,-0.187137 0.128657,-0.7836374 l 0,-3.7661395 -0.9707751,0 0,-0.3859708 0.9707751,0 Q 7.4018264,3.2531356 8.7585723,2.8554687 9.0743666,2.7619 9.4720335,2.7619 q 0.8304225,0 1.1462165,0.4210591 0.09357,0.1520491 0.09357,0.3157943 0,0.3391864 -0.304099,0.4561473 -0.105264,0.035088 -0.198833,0.035088 z"
         style="font-style:normal;font-variant:normal;font-weight:normal;font-stretch:normal;font-family:Rachana;-inkscape-font-specification:Rachana;fill:#999999;fill-opacity:1"
         id="path4197" /></g><g
       transform="matrix(1.531494,0,0,1.5049046,8.0200554,4.6087573)"
       style="font-style:normal;font-weight:normal;font-size:10px;line-height:125%;font-family:Sans;letter-spacing:0px;word-spacing:0px;overflow:visible;fill:#999999;fill-opacity:1;stroke:none;stroke-width:1px;stroke-linecap:butt;stroke-linejoin:miter;stroke-opacity:1"
       id="flowRoot3338-1"><path
         d="m -5.0517578,-2.9495006 4.18945311,0 0,0.8300781 -3.20312501,0 0,2.14843755 2.890625,0 0,0.83007812 -2.890625,0 0,3.48144533 -0.9863281,0 0,-7.2900391 z"
         style="font-style:normal;font-variant:normal;font-weight:normal;font-stretch:normal;font-family:'DejaVu Sans';-inkscape-font-specification:'DejaVu Sans'"
         id="path4200" /></g></g></svg>