<?xml version="1.0" encoding="utf-8"?>
<!-- Generator: Adobe Illustrator 16.0.4, SVG Export Plug-In . SVG Version: 6.00 Build 0)  -->
<!DOCTYPE svg PUBLIC "-//W3C//DTD SVG 1.1//EN" "http://www.w3.org/Graphics/SVG/1.1/DTD/svg11.dtd">
<svg version="1.1" id="Layer_1" xmlns="http://www.w3.org/2000/svg" xmlns:xlink="http://www.w3.org/1999/xlink" x="0px" y="0px"
	 width="24px" height="24px" viewBox="0 0 30 30" enable-background="new 0 0 30 30" xml:space="preserve" preserveAspectRatio="xMinYMid meet">
		<linearGradient id="SVGID_1_" gradientUnits="userSpaceOnUse" x1="-58.9473" y1="84.1865" x2="58.9479" y2="-84.1852">
			<stop  offset="0" style="stop-color:#283274"/>
			<stop  offset="0.7088" style="stop-color:#293275"/>
			<stop  offset="0.967" style="stop-color:#273F87"/>
		</linearGradient>
<symbol  id="New_Symbol" viewBox="-107.423 -107.423 214.847 214.846">
	<g>
		<path fill="url(#SVGID_1_)" stroke="#5D6AA4" stroke-width="9.3191" d="M102.765,0c0-56.755-46.009-102.764-102.765-102.764
			c-56.754,0-102.764,46.009-102.764,102.764S-56.754,102.764,0,102.764C56.756,102.764,102.765,56.755,102.765,0z"/>
		
			<linearGradient id="SVGID_2_" gradientUnits="userSpaceOnUse" x1="-75.0186" y1="112.8037" x2="-15.8528" y2="28.3063" gradientTransform="matrix(1 0 0 1 18.4946 -31.9512)">
			<stop  offset="0" style="stop-color:#BEC7E5"/>
			<stop  offset="0.0956" style="stop-color:#B5BEDE"/>
			<stop  offset="0.2524" style="stop-color:#9CA5CC"/>
			<stop  offset="0.4508" style="stop-color:#747DAE"/>
			<stop  offset="0.6809" style="stop-color:#3D4684"/>
			<stop  offset="0.7582" style="stop-color:#293275"/>
		</linearGradient>
		<path fill="url(#SVGID_2_)" d="M0.282,98.502C26.323,98.31,54.293,87.893,74.49,63.84C73.631,43.207,36.703,22.057,5.886-1.229
			c-25.857-19.538-65.427-37.86-92.487-45.059c-25.73,49.263-7.016,96.619,25.25,123.238C-46.256,90.16-23.508,98.679,0.282,98.502z
			"/>
	</g>
	<g>
		<g>
			<path d="M55.602-25.561c0-8.678-3.055-16.072-9.16-22.179c-6.11-6.109-13.501-9.16-22.179-9.16h-37.367
				c-8.679,0-16.073,3.051-22.179,9.16c-6.11,6.106-9.162,13.501-9.162,22.179v93.779c6.656,0,12.336-3.254,17.046-9.764
				c4.708-6.509,7.062-14.344,7.062-23.505v-60.511c0-4.821,2.411-7.231,7.232-7.231h37.367c4.821,0,7.231,2.41,7.231,7.231V3.128
				c0,4.66-2.41,7.07-7.231,7.232H17.03c-9.323,0.324-17.2,2.757-23.626,7.304c-6.43,4.543-9.643,10.145-9.643,16.805h40.501
				c8.678,0,16.068-3.056,22.179-9.161c6.105-6.11,9.16-13.5,9.16-22.18V-25.561z"/>
		</g>
	</g>
	<g opacity="0.46">
		<g>
			<path fill="#FFFFFF" d="M55.602-25.561c0-8.678-3.055-16.072-9.16-22.179c-6.11-6.109-13.501-9.16-22.179-9.16h-37.367
				c-8.679,0-16.073,3.051-22.179,9.16c-6.11,6.106-9.162,13.501-9.162,22.179v93.779c6.656,0,12.336-3.254,17.046-9.764
				c4.708-6.509,7.062-14.344,7.062-23.505v-60.511c0-4.821,2.411-7.231,7.232-7.231h37.367c4.821,0,7.231,2.41,7.231,7.231V3.128
				c0,4.66-2.41,7.07-7.231,7.232H17.03c-9.323,0.324-17.2,2.757-23.626,7.304c-6.43,4.543-9.643,10.145-9.643,16.805h40.501
				c8.678,0,16.068-3.056,22.179-9.161c6.105-6.11,9.16-13.5,9.16-22.18V-25.561z"/>
		</g>
	</g>
	<g>
		<path fill="#FFFFFF" d="M53.829-26.788c0-8.678-3.055-16.072-9.16-22.179c-6.11-6.109-13.501-9.16-22.18-9.16h-37.367
			c-8.679,0-16.073,3.051-22.179,9.16c-6.109,6.106-9.16,13.501-9.16,22.179v93.779c6.655,0,12.336-3.255,17.045-9.764
			c4.708-6.509,7.062-14.345,7.062-23.505v-60.511c0-4.821,2.41-7.231,7.232-7.231h37.367c4.821,0,7.232,2.41,7.232,7.231V1.901
			c0,4.66-2.411,7.07-7.232,7.232h-7.232C5.935,9.457-1.942,11.89-8.368,16.438c-6.43,4.542-9.644,10.144-9.644,16.803h40.501
			c8.679,0,16.069-3.055,22.18-9.16c6.105-6.109,9.16-13.5,9.16-22.179V-26.788z"/>
	</g>
</symbol>
<use xlink:href="#New_Symbol"  width="214.847" height="214.846" x="-107.423" y="-107.423" transform="matrix(0.1376 0 0 -0.1376 14.9995 15)" overflow="visible"/>
</svg>
