<svg xmlns="http://www.w3.org/2000/svg" viewBox="-0.8 0 16 16" width="16" height="16" preserveAspectRatio="xMinYMid meet"><path fill="#999" d="M6.3 7.1V2.8c0-.1 0-.2-.1-.2 0-.1-.1-.1-.2-.1s-.2 0-.2.1c-.1 0-.1.1-.1.2v4.3c0 .1 0 .2.1.2s.1.1.2.1.2 0 .2-.1.1-.1.1-.2zm6.5 3.4c0 .2-.1.3-.2.4-.1.1-.3.2-.4.2H8l-.5 4.6c0 .1 0 .1-.1.2 0 .1-.1.1-.2.1-.2 0-.3-.1-.3-.3L6.2 11H2.3c-.2 0-.3-.1-.4-.2-.1-.1-.2-.3-.2-.4 0-.8.3-1.5.8-2.1.5-.6 1.1-.9 1.7-.9V2.5c-.3 0-.6-.1-.9-.4s-.4-.5-.4-.9.1-.6.4-.8.5-.4.8-.4h6.2c.3 0 .6.1.9.4s.4.5.4.9-.1.6-.4.9-.5.4-.9.4v4.9c.6 0 1.2.3 1.7.9.5.6.8 1.3.8 2.1z"/></svg>