<?xml version="1.0" encoding="utf-8"?>
<!-- Generator: Adobe Illustrator 15.1.0, SVG Export Plug-In  -->
<!DOCTYPE svg PUBLIC "-//W3C//DTD SVG 1.1//EN" "http://www.w3.org/Graphics/SVG/1.1/DTD/svg11.dtd" [
	<!ENTITY ns_flows "http://ns.adobe.com/Flows/1.0/">
]>
<svg version="1.1"
	 xmlns="http://www.w3.org/2000/svg" xmlns:xlink="http://www.w3.org/1999/xlink" xmlns:a="http://ns.adobe.com/AdobeSVGViewerExtensions/3.0/"
	 x="0px" y="0px" width="16px" height="16px" viewBox="0.3 -0.8 16 16"
	 style="overflow:visible;enable-background:new 0.3 -0.8 16 16;" xml:space="preserve">
<defs>
</defs>
<path style="fill:#999999;" d="M16.1,11.2L15,13.1l-1.2,2.2l-1.2-2.2l-1.1-1.8H16.1z M16.1,8.2L15,6.4l-1.2-2.2l-1.2,2.2l-1.1,1.8
	H16.1z M0,3.9h0.6c0.2-1.2,0.6-2,1-2.4C2.1,1.1,2.9,1,4.2,1h1.3v11.5c0,1-0.1,1.6-0.4,1.9s-0.8,0.4-1.8,0.5v0.4H10v-0.4
	c-0.9-0.1-1.5-0.2-1.8-0.4c-0.3-0.2-0.4-0.8-0.4-1.6V1h1.3c1.3,0,2.2,0.2,2.6,0.6c0.4,0.4,0.8,1.2,1,2.4h0.6L13.1,0h-13L0,3.9z"/>
</svg>
