<?xml version="1.0" encoding="utf-8"?>
<!-- Generator: Adobe Illustrator 21.1.0, SVG Export Plug-In . SVG Version: 6.00 Build 0)  -->
<svg version="1.1"
	 id="svg2" inkscape:version="0.91 r13725" sodipodi:docname="icon.svg" xmlns:cc="http://creativecommons.org/ns#" xmlns:dc="http://purl.org/dc/elements/1.1/" xmlns:inkscape="http://www.inkscape.org/namespaces/inkscape" xmlns:rdf="http://www.w3.org/1999/02/22-rdf-syntax-ns#" xmlns:sodipodi="http://sodipodi.sourceforge.net/DTD/sodipodi-0.dtd" xmlns:svg="http://www.w3.org/2000/svg"
	 xmlns="http://www.w3.org/2000/svg" xmlns:xlink="http://www.w3.org/1999/xlink" x="0px" y="0px" viewBox="0 0 48 48"
	 style="enable-background:new 0 0 48 48;" xml:space="preserve">
<style type="text/css">
	.st0{fill:none;}
	.st1{fill:#CC3399;}
</style>
<sodipodi:namedview  bordercolor="#666666" borderopacity="1" gridtolerance="10" guidetolerance="10" id="namedview8" inkscape:current-layer="svg2" inkscape:cx="-0.81355916" inkscape:cy="24" inkscape:pageopacity="0" inkscape:pageshadow="2" inkscape:window-height="480" inkscape:window-maximized="0" inkscape:window-width="742" inkscape:window-x="10" inkscape:window-y="34" inkscape:zoom="4.9166667" objecttolerance="10" pagecolor="#ffffff" showgrid="false">
	</sodipodi:namedview>
<path id="path4" class="st0" d="M0,0h48v48H0V0z"/>
<path id="path6" class="st1" d="M5.3,9.9H0.6v32.9c0,2.6,2.1,4.7,4.7,4.7h32.9v-4.7H5.3V9.9z M42.8,0.5H14.7c-2.6,0-4.7,2.1-4.7,4.7
	v28.2c0,2.6,2.1,4.7,4.7,4.7h28.2c2.6,0,4.7-2.1,4.7-4.7V5.2C47.5,2.6,45.4,0.5,42.8,0.5z M40.5,21.7H17V17h23.5V21.7z M31.1,31.1
	H17v-4.7h14.1V31.1z M40.5,12.3H17V7.6h23.5V12.3z"/>
</svg>
