<?xml version="1.0" encoding="utf-8"?>
<!-- Generator: Adobe Illustrator 15.1.0, SVG Export Plug-In  -->
<!DOCTYPE svg PUBLIC "-//W3C//DTD SVG 1.1//EN" "http://www.w3.org/Graphics/SVG/1.1/DTD/svg11.dtd" [
	<!ENTITY ns_flows "http://ns.adobe.com/Flows/1.0/">
]>
<svg version="1.1"
	 xmlns="http://www.w3.org/2000/svg" xmlns:xlink="http://www.w3.org/1999/xlink" xmlns:a="http://ns.adobe.com/AdobeSVGViewerExtensions/3.0/"
	 x="0px" y="0px" width="16px" height="16px" viewBox="-0.1 0 16 16" style="overflow:visible;enable-background:new -0.1 0 16 16;"
	 xml:space="preserve" preserveAspectRatio="xMinYMid meet">
<defs>
</defs>
<path style="fill:#999999;" d="M14.3,3.8c0.5,0.3,0.8,0.7,1,1.1c0.2,0.5,0.4,1,0.4,1.7c0,1.5-0.6,2.8-1.9,3.8
	c-1.3,0.9-3.1,1.4-5.4,1.4l-0.3,0c-0.6,0-1.1,0.4-1.2,1L6.4,15c-0.1,0.5-0.7,1-1.2,1H3.8c-0.5,0-0.9-0.4-0.8-1l0.2-1h0.3
	c0.5,0,1.1-0.4,1.2-1l0.5-2.3c0.1-0.5,0.7-1,1.2-1h0.3c2.3,0,4.1-0.5,5.4-1.4c1.3-1,1.9-2.2,1.9-3.8c0-0.3,0-0.7-0.1-1
	C14.1,3.7,14.2,3.7,14.3,3.8z M12.4,1.9c-0.2-0.5-0.6-0.8-1-1.1c-0.5-0.3-1-0.5-1.6-0.6C9.1,0.1,8.5,0,8.5,0C7.9,0,7,0,6.5,0L3.8,0
	C3.3,0,2.7,0.4,2.6,1L0,12c-0.1,0.5,0.2,1,0.8,1l1.4,0c0.5,0,1.1-0.4,1.2-1l0.5-2.3c0.1-0.5,0.7-1,1.2-1h0.3c2.3,0,4.1-0.5,5.4-1.4
	c1.3-1,1.9-2.2,1.9-3.7C12.7,2.9,12.6,2.3,12.4,1.9z M8.3,5.7C7.7,6.1,6.9,6.2,6.9,6.2C6.4,6.3,5.7,6.3,5.3,6.3
	c-0.3,0-0.5-0.4-0.4-1l0.5-1.9c0.1-0.5,0.7-1,1.2-1l0.4,0c0.7,0,1.3,0.1,1.6,0.4C9,3,9.2,3.4,9.2,3.9C9.2,4.7,8.9,5.3,8.3,5.7z"/>
</svg>
