<?xml version="1.0" encoding="UTF-8" standalone="no"?>
<svg
   xmlns:dc="http://purl.org/dc/elements/1.1/"
   xmlns:cc="http://creativecommons.org/ns#"
   xmlns:rdf="http://www.w3.org/1999/02/22-rdf-syntax-ns#"
   xmlns:svg="http://www.w3.org/2000/svg"
   xmlns="http://www.w3.org/2000/svg"
   xmlns:sodipodi="http://sodipodi.sourceforge.net/DTD/sodipodi-0.dtd"
   xmlns:inkscape="http://www.inkscape.org/namespaces/inkscape"
   fill="#000000"
   height="48"
   viewBox="0 0 24 24"
   width="48"
   id="svg2"
   version="1.1"
   inkscape:version="0.92.2 (5c3e80d, 2017-08-06)"
   sodipodi:docname="icon.svg">
  <metadata
     id="metadata12">
    <rdf:RDF>
      <cc:Work
         rdf:about="">
        <dc:format>image/svg+xml</dc:format>
        <dc:type
           rdf:resource="http://purl.org/dc/dcmitype/StillImage" />
      </cc:Work>
    </rdf:RDF>
  </metadata>
  <defs
     id="defs10" />
  <sodipodi:namedview
     pagecolor="#ffffff"
     bordercolor="#666666"
     borderopacity="1"
     objecttolerance="10"
     gridtolerance="10"
     guidetolerance="10"
     inkscape:pageopacity="0"
     inkscape:pageshadow="2"
     inkscape:window-width="1462"
     inkscape:window-height="714"
     id="namedview8"
     showgrid="false"
     inkscape:zoom="4.9166667"
     inkscape:cx="-62.033898"
     inkscape:cy="25.322034"
     inkscape:window-x="10"
     inkscape:window-y="34"
     inkscape:window-maximized="0"
     inkscape:current-layer="svg2" />
  <path
     d="M0 0h24v24H0z"
     fill="none"
     id="path4" />
  <path
     d="m 14.711864,1.2881356 -10.4406776,0 c -1.4355932,0 -2.5971186,0.9777966 -2.5971186,2.1728813 L 1.6610171,20.844068 c 0,1.195084 1.1615255,2.172881 2.5971187,2.172881 l 15.6740672,0 c 1.435594,0 2.61017,-0.977797 2.61017,-2.172881 l 0,-13.0372884 -7.830509,-6.518644 z m 2.61017,17.3830504 -10.4406781,0 0,-2.172881 10.4406781,0 0,2.172881 z m 0,-4.345763 -10.4406781,0 0,-2.17288 10.4406781,0 0,2.17288 z m -3.915254,-5.4322027 0,-5.9754237 7.177965,5.9754237 -7.177965,0 z"
     id="path6"
     style="fill:#364e59;fill-opacity:1"
     inkscape:connector-curvature="0" />
</svg>
