<svg width="16" height="16" xmlns="http://www.w3.org/2000/svg" version="1.1">

 <g>
  <title>Layer 1</title>
  <path id="svg_1" fill=" rgb(0, 0, 0)" d="m2.536,4.515l0.43,0c0.143,-0.859 0.43,-1.432 0.716,-1.719c0.358,-0.286 0.931,-0.358 1.862,-0.358l0.931,0l0,8.235c0,0.716 -0.072,1.146 -0.287,1.361c-0.214,0.214 -0.573,0.286 -1.289,0.358l0,0.286l4.798,0l0,-0.286c-0.644,-0.072 -1.074,-0.144 -1.289,-0.287c-0.215,-0.143 -0.286,-0.573 -0.286,-1.146l0,-8.521l0.931,0c0.93,0 1.575,0.144 1.861,0.43c0.287,0.286 0.573,0.859 0.716,1.719l0.43,0l-0.143,-2.865l-9.309,0l-0.072,2.793z"/>
 </g>
</svg>