<?xml version="1.0" encoding="utf-8"?>
<!-- Generator: Adobe Illustrator 21.1.0, SVG Export Plug-In . SVG Version: 6.00 Build 0)  -->
<svg version="1.1"
	 id="svg2" inkscape:version="0.91 r13725" sodipodi:docname="icon.svg" xmlns:cc="http://creativecommons.org/ns#" xmlns:dc="http://purl.org/dc/elements/1.1/" xmlns:inkscape="http://www.inkscape.org/namespaces/inkscape" xmlns:rdf="http://www.w3.org/1999/02/22-rdf-syntax-ns#" xmlns:sodipodi="http://sodipodi.sourceforge.net/DTD/sodipodi-0.dtd" xmlns:svg="http://www.w3.org/2000/svg"
	 xmlns="http://www.w3.org/2000/svg" xmlns:xlink="http://www.w3.org/1999/xlink" x="0px" y="0px" viewBox="0 0 48 48"
	 style="enable-background:new 0 0 48 48;" xml:space="preserve">
<style type="text/css">
	.st0{fill:#CC3399;}
	.st1{fill:none;}
</style>
<sodipodi:namedview  bordercolor="#666666" borderopacity="1" gridtolerance="10" guidetolerance="10" id="namedview8" inkscape:current-layer="svg2" inkscape:cx="23.79661" inkscape:cy="24" inkscape:pageopacity="0" inkscape:pageshadow="2" inkscape:window-height="480" inkscape:window-maximized="0" inkscape:window-width="742" inkscape:window-x="10" inkscape:window-y="34" inkscape:zoom="4.9166667" objecttolerance="10" pagecolor="#ffffff" showgrid="false">
	</sodipodi:namedview>
<path id="path4" class="st0" d="M42.7,10.7h-5.1C37.9,9.9,38,9.1,38,8.3c0-4-3.1-7.3-7-7.3c-2.5,0-4.6,1.3-5.9,3.3L24,5.9l-1.2-1.6
	C21.6,2.3,19.4,1,17,1c-3.9,0-7,3.2-7,7.3c0,0.8,0.2,1.7,0.4,2.4H5.3c-2.6,0-4.7,2.2-4.7,4.8v26.6c0,2.7,2.1,4.8,4.7,4.8h37.5
	c2.6,0,4.7-2.2,4.7-4.8V15.5C47.4,12.8,45.3,10.7,42.7,10.7z M31,5.8c1.3,0,2.3,1.1,2.3,2.4s-1.1,2.4-2.3,2.4
	c-1.3,0-2.3-1.1-2.3-2.4S29.7,5.8,31,5.8z M17,5.8c1.3,0,2.3,1.1,2.3,2.4s-1.1,2.4-2.3,2.4s-2.3-1.1-2.3-2.4S15.7,5.8,17,5.8z
	 M42.7,42.2H5.3v-4.8h37.5L42.7,42.2L42.7,42.2z M42.7,30.1H5.3V15.5h11.9l-4.9,6.9l3.8,2.8l5.6-7.8l2.3-3.3l2.3,3.3l5.6,7.8
	l3.8-2.8l-4.9-6.9h11.9V30.1z"/>
<path id="path6" class="st1" d="M0,0h48v48H0V0z"/>
</svg>
