<!DOCTYPE svg PUBLIC "-//W3C//DTD SVG 1.1//EN" "http://www.w3.org/Graphics/SVG/1.1/DTD/svg11.dtd" [
	<!ENTITY ns_flows "http://ns.adobe.com/Flows/1.0/">
]><svg xmlns="http://www.w3.org/2000/svg" width="24" height="24" viewBox="-2 0 24 24" preserveAspectRatio="xMinYMid meet" overflow="visible"><linearGradient id="a" gradientUnits="userSpaceOnUse" x1="9.999" x2="9.999" y2="24"><stop offset="0" stop-color="#95BFF8"/><stop offset=".557" stop-color="#84ADEF"/><stop offset="1" stop-color="#7CA4EB"/></linearGradient><path fill="url(#a)" d="M12.5 0H0v24h20V7.9"/><linearGradient id="b" gradientUnits="userSpaceOnUse" x1="9.999" y1="1" x2="9.999" y2="23"><stop offset="0" stop-color="#E7F4FC"/><stop offset="1" stop-color="#DEEFFC"/></linearGradient><path fill="url(#b)" d="M12.1 1H1v22h18V8.3"/><linearGradient id="c" gradientUnits="userSpaceOnUse" x1="9.999" y1="2" x2="9.999" y2="22"><stop offset="0" stop-color="#CEE9F9"/><stop offset="1" stop-color="#BBDFF8"/></linearGradient><path fill="url(#c)" d="M11.6 2H2v20h16V8.7"/><path d="M16 21H4v-1h12v1zm0-3H4v1h12v-1zm0-2H4v1h12v-1zm0-2H4v1h12v-1z" fill="#FFF"/><linearGradient id="d" gradientUnits="userSpaceOnUse" x1="9.999" y1="4" x2="9.999" y2="12"><stop offset="0" stop-color="#76A1F0"/><stop offset="1" stop-color="#6B90D5"/></linearGradient><path fill="url(#d)" d="M15.3 4H3v8h14V5.8"/><linearGradient id="e" gradientUnits="userSpaceOnUse" x1="9.999" y1="9" x2="9.999" y2="11"><stop offset="0" stop-color="#57C3F6"/><stop offset=".165" stop-color="#83D3F8"/><stop offset=".355" stop-color="#AFE3FB"/><stop offset=".54" stop-color="#D2EFFD"/><stop offset=".713" stop-color="#EBF8FE"/><stop offset=".871" stop-color="#FAFDFF"/><stop offset="1" stop-color="#FFF"/></linearGradient><path fill="url(#e)" d="M4 9h12v2H4z"/><path d="M12.4 10.9c-.5-.2-1.1-.3-2.7-.4-1.5-.1-.9-.4-2-.8-1-.5-3.7-.3-3.7-.3V11h8.6s-.1-.1-.2-.1z" fill="#F2EFD5"/><linearGradient id="f" gradientUnits="userSpaceOnUse" x1="4" y1="10.248" x2="12.296" y2="10.248"><stop offset="0" stop-color="#F8E5B5"/><stop offset="1" stop-color="#F9E5B6"/></linearGradient><path d="M9.7 10.7c-1.5-.1-.9-.6-2-1-1-.4-3.7 0-3.7 0V11h8.3c-.8 0-1.1-.2-2.6-.3z" fill="url(#f)"/><linearGradient id="g" gradientUnits="userSpaceOnUse" x1="12.534" y1="1.567" x2="8.163" y2="10.941"><stop offset="0" stop-color="#57C3F6"/><stop offset=".229" stop-color="#8AD5F9"/><stop offset=".483" stop-color="#BCE7FB"/><stop offset=".705" stop-color="#E1F4FD"/><stop offset=".885" stop-color="#F7FCFF"/><stop offset="1" stop-color="#FFF"/></linearGradient><path fill="url(#g)" d="M4 5h12v4H4z"/><path d="M11.2 5.6s-.2-.4-.7-.2c-.4.3-.1.7-.1.7h-.1c-.1 0 0 .2 0 .2s-.3 0-.4.2c-.3.4-.1.5-.1.5s-.5.4-.2.8.6.1.6.1.2.3.6.3c.4.1.6-.1.6-.1s.3.2.5.1c.5 0 .6-.2.6-.2s.6.3.8-.3c.1-.4-.3-.6-.3-.6s.1-.4-.2-.6-.6 0-.6 0 .1 0 0-.1c0-.1-.3-.1-.3-.1s.1-.6-.2-.8c-.3-.2-.5.1-.5.1zM8.6 6.9s-.1-.1-.2 0c-.1 0 0 .1 0 .1s-.1 0-.1.1v.1s-.1.1 0 .2.2 0 .2 0 .1.1.2.1h.2s.1.1.2 0l-.1.1s.2.1.2-.1c0-.1-.1-.2-.1-.2s0-.1-.1-.2H8.7s0-.2-.1-.2c.1-.1 0 0 0 0z" fill="#FFF"/><linearGradient id="h" gradientUnits="userSpaceOnUse" x1="15.245" x2="15.245" y2="9.359"><stop offset="0" stop-color="#95BFF8"/><stop offset=".557" stop-color="#84ADEF"/><stop offset="1" stop-color="#7CA4EB"/></linearGradient><path d="M11 9s5.2-1.5 9 .4V7.9L12.5 0h-2c2.6 3.7.5 9 .5 9z" fill="url(#h)"/><linearGradient id="i" gradientUnits="userSpaceOnUse" x1="12.322" y1="7.545" x2="15.45" y2="4.417"><stop offset="0" stop-color="#E7F4FC"/><stop offset=".518" stop-color="#E5F3FC"/><stop offset=".705" stop-color="#DEF0FB"/><stop offset=".837" stop-color="#D3EBFA"/><stop offset=".872" stop-color="#CEE9F9"/><stop offset="1" stop-color="#BDD8F0"/></linearGradient><path d="M18.5 7.8c-.9-.2-2-.3-3.1-.3s-2.1.1-3 .3c.4-1.6.7-4.1-.2-6.4l6.3 6.4z" fill="url(#i)"/></svg>