<?xml version="1.0" encoding="utf-8"?>
<!-- Generator: Adobe Illustrator 15.1.0, SVG Export Plug-In  -->
<!DOCTYPE svg PUBLIC "-//W3C//DTD SVG 1.1//EN" "http://www.w3.org/Graphics/SVG/1.1/DTD/svg11.dtd" [
	<!ENTITY ns_flows "http://ns.adobe.com/Flows/1.0/">
]>
<svg version="1.1"
	 xmlns="http://www.w3.org/2000/svg" xmlns:xlink="http://www.w3.org/1999/xlink" xmlns:a="http://ns.adobe.com/AdobeSVGViewerExtensions/3.0/"
	 x="0px" y="0px" width="24px" height="24px" viewBox="-2 0 24 24" style="overflow:visible;enable-background:new -2 0 24 24;"
	 xml:space="preserve" preserveAspectRatio="xMinYMid meet">
<defs>
</defs>
<linearGradient id="SVGID_1_" gradientUnits="userSpaceOnUse" x1="9.9995" y1="0" x2="9.9995" y2="24.0005">
	<stop  offset="0" style="stop-color:#95BFF8"/>
	<stop  offset="0.5569" style="stop-color:#84ADEF"/>
	<stop  offset="1" style="stop-color:#7CA4EB"/>
	<a:midPointStop  offset="0" style="stop-color:#95BFF8"/>
	<a:midPointStop  offset="0.4" style="stop-color:#95BFF8"/>
	<a:midPointStop  offset="1" style="stop-color:#7CA4EB"/>
</linearGradient>
<polygon style="fill:url(#SVGID_1_);" points="12.5,0 11.5,0 1,0 0,0 0,24 1,24 19,24 20,24 20,7.9 "/>
<linearGradient id="SVGID_2_" gradientUnits="userSpaceOnUse" x1="9.9995" y1="1" x2="9.9995" y2="23.0005">
	<stop  offset="0" style="stop-color:#E7F4FC"/>
	<stop  offset="1" style="stop-color:#DEEFFC"/>
	<a:midPointStop  offset="0" style="stop-color:#E7F4FC"/>
	<a:midPointStop  offset="0.5" style="stop-color:#E7F4FC"/>
	<a:midPointStop  offset="1" style="stop-color:#DEEFFC"/>
</linearGradient>
<polygon style="fill:url(#SVGID_2_);" points="12.1,1 11.1,1 2,1 1,1 1,23 2,23 18,23 19,23 19,8.3 "/>
<linearGradient id="SVGID_3_" gradientUnits="userSpaceOnUse" x1="9.9995" y1="2" x2="9.9995" y2="22.0005">
	<stop  offset="0" style="stop-color:#CEE9F9"/>
	<stop  offset="1" style="stop-color:#BBDFF8"/>
	<a:midPointStop  offset="0" style="stop-color:#CEE9F9"/>
	<a:midPointStop  offset="0.5" style="stop-color:#CEE9F9"/>
	<a:midPointStop  offset="1" style="stop-color:#BBDFF8"/>
</linearGradient>
<polygon style="fill:url(#SVGID_3_);" points="11.6,2 10.6,2 3,2 2,2 2,22 3,22 17,22 18,22 18,8.7 "/>
<path style="fill:#FFFFFF;" d="M16,21H4v-1h12V21z M16,18H4v1h12V18z M16,16H4v1h12V16z M16,14H4v1h12V14z"/>
<linearGradient id="SVGID_4_" gradientUnits="userSpaceOnUse" x1="9.9995" y1="4" x2="9.9995" y2="12">
	<stop  offset="0" style="stop-color:#76A1F0"/>
	<stop  offset="1" style="stop-color:#6B90D5"/>
	<a:midPointStop  offset="0" style="stop-color:#76A1F0"/>
	<a:midPointStop  offset="0.5" style="stop-color:#76A1F0"/>
	<a:midPointStop  offset="1" style="stop-color:#6B90D5"/>
</linearGradient>
<polygon style="fill:url(#SVGID_4_);" points="15.3,4 14.3,4 4,4 3,4 3,12 4,12 16,12 17,12 17,5.8 "/>
<linearGradient id="SVGID_5_" gradientUnits="userSpaceOnUse" x1="9.9995" y1="9" x2="9.9995" y2="11">
	<stop  offset="0" style="stop-color:#57C3F6"/>
	<stop  offset="0.1648" style="stop-color:#83D3F8"/>
	<stop  offset="0.3554" style="stop-color:#AFE3FB"/>
	<stop  offset="0.5396" style="stop-color:#D2EFFD"/>
	<stop  offset="0.7128" style="stop-color:#EBF8FE"/>
	<stop  offset="0.8709" style="stop-color:#FAFDFF"/>
	<stop  offset="1" style="stop-color:#FFFFFF"/>
	<a:midPointStop  offset="0" style="stop-color:#57C3F6"/>
	<a:midPointStop  offset="0.3354" style="stop-color:#57C3F6"/>
	<a:midPointStop  offset="1" style="stop-color:#FFFFFF"/>
</linearGradient>
<rect x="4" y="9" style="fill:url(#SVGID_5_);" width="12" height="2"/>
<path style="fill:#F2EFD5;" d="M12.4,10.9c-0.5-0.2-1.1-0.3-2.7-0.4c-1.5-0.1-0.9-0.4-2-0.8C6.7,9.2,4,9.4,4,9.4V11h8.6
	C12.6,11,12.5,10.9,12.4,10.9z"/>
<linearGradient id="SVGID_6_" gradientUnits="userSpaceOnUse" x1="4" y1="10.2476" x2="12.2959" y2="10.2476">
	<stop  offset="0" style="stop-color:#F8E5B5"/>
	<stop  offset="1" style="stop-color:#F9E5B6"/>
	<a:midPointStop  offset="0" style="stop-color:#F8E5B5"/>
	<a:midPointStop  offset="0.4451" style="stop-color:#F8E5B5"/>
	<a:midPointStop  offset="1" style="stop-color:#F9E5B6"/>
</linearGradient>
<path style="fill:url(#SVGID_6_);" d="M9.7,10.7c-1.5-0.1-0.9-0.6-2-1c-1-0.4-3.7,0-3.7,0V11h8.3C11.5,11,11.2,10.8,9.7,10.7z"/>
<linearGradient id="SVGID_7_" gradientUnits="userSpaceOnUse" x1="12.5342" y1="1.5674" x2="8.163" y2="10.9413">
	<stop  offset="0" style="stop-color:#57C3F6"/>
	<stop  offset="0.2292" style="stop-color:#8AD5F9"/>
	<stop  offset="0.4827" style="stop-color:#BCE7FB"/>
	<stop  offset="0.705" style="stop-color:#E1F4FD"/>
	<stop  offset="0.885" style="stop-color:#F7FCFF"/>
	<stop  offset="1" style="stop-color:#FFFFFF"/>
	<a:midPointStop  offset="0" style="stop-color:#57C3F6"/>
	<a:midPointStop  offset="0.3902" style="stop-color:#57C3F6"/>
	<a:midPointStop  offset="1" style="stop-color:#FFFFFF"/>
</linearGradient>
<rect x="4" y="5" style="fill:url(#SVGID_7_);" width="12" height="4"/>
<path style="fill:#FFFFFF;" d="M11.2,5.6c0,0-0.2-0.4-0.7-0.2c-0.4,0.3-0.1,0.7-0.1,0.7s-0.1,0-0.1,0c-0.1,0,0,0.2,0,0.2
	s-0.3,0-0.4,0.2C9.6,6.9,9.8,7,9.8,7S9.3,7.4,9.6,7.8c0.3,0.4,0.6,0.1,0.6,0.1s0.2,0.3,0.6,0.3c0.4,0.1,0.6-0.1,0.6-0.1
	s0.3,0.2,0.5,0.1C12.4,8.2,12.5,8,12.5,8s0.6,0.3,0.8-0.3C13.4,7.3,13,7.1,13,7.1s0.1-0.4-0.2-0.6s-0.6,0-0.6,0s0.1,0,0-0.1
	c0-0.1-0.3-0.1-0.3-0.1s0.1-0.6-0.2-0.8C11.4,5.3,11.2,5.6,11.2,5.6z"/>
<path style="fill:#FFFFFF;" d="M8.6,6.9c0,0-0.1-0.1-0.2,0C8.3,6.9,8.4,7,8.4,7s0,0,0,0c0,0,0,0,0,0s-0.1,0-0.1,0.1
	c0,0.1,0,0.1,0,0.1s-0.1,0.1,0,0.2c0.1,0.1,0.2,0,0.2,0s0.1,0.1,0.2,0.1c0.1,0,0.2,0,0.2,0s0.1,0.1,0.2,0C9,7.6,9,7.6,9,7.6
	s0.2,0.1,0.2-0.1c0-0.1-0.1-0.2-0.1-0.2s0-0.1-0.1-0.2c-0.1,0-0.2,0-0.2,0s0,0,0,0s-0.1,0-0.1,0s0-0.2-0.1-0.2
	C8.7,6.8,8.6,6.9,8.6,6.9z"/>
<linearGradient id="SVGID_8_" gradientUnits="userSpaceOnUse" x1="15.2451" y1="0" x2="15.2451" y2="9.3594">
	<stop  offset="0" style="stop-color:#95BFF8"/>
	<stop  offset="0.5569" style="stop-color:#84ADEF"/>
	<stop  offset="1" style="stop-color:#7CA4EB"/>
	<a:midPointStop  offset="0" style="stop-color:#95BFF8"/>
	<a:midPointStop  offset="0.4" style="stop-color:#95BFF8"/>
	<a:midPointStop  offset="1" style="stop-color:#7CA4EB"/>
</linearGradient>
<path style="fill:url(#SVGID_8_);" d="M11,9c0,0,5.2-1.5,9,0.4c0-0.1,0-1.5,0-1.5L12.5,0c0,0-1.8,0-2,0C13.1,3.7,11,9,11,9z"/>
<linearGradient id="SVGID_9_" gradientUnits="userSpaceOnUse" x1="12.3223" y1="7.5449" x2="15.4504" y2="4.4168">
	<stop  offset="0" style="stop-color:#E7F4FC"/>
	<stop  offset="0.5181" style="stop-color:#E5F3FC"/>
	<stop  offset="0.7045" style="stop-color:#DEF0FB"/>
	<stop  offset="0.8371" style="stop-color:#D3EBFA"/>
	<stop  offset="0.872" style="stop-color:#CEE9F9"/>
	<stop  offset="1" style="stop-color:#BDD8F0"/>
	<a:midPointStop  offset="0" style="stop-color:#E7F4FC"/>
	<a:midPointStop  offset="0.87" style="stop-color:#E7F4FC"/>
	<a:midPointStop  offset="0.872" style="stop-color:#CEE9F9"/>
	<a:midPointStop  offset="0.5" style="stop-color:#CEE9F9"/>
	<a:midPointStop  offset="1" style="stop-color:#BDD8F0"/>
</linearGradient>
<path style="fill:url(#SVGID_9_);" d="M18.5,7.8c-0.9-0.2-2-0.3-3.1-0.3c-1.1,0-2.1,0.1-3,0.3c0.4-1.6,0.7-4.1-0.2-6.4L18.5,7.8z"/>
</svg>
