<svg width="24" height="24" viewBox="0 0 24 24" fill="none" xmlns="http://www.w3.org/2000/svg" preserveAspectRatio="xMinYMid meet">
<path fill-rule="evenodd" clip-rule="evenodd" d="M13.2426 3.90637H7.8501C7.02167 3.90637 6.3501 4.57794 6.3501 5.40637V18.4109C6.3501 19.2393 7.02167 19.9109 7.8501 19.9109H16.856C17.6844 19.9109 18.356 19.2393 18.356 18.4109V8.88903V8.42232C18.356 8.14618 18.1321 7.92232 17.856 7.92232H15.8465C15.0181 7.92232 14.3465 7.25075 14.3465 6.42232V4.40637C14.3465 4.13122 14.1242 3.90797 13.8495 3.90638C13.8485 3.90637 13.8475 3.90637 13.8465 3.90637L13.2486 3.90641C13.2466 3.90641 13.2446 3.9064 13.2426 3.90637ZM15.3465 4.58847V6.42232C15.3465 6.69847 15.5704 6.92232 15.8465 6.92232H17.668L15.3465 4.58847ZM19.356 8.42232V8.88903V18.4109C19.356 19.7916 18.2367 20.9109 16.856 20.9109H7.8501C6.46939 20.9109 5.3501 19.7916 5.3501 18.4109V5.40637C5.3501 4.02566 6.46939 2.90637 7.8501 2.90637H13.8465C13.8482 2.90637 13.8499 2.90637 13.8516 2.90638L14.0443 2.90637C14.7096 2.90634 15.3476 3.17156 15.8168 3.64331L18.6284 6.46987C19.0944 6.93833 19.356 7.5722 19.356 8.23294V8.42232ZM8.34912 11.4062C8.34912 11.1301 8.57298 10.9062 8.84912 10.9062H15.8511C16.1272 10.9062 16.3511 11.1301 16.3511 11.4062C16.3511 11.6824 16.1272 11.9062 15.8511 11.9062H8.84912C8.57298 11.9062 8.34912 11.6824 8.34912 11.4062ZM8.34912 14.4062C8.34912 14.1301 8.57298 13.9062 8.84912 13.9062H15.8511C16.1272 13.9062 16.3511 14.1301 16.3511 14.4062C16.3511 14.6824 16.1272 14.9062 15.8511 14.9062H8.84912C8.57298 14.9062 8.34912 14.6824 8.34912 14.4062ZM8.84912 16.9087C8.57298 16.9087 8.34912 17.1325 8.34912 17.4087C8.34912 17.6848 8.57298 17.9087 8.84912 17.9087H15.8511C16.1272 17.9087 16.3511 17.6848 16.3511 17.4087C16.3511 17.1325 16.1272 16.9087 15.8511 16.9087H8.84912Z" fill="#212529"/>
</svg>
