<!DOCTYPE svg PUBLIC "-//W3C//DTD SVG 1.1//EN" "http://www.w3.org/Graphics/SVG/1.1/DTD/svg11.dtd" [
	<!ENTITY ns_flows "http://ns.adobe.com/Flows/1.0/">
]><svg xmlns="http://www.w3.org/2000/svg" width="16" height="16" viewBox="0 -1 16 16" preserveAspectRatio="xMinYMid meet" overflow="visible"><path d="M12.8 11c0 1.1-.4 2.1-1.3 2.9-.9.8-2 1.1-3.3 1.1-.7 0-1.4-.1-2.1-.4-.7-.3-1.2-.4-1.3-.4-.3 0-.4.1-.5.2s-.1.4-.2.6h-.5L3 11h.7c.3.7.6 1.2 1 1.7.9 1 1.9 1.5 3.2 1.5.7 0 1.3-.2 1.8-.7.5-.4.8-1.1.8-1.8 0-.2 0-.5-.1-.7h2.4zm-7-3.8l1.4.8h4.1c-.5-.4-1-.8-1.7-1.2l-2-1.2c-.7-.5-1.2-.9-1.6-1.3-.3-.4-.5-.9-.5-1.4 0-.6.2-1.1.7-1.5.4-.4 1-.5 1.6-.5.8 0 1.5.3 2.3.8s1.4 1.5 1.7 2.9h.5L11.8 0h-.4c-.1.2-.1.4-.2.5-.1.1-.3.2-.6.2-.1 0-.5-.1-1.2-.4C8.7.1 8.1 0 7.6 0 6.4 0 5.4.4 4.7 1.1S3.6 2.7 3.6 3.8c0 .8.3 1.6.9 2.3.3.4.8.7 1.3 1.1zM16 9H0v1h16V9z" fill="#999"/></svg>