<?xml version="1.0" encoding="UTF-8"?>
<svg width="20px" height="20px" viewBox="0 0 20 20" version="1.1" xmlns="http://www.w3.org/2000/svg" xmlns:xlink="http://www.w3.org/1999/xlink">
    <!-- Generator: Sketch 48.2 (47327) - http://www.bohemiancoding.com/sketch -->
    <title>surprise</title>
    <desc>Created with Sketch.</desc>
    <defs></defs>
    <g id="Page-1" stroke="none" stroke-width="1" fill="none" fill-rule="evenodd">
        <g id="surprise" fill="#FFFFFF">
            <path d="M6.99375039,8.65327167 C7.80357478,8.43603525 8.43603525,7.80357478 8.65327167,6.99375039 L9.14824073,5.15274045 C9.38335104,4.28241985 10.6180239,4.28241985 10.8517593,5.15274045 L11.3481032,6.99375039 C11.5653397,7.80357478 12.1978001,8.43603525 13.0062496,8.65327167 L14.8472595,9.14824073 C15.7175802,9.38335104 15.7175802,10.6180239 14.8472595,10.8531342 L13.0062496,11.3481032 C12.1978001,11.5653397 11.5653397,12.1978001 11.3481032,13.0062496 L10.8517593,14.8472595 C10.6180239,15.7175802 9.38335104,15.7175802 9.14824073,14.8472595 L8.65327167,13.0062496 C8.43603525,12.1978001 7.80357478,11.5653397 6.99375039,11.3481032 L5.15274045,10.8531342 C4.28241985,10.6180239 4.28241985,9.38335104 5.15274045,9.14824073 L6.99375039,8.65327167 Z M3.9061823,14.5100817 C4.20079987,14.430095 4.4314281,14.2007999 4.51008165,13.9061823 L4.69005166,13.2369605 C4.77403766,12.9210132 5.22329612,12.9210132 5.30994834,13.2369605 L5.48858524,13.9061823 C5.5685719,14.2007999 5.79786702,14.430095 6.09248459,14.5100817 L6.76303949,14.6900517 C7.07898684,14.7740377 7.07898684,15.2232961 6.76303949,15.3099483 L6.09248459,15.4885852 C5.79786702,15.5685719 5.5685719,15.797867 5.48858524,16.0924846 L5.30994834,16.7617064 C5.22329612,17.0789868 4.77403766,17.0789868 4.69005166,16.7617064 L4.51008165,16.0924846 C4.4314281,15.797867 4.20079987,15.5685719 3.9061823,15.4885852 L3.23696051,15.3099483 C2.92101316,15.2232961 2.92101316,14.7740377 3.23696051,14.6900517 L3.9061823,14.5100817 Z M13.9064844,4.50925154 C14.2012002,4.42923821 14.4305718,4.2012002 14.5092515,3.90648441 L14.6906151,3.23703951 C14.7746291,2.92098683 15.2240373,2.92098683 15.3093849,3.23703951 L15.4894149,3.90648441 C15.5680947,4.2012002 15.7987998,4.42923821 16.0935156,4.50925154 L16.7629605,4.6906151 C17.0790132,4.7746291 17.0790132,5.22403734 16.7629605,5.3093849 L16.0935156,5.4894149 C15.7987998,5.56809468 15.5680947,5.7987998 15.4894149,6.09218203 L15.3093849,6.76162694 C15.2240373,7.07901317 14.7746291,7.07901317 14.6906151,6.76162694 L14.5092515,6.09218203 C14.4305718,5.7987998 14.2012002,5.56809468 13.9064844,5.4894149 L13.2370395,5.3093849 C12.9209868,5.22403734 12.9209868,4.7746291 13.2370395,4.6906151 L13.9064844,4.50925154 Z M5.75,5.75 C5.75,6.164 5.414,6.5 5,6.5 C4.586,6.5 4.25,6.164 4.25,5.75 C4.25,5.336 4.586,5 5,5 C5.414,5 5.75,5.336 5.75,5.75 Z M16,14.25 C16,14.9416667 15.44,15.5 14.75,15.5 C14.0583333,15.5 13.5,14.9416667 13.5,14.25 C13.5,13.56 14.0583333,13 14.75,13 C15.44,13 16,13.56 16,14.25 Z" id="surprise-icon"></path>
        </g>
    </g>
</svg>