<?xml version="1.0" encoding="UTF-8"?>
<svg width="20px" height="20px" viewBox="0 0 20 20" version="1.1" xmlns="http://www.w3.org/2000/svg" xmlns:xlink="http://www.w3.org/1999/xlink">
    <!-- Generator: Sketch 51.1 (57501) - http://www.bohemiancoding.com/sketch -->
    <title>dont-rotate-active</title>
    <desc>Created with Sketch.</desc>
    <defs></defs>
    <g id="dont-rotate-active" stroke="none" stroke-width="1" fill="none" fill-rule="evenodd">
        <path d="M12.5888771,8.06902644 L13.86349,6.56266574 C14.4487406,7.40331746 14.8232375,8.40101099 14.9098696,9.47826182 L16.2580356,9.47826182 C16.8465207,9.47826182 17.1996118,10.1309454 16.8786199,10.6231329 L14.6209769,14.1433441 C14.3320842,14.6034325 13.6687009,14.6034325 13.3691085,14.1433441 L11.1221651,10.6231329 C10.8011732,10.1309454 11.1542643,9.47826182 11.7427495,9.47826182 L13.0267171,9.47826182 C12.9657526,8.97464215 12.8141722,8.49925787 12.5888771,8.06902644 Z M14.9322936,3.75140819 L4.41830686,16.1770289 C4.39906741,16.1997664 4.38220902,16.2237219 4.3677064,16.2485918 L3.88169314,16.8229711 C3.70332112,17.0337744 3.38783218,17.0600652 3.17702888,16.8816931 C2.96622558,16.7033211 2.93993483,16.3878322 3.11830686,16.1770289 L4.77600701,14.2179287 C3.67971789,13.1352279 3,11.6316859 3,9.9704494 C3,6.68563226 5.67493253,4 8.9704494,4 C10.2739544,4 11.4807977,4.42091588 12.4626123,5.13375885 L14.1183069,3.17702888 C14.2966789,2.96622558 14.6121678,2.93993483 14.8229711,3.11830686 C15.0110369,3.27743943 15.052247,3.54570491 14.9322936,3.75140819 Z M6.41391759,15.3667059 L7.68705488,13.8620891 C8.09106584,13.9959518 8.52258095,14.068446 8.9704494,14.068446 C9.48510642,14.068446 9.90132592,14.4846655 9.90132592,14.9993226 C9.90132592,15.5236093 9.48510642,15.9408988 8.9704494,15.9408988 C8.05583315,15.9408988 7.1890173,15.7348626 6.41391759,15.3667059 Z M11.2481962,6.56897787 C10.5973184,6.12907251 9.81364832,5.87245277 8.9704494,5.87245277 C6.71387632,5.87245277 4.87245277,7.71280635 4.87245277,9.9704494 C4.87245277,11.0565658 5.29863553,12.0461039 5.99219528,12.7806153 L11.2481962,6.56897787 Z" id="Combined-Shape" fill="#855CD6"></path>
    </g>
</svg>
