<?xml version="1.0" encoding="UTF-8"?>
<svg width="100px" height="100px" viewBox="0 0 100 100" version="1.1" xmlns="http://www.w3.org/2000/svg" xmlns:xlink="http://www.w3.org/1999/xlink">
    <!-- Generator: Sketch 56.2 (81672) - https://sketch.com -->
    <title>Sound/General/Library Tile Icon/LTR</title>
    <desc>Created with Sketch.</desc>
    <g id="Sound/General/Library-Tile-Icon/LTR" stroke="none" stroke-width="1" fill="none" fill-rule="evenodd">
        <path d="M59.2058787,60.3333334 C58.5966947,60.3333334 57.9704308,60.1867593 57.4010999,59.8779064 C55.7101869,58.956583 55.1465493,56.951658 56.1485718,55.3969245 C58.0558304,52.423563 58.0558304,48.7382694 56.1485718,45.7701424 C55.1465493,44.2101744 55.7101869,42.2052491 57.4010999,41.2839258 C59.1090926,40.373072 61.2839366,40.8860816 62.2745726,42.43558 C65.5026787,47.4609802 65.5026787,53.700852 62.2745726,58.7262523 C61.6141488,59.7627412 60.4242469,60.3333334 59.2058787,60.3333334 Z M69.985377,64.6666666 C69.4661637,64.6666666 68.9275406,64.5290438 68.4471472,64.2390524 C67.0059668,63.3739938 66.5255733,61.491508 67.3796061,60.0317213 C70.7811802,54.202405 70.7811802,46.957538 67.3796061,41.1331368 C66.5255733,39.6733502 67.0059668,37.7859493 68.4471472,36.9208906 C69.8931803,36.0705772 71.7468194,36.5473425 72.6008522,38.002214 C77.1330493,45.7582521 77.1330493,55.401691 72.6008522,63.1577291 C72.0331147,64.1309203 71.0238033,64.6666666 69.985377,64.6666666 Z M51.1304347,34.1786293 L51.1304347,64.8165072 C51.1304347,68.4463264 46.6931659,70.3464662 43.9263373,67.899848 L37.9530906,62.6105398 C35.8378889,60.7404813 33.0814037,59.7026738 30.2163139,59.7026738 L29.1716422,59.7026738 C26.3168957,59.7026738 24,57.4616116 24,54.689112 L24,44.3611739 C24,41.5936876 26.3168957,39.3476118 29.1716422,39.3476118 L30.1594258,39.3476118 C33.0245156,39.3476118 35.7810009,38.3098044 37.8962025,36.4397458 L43.9263373,31.1003021 C46.6931659,28.6536838 51.1304347,30.5538239 51.1304347,34.1786293 Z" id="Combined-Shape" fill="#575E75" fill-rule="nonzero"></path>
    </g>
</svg>