<?xml version="1.0" encoding="UTF-8" standalone="no"?>
<svg width="20px" height="20px" viewBox="0 0 20 20" version="1.1" xmlns="http://www.w3.org/2000/svg" xmlns:xlink="http://www.w3.org/1999/xlink">
    <!-- Generator: Sketch 43.2 (39069) - http://www.bohemiancoding.com/sketch -->
    <title>send-back</title>
    <desc>Created with Sketch.</desc>
    <defs></defs>
    <g id="Page-1" stroke="none" stroke-width="1" fill="none" fill-rule="evenodd">
        <g id="send-back">
            <g transform="translate(10.000000, 10.000000) rotate(180.000000) translate(-10.000000, -10.000000) translate(2.000000, 3.000000)">
                <path d="M12.3476736,5.92549723 L10.2407376,5.92549723 L9.33601611,12.7635981 C9.23807603,13.5476661 8.54025295,14.1003698 7.78121732,13.9846876 C7.16909181,13.8947126 6.69163391,13.3805697 6.6169546,12.7635981 L5.7122331,5.92549723 L3.65426714,5.92549723 C3.0678509,5.92549723 2.78504892,5.19284356 3.190276,4.76867564 L7.53514286,0.192803597 C7.79223558,-0.0642678658 8.20970517,-0.0642678658 8.45333113,0.192803597 L12.812889,4.76867564 C13.2168918,5.19284356 12.9230716,5.92549723 12.3476736,5.92549723" id="Fill-1" fill="#855CD6"></path>
                <path d="M12,8 L16,8" id="Stroke-6" stroke="#575E75" stroke-linecap="round" stroke-linejoin="round"></path>
                <path d="M12,10 L15,10" id="Stroke-6-Copy" stroke="#575E75" opacity="0.75" stroke-linecap="round" stroke-linejoin="round"></path>
                <path d="M12,12 L14,12" id="Stroke-6-Copy-2" stroke="#575E75" opacity="0.5" stroke-linecap="round" stroke-linejoin="round"></path>
                <path d="M0,8 L4,8" id="Stroke-10" stroke="#575E75" stroke-linecap="round" stroke-linejoin="round"></path>
                <path d="M1,10 L4,10" id="Stroke-10-Copy" stroke="#575E75" opacity="0.75" stroke-linecap="round" stroke-linejoin="round"></path>
                <path d="M2,12 L4,12" id="Stroke-10-Copy-2" stroke="#575E75" opacity="0.5" stroke-linecap="round" stroke-linejoin="round"></path>
            </g>
        </g>
    </g>
</svg>
