<?xml version="1.0" encoding="UTF-8" standalone="no"?>
<svg width="20px" height="20px" viewBox="0 0 20 20" version="1.1" xmlns="http://www.w3.org/2000/svg" xmlns:xlink="http://www.w3.org/1999/xlink">
    <!-- Generator: Sketch 43.2 (39069) - http://www.bohemiancoding.com/sketch -->
    <title>reshape</title>
    <desc>Created with Sketch.</desc>
    <defs></defs>
    <g id="Page-1" stroke="none" stroke-width="1" fill="none" fill-rule="evenodd">
        <g id="reshape">
            <g id="reshape-icon" transform="translate(3.000000, 2.000000)">
                <path d="M6.3718,4e-05 C6.3718,1.20298846 6.03840639,2.32811001 5.45898306,3.28804076 C5.31876362,3.52034235 4.30079812,3.15107034 3.82818604,3.61859131 C3.35557395,4.08611228 3.47873759,5.34529147 3.26181884,5.47482181 C2.30759304,6.04462589 1.19191205,6.37204 -0.0002,6.37204" id="Stroke-1" stroke="#575E75" stroke-width="0.75"></path>
                <path d="M4,6.94999094 C2.85887984,6.71835578 2,5.70947896 2,4.5 C2,3.11928813 3.11928813,2 4.5,2 C5.88071187,2 7,3.11928813 7,4.5 C7,4.56854233 6.99724162,4.63644042 6.99182982,4.70358929 L6.68137747,4.42017327 C5.65792772,3.48493325 4,4.20484091 4,5.595932 L4,6.94999094 Z" id="Combined-Shape" fill="#575E75"></path>
                <path d="M4,7.96455557 C2.30385293,7.72194074 1,6.26323595 1,4.5 C1,2.56700338 2.56700338,1 4.5,1 C6.43299662,1 8,2.56700338 8,4.5 C8,4.84508345 7.95005914,5.1785026 7.85701065,5.4934242 L6.68137747,4.42017327 C5.65792772,3.48493325 4,4.20484091 4,5.595932 L4,7.96455557 Z" id="Oval-2" fill-opacity="0.15" fill="#575E75"></path>
                <path d="M7.87915329,13.1684522 L8.98467414,15.6316703 C9.20235954,16.1186581 9.76980913,16.3337238 10.2516521,16.1137141 C10.7334951,15.8924683 10.9462887,15.3189598 10.7286032,14.833208 L9.63583183,12.3973461 L12.3974628,12.3973461 C12.945512,12.3973461 13.207518,11.7313818 12.8048941,11.3644462 L6.00716065,5.15870674 C5.6225647,4.80725864 5,5.07769498 5,5.595932 L5,14.8026807 C5,15.3507015 5.68145595,15.608033 6.04802397,15.1994001 L7.87915329,13.1684522 Z" id="select-icon" fill="#575E75"></path>
            </g>
        </g>
    </g>
</svg>