<?xml version="1.0" encoding="utf-8"?>
<!-- Generator: Adobe Illustrator 27.8.1, SVG Export Plug-In . SVG Version: 6.00 Build 0)  -->
<svg version="1.1" id="Layer_1" xmlns="http://www.w3.org/2000/svg" xmlns:xlink="http://www.w3.org/1999/xlink" x="0px" y="0px"
	 viewBox="0 0 1024 768" style="enable-background:new 0 0 1024 768;" xml:space="preserve">
<g>
	<path d="M415.05,575.93c-0.59-1.26-1.93-0.99-2.91-1.28c-15.12-4.37-25.39-16.24-26.34-31.76c-1.5-24.44-2.5-48.9-3.68-73.36
		c-1.67-34.44-3.31-68.88-4.96-103.32c-0.5-10.36-0.99-20.71-1.46-31.07c-0.16-3.66,1.12-5.01,4.73-5.12c0.62-0.02,1.25,0,1.87,0
		c86.68,0,173.37,0,260.05,0c6.12,0,6.8,0.86,6.51,6.96c-1.39,28.45-2.69,56.9-4.05,85.35c-1.65,34.56-3.29,69.13-4.99,103.69
		c-0.36,7.22-0.01,14.52-1.58,21.64c-3.26,14.77-14.44,25.24-29.35,27.62c-0.28,0.04-0.51,0.42-0.76,0.64
		C543.77,575.93,479.41,575.93,415.05,575.93z M464.44,437.95c0-25.84,0.03-51.69-0.02-77.53c-0.01-7.04-5.16-12.32-11.8-12.4
		c-6.83-0.08-12.01,5.22-12.13,12.45c-0.04,2.25-0.01,4.49-0.01,6.74c0,49.06,0.01,98.13-0.02,147.19c0,3.08,0.42,5.96,2.27,8.49
		c3.1,4.26,8.33,6.02,13.22,4.47c5.26-1.67,8.45-6.03,8.46-11.88C464.46,489.64,464.44,463.79,464.44,437.95z M524.31,437.97
		c0-25.84,0.03-51.69-0.02-77.53c-0.01-7.05-5.14-12.33-11.78-12.42c-6.7-0.09-12.12,5.11-12.12,12.05
		c-0.05,51.94-0.03,103.87-0.03,155.81c0,2.58,0.75,4.92,2.24,7c3.08,4.27,8.32,6.04,13.21,4.49c5.27-1.67,8.47-6.02,8.48-11.86
		C524.33,489.66,524.31,463.81,524.31,437.97z M584.18,438.19c0-25.97,0.04-51.94-0.02-77.9c-0.02-7-5.27-12.25-11.93-12.26
		c-6.69-0.01-11.96,5.22-11.97,12.21c-0.04,51.81-0.02,103.62-0.03,155.43c0,2.72,0.74,5.17,2.34,7.34
		c3.14,4.25,8.36,5.93,13.27,4.32c5.2-1.71,8.32-6.08,8.33-11.98C584.2,489.62,584.19,463.9,584.18,438.19z"/>
	<path d="M541.53,192.07c1.29,1.43,3.18,0.9,4.75,1.38c15.07,4.52,25.55,18.09,25.9,33.85c0.07,3.25,0.19,6.51-0.02,9.74
		c-0.16,2.45,0.59,3.08,3.05,3.07c20.2-0.1,40.39-0.06,60.59-0.06c19.72,0.01,32.2,12.5,32.21,32.25
		c0.01,6.99,0.04,13.99-0.01,20.98c-0.06,7.7-4.98,12.73-12.61,12.73c-95.38,0.02-190.75,0.02-286.13,0
		c-7.46,0-12.62-5.01-12.54-12.38c0.11-9.6-1.02-19.28,0.56-28.79c2.43-14.63,14.54-24.68,29.39-24.75
		c20.82-0.1,41.64-0.09,62.46,0.05c2.87,0.02,3.48-0.75,3.41-3.49c-0.15-6.22-0.55-12.49,1.37-18.58
		c3.93-12.45,12.1-20.62,24.53-24.55c1.11-0.35,2.51-0.14,3.21-1.44C501.61,192.07,521.57,192.07,541.53,192.07z M512.16,240.05
		c11.09,0,22.18-0.07,33.27,0.06c2.27,0.03,3.07-0.47,2.89-2.85c-0.23-2.98-0.01-5.99-0.07-8.98c-0.15-6.99-5.1-12.14-12-12.18
		c-15.95-0.09-31.9-0.09-47.84,0c-6.87,0.04-11.84,5.24-11.98,12.21c-0.06,2.99,0.17,6.01-0.07,8.98c-0.2,2.43,0.69,2.85,2.91,2.82
		C490.24,239.99,501.2,240.05,512.16,240.05z"/>
</g>
</svg>
