<?xml version="1.0" encoding="UTF-8" standalone="no"?>
<svg width="20px" height="20px" viewBox="0 0 20 20" version="1.1" xmlns="http://www.w3.org/2000/svg" xmlns:xlink="http://www.w3.org/1999/xlink">
    <!-- Generator: Sketch 43.2 (39069) - http://www.bohemiancoding.com/sketch -->
    <title>eye-dropper</title>
    <desc>Created with Sketch.</desc>
    <defs></defs>
    <g id="Page-1" stroke="none" stroke-width="1" fill="none" fill-rule="evenodd">
        <g id="eye-dropper" fill="#575E75">
            <path d="M9.15334605,12.4824962 C9.03394044,12.6188737 8.88041895,12.7041096 8.60749186,12.7722983 C7.90811618,12.925723 7.24285639,13.5564688 7.03816107,14.2554033 C6.9699293,14.4770167 6.74817603,14.7156773 6.50936483,14.8350076 L4.73533871,15.6703196 C4.650049,15.704414 4.58181722,15.7214612 4.54770134,15.7214612 L4.27477424,15.4657534 C4.27477424,15.4487062 4.27477424,15.3805175 4.32594807,15.2611872 L5.1617873,13.4712329 C5.26413496,13.2496195 5.50294617,13.0280061 5.74175737,12.9598174 C6.44113305,12.738204 7.07227696,12.090411 7.25991433,11.2380518 C7.29403022,11.1016743 7.37931994,10.9652968 7.49872554,10.8289193 L11.4391105,6.90806697 L13.093731,8.56164384 L9.15334605,12.4824962 Z M16.6076673,5.28858447 C16.8635365,5.03287671 17,4.67488584 17,4.33394216 C17,3.99299848 16.8635365,3.65205479 16.6076673,3.39634703 C16.0788711,2.86788432 15.2430318,2.86788432 14.7142356,3.39634703 L13.2301945,4.87945205 L13.0596151,4.70898021 L12.5137609,4.16347032 C12.172602,3.82252664 11.6096899,3.82252664 11.268531,4.16347032 L10.6032712,4.81126332 C10.2791703,5.152207 10.2621124,5.64657534 10.5520974,5.98751903 L6.59465454,9.92541857 C6.30466951,10.2322679 6.09997418,10.5902588 5.98056858,11.1016743 C5.92939475,11.357382 5.63940971,11.6471842 5.36648262,11.7324201 C4.80357049,11.9028919 4.2577163,12.3802131 4.00184715,12.9427702 L3.16600792,14.7156773 C2.89308083,15.3123288 2.9613126,15.9260274 3.33658736,16.3181126 L3.67774623,16.6590563 C3.89949949,16.8806697 4.20654247,17 4.54770134,17 C4.7694546,17 5.02532375,16.9318113 5.26413496,16.8295282 L7.05521901,15.9942161 C7.61813114,15.7214612 8.09575356,15.1929985 8.26633299,14.6304414 C8.33456477,14.3576865 8.64160775,14.0678843 9.05099839,13.9826484 C9.4092152,13.8974125 9.76743201,13.6928463 10.057417,13.385997 L14.0148599,9.44809741 C14.3560188,9.73789954 14.8677571,9.70380518 15.1748001,9.37990868 L15.8400599,8.73211568 C16.1812187,8.39117199 16.1812187,7.82861492 15.8400599,7.48767123 L15.2600898,6.90806697 L15.1236262,6.7716895 L16.6076673,5.28858447 Z" id="eye-dropper-icon"></path>
        </g>
    </g>
</svg>