<svg id="Layer_1" data-name="Layer 1" xmlns="http://www.w3.org/2000/svg" width="112" height="112" viewBox="0 0 112 112"><defs><style>.cls-1{opacity:0.25;}.cls-2{fill:#CCB3FF;}.cls-3{fill:#a071fe;}.cls-4{opacity:0.15;}.cls-5{fill:none;stroke:#000;stroke-linecap:round;stroke-linejoin:round;}</style></defs><title>dial-face</title><g class="cls-1"><circle class="cls-2" cx="56" cy="56" r="55.5"/><path class="cls-3" d="M56,1A55,55,0,1,1,1,56,55.06,55.06,0,0,1,56,1m0-1a56,56,0,1,0,56,56A56,56,0,0,0,56,0Z"/></g><g class="cls-4"><line class="cls-5" x1="56" y1="14.86" x2="56" y2="20.73"/><line class="cls-5" x1="56" y1="91.27" x2="56" y2="97.14"/><line class="cls-5" x1="45.35" y1="16.26" x2="46.87" y2="21.94"/><line class="cls-5" x1="65.13" y1="90.06" x2="66.65" y2="95.74"/><line class="cls-5" x1="35.43" y1="20.37" x2="38.37" y2="25.46"/><line class="cls-5" x1="73.63" y1="86.54" x2="76.57" y2="91.63"/><line class="cls-5" x1="26.91" y1="26.91" x2="31.06" y2="31.06"/><line class="cls-5" x1="80.94" y1="80.94" x2="85.09" y2="85.09"/><line class="cls-5" x1="20.37" y1="35.43" x2="25.46" y2="38.37"/><line class="cls-5" x1="86.54" y1="73.63" x2="91.63" y2="76.57"/><line class="cls-5" x1="16.26" y1="45.35" x2="21.94" y2="46.87"/><line class="cls-5" x1="90.06" y1="65.13" x2="95.74" y2="66.65"/><line class="cls-5" x1="14.86" y1="56" x2="20.73" y2="56"/><line class="cls-5" x1="91.27" y1="56" x2="97.14" y2="56"/><line class="cls-5" x1="16.26" y1="66.65" x2="21.94" y2="65.13"/><line class="cls-5" x1="90.06" y1="46.87" x2="95.74" y2="45.35"/><line class="cls-5" x1="20.37" y1="76.57" x2="25.46" y2="73.63"/><line class="cls-5" x1="86.54" y1="38.37" x2="91.63" y2="35.43"/><line class="cls-5" x1="26.91" y1="85.09" x2="31.06" y2="80.94"/><line class="cls-5" x1="80.94" y1="31.06" x2="85.09" y2="26.91"/><line class="cls-5" x1="35.43" y1="91.63" x2="38.37" y2="86.54"/><line class="cls-5" x1="73.63" y1="25.46" x2="76.57" y2="20.37"/><line class="cls-5" x1="45.35" y1="95.74" x2="46.87" y2="90.06"/><line class="cls-5" x1="65.13" y1="21.94" x2="66.65" y2="16.26"/></g><circle class="cls-2" cx="56" cy="56" r="2"/></svg>
