<svg width="27" height="26" viewBox="0 0 27 26" fill="none" xmlns="http://www.w3.org/2000/svg">
<rect x="0.602081" width="26" height="26" rx="13" fill="#E5F0FF"/>
<circle cx="19.7126" cy="13.0004" r="3.44665" transform="rotate(90 19.7126 13.0004)" fill="#FFBF00" stroke="#CC9900" stroke-width="0.861663"/>
<circle cx="18.8939" cy="9.94462" r="3.44665" transform="rotate(-120 18.8939 9.94462)" fill="#CF63CF" stroke="#BD42BD" stroke-width="0.861663"/>
<circle cx="16.6571" cy="7.70829" r="3.44665" transform="rotate(-150 16.6571 7.70829)" fill="#9966FF" stroke="#774DCB" stroke-width="0.861663"/>
<circle cx="13.602" cy="6.88952" r="3.44665" fill="#4C97FF" stroke="#3373CC" stroke-width="0.861663"/>
<circle cx="10.547" cy="7.70834" r="3.44665" transform="rotate(-30 10.547 7.70834)" fill="#575E75" stroke="#575E75" stroke-width="0.861663"/>
<circle cx="8.31022" cy="9.94516" r="3.44665" transform="rotate(120 8.31022 9.94516)" fill="#0FBD8C" stroke="#0B8462" stroke-width="0.861663"/>
<circle cx="7.49152" cy="13.0004" r="3.44665" transform="rotate(90 7.49152 13.0004)" fill="#FF6680" stroke="#FF3355" stroke-width="0.861663"/>
<circle cx="8.31021" cy="16.055" r="3.44665" transform="rotate(-120 8.31021 16.055)" fill="#FF661A" stroke="#E64D00" stroke-width="0.861663"/>
<circle cx="10.5466" cy="18.2918" r="3.44665" transform="rotate(-150 10.5466 18.2918)" fill="#FF8C1A" stroke="#DB6E00" stroke-width="0.861663"/>
<circle cx="13.602" cy="19.1107" r="3.44665" fill="#59C059" stroke="#389438" stroke-width="0.861663"/>
<path d="M20.1038 18.2914C20.1038 20.1949 18.5607 21.738 16.6572 21.738C14.7536 21.738 13.2105 20.1949 13.2105 18.2914C13.2105 16.3878 14.7536 14.8447 16.6572 14.8447L20.1038 18.2914Z" fill="#5CB1D6" stroke="#2E8EB8" stroke-width="0.861663"/>
<path fill-rule="evenodd" clip-rule="evenodd" d="M16.3445 13.7095C16.6815 15.2597 18.0614 16.4207 19.7126 16.4207C20.7228 16.4207 21.6315 15.9861 22.2619 15.2936C22.3134 15.5306 22.3406 15.7766 22.3406 16.029C22.3406 17.9325 20.7974 19.4757 18.8939 19.4757C16.9904 19.4757 15.4473 17.9325 15.4473 16.029C15.4473 15.1357 15.7871 14.3218 16.3445 13.7095Z" fill="#FFAB19"/>
<path d="M16.3445 13.7095L16.7655 13.618C16.7313 13.4604 16.612 13.3352 16.4562 13.2934C16.3005 13.2516 16.1345 13.3002 16.026 13.4194L16.3445 13.7095ZM22.2619 15.2936L22.6829 15.2021C22.6487 15.0445 22.5294 14.9193 22.3736 14.8775C22.2179 14.8357 22.0519 14.8843 21.9434 15.0036L22.2619 15.2936ZM19.7126 15.9899C18.2683 15.9899 17.0603 14.9743 16.7655 13.618L15.9235 13.801C16.3026 15.5451 17.8545 16.8515 19.7126 16.8515V15.9899ZM21.9434 15.0036C21.3911 15.6101 20.5965 15.9899 19.7126 15.9899V16.8515C20.8491 16.8515 21.8719 16.362 22.5805 15.5836L21.9434 15.0036ZM21.8409 15.3851C21.8859 15.5922 21.9097 15.8076 21.9097 16.029H22.7714C22.7714 15.7457 22.7409 15.4689 22.6829 15.2021L21.8409 15.3851ZM21.9097 16.029C21.9097 17.6946 20.5595 19.0448 18.8939 19.0448V19.9065C21.0354 19.9065 22.7714 18.1705 22.7714 16.029H21.9097ZM18.8939 19.0448C17.2283 19.0448 15.8781 17.6946 15.8781 16.029H15.0164C15.0164 18.1705 16.7524 19.9065 18.8939 19.9065V19.0448ZM15.8781 16.029C15.8781 15.2471 16.1751 14.5356 16.6631 13.9995L16.026 13.4194C15.3991 14.108 15.0164 15.0243 15.0164 16.029H15.8781Z" fill="#CF8B17"/>
<path d="M16.3445 13.7095C16.6815 15.2597 18.0614 16.4207 19.7126 16.4207C20.7228 16.4207 21.6315 15.9861 22.2619 15.2936" stroke="#CC9900" stroke-width="0.861663" stroke-linecap="round" stroke-linejoin="round"/>
</svg>
