<?xml version="1.0" encoding="UTF-8" standalone="no"?>
<svg width="68px" height="35px" viewBox="0 0 68 35" version="1.1" xmlns="http://www.w3.org/2000/svg" xmlns:xlink="http://www.w3.org/1999/xlink">
    <!-- Generator: Sketch 48.1 (47250) - http://www.bohemiancoding.com/sketch -->
    <title>middle-block</title>
    <desc>Created with Sketch.</desc>
    <defs>
        <path d="M0,34.4606346 C0,33.1016272 1.1,32 2.457,32 L8.81,32 C9.462,32 10.087,32.2593831 10.548,32.7210651 L14.022,36.2002041 C14.483,36.6618861 15.108,36.9212692 15.76,36.9212692 L23.552,36.9212692 C24.204,36.9212692 24.829,36.6618861 25.29,36.2002041 L28.764,32.7210651 C29.225,32.2593831 29.85,32 30.502,32 L65.364,32 C66.721,32 67.821,33.1016272 67.821,34.4606346 L67.821,59.0669808 C67.821,60.4259882 66.721,61.5276154 65.364,61.5276154 L30.502,61.5276154 C29.85,61.5276154 29.225,61.7869985 28.764,62.2486805 L25.29,65.7278195 C24.829,66.1895015 24.204,66.4488846 23.552,66.4488846 L15.76,66.4488846 C15.108,66.4488846 14.483,66.1895015 14.022,65.7278195 L10.548,62.2486805 C10.087,61.7869985 9.462,61.5276154 8.81,61.5276154 L2.457,61.5276154 C1.1,61.5276154 0,60.4259882 0,59.0669808 L0,34.4606346 Z" id="path-1"></path>
    </defs>
    <g id="Loading-State" stroke="none" stroke-width="1" fill="none" fill-rule="evenodd" transform="translate(-589.000000, -224.000000)">
        <g id="Animation" transform="translate(589.000000, 192.000000)">
            <g id="middle-block">
                <use fill-opacity="0.2" fill="#FFFFFF" fill-rule="evenodd" xlink:href="#path-1"></use>
                <path stroke-opacity="0.1" stroke="#FFFFFF" stroke-width="1" d="M0.5,34.4606346 L0.5,59.0669808 C0.5,60.1500111 1.37630796,61.0276154 2.457,61.0276154 L8.81,61.0276154 C9.59470527,61.0276154 10.3470032,61.3397564 10.9018146,61.8953885 L14.3758146,65.3745275 C14.7431058,65.7423621 15.2408503,65.9488846 15.76,65.9488846 L23.552,65.9488846 C24.0711497,65.9488846 24.5688942,65.7423621 24.9361854,65.3745275 L28.4101854,61.8953885 C28.9649968,61.3397564 29.7172947,61.0276154 30.502,61.0276154 L65.364,61.0276154 C66.444692,61.0276154 67.321,60.1500111 67.321,59.0669808 L67.321,34.4606346 C67.321,33.3776043 66.444692,32.5 65.364,32.5 L30.502,32.5 C29.9828503,32.5 29.4851058,32.7065225 29.1178146,33.0743571 L25.6438146,36.5534961 C25.0890032,37.1091282 24.3367053,37.4212692 23.552,37.4212692 L15.76,37.4212692 C14.9752947,37.4212692 14.2229968,37.1091282 13.6681854,36.5534961 L10.1941854,33.0743571 C9.82689416,32.7065225 9.32914969,32.5 8.81,32.5 L2.457,32.5 C1.37630796,32.5 0.5,33.3776043 0.5,34.4606346 Z"></path>
            </g>
        </g>
    </g>
</svg>