<?xml version="1.0" encoding="UTF-8" standalone="no"?>
<svg width="20px" height="20px" viewBox="0 0 20 20" version="1.1" xmlns="http://www.w3.org/2000/svg" xmlns:xlink="http://www.w3.org/1999/xlink">
    <!-- Generator: Sketch 47.1 (45422) - http://www.bohemiancoding.com/sketch -->
    <title>Fullscreen</title>
    <desc>Created with Sketch.</desc>
    <defs></defs>
    <g id="Page-1" stroke="none" stroke-width="1" fill="none" fill-rule="evenodd">
        <g id="Fullscreen" fill="#575E75">
            <g id="fullscreen" transform="translate(3.000000, 3.000000)">
                <path d="M13.338093,4.35035264 L12.4488644,3.45883199 L9.31483512,5.83342741 C8.95713791,6.10825708 8.4389784,6.03619808 8.1648553,5.66752413 C7.94254816,5.37090918 7.94756261,4.96201625 8.1648553,4.6821592 L10.5333457,1.54005165 L9.66584641,0.668640487 C9.41679554,0.418947674 9.59397267,0.00502737208 9.93495506,0.00502737208 L13.6122161,0 C13.8244944,0.00502737208 14,0.180985395 14,0.388783441 L14,4.08055034 C14,4.42241164 13.5821294,4.59501808 13.338093,4.35035264" id="Fill-1"></path>
                <path d="M0.661906989,9.64928834 L1.55113557,10.5408826 L4.68516488,8.16609118 C5.04286209,7.89123882 5.5610216,7.9649797 5.8351447,8.33200815 C6.05745184,8.62864758 6.05243739,9.03757425 5.8351447,9.3174544 L3.4649828,12.4598213 L4.33415359,13.3313043 C4.58320446,13.5810178 4.40602733,13.9949722 4.06504494,13.9949722 L0.387783893,14 C0.175505641,13.9949722 0,13.8189997 0,13.6111845 L0,9.9191129 C0,9.57722339 0.417870574,9.4046027 0.661906989,9.64928834" id="Fill-3"></path>
                <path d="M0.661906989,4.35035264 L1.55113557,3.45883199 L4.68516488,5.83342741 C5.04286209,6.10825708 5.5610216,6.03619808 5.8351447,5.66752413 C6.05745184,5.37090918 6.05243739,4.96201625 5.8351447,4.6821592 L3.4649828,1.54005165 L4.33415359,0.668640487 C4.58320446,0.418947674 4.40602733,0.00502737208 4.06504494,0.00502737208 L0.387783893,0 C0.175505641,0.00502737208 0,0.180985395 0,0.388783441 L0,4.08055034 C0,4.42241164 0.417870574,4.59501808 0.661906989,4.35035264" id="Fill-5"></path>
                <path d="M13.338093,9.64928834 L12.4488644,10.5408826 L9.31483512,8.16609118 C8.95713791,7.89123882 8.4389784,7.9649797 8.1648553,8.33200815 C7.94254816,8.62864758 7.94756261,9.03757425 8.1648553,9.3174544 L10.5333457,12.4598213 L9.66584641,13.3313043 C9.41679554,13.5810178 9.59397267,13.9949722 9.93495506,13.9949722 L13.6122161,14 C13.8244944,13.9949722 14,13.8189997 14,13.6111845 L14,9.9191129 C14,9.57722339 13.5821294,9.4046027 13.338093,9.64928834" id="Fill-7"></path>
            </g>
        </g>
    </g>
</svg>