<?xml version="1.0" encoding="UTF-8"?>
<svg width="20px" height="20px" viewBox="0 0 20 20" version="1.1" xmlns="http://www.w3.org/2000/svg" xmlns:xlink="http://www.w3.org/1999/xlink">
    <!-- Generator: Sketch 52.2 (67145) - http://www.bohemiancoding.com/sketch -->
    <title>Extensions/Connection/Bluetooth</title>
    <desc>Created with Sketch.</desc>
    <defs>
        <path d="M10.0067929,12.1067505 L12.3957387,14.0016608 L10.0067929,15.9178959 L10.0067929,12.1067505 Z M10.0067929,4.08928413 L12.3854344,5.99452362 L10.0067929,7.87910469 L10.0067929,4.08928413 Z M8.88494896,1.00684787 C8.38336008,1.07015593 8.00841492,1.49998436 8.01240369,2.00678206 L8.01240369,7.96240477 L6.64126113,6.8795037 C6.43185026,6.70790553 6.16194292,6.62927025 5.89336518,6.66092428 C5.34557295,6.71856794 4.9480247,7.21003843 5.00552959,7.75915257 C5.03411584,8.03404284 5.17505267,8.28494269 5.39476788,8.45187606 L7.3476073,9.99292759 L5.39476788,11.5443083 C4.96165303,11.8895039 4.88952262,12.5212517 5.23388715,12.9550785 C5.57791929,13.3895718 6.20814627,13.461543 6.64126113,13.1166807 L8.01240369,12.0234504 L8.01240369,18.0000647 C8.01240369,18.5521777 8.45848208,18.9999989 9.00926589,18.9999989 C9.23596146,19.0003321 9.45600907,18.9230297 9.63284491,18.7810863 L14.6188179,14.7826823 C15.0519327,14.4418184 15.1270547,13.8130694 14.7870114,13.3789093 C14.7378164,13.3162677 14.6813087,13.2596236 14.6188179,13.21031 L10.5675486,10.0032568 L14.6188179,6.78587441 C15.0489412,6.44134526 15.1190772,5.81192984 14.7753774,5.38076861 C14.7291741,5.32279175 14.6766552,5.2701461 14.6188179,5.22383126 L9.63284491,1.22542729 C9.42343405,1.05416232 9.15352671,0.975193838 8.88494896,1.00684787 Z" id="path-1"></path>
    </defs>
    <g id="Extensions/Connection/Bluetooth" stroke="none" stroke-width="1" fill="none" fill-rule="evenodd">
        <mask id="mask-2" fill="white">
            <use xlink:href="#path-1"></use>
        </mask>
        <use id="bluetooth" fill="#4D97FF" xlink:href="#path-1"></use>
        <g id="Color/1_Blue" mask="url(#mask-2)" fill="#575E75">
            <g id="Color/Gray">
                <g id="Color">
                    <rect x="0" y="0" width="20" height="20"></rect>
                </g>
            </g>
        </g>
    </g>
</svg>