<?xml version="1.0" encoding="UTF-8" standalone="no"?>
<svg width="85px" height="35px" viewBox="0 0 85 35" version="1.1" xmlns="http://www.w3.org/2000/svg" xmlns:xlink="http://www.w3.org/1999/xlink">
    <!-- Generator: Sketch 48.1 (47250) - http://www.bohemiancoding.com/sketch -->
    <title>bottom-block</title>
    <desc>Created with Sketch.</desc>
    <defs>
        <path d="M0,66.4606346 C0,65.1016272 1.1,64 2.457,64 L8.81,64 C9.462,64 10.087,64.2593831 10.548,64.7210651 L14.022,68.2002041 C14.483,68.6618861 15.108,68.9212692 15.76,68.9212692 L23.552,68.9212692 C24.204,68.9212692 24.829,68.6618861 25.29,68.2002041 L28.764,64.7210651 C29.225,64.2593831 29.85,64 30.502,64 L82.364,64 C83.721,64 84.821,65.1016272 84.821,66.4606346 L84.821,91.0669808 C84.821,92.4259882 83.721,93.5276154 82.364,93.5276154 L30.502,93.5276154 C29.85,93.5276154 29.225,93.7869985 28.764,94.2486805 L25.29,97.7278195 C24.829,98.1895015 24.204,98.4488846 23.552,98.4488846 L15.76,98.4488846 C15.108,98.4488846 14.483,98.1895015 14.022,97.7278195 L10.548,94.2486805 C10.087,93.7869985 9.462,93.5276154 8.81,93.5276154 L2.457,93.5276154 C1.1,93.5276154 0,92.4259882 0,91.0669808 L0,66.4606346 Z" id="path-1"></path>
    </defs>
    <g id="Loading-State" stroke="none" stroke-width="1" fill="none" fill-rule="evenodd" transform="translate(-589.000000, -256.000000)">
        <g id="Animation" transform="translate(589.000000, 192.000000)">
            <g id="bottom-block">
                <use fill-opacity="0.2" fill="#FFFFFF" fill-rule="evenodd" xlink:href="#path-1"></use>
                <path stroke-opacity="0.1" stroke="#FFFFFF" stroke-width="1" d="M0.5,66.4606346 L0.5,91.0669808 C0.5,92.1500111 1.37630796,93.0276154 2.457,93.0276154 L8.81,93.0276154 C9.59470527,93.0276154 10.3470032,93.3397564 10.9018146,93.8953885 L14.3758146,97.3745275 C14.7431058,97.7423621 15.2408503,97.9488846 15.76,97.9488846 L23.552,97.9488846 C24.0711497,97.9488846 24.5688942,97.7423621 24.9361854,97.3745275 L28.4101854,93.8953885 C28.9649968,93.3397564 29.7172947,93.0276154 30.502,93.0276154 L82.364,93.0276154 C83.444692,93.0276154 84.321,92.1500111 84.321,91.0669808 L84.321,66.4606346 C84.321,65.3776043 83.444692,64.5 82.364,64.5 L30.502,64.5 C29.9828503,64.5 29.4851058,64.7065225 29.1178146,65.0743571 L25.6438146,68.5534961 C25.0890032,69.1091282 24.3367053,69.4212692 23.552,69.4212692 L15.76,69.4212692 C14.9752947,69.4212692 14.2229968,69.1091282 13.6681854,68.5534961 L10.1941854,65.0743571 C9.82689416,64.7065225 9.32914969,64.5 8.81,64.5 L2.457,64.5 C1.37630796,64.5 0.5,65.3776043 0.5,66.4606346 Z"></path>
            </g>
        </g>
    </g>
</svg>