<?xml version="1.0" encoding="UTF-8"?>
<svg width="20px" height="20px" viewBox="0 0 20 20" version="1.1" xmlns="http://www.w3.org/2000/svg" xmlns:xlink="http://www.w3.org/1999/xlink">
    <!-- Generator: Sketch 48.2 (47327) - http://www.bohemiancoding.com/sketch -->
    <title>paint</title>
    <desc>Created with Sketch.</desc>
    <defs></defs>
    <g id="Page-1" stroke="none" stroke-width="1" fill="none" fill-rule="evenodd">
        <g id="paint" fill="#FFFFFF">
            <path d="M16.1998226,6.58685277 C15.5417294,7.94213763 14.5662678,9.50539101 13.6457617,10.6638734 C12.8750097,11.639511 12.2567593,12.2117734 11.6659868,12.4909258 C11.5972923,12.5341944 11.5299717,12.5481521 11.4461644,12.5481521 C11.3912089,12.5481521 11.3362533,12.5341944 11.2675588,12.5048834 C11.1439087,12.4644063 11.0339976,12.366703 10.979042,12.2410844 C10.8141752,11.8628329 10.580614,11.5432035 10.2659932,11.2905705 C9.94862474,11.053291 9.59141344,10.871842 9.18062043,10.7741386 C9.05559648,10.7462234 8.93194641,10.6638734 8.86325193,10.5368591 C8.79455745,10.4251981 8.76845354,10.2856219 8.79455745,10.1474415 C8.9594242,9.50539101 9.38532999,8.75167956 10.1272304,7.81651905 C11.5849273,5.94480227 14.4975733,3.16863175 15.9113058,3.01370218 C16.2959949,2.9578717 16.5158172,3.08349028 16.6532062,3.19515123 C17.0117914,3.50221886 17.3690027,4.17358036 16.1998226,6.58685277 Z M10.2654437,13.9990466 C10.3478771,14.6969276 10.1692714,15.3808509 9.74199174,15.9251981 C9.37241543,16.412319 8.85033737,16.7486977 8.25956482,16.8882738 C8.23208703,16.9022315 8.19087034,16.9161891 8.16339255,16.9161891 L8.0246297,16.9301467 C7.76496455,16.9720196 7.51766442,16.9999348 7.2689904,16.9999348 C5.29196321,16.9999348 3.90296079,15.6586076 3.35477883,14.7806733 C3.14732149,14.4317328 2.83270076,13.7896823 3.10747869,13.3849114 C3.17617317,13.287208 3.36714383,13.0778437 3.77931072,13.1615894 C5.08450588,13.4407418 5.55162835,12.8545218 5.63543562,12.7428609 C6.51472499,11.5843784 8.14965365,11.3750141 9.27486926,12.2403866 C9.82579901,12.6730728 10.1816364,13.3011656 10.2654437,13.9990466 Z" id="Fill-4"></path>
        </g>
    </g>
</svg>