<?xml version="1.0" encoding="UTF-8"?>
<svg width="20px" height="20px" viewBox="0 0 20 20" version="1.1" xmlns="http://www.w3.org/2000/svg" xmlns:xlink="http://www.w3.org/1999/xlink">
    <!-- Generator: Sketch 55.2 (78181) - https://sketchapp.com -->
    <title>Sound/General/Trim</title>
    <desc>Created with Sketch.</desc>
    <defs>
        <path d="M6.54210671,14.8773591 C6.54210671,15.6756813 5.89668548,16.3230878 5.11194905,16.3230878 C4.31632862,16.3230878 3.6709074,15.6756813 3.6709074,14.8773591 C3.6709074,14.086692 4.31632862,13.440379 5.11194905,13.440379 C5.89668548,13.440379 6.54210671,14.086692 6.54210671,14.8773591 L6.54210671,14.8773591 Z M8.63401159,13.5836396 C8.82992359,13.3878866 8.82992359,13.0685577 8.63401159,12.8706175 L7.10916313,11.338495 C6.91216272,11.1405548 6.59434991,11.1405548 6.3984379,11.338495 L5.87709428,11.861232 C5.63546947,11.7912421 5.37425346,11.7595279 5.11194905,11.7595279 C3.39010019,11.7595279 2.00021333,13.1571387 2.00021333,14.8872014 C2.00021333,16.8414505 3.794985,18.3779474 5.83246988,17.9230131 C7.36929074,17.5796252 8.34776238,16.1568618 8.19973997,14.5820892 C8.18450237,14.4213311 8.15620397,14.2638539 8.11266797,14.1074702 L8.63401159,13.5836396 Z M6.54210671,5.11617453 C6.54210671,5.91559037 5.89668548,6.5629969 5.11194905,6.5629969 C4.31632862,6.5629969 3.6709074,5.91559037 3.6709074,5.11617453 C3.6709074,4.32660102 4.31632862,3.68028808 5.11194905,3.68028808 C5.89668548,3.68028808 6.54210671,4.32660102 6.54210671,5.11617453 M18.0021973,16.1706411 L17.9368933,16.235163 C16.926858,17.2500165 15.2877276,17.2500165 14.2766039,16.235163 L7.87898848,9.80702856 C7.70919807,9.6353346 7.70919807,9.3586558 7.87898848,9.18805543 L9.15785853,7.90199109 C9.32764893,7.73139072 9.60301414,7.73139072 9.77280455,7.90199109 L18.0021973,16.1706411 Z M18.0021973,3.82934469 L12.4045559,9.45368895 L10.5107398,7.54865148 L14.2766039,3.76482275 C15.2877276,2.74996927 16.926858,2.74996927 17.9368933,3.76482275 L18.0021973,3.82934469 Z M8.63401159,6.41864274 C8.82992359,6.61548933 8.82992359,6.93591182 8.63401159,7.1327584 L7.10916313,8.66488096 C6.91216272,8.86282113 6.59434991,8.86282113 6.3984379,8.66488096 L5.87709428,8.14214392 C5.63546947,8.21213382 5.37425346,8.2427544 5.11194905,8.2427544 C3.39010019,8.2427544 2.00021333,6.84623726 2.00021333,5.11617453 C2.00021333,3.16192542 3.794985,1.62542849 5.83246988,2.0814564 C7.36929074,2.42375074 8.34776238,3.84651408 8.19973997,5.42128673 C8.18450237,5.58313837 8.15620397,5.73842845 8.11266797,5.89590571 L8.63401159,6.41864274 Z M10.3929749,10.0447755 C10.3929749,10.2744298 10.2079469,10.4614341 9.97829448,10.4614341 C9.74973047,10.4614341 9.56361406,10.2744298 9.56361406,10.0447755 C9.56361406,9.81402755 9.74973047,9.62811689 9.97829448,9.62811689 C10.2079469,9.62811689 10.3929749,9.81402755 10.3929749,10.0447755 Z" id="path-1"></path>
    </defs>
    <g id="Sound/General/Trim" stroke="none" stroke-width="1" fill="none" fill-rule="evenodd">
        <mask id="mask-2" fill="white">
            <use xlink:href="#path-1"></use>
        </mask>
        <use id="Mask" fill="#575E75" xlink:href="#path-1"></use>
        <g id="Blue/1_Blue" mask="url(#mask-2)" fill="#855CD6">
            <rect id="Primary-Blue" x="0" y="0" width="20" height="20"></rect>
        </g>
    </g>
</svg>
