<?xml version="1.0" encoding="UTF-8"?>
<svg width="20px" height="20px" viewBox="0 0 20 20" version="1.1" xmlns="http://www.w3.org/2000/svg" xmlns:xlink="http://www.w3.org/1999/xlink">
    <!-- Generator: Sketch 48.2 (47327) - http://www.bohemiancoding.com/sketch -->
    <title>sound-library</title>
    <desc>Created with Sketch.</desc>
    <defs></defs>
    <g id="Page-1" stroke="none" stroke-width="1" fill="none" fill-rule="evenodd">
        <g id="sound-library" fill="#FFFFFF">
            <path d="M17.75,3.25 L18.5,3.25 C18.9142136,3.25 19.25,3.58578644 19.25,4 C19.25,4.41421356 18.9142136,4.75 18.5,4.75 L17.75,4.75 L17.75,5.5 C17.75,5.91421356 17.4142136,6.25 17,6.25 C16.5857864,6.25 16.25,5.91421356 16.25,5.5 L16.25,4.75 L15.5,4.75 C15.0857864,4.75 14.75,4.41421356 14.75,4 C14.75,3.58578644 15.0857864,3.25 15.5,3.25 L16.25,3.25 L16.25,2.5 C16.25,2.08578644 16.5857864,1.75 17,1.75 C17.4142136,1.75 17.75,2.08578644 17.75,2.5 L17.75,3.25 Z M12.6307801,13.637142 C12.480284,13.637142 12.3255684,13.5975477 12.1849178,13.5141169 C11.7671856,13.2652385 11.6279416,12.7236452 11.8754866,12.303663 C12.346666,11.5004646 12.346666,10.5049512 11.8754866,9.70316691 C11.6279416,9.28177059 11.7671856,8.74017733 12.1849178,8.49129896 C12.6068695,8.24524876 13.1441547,8.38382876 13.3888867,8.80239692 C14.1863754,10.1599153 14.1863754,11.8455006 13.3888867,13.2030189 C13.225732,13.4830071 12.9317723,13.637142 12.6307801,13.637142 Z M15.2566363,15.0553244 C15.1061402,15.0553244 14.950018,15.0157301 14.810774,14.9322993 C14.3930418,14.683421 14.2537977,14.1418277 14.5013427,13.7218455 C15.4873032,12.0447447 15.4873032,9.96038836 14.5013427,8.28470164 C14.2537977,7.8647194 14.3930418,7.32171206 14.810774,7.07283369 C15.2299126,6.82819757 15.7671978,6.96536349 16.0147428,7.38393165 C17.3284191,9.61535244 17.3284191,12.3897806 16.0147428,14.6212014 C15.8501816,14.9011895 15.5576285,15.0553244 15.2566363,15.0553244 Z M10.3785286,6.67858774 L10.3785286,15.3200405 C10.3785286,16.3438356 9.17174676,16.8797725 8.41926624,16.1897007 L6.79475223,14.6978446 C6.21949142,14.1703921 5.46982391,13.8776773 4.69061978,13.8776773 L4.40650564,13.8776773 C3.63011453,13.8776773 3,13.2455828 3,12.4635956 L3,9.5505875 C3,8.77001445 3.63011453,8.13650589 4.40650564,8.13650589 L4.67514822,8.13650589 C5.45435235,8.13650589 6.20401986,7.84379099 6.77928066,7.31633855 L8.41926624,5.81034163 C9.17174676,5.1202698 10.3785286,5.65620673 10.3785286,6.67858774 Z" id="Combined-Shape"></path>
        </g>
    </g>
</svg>
