<?xml version="1.0" encoding="UTF-8"?>
<svg width="20px" height="20px" viewBox="0 0 20 20" version="1.1" xmlns="http://www.w3.org/2000/svg" xmlns:xlink="http://www.w3.org/1999/xlink">
    <!-- Generator: Sketch 50.2 (55047) - http://www.bohemiancoding.com/sketch -->
    <title>swap</title>
    <desc>Created with Sketch.</desc>
    <defs></defs>
    <g id="swap" stroke="none" stroke-width="1" fill="none" fill-rule="evenodd">
        <g id="Swap-v2" transform="translate(2.000000, 2.000000)" fill="#855CD6">
            <path d="M3.69424597,2.00682151 L7.95663608,2.66498231 C8.44536222,2.73588913 8.7900887,3.24405473 8.7176525,3.79585529 C8.66179809,4.24129561 8.34150792,4.58764819 7.95663608,4.64128284 L3.69424597,5.30126176 L3.69424597,6.79666856 C3.69424597,7.22392764 3.23781067,7.42846657 2.97250219,7.13483958 L0.120436084,3.97403142 C-0.0401453614,3.78767373 -0.0401453614,3.48404706 0.120436084,3.30587093 L2.97250219,0.135972153 C3.23781067,-0.157654834 3.69424597,0.0559747078 3.69424597,0.474143173 L3.69424597,2.00682151 Z M12.305754,10.7340942 L12.305754,9.2014159 C12.305754,8.78324744 12.7621893,8.56961789 13.0274978,8.86324488 L15.8795639,12.0331437 C16.0401454,12.2113198 16.0401454,12.5149465 15.8795639,12.7013041 L13.0274978,15.8621123 C12.7621893,16.1557393 12.305754,15.9512004 12.305754,15.5239413 L12.305754,14.0285345 L8.04336392,13.3685556 C7.65849208,13.3149209 7.33820191,12.9685683 7.2823475,12.523128 C7.2099113,11.9713275 7.55463778,11.4631619 8.04336392,11.392255 L12.305754,10.7340942 Z" id="Swap-v1"></path>
            <path d="M11.2727273,1.45454545 L13.4545455,1.45454545 C14.0567273,1.45454545 14.5454545,1.94327273 14.5454545,2.54545455 L14.5454545,4.72727273 C14.5454545,5.33054545 14.0567273,5.81818182 13.4545455,5.81818182 L11.2727273,5.81818182 C10.6705455,5.81818182 10.1818182,5.33054545 10.1818182,4.72727273 L10.1818182,2.54545455 C10.1818182,1.94327273 10.6705455,1.45454545 11.2727273,1.45454545" id="Fill-6" fill-opacity="0.5"></path>
            <path d="M2.54545455,10.1818182 L4.72727273,10.1818182 C5.32945455,10.1818182 5.81818182,10.6705455 5.81818182,11.2727273 L5.81818182,13.4545455 C5.81818182,14.0578182 5.32945455,14.5454545 4.72727273,14.5454545 L2.54545455,14.5454545 C1.94327273,14.5454545 1.45454545,14.0578182 1.45454545,13.4545455 L1.45454545,11.2727273 C1.45454545,10.6705455 1.94327273,10.1818182 2.54545455,10.1818182" id="Fill-6-Copy" fill-opacity="0.5"></path>
        </g>
    </g>
</svg>
