<?xml version="1.0" encoding="UTF-8" standalone="no"?>
<svg width="20px" height="20px" viewBox="0 0 20 20" version="1.1" xmlns="http://www.w3.org/2000/svg" xmlns:xlink="http://www.w3.org/1999/xlink">
    <!-- Generator: Sketch 48.2 (47327) - http://www.bohemiancoding.com/sketch -->
    <title>robot</title>
    <desc>Created with Sketch.</desc>
    <defs></defs>
    <g id="Page-1" stroke="none" stroke-width="1" fill="none" fill-rule="evenodd">
        <g id="robot">
            <g transform="translate(3.250000, 1.500000)">
                <path d="M9.60527273,8.03587273 L3.906,8.03587273 C3.20345455,8.03587273 2.63327273,7.46696364 2.63327273,6.76314545 L2.63327273,4.63641818 C2.63327273,3.93387273 3.20345455,3.36369091 3.906,3.36369091 L9.60527273,3.36369091 C10.3090909,3.36369091 10.878,3.93387273 10.878,4.63641818 L10.878,6.76314545 C10.878,7.46696364 10.3090909,8.03587273 9.60527273,8.03587273" id="Fill-1" fill="#CF63CF"></path>
                <path d="M9.11310909,13.0782909 L4.39892727,13.0782909 C3.77147273,13.0782909 3.26238182,12.5692 3.26238182,11.9404727 L3.26238182,11.0126545 C3.26238182,9.0832 4.82656364,7.51901818 6.75601818,7.51901818 C8.68547273,7.51901818 10.2496545,9.0832 10.2496545,11.0126545 L10.2496545,11.9404727 C10.2496545,12.5692 9.74056364,13.0782909 9.11310909,13.0782909" id="Fill-3" fill="#CF63CF"></path>
                <path d="M7.777,15.5218 C7.777,16.0843455 7.32009091,16.5425273 6.75627273,16.5425273 C6.19245455,16.5425273 5.73554545,16.0843455 5.73554545,15.5218 C5.73554545,14.9579818 6.19245455,14.4998 6.75627273,14.4998 C7.32009091,14.4998 7.777,14.9579818 7.777,15.5218" id="Fill-5" fill="#CF63CF"></path>
                <path d="M8.03052727,1.27450909 C8.03052727,1.9796 7.46034545,2.54978182 6.75652727,2.54978182 C6.05143636,2.54978182 5.48125455,1.9796 5.48125455,1.27450909 C5.48125455,0.570690909 6.05143636,0.000509090909 6.75652727,0.000509090909 C7.46034545,0.000509090909 8.03052727,0.570690909 8.03052727,1.27450909" id="Fill-8" fill="#CF63CF"></path>
                <path d="M6.75652727,15.5218 L6.75652727,1.2698" id="Stroke-11" stroke="#CF63CF" stroke-width="0.75"></path>
                <path d="M1.51161818,13.2809091 C1.51161818,10.3841818 3.8598,8.036 6.75652727,8.036 C9.65198182,8.036 12.0001636,10.3841818 12.0001636,13.2809091" id="Stroke-13" stroke="#CF63CF" stroke-linecap="round" stroke-linejoin="round"></path>
                <path d="M10.9663273,14.315 C10.9663273,13.7435455 11.4296,13.2815455 11.9997818,13.2815455 C12.5725091,13.2815455 13.0345091,13.7435455 13.0345091,14.315" id="Stroke-15" stroke="#CF63CF" stroke-linecap="round" stroke-linejoin="round"></path>
                <path d="M0.477527273,14.315 C0.477527273,13.7435455 0.939527273,13.2815455 1.51098182,13.2815455 C2.08243636,13.2815455 2.54570909,13.7435455 2.54570909,14.315" id="Stroke-17" stroke="#CF63CF" stroke-linecap="round" stroke-linejoin="round"></path>
                <path d="M8.75636364,6.40398182 L4.75490909,6.40398182 C4.36672727,6.40398182 4.05236364,6.08961818 4.05236364,5.70016364 C4.05236364,5.31198182 4.36672727,4.99634545 4.75490909,4.99634545 L8.75636364,4.99634545 C9.14581818,4.99634545 9.46145455,5.31198182 9.46145455,5.70016364 C9.46145455,6.08961818 9.14581818,6.40398182 8.75636364,6.40398182" id="Fill-19" fill="#FFFFFF"></path>
            </g>
        </g>
    </g>
</svg>