<svg width="40" height="40" viewBox="0 0 40 40" fill="none" xmlns="http://www.w3.org/2000/svg">
<path fill-rule="evenodd" clip-rule="evenodd" d="M8.7529 34.6025L4.5019 36.3805L6.2859 32.1445C7.5039 29.2535 9.1929 26.7225 11.3159 24.6075L31.0669 4.9295C31.9119 4.0875 33.7169 4.5205 35.0979 5.8965C36.4789 7.2725 36.9139 9.0705 36.0679 9.9125L16.3179 29.5905C14.1949 31.7055 11.6539 33.3885 8.7529 34.6025Z" fill="white"/>
<path d="M8.7529 34.6025L4.5019 36.3805L6.2859 32.1445C7.5039 29.2535 9.1929 26.7225 11.3159 24.6075L31.0669 4.9295C31.9119 4.0875 33.7169 4.5205 35.0979 5.8965C36.4789 7.2725 36.9139 9.0705 36.0679 9.9125L16.3179 29.5905C14.1949 31.7055 11.6539 33.3885 8.7529 34.6025" stroke="#0B8E69" stroke-linecap="round" stroke-linejoin="round"/>
<path d="M29.4092 6.1113C29.4092 6.1113 24.9602 3.7323 21.2082 11.8823C19.4742 15.6483 16.8582 13.4283 16.8582 13.4283" stroke="#0B8E69" stroke-linecap="round" stroke-linejoin="round"/>
<path fill-rule="evenodd" clip-rule="evenodd" d="M36.4209 8.8251C36.4209 9.2881 36.2799 9.6981 35.9879 9.9891L26.6529 19.2901C26.9349 18.9991 27.0639 18.6221 27.0639 18.1691C27.0639 17.2961 26.5559 16.2071 25.6569 15.3021C24.2949 13.9441 22.5099 13.5021 21.6549 14.3111L30.9899 5.0101C31.8339 4.1691 33.6409 4.6001 35.0249 5.9691C35.9229 6.8741 36.4209 7.9521 36.4209 8.8251Z" fill="#4C97FF"/>
<path d="M36.4209 8.8251C36.4209 9.2881 36.2799 9.6981 35.9879 9.9891L26.6529 19.2901C26.9349 18.9991 27.0639 18.6221 27.0639 18.1691C27.0639 17.2961 26.5559 16.2071 25.6569 15.3021C24.2949 13.9441 22.5099 13.5021 21.6549 14.3111L30.9899 5.0101C31.8339 4.1691 33.6409 4.6001 35.0249 5.9691C35.9229 6.8741 36.4209 7.9521 36.4209 8.8251" stroke="#0B8E69" stroke-linecap="round" stroke-linejoin="round"/>
<path fill-rule="evenodd" clip-rule="evenodd" d="M10.5146 33.7739C9.9416 34.0759 9.3576 34.3449 8.7506 34.6039L4.4996 36.3819L6.2856 32.1469C6.5436 31.5429 6.8146 30.9609 7.1186 30.3899C7.8096 30.5729 8.5676 31.0149 9.2276 31.6719C9.8866 32.3299 10.3296 33.0839 10.5146 33.7739Z" fill="#4C97FF"/>
<path d="M10.5146 33.7739C9.9416 34.0759 9.3576 34.3449 8.7506 34.6039L4.4996 36.3819L6.2856 32.1469C6.5436 31.5429 6.8146 30.9609 7.1186 30.3899C7.8096 30.5729 8.5676 31.0149 9.2276 31.6719C9.8866 32.3299 10.3296 33.0839 10.5146 33.7739" stroke="#0B8E69" stroke-linecap="round" stroke-linejoin="round"/>
<g opacity="0.15">
<path fill-rule="evenodd" clip-rule="evenodd" d="M36.498 8.7485C36.498 9.2115 36.357 9.6215 36.065 9.9125L16.323 29.5925C14.192 31.7045 11.65 33.3855 8.751 34.6035L4.5 36.3815L5.474 34.0645L7.399 33.2565C10.298 32.0385 12.84 30.3575 14.971 28.2455L34.713 8.5655C35.005 8.2745 35.145 7.8645 35.145 7.4015C35.145 6.7545 34.875 6.0005 34.366 5.2785C34.615 5.4505 34.864 5.6555 35.102 5.8925C36 6.7975 36.498 7.8755 36.498 8.7485Z" fill="#0B8E69"/>
<path d="M36.498 8.7485C36.498 9.2115 36.357 9.6215 36.065 9.9125L16.323 29.5925C14.192 31.7045 11.65 33.3855 8.751 34.6035L4.5 36.3815L5.474 34.0645L7.399 33.2565C10.298 32.0385 12.84 30.3575 14.971 28.2455L34.713 8.5655C35.005 8.2745 35.145 7.8645 35.145 7.4015C35.145 6.7545 34.875 6.0005 34.366 5.2785C34.615 5.4505 34.864 5.6555 35.102 5.8925C36 6.7975 36.498 7.8755 36.498 8.7485" stroke="#0B8E69" stroke-linecap="round" stroke-linejoin="round"/>
</g>
<path fill-rule="evenodd" clip-rule="evenodd" d="M18.4502 12.831C18.4502 13.33 18.0462 13.735 17.5462 13.735C17.0472 13.735 16.6412 13.33 16.6412 12.831C16.6412 12.331 17.0472 11.927 17.5462 11.927C18.0462 11.927 18.4502 12.331 18.4502 12.831Z" fill="#0B8E69" stroke="#0B8E69" stroke-linecap="round" stroke-linejoin="round"/>
</svg>
