<?xml version="1.0" encoding="UTF-8"?>
<svg width="20px" height="20px" viewBox="0 0 20 20" version="1.1" xmlns="http://www.w3.org/2000/svg" xmlns:xlink="http://www.w3.org/1999/xlink">
    <!-- Generator: Sketch 49.3 (51167) - http://www.bohemiancoding.com/sketch -->
    <title>marquee</title>
    <desc>Created with Sketch.</desc>
    <defs></defs>
    <g id="marquee" stroke="none" stroke-width="1" fill="none" fill-rule="evenodd">
        <path d="M4.5,4.18186116 L4.5,3 L5.68186116,3 L5.68186116,4.18186116 L4.5,4.18186116 Z M11.591167,4.18186116 L11.591167,3 L12.7730281,3 L12.7730281,4.18186116 L11.591167,4.18186116 Z M4.5,13.6367504 L4.5,12.4537074 L5.68186116,12.4537074 L5.68186116,13.6367504 L4.5,13.6367504 Z M9.22697189,6.54570166 L10.4100149,6.54570166 L10.4100149,7.72756282 L11.5918761,7.72756282 L11.5918761,8.90942398 L12.7737372,8.90942398 L12.7737372,10.0912851 L13.9555984,10.0912851 L13.9555984,11.2731463 L15.1362777,11.2731463 L15.1362777,12.4538256 L16.3181388,12.4538256 L16.3181388,13.6368686 L17.5,13.6368686 L17.5,14.8187298 L12.7737372,14.8187298 L12.7737372,16.0005909 L11.5918761,16.0005909 L11.5918761,17.1824521 L10.4100149,17.1824521 L10.4100149,18.3643132 L9.22697189,18.3643132 L9.22697189,6.54570166 Z M13.9548893,8.90930579 L13.9548893,7.72744463 L15.1367504,7.72744463 L15.1367504,8.90930579 L13.9548893,8.90930579 Z M6.86372232,4.18186116 L6.86372232,3 L8.04558348,3 L8.04558348,4.18186116 L6.86372232,4.18186116 Z M4.5,11.2730281 L4.5,10.091167 L5.68186116,10.091167 L5.68186116,11.2730281 L4.5,11.2730281 Z M13.9548893,4.18186116 L13.9548893,3 L15.1367504,3 L15.1367504,4.18186116 L13.9548893,4.18186116 Z M9.22744463,4.18186116 L9.22744463,3 L10.4104877,3 L10.4104877,4.18186116 L9.22744463,4.18186116 Z M4.5,8.90930579 L4.5,7.72744463 L5.68186116,7.72744463 L5.68186116,8.90930579 L4.5,8.90930579 Z M4.5,6.54558348 L4.5,5.36372232 L5.68186116,5.36372232 L5.68186116,6.54558348 L4.5,6.54558348 Z M13.9548893,6.54558348 L13.9548893,5.36372232 L15.1367504,5.36372232 L15.1367504,6.54558348 L13.9548893,6.54558348 Z M6.86372232,13.6367504 L6.86372232,12.4537074 L8.04558348,12.4537074 L8.04558348,13.6367504 L6.86372232,13.6367504 Z" id="Combined-Shape" fill="#575E75"></path>
    </g>
</svg>