<?xml version="1.0" encoding="UTF-8" standalone="no"?>
<svg width="20px" height="20px" viewBox="0 0 20 20" version="1.1" xmlns="http://www.w3.org/2000/svg" xmlns:xlink="http://www.w3.org/1999/xlink">
    <!-- Generator: Sketch 43.2 (39069) - http://www.bohemiancoding.com/sketch -->
    <title>group</title>
    <desc>Created with Sketch.</desc>
    <defs></defs>
    <g id="Page-1" stroke="none" stroke-width="1" fill="none" fill-rule="evenodd">
        <g id="group" stroke-width="0.75">
            <g id="group-icon" transform="translate(2.000000, 2.000000)">
                <rect id="Rectangle-2" stroke="#855CD6" fill="#FFFFFF" stroke-linecap="round" stroke-linejoin="round" x="0" y="0" width="3" height="3"></rect>
                <rect id="Rectangle-2-Copy-2" stroke="#855CD6" fill="#FFFFFF" stroke-linecap="round" stroke-linejoin="round" x="13" y="0" width="3" height="3"></rect>
                <rect id="Rectangle-2-Copy" stroke="#855CD6" fill="#FFFFFF" stroke-linecap="round" stroke-linejoin="round" x="0" y="13" width="3" height="3"></rect>
                <rect id="Rectangle-2-Copy-3" stroke="#855CD6" fill="#FFFFFF" stroke-linecap="round" stroke-linejoin="round" x="13" y="13" width="3" height="3"></rect>
                <path d="M1.5,3 L1.5,13" id="Line" stroke="#855CD6" stroke-linecap="square"></path>
                <path d="M14.5,3 L14.5,13" id="Line-Copy" stroke="#855CD6" stroke-linecap="square"></path>
                <path d="M13,1.5 L3,1.5" id="Line-Copy-2" stroke="#855CD6" stroke-linecap="square"></path>
                <path d="M13,14.5 L3,14.5" id="Line-Copy-3" stroke="#855CD6" stroke-linecap="square"></path>
                <g id="Group" transform="translate(8.000000, 8.000000) rotate(180.000000) translate(-8.000000, -8.000000) translate(4.000000, 4.000000)" stroke="#575E75">
                    <rect id="Rectangle-3-Copy" fill="#FFFFFF" transform="translate(5.500000, 5.500000) rotate(180.000000) translate(-5.500000, -5.500000) " x="3" y="3" width="5" height="5" rx="0.5"></rect>
                    <rect id="Rectangle-3" fill="#575E75" transform="translate(2.500000, 2.500000) rotate(180.000000) translate(-2.500000, -2.500000) " x="0" y="0" width="5" height="5" rx="0.5"></rect>
                </g>
            </g>
        </g>
    </g>
</svg>
