<?xml version="1.0" encoding="UTF-8"?>
<svg width="92px" height="128px" viewBox="0 0 92 128" version="1.1" xmlns="http://www.w3.org/2000/svg" xmlns:xlink="http://www.w3.org/1999/xlink">
    <!-- Generator: Sketch 50.2 (55047) - http://www.bohemiancoding.com/sketch -->
    <title>ev3-hub-illustration</title>
    <desc>Created with Sketch.</desc>
    <defs></defs>
    <g id="ev3-hub-illustration" stroke="none" stroke-width="1" fill="none" fill-rule="evenodd">
        <g id="EV3" transform="translate(1.000000, 2.000000)">
            <rect id="Rectangle-path" stroke="#7C87A5" stroke-width="0.86" fill="#FFFFFF" fill-rule="nonzero" stroke-linecap="round" stroke-linejoin="round" x="5.59" y="62.34" width="79.1" height="48.15"></rect>
            <path d="M5.59,110.48 L84.6904717,110.48 L84.69,122.48 C84.7007194,122.937906 84.5283567,123.381175 84.2111164,123.711555 C83.8938762,124.041935 83.4579637,124.232137 83,124.24 L7.31,124.24 C6.36007023,124.24 5.59,123.46993 5.59,122.52 L5.59,110.52 L5.59,110.48 Z" id="Shape" stroke="#7C87A5" stroke-width="0.86" fill="#E6E7E8" fill-rule="nonzero" stroke-linecap="round" stroke-linejoin="round"></path>
            <path d="M18.63,70.94 L10.74,70.94 C9.79007023,70.94 9.02,70.1699298 9.02,69.22 L9.02,62.34 L22.7800166,62.34 L22.78,66.78 C22.7820052,67.2369381 22.6021052,67.675894 22.28,68 L19.85,70.43 C19.5269089,70.7548405 19.0881552,70.9382539 18.63,70.94 Z" id="Shape" stroke="#231F20" stroke-width="3.44" fill="#231F20" fill-rule="nonzero" opacity="0.1" stroke-linecap="round" stroke-linejoin="round"></path>
            <path d="M2.15,17.63 L5.59,17.63 L5.59,103.63 L2.15,103.63 C1.20007023,103.63 0.43,102.85993 0.43,101.91 L0.43,19.35 C0.43,18.4000702 1.20007023,17.63 2.15,17.63 Z" id="Shape" stroke="#7C87A5" stroke-width="0.86" fill="#FFFFFF" fill-rule="nonzero" stroke-linecap="round" stroke-linejoin="round"></path>
            <path d="M84.69,17.63 L88.13,17.63 C89.0799298,17.63 89.85,18.4000702 89.85,19.35 L89.85,101.89 C89.85,102.83993 89.0799298,103.61 88.13,103.61 L84.69,103.61 L84.69,17.61 L84.69,17.63 Z" id="Shape" stroke="#7C87A5" stroke-width="0.86" fill="#FFFFFF" fill-rule="nonzero" stroke-linecap="round" stroke-linejoin="round"></path>
            <path d="M18.63,70.94 L10.74,70.94 C9.79007023,70.94 9.02,70.1699298 9.02,69.22 L9.02,62.34 L22.7800166,62.34 L22.78,66.78 C22.7820052,67.2369381 22.6021052,67.675894 22.28,68 L19.85,70.43 C19.5269089,70.7548405 19.0881552,70.9382539 18.63,70.94 Z" id="Shape" stroke="#7C87A5" stroke-width="0.86" fill="#E6E7E8" fill-rule="nonzero" stroke-linecap="round" stroke-linejoin="round"></path>
            <path d="M84.68,62.34 L5.58,62.34 L5.58,2.15 C5.58,1.20007023 6.35007023,0.43 7.3,0.43 L82.96,0.43 C83.9099298,0.43 84.68,1.20007023 84.68,2.15 L84.68,62.34 Z" id="Shape" stroke="#7C87A5" stroke-width="0.86" fill="#E6E7E8" fill-rule="nonzero" stroke-linecap="round" stroke-linejoin="round"></path>
            <rect id="Rectangle-path" fill="#414757" fill-rule="nonzero" x="12.04" y="10.32" width="66.2" height="38.69" rx="3.01"></rect>
            <path d="M75.23,10.75 C75.9211626,10.739283 76.5877188,11.0063651 77.0802486,11.4913754 C77.5727785,11.9763857 77.8500831,12.6387543 77.85,13.33 L77.85,46 C77.85,47.4248947 76.6948947,48.58 75.27,48.58 L15.04,48.58 C13.6151053,48.58 12.46,47.4248947 12.46,46 L12.46,13.33 C12.46,11.9051053 13.6151053,10.75 15.04,10.75 L75.23,10.75 Z M75.23,9.89 L15.04,9.89 C13.1424201,9.89549231 11.6054923,11.4324201 11.6,13.33 L11.6,46 C11.6054923,47.8975799 13.1424201,49.4345077 15.04,49.44 L75.23,49.44 C77.1275799,49.4345077 78.6645077,47.8975799 78.67,46 L78.67,13.33 C78.6645077,11.4324201 77.1275799,9.89549231 75.23,9.89 Z" id="Shape" fill="#414757" fill-rule="nonzero"></path>
            <rect id="Rectangle-path" fill="#E6E7E8" fill-rule="nonzero" opacity="0.5" x="15.91" y="12.47" width="58.46" height="34.39" rx="1.72"></rect>
            <path d="M7.31,0.43 L83,0.43 C83.9499298,0.43 84.72,1.20007023 84.72,2.15 L84.72,3.87 L5.59,3.87 L5.59,2.15 C5.59,1.20007023 6.36007023,0.43 7.31,0.43 Z" id="Shape" stroke="#231F20" stroke-width="0.86" fill="#231F20" fill-rule="nonzero" opacity="0.1" stroke-linecap="round" stroke-linejoin="round"></path>
            <path d="M7.31,120.8 L82.97,120.8 C83.9199298,120.8 84.69,121.57007 84.69,122.52 L84.69,124.24 L5.59,124.24 L5.59,122.52 C5.59,121.57007 6.36007023,120.8 7.31,120.8 Z" id="Shape" stroke="#231F20" stroke-width="0.86" fill="#231F20" fill-rule="nonzero" opacity="0.1" stroke-linecap="round" stroke-linejoin="round" transform="translate(45.140000, 122.520000) rotate(180.000000) translate(-45.140000, -122.520000) "></path>
            <rect id="Rectangle-path" stroke="#CC4C23" stroke-width="0.86" fill="#F15A29" fill-rule="nonzero" stroke-linecap="round" stroke-linejoin="round" x="74.37" y="113.92" width="6.88" height="6.88"></rect>
            <rect id="Rectangle-path" fill="#414757" fill-rule="nonzero" x="44.28" y="48.58" width="1.72" height="13.76"></rect>
            <g id="Group" opacity="0.35" transform="translate(20.000000, 62.000000)" fill="#414757" fill-rule="nonzero">
                <path d="M19.97,37.31 C19.7449963,37.3083672 19.5295939,37.2186162 19.37,37.06 L9.05,26.74 C8.88894739,26.577947 8.79899741,26.3584691 8.8,26.13 L8.8,25.27 L6.22,25.27 C4.63609993,25.3464491 3.13867654,24.5449575 2.32383044,23.1845863 C1.50898435,21.8242152 1.50898435,20.1257848 2.32383044,18.7654137 C3.13867654,17.4050425 4.63609993,16.6035509 6.22,16.68 L8.85,16.68 L8.85,15.82 C8.84899741,15.5915309 8.93894739,15.372053 9.1,15.21 L19.42,4.89 C19.5795939,4.73138377 19.7949963,4.64163278 20.02,4.64 L30.34,4.64 C30.5684691,4.63899741 30.787947,4.72894739 30.95,4.89 L41.27,15.21 C41.4310526,15.372053 41.5210026,15.5915309 41.52,15.82 L41.52,16.65 L44.1,16.65 C46.4709247,16.6499936 48.3944862,18.5690818 48.4,20.94 C48.4053493,22.0820624 47.9540329,23.178895 47.146464,23.986464 C46.338895,24.7940329 45.2420624,25.2453493 44.1,25.24 L41.52,25.24 L41.52,26.1 C41.5210026,26.3284691 41.4310526,26.547947 41.27,26.71 L30.95,37.03 C30.787947,37.1910526 30.5684691,37.2810026 30.34,37.28 L19.97,37.31 Z" id="Shape"></path>
                <path d="M30.29,5.5 L40.61,15.82 L40.61,17.53 L44.05,17.53 C45.9498595,17.53 47.49,19.0701405 47.49,20.97 C47.49,22.8698595 45.9498595,24.41 44.05,24.41 L40.61,24.41 L40.61,26.13 L30.29,36.45 L19.98,36.45 L9.66,26.13 L9.66,24.41 L6.22,24.41 C4.32014046,24.41 2.78,22.8698595 2.78,20.97 C2.78,19.0701405 4.32014046,17.53 6.22,17.53 L9.66,17.53 L9.66,15.82 L19.98,5.5 L30.29,5.5 Z M30.29,3.78 L19.98,3.78 C19.5230619,3.77799483 19.084106,3.95789477 18.76,4.28 L8.44,14.65 C8.11789477,14.974106 7.93799483,15.4130619 7.94,15.87 L6.22,15.87 C4.32413305,15.7864784 2.53541816,16.7503403 1.5625499,18.3797005 C0.589681635,20.0090607 0.589681635,22.0409393 1.5625499,23.6702995 C2.53541816,25.2996597 4.32413305,26.2635216 6.22,26.18 L7.94,26.18 C7.93799483,26.6369381 8.11789477,27.075894 8.44,27.4 L18.76,37.65 C19.084106,37.9721052 19.5230619,38.1520052 19.98,38.15 L30.29,38.15 C30.7469381,38.1520052 31.185894,37.9721052 31.51,37.65 L41.85,27.35 C42.1721052,27.025894 42.3520052,26.5869381 42.35,26.13 L44.07,26.13 C45.9658669,26.2135216 47.7545818,25.2496597 48.7274501,23.6202995 C49.7003184,21.9909393 49.7003184,19.9590607 48.7274501,18.3297005 C47.7545818,16.7003403 45.9658669,15.7364784 44.07,15.82 L42.35,15.82 C42.3390134,15.3804257 42.1600927,14.9617512 41.85,14.65 L31.53,4.33 C31.205894,4.00789477 30.7669381,3.82799483 30.31,3.83 L30.29,3.78 Z" id="Shape"></path>
                <rect id="Rectangle-path" x="24.28" y="0.34" width="1.72" height="13.76"></rect>
            </g>
            <path d="M36.54,80.39 L36.54,78.17 C36.541848,77.9393746 36.4476532,77.718379 36.28,77.56 L33.7,74.98 C33.3682771,74.6448733 33.3682771,74.1051267 33.7,73.77 L39.7,67.77 C39.862053,67.6089474 40.0815309,67.5189974 40.31,67.52 L49.92,67.52 C50.1450037,67.5216328 50.3604061,67.6113838 50.52,67.77 L56.52,73.77 C56.681842,73.9297167 56.7729447,74.1476186 56.7729447,74.375 C56.7729447,74.6023814 56.681842,74.8202833 56.52,74.98 L53.94,77.56 C53.7789474,77.722053 53.6889974,77.9415309 53.69,78.17 L53.69,80.39 C53.6927092,80.618906 53.6029726,80.839228 53.4411003,81.0011003 C53.279228,81.1629726 53.058906,81.2527092 52.83,81.25 L51.15,81.25 C50.6750351,81.25 50.29,80.8649649 50.29,80.39 L50.29,79.53 C50.2844998,78.5839778 49.5160382,77.819984 48.57,77.82 L41.69,77.82 C40.7478647,77.8254618 39.9854618,78.5878647 39.98,79.53 L39.98,80.39 C39.98,80.8649649 39.5949649,81.25 39.12,81.25 L37.4,81.25 C37.171094,81.2527092 36.950772,81.1629726 36.7888997,81.0011003 C36.6270274,80.839228 36.5372908,80.618906 36.54,80.39 Z" id="Shape" stroke="#7C87A5" stroke-width="0.86" fill="#E6E7E8" fill-rule="nonzero" stroke-linecap="round" stroke-linejoin="round"></path>
            <path d="M53.73,85.55 L53.73,87.78 C53.7316328,88.0050037 53.8213838,88.2204061 53.98,88.38 L56.56,90.96 C56.7224395,91.1214323 56.8137822,91.3409869 56.8137822,91.57 C56.8137822,91.7990131 56.7224395,92.0185677 56.56,92.18 L50.56,98.18 C50.4004061,98.3386162 50.1850037,98.4283672 49.96,98.43 L40.33,98.43 C40.1015309,98.4310026 39.882053,98.3410526 39.72,98.18 L33.72,92.18 C33.3923616,91.8393253 33.3923616,91.3006747 33.72,90.96 L36.3,88.38 C36.4651191,88.2240046 36.5590885,88.007152 36.56,87.78 L36.56,85.55 C36.56,85.0750351 36.9450351,84.69 37.42,84.69 L39.14,84.69 C39.6127088,84.6954029 39.9945971,85.0772912 40,85.55 L40,86.41 C39.999984,87.3560382 40.7639778,88.1244998 41.71,88.13 L48.59,88.13 C49.5399298,88.13 50.31,87.3599298 50.31,86.41 L50.31,85.55 C50.3154029,85.0772912 50.6972912,84.6954029 51.17,84.69 L52.85,84.69 C53.0815314,84.6846141 53.3054492,84.7728377 53.4710824,84.9347064 C53.6367155,85.0965751 53.7300626,85.3184059 53.73,85.55 Z" id="Shape" stroke="#7C87A5" stroke-width="0.86" fill="#E6E7E8" fill-rule="nonzero" stroke-linecap="round" stroke-linejoin="round"></path>
            <rect id="Rectangle-path" fill="#7C87A5" fill-rule="nonzero" x="41.7" y="79.53" width="6.88" height="6.88" rx="0.86"></rect>
            <path d="M26.22,79.53 L32.22,79.53 C32.6949649,79.53 33.08,79.9150351 33.08,80.39 L33.08,85.55 C33.08,86.0249649 32.6949649,86.41 32.22,86.41 L26.22,86.41 C24.3317948,86.4100718 22.7964669,84.8881334 22.78,83 C22.78,82.0876553 23.1424275,81.2126778 23.7875527,80.5675527 C24.4326778,79.9224275 25.3076553,79.56 26.22,79.56 L26.22,79.53 Z" id="Shape" stroke="#7C87A5" stroke-width="0.86" fill="#E6E7E8" fill-rule="nonzero" stroke-linecap="round" stroke-linejoin="round"></path>
            <path d="M60.63,79.54 L66.63,79.54 C67.1049649,79.54 67.49,79.9250351 67.49,80.4 L67.49,85.56 C67.49,86.0349649 67.1049649,86.42 66.63,86.42 L60.63,86.42 C58.7301405,86.42 57.19,84.8798595 57.19,82.98 C57.19,81.0801405 58.7301405,79.54 60.63,79.54 Z" id="Shape" stroke="#7C87A5" stroke-width="0.86" fill="#E6E7E8" fill-rule="nonzero" stroke-linecap="round" stroke-linejoin="round" transform="translate(62.340000, 82.980000) rotate(-180.000000) translate(-62.340000, -82.980000) "></path>
            <path d="M36.54,62.34 L46.86,62.34" id="Shape" stroke="#7C87A5" stroke-width="0.86" stroke-linecap="round" stroke-linejoin="round"></path>
            <rect id="Rectangle-path" stroke="#231F20" stroke-width="0.86" fill="#231F20" fill-rule="nonzero" opacity="0.1" stroke-linecap="round" stroke-linejoin="round" x="5.59" y="58.9" width="79.1" height="3.44"></rect>
            <path d="M5.59,110.48 L84.6904717,110.48 L84.69,122.48 C84.7007194,122.937906 84.5283567,123.381175 84.2111164,123.711555 C83.8938762,124.041935 83.4579637,124.232137 83,124.24 L7.31,124.24 C6.36007023,124.24 5.59,123.46993 5.59,122.52 L5.59,110.52 L5.59,110.48 Z" id="Shape" stroke="#231F20" stroke-width="0.86" fill="#231F20" fill-rule="nonzero" opacity="0.1" stroke-linecap="round" stroke-linejoin="round"></path>
            <path d="M9.64,115.14 L9.64,115.84 C9.64,115.933888 9.71611159,116.01 9.81,116.01 L13.98,116.01 C14.0738884,116.01 14.15,116.086112 14.15,116.18 L14.15,116.88 C14.152973,116.925934 14.1360193,116.970923 14.1034712,117.003471 C14.070923,117.036019 14.0259339,117.052973 13.98,117.05 L9.85,117.05 C9.80312588,117.049919 9.7582983,117.069196 9.72611338,117.103274 C9.69392845,117.137352 9.67724262,117.183207 9.68,117.23 L9.68,117.92 C9.67724262,117.966793 9.69392845,118.012648 9.72611338,118.046726 C9.7582983,118.080804 9.80312588,118.100081 9.85,118.1 L14.02,118.1 C14.0659339,118.097027 14.110923,118.113981 14.1434712,118.146529 C14.1760193,118.179077 14.192973,118.224066 14.19,118.27 L14.19,118.97 C14.19,119.063888 14.1138884,119.14 14.02,119.14 L8.77,119.14 C8.67436656,119.140148 8.59531286,119.065486 8.59,118.97 L8.59,114.1 C8.58991883,114.053126 8.60919559,114.008298 8.64327374,113.976113 C8.6773519,113.943928 8.72320698,113.927243 8.77,113.93 L13.98,113.93 C14.0259339,113.927027 14.070923,113.943981 14.1034712,113.976529 C14.1360193,114.009077 14.152973,114.054066 14.15,114.1 L14.15,114.79 C14.1527574,114.836793 14.1360715,114.882648 14.1038866,114.916726 C14.0717017,114.950804 14.0268741,114.970081 13.98,114.97 L9.85,114.97 C9.79851265,114.957513 9.74414718,114.969744 9.70296883,115.003079 C9.66179047,115.036414 9.63850745,115.087041 9.64,115.14 Z" id="Shape" fill="#FFFFFF" fill-rule="nonzero"></path>
            <path d="M22.28,114.18 L19.68,119.05 C19.6476047,119.102602 19.5916581,119.13617 19.53,119.14 L18.53,119.14 C18.4683419,119.13617 18.4123953,119.102602 18.38,119.05 L15.78,114.18 C15.7509052,114.125713 15.7534497,114.059934 15.7866513,114.008057 C15.8198529,113.956179 15.8785178,113.926318 15.94,113.93 L16.76,113.93 C16.8234253,113.927592 16.8822771,113.962904 16.91,114.02 L18.7,117.37 C18.7661392,117.493522 18.8948854,117.570626 19.035,117.570626 C19.1751146,117.570626 19.3038608,117.493522 19.37,117.37 L21.16,114.02 C21.1877229,113.962904 21.2465747,113.927592 21.31,113.93 L22.13,113.93 C22.1897147,113.93 22.2450508,113.961331 22.2757738,114.012536 C22.3064967,114.063741 22.308101,114.127311 22.28,114.18 Z" id="Shape" fill="#FFFFFF" fill-rule="nonzero"></path>
            <path d="M28.85,113.93 C28.896793,113.927243 28.9426481,113.943928 28.9767263,113.976113 C29.0108044,114.008298 29.0300812,114.053126 29.03,114.1 L29.03,118.97 C29.0250298,119.061751 28.9517509,119.13503 28.86,119.14 L23.62,119.14 C23.5282491,119.13503 23.4549702,119.061751 23.45,118.97 L23.45,117.97 C23.4549702,117.878249 23.5282491,117.80497 23.62,117.8 L24.32,117.8 C24.4117509,117.80497 24.4850298,117.878249 24.49,117.97 C24.49,118.069411 24.5705887,118.15 24.67,118.15 L27.79,118.15 C27.8894113,118.15 27.97,118.069411 27.97,117.97 L27.97,117.28 C27.97,117.232261 27.9510358,117.186477 27.9172792,117.152721 C27.8835227,117.118964 27.837739,117.1 27.79,117.1 L26.4,117.1 C26.3061116,117.1 26.23,117.023888 26.23,116.93 L26.23,116.23 C26.2349702,116.138249 26.3082491,116.06497 26.4,116.06 L27.85,116.06 C27.9438884,116.06 28.02,115.983888 28.02,115.89 L28.02,115.19 C28.02,115.096112 27.9438884,115.02 27.85,115.02 L24.67,115.02 C24.5743666,115.019852 24.4953129,115.094514 24.49,115.19 C24.4901477,115.285633 24.4154859,115.364687 24.32,115.37 L23.63,115.37 C23.5831259,115.370081 23.5382983,115.350804 23.5061134,115.316726 C23.4739285,115.282648 23.4572426,115.236793 23.46,115.19 L23.46,114.19 C23.457027,114.144066 23.4739807,114.099077 23.5065288,114.066529 C23.539077,114.033981 23.5840661,114.017027 23.63,114.02 L28.85,113.93 Z" id="Shape" fill="#FFFFFF" fill-rule="nonzero"></path>
        </g>
    </g>
</svg>