<?xml version="1.0" encoding="UTF-8"?>
<svg width="20px" height="20px" viewBox="0 0 20 20" version="1.1" xmlns="http://www.w3.org/2000/svg" xmlns:xlink="http://www.w3.org/1999/xlink">
    <!-- Generator: Sketch 52.2 (67145) - http://www.bohemiancoding.com/sketch -->
    <title>Extensions/Connection/Wifi</title>
    <desc>Created with Sketch.</desc>
    <defs>
        <path d="M14.2588749,9.82321433 C14.7290964,10.2624212 14.7491059,10.9837611 14.3189032,11.4539826 C14.0998,11.6940957 13.7886534,11.824157 13.4785073,11.824157 C13.1983753,11.824157 12.9182434,11.7141051 12.6981397,11.5130104 C11.2274469,10.1433652 8.77729262,10.1233557 7.2855899,11.4539826 C6.80536367,11.8741805 6.08502433,11.8341617 5.65482166,11.3539354 C5.23462371,10.8837139 5.27564304,10.1533699 5.7548688,9.73317192 C6.91541551,8.70268647 8.40611777,8.13241782 9.9568483,8.13241782 C11.5576024,8.13241782 13.0883235,8.73270061 14.2588749,9.82321433 Z M12.0380287,14.4151776 C12.0380287,15.4766776 11.1676187,16.3460872 10.1071191,16.3460872 C9.03661479,16.3460872 8.16620475,15.4766776 8.16620475,14.4151776 C8.16620475,13.3446733 9.03661479,12.4752637 10.1071191,12.4752637 C11.1676187,12.4752637 12.0380287,13.3446733 12.0380287,14.4151776 Z M17.6500725,6.11146577 C18.101285,6.55067268 18.1212945,7.27201249 17.6800866,7.7322293 C17.4509787,7.97234241 17.1498368,8.08239426 16.8506959,8.08239426 C16.5595588,8.08239426 16.2704225,7.98234712 16.0493184,7.76124296 C14.4095459,6.18149877 12.2385232,5.30008354 9.95744858,5.30008354 C7.70638813,5.30008354 5.57538424,6.15148463 3.93461129,7.69221044 C3.47339402,8.12241311 2.74405043,8.10240368 2.3128473,7.64218688 C1.87263992,7.18197008 1.90365453,6.45162602 2.36387134,6.01041817 C4.42384176,4.0705043 7.1251143,3 9.95744858,3 C12.8378055,3 15.5690922,4.11052315 17.6500725,6.11146577 Z" id="path-1"></path>
    </defs>
    <g id="Extensions/Connection/Wifi" stroke="none" stroke-width="1" fill="none" fill-rule="evenodd">
        <mask id="mask-2" fill="white">
            <use xlink:href="#path-1"></use>
        </mask>
        <use id="wifi" fill="#4C97FF" xlink:href="#path-1"></use>
        <g id="Color/1_Blue" mask="url(#mask-2)" fill="#575E75">
            <g id="Color/Gray">
                <g id="Color">
                    <rect x="0" y="0" width="20" height="20"></rect>
                </g>
            </g>
        </g>
    </g>
</svg>