<svg width="40" height="40" viewBox="0 0 40 40" fill="none" xmlns="http://www.w3.org/2000/svg">
<path d="M8 5C5.79086 5 4 6.79086 4 9V17C4 19.2091 5.79086 21 8 21H8.25277C8.01648 22.1728 7.59283 22.7524 7.30423 23.1473C7.12651 23.3904 7 23.5635 7 23.7619C7 24.4286 7.66667 24.4286 7.66667 24.4286C8.61324 24.4286 11.5813 23.2623 13.4097 21H20C22.2091 21 24 19.2091 24 17V9C24 6.79086 22.2091 5 20 5H8Z" fill="white" stroke="#0B8E69"/>
<path fill-rule="evenodd" clip-rule="evenodd" d="M13.4218 7.91302C13.5521 7.80153 13.7239 7.75 13.9067 7.75C14.0928 7.75 14.267 7.80036 14.3994 7.9115C14.5354 8.02561 14.6067 8.18748 14.6067 8.36216V9.52841H18.7036C18.8799 9.52841 19.0272 9.61017 19.1229 9.73957C19.2134 9.86201 19.25 10.0146 19.25 10.1626C19.25 10.3136 19.2147 10.4702 19.1293 10.5971C19.0395 10.7306 18.8927 10.8297 18.7036 10.8297H17.1012C16.6608 12.2802 15.9482 13.6381 14.927 14.7819C15.0606 14.8916 15.189 14.9921 15.3213 15.0826L15.3279 15.0871C16.3219 15.814 17.5472 16.385 18.7351 16.7629C19.0395 16.859 19.2282 17.1036 19.2282 17.4073C19.2282 17.4936 19.2112 17.577 19.1806 17.6561C19.132 17.8055 19.0555 17.9345 18.9428 18.0265C18.8251 18.1226 18.6874 18.1624 18.55 18.1624C18.4481 18.1624 18.3427 18.1477 18.226 18.1047C16.7997 17.6359 15.5777 17.0201 14.433 16.1225L14.4309 16.1208C14.4142 16.1074 14.3975 16.0941 14.3809 16.0807C14.2391 15.9673 14.0975 15.8538 13.9592 15.7335C13.8055 15.8657 13.6522 15.9898 13.4867 16.1141C12.2772 17.0323 11.123 17.6027 9.7455 18.1139L9.73817 18.1166C9.64781 18.147 9.55486 18.1624 9.46112 18.1624C9.31982 18.1624 9.17991 18.1267 9.05858 18.042C8.93808 17.9579 8.85251 17.8372 8.79947 17.6945C8.76726 17.613 8.75 17.5278 8.75 17.4402C8.75 17.1207 8.97641 16.8921 9.23884 16.7903L9.24949 16.7862C10.4679 16.3765 11.614 15.8515 12.8797 14.866C12.9149 14.835 12.9509 14.8055 12.9854 14.7779C11.9845 13.6337 11.2834 12.2689 10.8442 10.8297H9.3075C9.11622 10.8297 8.96687 10.7336 8.87583 10.5946C8.79144 10.4657 8.76088 10.3087 8.76088 10.1626C8.76088 10.0199 8.79235 9.86674 8.8821 9.74212C8.97906 9.60748 9.1291 9.52841 9.3075 9.52841H13.2179V8.36216C13.2179 8.18805 13.2886 8.027 13.4218 7.91302ZM12.2386 10.8297C12.6091 11.9316 13.2056 12.9588 13.9626 13.8377C14.7257 12.9593 15.3051 11.9389 15.6493 10.8297H12.2386Z" fill="#4C97FF"/>
<path fill-rule="evenodd" clip-rule="evenodd" d="M32 16C34.2091 16 36 17.7909 36 20V28C36 30.2091 34.2091 32 32 32H31.7472C31.9835 33.1728 32.4072 33.7524 32.6958 34.1473C32.8735 34.3904 33 34.5635 33 34.7619C33 35.4286 32.3333 35.4286 32.3333 35.4286C31.3868 35.4286 28.4187 34.2623 26.5903 32H20C17.7909 32 16 30.2091 16 28V20C16 17.7909 17.7909 16 20 16H32Z" fill="white"/>
<path d="M31.7472 32L31.2571 32.0988L31.1364 31.5H31.7472V32ZM32.6958 34.1473L33.0994 33.8522H33.0994L32.6958 34.1473ZM26.5903 32V31.5H26.8291L26.9792 31.6857L26.5903 32ZM35.5 20C35.5 18.067 33.933 16.5 32 16.5V15.5C34.4853 15.5 36.5 17.5147 36.5 20H35.5ZM35.5 28V20H36.5V28H35.5ZM32 31.5C33.933 31.5 35.5 29.933 35.5 28H36.5C36.5 30.4853 34.4853 32.5 32 32.5V31.5ZM31.7472 31.5H32V32.5H31.7472V31.5ZM32.2921 34.4423C31.9838 34.0206 31.5138 33.3727 31.2571 32.0988L32.2374 31.9012C32.4533 32.9729 32.8305 33.4843 33.0994 33.8522L32.2921 34.4423ZM32.5 34.7619C32.5 34.7755 32.5061 34.7666 32.4758 34.7113C32.441 34.6475 32.3869 34.5721 32.2921 34.4423L33.0994 33.8522C33.1823 33.9656 33.2804 34.0983 33.3532 34.2315C33.4307 34.3731 33.5 34.55 33.5 34.7619H32.5ZM32.3333 35.4286C32.3333 34.9286 32.3331 34.9286 32.3329 34.9286C32.3328 34.9286 32.3325 34.9286 32.3324 34.9286C32.3321 34.9286 32.3318 34.9286 32.3315 34.9286C32.3309 34.9286 32.3304 34.9286 32.3298 34.9286C32.3288 34.9286 32.3279 34.9286 32.3272 34.9286C32.3257 34.9286 32.3247 34.9287 32.3242 34.9287C32.3231 34.9287 32.324 34.9287 32.3264 34.9285C32.3313 34.9282 32.3416 34.9272 32.3553 34.925C32.3851 34.92 32.4171 34.911 32.4431 34.898C32.4671 34.886 32.4759 34.8759 32.4798 34.87C32.4816 34.8672 32.5 34.8411 32.5 34.7619H33.5C33.5 35.0161 33.435 35.2399 33.3119 35.4247C33.1908 35.6063 33.0329 35.7211 32.8903 35.7925C32.7496 35.8628 32.6149 35.8955 32.5197 35.9114C32.4709 35.9195 32.4291 35.9237 32.3976 35.926C32.3818 35.9271 32.3683 35.9278 32.3575 35.9281C32.3521 35.9283 32.3473 35.9284 32.3433 35.9285C32.3413 35.9285 32.3394 35.9285 32.3378 35.9286C32.337 35.9286 32.3362 35.9286 32.3354 35.9286C32.3351 35.9286 32.3347 35.9286 32.3343 35.9286C32.3342 35.9286 32.3339 35.9286 32.3338 35.9286C32.3336 35.9286 32.3333 35.9286 32.3333 35.4286ZM26.9792 31.6857C27.8397 32.7504 28.9791 33.5683 30.0258 34.1204C30.5475 34.3956 31.0386 34.6007 31.45 34.736C31.8727 34.875 32.176 34.9286 32.3333 34.9286V35.9286C32.0173 35.9286 31.5947 35.8363 31.1376 35.686C30.669 35.5319 30.1264 35.3041 29.5592 35.0049C28.4281 34.4083 27.1693 33.5119 26.2015 32.3143L26.9792 31.6857ZM20 31.5H26.5903V32.5H20V31.5ZM16.5 28C16.5 29.933 18.067 31.5 20 31.5V32.5C17.5147 32.5 15.5 30.4853 15.5 28H16.5ZM16.5 20V28H15.5V20H16.5ZM20 16.5C18.067 16.5 16.5 18.067 16.5 20H15.5C15.5 17.5147 17.5147 15.5 20 15.5V16.5ZM32 16.5H20V15.5H32V16.5Z" fill="#0B8E69"/>
<path fill-rule="evenodd" clip-rule="evenodd" d="M24.9226 25.0201H27.043L26.0115 22.0172H25.9885L24.9226 25.0201ZM25.0946 20H26.9398L30 28.1834H28.1318L27.5129 26.361H24.4527L23.8109 28.1834H22L25.0946 20Z" fill="black"/>
<path fill-rule="evenodd" clip-rule="evenodd" d="M33.033 12.8763C32.8335 13.0713 32.5635 13.1813 32.283 13.1813C32.0034 13.1813 31.7334 13.0713 31.5329 12.8763L28.8784 10.2162C28.5734 9.91122 28.4834 9.45621 28.6484 9.0612C28.8134 8.66619 29.1934 8.41119 29.6234 8.41119H30.5784C30.5534 8.18119 30.4884 7.92118 30.3784 7.64618C30.3439 7.56617 30.3084 7.48617 30.2684 7.40617C30.2134 7.31617 30.2189 7.29117 30.1434 7.18117C30.0234 7.00116 29.9134 6.86616 29.7829 6.71116C29.5184 6.42615 29.1984 6.18115 28.8584 6.00115C28.5134 5.82114 28.1534 5.71114 27.8334 5.65114C27.5184 5.59614 27.2284 5.59114 27.0584 5.59114C26.9734 5.58614 26.8634 5.60614 26.8084 5.61114C26.7484 5.61614 26.7134 5.62114 26.7134 5.62114C26.3583 5.65614 26.0383 5.39614 26.0033 5.04113C25.9733 4.74112 26.1483 4.47112 26.4133 4.37112C26.4133 4.37112 26.4483 4.35612 26.5033 4.33612C26.5683 4.31612 26.6284 4.28112 26.7684 4.24112C27.0484 4.15611 27.4034 4.06611 27.8684 4.02111C28.3284 3.98111 28.8834 3.99111 29.4689 4.11111C30.0534 4.23612 30.6684 4.47112 31.2384 4.81113C31.5084 4.98613 31.7984 5.19113 32.0234 5.39114C32.1234 5.46614 32.2935 5.63614 32.3935 5.74114C32.5085 5.86114 32.6135 5.98115 32.719 6.10615C33.1235 6.60616 33.4235 7.14617 33.6185 7.63618C33.7335 7.91618 33.8135 8.18119 33.8735 8.41119H34.9435C35.3735 8.41119 35.7535 8.66619 35.9185 9.0612C36.0835 9.45621 35.9935 9.91122 35.6885 10.2162L33.033 12.8763Z" fill="black"/>
<path fill-rule="evenodd" clip-rule="evenodd" d="M6.96704 27.125C7.16654 26.93 7.43654 26.82 7.71705 26.82C7.99655 26.82 8.26656 26.93 8.46706 27.125L11.1216 29.7851C11.4266 30.0901 11.5166 30.5451 11.3516 30.9401C11.1866 31.3351 10.8066 31.5901 10.3766 31.5901H9.42158C9.44658 31.8201 9.51158 32.0801 9.62158 32.3551C9.65608 32.4351 9.69158 32.5151 9.73158 32.5951C9.78659 32.6851 9.78109 32.7101 9.85659 32.8201C9.97659 33.0001 10.0866 33.1351 10.2171 33.2901C10.4816 33.5751 10.8016 33.8201 11.1416 34.0001C11.4866 34.1801 11.8466 34.2901 12.1666 34.3501C12.4816 34.4051 12.7716 34.4101 12.9416 34.4101C13.0266 34.4151 13.1366 34.3951 13.1916 34.3901C13.2516 34.3851 13.2866 34.3801 13.2866 34.3801C13.6417 34.3451 13.9617 34.6051 13.9967 34.9602C14.0267 35.2602 13.8517 35.5302 13.5867 35.6302C13.5867 35.6302 13.5517 35.6452 13.4967 35.6652C13.4317 35.6852 13.3716 35.7202 13.2316 35.7602C12.9516 35.8452 12.5966 35.9352 12.1316 35.9802C11.6716 36.0202 11.1166 36.0102 10.5311 35.8902C9.94659 35.7652 9.33158 35.5302 8.76157 35.1902C8.49156 35.0152 8.20156 34.8101 7.97655 34.6101C7.87655 34.5351 7.70655 34.3651 7.60655 34.2601C7.49154 34.1401 7.38654 34.0201 7.28104 33.8951C6.87653 33.3951 6.57653 32.8551 6.38153 32.3651C6.26652 32.0851 6.18652 31.8201 6.12652 31.5901H5.0565C4.62649 31.5901 4.24649 31.3351 4.08148 30.9401C3.91648 30.5451 4.00648 30.0901 4.31149 29.7851L6.96704 27.125Z" fill="black"/>
</svg>
