<?xml version="1.0" encoding="UTF-8"?>
<svg width="100px" height="100px" viewBox="0 0 100 100" version="1.1" xmlns="http://www.w3.org/2000/svg" xmlns:xlink="http://www.w3.org/1999/xlink">
    <!-- Generator: Sketch 51.2 (57519) - http://www.bohemiancoding.com/sketch -->
    <title>Artboard</title>
    <desc>Created with Sketch.</desc>
    <defs>
        <path d="M63.1539006,65.6857098 C62.40142,65.6857098 61.6278419,65.4877384 60.9245891,65.0705843 C58.8359282,63.8261925 58.1397079,61.1182262 59.3774329,59.018315 C61.7333299,55.0023232 61.7333299,50.0247559 59.3774329,46.0158346 C58.1397079,43.9088529 58.8359282,41.2008866 60.9245891,39.9564948 C63.0343476,38.7262438 65.7207734,39.4191438 66.9444333,41.5119846 C70.9318768,48.2995764 70.9318768,56.7275028 66.9444333,63.5150946 C66.12866,64.9150354 64.6588616,65.6857098 63.1539006,65.6857098 Z M76.2831813,72.7766221 C75.5307008,72.7766221 74.7500901,72.5786507 74.0538698,72.1614966 C71.965209,70.9171048 71.2689887,68.2091385 72.5067136,66.1092273 C77.4365159,57.7237233 77.4365159,47.3019418 72.5067136,38.9235082 C71.2689887,36.823597 71.965209,34.1085603 74.0538698,32.8641685 C76.1495632,31.6409879 78.835989,32.3268175 80.073714,34.4196583 C86.6420953,45.5767622 86.6420953,59.4489029 80.073714,70.6060068 C79.2509082,72.0059476 77.7881423,72.7766221 76.2831813,72.7766221 Z M51.892643,30.8929387 L51.892643,74.1002025 C51.892643,79.219178 45.8587338,81.8988626 42.0963312,78.4485035 L33.9737611,70.9892229 C31.0974571,68.3519607 27.3491195,66.8883863 23.4530989,66.8883863 L22.0325282,66.8883863 C18.1505726,66.8883863 15,63.7279138 15,59.8179782 L15,45.2529375 C15,41.3500723 18.1505726,38.1825294 22.0325282,38.1825294 L23.3757411,38.1825294 C27.2717617,38.1825294 31.0200993,36.718955 33.8964033,34.0816927 L42.0963312,26.5517081 C45.8587338,23.101349 51.892643,25.7810337 51.892643,30.8929387 Z" id="path-1"></path>
    </defs>
    <g id="Artboard" stroke="none" stroke-width="1" fill="none" fill-rule="evenodd">
        <g id="Editor-Tabs/Sounds" transform="translate(50.000000, 50.000000) scale(-1, 1) translate(-50.000000, -50.000000) ">
            <mask id="mask-2" fill="white">
                <use xlink:href="#path-1"></use>
            </mask>
            <use id="sound" fill="#4C97FF" fill-rule="evenodd" xlink:href="#path-1"></use>
            <g id="Color/Gray" mask="url(#mask-2)" fill="#575E75" fill-rule="evenodd">
                <rect id="Color" x="0" y="0" width="100" height="100"></rect>
            </g>
        </g>
    </g>
</svg>