<?xml version="1.0" encoding="UTF-8"?>
<!DOCTYPE svg PUBLIC "-//W3C//DTD SVG 1.1//EN" "http://www.w3.org/Graphics/SVG/1.1/DTD/svg11.dtd">
<svg xmlns="http://www.w3.org/2000/svg" version="1.1" width="100px" height="100px" style="shape-rendering:geometricPrecision; text-rendering:geometricPrecision; image-rendering:optimizeQuality; fill-rule:evenodd; clip-rule:evenodd" xmlns:xlink="http://www.w3.org/1999/xlink">
<g><path style="opacity:0.998" fill="#d5683b" d="M 4.5,-0.5 C 34.1667,-0.5 63.8333,-0.5 93.5,-0.5C 95.4752,1.13696 97.4752,2.80363 99.5,4.5C 99.5,34.1667 99.5,63.8333 99.5,93.5C 97.863,95.4752 96.1964,97.4752 94.5,99.5C 64.8333,99.5 35.1667,99.5 5.5,99.5C 3.52483,97.863 1.52483,96.1964 -0.5,94.5C -0.5,64.8333 -0.5,35.1667 -0.5,5.5C 1.13696,3.52483 2.80363,1.52483 4.5,-0.5 Z"/></g>
<g><path style="opacity:1" fill="#fdf6f3" d="M 24.5,17.5 C 37.5043,17.3334 50.5043,17.5001 63.5,18C 68,22.5 72.5,27 77,31.5C 77.6667,47.8333 77.6667,64.1667 77,80.5C 76.5,81 76,81.5 75.5,82C 58.8333,82.6667 42.1667,82.6667 25.5,82C 25,81.5 24.5,81 24,80.5C 23.1791,59.4271 23.3458,38.4271 24.5,17.5 Z"/></g>
<g><path style="opacity:1" fill="#d5683c" d="M 28.5,21.5 C 37.5,21.5 46.5,21.5 55.5,21.5C 55.334,26.8437 55.5006,32.1771 56,37.5C 61.4066,38.4732 66.9066,38.8066 72.5,38.5C 72.5,51.5 72.5,64.5 72.5,77.5C 57.8333,77.5 43.1667,77.5 28.5,77.5C 28.5,58.8333 28.5,40.1667 28.5,21.5 Z"/></g>
<g><path style="opacity:1" fill="#eec2b0" d="M 61.5,24.5 C 60.5233,27.2869 60.19,30.2869 60.5,33.5C 59.1944,30.3132 59.1944,26.9798 60.5,23.5C 61.1067,23.6236 61.44,23.9569 61.5,24.5 Z"/></g>
<g><path style="opacity:1" fill="#d77045" d="M 61.5,24.5 C 64.5,26.8333 67.1667,29.5 69.5,32.5C 66.7131,33.4767 63.7131,33.81 60.5,33.5C 60.19,30.2869 60.5233,27.2869 61.5,24.5 Z"/></g>
<g><path style="opacity:1" fill="#eec2b1" d="M 69.5,32.5 C 70.0431,32.56 70.3764,32.8933 70.5,33.5C 67.0202,34.8056 63.6868,34.8056 60.5,33.5C 63.7131,33.81 66.7131,33.4767 69.5,32.5 Z"/></g>
</svg>
