<svg id="Layer_1" data-name="Layer 1" xmlns="http://www.w3.org/2000/svg" width="48" height="48" viewBox="0 0 48 48"><defs><style>.cls-1{fill:#336;}.cls-2{fill:#fff;}</style></defs><title>48px_sourcefile_20170718_multi</title><circle class="cls-1" cx="24" cy="24.04" r="24"/><path id="path1" class="cls-2" d="M27.22,22.35h1.31v8.32H27v-6.9h0l-1.52.77-.26-1.2Zm-6.9-.15c1.72,0,2.61,1,2.61,2a2,2,0,0,1-1.54,1.95v0a2.12,2.12,0,0,1,1.84,2.08c0,1.41-1.18,2.53-3.24,2.53a4.46,4.46,0,0,1-2.33-.58L18,29a4.2,4.2,0,0,0,1.89.51c1.2,0,1.69-.68,1.67-1.33,0-1-.92-1.41-1.87-1.41H19V25.67h.71c.73,0,1.65-.34,1.65-1.16,0-.56-.43-1-1.33-1A3.46,3.46,0,0,0,18.3,24l-.36-1.14A4.24,4.24,0,0,1,20.33,22.2Zm-1.8-7.07h11V17h-11Zm-3.21-2.29h2.74v6.39H15.32V17H11.21V33.41H36.81V17H32.7v2.29H30V12.85H32.7v2.29h4.11A1.84,1.84,0,0,1,38.64,17V33.41a1.84,1.84,0,0,1-1.84,1.84H11.21a1.84,1.84,0,0,1-1.84-1.84V17a1.84,1.84,0,0,1,1.84-1.84h4.11Z"/></svg>