<svg width="24" height="25" viewBox="0 0 24 25" fill="none" xmlns="http://www.w3.org/2000/svg" preserveAspectRatio="xMinYMid meet">
<path fill-rule="evenodd" clip-rule="evenodd" d="M2.99951 7.83057C2.99951 6.44985 4.1188 5.33057 5.49951 5.33057H18.5012C19.8819 5.33057 21.0012 6.44985 21.0012 7.83057V16.8306C21.0012 18.2113 19.8819 19.3306 18.5012 19.3306H5.49951C4.1188 19.3306 2.99951 18.2113 2.99951 16.8306V7.83057ZM5.49951 6.33057C4.67108 6.33057 3.99951 7.00214 3.99951 7.83057V16.8306C3.99951 17.659 4.67108 18.3306 5.49951 18.3306H18.5012C19.3296 18.3306 20.0012 17.659 20.0012 16.8306V7.83057C20.0012 7.00214 19.3296 6.33057 18.5012 6.33057H5.49951ZM8.49756 9.83154C8.49756 9.5554 8.72142 9.33154 8.99756 9.33154L17.512 9.33154C17.7881 9.33154 18.012 9.5554 18.012 9.83154C18.012 10.1077 17.7881 10.3315 17.512 10.3315L8.99756 10.3315C8.72142 10.3315 8.49756 10.1077 8.49756 9.83154ZM8.49756 14.8323C8.49756 14.5561 8.72142 14.3323 8.99756 14.3323L17.512 14.3323C17.7881 14.3323 18.012 14.5561 18.012 14.8323C18.012 15.1084 17.7881 15.3323 17.512 15.3323L8.99756 15.3323C8.72142 15.3323 8.49756 15.1084 8.49756 14.8323ZM8.99756 11.8306C8.72142 11.8306 8.49756 12.0544 8.49756 12.3306C8.49756 12.6067 8.72142 12.8306 8.99756 12.8306L17.512 12.8306C17.7881 12.8306 18.012 12.6067 18.012 12.3306C18.012 12.0544 17.7881 11.8306 17.512 11.8306L8.99756 11.8306ZM6.50342 9.33154C6.22728 9.33154 6.00342 9.5554 6.00342 9.83154C6.00342 10.1077 6.22728 10.3315 6.50342 10.3315H7.00146C7.27761 10.3315 7.50146 10.1077 7.50146 9.83154C7.50146 9.5554 7.27761 9.33154 7.00146 9.33154H6.50342ZM6.00342 12.3306C6.00342 12.0544 6.22728 11.8306 6.50342 11.8306H7.00146C7.27761 11.8306 7.50146 12.0544 7.50146 12.3306C7.50146 12.6067 7.27761 12.8306 7.00146 12.8306H6.50342C6.22728 12.8306 6.00342 12.6067 6.00342 12.3306ZM6.50342 14.3323C6.22728 14.3323 6.00342 14.5561 6.00342 14.8323C6.00342 15.1084 6.22728 15.3323 6.50342 15.3323H7.00146C7.27761 15.3323 7.50146 15.1084 7.50146 14.8323C7.50146 14.5561 7.27761 14.3323 7.00146 14.3323H6.50342Z" fill="#212529"/>
</svg>
