<?xml version="1.0" encoding="UTF-8" standalone="no"?>
<!-- Generator: Adobe Illustrator 22.0.1, SVG Export Plug-In . SVG Version: 6.00 Build 0)  -->

<svg
   xmlns:dc="http://purl.org/dc/elements/1.1/"
   xmlns:cc="http://creativecommons.org/ns#"
   xmlns:rdf="http://www.w3.org/1999/02/22-rdf-syntax-ns#"
   xmlns:svg="http://www.w3.org/2000/svg"
   xmlns="http://www.w3.org/2000/svg"
   xmlns:sodipodi="http://sodipodi.sourceforge.net/DTD/sodipodi-0.dtd"
   xmlns:inkscape="http://www.inkscape.org/namespaces/inkscape"
   version="1.1"
   x="0px"
   y="0px"
   viewBox="0 0 24 24"
   enable-background="new 0 0 24 24"
   xml:space="preserve"
   id="svg26"
   sodipodi:docname="icon_blau.svg"
   inkscape:version="0.92.2 (5c3e80d, 2017-08-06)"><metadata
     id="metadata32"><rdf:RDF><cc:Work
         rdf:about=""><dc:format>image/svg+xml</dc:format><dc:type
           rdf:resource="http://purl.org/dc/dcmitype/StillImage" /><dc:title></dc:title></cc:Work></rdf:RDF></metadata><defs
     id="defs30" /><sodipodi:namedview
     pagecolor="#ffffff"
     bordercolor="#666666"
     borderopacity="1"
     objecttolerance="10"
     gridtolerance="10"
     guidetolerance="10"
     inkscape:pageopacity="0"
     inkscape:pageshadow="2"
     inkscape:window-width="1920"
     inkscape:window-height="1138"
     id="namedview28"
     showgrid="false"
     inkscape:zoom="31.96"
     inkscape:cx="11.342929"
     inkscape:cy="12"
     inkscape:window-x="1672"
     inkscape:window-y="-8"
     inkscape:window-maximized="1"
     inkscape:current-layer="svg26" /><g
     id="Layer_1"
     transform="matrix(1.0780321,0,0,0.92551058,1.1658054,4.292837)"><path
       d="m 19.143,20.351 c 0,0.404 -0.331,0.735 -0.735,0.735 H 2.235 C 1.831,21.086 1.5,20.755 1.5,20.351 V 13 c 0,-0.404 0.331,-0.735 0.735,-0.735 h 16.173 c 0.404,0 0.735,0.331 0.735,0.735 z"
       id="path6"
       inkscape:connector-curvature="0"
       style="fill:#00549f;fill-opacity:1" /><g
       id="g14"><path
         d="m 2.7037097,14.161765 c 0,-0.3151 0.226312,-0.659435 0.5901862,-0.659435 h 2.0087039 c 1.1315601,0 2.1492244,0.831603 2.1492244,2.423345 0,1.508908 -1.0176643,2.350256 -2.1492244,2.350256 H 3.8515405 v 1.260399 c 0,0.420676 -0.244062,0.657813 -0.5561654,0.657813 -0.2869578,0 -0.5901862,-0.237137 -0.5901862,-0.657813 v -5.374565 z m 1.1478308,0.544117 v 2.377867 h 1.4510593 c 0.5827904,0 1.0442894,-0.56523 1.0442894,-1.156449 0,-0.667557 -0.461499,-1.221418 -1.0442894,-1.221418 z"
         id="path8"
         inkscape:connector-curvature="0"
         style="fill:#ffffff;stroke-width:1.54999888" /><path
         d="m 8.6979442,20.101275 c -0.2697283,0 -0.5644831,-0.171317 -0.5644831,-0.588298 v -5.396503 c 0,-0.34102 0.2947548,-0.589916 0.5644831,-0.589916 h 1.8714138 c 3.734487,0 3.652457,6.5731 0.07369,6.5731 H 8.6979442 Z m 0.5158207,-5.414283 v 4.255465 h 1.3569841 c 2.206489,0 2.305205,-4.255465 0,-4.255465 z"
         id="path10"
         inkscape:connector-curvature="0"
         style="fill:#ffffff;stroke-width:1.49903059" /><path
         d="m 15.299098,14.788822 v 1.505241 h 2.276506 c 0.32196,0 0.642402,0.34166 0.642402,0.67204 0,0.312652 -0.32196,0.568897 -0.642402,0.568897 h -2.276506 v 1.988724 c 0,0.331991 -0.221727,0.586626 -0.534577,0.586626 -0.393338,0 -0.63329,-0.254635 -0.63329,-0.586626 v -5.381157 c 0,-0.340049 0.24147,-0.588237 0.63329,-0.588237 h 3.133043 c 0.393339,0 0.625698,0.248188 0.625698,0.588237 0,0.302982 -0.232359,0.644642 -0.625698,0.644642 z"
         id="path12"
         inkscape:connector-curvature="0"
         style="fill:#ffffff;stroke-width:1.56445539" /></g></g><g
     id="Ebene_1"
     transform="matrix(1.5785429,0,0,1.3360463,-2.4023443,-0.53905028)"><g
       id="g23"><path
         d="m 8.33,8.065 c 0.752,0.353 1.569,0.53 2.453,0.53 0.398,0 0.805,-0.041 1.222,-0.124 0.574,0.454 1.217,0.784 1.929,0.991 0.167,0.046 0.366,0.088 0.597,0.124 h 0.021 c 0.051,0 0.099,-0.02 0.142,-0.062 0.044,-0.041 0.071,-0.095 0.08,-0.162 0.005,-0.016 0.007,-0.032 0.007,-0.05 0,-0.018 -0.001,-0.035 -0.003,-0.05 C 14.776,9.246 14.771,9.231 14.764,9.216 L 14.747,9.178 c 0,0 -0.008,-0.014 -0.024,-0.043 C 14.707,9.107 14.698,9.094 14.695,9.097 14.693,9.099 14.683,9.086 14.664,9.058 14.646,9.03 14.637,9.018 14.637,9.023 14.614,8.992 14.56,8.927 14.477,8.83 14.393,8.732 14.333,8.656 14.297,8.602 14.26,8.548 14.208,8.473 14.141,8.378 14.074,8.282 14.016,8.183 13.968,8.08 13.919,7.977 13.872,7.863 13.826,7.739 14.4,7.368 14.851,6.911 15.179,6.369 15.508,5.827 15.672,5.249 15.672,4.635 15.672,3.918 15.454,3.255 15.019,2.646 14.584,2.037 13.991,1.556 13.239,1.203 12.487,0.85 11.669,0.673 10.786,0.673 9.902,0.673 9.085,0.85 8.333,1.203 7.578,1.554 6.985,2.035 6.55,2.644 6.115,3.252 5.898,3.916 5.898,4.633 c 0,0.717 0.217,1.38 0.652,1.989 0.434,0.609 1.028,1.09 1.78,1.443 z m 0,0"
         id="path19"
         inkscape:connector-curvature="0"
         style="fill:#a0d50e;fill-opacity:1" /><path
         d="m 3.725,8.352 c 0.329,0.539 0.779,0.994 1.353,1.366 -0.046,0.124 -0.094,0.237 -0.142,0.34 -0.049,0.104 -0.106,0.203 -0.173,0.298 -0.067,0.096 -0.119,0.17 -0.156,0.225 -0.037,0.054 -0.097,0.13 -0.18,0.228 -0.083,0.098 -0.136,0.162 -0.16,0.193 -0.005,0.005 -0.014,0.017 -0.027,0.035 -0.014,0.018 -0.024,0.031 -0.031,0.038 -0.007,0.008 -0.016,0.021 -0.028,0.039 -0.012,0.018 -0.02,0.032 -0.025,0.042 l -0.017,0.039 c 0,0 -0.005,0.016 -0.014,0.047 -0.009,0.031 -0.01,0.048 -0.003,0.05 0.007,0.002 0.009,0.019 0.007,0.05 0.014,0.072 0.044,0.129 0.09,0.17 0.046,0.041 0.097,0.059 0.153,0.054 0.231,-0.036 0.43,-0.078 0.597,-0.124 0.712,-0.206 1.355,-0.537 1.929,-0.991 0.417,0.083 0.824,0.124 1.222,0.124 1.254,0 2.346,-0.34 3.276,-1.021 -0.268,0.02 -0.472,0.031 -0.611,0.031 C 10.04,9.585 9.325,9.469 8.641,9.237 7.954,9.005 7.343,8.672 6.807,8.239 6.228,7.764 5.784,7.217 5.474,6.598 5.164,5.979 5.009,5.323 5.009,4.632 5.009,4.234 5.062,3.843 5.169,3.455 4.572,3.822 4.1,4.282 3.753,4.833 3.406,5.386 3.233,5.979 3.233,6.614 c 0,0.619 0.164,1.198 0.492,1.738 z m 0,0"
         id="path21"
         inkscape:connector-curvature="0"
         style="fill:#88b1f1;fill-opacity:1" /></g></g></svg>