<?xml version="1.0" encoding="UTF-8"?>
<svg id="Ebene_2" data-name="Ebene 2" xmlns="http://www.w3.org/2000/svg" viewBox="0 0 23.93 24.68">
  <defs>
    <style>
      .cls-1 {
        fill: #231f20;
      }
    </style>
  </defs>
  <g id="Icons">
    <g id="PDF_Annotation_new" data-name="PDF Annotation_new">
      <g id="Layer_2" data-name="Layer 2">
        <g id="Layer_1-2" data-name="Layer 1-2">
          <g id="Pictogram">
            <polygon class="cls-1" points="23.93 0 23.93 14.82 21.36 14.82 21.35 20.13 16.48 15.34 16.48 13.47 16.49 13.47 20 16.92 20.01 13.45 22.58 13.47 22.58 1.35 5.03 1.35 5.03 4.57 3.69 4.57 3.69 0 23.93 0"/>
          </g>
        </g>
      </g>
      <g id="PDF_Annotation_new_V02" data-name="PDF Annotation_new_V02">
        <g>
          <path class="cls-1" d="m3.5,14.15c.08.08.11.18.11.29,0,.12-.04.21-.13.28-.08.08-.23.11-.45.11h-.27v-.79h.32c.21,0,.35.04.42.11Z"/>
          <path class="cls-1" d="m7.88,14.33c-.12-.14-.33-.21-.61-.21h-.28v1.96h.27c.23,0,.4-.03.49-.08.1-.05.18-.14.23-.27.06-.13.09-.33.09-.62,0-.38-.07-.64-.19-.78Zm0,0c-.12-.14-.33-.21-.61-.21h-.28v1.96h.27c.23,0,.4-.03.49-.08.1-.05.18-.14.23-.27.06-.13.09-.33.09-.62,0-.38-.07-.64-.19-.78Zm3.25-7.81H1.05c-.58,0-1.05.47-1.05,1.04v16.08c0,.57.47,1.04,1.05,1.04h12.52c.58,0,1.04-.47,1.04-1.04v-13.62c-1.16-1.17-2.32-2.33-3.48-3.5Zm-6.77,8.73c-.21.21-.55.31-.99.31h-.61v1.33h-1.11v-3.58h1.84c.4,0,.7.09.9.28.2.2.3.47.3.82s-.11.64-.33.84Zm4.69.73c-.09.21-.21.38-.37.53-.15.14-.32.23-.49.28-.25.07-.47.1-.66.1h-1.65v-3.58h1.65c.32,0,.58.04.78.13.2.09.37.21.5.38.13.16.22.35.28.57.06.22.09.45.09.7,0,.38-.05.68-.13.89Zm4.05-1.9h-1.63v.62h1.39v.73h-1.39v1.46h-1.11v-3.58h2.74v.77Zm-5.83.04h-.28v1.96h.27c.23,0,.4-.03.49-.08.1-.05.18-.14.23-.27.06-.13.09-.33.09-.62,0-.38-.07-.64-.19-.78s-.33-.21-.61-.21Z"/>
        </g>
      </g>
    </g>
  </g>
</svg>