<?xml version="1.0" encoding="UTF-8" standalone="no"?>
<!-- Created with Inkscape (http://www.inkscape.org/) -->

<svg
   xmlns:dc="http://purl.org/dc/elements/1.1/"
   xmlns:cc="http://creativecommons.org/ns#"
   xmlns:rdf="http://www.w3.org/1999/02/22-rdf-syntax-ns#"
   xmlns:svg="http://www.w3.org/2000/svg"
   xmlns="http://www.w3.org/2000/svg"
   xmlns:sodipodi="http://sodipodi.sourceforge.net/DTD/sodipodi-0.dtd"
   xmlns:inkscape="http://www.inkscape.org/namespaces/inkscape"
   width="32"
   height="32"
   id="svg2"
   version="1.1"
   inkscape:version="0.48.4 r9939"
   sodipodi:docname="New document 1" preserveAspectRatio="xMinYMid meet">
  <defs
     id="defs4" />
  <sodipodi:namedview
     id="base"
     pagecolor="#ffffff"
     bordercolor="#666666"
     borderopacity="1.0"
     inkscape:pageopacity="0.0"
     inkscape:pageshadow="2"
     inkscape:zoom="5.6"
     inkscape:cx="32.609372"
     inkscape:cy="35.818362"
     inkscape:document-units="px"
     inkscape:current-layer="layer1"
     showgrid="false"
     width="33px"
     inkscape:window-width="1916"
     inkscape:window-height="981"
     inkscape:window-x="0"
     inkscape:window-y="72"
     inkscape:window-maximized="0" />
  <metadata
     id="metadata7">
    <rdf:RDF>
      <cc:Work
         rdf:about="">
        <dc:format>image/svg+xml</dc:format>
        <dc:type
           rdf:resource="http://purl.org/dc/dcmitype/StillImage" />
        <dc:title></dc:title>
      </cc:Work>
    </rdf:RDF>
  </metadata>
  <g
     inkscape:label="Layer 1"
     inkscape:groupmode="layer"
     id="layer1"
     transform="translate(0,-1020.3622)">
    <g
       id="g3050"
       transform="matrix(0.92121849,0,0,0.92121849,-35.507391,91.120599)">
      <path
         style="fill:#fafafa"
         d="m 38.892857,1026.2908 0,-17 17,0 17,0 0,17 0,17 -17,0 -17,0 0,-17 z"
         id="path3056"
         inkscape:connector-curvature="0" />
      <path
         style="fill:#989898"
         d="m 40.954049,1037.3439 c -3.465234,-3.0054 -1.687876,-4.0531 6.875853,-4.0531 6.919599,0 7.985143,0.2502 9.263277,2.1752 0.947236,1.4266 2.021632,1.9536 3.121972,1.5314 1.37559,-0.5279 1.677706,-2.0754 1.677706,-8.5934 0,-4.3723 0.273145,-8.6614 0.606989,-9.5314 0.509481,-1.3277 -0.303204,-1.5818 -5.059017,-1.5818 -3.522693,0 -5.432219,-0.3783 -5.047972,-1 1.028329,-1.6639 14.737848,-1.2221 17.277494,0.5567 3.593622,2.5171 2.823056,4.4433 -1.777494,4.4433 l -4,0 0,7.345 c 0,9.8743 -0.892111,10.655 -12.175731,10.655 -7.005509,0 -8.916904,-0.3458 -10.763077,-1.9469 z m 3.938808,-10.6589 c 0,-2.9538 0.324365,-3.3942 2.5,-3.3942 2.153991,0 2.499902,0.4498 2.499294,3.25 -6e-4,2.7611 -0.376693,3.2717 -2.5,3.3942 -2.203157,0.1271 -2.499294,-0.2579 -2.499294,-3.25 z m 7.428571,-1.3942 c 0,-1.6931 0.666667,-2 4.344732,-2 5.000845,0 4.927087,1.9191 -0.08232,2.1419 -3.011559,0.1339 -2.966069,0.1822 0.809017,0.8581 l 4,0.7162 -4.535714,0.1419 c -3.91635,0.1225 -4.535715,-0.1312 -4.535715,-1.8581 z m -6.761904,-3.6667 c -1.167788,-1.1678 -0.718106,-4.0457 0.833333,-5.3333 1.846181,-1.5322 4.5,0.2461 4.5,3.0155 0,2.2918 -3.735778,3.9154 -5.333333,2.3178 z m 6.833333,-0.3333 c 0.339919,-0.55 2.139919,-1 4,-1 1.860081,0 3.660081,0.45 4,1 0.377944,0.6115 -1.175955,1 -4,1 -2.824045,0 -4.377944,-0.3885 -4,-1 z"
         id="path3054"
         inkscape:connector-curvature="0" />
      <path
         style="fill:#5e5e5e"
         d="m 40.892857,1036.2908 c -1.027328,-1.9196 -0.76049,-2 6.636076,-2 5.863885,0 8.157677,0.4084 9.593719,1.708 1.429812,1.2939 2.297278,1.4506 3.578741,0.6463 1.318167,-0.8273 1.801811,-3.0713 2.191464,-10.1678 l 0.5,-9.1062 -5.5,-0.351 c -4.40263,-0.2811 -3.893849,-0.3889 2.55,-0.5402 5.16365,-0.1213 8.480263,0.2412 9.25,1.0109 2.011735,2.0117 1.364232,2.8 -2.3,2.8 l -3.5,0 0,7.0657 c 0,10.7479 -0.204518,10.9343 -12,10.9343 -8.906177,0 -10.039956,-0.2061 -11,-2 z m 5.078947,-9.0357 c -0.06465,-2.8954 0.283272,-3.5357 1.921053,-3.5357 1.608782,0 2,0.6666 2,3.4081 0,2.8111 -0.245749,3.2042 -1.402754,2.244 -1.077175,-0.894 -1.523051,-0.8644 -1.921053,0.1276 -0.285064,0.7104 -0.553825,-0.2994 -0.597246,-2.244 z m 8.682712,-0.6716 c 1.243913,-0.2392 3.043913,-0.2301 4,0.02 0.956088,0.2503 -0.06166,0.446 -2.261659,0.4349 -2.2,-0.011 -2.982253,-0.2159 -1.738341,-0.4551 z m 0,-3 c 1.243913,-0.2392 3.043913,-0.2301 4,0.02 0.956088,0.2503 -0.06166,0.446 -2.261659,0.4349 -2.2,-0.011 -2.982253,-0.2159 -1.738341,-0.4551 z m 0,-2 c 1.243913,-0.2392 3.043913,-0.2301 4,0.02 0.956088,0.2503 -0.06166,0.446 -2.261659,0.4349 -2.2,-0.011 -2.982253,-0.2159 -1.738341,-0.4551 z m -9.205886,-1.2025 c -0.810187,-1.3109 0.447721,-4.0902 1.851216,-4.0902 1.828446,0 3.499178,2.081 2.907877,3.6219 -0.592966,1.5452 -3.892838,1.87 -4.759093,0.4683 z"
         id="path3052"
         inkscape:connector-curvature="0" />
    </g>
  </g>
</svg>
