<?xml version="1.0" encoding="utf-8"?>
<!-- Generator: Adobe Illustrator 15.1.0, SVG Export Plug-In  -->
<!DOCTYPE svg PUBLIC "-//W3C//DTD SVG 1.1//EN" "http://www.w3.org/Graphics/SVG/1.1/DTD/svg11.dtd" [
	<!ENTITY ns_flows "http://ns.adobe.com/Flows/1.0/">
]>
<svg version="1.1"
	 xmlns="http://www.w3.org/2000/svg" xmlns:xlink="http://www.w3.org/1999/xlink" xmlns:a="http://ns.adobe.com/AdobeSVGViewerExtensions/3.0/"
	 x="0px" y="0px" width="16px" height="16px" viewBox="0 0 16 16" style="overflow:visible;enable-background:new 0 0 16 16;"
	 xml:space="preserve" preserveAspectRatio="xMinYMid meet">
<defs>
</defs>
<path style="fill:#888;" d="M8.5,9.5C8.8,10,9,10.6,9,11.2c0,0.6-0.3,1.1-0.7,1.6l-2.5,2.5C5.2,15.8,4.7,16,4,16
	s-1.3-0.2-1.7-0.7l-1.5-1.5C0.2,13.3,0,12.7,0,12c0-0.7,0.2-1.3,0.7-1.7l2.5-2.5C3.7,7.3,4.3,7,5,7c0.5,0,1,0.2,1.5,0.5l-1,1
	C5.3,8.5,5.2,8.4,5,8.4c-0.3,0-0.5,0.1-0.8,0.3l-2.5,2.5c-0.2,0.2-0.3,0.5-0.3,0.7c0,0.3,0.1,0.5,0.3,0.7l1.5,1.5
	c0.2,0.2,0.5,0.3,0.7,0.3s0.5-0.1,0.7-0.3l2.5-2.5c0.2-0.2,0.3-0.5,0.3-0.8c0-0.2,0-0.3-0.1-0.4L8.5,9.5z M5,10L10,5
	c0.1-0.1,0.3-0.2,0.5-0.2c0.2,0,0.4,0.1,0.5,0.2c0.1,0.1,0.2,0.3,0.2,0.5c0,0.2-0.1,0.4-0.2,0.5L6,11c-0.1,0.1-0.3,0.2-0.5,0.2
	c-0.2,0-0.4-0.1-0.5-0.2c-0.1-0.1-0.2-0.3-0.2-0.5C4.8,10.3,4.9,10.1,5,10z M16,4c0,0.7-0.2,1.3-0.7,1.7l-2.5,2.5
	C12.3,8.7,11.7,9,11,9c-0.5,0-1-0.2-1.5-0.5l1-1c0.1,0.1,0.3,0.1,0.4,0.1c0.3,0,0.5-0.1,0.8-0.3l2.5-2.5c0.2-0.2,0.3-0.5,0.3-0.7
	s-0.1-0.5-0.3-0.7l-1.5-1.5c-0.2-0.2-0.5-0.3-0.7-0.3s-0.5,0.1-0.7,0.3L8.8,4.2C8.5,4.5,8.4,4.7,8.4,5c0,0.2,0,0.3,0.1,0.4l-1,1
	C7.2,6,7,5.4,7,4.8s0.3-1.1,0.7-1.6l2.5-2.5C10.8,0.2,11.3,0,12,0c0.7,0,1.3,0.2,1.7,0.7l1.5,1.5C15.8,2.7,16,3.3,16,4z"/>
</svg>
