<svg id="Layer_1" data-name="Layer 1" xmlns="http://www.w3.org/2000/svg" width="48" height="48" viewBox="0 0 48 48"><defs><style>.cls-1{fill:#9c0;}.cls-2{fill:#fff;}</style></defs><title>48px_sourcefile_20170718_multi</title><circle class="cls-1" cx="24.12" cy="24" r="24"/><path class="cls-2" d="M24.55,25.29c.53-1.93,1-3.79,1.52-5.66.19-.73.39-1.44.58-2.17.13-.58.47-.75,1-.6,2.61.71,5.19,1.41,7.8,2.1a.69.69,0,0,1,.58.94c-.9,3.28-1.67,6.58-2.74,9.81a9.93,9.93,0,0,1-6.11,6.56,8.86,8.86,0,0,1-11.72-6.94,12.93,12.93,0,0,1,.17-5.23c.21-.92.36-1,1.26-.79l6.79,1.82C23.95,25.2,24.23,25.22,24.55,25.29Z"/><path class="cls-2" d="M26.22,15.32c-.24.9-.53,1.91-.79,2.92-.45,1.67-.9,3.34-1.33,5a.72.72,0,0,1-1,.6l-7.65-2.06c-.83-.22-.9-.39-.69-1.2.67-2.53,1.37-5.06,2-7.59.15-.58.39-.83,1-.66,2.57.71,5.16,1.41,7.72,2.1C25.92,14.53,26.27,14.66,26.22,15.32Z"/></svg>