<svg viewBox="0 0 16 12" fill="none" xmlns="http://www.w3.org/2000/svg" preserveAspectRatio="xMinYMid meet">
<path fill-rule="evenodd" clip-rule="evenodd" d="M0 1.41817C0 0.865883 0.447715 0.418168 1 0.418168C1.55228 0.418168 2 0.865883 2 1.41817V4.41817C2 4.97045 2.44772 5.41817 3 5.41817L12.5858 5.41817L10.0996 2.93198C9.7091 2.54146 9.7091 1.90829 10.0996 1.51777C10.4901 1.12724 11.1233 1.12724 11.5138 1.51777L15.7071 5.71106C15.8099 5.81381 15.8856 5.93336 15.9343 6.06086C15.9694 6.15255 15.9913 6.25072 15.9979 6.35309C16.0007 6.39643 16.0007 6.43991 15.9979 6.48325C15.9914 6.5854 15.9695 6.68338 15.9345 6.77491C15.8858 6.90262 15.81 7.02237 15.7071 7.12528L11.5138 11.3186C11.1233 11.7091 10.4901 11.7091 10.0996 11.3186C9.7091 10.928 9.7091 10.2949 10.0996 9.90436L12.5858 7.41817L3 7.41817C1.34315 7.41817 0 6.07502 0 4.41817V1.41817Z" fill="#212529"/>
</svg>
