<svg viewBox="0 0 500 500" xmlns="http://www.w3.org/2000/svg" xmlns:xlink="http://www.w3.org/1999/xlink" width="100%" id="blobSvg">
  <path id="blob" d="M477.5,285.5Q469,321,454,354.5Q439,388,416.5,418Q394,448,360,465Q326,482,288,480.5Q250,479,212,482Q174,485,146,458.5Q118,432,84,413.5Q50,395,37.5,359Q25,323,15.5,286.5Q6,250,13.5,213Q21,176,40,143.5Q59,111,81.5,80Q104,49,140.5,36.5Q177,24,213.5,14.5Q250,5,286.5,15Q323,25,356,42Q389,59,414.5,85.5Q440,112,459.5,144Q479,176,482.5,213Q486,250,477.5,285.5Z" fill="#e9e7f2"></path>
</svg>