<?xml version="1.0" encoding="utf-8"?>
<!-- Generator: Adobe Illustrator 23.0.0, SVG Export Plug-In . SVG Version: 6.00 Build 0)  -->
<svg version="1.1" id="Layer_1" xmlns="http://www.w3.org/2000/svg" xmlns:xlink="http://www.w3.org/1999/xlink" x="0px" y="0px"
	 width="68.1px" height="68.6px" viewBox="0 0 68.1 68.6" style="enable-background:new 0 0 68.1 68.6;" xml:space="preserve">
<style type="text/css">
	.st0{fill:#F7E7AA;}
	.st1{fill:#393F4B;}
	.st2{fill:#F9EDBF;}
	.st3{fill:#F9EDC1;}
	.st4{fill:#FBF4DB;}
	.st5{fill:#FBF4D9;}
	.st6{fill:#464F5E;}
	.st7{fill:#DF4C34;}
	.st8{fill:#E1BD50;}
	.st9{fill:#B93A23;}
	.st10{fill:#F0D14B;}
	.st11{fill:#ECC000;}
</style>
<g>
	<path class="st0" d="M66.8,52c-0.3,0.9-0.2,1.8-0.4,2.7c-0.2,1.4-0.4,2.7-0.9,4c-0.4,1-0.6,1.1-1.7,0.9c-2.4-0.3-4.7-0.7-7.1-0.9
		c-2.6-0.3-5.1-0.5-7.7-0.7c-0.8-0.1-1.6-0.1-2.5-0.1c-1.6,0-3.1-0.2-4.7-0.1c-0.5-0.3-0.5-0.9-0.7-1.3c0.1-0.6,0.4-1.1,0.6-1.7
		c0.5-2.3,0-4.3-1.5-6.1c-0.2-0.2-0.4-0.4-0.5-0.7c0-1.8-0.1-3.6-0.5-5.4c-0.2-0.7-0.3-1.5-0.5-2.2c-0.1-0.2-0.2-0.4-0.1-0.7
		c1.9,0,3.8,0,5.7-0.2c3.2-0.2,6.3-0.4,9.5-0.7c2.7-0.3,5.3-0.6,8-0.9c0.7-0.1,1.3-0.2,2-0.3c1.1-0.2,1.3,0,1.7,1
		c0.3,0.9,0.6,1.8,0.7,2.7c0.2,1.4,0.4,2.7,0.4,4.1c0.1,0.3,0,0.6,0.1,0.9c0,0.4-0.1,0.8,0.1,1.2c0,0.8,0,1.7,0,2.5
		c-0.1,0.4,0,0.7-0.1,1.1c0,0.3-0.1,0.5,0.1,0.8C66.8,51.8,66.8,51.9,66.8,52z"/>
	<path class="st1" d="M18.5,21.7c-3.7-1.3-7.3-2.6-11-3.9c-1.6-0.6-3.2-1.1-4.8-1.7c-0.6-0.2-1-0.5-1-1.1c0-0.6,0.4-1,1-1.2
		C13,10.1,23.2,6.5,33.3,2.9c0.2-0.1,0.4-0.1,0.6-0.3c0.3,0,0.5,0,0.8,0c2.1,0.5,4.1,1.4,6.1,2.1C44,5.8,47.3,7,50.5,8.2
		c1.9,0.7,3.9,1.4,5.8,2.1c0.2,0.1,0.5,0.1,0.5,0.4c0.1,0.2,0.1,0.5,0.1,0.8c0,2.3,0,4.6,0,6.9c-0.2,0.6-0.7,1-1.2,1.4
		c-1.7,0.6-3.5,1.2-5.2,1.8c-0.2,0.1-0.3,0.1-0.5,0.1c-0.2-0.2-0.2-0.5-0.2-0.8c0-1,0-2,0-3c0-0.7-0.3-1.2-0.9-1.6
		c-0.8-0.5-1.7-0.8-2.7-1c-2.2-0.6-4.4-0.8-6.7-1c-2.1-0.2-4.1-0.3-6.2-0.2c-3.9,0.1-7.9,0.3-11.7,1.4c-0.7,0.2-1.4,0.4-2.1,0.8
		c-0.6,0.4-0.9,0.9-0.9,1.6c0,1,0,2,0,3C18.7,21.1,18.8,21.4,18.5,21.7z"/>
	<path class="st1" d="M58.9,11.3c2.3,0.8,4.6,1.6,6.9,2.4c0.4,0.2,0.7,0.5,0.9,0.9c0,0.2,0,0.4,0,0.6c-0.3,0.4-0.7,0.7-1.2,0.9
		c-2.2,0.8-4.4,1.6-6.7,2.3c-0.3-0.2-0.2-0.5-0.2-0.8c0-1.8,0-3.7,0-5.5C58.7,11.9,58.7,11.6,58.9,11.3z"/>
	<path class="st2" d="M-204,298.8c-1.5-2.1-0.4-4.5-0.7-6.8c0.3-0.3,0.5-0.3,0.7,0C-204,294.3-204,296.5-204,298.8z"/>
	<path class="st3" d="M-204.8,320.5c0.3-2.2-0.8-4.6,0.7-6.8c0,2.3,0,4.5,0,6.8C-204.3,320.9-204.5,320.9-204.8,320.5z"/>
	<path class="st4" d="M-204,292c-0.2,0-0.5,0-0.7,0c0-1.8,0-3.5,0-5.3c0.2,0,0.5,0,0.7,0C-204,288.5-204,290.3-204,292z"/>
	<path class="st5" d="M-204.8,320.5c0.2,0,0.5,0,0.7,0c0,1.5,0,3,0,4.5C-205.4,323.7-204.5,322-204.8,320.5z"/>
	<path class="st0" d="M4.3,37.4c1.3,0.2,2.6,0.4,3.9,0.5c1.6,0.2,3.2,0.4,4.8,0.6c2.2,0.2,4.4,0.4,6.6,0.6c0.8,0.1,1.5,0.1,2.3,0.1
		c1.7,0.1,3.4,0.2,5.1,0.2c0.5,0,1.1,0.1,1.6,0.1c0.2,0.2,0.3,0.4,0.4,0.6c0.8,2.9,1.2,5.9,1,8.9c-0.1,0.4-0.3,0.7-0.4,1
		c-0.9,1.8-0.9,3.5-0.2,5.4c0.1,0.3,0.3,0.6,0.3,0.9c-0.1,0.4-0.1,1-0.6,1.2c-8.3,0.2-16.5,0.9-24.7,2.1c0.1-0.6,0.6-1.1,0.7-1.7
		c0.5-1.7,0.7-3.3,0.9-5c0.2-2.1,0.2-4.3,0.1-6.5c0-2.2-0.2-4.3-0.8-6.4c-0.2-0.8-0.4-1.6-0.8-2.2C4.4,37.7,4.3,37.5,4.3,37.4z"/>
	<path class="st6" d="M18.5,21.7c0-1.3,0-2.7,0-4c0-0.7,0.3-1.2,0.8-1.5c1.2-0.8,2.5-1.1,3.9-1.3c2-0.4,3.9-0.7,5.9-0.8
		c2.1-0.1,4.2-0.3,6.3-0.2c3.7,0.1,7.4,0.3,11,1.3c1,0.3,1.9,0.5,2.8,1.1c0.5,0.4,0.8,0.8,0.8,1.4c0,1.4,0,2.7,0,4.1
		c-0.1,2,0,3.9-0.1,5.9c0,0.7,0.1,1.4-0.1,2.1c-0.4-0.9-1.1-1.3-2-1.6c-1.9-0.7-3.8-1-5.7-1.2c-2-0.2-4-0.3-6.1-0.4
		c-4.3-0.2-8.5,0.1-12.7,0.9c-1.1,0.2-2.1,0.5-3.1,0.9c-0.7,0.3-1.3,0.7-1.6,1.5c-0.1-0.1-0.1-0.3-0.1-0.5c0-2.4,0-4.7,0-7.1
		C18.6,21.9,18.6,21.8,18.5,21.7z"/>
	<path class="st1" d="M18.7,29.6c-0.1-0.9,0.6-1.2,1.3-1.5c2.1-0.9,4.4-1.3,6.7-1.6c1.9-0.2,3.9-0.3,5.8-0.4c2-0.2,3.9,0,5.9,0.1
		c3.1,0.1,6.3,0.5,9.3,1.5c0.6,0.2,1.1,0.4,1.7,0.8c0.4,0.3,0.7,0.6,0.7,1.2c-0.1,0.7-0.7,0.9-1.2,1.2c-1.6,0.8-3.3,1.1-5,1.4
		c-6,0.9-12.1,0.9-18.1,0.1c-1.9-0.2-3.8-0.6-5.6-1.4C19.5,30.6,18.8,30.4,18.7,29.6z"/>
	<path class="st7" d="M29.5,56.4c-0.2-0.5-0.4-1-0.5-1.5c-0.5-1.8-0.3-3.5,0.5-5.1c0.1-0.2,0.2-0.4,0.3-0.6c0.6-1.2,1.6-1.9,2.8-2.5
		c2.2-1,4.3-0.8,6.4,0.5c0.3,0.2,0.6,0.4,0.8,0.7c0.7,0.8,1.5,1.7,1.8,2.8c0.6,1.8,0.6,3.5-0.2,5.2c-0.1,0.2-0.1,0.3-0.2,0.5
		c-0.2,0.8-0.8,1.3-1.4,1.8c-1.3,1.2-2.8,1.7-4.5,1.7c0,0-0.1,0-0.1,0C33.1,59.9,30.3,58.3,29.5,56.4z"/>
	<path class="st8" d="M4.3,37.4c0.8,0.9,1,2.1,1.3,3.2c0.8,3.6,0.7,7.3,0.6,10.9c-0.1,2-0.3,4.1-0.8,6.1c-0.2,0.8-0.4,1.5-1,2.1
		c-0.7,0.2-0.9-0.4-1.1-0.8c-0.5-1-0.7-2.1-0.9-3.2c-0.7-4.8-0.7-9.5,0-14.3c0.2-1.1,0.4-2.2,0.9-3.2C3.4,37.7,3.6,37.2,4.3,37.4z"
		/>
	<path class="st9" d="M39.8,47.9c-0.7-0.4-1.2-0.8-1.9-1.1c-2.4-1-5.3-0.4-7.2,1.4c-0.3,0.3-0.6,0.6-0.9,1c0-2.4-0.1-4.9-0.6-7.3
		c-0.2-0.8-0.4-1.6-0.6-2.4c3.3,0,6.7,0,10,0C39.6,42.2,40,45,39.8,47.9z"/>
	<path class="st9" d="M35.4,59.8c0.6-0.1,1.2-0.2,1.8-0.4c1.7-0.4,2.9-1.5,3.9-2.9c0-0.1,0.1-0.1,0.1-0.1c0.2,0.4,0.4,0.8,0.6,1.3
		c0.9,2.2,1.8,4.4,2.7,6.5c0.3,0.8,0,1.5-0.8,1.7c-0.4,0.1-0.7-0.1-1-0.2c-0.5-0.2-1.1-0.7-1.5-0.5c-0.4,0.2-0.5,0.9-0.7,1.4
		c-0.2,0.5-0.5,1-1.2,1c-0.7,0-0.9-0.4-1.2-1C37.3,64.3,36.4,62.1,35.4,59.8z"/>
	<path class="st9" d="M29.5,56.4c0.6,0.6,1,1.3,1.7,1.8c1.1,0.9,2.3,1.3,3.7,1.5c0.2,0,0.3,0,0.5,0.1c-1,2.3-1.9,4.7-2.9,7
		c-0.2,0.4-0.5,0.7-1,0.7c-0.5,0-0.9-0.3-1.1-0.7c-0.2-0.5-0.4-0.9-0.6-1.4c-0.1-0.3-0.3-0.4-0.6-0.3c-0.4,0.2-0.9,0.4-1.3,0.6
		c-0.5,0.2-1,0.2-1.4-0.2c-0.4-0.4-0.4-0.9-0.2-1.4c0.9-2.1,1.7-4.2,2.6-6.2c0.1-0.1,0.1-0.3,0.1-0.4C29.2,57.2,29.3,56.8,29.5,56.4
		z"/>
	<path class="st10" d="M55.7,19.7c0.2-0.5,0.6-0.9,1-1.2c0.7-0.5,1.6-0.5,2.2,0.1c0.8,0.5,1.1,1.2,1.1,2.1c0,1,0,2,0,3
		c0,0.8-0.4,1.3-1.2,1.3c-0.7,0-1.4,0-2.1,0c-0.8-0.1-1.2-0.5-1.2-1.3C55.6,22.4,55.4,21,55.7,19.7z"/>
	<path class="st11" d="M58.9,18.6c-0.7-0.4-1.4-0.3-2.2-0.1c-0.1-2.6-0.1-5.3,0-7.9c0.3-0.5,0.8-0.9,1.4-0.7
		c0.7,0.2,0.8,0.8,0.8,1.5c0,2.4,0,4.8,0,7.1C58.9,18.5,58.9,18.5,58.9,18.6z"/>
</g>
</svg>
