<?xml version="1.0" encoding="utf-8"?>
<!-- Generator: Adobe Illustrator 23.0.0, SVG Export Plug-In . SVG Version: 6.00 Build 0)  -->
<svg version="1.1" id="Layer_1" xmlns="http://www.w3.org/2000/svg" xmlns:xlink="http://www.w3.org/1999/xlink" x="0px" y="0px"
	 width="74px" height="63.5px" viewBox="0 0 74 63.5" style="enable-background:new 0 0 74 63.5;" xml:space="preserve">
<style type="text/css">
	.st0{fill:#404B58;}
	.st1{fill:#616A75;}
	.st2{fill:#FCA65F;}
	.st3{fill:#EC718A;}
	.st4{fill:#E29555;}
	.st5{fill:#D4657D;}
	.st6{fill:#E0C886;}
	.st7{fill:#39434F;}
	.st8{fill:#DA7086;}
	.st9{fill:#EF9D5A;}
	.st10{fill:#FADF95;}
</style>
<g>
	<path class="st0" d="M16,55.6c-2.9,0-5.7-0.2-8.4-1.3c-4.5-1.7-6-5.5-4-9.8c1-2.2,2.5-4.1,4.2-5.9c2.8-3,6-5.6,9.1-8.2
		c2.2-1.8,4.2-3.8,5.8-6.2c0.2-0.3,0.4-0.7,0.5-1c0.5-1.2,0.2-1.8-1.1-2c-1.2-0.3-2.4-0.2-3.6-0.1c-3.2,0.3-6.1,1.5-9.1,2.7
		c-1.7,0.7-3.5,0.8-5.3,0.1c-2-0.8-3.3-2.2-3.9-4.3c-0.1-0.2,0-0.4-0.2-0.6c0-0.4,0-0.8,0-1.2c0.2-0.4,0-0.8,0.1-1.2
		c0.2-2.4,1.4-4.4,2.9-6.1c2.7-3.2,6.2-5.4,10-7.1c4.7-2.2,9.6-3.4,14.7-3.4c3.7,0,7.3,0.5,10.7,2.2c2.7,1.4,4.8,3.3,5.7,6.3
		c0.6,2.2,0.2,4.4-0.6,6.5c-0.8,2.2-1.5,4.4-1.7,6.7c-0.1,0.6-0.1,1.3,0,1.9c-0.3,0.9-1.1,1.4-1.8,1.9c-0.1,0-0.1,0-0.2-0.1
		c-0.4-1.1-0.5-2.2-0.4-3.3c0.2-2.3,0.7-4.6,1.5-6.7c0.5-1.3,1-2.6,1.1-4.1c0.2-1.7-0.4-3.2-1.4-4.6c-1.6-2-3.8-3-6.1-3.6
		c-2.7-0.7-5.5-1-8.4-0.8c-4.8,0.3-9.4,1.7-13.6,3.9c-2.3,1.2-4.4,2.6-6.3,4.3c-1.8,1.7-3.4,3.7-3.8,6.3c-0.4,2.3,1,5.1,4.1,4.9
		c1,0,1.9-0.2,2.7-0.6c2.9-1.3,5.9-2.3,9-2.6c1.5-0.2,3-0.2,4.4,0.2c2.7,0.8,3.6,2.9,2.4,5.5c-0.8,1.7-2,3.2-3.3,4.5
		c-2.5,2.6-5.3,4.8-8,7.1c-2.8,2.4-5.4,5-7.4,8.1c-0.7,1.2-1.3,2.4-1.4,3.8c-0.1,1.9,0.9,3,2.4,3.8c1.7,0.9,3.5,1.2,5.4,1.4
		c0.6,0,1.1,0.1,1.6,0.2c0.5,0.1,1,0,1.6,0.1c0.5,0,0.8,0.3,0.6,0.8C16.6,54.7,16.7,55.4,16,55.6z"/>
	<path class="st1" d="M0.1,16.7c0,0.4,0.1,0.8-0.1,1.2c0-0.4,0-0.8,0-1.2C0,16.7,0.1,16.7,0.1,16.7z"/>
	<path class="st2" d="M39.9,25.5c0.7-0.6,1.3-1.2,1.9-1.9c1.9-1.9,3.8-3.8,5.7-5.7c0.4-0.4,0.8-0.7,1.1-1.1c0.2,0,0.3,0.1,0.4,0.2
		c1.1,1.1,2.3,2.2,3.4,3.4c0.1,0.1,0.2,0.3,0.2,0.4c0,0.5-0.4,0.7-0.6,1c-6,6-12,12-17.9,17.9c-2.4,2.4-4.9,4.9-7.3,7.3
		c-0.2,0.2-0.4,0.6-0.8,0.5c-0.5-0.3-0.3-0.8-0.3-1.2c0.1-0.6,0.3-1.1,0.4-1.7c0.2-1.1-0.2-1.5-1.2-1.2c-0.9,0.2-1.7,0.4-2.6,0.6
		c-0.3,0.1-0.6,0.2-0.8,0c-0.2-0.5,0.2-0.7,0.4-0.9c2.4-2.4,4.8-4.8,7.1-7.2c3.3-3.3,6.7-6.7,10-10C39.3,25.9,39.5,25.6,39.9,25.5z"
		/>
	<path class="st3" d="M53.6,12c0.9-1.1,1.9-2,2.9-3c1.3-1.3,2.6-2.7,4.1-4c1.8-1.5,4.2-1.5,5.9,0.1c1.5,1.4,3,3,4.5,4.5
		c0.1,0.2,0.3,0.4,0.4,0.6c0.7,1.3,0.7,2.6,0,3.9c-0.3,0.6-0.7,1.2-1.2,1.7c-1.9,1.9-3.8,3.8-5.7,5.7C64.2,21.7,64,22,63.6,22
		c-0.3,0-0.5-0.2-0.7-0.4c-3-3-6-6-9-9C53.8,12.5,53.5,12.3,53.6,12z"/>
	<path class="st4" d="M60.9,29.3c-0.2,0.2-0.3,0.4-0.5,0.6c-4.7,4.7-9.3,9.3-14,14c-0.2,0.2-0.3,0.4-0.5,0.6c-0.6,1-1.4,1.7-2.3,2.3
		c-0.3,0.2-0.5,0.4-0.8,0.7c-3,3-5.9,5.9-8.9,8.9c-0.4-0.1-0.3-0.4-0.2-0.7c0.2-0.7,0.4-1.5,0.6-2.2c0.2-0.6,0.2-1.3-0.1-1.9
		c0-0.3,0.2-0.5,0.4-0.7c7.8-7.8,15.6-15.7,23.5-23.5c0.2-0.2,0.3-0.3,0.5-0.4c0.1,0,0.1,0,0.2,0c0.8,0.6,1.4,1.3,2,2
		C60.9,29,61,29.1,60.9,29.3z"/>
	<path class="st0" d="M58.8,27c0,0-0.1,0-0.1,0c-0.7-0.4-1.2-1.1-1.8-1.7c-1.2-1.2-2.4-2.4-3.6-3.6c-0.2-0.2-0.5-0.5-0.6-0.8
		c-1.3-1.3-2.6-2.7-3.9-4c1.6-1.7,3.2-3.4,5-4.9c3.3,3.3,6.6,6.6,10,10c0.1,0,0.1,0.1,0.1,0.2c0,0.2-0.2,0.3-0.3,0.5
		c-1.4,1.4-2.8,2.8-4.2,4.2C59,26.9,58.9,27,58.8,27z"/>
	<path class="st5" d="M63.6,22.1c0,0,0-0.1,0-0.1c0.3,0,0.5-0.2,0.6-0.4c2-2,4-3.9,5.9-5.9c1.5-1.5,2-3.3,1.1-5.4
		c0-0.2,0-0.2,0.2-0.2c0.9,0.8,1.8,1.6,2.3,2.8c0.7,1.8,0.3,3.4-1,4.7c-2.2,2.3-4.5,4.5-6.8,6.8C64.9,23.8,64.2,23,63.6,22.1z"/>
	<path class="st6" d="M34.2,51.4c0.5,0.5,0.5,1.1,0.4,1.7c-0.2,0.9-0.5,1.8-0.7,2.7c0,0.2-0.2,0.4,0.1,0.5c-1.5,1.6-3.3,2.7-5.3,3.4
		c-1.4,0.5-2.9,1-4.4,1.5c-0.8-0.7-1.7-1.3-2.2-2.3c0.2-0.4,0.6-0.4,0.9-0.5c1.7-0.6,3.5-1.1,5.1-1.9c1.3-0.7,2.4-1.6,3.5-2.6
		c0.8-0.8,1.6-1.6,2.4-2.4C34.1,51.4,34.2,51.4,34.2,51.4z"/>
	<path class="st0" d="M16,55.6c0.4-0.4,0.5-1,0.6-1.6c0.1-0.4-0.1-0.5-0.5-0.5c-0.6,0-1.1,0.1-1.7-0.1c0.7-0.4,1.4-0.2,2.1-0.2
		c0.4,0.1,0.6,0.6,0.9,0.9c1.4,1.3,2.7,2.7,4.1,4.1c0.2,0.2,0.6,0.4,0.4,0.8c-0.6,0.4-1.4,0.5-2.1,0.8c-1.4,0.5-2.8,1-4.3,1.4
		c-0.4,0.1-0.7,0.3-1.1,0c-0.1-0.6,0-1.1,0.2-1.6C15.1,58.3,15.5,56.9,16,55.6z"/>
	<path class="st0" d="M43.6,46.8c0.7-0.9,1.5-1.6,2.3-2.3c3.4,0.2,6.4,1.5,9.4,3.1c0.6,0.3,0.8,1,0.5,1.5c-0.3,0.5-0.9,0.7-1.5,0.4
		c-1-0.5-2.1-1-3.1-1.5C48.8,46.9,46.3,46.3,43.6,46.8z"/>
	<path class="st7" d="M14.5,61.2c0.6,0,1.1-0.2,1.7-0.3c1.9-0.6,3.9-1.3,5.8-2c0.1-0.1,0.1-0.1,0.1,0c0.7,0.8,1.4,1.5,2.1,2.3
		c-2.2,0.8-4.5,1.6-6.8,2.2C16,63.8,14.6,62.7,14.5,61.2z"/>
	<path class="st7" d="M63.6,22.1c0.8,0.7,1.6,1.5,2.3,2.3c-1.6,1.7-3.2,3.3-4.9,4.9c-0.7-0.7-1.4-1.5-2.2-2.2c1-1.2,2.2-2.2,3.3-3.4
		C62.5,23.1,63,22.6,63.6,22.1z"/>
	<path class="st8" d="M71.4,10.1c-0.1,0.1-0.1,0.1-0.2,0.2c-0.2-0.2-0.3-0.4-0.3-0.6C71.1,9.8,71.2,9.9,71.4,10.1z"/>
	<path class="st9" d="M52.6,20.9c1.5,1.4,2.9,2.8,4.3,4.3c-0.2,0.4-0.6,0.6-0.8,0.9c-8.3,8.3-16.6,16.6-25,24.9
		c-0.3,0.3-0.5,0.8-1,0.6c-0.4-0.3-0.3-0.7-0.2-1.1c0.1-0.7,0.4-1.3,0.5-2c0.2-0.9-0.2-1.2-1-1.1c-0.7,0.1-1.4,0.4-2.1,0.5
		c-0.4,0.1-0.9,0.2-1-0.4c0.2-0.2,0.4-0.4,0.6-0.6c8.4-8.4,16.9-16.9,25.3-25.3C52.2,21.5,52.5,21.3,52.6,20.9z"/>
	<path class="st10" d="M26.1,47.7c0.3,0.4,0.7,0.3,1.1,0.2c0.7-0.1,1.3-0.4,1.9-0.5c1.1-0.2,1.6,0.3,1.3,1.4c-0.2,0.7-0.3,1.3-0.5,2
		c-0.1,0.4-0.1,0.7,0.2,0.9c1,0.4,1.9-0.1,2.8-0.3c0.4-0.1,0.7-0.3,1.1,0c0,0.1,0,0.2-0.1,0.3c-2.4,2.5-4.9,5-8.4,6
		c-1.2,0.3-2.4,0.7-3.5,1.2c0,0-0.1,0-0.1,0c-1.6-1.6-3.2-3.2-4.8-4.8c-0.2-0.2-0.5-0.3-0.4-0.6c0.6-1.7,1.1-3.4,1.8-5
		c0.6-1.7,1.7-3.1,3-4.4c1.2,0,2.3-0.5,3.5-0.7c1.2-0.2,1.7,0.2,1.4,1.4c-0.1,0.6-0.3,1.1-0.5,1.7C25.8,46.8,25.7,47.3,26.1,47.7z"
		/>
	<path class="st2" d="M34.1,51.4c-1,0-1.8,0.4-2.8,0.6c-0.5,0.1-0.8,0.1-1.1-0.3c0.2-0.2,0.4-0.4,0.6-0.6
		c8.4-8.4,16.9-16.9,25.3-25.3c0.2-0.2,0.4-0.5,0.7-0.5c0.6,0.5,1.2,1.1,1.7,1.8c-0.1,0.1-0.2,0.3-0.4,0.4
		C50.4,35.3,42.6,43.1,34.7,51c-0.2,0.2-0.3,0.3-0.5,0.4C34.2,51.4,34.1,51.4,34.1,51.4z"/>
</g>
</svg>
