<svg id="visual" viewBox="0 0 1969 239" width="1969" height="239" xmlns="http://www.w3.org/2000/svg" xmlns:xlink="http://www.w3.org/1999/xlink" version="1.1"><path d="M0 19L23.5 21.7C47 24.3 94 29.7 140.8 63.3C187.7 97 234.3 159 281.2 168.8C328 178.7 375 136.3 422 130.5C469 124.7 516 155.3 562.8 157.3C609.7 159.3 656.3 132.7 703.2 139.5C750 146.3 797 186.7 844 206.2C891 225.7 938 224.3 984.8 189C1031.7 153.7 1078.3 84.3 1125.2 79.5C1172 74.7 1219 134.3 1265.8 153.7C1312.7 173 1359.3 152 1406.2 121.7C1453 91.3 1500 51.7 1547 62C1594 72.3 1641 132.7 1687.8 133.8C1734.7 135 1781.3 77 1828.2 82.2C1875 87.3 1922 155.7 1945.5 189.8L1969 224L1969 240L1945.5 240C1922 240 1875 240 1828.2 240C1781.3 240 1734.7 240 1687.8 240C1641 240 1594 240 1547 240C1500 240 1453 240 1406.2 240C1359.3 240 1312.7 240 1265.8 240C1219 240 1172 240 1125.2 240C1078.3 240 1031.7 240 984.8 240C938 240 891 240 844 240C797 240 750 240 703.2 240C656.3 240 609.7 240 562.8 240C516 240 469 240 422 240C375 240 328 240 281.2 240C234.3 240 187.7 240 140.8 240C94 240 47 240 23.5 240L0 240Z" fill="#1F2229" stroke-linecap="round" stroke-linejoin="miter"></path></svg>