<?xml version="1.0" encoding="utf-8"?>
<!-- Generator: Adobe Illustrator 15.1.0, SVG Export Plug-In  -->
<!DOCTYPE svg PUBLIC "-//W3C//DTD SVG 1.1//EN" "http://www.w3.org/Graphics/SVG/1.1/DTD/svg11.dtd" [
	<!ENTITY ns_flows "http://ns.adobe.com/Flows/1.0/">
]>
<svg version="1.1"
	 xmlns="http://www.w3.org/2000/svg" xmlns:xlink="http://www.w3.org/1999/xlink" xmlns:a="http://ns.adobe.com/AdobeSVGViewerExtensions/3.0/"
	 x="0px" y="0px" width="16px" height="16px" viewBox="0 0 16 16" style="overflow:visible;enable-background:new 0 0 16 16;"
	 xml:space="preserve" preserveAspectRatio="xMinYMid meet">
<defs>
</defs>
<path style="fill:#999999;" d="M15,0H1C0.5,0,0,0.5,0,1v14c0,0.5,0.5,1,1,1h14c0.5,0,1-0.5,1-1V1C16,0.5,15.5,0,15,0z M15,8
	c-1.4,0-3.5,0-7,0c0,4,0,6,0,7H2c-0.5,0-1-0.5-1-1V8c2.8,0,5.1,0,7,0c0-1.9,0-4.2,0-7h6c0.5,0,1,0.5,1,1V8z"/>
</svg>
