<?xml version="1.0" encoding="utf-8"?>
<!-- Generator: Adobe Illustrator 15.1.0, SVG Export Plug-In  -->
<!DOCTYPE svg PUBLIC "-//W3C//DTD SVG 1.1//EN" "http://www.w3.org/Graphics/SVG/1.1/DTD/svg11.dtd" [
	<!ENTITY ns_flows "http://ns.adobe.com/Flows/1.0/">
]>
<svg version="1.1"
	 xmlns="http://www.w3.org/2000/svg" xmlns:xlink="http://www.w3.org/1999/xlink" xmlns:a="http://ns.adobe.com/AdobeSVGViewerExtensions/3.0/"
	 x="0px" y="0px" width="16px" height="16px" viewBox="-2.5 0 16 16" style="overflow:visible;enable-background:new -2.5 0 16 16;"
	 xml:space="preserve" preserveAspectRatio="xMinYMid meet">
<defs>
</defs>
<path style="fill:#FFFFFF;" d="M11,10.5c0,3-2.5,5.5-5.5,5.5S0,13.5,0,10.5C0,7,5.5,0,5.5,0S11,7,11,10.5z"/>
<path style="fill:#999999;" d="M5.5,0C5.5,0,0,7,0,10.5c0,3,2.5,5.5,5.5,5.5s5.5-2.5,5.5-5.5C11,7,5.5,0,5.5,0z M5.5,15
	C3,15,1,13,1,10.5C1,8.3,3.8,4,5.5,1.7C7.2,4,10,8.3,10,10.5C10,13,8,15,5.5,15z M5.4,11.9c0,0.7-0.5,1.2-1.2,1.2
	c-0.7,0-1.2-0.5-1.2-1.2c0-0.8,1.2-2.3,1.2-2.3S5.4,11.1,5.4,11.9z"/>
</svg>
