<?xml version="1.0" encoding="utf-8"?>
<!-- Generator: Adobe Illustrator 15.1.0, SVG Export Plug-In  -->
<!DOCTYPE svg PUBLIC "-//W3C//DTD SVG 1.1//EN" "http://www.w3.org/Graphics/SVG/1.1/DTD/svg11.dtd" [
	<!ENTITY ns_flows "http://ns.adobe.com/Flows/1.0/">
]>
<svg version="1.1"
	 xmlns="http://www.w3.org/2000/svg" xmlns:xlink="http://www.w3.org/1999/xlink" xmlns:a="http://ns.adobe.com/AdobeSVGViewerExtensions/3.0/"
	 x="0px" y="0px" width="16px" height="16px" viewBox="0 0 16 16" style="overflow:visible;enable-background:new 0 0 16 16;"
	 xml:space="preserve" preserveAspectRatio="xMinYMid meet">
<defs>
</defs>
<path style="fill:#999999;" d="M8.5,16H1c-0.5,0-1-0.5-1-1v-2.5C1,14,2.7,15,4.7,15c0.8,0,1.6-0.2,2.3-0.5L8.5,16z M15,0H1
	C0.5,0,0,0.5,0,1v5.2c0.7-1.1,1.8-1.9,3-2.3V3h10v1H6.6c0.6,0.2,1.2,0.6,1.7,1H13v1H9.3c0.2,0.3,0.4,0.6,0.6,1H13v1h-2.8
	c0.1,0.3,0.1,0.7,0.1,1H13v1h-2.7c-0.1,0.5-0.2,0.9-0.3,1.3v0.5l1.7,1.7c0.7,0.7,0.8,1.7,0.3,2.5h3c0.5,0,1-0.5,1-1V1
	C16,0.5,15.5,0,15,0z M11,15.7c-0.4,0.4-1,0.4-1.4,0l-2.2-2.2c-0.1-0.1-0.1-0.1-0.1-0.2C6.5,13.7,5.6,14,4.7,14h0
	C2.1,14,0,11.9,0,9.3c0-2.6,2.1-4.7,4.7-4.7c2.6,0,4.7,2.1,4.7,4.7c0,1-0.3,1.9-0.8,2.6C8.6,12,8.7,12,8.8,12l2.2,2.2
	C11.4,14.6,11.4,15.3,11,15.7z M7.4,9.3c0-1.5-1.2-2.7-2.7-2.7C3.2,6.7,2,7.9,2,9.3C2,10.8,3.2,12,4.7,12C6.2,12,7.4,10.8,7.4,9.3z"
	/>
</svg>
