<?xml version="1.0" encoding="utf-8"?>
<!-- Generator: Adobe Illustrator 15.1.0, SVG Export Plug-In  -->
<!DOCTYPE svg PUBLIC "-//W3C//DTD SVG 1.1//EN" "http://www.w3.org/Graphics/SVG/1.1/DTD/svg11.dtd" [
	<!ENTITY ns_flows "http://ns.adobe.com/Flows/1.0/">
]>
<svg version="1.1"
	 xmlns="http://www.w3.org/2000/svg" xmlns:xlink="http://www.w3.org/1999/xlink" xmlns:a="http://ns.adobe.com/AdobeSVGViewerExtensions/3.0/"
	 x="0px" y="0px" width="16px" height="16px" viewBox="0 0 16 16" style="overflow:visible;enable-background:new 0 0 16 16;"
	 xml:space="preserve" preserveAspectRatio="xMinYMid meet">
<defs>
</defs>
<path style="fill:#999999;" d="M15.5,5.3c0.8,0.4,0.4,1.3,0.4,1.3s-3.8,7.6-5.1,8.7C9.1,16.6,5.3,15.9,4,15
	c-0.9-0.7-3.7-5.1-3.7-5.1s-0.7-0.9,0-1.5c0.8-0.7,1.5,0,1.5,0l2,2.2l0.4-1.1L3.7,1.6c0,0,0-1.1,1-1.2c1.1-0.1,1.1,1.1,1.1,1.1
	L6.2,8l0.5,0l0.9-7c0,0,0.2-1.1,1.2-1c1.1,0.1,1,1.2,1,1.2l-0.9,7l0.5,0.2L11,2.6c0,0,0.3-1.2,1.4-0.8c1,0.4,0.7,1.4,0.7,1.4l-1.8,6
	l0.5,0.3l2.4-3.7C14.1,5.8,14.6,4.9,15.5,5.3"/>
</svg>
