<!DOCTYPE svg PUBLIC "-//W3C//DTD SVG 1.1//EN" "http://www.w3.org/Graphics/SVG/1.1/DTD/svg11.dtd" [
	<!ENTITY ns_flows "http://ns.adobe.com/Flows/1.0/">
]><svg xmlns="http://www.w3.org/2000/svg" width="16" height="16" viewBox="0 0 16 16" preserveAspectRatio="xMinYMid meet" overflow="visible"><path d="M1 15.8c-.6 0-1-.4-1-1s.4-1 1-1c.8 0 1.5-.2 2.2-.5-.2-.2-.4-.4-.5-.7C1.6 11.1 1 9 1 6.8 1 3.4 2.3 0 4.9 0c2.2 0 3.7 2.5 3.7 6.2 0 2.3-.6 4.6-1.7 6.3-.2.2-.3.5-.5.7 1.1.5 2.6.5 3.8.2C9.4 12.2 9 10.7 9 9.1c0-2.9 1.4-4.9 3.3-4.9 2 0 3.4 1.8 3.4 4.5 0 1.7-.6 3.4-1.7 4.6l-.3.3c.4.1.8.2 1.2.2.6 0 1 .4 1 1s-.4 1-1 1c-1.2 0-2.2-.3-3.1-.8-.9.4-1.9.7-3.3.7s-2.6-.3-3.7-.9c-1.1.6-2.4 1-3.8 1zm11.3-9.6c-.7 0-1.3 1.3-1.3 2.9 0 1.2.3 2.4 1 3.2l.1.1c.2-.1.3-.3.5-.5.8-.9 1.2-2.1 1.2-3.3-.2-1.2-.6-2.4-1.5-2.4zM4.9 2C4.1 2 3 3.9 3 6.8c0 1.8.5 3.5 1.3 4.7.1.2.3.4.4.5.2-.2.3-.4.4-.6C6 10 6.6 8.1 6.6 6.2 6.6 3.9 5.8 2 4.9 2z" fill="#888"/></svg>