<?xml version="1.0" encoding="utf-8"?>
<!-- Generator: Adobe Illustrator 15.1.0, SVG Export Plug-In  -->
<!DOCTYPE svg PUBLIC "-//W3C//DTD SVG 1.1//EN" "http://www.w3.org/Graphics/SVG/1.1/DTD/svg11.dtd" [
	<!ENTITY ns_flows "http://ns.adobe.com/Flows/1.0/">
]>
<svg version="1.1"
	 xmlns="http://www.w3.org/2000/svg" xmlns:xlink="http://www.w3.org/1999/xlink" xmlns:a="http://ns.adobe.com/AdobeSVGViewerExtensions/3.0/"
	 x="0px" y="0px" width="16px" height="16px" viewBox="0 0 16 16" style="overflow:visible;enable-background:new 0 0 16 16;"
	 xml:space="preserve" preserveAspectRatio="xMinYMid meet">
<defs>
</defs>
<path style="fill:#999999;" d="M1,15.8c-0.6,0-1-0.4-1-1s0.4-1,1-1c0.8,0,1.5-0.2,2.2-0.5c-0.2-0.2-0.4-0.4-0.5-0.7
	C1.6,11.1,1,9,1,6.8C1,3.4,2.3,0,4.9,0c2.2,0,3.7,2.5,3.7,6.2c0,2.3-0.6,4.6-1.7,6.3c-0.2,0.2-0.3,0.5-0.5,0.7
	c1.1,0.5,2.6,0.5,3.8,0.2c-0.8-1.2-1.2-2.7-1.2-4.3c0-2.9,1.4-4.9,3.3-4.9c2,0,3.4,1.8,3.4,4.5c0,1.7-0.6,3.4-1.7,4.6
	c-0.1,0.1-0.2,0.2-0.3,0.3c0.4,0.1,0.8,0.2,1.2,0.2c0.6,0,1,0.4,1,1s-0.4,1-1,1c-1.2,0-2.2-0.3-3.1-0.8c-0.9,0.4-1.9,0.7-3.3,0.7
	c-1.4,0-2.6-0.3-3.7-0.9C3.7,15.4,2.4,15.8,1,15.8z M12.3,6.2c-0.7,0-1.3,1.3-1.3,2.9c0,1.2,0.3,2.4,1,3.2c0,0,0.1,0.1,0.1,0.1
	c0.2-0.1,0.3-0.3,0.5-0.5c0.8-0.9,1.2-2.1,1.2-3.3C13.6,7.4,13.2,6.2,12.3,6.2z M4.9,2C4.1,2,3,3.9,3,6.8c0,1.8,0.5,3.5,1.3,4.7
	c0.1,0.2,0.3,0.4,0.4,0.5c0.2-0.2,0.3-0.4,0.4-0.6C6,10,6.6,8.1,6.6,6.2C6.6,3.9,5.8,2,4.9,2z"/>
</svg>
