<?xml version="1.0" encoding="UTF-8" standalone="no"?>
<svg
   xmlns:dc="http://purl.org/dc/elements/1.1/"
   xmlns:cc="http://creativecommons.org/ns#"
   xmlns:rdf="http://www.w3.org/1999/02/22-rdf-syntax-ns#"
   xmlns:svg="http://www.w3.org/2000/svg"
   xmlns="http://www.w3.org/2000/svg"
   xmlns:sodipodi="http://sodipodi.sourceforge.net/DTD/sodipodi-0.dtd"
   xmlns:inkscape="http://www.inkscape.org/namespaces/inkscape"
   width="16"
   height="16"
   viewBox="0 0 16 16"
   preserveAspectRatio="xMinYMid meet"
   overflow="visible"
   version="1.1"
   id="svg4"
   sodipodi:docname="rotate_right.svg"
   inkscape:version="0.92.3 (unknown)">
  <metadata
     id="metadata10">
    <rdf:RDF>
      <cc:Work
         rdf:about="">
        <dc:format>image/svg+xml</dc:format>
        <dc:type
           rdf:resource="http://purl.org/dc/dcmitype/StillImage" />
        <dc:title></dc:title>
      </cc:Work>
    </rdf:RDF>
  </metadata>
  <defs
     id="defs8" />
  <sodipodi:namedview
     pagecolor="#ffffff"
     bordercolor="#666666"
     borderopacity="1"
     objecttolerance="10"
     gridtolerance="10"
     guidetolerance="10"
     inkscape:pageopacity="0"
     inkscape:pageshadow="2"
     inkscape:window-width="640"
     inkscape:window-height="480"
     id="namedview6"
     showgrid="false"
     inkscape:zoom="14.75"
     inkscape:cx="8"
     inkscape:cy="8"
     inkscape:window-x="758"
     inkscape:window-y="140"
     inkscape:window-maximized="0"
     inkscape:current-layer="svg4" />
  <path
     d="M 0,8.1 C 0,4.1 3,0.7 7,0.3 v 3 C 5,3.8 3,5.8 3,8.2 c 0,2.8 2.2,5 5,5 2.8,0 5,-2.2 5,-5 0,-1.1 0,-2.1 -1,-3 v 1 C 12,6.7 11.5,7 10.9,7 h -1 C 9.4,7 9,6.7 9,6.2 v -5 C 9,0.6 9.4,0 9.9,0 h 5 C 15.5,0 16,0.6 16,1.2 v 1 C 16,2.7 15.5,3 14.9,3 H 14 c 1.1,1 1.8,3.1 1.8,5 0,4.4 -3.5,8 -7.9,8 C 3.6,16 0,12.5 0,8.1 Z"
     id="path2"
     inkscape:connector-curvature="0"
     style="fill:#999999" />
</svg>
