<?xml version="1.0" encoding="UTF-8" standalone="no"?>
<svg
   xmlns:dc="http://purl.org/dc/elements/1.1/"
   xmlns:cc="http://creativecommons.org/ns#"
   xmlns:rdf="http://www.w3.org/1999/02/22-rdf-syntax-ns#"
   xmlns:svg="http://www.w3.org/2000/svg"
   xmlns="http://www.w3.org/2000/svg"
   xmlns:sodipodi="http://sodipodi.sourceforge.net/DTD/sodipodi-0.dtd"
   xmlns:inkscape="http://www.inkscape.org/namespaces/inkscape"
   width="16"
   height="16"
   viewBox="0 0 16 16"
   preserveAspectRatio="xMinYMid meet"
   overflow="visible"
   version="1.1"
   id="svg4"
   sodipodi:docname="rotate_left.svg"
   inkscape:version="0.92.3 (unknown)">
  <metadata
     id="metadata10">
    <rdf:RDF>
      <cc:Work
         rdf:about="">
        <dc:format>image/svg+xml</dc:format>
        <dc:type
           rdf:resource="http://purl.org/dc/dcmitype/StillImage" />
        <dc:title></dc:title>
      </cc:Work>
    </rdf:RDF>
  </metadata>
  <defs
     id="defs8" />
  <sodipodi:namedview
     pagecolor="#ffffff"
     bordercolor="#666666"
     borderopacity="1"
     objecttolerance="10"
     gridtolerance="10"
     guidetolerance="10"
     inkscape:pageopacity="0"
     inkscape:pageshadow="2"
     inkscape:window-width="640"
     inkscape:window-height="480"
     id="namedview6"
     showgrid="false"
     inkscape:zoom="14.75"
     inkscape:cx="8"
     inkscape:cy="8"
     inkscape:window-x="758"
     inkscape:window-y="140"
     inkscape:window-maximized="0"
     inkscape:current-layer="svg4" />
  <path
     d="M 16,8.1 C 16,4.1 13,0.7 9,0.3 v 3 c 2,0.5 4,2.5 4,4.9 0,2.8 -2.2,5 -5,5 -2.8,0 -5,-2.2 -5,-5 0,-1.1 0,-2.1 1,-3 v 1 C 4,6.7 4.5,7 5.1,7 h 1 C 6.6,7 7,6.7 7,6.2 v -5 C 7,0.6 6.6,0 6.1,0 h -5 C 0.5,0 0,0.6 0,1.2 v 1 C 0,2.7 0.5,3 1.1,3 H 2 C 0.9,4 0.2,6.1 0.2,8 c 0,4.4 3.5,8 7.9,8 4.3,0 7.9,-3.5 7.9,-7.9 z"
     id="path2"
     inkscape:connector-curvature="0"
     style="fill:#888" />
</svg>
