<?xml version="1.0" encoding="UTF-8"?>
<svg width="23px" height="24px" viewBox="0 0 23 24" version="1.1" xmlns="http://www.w3.org/2000/svg" xmlns:xlink="http://www.w3.org/1999/xlink" preserveAspectRatio="xMinYMid meet">
    <!-- Generator: Sketch 59.1 (86144) - https://sketch.com -->
    <title>Group 3</title>
    <desc>Created with Sketch.</desc>
    <g id="Grading" stroke="none" stroke-width="1" fill="none" fill-rule="evenodd">
        <g id="Grading-Copy-4" transform="translate(-1072.000000, -21.000000)">
            <g id="Group-3" transform="translate(1072.000000, 21.500000)">
                <g id="left-arrow" transform="translate(0.000000, 6.795455)" fill="#000000" fill-rule="nonzero">
                    <path d="M9.86688101,3.53622875 L9.8832003,3.5397986 L2.88749446,3.5397986 L5.08668884,1.33575942 C5.19437916,1.2281541 5.25345159,1.08238544 5.25345159,0.929392092 C5.25345159,0.776398744 5.19437916,0.631650037 5.08668884,0.523789727 L4.74449372,0.181424612 C4.6368884,0.0738192905 4.49349963,0.0143218773 4.34059128,0.0143218773 C4.18759793,0.0143218773 4.04412417,0.0733943089 3.93651885,0.18099963 L0.166677753,3.95050074 C0.0586474501,4.05853104 -0.000424981523,4.20242979 -2.27716707e-06,4.35550813 C-0.000424981523,4.50943644 0.0586474501,4.65342018 0.166677753,4.76128049 L3.93651885,8.53112158 C4.04412417,8.63864191 4.18751293,8.69779933 4.34059128,8.69779933 C4.49349963,8.69779933 4.6368884,8.63855691 4.74449372,8.53112158 L5.08668884,8.18875647 C5.19437916,8.08132114 5.25345159,7.93784738 5.25345159,7.78485403 C5.25345159,7.63194568 5.19437916,7.49603659 5.08668884,7.38851626 L2.86267554,5.17215262 L9.87470067,5.17215262 C10.189782,5.17215262 10.4545455,4.90058943 10.4545455,4.58567812 L10.4545455,4.10145418 C10.4545455,3.78654287 10.1819623,3.53622875 9.86688101,3.53622875 Z" id="Path"></path>
                </g>
                <g id="left-arrow" transform="translate(17.772727, 11.151515) rotate(180.000000) translate(-17.772727, -11.151515) translate(12.545455, 6.795455)" fill="#000000" fill-rule="nonzero">
                    <path d="M9.86688101,3.53622875 L9.8832003,3.5397986 L2.88749446,3.5397986 L5.08668884,1.33575942 C5.19437916,1.2281541 5.25345159,1.08238544 5.25345159,0.929392092 C5.25345159,0.776398744 5.19437916,0.631650037 5.08668884,0.523789727 L4.74449372,0.181424612 C4.6368884,0.0738192905 4.49349963,0.0143218773 4.34059128,0.0143218773 C4.18759793,0.0143218773 4.04412417,0.0733943089 3.93651885,0.18099963 L0.166677753,3.95050074 C0.0586474501,4.05853104 -0.000424981523,4.20242979 -2.27716707e-06,4.35550813 C-0.000424981523,4.50943644 0.0586474501,4.65342018 0.166677753,4.76128049 L3.93651885,8.53112158 C4.04412417,8.63864191 4.18751293,8.69779933 4.34059128,8.69779933 C4.49349963,8.69779933 4.6368884,8.63855691 4.74449372,8.53112158 L5.08668884,8.18875647 C5.19437916,8.08132114 5.25345159,7.93784738 5.25345159,7.78485403 C5.25345159,7.63194568 5.19437916,7.49603659 5.08668884,7.38851626 L2.86267554,5.17215262 L9.87470067,5.17215262 C10.189782,5.17215262 10.4545455,4.90058943 10.4545455,4.58567812 L10.4545455,4.10145418 C10.4545455,3.78654287 10.1819623,3.53622875 9.86688101,3.53622875 Z" id="Path"></path>
                </g>
                <g id="Group-2" transform="translate(0.522727, 0.000000)" stroke="#000000" stroke-linecap="square" stroke-width="2">
                    <path d="M0.522727273,0.522727273 L21.4318182,0.522727273 M0.522727273,0.522727273 L0.522727273,3.13636364 M21.4318182,0.522727273 L21.4318182,3.13636364" id="Combined-Shape"></path>
                </g>
                <g id="Group-2" transform="translate(11.500000, 21.431818) scale(1, -1) translate(-11.500000, -21.431818) translate(0.522727, 19.863636)" stroke="#000000" stroke-linecap="square" stroke-width="2">
                    <path d="M0.522727273,0.522727273 L21.4318182,0.522727273 M0.522727273,0.522727273 L0.522727273,3.13636364 M21.4318182,0.522727273 L21.4318182,3.13636364" id="Combined-Shape"></path>
                </g>
            </g>
        </g>
    </g>
</svg>