<?xml version="1.0" encoding="utf-8"?>
<!-- Generator: Adobe Illustrator 25.2.1, SVG Export Plug-In . SVG Version: 6.00 Build 0)  -->
<svg width="24px" height="24px" version="1.1" id="Layer_1" xmlns="http://www.w3.org/2000/svg" xmlns:xlink="http://www.w3.org/1999/xlink" x="0px" y="0px"
	 viewBox="0 0 74.4 74.4" style="enable-background:new 0 0 74.4 74.4;" xml:space="preserve" preserveAspectRatio="xMinYMid meet">
<g>
	<path d="M62,3.8L62,3.8H12.4C5.5,3.8,0,9.4,0,16.2l0,0v33.6c0,6.9,5.6,12.3,12.4,12.3h9l13.7,11.6c1.2,0.9,2.8,0.9,4,0l13.8-11.6h9
		c6.9,0,12.4-5.6,12.4-12.4V16.2C74.3,9.3,68.9,3.8,62,3.8z M69.1,15.5v34.6c0,3.5-2.8,6.3-6.3,6.3l0,0h-9.2c-1.5,0-2.9,0.5-4.1,1.5
		L37.3,68.1L25,57.9c-1.1-1-2.6-1.5-4.1-1.5h-9.1c-3.5,0-6.3-2.8-6.3-6.3l0,0V15.5c0-3.5,2.8-6.3,6.3-6.3l0,0h50.8
		C66.1,9.2,69.1,12,69.1,15.5L69.1,15.5z"/>
	<path d="M14.9,35.4c0.1,0,32.4,0,32.4,0c1.4,0,2.6-1.2,2.6-2.6c0-1.4-1.2-2.6-2.6-2.6H15.2c-1.4-0.1-2.7,1-2.8,2.4
		C12.4,34.1,13.5,35.3,14.9,35.4z"/>
	<path d="M15.1,24.9h16.1c1.4-0.1,2.5-1.3,2.4-2.8c-0.1-1.3-1.1-2.4-2.4-2.4h-16c-1.4,0-2.6,1.2-2.5,2.7
		C12.8,23.7,13.8,24.8,15.1,24.9z"/>
	<path d="M47.2,40.6H15.1c-1.4-0.1-2.7,1-2.8,2.4c-0.1,1.4,1,2.7,2.4,2.8c0.1,0,32.4,0,32.4,0c1.5,0,2.6-1.1,2.6-2.6
		S48.7,40.6,47.2,40.6z"/>
</g>
</svg>
