<?xml version="1.0" encoding="UTF-8"?>
<svg width="24px" height="24px" viewBox="0 0 24 24" version="1.1" xmlns="http://www.w3.org/2000/svg" xmlns:xlink="http://www.w3.org/1999/xlink" preserveAspectRatio="xMinYMid meet">
    <!-- Generator: Sketch 59.1 (86144) - https://sketch.com -->
    <title>show</title>
    <desc>Created with Sketch.</desc>
    <g id="Grading" stroke="none" stroke-width="1" fill="none" fill-rule="evenodd">
        <g id="Grading-Copy-4" transform="translate(-1070.000000, -21.000000)" fill="#000000" fill-rule="nonzero">
            <g id="show" transform="translate(1082.000000, 33.000000) rotate(180.000000) translate(-1082.000000, -33.000000) translate(1070.000000, 21.000000)">
                <path d="M3.75,13.7454044 L7.96875,13.7454044 L7.96875,15.6204044 L3.75,15.6204044 L3.75,13.7454044 Z M3.75,11.8760807 L7.96875,11.8760807 L7.96875,10.0010807 L3.75,10.0010807 L3.75,11.8760807 Z M3.75,6.39170569 L3.75,8.26670569 L7.96875,8.26670569 L7.96875,6.39170569 L3.75,6.39170569 Z M3.75,19.2297794 L7.96875,19.2297794 L7.96875,17.3547794 L3.75,17.3547794 L3.75,19.2297794 Z M24,2.8125 L24,21.1875 C24,22.7384033 22.7384033,24 21.1875,24 L2.8125,24 C1.26159666,24 0,22.7384033 0,21.1875 L0,2.8125 C0,1.26159666 1.26159666,0 2.8125,0 L21.1875,0 C22.7384033,0 24,1.26159666 24,2.8125 Z M2.8125,22.125 L9.84375,22.125 L9.84375,1.875 L2.8125,1.875 C2.29559325,1.875 1.875,2.29559325 1.875,2.8125 L1.875,21.1875 C1.875,21.7044068 2.29559325,22.125 2.8125,22.125 Z M22.125,2.8125 C22.125,2.29559325 21.7044067,1.875 21.1875,1.875 L11.71875,1.875 L11.71875,10.921875 L16.7678833,10.921875 L14.6116333,8.765625 L15.9375,7.43975831 L20.3571167,11.859375 L15.9375,16.2789917 L14.6116333,14.953125 L16.7678833,12.796875 L11.71875,12.796875 L11.71875,22.125 L21.1875,22.125 C21.7044067,22.125 22.125,21.7044068 22.125,21.1875 L22.125,2.8125 Z" id="Shape" transform="translate(12.000000, 12.000000) scale(-1, 1) translate(-12.000000, -12.000000) "></path>
            </g>
        </g>
    </g>
</svg>