<svg width="112" height="147" viewBox="0 0 112 147" fill="none" xmlns="http://www.w3.org/2000/svg" preserveAspectRatio="xMinYMid meet">
<path d="M54.48 108.96C84.5685 108.96 108.96 84.5685 108.96 54.48C108.96 24.3915 84.5685 0 54.48 0C24.3915 0 0 24.3915 0 54.48C0 84.5685 24.3915 108.96 54.48 108.96Z" fill="#C4E5FF"/>
<rect x="23" y="59" width="28" height="28" rx="8" fill="white"/>
<rect x="61" y="60" width="26" height="26" rx="7" fill="white" stroke="#0056B2" stroke-width="2"/>
<rect x="23" y="24" width="28" height="28" rx="8" fill="white"/>
<rect x="60" y="24" width="28" height="28" rx="8" fill="white"/>
<path d="M105.96 106.41C105.598 106.027 105.161 105.724 104.675 105.52C104.189 105.317 103.666 105.218 103.14 105.23C102.62 105.226 102.104 105.328 101.625 105.529C101.145 105.73 100.712 106.027 100.35 106.4C99.9751 106.758 99.6786 107.19 99.479 107.669C99.2794 108.147 99.1809 108.662 99.1896 109.18V110.36H98.0596V105.96C98.0663 105.034 97.7557 104.134 97.1796 103.41C96.6276 102.672 95.823 102.163 94.9196 101.98C94.6515 101.939 94.3808 101.919 94.1096 101.92C93.0591 101.92 92.0506 102.333 91.3021 103.07C90.5537 103.807 90.1254 104.809 90.1096 105.86V110.36H88.9796V106.07C88.9929 104.915 88.584 103.795 87.8296 102.92C87.4702 102.481 87.0268 102.119 86.5253 101.855C86.0238 101.59 85.4744 101.429 84.9096 101.38C84.7565 101.368 84.6027 101.368 84.4496 101.38C83.2543 101.383 82.1087 101.859 81.2634 102.704C80.4182 103.549 79.9422 104.695 79.9396 105.89V110.36H78.8196V95.9199V80.1199C78.8319 79.2464 78.5579 78.393 78.0396 77.6899C77.9269 77.5286 77.7997 77.378 77.6596 77.2399C76.9924 76.5556 76.0936 76.1454 75.1395 76.0898H74.5996C73.6463 76.1482 72.7484 76.558 72.0796 77.2399C71.9419 77.3802 71.8149 77.5306 71.6996 77.6899C71.1812 78.393 70.9073 79.2464 70.9196 80.1199V106.76C70.9241 106.826 70.9241 106.893 70.9196 106.96V122.06L69.7896 121.01V114.95C69.8005 114.421 69.7063 113.894 69.5123 113.402C69.3184 112.909 69.0285 112.46 68.6596 112.08C68.293 111.708 67.8563 111.413 67.3748 111.212C66.8932 111.01 66.3766 110.907 65.8546 110.907C65.3327 110.907 64.8159 111.01 64.3344 111.212C63.8528 111.413 63.4161 111.708 63.0496 112.08C62.6731 112.437 62.3753 112.868 62.1755 113.347C61.9758 113.826 61.8784 114.341 61.8895 114.86V122.74C61.8902 123.28 62.0005 123.815 62.2136 124.312C62.4268 124.809 62.7383 125.257 63.1295 125.63L74.1295 136.04C74.5903 136.514 74.9502 137.076 75.1874 137.693C75.4246 138.311 75.5341 138.969 75.5095 139.63C75.5067 139.925 75.5648 140.218 75.6801 140.49C75.7953 140.761 75.9654 141.007 76.1796 141.21C76.3847 141.424 76.6317 141.594 76.9052 141.71C77.1786 141.825 77.4728 141.883 77.7695 141.88H100.36C100.656 141.885 100.95 141.829 101.223 141.715C101.497 141.602 101.744 141.433 101.95 141.22C102.162 141.013 102.331 140.766 102.446 140.493C102.561 140.22 102.62 139.926 102.62 139.63V138.75C102.605 137.834 102.723 136.922 102.97 136.04L106.76 120.69C107.001 119.807 107.119 118.895 107.11 117.98V109.32C107.123 108.782 107.029 108.248 106.831 107.748C106.633 107.248 106.337 106.793 105.96 106.41Z" fill="white"/>
<path d="M111.61 109.27C111.62 108.155 111.406 107.049 110.98 106.018C110.554 104.987 109.925 104.052 109.13 103.27C108.359 102.458 107.427 101.816 106.394 101.384C105.361 100.952 104.249 100.739 103.13 100.76C102.429 100.757 101.73 100.841 101.05 101.01C95.3934 100.233 89.8399 98.8347 84.49 96.8399C84.1159 96.8394 83.742 96.8594 83.37 96.8999V80.1099C83.3828 78.9942 83.1695 77.8875 82.7433 76.8564C82.3171 75.8252 81.6867 74.891 80.8899 74.1099C79.8327 73.0044 78.4841 72.2208 77 71.8499H76.83L76.24 71.7399H75.8899C75.5901 71.7247 75.2898 71.7247 74.99 71.7399H74.83C74.53 71.7399 74.2299 71.7399 73.93 71.7399H73.58L72.99 71.8499H72.82C71.3359 72.2208 69.9872 73.0044 68.93 74.1099C68.1332 74.891 67.5028 75.8252 67.0766 76.8564C66.6504 77.8875 66.4372 78.9942 66.45 80.1099V106.43C66.2669 106.416 66.083 106.416 65.8999 106.43C63.6595 106.435 61.5123 107.327 59.9271 108.91C58.342 110.493 57.4479 112.64 57.44 114.88V122.77C57.4271 123.928 57.6592 125.075 58.1211 126.137C58.583 127.198 59.2642 128.15 60.12 128.93L70.98 139.36C70.9421 141.212 71.6272 143.005 72.8899 144.36C73.508 145.03 74.2624 145.561 75.1023 145.916C75.9422 146.272 76.8483 146.443 77.7599 146.42H100.35C101.244 146.433 102.132 146.262 102.958 145.918C103.783 145.574 104.529 145.064 105.15 144.42C105.796 143.803 106.307 143.059 106.651 142.234C106.996 141.41 107.165 140.523 107.15 139.63C107.125 138.791 107.195 137.953 107.36 137.13L111.2 121.78C111.489 120.53 111.64 119.253 111.65 117.97L111.61 109.27ZM106.75 120.65L102.96 136C102.713 136.882 102.595 137.794 102.61 138.71V139.59C102.611 139.886 102.552 140.18 102.437 140.453C102.321 140.726 102.153 140.973 101.94 141.18C101.734 141.393 101.487 141.562 101.214 141.675C100.94 141.789 100.646 141.845 100.35 141.84H77.7599C77.4632 141.843 77.169 141.785 76.8955 141.67C76.622 141.554 76.3751 141.384 76.1699 141.17C75.9558 140.967 75.7857 140.721 75.6704 140.45C75.5552 140.178 75.4972 139.885 75.5 139.59C75.5246 138.929 75.4149 138.271 75.1778 137.654C74.9406 137.037 74.5808 136.474 74.12 136L63.12 125.59C62.7288 125.217 62.4171 124.769 62.204 124.272C61.9909 123.775 61.8806 123.24 61.8799 122.7V114.82C61.8687 114.301 61.9663 113.786 62.166 113.307C62.3658 112.828 62.6634 112.397 63.0399 112.04C63.4065 111.668 63.8432 111.373 64.3247 111.172C64.8063 110.97 65.323 110.867 65.845 110.867C66.3669 110.867 66.8836 110.97 67.3651 111.172C67.8467 111.373 68.2834 111.668 68.6499 112.04C69.0189 112.42 69.3087 112.869 69.5027 113.362C69.6967 113.854 69.7909 114.381 69.7799 114.91V120.97L70.9099 122.02V106.92C70.9144 106.853 70.9144 106.786 70.9099 106.72V80.1199C70.8976 79.2465 71.1716 78.393 71.69 77.6899C71.8052 77.5307 71.9323 77.3802 72.07 77.2399C72.7388 76.558 73.6366 76.1483 74.59 76.0899H75.1299C76.084 76.1454 76.9828 76.5556 77.6499 77.2399C77.79 77.378 77.9172 77.5287 78.0299 77.6899C78.5483 78.393 78.8223 79.2465 78.81 80.1199V95.9199V110.36H79.93V105.85C79.9326 104.655 80.4086 103.509 81.2538 102.664C82.099 101.819 83.2446 101.343 84.44 101.34C84.593 101.328 84.7468 101.328 84.8999 101.34C85.4648 101.389 86.0142 101.55 86.5156 101.815C87.0171 102.079 87.4606 102.441 87.82 102.88C88.5743 103.755 88.9833 104.875 88.97 106.03V110.36H90.1V105.85C90.1158 104.799 90.5441 103.797 91.2925 103.06C92.0409 102.323 93.0494 101.91 94.1 101.91C94.3711 101.909 94.6419 101.929 94.9099 101.97C95.8134 102.153 96.618 102.662 97.1699 103.4C97.7461 104.124 98.0566 105.024 98.0499 105.95V110.36H99.18V109.23C99.1712 108.712 99.2698 108.197 99.4694 107.719C99.669 107.24 99.9654 106.808 100.34 106.45C100.702 106.077 101.136 105.78 101.615 105.579C102.095 105.378 102.61 105.276 103.13 105.28C103.656 105.268 104.18 105.367 104.665 105.57C105.151 105.774 105.589 106.077 105.95 106.46C106.319 106.84 106.609 107.289 106.803 107.782C106.997 108.274 107.091 108.801 107.08 109.33V117.99C107.092 118.887 106.981 119.782 106.75 120.65Z" fill="#0056B2"/>
</svg>
