<svg width="109" height="136" viewBox="0 0 109 136" fill="none" xmlns="http://www.w3.org/2000/svg" preserveAspectRatio="xMinYMid meet">
<path d="M54.49 9.17858e-07C43.7125 1.09935e-06 33.177 3.19608 24.216 9.18396C15.2549 15.1718 8.27081 23.6826 4.14688 33.6399C0.0229583 43.5972 -1.05556 54.5538 1.04776 65.1241C3.15108 75.6944 8.34179 85.4036 15.9634 93.0238C23.5849 100.644 33.295 105.833 43.8657 107.934C54.4364 110.036 65.3928 108.955 75.3494 104.829C85.306 100.704 93.8154 93.7179 99.8017 84.7557C105.788 75.7936 108.982 65.2575 108.98 54.48C108.98 47.3247 107.571 40.2396 104.832 33.6292C102.094 27.0187 98.0797 21.0123 93.0197 15.9532C87.9597 10.8942 81.9527 6.88145 75.3417 4.14417C68.7307 1.40688 61.6453 -0.00131246 54.49 9.17858e-07Z" fill="#C4E5FF"/>
<path d="M79.0804 25H29.9004C26.8628 25 24.4004 27.4602 24.4004 30.495C24.4004 33.5298 26.8628 35.99 29.9004 35.99H79.0804C82.118 35.99 84.5804 33.5298 84.5804 30.495C84.5804 27.4602 82.118 25 79.0804 25Z" fill="white"/>
<path d="M79.0804 42.7207H29.9004C26.8628 42.7207 24.4004 45.1809 24.4004 48.2157C24.4004 51.2505 26.8628 53.7107 29.9004 53.7107H79.0804C82.118 53.7107 84.5804 51.2505 84.5804 48.2157C84.5804 45.1809 82.118 42.7207 79.0804 42.7207Z" fill="white"/>
<path d="M29.9004 61.7207H79.0804C81.5665 61.7207 83.5804 63.734 83.5804 66.2157C83.5804 68.6974 81.5665 70.7107 79.0804 70.7107H29.9004C27.4143 70.7107 25.4004 68.6974 25.4004 66.2157C25.4004 63.734 27.4143 61.7207 29.9004 61.7207Z" fill="white" stroke="#0056B2" stroke-width="2"/>
<path d="M79.0804 78.6602H29.9004C26.8628 78.6602 24.4004 81.1203 24.4004 84.1552C24.4004 87.19 26.8628 89.6501 29.9004 89.6501H79.0804C82.118 89.6501 84.5804 87.19 84.5804 84.1552C84.5804 81.1203 82.118 78.6602 79.0804 78.6602Z" fill="white"/>
<path d="M95.53 95.58C95.1703 95.1947 94.7329 94.8904 94.2468 94.687C93.7606 94.4836 93.2368 94.3857 92.71 94.4C92.1897 94.3942 91.6737 94.4949 91.1939 94.6962C90.714 94.8974 90.2804 95.1949 89.9199 95.5701C89.5454 95.9285 89.249 96.3603 89.0494 96.8387C88.8498 97.3172 88.7512 97.8317 88.76 98.35V99.48H87.6299V95.08C87.6384 94.1571 87.3275 93.2598 86.7499 92.54C86.2013 91.7983 85.3952 91.2882 84.4899 91.11C84.222 91.0668 83.9513 91.0434 83.6799 91.04C82.6277 91.04 81.6177 91.4545 80.869 92.1938C80.1203 92.9332 79.6931 93.9378 79.6799 94.99V99.49H78.59V95.2001C78.6033 94.045 78.1943 92.9248 77.4399 92.05C77.08 91.613 76.6362 91.2524 76.1347 90.9896C75.6332 90.7268 75.0842 90.5672 74.52 90.52C74.3702 90.5076 74.2197 90.5076 74.0699 90.52C73.4768 90.5187 72.8893 90.6344 72.3409 90.8605C71.7926 91.0865 71.2943 91.4185 70.8745 91.8374C70.4546 92.2563 70.1215 92.7539 69.8942 93.3018C69.667 93.8496 69.5499 94.4369 69.5499 95.03V99.53H68.4199V85.11V69.3101C68.4322 68.4366 68.1583 67.5831 67.64 66.88C67.5257 66.7228 67.4021 66.5726 67.27 66.4301C66.5993 65.7463 65.6964 65.3395 64.7399 65.29H64.1899C63.2331 65.3375 62.3294 65.7447 61.6599 66.4301C61.5249 66.5763 61.3981 66.7299 61.28 66.89C60.7637 67.5904 60.4898 68.44 60.4999 69.3101V95.96C60.5044 96.0266 60.5044 96.0934 60.4999 96.16V111.25L59.3699 110.25V104.25C59.3822 103.719 59.2887 103.191 59.0947 102.696C58.9007 102.202 58.6101 101.751 58.2399 101.37C57.8782 100.988 57.4402 100.687 56.9544 100.485C56.4686 100.283 55.9457 100.186 55.4199 100.2C54.3591 100.2 53.3416 100.621 52.5915 101.372C51.8413 102.122 51.4199 103.139 51.4199 104.2V112.08C51.4193 112.62 51.5281 113.154 51.7394 113.651C51.9508 114.147 52.2606 114.596 52.65 114.97L63.65 125.38C64.1128 125.85 64.4741 126.411 64.7115 127.027C64.9489 127.643 65.0573 128.301 65.03 128.96C65.027 129.257 65.0849 129.551 65.2001 129.824C65.3154 130.098 65.4855 130.345 65.7 130.55C65.9041 130.765 66.151 130.935 66.4249 131.049C66.6988 131.162 66.9935 131.217 67.2899 131.21H89.8799C90.4752 131.202 91.0441 130.963 91.4659 130.543C91.8878 130.123 92.1296 129.555 92.14 128.96V128.08C92.1312 127.162 92.2489 126.246 92.4899 125.36L96.28 110.02C96.5254 109.138 96.6432 108.225 96.6299 107.31V98.65C96.6725 98.0897 96.5965 97.5268 96.407 96.9978C96.2175 96.4688 95.9187 95.9857 95.53 95.58Z" fill="white"/>
<path d="M101.191 98.4404C101.205 97.3255 100.993 96.2191 100.569 95.188C100.144 94.1569 99.5158 93.2224 98.7209 92.4404C97.9489 91.6297 97.017 90.988 95.9842 90.5559C94.9514 90.1239 93.8402 89.9109 92.7209 89.9304C92.0203 89.9248 91.3218 90.0054 90.6409 90.1704C89.8742 89.0485 88.8441 88.1317 87.6409 87.5004C86.4285 86.876 85.0846 86.5503 83.7209 86.5504C82.1912 86.5525 80.691 86.9708 79.3809 87.7604C77.8766 86.5965 76.0227 85.9761 74.1209 86.0004C73.7464 85.9982 73.3722 86.0216 73.0009 86.0704V69.3104C73.0109 68.196 72.7975 67.0908 72.3733 66.0603C71.9491 65.0298 71.3226 64.0948 70.5309 63.3104C69.4676 62.2095 68.1162 61.4298 66.6309 61.0604H66.4509C66.2563 61.0132 66.0593 60.9765 65.8609 60.9504H65.5109C65.2119 60.9183 64.9115 60.9015 64.6109 60.9004H64.4609C64.1569 60.9018 63.8532 60.9186 63.5509 60.9504H63.2009C63.0009 60.9504 62.8109 61.0104 62.6109 61.0604H62.4409C60.9575 61.4275 59.6087 62.2077 58.5509 63.3104C57.756 64.0929 57.1268 65.0274 56.7007 66.0582C56.2746 67.089 56.0604 68.1951 56.0709 69.3104V95.6204C55.8878 95.6074 55.704 95.6074 55.5209 95.6204C53.2797 95.623 51.1309 96.5138 49.5452 98.0977C47.9595 99.6815 47.0662 101.829 47.0609 104.07V111.96C47.0507 113.117 47.285 114.263 47.7486 115.323C48.2122 116.383 48.8945 117.333 49.7509 118.11L60.6309 128.52C60.5941 130.372 61.279 132.165 62.5408 133.52C63.1578 134.192 63.9122 134.722 64.7525 135.076C65.5929 135.43 66.4995 135.598 67.4108 135.57H90.0109C90.9003 135.572 91.7813 135.397 92.6032 135.058C93.4252 134.718 94.172 134.219 94.8009 133.59C95.4298 132.962 95.9284 132.215 96.2682 131.393C96.608 130.571 96.7822 129.69 96.7809 128.8C96.7568 127.962 96.8272 127.123 96.9909 126.3L100.821 110.95C101.11 109.704 101.261 108.43 101.271 107.15L101.191 98.4404ZM96.3309 109.82L92.5309 125.14C92.2899 126.027 92.1721 126.942 92.1809 127.86V128.74C92.1705 129.336 91.9288 129.903 91.5069 130.323C91.085 130.744 90.5161 130.983 89.9209 130.99H67.3309C67.0344 130.998 66.7397 130.943 66.4658 130.829C66.192 130.715 65.945 130.545 65.7409 130.33C65.5264 130.125 65.3563 129.878 65.241 129.605C65.1258 129.331 65.0679 129.037 65.0709 128.74C65.0982 128.081 64.9898 127.423 64.7525 126.807C64.5151 126.191 64.1537 125.631 63.6909 125.16L52.6909 114.75C52.3015 114.377 51.9917 113.928 51.7803 113.431C51.569 112.934 51.4603 112.4 51.4609 111.86V103.98C51.4609 102.919 51.8823 101.902 52.6325 101.152C53.3826 100.402 54.4 99.9803 55.4609 99.9803C55.9867 99.9667 56.5095 100.064 56.9953 100.265C57.4812 100.467 57.9192 100.769 58.2809 101.15C58.651 101.531 58.9416 101.982 59.1356 102.477C59.3296 102.971 59.4231 103.499 59.4108 104.03V110.03L60.5408 111.03V96.1404C60.5453 96.0738 60.5453 96.007 60.5408 95.9404V69.2904C60.5307 68.4204 60.8046 67.5707 61.3209 66.8704C61.439 66.7102 61.5659 66.5567 61.7009 66.4104C62.3703 65.7251 63.274 65.3179 64.2308 65.2704H64.7609C65.7173 65.3198 66.6202 65.7267 67.2908 66.4104C67.423 66.5529 67.5466 66.7031 67.6608 66.8604C68.1792 67.5635 68.4532 68.417 68.4409 69.2904V85.0903V99.5104H69.5709V95.0104C69.5709 94.4173 69.6878 93.8301 69.9151 93.2822C70.1424 92.7344 70.4755 92.2367 70.8953 91.8177C71.3152 91.3988 71.8136 91.0669 72.3619 90.8408C72.9102 90.6148 73.4978 90.4991 74.0909 90.5004C74.2406 90.4879 74.3911 90.4879 74.5408 90.5004C75.1051 90.5475 75.6541 90.7072 76.1557 90.97C76.6572 91.2327 77.101 91.5933 77.4609 92.0304C78.2152 92.9052 78.6241 94.0254 78.6109 95.1804V99.4703H79.7409V94.9703C79.754 93.9182 80.1812 92.9136 80.9299 92.1742C81.6787 91.4348 82.6886 91.0203 83.7409 91.0204C84.0122 91.0238 84.2829 91.0471 84.5509 91.0903C85.4561 91.2685 86.2622 91.7786 86.8109 92.5204C87.3884 93.2402 87.6993 94.1376 87.6909 95.0604V99.4603H88.8209V98.3303C88.8121 97.812 88.9107 97.2975 89.1103 96.8191C89.3099 96.3407 89.6063 95.9088 89.9809 95.5504C90.3414 95.1752 90.7749 94.8779 91.2548 94.6766C91.7346 94.4754 92.2506 94.3745 92.7709 94.3804C93.2977 94.3661 93.8215 94.4639 94.3077 94.6674C94.7939 94.8708 95.2313 95.1752 95.5909 95.5604C95.9616 95.9394 96.2533 96.3883 96.449 96.881C96.6447 97.3737 96.7405 97.9004 96.7309 98.4304V107.14C96.7218 108.049 96.5838 108.951 96.3209 109.82H96.3309Z" fill="#0056B2"/>
</svg>
