<svg width="111" height="116" viewBox="0 0 111 116" fill="none" xmlns="http://www.w3.org/2000/svg" preserveAspectRatio="xMinYMid meet">
<path d="M54.48 108.96C84.5685 108.96 108.96 84.5685 108.96 54.48C108.96 24.3915 84.5685 0 54.48 0C24.3915 0 0 24.3915 0 54.48C0 84.5685 24.3915 108.96 54.48 108.96Z" fill="#C4E5FF"/>
<path d="M28.4492 54.4801C28.4492 57.5425 29.0524 60.575 30.2243 63.4043C31.3962 66.2336 33.114 68.8044 35.2795 70.9698C37.4449 73.1353 40.0157 74.8531 42.845 76.025C45.6743 77.197 48.7067 77.8001 51.7692 77.8001H103.719C107.17 70.5102 108.959 62.5454 108.959 54.4801C108.959 46.4148 107.17 38.4501 103.719 31.1602H51.7692C45.5843 31.1602 39.6528 33.6171 35.2795 37.9904C30.9061 42.3638 28.4492 48.2953 28.4492 54.4801Z" fill="white"/>
<path d="M104.22 76.6996H51.7696C48.8126 76.7623 45.8729 76.2341 43.1227 75.1459C40.3726 74.0577 37.8673 72.4313 35.7539 70.3622C33.6405 68.2932 31.9614 65.823 30.8151 63.0966C29.6687 60.3701 29.0782 57.4422 29.0782 54.4846C29.0782 51.5269 29.6687 48.5991 30.8151 45.8726C31.9614 43.1462 33.6405 40.6759 35.7539 38.6069C37.8673 36.5378 40.3726 34.9115 43.1227 33.8233C45.8729 32.7351 48.8126 32.2069 51.7696 32.2696H104.22C103.89 31.5196 103.54 30.7896 103.22 30.0596H51.7696C45.293 30.0596 39.0817 32.6324 34.5021 37.212C29.9224 41.7917 27.3496 48.003 27.3496 54.4796C27.3496 60.9561 29.9224 67.1675 34.5021 71.7471C39.0817 76.3268 45.293 78.8996 51.7696 78.8996H103.18C103.55 78.1796 103.89 77.4396 104.22 76.6996Z" fill="#0056B2"/>
<path d="M62.8206 64.33C62.79 64.2148 62.7532 64.1013 62.7106 63.99V63.91L62.5906 63.61C62.5433 63.5004 62.4899 63.3935 62.4306 63.2899C62.3832 63.1998 62.3297 63.113 62.2706 63.03C62.1508 62.8529 62.0171 62.6857 61.8706 62.53L61.6506 62.32C61.4915 62.1823 61.3209 62.0585 61.1406 61.95L60.8606 61.8C60.0115 61.3945 59.1092 61.1117 58.1806 60.96C56.5806 60.62 54.4106 59.07 54.1806 58.09C54.1445 57.6728 54.2031 57.2529 54.352 56.8616C54.5009 56.4703 54.7363 56.1176 55.0406 55.83L55.2606 55.53L55.3206 55.45C56.0082 54.5454 56.4586 53.4831 56.6306 52.36C56.6258 52.2633 56.6258 52.1666 56.6306 52.07C56.9499 50.4308 56.9089 48.7418 56.5106 47.12C56.1927 46.0624 55.5676 45.1231 54.7147 44.4216C53.8618 43.7201 52.8196 43.2879 51.7206 43.18H51.5506C51.3008 43.1653 51.0504 43.1653 50.8006 43.18C50.5508 43.1655 50.3004 43.1655 50.0506 43.18H49.9106C48.8133 43.2897 47.7733 43.7228 46.9224 44.4242C46.0714 45.1256 45.4478 46.0638 45.1306 47.12C44.729 48.741 44.6846 50.4301 45.0006 52.07C45.0124 52.1674 45.0291 52.2642 45.0506 52.36C45.2205 53.482 45.6673 54.544 46.3506 55.45L46.4106 55.53L46.6306 55.83C46.9349 56.1176 47.1703 56.4703 47.3192 56.8616C47.4681 57.2529 47.5267 57.6728 47.4906 58.09C47.2606 59.09 45.0806 60.62 43.4906 60.96C42.5648 61.1101 41.6656 61.393 40.8206 61.8L40.5506 61.95C40.3703 62.0585 40.1997 62.1823 40.0406 62.32L39.8306 62.53C39.6871 62.6882 39.5534 62.8552 39.4306 63.03L39.2806 63.2899L39.1206 63.61L39.0006 63.91V63.99C39.0006 64.1 38.9306 64.21 38.8906 64.33C38.8906 64.4 38.8906 64.47 38.8906 64.53C40.2916 66.4281 42.1185 67.9707 44.2244 69.0338C46.3304 70.0969 48.6566 70.6507 51.0156 70.6507C53.3747 70.6507 55.7008 70.0969 57.8068 69.0338C59.9127 67.9707 61.7397 66.4281 63.1406 64.53C63.1275 64.4625 63.1108 64.3957 63.0906 64.33H62.8206Z" fill="#85CAFF"/>
<path d="M95.6995 42.9102H70.7195C67.5273 42.9102 64.9395 45.4979 64.9395 48.6902V48.7002C64.9395 51.8924 67.5273 54.4802 70.7195 54.4802H95.6995C98.8917 54.4802 101.479 51.8924 101.479 48.7002V48.6902C101.479 45.4979 98.8917 42.9102 95.6995 42.9102Z" fill="#85CAFF"/>
<path d="M105.47 79.29C105.143 78.9471 104.748 78.6758 104.311 78.4933C103.874 78.3108 103.404 78.2211 102.93 78.23C102.464 78.2294 102.003 78.322 101.574 78.5023C101.144 78.6826 100.755 78.9471 100.43 79.2801C100.102 79.6068 99.8437 79.997 99.6718 80.4269C99.4998 80.8568 99.4175 81.3172 99.4298 81.7801V82.7801H98.4298V78.7801C98.432 77.9479 98.1498 77.1399 97.6298 76.4901C97.1412 75.8342 96.4301 75.3791 95.6298 75.2101C95.3881 75.1741 95.1442 75.1541 94.8998 75.1501C93.9616 75.1553 93.0632 75.5296 92.3989 76.1921C91.7345 76.8545 91.3577 77.7519 91.3498 78.6901V82.7401H90.3498V78.8901C90.3755 77.8559 90.0195 76.8485 89.3498 76.0601C89.0312 75.665 88.6355 75.3389 88.1868 75.1016C87.7381 74.8644 87.2457 74.7209 86.7398 74.6801C86.6001 74.6679 86.4596 74.6679 86.3198 74.6801C85.7903 74.68 85.266 74.7851 84.7774 74.9893C84.2888 75.1934 83.8457 75.4925 83.4736 75.8693C83.1015 76.246 82.8079 76.6929 82.6098 77.184C82.4117 77.675 82.3132 78.2006 82.3198 78.73V82.73H81.3198V69.73V55.67C81.3285 54.8821 81.0791 54.113 80.6098 53.48C80.5078 53.3375 80.3941 53.2037 80.2698 53.0801C79.6638 52.476 78.8545 52.1195 77.9998 52.0801H77.5298C76.672 52.119 75.8594 52.4754 75.2498 53.0801C75.1298 53.2101 75.0198 53.34 74.9098 53.48C74.4479 54.1162 74.2025 54.8839 74.2098 55.67V79.61C74.2098 79.68 74.2098 79.74 74.2098 79.79V93.3501L73.2098 92.4101V86.9601C73.223 86.4867 73.1413 86.0153 72.9695 85.574C72.7978 85.1326 72.5395 84.7301 72.2098 84.3901C71.886 84.0431 71.4921 83.7691 71.0541 83.5863C70.6161 83.4035 70.1442 83.3162 69.6698 83.3301C69.207 83.3183 68.7467 83.401 68.3169 83.5729C67.8871 83.7448 67.4968 84.0024 67.1698 84.3301C66.8392 84.6549 66.5797 85.0448 66.4076 85.4752C66.2355 85.9055 66.1545 86.3669 66.1698 86.8301V93.9101C66.1689 94.3955 66.2679 94.8759 66.4606 95.3215C66.6532 95.767 66.9355 96.1682 67.2898 96.5001L77.1298 105.86C77.5447 106.284 77.8687 106.788 78.0819 107.342C78.2951 107.896 78.3931 108.487 78.3698 109.08C78.3675 109.345 78.4195 109.608 78.5227 109.852C78.6259 110.096 78.778 110.317 78.9698 110.5C79.1525 110.695 79.3744 110.849 79.6208 110.953C79.8672 111.056 80.1326 111.106 80.3998 111.1H100.7C100.967 111.105 101.232 111.054 101.478 110.951C101.724 110.848 101.946 110.694 102.13 110.5C102.319 110.315 102.469 110.094 102.572 109.85C102.675 109.606 102.729 109.345 102.73 109.08V108.29C102.722 107.466 102.827 106.646 103.04 105.85L106.18 92.0701C106.401 91.2758 106.508 90.4544 106.5 89.6301V81.8701C106.508 81.3932 106.421 80.9194 106.244 80.4764C106.068 80.0334 105.804 79.6301 105.47 79.29Z" fill="white"/>
<path d="M110.549 81.8604C110.562 80.854 110.373 79.8554 109.991 78.9241C109.61 77.9928 109.045 77.148 108.329 76.4404C107.632 75.7142 106.793 75.1396 105.863 74.7525C104.934 74.3654 103.935 74.174 102.929 74.1904C102.299 74.1879 101.671 74.2618 101.059 74.4104C99.9543 72.8332 98.2935 71.7326 96.4104 71.33C94.5274 70.9274 92.5618 71.2527 90.9089 72.2404C89.5552 71.196 87.8885 70.6393 86.1789 70.6604C85.8447 70.6606 85.5107 70.6806 85.1789 70.7204V55.6604C85.1906 54.6535 84.9992 53.6545 84.616 52.7232C84.2329 51.7919 83.6659 50.9475 82.9489 50.2404C81.9911 49.261 80.779 48.5683 79.4489 48.2404H79.2889C79.1089 48.2404 78.9389 48.1704 78.7589 48.1504H78.4489C78.1789 48.1504 77.9089 48.1504 77.6289 48.1504H77.4989C77.2189 48.1504 76.9489 48.1504 76.6789 48.1504H76.3689C76.1889 48.1504 76.0089 48.2104 75.8389 48.2404H75.6789C74.3488 48.5683 73.1367 49.261 72.1789 50.2404C71.4619 50.9475 70.8949 51.7919 70.5117 52.7232C70.1285 53.6545 69.9372 54.6535 69.9489 55.6604V79.3104C69.7825 79.2968 69.6153 79.2968 69.4489 79.3104C68.4483 79.2974 67.4556 79.4895 66.5321 79.8747C65.6085 80.2599 64.7737 80.8302 64.0789 81.5504C63.3575 82.2416 62.7869 83.0746 62.4031 83.9971C62.0193 84.9195 61.8306 85.9115 61.8489 86.9104V94.0004C61.8422 95.0402 62.0542 96.0699 62.4711 97.0226C62.888 97.9753 63.5005 98.8297 64.2688 99.5304L74.0489 108.88C74.0084 110.551 74.6261 112.171 75.7688 113.39C76.3244 113.994 77.0027 114.471 77.7583 114.79C78.5138 115.109 79.329 115.263 80.1489 115.24H100.449C101.26 115.254 102.065 115.104 102.816 114.797C103.567 114.491 104.248 114.036 104.818 113.46C105.388 112.883 105.836 112.197 106.133 111.442C106.431 110.688 106.572 109.881 106.549 109.07C106.525 108.319 106.589 107.567 106.739 106.83L110.149 93.0704C110.411 91.9523 110.548 90.8087 110.559 89.6604L110.549 81.8604ZM106.179 92.0704L102.769 105.86C102.556 106.656 102.451 107.477 102.459 108.3V109.07C102.458 109.335 102.404 109.597 102.301 109.841C102.198 110.084 102.048 110.305 101.859 110.49C101.675 110.684 101.453 110.838 101.207 110.941C100.961 111.044 100.696 111.095 100.429 111.09H80.1289C79.8617 111.097 79.5963 111.046 79.3499 110.943C79.1035 110.84 78.8817 110.685 78.6989 110.49C78.5072 110.307 78.355 110.087 78.2518 109.843C78.1486 109.598 78.0965 109.336 78.0989 109.07C78.1221 108.478 78.0242 107.886 77.811 107.332C77.5977 106.779 77.2738 106.275 76.8589 105.85L67.0188 96.4904C66.6646 96.1585 66.3824 95.7573 66.1897 95.3118C65.997 94.8662 65.898 94.3858 65.8989 93.9004V86.8204C65.8835 86.3572 65.9645 85.8958 66.1366 85.4655C66.3088 85.0351 66.5683 84.6452 66.8989 84.3204C67.2259 83.9927 67.6162 83.7351 68.046 83.5632C68.4758 83.3913 68.9361 83.3086 69.3989 83.3204C69.8732 83.3065 70.3452 83.3938 70.7831 83.5766C71.2211 83.7594 71.6151 84.0334 71.9389 84.3804C72.2686 84.7204 72.5269 85.123 72.6986 85.5643C72.8703 86.0057 72.9521 86.477 72.9389 86.9504V92.4004L73.9389 93.3404V79.7903C73.9389 79.7403 73.9389 79.6804 73.9389 79.6104V55.6703C73.9316 54.8842 74.177 54.1165 74.6389 53.4803C74.7489 53.3403 74.8589 53.2104 74.9789 53.0804C75.5885 52.4757 76.4011 52.1193 77.2589 52.0804H77.7289C78.5836 52.1198 79.3929 52.4763 79.9989 53.0804C80.1232 53.204 80.2369 53.3378 80.3389 53.4803C80.8082 54.1133 81.0576 54.8824 81.0489 55.6703V69.8604V82.8604H82.0489V78.8604C82.0423 78.3309 82.1409 77.8054 82.3389 77.3143C82.537 76.8232 82.8305 76.3763 83.2026 75.9996C83.5747 75.6228 84.0179 75.3237 84.5065 75.1196C84.9951 74.9154 85.5194 74.8103 86.0489 74.8104C86.1886 74.7982 86.3291 74.7982 86.4689 74.8104C86.9748 74.8512 87.4671 74.9947 87.9158 75.2319C88.3645 75.4692 88.7603 75.7953 89.0789 76.1904C89.7486 76.9788 90.1046 77.9862 90.0789 79.0204V82.8704H91.0789V78.8204C91.0868 77.8822 91.4636 76.9849 92.1279 76.3224C92.7923 75.6599 93.6907 75.2856 94.6289 75.2804C94.8733 75.2844 95.1171 75.3045 95.3589 75.3404C96.1591 75.5094 96.8702 75.9645 97.3589 76.6204C97.8788 77.2702 98.1611 78.0782 98.1589 78.9104V82.9104H99.1589V81.9104C99.1465 81.4476 99.2289 80.9871 99.4009 80.5572C99.5728 80.1273 99.8307 79.7371 100.159 79.4104C100.484 79.0774 100.873 78.813 101.303 78.6326C101.732 78.4523 102.193 78.3597 102.659 78.3604C103.133 78.3515 103.603 78.4411 104.04 78.6236C104.477 78.8061 104.872 79.0774 105.199 79.4203C105.528 79.7629 105.786 80.1673 105.957 80.6102C106.129 81.053 106.211 81.5256 106.199 82.0004V89.7804C106.292 90.5413 106.286 91.3112 106.179 92.0704Z" fill="#0056B2"/>
</svg>
