<?xml version="1.0" encoding="utf-8"?>
<!-- Generator: Adobe Illustrator 23.0.1, SVG Export Plug-In . SVG Version: 6.00 Build 0)  -->
<svg version="1.1" id="Layer_1" xmlns="http://www.w3.org/2000/svg" xmlns:xlink="http://www.w3.org/1999/xlink" x="0px" y="0px"
	 viewBox="0 0 74 51" style="enable-background:new 0 0 74 51;" xml:space="preserve" preserveAspectRatio="xMinYMid meet">
<style type="text/css">
	.st0{fill:#F98012;}
	.st1{fill:#333333;}
</style>
<g>
	<path class="st0" d="M61.9,50.3V27.4c0-4.8-2-7.2-5.9-7.2c-4,0-5.9,2.4-5.9,7.2v22.9H38.4V27.4c0-4.8-1.9-7.2-5.8-7.2
		c-4,0-5.9,2.4-5.9,7.2v22.9H15V26.1c0-5,1.7-8.8,5.2-11.3c3-2.3,7.2-3.4,12.4-3.4c5.3,0,9.2,1.4,11.6,4.1c2.2-2.7,6.1-4.1,11.8-4.1
		c5.2,0,9.3,1.1,12.4,3.4c3.5,2.6,5.2,6.3,5.2,11.3v24.3H61.9z"/>
	<path class="st1" d="M37.6,9.5l11.6-8.5L49,0.6C28.1,3.1,18.6,4.9,0.7,15.4l0.2,0.5l1.4,0c-0.1,1.4-0.4,5-0.1,10.4
		c-2,5.8,0,9.7,1.8,14c0.3-4.4,0.3-9.3-1.1-14.1c-0.3-5.3,0-8.8,0.1-10.2L14.9,16c0,0-0.1,3.6,0.4,7c10.7,3.7,21.4,0,27.1-9.2
		C40.7,11.9,37.6,9.5,37.6,9.5z"/>
</g>
</svg>
