<svg id="Layer_1" data-name="Layer 1" xmlns="http://www.w3.org/2000/svg" width="48" height="48" viewBox="0 0 48 48"><defs><style>.cls-1{fill:#06c;}.cls-2{fill:#fff;}</style></defs><title>48px_sourcefile_20170718_multi</title><circle class="cls-1" cx="24" cy="24" r="24"/><path id="path1" class="cls-2" d="M13.95,16.69h4.57a.91.91,0,0,1,0,1.83H13.95a.91.91,0,0,1,0-1.83ZM11.2,14.86V33.14H36.8V18.52H24.5a3.37,3.37,0,0,1-3.29-2.61l-.24-1ZM11,13H21.18a1.55,1.55,0,0,1,1.51,1.2L23,15.49a1.55,1.55,0,0,0,1.51,1.2H37a1.62,1.62,0,0,1,1.62,1.62v15A1.62,1.62,0,0,1,37,35H11a1.62,1.62,0,0,1-1.62-1.62V14.65A1.62,1.62,0,0,1,11,13Z"/></svg>