<svg width="24" height="24" viewBox="0 0 24 24" fill="none" xmlns="http://www.w3.org/2000/svg" preserveAspectRatio="xMinYMid meet">
<path fill-rule="evenodd" clip-rule="evenodd" d="M6.36863 5.40776C6.36961 4.58003 7.04089 3.90955 7.86862 3.90955H9.66773C10.8259 3.90955 11.8019 4.60291 12.3574 5.54237C12.9225 4.60152 13.9125 3.90955 15.0677 3.90955H16.8746C17.7037 3.90955 18.3756 4.58221 18.3746 5.41133L18.374 5.91231L19.8467 5.91234C20.6747 5.91235 21.3461 6.58333 21.3467 7.41136L21.3532 17.4072C21.3537 18.236 20.682 18.9082 19.8532 18.9082L14.161 18.9082C14.0704 18.9082 13.9812 18.905 13.892 18.9018C13.6932 18.8948 13.4941 18.8877 13.2783 18.9156C12.9741 18.9548 12.8472 19.0448 12.7957 19.1428C12.7098 19.306 12.5411 19.4087 12.3567 19.4101C12.1723 19.4114 12.0022 19.3111 11.914 19.1491C11.8599 19.0498 11.7291 18.9599 11.4274 18.9194C11.2105 18.8903 11.0072 18.8967 10.8058 18.9029C10.7215 18.9055 10.6376 18.9082 10.5531 18.9082H6.95315L6.95066 18.9081L4.84558 18.8977C4.02007 18.8936 3.35303 18.2232 3.35303 17.3977V7.40205C3.35303 6.57062 4.0293 5.8978 4.86072 5.90207L6.36803 5.9098L6.36863 5.40776ZM6.36684 6.9098L4.85559 6.90205C4.57845 6.90063 4.35303 7.1249 4.35303 7.40205V17.3977C4.35303 17.6729 4.57538 17.8963 4.85054 17.8977L6.95315 17.9082H10.5531C10.5892 17.9082 10.6391 17.9066 10.6991 17.9047C10.9119 17.8979 11.2526 17.887 11.5603 17.9283C11.5825 17.9313 11.6053 17.9346 11.6284 17.9383C11.5345 17.7957 11.4144 17.6773 11.2743 17.5786C10.8983 17.3136 10.3367 17.1639 9.65314 17.1639H7.85642C7.0273 17.1639 6.35544 16.4913 6.35642 15.6622L6.36684 6.9098ZM13.081 17.9336C13.1045 17.93 13.1276 17.9267 13.1502 17.9238C13.4554 17.8844 13.7986 17.8966 14.0115 17.9041C14.0739 17.9063 14.1252 17.9082 14.161 17.9082L19.8532 17.9082C20.1295 17.9082 20.3534 17.6841 20.3532 17.4079L20.3467 7.41201C20.3465 7.136 20.1227 6.91234 19.8467 6.91234L18.3728 6.91231L18.3624 15.6657C18.3614 16.4935 17.6901 17.1639 16.8624 17.1639H15.0531C14.3696 17.1639 13.808 17.3136 13.432 17.5786C13.2934 17.6763 13.1744 17.7931 13.081 17.9336ZM17.3736 6.30145C17.3655 6.3371 17.3612 6.3742 17.3612 6.41229C17.3612 6.44997 17.3654 6.48668 17.3733 6.52198L17.3624 15.6645C17.3621 15.9404 17.1383 16.1639 16.8624 16.1639H15.0531C14.2455 16.1639 13.4571 16.3375 12.8559 16.7612L12.8531 16.7631V7.30168C12.8531 6.07105 13.8955 4.90955 15.0677 4.90955H16.8746C17.151 4.90955 17.3749 5.13377 17.3746 5.41014L17.3736 6.30145ZM11.8531 7.30168C11.8531 6.06371 10.8333 4.90955 9.66773 4.90955H7.86862C7.59271 4.90955 7.36895 5.13304 7.36862 5.40895L7.35642 15.6633C7.35609 15.9397 7.58005 16.1639 7.85642 16.1639H9.65314C10.4608 16.1639 11.2492 16.3375 11.8504 16.7612L11.8531 16.7631V7.30168Z" fill="#212529"/>
</svg>
