<?xml version="1.0" encoding="UTF-8" standalone="no"?>
<svg
   xmlns:dc="http://purl.org/dc/elements/1.1/"
   xmlns:cc="http://creativecommons.org/ns#"
   xmlns:rdf="http://www.w3.org/1999/02/22-rdf-syntax-ns#"
   xmlns:svg="http://www.w3.org/2000/svg"
   xmlns="http://www.w3.org/2000/svg"
   xmlns:sodipodi="http://sodipodi.sourceforge.net/DTD/sodipodi-0.dtd"
   xmlns:inkscape="http://www.inkscape.org/namespaces/inkscape"
   id="svg2"
   version="1.1"
   inkscape:version="0.48.4 r9939"
   width="100"
   height="100"
   sodipodi:docname="f1.svg">
  <sodipodi:namedview
     pagecolor="#ffffff"
     bordercolor="#666666"
     borderopacity="1"
     objecttolerance="10"
     gridtolerance="10"
     guidetolerance="10"
     inkscape:pageopacity="0"
     inkscape:pageshadow="2"
     inkscape:window-width="996"
     inkscape:window-height="632"
     id="namedview10"
     showgrid="false"
     inkscape:zoom="1.7940591"
     inkscape:cx="102.89186"
     inkscape:cy="14.033812"
     inkscape:window-x="0"
     inkscape:window-y="0"
     inkscape:window-maximized="0"
     inkscape:current-layer="svg2" />
  <metadata
     id="metadata4">
    <rdf:RDF>
      <cc:Work
         rdf:about="">
        <dc:format>image/svg+xml</dc:format>
        <dc:type
           rdf:resource="http://purl.org/dc/dcmitype/StillImage" />
        <dc:title></dc:title>
      </cc:Work>
    </rdf:RDF>
  </metadata>
  <defs
     id="defs6" />
  <path
     style="fill:#999"
     d="m 73.527282,61.829563 q -2.39904,7.845509 -8.947765,12.643579 -6.548727,4.798079 -14.783264,4.798079 -8.234536,0 -14.783262,-4.798079 -6.548727,-4.79807 -8.947764,-12.643579 -0.518711,-1.620968 0.259355,-3.144689 0.778067,-1.523711 2.463877,-2.042419 1.620972,-0.518716 3.144686,0.25935 1.523713,0.778067 2.042424,2.463879 1.620972,5.187117 5.997596,8.39664 4.376623,3.209523 9.823088,3.209523 5.446467,0 9.82309,-3.209523 4.376624,-3.209523 5.997597,-8.39664 0.518709,-1.685812 2.074842,-2.463879 1.556132,-0.778066 3.177105,-0.25935 1.620972,0.518708 2.399039,2.042419 0.778066,1.523721 0.259356,3.144689 z M 41.496878,33.624653 q 0,3.436459 -2.431457,5.867916 -2.431458,2.431457 -5.867918,2.431457 -3.436461,0 -5.867919,-2.431457 -2.431457,-2.431457 -2.431457,-5.867916 0,-3.436469 2.431457,-5.867927 2.431458,-2.431456 5.867919,-2.431456 3.43646,0 5.867918,2.431456 2.431457,2.431458 2.431457,5.867927 z m 33.197503,0 q 0,3.436459 -2.431457,5.867916 -2.431459,2.431457 -5.867919,2.431457 -3.43646,0 -5.867917,-2.431457 -2.431458,-2.431457 -2.431458,-5.867916 0,-3.436469 2.431458,-5.867927 2.431457,-2.431456 5.867917,-2.431456 3.43646,0 5.867919,2.431456 2.431457,2.431458 2.431457,5.867927 z m 16.598748,16.598746 q 0,-8.429052 -3.306782,-16.112461 Q 84.679565,26.42753 79.135844,20.883807 73.59212,15.340084 65.908714,12.033303 58.225307,8.7265134 49.796253,8.7265134 q -8.429053,0 -16.112459,3.3067896 -7.683406,3.306781 -13.22713,8.850504 -5.543722,5.543723 -8.850506,13.227131 -3.3067827,7.683409 -3.3067827,16.112461 0,8.429062 3.3067827,16.112471 3.306784,7.683408 8.850506,13.227131 5.543724,5.543727 13.22713,8.850507 7.683406,3.306782 16.112459,3.306782 8.429054,0 16.112461,-3.306782 7.683406,-3.30678 13.22713,-8.850507 5.543721,-5.543723 8.850503,-13.227131 3.306782,-7.683409 3.306782,-16.112471 z m 8.299376,0 q 0,13.551335 -6.678405,24.995396 -6.678397,11.444065 -18.122461,18.122471 -11.444061,6.678404 -24.995386,6.678404 -13.551322,0 -24.995384,-6.678404 Q 13.356808,86.66286 6.6784039,75.218795 0,63.774734 0,50.223399 0,36.672075 6.6784039,25.228013 13.356808,13.783951 24.800869,7.1055452 36.244931,0.42713958 49.796253,0.42713958 q 13.551325,0 24.995386,6.67840562 11.444064,6.6784058 18.122461,18.1224678 6.678405,11.444062 6.678405,24.995386 z"
     id="path8"
     inkscape:connector-curvature="0" />
</svg>
