<!DOCTYPE svg PUBLIC "-//W3C//DTD SVG 1.1//EN" "http://www.w3.org/Graphics/SVG/1.1/DTD/svg11.dtd" [
	<!ENTITY ns_flows "http://ns.adobe.com/Flows/1.0/">
]><svg xmlns="http://www.w3.org/2000/svg" width="24" height="24" viewBox="0 0 24 24" preserveAspectRatio="xMinYMid meet" overflow="visible"><linearGradient id="a" gradientUnits="userSpaceOnUse" x1="11.957" x2="11.957" y2="24"><stop offset="0" stop-color="#95BFF8"/><stop offset=".557" stop-color="#84ADEF"/><stop offset="1" stop-color="#7CA4EB"/></linearGradient><path fill="url(#a)" d="M14.4 0H2v24h20V7.9"/><linearGradient id="b" gradientUnits="userSpaceOnUse" x1="11.957" y1="1" x2="11.957" y2="23"><stop offset="0" stop-color="#E7F4FC"/><stop offset="1" stop-color="#DEEFFC"/></linearGradient><path fill="url(#b)" d="M14 1H3v22h18V8.3"/><linearGradient id="c" gradientUnits="userSpaceOnUse" x1="11.957" y1="2" x2="11.957" y2="22"><stop offset="0" stop-color="#CEE9F9"/><stop offset="1" stop-color="#BBDFF8"/></linearGradient><path fill="url(#c)" d="M13.6 2H4v20h16V8.7"/><linearGradient id="d" gradientUnits="userSpaceOnUse" x1="17.202" x2="17.202" y2="9.359"><stop offset="0" stop-color="#95BFF8"/><stop offset=".557" stop-color="#84ADEF"/><stop offset="1" stop-color="#7CA4EB"/></linearGradient><path d="M13 9s5.2-1.5 9 .4V7.9L14.4 0h-2c2.7 3.7.6 9 .6 9z" fill="url(#d)"/><linearGradient id="e" gradientUnits="userSpaceOnUse" x1="14.279" y1="7.545" x2="17.407" y2="4.417"><stop offset="0" stop-color="#E7F4FC"/><stop offset=".518" stop-color="#E5F3FC"/><stop offset=".705" stop-color="#DEF0FB"/><stop offset=".837" stop-color="#D3EBFA"/><stop offset=".872" stop-color="#CEE9F9"/><stop offset="1" stop-color="#BDD8F0"/></linearGradient><path d="M20.4 7.8c-.9-.2-2-.3-3.1-.3s-2.1.1-3 .3c.4-1.6.7-4.1-.2-6.4l6.3 6.4z" fill="url(#e)"/><linearGradient id="f" gradientUnits="userSpaceOnUse" x1="11.857" y1="1.852" x2="11.857" y2="23.949"><stop offset="0" stop-color="#DB6D17"/><stop offset="1" stop-color="#BF3B08"/></linearGradient><path fill="url(#f)" d="M8 16.9l-4.8-5L0 15.1l8.8 8.8 14.9-22"/><linearGradient id="g" gradientUnits="userSpaceOnUse" x1="9.552" y1="9.008" x2="9.552" y2="22.383"><stop offset="0" stop-color="#F6A55E"/><stop offset="1" stop-color="#EA5B03"/></linearGradient><path fill="url(#g)" d="M1.4 15.1l1.8-1.7 4.7 5L17.7 9l-9 13.4"/><g><linearGradient id="h" gradientUnits="userSpaceOnUse" x1="7.248" y1="14.8" x2="7.248" y2="20.817"><stop offset="0" stop-color="#F17219"/><stop offset="1" stop-color="#EA5B03"/></linearGradient><path fill="url(#h)" d="M2.8 15.1l.3-.3 4.8 5 3.8-3.6-3.2 4.6"/></g></svg>