<svg id="Layer_1" data-name="Layer 1" xmlns="http://www.w3.org/2000/svg" width="48" height="48" viewBox="0 0 48 48"><defs><style>.cls-1{fill:#09c;}.cls-2{fill:#fff;}</style></defs><title>48px_sourcefile_20170718_multi</title><circle class="cls-1" cx="24" cy="24" r="24"/><path id="path1" class="cls-2" d="M18.62,23.21a3.14,3.14,0,0,1,2.19.9l-1.29,1.29a1.27,1.27,0,0,0-1.78,0l-6.15,6.15a1.27,1.27,0,0,0,0,1.78l3.07,3.07a1.3,1.3,0,0,0,1.78,0l6.15-6.15a1.27,1.27,0,0,0,0-1.8l1.29-1.29a3.06,3.06,0,0,1,.9,2.19,3.09,3.09,0,0,1-.9,2.19l-6.15,6.15a3.09,3.09,0,0,1-2.19.9,3.12,3.12,0,0,1-2.19-.9l-3.08-3.07a3.1,3.1,0,0,1,0-4.37l6.15-6.15A3.11,3.11,0,0,1,18.62,23.21Zm10-4.74a.93.93,0,0,1,.64.26.92.92,0,0,1,0,1.29L20,29.25a.88.88,0,0,1-.64.26.93.93,0,0,1-.64-.26.92.92,0,0,1,0-1.29L28,18.73A.93.93,0,0,1,28.61,18.47Zm3.84-9.09a3.14,3.14,0,0,1,2.19.9l3.07,3.07a3.1,3.1,0,0,1,0,4.37l-6.15,6.15a3.09,3.09,0,0,1-2.19.9,3.12,3.12,0,0,1-2.19-.9l1.29-1.29a1.3,1.3,0,0,0,1.78,0l6.15-6.15a1.27,1.27,0,0,0,0-1.8l-3.07-3.08a1.27,1.27,0,0,0-1.78,0L25.41,17.7a1.27,1.27,0,0,0,0,1.78l-1.29,1.29a3.1,3.1,0,0,1,0-4.37l6.15-6.15A3.21,3.21,0,0,1,32.46,9.38Z"/></svg>