<svg id="Layer_1" data-name="Layer 1" xmlns="http://www.w3.org/2000/svg" width="48" height="48" viewBox="0 0 48 48"><defs><style>.cls-1{fill:#fff;}.cls-2{fill:#98ca00;}</style></defs><title>Artboard 1</title><path id="path1" class="cls-1" d="M36.8,22.1l-9.1,4.7V36l9.1-4.7Zm-25.5-.8v9.1l14.5,5.7V27Zm10.8-4.2h.2l4.5,2a.48.48,0,0,1,.2.6c-.1.2-.2.3-.4.3h-.2l-4.5-2a.48.48,0,0,1-.2-.6A.45.45,0,0,1,22.1,17.1Zm-2-1-7.7,3.5,14.3,5.7L36,20.6l-7.2-2.9v4.5l.4.2a.6.6,0,0,1,.3.6v.1a.55.55,0,0,1-.5.3c-.1,0-.2,0-.2-.1l-9.5-4a.6.6,0,0,1-.3-.6v-.1a.66.66,0,0,1,.7-.2l.5.2Zm2-1.2h.2l4.5,2a.48.48,0,0,1,.2.6c-.1.2-.2.3-.4.3h-.2l-4.5-2a.48.48,0,0,1-.2-.6c0-.2.2-.3.4-.3Zm0-2.3h.2l4.5,2a.48.48,0,0,1,.2.6c-.1.2-.2.3-.4.3h-.2l-4.5-2a.48.48,0,0,1-.2-.6c0-.2.2-.4.4-.3Zm-1-1.7V19l6.4,2.7V13.4ZM20,9.4l8.6,3.5V16l10,4V32.4l-12,6.2-17.3-7V19.3L20,14.6Z"/><circle class="cls-2" cx="24" cy="24" r="24"/><path id="path1-2" data-name="path1" class="cls-1" d="M15.5,12.6a.46.46,0,0,0-.5.4V35c0,.1,0,.1.1.2a.47.47,0,0,0,.7.1c2.9-1.6,5.8-3.1,8.7-4.7,3.8-2.1,7.6-4.1,11.4-6.2l.2-.2c.1-.1,0-.2,0-.3a.22.22,0,0,0-.2-.2l-7.2-3.9c-4.3-2.4-8.7-4.7-13-7.1h0A.35.35,0,0,0,15.5,12.6ZM16,11a2.28,2.28,0,0,1,1.1.3c4.3,2.4,8.6,4.7,13,7.1l7.2,3.9a2,2,0,0,1,1,1.2,2.26,2.26,0,0,1-.2,1.6,2.34,2.34,0,0,1-.7.7l-.1.1C33.5,28,29.6,30,25.8,32.1c-2.9,1.6-5.8,3.1-8.7,4.7a1.93,1.93,0,0,1-1,.3,2.23,2.23,0,0,1-1.8-1,1.93,1.93,0,0,1-.3-1V13A1.94,1.94,0,0,1,16,11Z"/></svg>