<svg xmlns="http://www.w3.org/2000/svg" xmlns:xlink="http://www.w3.org/1999/xlink" viewBox="0 0 239.75 240" width="16" height="16" preserveAspectRatio="xMinYMid meet"><defs><style>.cls-1{fill:#ebebeb;stroke-width:7px;}.cls-1,.cls-4,.cls-5{stroke:#000;}.cls-1,.cls-2,.cls-3,.cls-4,.cls-5{stroke-miterlimit:10;}.cls-2{fill:#e20000;}.cls-2,.cls-3{stroke:#e20000;}.cls-2,.cls-3,.cls-4{stroke-width:13px;}.cls-3{fill:#fff;}.cls-4{fill:none;}.cls-6{fill:url(#Unbenannter_Verlauf_17);}</style><radialGradient id="Unbenannter_Verlauf_17" cx="118.67" cy="132.03" r="19.3" gradientTransform="translate(-165.8 -168.13) scale(2.41 2.25)" gradientUnits="userSpaceOnUse"><stop offset="0.51" stop-color="#ff2f15"/><stop offset="0.58" stop-color="#ff3218"/><stop offset="0.65" stop-color="#ff3c23"/><stop offset="0.71" stop-color="#ff4c35"/><stop offset="0.77" stop-color="#ff624f"/><stop offset="0.83" stop-color="#ff7f6f"/><stop offset="0.89" stop-color="#ffa397"/><stop offset="0.94" stop-color="#ffcdc7"/><stop offset="1" stop-color="#fffdfc"/><stop offset="1" stop-color="#fff"/></radialGradient></defs><title>clown</title><g id="Ebene_3" data-name="Ebene 3"><ellipse class="cls-1" cx="119.88" cy="120" rx="116.38" ry="116.5"/><path class="cls-2" d="M151,44.7c-1,.81-7.5,48.36,13.5,51.8,17.84,2.93,50.53-6.88,50-8s-28.79-24.4-44-32C160.5,51.5,152,43.93,151,44.7Z" transform="translate(-0.25)"/><path class="cls-2" d="M89.77,45.7c1,.81,7.5,48.36-13.5,51.8-17.83,2.93-50.52-6.88-50-8s28.8-24.4,44-32C80.27,52.5,88.83,44.93,89.77,45.7Z" transform="translate(-0.25)"/><path class="cls-3" d="M50.5,138.5s-12,61,69,61c80,0,66-59,66-59-3,0-28,37-68,37C79.17,177.5,51.5,138.5,50.5,138.5Z" transform="translate(-0.25)"/><path class="cls-4" d="M54,146c4.28,24.93,31.25,43.19,64,43,33.42-.19,59.93-18.13,64-43" transform="translate(-0.25)"/><circle class="cls-5" cx="80.75" cy="81" r="16"/><ellipse class="cls-6" cx="119.75" cy="128.94" rx="46.45" ry="43.44"/><circle class="cls-5" cx="159.75" cy="80" r="16"/></g></svg>