<svg xmlns="http://www.w3.org/2000/svg" xmlns:xlink="http://www.w3.org/1999/xlink" viewBox="0 0 240 240" width="16" height="16" preserveAspectRatio="xMinYMid meet"><style>.st3,.st6{stroke:#000;stroke-miterlimit:10}.st6{fill:none;stroke-width:14}</style><g id="Ebene_3"><linearGradient id="SVGID_1_" gradientUnits="userSpaceOnUse" x1="37.791" y1="37.666" x2="202.459" y2="202.334"><stop offset="0" stop-color="#ffe600"/><stop offset=".413" stop-color="#fde401" stop-opacity=".876"/><stop offset=".562" stop-color="#f6df06" stop-opacity=".832"/><stop offset=".668" stop-color="#ebd50e" stop-opacity=".8"/><stop offset=".753" stop-color="#dac719" stop-opacity=".774"/><stop offset=".827" stop-color="#c4b428" stop-opacity=".752"/><stop offset=".892" stop-color="#a89e3a" stop-opacity=".733"/><stop offset=".949" stop-color="#89834f" stop-opacity=".715"/><stop offset="1" stop-color="#666" stop-opacity=".7"/></linearGradient><ellipse cx="120.1" cy="120" rx="116.4" ry="116.5" fill="url(#SVGID_1_)" stroke="#000" stroke-width="7" stroke-miterlimit="10"/><path d="M69.5 148.5s-4 51 50 51c48 0 57-50 57-50-3 0 2 15-56 15-54 0-50-16-51-16z" fill="#fff" stroke="#000" stroke-width="9" stroke-miterlimit="10"/><circle class="st3" cx="163.2" cy="94.3" r="34.4"/><path d="M62 100c-1-.8 5-20.6 26-24 17.8-2.9 21.5 13.9 21 15-.5 1-4.2-6.8-21-4-20.4 3.4-25.1 13.8-26 13z" stroke="#000" stroke-width="5" stroke-miterlimit="10"/><circle class="st3" cx="76.3" cy="94.3" r="34.4"/><path class="st6" d="M108 90h25M187 90h45M8 88h51"/></g></svg>
