<svg xmlns="http://www.w3.org/2000/svg" xmlns:xlink="http://www.w3.org/1999/xlink" viewBox="0 0 205.28 241" preserveAspectRatio="xMinYMid meet"><defs><style>.cls-1{fill:#fff;}.cls-1,.cls-6{stroke:#000;stroke-width:8px;}.cls-1,.cls-2,.cls-3,.cls-4,.cls-5,.cls-6{stroke-miterlimit:10;}.cls-2,.cls-3,.cls-4,.cls-5,.cls-6{fill:none;}.cls-2{stroke:#0b00da;}.cls-2,.cls-3,.cls-4,.cls-5{stroke-width:18px;}.cls-3{stroke:#ef0;}.cls-4{stroke:#18e600;}.cls-5{stroke:#ff3812;}</style></defs><title>egg</title><g id="Ebene_3" data-name="Ebene 3"><path class="cls-1" d="M218.5,138c0,67.65-33.49,98.5-97,98.5s-100-30.85-100-98.5S58,3.5,121.5,3.5,218.5,70.35,218.5,138Z" transform="translate(-17.22 0.5)"/><path class="cls-2" d="M41,63c14.16,5.2,43,19.41,78.63,19,37.5-.43,69.4-16.21,83.37-22" transform="translate(-17.22 0.5)"/><path class="cls-2" d="M39,195c2-2,34,20,79,19,54.07-1.2,85-24,87-22" transform="translate(-17.22 0.5)"/><path class="cls-3" d="M29,94c15.17,5.2,55.51,19.41,93.68,19C162.86,112.57,197,96.79,212,91" transform="translate(-17.22 0.5)"/><path class="cls-4" d="M21,118c11.21,5.2,36,25,97,25,56,0,87.94-22.21,99-28" transform="translate(-17.22 0.5)"/><path class="cls-5" d="M24,150c3,0,31,28.84,91,28,71-1,97-21,102-22" transform="translate(-17.22 0.5)"/><path class="cls-5" d="M63,27c11.21,5.2,32.87,14.94,61,13,29-2,39.94-10.21,51-16" transform="translate(-17.22 0.5)"/><path class="cls-6" d="M218.5,138c0,67.65-33.49,98.5-97,98.5s-100-30.85-100-98.5S58,3.5,121.5,3.5,218.5,70.35,218.5,138Z" transform="translate(-17.22 0.5)"/><path class="cls-6" d="M125,62" transform="translate(-17.22 0.5)"/></g></svg>
