<svg xmlns="http://www.w3.org/2000/svg" xmlns:xlink="http://www.w3.org/1999/xlink" viewBox="0 0 239.75 242.36" width="16" height="16" preserveAspectRatio="xMinYMid meet"><defs><style>.cls-1,.cls-2,.cls-3,.cls-4{stroke:#000;stroke-miterlimit:10;}.cls-1{stroke-width:7px;fill:url(#Unbenannter_Verlauf_18);}.cls-2{fill:#e63100;stroke-width:12px;}.cls-3{fill:none;stroke-width:13px;}.cls-4{stroke-width:5px;}</style><linearGradient id="Unbenannter_Verlauf_18" x1="37.54" y1="40.03" x2="202.21" y2="204.69" gradientUnits="userSpaceOnUse"><stop offset="0" stop-color="#ff7a7a"/><stop offset="0.5" stop-color="#ff565d"/><stop offset="1" stop-color="#ff3644"/></linearGradient></defs><title>evil</title><g id="Ebene_3" data-name="Ebene 3"><ellipse class="cls-1" cx="119.88" cy="122.36" rx="116.38" ry="116.5"/><ellipse class="cls-2" cx="156.77" cy="89.86" rx="27.02" ry="17"/><ellipse class="cls-2" cx="83.31" cy="89.86" rx="27.02" ry="17"/><path class="cls-3" d="M69.5,162.5C78,194,102.5,188,128,188c32.52,0,32.5-2.5,41.5-25.5" transform="translate(-1.25 0.36)"/><path class="cls-4" d="M129,80c-1-.81,5-20.56,26-24,17.84-2.93,45.53-4.12,45-3-1.17,2.48-19.54,9.71-45,14C134.57,70.44,130,80.77,129,80Z" transform="translate(-1.25 0.36)"/><path class="cls-4" d="M115.91,80c1-.81-5-20.56-26-24-17.84-2.93-45.53-4.12-45-3s28.23,11.17,45,14C110.33,70.44,115,80.77,115.91,80Z" transform="translate(-1.25 0.36)"/><path class="cls-4" d="M203.38,38.5c-1-.81,6.62-10.45,20.6-26.5,7.4-8.5,12.93-9.62,12.4-8.5s-17.88,24-20,48C215.86,57.44,204.33,39.27,203.38,38.5Z" transform="translate(-1.25 0.36)"/><path class="cls-4" d="M37.33,37.5c1-.81-6.62-10.45-20.6-26.5C9.33,2.5,3.8,1.38,4.33,2.5s17.88,24,20,48C24.85,56.44,36.38,38.27,37.33,37.5Z" transform="translate(-1.25 0.36)"/></g></svg>