<svg xmlns="http://www.w3.org/2000/svg" xmlns:xlink="http://www.w3.org/1999/xlink" viewBox="0 0 239.75 240" width="16" height="16" preserveAspectRatio="xMinYMid meet"><defs><style>.cls-1,.cls-2,.cls-3,.cls-4{stroke:#000;}.cls-1,.cls-2,.cls-3{stroke-miterlimit:10;}.cls-1{stroke-width:7px;fill:url(#Unbenannter_Verlauf_13);}.cls-3{stroke-width:5px;}.cls-4{fill:url(#Unbenannter_Verlauf_26);}</style><linearGradient id="Unbenannter_Verlauf_13" x1="37.541" y1="37.666" x2="202.209" y2="202.334" gradientUnits="userSpaceOnUse"><stop offset="0" stop-color="#ffcece"/><stop offset="0.475" stop-color="#ffcece" stop-opacity="0.993"/><stop offset="0.646" stop-color="#ffcece" stop-opacity="0.966"/><stop offset="0.767" stop-color="#ffcece" stop-opacity="0.92"/><stop offset="0.866" stop-color="#ffcece" stop-opacity="0.853"/><stop offset="0.949" stop-color="#ffcece" stop-opacity="0.768"/><stop offset="1" stop-color="#ffcece" stop-opacity="0.7"/></linearGradient><radialGradient id="Unbenannter_Verlauf_26" cx="119.991" cy="168.03" r="44.876" gradientTransform="translate(0 84.015) scale(1 0.5)" gradientUnits="userSpaceOnUse"><stop offset="0"/><stop offset="0.053" stop-color="#1e0715"/><stop offset="0.155" stop-color="#521238"/><stop offset="0.261" stop-color="#811d57"/><stop offset="0.37" stop-color="#a82571"/><stop offset="0.481" stop-color="#c72d86"/><stop offset="0.596" stop-color="#e03297"/><stop offset="0.717" stop-color="#f136a3"/><stop offset="0.846" stop-color="#fc38aa"/><stop offset="1" stop-color="#ff39ac"/></radialGradient></defs><title>kiss</title><g id="Ebene_3" data-name="Ebene 3"><ellipse class="cls-1" cx="119.875" cy="120" rx="116.375" ry="116.5"/><circle class="cls-2" cx="159.75" cy="96" r="16"/><path class="cls-3" d="M163,68.7c-1.006.815-10.3,15.042,9,24,12.5,5.8,18.527-5.885,18-7-.481-1.017-10.5,6.8-18-1C165.775,78.224,163.946,67.933,163,68.7Z" transform="translate(-0.25)"/><circle class="cls-2" cx="80.272" cy="95.5" r="16"/><path class="cls-3" d="M77.522,68.2c1.006.815,10.3,15.042-9,24-12.5,5.8-18.527-5.885-18-7,.481-1.017,10.5,6.8,18-1C74.747,77.724,76.576,67.433,77.522,68.2Z" transform="translate(-0.25)"/><path class="cls-4" d="M119.991,194.5c-6.614,0-13.682,4.293-21.234-1.363-7.659-5.738-9.539-11.891-17.1-18.78-2.1-1.914-15.43-13.691-18.6-14.858,6.4-3.515,19.316-9.644,21.8-11.491,6.874-5.118,12.671-8.033,17.564-8.008,3.882.02,8.2,5.416,17.579,5.416,9.534,0,13.7-5.4,17.578-5.416,4.894-.025,10.691,3.89,17.564,9.008,2.48,1.847,15.4,6.976,21.8,10.491-3.171,1.167-16.5,12.944-18.6,14.858-7.563,6.89-9.443,13.042-17.1,18.78-7.551,5.657-14.776,1.363-21.234,1.363Z" transform="translate(-0.25)"/></g></svg>