<svg xmlns="http://www.w3.org/2000/svg" xmlns:xlink="http://www.w3.org/1999/xlink" viewBox="0 0 240 240" preserveAspectRatio="xMinYMid meet"><defs><style>.cls-1{fill:#ffff7b;}.cls-2{fill:#f7f77b;}.cls-3{fill:#b5b539;}.cls-4{fill:#d6d652;}.cls-5{fill:#e7e763;}.cls-6{fill:#efef73;}</style></defs><title>martin</title><g id="Ebene_3" data-name="Ebene 3"><image width="15" height="15" transform="scale(16)" xlink:href="C:\Users\Andreas\Downloads\martin.gif"/></g><g id="Black"><rect x="16" y="32" width="16" height="16"/><rect x="32" y="16" width="16" height="16"/><rect x="48" width="16" height="16"/><rect x="64" width="16" height="16"/><rect x="65" width="16" height="16"/><rect x="66" width="16" height="16"/><rect x="67" width="16" height="16"/><rect x="68" width="16" height="16"/><rect x="69" width="16" height="16"/><rect x="80" width="16" height="16"/><rect x="96" width="16" height="16"/><rect x="112" width="16" height="16"/><rect x="128" width="16" height="16"/><rect x="144" width="16" height="16"/><rect x="160" width="16" height="16"/><rect x="176" width="16" height="16"/><rect x="176" y="16" width="16" height="16"/><rect x="192" y="16" width="16" height="16"/><rect x="160" y="16" width="16" height="16"/><rect x="144" y="16" width="16" height="16"/><rect x="128" y="16" width="16" height="16"/><rect x="112" y="16" width="16" height="16"/><rect x="96" y="16" width="16" height="16"/><rect x="80" y="16" width="16" height="16"/><rect x="64" y="16" width="16" height="16"/><rect x="48" y="16" width="16" height="16"/><rect x="48" y="32" width="16" height="16"/><rect x="32" y="32" width="16" height="16"/><rect x="64" y="32" width="16" height="16"/><rect x="80" y="32" width="16" height="16"/><rect x="96" y="32" width="16" height="16"/><rect x="112" y="32" width="16" height="16"/><rect x="128" y="32" width="16" height="16"/><rect x="144" y="32" width="16" height="16"/><rect x="160" y="32" width="16" height="16"/><rect x="176" y="32" width="16" height="16"/><rect x="192" y="32" width="16" height="16"/><rect x="208" y="32" width="16" height="16"/><rect x="208" y="48" width="16" height="16"/><rect x="192" y="48" width="16" height="16"/><rect x="192" y="64" width="16" height="16"/><rect x="208" y="64" width="16" height="16"/><rect x="208" y="80" width="16" height="16"/><rect x="192" y="80" width="16" height="16"/><rect x="208" y="96" width="16" height="16"/><rect x="208" y="112" width="16" height="16"/><rect x="208" y="128" width="16" height="16"/><rect x="208" y="144" width="16" height="16"/><rect x="192" y="160" width="16" height="16"/><rect x="192" y="176" width="16" height="16"/><rect x="192" y="192" width="16" height="16"/><rect x="176" y="208" width="16" height="16"/><rect x="160" y="208" width="16" height="16"/><rect x="160" y="192" width="16" height="16"/><rect x="160" y="176" width="16" height="16"/><rect x="160" y="160" width="16" height="16"/><rect x="144" y="160" width="16" height="16"/><rect x="144" y="144" width="16" height="16"/><rect x="128" y="144" width="16" height="16"/><rect x="112" y="144" width="16" height="16"/><rect x="128" y="176" width="16" height="16"/><rect x="112" y="176" width="16" height="16"/><rect x="96" y="176" width="16" height="16"/><rect x="80" y="160" width="16" height="16"/><rect x="80" y="144" width="16" height="16"/><rect x="96" y="144" width="16" height="16"/><rect x="64" y="160" width="16" height="16"/><rect x="64" y="176" width="16" height="16"/><rect x="64" y="192" width="16" height="16"/><rect x="64" y="208" width="16" height="16"/><rect x="64" y="224" width="16" height="16"/><rect x="80" y="224" width="16" height="16"/><rect x="96" y="224" width="16" height="16"/><rect x="112" y="224" width="16" height="16"/><rect x="128" y="224" width="16" height="16"/><rect x="144" y="224" width="16" height="16"/><rect x="144" y="208" width="16" height="16"/><rect x="128" y="208" width="16" height="16"/><rect x="112" y="208" width="16" height="16"/><rect x="96" y="208" width="16" height="16"/><rect x="80" y="208" width="16" height="16"/><rect x="48" y="208" width="16" height="16"/><rect x="32" y="192" width="16" height="16"/><rect x="32" y="176" width="16" height="16"/><rect x="32" y="160" width="16" height="16"/><rect x="16" y="144" width="16" height="16"/><rect x="16" y="128" width="16" height="16"/><rect x="16" y="112" width="16" height="16"/><rect x="16" y="96" width="16" height="16"/><rect x="16" y="80" width="16" height="16"/><rect x="32" y="80" width="16" height="16"/><rect x="80" y="80" width="16" height="16"/><rect x="80" y="96" width="16" height="16"/><rect x="64" y="96" width="16" height="16"/><rect x="64" y="80" width="16" height="16"/><rect x="144" y="80" width="16" height="16"/><rect x="160" y="80" width="16" height="16"/><rect x="160" y="96" width="16" height="16"/><rect x="144" y="96" width="16" height="16"/><rect x="16" y="64" width="16" height="16"/><rect x="32" y="64" width="16" height="16"/><rect x="32" y="48" width="16" height="16"/><rect x="16" y="48" width="16" height="16"/></g><g id="Yellow"><rect class="cls-1" x="48" y="48" width="16" height="16"/><rect class="cls-1" x="64" y="48" width="16" height="16"/><rect class="cls-1" x="80" y="48" width="16" height="16"/><rect class="cls-1" x="96" y="48" width="16" height="16"/><rect class="cls-1" x="112" y="48" width="16" height="16"/><rect class="cls-1" x="112" y="64" width="16" height="16"/><rect class="cls-1" x="96" y="64" width="16" height="16"/><rect class="cls-1" x="80" y="64" width="16" height="16"/><rect class="cls-1" x="64" y="64" width="16" height="16"/><rect class="cls-1" x="48" y="64" width="16" height="16"/><rect class="cls-1" x="48" y="80" width="16" height="16"/><rect class="cls-1" x="48" y="96" width="16" height="16"/><rect class="cls-1" x="32" y="96" width="16" height="16"/><rect class="cls-1" x="48" y="112" width="16" height="16"/><rect class="cls-2" x="128" y="48" width="16" height="16"/><rect class="cls-2" x="144" y="48" width="16" height="16"/><rect class="cls-2" x="144" y="64" width="16" height="16"/><rect class="cls-2" x="128" y="64" width="16" height="16"/><rect class="cls-2" x="128" y="80" width="16" height="16"/><rect class="cls-2" x="128" y="96" width="16" height="16"/><rect class="cls-2" x="112" y="96" width="16" height="16"/><rect class="cls-2" x="112" y="112" width="16" height="16"/><rect class="cls-2" x="96" y="112" width="16" height="16"/><rect class="cls-2" x="80" y="128" width="16" height="16"/><rect class="cls-2" x="64" y="128" width="16" height="16"/><rect class="cls-2" x="64" y="144" width="16" height="16"/><rect class="cls-2" x="48" y="144" width="16" height="16"/><rect class="cls-2" x="48" y="128" width="16" height="16"/><rect class="cls-2" x="32" y="112" width="16" height="16"/><rect class="cls-3" x="48" y="192" width="16" height="16"/><rect class="cls-3" x="80" y="192" width="16" height="16"/><rect class="cls-3" x="96" y="192" width="16" height="16"/><rect class="cls-3" x="112" y="192" width="16" height="16"/><rect class="cls-3" x="128" y="192" width="16" height="16"/><rect class="cls-3" x="144" y="192" width="16" height="16"/><rect class="cls-3" x="144" y="176" width="16" height="16"/><rect class="cls-3" x="128" y="160" width="16" height="16"/><rect class="cls-4" x="112" y="160" width="16" height="16"/><rect class="cls-4" x="96" y="160" width="16" height="16"/><rect class="cls-4" x="80" y="176" width="16" height="16"/><rect class="cls-4" x="176" y="144" width="16" height="16"/><rect class="cls-4" x="160" y="144" width="16" height="16"/><rect class="cls-4" x="160" y="128" width="16" height="16"/><rect class="cls-4" x="176" y="128" width="16" height="16"/><rect class="cls-4" x="176" y="112" width="16" height="16"/><rect class="cls-4" x="160" y="112" width="16" height="16"/><rect class="cls-4" x="144" y="128" width="16" height="16"/><rect class="cls-4" x="128" y="128" width="16" height="16"/><rect class="cls-5" x="128" y="112" width="16" height="16"/><rect class="cls-5" x="144" y="112" width="16" height="16"/><rect class="cls-5" x="176" y="96" width="16" height="16"/><rect class="cls-5" x="176" y="80" width="16" height="16"/><rect class="cls-5" x="176" y="70" width="16" height="16"/><rect class="cls-5" x="176" y="64" width="16" height="16"/><rect class="cls-5" x="176" y="48" width="16" height="16"/><rect class="cls-5" x="32" y="128" width="16" height="16"/><rect class="cls-5" x="32" y="144" width="16" height="16"/><rect class="cls-5" x="48" y="160" width="16" height="16"/><rect class="cls-3" x="48" y="176" width="16" height="16"/><rect class="cls-3" x="48" y="192" width="16" height="16"/><rect class="cls-6" x="112" y="128" width="16" height="16"/><rect class="cls-6" x="96" y="128" width="16" height="16"/><rect class="cls-6" x="160" y="48" width="16" height="16"/><rect class="cls-6" x="160" y="64" width="16" height="16"/><rect class="cls-3" x="176" y="192" width="16" height="16"/><rect class="cls-3" x="176" y="176" width="16" height="16"/><rect class="cls-3" x="176" y="160" width="16" height="16"/><rect class="cls-3" x="192" y="144" width="16" height="16"/><rect class="cls-3" x="192" y="128" width="16" height="16"/><rect class="cls-3" x="192" y="112" width="16" height="16"/><rect class="cls-3" x="192" y="96" width="16" height="16"/><rect class="cls-1" x="64" y="112" width="16" height="16"/><rect class="cls-1" x="80" y="112" width="16" height="16"/><rect class="cls-1" x="96" y="96" width="16" height="16"/><rect class="cls-1" x="96" y="80" width="16" height="16"/><rect class="cls-1" x="112" y="80" width="16" height="16"/></g></svg>