<svg xmlns="http://www.w3.org/2000/svg" xmlns:xlink="http://www.w3.org/1999/xlink" viewBox="0 0 239.75 240" preserveAspectRatio="xMinYMid meet"><defs><style>.cls-1,.cls-2,.cls-3,.cls-4{stroke:#000;stroke-miterlimit:10;}.cls-1{stroke-width:7px;fill:url(#Unbenannter_Verlauf_8);}.cls-2{fill:none;stroke-width:13px;}.cls-4{stroke-width:5px;}</style><linearGradient id="Unbenannter_Verlauf_8" x1="37.54" y1="37.67" x2="202.21" y2="202.33" gradientUnits="userSpaceOnUse"><stop offset="0" stop-color="#fff"/><stop offset="0.17" stop-color="#ddddfb" stop-opacity="0.94"/><stop offset="0.58" stop-color="#9292f4" stop-opacity="0.81"/><stop offset="0.86" stop-color="#6262ef" stop-opacity="0.73"/><stop offset="1" stop-color="#5050ed" stop-opacity="0.7"/></linearGradient></defs><title>sad</title><g id="Ebene_3" data-name="Ebene 3"><ellipse class="cls-1" cx="119.88" cy="120" rx="116.38" ry="116.5"/><path class="cls-2" d="M71,176c4.28-32.47,16.25-42,49-42s44.72,9.53,49,42" transform="translate(-0.25)"/><circle class="cls-3" cx="79.75" cy="81" r="16"/><circle class="cls-3" cx="159.75" cy="81" r="16"/><path class="cls-4" d="M68,81c-1-.81-2-17.56,19-21,17.84-2.93,25.53,17.88,25,19s-4.23-3.83-21-1C70.57,81.44,69,81.77,68,81Z" transform="translate(-0.25)"/><path class="cls-4" d="M172.88,81c1-.81,1-17.56-20-21-17.84-2.93-24.53,17.88-24,19s4.23-3.83,21-1C170.3,81.44,171.93,81.77,172.88,81Z" transform="translate(-0.25)"/></g></svg>