<svg xmlns="http://www.w3.org/2000/svg" xmlns:xlink="http://www.w3.org/1999/xlink" viewBox="0 0 240 240" width="16" height="16" preserveAspectRatio="xMinYMid meet"><style>.st0{display:none}.st1,.st2,.st3{stroke:#000;stroke-miterlimit:10}.st1{fill:url(#SVGID_1_);stroke-width:7}.st2,.st3{stroke-width:9}.st3{fill:none;stroke-width:13}.st4{fill:url(#SVGID_2_)}.st5{fill:#ff3;stroke:#000;stroke-miterlimit:10}</style><image width="15" height="15" xlink:href="288631B812BE011C.jpg" transform="scale(16)" overflow="visible" id="Ebene_1" class="st0"/><g id="Ebene_3"><linearGradient id="SVGID_1_" gradientUnits="userSpaceOnUse" x1="37.791" y1="38.666" x2="202.459" y2="203.334"><stop offset="0" stop-color="#d1d1d1"/><stop offset=".444" stop-color="#cfcfcf"/><stop offset=".604" stop-color="#c8c8c8"/><stop offset=".717" stop-color="#bdbdbd"/><stop offset=".809" stop-color="#acacac"/><stop offset=".888" stop-color="#969696"/><stop offset=".957" stop-color="#7b7b7b"/><stop offset="1" stop-color="#666"/></linearGradient><ellipse class="st1" cx="120.1" cy="121" rx="116.4" ry="116.5"/><path class="st2" d="M53 107c-1-.8 5-17.6 26-21 17.8-2.9 24.5 16.9 24 18-.5 1-7.2-15.8-24-13-20.4 3.4-25.1 16.8-26 16zM184.9 106c1-.8-5-17.6-26-21-17.8-2.9-24.5 16.9-24 18 .5 1 7.2-15.8 24-13 20.4 3.4 25.1 16.8 26 16z"/><path class="st3" d="M80.5 166.5h79"/><radialGradient id="SVGID_2_" cx="188.97" cy="150.362" r="19.526" gradientTransform="matrix(1.1463 0 0 1.2703 -32.124 -47.5)" gradientUnits="userSpaceOnUse"><stop offset=".224" stop-color="#ff0"/><stop offset="1" stop-color="#ff0" stop-opacity="0"/></radialGradient><circle class="st4" cx="184.5" cy="143.5" r="23.5"/><path class="st5" d="M183 70.4V58.7l33.8-41.8h-30V6H234v10.1l-35.3 43.5h36.7v10.9H183z"/></g></svg>