<svg xmlns="http://www.w3.org/2000/svg" xmlns:xlink="http://www.w3.org/1999/xlink" viewBox="0 0 239.75 240" width="16" height="16" preserveAspectRatio="xMinYMid meet"><defs><style>.cls-1,.cls-2,.cls-3{stroke:#000;stroke-miterlimit:10;}.cls-1{stroke-width:7px;fill:url(#Unbenannter_Verlauf_4);}.cls-2{stroke-width:6px;}.cls-4{fill:url(#Unbenannter_Verlauf_16);}</style><linearGradient id="Unbenannter_Verlauf_4" x1="37.54" y1="37.67" x2="202.21" y2="202.33" gradientUnits="userSpaceOnUse"><stop offset="0" stop-color="#ffe600"/><stop offset="0.4" stop-color="#fde501"/><stop offset="0.54" stop-color="#f8e005" stop-opacity="0.99"/><stop offset="0.64" stop-color="#eed80b" stop-opacity="0.97"/><stop offset="0.73" stop-color="#e0cc15" stop-opacity="0.94"/><stop offset="0.8" stop-color="#cdbd21" stop-opacity="0.9"/><stop offset="0.86" stop-color="#b7aa30" stop-opacity="0.86"/><stop offset="0.92" stop-color="#9c9342" stop-opacity="0.81"/><stop offset="0.97" stop-color="#7e7a56" stop-opacity="0.75"/><stop offset="1" stop-color="#666" stop-opacity="0.7"/></linearGradient><linearGradient id="Unbenannter_Verlauf_16" x1="35.05" y1="203.85" x2="106.08" y2="203.85" gradientUnits="userSpaceOnUse"><stop offset="0" stop-color="red"/><stop offset="1"/></linearGradient></defs><title>tongueout</title><g id="Ebene_3" data-name="Ebene 3"><ellipse class="cls-1" cx="119.88" cy="120" rx="116.38" ry="116.5"/><path class="cls-2" d="M69.5,130.5s-2,82.89,51,68c32-9,50-67,50-67-3,0,5,26-53,26C63.5,157.5,70.5,130.5,69.5,130.5Z" transform="translate(-0.25)"/><circle class="cls-3" cx="159.75" cy="81" r="16"/><circle class="cls-3" cx="80.75" cy="81" r="16"/><path class="cls-4" d="M95,170c-15.85-4.61-67.58,33.3-59,52,2.86,6.23,15.81,15.33,21,16,17.42,2.24,51-35.91,49-57C105.9,179.87,104.22,172.68,95,170Z" transform="translate(-0.25)"/></g></svg>