<?xml version="1.0" encoding="utf-8"?>
<!-- Generator: Adobe Illustrator 16.0.0, SVG Export Plug-In . SVG Version: 6.00 Build 0)  -->
<!DOCTYPE svg PUBLIC "-//W3C//DTD SVG 1.1//EN" "http://www.w3.org/Graphics/SVG/1.1/DTD/svg11.dtd">
<svg version="1.1" id="Layer_1" xmlns="http://www.w3.org/2000/svg" xmlns:xlink="http://www.w3.org/1999/xlink" x="0px" y="0px"
	 width="24px" height="24px" viewBox="0 0 24 24" enable-background="new 0 0 24 24" xml:space="preserve">
<path fill="#666666" d="M24,13.5v9c0,0.8-0.8,1.5-1.5,1.5H21H3H1.5C0.8,24,0,23.2,0,22.5v-9C0,12.8,0.8,12,1.5,12H3
	c0.8,0,1.5,0.8,1.5,1.5v6h15v-6c0-0.7,0.8-1.5,1.5-1.5h1.5C23.2,12,24,12.8,24,13.5z"/>
<path fill="#666666" d="M18.9,7.8l-1.1-1.1c-0.6-0.6-1.5-0.6-2.1,0l-1.2,1.2V1.6c0-0.8-0.6-1.5-1.5-1.5h-1.5c-0.8,0-1.5,0.8-1.5,1.5
	v6.3L8.9,6.7c-0.6-0.6-1.5-0.6-2.1,0l-1,1.1c-0.6,0.6-0.6,1.5,0,2.1l5.5,5.6c0.3,0.3,0.8,0.4,1,0.4c0.5,0,0.8-0.1,1.1-0.4l5.6-5.6
	C19.5,9.4,19.5,8.4,18.9,7.8z"/>
</svg>
