<svg width="130" height="143" viewBox="0 0 130 143" fill="none" xmlns="http://www.w3.org/2000/svg" preserveAspectRatio="xMinYMid meet">
<path d="M54.7321 109.464C84.9598 109.464 109.464 84.9599 109.464 54.7322C109.464 24.5045 84.9598 0 54.7321 0C24.5044 0 0 24.5045 0 54.7322C0 84.9599 24.5044 109.464 54.7321 109.464Z" fill="#C4E5FF"/>
<path d="M50.7351 22.1533H28.602C27.9945 22.1533 27.502 22.6459 27.502 23.2534V53.4505C27.502 54.058 27.9945 54.5505 28.602 54.5505H50.7351C51.3427 54.5505 51.8352 54.058 51.8352 53.4505V23.2534C51.8352 22.6459 51.3427 22.1533 50.7351 22.1533Z" fill="white" stroke="#0056B2" stroke-width="0.75" stroke-miterlimit="10"/>
<path d="M46.7692 30.3281H32.5689C31.6938 30.3281 30.9844 31.0376 30.9844 31.9127C30.9844 32.7878 31.6938 33.4972 32.5689 33.4972H46.7692C47.6443 33.4972 48.3537 32.7878 48.3537 31.9127C48.3537 31.0376 47.6443 30.3281 46.7692 30.3281Z" fill="#85CAFF"/>
<path d="M46.7692 36.9902H32.5689C31.6938 36.9902 30.9844 37.6997 30.9844 38.5748C30.9844 39.4499 31.6938 40.1593 32.5689 40.1593H46.7692C47.6443 40.1593 48.3537 39.4499 48.3537 38.5748C48.3537 37.6997 47.6443 36.9902 46.7692 36.9902Z" fill="#C4E5FF"/>
<path d="M46.7692 43.6504H32.5689C31.6938 43.6504 30.9844 44.3598 30.9844 45.2349C30.9844 46.1101 31.6938 46.8195 32.5689 46.8195H46.7692C47.6443 46.8195 48.3537 46.1101 48.3537 45.2349C48.3537 44.3598 47.6443 43.6504 46.7692 43.6504Z" fill="#C4E5FF"/>
<path d="M81.0007 22.1533H58.8677C58.2601 22.1533 57.7676 22.6459 57.7676 23.2534V53.4505C57.7676 54.058 58.2601 54.5505 58.8677 54.5505H81.0007C81.6083 54.5505 82.1008 54.058 82.1008 53.4505V23.2534C82.1008 22.6459 81.6083 22.1533 81.0007 22.1533Z" fill="white" stroke="#0056B2" stroke-width="0.75" stroke-miterlimit="10"/>
<path d="M77.0465 30.3281H62.8462C61.9711 30.3281 61.2617 31.0376 61.2617 31.9127C61.2617 32.7878 61.9711 33.4972 62.8462 33.4972H77.0465C77.9216 33.4972 78.6311 32.7878 78.6311 31.9127C78.6311 31.0376 77.9216 30.3281 77.0465 30.3281Z" fill="#85CAFF"/>
<path d="M77.0465 36.9902H62.8462C61.9711 36.9902 61.2617 37.6997 61.2617 38.5748C61.2617 39.4499 61.9711 40.1593 62.8462 40.1593H77.0465C77.9216 40.1593 78.6311 39.4499 78.6311 38.5748C78.6311 37.6997 77.9216 36.9902 77.0465 36.9902Z" fill="#C4E5FF"/>
<path d="M77.0465 43.6504H62.8462C61.9711 43.6504 61.2617 44.3598 61.2617 45.2349C61.2617 46.1101 61.9711 46.8195 62.8462 46.8195H77.0465C77.9216 46.8195 78.6311 46.1101 78.6311 45.2349C78.6311 44.3598 77.9216 43.6504 77.0465 43.6504Z" fill="#C4E5FF"/>
<path d="M50.7351 60.3242H28.602C27.9945 60.3242 27.502 60.8167 27.502 61.4243V91.6214C27.502 92.2289 27.9945 92.7214 28.602 92.7214H50.7351C51.3427 92.7214 51.8352 92.2289 51.8352 91.6214V61.4243C51.8352 60.8167 51.3427 60.3242 50.7351 60.3242Z" fill="white" stroke="#0056B2" stroke-width="0.75" stroke-miterlimit="10"/>
<path d="M46.7692 68.499H32.5689C31.6938 68.499 30.9844 69.2085 30.9844 70.0836C30.9844 70.9587 31.6938 71.6681 32.5689 71.6681H46.7692C47.6443 71.6681 48.3537 70.9587 48.3537 70.0836C48.3537 69.2085 47.6443 68.499 46.7692 68.499Z" fill="#85CAFF"/>
<path d="M46.7692 75.1592H32.5689C31.6938 75.1592 30.9844 75.8686 30.9844 76.7437C30.9844 77.6188 31.6938 78.3282 32.5689 78.3282H46.7692C47.6443 78.3282 48.3537 77.6188 48.3537 76.7437C48.3537 75.8686 47.6443 75.1592 46.7692 75.1592Z" fill="#C4E5FF"/>
<path d="M46.7692 81.8115H32.5689C31.6938 81.8115 30.9844 82.521 30.9844 83.3961C30.9844 84.2712 31.6938 84.9806 32.5689 84.9806H46.7692C47.6443 84.9806 48.3537 84.2712 48.3537 83.3961C48.3537 82.521 47.6443 81.8115 46.7692 81.8115Z" fill="#C4E5FF"/>
<path d="M93.9605 59.9199H58.1923C57.2113 59.9199 56.416 60.7152 56.416 61.6962V110.494C56.416 111.475 57.2113 112.27 58.1923 112.27H93.9605C94.9415 112.27 95.7368 111.475 95.7368 110.494V61.6962C95.7368 60.7152 94.9415 59.9199 93.9605 59.9199Z" fill="white" stroke="#0056B2" stroke-width="1.22" stroke-miterlimit="10"/>
<path d="M87.5509 75.7656H64.6104C63.1946 75.7656 62.0469 76.9133 62.0469 78.3291C62.0469 79.7449 63.1946 80.8927 64.6104 80.8927H87.5509C88.9667 80.8927 90.1144 79.7449 90.1144 78.3291C90.1144 76.9133 88.9667 75.7656 87.5509 75.7656Z" fill="#85CAFF"/>
<path d="M87.5509 86.1006H64.6104C63.1946 86.1006 62.0469 87.2484 62.0469 88.6641C62.0469 90.0799 63.1946 91.2276 64.6104 91.2276H87.5509C88.9667 91.2276 90.1144 90.0799 90.1144 88.6641C90.1144 87.2484 88.9667 86.1006 87.5509 86.1006Z" fill="#C4E5FF"/>
<path d="M87.5509 96.4346H64.6104C63.1946 96.4346 62.0469 97.5823 62.0469 98.9981C62.0469 100.414 63.1946 101.562 64.6104 101.562H87.5509C88.9667 101.562 90.1144 100.414 90.1144 98.9981C90.1144 97.5823 88.9667 96.4346 87.5509 96.4346Z" fill="#C4E5FF"/>
<path d="M124.29 106.709C123.964 106.361 123.568 106.085 123.128 105.901C122.688 105.717 122.213 105.628 121.736 105.64C120.793 105.65 119.891 106.03 119.225 106.698C118.559 107.366 118.182 108.269 118.174 109.212V110.222H117.165V106.255C117.169 105.418 116.883 104.605 116.357 103.954C115.868 103.287 115.149 102.827 114.339 102.662C114.098 102.626 113.855 102.606 113.612 102.602C112.667 102.604 111.761 102.98 111.092 103.648C110.423 104.315 110.044 105.219 110.039 106.164V110.201H109.03V106.326C109.05 105.286 108.691 104.275 108.021 103.48C107.695 103.087 107.294 102.762 106.842 102.525C106.39 102.287 105.895 102.142 105.386 102.097C105.249 102.085 105.11 102.085 104.973 102.097C103.902 102.097 102.875 102.522 102.118 103.28C101.361 104.037 100.936 105.063 100.936 106.134V110.171H99.9264V97.1617V82.9716C99.9374 82.1808 99.6892 81.408 99.2199 80.7714C99.118 80.6295 99.0068 80.4946 98.8868 80.3677C98.2762 79.7627 97.4643 79.4035 96.6059 79.3584H96.1215C95.2631 79.4035 94.4512 79.7627 93.8405 80.3677C93.7178 80.4985 93.6033 80.6367 93.4974 80.7815C93.036 81.4183 92.7886 82.1852 92.7909 82.9716V107.022C92.7954 107.083 92.7954 107.143 92.7909 107.204V120.829L91.7816 119.88V114.41C91.7947 113.934 91.7121 113.46 91.5388 113.016C91.3654 112.572 91.1048 112.168 90.7724 111.826C90.4487 111.478 90.0544 111.202 89.6159 111.017C89.1773 110.833 88.7046 110.744 88.229 110.757C87.2856 110.764 86.383 111.142 85.715 111.808C85.0469 112.474 84.6668 113.376 84.6563 114.319V121.384C84.6535 121.873 84.7515 122.358 84.9442 122.808C85.137 123.257 85.4203 123.663 85.7766 123.998L95.6672 133.394C96.0839 133.821 96.4089 134.329 96.6224 134.886C96.8359 135.443 96.9332 136.038 96.9086 136.634C96.9058 136.9 96.9583 137.164 97.0625 137.409C97.1667 137.654 97.3205 137.874 97.5143 138.057C97.7012 138.248 97.9241 138.399 98.1701 138.503C98.4161 138.607 98.6803 138.661 98.9473 138.662H119.345C119.88 138.662 120.393 138.45 120.772 138.071C121.15 137.693 121.363 137.179 121.363 136.644V135.857C121.355 135.029 121.46 134.204 121.676 133.404L125.107 119.547C125.322 118.751 125.427 117.929 125.42 117.105V109.283C125.413 108.8 125.31 108.324 125.116 107.882C124.921 107.44 124.641 107.041 124.29 106.709Z" fill="white"/>
<path d="M129.386 109.292C129.4 108.28 129.21 107.276 128.827 106.34C128.443 105.403 127.875 104.554 127.156 103.842C126.458 103.11 125.617 102.531 124.684 102.142C123.75 101.753 122.747 101.562 121.736 101.581C121.104 101.576 120.473 101.647 119.859 101.794C119.151 100.784 118.209 99.9597 117.115 99.3921C116.02 98.8245 114.804 98.5299 113.571 98.5335C112.19 98.5278 110.834 98.9052 109.655 99.6236C108.296 98.5703 106.621 98.0082 104.901 98.0289C104.558 98.0289 104.225 98.0289 103.892 98.0895V82.9506C103.902 81.94 103.709 80.9376 103.324 80.003C102.939 79.0685 102.371 78.221 101.652 77.5107C100.696 76.5185 99.4777 75.8185 98.1393 75.4922H97.9879C97.8114 75.4521 97.6328 75.4218 97.453 75.4014H97.1402C96.8677 75.4014 96.5951 75.4014 96.3226 75.4014H96.1813C95.9088 75.4014 95.6364 75.4014 95.3639 75.4014H95.0509C94.8711 75.4218 94.6925 75.4521 94.516 75.4922H94.3647C93.0263 75.8185 91.8081 76.5185 90.8524 77.5107C90.1315 78.2196 89.5614 79.067 89.1764 80.0018C88.7913 80.9366 88.5993 81.9396 88.6119 82.9506V106.709C88.4439 106.696 88.2752 106.696 88.1072 106.709C86.0853 106.711 84.1466 107.514 82.715 108.942C81.2834 110.37 80.4752 112.306 80.4672 114.328V121.454C80.4563 122.5 80.6675 123.537 81.0868 124.495C81.506 125.454 82.1239 126.313 82.8995 127.015L92.7196 136.411C92.6797 138.086 93.2994 139.71 94.4454 140.933C95.0018 141.541 95.6831 142.022 96.4426 142.342C97.2021 142.663 98.0218 142.815 98.8458 142.79H119.233C120.037 142.798 120.836 142.645 121.581 142.341C122.326 142.038 123.003 141.588 123.572 141.02C124.141 140.451 124.592 139.775 124.897 139.031C125.202 138.286 125.356 137.488 125.349 136.684C125.325 135.925 125.389 135.166 125.541 134.423L128.992 120.566C129.262 119.442 129.401 118.29 129.406 117.134L129.386 109.292ZM125.006 119.556L121.574 133.414C121.359 134.213 121.253 135.038 121.261 135.866V136.653C121.261 137.189 121.049 137.702 120.67 138.081C120.292 138.459 119.778 138.672 119.243 138.672H98.8458C98.5787 138.671 98.3145 138.617 98.0685 138.513C97.8225 138.409 97.5995 138.257 97.4126 138.066C97.2189 137.884 97.0651 137.663 96.9609 137.418C96.8567 137.173 96.8043 136.909 96.807 136.643C96.8317 136.047 96.7343 135.452 96.5208 134.895C96.3074 134.338 95.9823 133.83 95.5657 133.403L85.675 124.007C85.3188 123.672 85.0354 123.267 84.8427 122.817C84.6499 122.367 84.5518 121.883 84.5546 121.393V114.328C84.5652 113.385 84.9454 112.484 85.6134 111.817C86.2814 111.151 87.1841 110.774 88.1274 110.766C88.603 110.753 89.0758 110.842 89.5143 111.027C89.9528 111.211 90.3471 111.487 90.6708 111.836C91.0032 112.177 91.2639 112.581 91.4372 113.025C91.6106 113.469 91.6931 113.943 91.6801 114.419V119.91L92.6893 120.858V107.233C92.6938 107.173 92.6938 107.112 92.6893 107.052V82.9708C92.687 82.1844 92.9343 81.4175 93.3957 80.7807C93.5016 80.6359 93.6163 80.4976 93.739 80.3668C94.3497 79.7619 95.1615 79.4027 96.0199 79.3576H96.5043C97.3627 79.4027 98.1746 79.7619 98.7853 80.3668C98.9052 80.4938 99.0164 80.6287 99.1183 80.7706C99.5876 81.4072 99.8357 82.18 99.8247 82.9708V97.2316V110.241H100.834V106.204C100.834 105.133 101.259 104.106 102.016 103.349C102.774 102.592 103.8 102.167 104.871 102.167C105.009 102.155 105.147 102.155 105.285 102.167C105.793 102.212 106.288 102.357 106.74 102.595C107.192 102.832 107.593 103.157 107.919 103.55C108.589 104.345 108.948 105.356 108.928 106.396V110.271H109.938V106.234C109.943 105.289 110.321 104.385 110.991 103.717C111.66 103.05 112.565 102.674 113.51 102.672C113.754 102.676 113.996 102.696 114.237 102.732C115.047 102.896 115.767 103.357 116.255 104.024C116.782 104.675 117.067 105.488 117.063 106.325V110.291H118.072V109.282C118.08 108.339 118.458 107.436 119.124 106.768C119.79 106.1 120.691 105.72 121.635 105.709C122.112 105.697 122.586 105.787 123.026 105.971C123.466 106.155 123.862 106.431 124.188 106.779C124.518 107.122 124.778 107.527 124.951 107.97C125.124 108.414 125.208 108.887 125.198 109.363V117.185C125.238 117.98 125.173 118.778 125.006 119.556Z" fill="#0056B2"/>
</svg>
