<svg width="109" height="132" viewBox="0 0 109 132" fill="none" xmlns="http://www.w3.org/2000/svg" preserveAspectRatio="xMinYMid meet">
<path d="M54.54 2.29492e-05C43.7604 -0.00986828 33.22 3.17783 24.2524 9.15969C15.2847 15.1416 8.29284 23.6488 4.16124 33.6052C0.0296474 43.5617 -1.056 54.5199 1.04167 65.0935C3.13934 75.6671 8.32603 85.381 15.9456 93.0061C23.5652 100.631 33.2752 105.825 43.8473 107.931C54.4193 110.036 65.3783 108.958 75.3378 104.834C85.2973 100.71 93.8098 93.7242 99.7982 84.761C105.787 75.7978 108.982 65.2597 108.98 54.48C108.98 40.0379 103.246 26.1868 93.0373 15.971C82.829 5.75514 68.9821 0.0106265 54.54 2.29492e-05ZM54.54 92.24C47.0714 92.242 39.7699 90.0292 33.5589 85.8812C27.348 81.7333 22.5067 75.8366 19.6472 68.937C16.7877 62.0375 16.0385 54.4449 17.4944 47.1195C18.9502 39.7941 22.5457 33.0651 27.8262 27.7832C33.1066 22.5014 39.8347 18.9041 47.1597 17.4463C54.4847 15.9885 62.0775 16.7357 68.9778 19.5934C75.8782 22.4511 81.7761 27.2908 85.9256 33.5006C90.0752 39.7104 92.29 47.0114 92.29 54.48C92.2913 59.4382 91.3159 64.3483 89.4194 68.9295C87.5228 73.5107 84.7424 77.6734 81.2369 81.1798C77.7313 84.6863 73.5693 87.4678 68.9886 89.3655C64.4079 91.2632 59.4983 92.24 54.54 92.24Z" fill="#C4E5FF"/>
<path d="M54.5391 0V16.72C64.5519 16.7226 74.1538 20.7021 81.233 27.7832C88.3122 34.8643 92.2891 44.4671 92.2891 54.48H108.979C108.979 40.0379 103.245 26.1868 93.0364 15.9709C82.828 5.75511 68.9811 0.0106036 54.5391 0Z" fill="#85CAFF"/>
<path d="M18.8507 66.8201C16.886 61.1315 16.3092 55.0558 17.1681 49.0991C18.0271 43.1425 20.2971 37.4773 23.789 32.5756C27.2808 27.6739 31.8934 23.6776 37.2425 20.9196C42.5917 18.1616 48.5224 16.7217 54.5407 16.72V8.99755e-07C45.8564 -0.00157725 37.2975 2.07289 29.5776 6.05054C21.8578 10.0282 15.2006 15.7938 10.1613 22.8665C5.12197 29.9391 1.84642 38.114 0.607778 46.7096C-0.63086 55.3052 0.203305 64.0723 3.0407 72.28L18.8507 66.8201Z" fill="#0056B2"/>
<path d="M38.7519 49.2401C43.7666 49.2401 47.8319 45.1748 47.8319 40.1601C47.8319 35.1453 43.7666 31.0801 38.7519 31.0801C33.7371 31.0801 29.6719 35.1453 29.6719 40.1601C29.6719 45.1748 33.7371 49.2401 38.7519 49.2401Z" fill="#85CAFF"/>
<path d="M74.8719 55.3203H34.2119C31.7045 55.3203 29.6719 57.353 29.6719 59.8604C29.6719 62.3677 31.7045 64.4003 34.2119 64.4003H74.8719C77.3792 64.4003 79.4119 62.3677 79.4119 59.8604C79.4119 57.353 77.3792 55.3203 74.8719 55.3203Z" fill="#85CAFF"/>
<path d="M74.8719 70.1504H34.2119C31.7045 70.1504 29.6719 72.183 29.6719 74.6904C29.6719 77.1977 31.7045 79.2304 34.2119 79.2304H74.8719C77.3792 79.2304 79.4119 77.1977 79.4119 74.6904C79.4119 72.183 77.3792 70.1504 74.8719 70.1504Z" fill="#C4E5FF"/>
<path d="M76.9799 41.5205H55.7698C54.4278 41.5205 53.3398 42.6084 53.3398 43.9505V43.9605C53.3398 45.3026 54.4278 46.3905 55.7698 46.3905H76.9799C78.3219 46.3905 79.4099 45.3026 79.4099 43.9605V43.9505C79.4099 42.6084 78.3219 41.5205 76.9799 41.5205Z" fill="#85CAFF"/>
<path d="M65.4499 33.5205H55.7698C54.4278 33.5205 53.3398 34.6084 53.3398 35.9505V35.9605C53.3398 37.3026 54.4278 38.3905 55.7698 38.3905H65.4499C66.7919 38.3905 67.8799 37.3026 67.8799 35.9605V35.9505C67.8799 34.6084 66.7919 33.5205 65.4499 33.5205Z" fill="#85CAFF"/>
<path d="M90.2096 91.0605C89.8473 90.6761 89.408 90.3723 88.9204 90.1689C88.4328 89.9656 87.9078 89.8673 87.3797 89.8805C86.3275 89.8936 85.3228 90.3209 84.5835 91.0696C83.8441 91.8183 83.4296 92.8282 83.4297 93.8805V95.0005H82.2997V90.6005C82.3027 89.6738 81.9886 88.7741 81.4096 88.0505C80.8592 87.3125 80.0534 86.8062 79.1496 86.6305C78.8818 86.5869 78.611 86.5635 78.3396 86.5605C77.2891 86.5604 76.2806 86.9736 75.5322 87.7108C74.7838 88.448 74.3554 89.4501 74.3396 90.5005V95.0105H73.2096V90.7205C73.2276 89.5646 72.8181 88.4429 72.0597 87.5706C71.704 87.1312 71.2625 86.7689 70.7622 86.5059C70.2619 86.2428 69.7132 86.0845 69.1496 86.0405C68.9968 86.0228 68.8425 86.0228 68.6897 86.0405C67.4935 86.0405 66.3464 86.5157 65.5006 87.3615C64.6548 88.2072 64.1797 89.3544 64.1797 90.5505V95.0505H63.0497V80.6305V64.8304C63.062 63.957 62.788 63.1036 62.2696 62.4005C62.1514 62.2436 62.0245 62.0934 61.8896 61.9506C61.2202 61.2652 60.3165 60.858 59.3597 60.8105H58.8296C58.2565 60.8347 57.6968 60.9907 57.1938 61.2665C56.6909 61.5422 56.2583 61.9303 55.9297 62.4005C55.4113 63.1036 55.1373 63.957 55.1496 64.8304V91.4805C55.1541 91.5437 55.1541 91.6073 55.1496 91.6705V106.771L54.0196 105.771V99.7104C54.0306 99.1811 53.9364 98.6549 53.7424 98.1622C53.5484 97.6696 53.2586 97.2202 52.8896 96.8405C52.5246 96.4594 52.0849 96.158 51.5979 95.955C51.1109 95.7519 50.5872 95.6517 50.0597 95.6605C49.5401 95.6593 49.0254 95.7622 48.5462 95.9631C48.0671 96.1641 47.633 96.459 47.2696 96.8304C46.897 97.1903 46.6019 97.6226 46.4024 98.1007C46.203 98.5788 46.1033 99.0925 46.1097 99.6105V107.5C46.1104 108.041 46.2206 108.576 46.4338 109.073C46.6469 109.569 46.9584 110.018 47.3497 110.391L58.3497 120.791C58.8118 121.264 59.1726 121.826 59.4099 122.443C59.6472 123.061 59.756 123.72 59.7297 124.38C59.7449 124.974 59.9883 125.539 60.4091 125.958C60.8299 126.377 61.396 126.618 61.9897 126.63H84.5896C84.8847 126.632 85.177 126.574 85.4487 126.458C85.7204 126.343 85.9657 126.174 86.1697 125.96C86.3838 125.757 86.5539 125.512 86.6692 125.24C86.7844 124.968 86.8424 124.676 86.8396 124.38V123.5C86.835 122.582 86.9528 121.668 87.1897 120.781L90.9897 105.431C91.226 104.55 91.3437 103.642 91.3396 102.73V94.0706C91.3698 93.518 91.2849 92.9651 91.0904 92.447C90.8959 91.9289 90.596 91.4568 90.2096 91.0605Z" fill="white"/>
<path d="M95.8601 93.9202C95.8729 92.8045 95.6597 91.6978 95.2335 90.6666C94.8073 89.6355 94.1769 88.7013 93.3801 87.9202C92.6096 87.1075 91.678 86.4644 90.6449 86.0322C89.6118 85.6 88.4998 85.3882 87.3801 85.4102C86.8867 85.6145 86.356 85.7131 85.8221 85.6996C85.2882 85.6861 84.763 85.5609 84.2806 85.3319C83.7981 85.1029 83.3691 84.7753 83.0211 84.3702C82.673 83.9652 82.4138 83.4916 82.2601 82.9801C81.0517 82.3394 79.7077 81.9966 78.3401 81.9801C76.8096 81.9761 75.3078 82.3949 74.0001 83.1902C72.4951 82.0277 70.6417 81.4075 68.7401 81.4302C68.366 81.4294 67.9921 81.4494 67.6201 81.4901V64.7301C67.6306 63.6147 67.4164 62.5087 66.9903 61.4779C66.5642 60.4471 65.935 59.5126 65.1401 58.7301C64.0823 57.6274 62.7335 56.8472 61.2501 56.4801H61.0801L60.4901 56.3801H60.1401C59.8378 56.3482 59.5341 56.3315 59.2301 56.3301H59.0801C58.7794 56.3312 58.4791 56.348 58.1801 56.3801H57.8301L57.2401 56.4801H57.0601C55.573 56.8449 54.2203 57.6253 53.1601 58.7301C52.3684 59.5144 51.7419 60.4496 51.3177 61.4801C50.8934 62.5106 50.6801 63.6157 50.6901 64.7301V91.0502C50.5071 91.0363 50.3231 91.0363 50.1401 91.0502C47.8978 91.0581 45.7496 91.9516 44.1631 93.5361C42.5767 95.1207 41.6806 97.2679 41.6701 99.5101V107.4C41.6624 108.557 41.8979 109.702 42.3613 110.761C42.8247 111.821 43.5057 112.771 44.3601 113.55L55.2401 123.96C55.2039 125.813 55.8928 127.607 57.1601 128.96C57.7745 129.635 58.5281 130.169 59.3689 130.525C60.2097 130.881 61.1176 131.05 62.0301 131.02H84.6201C85.5103 131.024 86.3924 130.852 87.2156 130.513C88.0387 130.174 88.7866 129.676 89.4161 129.046C90.0455 128.417 90.5441 127.669 90.8829 126.846C91.2217 126.022 91.394 125.14 91.3901 124.25C91.366 123.412 91.4364 122.573 91.6001 121.75L95.4301 106.4C95.7275 105.155 95.8818 103.88 95.8901 102.6L95.8601 93.9202ZM90.9801 105.29L87.1801 120.64C86.9432 121.527 86.8255 122.442 86.8301 123.36V124.24C86.8329 124.535 86.7749 124.828 86.6596 125.1C86.5443 125.372 86.3743 125.617 86.1601 125.82C85.9561 126.033 85.7108 126.203 85.4391 126.318C85.1675 126.433 84.8752 126.492 84.5801 126.49H61.9801C61.3864 126.477 60.8204 126.237 60.3995 125.818C59.9787 125.399 59.7354 124.834 59.7201 124.24C59.7464 123.579 59.6376 122.92 59.4003 122.303C59.163 121.686 58.8023 121.123 58.3401 120.65L47.3401 110.25C46.9489 109.877 46.6373 109.429 46.4242 108.932C46.2111 108.435 46.1008 107.901 46.1001 107.36V99.4701C46.0938 98.9521 46.1934 98.4384 46.3929 97.9603C46.5924 97.4823 46.8875 97.05 47.2601 96.6902C47.6235 96.3187 48.0575 96.0237 48.5367 95.8228C49.0159 95.6218 49.5305 95.5189 50.0501 95.5201C50.5777 95.5113 51.1013 95.6115 51.5883 95.8146C52.0753 96.0176 52.5151 96.3192 52.8801 96.7002C53.2491 97.08 53.5389 97.5292 53.7328 98.0219C53.9268 98.5145 54.0211 99.0408 54.0101 99.5702V105.63L55.1401 106.63V91.5302C55.1446 91.4669 55.1446 91.4033 55.1401 91.3401V64.6902C55.1278 63.8167 55.4017 62.9632 55.9201 62.2601C56.2487 61.79 56.6813 61.4019 57.1843 61.1261C57.6872 60.8503 58.247 60.6944 58.8201 60.6702H59.3501C60.307 60.7176 61.2107 61.1248 61.8801 61.8102C62.015 61.953 62.1419 62.1032 62.2601 62.2601C62.7785 62.9632 63.0524 63.8167 63.0401 64.6902V80.4901V94.9102H64.1701V90.4102C64.1701 89.214 64.6452 88.0669 65.491 87.2211C66.3368 86.3753 67.484 85.9001 68.6801 85.9001C68.8329 85.8825 68.9873 85.8825 69.1401 85.9001C69.7036 85.9441 70.2524 86.1024 70.7527 86.3655C71.253 86.6285 71.6945 86.9908 72.0501 87.4302C72.8085 88.3026 73.218 89.4242 73.2001 90.5801V94.8701H74.3301V90.3601C74.3458 89.3097 74.7743 88.3077 75.5227 87.5704C76.2711 86.8332 77.2795 86.42 78.3301 86.4202C78.6015 86.4231 78.8722 86.4465 79.1401 86.4901C80.0438 86.6658 80.8497 87.1721 81.4001 87.9102C81.9791 88.6337 82.2931 89.5334 82.2901 90.4601V94.8601H83.4201V93.7401C83.42 92.6879 83.8345 91.6779 84.5739 90.9292C85.3133 90.1805 86.3179 89.7533 87.3701 89.7401C87.8983 89.7269 88.4232 89.8252 88.9108 90.0286C89.3984 90.2319 89.8377 90.5357 90.2001 90.9202C90.569 91.2999 90.8589 91.7492 91.0529 92.2418C91.2468 92.7345 91.341 93.2608 91.3301 93.7902V102.45C91.3469 103.409 91.2291 104.365 90.9801 105.29Z" fill="#0056B2"/>
</svg>
