<svg width="147" height="122" viewBox="0 0 147 122" fill="none" xmlns="http://www.w3.org/2000/svg" preserveAspectRatio="xMinYMid meet">
<path d="M54.47 9.67969C43.6953 9.68167 33.1631 12.8785 24.2053 18.8661C15.2474 24.8536 8.26617 33.363 4.14424 43.3181C0.0223103 53.2731 -1.0552 64.2269 1.04805 74.7944C3.1513 85.3618 8.34084 95.0682 15.9604 102.686C23.58 110.305 33.2874 115.492 43.8552 117.594C54.423 119.695 65.3767 118.615 75.331 114.492C85.2853 110.368 93.7934 103.385 99.7793 94.4261C105.765 85.4672 108.96 74.9344 108.96 64.1597C108.96 57.0045 107.551 49.9192 104.812 43.3088C102.074 36.6983 98.0597 30.6921 92.9997 25.633C87.9397 20.5739 81.9327 16.5611 75.3217 13.8239C68.7108 11.0866 61.6253 9.67838 54.47 9.67969Z" fill="#C4E5FF"/>
<path d="M38.0894 62.8701C46.9149 62.8701 54.0694 55.7156 54.0694 46.8901C54.0694 38.0646 46.9149 30.9102 38.0894 30.9102C29.2639 30.9102 22.1094 38.0646 22.1094 46.8901C22.1094 55.7156 29.2639 62.8701 38.0894 62.8701Z" fill="#85CAFF"/>
<path d="M49.5087 56.3195C49.5087 56.2095 49.4387 56.0995 49.4087 55.9995V55.9295C49.4087 55.8295 49.3387 55.7295 49.2987 55.6395L49.1487 55.3295L48.9987 55.0795C48.8888 54.91 48.7614 54.7524 48.6187 54.6095L48.4187 54.4195C48.2671 54.2917 48.1066 54.1747 47.9386 54.0695C47.8578 54.01 47.7706 53.9597 47.6786 53.9195C46.8756 53.539 46.0245 53.2699 45.1487 53.1195C43.6387 52.8095 41.5886 51.3395 41.3586 50.4195C41.3259 50.025 41.3816 49.6282 41.5217 49.258C41.6619 48.8878 41.883 48.5535 42.1687 48.2795C42.2487 48.1795 42.3187 48.0895 42.3787 47.9995L42.4386 47.9195C43.0857 47.064 43.5087 46.0602 43.6687 44.9995C43.6687 44.9095 43.6687 44.8195 43.6687 44.7295C43.9683 43.1826 43.9273 41.589 43.5487 40.0595C43.2491 39.0602 42.6596 38.1723 41.855 37.5083C41.0503 36.8443 40.0667 36.434 39.0287 36.3295H38.8887C38.6522 36.3146 38.415 36.3146 38.1786 36.3295C37.9421 36.315 37.7051 36.315 37.4686 36.3295H37.2386C36.2002 36.4328 35.216 36.8425 34.4111 37.5067C33.6063 38.1709 33.0171 39.0595 32.7186 40.0595C32.3352 41.5883 32.2942 43.183 32.5986 44.7295C32.5986 44.8195 32.5986 44.9095 32.5986 44.9995C32.7635 46.0588 33.1858 47.0615 33.8286 47.9195L33.8887 47.9995L34.0986 48.2795C34.3861 48.5522 34.6083 48.8863 34.7485 49.2568C34.8888 49.6274 34.9436 50.0248 34.9087 50.4195C34.6887 51.3395 32.6387 52.8095 31.1187 53.1195C30.2457 53.2683 29.3976 53.5375 28.5986 53.9195C28.5078 53.9619 28.4208 54.0121 28.3386 54.0695C28.1706 54.1747 28.0102 54.2917 27.8586 54.4195L27.6587 54.6095C27.5189 54.755 27.3917 54.9123 27.2787 55.0795L27.1287 55.3295L26.9786 55.6395L26.8586 55.9295V55.9995C26.8194 56.1042 26.786 56.2111 26.7587 56.3195C26.7587 56.3795 26.3987 57.5795 26.3887 57.6495C27.882 59.2801 29.6982 60.5821 31.7219 61.4729C33.7456 62.3637 35.9326 62.8237 38.1437 62.8237C40.3548 62.8237 42.5416 62.3637 44.5653 61.4729C46.589 60.5821 48.4053 59.2801 49.8987 57.6495C49.8987 57.5895 49.5786 56.3495 49.5686 56.2895L49.5087 56.3195Z" fill="white"/>
<path d="M38.0894 99.5498C46.9149 99.5498 54.0694 92.3953 54.0694 83.5698C54.0694 74.7443 46.9149 67.5898 38.0894 67.5898C29.2639 67.5898 22.1094 74.7443 22.1094 83.5698C22.1094 92.3953 29.2639 99.5498 38.0894 99.5498Z" fill="#85CAFF"/>
<path d="M49.5087 92.9604C49.5087 92.8504 49.4387 92.7504 49.4087 92.6404V92.5704C49.4087 92.4704 49.3387 92.3704 49.2987 92.2804C49.2987 92.1804 49.1987 92.0704 49.1487 91.9804L48.9987 91.7304V91.6804C48.8888 91.5109 48.7614 91.3534 48.6187 91.2104C48.5569 91.1421 48.4901 91.0785 48.4187 91.0204C48.2673 90.8894 48.1068 90.7691 47.9386 90.6604L47.6786 90.5104C46.875 90.1335 46.024 89.8677 45.1487 89.7204C43.6387 89.4004 41.5886 87.9304 41.3586 87.0104C41.3273 86.616 41.3838 86.2196 41.5238 85.8496C41.6638 85.4796 41.8841 85.1452 42.1687 84.8704C42.245 84.782 42.3152 84.6885 42.3787 84.5904L42.4386 84.5204C43.0829 83.6595 43.5054 82.6533 43.6687 81.5904C43.6687 81.5104 43.6687 81.4104 43.6687 81.3204C43.9681 79.7701 43.9272 78.1733 43.5487 76.6404C43.2498 75.6416 42.6602 74.7545 41.8552 74.092C41.0502 73.4294 40.0663 73.0216 39.0287 72.9204H38.8887C38.6522 72.9054 38.415 72.9054 38.1786 72.9204C37.9421 72.9057 37.7051 72.9057 37.4686 72.9204H37.2386C36.2006 73.0203 35.216 73.4277 34.4108 74.0904C33.6056 74.7531 33.0163 75.641 32.7186 76.6404C32.3353 78.1727 32.2943 79.7705 32.5986 81.3204C32.5986 81.4104 32.5986 81.5104 32.5986 81.5904C32.7662 82.652 33.1882 83.6573 33.8286 84.5204L33.8887 84.5904L34.0986 84.8704C34.3855 85.1435 34.6073 85.4777 34.7476 85.8481C34.8878 86.2186 34.9429 86.6158 34.9087 87.0104C34.6887 87.9304 32.6387 89.4004 31.1187 89.7204C30.2462 89.8662 29.3981 90.132 28.5986 90.5104L28.3386 90.6604C28.1704 90.7691 28.01 90.8894 27.8586 91.0204L27.6587 91.2104C27.5189 91.356 27.3917 91.5132 27.2787 91.6804V91.7304L27.1287 91.9704C27.0787 92.0604 27.0286 92.1704 26.9786 92.2704L26.8586 92.5604V92.6304C26.8586 92.7404 26.7887 92.8404 26.7587 92.9504C26.7587 93.0104 26.3987 94.2104 26.3887 94.2704C27.8828 95.8996 29.6993 97.2004 31.7229 98.0903C33.7465 98.9802 35.9331 99.4397 38.1437 99.4397C40.3543 99.4397 42.5407 98.9802 44.5643 98.0903C46.5879 97.2004 48.4045 95.8996 49.8987 94.2704C49.8987 94.2104 49.5786 92.9704 49.5686 92.9104L49.5087 92.9604Z" fill="white"/>
<path d="M74.4702 99.5498C83.2957 99.5498 90.4502 92.3953 90.4502 83.5698C90.4502 74.7443 83.2957 67.5898 74.4702 67.5898C65.6447 67.5898 58.4902 74.7443 58.4902 83.5698C58.4902 92.3953 65.6447 99.5498 74.4702 99.5498Z" fill="#85CAFF"/>
<path d="M85.8801 92.9604C85.8801 92.8504 85.8202 92.7504 85.7802 92.6404V92.5704L85.6602 92.2804L85.5101 91.9804L85.3601 91.7304V91.6804C85.2471 91.5132 85.1199 91.356 84.9801 91.2104L84.7802 91.0204C84.6287 90.8894 84.4684 90.7691 84.3002 90.6604L84.0402 90.5104C83.2407 90.132 82.3926 89.8662 81.5201 89.7204C80.0001 89.4004 77.9501 87.9304 77.7301 87.0104C77.6959 86.6158 77.751 86.2186 77.8912 85.8481C78.0315 85.4777 78.2533 85.1435 78.5402 84.8704L78.7501 84.5904L78.8101 84.5204C79.4505 83.6573 79.8726 82.652 80.0402 81.5904C80.0402 81.5104 80.0402 81.4104 80.0402 81.3204C80.3445 79.7705 80.3035 78.1727 79.9202 76.6404C79.6225 75.641 79.0332 74.7531 78.228 74.0904C77.4228 73.4277 76.4382 73.0203 75.4001 72.9204H75.2401C75.0037 72.9057 74.7666 72.9057 74.5302 72.9204C74.2937 72.9054 74.0565 72.9054 73.8201 72.9204H73.6801C72.6424 73.0216 71.6585 73.4294 70.8535 74.092C70.0485 74.7545 69.4591 75.6416 69.1602 76.6404C68.7817 78.1733 68.7407 79.7701 69.0402 81.3204C69.0402 81.4104 69.0402 81.5104 69.0402 81.5904C69.2034 82.6533 69.6259 83.6595 70.2701 84.5204L70.3301 84.5904C70.3936 84.6885 70.4638 84.782 70.5402 84.8704C70.8248 85.1452 71.0449 85.4796 71.1849 85.8496C71.325 86.2196 71.3814 86.616 71.3501 87.0104C71.1201 87.9304 69.0701 89.4004 67.5601 89.7204C66.6848 89.8677 65.8337 90.1335 65.0302 90.5104L64.7701 90.6604C64.6019 90.7691 64.4416 90.8894 64.2902 91.0204C64.2187 91.0785 64.1518 91.1421 64.0901 91.2104C63.9473 91.3534 63.82 91.5109 63.7101 91.6804V91.7304L63.5601 91.9704L63.4102 92.2704C63.4102 92.3604 63.3402 92.4604 63.3002 92.5604V92.6304C63.3002 92.7404 63.2301 92.8404 63.2001 92.9504C63.2001 93.0104 62.8501 94.2104 62.8301 94.2704C64.3284 95.8945 66.1468 97.1906 68.1708 98.0771C70.1948 98.9636 72.3805 99.4214 74.5901 99.4214C76.7997 99.4214 78.9854 98.9636 81.0094 98.0771C83.0334 97.1906 84.8518 95.8945 86.3501 94.2704C86.3501 94.2104 86.0301 92.9704 86.0101 92.9104L85.8801 92.9604Z" fill="white"/>
<path d="M86.9099 58.14C102.412 58.14 114.98 45.5726 114.98 30.07C114.98 14.5673 102.412 2 86.9099 2C71.4072 2 58.8398 14.5673 58.8398 30.07C58.8398 45.5726 71.4072 58.14 86.9099 58.14Z" fill="#85CAFF" stroke="#0056B2" stroke-width="3.37" stroke-miterlimit="10"/>
<path d="M105.759 45.5699C105.759 45.3899 105.649 45.2199 105.589 45.0499C105.593 45.01 105.593 44.9698 105.589 44.9299C105.529 44.7599 105.469 44.5999 105.399 44.4499C105.319 44.2699 105.239 44.1099 105.149 43.9499L104.909 43.5399V43.47C104.726 43.189 104.515 42.9276 104.279 42.6899C104.176 42.5758 104.066 42.4689 103.949 42.3699C103.705 42.1512 103.441 41.9569 103.159 41.7899C103.021 41.7002 102.877 41.6201 102.729 41.5499C101.401 40.928 99.9949 40.4906 98.5488 40.2499C96.0588 39.7199 92.6688 37.3 92.2988 35.77C91.9788 34.43 92.8588 33.2699 93.6388 32.2399L93.9888 31.78L94.0787 31.66C95.1374 30.2418 95.8249 28.5814 96.0787 26.8299C96.0787 26.6899 96.1388 26.5299 96.1588 26.3799C96.1635 26.3602 96.1635 26.3397 96.1588 26.3199C96.6533 23.7664 96.5884 21.136 95.9688 18.6099C95.474 16.9586 94.4999 15.4915 93.1699 14.3948C91.84 13.298 90.2141 12.6211 88.4988 12.4499H88.2788C87.8907 12.402 87.4998 12.3786 87.1088 12.3799C86.7177 12.3789 86.3269 12.4023 85.9387 12.4499H85.7188C84.0048 12.6217 82.3805 13.299 81.0522 14.3958C79.724 15.4926 78.7517 16.9594 78.2588 18.6099C77.6358 21.1353 77.5675 23.7657 78.0587 26.3199C78.0587 26.3199 78.0587 26.3199 78.0587 26.3799C78.0587 26.5299 78.0588 26.6899 78.1388 26.8299C78.3963 28.5804 79.0834 30.2399 80.1388 31.66L80.2288 31.78L80.5687 32.2399C81.3487 33.2399 82.2388 34.43 81.9088 35.77C81.5488 37.3 78.1588 39.7699 75.6588 40.2499C74.2155 40.489 72.8122 40.9265 71.4888 41.5499C71.3402 41.6201 71.1964 41.7002 71.0587 41.7899C70.7787 41.9595 70.5144 42.1536 70.2688 42.3699L69.9387 42.6899C69.7087 42.9305 69.5011 43.1916 69.3187 43.47L69.2688 43.5399C69.1788 43.6699 69.0988 43.8099 69.0188 43.9499C68.9288 44.1099 68.8488 44.2699 68.7688 44.4499C68.7688 44.4499 68.6387 44.7599 68.5787 44.9299V45.0499C68.5187 45.2199 68.4588 45.3899 68.4088 45.5699C68.4131 45.5897 68.4131 45.6102 68.4088 45.6299C68.4088 45.7299 67.8288 47.7099 67.7988 47.8199C70.2631 50.5154 73.2607 52.6691 76.6016 54.1445C79.9424 55.6198 83.5535 56.3846 87.2056 56.3903C90.8577 56.3959 94.4711 55.6423 97.8165 54.1772C101.162 52.7122 104.166 50.5677 106.639 47.8799C106.639 47.7699 106.109 45.7299 106.079 45.6299L105.759 45.5699Z" fill="white"/>
<path d="M139.788 75.3801C139.37 74.9357 138.862 74.5848 138.299 74.3505C137.735 74.1161 137.129 74.0035 136.518 74.0201C135.311 74.0253 134.154 74.5074 133.3 75.3615C132.446 76.2155 131.964 77.3723 131.958 78.5801V79.8901H130.648V74.8101C130.672 73.7246 130.318 72.6645 129.648 71.8101C129.006 70.9587 128.074 70.3719 127.028 70.1601C126.717 70.1139 126.403 70.0872 126.088 70.0801C124.881 70.0853 123.724 70.5674 122.87 71.4214C122.016 72.2755 121.534 73.4323 121.528 74.6401V79.86H120.238V74.86C120.258 73.5244 119.784 72.2285 118.908 71.2201C118.495 70.713 117.983 70.2948 117.404 69.9907C116.825 69.6865 116.191 69.5026 115.538 69.4501C115.363 69.4273 115.184 69.4273 115.008 69.4501C114.323 69.4488 113.645 69.5826 113.012 69.8438C112.378 70.105 111.803 70.4885 111.318 70.9725C110.833 71.4564 110.448 72.0312 110.186 72.664C109.924 73.2968 109.788 73.9751 109.788 74.6601V79.86H108.478V63.2501V44.98C108.49 43.9691 108.17 42.9822 107.568 42.17C107.439 41.9856 107.295 41.8117 107.138 41.6501C106.366 40.8579 105.323 40.3864 104.218 40.3301H103.598C102.494 40.3864 101.451 40.8579 100.678 41.6501C100.518 41.8116 100.371 41.9854 100.238 42.17C99.6394 42.9832 99.3232 43.9702 99.3384 44.98V75.79C99.3425 75.8633 99.3425 75.9368 99.3384 76.0101V93.4701L98.0385 92.2501V85.2501C98.0501 84.6376 97.9402 84.0289 97.7154 83.459C97.4905 82.8892 97.1551 82.3696 96.7284 81.9301C96.31 81.4857 95.8024 81.1348 95.2388 80.9005C94.6753 80.6661 94.0685 80.5535 93.4584 80.5701C92.2497 80.578 91.0929 81.0623 90.2392 81.9179C89.3854 82.7735 88.9037 83.9314 88.8985 85.1401V94.2501C88.8958 94.875 89.0213 95.4938 89.2673 96.0683C89.5132 96.6428 89.8744 97.1607 90.3284 97.5901L102.988 109.59C103.525 110.135 103.945 110.785 104.22 111.499C104.495 112.213 104.621 112.976 104.588 113.74C104.601 114.427 104.881 115.083 105.368 115.568C105.855 116.053 106.511 116.33 107.198 116.34H133.318C134.007 116.335 134.667 116.06 135.155 115.573C135.643 115.087 135.921 114.429 135.928 113.74V112.74C135.922 111.68 136.06 110.623 136.338 109.6L140.728 91.8501C141.002 90.8296 141.137 89.7767 141.128 88.7201V78.7201C141.141 78.1019 141.029 77.4874 140.799 76.9136C140.568 76.3397 140.225 75.8181 139.788 75.3801Z" fill="white"/>
<path d="M146.319 78.6899C146.342 77.3901 146.101 76.0992 145.609 74.8958C145.118 73.6923 144.386 72.6016 143.459 71.6899C142.566 70.7528 141.488 70.0112 140.293 69.5121C139.099 69.0129 137.814 68.767 136.519 68.7899C135.708 68.7865 134.899 68.8805 134.109 69.0699C133.212 67.7686 132.006 66.7103 130.599 65.9899C129.198 65.2679 127.645 64.8908 126.069 64.8899C124.307 64.889 122.578 65.3696 121.069 66.2799C119.325 64.9495 117.183 64.245 114.989 64.2799C114.555 64.2807 114.121 64.3074 113.689 64.3599V44.9699C113.709 43.6706 113.466 42.3807 112.974 41.1777C112.483 39.9748 111.753 38.8837 110.829 37.9699C109.601 36.7005 108.042 35.7999 106.329 35.3699H106.129C105.899 35.3699 105.679 35.2799 105.449 35.2499C105.219 35.2199 105.179 35.2499 105.039 35.1899C104.707 35.1512 104.374 35.1312 104.039 35.1299H103.859C103.525 35.1318 103.191 35.1518 102.859 35.1899L102.459 35.2499C102.229 35.2499 101.999 35.3199 101.779 35.3699H101.579C99.8662 35.7999 98.3075 36.7005 97.0793 37.9699C96.1535 38.8823 95.4227 39.9732 94.9311 41.1765C94.4395 42.3797 94.1973 43.6703 94.2193 44.9699V75.3999C94.0062 75.3848 93.7923 75.3848 93.5793 75.3999C90.987 75.4078 88.503 76.4404 86.669 78.2725C84.835 80.1046 83.7999 82.5876 83.7894 85.1799V94.2999C83.7787 95.637 84.0502 96.9614 84.5861 98.1865C85.122 99.4117 85.9102 100.51 86.8993 101.41L99.4793 113.41C99.4345 115.559 100.231 117.64 101.699 119.21C102.413 119.986 103.285 120.6 104.256 121.01C105.227 121.421 106.275 121.618 107.329 121.59H133.449C134.479 121.594 135.499 121.394 136.45 121.002C137.402 120.61 138.267 120.033 138.995 119.305C139.723 118.577 140.299 117.713 140.691 116.761C141.083 115.809 141.283 114.789 141.279 113.76C141.252 112.791 141.332 111.821 141.519 110.87L145.949 93.1299C146.288 91.6874 146.466 90.2116 146.479 88.7299L146.319 78.6899ZM140.709 91.8399L136.319 109.59C136.041 110.613 135.903 111.669 135.909 112.73V113.73C135.902 114.419 135.624 115.077 135.136 115.563C134.647 116.049 133.988 116.325 133.299 116.33H107.179C106.492 116.32 105.836 116.043 105.349 115.558C104.862 115.073 104.582 114.417 104.569 113.73C104.601 112.965 104.476 112.203 104.201 111.489C103.925 110.775 103.506 110.125 102.969 109.58L90.3093 97.5799C89.8552 97.1505 89.4941 96.6326 89.2481 96.0581C89.0021 95.4836 88.8767 94.8648 88.8793 94.2399V85.1299C88.8827 84.2241 89.1546 83.3397 89.6606 82.5884C90.1666 81.8372 90.8839 81.2528 91.722 80.9092C92.5601 80.5656 93.4812 80.4782 94.369 80.6581C95.2567 80.838 96.0711 81.2771 96.7093 81.9199C97.136 82.3594 97.4715 82.8791 97.6963 83.4489C97.9212 84.0187 98.031 84.6274 98.0193 85.2399V92.2399L99.3193 93.4599V76.0099C99.3233 75.9366 99.3233 75.8631 99.3193 75.7899V44.9799C99.3041 43.97 99.6202 42.983 100.219 42.1699C100.352 41.9852 100.499 41.8114 100.659 41.6499C101.432 40.8577 102.474 40.3862 103.579 40.3299H104.199C105.304 40.3862 106.347 40.8577 107.119 41.6499C107.276 41.8115 107.42 41.9854 107.549 42.1699C108.151 42.9821 108.471 43.969 108.459 44.9799V63.2499V79.9099H109.769V74.7099C109.769 74.0249 109.904 73.3466 110.167 72.7138C110.429 72.081 110.814 71.5063 111.299 71.0223C111.784 70.5384 112.359 70.1549 112.992 69.8936C113.626 69.6324 114.304 69.4986 114.989 69.4999C115.165 69.4771 115.343 69.4771 115.519 69.4999C116.171 69.5524 116.806 69.7363 117.385 70.0405C117.964 70.3446 118.476 70.7628 118.889 71.2699C119.765 72.2783 120.239 73.5743 120.219 74.9099V79.9099H121.519V74.6899C121.525 73.4821 122.007 72.3253 122.861 71.4713C123.715 70.6173 124.872 70.1351 126.079 70.1299C126.394 70.137 126.708 70.1637 127.019 70.2099C128.065 70.4217 128.997 71.0085 129.639 71.8599C130.309 72.7143 130.663 73.7744 130.639 74.8599V79.9399H131.949V78.6299C131.957 77.4229 132.44 76.2677 133.294 75.4142C134.147 74.5607 135.302 74.0777 136.509 74.0699C137.119 74.0533 137.726 74.1659 138.29 74.4003C138.853 74.6347 139.361 74.9855 139.779 75.4299C140.208 75.8681 140.545 76.3875 140.769 76.9576C140.994 77.5278 141.103 78.1371 141.089 78.7499V88.7499C141.101 89.7922 140.973 90.8314 140.709 91.8399Z" fill="#0056B2"/>
</svg>
