<?xml version="1.0" encoding="utf-8"?>
<!-- Generator: Adobe Illustrator 15.1.0, SVG Export Plug-In  -->
<!DOCTYPE svg PUBLIC "-//W3C//DTD SVG 1.1//EN" "http://www.w3.org/Graphics/SVG/1.1/DTD/svg11.dtd" [
	<!ENTITY ns_flows "http://ns.adobe.com/Flows/1.0/">
]>
<svg version="1.1"
	 xmlns="http://www.w3.org/2000/svg" xmlns:xlink="http://www.w3.org/1999/xlink" xmlns:a="http://ns.adobe.com/AdobeSVGViewerExtensions/3.0/"
	 x="0px" y="0px" width="16px" height="16px" viewBox="0 0 16 16" style="overflow:visible;enable-background:new 0 0 16 16;"
	 xml:space="preserve" preserveAspectRatio="xMinYMid meet">
<defs>
</defs>
<path style="fill:#989898;" d="M8,0C3.6,0,0,3.6,0,8c0,4.4,3.6,8,8,8c4.4,0,8-3.6,8-8C16,3.6,12.4,0,8,0z M8,15c-3.9,0-7-3.1-7-7
	s3.1-7,7-7s7,3.1,7,7S11.9,15,8,15z M8.2,9.6l-2.7,2.7C4.9,12,4.4,11.5,4,11l2.8-2.8l-3-3c0.4-0.6,0.9-1,1.4-1.4l3,3L11,4
	c0.5,0.4,1,0.9,1.3,1.5L9.6,8.2l2.5,2.5c-0.4,0.6-0.9,1-1.4,1.4L8.2,9.6z"/>
</svg>
