<?xml version="1.0" encoding="utf-8"?>
<!-- Generator: Adobe Illustrator 15.1.0, SVG Export Plug-In  -->
<!DOCTYPE svg PUBLIC "-//W3C//DTD SVG 1.1//EN" "http://www.w3.org/Graphics/SVG/1.1/DTD/svg11.dtd" [
	<!ENTITY ns_flows "http://ns.adobe.com/Flows/1.0/">
]>
<svg version="1.1"
	 xmlns="http://www.w3.org/2000/svg" xmlns:xlink="http://www.w3.org/1999/xlink" xmlns:a="http://ns.adobe.com/AdobeSVGViewerExtensions/3.0/"
	 x="0px" y="0px" width="16px" height="16px" viewBox="0 0 16 16" style="overflow:visible;enable-background:new 0 0 16 16;"
	 xml:space="preserve" preserveAspectRatio="xMinYMid meet">
<defs>
</defs>
<path style="fill:#999999;" d="M15.9,12.9L15.9,12.9L11,8l4.9-4.9C15.9,3.1,15.9,3,16,3c0.1-0.2,0-0.4-0.1-0.5l-2.3-2.3
	C13.4,0,13.2,0,13,0c-0.1,0-0.1,0.1-0.2,0.1L8,5L3.1,0.1C3.1,0.1,3,0.1,3,0C2.8,0,2.6,0,2.4,0.1L0.1,2.4C0,2.6,0,2.8,0,3
	c0,0.1,0.1,0.1,0.1,0.2L5,8l-4.9,4.9C0.1,12.9,0.1,13,0,13c-0.1,0.2,0,0.4,0.1,0.5l2.3,2.3C2.6,16,2.8,16,3,16
	c0.1,0,0.1-0.1,0.2-0.1L8,11l4.9,4.9c0.1,0.1,0.1,0.1,0.2,0.1c0.2,0.1,0.4,0,0.5-0.1l2.3-2.3C16,13.4,16,13.2,16,13
	C15.9,13,15.9,12.9,15.9,12.9"/>
</svg>
