<svg width="24" height="24" viewBox="0 0 24 24" fill="none" xmlns="http://www.w3.org/2000/svg">
<path fill-rule="evenodd" clip-rule="evenodd" d="M4 22H20V8H14.8C14.3582 8 14 7.64183 14 7.2V2L4 2V22ZM4 0C2.89543 0 2 0.89543 2 2V22C2 23.1046 2.89543 24 4 24H20C21.1046 24 22 23.1046 22 22V6.85244C22 6.30785 21.7779 5.78681 21.3851 5.40966L16.3304 0.557225C15.958 0.199667 15.4617 0 14.9454 0H4ZM14.5373 13.573L11.0439 15.7322C10.7239 15.93 10.3024 15.8338 10.1024 15.5174C10.0345 15.41 9.99854 15.2859 9.99854 15.1593V10.8407C9.99854 10.4675 10.3044 10.165 10.6818 10.165C10.8098 10.165 10.9353 10.2006 11.0439 10.2677L14.5373 12.427C14.8573 12.6248 14.9546 13.0417 14.7546 13.3581C14.6996 13.4451 14.6253 13.5186 14.5373 13.573Z" fill="white"/>
</svg>
