<svg xmlns="http://www.w3.org/2000/svg" width="24" height="24" viewBox="0 0 24 24" preserveAspectRatio="xMinYMid meet" overflow="visible"><style>.st0,.st1,.st2,.st3,.st4{fill:url(#SVGID_1_);stroke:#000;stroke-width:.75;stroke-miterlimit:10}.st1,.st2,.st3,.st4{fill:none}.st2,.st3,.st4{fill:url(#SVGID_2_)}.st3,.st4{fill:url(#SVGID_3_)}.st4{fill:#fcc619;stroke-width:.4675}.st5{fill:url(#SVGID_4_)}.st6{fill:url(#SVGID_5_)}.st7{fill:url(#SVGID_6_)}</style><g id="Ebene_3"><linearGradient id="SVGID_1_" gradientUnits="userSpaceOnUse" x1="12.5" y1="1.667" x2="12.5" y2="20.917"><stop offset="0" stop-color="#95bff8"/><stop offset=".557" stop-color="#84adef"/><stop offset="1" stop-color="#7ca4eb"/></linearGradient><path class="st0" d="M4.8 1.7h15.3v19.2H4.8z"/><path class="st1" d="M8.5 6.4h7.6M8.5 13.8h7.6"/><linearGradient id="SVGID_2_" gradientUnits="userSpaceOnUse" x1="8.473" y1="10.027" x2="16.14" y2="10.027"><stop offset="0" stop-color="#95bff8"/><stop offset=".557" stop-color="#84adef"/><stop offset="1" stop-color="#7ca4eb"/></linearGradient><path class="st2" d="M8.5 10h7.6"/><linearGradient id="SVGID_3_" gradientUnits="userSpaceOnUse" x1="17.167" y1="19" x2="22.833" y2="19"><stop offset="0" stop-color="#95bff8"/><stop offset=".557" stop-color="#84adef"/><stop offset="1" stop-color="#7ca4eb"/></linearGradient><circle class="st3" cx="20" cy="19" r="2.8"/><path class="st4" d="M21.5 18.9l-2.3 1.4v-2.8z"/></g><g id="Ebene_1"><linearGradient id="SVGID_4_" gradientUnits="userSpaceOnUse" x1="6.586" y1="6.562" x2="6.586" y2=".106" gradientTransform="matrix(1 0 0 -1 0 24)"><stop offset="0" stop-color="#dda976"/><stop offset="1" stop-color="#9f6b37"/></linearGradient><path class="st5" d="M5.5 21.1c-.2-1.2 5.2.3 5.1-.8 0-.4-4.6-1.9-6.3-2.3-.5-.1-3.6-.7-3.6-.7-.1.1-.7 1.8-.8 2.9.3.2 4 3.7 5.5 3.6 1.5-.1 7.8-2 7.7-2.6-.3-1-7.4 1.3-7.6-.1z"/><linearGradient id="SVGID_5_" gradientUnits="userSpaceOnUse" x1="6.309" y1="5.949" x2="6.309" y2=".63" gradientTransform="matrix(1 0 0 -1 0 24)"><stop offset="0" stop-color="#fda"/><stop offset="1" stop-color="#e3b17e"/></linearGradient><path class="st6" d="M.9 20.3c-.2-.1-.3-.2-.4-.3.1-.7.3-1.5.5-2 1 .2 2.8.5 3.1.6 1.4.3 5.2 1.3 5.3 1.7.3.6-4.6-1-4.5.9.1 1.9 6.8-.3 7 .3.1.4-5.6 2-6.6 1.9-.9-.1-3.5-2.3-4.4-3.1z"/><linearGradient id="SVGID_6_" gradientUnits="userSpaceOnUse" x1="4.242" y1="5.324" x2="4.242" y2="1.181" gradientTransform="matrix(1 0 0 -1 0 24)"><stop offset="0" stop-color="#f1c592"/><stop offset="1" stop-color="#e1af7c"/></linearGradient><path class="st7" d="M5.6 22.8c-.4-.1-1.5-.6-4.2-2.9l-.2-.2.3-1.2c1.2.2 2.4.4 2.6.5.8.2 1.5.4 2.1.5-.6.1-1 .2-1.3.6-.2.2-.4.5-.3 1 .1.6.4 1.3 2.2 1.3h.5c-.8.3-1.4.4-1.7.4z"/></g></svg>