<svg width="24" height="24" viewBox="0 0 24 24" fill="none" xmlns="http://www.w3.org/2000/svg">
<path fill-rule="evenodd" clip-rule="evenodd" d="M6 21H18C18.5523 21 19 20.5523 19 20V8H15.5C14.6716 8 14 7.32843 14 6.5V3H6C5.44772 3 5 3.44772 5 4V20C5 20.5523 5.44772 21 6 21ZM15 3.41421V6.5C15 6.77614 15.2239 7 15.5 7H18.5858L15 3.41421ZM6 2C4.89543 2 4 2.89543 4 4V20C4 21.1046 4.89543 22 6 22H18C19.1046 22 20 21.1046 20 20V7.82843C20 7.29799 19.7893 6.78929 19.4142 6.41421L15.5858 2.58579C15.2107 2.21071 14.702 2 14.1716 2H6ZM10.75 14.6651L13.75 12.933C14.0833 12.7406 14.0833 12.2594 13.75 12.067L10.75 10.3349C10.4167 10.1425 10 10.3831 10 10.768V14.2321C10 14.617 10.4167 14.8575 10.75 14.6651ZM14.25 13.799C15.25 13.2217 15.25 11.7783 14.25 11.201L11.25 9.46892C10.25 8.89157 9 9.61326 9 10.768V14.2321C9 15.3868 10.25 16.1084 11.25 15.5311L14.25 13.799Z" fill="#212529"/>
</svg>
