<svg width="24" height="24" fill="none" xmlns="http://www.w3.org/2000/svg" preserveAspectRatio="xMinYMid meet" viewBox="0 0 24 24"><defs><style>.cls-1{fill:#000;stroke-width:0}</style></defs><path class="cls-1" d="M6.3 9.7c-.8.4-.8 1.5 0 1.9.7.4 1.5-.1 1.5-.9S7 9.4 6.3 9.8z" vector-effect="non-scaling-stroke" id="Ou2ZgRUBgtCFkza1qodlw"/><path class="cls-1" d="M18.4 10.3c.5.2.6.5.6 1.7s0 .9-.1 1.1c-.1.3-.3.5-.6.6h-7.6l-.2-.2c-.1 0-.3-.2-.4-.4-.1-.2-.1-.3-.1-1.2s0-1 .1-1.2c0-.1.2-.3.4-.4h.2c0-.1 3.8-.1 3.8-.1h4zM11.3 12v.4h2.1v-.7h-2.1v.4z" vector-effect="non-scaling-stroke" id="p4ujW3vLAS7ZoG7vRM-bz"/><path class="cls-1" d="M6 12.4c-.4.1-.7.4-.9.8-.2.5-.1 1 .2 1.1.3.1 2.5.1 2.8 0 .6-.3.4-1.4-.4-1.9-.2-.1-.4-.1-.9-.1H6z" vector-effect="non-scaling-stroke" id="FuzsSgcA7Xpin4MYUHzHr"/><path class="cls-1" d="M6.3 15.7c-.8.4-.8 1.5 0 1.9.7.4 1.5-.1 1.5-.9s-.8-1.3-1.5-.9z" vector-effect="non-scaling-stroke" id="FFUJJN9ATDirxHe2QkhOo"/><path class="cls-1" d="M10.5 16.4c-.5.2-.6.5-.6 1.7s0 .9.1 1.1c.1.3.3.5.6.6h7.6l.2-.2c.4-.3.5-.5.5-1.6s0-1.3-.5-1.6l-.2-.2h-7.8zm7.2 1.6v.4h-4.9v-.7h4.9v.4z" vector-effect="non-scaling-stroke" id="_-UspU2Qxcu1Kd-EpGp_uk" data-name="-UspU2Qxcu1Kd-EpGp_uk"/><path class="cls-1" d="M6 18.4c-.8.3-1.3 1.1-1 1.7.2.3.3.4 1.6.4H8c.2 0 .4-.4.4-.6s-.2-.8-.4-1c-.4-.3-.5-.4-1.2-.4H6z" vector-effect="non-scaling-stroke" id="xV3WOd7f1z-KA16tqkNHq"/><path class="cls-1" d="M6.3 3.6c-.8.4-.8 1.5 0 1.9.7.4 1.5-.1 1.5-.9S7 3.3 6.3 3.7z" vector-effect="non-scaling-stroke" id="IOAgxWfvRhiytB1k7_Vm7" data-name="IOAgxWfvRhiytB1k7 Vm7"/><path class="cls-1" d="M10.5 4.3c-.5.2-.6.5-.6 1.7s0 .9.1 1.1c.1.3.3.5.6.6h7.6l.2-.2c.1 0 .3-.2.4-.4.1-.2.1-.3.1-1.2s0-1-.1-1.2c0-.1-.2-.3-.4-.4h-.2c0-.1-3.8-.1-3.8-.1h-4zM17.7 6v.4h-2.1v-.7h2.1v.4z" vector-effect="non-scaling-stroke" id="ZGMh4VSEmoLMfr9qNbW3Z"/><path class="cls-1" d="M6 6.4c-.4.1-.7.4-.9.8-.2.5-.1 1 .2 1.1.3.1 2.5.1 2.8 0 .6-.3.4-1.4-.4-1.9-.2-.1-.4-.1-.9-.1H6z" vector-effect="non-scaling-stroke"/></svg>
