<?xml version="1.0" encoding="utf-8"?>
<!-- Generator: Adobe Illustrator 25.2.1, SVG Export Plug-In . SVG Version: 6.00 Build 0)  -->
<svg width="24px" height="24px" version="1.1" id="Layer_1" xmlns="http://www.w3.org/2000/svg" xmlns:xlink="http://www.w3.org/1999/xlink" x="0px" y="0px"
	 viewBox="0 0 74.4 74.4" style="enable-background:new 0 0 74.4 74.4;" xml:space="preserve" preserveAspectRatio="xMinYMid meet">
<path d="M71.6,6.9L57,0.5c-3.8-1.8-7.7,2.3-6.1,6.1l1.4,3.4c-6.4,2.3-11.5,4.4-15.1,7.6c-3.7-3.2-8.8-5.1-15.1-7.3l1.4-3.7
	c1.6-3.8-2.3-7.9-6.1-6.1L2.8,6.9C0.5,8-0.6,10.7,0.4,13.1l6.2,15.1c0.9,2.3,3.6,3.6,5.9,2.7c1.3-0.5,2.2-1.4,2.7-2.7l1.4-3.6
	l8.6,3.8c2.7,1,4.4,3.6,4.2,6.4c0,4.1,0,34.3,0,36.3c0,1.9,1.5,3.4,3.4,3.5h0.9h7.9c1.9,0,3.5-1.6,3.5-3.4v-0.5c0-1.8,0-31.5,0-35.7
	c-0.2-2.8,0.5-5.4,3.2-6.4l9.5-3.8l1.4,3.6c0.9,2.3,3.6,3.6,5.9,2.7c1.2-0.4,2.2-1.4,2.6-2.6l6.2-15.1C75.1,10.6,74,7.9,71.6,6.9z
	 M39.9,69.2h-5.3c0-2.1,0-36,0-36c-0.2-2.3-1-4.5-2.4-6.4c-1-1.3-2.7-2.4-3.8-2.9l-14.5-6.3L12,22.3c-0.2,0.5-1.1,0.9-1.6,0.7l0,0
	c0,0-0.4-0.3-0.5-0.6L5.6,12.3c-0.3-0.5,0-1.2,0.5-1.4c0.8-0.2,11.1-5,11.1-3.6c0.3,0.3,0.4,0.8,0.3,1.2l-1.9,4.7
	c7,3,16.9,5.8,19.7,9c0.8,0.8,1.7,1.6,2.3,2.5c2,2.8,2.6,5.4,2.6,8.7L39.9,69.2z M68.8,13.2l-3.9,9.2c-0.1,0.3-0.3,0.4-0.5,0.6
	c-0.5,0.2-1-0.1-1.2-0.6l0,0l-2.4-5l-13.6,5.9c-1.5,0.7-2.3,1.2-3.3,2.5c-0.7-2.7-1.2-2.5-2.9-4.7c4.4-3.7,11.1-5,18.2-8l-2-4.9
	C57,7.8,57.1,7.4,57.5,7c0-1.3,10.5,4.5,10.9,4.4c0.3,0.3,0.5,0.8,0.4,1.4V13.2z"/>
</svg>
