<svg width="24" height="24" viewBox="0 0 24 24" fill="none" xmlns="http://www.w3.org/2000/svg" preserveAspectRatio="xMinYMid meet">
<path fill-rule="evenodd" clip-rule="evenodd" d="M6.64999 3.14337C6.79305 3.00054 7.00805 2.95791 7.19478 3.03535C7.38152 3.11278 7.50325 3.29505 7.50325 3.49721V4.49723C9.24865 4.50145 10.8331 5.19273 11.9998 6.31366C13.167 5.19219 14.7511 4.50145 16.4964 4.49723V3.49721C16.4964 3.29505 16.6182 3.11278 16.8049 3.03535C16.9916 2.95791 17.2066 3.00054 17.3497 3.14337L20.8569 6.64482C20.9508 6.73861 21.0036 6.86591 21.0036 6.99866C21.0036 7.13141 20.9508 7.25871 20.8569 7.3525L17.3497 10.854C17.2066 10.9968 16.9916 11.0394 16.8049 10.962C16.6182 10.8845 16.4964 10.7023 16.4964 10.5001V8.4959C15.1202 8.51134 14.0091 9.63243 14.0091 11.0126V19.0253C13.9941 20.12 13.1018 21.0028 12.0035 21.0028C10.9052 21.0028 10.0131 20.12 9.99807 19.0253L9.99788 11.0126H9.99058C9.99058 9.63243 8.87945 8.51134 7.50325 8.4959V10.5001C7.50325 10.7023 7.38152 10.8845 7.19478 10.962C7.00805 11.0394 6.79305 10.9968 6.64999 10.854L3.14283 7.3525C3.04888 7.25871 2.99609 7.13141 2.99609 6.99866C2.99609 6.86591 3.04888 6.73861 3.14283 6.64482L6.64999 3.14337ZM10.3284 8.95812C10.5579 8.26681 10.9001 7.62687 11.3332 7.0601C10.349 6.1018 9.0093 5.50882 7.53076 5.49738C7.52423 5.49763 7.51767 5.49776 7.51108 5.49776H7.00325C6.72711 5.49776 6.50325 5.2739 6.50325 4.99776V4.70293L4.20378 6.99866L6.50325 9.2944V7.9935C6.50325 7.71735 6.72711 7.4935 7.00325 7.4935H7.48716C7.50534 7.4935 7.5233 7.49447 7.54098 7.49636C8.68879 7.51766 9.70204 8.0892 10.3284 8.95812ZM10.9979 11.0126C10.9979 7.98141 13.4434 5.52083 16.4689 5.49738C16.4754 5.49763 16.482 5.49776 16.4886 5.49776H16.9964C17.2726 5.49776 17.4964 5.2739 17.4964 4.99776V4.70293L19.7959 6.99866L17.4964 9.2944V7.9935C17.4964 7.71735 17.2726 7.4935 16.9964 7.4935H16.5125C16.4943 7.4935 16.4764 7.49447 16.4587 7.49636C14.5473 7.53184 13.0091 9.09307 13.0091 11.0126V18.9972C13.0091 19.5526 12.5589 20.0028 12.0035 20.0028C11.4481 20.0028 10.9979 19.5526 10.9979 18.9972V11.0126Z" fill="#212529"/>
</svg>
