<svg id="grid" xmlns="http://www.w3.org/2000/svg" width="16" height="16" viewBox="0 0 16 16" preserveAspectRatio="xMinYMid meet" overflow="visible"><style>.st0{fill:#1b4a97}.st1{fill:#da1f26}.st2{fill:#b1d238}.st3{fill:#009344}.st4{fill:#00abcc}.st5{fill:#06a885}.st6{fill:#fcd203}.st7{fill:#f8a61a}.st8{fill:#676767}</style><path class="st0" d="M7.9 11.3c-.4 0-.7.4-.7 1V15c0 .5.3 1 .7 1 .4 0 .7-.4.7-1v-2.7c.1-.6-.3-1-.7-1z"/><path class="st1" d="M7.9.1c-.4 0-.7.4-.7 1v2.8c0 .6.3 1 .7 1 .4 0 .7-.4.7-1V1.1c.1-.6-.3-1-.7-1z"/><path class="st2" d="M3.8 7.1H1.1c-.5 0-1 .3-1 .7 0 .4.4.7 1 .7h2.7c.5 0 1-.3 1-.7 0-.3-.5-.7-1-.7z"/><path class="st3" d="M14.7 7.1H12c-.5 0-1 .3-1 .7 0 .4.4.7 1 .7h2.7c.5 0 1-.3 1-.7 0-.3-.5-.7-1-.7z"/><path class="st4" d="M5.8 10.2c-.1-.1-.3-.2-.4-.2-.3 0-.5.1-.7.3l-1.9 1.9c-.2.2-.3.5-.3.7 0 .2.1.3.2.5.1.1.3.2.5.2.3 0 .5-.1.7-.3l1.9-1.9c.1-.2.2-.5.2-.7 0-.2 0-.4-.2-.5z"/><path class="st5" d="M13.5 2.5c-.1-.1-.3-.2-.5-.2-.3 0-.6.1-.7.3l-1.9 1.9c-.2.2-.3.5-.3.8 0 .2.1.3.2.5s.2.2.4.2c.3 0 .6-.1.7-.3l1.9-1.9c.2-.2.3-.5.3-.8.1-.2 0-.3-.1-.5z"/><path class="st6" d="M5.7 4.6L3.8 2.7c-.2-.2-.5-.3-.7-.4-.4 0-.7.3-.7.7 0 .3.1.6.3.7l1.9 1.9c.2.3.5.4.8.4.3 0 .6-.3.6-.6s-.1-.6-.3-.8z"/><path class="st7" d="M13.4 12.3l-1.9-1.9c-.3-.3-.5-.4-.8-.4-.3 0-.6.3-.6.6s.1.6.3.8l1.9 1.9c.2.2.5.3.7.3.3 0 .6-.3.6-.6.1-.3 0-.5-.2-.7z"/><path class="st8" d="M6.9 7.9c0-.6.5-1.1 1.1-1.1s1.1.5 1.1 1.1S8.6 9 8 9s-1.1-.5-1.1-1.1z"/></svg>