<!DOCTYPE svg PUBLIC "-//W3C//DTD SVG 1.1//EN" "http://www.w3.org/Graphics/SVG/1.1/DTD/svg11.dtd" [
	<!ENTITY ns_flows "http://ns.adobe.com/Flows/1.0/">
]><svg xmlns="http://www.w3.org/2000/svg" width="16" height="16" viewBox="0 0 16 16" preserveAspectRatio="xMinYMid meet" overflow="visible"><path d="M15 0h-14c-.5 0-1 .5-1 1v14c0 .5.5 1 1 1h14c.5 0 1-.5 1-1v-14c0-.5-.5-1-1-1zm-7 14h-6v-2h6v2zm0-3h-6v-2h6v2zm0-3h-6v-2h6v2zm3 6h-2v-2h2v2zm0-3h-2v-2h2v2zm0-3h-2v-2h2v2zm3 6h-2v-2h2v2zm0-3h-2v-2h2v2zm0-3h-2v-2h2v2z" fill="#999"/></svg>