<!DOCTYPE svg PUBLIC "-//W3C//DTD SVG 1.1//EN" "http://www.w3.org/Graphics/SVG/1.1/DTD/svg11.dtd" [
	<!ENTITY ns_flows "http://ns.adobe.com/Flows/1.0/">
]><svg xmlns="http://www.w3.org/2000/svg" width="16" height="16" viewBox="0 0 16 16" preserveAspectRatio="xMinYMid meet" overflow="visible"><path d="M3 16h-3v-4l3.2-1.7c.4-.3.6-.8.2-1.3 0 0-1.4-1.8-1.4-3.8 0-2.9 1.8-5.2 4-5.2.4 0 .7.1 1.1.2-1.2 1.1-2 3-2 5 0 1.7.6 2.7 1 3.5.6.9.1 1-.3 1.3l-2.8 1.4v4.6zm13-4.1l-3.1-1.6c-.5-.3-.6-.9-.3-1.3 0 0 1.4-1.8 1.4-3.8 0-2.9-1.8-5.2-4-5.2s-4 2.3-4 5.2c0 2 1.5 3.8 1.5 3.8.3.4.2 1-.3 1.3l-3.2 1.7v4h12v-4.1z" fill="#999"/></svg>