<!DOCTYPE svg PUBLIC "-//W3C//DTD SVG 1.1//EN" "http://www.w3.org/Graphics/SVG/1.1/DTD/svg11.dtd" [
	<!ENTITY ns_flows "http://ns.adobe.com/Flows/1.0/">
]><svg xmlns="http://www.w3.org/2000/svg" width="16" height="16" viewBox="-1.2 0 16 16" preserveAspectRatio="xMinYMid meet" overflow="visible" enable-background="new -1.2 0 16 16"><path d="M9.9 13.6l-6 .5s-.1-.5-.3-1l6.8-.5c-.2.2-.4.7-.5 1zm-5.7 1.4c.2.4.4.8.7.8 0 0 .7.2 2 .2l2-.2c.3 0 .6-.7.8-1.2l-5.5.4zm-4.2-8.2c0-3.7 3.1-6.8 6.8-6.8 3.8 0 6.8 3.1 6.8 6.8 0 1.8-1.3 3.6-2.3 4.6l-8.5.7c-.6-.6-2.8-3-2.8-5.3zm1.9.1c0 2 2.2 3.8 2.6 4.1h4.7c.3-.3 2.6-2 2.6-4.1 0-2.7-2.2-4.9-5-4.9-2.7 0-4.9 2.2-4.9 4.9zm5.1-3.8c-.6-.6-1.8-.4-2.7.5s-1.2 2.1-.6 2.7c.6.6 1.8.3 2.7-.6s1.2-2 .6-2.6z" fill="#999"/></svg>