<!DOCTYPE svg PUBLIC "-//W3C//DTD SVG 1.1//EN" "http://www.w3.org/Graphics/SVG/1.1/DTD/svg11.dtd" [
	<!ENTITY ns_flows "http://ns.adobe.com/Flows/1.0/">
]><svg xmlns="http://www.w3.org/2000/svg" width="16" height="16" viewBox="-2 -1 16 16" preserveAspectRatio="xMinYMid meet" overflow="visible" enable-background="new -2 -1 16 16"><path d="M12 11v2c0 1-2.7 1.9-6 1.9s-6-.8-6-1.9v-2c0 1 2.7 1.9 6 1.9s6-.8 6-1.9zm-6-1.1c-3.3 0-6-.8-6-1.9v2c0 1 2.7 1.9 6 1.9s6-.8 6-1.9v-2c0 1.1-2.7 1.9-6 1.9zm0-3c-3.3 0-6-.8-6-1.9v2c0 1 2.7 1.9 6 1.9s6-.8 6-1.9v-2c0 1.1-2.7 1.9-6 1.9zm6-5c0-1.1-2.7-1.9-6-1.9s-6 .8-6 1.9v2.1c0 1 2.7 1.9 6 1.9s6-.8 6-1.9v-2.1z" fill="#999"/></svg>