<!DOCTYPE svg PUBLIC "-//W3C//DTD SVG 1.1//EN" "http://www.w3.org/Graphics/SVG/1.1/DTD/svg11.dtd" [
	<!ENTITY ns_flows "http://ns.adobe.com/Flows/1.0/">
]><svg xmlns="http://www.w3.org/2000/svg" width="16" height="16" viewBox="-0.1 -0.1 16 16" preserveAspectRatio="xMinYMid meet" overflow="visible" enable-background="new -0.1 -0.1 16 16"><path d="M15.6 14.1l-6.8-13.4c-.5-1-1.3-1-1.8 0l-6.8 13.4c-.5 1 0 1.8 1.1 1.8h13.2c1.1 0 1.6-.8 1.1-1.8zm-7.3-7.6c.6-.6 1.5-.6 2.1 0s.6 1.5 0 2.1l-1 1-2.1-2.1 1-1zm-3.3 7.4h-2.1v-2.1l3.6-3.6 2.1 2.1-3.6 3.6zm6.9 0h-5v-1h5v1z" fill="#FFB844"/></svg>