<!DOCTYPE svg PUBLIC "-//W3C//DTD SVG 1.1//EN" "http://www.w3.org/Graphics/SVG/1.1/DTD/svg11.dtd" [
	<!ENTITY ns_flows "http://ns.adobe.com/Flows/1.0/">
]><svg xmlns="http://www.w3.org/2000/svg" width="16" height="16" viewBox="-0.1 -0.2 16 16" preserveAspectRatio="xMinYMid meet" overflow="visible" enable-background="new -0.1 -0.2 16 16"><path d="M7 .7l-6.8 13.4c-.5 1 0 1.8 1.1 1.8h13.2c1.1 0 1.6-.8 1.1-1.8l-6.8-13.4c-.5-.9-1.3-.9-1.8 0zm4.9 8.7h-.5l-1 5.5h-5l-1-5.5h-.5v-1h.3v-.1s.8-.7 2.5-1v-.4c0-.5.5-1 1-1h.5c.5 0 1 .5 1 1v.4c1.7.3 2.5 1 2.5 1v.1h.3v1zm-4.5 0v4.5h-1v-4.5h1zm1 0h1v4.5h-1v-4.5zm-.5-2.3h-.5v-.1c0-.3.2-.5.5-.5s.5.2.5.5v.1h-.5z" fill="#CC6AFF"/></svg>