<svg width="199" height="160" viewBox="0 0 199 160" fill="none" xmlns="http://www.w3.org/2000/svg" preserveAspectRatio="xMinYMid meet">
<path d="M79.9595 159.919C124.12 159.919 159.919 124.12 159.919 79.9595C159.919 35.7991 124.12 0 79.9595 0C35.7991 0 0 35.7991 0 79.9595C0 124.12 35.7991 159.919 79.9595 159.919Z" fill="#C4E5FF"/>
<path fill-rule="evenodd" clip-rule="evenodd" d="M40.4023 79.9605C40.4023 60.3079 56.3353 44.375 75.9879 44.375H152.235C152.988 44.375 153.599 44.9855 153.599 45.7387C153.599 46.4918 152.988 47.1023 152.235 47.1023H75.9879C57.8415 47.1023 43.1297 61.8141 43.1297 79.9605C43.1297 98.1069 57.8415 112.819 75.9879 112.819H150.697C151.451 112.819 152.061 113.429 152.061 114.182C152.061 114.936 151.451 115.546 150.697 115.546H75.9879C56.3353 115.546 40.4023 99.6132 40.4023 79.9605Z" fill="#0056B2"/>
<path d="M93.6671 96.8464L90.3093 87.5054H77.4472L74.157 96.8464H68.3594L80.9448 63.0703H86.9264L99.5118 96.8464H93.6671ZM88.8599 82.7643L85.708 73.6075C85.477 72.9939 85.1591 72.0285 84.753 70.7086C84.3454 69.3887 84.0658 68.4234 83.9128 67.8098C83.4993 69.6963 82.8916 71.7593 82.0941 73.9989L79.0569 82.7659H88.8599V82.7643Z" fill="#0056B2"/>
<path fill-rule="evenodd" clip-rule="evenodd" d="M99.2256 56.5078C99.5681 56.5078 99.8458 56.7855 99.8458 57.128V102.792C99.8458 103.134 99.5681 103.412 99.2256 103.412C98.8831 103.412 98.6055 103.134 98.6055 102.792V57.128C98.6055 56.7855 98.8831 56.5078 99.2256 56.5078Z" fill="#0056B2"/>
<path d="M114.109 14.8828H198.964V89.4803H114.109V14.8828Z"/>
<path d="M193.127 31.3248C193.112 31.3042 193.043 31.21 193.028 31.1908L184.651 20.3226C184.645 20.3152 184.641 20.3078 184.635 20.3019C182.902 18.0447 180.503 16.6571 177.701 16.2877C174.839 15.9096 172.158 16.6484 169.979 18.3965L162.295 24.2558C161.774 24.6531 161.34 25.1387 161.009 25.689C160.397 25.8641 159.82 26.1554 159.304 26.5497L120.586 56.2588C119.499 57.0946 118.802 58.3011 118.623 59.6578L116.371 76.7652C116.001 79.5684 117.982 82.1493 120.787 82.5201L137.894 84.773C138.12 84.8024 138.347 84.817 138.572 84.817C139.695 84.817 140.779 84.4506 141.684 83.7561L180.403 54.0471L180.405 54.0457C180.92 53.6498 181.349 53.1688 181.677 52.6229C182.289 52.4463 182.865 52.1563 183.383 51.7605L191.107 45.8335C193.336 44.1236 194.71 41.7368 195.079 38.9322C195.437 36.2085 194.757 33.5718 193.127 31.3248Z" fill="white"/>
<path d="M137.077 74.1373L141.312 70.8869L132.92 59.9509L128.685 63.1999L128.106 67.601L133.369 68.294L132.676 73.5575L137.077 74.1373ZM163.608 38.8074C163.687 38.204 163.425 37.8626 162.822 37.7831C162.548 37.7464 162.302 37.8127 162.085 37.9789L136.862 57.3331C136.645 57.5008 136.518 57.72 136.481 57.9937C136.402 58.597 136.664 58.9385 137.267 59.0179C137.541 59.0547 137.786 58.9884 138.004 58.8221L163.227 39.468C163.444 39.3017 163.571 39.081 163.608 38.8074ZM162.426 30.6185L177.281 49.9772L138.563 79.6876L121.456 77.4348L123.707 60.3276L162.426 30.6185ZM189.993 38.2643C189.801 39.7167 189.132 40.8851 187.984 41.765L180.259 47.6935L165.404 28.3348L173.124 22.4489C174.248 21.5366 175.55 21.1791 177.03 21.3734C178.483 21.5647 179.661 22.2488 180.566 23.429L188.964 34.3238C189.838 35.5245 190.181 36.8385 189.993 38.2643Z" fill="#0056B2"/>
</svg>
