<?xml version="1.0" encoding="utf-8"?>
<!-- Generator: Adobe Illustrator 15.1.0, SVG Export Plug-In  -->
<!DOCTYPE svg PUBLIC "-//W3C//DTD SVG 1.1//EN" "http://www.w3.org/Graphics/SVG/1.1/DTD/svg11.dtd" [
	<!ENTITY ns_flows "http://ns.adobe.com/Flows/1.0/">
]>
<svg version="1.1"
	 xmlns="http://www.w3.org/2000/svg" xmlns:xlink="http://www.w3.org/1999/xlink" xmlns:a="http://ns.adobe.com/AdobeSVGViewerExtensions/3.0/"
	 x="0px" y="0px" width="24px" height="24px" viewBox="-2 -1 24 24" style="overflow:visible;enable-background:new -2 -1 24 24;"
	 xml:space="preserve" preserveAspectRatio="xMinYMid meet">
<defs>
</defs>
<radialGradient id="SVGID_1_" cx="10" cy="19.5" r="7.4917" gradientUnits="userSpaceOnUse">
	<stop  offset="0" style="stop-color:#76A1F0"/>
	<stop  offset="1" style="stop-color:#6B90D5"/>
	<a:midPointStop  offset="0" style="stop-color:#76A1F0"/>
	<a:midPointStop  offset="0.5" style="stop-color:#76A1F0"/>
	<a:midPointStop  offset="1" style="stop-color:#6B90D5"/>
</radialGradient>
<path style="fill:url(#SVGID_1_);" d="M20,21c0,1.1-0.9,2-2,2H2c-1.1,0-2-0.9-2-2v-3c0-1.1,0.9-2,2-2h16c1.1,0,2,0.9,2,2V21z"/>
<radialGradient id="SVGID_2_" cx="10" cy="19.5" r="6.6049" gradientUnits="userSpaceOnUse">
	<stop  offset="0" style="stop-color:#BBE0F7"/>
	<stop  offset="1" style="stop-color:#82B4FB"/>
	<a:midPointStop  offset="0" style="stop-color:#BBE0F7"/>
	<a:midPointStop  offset="0.5" style="stop-color:#BBE0F7"/>
	<a:midPointStop  offset="1" style="stop-color:#82B4FB"/>
</radialGradient>
<path style="fill:url(#SVGID_2_);" d="M2,22c-0.6,0-1-0.4-1-1v-3c0-0.6,0.4-1,1-1h16c0.6,0,1,0.4,1,1v3c0,0.6-0.4,1-1,1H2z"/>
<radialGradient id="SVGID_3_" cx="10" cy="19.5" r="5.7554" gradientUnits="userSpaceOnUse">
	<stop  offset="0" style="stop-color:#95BFF8"/>
	<stop  offset="0.5569" style="stop-color:#84ADEF"/>
	<stop  offset="1" style="stop-color:#7CA4EB"/>
	<a:midPointStop  offset="0" style="stop-color:#95BFF8"/>
	<a:midPointStop  offset="0.4" style="stop-color:#95BFF8"/>
	<a:midPointStop  offset="1" style="stop-color:#7CA4EB"/>
</radialGradient>
<rect x="2" y="18" style="fill:url(#SVGID_3_);" width="16" height="3"/>
<radialGradient id="SVGID_4_" cx="10" cy="11.5" r="7.4917" gradientUnits="userSpaceOnUse">
	<stop  offset="0" style="stop-color:#76A1F0"/>
	<stop  offset="1" style="stop-color:#6B90D5"/>
	<a:midPointStop  offset="0" style="stop-color:#76A1F0"/>
	<a:midPointStop  offset="0.5" style="stop-color:#76A1F0"/>
	<a:midPointStop  offset="1" style="stop-color:#6B90D5"/>
</radialGradient>
<path style="fill:url(#SVGID_4_);" d="M20,13c0,1.1-0.9,2-2,2H2c-1.1,0-2-0.9-2-2v-3c0-1.1,0.9-2,2-2h16c1.1,0,2,0.9,2,2V13z"/>
<radialGradient id="SVGID_5_" cx="10" cy="11.5" r="6.6049" gradientUnits="userSpaceOnUse">
	<stop  offset="0" style="stop-color:#BBE0F7"/>
	<stop  offset="1" style="stop-color:#82B4FB"/>
	<a:midPointStop  offset="0" style="stop-color:#BBE0F7"/>
	<a:midPointStop  offset="0.5" style="stop-color:#BBE0F7"/>
	<a:midPointStop  offset="1" style="stop-color:#82B4FB"/>
</radialGradient>
<path style="fill:url(#SVGID_5_);" d="M2,14c-0.6,0-1-0.4-1-1v-3c0-0.6,0.4-1,1-1h16c0.6,0,1,0.4,1,1v3c0,0.6-0.4,1-1,1H2z"/>
<radialGradient id="SVGID_6_" cx="10" cy="11.5" r="5.7554" gradientUnits="userSpaceOnUse">
	<stop  offset="0" style="stop-color:#95BFF8"/>
	<stop  offset="0.5569" style="stop-color:#84ADEF"/>
	<stop  offset="1" style="stop-color:#7CA4EB"/>
	<a:midPointStop  offset="0" style="stop-color:#95BFF8"/>
	<a:midPointStop  offset="0.4" style="stop-color:#95BFF8"/>
	<a:midPointStop  offset="1" style="stop-color:#7CA4EB"/>
</radialGradient>
<rect x="2" y="10" style="fill:url(#SVGID_6_);" width="16" height="3"/>
<radialGradient id="SVGID_7_" cx="10" cy="3.5" r="7.4917" gradientUnits="userSpaceOnUse">
	<stop  offset="0" style="stop-color:#76A1F0"/>
	<stop  offset="1" style="stop-color:#6B90D5"/>
	<a:midPointStop  offset="0" style="stop-color:#76A1F0"/>
	<a:midPointStop  offset="0.5" style="stop-color:#76A1F0"/>
	<a:midPointStop  offset="1" style="stop-color:#6B90D5"/>
</radialGradient>
<path style="fill:url(#SVGID_7_);" d="M20,5c0,1.1-0.9,2-2,2H2C0.9,7,0,6.1,0,5V2c0-1.1,0.9-2,2-2h16c1.1,0,2,0.9,2,2V5z"/>
<radialGradient id="SVGID_8_" cx="10" cy="3.5" r="6.6049" gradientUnits="userSpaceOnUse">
	<stop  offset="0" style="stop-color:#BBE0F7"/>
	<stop  offset="1" style="stop-color:#82B4FB"/>
	<a:midPointStop  offset="0" style="stop-color:#BBE0F7"/>
	<a:midPointStop  offset="0.5" style="stop-color:#BBE0F7"/>
	<a:midPointStop  offset="1" style="stop-color:#82B4FB"/>
</radialGradient>
<path style="fill:url(#SVGID_8_);" d="M2,6C1.4,6,1,5.6,1,5V2c0-0.6,0.4-1,1-1h16c0.6,0,1,0.4,1,1v3c0,0.6-0.4,1-1,1H2z"/>
<radialGradient id="SVGID_9_" cx="10" cy="3.5" r="5.7554" gradientUnits="userSpaceOnUse">
	<stop  offset="0" style="stop-color:#95BFF8"/>
	<stop  offset="0.5569" style="stop-color:#84ADEF"/>
	<stop  offset="1" style="stop-color:#7CA4EB"/>
	<a:midPointStop  offset="0" style="stop-color:#95BFF8"/>
	<a:midPointStop  offset="0.4" style="stop-color:#95BFF8"/>
	<a:midPointStop  offset="1" style="stop-color:#7CA4EB"/>
</radialGradient>
<rect x="2" y="2" style="fill:url(#SVGID_9_);" width="16" height="3"/>
</svg>
