<?xml version="1.0" encoding="utf-8"?>
<!-- Generator: Adobe Illustrator 25.2.1, SVG Export Plug-In . SVG Version: 6.00 Build 0)  -->
<svg width="24px" height="24px" version="1.1" id="Layer_1" xmlns="http://www.w3.org/2000/svg" xmlns:xlink="http://www.w3.org/1999/xlink" x="0px" y="0px"
	 viewBox="0 0 74.4 74.4" style="enable-background:new 0 0 74.4 74.4;" xml:space="preserve" preserveAspectRatio="xMinYMid meet">
<path d="M64.9,8.1c-2.1-1.5-4.5-2.6-6.9-3.2c-13.7-3.4-28-3.4-41.5,0C14,5.5,11.6,6.6,9.6,8.1C8,9.2,6.9,10.9,6.8,12.9v48.6
	c0.1,1.9,1.2,3.7,2.8,4.8c2.1,1.5,4.5,2.6,6.9,3.2c13.7,3.4,28,3.4,41.5,0c2.5-0.6,4.9-1.7,6.9-3.2c1.6-1.1,2.7-2.8,2.8-4.8V12.9
	C67.6,11,66.6,9.2,64.9,8.1z M11.7,19.2c3.4,1.6,6.9,2.7,10.7,3.2c4.8,0.9,9.7,1.2,14.6,1.2s9.8-0.4,14.6-1.2
	c3.7-0.5,7.3-1.6,10.7-3.2v9.9c0,0.1,0,0.2-0.3,0.5c-0.2,0.3-0.6,0.6-1.1,0.9c-1.6,0.9-3.3,1.5-5,1.9c-12.4,3-25.2,3-37.6,0
	c-1.7-0.4-3.4-1.1-5-1.9c-0.4-0.2-0.9-0.5-1.3-0.9c-0.3-0.3-0.3-0.5-0.3-0.5L11.7,19.2L11.7,19.2z M62.5,61.4c0,0.1,0,0.2-0.3,0.5
	s-0.7,0.6-1.2,0.9c-1.6,0.9-3.3,1.5-5,1.9c-12.4,3-25.2,3-37.6,0c-1.7-0.4-3.4-1.1-5-1.9c-0.4-0.2-0.9-0.5-1.3-0.9
	c-0.3-0.3-0.3-0.5-0.3-0.5l0.1-9.9c3.4,1.6,6.9,2.7,10.7,3.2c4.8,0.9,9.7,1.2,14.6,1.2s9.8-0.3,14.6-1.2c3.7-0.5,7.3-1.6,10.7-3.2
	L62.5,61.4L62.5,61.4z M62.5,45.4c0,0.1,0,0.2-0.3,0.5s-0.7,0.5-1.2,0.9c-1.6,0.9-3.3,1.5-5,1.9c-12.4,3-25.2,3-37.6,0
	c-1.7-0.4-3.4-1.1-5-1.9c-0.4-0.2-0.9-0.5-1.3-0.9c-0.3-0.3-0.3-0.5-0.3-0.5v-9.9c3.4,1.6,6.9,2.7,10.7,3.2c9.7,1.6,19.7,1.6,29.4,0
	c3.7-0.5,7.3-1.6,10.7-3.2L62.5,45.4L62.5,45.4z M62.2,13.4c-0.4,0.3-0.9,0.6-1.3,0.9c-1.6,0.9-3.3,1.5-5,1.9
	c-6.1,1.6-12.5,2.2-18.8,2.2c-6.3,0.1-12.6-0.6-18.8-2.2c-1.7-0.4-3.4-1.1-5-1.9c-0.4-0.2-0.9-0.5-1.3-0.9c-0.3-0.3-0.3-0.5-0.3-0.5
	s0-0.2,0.3-0.5s0.7-0.6,1.3-0.9c1.6-0.9,3.3-1.5,5-1.9c12.4-3,25.2-3,37.6,0c1.7,0.4,3.4,1.1,5,1.9c0.4,0.2,0.9,0.5,1.3,0.9
	c0.3,0.3,0.3,0.5,0.3,0.5S62.6,13.1,62.2,13.4z"/>
</svg>
