<svg width="24" height="24" viewBox="0 0 24 24" fill="none" xmlns="http://www.w3.org/2000/svg" preserveAspectRatio="xMinYMid meet">
<path fill-rule="evenodd" clip-rule="evenodd" d="M3.49951 4.49707C3.49951 3.11636 4.6188 1.99707 5.99951 1.99707H14.9978C16.3785 1.99707 17.4978 3.11636 17.4978 4.49707V4.99902H18.001C19.3817 4.99902 20.501 6.11831 20.501 7.49902V19.5029C20.501 20.8836 19.3817 22.0029 18.001 22.0029H8.9707C7.58999 22.0029 6.4707 20.8836 6.4707 19.5029V18.9927H5.99951C4.6188 18.9927 3.49951 17.8734 3.49951 16.4927V4.49707ZM17.4978 16.4927V5.99902H18.001C18.8294 5.99902 19.501 6.6706 19.501 7.49902V19.5029C19.501 20.3314 18.8294 21.0029 18.001 21.0029H8.9707C8.14228 21.0029 7.4707 20.3314 7.4707 19.5029V18.9927H14.9978C16.3785 18.9927 17.4978 17.8734 17.4978 16.4927ZM5.99951 2.99707C5.17108 2.99707 4.49951 3.66864 4.49951 4.49707V16.4927C4.49951 17.3211 5.17108 17.9927 5.99951 17.9927H14.9978C15.8262 17.9927 16.4978 17.3211 16.4978 16.4927V4.49707C16.4978 3.66864 15.8262 2.99707 14.9978 2.99707H5.99951ZM7.99219 10.0066C7.16376 10.0066 6.49219 10.6782 6.49219 11.5066V14.4956C6.49219 15.324 7.16376 15.9956 7.99219 15.9956H12.9937C13.8221 15.9956 14.4937 15.324 14.4937 14.4956V11.5066C14.4937 10.6782 13.8221 10.0066 12.9937 10.0066H7.99219ZM7.49219 11.5066C7.49219 11.2304 7.71604 11.0066 7.99219 11.0066H12.9937C13.2698 11.0066 13.4937 11.2304 13.4937 11.5066V14.4956C13.4937 14.7717 13.2698 14.9956 12.9937 14.9956H7.99219C7.71605 14.9956 7.49219 14.7717 7.49219 14.4956V11.5066ZM6.50244 7.4978C6.50244 7.22166 6.7263 6.9978 7.00244 6.9978H13.9937C14.2698 6.9978 14.4937 7.22166 14.4937 7.4978C14.4937 7.77395 14.2698 7.9978 13.9937 7.9978H7.00244C6.7263 7.9978 6.50244 7.77395 6.50244 7.4978ZM7.00244 4.9978C6.7263 4.9978 6.50244 5.22166 6.50244 5.4978C6.50244 5.77395 6.7263 5.9978 7.00244 5.9978L11.0056 5.9978C11.2818 5.9978 11.5056 5.77395 11.5056 5.4978C11.5056 5.22166 11.2818 4.9978 11.0056 4.9978L7.00244 4.9978Z" fill="#212529"/>
</svg>
