<svg width="180" height="163" viewBox="0 0 180 163" fill="none" xmlns="http://www.w3.org/2000/svg" preserveAspectRatio="xMinYMid meet">
<path d="M80.3379 161.473C124.707 161.473 160.676 125.504 160.676 81.1348C160.676 36.7654 124.707 0.796875 80.3379 0.796875C35.9685 0.796875 0 36.7654 0 81.1348C0 125.504 35.9685 161.473 80.3379 161.473Z" fill="#C4E5FF"/>
<path d="M126.856 36.8906H33.8184C30.8216 36.8906 28.3926 39.3198 28.3926 42.3165V142.493C42.4037 154.392 60.5159 161.602 80.3373 161.602C100.159 161.602 118.271 154.39 132.282 142.493V42.3165C132.282 39.3198 129.853 36.8906 126.856 36.8906Z" fill="white"/>
<path d="M111.864 69.7556H45.8934C41.8233 69.7556 38.5234 66.4558 38.5234 62.3857C38.5234 58.3156 41.8233 55.0156 45.8934 55.0156H111.864C115.934 55.0156 119.234 58.3156 119.234 62.3857C119.234 66.4558 115.934 69.7556 111.864 69.7556Z" fill="#85CAFF"/>
<path d="M111.864 96.6305H45.8934C41.8233 96.6305 38.5234 93.3307 38.5234 89.2606C38.5234 85.1905 41.8233 81.8906 45.8934 81.8906H111.864C115.934 81.8906 119.234 85.1905 119.234 89.2606C119.234 93.3322 115.934 96.6305 111.864 96.6305Z" fill="#C4E5FF"/>
<path d="M111.864 124.56H45.8934C41.8233 124.56 38.5234 121.26 38.5234 117.19C38.5234 113.12 41.8233 109.82 45.8934 109.82H111.864C115.934 109.82 119.234 113.12 119.234 117.19C119.234 121.26 115.934 124.56 111.864 124.56Z" fill="#C4E5FF"/>
<path d="M106.34 5.64844H179.649V70.0962H106.34V5.64844Z"/>
<path d="M174.604 19.853C174.592 19.8352 174.532 19.7539 174.518 19.7376L167.282 10.3481C167.277 10.3422 167.273 10.3362 167.268 10.3303C165.771 8.38027 163.699 7.18125 161.279 6.86191C158.807 6.53518 156.49 7.17394 154.608 8.68342L147.97 13.7455C147.519 14.0885 147.145 14.5084 146.859 14.9844C146.329 15.1367 145.831 15.3866 145.384 15.7281L111.936 41.3951C110.998 42.1166 110.394 43.159 110.241 44.3313L108.295 59.1111C107.976 61.5328 109.688 63.7623 112.109 64.0832L126.889 66.0287C127.086 66.0554 127.281 66.0672 127.476 66.0672C128.446 66.0672 129.383 65.7508 130.166 65.1506L163.615 39.485L163.616 39.4835C164.062 39.142 164.433 38.7251 164.716 38.2535C165.244 38.1012 165.742 37.8514 166.189 37.5098L172.861 32.3886C174.788 30.9116 175.973 28.8491 176.293 26.4275C176.6 24.0723 176.013 21.7941 174.604 19.853Z" fill="white"/>
<path d="M126.181 56.8388L129.84 54.0313L122.59 44.5841L118.931 47.3916L118.431 51.1927L122.979 51.7914L122.38 56.3391L126.181 56.8388ZM149.103 26.3166C149.171 25.7947 148.944 25.5005 148.424 25.4325C148.187 25.4015 147.976 25.4577 147.788 25.6011L125.998 42.3206C125.81 42.4655 125.7 42.6548 125.669 42.8913C125.601 43.4132 125.828 43.7074 126.348 43.7754C126.585 43.8064 126.797 43.7502 126.984 43.6068L148.774 26.8873C148.961 26.7439 149.071 26.5531 149.103 26.3166ZM148.081 19.2438L160.914 35.9678L127.466 61.6349L112.686 59.6893L114.631 44.9094L148.081 19.2438ZM171.897 25.848C171.731 27.1032 171.153 28.1114 170.161 28.8728L163.488 33.9941L150.655 17.2686L157.324 12.1828C158.295 11.3948 159.42 11.0858 160.699 11.2543C161.955 11.4199 162.973 12.0113 163.754 13.0299L171.008 22.4416C171.762 23.481 172.058 24.6164 171.897 25.848Z" fill="#0056B2"/>
</svg>
