<?xml version="1.0" encoding="UTF-8" standalone="no"?>
<!-- Created with Inkscape (http://www.inkscape.org/) -->

<svg
   xmlns:dc="http://purl.org/dc/elements/1.1/"
   xmlns:cc="http://creativecommons.org/ns#"
   xmlns:rdf="http://www.w3.org/1999/02/22-rdf-syntax-ns#"
   xmlns:svg="http://www.w3.org/2000/svg"
   xmlns="http://www.w3.org/2000/svg"
   xmlns:sodipodi="http://sodipodi.sourceforge.net/DTD/sodipodi-0.dtd"
   xmlns:inkscape="http://www.inkscape.org/namespaces/inkscape"
   width="16"
   height="16"
   id="svg2"
   version="1.1"
   inkscape:version="0.48.3.1 r9886"
   sodipodi:docname="image.svg">
  <defs
     id="defs4" />
  <sodipodi:namedview
     id="base"
     pagecolor="#ffffff"
     bordercolor="#666666"
     borderopacity="1.0"
     inkscape:pageopacity="0.0"
     inkscape:pageshadow="2"
     inkscape:zoom="32"
     inkscape:cx="11.577509"
     inkscape:cy="9.3016902"
     inkscape:document-units="px"
     inkscape:current-layer="layer1"
     showgrid="false"
     inkscape:window-width="1122"
     inkscape:window-height="685"
     inkscape:window-x="162"
     inkscape:window-y="57"
     inkscape:window-maximized="0" />
  <metadata
     id="metadata7">
    <rdf:RDF>
      <cc:Work
         rdf:about="">
        <dc:format>image/svg+xml</dc:format>
        <dc:type
           rdf:resource="http://purl.org/dc/dcmitype/StillImage" />
        <dc:title />
      </cc:Work>
    </rdf:RDF>
  </metadata>
  <g
     inkscape:label="Layer 1"
     inkscape:groupmode="layer"
     id="layer1"
     transform="translate(0,-1036.3622)">
    <rect
       style="fill:none;fill-opacity:1;fill-rule:nonzero;stroke:#999999;stroke-opacity:1"
       id="rect2986"
       width="14.142136"
       height="13.131983"
       x="1.0101526"
       y="1.4159228"
       transform="translate(0,1036.3622)"
       ry="0.053281363" />
    <path
       style="fill:#999999;fill-opacity:1;stroke:none"
       d="m 13.794977,1041.1242 c 0,0.9241 -0.749059,1.6732 -1.673146,1.6732 -0.9241,0 -1.673146,-0.7491 -1.673146,-1.6732 0,-0.924 0.749059,-1.6731 1.673146,-1.6731 0.9241,0 1.673146,0.7491 1.673146,1.6731 z"
       id="path3761"
       inkscape:connector-curvature="0" />
    <path
       transform="translate(0,1036.3622)"
       style="fill:#999999;fill-opacity:1;fill-rule:nonzero;stroke:#999999;stroke-width:1;stroke-linecap:round;stroke-linejoin:round;stroke-miterlimit:4;stroke-opacity:1;stroke-dashoffset:0"
       d="m 1.5711386,10.553572 c 1.7890625,-0.125 3.8205354,-3.734909 6.286004,-3.75 2.4654684,-0.015091 3.8591064,3.4375 6.4645754,3.75 0.01465,0.0018 0.02808,0.0059 0.03771,0.01557 0.0096,0.0096 0.01557,0.02295 0.01557,0.03771 l 0,3.018437 c 0,0.02952 -0.02376,0.05328 -0.05328,0.05328 l -12.7505794,0 c -0.029518,0 -0.053281,-0.02376 -0.053281,-0.05328 l 0,-3.018437 c 0,-0.01476 0.00594,-0.02808 0.015572,-0.03771 0.00963,-0.0096 0.022987,-0.01454 0.037709,-0.01557 z"
       id="rect3753"
       inkscape:connector-curvature="0"
       sodipodi:nodetypes="szssssssssss" />
  </g>
</svg>
