<svg id="Layer_1" data-name="Layer 1" xmlns="http://www.w3.org/2000/svg" width="48" height="48" viewBox="0 0 48 48"><defs><style>.cls-1{fill:#06c;}.cls-2{fill:#fff;}</style></defs><title>48px_sourcefile_20170718_multi</title><circle class="cls-1" cx="24" cy="23.77" r="24"/><path id="path1" class="cls-2" d="M14.91,16.85V35.69a.9.9,0,0,0,.93.88H32.76a.32.32,0,0,0,.33-.3V17.58H17.28a4.19,4.19,0,0,1-2.36-.72ZM17.28,11a2.36,2.36,0,0,0,0,4.71H27.43V14.29H17.27a.93.93,0,1,1,0-1.86h12v3.29h2.17V11Zm0-1.86h16V11h0v4.71h1.69v1.86h0V36.27a2.15,2.15,0,0,1-2.16,2.13H15.84a2.73,2.73,0,0,1-2.76-2.7V13.58q0-.11,0-.22A4.22,4.22,0,0,1,17.28,9.14Z"/></svg>