<svg width="24" height="24" viewBox="0 0 24 24" fill="none" xmlns="http://www.w3.org/2000/svg">
<path fill-rule="evenodd" clip-rule="evenodd" d="M2.18182 5.33333C2.18182 4.71968 2.67023 4.22222 3.27273 4.22222H7.35229C7.61947 4.22222 7.87736 4.32209 8.07705 4.50288L9.29161 5.60248C9.89068 6.14485 10.6644 6.44444 11.4659 6.44444H20.7273C21.3298 6.44444 21.8182 6.94191 21.8182 7.55556V18.6667C21.8182 19.2803 21.3298 19.7778 20.7273 19.7778H3.27273C2.67024 19.7778 2.18182 19.2803 2.18182 18.6667V5.33333ZM3.27273 2C1.46525 2 0 3.49238 0 5.33333V18.6667C0 20.5076 1.46525 22 3.27273 22H20.7273C22.5348 22 24 20.5076 24 18.6667V7.55556C24 5.71461 22.5348 4.22222 20.7273 4.22222H11.4659C11.1987 4.22222 10.9408 4.12236 10.7411 3.94157L9.52657 2.84197C8.9275 2.2996 8.15383 2 7.35229 2H3.27273ZM14.5374 13.573L11.0439 15.7322C10.7239 15.93 10.3024 15.8338 10.1024 15.5174C10.0346 15.41 9.99857 15.2859 9.99857 15.1593V10.8407C9.99857 10.4675 10.3045 10.165 10.6818 10.165C10.8098 10.165 10.9353 10.2006 11.0439 10.2677L14.5374 12.427C14.8573 12.6248 14.9546 13.0417 14.7546 13.3581C14.6996 13.4451 14.6253 13.5186 14.5374 13.573Z" fill="white"/>
</svg>
