<svg xmlns="http://www.w3.org/2000/svg" width="24" height="24" viewBox="0 0 24 24" preserveAspectRatio="xMinYMid meet" overflow="visible"><style>.st0{fill:#82acee}.st1{fill:none;stroke:#000;stroke-width:.75;stroke-miterlimit:10}.st2{fill:#d2ebfa}.st3,.st4{fill:#fcc619;stroke:#000;stroke-width:.75;stroke-miterlimit:10}.st4{fill:#aada17}</style><g><path class="st0" d="M20.3 16.2c0 1.1-.9 2-2 2h-15c-1.1 0-2-.9-2-2V6.1c0-1.1.9-2 2-2h15c1.1 0 2 .9 2 2v10.1z"/><path class="st1" d="M20.3 16.2c0 1.1-.9 2-2 2h-15c-1.1 0-2-.9-2-2V6.1c0-1.1.9-2 2-2h15c1.1 0 2 .9 2 2v10.1z"/></g><path class="st2" d="M1.7 6.5H20V16H1.7V6.5z"/><path class="st1" d="M1.4 6.3h18.8M1.4 15.9h18.8"/><path class="st3" d="M12.8 11.3l-3.7 2.4V9.1l3.7 2.2z"/><g><circle class="st4" cx="19.3" cy="16.9" r="3.2"/><path class="st1" d="M19.3 15.3v2.9m-1.4-1.4h2.9"/></g></svg>