<svg width="24" height="24" viewBox="0 0 24 24" fill="none" xmlns="http://www.w3.org/2000/svg">
<path fill-rule="evenodd" clip-rule="evenodd" d="M4 4.5C4 3.67157 4.67157 3 5.5 3H9.4167C9.89153 3 10.3383 3.22482 10.6213 3.60613L11.8449 5.25509C12.3165 5.89061 13.0612 6.26531 13.8525 6.26531H19.5C20.3284 6.26531 21 6.93688 21 7.76531V18.5C21 19.3284 20.3284 20 19.5 20H5.5C4.67157 20 4 19.3284 4 18.5V4.5ZM5.5 2C4.11929 2 3 3.11929 3 4.5V18.5C3 19.8807 4.11929 21 5.5 21H19.5C20.8807 21 22 19.8807 22 18.5V7.76531C22 6.3846 20.8807 5.26531 19.5 5.26531H13.8525C13.3777 5.26531 12.9309 5.04049 12.648 4.65918L11.4243 3.01021C10.9527 2.3747 10.2081 2 9.4167 2H5.5ZM14.4167 13.0997L11.4167 14.8317C11.0834 15.0242 10.6667 14.7836 10.6667 14.3987V10.9346C10.6667 10.5497 11.0834 10.3091 11.4167 10.5016L14.4167 12.2336C14.75 12.4261 14.75 12.9072 14.4167 13.0997ZM14.9167 11.3676C15.9167 11.945 15.9167 13.3883 14.9167 13.9657L11.9167 15.6977C10.9167 16.2751 9.66669 15.5534 9.66669 14.3987V10.9346C9.66669 9.77991 10.9167 9.05822 11.9167 9.63557L14.9167 11.3676Z" fill="#212529"/>
</svg>
