<svg id="Capa_1" data-name="Capa 1" xmlns="http://www.w3.org/2000/svg" viewBox="0 0 228.83 28.4"><defs><style>.cls-1{fill:#000001;}.cls-2{fill:#6cc1b1;}.cls-3{fill:#00636e;}</style></defs><title>wirisquizzes-logo</title><path class="cls-1" d="M0,1.59H7.61V3.93H5.06L8.4,18c.15.76.24,1.6.24,1.6h.09s.12-.84.3-1.6L13.51,1.59h2.58L20.54,18a11,11,0,0,1,.3,1.6H21a14.6,14.6,0,0,1,.21-1.6l3.33-14H22V1.59h7.64V3.93H27.55L22.76,23H19.31L15.13,7.81a9,9,0,0,1-.28-1.7h-.12a9.86,9.86,0,0,1-.27,1.7L10.28,23H6.82L2.06,3.93H0Z"/><path class="cls-1" d="M30.19,20.72h2.39V9.92H30V7.65h5.49V20.72H38V23H30.2ZM32.52,1.59h3.09v3H32.52Z"/><path class="cls-1" d="M39.86,20.72h2.3V10.59a.6.6,0,0,0-.51-.67H39.58V7.65H43c1.33,0,2,.55,2,1.79v1A9.42,9.42,0,0,1,45,11.47H45a5.24,5.24,0,0,1,4.85-4,4.87,4.87,0,0,1,.76.06v2.91a4.09,4.09,0,0,0-.85-.09c-3.27,0-4.67,3.3-4.67,6.31v4.06h2.27V23H39.86Z"/><path class="cls-1" d="M52.38,20.72h2.39V9.92H52.23V7.65h5.48V20.72h2.43V23H52.38ZM54.71,1.59H57.8v3H54.71Z"/><path class="cls-1" d="M61.87,18.05h2.57v1c0,1.3,1.82,1.91,3.52,1.91s3.09-.7,3.09-2c0-1.55-1.7-2-3.82-2.79-2.27-.85-4.79-1.88-4.79-4.67,0-3,3-4.24,5.67-4.24,2.15,0,5.3.85,5.3,3.09v1.85H70.83v-1c0-.94-1.21-1.58-2.7-1.58s-2.73.61-2.73,1.85c0,1.46,1.7,2.06,3.55,2.7C71.31,15,74,16,74,18.84s-2.67,4.52-6.15,4.52c-2.79,0-6-1.25-6-3.67Z"/><path class="cls-1" d="M87.23,1.23a10.67,10.67,0,0,1,11,10.32c0,.16,0,.31,0,.47a11.05,11.05,0,0,1-2.58,7.21l2.55,2.43-1.73,1.88L94,21a10.56,10.56,0,0,1-6.79,2.33,10.94,10.94,0,0,1-11-10.91v-.27A10.76,10.76,0,0,1,86.81,1.23a2.94,2.94,0,0,1,.42,0m0,19.43a7.59,7.59,0,0,0,4.67-1.6l-3.15-3.13,1.72-1.85,3.13,3.16a9,9,0,0,0,1.6-5.1,7.93,7.93,0,0,0-15.85-.63q0,.33,0,.66c0,4.79,3.46,8.49,7.88,8.49"/><path class="cls-1" d="M102.54,9.93H100V7.65h5.51v9.22c0,2.12.43,3.82,2.88,3.82,3.06,0,5-2.94,5-6V9.93h-2.58V7.65h5.52V20.08a.61.61,0,0,0,.54.67h1.73V23h-3.18c-1.34,0-1.94-.61-1.94-1.7v-.67a7,7,0,0,1,.06-.91h-.06a6.28,6.28,0,0,1-5.85,3.64c-3.3,0-5-1.82-5-5.88Z"/><path class="cls-1" d="M119.76,20.72h2.4V9.92h-2.54V7.65h5.48V20.72h2.43V23h-7.77ZM122.1,1.59h3.09v3H122.1Z"/><path class="cls-1" d="M137.83,10.8a8.79,8.79,0,0,1,.85-.88V9.86s-.64.06-1.25.06H132.1v2.46h-2.58V7.65h12.7V9.59l-8.4,10.25a6.21,6.21,0,0,1-.85.85v.06s.61,0,1.21,0h5.67V18.26h2.58V23H129.36V21.05Z"/><path class="cls-1" d="M153.26,10.8a8.68,8.68,0,0,1,.84-.88V9.86s-.63.06-1.24.06h-5.33v2.46H145V7.65h12.7V9.59l-8.4,10.25a6.21,6.21,0,0,1-.85.85v.06s.61,0,1.21,0h5.67V18.26h2.58V23H144.79V21.05Z"/><path class="cls-1" d="M167.38,7.29c4.37,0,6.64,3.21,6.64,7.18,0,.4-.09,1.13-.09,1.13H162.71a5.16,5.16,0,0,0,5.12,5.21H168a7.4,7.4,0,0,0,4.58-1.73l1.21,2.15a9.4,9.4,0,0,1-6,2.13,7.81,7.81,0,0,1-8.12-7.5,4.86,4.86,0,0,1,0-.54c0-4.88,3.3-8,7.67-8M171,13.72c-.1-2.7-1.73-4.1-3.67-4.1a4.52,4.52,0,0,0-4.49,4.1Z"/><path class="cls-1" d="M176,18.05h2.58v1c0,1.3,1.81,1.91,3.51,1.91s3.1-.7,3.1-2c0-1.55-1.7-2-3.82-2.79-2.28-.85-4.79-1.88-4.79-4.67,0-3,3-4.24,5.67-4.24,2.15,0,5.3.85,5.3,3.09v1.85H185v-1c0-.94-1.22-1.58-2.7-1.58s-2.73.61-2.73,1.85c0,1.46,1.7,2.06,3.54,2.7,2.37.79,5.07,1.79,5.07,4.64s-2.67,4.52-6.16,4.52c-2.78,0-6-1.25-6-3.67Z"/><path class="cls-2" d="M218.57,23h-17.5a2.22,2.22,0,0,1-2.22-2.22h0V3.07A2.21,2.21,0,0,1,201.07.85h15.48a2.22,2.22,0,0,1,0,4.44H203.3V18.56h13v-.24a2.23,2.23,0,0,1,4.45,0v2.47A2.22,2.22,0,0,1,218.57,23Z"/><path class="cls-3" d="M214.28,17.6a2.22,2.22,0,0,1-1.57-.66l-6.65-6.65a2.22,2.22,0,0,1,3.14-3.15l4.94,4.94L223.57.8A2.22,2.22,0,0,1,227,3.65h0L216,16.8a2.23,2.23,0,0,1-1.61.8Z"/></svg>