<?xml version="1.0" encoding="utf-8"?>
<!-- Generator: Adobe Illustrator 25.2.1, SVG Export Plug-In . SVG Version: 6.00 Build 0)  -->
<svg width="24px" height="24px" version="1.1" id="Layer_1" xmlns="http://www.w3.org/2000/svg" xmlns:xlink="http://www.w3.org/1999/xlink" x="0px" y="0px"
	 viewBox="0 0 74.4 74.4" style="enable-background:new 0 0 74.4 74.4;" xml:space="preserve" preserveAspectRatio="xMinYMid meet">
<g>
	<path d="M62.1,32.3c-1.7,0-2.6,1.4-2.6,3.1v22.8h-45V13.3h27.8c4.1,0.1,4.1-5.2,0-5.1H12.6c-1.7,0-3.1,1.4-3.1,3.1l0,0
		v49.1c0,1.7,1.3,3.1,3,3.1l0,0h49c1.7,0,3.1-1.4,3.1-3.1V35.5C64.7,33.7,63.8,32.3,62.1,32.3z"/>
	<path d="M28.4,30.9c-1.4-1-3.3-0.7-4.4,0.6c-1,1.4-0.7,3.4,0.6,4.5l9.5,7c1.1,0.8,2.2,1.1,3.4,0
		c4.4-4.7,22.1-24.8,26.4-29.4c0.9-1,1.1-2.4,0.6-3.6s-1.7-1.9-3-1.9c-0.8,0-1.6,0.4-2.1,1C55,13.8,39.7,31.5,35.6,36L28.4,30.9z"/>
</g>
</svg>
