<svg width="24" height="24" viewBox="0 0 24 24" fill="none" xmlns="http://www.w3.org/2000/svg" preserveAspectRatio="xMinYMid meet">
<path fill-rule="evenodd" clip-rule="evenodd" d="M5.49902 4C4.11831 4 2.99902 5.11929 2.99902 6.5V17.5C2.99902 18.8807 4.11831 20 5.49902 20H18.5007C19.8814 20 21.0007 18.8807 21.0007 17.5V6.5C21.0007 5.11929 19.8814 4 18.5007 4H5.49902ZM3.99902 6.5C3.99902 5.67157 4.6706 5 5.49902 5H18.5007C19.3292 5 20.0007 5.67157 20.0007 6.5V17.5C20.0007 18.3284 19.3292 19 18.5007 19H5.49902C4.6706 19 3.99902 18.3284 3.99902 17.5V6.5ZM15.25 7.39645C15.4452 7.20118 15.7618 7.20118 15.9571 7.39645L16.249 7.6884L16.541 7.39645C16.7362 7.20118 17.0528 7.20118 17.2481 7.39645C17.4433 7.59171 17.4433 7.90829 17.2481 8.10355L16.9561 8.39551L17.2481 8.68746C17.4433 8.88272 17.4433 9.19931 17.2481 9.39457C17.0528 9.58983 16.7362 9.58983 16.541 9.39457L16.249 9.10262L15.9571 9.39457C15.7618 9.58983 15.4452 9.58983 15.25 9.39457C15.0547 9.19931 15.0547 8.88272 15.25 8.68746L15.5419 8.39551L15.25 8.10355C15.0547 7.90829 15.0547 7.59171 15.25 7.39645ZM17.5159 11.7035C17.7111 11.5082 17.7111 11.1916 17.5158 10.9964C17.3205 10.8011 17.0039 10.8012 16.8087 10.9965L15.934 11.8714L15.6905 11.6278C15.4953 11.4326 15.1787 11.4325 14.9834 11.6277C14.7881 11.823 14.7881 12.1395 14.9833 12.3348L15.5804 12.9321C15.6741 13.0259 15.8013 13.0786 15.934 13.0786C16.0666 13.0786 16.1938 13.0259 16.2876 12.9321L17.5159 11.7035ZM17.5159 15.2408C17.7111 15.0455 17.7111 14.729 17.5158 14.5337C17.3205 14.3385 17.0039 14.3385 16.8087 14.5338L15.934 15.4087L15.6905 15.1652C15.4953 14.9699 15.1787 14.9699 14.9834 15.1651C14.7881 15.3603 14.7881 15.6769 14.9833 15.8722L15.5804 16.4695C15.6741 16.5633 15.8013 16.616 15.934 16.616C16.0666 16.616 16.1938 16.5633 16.2876 16.4695L17.5159 15.2408ZM6.50098 8.51733C6.50098 8.24119 6.72483 8.01733 7.00098 8.01733L12.001 8.01733C12.2771 8.01733 12.501 8.24119 12.501 8.51733C12.501 8.79348 12.2771 9.01733 12.001 9.01733L7.00098 9.01733C6.72483 9.01733 6.50098 8.79348 6.50098 8.51733ZM7.00098 15.0017C6.72483 15.0017 6.50098 15.2256 6.50098 15.5017C6.50098 15.7779 6.72483 16.0017 7.00098 16.0017L12.001 16.0017C12.2771 16.0017 12.501 15.7779 12.501 15.5017C12.501 15.2256 12.2771 15.0017 12.001 15.0017L7.00098 15.0017ZM6.50098 12.0312C6.50098 11.7551 6.72483 11.5312 7.00098 11.5312L12.001 11.5313C12.2771 11.5313 12.501 11.7551 12.501 12.0313C12.501 12.3074 12.2771 12.5313 12.001 12.5313L7.00098 12.5312C6.72483 12.5312 6.50098 12.3074 6.50098 12.0312Z" fill="#212529"/>
</svg>
