<?xml version="1.0" encoding="utf-8"?>
<!-- Generator: Adobe Illustrator 15.1.0, SVG Export Plug-In  -->
<!DOCTYPE svg PUBLIC "-//W3C//DTD SVG 1.1//EN" "http://www.w3.org/Graphics/SVG/1.1/DTD/svg11.dtd" [
	<!ENTITY ns_flows "http://ns.adobe.com/Flows/1.0/">
]>
<svg version="1.1"
	 xmlns="http://www.w3.org/2000/svg" xmlns:xlink="http://www.w3.org/1999/xlink" xmlns:a="http://ns.adobe.com/AdobeSVGViewerExtensions/3.0/"
	 x="0px" y="0px" width="16px" height="16px" viewBox="0 -3.9 16 16" style="overflow:visible;enable-background:new 0 -3.9 16 16;"
	 xml:space="preserve" preserveAspectRatio="xMinYMid meet">
<defs>
</defs>
<path style="fill:#999999;" d="M15,6.2c0.3,0,0.5,0.1,0.7,0.3S16,6.9,16,7.1s-0.1,0.5-0.3,0.7S15.3,8.1,15,8.1S14.5,8,14.3,7.8
	S14,7.4,14,7.1s0.1-0.5,0.3-0.7S14.8,6.2,15,6.2z M10.3,0v3c0.5-0.5,1-0.7,1.5-0.7c0.4,0,0.7,0.1,1.1,0.3s0.6,0.5,0.8,0.9
	s0.3,0.9,0.3,1.4c0,0.6-0.1,1.1-0.4,1.6s-0.6,0.9-1,1.1s-0.9,0.4-1.4,0.4c-0.3,0-0.6,0-0.8-0.1S10,7.7,9.8,7.5L8.8,8.1H8.7v-7
	c0-0.3,0-0.5,0-0.6c0-0.1-0.1-0.2-0.2-0.2S8.2,0.2,8,0.2V0H10.3z M10.3,3.5V6c0,0.5,0,0.8,0,0.9c0,0.2,0.1,0.4,0.3,0.6
	s0.3,0.2,0.6,0.2c0.2,0,0.4-0.1,0.5-0.2s0.3-0.3,0.4-0.7s0.1-0.9,0.1-1.8c0-0.8-0.1-1.4-0.3-1.7C11.7,3.1,11.5,3,11.2,3
	C10.9,3,10.6,3.2,10.3,3.5z M4.9,5.8H2.1L1.8,6.6C1.6,6.9,1.6,7.1,1.6,7.3c0,0.2,0.1,0.4,0.3,0.5C2,7.8,2.2,7.9,2.6,7.9v0.2H0V7.9
	c0.3,0,0.5-0.2,0.7-0.4s0.4-0.6,0.7-1.2L4.2,0h0.1l2.9,6.5c0.3,0.6,0.5,1,0.7,1.2C8,7.8,8.2,7.9,8.4,7.9v0.2H4.6V7.9h0.2
	c0.3,0,0.5,0,0.7-0.1c0.1-0.1,0.1-0.2,0.1-0.3c0-0.1,0-0.1,0-0.2c0,0-0.1-0.2-0.2-0.4L4.9,5.8z M4.7,5.4L3.5,2.7L2.3,5.4H4.7z"/>
</svg>
