<?xml version="1.0" encoding="utf-8"?>
<!-- Generator: Adobe Illustrator 15.1.0, SVG Export Plug-In  -->
<!DOCTYPE svg PUBLIC "-//W3C//DTD SVG 1.1//EN" "http://www.w3.org/Graphics/SVG/1.1/DTD/svg11.dtd" [
	<!ENTITY ns_flows "http://ns.adobe.com/Flows/1.0/">
]>
<svg version="1.1"
	 xmlns="http://www.w3.org/2000/svg" xmlns:xlink="http://www.w3.org/1999/xlink" xmlns:a="http://ns.adobe.com/AdobeSVGViewerExtensions/3.0/"
	 x="0px" y="0px" width="16px" height="16px" viewBox="0 -1.3 16 16" style="overflow:visible;enable-background:new 0 -1.3 16 16;"
	 xml:space="preserve" preserveAspectRatio="xMinYMid meet">
<defs>
</defs>
<path style="fill:#999999;" d="M7,14.7H0v-1h7V14.7z M1.1,11.7h5.2v-0.3c-0.6,0-1.1-0.1-1.3-0.2c-0.2-0.1-0.3-0.3-0.3-0.7
	c0-0.1,0-0.3,0.1-0.5c0-0.2,0.1-0.3,0.1-0.5l2.5-9h1c0.7,0,1.2,0.1,1.5,0.4s0.4,0.7,0.4,1.2l0,0.6l0.3,0L11.3,0H1.7L1,2.8l0.3,0.1
	c0.6-1.1,1.1-1.7,1.6-1.9c0.4-0.2,1.4-0.3,2.7-0.3L3,10.1c-0.1,0.5-0.4,0.9-0.8,1.1c-0.2,0.1-0.6,0.2-1.1,0.2V11.7z M8.1,14.7h2.5
	v-0.2c-0.3,0-0.5,0-0.6-0.1c-0.2-0.1-0.3-0.2-0.3-0.3c0-0.1,0.1-0.2,0.2-0.4c0.1-0.1,0.2-0.3,0.4-0.5l1.3-1.6c0.7,1.1,1.2,1.8,1.4,2
	s0.2,0.5,0.2,0.6c0,0.1-0.1,0.2-0.2,0.3c-0.1,0-0.3,0.1-0.6,0.1v0.2h3.2v-0.2c-0.3,0-0.5-0.1-0.7-0.2c-0.1-0.1-0.3-0.3-0.6-0.6
	l-2.1-3l1.6-2c0.4-0.5,0.7-0.8,0.9-0.9c0.2-0.1,0.4-0.1,0.7-0.1V7.5H13v0.2c0.3,0,0.4,0,0.5,0.1c0.2,0.1,0.2,0.2,0.2,0.3
	c0,0.1,0,0.1-0.1,0.2c-0.1,0.1-0.2,0.3-0.4,0.5l-1.2,1.5L11,8.6c-0.1-0.1-0.1-0.2-0.1-0.2c-0.1-0.1-0.1-0.3-0.1-0.4
	c0-0.2,0.1-0.3,0.2-0.3c0.1,0,0.3-0.1,0.6-0.1V7.5H8.2v0.2c0.4,0,0.6,0.1,0.9,0.3c0.2,0.2,0.6,0.7,1.1,1.4l1.2,1.8l-1.7,2.1
	c-0.5,0.6-0.8,0.9-0.9,1c-0.2,0.1-0.4,0.2-0.7,0.2V14.7z"/>
</svg>
