<?xml version="1.0" encoding="utf-8"?>
<!-- Generator: Adobe Illustrator 15.1.0, SVG Export Plug-In  -->
<!DOCTYPE svg PUBLIC "-//W3C//DTD SVG 1.1//EN" "http://www.w3.org/Graphics/SVG/1.1/DTD/svg11.dtd" [
	<!ENTITY ns_flows "http://ns.adobe.com/Flows/1.0/">
]>
<svg version="1.1"
	 xmlns="http://www.w3.org/2000/svg" xmlns:xlink="http://www.w3.org/1999/xlink" xmlns:a="http://ns.adobe.com/AdobeSVGViewerExtensions/3.0/"
	 x="0px" y="0px" width="16px" height="16px" viewBox="0 0 16 16" style="overflow:visible;enable-background:new 0 0 16 16;"
	 xml:space="preserve" preserveAspectRatio="xMinYMid meet">
<defs>
</defs>
<path style="fill:#999999;" d="M8,0C3.6,0,0,3.6,0,8s3.6,8,8,8s8-3.5,8-8S12.4,0,8,0z M8,15c-3.9,0-7-3.1-7-7c0-3.9,3.1-7,7-7
	s7,3.2,7,7C15,11.9,11.9,15,8,15z M8,12.8c-4.9,0-5.8-4.4-5.8-4.4C2.1,8.2,2.2,7.9,2.5,7.8C2.8,7.8,3.1,8,3.1,8.2
	c0,0.1,0.8,3.6,4.9,3.6c4.1,0,4.8-3.5,4.9-3.6c0.1-0.3,0.3-0.4,0.6-0.4c0.3,0.1,0.4,0.3,0.4,0.6C13.8,8.5,12.9,12.8,8,12.8z
	 M11.4,5.2c0,0.8-0.3,1.5-0.7,1.5C10.3,6.7,10,6,10,5.2s0.3-1.5,0.7-1.5C11.1,3.7,11.4,4.4,11.4,5.2z M6,5.2C6,6,5.7,6.7,5.3,6.7
	C4.9,6.7,4.6,6,4.6,5.2s0.3-1.5,0.7-1.5C5.7,3.7,6,4.4,6,5.2z"/>
</svg>
