<?xml version="1.0" encoding="utf-8"?>
<!-- Generator: Adobe Illustrator 15.1.0, SVG Export Plug-In  -->
<!DOCTYPE svg PUBLIC "-//W3C//DTD SVG 1.1//EN" "http://www.w3.org/Graphics/SVG/1.1/DTD/svg11.dtd" [
	<!ENTITY ns_flows "http://ns.adobe.com/Flows/1.0/">
]>
<svg version="1.1"
	 xmlns="http://www.w3.org/2000/svg" xmlns:xlink="http://www.w3.org/1999/xlink" xmlns:a="http://ns.adobe.com/AdobeSVGViewerExtensions/3.0/"
	 x="0px" y="0px" width="16px" height="16px" viewBox="0 0.1 16 16" style="overflow:visible;enable-background:new 0 0.1 16 16;"
	 xml:space="preserve" preserveAspectRatio="xMinYMid meet">
<defs>
</defs>
<path style="fill:#999999;" d="M4.8,7.9H4.6v0.2h3.1V7.4C7.5,7.2,7.4,6.9,7.2,6.5L4.3,0H4.2L1.4,6.3c-0.3,0.6-0.5,1-0.7,1.2
	S0.3,7.8,0,7.9v0.2h2.6V7.9C2.2,7.9,2,7.8,1.9,7.8C1.7,7.6,1.6,7.5,1.6,7.3c0-0.2,0.1-0.4,0.2-0.6l0.3-0.8h2.8l0.4,1
	c0.1,0.3,0.2,0.4,0.2,0.4c0,0.1,0,0.1,0,0.2c0,0.1,0,0.2-0.1,0.3C5.3,7.8,5.1,7.9,4.8,7.9z M2.3,5.4l1.2-2.7l1.2,2.7H2.3z
	 M13.8,11.9c0.8,0.2,1.3,0.4,1.6,0.6c0.4,0.4,0.7,0.8,0.7,1.4c0,0.6-0.2,1.1-0.7,1.5c-0.6,0.5-1.4,0.7-2.6,0.7h-4v-0.2
	c0.4,0,0.6,0,0.7-0.1s0.2-0.2,0.3-0.3s0.1-0.4,0.1-0.8V9.6c0-0.4,0-0.7-0.1-0.8S9.5,8.5,9.4,8.5S9,8.4,8.7,8.4V8.2h3.8
	c0.9,0,1.6,0.1,1.9,0.2s0.7,0.4,0.9,0.7s0.3,0.7,0.3,1c0,0.4-0.1,0.7-0.4,1S14.5,11.7,13.8,11.9z M11.6,12.2v2.5l0,0.3
	c0,0.2,0.1,0.4,0.2,0.5s0.3,0.2,0.5,0.2c0.3,0,0.6-0.1,0.9-0.2s0.5-0.3,0.6-0.6s0.2-0.6,0.2-0.9c0-0.4-0.1-0.7-0.3-1
	s-0.4-0.5-0.7-0.6S12.2,12.2,11.6,12.2z M11.6,11.7c0.6,0,1-0.1,1.2-0.2s0.5-0.3,0.6-0.5s0.2-0.5,0.2-0.9s-0.1-0.6-0.2-0.9
	s-0.3-0.4-0.6-0.5s-0.7-0.2-1.2-0.2V11.7z M5,16.1v-2.5c-0.4,0.3-0.9,0.5-1.5,0.5C2.1,14.1,1,13,1,11.6c0-0.6,0.2-1.1,0.5-1.5H2v1v1
	h0.1C2.2,12.5,2.6,12.9,3,13v0.1h2v-2l3,2.5L5,16.1z"/>
</svg>
