<?xml version="1.0" encoding="utf-8"?>
<!-- Generator: Adobe Illustrator 15.1.0, SVG Export Plug-In  -->
<!DOCTYPE svg PUBLIC "-//W3C//DTD SVG 1.1//EN" "http://www.w3.org/Graphics/SVG/1.1/DTD/svg11.dtd" [
	<!ENTITY ns_flows "http://ns.adobe.com/Flows/1.0/">
]>
<svg version="1.1"
	 xmlns="http://www.w3.org/2000/svg" xmlns:xlink="http://www.w3.org/1999/xlink" xmlns:a="http://ns.adobe.com/AdobeSVGViewerExtensions/3.0/"
	 x="0px" y="0px" width="16px" height="16px" viewBox="0 0 16 16" style="overflow:visible;enable-background:new 0 0 16 16;"
	 xml:space="preserve" preserveAspectRatio="xMinYMid meet">
<defs>
</defs>
<path style="fill:#999999;" d="M12,5V2.5C12,2.2,11.8,2,11.5,2H8V1c0-0.6-0.5-1-1-1H5C4.5,0,4,0.4,4,1v1H0.5C0.2,2,0,2.2,0,2.5v10
	C0,12.8,0.2,13,0.5,13H5v3h7l3-3V5H12z M5,1L5,1l2,0c0,0,0,0,0,0l0,1H5V1z M2,4V3h8v1H2z M11,15H6V6h8v1.7h-1.4v0.1
	c0.2,0,0.3,0,0.4,0.1s0.1,0.1,0.1,0.3c0,0.1,0,0.2,0,0.2S13,8.7,13,8.9l-0.9,2.3l-1-2.5C11,8.4,11,8.2,11,8.1C11,8.1,11,8,11,8
	s0.1-0.1,0.1-0.1c0.1,0,0.2,0,0.4,0V7.7H8.9v0.1c0.2,0,0.3,0,0.4,0.1S9.5,8,9.5,8.1s0.2,0.3,0.3,0.6L10,9.3l-0.8,2l-1-2.6
	C8,8.4,8,8.2,8,8.1C8,8,8,8,8.1,7.9s0.2-0.1,0.4-0.1V7.7H6.1v0.1c0.2,0,0.3,0.1,0.4,0.2s0.2,0.4,0.4,0.8l1.7,4.3h0.1l1.4-3.4
	l0.9,2.3H11V15z M12,14.6V13h1.6L12,14.6z M12.1,12l1.2-3.2c0.1-0.4,0.2-0.6,0.2-0.6C13.6,8,13.7,8,13.8,7.9c0.1,0,0.1-0.1,0.2-0.1
	V12H12.1z"/>
</svg>
