<?xml version="1.0" encoding="utf-8"?>
<svg xmlns="http://www.w3.org/2000/svg" height="48" width="48" viewBox="0 0 48 48">
  <g>
    <ellipse cy="24" cx="24" ry="24" rx="24" fill="#F79F1C" />
    <path id="path1" transform="rotate(0,24,24) translate(11.030774978041,11) scale(0.80933746424431,0.80933746424431)  " fill="#FFFFFF" d="M19.886933,22.000057L19.922878,22.126386C20.005204,22.445684 20.049003,22.780313 20.049003,23.125001 20.049003,24.503751 19.348222,25.721563 18.284062,26.441036L18.170931,26.513624 18.382488,26.597173C19.458902,27.053149,20.37553,27.814669,21.023056,28.772413L21.048829,28.812582 21.074942,28.772418C21.722468,27.814676,22.639098,27.053169,23.715512,26.597202L23.927103,26.513642 23.813944,26.441036C22.749784,25.721563 22.049003,24.503751 22.049003,23.125001 22.049003,22.780313 22.092802,22.445684 22.175128,22.126386L22.211073,22.000057z M26.049003,21.125001C24.946003,21.125001 24.049003,22.022001 24.049003,23.125001 24.049003,24.228001 24.946003,25.125001 26.049003,25.125001 27.152003,25.125001 28.049003,24.228001 28.049003,23.125001 28.049003,22.022001 27.152003,21.125001 26.049003,21.125001z M16.049003,21.125001C15.704316,21.125001,15.379745,21.212599,15.09638,21.366706L15.028553,21.40795 15.043833,21.699182C15.047268,21.798165,15.049003,21.898438,15.049003,22.000001L14.396575,22.000001 14.390985,22.007472C14.175144,22.32672 14.049003,22.711376 14.049003,23.125001 14.049003,24.228001 14.946003,25.125001 16.049003,25.125001 17.152003,25.125001 18.049003,24.228001 18.049003,23.125001 18.049003,22.022001 17.152003,21.125001 16.049003,21.125001z M9.0490026,10.500001C7.946003,10.500001 7.0490026,11.397 7.0490026,12.500001 7.0490026,13.603001 7.946003,14.500001 9.0490026,14.500001 10.152003,14.500001 11.049003,13.603001 11.049003,12.500001 11.049003,11.397 10.152003,10.500001 9.0490026,10.500001z M2,2L2,20.000001 3.3089714,20.000001 3.3191547,19.960938C3.9043083,17.929688,5.3888025,16.679688,7.2665348,16.210938L7.455574,16.168118 7.316206,16.105021C5.9757862,15.458286 5.0490026,14.085563 5.0490026,12.500001 5.0490026,10.294001 6.8430033,8.5 9.0490026,8.5 11.255003,8.5 13.049003,10.294001 13.049003,12.500001 13.049003,14.085563 12.12222,15.458286 10.7818,16.105021L10.642432,16.168118 10.831471,16.210938C12.509694,16.629884,13.873803,17.672883,14.562483,19.339936L14.586886,19.402841 14.674926,19.368072C15.103593,19.210846 15.566441,19.125001 16.049003,19.125001 16.945191,19.125001 17.773382,19.421081 18.440918,19.920582L18.542004,20.000057 23.556002,20.000057 23.657088,19.920582C24.324624,19.421081 25.152816,19.125001 26.049003,19.125001 26.94519,19.125001 27.773382,19.421081 28.440918,19.920582L28.541933,20.000001 30.000001,20.000001 30.000001,2z M1,0L31.000001,0C31.553,0,32.000001,0.4470005,32.000001,1L32.000001,21.000001C32.000001,21.553001,31.553,22.000001,31.000001,22.000001L29.886916,22.000001 29.922878,22.126386C30.005204,22.445684 30.049003,22.780313 30.049003,23.125001 30.049003,24.503751 29.348222,25.721563 28.284061,26.441036L28.170899,26.513644 28.382485,26.597202C30.535316,27.509136,32.048992,29.64323,32.048992,32.125042L30.048992,32.125042C30.048992,29.918987 28.255016,28.125042 26.048992,28.125042 23.911936,28.125042 22.16152,29.808618 22.054206,31.919474L22.048998,32.124804 20.048992,32.125042 20.043789,31.919438C19.936476,29.808628 18.186066,28.125001 16.049003,28.125001 13.843003,28.125001 12.049003,29.919001 12.049003,32.125001L10.049003,32.125001C10.049003,29.643251,11.562691,27.509126,13.715518,26.597173L13.927075,26.513624 13.813945,26.441036C12.749784,25.721563 12.049003,24.503751 12.049003,23.125001 12.049003,22.228813 12.345083,21.400622 12.844584,20.733086L12.903605,20.658016 12.868902,20.516847C12.361769,18.660157 10.841378,18.000001 9.0490026,18.000001 6.8430033,18.000001 5.0490026,19.000001 5.0490026,22.000001L5.000001,22.000001 3.0490036,22.000001 1,22.000001C0.4470005,22.000001,0,21.553001,0,21.000001L0,1C0,0.4470005,0.4470005,0,1,0z" />
  </g>
</svg>