<?xml version="1.0" encoding="UTF-8" standalone="no"?>
<svg
   xmlns:dc="http://purl.org/dc/elements/1.1/"
   xmlns:cc="http://creativecommons.org/ns#"
   xmlns:rdf="http://www.w3.org/1999/02/22-rdf-syntax-ns#"
   xmlns:svg="http://www.w3.org/2000/svg"
   xmlns="http://www.w3.org/2000/svg"
   xmlns:sodipodi="http://sodipodi.sourceforge.net/DTD/sodipodi-0.dtd"
   xmlns:inkscape="http://www.inkscape.org/namespaces/inkscape"
   width="16"
   height="16"
   viewBox="-0.1 -3.1 16 16"
   preserveAspectRatio="xMinYMid meet"
   overflow="visible"
   id="svg2"
   version="1.1"
   inkscape:version="0.91 r"
   sodipodi:docname="twoway.svg">
  <metadata
     id="metadata10">
    <rdf:RDF>
      <cc:Work
         rdf:about="">
        <dc:format>image/svg+xml</dc:format>
        <dc:type
           rdf:resource="http://purl.org/dc/dcmitype/StillImage" />
        <dc:title></dc:title>
      </cc:Work>
    </rdf:RDF>
  </metadata>
  <defs
     id="defs8" />
  <sodipodi:namedview
     pagecolor="#ffffff"
     bordercolor="#666666"
     borderopacity="1"
     objecttolerance="10"
     gridtolerance="10"
     guidetolerance="10"
     inkscape:pageopacity="0"
     inkscape:pageshadow="2"
     inkscape:window-width="1920"
     inkscape:window-height="1053"
     id="namedview6"
     showgrid="false"
     inkscape:object-paths="false"
     inkscape:snap-center="false"
     inkscape:snap-object-midpoints="false"
     inkscape:snap-midpoints="false"
     inkscape:zoom="14.75"
     inkscape:cx="8.1355932"
     inkscape:cy="8"
     inkscape:window-x="0"
     inkscape:window-y="0"
     inkscape:window-maximized="1"
     inkscape:current-layer="svg2" />
  <path
     d="M 15.432203,7.9644068 14.108475,5.6237288 C 13.830007,5.1313305 13.277443,3.1818391 12.866102,3.6186441 L 11.442373,5.1305085 C 8.3731068,2.8062019 7.991888,2.7769111 4.2220339,5.3338983 L 2.7983051,3.7542373 C 2.4635586,3.3828281 2.2096084,4.748161 2.0305085,5.2847458 L 1.1813559,7.8288136 C 1.002256,8.3653983 1.2258552,8.8856784 1.7915254,8.8898305 L 6.640678,8.9254237 C 7.2063482,8.9295758 6.4068484,8.4994724 6.0525424,8.0152542 L 5.4423729,7.1813559 c 2.2808096,-2.1375303 2.8839643,-2.0836114 5.1864411,0 L 10.086441,7.9474576 C 9.7975322,8.3555408 8.8648357,8.8614091 9.4305085,8.8576271 l 5.3237285,-0.035593 c 0.4,-0.3 0.956433,-0.3652288 0.677966,-0.8576271 z"
     id="path4"
     inkscape:connector-curvature="0"
     style="fill:#999999"
     sodipodi:nodetypes="sssccssssssccsscs" />
</svg>
