<svg xmlns="http://www.w3.org/2000/svg" width="24" height="24" viewBox="0 0 24 24" preserveAspectRatio="xMinYMid meet" overflow="visible"><style>.st0{fill:#82acee}.st1{fill:none;stroke:#000;stroke-width:.8191;stroke-miterlimit:10}.st2{fill:#d2ebfa}.st3,.st4,.st5,.st6{fill:#fcc619;stroke:#000;stroke-width:.8047;stroke-miterlimit:10}.st4,.st5,.st6{fill:none;stroke-width:2}.st5,.st6{stroke-width:1.5}.st6{stroke-width:.75}</style><g><path class="st0" d="M22.4 16.3c0 1.2-1 2.2-2.2 2.2H3.8c-1.2 0-2.2-1-2.2-2.2v-11c0-1.2 1-2.2 2.2-2.2h16.4c1.2 0 2.2 1 2.2 2.2v11z"/><path class="st1" d="M22.4 16.3c0 1.2-1 2.2-2.2 2.2H3.8c-1.2 0-2.2-1-2.2-2.2v-11c0-1.2 1-2.2 2.2-2.2h16.4c1.2 0 2.2 1 2.2 2.2v11z"/></g><path class="st2" d="M2 5.7h20v10.4H2V5.7z"/><path class="st1" d="M1.7 5.5h20.5M1.7 16h20.5" id="Trennlinien_1_"/><path class="st3" d="M14.2 11l-3.9 2.5v-5l3.9 2.5z"/><g><path class="st4" d="M10.5 20.5h2.7"/><path class="st5" d="M11.8.5v1.9"/><path class="st6" d="M12.7 20.9l2.4 2.5M10.9 20.9l-2.4 2.5"/></g></svg>