<svg viewBox="0 0 20 16" fill="none" xmlns="http://www.w3.org/2000/svg" preserveAspectRatio="xMinYMid meet">
<path fill-rule="evenodd" clip-rule="evenodd" d="M10 0C10.2652 0 10.5196 0.105357 10.7071 0.292894L13.2071 2.7929C13.5976 3.18342 13.5976 3.81659 13.2071 4.20711C12.8166 4.59763 12.1834 4.59763 11.7929 4.20711L11 3.41422V10C11 10.5523 10.5523 11 10 11C9.44771 11 9 10.5523 9 10V3.41422L8.20711 4.20711C7.81659 4.59763 7.18342 4.59763 6.7929 4.20711C6.40237 3.81659 6.40237 3.18342 6.7929 2.7929L9.29289 0.292894C9.48043 0.105357 9.73478 0 10 0ZM3 6C2.54421 6 2 6.4455 2 7.22222V12.7778C2 13.5545 2.54421 14 3 14H17C17.4558 14 18 13.5545 18 12.7778V7.22222C18 6.4455 17.4558 6 17 6C16.4477 6 16 5.55228 16 5C16 4.44772 16.4477 4 17 4C18.7534 4 20 5.54435 20 7.22222V12.7778C20 14.4557 18.7534 16 17 16H3C1.24665 16 0 14.4557 0 12.7778V7.22222C0 5.54435 1.24665 4 3 4C3.55228 4 4 4.44772 4 5C4 5.55228 3.55228 6 3 6Z" fill="#212529"/>
</svg>
