<?xml version="1.0" encoding="UTF-8" standalone="no"?>
<svg
   xmlns:dc="http://purl.org/dc/elements/1.1/"
   xmlns:cc="http://creativecommons.org/ns#"
   xmlns:rdf="http://www.w3.org/1999/02/22-rdf-syntax-ns#"
   xmlns:svg="http://www.w3.org/2000/svg"
   xmlns="http://www.w3.org/2000/svg"
   xmlns:sodipodi="http://sodipodi.sourceforge.net/DTD/sodipodi-0.dtd"
   xmlns:inkscape="http://www.inkscape.org/namespaces/inkscape"
   enable-background="new 0 0 64 64"
   height="64px"
   id="Layer_1"
   version="1.1"
   viewBox="0 0 64 64"
   width="64px"
   xml:space="preserve"
   inkscape:version="0.91 r13725"
   sodipodi:docname="audio.svg"><metadata
     id="metadata33"><rdf:RDF><cc:Work
         rdf:about=""><dc:format>image/svg+xml</dc:format><dc:type
           rdf:resource="http://purl.org/dc/dcmitype/StillImage" /></cc:Work></rdf:RDF></metadata><defs
     id="defs31" /><sodipodi:namedview
     pagecolor="#ffffff"
     bordercolor="#666666"
     borderopacity="1"
     objecttolerance="10"
     gridtolerance="10"
     guidetolerance="10"
     inkscape:pageopacity="0"
     inkscape:pageshadow="2"
     inkscape:window-width="1342"
     inkscape:window-height="906"
     id="namedview29"
     showgrid="false"
     inkscape:zoom="3.6875"
     inkscape:cx="-49.084746"
     inkscape:cy="32"
     inkscape:window-x="10"
     inkscape:window-y="34"
     inkscape:window-maximized="0"
     inkscape:current-layer="Layer_1" /><g
     id="g5"
     transform="matrix(1.2620453,0,0,1.2358143,-8.5865549,-8.0530582)"
     style="opacity:0.2"><path
       d="M 33.866,12.197 C 33.591,12.065 33.295,12 33,12 c -0.446,0 -0.888,0.149 -1.25,0.438 L 17.298,24 12,24 c -1.105,0 -2,0.895 -2,2 l 0,16 c 0,1.105 0.895,2 2,2 l 5.298,0 14.452,11.562 C 32.112,55.851 32.554,56 33,56 33.294,56 33.59,55.935 33.866,55.803 34.559,55.47 35,54.769 35,54 l 0,-40 c 0,-0.769 -0.441,-1.47 -1.134,-1.803 z"
       id="path7"
       inkscape:connector-curvature="0"
       style="fill:#231f20" /><path
       d="m 38.036,36.833 c -0.672,0.485 -0.824,1.422 -0.339,2.094 0.293,0.407 0.752,0.623 1.218,0.623 0.304,0 0.61,-0.092 0.876,-0.283 1.697,-1.224 2.71,-3.192 2.71,-5.266 0,-2.074 -1.013,-4.042 -2.71,-5.266 -0.672,-0.484 -1.609,-0.332 -2.094,0.339 -0.484,0.672 -0.333,1.609 0.339,2.094 0.93,0.67 1.464,1.703 1.464,2.832 0,1.129 -0.534,2.162 -1.464,2.833 z"
       id="path9"
       inkscape:connector-curvature="0"
       style="fill:#231f20" /><path
       d="m 38.516,43.151 c -0.799,0.219 -1.269,1.044 -1.049,1.843 0.183,0.666 0.787,1.104 1.445,1.104 0.131,0 0.265,-0.017 0.398,-0.054 5.411,-1.485 9.19,-6.438 9.19,-12.044 0,-5.606 -3.779,-10.559 -9.19,-12.044 -0.797,-0.219 -1.624,0.25 -1.843,1.049 -0.22,0.799 0.25,1.624 1.049,1.843 4.112,1.13 6.984,4.893 6.984,9.152 0,4.259 -2.872,8.022 -6.984,9.151 z"
       id="path11"
       inkscape:connector-curvature="0"
       style="fill:#231f20" /><path
       d="m 39.169,15.789 c -0.821,-0.145 -1.593,0.406 -1.734,1.222 -0.141,0.816 0.406,1.593 1.222,1.734 C 46.099,20.033 51.5,26.448 51.5,34 c 0,7.552 -5.401,13.967 -12.843,15.255 -0.816,0.141 -1.363,0.917 -1.222,1.734 0.126,0.729 0.76,1.244 1.476,1.244 0.085,0 0.171,-0.007 0.258,-0.022 C 48.052,50.674 54.5,43.015 54.5,34 54.5,24.985 48.052,17.326 39.169,15.789 Z"
       id="path13"
       inkscape:connector-curvature="0"
       style="fill:#231f20" /></g><path
     d="m 30.53685,41.379514 c 0,1.365575 -1.12953,2.471628 -2.52409,2.471628 l -21.4547711,0 c -1.39456,0 -2.5240906,-1.106053 -2.5240906,-2.471628 l 0,-19.773029 c 0,-1.365575 1.1295306,-2.471628 2.5240906,-2.471628 l 21.4547711,0 c 1.39456,0 2.52409,1.106053 2.52409,2.471628 l 0,19.773029 z"
     id="path15"
     inkscape:connector-curvature="0"
     style="fill:#4f5d73" /><g
     id="g17"
     transform="matrix(1.2620453,0,0,1.2358143,-8.5865549,-8.0530582)"><path
       d="m 33,53 c -0.223,0 -0.444,-0.075 -0.625,-0.219 l -15,-12 C 17.138,40.591 17,40.304 17,40 l 0,-16 c 0,-0.304 0.138,-0.591 0.375,-0.781 l 15,-12 C 32.556,11.075 32.777,11 33,11 c 0.147,0 0.295,0.033 0.433,0.099 C 33.78,11.265 34,11.616 34,12 l 0,40 c 0,0.384 -0.22,0.735 -0.567,0.901 C 33.295,52.967 33.147,53 33,53 Z"
       id="path19"
       inkscape:connector-curvature="0"
       style="fill:#4f5d73" /><path
       d="M 33,12 33,52 18,40 18,24 33,12 m 0,-2 c -0.446,0 -0.888,0.149 -1.25,0.438 l -15,12 C 16.276,22.818 16,23.392 16,24 l 0,16 c 0,0.607 0.276,1.182 0.751,1.562 l 15,12 C 32.112,53.851 32.554,54 33,54 33.294,54 33.59,53.935 33.866,53.803 34.559,53.47 35,52.769 35,52 L 35,12 C 35,11.231 34.559,10.531 33.866,10.197 33.591,10.065 33.295,10 33,10 l 0,0 z"
       id="path21"
       inkscape:connector-curvature="0"
       style="fill:#4f5d73" /></g><path
     d="m 40.523415,36.496811 c 1.588914,-1.122119 2.633888,-2.938766 2.633888,-5.003812 0,-2.065045 -1.044974,-3.881693 -2.633888,-5.003811"
     stroke-miterlimit="10"
     id="path23"
     style="fill:none;stroke:#ffcfac;stroke-width:3.74658298;stroke-linecap:round;stroke-miterlimit:10;stroke-opacity:1"
     inkscape:connector-curvature="0" /><path
     d="m 40.523415,44.588923 c 5.879869,-1.579371 10.20616,-6.836524 10.20616,-13.095924 0,-6.259399 -4.326291,-11.516554 -10.20616,-13.095924"
     stroke-miterlimit="10"
     id="path25"
     style="fill:none;stroke:#eda771;stroke-width:3.74658298;stroke-linecap:round;stroke-miterlimit:10;stroke-opacity:1"
     inkscape:connector-curvature="0" /><path
     d="m 40.523415,52.17188 c 10.093838,-1.710367 17.778432,-10.305456 17.778432,-20.678881 0,-10.373425 -7.684594,-18.968514 -17.778432,-20.67888"
     stroke-miterlimit="10"
     id="path27"
     style="fill:none;stroke:#ff6e00;stroke-width:3.74658298;stroke-linecap:round;stroke-miterlimit:10;stroke-opacity:1"
     inkscape:connector-curvature="0" /></svg>