<?xml version="1.0" encoding="UTF-8" standalone="no"?>
<svg
   xmlns:dc="http://purl.org/dc/elements/1.1/"
   xmlns:cc="http://creativecommons.org/ns#"
   xmlns:rdf="http://www.w3.org/1999/02/22-rdf-syntax-ns#"
   xmlns:svg="http://www.w3.org/2000/svg"
   xmlns="http://www.w3.org/2000/svg"
   xmlns:sodipodi="http://sodipodi.sourceforge.net/DTD/sodipodi-0.dtd"
   xmlns:inkscape="http://www.inkscape.org/namespaces/inkscape"
   enable-background="new 0 0 64 64"
   height="64px"
   version="1.1"
   viewBox="0 0 64 64"
   width="64px"
   xml:space="preserve"
   id="svg2"
   inkscape:version="0.91 r13725"
   sodipodi:docname="code.svg"><metadata
     id="metadata48"><rdf:RDF><cc:Work
         rdf:about=""><dc:format>image/svg+xml</dc:format><dc:type
           rdf:resource="http://purl.org/dc/dcmitype/StillImage" /></cc:Work></rdf:RDF></metadata><defs
     id="defs46" /><sodipodi:namedview
     pagecolor="#ffffff"
     bordercolor="#666666"
     borderopacity="1"
     objecttolerance="10"
     gridtolerance="10"
     guidetolerance="10"
     inkscape:pageopacity="0"
     inkscape:pageshadow="2"
     inkscape:window-width="1363"
     inkscape:window-height="819"
     id="namedview44"
     showgrid="false"
     inkscape:zoom="3.6875"
     inkscape:cx="-33.627119"
     inkscape:cy="32"
     inkscape:window-x="10"
     inkscape:window-y="34"
     inkscape:window-maximized="0"
     inkscape:current-layer="Layer_1" /><g
     id="Layer_1"><g
       id="g9"
       transform="matrix(1.21312,0,0,1.413895,-6.9553236,-13.515837)"
       style="opacity:0.2"><g
         id="g11"><g
           id="g13"><path
             d="m 42.461,44 c -0.671,0 -1.326,-0.338 -1.705,-0.951 -0.58,-0.94 -0.287,-2.172 0.653,-2.752 l 10.124,-6.242 c 0.005,-0.018 0.007,-0.036 0.007,-0.056 0,-0.02 -0.002,-0.038 -0.007,-0.056 L 41.41,27.703 c -0.94,-0.58 -1.232,-1.812 -0.653,-2.752 0.58,-0.94 1.812,-1.232 2.752,-0.653 l 10.63,6.554 0.165,0.165 c 0.797,0.797 1.236,1.856 1.236,2.983 0,1.126 -0.439,2.186 -1.236,2.983 l -0.166,0.166 -10.63,6.554 C 43.182,43.904 42.819,44 42.461,44 Z"
             id="path15"
             inkscape:connector-curvature="0"
             style="fill:#231f20" /></g></g><g
         id="g17"><g
           id="g19"><path
             d="m 21.539,44 c -0.358,0 -0.721,-0.096 -1.048,-0.298 L 9.861,37.148 9.695,36.982 C 8.898,36.186 8.459,35.126 8.459,34 c 0,-1.127 0.439,-2.187 1.236,-2.983 L 9.86,30.852 20.49,24.298 c 0.941,-0.58 2.172,-0.287 2.752,0.653 0.58,0.94 0.287,2.172 -0.653,2.752 l -10.124,6.242 c -0.005,0.018 -0.007,0.036 -0.007,0.056 0,0.02 0.002,0.038 0.007,0.056 l 10.124,6.242 c 0.94,0.58 1.232,1.812 0.653,2.752 C 22.865,43.663 22.209,44 21.539,44 Z"
             id="path21"
             inkscape:connector-curvature="0"
             style="fill:#231f20" /></g></g></g><g
       opacity="0.2"
       id="g23"><g
         id="g25"><path
           d="M25.5,53c-0.237,0-0.479-0.042-0.714-0.132c-1.032-0.395-1.548-1.551-1.154-2.583l13-34     c0.395-1.032,1.551-1.549,2.583-1.154c1.032,0.395,1.548,1.551,1.154,2.583l-13,34C27.063,52.511,26.305,53,25.5,53z"
           fill="#231F20"
           id="path27" /></g></g><g
       id="g29"
       style="fill:#ff6e00;fill-opacity:1"
       transform="matrix(1.21312,0,0,1.413895,-6.9553236,-13.515837)"><g
         id="g31"
         style="fill:#ff6e00;fill-opacity:1"><path
           d="m 42.461,42 c -0.671,0 -1.327,-0.337 -1.705,-0.95 -0.58,-0.94 -0.287,-2.173 0.653,-2.752 l 10.123,-6.241 c 0.01,-0.037 0.01,-0.076 0,-0.113 L 41.41,25.702 c -0.94,-0.579 -1.233,-1.812 -0.653,-2.752 0.58,-0.94 1.811,-1.233 2.752,-0.652 l 10.631,6.554 0.166,0.165 c 1.644,1.646 1.644,4.321 0,5.967 L 54.14,35.149 43.509,41.703 C 43.182,41.904 42.819,42 42.461,42 Z"
           id="path33"
           style="fill:#ff6e00;fill-opacity:1"
           inkscape:connector-curvature="0" /></g><g
         id="g35"
         style="fill:#ff6e00;fill-opacity:1"><path
           d="m 21.539,42 c -0.358,0 -0.72,-0.096 -1.047,-0.298 L 9.86,35.148 9.694,34.983 C 8.05,33.337 8.05,30.662 9.694,29.016 L 9.86,28.851 20.491,22.297 c 0.939,-0.581 2.173,-0.288 2.752,0.652 0.58,0.94 0.287,2.173 -0.653,2.752 l -10.123,6.241 c -0.01,0.037 -0.01,0.076 0,0.113 l 10.123,6.241 c 0.94,0.579 1.233,1.812 0.653,2.752 C 22.865,41.663 22.209,42 21.539,42 Z"
           id="path37"
           style="fill:#ff6e00;fill-opacity:1"
           inkscape:connector-curvature="0" /></g></g><g
       id="g39"
       style="fill:#ff6e00;fill-opacity:1"
       transform="matrix(1.21312,0,0,1.413895,-6.9553236,-13.515837)"><path
         d="m 25.5,51.001 c -0.237,0 -0.479,-0.043 -0.714,-0.133 -1.032,-0.395 -1.548,-1.551 -1.154,-2.582 l 13,-34 c 0.395,-1.031 1.551,-1.55 2.583,-1.154 1.032,0.395 1.548,1.551 1.154,2.582 l -13,34 c -0.306,0.797 -1.064,1.287 -1.869,1.287 z"
         id="path41"
         style="fill:#ff6e00;fill-opacity:1"
         inkscape:connector-curvature="0" /></g></g><g
     id="Layer_2" /></svg>