<?xml version="1.0" encoding="UTF-8" standalone="no"?>
<svg
   xmlns:dc="http://purl.org/dc/elements/1.1/"
   xmlns:cc="http://creativecommons.org/ns#"
   xmlns:rdf="http://www.w3.org/1999/02/22-rdf-syntax-ns#"
   xmlns:svg="http://www.w3.org/2000/svg"
   xmlns="http://www.w3.org/2000/svg"
   xmlns:sodipodi="http://sodipodi.sourceforge.net/DTD/sodipodi-0.dtd"
   xmlns:inkscape="http://www.inkscape.org/namespaces/inkscape"
   enable-background="new 0 0 64 64"
   height="64px"
   id="Layer_1"
   version="1.1"
   viewBox="0 0 64 64"
   width="64px"
   xml:space="preserve"
   inkscape:version="0.91 r13725"
   sodipodi:docname="draw.svg"><metadata
     id="metadata21"><rdf:RDF><cc:Work
         rdf:about=""><dc:format>image/svg+xml</dc:format><dc:type
           rdf:resource="http://purl.org/dc/dcmitype/StillImage" /></cc:Work></rdf:RDF></metadata><defs
     id="defs19" /><sodipodi:namedview
     pagecolor="#ffffff"
     bordercolor="#666666"
     borderopacity="1"
     objecttolerance="10"
     gridtolerance="10"
     guidetolerance="10"
     inkscape:pageopacity="0"
     inkscape:pageshadow="2"
     inkscape:window-width="742"
     inkscape:window-height="480"
     id="namedview17"
     showgrid="false"
     inkscape:zoom="3.6875"
     inkscape:cx="31.728814"
     inkscape:cy="32"
     inkscape:window-x="10"
     inkscape:window-y="34"
     inkscape:window-maximized="0"
     inkscape:current-layer="Layer_1" /><path
     d="M 57.622814,7.7394251 C 54.989211,4.8829796 39.856554,16.664893 30.545616,26.763678 c -4.580534,4.968117 -6.891239,8.59889 -7.750941,11.351896 -2.872029,-0.302935 -5.998837,0.843782 -8.057489,3.076627 -1.318845,1.430439 -2.040941,3.01604 -2.580467,4.731681 -1.03682,3.296807 -2.035491,7.425576 -6.1228207,10.366253 3.0464232,3.304195 14.9650777,4.233685 20.7459247,-2.036309 0.611736,-0.663498 1.13219,-1.428962 1.558635,-2.259444 1.00957,-1.963898 1.455089,-4.282451 1.26026,-6.472442 2.539594,-0.926535 5.892566,-3.434236 10.484,-8.414176 C 49.393656,27.008981 60.256417,10.595871 57.622814,7.7394251 Z"
     id="path5"
     inkscape:connector-curvature="0"
     style="opacity:0.2;fill:#231f20" /><path
     d="m 30.545616,23.808225 c -9.310938,10.098783 -9.274152,14.69008 -6.640549,17.546525 2.633603,2.856446 6.866715,2.896345 16.177651,-7.202439 C 49.393656,24.053527 60.256417,7.6404177 57.622814,4.7839719 54.989211,1.9275263 39.856554,13.709441 30.545616,23.808225 Z"
     id="path7"
     inkscape:connector-curvature="0"
     style="fill:#e0995e" /><g
     id="g9"
     transform="matrix(1.3624433,0,0,1.4777266,-10.315421,-16.103694)"><path
       d="m 12,46.99 c 2.236,2.237 10.984,2.865 15.227,-1.378 0.449,-0.449 0.831,-0.967 1.144,-1.529 C 21.734,43.885 18.226,41.675 16.494,39.975 15.733,42.206 15,45 12,46.99 Z"
       id="path11"
       inkscape:connector-curvature="0"
       style="fill:#c75c5c" /><path
       d="m 27.757,36.243 c -2.441,-2.441 -6.928,-1.91 -9.369,0.53 -0.968,0.968 -1.498,2.041 -1.894,3.202 1.732,1.7 5.13,6.942 11.877,4.108 1.39,-2.493 1.378,-5.848 -0.614,-7.84 z"
       id="path13"
       inkscape:connector-curvature="0"
       style="fill:#4f5d73" /></g><path
     d="m 12.158081,42.968428 c 0,0 5.479747,-1.128982 8.090188,3.04264 2.611804,4.171622 8.090189,3.027861 8.090189,3.027861 l -7.091518,4.248464 -7.095605,-5.60354 -1.993254,-4.715425 z"
     id="path15"
     inkscape:connector-curvature="0"
     style="fill:#c75c5c" /></svg>