<?xml version="1.0" encoding="UTF-8" standalone="no"?>
<svg
   xmlns:dc="http://purl.org/dc/elements/1.1/"
   xmlns:cc="http://creativecommons.org/ns#"
   xmlns:rdf="http://www.w3.org/1999/02/22-rdf-syntax-ns#"
   xmlns:svg="http://www.w3.org/2000/svg"
   xmlns="http://www.w3.org/2000/svg"
   xmlns:sodipodi="http://sodipodi.sourceforge.net/DTD/sodipodi-0.dtd"
   xmlns:inkscape="http://www.inkscape.org/namespaces/inkscape"
   enable-background="new 0 0 64 64"
   height="64px"
   version="1.1"
   viewBox="0 0 64 64"
   width="64px"
   xml:space="preserve"
   id="svg2"
   inkscape:version="0.91 r13725"
   sodipodi:docname="math.svg"><metadata
     id="metadata72"><rdf:RDF><cc:Work
         rdf:about=""><dc:format>image/svg+xml</dc:format><dc:type
           rdf:resource="http://purl.org/dc/dcmitype/StillImage" /></cc:Work></rdf:RDF></metadata><defs
     id="defs70" /><sodipodi:namedview
     pagecolor="#ffffff"
     bordercolor="#666666"
     borderopacity="1"
     objecttolerance="10"
     gridtolerance="10"
     guidetolerance="10"
     inkscape:pageopacity="0"
     inkscape:pageshadow="2"
     inkscape:window-width="1415"
     inkscape:window-height="684"
     id="namedview68"
     showgrid="false"
     inkscape:zoom="3.6875"
     inkscape:cx="-34.847458"
     inkscape:cy="32"
     inkscape:window-x="10"
     inkscape:window-y="34"
     inkscape:window-maximized="0"
     inkscape:current-layer="Layer_1" /><g
     id="Layer_1"><g
       id="g9"
       transform="matrix(1.4,0,0,1.4472327,-12.664407,-16.566343)"
       style="opacity:0.2"><g
         id="g11"><circle
           cx="44"
           cy="39"
           r="2"
           id="circle13"
           style="fill:#231f20" /></g><g
         id="g15"><circle
           cx="44"
           cy="51"
           r="2"
           id="circle17"
           style="fill:#231f20" /></g><g
         id="g19"><path
           d="m 26,22 -4,0 0,-4 c 0,-1.105 -0.895,-2 -2,-2 -1.105,0 -2,0.895 -2,2 l 0,4 -4,0 c -1.105,0 -2,0.895 -2,2 0,1.104 0.895,2 2,2 l 4,0 0,4 c 0,1.104 0.895,2 2,2 1.105,0 2,-0.896 2,-2 l 0,-4 4,0 c 1.105,0 2,-0.896 2,-2 0,-1.105 -0.895,-2 -2,-2 z"
           id="path21"
           inkscape:connector-curvature="0"
           style="fill:#231f20" /></g><g
         id="g23"><path
           d="m 38,26 12,0 c 1.105,0 2,-0.896 2,-2 0,-1.105 -0.895,-2 -2,-2 l -12,0 c -1.105,0 -2,0.895 -2,2 0,1.104 0.895,2 2,2 z"
           id="path25"
           inkscape:connector-curvature="0"
           style="fill:#231f20" /></g><g
         id="g27"><path
           d="m 50,43 -12,0 c -1.105,0 -2,0.895 -2,2 0,1.104 0.895,2 2,2 l 12,0 c 1.105,0 2,-0.896 2,-2 0,-1.105 -0.895,-2 -2,-2 z"
           id="path29"
           inkscape:connector-curvature="0"
           style="fill:#231f20" /></g><g
         id="g31"><path
           d="m 26.828,39.172 c -0.781,-0.781 -2.047,-0.781 -2.828,0 l -4,4 -4,-4 c -0.781,-0.781 -2.047,-0.781 -2.828,0 -0.781,0.781 -0.781,2.047 0,2.828 l 4,4 -4,4 c -0.781,0.781 -0.781,2.047 0,2.828 0.781,0.781 2.047,0.781 2.828,0 l 4,-4 4,4 c 0.781,0.781 2.047,0.781 2.828,0 0.781,-0.781 0.781,-2.047 0,-2.828 l -4,-4 4,-4 c 0.781,-0.781 0.781,-2.047 0,-2.828 z"
           id="path33"
           inkscape:connector-curvature="0"
           style="fill:#231f20" /></g></g><g
       id="g35"
       transform="matrix(1.4,0,0,1.4472327,-12.664407,-16.566343)"><circle
         cx="44"
         cy="37"
         r="2"
         id="circle37"
         style="fill:#e0e0d1" /></g><g
       id="g39"
       transform="matrix(1.4,0,0,1.4472327,-12.664407,-16.566343)"><circle
         cx="44"
         cy="49"
         r="2"
         id="circle41"
         style="fill:#e0e0d1" /></g><g
       id="g43"
       transform="matrix(1.4,0,0,1.4472327,-12.664407,-16.566343)"><path
         d="m 28,22 c 0,1.105 -0.895,2 -2,2 l -12,0 c -1.105,0 -2,-0.895 -2,-2 l 0,0 c 0,-1.105 0.895,-2 2,-2 l 12,0 c 1.105,0 2,0.895 2,2 l 0,0 z"
         id="path45"
         inkscape:connector-curvature="0"
         style="fill:#f5cf87" /></g><g
       id="g47"
       transform="matrix(1.4,0,0,1.4472327,-12.664407,-16.566343)"><path
         d="m 52,22 c 0,1.105 -0.895,2 -2,2 l -12,0 c -1.105,0 -2,-0.895 -2,-2 l 0,0 c 0,-1.105 0.895,-2 2,-2 l 12,0 c 1.105,0 2,0.895 2,2 l 0,0 z"
         id="path49"
         inkscape:connector-curvature="0"
         style="fill:#e0995e" /></g><g
       id="g51"
       transform="matrix(1.4,0,0,1.4472327,-12.664407,-16.566343)"><path
         d="m 20,30 c -1.105,0 -2,-0.895 -2,-2 l 0,-12 c 0,-1.105 0.895,-2 2,-2 l 0,0 c 1.105,0 2,0.895 2,2 l 0,12 c 0,1.105 -0.895,2 -2,2 l 0,0 z"
         id="path53"
         inkscape:connector-curvature="0"
         style="fill:#f5cf87" /></g><g
       id="g55"
       transform="matrix(1.4,0,0,1.4472327,-12.664407,-16.566343)"><path
         d="m 52,43 c 0,1.105 -0.895,2 -2,2 l -12,0 c -1.105,0 -2,-0.895 -2,-2 l 0,0 c 0,-1.105 0.895,-2 2,-2 l 12,0 c 1.105,0 2,0.895 2,2 l 0,0 z"
         id="path57"
         inkscape:connector-curvature="0"
         style="fill:#e0e0d1" /></g><g
       id="g59"
       transform="matrix(1.4,0,0,1.4472327,-12.664407,-16.566343)"><path
         d="m 26.828,50.828 c -0.781,0.781 -2.047,0.781 -2.828,0 L 13.172,40 c -0.781,-0.781 -0.781,-2.047 0,-2.828 l 0,0 c 0.781,-0.781 2.047,-0.781 2.828,0 L 26.828,48 c 0.781,0.781 0.781,2.047 0,2.828 l 0,0 z"
         id="path61"
         inkscape:connector-curvature="0"
         style="fill:#76c2af" /></g><g
       id="g63"
       transform="matrix(1.4,0,0,1.4472327,-12.664407,-16.566343)"><path
         d="m 13.172,50.828 c -0.781,-0.781 -0.781,-2.047 0,-2.828 L 24,37.172 c 0.781,-0.781 2.047,-0.781 2.828,0 l 0,0 c 0.781,0.781 0.781,2.047 0,2.828 L 16,50.828 c -0.781,0.781 -2.047,0.781 -2.828,0 l 0,0 z"
         id="path65"
         inkscape:connector-curvature="0"
         style="fill:#76c2af" /></g></g><g
     id="Layer_2" /></svg>