<?xml version="1.0" encoding="utf-8"?>
<!-- Generator: Adobe Illustrator 21.1.0, SVG Export Plug-In . SVG Version: 6.00 Build 0)  -->
<svg version="1.1" id="Layer_1" xmlns="http://www.w3.org/2000/svg" xmlns:xlink="http://www.w3.org/1999/xlink" x="0px" y="0px"
	 viewBox="0 0 30 30" style="enable-background:new 0 0 30 30;" xml:space="preserve">
<style type="text/css">
	.st0{fill:#CC0000;}
	.st1{fill:none;stroke:#FFFFFF;stroke-width:1.4;stroke-linejoin:round;stroke-miterlimit:10;}
</style>
<polyline class="st0" points="30,28.7 0,28.7 0,0 30,0 30,28.7 "/>
<path class="st1" d="M15.4,4.4c0.5,0.2,0.4,0.5,0.2,1.8c-0.1,1.3-0.6,3.8-1.5,6.2c-0.9,2.4-2.3,4.8-3.5,6.5c-1.2,1.8-2.2,2.9-3,3.6
	c-0.8,0.7-1.3,0.8-1.7,0.9c-0.3,0.1-0.5,0-0.6-0.2c-0.1-0.2-0.1-0.5,0-0.8c0.1-0.4,0.3-0.8,0.8-1.3c0.5-0.5,1.4-1.2,2.7-1.8
	c1.2-0.6,2.8-1.2,4.1-1.5c1.3-0.4,2.3-0.6,3.2-0.7c0.9-0.2,1.6-0.3,2.4-0.3c0.7-0.1,1.5-0.1,2.2,0c0.7,0.1,1.4,0.2,2,0.3
	c0.6,0.1,1.1,0.3,1.6,0.6c0.4,0.3,0.8,0.7,1,1.1c0.2,0.4,0.2,0.9,0,1.2c-0.2,0.3-0.5,0.5-0.8,0.7c-0.4,0.1-0.8,0.1-1.3,0
	c-0.5-0.1-1.1-0.5-1.7-0.9c-0.6-0.4-1.2-1-2.1-1.8c-0.8-0.8-1.8-1.9-2.7-3s-1.6-2.1-2-3c-0.5-0.9-0.7-1.6-0.9-2.4
	c-0.2-0.7-0.4-1.5-0.4-2.1s0-1.2,0-1.7c0.1-0.5,0.2-0.8,0.3-1.1c0.2-0.2,0.4-0.3,0.5-0.4s0.3-0.1,0.3-0.1s0.2,0,0.3,0
	C15.1,4.2,15.2,4.3,15.4,4.4"/>
</svg>
