<?xml version="1.0" ?><!DOCTYPE svg  PUBLIC '-//W3C//DTD SVG 1.1//EN'  'http://www.w3.org/Graphics/SVG/1.1/DTD/svg11.dtd'><svg enable-background="new 0 0 30 30" height="30px" id="Layer_1" version="1.1" viewBox="0 0 30 30" width="30px" xml:space="preserve" xmlns="http://www.w3.org/2000/svg" xmlns:xlink="http://www.w3.org/1999/xlink"><g><polyline clip-rule="evenodd" fill="#DD5B26" fill-rule="evenodd" points="30.103,28.75 0,28.75 0,0 30.103,0 30.103,28.75  "/><path d="M17.364,12.962c0-0.536-0.164-0.968-0.494-1.287c-0.332-0.322-0.896-0.482-1.69-0.482h-1.328v3.589h1.318   c0.854,0,1.441-0.178,1.76-0.529C17.221,13.935,17.364,13.505,17.364,12.962 M20.88,12.926c0,1.185-0.3,2.165-0.896,2.941   c-0.772,1.005-2.057,1.508-3.854,1.508h-2.279v4.585h-3.514V8.6h5.733c1.628,0,2.865,0.453,3.714,1.356   C20.515,10.73,20.88,11.72,20.88,12.926z" fill="#FFFFFF"/></g></svg>