<?xml version="1.0" encoding="UTF-8" standalone="no"?>
<svg
   xmlns:dc="http://purl.org/dc/elements/1.1/"
   xmlns:cc="http://creativecommons.org/ns#"
   xmlns:rdf="http://www.w3.org/1999/02/22-rdf-syntax-ns#"
   xmlns:svg="http://www.w3.org/2000/svg"
   xmlns="http://www.w3.org/2000/svg"
   xmlns:sodipodi="http://sodipodi.sourceforge.net/DTD/sodipodi-0.dtd"
   xmlns:inkscape="http://www.inkscape.org/namespaces/inkscape"
   enable-background="new 0 0 64 64"
   height="64px"
   id="Layer_1"
   version="1.1"
   viewBox="0 0 64 64"
   width="64px"
   xml:space="preserve"
   inkscape:version="0.91 r13725"
   sodipodi:docname="video.svg"><metadata
     id="metadata21"><rdf:RDF><cc:Work
         rdf:about=""><dc:format>image/svg+xml</dc:format><dc:type
           rdf:resource="http://purl.org/dc/dcmitype/StillImage" /></cc:Work></rdf:RDF></metadata><defs
     id="defs19" /><sodipodi:namedview
     pagecolor="#ffffff"
     bordercolor="#666666"
     borderopacity="1"
     objecttolerance="10"
     gridtolerance="10"
     guidetolerance="10"
     inkscape:pageopacity="0"
     inkscape:pageshadow="2"
     inkscape:window-width="1187"
     inkscape:window-height="735"
     id="namedview17"
     showgrid="false"
     inkscape:zoom="3.6875"
     inkscape:cx="-27.196208"
     inkscape:cy="32"
     inkscape:window-x="10"
     inkscape:window-y="34"
     inkscape:window-maximized="0"
     inkscape:current-layer="Layer_1" /><path
     d="m 32,12.191599 c 12.371841,0 22.437596,9.883991 22.437596,22.032425 0,12.148434 -10.065755,22.032424 -22.437596,22.032424 -12.371841,0 -22.4375963,-9.88399 -22.4375963,-22.032424 C 9.5624037,22.07559 19.628159,12.191599 32,12.191599 m 0,-4.8960942 c -15.145378,0 -27.4237288,12.0566322 -27.4237288,26.9285192 0,14.871886 12.2783508,26.928518 27.4237288,26.928518 15.145378,0 27.423729,-12.056632 27.423729,-26.928518 C 59.423729,19.352137 47.145378,7.2955048 32,7.2955048 l 0,0 z"
     id="path5"
     inkscape:connector-curvature="0"
     style="opacity:0.2;fill:#231f20" /><g
     id="g7"
     transform="matrix(1.2465331,0,0,1.2240236,-7.8890601,-7.3927782)"
     style="opacity:0.2"><path
       d="m 28,44.619 c -0.345,0 -0.69,-0.089 -1,-0.268 -0.619,-0.357 -1,-1.018 -1,-1.732 l 0,-17.238 c 0,-0.714 0.381,-1.375 1,-1.732 0.619,-0.357 1.381,-0.357 2,0 l 12,8.619 c 0.619,0.357 1,1.017 1,1.732 0,0.715 -0.381,1.375 -1,1.732 l -12,8.619 c -0.31,0.178 -0.655,0.268 -1,0.268 z"
       id="path9"
       inkscape:connector-curvature="0"
       style="fill:#231f20" /></g><path
     d="m 32,9.743552 c 12.371841,0 22.437596,9.88399 22.437596,22.032424 C 54.437596,43.92441 44.371841,53.808401 32,53.808401 19.628159,53.808401 9.5624037,43.92441 9.5624037,31.775976 9.5624037,19.627542 19.628159,9.743552 32,9.743552 m 0,-4.8960944 c -15.145378,0 -27.4237288,12.0566324 -27.4237288,26.9285184 0,14.871887 12.2783508,26.928519 27.4237288,26.928519 15.145378,0 27.423729,-12.056632 27.423729,-26.928519 C 59.423729,16.90409 47.145378,4.8474576 32,4.8474576 l 0,0 z"
     id="path11"
     style="fill:#ff6e00;fill-opacity:1"
     inkscape:connector-curvature="0" /><g
     id="g13"
     transform="matrix(1.2465331,0,0,1.2240236,-7.8890601,-7.3927782)"><path
       d="m 28,42.619 c -0.345,0 -0.69,-0.089 -1,-0.268 -0.619,-0.357 -1,-1.018 -1,-1.732 l 0,-17.238 c 0,-0.714 0.381,-1.375 1,-1.732 0.619,-0.357 1.381,-0.357 2,0 l 12,8.619 c 0.619,0.357 1,1.017 1,1.732 0,0.714 -0.381,1.375 -1,1.732 l -12,8.619 c -0.31,0.178 -0.655,0.268 -1,0.268 z"
       id="path15"
       inkscape:connector-curvature="0"
       style="fill:#f5cf87" /></g></svg>