<!DOCTYPE svg PUBLIC "-//W3C//DTD SVG 1.1//EN" "http://www.w3.org/Graphics/SVG/1.1/DTD/svg11.dtd" [
	<!ENTITY ns_flows "http://ns.adobe.com/Flows/1.0/">
]><svg xmlns="http://www.w3.org/2000/svg" width="16" height="16" viewBox="0 0 16 16" preserveAspectRatio="xMinYMid meet" overflow="visible"><path d="M15.9 9.3c.1-.4.1-.9.1-1.3s0-.9-.1-1.3l-2.1-.4c-.1-.4-.3-.8-.5-1.2l1.2-1.8c-.5-.7-1.1-1.3-1.9-1.8l-1.8 1.2c-.4-.2-.8-.4-1.2-.5L9.3.1C8.9 0 8.4 0 8 0s-.9 0-1.3.1l-.4 2.1c-.4.2-.8.3-1.2.5L3.4 1.5C2.6 2 2 2.6 1.5 3.4l1.2 1.8c-.2.3-.3.7-.5 1.1l-2.1.4C0 7.1 0 7.6 0 8s0 .9.1 1.3l2.1.4c.1.4.3.8.5 1.2l-1.2 1.8c.5.7 1.1 1.3 1.9 1.8l1.8-1.2c.4.2.8.4 1.2.5l.4 2.1c.3.1.8.1 1.2.1s.9 0 1.3-.1l.4-2.1c.4-.1.8-.3 1.2-.5l1.8 1.2c.7-.5 1.3-1.1 1.9-1.9l-1.2-1.8c.2-.4.4-.8.5-1.2l2-.3zM8 10c-1.1 0-2-.9-2-2s.9-2 2-2 2 .9 2 2-.9 2-2 2z" fill="#999"/></svg>