<svg id="Layer_1" data-name="Layer 1" xmlns="http://www.w3.org/2000/svg" width="48" height="48" viewBox="0 0 48 48"><defs><style>.cls-1{fill:#09c;}.cls-2{fill:#fff;}</style></defs><title>48px_sourcefile_20170718_multi</title><circle class="cls-1" cx="24" cy="24.01" r="24"/><path class="cls-2" d="M13.67,21.52V12c0-.34,0-.67.32-.88a1,1,0,0,1,1.09.09,6.24,6.24,0,0,1,3.06,4.37,24.18,24.18,0,0,1,.21,3.3c0,3.51,0,7,0,10.52a8.79,8.79,0,0,0,.15,1.57,1.2,1.2,0,0,0,1.07,1,8.46,8.46,0,0,0,1.37.13l6.71,0a3.59,3.59,0,0,0,.77-.09,1.09,1.09,0,0,0,.94-.94,4.89,4.89,0,0,0,.09-.9c0-1.91,0-3.82,0-5.74,0-1.14-.39-1.5-1.54-1.58a18.42,18.42,0,0,1-4-.51,6.51,6.51,0,0,1-3.13-1.8,6.33,6.33,0,0,1-1-1.72c-.22-.51,0-.79.56-.83a12.69,12.69,0,0,1,1.46,0c2.21,0,4.42.06,6.64.06a6.13,6.13,0,0,1,5.81,5.27,20,20,0,0,1,.13,2.36c0,1.76,0,3.53,0,5.29a6,6,0,0,1-5.1,5.76,34.36,34.36,0,0,1-10.56,0,5.82,5.82,0,0,1-4.84-5.32c-.11-1.91-.08-3.84-.08-5.78,0-1.35,0-2.7,0-4Z"/></svg>