<svg id="Layer_1" data-name="Layer 1" xmlns="http://www.w3.org/2000/svg" width="48" height="48" viewBox="0 0 48 48"><defs><style>.cls-1{fill:#06c;}.cls-2{fill:#fff;}</style></defs><title>48px_sourcefile_20170718_multi</title><circle class="cls-1" cx="24" cy="24" r="24"/><path id="path1" class="cls-2" d="M18.52,27.66h6.4a.91.91,0,0,1,0,1.83h-6.4a.91.91,0,0,1,0-1.83Zm0-3.66h8.23a.91.91,0,1,1,0,1.83H18.52a.91.91,0,0,1,0-1.83Zm0-3.66h11a.91.91,0,1,1,0,1.83h-11a.91.91,0,0,1,0-1.83ZM28.57,12.5V15.8h3.31ZM14.86,11.2V36.8H33.14V17.63h-6.4V11.2Zm0-1.83H28L35,16.31V36.8a1.83,1.83,0,0,1-1.83,1.83H14.86A1.83,1.83,0,0,1,13,36.8V11.2A1.83,1.83,0,0,1,14.86,9.38Z"/></svg>