<svg xmlns="http://www.w3.org/2000/svg" style="isolation:isolate" width="16" height="16" preserveAspectRatio="xMinYMid meet"><defs><clipPath id="a"><path d="M0 0h16v16H0z"/></clipPath></defs><g clip-path="url(#a)"><path d="M9.173 11.5v.85h1.5l-2.6 2.9-2.8-2.9h1.6v-.85h2.3zM4.478 9.15h-.85v1.5l-2.9-2.6 2.9-2.8v1.6h.85v2.3zM6.884 4.5v-.85h-1.5L7.983.75l2.801 2.9h-1.6v.85h-2.3zM11.522 6.75h.851v-1.5l2.899 2.6-2.899 2.8v-1.6h-.851v-2.3zM5.361 5h5.279v1.76h-.24a1.601 1.601 0 0 0-.719-1.28l-.96-.16v4.64a.876.876 0 0 0 .16.64c.215.133.468.189.72.16V11h-3.12v-.24a1.04 1.04 0 0 0 .64-.16.885.885 0 0 0 .16-.64V5.32l-.96.16A1.523 1.523 0 0 0 5.6 6.76h-.239V5z"/></g></svg>