<?xml version="1.0" encoding="utf-8"?>
<!-- Generator: Adobe Illustrator 25.2.1, SVG Export Plug-In . SVG Version: 6.00 Build 0)  -->
<svg width="24px" height="24px" version="1.1" id="Layer_1" xmlns="http://www.w3.org/2000/svg" xmlns:xlink="http://www.w3.org/1999/xlink" x="0px" y="0px"
	 viewBox="0 0 74.4 74.4" style="enable-background:new 0 0 74.4 74.4;" xml:space="preserve" preserveAspectRatio="xMinYMid meet">
<path d="M72.4,32.9C67.8,24.3,57.9,20.4,49,20.6c-1.3-4.3-3.9-7.9-7.4-10.4c-11.9-8.8-31.7-7-39.6,7c-5.1,9.5,0.2,20.1,8.7,24.6v9.5
	c0,1.3,1.1,2.4,2.2,2.4c0.6,0,1.1-0.2,1.4-0.6l7.5-7.8c1.2,0.1,2.4,0.2,3.6,0.1C29,57,41.9,62.1,52.6,61l7.5,7.8
	c0.9,0.9,2.2,0.9,3.1-0.1c0.3-0.4,0.6-1,0.6-1.5v-9.6C72.3,53.1,77.5,42.4,72.4,32.9z M14.1,37.9C6.4,34.2,2.8,26.6,6.5,19.5
	c3.8-6.6,11.3-9.3,18.1-9.4c4.8-0.1,9.5,1.3,13.5,4.2c2.5,1.8,4.3,4,5.4,7c-9,1.3-18.9,8.4-18.9,19c-1.1,0-2.2-0.1-3.4-0.2
	c-0.6-0.1-1.2,0.2-1.7,0.5l-4.4,4.5v-5.3C15.3,39.2,14.8,38.4,14.1,37.9z M31.3,35.2c6.5-11,23.1-12,32.4-4.8
	c3.1,2.4,5.8,6.3,5.7,10.7c0,5.2-3.4,9.9-9.1,12.8c-0.7,0.3-1.2,1.1-1.2,2v5.4l-4.4-4.5c-0.5-0.6-1.2-0.7-1.8-0.6
	c-1.2,0.2-2.2,0.2-3.4,0.2c-2.6,0-5.2-0.4-7.8-1.2C33.9,52.6,26.5,44.1,31.3,35.2L31.3,35.2z"/>
</svg>
