<?xml version="1.0" encoding="utf-8"?>
<!-- Generator: Adobe Illustrator 15.1.0, SVG Export Plug-In  -->
<!DOCTYPE svg PUBLIC "-//W3C//DTD SVG 1.1//EN" "http://www.w3.org/Graphics/SVG/1.1/DTD/svg11.dtd" [
	<!ENTITY ns_flows "http://ns.adobe.com/Flows/1.0/">
]>
<svg version="1.1"
	 xmlns="http://www.w3.org/2000/svg" xmlns:xlink="http://www.w3.org/1999/xlink" xmlns:a="http://ns.adobe.com/AdobeSVGViewerExtensions/3.0/"
	 x="0px" y="0px" width="24px" height="24px" viewBox="-0.1 -0.1 24 24"
	 style="overflow:visible;enable-background:new -0.1 -0.1 24 24;" xml:space="preserve" preserveAspectRatio="xMinYMid meet">
<defs>
</defs>
<linearGradient id="SVGID_1_" gradientUnits="userSpaceOnUse" x1="10.9429" y1="0" x2="10.9429" y2="19.7881">
	<stop  offset="0" style="stop-color:#76A1F0"/>
	<stop  offset="1" style="stop-color:#6B90D5"/>
	<a:midPointStop  offset="0" style="stop-color:#76A1F0"/>
	<a:midPointStop  offset="0.5" style="stop-color:#76A1F0"/>
	<a:midPointStop  offset="1" style="stop-color:#6B90D5"/>
</linearGradient>
<path style="fill:url(#SVGID_1_);" d="M10.8,0C4.7,0.1-0.1,4.3,0,9.3c0,2.6,1.5,5,3.7,6.6c0,0.1,0,0.2,0.1,0.3
	c0.3,2-0.9,3.6-0.9,3.6s2.2-0.5,3.5-1.5c0.2-0.2,0.5-0.4,0.7-0.7c1.3,0.4,2.6,0.6,4.1,0.6c6-0.1,10.9-4.3,10.8-9.3
	C21.8,3.9,16.8-0.1,10.8,0z"/>
<linearGradient id="SVGID_2_" gradientUnits="userSpaceOnUse" x1="10.9434" y1="1" x2="10.9434" y2="18.1289">
	<stop  offset="0" style="stop-color:#BBE0F7"/>
	<stop  offset="1" style="stop-color:#82B4FB"/>
	<a:midPointStop  offset="0" style="stop-color:#BBE0F7"/>
	<a:midPointStop  offset="0.5" style="stop-color:#BBE0F7"/>
	<a:midPointStop  offset="1" style="stop-color:#82B4FB"/>
</linearGradient>
<path style="fill:url(#SVGID_2_);" d="M4.6,18.1c0.1-0.6,0.2-1.3,0.1-2.1c0-0.1,0-0.2-0.1-0.3l-0.1-0.4l-0.3-0.3
	C2.2,13.6,1,11.5,1,9.3C0.9,4.8,5.3,1.1,10.8,1L11,1c5.4,0,9.8,3.5,9.9,7.9c0.1,4.5-4.3,8.2-9.8,8.3l-0.2,0c-1.2,0-2.4-0.2-3.5-0.5
	l-0.6-0.2l-0.4,0.5c-0.2,0.2-0.4,0.4-0.5,0.6C5.4,17.7,5,17.9,4.6,18.1z"/>
<linearGradient id="SVGID_3_" gradientUnits="userSpaceOnUse" x1="10.9434" y1="2" x2="10.9434" y2="16.1631">
	<stop  offset="0" style="stop-color:#95BFF8"/>
	<stop  offset="0.5569" style="stop-color:#84ADEF"/>
	<stop  offset="1" style="stop-color:#7CA4EB"/>
	<a:midPointStop  offset="0" style="stop-color:#95BFF8"/>
	<a:midPointStop  offset="0.4" style="stop-color:#95BFF8"/>
	<a:midPointStop  offset="1" style="stop-color:#7CA4EB"/>
</linearGradient>
<path style="fill:url(#SVGID_3_);" d="M10.8,16.2c-1.1,0-2.2-0.2-3.2-0.5l-1.3-0.4L5.7,16c0,0,0-0.1,0-0.1c0-0.1,0-0.3-0.1-0.4
	l-0.1-0.7l-0.6-0.6l0,0C3,13,2,11.2,2,9.3C1.9,5.3,5.9,2.1,10.8,2L11,2c4.8,0,8.8,3.1,8.8,6.9c0.1,3.9-3.9,7.2-8.8,7.2L10.8,16.2z"
	/>
<path style="fill:#FFFFFF;" d="M16.6,9.6c0,0.7-0.6,1.3-1.2,1.3c-0.7,0-1.3-0.6-1.3-1.3c0-0.7,0.6-1.2,1.3-1.2
	C16,8.4,16.6,8.9,16.6,9.6z M11.5,8.4c-0.7,0-1.2,0.6-1.2,1.2c0,0.7,0.6,1.3,1.2,1.3c0.7,0,1.3-0.6,1.3-1.3
	C12.7,8.9,12.2,8.4,11.5,8.4z M7.5,8.4c-0.7,0-1.3,0.6-1.3,1.2c0,0.7,0.6,1.3,1.3,1.3s1.3-0.6,1.3-1.3C8.8,8.9,8.2,8.4,7.5,8.4z"/>
<linearGradient id="SVGID_4_" gradientUnits="userSpaceOnUse" x1="14.0254" y1="6.667" x2="14.0254" y2="23.8398">
	<stop  offset="0" style="stop-color:#F0A829"/>
	<stop  offset="1" style="stop-color:#C7671A"/>
	<a:midPointStop  offset="0" style="stop-color:#F0A829"/>
	<a:midPointStop  offset="0.5" style="stop-color:#F0A829"/>
	<a:midPointStop  offset="1" style="stop-color:#C7671A"/>
</linearGradient>
<path style="fill:url(#SVGID_4_);" d="M20.7,20.5c1.9-1.4,3.2-3.4,3.2-5.7c0.1-4.4-4.3-8-9.8-8.1C8.7,6.6,4.2,10,4.1,14.4
	c-0.1,4.4,4.3,8,9.8,8.1c1.4,0,2.7-0.2,3.9-0.5c1,1.3,3.7,1.9,3.7,1.9S20.3,22.2,20.7,20.5z"/>
<linearGradient id="SVGID_5_" gradientUnits="userSpaceOnUse" x1="14.1436" y1="7.667" x2="14.1436" y2="22.1943">
	<stop  offset="0" style="stop-color:#FFEBA8"/>
	<stop  offset="1" style="stop-color:#F8BE27"/>
	<a:midPointStop  offset="0" style="stop-color:#FFEBA8"/>
	<a:midPointStop  offset="0.5" style="stop-color:#FFEBA8"/>
	<a:midPointStop  offset="1" style="stop-color:#F8BE27"/>
</linearGradient>
<path style="fill:url(#SVGID_5_);" d="M19.9,22.2c-0.5-0.2-1-0.5-1.7-1.4c-0.4,0.1-1.7,0.7-4.2,0.7c-5,0-8.9-3.3-8.8-7.1
	c0.1-3.7,4-6.8,9-6.8c2.3,0,4.7,0.8,6.3,2.2c1.6,1.3,2.5,3.1,2.4,4.9c0,1.9-1,3.7-3.1,5.1C19.7,20.7,19.7,21.6,19.9,22.2z"/>
<linearGradient id="SVGID_6_" gradientUnits="userSpaceOnUse" x1="14.0234" y1="8.6689" x2="14.0234" y2="20.5176">
	<stop  offset="0" style="stop-color:#FFC30F"/>
	<stop  offset="1" style="stop-color:#F5AE0D"/>
	<a:midPointStop  offset="0" style="stop-color:#FFC30F"/>
	<a:midPointStop  offset="0.5" style="stop-color:#FFC30F"/>
	<a:midPointStop  offset="1" style="stop-color:#F5AE0D"/>
</linearGradient>
<path style="fill:url(#SVGID_6_);" d="M13.9,20.5c-6.1-0.2-7.9-4.2-7.8-6.1c0.2-3.2,3.3-5.8,8-5.8c2.1,0,4.3,0.8,5.7,2
	c1.4,1.1,2.1,2.6,2.1,4.1c-0.1,2.9-2.9,4.5-2.9,4.5s-0.2,0.7-0.2,0.9l-0.4-0.5C18.4,19.6,16.5,20.6,13.9,20.5z"/>
<path style="fill:#FFFFFF;" d="M19.4,14.9c0,0.7-0.6,1.3-1.2,1.3c-0.7,0-1.3-0.6-1.3-1.3c0-0.7,0.6-1.2,1.3-1.2
	C18.8,13.7,19.4,14.2,19.4,14.9z M14.3,13.7c-0.7,0-1.2,0.6-1.2,1.2c0,0.7,0.6,1.3,1.2,1.3c0.7,0,1.3-0.6,1.3-1.3
	C15.5,14.2,15,13.7,14.3,13.7z M10.3,13.7c-0.7,0-1.3,0.6-1.3,1.2c0,0.7,0.6,1.3,1.3,1.3s1.3-0.6,1.3-1.3
	C11.6,14.2,11,13.7,10.3,13.7z"/>
</svg>
