<svg width="24" height="24" viewBox="0 0 24 24" fill="none" xmlns="http://www.w3.org/2000/svg" preserveAspectRatio="xMinYMid meet">
<path d="M11.3968 11.3813C11.1206 11.3813 10.8968 11.6052 10.8968 11.8813C10.8968 12.1575 11.1206 12.3813 11.3968 12.3813H18.4024C18.6785 12.3813 18.9024 12.1575 18.9024 11.8813C18.9024 11.6052 18.6785 11.3813 18.4024 11.3813H11.3968Z" fill="#212529"/>
<path d="M10.8968 13.8813C10.8968 13.6052 11.1206 13.3813 11.3968 13.3813H18.4024C18.6785 13.3813 18.9024 13.6052 18.9024 13.8813C18.9024 14.1575 18.6785 14.3813 18.4024 14.3813H11.3968C11.1206 14.3813 10.8968 14.1575 10.8968 13.8813Z" fill="#212529"/>
<path d="M11.3968 15.3813C11.1206 15.3813 10.8968 15.6052 10.8968 15.8813C10.8968 16.1575 11.1206 16.3813 11.3968 16.3813H15.427C15.7031 16.3813 15.927 16.1575 15.927 15.8813C15.927 15.6052 15.7031 15.3813 15.427 15.3813H11.3968Z" fill="#212529"/>
<path fill-rule="evenodd" clip-rule="evenodd" d="M14.5829 3.04627C15.571 4.0343 16.2179 5.236 16.5223 6.50307C17.7083 6.82698 18.8287 7.45472 19.7602 8.38632C22.0432 10.6692 22.5009 14.0847 21.1358 16.8221L22.1134 20.4707C22.1597 20.6433 22.1104 20.8274 21.984 20.9537C21.8577 21.08 21.6736 21.1293 21.5011 21.0831L17.8525 20.1054C15.1151 21.4705 11.6996 21.0128 9.41669 18.7299C8.42797 17.7411 7.7815 16.5398 7.47728 15.273C7.02201 15.1486 6.5763 14.9794 6.14715 14.7654L2.49856 15.743C2.32602 15.7893 2.14191 15.7399 2.0156 15.6136C1.88929 15.4873 1.83996 15.3032 1.88619 15.1307L2.86382 11.4821C1.49877 8.74468 1.95649 5.32918 4.23939 3.04627C7.09569 0.18998 11.7267 0.189979 14.5829 3.04627ZM13.8758 3.75338C14.6131 4.49059 15.1294 5.36375 15.4257 6.29189C13.2857 6.04673 11.0581 6.74487 9.41669 8.38632C7.8327 9.97031 7.12713 12.1001 7.29998 14.1703C7.02232 14.0721 6.75021 13.9538 6.48588 13.8156C6.37036 13.7385 6.22349 13.7097 6.07881 13.7484L3.07626 14.553L3.88079 11.5504C3.91956 11.4057 3.89072 11.2589 3.81365 11.1433C2.56818 8.76198 2.94664 5.75324 4.9465 3.75338C7.41227 1.28761 11.4101 1.28761 13.8758 3.75338ZM10.1238 9.09342C7.65803 11.5592 7.65803 15.557 10.1238 18.0228C12.1237 20.0226 15.1324 20.4011 17.5138 19.1556C17.6293 19.0785 17.7762 19.0497 17.9208 19.0885L20.9234 19.893L20.1189 16.8905C20.0801 16.7458 20.1089 16.5989 20.186 16.4834C21.4315 14.102 21.053 11.0933 19.0531 9.09342C16.5874 6.62766 12.5896 6.62766 10.1238 9.09342Z" fill="#212529"/>
</svg>
