<svg xmlns="http://www.w3.org/2000/svg" style="isolation:isolate" width="16" height="16" preserveAspectRatio="xMinYMid meet"><defs><clipPath id="a"><path d="M0 0h16v16H0z"/></clipPath></defs><g clip-path="url(#a)"><path d="M3.676 8.93l2.249-.229c.072.631.362 1.218.819 1.658a2.495 2.495 0 0 0 1.679.53 2.566 2.566 0 0 0 1.681-.471c.353-.261.562-.671.569-1.108a.996.996 0 0 0-.239-.689 1.899 1.899 0 0 0-.84-.48c-.268-.093-.881-.26-1.84-.5a6.303 6.303 0 0 1-2.608-1.129 3.002 3.002 0 0 1-1.06-2.31 2.938 2.938 0 0 1 .511-1.63c.346-.521.84-.925 1.42-1.16a5.708 5.708 0 0 1 2.249-.399 4.835 4.835 0 0 1 3.249.95 3.338 3.338 0 0 1 1.14 2.519l-2.31.101a2.014 2.014 0 0 0-.641-1.27 2.326 2.326 0 0 0-1.46-.391 2.644 2.644 0 0 0-1.579.41.827.827 0 0 0-.37.71c0 .253.109.493.301.66a6.073 6.073 0 0 0 2.13.77c.861.174 1.701.449 2.499.819a3.23 3.23 0 0 1 1.3 1.21c.32.552.479 1.183.46 1.819a3.385 3.385 0 0 1-.55 1.84 3.28 3.28 0 0 1-1.55 1.279 6.524 6.524 0 0 1-2.489.42 5.002 5.002 0 0 1-3.34-1 4.347 4.347 0 0 1-1.38-2.929z" fill="#999"/><path d="M11.197 15v-1.232h1.231V15h-1.231zm1.119-1.657h-1.119v-.291a1.935 1.935 0 0 1 .179-.896 2.72 2.72 0 0 1 .716-.784c.228-.173.441-.364.639-.571a.772.772 0 0 0 .156-.47.791.791 0 0 0-.235-.616 1.112 1.112 0 0 0-.772-.257 1.123 1.123 0 0 0-.784.268 1.42 1.42 0 0 0-.437.818l-1.119-.135c.029-.518.272-1 .671-1.332a2.366 2.366 0 0 1 1.624-.549 2.454 2.454 0 0 1 1.679.549c.391.314.621.786.627 1.288a1.405 1.405 0 0 1-.235.772 5.05 5.05 0 0 1-.985.985c-.192.14-.356.315-.482.516a1.752 1.752 0 0 0-.123.705zm-10.637.022v-1.119h4.479v1.119H1.679zm0-1.937v-1.119h4.479v1.119H1.679zm13.582-5.676v1.119h-4.299c.049-.437.194-.857.425-1.231a8.236 8.236 0 0 1 1.377-1.512 8.714 8.714 0 0 0 1.008-1.052c.159-.219.249-.48.257-.751a.848.848 0 0 0-.257-.627.943.943 0 0 0-1.221 0c-.173.22-.264.493-.257.773l-1.187-.112A2.007 2.007 0 0 1 11.79.903a2.304 2.304 0 0 1 1.444-.436c.545-.03 1.08.155 1.49.515.354.328.55.793.537 1.276a2.22 2.22 0 0 1-.157.829c-.123.295-.289.57-.492.817a7.781 7.781 0 0 1-.807.817q-.582.538-.739.706a2.317 2.317 0 0 0-.246.336h2.441v-.011zm-7.703.224V4.262h-1.68V3.143h1.68V1.486h1.119v1.657h1.736v1.119H8.677v1.714H7.558zM5.05 5.752v1.119H.75c.049-.437.194-.858.426-1.231a8.192 8.192 0 0 1 1.399-1.512c.369-.321.71-.674 1.019-1.052.159-.219.249-.48.258-.751a.856.856 0 0 0-.224-.627.822.822 0 0 0-.605-.224.818.818 0 0 0-.616.236 1.186 1.186 0 0 0-.257.772L.896 2.359A2.004 2.004 0 0 1 1.579.903 2.302 2.302 0 0 1 3.023.456a2.082 2.082 0 0 1 1.489.515c.355.328.55.793.538 1.276 0 .284-.053.565-.157.829-.125.294-.29.569-.493.817a7.772 7.772 0 0 1-.806.817l-.728.672a2.195 2.195 0 0 0-.246.336h2.43v.034z"/></g></svg>