<?xml version="1.0" encoding="utf-8"?>
<!-- Generator: Adobe Illustrator 21.1.0, SVG Export Plug-In . SVG Version: 6.00 Build 0)  -->
<svg version="1.1"
	 id="svg2" inkscape:version="0.91 r13725" sodipodi:docname="icon.svg" xmlns:cc="http://creativecommons.org/ns#" xmlns:dc="http://purl.org/dc/elements/1.1/" xmlns:inkscape="http://www.inkscape.org/namespaces/inkscape" xmlns:rdf="http://www.w3.org/1999/02/22-rdf-syntax-ns#" xmlns:sodipodi="http://sodipodi.sourceforge.net/DTD/sodipodi-0.dtd" xmlns:svg="http://www.w3.org/2000/svg"
	 xmlns="http://www.w3.org/2000/svg" xmlns:xlink="http://www.w3.org/1999/xlink" x="0px" y="0px" viewBox="0 0 48 48"
	 style="enable-background:new 0 0 48 48;" xml:space="preserve">
<style type="text/css">
	.st0{fill:none;}
	.st1{fill:#41A0E0;}
</style>
<sodipodi:namedview  bordercolor="#666666" borderopacity="1" gridtolerance="10" guidetolerance="10" id="namedview8" inkscape:current-layer="svg2" inkscape:cx="-47.898305" inkscape:cy="24" inkscape:pageopacity="0" inkscape:pageshadow="2" inkscape:window-height="990" inkscape:window-maximized="0" inkscape:window-width="1617" inkscape:window-x="10" inkscape:window-y="34" inkscape:zoom="4.9166667" objecttolerance="10" pagecolor="#ffffff" showgrid="false">
	</sodipodi:namedview>
<path id="path4" class="st0" d="M0,0h48v48H0V0z"/>
<path id="path6" inkscape:connector-curvature="0" class="st1" d="M19,33.3l3.7,3.7l13-13l-13-13L19,14.7l6.7,6.7H0.6v5.2h25.2
	C25.7,26.6,19,33.3,19,33.3z M42.2,0.7H5.8C2.9,0.7,0.6,3,0.6,5.9v10.4h5.2V5.9h36.5v36.3H5.8V31.8H0.6v10.4c0,2.9,2.3,5.2,5.2,5.2
	h36.5c2.9,0,5.2-2.3,5.2-5.2V5.9C47.4,3,45.1,0.7,42.2,0.7z"/>
</svg>
