<svg xmlns="http://www.w3.org/2000/svg" height="24px" width="24px" viewBox="0 0 100 100"><g fill="none" stroke="#999" stroke-linejoin="round" stroke-linecap="round" stroke-miterlimit="10"><path d="M96.6 79.1c0 3.3-2.5 5.9-5.6 5.9H9c-3.1 0-5.6-2.6-5.6-5.9V20.9C3.4 17.7 5.9 15 9 15h82c3.1 0 5.6 2.6 5.6 5.9v58.2z" stroke-width="2"/><path d="M81 37.3h4.7M81 45.7h4.7M81 54.3h4.7M81 62.7h4.7M72.2 37.3h4.7m-4.7 8.4h4.7m-4.7 8.6h4.7m-4.7 8.4h4.7M62.7 37.3h4.7m-4.7 8.4h4.7m-4.7 8.6h4.7m-4.7 8.4h4.7" stroke-width="3"/><path d="M19.6 51.7c0-1.4-1.1-2.5-2.4-2.5h-2.6c-1.3 0-2.3 1.1-2.4 2.5v19h7.4v-19zm11.7-6.3c-.1-1.4-1.1-2.5-2.4-2.5h-2.6c-1.3 0-2.3 1.1-2.4 2.5v25.4h7.4V45.4zm11.8-9.1c0-1.4-1.1-2.6-2.4-2.6h-2.6c-1.3 0-2.4 1.2-2.4 2.6v34.4h7.4V36.3zm11.8-6.2s0-.1 0 0c0-1.5-1.1-2.6-2.4-2.6h-2.6c-1.3 0-2.3 1.1-2.4 2.5v40.8h7.4V30.1z" stroke-width="2"/></g></svg>
