<svg id="monologo" xmlns="http://www.w3.org/2000/svg" width="74.4" height="74.4" viewBox="0 0 74.4 74.4">
  <g id="Group_111" data-name="Group 111">
    <path id="Path_87" data-name="Path 87" d="M34.4,43.9H15.6V32.5l-8.2-.1a1.611,1.611,0,0,0-1.4,1L.2,46.1a2.509,2.509,0,0,0-.2,1V72.3c0,1.1.7,2.1,1.6,2.1H33.2c.8,0,1.6-1,1.6-2.1V45.8C34.8,44.6,35,44.1,34.4,43.9Zm-4.8,25H5.4V46.5l4.5-8.8h.6V49.1H29.6Z" fill="#999"/>
    <path id="Path_88" data-name="Path 88" d="M39.6,45.8V72.3c0,1.1.8,2.1,1.6,2.1H72.8c.9,0,1.6-1,1.6-2.1V47.1a2.509,2.509,0,0,0-.2-1L68.4,33.4a1.611,1.611,0,0,0-1.4-1l-8.2.1V43.9H40C39.4,44.1,39.6,44.6,39.6,45.8Zm5.2,3.3H63.9V37.7h.6L69,46.5V68.9H44.8Z" fill="#999"/>
    <path id="Path_89" data-name="Path 89" d="M53.6,12.7,47.9.9A1.478,1.478,0,0,0,46.6,0H27.8a1.478,1.478,0,0,0-1.3.9L20.9,12.6a1.8,1.8,0,0,0-.2,1V37.1a1.759,1.759,0,0,0,1.6,1.8h30A1.79,1.79,0,0,0,53.8,37V13.5A1.884,1.884,0,0,0,53.6,12.7ZM30.4,5.3H44.1l2.5,4.9H28ZM48.6,33.6H26.2V15.4H48.6Z" fill="#999"/>
  </g>
  <rect id="Rectangle_84" data-name="Rectangle 84" width="74.4" height="74.4" fill="none"/>
</svg>
