<svg xmlns="http://www.w3.org/2000/svg" height="24px" width="24px" viewBox="0 0 100 100" enable-background="new 0 0 100 100"><g fill="none" stroke="#999" stroke-linejoin="round" stroke-linecap="round" stroke-width="3" stroke-miterlimit="10"><path d="M96.6,79.1c0,3.3-2.5,5.9-5.6,5.9H9c-3.1,0-5.6-2.6-5.6-5.9V20.9C3.4,17.7,5.9,15,9,15h82
		c3.1,0,5.6,2.6,5.6,5.9V79.1z"/><path d="m37 37.3h4.7m-4.7 8.4h4.7m-4.7 8.6h4.7m-4.7 8.4h4.7m-13.5-25.4h4.7m-4.7 8.4h4.7m-4.7 8.6h4.7m-4.7 8.4h4.7m-14.2-25.4h4.7m-4.7 8.4h4.7m-4.7 8.6h4.7m-4.7 8.4h4.7"/><path d="m57.1 50.2c0-1.1-.9-2-2-2h-2.1c-1.1 0-1.9.9-2 2v15.5h6c.1 0 .1-15.5.1-15.5zm9.6-5.1c-.1-1.1-.9-2-2-2h-2.1c-1.1 0-1.9.9-2 2v20.7h6v-20.7zm9.6-7.4c0-1.1-.9-2.1-2-2.1h-2.1c-1.1 0-2 1-2 2.1v28h6c.1 0 .1-28 .1-28zm9.6-5.1c0 0 0-.1 0 0 0-1.2-.9-2.1-2-2.1h-2.1c-1.1 0-1.9.9-2 2v33.3h6c.1 0 .1-33.2.1-33.2z"/></g></svg>
