<svg xmlns="http://www.w3.org/2000/svg" width="74.563" height="74.302" viewBox="0 0 74.563 74.302">
  <path id="url" d="M37.2.2C8.6.2-14.7,35.9,11,63.6A36.151,36.151,0,0,0,37.2,74.5,35.756,35.756,0,0,0,63.4,63.6C89.1,35.9,65.8.2,37.2.2ZM69,34.7H55.2a74.763,74.763,0,0,0-1.9-12.3,28.127,28.127,0,0,0,8-5.6C65.6,22,68.5,28,69,34.7Zm-11-21a35.071,35.071,0,0,1-5.9,4.2A35.235,35.235,0,0,0,47.2,7.3,29.518,29.518,0,0,1,58,13.7ZM37.2,34.8H23.7a63.244,63.244,0,0,1,1.5-10.5,35.263,35.263,0,0,0,12,2.1,35.263,35.263,0,0,0,12-2.1,63.243,63.243,0,0,1,1.5,10.5ZM50.4,40a61.4,61.4,0,0,1-1.2,10.5,35.336,35.336,0,0,0-24,0A61.4,61.4,0,0,1,24,40H50.4ZM37.2,5.7c3.9,0,7.8,4.4,10.7,13.3,0,.2.2.5.2.8a29.234,29.234,0,0,1-10.9,2,31.383,31.383,0,0,1-10.9-2c0-.3.2-.6.2-.8C29.4,10.1,33.3,5.8,37.2,5.7Zm-10,1.6a35.235,35.235,0,0,0-4.9,10.6,35.071,35.071,0,0,1-5.9-4.2A29.518,29.518,0,0,1,27.2,7.3ZM13.1,16.8a28.127,28.127,0,0,0,8,5.6,74.763,74.763,0,0,0-1.9,12.3H5.4C5.9,28,8.8,22,13.1,16.8Zm-.6,40.3A29.712,29.712,0,0,1,5.6,39.8H19.4a64.654,64.654,0,0,0,1.5,12.4A39.1,39.1,0,0,0,13,57.8ZM16.2,61a35.63,35.63,0,0,1,5.9-4.3l.1.2a36.842,36.842,0,0,0,4.9,10.4A33.069,33.069,0,0,1,16.2,61Zm21,8c-4.1.1-8.2-4.6-11-14.1a30.121,30.121,0,0,1,11-2,32.368,32.368,0,0,1,11,2C45.4,64.4,41.3,69.1,37.2,69Zm10.1-1.7a36.842,36.842,0,0,0,4.9-10.4l.1-.2A35.631,35.631,0,0,1,58.2,61,33.069,33.069,0,0,1,47.3,67.3ZM61.9,57.1l-.5.7a39.1,39.1,0,0,0-7.9-5.6A64.654,64.654,0,0,0,55,39.8H68.8A29.712,29.712,0,0,1,61.9,57.1Z" transform="translate(0.081 -0.2)" fill="#999"/>
</svg>
