<?xml version="1.0" encoding="UTF-8"?>
<!-- Generator: Adobe Illustrator 20.1.0, SVG Export Plug-In . SVG Version: 6.00 Build 0)  -->
<svg version="1.1" id="Layer_1" xmlns="http://www.w3.org/2000/svg" xmlns:xlink="http://www.w3.org/1999/xlink" x="0px" y="0px" viewBox="0 0 62 63.5"
     style="enable-background:new 0 0 62 63.5;" xml:space="preserve" preserveAspectRatio="xMinYMid meet">
    <g>
	    <path d="M57,56c0,2.3-1.9,4.2-4.2,4.2h-46c-2.3,0-4.2-1.9-4.2-4.2V5.6c0-2.3,1.9-4.2,4.2-4.2h46c2.3,0,4.2,1.9,4.2,4.2   V56z M52.8,7.7c0-1.2-0.9-2.1-2.1-2.1H8.9c-1.1,0-2.1,1-2.1,2.1v8.4c0,1.2,0.9,2.1,2.1,2.1h41.8c1.1,0,2.1-1,2.1-2.1V7.7z M11,22.4   c-2.3,0-4.2,1.9-4.2,4.2s1.9,4.2,4.2,4.2s4.2-1.9,4.2-4.2S13.3,22.4,11,22.4z M11,35c-2.3,0-4.2,1.9-4.2,4.2s1.9,4.2,4.2,4.2   s4.2-1.9,4.2-4.2S13.3,35,11,35z M11,47.6c-2.3,0-4.2,1.9-4.2,4.2S8.7,56,11,56s4.2-1.9,4.2-4.2S13.3,47.6,11,47.6z M23.5,22.4   c-2.3,0-4.2,1.9-4.2,4.2s1.9,4.2,4.2,4.2s4.2-1.9,4.2-4.2S25.9,22.4,23.5,22.4z M23.5,35c-2.3,0-4.2,1.9-4.2,4.2s1.9,4.2,4.2,4.2   s4.2-1.9,4.2-4.2S25.9,35,23.5,35z M23.5,47.6c-2.3,0-4.2,1.9-4.2,4.2s1.9,4.2,4.2,4.2s4.2-1.9,4.2-4.2S25.9,47.6,23.5,47.6z    M36.1,22.4c-2.3,0-4.2,1.9-4.2,4.2s1.9,4.2,4.2,4.2s4.2-1.9,4.2-4.2S38.4,22.4,36.1,22.4z M36.1,35c-2.3,0-4.2,1.9-4.2,4.2   s1.9,4.2,4.2,4.2s4.2-1.9,4.2-4.2S38.4,35,36.1,35z M36.1,47.6c-2.3,0-4.2,1.9-4.2,4.2s1.9,4.2,4.2,4.2s4.2-1.9,4.2-4.2   S38.4,47.6,36.1,47.6z M48.6,22.4c-2.3,0-4.2,1.9-4.2,4.2s1.9,4.2,4.2,4.2s4.2-1.9,4.2-4.2S50.9,22.4,48.6,22.4z M52.8,39.2   c0-2.3-1.9-4.2-4.2-4.2s-4.2,1.9-4.2,4.2v12.6c0,2.3,1.9,4.2,4.2,4.2s4.2-1.9,4.2-4.2V39.2z"/>
    </g>
</svg>
