<!DOCTYPE svg PUBLIC "-//W3C//DTD SVG 1.1//EN" "http://www.w3.org/Graphics/SVG/1.1/DTD/svg11.dtd" [
	<!ENTITY ns_flows "http://ns.adobe.com/Flows/1.0/">
]><svg xmlns="http://www.w3.org/2000/svg" width="24" height="24" viewBox="0 0 24 24" preserveAspectRatio="xMinYMid meet" overflow="visible"><linearGradient id="a" gradientUnits="userSpaceOnUse" x1="20" y1="8" x2="20" y2="24"><stop offset="0" stop-color="#76A1F0"/><stop offset="1" stop-color="#6B90D5"/></linearGradient><path fill="url(#a)" d="M16 8h8v16h-8z"/><linearGradient id="b" gradientUnits="userSpaceOnUse" x1="20" y1="9" x2="20" y2="23"><stop offset="0" stop-color="#BBE0F7"/><stop offset="1" stop-color="#82B4FB"/></linearGradient><path fill="url(#b)" d="M17 9h6v14h-6z"/><linearGradient id="c" gradientUnits="userSpaceOnUse" x1="20" y1="10" x2="20" y2="22"><stop offset="0" stop-color="#95BFF8"/><stop offset=".557" stop-color="#84ADEF"/><stop offset="1" stop-color="#7CA4EB"/></linearGradient><path fill="url(#c)" d="M18 10h4v12h-4z"/><linearGradient id="d" gradientUnits="userSpaceOnUse" x1="11.999" x2="11.999" y2="24"><stop offset="0" stop-color="#90C50E"/><stop offset="1" stop-color="#70A034"/></linearGradient><path fill="url(#d)" d="M8 0h8v24H8z"/><linearGradient id="e" gradientUnits="userSpaceOnUse" x1="11.999" y1="1" x2="11.999" y2="23"><stop offset="0" stop-color="#D9F991"/><stop offset=".239" stop-color="#D7F88D"/><stop offset=".45" stop-color="#D1F383"/><stop offset=".651" stop-color="#C6EC71"/><stop offset=".844" stop-color="#B7E257"/><stop offset="1" stop-color="#A8D73D"/></linearGradient><path fill="url(#e)" d="M9 1h6v22H9z"/><linearGradient id="f" gradientUnits="userSpaceOnUse" x1="11.999" y1="2" x2="11.999" y2="22"><stop offset="0" stop-color="#B3E810"/><stop offset="1" stop-color="#90C60D"/></linearGradient><path fill="url(#f)" d="M10 2h4v20h-4z"/><linearGradient id="g" gradientUnits="userSpaceOnUse" x1="4" y1="12" x2="4" y2="24"><stop offset="0" stop-color="#F0A829"/><stop offset="1" stop-color="#C7671A"/></linearGradient><path fill="url(#g)" d="M0 12h8v12H0z"/><linearGradient id="h" gradientUnits="userSpaceOnUse" x1="4" y1="13" x2="4" y2="23"><stop offset="0" stop-color="#FFEBA8"/><stop offset="1" stop-color="#F8BE27"/></linearGradient><path fill="url(#h)" d="M1 13h6v10H1z"/><linearGradient id="i" gradientUnits="userSpaceOnUse" x1="4" y1="14" x2="4" y2="22"><stop offset="0" stop-color="#FFC30F"/><stop offset="1" stop-color="#F5AE0D"/></linearGradient><path fill="url(#i)" d="M2 14h4v8H2z"/></svg>