<svg id="Layer_1" data-name="Layer 1" xmlns="http://www.w3.org/2000/svg" width="48" height="48" viewBox="0 0 48 48"><defs><style>.cls-1{fill:#06c;}.cls-2{fill:#fff;}</style></defs><title>48px_sourcefile_20170718_multi</title><circle class="cls-1" cx="24" cy="24" r="24"/><path id="path1" class="cls-2" d="M30.07,26.38H36.3v.73l-5.1,7.46v0h5.18v1H29.64v-.69l5.12-7.48v-.06H30.08v-1Zm2.38-12.52c-.13.54-.28,1.11-.47,1.67l-.9,2.66h2.78L33,15.53c-.21-.6-.34-1.14-.49-1.69h0Zm-.68-1h1.44L36.38,22H35.1l-1-2.91H30.84l-1,2.91H28.65Zm-15.11-.41h1.82V32.14l5.76-5.61a.91.91,0,1,1,1.27,1.31l-7.93,7.71L9.66,27.84a.91.91,0,0,1,1.28-1.31l5.74,5.59Z"/></svg>