<svg xmlns="http://www.w3.org/2000/svg" width="16" height="16" viewBox="0 0 16 16"><path d="M7.427 8.005q0-.904-.623-1.544T5.3 5.82q-.88 0-1.503.64-.623.64-.623 1.545 0 .905.623 1.545.623.64 1.504.64.88 0 1.504-.64.623-.64.623-1.545zm6.38 4.37q0-.444-.316-.77-.314-.323-.746-.323t-.748.324q-.316.325-.316.768 0 .453.312.773.31.32.752.32.44 0 .752-.32.31-.32.31-.773zm0-8.74q0-.442-.316-.767-.314-.324-.746-.324t-.748.324q-.316.325-.316.768 0 .453.312.773.31.32.752.32.44 0 .752-.32.31-.32.31-.774zm-3.19 3.594v1.577q0 .086-.058.167-.06.08-.134.09l-1.288.204q-.09.3-.265.65.282.408.747.98.058.085.058.17 0 .103-.058.163-.19.257-.685.765-.494.507-.652.507-.092 0-.175-.06l-.955-.767q-.307.162-.64.264-.09.92-.19 1.322-.06.205-.25.205H4.528q-.09 0-.166-.064-.075-.064-.083-.15l-.192-1.305q-.283-.086-.623-.265l-.98.76q-.06.06-.167.06-.09 0-.174-.07Q.948 11.3.948 11.07q0-.078.058-.163.083-.12.34-.453.258-.333.39-.52-.19-.376-.29-.7L.183 9.03Q.1 9.02.043 8.947q-.06-.072-.06-.166v-1.58q0-.084.06-.165.057-.08.132-.09l1.288-.205q.09-.298.265-.648-.282-.41-.747-.98-.057-.095-.057-.172 0-.103.058-.17.184-.257.682-.76.498-.504.656-.504.092 0 .175.06l.955.768q.282-.154.64-.273.09-.922.19-1.314.06-.206.25-.206h1.545q.09 0 .166.064.074.064.082.15l.19 1.305q.284.085.624.264l.98-.76q.067-.06.167-.06.09 0 .174.07Q9.653 4.71 9.653 4.942q0 .077-.058.162-.1.137-.35.46-.248.325-.372.513.19.41.282.7l1.263.196q.083.017.14.09.06.072.06.166zm5.317 4.547v1.195q0 .136-1.238.264-.1.23-.25.444.424.964.424 1.177 0 .035-.033.06-1.013.606-1.03.606-.066 0-.382-.4-.316-.402-.432-.58-.166.016-.25.016-.082 0-.248-.018-.117.18-.432.58-.316.4-.383.4-.016 0-1.03-.605-.033-.025-.033-.06 0-.213.424-1.177-.15-.214-.248-.444-1.238-.128-1.238-.264v-1.195q0-.137 1.238-.265.108-.247.25-.443-.425-.966-.425-1.18 0-.033.033-.06.034-.016.29-.17.26-.153.49-.29.234-.136.25-.136.067 0 .383.397.315.398.432.577.166-.017.25-.017.082 0 .248.017.424-.606.764-.956l.05-.016q.033 0 1.03.597.033.027.033.06 0 .214-.423 1.18.14.195.25.442 1.237.128 1.237.265zm0-8.738v1.194q0 .136-1.238.264-.1.23-.25.444.424.964.424 1.177 0 .034-.033.06-1.013.605-1.03.605-.066 0-.382-.4-.316-.402-.432-.58-.166.016-.25.016-.082 0-.248-.016-.117.18-.432.58-.316.4-.383.4-.016 0-1.03-.605-.033-.026-.033-.06 0-.214.424-1.178-.15-.213-.248-.444-1.238-.128-1.238-.264V3.04q0-.138 1.238-.266.108-.247.25-.443-.425-.964-.425-1.177 0-.034.033-.06.034-.017.29-.17.26-.154.49-.29.234-.137.25-.137.067 0 .383.397.315.397.432.576.166-.018.25-.018.082 0 .248.017.424-.607.764-.957l.05-.017q.033 0 1.03.597.033.026.033.06 0 .213-.423 1.178.14.197.25.444 1.237.128 1.237.265z" fill="#3A1867"/></svg>