<?xml version="1.0" encoding="UTF-8"?><svg xmlns="http://www.w3.org/2000/svg" viewBox="0 0 577.44 512" preserveAspectRatio="xMinYMid meet"><g id="Image_Sparkle"><path d="m61.98,82.2c-3.3,1.25-5.5,4.4-5.5,7.92s2.2,6.68,5.5,7.92l41.46,15.56,15.56,41.46c1.25,3.3,4.4,5.5,7.92,5.5s6.68-2.2,7.92-5.5l15.56-41.46,41.46-15.56c3.3-1.25,5.5-4.4,5.5-7.92s-2.2-6.68-5.5-7.92l-41.46-15.56-15.56-41.46c-1.25-3.3-4.4-5.5-7.92-5.5s-6.68,2.2-7.92,5.5l-15.56,41.46-41.46,15.56Z" style="stroke-width:0px;"/><path d="m420.54,402.76c-3.83,1.45-6.38,5.1-6.38,9.18s2.55,7.74,6.38,9.18l48.05,18.03,18.03,48.05c1.45,3.83,5.1,6.38,9.18,6.38s7.74-2.55,9.18-6.38l18.03-48.05,48.05-18.03c3.83-1.45,6.38-5.1,6.38-9.18s-2.55-7.74-6.38-9.18l-48.05-18.03-18.03-48.05c-1.45-3.83-5.1-6.38-9.18-6.38s-7.74,2.55-9.18,6.38l-18.03,48.05-48.05,18.03Z" style="stroke-width:0px;"/><path d="m342.09,126.52c-5.13,1.94-8.55,6.84-8.55,12.31s3.42,10.37,8.55,12.31l64.38,24.15,24.15,64.38c1.94,5.13,6.84,8.55,12.31,8.55s10.37-3.42,12.31-8.55l24.15-64.38,64.38-24.15c5.13-1.94,8.55-6.84,8.55-12.31s-3.42-10.37-8.55-12.31l-64.38-24.15-24.15-64.38c-1.94-5.13-6.84-8.55-12.31-8.55s-10.37,3.42-12.31,8.55l-24.15,64.38-64.38,24.15Z" style="stroke-width:0px;"/></g><g id="Image"><path d="m335.73,212.24c6.59,0,11.99,5.4,11.99,11.99v239.66l-3.75-4.87-101.92-131.9c-3.37-4.42-8.69-6.97-14.24-6.97s-10.79,2.55-14.24,6.97l-62.2,80.49-22.86-32c-3.37-4.72-8.77-7.49-14.61-7.49s-11.24,2.77-14.61,7.57l-59.95,83.93-3.37,4.65v-240.03c0-6.59,5.4-11.99,11.99-11.99h287.77ZM47.96,176.27c-26.45,0-47.96,21.51-47.96,47.96v239.81c0,26.45,21.51,47.96,47.96,47.96h287.77c26.45,0,47.96-21.51,47.96-47.96v-239.81c0-26.45-21.51-47.96-47.96-47.96H47.96Zm59.95,143.89c19.87,0,35.97-16.1,35.97-35.97s-16.1-35.97-35.97-35.97-35.97,16.1-35.97,35.97,16.1,35.97,35.97,35.97Z" style="stroke-width:0px;"/></g></svg>