<?xml version="1.0" encoding="UTF-8"?><svg id="Sparkle" xmlns="http://www.w3.org/2000/svg" viewBox="0 0 555.17 511.92" preserveAspectRatio="xMinYMid meet"><path d="m104.05,307.21c-7.83,2.96-13.05,10.44-13.05,18.79s5.22,15.83,13.05,18.79l98.29,36.88,36.88,98.29c2.96,7.83,10.44,13.05,18.79,13.05s15.83-5.22,18.79-13.05l36.88-98.29,98.29-36.88c7.83-2.96,13.05-10.44,13.05-18.79s-5.22-15.83-13.05-18.79l-98.29-36.88-36.88-98.29c-2.96-7.83-10.44-13.05-18.79-13.05s-15.83,5.22-18.79,13.05l-36.88,98.29-98.29,36.88Z" style="stroke-width:0px;"/><path d="m36.99,122.93c-4.2,1.58-6.99,5.59-6.99,10.07s2.8,8.48,6.99,10.07l52.67,19.76,19.76,52.67c1.58,4.2,5.59,6.99,10.07,6.99s8.48-2.8,10.07-6.99l19.76-52.67,52.67-19.76c4.2-1.58,6.99-5.59,6.99-10.07s-2.8-8.48-6.99-10.07l-52.67-19.76-19.76-52.67c-1.58-4.2-5.59-6.99-10.07-6.99s-8.48,2.8-10.07,6.99l-19.76,52.67-52.67,19.76Z" style="stroke-width:0px;"/><path d="m394.07,417.6c-3.64,1.38-6.07,4.85-6.07,8.74s2.43,7.36,6.07,8.74l45.71,17.15,17.15,45.71c1.38,3.64,4.85,6.07,8.74,6.07s7.36-2.43,8.74-6.07l17.15-45.71,45.71-17.15c3.64-1.38,6.07-4.85,6.07-8.74s-2.43-7.36-6.07-8.74l-45.71-17.15-17.15-45.71c-1.38-3.64-4.85-6.07-8.74-6.07s-7.36,2.43-8.74,6.07l-17.15,45.71-45.71,17.15Z" style="stroke-width:0px;"/><path d="m360.1,97.08c-4.76,1.8-7.93,6.34-7.93,11.42s3.17,9.62,7.93,11.42l59.74,22.41,22.41,59.74c1.8,4.76,6.34,7.93,11.42,7.93s9.62-3.17,11.42-7.93l22.41-59.74,59.74-22.41c4.76-1.8,7.93-6.34,7.93-11.42s-3.17-9.62-7.93-11.42l-59.74-22.41-22.41-59.74c-1.8-4.76-6.34-7.93-11.42-7.93s-9.62,3.17-11.42,7.93l-22.41,59.74-59.74,22.41Z" style="stroke-width:0px;"/></svg>