<svg id="Layer_1" data-name="Layer 1" xmlns="http://www.w3.org/2000/svg" width="48" height="48" viewBox="0 0 48 48"><defs><style>.cls-1{fill:#06c;}.cls-2{fill:#fff;}</style></defs><title>48px_sourcefile_20170718_multi</title><circle class="cls-1" cx="24" cy="23.91" r="24"/><path id="path1" class="cls-2" d="M21.26,29.39h5.48v.91H21.26Zm-6.4-1.83V34H33.14v-6.4Zm6.4-6.4h5.48v.91H21.26Zm-6.4-1.83v6.4H33.14v-6.4Zm6.4-6.4h5.48v.91H21.26Zm-6.4-1.83v6.4H33.14v-6.4Zm-.91-1.83H34.05a.91.91,0,0,1,.91.91V34.88a.91.91,0,0,1-.91.91H31.31v2.74H29.48V35.79H17.6v2.74H15.77V35.79H13.95a.91.91,0,0,1-.91-.91V10.2A.91.91,0,0,1,13.95,9.28Z"/></svg>