<svg width="188" height="164" viewBox="0 0 188 164" fill="none" xmlns="http://www.w3.org/2000/svg" preserveAspectRatio="xMinYMid meet">
<path d="M79.7121 163.15C123.736 163.15 159.424 126.867 159.424 82.1099C159.424 37.3529 123.736 1.07031 79.7121 1.07031C35.6883 1.07031 0 37.3529 0 82.1099C0 126.867 35.6883 163.15 79.7121 163.15Z" fill="#C4E5FF"/>
<path d="M125.869 33.4766H33.5592C30.5858 33.4766 28.1758 35.9267 28.1758 38.9496V143.875C42.0772 155.876 60.0477 163.15 79.7139 163.15C99.3801 163.15 117.351 155.876 131.252 143.875V38.9496C131.251 35.9267 128.841 33.4766 125.869 33.4766Z" fill="#E9F5FF"/>
<path d="M112.166 73.9486L46.7246 75.2744C42.6878 75.3565 39.3492 72.095 39.2685 67.9909C39.1878 63.8869 42.3959 60.4927 46.4327 60.4107L111.874 59.085C115.911 59.003 119.249 62.2644 119.33 66.3684C119.41 70.4724 116.202 73.8666 112.166 73.9486Z" fill="#0056B2"/>
<path fill-rule="evenodd" clip-rule="evenodd" d="M118.502 66.3852C118.431 62.7457 115.47 59.8534 111.89 59.9262L46.4492 61.2519C42.8693 61.3247 40.0243 64.3347 40.0958 67.9742C40.1674 71.6137 43.1282 74.5061 46.708 74.4333L112.149 73.1075C115.729 73.0348 118.574 70.0247 118.502 66.3852ZM111.857 58.2439C116.351 58.1526 120.067 61.7831 120.157 66.3516C120.247 70.9202 116.676 74.6985 112.182 74.7898L46.7411 76.1156C42.2473 76.2069 38.5309 72.5763 38.4411 68.0078C38.3513 63.4392 41.9224 59.6609 46.4161 59.5696L111.857 58.2439Z" fill="white"/>
<path d="M113.886 133.781L19.4726 161.337C13.9865 162.939 8.26133 159.715 6.68739 154.137L6.39989 153.119C4.82448 147.542 7.99584 141.721 13.4819 140.121L107.895 112.565C113.381 110.963 119.106 114.187 120.68 119.765L120.968 120.783C122.543 126.361 119.372 132.18 113.886 133.781Z" fill="#0056B2"/>
<path fill-rule="evenodd" clip-rule="evenodd" d="M119.884 119.997C118.437 114.866 113.17 111.9 108.123 113.373L13.7101 140.93C8.66348 142.401 5.74589 147.756 7.19514 152.887L7.48269 153.905C8.93056 159.036 14.1973 162.002 19.244 160.529L113.657 132.973C118.704 131.499 121.621 126.146 120.172 121.016L119.884 119.997ZM107.666 111.756C113.592 110.026 119.775 113.509 121.475 119.533L121.763 120.551C121.763 120.551 121.763 120.551 121.763 120.551C123.464 126.575 120.039 132.86 114.114 134.59L19.7008 162.146C19.7008 162.146 19.7008 162.146 19.7008 162.146C13.7755 163.876 7.59186 160.394 5.89183 154.37C5.89182 154.37 5.89183 154.37 5.89183 154.37L5.60436 153.351C3.9028 147.327 7.32806 141.04 13.2535 139.312L107.666 111.756Z" fill="white"/>
<path d="M107.866 102.669L26.9018 117.289C22.1971 118.139 17.7031 114.954 16.8659 110.178L16.7129 109.305C15.8745 104.529 19.0096 99.9669 23.7142 99.1182L104.679 84.4979C109.383 83.648 113.877 86.8324 114.715 91.6091L114.868 92.4814C115.706 97.2582 112.571 101.819 107.866 102.669Z" fill="#0056B2"/>
<path fill-rule="evenodd" clip-rule="evenodd" d="M114.032 91.7321C113.262 87.3381 109.128 84.4086 104.8 85.1905L23.8356 99.8108C19.5079 100.591 16.6236 104.788 17.3949 109.182L17.5479 110.055C18.318 114.449 22.4522 117.378 26.7801 116.596L107.745 101.976C112.073 101.194 114.957 96.9988 114.185 92.6047L114.032 91.7321ZM104.557 83.8054C109.638 82.8874 114.492 86.3267 115.397 91.486L115.55 92.3582C115.55 92.3583 115.55 92.3582 115.55 92.3582C116.455 97.5176 113.069 102.443 107.988 103.361L27.0232 117.982C27.0232 117.982 27.0232 117.982 27.0232 117.982C21.9419 118.899 17.0879 115.46 16.1836 110.301C16.1836 110.301 16.1836 110.301 16.1836 110.301L16.0307 109.429C15.1251 104.269 18.5113 99.3422 23.5927 98.4256L104.557 83.8054Z" fill="white"/>
<path d="M102.945 0.0390625H187.8V75.8789H102.945V0.0390625Z"/>
<path d="M181.963 16.7549C181.948 16.7339 181.879 16.6381 181.864 16.6187L173.487 5.56943C173.481 5.56195 173.477 5.55441 173.471 5.54843C171.738 3.25361 169.339 1.84287 166.537 1.46738C163.675 1.08291 160.994 1.83405 158.815 3.61126L151.131 9.56812C150.61 9.97204 150.176 10.4657 149.845 11.0252C149.233 11.2032 148.656 11.4994 148.14 11.9003L109.422 42.1041C108.335 42.9538 107.637 44.1804 107.459 45.5597L105.207 62.952C104.837 65.8018 106.818 68.4258 109.622 68.8027L126.73 71.0931C126.956 71.123 127.183 71.1378 127.408 71.1378C128.531 71.1378 129.615 70.7654 130.52 70.0593L169.239 39.8555L169.24 39.8541C169.755 39.4517 170.185 38.9626 170.513 38.4076C171.125 38.2281 171.701 37.9333 172.219 37.5309L179.942 31.5052C182.172 29.7668 183.546 27.3403 183.915 24.4889C184.273 21.7199 183.593 19.0392 181.963 16.7549Z" fill="white"/>
<path d="M125.913 60.2803L130.148 56.9757L121.756 45.8577L117.521 49.1608L116.942 53.6352L122.205 54.3397L121.512 59.6908L125.913 60.2803ZM152.444 24.362C152.523 23.7487 152.261 23.4015 151.658 23.3207C151.384 23.2833 151.138 23.3508 150.921 23.5198L125.698 43.1963C125.48 43.3668 125.354 43.5897 125.317 43.8679C125.238 44.4813 125.5 44.8284 126.103 44.9092C126.377 44.9466 126.622 44.8792 126.84 44.7101L152.062 25.0337C152.28 24.8646 152.407 24.6403 152.444 24.362ZM151.262 16.0368L166.116 35.7179L127.399 65.9231L110.292 63.6327L112.543 46.2406L151.262 16.0368ZM178.828 23.81C178.637 25.2865 177.968 26.4743 176.82 27.3689L169.095 33.3961L154.24 13.7151L161.96 7.73119C163.084 6.80369 164.386 6.44023 165.866 6.6377C167.319 6.83218 168.497 7.52776 169.402 8.72753L177.8 19.8038C178.674 21.0245 179.017 22.3604 178.828 23.81Z" fill="#0056B2"/>
</svg>
