<svg width="160" height="172" viewBox="0 0 160 172" fill="none" xmlns="http://www.w3.org/2000/svg" preserveAspectRatio="xMinYMid meet">
<path d="M80 160C124.183 160 160 124.183 160 80C160 35.8172 124.183 0 80 0C35.8172 0 0 35.8172 0 80C0 124.183 35.8172 160 80 160Z" fill="#C4E5FF"/>
<path d="M126.323 35.8203H33.6802C30.6961 35.8203 28.2773 38.239 28.2773 41.2231V140.975C42.229 152.823 60.2644 160.003 80.0016 160.003C99.7388 160.003 117.774 152.821 131.726 140.975V41.2231C131.724 38.239 129.306 35.8203 126.323 35.8203Z" fill="white"/>
<path d="M111.443 67.862L45.7657 69.1707C41.7144 69.2516 38.3637 66.0321 38.2827 61.9807C38.2018 57.9293 41.4214 54.5787 45.4728 54.4977L111.15 53.189C115.202 53.108 118.552 56.3276 118.633 60.379C118.714 64.4304 115.494 67.781 111.443 67.862Z" fill="#0056B2"/>
<path d="M113.169 126.933L18.4151 154.135C12.9092 155.717 7.16337 152.534 5.58375 147.028L5.29521 146.022C3.71411 140.516 6.89692 134.771 12.4028 133.191L107.157 105.988C112.663 104.407 118.408 107.59 119.988 113.096L120.277 114.102C121.858 119.607 118.675 125.352 113.169 126.933Z" fill="#C4E5FF"/>
<path fill-rule="evenodd" clip-rule="evenodd" d="M118.947 113.395C117.533 108.464 112.387 105.613 107.455 107.029L12.7014 134.232C7.77049 135.646 4.91969 140.792 6.33573 145.723L6.62433 146.729C8.03902 151.66 13.185 154.511 18.1161 153.095L112.87 125.892C117.802 124.476 120.652 119.331 119.236 114.4L118.947 113.395ZM106.858 104.948C112.939 103.202 119.284 106.717 121.029 112.797L121.317 113.803C123.063 119.884 119.548 126.227 113.468 127.973L18.7138 155.176C18.7138 155.176 18.7138 155.176 18.7138 155.176C12.6332 156.922 6.2875 153.407 4.54294 147.326L4.25447 146.321C2.50832 140.24 6.02332 133.895 12.1041 132.15L106.858 104.948C106.858 104.948 106.858 104.948 106.858 104.948Z" fill="#0056B2"/>
<path d="M103.872 95.8379L23.4104 109.562C18.735 110.36 14.2931 107.226 13.4911 102.564L13.3446 101.713C12.5413 97.0503 15.6813 92.6236 20.3566 91.827L100.818 78.1031C105.494 77.3052 109.936 80.4389 110.738 85.101L110.884 85.9524C111.687 90.6146 108.548 95.0401 103.872 95.8379Z" fill="#0056B2"/>
<path fill-rule="evenodd" clip-rule="evenodd" d="M109.854 85.2515C109.136 81.0763 105.157 78.2697 100.97 78.9842L20.5083 92.7082C16.3212 93.4216 13.5087 97.3862 14.2281 101.562L14.3747 102.413C15.093 106.589 19.0711 109.395 23.2585 108.681L103.72 94.9567C107.908 94.2421 110.72 90.2785 110 86.1031L109.854 85.2515ZM100.667 77.2218C105.83 76.3408 110.735 79.8016 111.621 84.9504L111.768 85.8016C112.655 90.9506 109.187 95.838 104.024 96.719L23.5621 110.443C23.5621 110.443 23.5621 110.443 23.5621 110.443C18.3986 111.324 13.4931 107.863 12.6073 102.714L12.4608 101.863C11.5737 96.7144 15.0415 91.8256 20.205 90.9458L100.667 77.2218C100.666 77.2218 100.667 77.2218 100.667 77.2218Z" fill="white"/>
<path d="M98.5256 121.534C97.2345 122.098 96.338 123.045 95.8272 124.354C95.3163 125.664 95.3458 126.965 95.914 128.25L97.9692 132.901L96.8047 133.421L95.306 130.032C94.7952 128.875 93.9678 128.055 92.8328 127.588C91.6963 127.121 90.5451 127.143 89.3762 127.656C88.2588 128.152 87.4727 128.972 87.0266 130.132C86.5761 131.283 86.5997 132.421 87.0929 133.537L93.984 149.134L92.3367 148.563L89.572 142.307C89.0582 141.142 88.2308 140.322 87.0943 139.855C85.9593 139.389 84.8066 139.411 83.6377 139.923C82.5203 140.419 81.7386 141.247 81.2881 142.399C80.8376 143.55 80.8612 144.688 81.3544 145.806L84.9523 153.95C85.4558 155.091 86.3229 155.9 87.5478 156.371L103.609 162.142C104.975 162.669 105.995 163.697 106.67 165.222C106.946 165.849 107.42 166.297 108.084 166.55C108.753 166.812 109.4 166.799 110.032 166.518L133.372 156.205C134.008 155.933 134.449 155.454 134.708 154.792C134.967 154.129 134.956 153.477 134.679 152.852L134.278 151.943C133.838 150.948 133.545 149.956 133.403 148.977L130.339 131.385C130.198 130.404 129.903 129.413 129.467 128.426L125.515 119.479C125.001 118.315 124.174 117.495 123.037 117.028C121.901 116.561 120.749 116.584 119.58 117.096C118.463 117.592 117.681 118.419 117.231 119.572C116.78 120.723 116.804 121.861 117.297 122.979L117.811 124.143L116.642 124.655L114.634 120.109C114.206 119.138 113.515 118.396 112.558 117.877C111.603 117.358 110.609 117.214 109.571 117.433C109.211 117.536 108.919 117.635 108.703 117.735C107.581 118.223 106.799 119.051 106.349 120.204C105.903 121.362 105.922 122.493 106.415 123.61L108.473 128.268L107.304 128.78L105.346 124.346C104.8 123.11 103.924 122.195 102.723 121.614C101.517 121.025 100.282 120.943 99.0129 121.358C98.8804 121.384 98.7185 121.446 98.5256 121.534ZM96.4676 116.876C98.5094 115.971 100.591 115.783 102.705 116.295C103.725 114.855 105.041 113.786 106.643 113.074C108.08 112.445 109.573 112.171 111.126 112.27C112.68 112.367 114.131 112.824 115.48 113.644C116.065 113.19 116.745 112.788 117.522 112.444C119.954 111.371 122.401 111.322 124.87 112.304C127.337 113.286 129.105 114.986 130.177 117.411L134.13 126.359C134.676 127.595 135.097 128.975 135.39 130.497L138.418 148.107C138.532 148.758 138.836 149.644 139.34 150.785C140.199 152.728 140.247 154.678 139.484 156.636C138.721 158.594 137.37 160.006 135.424 160.863L112.084 171.176C110.039 172.072 108.049 172.106 106.11 171.268C104.171 170.432 102.749 168.989 101.851 166.956L85.8621 161.15C83.2343 160.199 81.3735 158.487 80.2812 156.014L76.6788 147.862C75.6218 145.469 75.5688 143.029 76.5301 140.568C77.4885 138.099 79.1712 136.334 81.5796 135.273C81.8476 135.156 82.0448 135.077 82.1773 135.049C81.3058 132.68 81.3676 130.339 82.3628 128.018C83.3521 125.689 85.0039 124.018 87.3181 123.005C88.5812 122.444 89.8841 122.169 91.2282 122.186C92.241 119.741 93.9884 117.973 96.4676 116.876Z" fill="#0056B2"/>
<path fill-rule="evenodd" clip-rule="evenodd" d="M130.337 131.385C130.196 130.404 129.903 129.413 129.466 128.426L125.513 119.478C124.999 118.313 124.172 117.493 123.036 117.027C121.899 116.56 120.748 116.582 119.579 117.094C118.462 117.59 117.68 118.418 117.229 119.57C116.779 120.722 116.802 121.86 117.296 122.976L117.809 124.14L116.64 124.652L114.632 120.106C114.204 119.135 113.514 118.393 112.557 117.875C111.601 117.355 110.608 117.211 109.57 117.43C109.209 117.533 108.918 117.632 108.701 117.732C107.579 118.22 106.798 119.048 106.347 120.201C105.901 121.359 105.92 122.49 106.413 123.606L108.471 128.264L107.303 128.776L105.343 124.342C104.797 123.105 103.921 122.191 102.72 121.611C101.514 121.022 100.279 120.94 99.0099 121.355C98.8774 121.383 98.7155 121.445 98.5226 121.533C97.2315 122.097 96.335 123.043 95.8242 124.352C95.3133 125.662 95.3428 126.964 95.911 128.249L97.9662 132.899L96.8017 133.419L95.303 130.03C94.7922 128.873 93.9648 128.053 92.8298 127.586C91.6933 127.12 90.5421 127.142 89.3732 127.654C88.2558 128.15 87.4697 128.97 87.0236 130.13C86.5731 131.282 86.5967 132.419 87.0899 133.535L93.981 149.133L92.3337 148.562L89.569 142.305C89.0552 141.141 88.2278 140.321 87.0913 139.854C85.9563 139.387 84.8036 139.409 83.6347 139.922C82.5173 140.418 81.7356 141.245 81.2851 142.398C80.8346 143.549 80.8582 144.687 81.3514 145.803L84.9493 153.947C85.4528 155.088 86.3199 155.897 87.5447 156.369L103.606 162.138C104.972 162.665 105.992 163.693 106.667 165.218C106.943 165.845 107.417 166.292 108.081 166.546C108.75 166.808 109.397 166.794 110.029 166.513L133.369 156.201C134.005 155.928 134.446 155.45 134.705 154.787C134.964 154.125 134.953 153.473 134.676 152.847L134.275 151.939C133.835 150.944 133.542 149.951 133.4 148.972L130.337 131.385Z" fill="white"/>
</svg>
