<?xml version="1.0" encoding="utf-8"?>
<!-- Generator: Adobe Illustrator 15.1.0, SVG Export Plug-In  -->
<!DOCTYPE svg PUBLIC "-//W3C//DTD SVG 1.1//EN" "http://www.w3.org/Graphics/SVG/1.1/DTD/svg11.dtd" [
	<!ENTITY ns_flows "http://ns.adobe.com/Flows/1.0/">
]>
<svg version="1.1"
	 xmlns="http://www.w3.org/2000/svg" xmlns:xlink="http://www.w3.org/1999/xlink" xmlns:a="http://ns.adobe.com/AdobeSVGViewerExtensions/3.0/"
	 x="0px" y="0px" width="24px" height="24px" viewBox="0 0 24 24" style="overflow:visible;enable-background:new 0 0 24 24;"
	 xml:space="preserve" preserveAspectRatio="xMinYMid meet">
<defs>
</defs>
<linearGradient id="SVGID_1_" gradientUnits="userSpaceOnUse" x1="7.9995" y1="7.9868" x2="7.9995" y2="24.001">
	<stop  offset="0" style="stop-color:#F0A829"/>
	<stop  offset="1" style="stop-color:#C7671A"/>
	<a:midPointStop  offset="0" style="stop-color:#F0A829"/>
	<a:midPointStop  offset="0.5" style="stop-color:#F0A829"/>
	<a:midPointStop  offset="1" style="stop-color:#C7671A"/>
</linearGradient>
<path style="fill:url(#SVGID_1_);" d="M3,19.2l-3,1.6V24h16v-0.4c0-0.5-0.5-1.2-1-1.5l-6-3.1c-0.5-0.3-0.6-0.8-0.3-1.2
	c0,0,1.6-2,1.6-4.2C10.4,10.5,8.4,8,6,8c-2.4,0-4.4,2.6-4.4,5.7c0,2.1,1.6,4.2,1.6,4.2C3.6,18.3,3.5,18.9,3,19.2z"/>
<linearGradient id="SVGID_2_" gradientUnits="userSpaceOnUse" x1="7.7212" y1="8.9868" x2="7.7212" y2="23.001">
	<stop  offset="0" style="stop-color:#FFEBA8"/>
	<stop  offset="1" style="stop-color:#F8BE27"/>
	<a:midPointStop  offset="0" style="stop-color:#FFEBA8"/>
	<a:midPointStop  offset="0.5" style="stop-color:#FFEBA8"/>
	<a:midPointStop  offset="1" style="stop-color:#F8BE27"/>
</linearGradient>
<path style="fill:url(#SVGID_2_);" d="M1,23v-1.7L3.5,20c0.5-0.3,0.8-0.7,1-1.2c0.1-0.5,0-1.1-0.4-1.5c0,0-1.4-1.8-1.4-3.6
	C2.6,11.1,4.2,9,6,9s3.4,2.1,3.4,4.7c0,1.7-1.4,3.5-1.4,3.6c-0.3,0.4-0.5,1-0.4,1.5c0.1,0.5,0.5,1,1,1.2l5.9,3H1z"/>
<linearGradient id="SVGID_3_" gradientUnits="userSpaceOnUse" x1="6.1343" y1="9.9868" x2="6.1343" y2="22.001">
	<stop  offset="0" style="stop-color:#FFC30F"/>
	<stop  offset="1" style="stop-color:#F5AE0D"/>
	<a:midPointStop  offset="0" style="stop-color:#FFC30F"/>
	<a:midPointStop  offset="0.5" style="stop-color:#FFC30F"/>
	<a:midPointStop  offset="1" style="stop-color:#F5AE0D"/>
</linearGradient>
<path style="fill:url(#SVGID_3_);" d="M2,22L2,22l1.9-1.1c0.8-0.4,1.3-1.1,1.5-1.9c0.2-0.8,0-1.7-0.6-2.3c-0.3-0.4-1.2-1.8-1.2-3
	c0-2,1.1-3.7,2.4-3.7s2.4,1.7,2.4,3.7c0,1.1-0.9,2.5-1.2,3c-0.5,0.7-0.7,1.5-0.5,2.3c0.2,0.8,0.7,1.5,1.5,1.9l2.2,1.1H2z"/>
<linearGradient id="SVGID_4_" gradientUnits="userSpaceOnUse" x1="16" y1="7.9868" x2="16" y2="24.001">
	<stop  offset="0" style="stop-color:#8D470D"/>
	<stop  offset="1" style="stop-color:#7C3D09"/>
	<a:midPointStop  offset="0" style="stop-color:#8D470D"/>
	<a:midPointStop  offset="0.5" style="stop-color:#8D470D"/>
	<a:midPointStop  offset="1" style="stop-color:#7C3D09"/>
</linearGradient>
<path style="fill:url(#SVGID_4_);" d="M24,24v-3.4l-3-1.5c-0.5-0.3-0.6-0.8-0.3-1.2c0,0,1.6-2,1.6-4.2c0-3.2-1.9-5.7-4.4-5.7
	c-2.4,0-4.4,2.6-4.4,5.7c0,2.1,1.6,4.2,1.6,4.2c0.3,0.4,0.2,1-0.3,1.3l-6,3.2c-0.5,0.3-1,0.9-1,1.5V24H24z"/>
<linearGradient id="SVGID_5_" gradientUnits="userSpaceOnUse" x1="16.4121" y1="8.9868" x2="16.4121" y2="23.001">
	<stop  offset="0" style="stop-color:#D58738"/>
	<stop  offset="1" style="stop-color:#AB551F"/>
	<a:midPointStop  offset="0" style="stop-color:#D58738"/>
	<a:midPointStop  offset="0.5" style="stop-color:#D58738"/>
	<a:midPointStop  offset="1" style="stop-color:#AB551F"/>
</linearGradient>
<path style="fill:url(#SVGID_5_);" d="M9.8,23l5.7-3c0.5-0.3,0.8-0.7,1-1.2c0.1-0.5,0-1.1-0.4-1.5c0,0-1.4-1.8-1.4-3.6
	c0-2.6,1.5-4.7,3.4-4.7s3.4,2.1,3.4,4.7c0,1.8-1.4,3.6-1.4,3.6c-0.3,0.4-0.5,1-0.4,1.5s0.5,1,1,1.2l2.4,1.2V23H9.8z"/>
<linearGradient id="SVGID_6_" gradientUnits="userSpaceOnUse" x1="17.9424" y1="9.9868" x2="17.9424" y2="22.001">
	<stop  offset="0" style="stop-color:#D0813A"/>
	<stop  offset="1" style="stop-color:#AF551D"/>
	<a:midPointStop  offset="0" style="stop-color:#D0813A"/>
	<a:midPointStop  offset="0.5" style="stop-color:#D0813A"/>
	<a:midPointStop  offset="1" style="stop-color:#AF551D"/>
</linearGradient>
<path style="fill:url(#SVGID_6_);" d="M13.9,22l2.1-1.1c0.8-0.4,1.3-1.1,1.5-1.9c0.2-0.8,0-1.7-0.6-2.3c-0.3-0.4-1.2-1.8-1.2-3
	c0-2,1.1-3.7,2.4-3.7s2.4,1.7,2.4,3.7c0,1.2-0.9,2.5-1.2,3c-0.5,0.7-0.7,1.5-0.6,2.3c0.2,0.8,0.7,1.5,1.5,1.9l1.9,1V22H13.9z"/>
<linearGradient id="SVGID_7_" gradientUnits="userSpaceOnUse" x1="7.4507" y1="0" x2="7.4507" y2="12.9043">
	<stop  offset="0" style="stop-color:#76A1F0"/>
	<stop  offset="1" style="stop-color:#6B90D5"/>
	<a:midPointStop  offset="0" style="stop-color:#76A1F0"/>
	<a:midPointStop  offset="0.5" style="stop-color:#76A1F0"/>
	<a:midPointStop  offset="1" style="stop-color:#6B90D5"/>
</linearGradient>
<path style="fill:url(#SVGID_7_);" d="M12.5,10.4c1.4-1.1,2.4-2.6,2.4-4.3c0.1-3.3-3.2-6-7.3-6.1C3.4-0.1,0.1,2.5,0,5.8
	c-0.1,3.3,3.2,6,7.3,6.1c1,0,2-0.1,2.9-0.4c0.8,1,2.8,1.4,2.8,1.4S12.2,11.7,12.5,10.4z"/>
<linearGradient id="SVGID_8_" gradientUnits="userSpaceOnUse" x1="7.4507" y1="1" x2="7.4507" y2="11.2168">
	<stop  offset="0" style="stop-color:#BBE0F7"/>
	<stop  offset="1" style="stop-color:#82B4FB"/>
	<a:midPointStop  offset="0" style="stop-color:#BBE0F7"/>
	<a:midPointStop  offset="0.5" style="stop-color:#BBE0F7"/>
	<a:midPointStop  offset="1" style="stop-color:#82B4FB"/>
</linearGradient>
<path style="fill:url(#SVGID_8_);" d="M11.4,11.2c-0.2-0.1-0.3-0.2-0.4-0.3l-0.4-0.6l-0.7,0.2c-0.8,0.2-1.6,0.4-2.4,0.4l-0.1,0
	C3.8,10.8,1,8.6,1,5.8C1,3.2,3.9,1,7.4,1l0.2,0c1.8,0,3.4,0.6,4.6,1.6c1.1,1,1.8,2.2,1.7,3.5c0,1.3-0.7,2.6-2,3.5l-0.3,0.2l-0.1,0.4
	C11.4,10.5,11.4,10.9,11.4,11.2z"/>
<linearGradient id="SVGID_9_" gradientUnits="userSpaceOnUse" x1="7.4507" y1="2" x2="7.4507" y2="9.9097">
	<stop  offset="0" style="stop-color:#95BFF8"/>
	<stop  offset="0.5569" style="stop-color:#84ADEF"/>
	<stop  offset="1" style="stop-color:#7CA4EB"/>
	<a:midPointStop  offset="0" style="stop-color:#95BFF8"/>
	<a:midPointStop  offset="0.4" style="stop-color:#95BFF8"/>
	<a:midPointStop  offset="1" style="stop-color:#7CA4EB"/>
</linearGradient>
<path style="fill:url(#SVGID_9_);" d="M7.4,9.9C4.4,9.9,2,8,2,5.9C2,3.8,4.5,2,7.4,2l0.1,0c1.5,0,2.9,0.5,4,1.4
	c0.9,0.8,1.4,1.7,1.4,2.7c0,1-0.6,2-1.6,2.7l-0.6,0.4l0,0.1L9.6,9.6C9,9.8,8.2,9.9,7.5,9.9L7.4,9.9z"/>
<path style="fill:#FFFFFF;" d="M5.5,4.5h1.9V6c0,0.5-0.1,1-0.3,1.3C6.9,7.6,6.5,7.9,5.9,8.1L5.5,7.3C5.9,7.2,6.1,7,6.2,6.9
	c0.1-0.2,0.2-0.3,0.2-0.6H5.5V4.5z M7.7,4.5h1.9V6c0,0.5-0.1,1-0.3,1.3C9.1,7.6,8.7,7.9,8.2,8.1L7.7,7.3C8.1,7.2,8.3,7,8.4,6.9
	c0.1-0.2,0.2-0.3,0.2-0.6H7.7V4.5z"/>
</svg>
