<svg width="24" height="24" viewBox="0 0 24 24" fill="none" xmlns="http://www.w3.org/2000/svg" preserveAspectRatio="xMinYMid meet">
<path fill-rule="evenodd" clip-rule="evenodd" d="M8.52074 6.27805C8.7899 6.34886 8.95162 6.62105 8.88196 6.88599C8.8123 7.15093 8.53763 7.3083 8.26846 7.23749L5.68916 6.55889C5.55914 6.52468 5.44795 6.44075 5.38033 6.32575C5.31271 6.21076 5.29428 6.07424 5.32912 5.94657L6.02024 3.41401C6.09236 3.14973 6.3685 2.99485 6.63701 3.06808C6.90552 3.14132 7.06473 3.41493 6.99261 3.67921L6.61325 5.06934C8.12788 4.05128 9.98406 3.4538 11.9856 3.4538C13.9282 3.4538 15.7339 4.01659 17.2233 4.98049L16.8682 3.67934C16.7961 3.41505 16.9553 3.14144 17.2238 3.06821C17.4923 2.99497 17.7685 3.14985 17.8406 3.41413L18.5317 5.94669C18.5666 6.07436 18.5481 6.21088 18.4805 6.32587C18.4129 6.44087 18.3017 6.5248 18.1717 6.55901L15.5924 7.23761C15.3232 7.30842 15.0485 7.15105 14.9789 6.88611C14.9092 6.62117 15.0709 6.34899 15.3401 6.27817L16.7946 5.89551C15.4445 4.98967 13.7844 4.4538 11.9856 4.4538C10.1732 4.4538 8.50144 4.99787 7.14585 5.91632L8.52074 6.27805ZM7.48828 10.4544C6.65119 10.4544 5.98828 11.1183 5.98828 11.9182C5.98828 12.718 6.65119 13.3819 7.48828 13.3819C8.32537 13.3819 8.98828 12.718 8.98828 11.9182C8.98828 11.1183 8.32537 10.4544 7.48828 10.4544ZM4.98828 11.9182C4.98828 10.5489 6.11623 9.45441 7.48828 9.45441C8.86033 9.45441 9.98828 10.5489 9.98828 11.9182C9.98828 13.2874 8.86033 14.3819 7.48828 14.3819C6.11623 14.3819 4.98828 13.2874 4.98828 11.9182ZM16.5015 10.4544C15.6644 10.4544 15.0015 11.1183 15.0015 11.9182C15.0015 12.718 15.6644 13.3819 16.5015 13.3819C17.3386 13.3819 18.0015 12.718 18.0015 11.9182C18.0015 11.1183 17.3386 10.4544 16.5015 10.4544ZM14.0015 11.9182C14.0015 10.5489 15.1294 9.45441 16.5015 9.45441C17.8735 9.45441 19.0015 10.5489 19.0015 11.9182C19.0015 13.2874 17.8735 14.3819 16.5015 14.3819C15.1294 14.3819 14.0015 13.2874 14.0015 11.9182ZM3.48682 20.4534C3.48682 18.2478 5.27765 16.4586 7.48831 16.4586C9.69363 16.4586 11.4812 18.2392 11.4898 20.4375L11.4897 20.4534C11.4897 20.6111 11.5628 20.7518 11.6769 20.8435C11.7126 20.8722 11.7524 20.896 11.7952 20.9141C11.855 20.9394 11.9208 20.9534 11.9898 20.9534C12.2659 20.9534 12.4898 20.7296 12.4898 20.4534L12.4898 20.4375C12.4984 18.2403 14.2894 16.4586 16.5015 16.4586C18.7188 16.4586 20.5132 18.2489 20.5132 20.4534C20.5132 20.7295 20.737 20.9534 21.0132 20.9534C21.2893 20.9534 21.5132 20.7295 21.5132 20.4534C21.5132 17.6931 19.2676 15.4586 16.5015 15.4586C14.5182 15.4586 12.8025 16.6072 11.9903 18.2748C11.1798 16.6076 9.4681 15.4586 7.48831 15.4586C4.72676 15.4586 2.48682 17.6941 2.48682 20.4534C2.48682 20.7296 2.71067 20.9534 2.98682 20.9534C3.26296 20.9534 3.48682 20.7296 3.48682 20.4534Z" fill="#212529"/>
</svg>
