<?xml version="1.0" encoding="utf-8"?>
<!-- Generator: Adobe Illustrator 25.2.1, SVG Export Plug-In . SVG Version: 6.00 Build 0)  -->
<svg width="24px" height="24px" version="1.1" id="Layer_1" xmlns="http://www.w3.org/2000/svg" xmlns:xlink="http://www.w3.org/1999/xlink" x="0px" y="0px"
	 viewBox="0 0 74.4 74.4" style="enable-background:new 0 0 74.4 74.4;" xml:space="preserve" preserveAspectRatio="xMinYMid meet">
<g id="Group_12483_1_">
	<path d="M67.6,56.1c-4.8-3.1-10.5-4.6-16.2-4.5c-4.9-0.1-9.8,1.1-14.2,3.3c-4.4-2.2-9.3-3.4-14.2-3.3c-5.7-0.1-11.4,1.4-16.2,4.5
		C2.4,59,0.1,63,0.1,67.3v4.2c0,1.5,1.1,2.7,2.7,2.8h69c1.6-0.1,2.7-1.3,2.7-2.8v-4.2C74.4,63,72,59,67.6,56.1z M40.7,69.2H5.5v-1.5
		c0.3-5.6,6.2-8.5,10.7-9.9c6.5-1.9,13.4-0.9,19.5,2.4c2.6,1.5,5,4.2,5,7.4V69.2z M69.1,69.2h-23c0.3-4-1-7.8-3.6-10.7
		c7-2.7,15-2,21.6,1.7c2.6,1.5,5,4.2,5,7.4V69.2L69.1,69.2z"/>
	<path d="M22.9,48.5c6.5,0,11.7-5.1,11.7-11.6C34,21.6,11.7,21.6,11,36.9C11,43.2,16.3,48.5,22.9,48.5L22.9,48.5z M16.3,36.9
		c0.1-3.5,3.2-6.2,6.8-6.1c3.4,0.1,6.1,2.8,6.3,6.1C29,45.3,16.6,45.3,16.3,36.9L16.3,36.9z"/>
	<path d="M50.8,48.5c6.5,0,11.7-5.1,11.7-11.6c-0.6-15.3-22.9-15.3-23.6,0C39,43.2,44.2,48.5,50.8,48.5L50.8,48.5z M50.8,30.6
		c3.6,0,6.5,2.8,6.5,6.3c-0.3,8.4-12.7,8.4-12.9,0C44.4,33.4,47.2,30.6,50.8,30.6L50.8,30.6z"/>
	<path id="Path_565_1_" d="M20.5,0.2c1.5,0.5,2.2,2.2,1.7,3.7l-1.6,3.8c10.7-4.2,22.8-4.2,33.5,0.2L52.4,4
		c-0.6-1.4,0.1-3.1,1.6-3.7c1.5-0.7,3.1,0.1,3.8,1.5l4.1,10c0.6,1.4-0.1,3.1-1.6,3.7l0,0l-10.3,4c-1.5,0.5-3.1-0.2-3.7-1.6
		s0.1-3.1,1.6-3.6l3.5-1.7C42.3,9,32.2,8.9,23,12.5l3.7,1.7c1.5,0.7,2,2.4,1.3,3.8c-0.7,1.3-2.1,2-3.5,1.4l-10.3-4
		c-1.5-0.5-2.2-2.2-1.7-3.6l0,0l4.1-10C17.3,0.3,19-0.4,20.5,0.2z"/>
</g>
</svg>
