<?xml version="1.0" encoding="utf-8"?>
<svg xmlns="http://www.w3.org/2000/svg" height="48" width="48" viewBox="0 0 48 48">
  <g>
    <ellipse cy="24" cx="24" ry="24" rx="24" fill="#F79F1C" />
    <path id="path1" transform="rotate(90,24,24) translate(9,9.92668054059196) scale(0.937469826119774,0.937469826119774)  " fill="#F9F9F9" d="M12.523432,6.5932371C12.062422,6.5932371 11.627413,6.7782275 11.300406,7.1132114 10.610391,7.8171765 10.610391,8.9641196 11.300406,9.6690852 11.95542,10.337052 13.090444,10.338052 13.747459,9.6680848 14.436473,8.9631202 14.436473,7.8171765 13.746459,7.1132114 13.418452,6.7782275 12.984442,6.5932371 12.523432,6.5932371z M12.523432,4.6300842C13.495453,4.6300838 14.467474,4.9908158 15.175489,5.7122805 16.621521,7.1892073 16.621521,9.591089 15.175489,11.067016L15.174489,11.068016C14.467474,11.789981 13.526453,12.186961 12.523432,12.186961 11.520411,12.186961 10.579391,11.789981 9.872375,11.068016 8.425344,9.591089 8.425344,7.1892073 9.8713751,5.7122805 10.57939,4.9908158 11.551411,4.6300838 12.523432,4.6300842z M5.0143417,4.438823L2.895002,4.6530449 2.0820014,12.965046 15.991009,27.167047 17.586607,25.537159 4.2790283,11.949961z M15.282026,2.0849626L7.1730118,2.9050317 6.3610606,11.218027 20.270066,25.420065 29.202016,16.298963z M16.037031,0L32.001029,16.298963 20.270066,28.277002 18.986857,26.966831 15.991009,30.024048 0,13.697046 1.065001,2.8270449 5.2131304,2.4082195 5.343055,1.0810556z" />
  </g>
</svg>

