<?xml version="1.0" encoding="UTF-8" standalone="no"?>
<svg
   xmlns:dc="http://purl.org/dc/elements/1.1/"
   xmlns:cc="http://creativecommons.org/ns#"
   xmlns:rdf="http://www.w3.org/1999/02/22-rdf-syntax-ns#"
   xmlns:svg="http://www.w3.org/2000/svg"
   xmlns="http://www.w3.org/2000/svg"
   xmlns:sodipodi="http://sodipodi.sourceforge.net/DTD/sodipodi-0.dtd"
   xmlns:inkscape="http://www.inkscape.org/namespaces/inkscape"
   width="29"
   height="29"
   id="svg2992"
   version="1.1"
   inkscape:version="1.0.2-2 (e86c870879, 2021-01-15)"
   sodipodi:docname="pie_2d.svg"
   inkscape:export-filename="C:\projects\GRAPH\resources-graph\icons\circle2.png"
   inkscape:export-xdpi="90"
   inkscape:export-ydpi="90">
  <defs
     id="defs2994">
    <pattern
       y="0"
       x="0"
       height="6"
       width="6"
       patternUnits="userSpaceOnUse"
       id="EMFhbasepattern" />
  </defs>
  <sodipodi:namedview
     id="base"
     pagecolor="#ffffff"
     bordercolor="#666666"
     borderopacity="1.0"
     inkscape:pageopacity="0.0"
     inkscape:pageshadow="2"
     inkscape:zoom="22.627417"
     inkscape:cx="29.088659"
     inkscape:cy="16.360612"
     inkscape:document-units="px"
     inkscape:current-layer="layer1"
     showgrid="true"
     inkscape:snap-nodes="true"
     guidetolerance="10000"
     objecttolerance="10000"
     inkscape:object-nodes="true"
     inkscape:window-width="2560"
     inkscape:window-height="1387"
     inkscape:window-x="-6"
     inkscape:window-y="-6"
     inkscape:window-maximized="1"
     inkscape:snap-grids="true"
     showguides="true"
     inkscape:document-rotation="0">
    <inkscape:grid
       type="xygrid"
       id="grid3000"
       empspacing="1"
       visible="true"
       enabled="true"
       snapvisiblegridlinesonly="true"
       spacingx="0.5"
       spacingy="0.5"
       dotted="false"
       originx="0"
       originy="0" />
  </sodipodi:namedview>
  <metadata
     id="metadata2997">
    <rdf:RDF>
      <cc:Work
         rdf:about="">
        <dc:format>image/svg+xml</dc:format>
        <dc:type
           rdf:resource="http://purl.org/dc/dcmitype/StillImage" />
        <dc:title></dc:title>
      </cc:Work>
    </rdf:RDF>
  </metadata>
  <g
     inkscape:label="Capa 1"
     inkscape:groupmode="layer"
     id="layer1"
     transform="translate(0,-1023.3622)">
    <path
       style="color:#000000;clip-rule:nonzero;display:inline;overflow:visible;visibility:visible;opacity:1;isolation:auto;mix-blend-mode:normal;color-interpolation:sRGB;color-interpolation-filters:linearRGB;solid-color:#000000;solid-opacity:1;fill:none;fill-opacity:1;fill-rule:nonzero;stroke:#2f4b59;stroke-width:1.05295;stroke-linecap:round;stroke-linejoin:miter;stroke-miterlimit:4;stroke-dasharray:none;stroke-dashoffset:0;stroke-opacity:1;color-rendering:auto;image-rendering:auto;shape-rendering:auto;text-rendering:auto;enable-background:accumulate"
       id="path4137"
       sodipodi:type="arc"
       sodipodi:cx="14.5"
       sodipodi:cy="1037.8622"
       sodipodi:rx="8.5"
       sodipodi:ry="8.4999828"
       sodipodi:start="0.83497671"
       sodipodi:end="0.832838"
       d="m 20.205157,1044.1631 a 8.5,8.4999828 0 0 1 -12.0029932,-0.5924 8.5,8.4999828 0 0 1 0.5859445,-12.0033 8.5,8.4999828 0 0 1 12.0036197,0.5795 8.5,8.4999828 0 0 1 -0.573108,12.0039"
       sodipodi:arc-type="arc"
       sodipodi:open="true" />
    <path
       style="fill:none;stroke:#2f4b59;stroke-width:1px;stroke-linecap:butt;stroke-linejoin:miter;stroke-opacity:1"
       d="m 44,1037.3622 v -7"
       id="path3797"
       inkscape:connector-curvature="0"
       sodipodi:nodetypes="cc" />
    <path
       style="fill:none;stroke:#2f4b59;stroke-width:1px;stroke-linecap:butt;stroke-linejoin:miter;stroke-opacity:1"
       d="M 40.5,1033.8622 H 47"
       id="path3797-8"
       inkscape:connector-curvature="0"
       sodipodi:nodetypes="cc" />
    <path
       style="fill:none;stroke:#2f4b59;stroke-width:1px;stroke-linecap:butt;stroke-linejoin:miter;stroke-opacity:1"
       d="m 14,1038.8622 4.5,-8"
       id="path3797-6"
       inkscape:connector-curvature="0"
       sodipodi:nodetypes="cc" />
    <path
       style="fill:none;stroke:#2f4b59;stroke-width:1px;stroke-linecap:butt;stroke-linejoin:miter;stroke-opacity:1"
       d="m 20,1043.8622 -6,-5.5"
       id="path3797-7"
       inkscape:connector-curvature="0"
       sodipodi:nodetypes="cc" />
    <path
       style="fill:#2f4b59;fill-opacity:0.313725;stroke:#000000;stroke-width:0;stroke-linejoin:round;stroke-miterlimit:4;stroke-dasharray:none"
       d="M 13.686989,22.410624 C 11.33255,22.154384 9.1938104,20.857316 7.8735084,18.88496 7.3783653,18.145281 6.9225882,17.060548 6.7292797,16.161738 5.9727968,12.644382 7.7074206,9.0224147 10.918227,7.4150405 c 1.972303,-0.987362 4.112228,-1.1318771 6.183701,-0.4176027 0.646975,0.2230865 0.865003,0.3325837 0.83224,0.4179647 -0.01369,0.035676 -1.009093,1.8141541 -2.212005,3.9521745 l -2.187113,3.887308 0.164358,0.171526 c 0.0904,0.09434 1.367544,1.270692 2.838105,2.614116 1.470561,1.343425 2.728873,2.495297 2.796247,2.559716 l 0.1225,0.117126 -0.283476,0.208143 c -0.69096,0.507339 -1.616411,0.963872 -2.436397,1.201898 -0.903815,0.262359 -2.164865,0.37948 -3.049398,0.283214 z"
       id="path2692"
       transform="translate(0,1023.3622)" />
    <path
       style="fill:#2f4b59;fill-opacity:0.313725;stroke:#000000;stroke-width:0;stroke-linejoin:round;stroke-miterlimit:4;stroke-dasharray:none"
       d="m 17.537555,17.527687 c -1.475743,-1.352756 -2.677354,-2.473671 -2.670246,-2.490921 0.0071,-0.01725 0.91533,-1.634864 2.018273,-3.594696 l 2.005349,-3.5633303 0.199027,0.1369336 c 0.403941,0.277919 1.005979,0.8169207 1.346562,1.2055718 2.260051,2.5790189 2.650147,6.2342549 0.980117,9.1837709 -0.266809,0.471224 -0.795191,1.198194 -1.044627,1.437242 l -0.151286,0.144985 z"
       id="path2694"
       transform="translate(0,1023.3622)" />
  </g>
</svg>
