<svg id="meet" xmlns="http://www.w3.org/2000/svg" viewBox="0 0 24 24"><defs><style>.cls-1{fill:#00832d;}.cls-2{fill:#0066da;}.cls-3{fill:#e94235;}.cls-4{fill:#2684fc;}.cls-5{fill:#00ac47;}.cls-6{fill:#ffba00;}.cls-7{fill:none;}</style></defs><path class="cls-1" d="M13.58,11.87l2.33,2.68,3.15,2,.55-4.67-.55-4.56L15.85,9.09Z" transform="translate(0 0)"/><path class="cls-2" d="M0,16.13v4a1.65,1.65,0,0,0,1.65,1.65h4l.82-3-.82-2.61L2.89,15.3Z" transform="translate(0 0)"/><path class="cls-3" d="M5.62,2,0,7.62l2.89.83,2.73-.83L6.43,5Z" transform="translate(0 0)"/><path class="cls-4" d="M5.62,7.62H0v8.51H5.62Z" transform="translate(0 0)"/><path class="cls-5" d="M22.65,4.38l-3.59,3v9.23l3.61,3A.82.82,0,0,0,24,18.87V5A.83.83,0,0,0,22.65,4.38Zm-9.07,7.49v4.26h-8v5.62h11.8a1.65,1.65,0,0,0,1.64-1.65V16.56Z" transform="translate(0 0)"/><path class="cls-6" d="M17.42,2H5.62V7.62h8v4.25l5.48-4.54V3.65A1.65,1.65,0,0,0,17.42,2Z" transform="translate(0 0)"/><line class="cls-7" x1="24" y1="24" x2="24" y2="24"/><line class="cls-7" x2="1" y2="1"/></svg>