<!DOCTYPE svg PUBLIC "-//W3C//DTD SVG 1.1//EN" "http://www.w3.org/Graphics/SVG/1.1/DTD/svg11.dtd" [
	<!ENTITY ns_flows "http://ns.adobe.com/Flows/1.0/">
]><svg xmlns="http://www.w3.org/2000/svg" viewBox="0 0 1151.44 1333.34" shape-rendering="geometricPrecision" text-rendering="geometricPrecision" image-rendering="optimizeQuality" fill-rule="evenodd" clip-rule="evenodd"><defs><linearGradient id="id0" gradientUnits="userSpaceOnUse" x1="524.07" y1="507.24" x2="952.54" y2="931.65"><stop offset="0" stop-opacity=".2" stop-color="#263238"></stop><stop offset="1" stop-opacity=".02" stop-color="#263238"></stop></linearGradient><style>.fil8{fill:#fff;fill-rule:nonzero;fill-opacity:.2}</style></defs><g id="Layer_x0020_1"><g id="_1955516419504"><path d="M1151.44 575.82C1151.44 257.94 893.51.11 575.73.11 257.95.11.01 257.94.01 575.82c0 301.15 274.66 545.38 575.71 545.38v212.13c349.67-177.43 575.71-462.9 575.71-757.52h.01z" fill="#00897b" fill-rule="nonzero"></path><path d="M931.72 367.54L856.2 575.82H439.42L272.17 780.88l460.23 460.24c229.71-168.38 404.61-367 418.92-653.99l-219.6-219.59z" fill="url(#id0)" fill-rule="nonzero"></path><path d="M575.72 1113.62C275.81 1113.62 2.29 871.36.11 571.77c0 1.35-.1 2.7-.1 4.05 0 301.15 274.66 545.38 575.71 545.38v-7.58zm0 212.13v7.58c349.67-177.43 575.71-462.9 575.71-757.52 0-1.24-.1-2.49-.1-3.63-1.97 293.16-227.5 576.96-575.61 753.56v.01z" fill="#263238" fill-rule="nonzero" fill-opacity=".039"></path><path d="M704.54 803.02H325.78c-19.43 0-38.75-7.37-53.6-22.23-14.85-14.86-22.23-34.17-22.23-53.6v7.58c0 19.43 7.37 38.75 22.23 53.6 14.86 14.85 34.17 22.23 53.6 22.23h378.76c19.43 0 38.75-7.37 53.6-22.23 14.76-14.76 22.23-34.17 22.23-53.6v-7.58c0 19.43-7.37 38.75-22.23 53.6-14.86 14.86-34.28 22.23-53.6 22.23zm75.73-162.79l151.46 151.46v-7.58L780.27 632.65v7.58z" fill="#263238" fill-rule="nonzero" fill-opacity=".2"></path><path d="M780.27 519v-94.64c0-19.43-7.37-38.76-22.23-53.6-14.76-14.76-34.17-22.23-53.6-22.23H325.78c-19.43 0-38.75 7.37-53.6 22.23-14.76 14.76-22.23 34.17-22.23 53.6v303.02c0 19.43 7.37 38.76 22.23 53.6 14.86 14.85 34.17 22.23 53.6 22.23l378.76.01c19.43 0 38.75-7.37 53.6-22.23 14.76-14.76 22.23-34.17 22.23-53.6v-94.64l151.46 151.46V367.53L780.27 518.99z" fill="#f5f5f5" fill-rule="nonzero"></path><path d="M250.05 424.36v151.46h681.68V367.54L780.27 519v-94.64c0-19.43-7.37-38.76-22.23-53.6-14.76-14.76-34.17-22.23-53.6-22.23H325.78c-19.43 0-38.75 7.37-53.6 22.23-14.76 14.76-22.13 34.17-22.13 53.6z" fill="#e0e0e0" fill-rule="nonzero"></path><path fill="#212121" fill-rule="nonzero" fill-opacity=".02" d="M250.05 568.24h681.67v7.58H250.05z"></path><path fill="#fff" fill-rule="nonzero" fill-opacity=".051" d="M250.05 575.82h681.67v7.58l-681.67.01v-7.58z"></path><path class="fil8" d="M325.78 356.11h378.76c19.43 0 38.75 7.37 53.6 22.23 14.76 14.76 22.23 34.17 22.23 53.6v-7.58c0-19.43-7.37-38.76-22.23-53.6-14.76-14.76-34.17-22.23-53.6-22.23H325.78c-19.43 0-38.75 7.37-53.6 22.23-14.76 14.76-22.23 34.17-22.23 53.6v7.58c0-19.43 7.37-38.75 22.23-53.6 14.86-14.76 34.17-22.23 53.6-22.23zM780.27 519v7.58l151.46-151.46v-7.58L780.27 519z"></path><path class="fil8" d="M575.72 7.69c316.53 0 573.63 255.76 575.61 571.98 0-1.35.1-2.59.1-3.94C1151.43 257.85 893.5.02 575.72.02 257.94.02.01 257.95.01 575.83c0 1.25.1 2.39.1 3.53C2.29 263.36 259.3 7.69 575.72 7.69z"></path></g></g></svg>