<?xml version="1.0" encoding="iso-8859-1"?>
<!-- Generator: Adobe Illustrator 19.0.0, SVG Export Plug-In . SVG Version: 6.00 Build 0)  -->
<svg version="1.1" id="Layer_1" xmlns="http://www.w3.org/2000/svg" xmlns:xlink="http://www.w3.org/1999/xlink" x="0px" y="0px"
	 viewBox="-25 -25 449.498 449.498" style="enable-background:new -25 -25 449.498 449.498;" xml:space="preserve" preserveAspectRatio="xMinYMid meet">
<g id="XMLID_1152_">
	<g id="XMLID_1153_">
		<path id="XMLID_1154_" style="fill:#1F2C47;" d="M235.664,379.498H67.638c-14.678,0-26.619-11.941-26.619-26.619V66.117
			c0-14.678,11.941-26.619,26.619-26.619H274.4c14.678,0,26.619,11.941,26.619,26.619v248.026L235.664,379.498z M67.638,59.498
			c-3.65,0-6.619,2.969-6.619,6.619v286.762c0,3.65,2.969,6.619,6.619,6.619H227.38l53.639-53.64V66.117
			c0-3.649-2.969-6.619-6.619-6.619C274.4,59.498,67.638,59.498,67.638,59.498z"/>
	</g>
	<g id="XMLID_1157_">
		<path id="XMLID_1158_" style="fill:#1F2C47;" d="M251.649,195.61h-20v-41.22H110.39v41.22h-20v-43.943
			c0-9.526,7.75-17.277,17.277-17.277h126.706c9.526,0,17.277,7.75,17.277,17.277L251.649,195.61L251.649,195.61z"/>
	</g>
	<g id="XMLID_1159_">
		<g id="XMLID_1160_">
			<rect id="XMLID_1161_" x="93.519" y="222" style="fill:#1F2C47;" width="155" height="20"/>
		</g>
		<g id="XMLID_1162_">
			<rect id="XMLID_1163_" x="93.519" y="265" style="fill:#1F2C47;" width="155" height="20"/>
		</g>
		<g id="XMLID_1164_">
			<rect id="XMLID_1165_" x="93.519" y="308" style="fill:#1F2C47;" width="90.333" height="20"/>
		</g>
	</g>
	<g id="XMLID_1166_">
		<path id="XMLID_1167_" style="fill:#1F2C47;" d="M180.978,120.29c-18.332,0-33.245-14.914-33.245-33.245V71.768h20v15.277
			c0,7.303,5.942,13.245,13.245,13.245s13.245-5.941,13.245-13.245V43.204C194.223,30.409,183.814,20,171.02,20
			c-12.795,0-23.204,10.409-23.204,23.204h-20C127.815,19.381,147.196,0,171.019,0s43.204,19.381,43.204,43.204v43.841
			C214.223,105.376,199.309,120.29,180.978,120.29z"/>
	</g>
	<g id="XMLID_1168_">
		<path id="XMLID_1169_" style="fill:#00969B;" d="M311.86,49.498h-37.833c9.178,0,16.619,7.44,16.619,16.619V310l-59.497,59.498
			h37.833L328.479,310V66.116C328.479,56.938,321.038,49.498,311.86,49.498z"/>
		<path id="XMLID_1170_" style="fill:#1F2C47;" d="M273.124,379.498h-66.118l73.64-73.64V66.117c0-3.649-2.969-6.619-6.619-6.619
			v-20h37.833c14.678,0,26.619,11.941,26.619,26.619v248.026L273.124,379.498z M255.29,359.498h9.549l53.64-53.64V66.117
			c0-3.649-2.969-6.619-6.619-6.619h-12.047c0.544,2.117,0.833,4.334,0.833,6.619v248.026L255.29,359.498z"/>
	</g>
</g>
</svg>
