<svg id="Layer_1" data-name="Layer 1" xmlns="http://www.w3.org/2000/svg" width="48" height="48" viewBox="0 0 48 48"><defs><style>.cls-1{fill:#909;}.cls-2{fill:#fff;}</style></defs><title>48px_sourcefile_20170718_multi</title><circle class="cls-1" cx="24" cy="24" r="24"/><path id="path1" class="cls-2" d="M28.71,20.21c-2.4,0-5.47.45-6.24,3.92-.84,5,3.84,6.21,4,6.26a16,16,0,0,0,4.93.53l.32-.06.21.24c.26.32.71.77,1.14,1.2l.09-1.63.41-.15a8.69,8.69,0,0,0,2.91-1.61c.62-.81,1.54-4.33-.26-6.26a8.36,8.36,0,0,0-5.49-2.4h0C30.22,20.27,29.51,20.21,28.71,20.21Zm-.08-1.76a17,17,0,0,1,2.32.17l-.09.66.09-.66a11.3,11.3,0,0,1,6.24,3c2.34,2.51,1.28,6.9.32,8.14a8.45,8.45,0,0,1-3.07,1.88l-.21,3.56-1-.94c-.06-.06-1.35-1.24-2.08-2a18.08,18.08,0,0,1-5-.62,6.69,6.69,0,0,1-5-7.86C21.92,20.34,24.66,18.47,28.63,18.45Zm-9.54-4.31a13.56,13.56,0,0,0-2.74.28A7.33,7.33,0,0,0,11,18.53a4,4,0,0,0,.34,3.88,8.55,8.55,0,0,0,4.07,3.39l.3.13.49,2.1.47-1,2.1,0a11.66,11.66,0,0,1,0-5.25,9.08,9.08,0,0,1,5.81-5.92A8.41,8.41,0,0,0,19.09,14.14Zm.11-1.31c5,0,7.09,2.87,7.2,3l.62.88L26,16.88a7.58,7.58,0,0,0-6,5.27,11.49,11.49,0,0,0,.24,5.36l.24.86-3-.06-1.71,3.81-1.2-5.29a9.21,9.21,0,0,1-4.33-3.75A5.31,5.31,0,0,1,9.83,18a8.68,8.68,0,0,1,6.28-4.89A15.64,15.64,0,0,1,19.2,12.83Z"/></svg>