<?xml version="1.0" encoding="utf-8"?>
<!DOCTYPE svg PUBLIC "-//W3C//DTD SVG 1.1//EN" "http://www.w3.org/Graphics/SVG/1.1/DTD/svg11.dtd">
<svg version="1.1" xmlns="http://www.w3.org/2000/svg" xmlns:xlink="http://www.w3.org/1999/xlink" x="0px" y="0px" width="45px"
	 height="45px" viewBox="0 0 45 45" enable-background="new 0 0 45 45" xml:space="preserve">
<g id="Ebene_1" display="none">
	<path display="inline" d="M35.25,30.782c0,0.895-0.788,1.619-1.762,1.619H1.762C0.79,32.401,0,31.677,0,30.782V1.62
		C0,0.725,0.79,0,1.762,0h31.726c0.974,0,1.762,0.725,1.762,1.62V30.782z"/>
	<path display="inline" d="M43.459,45H9.55c-0.851,0-1.542-0.691-1.542-1.542V5.234c0-0.85,0.692-1.542,1.542-1.542h33.909
		c0.85,0,1.541,0.691,1.541,1.542v38.224C45,44.309,44.309,45,43.459,45z M9.55,4.925c-0.171,0-0.31,0.139-0.31,0.309v38.224
		c0,0.171,0.139,0.31,0.31,0.31h33.909c0.17,0,0.309-0.139,0.309-0.31V5.234c0-0.17-0.139-0.309-0.309-0.309H9.55z"/>
	<g display="inline">
		<path fill="#FFFFFF" d="M9.742,16.021c0,0.714-0.093,1.326-0.28,1.833c-0.187,0.508-0.455,0.922-0.804,1.244
			c-0.349,0.321-0.774,0.557-1.273,0.707s-1.095,0.226-1.786,0.226h-1.86c-0.132,0-0.244-0.039-0.333-0.118
			c-0.09-0.078-0.136-0.206-0.136-0.382V12.74c0-0.177,0.045-0.305,0.136-0.382c0.09-0.079,0.202-0.118,0.333-0.118h1.999
			c0.694,0,1.283,0.081,1.767,0.244c0.484,0.163,0.892,0.404,1.222,0.723c0.332,0.319,0.583,0.714,0.756,1.183
			C9.655,14.859,9.742,15.403,9.742,16.021z M8.104,16.075c0-0.37-0.043-0.713-0.13-1.03c-0.086-0.317-0.225-0.592-0.416-0.825
			s-0.435-0.415-0.734-0.545S6.133,13.48,5.647,13.48h-0.8v5.298h0.825c0.434,0,0.798-0.056,1.096-0.168
			c0.297-0.113,0.544-0.282,0.743-0.509c0.199-0.227,0.348-0.509,0.446-0.846C8.055,16.918,8.104,16.524,8.104,16.075z"/>
		<path fill="#FFFFFF" d="M18.174,16.045c0,0.646-0.081,1.224-0.241,1.734s-0.4,0.942-0.716,1.297
			c-0.317,0.355-0.71,0.626-1.177,0.813c-0.468,0.187-1.009,0.28-1.623,0.28c-0.606,0-1.135-0.079-1.586-0.237
			c-0.452-0.159-0.828-0.401-1.129-0.726c-0.301-0.326-0.527-0.739-0.678-1.241c-0.15-0.501-0.225-1.096-0.225-1.782
			c0-0.63,0.08-1.197,0.241-1.701c0.16-0.503,0.399-0.932,0.716-1.285s0.709-0.625,1.177-0.813c0.468-0.189,1.011-0.283,1.629-0.283
			c0.59,0,1.11,0.079,1.563,0.235c0.452,0.156,0.829,0.397,1.132,0.723c0.303,0.325,0.532,0.735,0.687,1.231
			C18.097,14.785,18.174,15.37,18.174,16.045z M16.512,16.129c0-0.41-0.032-0.782-0.096-1.117c-0.064-0.335-0.174-0.622-0.328-0.861
			c-0.155-0.238-0.36-0.423-0.617-0.554c-0.257-0.13-0.578-0.195-0.963-0.195c-0.389,0-0.714,0.073-0.975,0.22
			c-0.261,0.146-0.472,0.342-0.632,0.587c-0.161,0.245-0.274,0.531-0.34,0.858s-0.099,0.673-0.099,1.039
			c0,0.426,0.032,0.808,0.096,1.147c0.064,0.339,0.172,0.629,0.325,0.87c0.153,0.241,0.358,0.424,0.614,0.551
			c0.257,0.126,0.58,0.19,0.97,0.19c0.389,0,0.714-0.073,0.975-0.217c0.261-0.145,0.472-0.341,0.632-0.59s0.274-0.539,0.34-0.87
			C16.479,16.855,16.512,16.502,16.512,16.129z"/>
		<path fill="#FFFFFF" d="M25.016,18.85c0,0.101-0.002,0.186-0.008,0.256s-0.016,0.13-0.027,0.18
			c-0.012,0.05-0.027,0.094-0.049,0.13c-0.02,0.036-0.051,0.078-0.096,0.124c-0.045,0.046-0.129,0.105-0.256,0.177
			c-0.127,0.073-0.281,0.142-0.465,0.208c-0.182,0.067-0.391,0.122-0.625,0.166s-0.489,0.066-0.761,0.066
			c-0.534,0-1.016-0.082-1.446-0.247s-0.794-0.41-1.095-0.738c-0.301-0.327-0.532-0.735-0.692-1.225
			c-0.161-0.49-0.241-1.06-0.241-1.71c0-0.662,0.088-1.25,0.265-1.764c0.177-0.514,0.423-0.945,0.74-1.294
			c0.317-0.35,0.697-0.614,1.141-0.795c0.443-0.181,0.933-0.271,1.466-0.271c0.217,0,0.426,0.018,0.627,0.054
			c0.199,0.036,0.385,0.083,0.555,0.142c0.172,0.058,0.326,0.125,0.461,0.202c0.137,0.076,0.232,0.142,0.287,0.196
			s0.092,0.099,0.111,0.135s0.035,0.082,0.049,0.138c0.012,0.057,0.02,0.123,0.025,0.199s0.01,0.17,0.01,0.283
			c0,0.121-0.004,0.223-0.012,0.307c-0.008,0.084-0.021,0.153-0.043,0.205c-0.02,0.052-0.043,0.09-0.072,0.114
			c-0.027,0.024-0.061,0.037-0.096,0.037c-0.061,0-0.137-0.036-0.229-0.105c-0.094-0.07-0.213-0.148-0.357-0.235
			c-0.148-0.086-0.322-0.165-0.525-0.235s-0.443-0.105-0.725-0.105c-0.309,0-0.585,0.063-0.828,0.19
			c-0.243,0.126-0.45,0.307-0.621,0.542c-0.17,0.235-0.3,0.519-0.388,0.852c-0.088,0.333-0.132,0.708-0.132,1.125
			c0,0.458,0.047,0.854,0.141,1.189c0.094,0.335,0.229,0.611,0.404,0.828c0.174,0.216,0.385,0.378,0.632,0.484
			s0.524,0.16,0.834,0.16c0.28,0,0.524-0.033,0.728-0.099c0.205-0.067,0.381-0.14,0.527-0.22c0.146-0.08,0.268-0.152,0.361-0.216
			c0.094-0.064,0.168-0.097,0.219-0.097c0.041,0,0.074,0.008,0.098,0.024c0.023,0.017,0.045,0.048,0.061,0.096
			c0.016,0.048,0.027,0.116,0.035,0.202C25.012,18.591,25.016,18.706,25.016,18.85z"/>
		<path fill="#FFFFFF" d="M31.828,19.434c0.072,0.141,0.119,0.253,0.143,0.337c0.021,0.084,0.008,0.148-0.039,0.193
			c-0.049,0.044-0.135,0.072-0.264,0.084c-0.125,0.012-0.301,0.018-0.525,0.018c-0.189,0-0.338-0.004-0.445-0.012
			c-0.109-0.008-0.195-0.021-0.256-0.04c-0.063-0.018-0.107-0.043-0.137-0.075c-0.027-0.032-0.051-0.073-0.07-0.121l-1.463-2.812
			l-1.459,2.812c-0.023,0.048-0.049,0.088-0.078,0.121c-0.027,0.032-0.072,0.057-0.135,0.075c-0.063,0.019-0.148,0.031-0.26,0.04
			c-0.109,0.008-0.256,0.012-0.436,0.012c-0.209,0-0.371-0.006-0.486-0.018c-0.113-0.012-0.189-0.041-0.23-0.084
			c-0.039-0.044-0.047-0.108-0.023-0.193c0.023-0.084,0.074-0.197,0.15-0.337l1.865-3.401l-1.732-3.197
			c-0.072-0.144-0.121-0.26-0.148-0.346c-0.025-0.086-0.016-0.15,0.031-0.192c0.045-0.042,0.131-0.068,0.254-0.078
			c0.125-0.01,0.301-0.015,0.531-0.015c0.189,0,0.338,0.004,0.447,0.012c0.111,0.008,0.199,0.021,0.264,0.039
			c0.063,0.018,0.107,0.043,0.135,0.075c0.025,0.032,0.051,0.072,0.074,0.121l1.367,2.577l1.332-2.577
			c0.023-0.048,0.049-0.088,0.074-0.121s0.068-0.057,0.127-0.075c0.057-0.018,0.139-0.031,0.24-0.039s0.244-0.012,0.424-0.012
			c0.201,0,0.359,0.005,0.477,0.015c0.115,0.01,0.195,0.037,0.24,0.082c0.045,0.043,0.055,0.108,0.033,0.192
			c-0.021,0.084-0.068,0.199-0.135,0.343l-1.734,3.18L31.828,19.434z"/>
	</g>
	<path display="inline" d="M40.632,36.755H12.33c-0.336,0-0.61-0.273-0.61-0.61c0-0.338,0.273-0.61,0.61-0.61h28.302
		c0.338,0,0.61,0.272,0.61,0.61C41.242,36.481,40.97,36.755,40.632,36.755z"/>
	<path display="inline" d="M40.632,40.522H12.33c-0.336,0-0.61-0.273-0.61-0.611c0-0.337,0.273-0.61,0.61-0.61h28.302
		c0.338,0,0.61,0.273,0.61,0.61C41.242,40.249,40.97,40.522,40.632,40.522z"/>
</g>
<g id="Ebene_2" display="none">
	<path display="inline" d="M34.198,29.957c0,0.871-0.766,1.576-1.711,1.576H1.709C0.766,31.533,0,30.828,0,29.957V1.577
		C0,0.706,0.766,0,1.709,0h30.778c0.945,0,1.711,0.706,1.711,1.577V29.957z"/>
	<path display="inline" d="M43.5,45h-33C9.673,45,9,44.327,9,43.5V6.3c0-0.827,0.673-1.5,1.5-1.5h33c0.827,0,1.5,0.673,1.5,1.5v37.2
		C45,44.327,44.327,45,43.5,45z M10.5,6c-0.166,0-0.3,0.135-0.3,0.3v37.2c0,0.166,0.135,0.301,0.3,0.301h33
		c0.166,0,0.301-0.135,0.301-0.301V6.3c0-0.166-0.135-0.3-0.301-0.3H10.5z"/>
	<g display="inline">
		<path fill="#FFFFFF" d="M9.19,20.49c0,0.055-0.013,0.102-0.038,0.14c-0.025,0.038-0.068,0.069-0.128,0.094
			c-0.061,0.025-0.143,0.043-0.246,0.053c-0.103,0.01-0.23,0.015-0.381,0.015c-0.161,0-0.292-0.005-0.392-0.015
			c-0.102-0.01-0.183-0.027-0.246-0.053s-0.108-0.057-0.135-0.094c-0.028-0.038-0.042-0.084-0.042-0.14v-0.747
			c-0.347,0.372-0.71,0.661-1.091,0.867c-0.379,0.206-0.8,0.31-1.264,0.31c-0.513,0-0.947-0.099-1.301-0.298
			c-0.354-0.198-0.644-0.466-0.868-0.804c-0.224-0.336-0.385-0.73-0.486-1.181c-0.101-0.45-0.15-0.924-0.15-1.422
			c0-0.599,0.063-1.137,0.192-1.614c0.128-0.478,0.316-0.886,0.563-1.223c0.246-0.336,0.553-0.596,0.92-0.777
			c0.367-0.181,0.789-0.271,1.268-0.271c0.377,0,0.718,0.077,1.025,0.23c0.307,0.153,0.611,0.378,0.913,0.675V10.59
			c0-0.05,0.014-0.095,0.042-0.136c0.027-0.04,0.078-0.074,0.152-0.102c0.072-0.027,0.169-0.049,0.29-0.064
			c0.121-0.016,0.274-0.023,0.46-0.023c0.187,0,0.34,0.007,0.46,0.023c0.121,0.015,0.216,0.037,0.287,0.064
			c0.071,0.028,0.121,0.062,0.151,0.102c0.03,0.041,0.045,0.086,0.045,0.136V20.49z M7.303,15.993
			c-0.271-0.342-0.532-0.604-0.781-0.785c-0.248-0.181-0.508-0.271-0.78-0.271c-0.247,0-0.459,0.062-0.638,0.185
			c-0.178,0.123-0.322,0.288-0.43,0.494c-0.108,0.207-0.188,0.437-0.241,0.69c-0.053,0.254-0.08,0.515-0.08,0.781
			c0,0.282,0.023,0.557,0.067,0.823c0.045,0.267,0.121,0.504,0.223,0.713c0.103,0.208,0.24,0.376,0.411,0.502
			c0.171,0.125,0.387,0.188,0.649,0.188c0.131,0,0.258-0.019,0.381-0.057c0.123-0.037,0.249-0.099,0.376-0.185
			c0.129-0.085,0.26-0.197,0.396-0.336c0.136-0.138,0.284-0.308,0.445-0.509V15.993z"/>
		<path fill="#FFFFFF" d="M17.904,17.057c0,0.574-0.075,1.097-0.226,1.569c-0.15,0.473-0.379,0.88-0.687,1.222
			c-0.307,0.342-0.691,0.606-1.154,0.792s-1.004,0.279-1.623,0.279c-0.599,0-1.119-0.083-1.562-0.249
			c-0.443-0.166-0.811-0.408-1.102-0.725c-0.292-0.317-0.508-0.707-0.649-1.169c-0.141-0.463-0.211-0.991-0.211-1.584
			c0-0.574,0.077-1.099,0.23-1.574c0.154-0.475,0.384-0.882,0.691-1.222c0.307-0.34,0.69-0.603,1.15-0.789
			c0.46-0.186,1-0.279,1.618-0.279c0.604,0,1.127,0.082,1.57,0.245c0.443,0.164,0.809,0.404,1.098,0.721
			c0.289,0.317,0.504,0.707,0.645,1.169C17.834,15.928,17.904,16.459,17.904,17.057z M15.95,17.133c0-0.333-0.026-0.638-0.079-0.917
			c-0.054-0.28-0.143-0.521-0.269-0.728c-0.125-0.207-0.292-0.367-0.501-0.483c-0.209-0.116-0.472-0.173-0.789-0.173
			c-0.282,0-0.528,0.051-0.739,0.154c-0.212,0.104-0.386,0.254-0.521,0.453c-0.136,0.199-0.238,0.437-0.305,0.716
			c-0.068,0.279-0.103,0.598-0.103,0.955c0,0.332,0.028,0.637,0.083,0.917c0.056,0.279,0.146,0.521,0.268,0.728
			c0.124,0.206,0.292,0.366,0.502,0.479c0.211,0.113,0.473,0.169,0.785,0.169c0.287,0,0.536-0.051,0.747-0.155
			c0.212-0.103,0.386-0.252,0.521-0.449c0.136-0.196,0.236-0.434,0.302-0.713S15.95,17.49,15.95,17.133z"/>
		<path fill="#FFFFFF" d="M24.498,19.419c0,0.131-0.002,0.24-0.01,0.328c-0.008,0.088-0.019,0.162-0.031,0.223
			c-0.012,0.061-0.027,0.109-0.046,0.147c-0.017,0.037-0.057,0.085-0.115,0.143c-0.061,0.058-0.164,0.128-0.311,0.211
			c-0.145,0.083-0.312,0.158-0.497,0.223c-0.187,0.065-0.389,0.118-0.607,0.159c-0.219,0.04-0.444,0.061-0.675,0.061
			c-0.518,0-0.978-0.081-1.377-0.242c-0.4-0.161-0.736-0.398-1.007-0.713s-0.477-0.698-0.615-1.15
			c-0.139-0.453-0.208-0.972-0.208-1.555c0-0.674,0.085-1.256,0.253-1.747s0.404-0.896,0.706-1.219
			c0.302-0.322,0.658-0.56,1.071-0.716c0.413-0.156,0.865-0.234,1.358-0.234c0.202,0,0.398,0.017,0.592,0.053
			c0.194,0.035,0.375,0.083,0.543,0.144c0.169,0.06,0.32,0.128,0.454,0.203c0.133,0.076,0.226,0.142,0.282,0.196
			c0.055,0.056,0.095,0.102,0.117,0.14c0.021,0.038,0.04,0.086,0.053,0.146c0.012,0.061,0.021,0.135,0.029,0.223
			c0.009,0.088,0.013,0.195,0.013,0.321c0,0.292-0.026,0.497-0.077,0.615c-0.05,0.118-0.114,0.177-0.195,0.177
			c-0.085,0-0.176-0.035-0.272-0.105c-0.094-0.07-0.207-0.148-0.339-0.233c-0.131-0.086-0.286-0.164-0.467-0.234
			c-0.182-0.07-0.398-0.105-0.649-0.105c-0.493,0-0.871,0.19-1.132,0.57c-0.261,0.38-0.392,0.937-0.392,1.671
			c0,0.363,0.032,0.682,0.098,0.959c0.065,0.276,0.163,0.508,0.291,0.693c0.128,0.187,0.289,0.327,0.482,0.419
			c0.194,0.092,0.419,0.139,0.675,0.139c0.261,0,0.486-0.039,0.676-0.117c0.188-0.078,0.353-0.165,0.494-0.26
			c0.141-0.096,0.258-0.183,0.353-0.261c0.098-0.078,0.176-0.117,0.243-0.117c0.044,0,0.083,0.013,0.113,0.038
			c0.03,0.025,0.055,0.072,0.07,0.14c0.018,0.067,0.032,0.154,0.043,0.26C24.494,19.117,24.498,19.253,24.498,19.419z"/>
		<path fill="#FFFFFF" d="M31.72,20.354c0.04,0.085,0.059,0.156,0.056,0.211c-0.002,0.055-0.038,0.101-0.108,0.135
			c-0.07,0.036-0.178,0.059-0.325,0.072c-0.146,0.013-0.34,0.019-0.579,0.019c-0.229,0-0.41-0.004-0.547-0.011
			c-0.14-0.008-0.249-0.023-0.325-0.045c-0.079-0.022-0.136-0.05-0.174-0.083c-0.038-0.033-0.066-0.075-0.087-0.125l-1.246-2.392
			l-1.243,2.392c-0.021,0.05-0.048,0.092-0.085,0.125c-0.034,0.033-0.089,0.06-0.161,0.083s-0.176,0.038-0.305,0.045
			c-0.132,0.007-0.304,0.011-0.513,0.011c-0.223,0-0.397-0.006-0.529-0.019c-0.131-0.013-0.227-0.036-0.287-0.072
			c-0.061-0.035-0.092-0.08-0.094-0.135s0.02-0.126,0.064-0.211l1.863-3.313l-1.721-3.109c-0.045-0.09-0.068-0.167-0.072-0.23
			c-0.002-0.063,0.03-0.111,0.095-0.147c0.066-0.036,0.17-0.061,0.313-0.076c0.144-0.015,0.339-0.023,0.585-0.023
			c0.223,0,0.398,0.004,0.532,0.012c0.133,0.007,0.237,0.018,0.314,0.034c0.075,0.015,0.13,0.039,0.165,0.071
			s0.064,0.074,0.092,0.125l1.198,2.249l1.191-2.249c0.016-0.041,0.039-0.076,0.068-0.106c0.031-0.03,0.08-0.055,0.145-0.076
			c0.064-0.02,0.154-0.035,0.268-0.045c0.113-0.01,0.267-0.016,0.465-0.016c0.221,0,0.397,0.005,0.53,0.016
			c0.134,0.01,0.229,0.033,0.287,0.068s0.085,0.084,0.082,0.147c-0.002,0.063-0.029,0.145-0.086,0.245l-1.674,3.056L31.72,20.354z"
			/>
	</g>
	<path display="inline" d="M40.75,35.992H13.206c-0.328,0-0.594-0.266-0.594-0.594s0.266-0.594,0.594-0.594H40.75
		c0.328,0,0.594,0.266,0.594,0.594S41.078,35.992,40.75,35.992z"/>
	<path display="inline" d="M40.75,40.658H13.206c-0.328,0-0.594-0.266-0.594-0.594s0.266-0.594,0.594-0.594H40.75
		c0.328,0,0.594,0.266,0.594,0.594S41.078,40.658,40.75,40.658z"/>
</g>
<g id="Ebene_3">
	<path d="M31.505,29.217c0,0.85-0.688,1.539-1.538,1.539H2.287c-0.848,0-1.537-0.689-1.537-1.539V1.538C0.75,0.688,1.439,0,2.287,0
		h27.68c0.85,0,1.538,0.688,1.538,1.538V29.217z"/>
	<path d="M42.696,45H8.52c-0.857,0-1.554-0.697-1.554-1.554V4.919c0-0.856,0.697-1.554,1.554-1.554h34.177
		c0.856,0,1.554,0.697,1.554,1.554v38.527C44.25,44.303,43.553,45,42.696,45z M8.52,4.609c-0.171,0-0.311,0.139-0.311,0.311v38.527
		c0,0.172,0.14,0.312,0.311,0.312h34.177c0.172,0,0.312-0.14,0.312-0.312V4.919c0-0.171-0.14-0.311-0.312-0.311H8.52z"/>
	<g>
		<path fill="#FFFFFF" d="M5.388,6.277h3.409l2.629,11.619l3.249-11.619h2.882l3.296,11.619l2.605-11.619h3.409l-4.101,18.201
			h-3.324L16.09,12.711L12.8,24.479H9.508L5.388,6.277z"/>
	</g>
	<path d="M39.848,35.686H11.322c-0.34,0-0.615-0.448-0.615-1.001c0-0.551,0.275-0.999,0.615-0.999h28.525
		c0.34,0,0.615,0.448,0.615,0.999C40.463,35.237,40.188,35.686,39.848,35.686z"/>
	<path d="M39.848,40.775H11.322c-0.34,0-0.615-0.447-0.615-1s0.275-1,0.615-1h28.525c0.34,0,0.615,0.447,0.615,1
		S40.188,40.775,39.848,40.775z"/>
</g>
</svg>
