<?xml version="1.0" encoding="utf-8"?>
<!-- Generator: Adobe Illustrator 15.1.0, SVG Export Plug-In  -->
<!DOCTYPE svg PUBLIC "-//W3C//DTD SVG 1.1//EN" "http://www.w3.org/Graphics/SVG/1.1/DTD/svg11.dtd" [
	<!ENTITY ns_flows "http://ns.adobe.com/Flows/1.0/">
]>
<svg version="1.1"
	 xmlns="http://www.w3.org/2000/svg" xmlns:xlink="http://www.w3.org/1999/xlink" xmlns:a="http://ns.adobe.com/AdobeSVGViewerExtensions/3.0/"
	 x="0px" y="0px" width="16px" height="16px" viewBox="-0.3 -3.6 16 16"
	 style="overflow:visible;enable-background:new -0.3 -3.6 16 16;" xml:space="preserve" preserveAspectRatio="xMinYMid meet">
<defs>
</defs>
<path style="fill:#999999;" d="M0,8c0.3,0,0.5-0.2,0.7-0.4c0.1-0.2,0.3-0.5,0.5-1L3.8,0h0.3l2.7,6.3C7.2,7,7.4,7.5,7.5,7.7
	S7.9,8,8.2,8v0.3H4.3V8c0.4,0,0.6,0,0.8-0.1s0.2-0.2,0.2-0.4c0-0.1,0-0.2-0.1-0.4c0-0.1-0.1-0.2-0.2-0.4L4.7,5.9H2
	C1.8,6.4,1.7,6.7,1.6,6.8C1.5,7.2,1.5,7.4,1.5,7.5c0,0.2,0.1,0.3,0.3,0.4C2,7.9,2.2,8,2.4,8v0.3H0V8z M4.5,5.4L3.4,2.7H3.2L2.2,5.4
	H4.5z M9.8,0.2v3.1C10,3.1,10.1,3,10.3,2.9c0.3-0.2,0.6-0.2,0.9-0.2c0.7,0,1.2,0.3,1.6,0.8s0.6,1.2,0.6,1.9c0,1-0.3,1.8-0.8,2.3
	s-1.2,0.8-2,0.8c-0.3,0-0.6-0.1-0.8-0.2S9.4,8,9.2,7.8L8.3,8.4H8.1V1.1c0-0.3,0-0.4-0.1-0.5C7.9,0.5,7.7,0.5,7.5,0.5V0.2H9.8z
	 M9.9,7.6c0.1,0.3,0.4,0.4,0.7,0.4c0.4,0,0.7-0.2,0.9-0.7c0.2-0.4,0.3-1,0.3-1.8c0-0.6-0.1-1.2-0.2-1.6s-0.4-0.7-0.9-0.7
	c-0.3,0-0.5,0.1-0.6,0.3C9.9,3.7,9.8,3.9,9.8,4v3.2C9.8,7.3,9.8,7.5,9.9,7.6z M14,6.7c0.2-0.2,0.4-0.3,0.7-0.3s0.5,0.1,0.7,0.3
	s0.3,0.4,0.3,0.7S15.6,8,15.4,8.1S15,8.4,14.7,8.4S14.2,8.3,14,8.1s-0.3-0.4-0.3-0.7S13.8,6.9,14,6.7z"/>
</svg>
