<?xml version="1.0" encoding="utf-8"?>
<!-- Generator: Adobe Illustrator 15.1.0, SVG Export Plug-In  -->
<!DOCTYPE svg PUBLIC "-//W3C//DTD SVG 1.1//EN" "http://www.w3.org/Graphics/SVG/1.1/DTD/svg11.dtd" [
	<!ENTITY ns_flows "http://ns.adobe.com/Flows/1.0/">
]>
<svg version="1.1"
	 xmlns="http://www.w3.org/2000/svg" xmlns:xlink="http://www.w3.org/1999/xlink" xmlns:a="http://ns.adobe.com/AdobeSVGViewerExtensions/3.0/"
	 x="0px" y="0px" width="16px" height="16px" viewBox="0 -4.6 16 16" style="overflow:visible;enable-background:new 0 -4.6 16 16;"
	 xml:space="preserve" preserveAspectRatio="xMinYMid meet">
<defs>
</defs>
<path style="fill:#999999;" d="M0,6c0.2,0,0.4-0.1,0.5-0.3c0.1-0.1,0.2-0.4,0.4-0.8l2-4.9h0.3l2,4.7c0.2,0.5,0.4,0.9,0.5,1
	C5.8,5.9,5.9,6,6.1,6v0.2H3.2V6c0.3,0,0.5,0,0.6-0.1c0.1,0,0.1-0.1,0.1-0.3c0-0.1,0-0.2-0.1-0.3c0-0.1-0.1-0.2-0.1-0.3L3.5,4.4h-2
	C1.4,4.8,1.3,5,1.2,5.1C1.2,5.4,1.1,5.5,1.1,5.6c0,0.1,0.1,0.2,0.3,0.3C1.5,6,1.6,6,1.8,6v0.2H0V6z M3.4,4.1L2.5,2H2.4L1.6,4.1H3.4z
	 M5.6,6c0.2,0,0.4,0,0.5-0.1c0.2-0.1,0.3-0.3,0.3-0.5V1c0-0.3-0.1-0.4-0.3-0.5C6,0.4,5.8,0.4,5.6,0.4V0.1h2.8c0.5,0,1,0.1,1.3,0.2
	c0.7,0.2,1,0.7,1,1.3c0,0.4-0.1,0.7-0.4,0.9C10,2.7,9.7,2.8,9.4,2.9V3C9.7,3,10,3.1,10.3,3.3C10.8,3.6,11,4,11,4.5
	c0,0.5-0.2,0.9-0.7,1.2C9.9,6.1,9.2,6.2,8.5,6.2H5.6V6z M8.9,2.6c0.2-0.2,0.3-0.5,0.3-1C9.2,1.3,9.2,1,9,0.7
	C8.9,0.5,8.7,0.4,8.3,0.4c-0.2,0-0.3,0-0.4,0.1S7.8,0.7,7.8,0.8v2C8.4,2.9,8.7,2.8,8.9,2.6z M7.9,5.7C8,5.9,8.1,5.9,8.3,5.9
	c0.4,0,0.7-0.1,0.9-0.3c0.2-0.2,0.3-0.6,0.3-1c0-0.6-0.2-1.1-0.6-1.3C8.7,3.2,8.3,3.1,7.8,3.1v2.2C7.8,5.5,7.8,5.6,7.9,5.7z
	 M15.2,0.2c0.4,0.1,0.6,0.2,0.6,0.2c0.1,0,0.2,0,0.3-0.1c0.1-0.1,0.1-0.2,0.1-0.3h0.3v2.1h-0.2C16,1.7,15.8,1.3,15.6,1
	c-0.4-0.5-0.9-0.7-1.4-0.7c-0.6,0-1,0.3-1.3,0.8c-0.3,0.5-0.4,1.2-0.4,2.1c0,0.6,0.1,1.2,0.2,1.6c0.3,0.8,0.8,1.2,1.5,1.2
	c0.5,0,0.9-0.1,1.3-0.4c0.2-0.1,0.5-0.4,0.8-0.7l0.3,0.2c-0.4,0.4-0.7,0.7-0.9,0.9c-0.5,0.3-1,0.5-1.6,0.5c-0.9,0-1.6-0.3-2.2-0.8
	c-0.7-0.6-1-1.4-1-2.4c0-1,0.3-1.8,1-2.4C12.4,0.3,13.2,0,14,0C14.4,0,14.8,0.1,15.2,0.2z"/>
</svg>
