<?xml version="1.0" encoding="utf-8"?>
<!-- Generator: Adobe Illustrator 15.1.0, SVG Export Plug-In  -->
<!DOCTYPE svg PUBLIC "-//W3C//DTD SVG 1.1//EN" "http://www.w3.org/Graphics/SVG/1.1/DTD/svg11.dtd" [
	<!ENTITY ns_flows "http://ns.adobe.com/Flows/1.0/">
]>
<svg version="1.1"
	 xmlns="http://www.w3.org/2000/svg" xmlns:xlink="http://www.w3.org/1999/xlink" xmlns:a="http://ns.adobe.com/AdobeSVGViewerExtensions/3.0/"
	 x="0px" y="0px" width="16px" height="16px" viewBox="-0.3 0 16 16" style="overflow:visible;enable-background:new -0.3 0 16 16;"
	 xml:space="preserve" preserveAspectRatio="xMinYMid meet">
<defs>
</defs>
<path style="fill:#999999;" d="M8.1,15.6c-1.9,1-8.7-6-8.1-9.3c0.1-0.7,2.8,0.8,6.1-2l5.4,5.4C11,11.2,9.6,14.8,8.1,15.6z M10.7,7.5
	l1.1,1.2l0.3-0.3c0.6-0.6,0.6-1.7,0-2.3L15.2,3c0.6-0.6,0.6-1.7,0-2.3L15,0.5c-0.6-0.6-1.7-0.6-2.3,0L9.6,3.6L9.5,3.5
	c-0.6-0.6-1.7-0.6-2.3,0L7,3.7L8.2,5L10.7,7.5z"/>
</svg>
