<?xml version="1.0" encoding="utf-8"?>
<!-- Generator: Adobe Illustrator 15.1.0, SVG Export Plug-In  -->
<!DOCTYPE svg PUBLIC "-//W3C//DTD SVG 1.1//EN" "http://www.w3.org/Graphics/SVG/1.1/DTD/svg11.dtd" [
	<!ENTITY ns_flows "http://ns.adobe.com/Flows/1.0/">
]>
<svg version="1.1"
	 xmlns="http://www.w3.org/2000/svg" xmlns:xlink="http://www.w3.org/1999/xlink" xmlns:a="http://ns.adobe.com/AdobeSVGViewerExtensions/3.0/"
	 x="0px" y="0px" width="16px" height="16px" viewBox="0 -1 16 16" style="overflow:visible;enable-background:new 0 -1 16 16;"
	 xml:space="preserve" preserveAspectRatio="xMinYMid meet">
<defs>
</defs>
<path style="fill:#999999;" d="M13,8.5l3,1.5l-8,4l-8-4l3-1.5l1.3,0.7L2.7,10L8,12.7l5.3-2.7l-1.7-0.8L13,8.5z M11.7,6.2L13.3,7
	L8,9.7L2.7,7l1.7-0.8L3,5.5L0,7l8,4l8-4l-3-1.5L11.7,6.2z M16,4L8,8L0,4l8-4L16,4z M8,6.7L13.3,4L8,1.3L2.7,4L8,6.7z"/>
</svg>
