<?xml version="1.0" encoding="utf-8"?>
<!-- Generator: Adobe Illustrator 15.1.0, SVG Export Plug-In  -->
<!DOCTYPE svg PUBLIC "-//W3C//DTD SVG 1.1//EN" "http://www.w3.org/Graphics/SVG/1.1/DTD/svg11.dtd" [
	<!ENTITY ns_flows "http://ns.adobe.com/Flows/1.0/">
]>
<svg version="1.1"
	 xmlns="http://www.w3.org/2000/svg" xmlns:xlink="http://www.w3.org/1999/xlink" xmlns:a="http://ns.adobe.com/AdobeSVGViewerExtensions/3.0/"
	 x="0px" y="0px" width="16px" height="16px" viewBox="0 0 16 16" style="overflow:visible;enable-background:new 0 0 16 16;"
	 xml:space="preserve" preserveAspectRatio="xMinYMid meet">
<defs>
</defs>
<path style="fill:#999999;" d="M0,14.2h1.8V16H0V14.2z M3.6,10.7h1.8v1.8H3.6V10.7z M3.6,14.2h1.8V16H3.6V14.2z M7.1,7.1h1.8v1.8
	H7.1V7.1z M7.1,10.7h1.8v1.8H7.1V10.7z M7.1,14.2h1.8V16H7.1V14.2z M10.7,3.6h1.8v1.8h-1.8V3.6z M10.7,7.1h1.8v1.8h-1.8V7.1z
	 M10.7,10.7h1.8v1.8h-1.8V10.7z M10.7,14.2h1.8V16h-1.8V14.2z M14.2,0H16v1.8h-1.8V0z M14.2,3.6H16v1.8h-1.8V3.6z M14.2,7.1H16v1.8
	h-1.8V7.1z M14.2,10.7H16v1.8h-1.8V10.7z M14.2,14.2H16V16h-1.8V14.2z"/>
</svg>
