<?xml version="1.0" encoding="utf-8"?>
<!-- Generator: Adobe Illustrator 15.1.0, SVG Export Plug-In  -->
<!DOCTYPE svg PUBLIC "-//W3C//DTD SVG 1.1//EN" "http://www.w3.org/Graphics/SVG/1.1/DTD/svg11.dtd" [
	<!ENTITY ns_flows "http://ns.adobe.com/Flows/1.0/">
]>
<svg version="1.1"
	 xmlns="http://www.w3.org/2000/svg" xmlns:xlink="http://www.w3.org/1999/xlink" xmlns:a="http://ns.adobe.com/AdobeSVGViewerExtensions/3.0/"
	 x="0px" y="0px" width="16px" height="16px" viewBox="-2.3 0 16 16" style="overflow:visible;enable-background:new -2.3 0 16 16;"
	 xml:space="preserve" preserveAspectRatio="xMinYMid meet">
<defs>
</defs>
<path style="fill:#999999;" d="M9.1,0h2.3v7.4c0,1.4-0.6,2.6-1.7,3.6c-1.1,1-2.5,1.5-4,1.5c-1.6,0-2.9-0.5-4-1.5
	C0.6,10.1,0,8.9,0,7.4V0h2.3v7.4c0,0.7,0.3,1.4,0.9,1.9c0.7,0.6,1.5,0.9,2.5,0.9c1,0,1.8-0.3,2.5-0.9c0.6-0.5,0.9-1.2,0.9-1.9V0z
	 M0,13.7h11.4V16H0V13.7z"/>
</svg>
