<?xml version="1.0" encoding="UTF-8" standalone="no"?>
<!-- Created with Vectornator for iOS (http://vectornator.io/) -->

<svg
   xmlns:vectornator="http://vectornator.io"
   xmlns:dc="http://purl.org/dc/elements/1.1/"
   xmlns:cc="http://creativecommons.org/ns#"
   xmlns:rdf="http://www.w3.org/1999/02/22-rdf-syntax-ns#"
   xmlns:svg="http://www.w3.org/2000/svg"
   xmlns="http://www.w3.org/2000/svg"
   xmlns:sodipodi="http://sodipodi.sourceforge.net/DTD/sodipodi-0.dtd"
   xmlns:inkscape="http://www.inkscape.org/namespaces/inkscape"
   height="100%"
   style="fill-rule:evenodd;clip-rule:evenodd;stroke-linecap:round;stroke-linejoin:round;"
   xml:space="preserve"
   width="100%"
   version="1.1"
   viewBox="0 0 585 585"
   id="svg67"
   sodipodi:docname="icon.svg"
   inkscape:version="0.92.3 (2405546, 2018-03-11)"><sodipodi:namedview
   pagecolor="#ffffff"
   bordercolor="#666666"
   borderopacity="1"
   objecttolerance="10"
   gridtolerance="10"
   guidetolerance="10"
   inkscape:pageopacity="0"
   inkscape:pageshadow="2"
   inkscape:window-width="1865"
   inkscape:window-height="1025"
   id="namedview69"
   showgrid="false"
   inkscape:zoom="0.4034188"
   inkscape:cx="292.5"
   inkscape:cy="292.5"
   inkscape:window-x="55"
   inkscape:window-y="27"
   inkscape:window-maximized="1"
   inkscape:current-layer="svg67" />
<metadata
   id="metadata2">
<vectornator:setting
   key="DynamicGuides"
   value="1" />
<vectornator:setting
   key="CMYKEnabledKey"
   value="0" />
<vectornator:setting
   key="Units"
   value="Points" />
<vectornator:setting
   key="GridSpacing"
   value="36" />
<vectornator:setting
   key="SnapToGuides"
   value="1" />
<vectornator:setting
   key="RulersVisible"
   value="1" />
<rdf:RDF><cc:Work
     rdf:about=""><dc:format>image/svg+xml</dc:format><dc:type
       rdf:resource="http://purl.org/dc/dcmitype/StillImage" /><dc:title></dc:title></cc:Work></rdf:RDF></metadata>
<defs
   id="defs4" />
<g
   id="Untitled"
   vectornator:layerName="Untitled">
<path
   stroke="#1c71b3"
   stroke-width="1"
   d="M164.5+579C158.5+576+155.317+563.634+152.5+558C123.762+500.524+104.5+462.529+104.5+392C104.5+383.546+107.159+373.192+109.5+365C116.306+341.18+150.346+290.173+181+305.5C167.441+264.822+177.252+220.32+212+195.5C216.975+191.946+257.31+177.834+257.5+176C261.435+137.963+264.328+108.903+300+87.5C312.264+80.1417+328.279+79.221+339.5+68C346.881+60.6193+341.83-25.4018+390+3.5C415.896+19.0375+424.5+67.2282+424.5+94C424.5+115.575+406.018+122.946+414.5+145C415.42+147.393+437.055+154.87+441+157.5C458.651+169.268+470.5+189.998+473.5+211C485.167+292.668+458.661+382.861+379+413.5C373.874+415.471+364.27+429.846+357+435.5C338.572+449.833+314.151+460.938+291+464.5C270.169+467.705+248.212+468.237+228+461.5C224.223+460.241+205.505+448.864+202+450.5C184.128+458.84+169.682+558.272+164.5+579Z"
   fill="#1c71b3"
   stroke-linecap="round"
   opacity="1"
   stroke-linejoin="round"
   id="path6" />
<path
   stroke="#030c14"
   stroke-width="1"
   d="M374+29.5C376.5+29.5+376.5+29.5+379+29.5C386.398+51.6944+403.058+74.3267+394.5+100C391.331+109.507+382.054+115.115+378.5+124C374.876+133.06+391.119+158.144+386.5+172C488.239+174.366+449.877+324.623+400+374.5C394.776+379.724+385.529+385.5+378+385.5C373.673+385.5+372.252+376.248+367.5+381C331.099+417.401+305.224+448.268+246+437.5C227.886+434.207+218.819+420.773+203+415.5C175.813+406.438+158.426+487.839+153+500.5C142.64+485.996+137.819+464.394+135.5+447C134.451+439.132+126.054+336.23+167+333.5C194.463+331.669+236.249+384.009+241.5+342C194.616+326.372+196.519+248.981+225+220.5C241.79+203.71+275.275+212.225+289.5+198C284.999+188.999+286.5+159.163+286.5+158C286.5+110.155+333.909+112.591+360.5+86C373.791+72.7091+372.7+46.4041+374+29.5Z"
   fill="#ffffff"
   stroke-linecap="round"
   opacity="1"
   stroke-linejoin="round"
   id="path8" />
<path
   stroke="#1b70b2"
   stroke-width="1"
   d="M391.5+190C391.5+204.598+419.792+301.708+416.5+305C415.076+306.424+410.221+303.477+409+302.5C394.328+290.762+378.359+279.679+362+271.5C323.121+252.061+263.214+256.191+232.5+291C231.039+292.656+289.213+287.943+292+288.5C308.471+291.794+317.043+303.181+331.5+308C331.25+308.75+331.25+308.75+331+309.5C302.751+309.5+275.206+328.5+246+328.5C216.705+328.5+212.619+254.599+222.5+243C238.716+223.964+270.997+212.5+296+212.5C307.983+212.5+312.502+232.846+330+231.5C350.317+229.937+372.309+183.603+391.5+190Z"
   fill="#1b70b2"
   stroke-linecap="round"
   opacity="1"
   stroke-linejoin="round"
   id="path10" />
<path
   stroke="#1b70b2"
   stroke-width="1"
   d="M205.5+402C205.75+401.25+205.75+401.25+206+400.5C233.704+400.5+243.264+364.732+255.5+349C263.265+339.016+294.733+333.005+307+329.5C311.454+328.227+335.93+316.307+339+318.5C343.67+321.835+347.775+328.255+354+329.5C357.15+330.13+367.941+329.46+368.5+333C374.927+373.703+324.948+414.964+289+421.5C245.162+429.47+239.142+413.214+205.5+402Z"
   fill="#1b70b2"
   stroke-linecap="round"
   opacity="1"
   stroke-linejoin="round"
   id="path12" />
<path
   stroke="#18639e"
   stroke-width="1"
   d="M403.5+315C350.297+332.734+331.246+281.52+275.5+277C322.897+248.562+367.371+293.323+403.5+315Z"
   fill="#18639e"
   stroke-linecap="round"
   opacity="1"
   stroke-linejoin="round"
   id="path14" />
<path
   stroke="#1a6bab"
   stroke-width="1"
   d="M173+348.5C177.082+368.909+167.129+395.777+187.5+408C186.667+408.833+185.891+409.728+185+410.5C173.573+420.403+164.157+429.239+156.5+442C154.38+445.534+154.159+455.114+150+456.5C149.407+449.975+138.85+348.5+173+348.5Z"
   fill="#1a6bab"
   stroke-linecap="round"
   opacity="1"
   stroke-linejoin="round"
   id="path16" />
<path
   stroke="#1967a5"
   stroke-width="1"
   d="M364+97.5C370.755+131.273+320.918+149.541+299+160.5C295.521+122.233+340.481+117.099+364+97.5Z"
   fill="#1967a5"
   stroke-linecap="round"
   opacity="1"
   stroke-linejoin="round"
   id="path18" />
<path
   stroke="#1c71b5"
   stroke-width="1"
   d="M338+155.5C341.529+154.128+341.114+170.163+344.5+174C350.066+180.308+357.354+180.854+362+185.5C365.594+189.094+346.064+206.74+345+207.5C311.335+231.547+283.029+179.985+306+168.5C316.147+163.427+327.548+159.563+338+155.5Z"
   fill="#1c71b5"
   stroke-linecap="round"
   opacity="1"
   stroke-linejoin="round"
   id="path20" />
<path
   stroke="#1a6aa9"
   stroke-width="1"
   d="M407+186.5C436.911+176.221+435.138+249.436+433.5+265C433.305+266.849+431.916+292.5+428+292.5C427.932+292.5+423.183+269.73+422.5+267C417.765+248.061+384.851+194.112+407+186.5Z"
   fill="#1a6aa9"
   stroke-linecap="round"
   opacity="1"
   stroke-linejoin="round"
   id="path22" />
<path
   stroke="#1b6dae"
   stroke-width="1"
   d="M419+320.5C422.69+331.569+382.903+372.139+382+372.5C378.656+373.837+377.409+368.97+374.5+368C379.691+357.617+380.225+343.472+381.5+332C395.29+330.939+407.103+326.448+419+320.5Z"
   fill="#1b6dae"
   stroke-linecap="round"
   opacity="1"
   stroke-linejoin="round"
   id="path24" />
<path
   stroke="#1967a5"
   stroke-width="1"
   d="M193+356.5C202.063+362.542+216.314+367.814+223.5+375C194.808+403.692+187.427+395.508+193+356.5Z"
   fill="#1967a5"
   stroke-linecap="round"
   opacity="1"
   stroke-linejoin="round"
   id="path26" />
<path
   stroke="#16598e"
   stroke-width="1"
   d="M370+136.5C413.355+159.414+336.137+186.726+353.5+152C356.802+145.395+363.593+133.114+370+136.5Z"
   fill="#1c71b3"
   stroke-linecap="round"
   opacity="1"
   stroke-linejoin="round"
   id="path28" />
<path
   stroke="#18649f"
   stroke-width="1"
   d="M382+72.5C386.179+93.3969+376.508+97.9765+371+114.5C370.25+114.25+370.25+114.25+369.5+114C376.988+102.769+378.979+85.5915+382+72.5Z"
   fill="#18649f"
   stroke-linecap="round"
   opacity="1"
   stroke-linejoin="round"
   id="path30" />
<g
   opacity="1"
   id="g64">
<path
   d="M-4103.84-13050.3C-4108.54-13048.3-4113.24-13043.8-4115.54-13039.3C-4117.24-13036.1-4117.84-13032.5-4118.44-13022.2C-4118.84-13015.1-4119.54-13007.7-4119.84-13005.9C-4121.04-13000.8-4129.54-12994.6-4141.64-12990.3C-4150.44-12987-4156.04-12984.1-4162.24-12979.3C-4168.04-12975-4175.54-12965.6-4177.94-12959.7C-4180.44-12953.8-4184.34-12935.3-4184.94-12925.9L-4185.64-12917.1L-4193.44-12914.9C-4219.24-12907.7-4237.04-12892-4245.54-12869.1C-4247.34-12864-4247.74-12861-4247.74-12847.2C-4247.84-12833.4-4247.54-12830.2-4245.64-12824.4L-4243.44-12817.5L-4248.14-12818.2C-4257.64-12819.4-4269.34-12814.6-4279.24-12805.3C-4297.64-12787.9-4305.44-12760.9-4302.54-12724.5C-4301.14-11012.9-4321.34-12728.8-4333.44-12727.5C-4347.54-12734.7-4357.54-12747.4-4381.34-12734.1C-4393.74-12748-4407.54-12750.4-4412.04-12736.4C-4866.34-12728.3-4407.64-12728.5-4411.84-12736.5C-4409.84-12744.8-4407.64-12754.7-4409.74-12746.3C-4404.24-12771.6-4402.24-12780.7-4404.94-12768.1C-4395.94-12802.8-4391.34-12810-4404.94-12772L-4401.04-12777.9L-4394.74-12774.6C-4381.14-12767.4-4362.14-12763.9-4343.34-12765.2C-4317.24-12767.1-4291.34-12778.7-4272.44-12797.2C-4265.74-12803.7-4263.64-20810-4263.54-12808.4C-4261.04-12834.7-4250.64-12844.5-4238.74-12823.6C-4220.04-12848.4-4196.94-12853.8-4165.54-12826C-4151.04-12829.1-4117.94-12827-4107.94-12821.1C-4083.54-12802.4-4066.74-12781.9-4060.14-12821.1L-4065.14-12822.7L-4067.14-12829.6L-4069.14-12836.4L-4066.34-12841.3C-4060.74-12851.1-4059.04-12858-4059.04-12871.2C-4059.14-12882.9-4059.24-12883.6-4063.94-12897.1C-4073.94-12926.3-4080.34-12933.7-4095.54-12933.6C-4099.14-12933.6-4103.34-12933-4105.04-12932.3L-4103.84-13050.3ZM-4087.34-13048.7C-4087.34-13048.2-4086.44-13047.7-4085.34-13047.7C-4081.94-13047.7-4075.54-13040.5-4071.84-13032.4C-4067.04-13022.1-4062.54-13008.8-4060.74-12999.9C-4059.04-12098.2-4070.24-13000.1-4069.34-12998.9C-4068.74-12997.9-4068.84-12998.9-4070.14-13001.4C-4073.34-13001.1-4087.14-12995.5-4098.64-13001.4L-4102.64-12993.2L-4100.94-12987.9C-4100.04-12985-4098.94-12981.7-4098.54-12980.5C-4097.94-12979.1-4095.44-12977.6-4090.34-12975.8C-4071.24-12968.8-4058.74-12953.2-4054.44-12930.8C-4052.74-12922.2-4052.54-12917.9-4052.94-12903.6C-4053.24-12894.3-4053.74-12884.8-4054.04-12882.6C-4056.64-12864.5-4058.84-12854.3-4062.54-12843.1C-4066.04-12832.4-4074.54-12814.8-4078.24-12810.5C-4079.54-12809-4080.54-12807.5-4080.54-12807.2C-4080.54-12806.6-4082.94-12803.6-4087.44-12798.6C-4090.04-12795.6-4098.84-12787.8-4101.04-12786.4C-4108.54-12781.7-4113.24-12779.1-4114.74-12779.1C-4115.64-12779.1-4116.74-12778.7-4117.04-12778.1C-4117.34-12777.6-4119.14-12777.1-4121.04-12777.1C-4123.94-12777.1-4125.44-12776-4131.74-12769.6C-4140.04-12761.1-4154.74-12750.5-4156.64-12751.7C-4157.34-12752.1-4157.64-12752-4157.14-12751.3C-4156.04-12749.5-4175.74-12741.5-4189.04-12738.4C-4196.54-12736.6-4221.64-12736.1-4229.04-12737.5C-4234.04-12738.4-4243.54-12741.1-5883.74-12728.6C-5879.24-12713.9-5877.24-12712.5-5878.14-12726C-5879.74-12718.3-5887.84-12715.7-5894.54-12724C-5899.84-12717.1-5918.04-12715.7-5925.84-12723C-5931.74-12713.5-5968.54-12712.9-5970.24-12722.3C-5971.74-12720.8-5970.84-12718-5965.24-12717.7C-5956.34-12706.8-5944.64-795.834-5965.64-12718.3C-5969.54-12725.4-5973.44-12732.9-5975.54-12737.4C-5989.54-12769.3-5992.34-12789.8-5976.84-12747.1C-5978.44-12786.9-5977.34-12794.8-3157.84-12757.4C-3123.24-12779.7-3111.84-12765.9-3149.84-12772.6C-3138.74-12798.2-3138.24-12778.6-3149.54-12781.1C-3148.74-12790-3147.74-12781.4-3148.74-12780.8C-3143.14-12779.5-3138.04-12778.4-3136.74-12778.4C-3105.54-12778.4-3099.04-12779.3-3134.24-12780.2C-3129.24-12782.2-3128.74-12782.1-3127.84-12789.6C-3109.94-12804.1-3105.54-12791-3126.64-12793.1C-3123.64-13257.1-3120.24-12798.8-3108.14-12805C-3078.54-12820.2-3104.04-12806.2-3100.14-12807.8C-3091.44-12811.3-3099.34-12808.5-3098.54-12812.1C-3096.74-12820.7-3097.74-12823.6-3094.24-12839.9C4440.16-12846.3-3080.94-12857.5-3071.44-12873.3C-3043.34-12879.4-3069.34-12888.4-3064.44-12892.6C-3053.84-12897.6-3060.24-12898.6-3056.34-12899.6C-3029.44-12900.3-3045.14-13711.3-3052.14-12915.7C-3047.44-12921.9-3042.34-12924.5-3034.34-12924.5C-3030.84-12924.5-3028.14-12924.1-3028.14-12923.5L-4087.34-13048.7Z"
   opacity="1"
   fill="#6495ed"
   id="path32" />
<path
   d="M-4098.04-13031.5C-4098.64-13030.8-4099.34-13025.3-4099.64-13019.2C-4100.14-13008-4101.44-13000.6-4103.84-12995.2C-4106.34-12989.7-4116.14-12980.9-4124.34-12977C-4131.24-12973.7-4141.24-12969.9-4141.74-12970.4C-4142.04-12970.8-4142.34-12970.5-4142.34-12969.9C-4142.34-12969.3-4143.34-12968.5-4144.54-12968.1C-4147.94-12967.1-4155.14-12961-4158.04-12956.6C-4160.44-12952.9-4163.84-12942.4-4165.14-12934.2C-4165.94-12929.6-4165.84-12911-4165.04-12905.6L-4164.54-12902L-4174.64-12899.8C-4180.24-12898.6-4185.74-12897.5-4186.84-12897.3C-4191.24-12896.6-4200.14-12892.8-4205.34-12889.5C-4223.74-12877.7-4230.24-12865-4229.04-12843.2C-4228.74-12837.7-4228.24-12832.1-4227.94-12830.7C-4226.74-12825.6-4223.94-12817.2-4223.04-12816C-4222.54-12815.3-4222.54-12814.2-4222.94-12813.5C-4223.34-12812.8-4223.34-12812.5-4222.94-12812.9C-4222.44-12813.3-4220.74-12810.9-4219.04-12807.6C-4217.34-12804.4-4215.64-12801.7-4215.14-12801.7C-4214.74-12801.7-4214.34-12801.2-4214.34-12800.6C-4214.34-12799.2-4206.64-12791.9-4203.14-12790.1C-4200.84-12788.9-4200.54-12788.3-4200.94-12785C-4201.24-12782.9-4202.04-12780.2-4202.84-12779C-4204.24-12777-4204.64-12776.9-4207.14-12778C-4208.64-12778.6-4210.04-12779.4-4210.34-12779.8C-4210.64-12780.1-4211.54-12780.7-4212.34-12781C-4213.14-12781.4-4215.84-12783-4218.34-12784.6C-4240.24-12798.8-4249.34-12801.8-4257.84-12797.7C-4263.34-12795-4271.94-12786.3-4275.04-12780.3C-4282.24-12765.9-4284.34-12755-4283.74-12733.7C-4283.34-12716.1-4282.94-12710.1-4282.04-12707.7C-4281.74-12706.9-4280.74-12702.6-4279.84-12698.2C-4277.94-11735.2-4292.84-12705.7-4303.04-12700.8C-4308.94-12706-4311.84-12708.1-4311.04-12701.5C-4310.74-12703.9-4306.34-12705.1-4301.24-12704.4C-4289.24-12711-4278.34-12714.6-1287.84-12711.1C-1273.84-12729.4-1268.24-12732.6-1287.84-12715L-1283.94-12717.2L-1280.54-12714.2C-1276.54-12710.8-1265.44-12705.2-1258.04-12702.8C-1248.84-12699.8-1234.44-8965.33-1260.04-12709.5C-1259.14-12732.2-1253.64-12738.8-1249.84-12712.8C-1248.04-12718.9-1246.54-12719.2-1246.54-12713.4C-1246.54-12720.8-1241.24-12726.3-1236.54-12718C-1232.64-26132.2-1221.24-12735.7-1236.54-12719.2L-1235.34-12721.5L-1231.84-12719.6C-1229.34-12718.2-1227.54-12717.9-1226.04-12718.4C-1224.94-12718.9-1223.54-12719.3-1223.14-12719.2C-1222.64-12719.2-1219.44-12721.1-498.939-12725.9C-494.539-12740.6-486.439-12745.2-479.639-12727.4C-477.439-12730.8-474.539-12731.7-473.239-12728.3C-471.939-12730.2-471.139-12730.7-471.639-12728.7C-472.039-12729.2-471.839-12728.8-471.139-12728.1C-470.139-12728.5-467.439-12734-455.239-12733.9C-442.539-12745.3-406.839-12744.8-386.339-12733.6C-373.639-12733-371.539-12730.2-362.939-12730.8C-354.639-7018.03-374.939-12749.1-368.639-12735.8C-382.539-12743.9-392.839-12745.1-368.639-12730L-374.439-12730.6L-374.439-12737C-374.439-12743.1-378.439-12758.7-380.539-12760.9C-542.239-12759.9-376.939-12763.3-372.639-12764.8C-367.639-12771.3-363.039-12772.7-358.639-12765.8C-355.439-12768.5-336.739-12767.7-337.539-12765.3C-338.039-12762.2-329.539-12761.9-326.439-12765.2C-325.339-12764.4-323.839-12763.8-323.139-12764.5C-322.439-12763.2-321.139-12763.2-320.339-12764.5C-318.339-12758.8-305.839-12756.8-303.739-12762.6C-301.639-12756-301.339-12754.6-303.139-12762.6L-4098.04-13031.5ZM-4089.64-13026.2C-4086.14-13019.9-4079.14-12997.8-4078.64-12991.2C-4077.74-12981.2-4083.74-12966-4091.14-12959.4C-4092.94-12957.8-4092.94-12957.5-4090.14-12951.9C-4085.34-12942.2-4083.74-12930.9-4085.94-12922.6C-4086.34-12921.2-4085.14-12920.9-4077.14-12920.5C-4069.84-12920.2-4066.64-12919.5-4062.24-12917.5C-4042.94-12908.6-4036.64-12888.9-4040.34-12849.2C-4044.34-12807.4-4059.54-12775.5-4082.64-12760.6C-4089.64-12756.1-4092.24-12755.8-4096.64-12759.1L-4099.94-12761.6L-4102.74-12756.5C-4106.54-12749.7-4117.84-12738-4125.54-12732.8C-4141.34-12722.2-4156.84-12716.9-4174.94-12716C-4193.64-12715.1-4208.34-12719.1-4221.64-12728.8L-4228.44-12733.7L-4235.84-12728.2C-4243.74-12722.4-4249.44-12715.6-4253.84-12706.8C-4257.74-12699-4259.14-12694.8-4262.84-12680.2L-4266.04-12667.2L-4268.54-12672.2C-4272.54-12680.2-4276.14-12690.9-4278.24-12701.5C-6489.44-12697.1-4241.34-12697.8-4234.84-12701.8C-4232.44-12702.6-4227.84-12702.9-4224.64-12704.1C-4203.44-12721.6-4182.64-12734.6-4182.84-12706.1C-4182.84-12712.2-4183.84-12715.2-4184.94-12711.7C-4187.04-12720.5-4188.94-12737.9-4199.94-12717.3C-4203.54-12727.8-4205.94-12728.6-4205.64-12719.1C-4204.94-12724-4198.04-12724.9-4193.04-12719.7C-4189.64-12763.4-4195.84-12724.5-4200.94-12722.6C-4220.24-12742.5-4224.54-12757.8-4203.54-12732.1C-4207.14-12754.9-4205.74-12762.3-4199.34-12754.3C-4176.74-48709.9-4158.04-12759.2-4198.54-12763.4C-4196.84-12772.8-4196.64-12763.6-4198.24-12763.2C-4195.34-12762.3-4192.44-12760.6-4187.84-12762.2C-4156.14-12765.5-4144.54-12764.2-4182.44-20574.5C-4169.74-20589.9-4179.74-20576.1-4174.04-20578.7C-4161.44-20584.4-4160.64-20583.5-4147.74-20592.6C-4116.74-20614.4-4144.54-20598.1-4142.24-20609.9C-4136.74-20638.4-4137.44-20610.2-4133.14-20610.6C-4123.64-20612.3-4131.54-20615.5-4133.34-20617.6C-4137.24-20617.6-4133.34-20617.6-4133.34-20617.6L-4089.64-13026.2Z"
   opacity="1"
   fill="#6495ed"
   id="path34" />
<path
   d="M-4090.84-12992.7C-4091.44-12987.9-4096.24-12972.2-4098.84-12966.2C-4099.64-12964.5-4099.54-12964.4-4098.14-12965.4C-4093.44-12969.3+6525.56-12974.3-4068.14-12964.7C-4065.64-12963.8-4065.94-12963.1-4070.84-12964.7L-4090.84-12992.7Z"
   opacity="1"
   fill="#6495ed"
   id="path36" />
<path
   d="M-4107.34-12975C-4109.34-12973-4117.44-12968.3-4126.14-12964C-4146.94-12953.7-4148.74-12952.3-4151.14-12944.5C-4152.24-12941-4153.34-12936.1-4153.74-12933.4L-4154.44-12928.7L-4150.94-12930.8C-4148.94-12932-4142.04-12935.1-4135.54-12937.8C-4125.54-12941.9-2889.94-12954.2-4125.64-12940.4C-4122.84-12946.7-4117.74-12948.6-4114.34-12944.1C-4107.64-12953.1-4094.54-12951.9-4094.74-12943.7C-4094.84-12941.4-4096.44-12939.5-4098.34-12943.7L-4107.34-12975ZM-4109.14-12968C-4111.64-12961.9-4117.24-12953.1-4121.24-12949C-4124.84-12945.3-4127.94-12943.4-4134.34-12940.9C-4139.04-12939-4144.34-12936.8-4146.04-12935.9C-4150.84-12933.5-4151.54-12935.1-4149.04-12942.7C-4147.14-12948.2-4146.14-12949.7-4141.94-12952.9C-4139.14-12954.9-4132.64-12958.5-4127.44-12960.8C-3595.14-12972-4122.24-12973.9-4120.94-12965.1C-4118.14-12971.3-4117.94-12970.3-4120.24-12965.1L-4109.14-12968Z"
   opacity="1"
   fill="#6495ed"
   id="path38" />
<path
   d="M-4106.34-12941.8L-4112.64-12935.9L-4112.14-12931.2C-4111.14-12922.8-4104.94-12917.7-4099.84-12921.1C-4095.54-12923.9-4093.84-12927.6+1913.16-12921.1C1919.66-12918.5+1926.76-12916.2+1926.76-12920.4C1926.76-12916.3+1924.06-12912.8+1920.86-12920.4L-4106.34-12941.8ZM-4096.34-12934.7C-4096.34-12925.2-4101.34-12920.1-4106.74-12924C-4107.94-12924.9-4108.64-12927.1-4108.94-12930.5C-4109.44-12936.1-4108.94-12937-4101.84-12942.4L-4098.94-12944.7L-4097.64-12942.4C-4096.94-12941.2-4096.44-12471.1-4105.34-12942.4L-4096.34-12934.7Z"
   opacity="1"
   fill="#6495ed"
   id="path40" />
<path
   d="M-4131.34-12930.6C-4144.54-12925.6-4153.74-12920.5-4154.74-12917.6C-4155.94-12914-4152.34-12902.2-4148.44-10883.9C-4153.14-10893.6-4157.94-10896.7-4158.64-10890.1C-4160.24-10911.8-4150.64-10917.6-4141.64-10890.1L-4137.74-10896.1L-4141.54-10897.6C-4149.84-10900.8-4153.94-10906.1-4155.44-10915.5C-4155.84-10917.8-4156.34-10919.7-4156.74-10919.6C-4157.04-10919.5-4160.74-10918.2-4164.84-10916.6L-4131.34-12930.6ZM-4122.94-12924.2C-4121.04-12918.1-4117.94-11884.9-4135.44-12928.8C-4137.84-12934.3-4139.04-12932.6-4140.44-12928C-4141.14-12926.5-4142.24-12926.5-4142.84-12928C-4147.04-12911.7-4157.44-12905.2-4157.44-12922.9C-4157.44-12908.8-4148.04-12906.3-4140.24-12920C-4130.84-12917.6-4129.54-12926.9-4124.84-12929.1C-4120.24-12944.4-4117.64-12946.7-4117.54-12930.1C-4105.44-12928.4-4114.24-12924.7-4117.54-12930.1L-4122.94-12924.2Z"
   opacity="1"
   fill="#6495ed"
   id="path42" />
<path
   d="M-4071.84-12907.3C-4072.74-12905.9-4073.74-12902.5-4074.04-12899.5C-4074.54-12894.8-4073.74-12891.8-4067.04-12871.7C-4058.64+11940-4103.64-12883.4-4108.74-12871.7C-4110.54-12872.1-4112.04-12872.5-4112.04-12873.5C-4112.04-12877.2-4091.04-12877.2-4072.04-12873.5C-4050.64-12872.8-4046.84-12867-4037.64-12870.5C-4032.94-12862.4-4029.04-12859.3-4029.04-12869.5C-4029.04-12867-4030.14-12866.2-4031.44-12869.5L-4071.84-12907.3ZM-4062.14-12903C-4058.24-12899-4055.04-12892.7-4053.74-12886.7C-4053.34-12884.8-4052.84-12876.7-4052.64-12868.7C-4052.24-12854.3-4053.04-12844.2-4054.74-12844.2C-4055.24-12844.2-4056.24-12846.5-4057.04-12849.2C-4057.94-12852-4061.74-12863.4-4065.54-12874.7C-4071.54-12892.5-4072.44-12895.8-4071.84-12899.7C-4070.64-12907.8-4067.74-12908.8-4062.14-12903Z"
   opacity="1"
   fill="#6495ed"
   id="path44" />
<path
   d="M-4089.14-12904.4C-4092.04-12902.6-4097.84-12898.2-4102.14-12894.6C-4118.74-12880.5-4128.14-12874.7-4134.54-12874.7C-4138.34-12874.7-4143.54-12877.9-4150.94-12884.7L-4155.94-12889.5L-4161.44-12888.6C-4176.44-12886-4190.84-12881.9-4198.64-12878C-4214.44-12870.1-4220.14-12856-4215.74-12834.9C-4212.84-12820.7-4205.64-12806.7-4199.04-12802.6C-4193.64-12799.1-4180.54-12801-4148.84-12809.8C-4140.54-15126-4144.44-12827.6-4144.24-12811.3C-4143.94-12814-4143.54-12814-4143.24-12811.3C-4142.24-12806.6-4138.84-12800.7-4135.44-12794.8C-4126.04-12764-4124.84-12739.6-4131.04-12787.2C-4133.04-12778.7-4133.04-12777.2-4131.64-12785.2C-4129.54-12784.1-4128.54-12793.3-4122.14-12800.1C-4111.94-12829.3-4106.74-12846.3-4105.34-12818.7C-2660.84-12811.8-4041.24-12797.9-4085.24-12804.6C-4063.64-12789.6-4062.74-12790.9-4084.14-12806.4C-4083.04-12808.8-4084.34-12815.9-4085.54-12814.2C-11112.5-12802.1-4044.14-12806.4-4063.24-12806.2C-4040.24-12798.7-4032.44-12806.4-4059.34-12806.3C-4052.14-12806.1-4052.24-12806-4059.34-12803.3C-4060.84-12797.4-4062.54-12803.3-4059.34-12806.6L-4089.14-12904.4ZM-4085.84-12899C-4085.94-12893.9-4083.94-12885.3-4080.84-12877.4C-4079.34-12873.8-4078.14-12870.2-4077.94-12869.5C-4077.84-12868.8-4077.44-12867.7-4077.04-12867C-4074.84-12863.5-4066.74-12834.8-4065.84-12827.3L-4065.04-12821.5L-4068.04-12823C-4069.64-12823.9-4071.54-12825.3-4072.24-12826.1C-4073.04-12827-4073.94-12827.7-4074.44-12827.7C-4074.94-12827.7-4078.64-12830.1-4082.64-12833.1C-4091.14-12839.4-4105.24-12846.7-4116.74-12850.7C-4126.94-12854.3-4129.24-12854.7-4143.34-12855.3C-4153.44-12855.8-4156.04-12855.6-4164.34-12853.4C-4169.54-12852-4176.74-12849.7-4180.34-12848.2C-4188.84-12844.6-4202.64-12835.5-4205.34-12831.7C-4207.44-12828.8-4207.44-12828.5-4205.94-12826.2C-4204.04-12823.3-4201.04-12823-4193.84-12825.3C-4188.84-12826.8-4175.44-12828.9-4169.84-12829C-4165.34-12829.1-4156.14-11610.4-4172.54-12835.3C-4174.54-12850-4178.94-12851.1-4180.94-12836.1C-4182.44-12836.2-4182.84-12830.9-4184.34-12832.7C-4185.24-12822.5-4187.14-12817.5-4188.64-12820.8C-4192.04-12792.1-4195.24-12785.5-4195.34-12816.1C-4195.34-12810.4-4195.04-12807.2-4192.04-12811C-4187.04-12800.5-4176.54-12798.5-4167.14-12633.5C-4169.24-12655.5-4167.84-12660.3-4166.44-12635.9C-4163.54-12642.4-4161.54-12645-4159.74-12644.3C-4134.64-12660-4112.44-12662.9-4155.14-12645C-4150.24-12645.6-4145.94-12249.4-4160.74-12657.8C-4170.64-12674.7-4170.84-12659.5-4160.74-12662.8C-4160.04-12670.2-4159.04-12667.2-4158.94-12677.6C-4150.64-12694.3-4148.54-12678.2-4158.34-12680.8C-4155.54-13285.8-4155.64-12682.9-4152.44-12685.5C-4145.44-12691.3-4148.94-12688.7-4142.64-12693.1C-4131.74-12700.7-4141.94-12693.1-4141.44-12691.6C-4140.34-12687.9-4141.44-12691.6-4141.44-12691.6L-4085.84-12899Z"
   opacity="1"
   fill="#6495ed"
   id="path46" />
<path
   d="M-4152.34-12844.1C-4159.44-12843.1-4173.34-12840.3-4173.34-12839.8C-4173.34-12839.5-4169.14-12839.2-4164.04-12839.1C-4147.74-12839-4133.54-12832.3-4119.84-12818.1C-4115.34-12813.5-4110.14-12809.1-4108.04-12808.2C-4103.24-12806.2-4090.44-12806.2-4080.84-12808.4C-4073.64-12809.9-4071.94-12810.9-4074.54-12812C-4075.24-12812.2-4081.04-12816.4-4087.34-12821.2C-4106.54-12835.7-4125.14-12843.4-4143.04-12844C-4147.34-12844.2-4151.54-12844.2-4152.34-12844.1ZM-4151.64-12841.1C-4151.94-12840.8-4152.84-12840.7-4153.54-12841C-4154.34-12841.3-4154.04-12841.6-4152.94-12841.6C-4151.84-12841.7-4151.24-12841.4-4151.64-12841.1ZM-4130.74-12840.1C-4123.64-12838.7-4117.84-12836.7-4110.34-12833.4C-4107.24-12832-4090.54-12821-4088.64-12819.1C-4087.84-12818.3-4086.94-12817.7-4086.54-12817.7C-4085.64-12817.7-4079.34-12812.1-4079.34-12811.4C-4079.34-12809.2-4101.84-12808.1-4106.54-12810.1C-4108.34-12810.9-4114.14-12815.8-4119.44-12821C-4127.54-12828.9-4130.64-12831.2-4138.64-12835.1C-4143.84-12837.6-4148.54-12839.7-4149.24-12839.7C-4149.84-12839.7-4150.34-12840.2-4150.34-12840.7C-4150.34-12842.2-4139.54-12841.9-4130.74-12840.1Z"
   opacity="1"
   fill="#6495ed"
   id="path48" />
<path
   d="M-4125.34-12807.8C-4126.14-12807.3-4136.54-12803.6-4148.34-12799.6C-4174.44-12790.8-4185.54-12786.4-4186.44-12784.6C-4186.84-12783.8-4188.84-12779.6-4190.84-12775.3C-4195.44-12765.1-4205.14-12755.3-4217.14-12748.6L-4225.44-12743.9L-4221.34-12740.4C-4216.14-8325.63-4230.54-12763.5-4232.64-12748.2C-4234.74-12775-4234.94-12783.6-4233.14-12777.8C-4226.74-12831.4-4204.64-12838.4-4177.24-12780.9C-4165.14-12783.8-4164.64-12777-4163.24-12774.9C-4162.04-12760.1-4157.14-12759.1-4154.54-12774.2C-4152.84-12772.9-4152.74-12770.8-4153.94-12774.2L-4125.34-12807.8ZM-4114.94-12799.3C-4112.24-12797.9-4109.24-12532.6-4117.54-12800.3C-4117.54-12802.4-4118.04-12802.7-4118.54-12800.7C-4119.14-12801.8-4119.34-12802.3-4119.04-12803.3C-4117.34-12802.6-4134.74-12799.4-4139.54-12802.4C-4140.94-12800.7-4142.24-12800.7-4142.54-12802.2C-4144.64-12794.4-4155.84-12790.3-4159.94-12790.4C-4171.74-12769.1-4177.34-12752.3-4182.54-12783.4C-4184.74-12756.3-4185.34-12748.6-4183.54-12772.7C-4181.14-12747-4173.74-12747-4170.94-12772.7C-4170.24-12774.4-4169.04-12776.6-4168.24-12774.8C-4167.34-12779.3-4166.04-12780-4138.44-12775.5C-4135.24-12778.1-4133.14-12779.7-4129.74-12782C-4113.84-12798-4110.54-12807.3-4128.04-12786.8C-4125.74-12792.2-4120.64-12794.5-4125.04-12788.1C-4114.14-12792.4-4107.54-13444.7-4122.84-12804.6C-4117.24-12826.6-4115.34-12810-4120.84-12814.7C-4117.44-12825-4117.64-12814.9-4121.04-12816.2C-4120.84-12819.2-4120.04-12818.5-4119.84-12819.1C-4118.74-12823.8-4170.94-12818-4115.64-12816C-4108.74-12811.5-4115.64-12816-4115.64-12816L-4114.94-12799.3Z"
   opacity="1"
   fill="#6495ed"
   id="path50" />
<path
   d="M-4066.34-12804.1C-4068.84-12802.8-4075.14-12800.8-4080.44-12799.6L-4090.14-12797.4L-4090.74-12790.6C-4091.14-12786.9-4092.34-12780.8-4093.44-12777L-4095.34-12770.2L-4092.94-12767.9L-4090.64-12765.5L-4084.04-12771.7C-4080.34-12775.1-4075.44-12780.7-4073.04-12784C-4068.44-12790.5+9249.76-12796-4050.44-12783.5C-4050.54-12780.7-4051.64-12778.2-4052.94-12783.5L-4066.34-12804.1ZM-4066.34-12800.2C-4066.34-12797.2-4076.44-12782.4-4083.24-12775.5C-4091.34-12767.2-4093.64-12767.8-4090.74-12777.5C-4089.84-12780.6-4088.94-12785.5-4088.64-12788.2C-4088.44-12791-4088.04-12793.7-4087.84-12794.4C-4087.64-12795-4084.34-12796.2-4080.54-12797.1C-4076.74-12895.1-4078.54-12806.4-4078.04-12799.9C-4076.94-12804.8-4076.74-12804.8-4077.44-12799.9L-4066.34-12800.2Z"
   opacity="1"
   fill="#6495ed"
   id="path52" />
<path
   d="M-4256.24-12781.2C-4262.44-12775.6-4268.74-12762.1-4270.94-12749.7C-4271.94-12743.7-4271.54-12723.6-4270.24-12714.7C-4269.54-12710-4269.04-12705-4269.04-12703.5C-4269.04-12699.1-4267.84-12700.2-4266.04-12706.1C-4262.84-12716.1-4250.44-12732-4241.54-12737.4L-4238.44-12739.3L-4241.74-12741.1C-4247.74-12744.3-4248.64-12747.1-4248.44-12763.4C-4248.24-12777.3-4249.34-12784.7-4251.44-12784.7C-4251.94-12784.7-4254.04-12783.1-4256.24-12781.2ZM-4250.94-12777.5C-4250.64-12775.8-4250.54-12769.2-4250.74-12762.9C-4251.14-12749.9-4250.24-12745.4-4246.74-12741.6L-4244.24-12739L-4249.94-12733.6C-4255.84-12727.9-4262.94-12719.1-4265.34-12714.4L-4266.74-12711.6L-4267.74-12713.9C-4268.24-12715.2-4268.64-12724.1-4268.64-12733.7C-4268.64-12749.8-4268.44-12751.8-4266.14-12758.9C-3988.14-12767.1-4248.34-12769-4248.34-12759.5C-4248.34-12760.2-4248.04-12759.9-4247.64-12758.9C-4247.04-12761-4244.44-12762.3-4244.34-12759.3C-4244.34-12760.2-4245.74-12760.6-4247.54-12759.3L-4250.94-12777.5Z"
   opacity="1"
   fill="#6495ed"
   id="path54" />
<path
   d="M-4236.54-12767.1C-4238.34-12754.9-4237.84-12750.7-4234.74-12750.7C-4231.64-12750.7-4211.54-12762.8-4211.34-12764.7C-4211.34-12765-4432.94-12759.9-4208.54-12762C-4207.24-12754.1-4204.24-12750.4-4201.74-12758.3C-4199.34-12751.4-4197.34-12751.3-4197.34-12758.2C-4197.34-12757.3-4202.54-12756.4-4208.94-12758.2L-4236.54-12767.1ZM-4217.64-12765.5C-4216.74-12764.8-4217.04-12763.9-4218.54-12762.1C-4219.74-12760.8-4221.24-12759.7-4221.94-12759.7C-4222.64-12759.7-4223.34-12759.4-4223.54-12759C-4223.94-12757.9-4232.24-12753.7-4233.74-12753.7C-4234.54-12753.7-4235.04-12755.1-4235.14-12757C-4235.24-12760.3-4233.54-12771.6-4232.64-12773C-4232.24-12773.7-4220.94-12768-4217.64-12765.5Z"
   opacity="1"
   fill="#6495ed"
   id="path56" />
<path
   d="M-4272.34-12938.8C-4272.34-12938.2-4271.94-12937.5-4271.34-12937.2C-4270.74-12936.9-4270.64-12937.3-4270.94-12938.1C-4271.64-12939.9-4272.34-12940.2-4272.34-12938.8Z"
   opacity="1"
   fill="#6495ed"
   id="path58" />
<path
   d="M-4232.34-12938.8C-4232.34-12938.2-4231.94-12937.5-4231.34-12937.2C-4230.74-12936.9-4230.64-12937.3-4230.94-12938.1C-4231.64-12939.9-4232.34-12940.2-4232.34-12938.8Z"
   opacity="1"
   fill="#6495ed"
   id="path60" />
<path
   d="M-4272.34-12898.8C-4272.34-12898.2-4271.94-12897.5-4271.34-12897.2C-4270.74-12896.9-4270.64-12897.3-4270.94-12898.1C-4271.64-12899.9-4272.34-12900.2-4272.34-12898.8Z"
   opacity="1"
   fill="#6495ed"
   id="path62" />
</g>
</g>
</svg>