<?xml version="1.0" encoding="UTF-8" standalone="no"?> <!-- Created with Vectornator for iOS (http://vectornator.io/) --><!DOCTYPE svg PUBLIC "-//W3C//DTD SVG 1.1//EN" "http://www.w3.org/Graphics/SVG/1.1/DTD/svg11.dtd">
<svg viewBox="0 0 74.4 74.4" version="1.1" xmlns="http://www.w3.org/2000/svg" xmlns:xlink="http://www.w3.org/1999/xlink" height="100%" width="100%" xmlns:vectornator="http://vectornator.io" style="fill-rule:nonzero;clip-rule:evenodd;stroke-linecap:round;stroke-linejoin:round;" xml:space="preserve">
<metadata>
<vectornator:setting key="WDRulersVisible" value="true"/>
<vectornator:setting value="false" key="WDOutlineMode"/>
<vectornator:setting key="WDDynamicGuides" value="false"/>
<vectornator:setting key="WDGuidesVisible" value="true"/>
<vectornator:setting key="WDSnapToPoints" value="false"/>
<vectornator:setting value="false" key="IsTimeLapseWatermarkDisabled"/>
<vectornator:setting key="WDDisplayWhiteBackground" value="false"/>
<vectornator:setting key="WDIsolateActiveLayer" value="false"/>
<vectornator:setting value="true" key="UndoHistoryDisabled"/>
<vectornator:setting key="WDUnits" value="Pixels"/>
<vectornator:setting value="true" key="VNDimensionsVisible"/>
<vectornator:setting key="WDCMYKEnabledKey" value="false"/>
<vectornator:setting value="false" key="WDSnapToGrid"/>
<vectornator:setting key="VNSnapToGuides" value="true"/>
<vectornator:setting value="false" key="WDSnapToEdges"/>
</metadata>
<defs/>
<g vectornator:layerName="Untitled" id="Untitled">
<path d="M60.7958+26.6382C60.1957+25.3529+59.228+24.2743+58.0152+23.5385C56.5733+22.6245+54.7723+22.4307+53.5168+22.4307C53.094+22.4307+52.6714+22.4526+52.2509+22.4963L52.2196+22.4963C52.242+22.3233+52.2867+22.0997+52.324+21.9178C52.3867+21.5987+52.4582+21.2364+52.4985+20.8592C52.6655+19.2414+52.0899+17.0646+51.0299+15.3157C50.8614+15.0369+50.8673+14.9414+50.8673+14.9414C50.9204+14.8624+50.9823+14.7899+51.0522+14.7252L51.1492+14.6239C53.6554+11.9401+54.4128+8.98941+53.3975+5.83597C51.4727-0.144372+50.9567-0.144372+50.5796-0.144372C50.4954-0.145202+50.412-0.128228+50.3349-0.0945652C50.2578-0.0609026+50.1889-0.0113131+50.1323+0.0509469C50.0696+0.126774+50.0239+0.215027+49.9978+0.309868C49.972+0.404711+49.9664+0.503983+49.9818+0.601121C50.177+2.58413+49.7297+5.42297+49.4315+6.50394C49.0662+7.86372+47.7914+9.89146+43.7657+11.8193C43.4829+11.9398+43.1945+12.0458+42.901+12.1369C41.5875+12.5767+39.3927+13.3118+38.1731+14.9906C37.2531+16.0686+37.0309+17.1481+36.6328+19.0968C36.2779+20.8293+35.9916+22.9391+36.5524+25.4573C36.609+25.7063+36.6626+25.915+36.712+26.1014C36.7462+26.2342+36.776+26.3491+36.7984+26.4488L36.8462+26.4385L36.7968+26.4518C36.834+26.6009+36.8103+26.6368+36.7567+26.674C36.5629+26.7507+36.3634+26.812+36.1603+26.8574C35.5639+26.9529+34.9674+27.0587+34.3978+27.1705C32.5848+27.4822+27.1039+28.4274+24.5797+32.4456C23.0216+34.9236+22.801+38.1605+23.9207+42.0774C25.0822+45.9539+27.3872+48.6184+28.9647+49.1612L28.99+49.17C29.1034+49.2208+29.2122+49.2639+29.3181+49.2998C29.3181+49.4086+29.3076+49.5414+29.2942+49.6905C29.2833+49.7559+29.2728+49.8275+29.2629+49.905C29.0899+51.1693+28.4935+52.5322+27.8852+52.5681C27.5647+52.5054+26.2943+51.7853+25.3953+51.1947C25.107+51.007+24.8337+50.8271+24.5752+50.655C22.0659+48.9941+20.6823+48.0802+18.568+47.8444C18.4957+47.8368+18.4231+47.8328+18.3504+47.8326C16.1139+47.8326+12.0882+51.5989+12.0032+59.1044C11.96+62.8648+12.3536+66.3015+13.1766+69.3207C13.7641+71.4857+14.3903+72.7188+14.5722+73.0482L15.2968+74.405L15.6278+72.914C17.3723+65.0118+19.5252+63.1077+23.1081+60.8296C25.7337+63.2897+29.1824+64.5868+33.1096+64.5868C36.4196+64.5868+39.8831+63.6252+42.8593+61.8777C45.783+60.163+48.0404+57.852+49.4196+55.1817C49.6491+55.3308+49.9265+55.5247+50.1099+55.6528C50.7659+56.112+50.9045+56.2089+51.1387+56.2089L51.1596+56.2089C51.4159+56.1986+53.8343+55.3874+56.311+52.3621C57.7498+50.6044+58.9365+48.4306+59.8372+45.8973C60.9524+42.7662+61.6264+39.0686+61.8558+34.9101C62.1093+31.4184+61.7545+28.6377+60.8017+26.6456L60.7958+26.6382ZM51.5189+6.53823C51.7267+7.37677+51.7537+8.24998+51.5978+9.09975C51.3653+10.7518+50.6646+12.2308+49.4688+13.5802C50.4878+11.3439+51.1783+8.97204+51.5189+6.53823ZM49.7893+16.7918C50.1535+17.3427+50.4316+17.9461+50.6138+18.5809C50.816+19.4135+50.7799+20.2862+50.5094+21.0992C50.0815+22.1176+49.5074+22.632+48.8022+22.632L48.7084+22.632C48.4598+22.5946+48.2215+22.5073+48.0076+22.3755C47.1011+21.8447+46.6105+20.4372+46.9639+19.4055C46.9788+19.3756+46.9923+19.3443+47.0056+19.3115C47.0638+19.1624+47.2293+18.8762+47.6884+18.4333C48.3445+17.8533+49.3034+17.1213+49.7863+16.7932L49.7893+16.7918ZM39.2928+16.5114L39.3016+16.495L39.3016+16.4801C39.4955+16.003+40.8299+15.2307+41.7156+14.7193C41.8261+14.6537+41.9362+14.5896+42.0467+14.5269C42.4346+14.3233+42.8327+14.1397+43.2395+13.9768C44.6962+13.3565+46.9669+12.3904+48.8365+10.5907C48.2939+12.4932+46.9877+15.6974+44.8406+17.6371C44.3635+18.068+43.4004+18.4497+42.2836+18.8911C41.0806+19.3652+39.6343+19.9348+38.2311+20.7951C38.3399+19.6977+38.6784+17.7833+39.2853+16.5114L39.2928+16.5114ZM38.3609+22.711C39.0826+22.1146+40.4036+21.3065+44.7318+19.8781C44.7617+20.0123+44.7959+20.1852+44.8288+20.3567C44.8556+20.4864+44.884+20.634+44.9168+20.7951C45.2001+22.1936+45.5132+23.765+48.4251+24.6372C48.1537+25.2336+47.5962+26.2417+47.4023+26.4339L47.338+26.4891L47.2933+26.5622C46.7267+27.4717+43.6644+29.4561+42.2927+29.4561C42.2337+29.4568+42.1748+29.4522+42.1168+29.4429C41.2907+29.2833+39.3941+27.5985+38.8366+26.3535C37.7584+23.9097+37.9793+23.0286+38.3534+22.7169L38.3609+22.711ZM27.5766+45.1413C25.9902+42.7811+24.7884+38.6572+25.5757+35.3411L25.5757+35.3262C25.9559+33.5221+27.2158+32.4605+27.7361+32.0877L27.8107+32.0325C28.583+31.3588+30.1634+30.6475+32.2628+30.0257C32.561+29.9482+32.725+29.9139+32.7324+29.9139C33.1186+29.8333+33.5405+29.7364+33.9505+29.6425C34.7264+29.4445+35.5129+29.2907+36.3064+29.1819C36.5032+29.161+36.7029+29.1237+36.8937+29.0864C37.1518+29.0298+37.4141+28.9958+37.6781+28.9851C37.8884+28.9739+38.0972+29.0291+38.2745+29.143C39.0528+30.0674+40.9582+31.8925+42.2077+31.9999L42.2449+31.9999L42.2866+31.9999C43.7091+31.9237+45.9381+30.5357+48.9141+27.8713C49.4196+27.424+49.8893+27.0333+50.3498+26.692L50.4067+26.6487C51.2186+26.0327+52.1129+25.5332+53.0634+25.1651C52.752+26.185+52.5043+27.9279+53.5107+30.3836C54.0342+31.6539+55.039+34.5166+55.8726+37.3197C57.3069+42.1475+57.107+42.9973+57.0789+43.0763C57.039+43.2403+56.974+43.3973+56.8864+43.5416C56.7746+43.5199+56.6665+43.4817+56.5659+43.4283C55.8427+43.0943+55.0315+42.4979+54.0834+41.7971C52.324+40.5074+50.1367+38.9032+46.9355+37.6521C44.5844+36.7352+42.2463+36.2686+39.9905+36.2686C39.0558+36.2669+38.123+36.3559+37.2054+36.5339C32.1629+37.5284+29.5044+39.7514+28.0776+40.9472L28.0671+40.9561C27.9733+41.032+27.9053+41.1352+27.8725+41.2515C27.8397+41.3675+27.8436+41.491+27.8837+41.6047C27.9248+41.7167+27.9997+41.8132+28.098+41.8807C28.1963+41.9483+28.3131+41.9837+28.4324+41.9821C28.5621+41.9821+28.6889+41.9462+29.1078+41.8255C30.6187+41.3752+32.1649+41.053+33.7299+40.8622C34.2906+40.7967+34.8546+40.7634+35.4192+40.7623C37.86+40.7623+40.1054+41.5077+42.4821+43.1227C43.0263+43.5774+43.3587+43.8784+43.56+44.0769L43.3543+44.1305L41.9125+44.5375C38.343+45.5469+32.9471+47.0722+30.3931+47.0722C30.1972+47.0738+30.0014+47.0624+29.8071+47.0379C29.1451+46.941+28.337+46.2491+27.587+45.143L27.5766+45.1413ZM17.0487+63.2494C16.044+64.5591+15.3041+66.0522+14.8704+67.6448C14.3903+65.3442+13.8267+61.5601+14.1473+58.614C14.8152+52.5098+17.8389+50.4658+18.2877+50.3584L18.3161+50.3584C18.3414+50.3584+18.3712+50.3584+18.4309+50.4225C18.6724+50.6848+19.1943+51.7928+18.814+56.3745C18.7246+57.3183+18.9512+58.1174+19.491+58.7496C19.8566+59.1678+20.3166+59.4928+20.8328+59.6978C19.3775+60.6593+18.0959+61.8607+17.0428+63.251L17.0487+63.2494ZM22.1882+57.2586C22.0307+57.3292+21.8611+57.3686+21.6887+57.3749C21.6281+57.3802+21.5671+57.3719+21.5102+57.3502C21.4534+57.3285+21.4022+57.294+21.3607+57.2498C21.2637+57.1482+21.0446+56.8025+21.1146+55.7812C21.1638+55.2787+21.2339+54.7775+21.2995+54.2902C21.4459+53.3716+21.5336+52.4448+21.5619+51.5153C23.3243+52.6694+25.2775+53.892+26.5418+54.4556C25.7158+55.1876+23.9967+56.5043+22.1882+57.2617L22.1882+57.2586ZM45.1866+57.0946C42.3437+60.0582+38.5039+61.8639+34.4083+62.164C33.9222+62.1999+33.4377+62.2176+32.971+62.2176C27.5781+62.2176+24.8376+59.9289+23.5778+58.6541C29.6714+56.0255+30.9075+52.2669+31.4472+50.6251C31.4994+50.4658+31.5471+50.3269+31.5963+50.2077C31.8289+50.0914+32.5684+49.7604+34.8496+48.9061C36.6388+48.2619+38.7844+47.5404+40.6764+46.9023C42.2524+46.3714+43.6136+45.9108+44.3577+45.6378L44.4187+45.6184C44.5678+45.5767+44.6573+45.5574+44.7169+45.5469L44.7586+45.6005C45.4519+46.5042+46.5956+47.0542+46.6061+47.0617C47.4657+47.4456+48.3852+47.6776+49.3241+47.7475C49.3017+51.0053+47.8138+54.3841+45.1957+57.0932L45.1866+57.0946ZM49.913+45.9406C47.6572+45.9406+46.8656+45.2145+46.1276+44.3362C42.4641+39.9692+38.4145+39.2536+36.8415+39.1476C36.3376+39.1147+35.8442+39.0984+35.3715+39.0984C34.9748+39.0984+34.5872+39.1089+34.2085+39.1327C36.0331+38.5123+37.9469+38.194+39.8743+38.1903C43.9148+38.1903+47.8049+39.6216+51.4324+42.4426C52.9115+43.5923+54+44.4077+54.9407+45.0624C54.4824+45.1986+53.8637+45.3724+53.0844+45.5842L52.7862+45.6662C51.839+45.8346+50.8796+45.9264+49.9175+45.9406L49.913+45.9406ZM51.319+54.1991C51.0821+53.9903+50.7226+53.6579+50.3515+53.3194C50.6925+52.4514+50.9502+51.5526+51.1207+50.6356C51.2966+49.6681+51.407+48.3991+51.4578+47.7268C52.529+47.5665+53.5897+47.341+54.6336+47.0514C55.8905+46.6906+56.861+46.2805+57.5529+45.8139C55.3954+51.2008+52.2704+53.567+51.319+54.1961L51.319+54.1991ZM58.7844+41.8791C58.4638+39.2237+57.3889+35.9405+56.9684+34.6641C56.9237+34.515+56.8864+34.4078+56.861+34.3286C56.8298+34.2273+56.7329+33.9575+56.533+33.4059C56.0156+31.961+54.9363+28.9583+54.7438+28.0695C54.468+26.7635+55.0912+24.9669+55.4893+24.8103C55.6123+24.7642+55.7426+24.7404+55.874+24.7402C56.6076+24.7402+57.514+25.4335+58.2313+26.5517C59.0991+27.8936+59.6135+29.6723+59.6806+31.5452C59.8297+35.6319+59.4509+39.0462+58.786+41.8791" opacity="1" fill="#000000"/>
</g>
</svg>
