<svg xmlns="http://www.w3.org/2000/svg" height="32" width="32" preserveAspectRatio="xMinYMid meet"><g transform="matrix(.55172 0 0 .55172 .552 .552)"><path fill="none" d="M-1-1h58v58H-1z"/></g><g transform="translate(-1.211 -2.066) scale(.6151)"><g fill="#094ab2" stroke="#094ab2"><path d="M47.963 32.467c7.527 4.344 6.331 9.334 3.062 11.029l-14.586-.014-18.065-.13c-2.65-1.029-3.842-2.589-4.106-6.403 1.148-4.123 1.167-4.085 6.664-6.195 1.515-4.786 4.461-7.46 8.008-7.813 3.685-.729 5.165 1.3 7.794 3.309 3.278.018 6.292-.597 8.922.875 1.718 1.59 1.735 3.522 2.307 5.342z"/><path d="M19.216 29.211c1.84-3.976 2.624-7.455 9.914-8.843 3.238-.016 5.273-.154 8.198 3.138l4.01.033c-2.19-6.436-6.606-10.06-11.881-9.444-3.962.266-7.562 2.55-8.714 5.304-3.467-.695-6.362-.2-7.769.166-2.787 1.231-4.41 2.822-5.097 8.758-3.847 1.111-4.882 3.31-5.328 5.647.017 3.83.678 6.237 4.03 7.577l6.368-.057c-1.52-3.856-1.958-10.591 6.269-12.279z"/></g></g></svg>