<svg xmlns="http://www.w3.org/2000/svg" style="isolation:isolate" width="16" height="16" preserveAspectRatio="xMinYMid meet"><defs><clipPath id="a"><path d="M0 0h16v16H0z"/></clipPath></defs><g clip-path="url(#a)"><path d="M1.5 12.5h12.7M1.5 2.5h13m0 10.5V2m-13 11V2" fill="none" vector-effect="non-scaling-stroke" stroke="#000" stroke-miterlimit="10"/><path d="M2 3h12v9H2V3z" fill="#FFF"/><path d="M3 4.5h2m-2 6h2m-2-2h5m-2 2h2m3-4h2m-10 0h3m0-2h6m-5 2h3" fill="#A5B0B0" vector-effect="non-scaling-stroke" stroke="#A5B0B0" stroke-miterlimit="10"/><path d="M9 8.5h4m-3 1h1" fill="#0092FF" vector-effect="non-scaling-stroke" stroke="#0092FF" stroke-miterlimit="10"/><path vector-effect="non-scaling-stroke" stroke="#824E5D" stroke-miterlimit="10" d="M11 9.5h1"/><path vector-effect="non-scaling-stroke" stroke="#009F00" stroke-miterlimit="10" d="M9 9.5h1"/><path d="M9 10.5h4m-1-1h1" fill="#239771" vector-effect="non-scaling-stroke" stroke="#239771" stroke-miterlimit="10"/></g></svg>