<svg width="75" height="75" viewBox="0 0 75 75" fill="none" xmlns="http://www.w3.org/2000/svg">
<path fill-rule="evenodd" clip-rule="evenodd" d="M15.8572 36.4374L12.8717 37.3243C7.74142 38.8485 4 43.6137 4 49.2188C4 56.055 9.56998 61.625 16.4062 61.625H56.25C64.3818 61.625 71 55.0068 71 46.875C71 41.5234 68.0539 36.6587 63.4883 34.0797L61.1156 32.7394L61.4945 30.0407C61.5817 29.4202 61.625 28.7778 61.625 28.125C61.625 19.9971 55.0061 13.375 46.875 13.375C42.1529 13.375 37.8246 15.6033 35.0821 19.2565L33.5018 21.3614L30.9433 20.7429C30.0172 20.5191 29.0784 20.4062 28.125 20.4062C21.2887 20.4062 15.7188 25.9762 15.7188 32.8125C15.7188 32.988 15.7222 33.1574 15.7291 33.3255L15.8572 36.4374ZM31.8832 16.8549C30.6519 16.5573 29.3977 16.4062 28.125 16.4062C19.0796 16.4062 11.7188 23.7671 11.7188 32.8125C11.7188 33.0415 11.7233 33.2657 11.7325 33.49C4.95308 35.5042 0 41.7939 0 49.2188C0 58.2642 7.36084 65.625 16.4062 65.625H56.25C66.5909 65.625 75 57.2159 75 46.875C75 40.0406 71.2418 33.8654 65.4557 30.5969C65.5701 29.7822 65.625 28.9535 65.625 28.125C65.625 17.7886 57.2159 9.375 46.875 9.375C40.8782 9.375 35.3714 12.2086 31.8832 16.8549Z" fill="black"/>
<path d="M47.9602 32.8832C49.2725 34.1955 49.2725 36.3222 47.9608 37.6345L39.7074 45.8906C39.0772 46.5209 38.2225 46.875 37.3315 46.875C36.4398 46.875 35.5851 46.5209 34.9555 45.8906L30.9433 41.8771C29.6317 40.5648 29.6317 38.4375 30.944 37.1259C32.2563 35.8142 34.3837 35.8142 35.6953 37.1265L37.3315 38.7627L43.2089 32.8839C44.5205 31.5716 46.6479 31.5716 47.9602 32.8832Z" fill="black"/>
</svg>
