<?xml version="1.0" encoding="utf-8"?>
<!-- Generator: Adobe Illustrator 25.2.1, SVG Export Plug-In . SVG Version: 6.00 Build 0)  -->
<svg width="24px" height="24px" version="1.1" id="Layer_1" xmlns="http://www.w3.org/2000/svg" xmlns:xlink="http://www.w3.org/1999/xlink" x="0px" y="0px"
	 viewBox="0 0 74.4 74.4" style="enable-background:new 0 0 74.4 74.4;" xml:space="preserve" preserveAspectRatio="xMinYMid meet">
<style type="text/css">
	.st0{fill:none;}
</style>
<g>
	<path d="M34.4,43.9H15.6V32.5l-8.2-0.1c-0.6,0-1.1,0.4-1.4,1L0.2,46.1c-0.1,0.2-0.2,0.6-0.2,1v25.2c0,1.1,0.7,2.1,1.6,2.1h31.6
		c0.8,0,1.6-1,1.6-2.1V46c0,0,0-0.1,0-0.2C34.8,44.6,35,44.1,34.4,43.9z M29.6,68.9H5.4V46.5l4.5-8.8h0.6v11.4h19.1V68.9z"/>
	<path d="M39.6,45.8c0,0.1,0,0.2,0,0.2v26.3c0,1.1,0.8,2.1,1.6,2.1h31.6c0.9,0,1.6-1,1.6-2.1V47.1c0-0.4-0.1-0.8-0.2-1l-5.8-12.7
		c-0.3-0.6-0.8-1-1.4-1l-8.2,0.1v11.4H40C39.4,44.1,39.6,44.6,39.6,45.8z M44.8,49.1h19.1V37.7h0.6l4.5,8.8v22.4H44.8V49.1z"/>
	<path d="M53.6,12.7L47.9,0.9C47.6,0.3,47.1,0,46.6,0H27.8c-0.5,0-1,0.3-1.3,0.9l-5.6,11.7c-0.2,0.3-0.2,0.7-0.2,1v23.5
		c0,0.9,0.7,1.8,1.6,1.8h30c0.8,0,1.5-0.9,1.5-1.9V13.5C53.8,13.2,53.7,12.9,53.6,12.7z M30.4,5.3h13.7l2.5,4.9H28L30.4,5.3z
		 M48.6,33.6H26.2V15.4h22.4V33.6z"/>
</g>
<rect class="st0" width="74.4" height="74.4"/>
</svg>
