<svg width="24" height="24" viewBox="0 0 24 24" fill="none" xmlns="http://www.w3.org/2000/svg" preserveAspectRatio="xMinYMid meet">
<path fill-rule="evenodd" clip-rule="evenodd" d="M11.7573 3.06373C11.9082 2.9799 12.0918 2.9799 12.2427 3.06373L16.7427 5.5625C16.9015 5.65067 17 5.81801 17 5.99963V10.6918L21.2427 13.0477C21.4015 13.1359 21.5 13.3032 21.5 13.4849C21.5 13.5424 21.4901 13.5984 21.4716 13.651H21.5V18.6486C21.5 18.8302 21.4015 18.9975 21.2427 19.0857L16.7507 21.5801C16.677 21.6228 16.5914 21.6473 16.5 21.6473C16.4087 21.6473 16.323 21.6228 16.2493 21.5801L12 19.2205L7.75069 21.5801C7.67699 21.6228 7.59135 21.6473 7.5 21.6473C7.40865 21.6473 7.32303 21.6228 7.24933 21.5801L2.75727 19.0857C2.59849 18.9975 2.5 18.8302 2.5 18.6486V13.651H2.5284C2.50987 13.5984 2.5 13.5424 2.5 13.4849C2.5 13.3032 2.59849 13.1359 2.75727 13.0477L7 10.6918V5.99963C7 5.81801 7.09849 5.65067 7.25727 5.5625L11.7573 3.06373ZM11.5 18.3543V14.3344L8 16.2779L8 20.2978L11.5 18.3543ZM16 10.6918L12.5 12.6353V8.79268L16 6.84919V10.6918ZM12.5 18.3543L16 20.2978V16.2779L12.5 14.3344V18.3543ZM13.0399 13.4904L16.5 15.4117L19.9701 13.4849L16.51 11.5636L13.0399 13.4904ZM10.9601 13.4904L7.49 11.5636L4.02995 13.4849L7.5 15.4117L10.9601 13.4904ZM11.5 8.79268V12.6353L8 10.6918V6.84919L11.5 8.79268ZM8.52995 5.99963L12 7.9265L15.4701 5.99963L12 4.07277L8.52995 5.99963ZM7 16.2779L7 20.2978L3.5 18.3543V14.3344L7 16.2779ZM20.5 18.3543L17 20.2978V16.2779L20.5 14.3344V18.3543Z" fill="#212529"/>
</svg>
