<!DOCTYPE svg PUBLIC "-//W3C//DTD SVG 1.1//EN" "http://www.w3.org/Graphics/SVG/1.1/DTD/svg11.dtd" [
	<!ENTITY ns_flows "http://ns.adobe.com/Flows/1.0/">
]><svg xmlns="http://www.w3.org/2000/svg" width="16" height="16" viewBox="0 0 16 16" preserveAspectRatio="xMinYMid meet" overflow="visible"><path d="M0 .1c.3-.1.7-.1 1-.1 8.2 0 15 6.7 15 15 0 .3 0 .7-.1 1h-3l.1-1c0-6.6-5.4-12-12-12-.3 0-.7 0-1 .1v-3zm2.5 10.9c-1.3 0-2.4 1-2.5 2.3v.5c.1 1.2 1 2.1 2.2 2.2h.5c1.3-.2 2.3-1.2 2.3-2.5 0-1.4-1.1-2.5-2.5-2.5zm-2.5-6v3c4.4 0 8 3.6 8 8h3c0-6.1-4.9-11-11-11z" fill="#999"/></svg>