<svg id="Layer_1" data-name="Layer 1" xmlns="http://www.w3.org/2000/svg" width="48" height="48" viewBox="0 0 48 48"><defs><style>.cls-1{fill:#06c;}.cls-2{fill:#fff;}</style></defs><title>48px_sourcefile_20170718_multi</title><circle class="cls-1" cx="24" cy="24.04" r="24"/><path id="path1" class="cls-2" d="M11.2,32.27v1.83a.91.91,0,0,0,.91.91H35.88a.91.91,0,0,0,.91-.91V32.27H19.43v.91H15.77v-.91ZM21.28,19v6.51L23,24.4l3.5-2.18-1.27-.79Zm-.49-2.23a1.31,1.31,0,0,1,.71.21l4.7,2.93L28.08,21a1.37,1.37,0,0,1,.48,1.82,1.58,1.58,0,0,1-.35.43l-.13.1L24,26,21.48,27.5a1.27,1.27,0,0,1-.69.2,1.31,1.31,0,0,1-.33,0,1.34,1.34,0,0,1-.85-.68,1.4,1.4,0,0,1-.16-.65V18.1A1.36,1.36,0,0,1,20.79,16.73Zm-8.67-3.66a.91.91,0,0,0-.91.91V30.44h4.57v-.91h3.66v.91H36.8V14a.91.91,0,0,0-.91-.91Zm0-1.83H35.88A2.75,2.75,0,0,1,38.63,14V34.09a2.75,2.75,0,0,1-2.74,2.74H12.12a2.75,2.75,0,0,1-2.74-2.74V14A2.75,2.75,0,0,1,12.12,11.24Z"/></svg>