<svg width="24" height="24" viewBox="0 0 24 24" fill="none" xmlns="http://www.w3.org/2000/svg">
    <path d="M8.75894 10.1883L9.52612 8.10153L10.2933 10.1883C10.9275 11.8863 12.2675 13.2365 13.9655 13.8605L16.0522 14.6277L13.9655 15.3948C12.2675 16.029 10.9275 17.369 10.2933 19.0671L9.52612 21.1538L8.75894 19.0671C8.12474 17.369 6.78474 16.0188 5.08672 15.3948L3 14.6277L5.08672 13.8605C6.78474 13.2263 8.12474 11.8863 8.75894 10.1883Z" fill="#00091E"/>
    <path d="M17.1743 3.09206L17.205 3L17.2357 3.09206C17.8699 4.79008 19.2099 6.14031 20.9079 6.76428L21 6.79497L20.9079 6.82566C19.2099 7.45986 17.8699 8.79986 17.2357 10.4979L17.205 10.5899L17.1743 10.4979C16.5401 8.79986 15.2001 7.44963 13.5021 6.82566L13.4101 6.79497L13.5021 6.76428C15.2001 6.13008 16.5401 4.79008 17.1743 3.09206Z" fill="#00091E"/>
    <path d="M8.75894 10.1883L9.52612 8.10153L10.2933 10.1883C10.9275 11.8863 12.2675 13.2365 13.9655 13.8605L16.0522 14.6277L13.9655 15.3948C12.2675 16.029 10.9275 17.369 10.2933 19.0671L9.52612 21.1538L8.75894 19.0671C8.12474 17.369 6.78474 16.0188 5.08672 15.3948L3 14.6277L5.08672 13.8605C6.78474 13.2263 8.12474 11.8863 8.75894 10.1883Z" stroke="#00091E" stroke-width="1.4" stroke-linejoin="round"/>
    <path d="M17.1743 3.09206L17.205 3L17.2357 3.09206C17.8699 4.79008 19.2099 6.14031 20.9079 6.76428L21 6.79497L20.9079 6.82566C19.2099 7.45986 17.8699 8.79986 17.2357 10.4979L17.205 10.5899L17.1743 10.4979C16.5401 8.79986 15.2001 7.44963 13.5021 6.82566L13.4101 6.79497L13.5021 6.76428C15.2001 6.13008 16.5401 4.79008 17.1743 3.09206Z" stroke="#00091E" stroke-width="1.4" stroke-linejoin="round"/>
</svg>
