<!DOCTYPE svg PUBLIC "-//W3C//DTD SVG 1.1//EN" "http://www.w3.org/Graphics/SVG/1.1/DTD/svg11.dtd" [
	<!ENTITY ns_flows "http://ns.adobe.com/Flows/1.0/">
]><svg xmlns="http://www.w3.org/2000/svg" width="16" height="16" viewBox="-0.9 0 16 16" preserveAspectRatio="xMinYMid meet" overflow="visible"><path d="M2.3 4.8L6.7 4c.8 1.2 1.4 2.6 1.7 4.1.8-1.1 1.4-2 1.9-2.5.6-.7 1-1.1 1.4-1.3.4-.2.8-.3 1.2-.3.5 0 .8.1 1.1.4.2.3.4.6.4 1s-.1.7-.4 1c-.2.3-.6.4-.9.4-.3 0-.6 0-.9-.1-.3-.1-.6-.1-.7-.1-.4 0-.7.1-1 .4-.6.3-1.2 1-1.8 2.1.7 2.5 1.3 4 1.7 4.6.3.3.5.5.8.5.2 0 .4-.1.6-.2.2-.2.6-.6 1.1-1.3l.5.3c-.7 1.2-1.5 2-2.2 2.5-.5.4-1.1.6-1.6.6s-1-.1-1.3-.4c-.4-.2-.7-.6-.9-1.2-.3-.5-.6-1.4-1-2.6-1 1.2-1.7 2.2-2.3 2.7-.6.6-1 .9-1.4 1.1s-.9.3-1.3.3-.8-.1-1-.4-.4-.5-.4-.9.1-.8.4-1.1c.3-.3.6-.4 1.1-.4.2 0 .5.1.8.2.4.2.7.3.9.3.2 0 .5-.1.7-.2.3-.1.6-.4 1-.8.1-.2.5-.7 1.1-1.6-.8-3-1.4-4.8-1.9-5.3-.2-.4-.6-.6-1-.6-.2 0-.5 0-.8.1v-.5zM6.5 0h7.3L13 2.6H5.7L6.5 0z" fill="#999"/></svg>