<?xml version="1.0" encoding="utf-8"?>
<!-- Generator: Adobe Illustrator 15.1.0, SVG Export Plug-In  -->
<!DOCTYPE svg PUBLIC "-//W3C//DTD SVG 1.1//EN" "http://www.w3.org/Graphics/SVG/1.1/DTD/svg11.dtd" [
	<!ENTITY ns_flows "http://ns.adobe.com/Flows/1.0/">
]>
<svg version="1.1"
	 xmlns="http://www.w3.org/2000/svg" xmlns:xlink="http://www.w3.org/1999/xlink" xmlns:a="http://ns.adobe.com/AdobeSVGViewerExtensions/3.0/"
	 x="0px" y="0px" width="16px" height="16px" viewBox="-1.9 0 16 16" style="overflow:visible;enable-background:new -1.9 0 16 16;"
	 xml:space="preserve" preserveAspectRatio="xMinYMid meet">
<defs>
</defs>
<path style="fill:#999999;" d="M9.2,12.4c-0.7,0.3-1.4,0.5-2.1,0.6H2.7l5.2-5.9L5.4,2h1.6C8.1,2,9,2.1,9.6,2.3c0.5,0.2,1,0.5,1.3,1
	C11.1,3.7,11.2,4,11.2,5h0.4l1.3-5H12H5H2v2h0l2.8,5.6L0,13h0v3h5h5h0.4l2.5-6h-0.5C11.4,11,10.4,11.8,9.2,12.4z"/>
</svg>
