<?xml version="1.0" encoding="utf-8"?>
<!-- Generator: Adobe Illustrator 15.1.0, SVG Export Plug-In  -->
<!DOCTYPE svg PUBLIC "-//W3C//DTD SVG 1.1//EN" "http://www.w3.org/Graphics/SVG/1.1/DTD/svg11.dtd" [
	<!ENTITY ns_flows "http://ns.adobe.com/Flows/1.0/">
]>
<svg version="1.1"
	 xmlns="http://www.w3.org/2000/svg" xmlns:xlink="http://www.w3.org/1999/xlink" xmlns:a="http://ns.adobe.com/AdobeSVGViewerExtensions/3.0/"
	 x="0px" y="0px" width="16px" height="16px" viewBox="0 0 16 16" style="overflow:visible;enable-background:new 0 0 16 16;"
	 xml:space="preserve">
<defs>
</defs>
<path style="fill:#999999;" d="M10.8,10.3C10.3,10,10.2,9.4,10.6,9c0,0,1.4-1.8,1.4-3.8C12,2.3,10.2,0,8,0S4,2.3,4,5.2
	C4,7.2,5.4,9,5.4,9c0.3,0.4,0.2,1-0.3,1.3L0,13.1V16h6.6L7,14.2l0.5-1.8l-0.6-0.6L7.7,11h0.6l0.8,0.8l-0.6,0.6L9,14.2L9.5,16H16v-3
	L10.8,10.3z"/>
</svg>
