<?xml version="1.0" encoding="UTF-8"?>
<svg xmlns="http://www.w3.org/2000/svg" xmlns:xlink="http://www.w3.org/1999/xlink" width="16px" height="16px" viewBox="0 0 16 16" version="1.1" preserveAspectRatio="xMinYMid meet">
<g id="surface1">
<path style=" stroke:none;fill-rule:nonzero;fill:rgb(60%,60%,60%);fill-opacity:1;" d="M 10.457031 8.570312 C 10.457031 8.648438 10.425781 8.71875 10.367188 8.777344 L 6.207031 12.9375 C 6.144531 12.996094 6.078125 13.027344 6 13.027344 C 5.921875 13.027344 5.855469 12.996094 5.792969 12.9375 L 5.347656 12.492188 C 5.289062 12.429688 5.257812 12.363281 5.257812 12.285156 C 5.257812 12.207031 5.289062 12.140625 5.347656 12.082031 L 8.855469 8.570312 L 5.347656 5.0625 C 5.289062 5.003906 5.257812 4.933594 5.257812 4.855469 C 5.257812 4.78125 5.289062 4.710938 5.347656 4.652344 L 5.792969 4.207031 C 5.855469 4.144531 5.921875 4.117188 6 4.117188 C 6.078125 4.117188 6.144531 4.144531 6.207031 4.207031 L 10.367188 8.367188 C 10.425781 8.425781 10.457031 8.492188 10.457031 8.570312 Z M 10.457031 8.570312 "/>
</g>
</svg>
