<!DOCTYPE svg PUBLIC "-//W3C//DTD SVG 1.1//EN" "http://www.w3.org/Graphics/SVG/1.1/DTD/svg11.dtd" [
	<!ENTITY ns_flows "http://ns.adobe.com/Flows/1.0/">
]><svg xmlns="http://www.w3.org/2000/svg" width="16" height="16" viewBox="-0.5 0 16 16" preserveAspectRatio="xMinYMid meet" overflow="visible"><path d="M14 0H1C.5 0 0 .5 0 1v14c0 .5.5 1 1 1h13c.5 0 1-.5 1-1V1c0-.5-.5-1-1-1zM4 14H2v-2h2v2zm0-3H2V9h2v2zm0-3H2V6h2v2zm3 6H5v-2h2v2zm0-3H5V9h2v2zm0-3H5V6h2v2zm3 6H8v-2h2v2zm0-3H8V9h2v2zm0-3H8V6h2v2zm3 6h-2V9h2v5zm0-6h-2V6h2v2zm0-3H2V2h11v3z" fill="#999"/></svg>