<!DOCTYPE svg PUBLIC "-//W3C//DTD SVG 1.1//EN" "http://www.w3.org/Graphics/SVG/1.1/DTD/svg11.dtd" [
	<!ENTITY ns_flows "http://ns.adobe.com/Flows/1.0/">
]><svg xmlns="http://www.w3.org/2000/svg" width="16" height="16" viewBox="0 0 16 16" preserveAspectRatio="xMinYMid meet" overflow="visible"><path d="M11.9 13.4c.3-.2.5-.4.8-.7 1.3-1.3 2-2.9 2-4.8s-.7-3.4-2-4.8c-1.3-1.3-2.9-2-4.8-2s-3.4.7-4.8 2c-1.3 1.3-2 2.9-2 4.8s.7 3.4 2 4.8c.3.3.5.5.8.7l-.8 1.8c-.1.2 0 .5.2.7.2.1.5 0 .7-.2l.9-1.7c.9.5 2 .7 3.1.7s2.2-.2 3.1-.7l.8 1.7c.1.2.4.4.7.2.2-.1.4-.4.2-.7l-.9-1.8zm-3.9.3c-1.6 0-2.9-.5-4-1.7-1.1-1.1-1.7-2.4-1.7-4S2.8 5.1 4 4c1.1-1.1 2.4-1.7 4-1.7s2.9.5 4 1.7c1.1 1.1 1.7 2.4 1.7 4s-.5 2.9-1.7 4c-1.1 1.2-2.4 1.7-4 1.7zm0-6l2.6 2.1-.7.8-2.8-2.2c-.1-.1-.2-.2-.2-.4V4.6H8v3.1zm3.2-6.2L12 0c1.8.9 3.1 2.2 4 4l-1.5.8c-.7-1.5-1.8-2.6-3.3-3.3zM1.5 4.8L0 4C.9 2.2 2.2.9 4 0l.8 1.5c-1.5.7-2.6 1.8-3.3 3.3z" fill="#888"/></svg>