<!DOCTYPE svg PUBLIC "-//W3C//DTD SVG 1.1//EN" "http://www.w3.org/Graphics/SVG/1.1/DTD/svg11.dtd" [
	<!ENTITY ns_flows "http://ns.adobe.com/Flows/1.0/">
]><svg xmlns="http://www.w3.org/2000/svg" width="16" height="16" viewBox="0 0 16 16" preserveAspectRatio="xMinYMid meet" overflow="visible"><path d="M14 1h-2v1.5c0 .8-.7 1.5-1.5 1.5S9 3.3 9 2.5V1H6v1.5C6 3.3 5.3 4 4.5 4S3 3.3 3 2.5V1H1c-.6 0-1 .4-1 1v13c0 .6.4 1 1 1h13c.6 0 1-.4 1-1V2c0-.6-.4-1-1-1zM4 14H2v-2h2v2zm0-3H2V9h2v2zm0-3H2V6h2v2zm3 6H5v-2h2v2zm0-3H5V9h2v2zm0-3H5V6h2v2zm3 6H8v-2h2v2zm0-3H8V9h2v2zm0-3H8V6h2v2zm3 6h-2v-2h2v2zm0-3h-2V9h2v2zm0-3h-2V6h2v2zM5 2.5c0 .3-.2.5-.5.5S4 2.8 4 2.5v-2c0-.3.2-.5.5-.5s.5.2.5.5v2zm6 0c0 .3-.2.5-.5.5s-.5-.2-.5-.5v-2c0-.3.2-.5.5-.5s.5.2.5.5v2z" fill="#999"/></svg>