<?xml version="1.0" encoding="utf-8"?>
<!-- Generator: Adobe Illustrator 15.1.0, SVG Export Plug-In  -->
<!DOCTYPE svg PUBLIC "-//W3C//DTD SVG 1.1//EN" "http://www.w3.org/Graphics/SVG/1.1/DTD/svg11.dtd" [
	<!ENTITY ns_flows "http://ns.adobe.com/Flows/1.0/">
]>
<svg version="1.1"
	 xmlns="http://www.w3.org/2000/svg" xmlns:xlink="http://www.w3.org/1999/xlink" xmlns:a="http://ns.adobe.com/AdobeSVGViewerExtensions/3.0/"
	 x="0px" y="0px" width="16px" height="16px" viewBox="0 0 16 16" style="overflow:visible;enable-background:new 0 0 16 16;"
	 xml:space="preserve" preserveAspectRatio="xMinYMid meet">
<defs>
</defs>
<path style="fill:#999999;" d="M16,16h-4c1.9,0,3.5-1.3,3.9-3.1l0.1,0.1V16z M5.2,10.3L0,13V16h12c-2.2,0-4-1.8-4-4
	C8,10,9.4,8.4,11.2,8C11.6,7.3,12,6.3,12,5.2C12,2.3,10.2,0,8,0S4,2.3,4,5.2C4,7.2,5.4,9,5.4,9C5.8,9.5,5.7,10,5.2,10.3z M15,11
	l-1.5-1.3l-2,2.4l-1.2-1L9,12.7l2.7,2.3l0,0l0,0L15,11z"/>
</svg>
