<!DOCTYPE svg PUBLIC "-//W3C//DTD SVG 1.1//EN" "http://www.w3.org/Graphics/SVG/1.1/DTD/svg11.dtd" [
	<!ENTITY ns_flows "http://ns.adobe.com/Flows/1.0/">
]><svg xmlns="http://www.w3.org/2000/svg" width="16" height="16" viewBox="0 0 16 16" preserveAspectRatio="xMinYMid meet" overflow="visible"><path d="M16 16h-4c1.9 0 3.5-1.3 3.9-3.1l.1.1v3zM5.2 10.3L0 13v3h12c-2.2 0-4-1.8-4-4 0-2 1.4-3.6 3.2-4 .4-.7.8-1.7.8-2.8C12 2.3 10.2 0 8 0S4 2.3 4 5.2C4 7.2 5.4 9 5.4 9c.4.5.3 1-.2 1.3zm9.8.7l-1.5-1.3-2 2.4-1.2-1L9 12.7l2.7 2.3 3.3-4z" fill="#888"/></svg>