<?xml version="1.0" encoding="utf-8"?>
<!-- Generator: Adobe Illustrator 15.1.0, SVG Export Plug-In  -->
<!DOCTYPE svg PUBLIC "-//W3C//DTD SVG 1.1//EN" "http://www.w3.org/Graphics/SVG/1.1/DTD/svg11.dtd" [
	<!ENTITY ns_flows "http://ns.adobe.com/Flows/1.0/">
]>
<svg version="1.1"
	 xmlns="http://www.w3.org/2000/svg" xmlns:xlink="http://www.w3.org/1999/xlink" xmlns:a="http://ns.adobe.com/AdobeSVGViewerExtensions/3.0/"
	 x="0px" y="0px" width="16px" height="16px" viewBox="0 0 16 16" style="overflow:visible;enable-background:new 0 0 16 16;"
	 xml:space="preserve" preserveAspectRatio="xMinYMid meet">
<defs>
</defs>
<path style="fill:#999999;" d="M8,4c1.6,0,2.9,1.7,2.9,3.8c0,1.4-0.9,2.5-0.9,2.5c-0.3,0.4-0.2,1,0.3,1.2l3.6,1.7
	c0.5,0.3,1.1,0.9,1.1,1.5V16H1v-1.2c0-0.5,0.6-1.2,1.1-1.5l3.6-1.8c0.5-0.3,0.6-0.8,0.3-1.3c0,0-0.9-1.1-0.9-2.5C5.1,5.7,6.4,4,8,4z
	 M11.9,7.8c0,1.1-0.4,2.1-0.4,2.1c-0.2,0.5,0,1.1,0.5,1.4l1.5,0.7H16V8.4l-1.7-0.8c-0.5-0.3-0.6-0.8-0.3-1.2c0,0,0.9-1.1,0.9-2.5
	C14.9,1.7,13.6,0,12,0c-1.5,0-2.6,1.4-2.8,3.2C10.7,3.9,11.9,5.6,11.9,7.8z M1.7,7.6L0,8.4V12h2.6L4,11.3c0.5-0.3,0.8-0.9,0.5-1.4
	c0,0-0.4-1-0.4-2.1c0-2.1,1.2-3.9,2.8-4.6C6.6,1.4,5.5,0,4,0C2.4,0,1.1,1.7,1.1,3.8C1.1,5.2,2,6.3,2,6.3C2.3,6.7,2.2,7.3,1.7,7.6z"
	/>
</svg>
