<?xml version="1.0" encoding="utf-8"?>
<!-- Generator: Adobe Illustrator 15.1.0, SVG Export Plug-In  -->
<!DOCTYPE svg PUBLIC "-//W3C//DTD SVG 1.1//EN" "http://www.w3.org/Graphics/SVG/1.1/DTD/svg11.dtd" [
	<!ENTITY ns_flows "http://ns.adobe.com/Flows/1.0/">
]>
<svg version="1.1"
	 xmlns="http://www.w3.org/2000/svg" xmlns:xlink="http://www.w3.org/1999/xlink" xmlns:a="http://ns.adobe.com/AdobeSVGViewerExtensions/3.0/"
	 x="0px" y="0px" width="16px" height="16px" viewBox="0 0 16 16" style="overflow:visible;enable-background:new 0 0 16 16;"
	 xml:space="preserve" preserveAspectRatio="xMinYMid meet">
<defs>
</defs>
<path style="fill:#999999;" d="M10,0v2H6V0H10z M11,2h1c1.1,0,2,0.9,2,2v1h2V2c0-1.1-0.9-2-2-2h-3V2z M16,6h-2v4h2V6z M14,11v1
	c0,1.1-0.9,2-2,2h-1v2h3c1.1,0,2-0.9,2-2v-3H14z M10,16v-2H6v2H10z M5,14H4c-1.1,0-2-0.9-2-2v-1H0v3c0,1.1,0.9,2,2,2h3V14z M0,10h2
	V6H0V10z M2,5V4c0-1.1,0.9-2,2-2h1V0H2C0.9,0,0,0.9,0,2v3H2z"/>
<path style="fill:#FF403C;" d="M10.2,8l2.6-2.6c0.4-0.4,0.4-1,0-1.4L12,3.3c-0.4-0.4-1-0.4-1.4,0L8,5.9L5.4,3.3
	c-0.4-0.4-1-0.4-1.4,0L3.3,4c-0.4,0.4-0.4,1,0,1.4L5.9,8l-2.6,2.6C3,11,3,11.6,3.3,12l0.7,0.7c0.4,0.4,1,0.4,1.4,0L8,10.2l2.5,2.5
	c0.4,0.4,1,0.4,1.4,0l0.7-0.7c0.4-0.4,0.4-1,0-1.4L10.2,8z"/>
</svg>
