<svg xmlns="http://www.w3.org/2000/svg" viewBox="0 0 16 16"><path d="M10,0V2H6V0Zm1,2h1a2,2,0,0,1,1.1.3,1.75,1.75,0,0,1,1.2-.4,2,2,0,0,1,1.4.6l.3.3V2a2,2,0,0,0-2-2H11Zm3,8h2V6.4l-2,2Zm0,1v1a2,2,0,0,1-2,2H11v2h3a2,2,0,0,0,2-2V11Zm-4,5V14H6v2ZM5,14H4a2,2,0,0,1-2-2V11H0v3a2,2,0,0,0,2,2H5ZM0,10H2V6H0ZM2,5V4A2,2,0,0,1,4,2H5V0H2A2,2,0,0,0,0,2V5ZM15.7,3.9,15,3.2a1,1,0,0,0-1.4,0l-6,6L5.4,7A1.2,1.2,0,0,0,4,7l-.7.7a1,1,0,0,0,0,1.4l3.6,3.6a1,1,0,0,0,1.4,0l7.4-7.4A1,1,0,0,0,15.7,3.9Z" fill="#949494"/></svg>