<svg xmlns="http://www.w3.org/2000/svg" viewBox="0 0 16 16" preserveAspectRatio="xMinYMid meet"><path d="M10,0V2H6V0Zm1,2h1a2,2,0,0,1,2,2V5h2V2a2,2,0,0,0-2-2H11Zm5,4H14v4h2Zm-2,5v1a2,2,0,0,1-2,2H11v2h3a2,2,0,0,0,2-2V11Zm-4,5V14H6v2ZM5,14H4a2,2,0,0,1-2-2V11H0v3a2,2,0,0,0,2,2H5ZM0,10H2V6H0ZM2,5V4A2,2,0,0,1,4,2H5V0H2A2,2,0,0,0,0,2V5Z" fill="#949494"/><path d="M10.2,8l2.6-2.6a1,1,0,0,0,0-1.4L12,3.3a1,1,0,0,0-1.4,0L8,5.9,5.4,3.3A1,1,0,0,0,4,3.3L3.3,4a1,1,0,0,0,0,1.4L5.9,8,3.3,10.6a1.2,1.2,0,0,0,0,1.4l.7.7a1,1,0,0,0,1.4,0L8,10.2l2.5,2.5a1,1,0,0,0,1.4,0l.7-.7a1,1,0,0,0,0-1.4Z" fill="#ff403c"/></svg>