<?xml version="1.0" encoding="utf-8"?>
<!-- Generator: Adobe Illustrator 15.1.0, SVG Export Plug-In  -->
<!DOCTYPE svg PUBLIC "-//W3C//DTD SVG 1.1//EN" "http://www.w3.org/Graphics/SVG/1.1/DTD/svg11.dtd" [
	<!ENTITY ns_flows "http://ns.adobe.com/Flows/1.0/">
]>
<svg version="1.1"
	 xmlns="http://www.w3.org/2000/svg" xmlns:xlink="http://www.w3.org/1999/xlink" xmlns:a="http://ns.adobe.com/AdobeSVGViewerExtensions/3.0/"
	 x="0px" y="0px" width="16px" height="16px" viewBox="0 0 16 16" style="overflow:visible;enable-background:new 0 0 16 16;"
	 xml:space="preserve" preserveAspectRatio="xMinYMid meet">
<defs>
</defs>
<path style="fill:#999999;" d="M10,0v2H6V0H10z M11,2h1c0.4,0,0.8,0.1,1.1,0.3c0.3-0.3,0.8-0.4,1.2-0.4c0.5,0,1,0.2,1.4,0.6L16,2.8
	V2c0-1.1-0.9-2-2-2h-3V2z M14,10h2V6.4l-2,2V10z M14,11v1c0,1.1-0.9,2-2,2h-1v2h3c1.1,0,2-0.9,2-2v-3H14z M10,16v-2H6v2H10z M5,14H4
	c-1.1,0-2-0.9-2-2v-1H0v3c0,1.1,0.9,2,2,2h3V14z M0,10h2V6H0V10z M2,5V4c0-1.1,0.9-2,2-2h1V0H2C0.9,0,0,0.9,0,2v3H2z"/>
<path style="fill:#76A1F0;" d="M15.7,3.9L15,3.2c-0.4-0.4-1-0.4-1.4,0l-6,6L5.4,7C5,6.7,4.4,6.7,4,7L3.3,7.7c-0.4,0.4-0.4,1,0,1.4
	l3.6,3.6c0.4,0.4,1,0.4,1.4,0l7.4-7.4C16.1,4.9,16.1,4.3,15.7,3.9z"/>
</svg>
