<!DOCTYPE svg PUBLIC "-//W3C//DTD SVG 1.1//EN" "http://www.w3.org/Graphics/SVG/1.1/DTD/svg11.dtd" [
	<!ENTITY ns_flows "http://ns.adobe.com/Flows/1.0/">
]><svg xmlns="http://www.w3.org/2000/svg" width="16" height="16" viewBox="0 0 16 16" preserveAspectRatio="xMinYMid meet" overflow="visible"><path d="M16 6.4V14c0 1.1-.9 2-2 2H2c-1.1 0-2-.9-2-2V2C0 .9.9 0 2 0h12c1.1 0 2 .9 2 2v.8l-.3-.3c-.4-.4-.9-.6-1.4-.6-.4 0-.9.1-1.2.4-.3-.2-.7-.3-1.1-.3H4c-1.1 0-2 .9-2 2v8c0 1.1.9 2 2 2h8c1.1 0 2-.9 2-2V8.4l2-2zm-.3-2.5l-.7-.7c-.4-.4-1-.4-1.4 0l-6 6L5.4 7c-.4-.3-1-.3-1.4 0l-.7.7c-.4.4-.4 1 0 1.4l3.6 3.6c.4.4 1 .4 1.4 0l7.4-7.4c.4-.4.4-1 0-1.4z" fill="#999"/></svg>