<!DOCTYPE svg PUBLIC "-//W3C//DTD SVG 1.1//EN" "http://www.w3.org/Graphics/SVG/1.1/DTD/svg11.dtd" [
	<!ENTITY ns_flows "http://ns.adobe.com/Flows/1.0/">
]><svg xmlns="http://www.w3.org/2000/svg" width="16" height="16" viewBox="0 0 16 16" preserveAspectRatio="xMinYMid meet" overflow="visible"><path d="M6 13.7c0-.1-.6-.2-.9-.4l-1.8 1.2c-.7-.5-1.3-1.1-1.8-1.9l1.2-1.8c-.2-.4-.4-.8-.5-1.2L.1 9.3C0 8.9 0 8.4 0 8s0-.9.1-1.3l2.1-.4c.1-.4.3-.8.5-1.2L1.5 3.4C2 2.6 2.6 2 3.4 1.5l1.8 1.2c.4-.2.8-.4 1.2-.5L6.8.1C7.1 0 7.6 0 8 0s.9 0 1.3.1l.4 2.1c.4.1.8.3 1.2.5l1.8-1.2c.7.5 1.3 1.1 1.8 1.9l-1.2 1.8c.2.4.4.8.5 1.2l2.1.4c.1.3.1.8.1 1.2s0 .9-.1 1.3l-.4.1c-.1-.8-.5-1.6-1.1-2.2-.8-.8-1.8-1.2-2.8-1.2-.8 0-1.5.2-2.1.6C9.1 6.2 8.6 6 8 6c-1.1 0-1.9.9-1.9 2 0 1 .6 1.7 1.5 1.9v.2c-.4.1-.7.3-1 .5-.4.4-.6.9-.6 1.4v1.7zm8.5-3.7v1h.5c.5 0 1 .5 1 1v3c0 .5-.5 1-1 1H8c-.5 0-1-.5-1-1v-3c0-.5.4-1 1-1h.6v-1c0-1.6 1.3-3 2.9-3 1.7 0 3 1.4 3 3zm-3 2c-.5 0-1 .4-1 1 0 .4.2.7.6.9l-.1.1-.5 1h2l-.5-1v-.1c.3-.2.6-.5.6-.9-.1-.5-.5-1-1.1-1zm0-3c-.5 0-1 .4-1 1v1h1.9v-1c.1-.5-.3-1-.9-1z" fill="#888"/></svg>