<?xml version="1.0" encoding="utf-8"?>
<!-- Generator: Adobe Illustrator 15.1.0, SVG Export Plug-In  -->
<!DOCTYPE svg PUBLIC "-//W3C//DTD SVG 1.1//EN" "http://www.w3.org/Graphics/SVG/1.1/DTD/svg11.dtd" [
	<!ENTITY ns_flows "http://ns.adobe.com/Flows/1.0/">
]>
<svg version="1.1"
	 xmlns="http://www.w3.org/2000/svg" xmlns:xlink="http://www.w3.org/1999/xlink" xmlns:a="http://ns.adobe.com/AdobeSVGViewerExtensions/3.0/"
	 x="0px" y="0px" width="16px" height="16px" viewBox="-1 0 16 16" style="overflow:visible;enable-background:new -1 0 16 16;"
	 xml:space="preserve">
<defs>
</defs>
<path style="fill:#999999;" d="M13,0H2C1.5,0,1,0.5,1,1v2h1.5C3.3,3,4,3.7,4,4.5S3.3,6,2.5,6H1v1h1.5C3.3,7,4,7.7,4,8.5
	S3.3,10,2.5,10H1v1h1.5C3.3,11,4,11.7,4,12.5S3.3,14,2.5,14H1v1c0,0.5,0.5,1,1,1h11c0.5,0,1-0.5,1-1V1C14,0.5,13.5,0,13,0z M12,6H5
	V3h7V6z M3,12.5C3,12.8,2.8,13,2.5,13h-2C0.2,13,0,12.8,0,12.5l0,0C0,12.2,0.2,12,0.5,12h2C2.8,12,3,12.2,3,12.5L3,12.5z M3,8.5
	C3,8.8,2.8,9,2.5,9h-2C0.2,9,0,8.8,0,8.5v0C0,8.2,0.2,8,0.5,8h2C2.8,8,3,8.2,3,8.5L3,8.5z M3,4.5C3,4.8,2.8,5,2.5,5h-2
	C0.2,5,0,4.8,0,4.5l0,0C0,4.2,0.2,4,0.5,4h2C2.8,4,3,4.2,3,4.5L3,4.5z"/>
</svg>
