<?xml version="1.0" encoding="utf-8"?>
<!-- Generator: Adobe Illustrator 19.1.0, SVG Export Plug-In . SVG Version: 6.00 Build 0)  -->
<svg version="1.1" id="Layer_1" xmlns="http://www.w3.org/2000/svg" xmlns:xlink="http://www.w3.org/1999/xlink" x="0px" y="0px"
	 viewBox="-295 293 16 16" style="enable-background:new -295 293 16 16;" xml:space="preserve" preserveAspectRatio="xMinYMid meet">
<style type="text/css">
	.st0{fill:#999999;}
</style>
<path class="st0" d="M-284.4,300.6l4.3-4.3c0.5-0.5,0.5-1.4,0-1.9l-0.9-0.9c-0.5-0.5-1.4-0.5-1.9,0l-4.5,4.3l-4.3-4.3
	c-0.5-0.5-1.4-0.5-1.9,0l-0.9,0.9c-0.5,0.5-0.5,1.4,0,1.9l4.3,4.3l-4.3,4.5c-0.5,0.5-0.5,1.4,0,1.9l0.9,0.9c0.5,0.5,1.4,0.5,1.9,0
	l4.3-4.3l4.5,4.3c0.5,0.5,1.4,0.5,1.9,0l0.9-0.9c0.5-0.5,0.5-1.4,0-1.9L-284.4,300.6z"/>
</svg>
