<?xml version="1.0" encoding="utf-8"?>
<!-- Generator: Adobe Illustrator 15.1.0, SVG Export Plug-In  -->
<!DOCTYPE svg PUBLIC "-//W3C//DTD SVG 1.1//EN" "http://www.w3.org/Graphics/SVG/1.1/DTD/svg11.dtd" [
	<!ENTITY ns_flows "http://ns.adobe.com/Flows/1.0/">
]>
<svg version="1.1"
	 xmlns="http://www.w3.org/2000/svg" xmlns:xlink="http://www.w3.org/1999/xlink" xmlns:a="http://ns.adobe.com/AdobeSVGViewerExtensions/3.0/"
	 x="0px" y="0px" width="16px" height="16px" viewBox="-0.1 0 16 16" style="overflow:visible;enable-background:new -0.1 0 16 16;"
	 xml:space="preserve" preserveAspectRatio="xMinYMid meet">
<defs>
</defs>
<path style="fill:#999999;" d="M15.6,7.3l-0.7-0.7c-0.4-0.4-1.1-0.4-1.4,0l-4,4V1c0-0.5-0.4-1-1-1h-1c-0.5,0-1,0.5-1,1v9.6l-4-4
	C2,6.2,1.4,6.2,1,6.6L0.3,7.3c-0.4,0.4-0.4,1,0,1.4l7,7c0.4,0.4,1,0.4,1.4,0L9.4,15c0,0,0,0,0,0l6.2-6.2C16,8.4,16,7.7,15.6,7.3z"/>
</svg>
