<!DOCTYPE svg PUBLIC "-//W3C//DTD SVG 1.1//EN" "http://www.w3.org/Graphics/SVG/1.1/DTD/svg11.dtd" [
	<!ENTITY ns_flows "http://ns.adobe.com/Flows/1.0/">
]><svg xmlns="http://www.w3.org/2000/svg" width="16" height="16" viewBox="0 0 16 16" preserveAspectRatio="xMinYMid meet" overflow="visible"><path d="M15.7 7.3l-2.5-2.5c-.4-.4-.7-.3-.7.3v1.6h-3v-3H11c.5 0 .7-.3.3-.7L8.7.3c-.4-.4-1-.4-1.4 0L4.8 2.9c-.4.3-.3.7.2.7h1.5v3h-3V5c0-.5-.3-.7-.7-.3L.3 7.3c-.4.4-.4 1 0 1.4l2.5 2.5c.4.4.7.3.7-.3V9.6h3v3H5c-.5 0-.7.2-.3.6l2.5 2.5c.4.4 1 .4 1.4 0l2.6-2.5c.4-.4.3-.6-.3-.6H9.5v-3h3V11c0 .5.3.7.7.3l2.5-2.5c.4-.5.4-1.1 0-1.5z" fill="#999"/></svg>