<?xml version="1.0" encoding="utf-8"?>
<!-- Generator: Adobe Illustrator 15.1.0, SVG Export Plug-In  -->
<!DOCTYPE svg PUBLIC "-//W3C//DTD SVG 1.1//EN" "http://www.w3.org/Graphics/SVG/1.1/DTD/svg11.dtd" [
	<!ENTITY ns_flows "http://ns.adobe.com/Flows/1.0/">
]>
<svg version="1.1"
	 xmlns="http://www.w3.org/2000/svg" xmlns:xlink="http://www.w3.org/1999/xlink" xmlns:a="http://ns.adobe.com/AdobeSVGViewerExtensions/3.0/"
	 x="0px" y="0px" width="12px" height="12px" viewBox="-0.1 -0.1 12 12"
	 style="overflow:visible;enable-background:new -0.1 -0.1 12 12;" xml:space="preserve" preserveAspectRatio="xMinYMid meet">
<defs>
</defs>
<path style="fill:#999999;" d="M11.6,5.2L9.8,3.5C9.4,3.1,8.9,3.3,8.9,3.8v1.1h-2v-2h1.1c0.5,0,0.7-0.5,0.3-0.9L6.6,0.3
	c-0.4-0.4-1-0.4-1.4,0L3.5,2.1C3.1,2.5,3.3,2.9,3.8,2.9h1.1v2h-2V3.8c0-0.5-0.5-0.7-0.9-0.3L0.3,5.2c-0.4,0.4-0.4,1,0,1.4l1.8,1.7
	c0.4,0.4,0.8,0.3,0.8-0.3V6.9h2v2H3.8c-0.5,0-0.7,0.5-0.3,0.9l1.7,1.8c0.4,0.4,1,0.4,1.4,0l1.7-1.8c0.4-0.4,0.3-0.8-0.3-0.8H6.9v-2
	h2v1.1c0,0.5,0.5,0.7,0.9,0.3l1.8-1.7C12,6.3,12,5.6,11.6,5.2z"/>
</svg>
