<svg viewBox="0 0 18 16" fill="none" xmlns="http://www.w3.org/2000/svg" preserveAspectRatio="xMinYMid meet">
<path fill-rule="evenodd" clip-rule="evenodd" d="M9 0C8.44771 0 8 0.447715 8 1L8 8.58578L5.70711 6.29289C5.31659 5.90236 4.68342 5.90236 4.2929 6.29289C3.90237 6.68341 3.90237 7.31658 4.2929 7.7071L8.29051 11.7047C8.29786 11.7121 8.30532 11.7194 8.31289 11.7266C8.40168 11.8106 8.5021 11.8753 8.60879 11.9206C8.72895 11.9717 8.86117 12 9 12C9.13883 12 9.27105 11.9717 9.39121 11.9206C9.49697 11.8757 9.59656 11.8117 9.68477 11.7288C9.69316 11.7209 9.70142 11.7128 9.70954 11.7047L13.7071 7.7071C14.0976 7.31658 14.0976 6.68341 13.7071 6.29289C13.3166 5.90236 12.6834 5.90236 12.2929 6.29289L10 8.58578L10 1C10 0.447715 9.55229 0 9 0ZM0 13C0 14.6569 1.34315 16 3 16L15 16C16.6569 16 18 14.6569 18 13V10C18 9.44771 17.5523 9 17 9C16.4477 9 16 9.44771 16 10V13C16 13.5523 15.5523 14 15 14L3 14C2.44772 14 2 13.5523 2 13V10C2 9.44772 1.55228 9 1 9C0.447715 9 0 9.44772 0 10V13Z" fill="#212529"/>
</svg>
