<svg viewBox="0 0 18 18" fill="none" xmlns="http://www.w3.org/2000/svg" preserveAspectRatio="xMinYMid meet">
<path fill-rule="evenodd" clip-rule="evenodd" d="M8.99995 0.924789C8.54359 0.924789 8.09547 0.962657 7.65871 1.03558C7.22292 1.10835 6.92862 1.52062 7.00139 1.95642C7.07416 2.39221 7.48643 2.6865 7.92222 2.61374C8.27225 2.55529 8.63223 2.52479 8.99995 2.52479C9.36767 2.52479 9.72766 2.55529 10.0777 2.61374C10.5135 2.6865 10.9257 2.39221 10.9985 1.95642C11.0713 1.52062 10.777 1.10835 10.3412 1.03558C9.90444 0.962657 9.45631 0.924789 8.99995 0.924789ZM5.23563 3.72731C5.59531 3.47072 5.67889 2.97113 5.4223 2.61144C5.16572 2.25175 4.66613 2.16818 4.30644 2.42476C3.57396 2.94729 2.93241 3.58883 2.40989 4.32132C2.1533 4.681 2.23688 5.18059 2.59657 5.43718C2.95625 5.69377 3.45584 5.61019 3.71243 5.2505C4.13204 4.66229 4.64741 4.14692 5.23563 3.72731ZM13.6935 2.42476C13.3338 2.16818 12.8342 2.25176 12.5776 2.61144C12.321 2.97113 12.4046 3.47072 12.7643 3.72731C13.3525 4.14692 13.8679 4.66229 14.2875 5.2505C14.5441 5.61019 15.0437 5.69377 15.4033 5.43718C15.763 5.18059 15.8466 4.68101 15.59 4.32132C15.0675 3.58883 14.4259 2.94729 13.6935 2.42476ZM2.59886 7.9371C2.67163 7.50131 2.37733 7.08904 1.94154 7.01627C1.50575 6.9435 1.09347 7.23779 1.02071 7.67359C0.947779 8.11034 0.909912 8.55847 0.909912 9.01483C0.909912 9.47119 0.947779 9.91931 1.02071 10.3561C1.09347 10.7919 1.50575 11.0862 1.94154 11.0134C2.37733 10.9406 2.67163 10.5283 2.59886 10.0926C2.54041 9.74253 2.50991 9.38255 2.50991 9.01483C2.50991 8.64711 2.54041 8.28712 2.59886 7.9371ZM16.9792 7.67359C16.9064 7.23779 16.4942 6.9435 16.0584 7.01627C15.6226 7.08904 15.3283 7.50131 15.401 7.9371C15.4595 8.28712 15.49 8.64711 15.49 9.01483C15.49 9.38255 15.4595 9.74253 15.401 10.0926C15.3283 10.5284 15.6226 10.9406 16.0584 11.0134C16.4942 11.0862 16.9064 10.7919 16.9792 10.3561C17.0521 9.91931 17.09 9.47119 17.09 9.01483C17.09 8.55847 17.0521 8.11034 16.9792 7.67359ZM3.71243 12.7792C3.45584 12.4195 2.95625 12.3359 2.59656 12.5925C2.23688 12.8491 2.1533 13.3487 2.40989 13.7083C2.93241 14.4408 3.57396 15.0824 4.30644 15.6049C4.66613 15.8615 5.16572 15.7779 5.4223 15.4182C5.67889 15.0585 5.59531 14.5589 5.23562 14.3024C4.64741 13.8827 4.13204 13.3674 3.71243 12.7792ZM15.59 13.7083C15.8466 13.3487 15.763 12.8491 15.4033 12.5925C15.0437 12.3359 14.5441 12.4195 14.2875 12.7792C13.8679 13.3674 13.3525 13.8827 12.7643 14.3024C12.4046 14.5589 12.321 15.0585 12.5776 15.4182C12.8342 15.7779 13.3338 15.8615 13.6935 15.6049C14.4259 15.0824 15.0675 14.4408 15.59 13.7083ZM7.92222 15.4159C7.48643 15.3432 7.07416 15.6374 7.00139 16.0732C6.92862 16.509 7.22291 16.9213 7.65871 16.9941C8.09547 17.067 8.54359 17.1049 8.99995 17.1049C9.45631 17.1049 9.90444 17.067 10.3412 16.9941C10.777 16.9213 11.0713 16.509 10.9985 16.0732C10.9257 15.6374 10.5135 15.3432 10.0777 15.4159C9.72766 15.4744 9.36767 15.5049 8.99995 15.5049C8.63223 15.5049 8.27225 15.4744 7.92222 15.4159ZM12.5656 7.58051C12.8781 7.26809 12.8781 6.76156 12.5656 6.44914C12.2532 6.13672 11.7467 6.13672 11.4343 6.44914L7.99995 9.88346L6.56564 8.44914C6.25322 8.13672 5.74669 8.13672 5.43427 8.44914C5.12185 8.76156 5.12185 9.2681 5.43427 9.58051L7.43427 11.5805C7.74669 11.8929 8.25322 11.8929 8.56564 11.5805L12.5656 7.58051Z" fill="#90682f"/>
</svg>
