<!DOCTYPE svg PUBLIC "-//W3C//DTD SVG 1.1//EN" "http://www.w3.org/Graphics/SVG/1.1/DTD/svg11.dtd" [
	<!ENTITY ns_flows "http://ns.adobe.com/Flows/1.0/">
]><svg xmlns="http://www.w3.org/2000/svg" width="16" height="16" viewBox="0 0 16 16" preserveAspectRatio="xMinYMid meet" overflow="visible"><path d="M4.4 13H0V9.9l2.2-1.3c.4-.2.4-.6.1-1 0 0-1.3-1.5-1.3-3.2C1 2 2.5 0 4.4 0s3.4 2 3.4 4.4c0 1.7-1.2 3.2-1.2 3.2-.3.4-.2.8.2 1l1.1.6c.3.6.6 1.1.8 1.4L4.4 13zm11.6-.8l-1.9-1c-.4-.2-.5-.7-.2-1 0 0 1.2-1.5 1.2-3.2 0-2.4-1.5-4.4-3.4-4.4S8.3 4.6 8.3 7c0 1.7 1.3 3.2 1.3 3.2.3.4.3.8-.1 1.1l-4.1 2.3V16H16v-3.8z" fill="#888"/></svg>