<?xml version="1.0" encoding="utf-8"?>
<!-- Generator: Adobe Illustrator 15.1.0, SVG Export Plug-In  -->
<!DOCTYPE svg PUBLIC "-//W3C//DTD SVG 1.1//EN" "http://www.w3.org/Graphics/SVG/1.1/DTD/svg11.dtd" [
	<!ENTITY ns_flows "http://ns.adobe.com/Flows/1.0/">
]>
<svg version="1.1"
	 xmlns="http://www.w3.org/2000/svg" xmlns:xlink="http://www.w3.org/1999/xlink" xmlns:a="http://ns.adobe.com/AdobeSVGViewerExtensions/3.0/"
	 x="0px" y="0px" width="16px" height="16px" viewBox="0 0 16 16" style="overflow:visible;enable-background:new 0 0 16 16;"
	 xml:space="preserve" preserveAspectRatio="xMinYMid meet">
<defs>
</defs>
<path style="fill:#999999;" d="M3,16H0v-4l3.2-1.7C3.6,10,3.8,9.5,3.4,9C3.4,9,2,7.2,2,5.2C2,2.3,3.8,0,6,0c0.4,0,0.7,0.1,1.1,0.2
	c-1.2,1.1-2,3-2,5c0,1.7,0.6,2.7,1,3.5c0.6,0.9,0.1,1-0.3,1.3C5.6,10.1,3,11.4,3,11.4V16z M16,11.9l-3.1-1.6
	C12.4,10,12.3,9.4,12.6,9c0,0,1.4-1.8,1.4-3.8C14,2.3,12.2,0,10,0S6,2.3,6,5.2C6,7.2,7.5,9,7.5,9c0.3,0.4,0.2,1-0.3,1.3L4,12v4h12
	V11.9z"/>
</svg>
