<?xml version="1.0" encoding="utf-8"?>
<!-- Generator: Adobe Illustrator 15.1.0, SVG Export Plug-In  -->
<!DOCTYPE svg PUBLIC "-//W3C//DTD SVG 1.1//EN" "http://www.w3.org/Graphics/SVG/1.1/DTD/svg11.dtd" [
	<!ENTITY ns_flows "http://ns.adobe.com/Flows/1.0/">
]>
<svg version="1.1"
	 xmlns="http://www.w3.org/2000/svg" xmlns:xlink="http://www.w3.org/1999/xlink" xmlns:a="http://ns.adobe.com/AdobeSVGViewerExtensions/3.0/"
	 x="0px" y="0px" width="16px" height="16px" viewBox="0 0 16 16" style="overflow:visible;enable-background:new 0 0 16 16;"
	 xml:space="preserve" preserveAspectRatio="xMinYMid meet">
<defs>
</defs>
<path style="fill:#999999;" d="M4.4,13H0V9.9l2.2-1.3C2.6,8.4,2.6,8,2.3,7.6c0,0-1.3-1.5-1.3-3.2C1,2,2.5,0,4.4,0s3.4,2,3.4,4.4
	c0,1.7-1.2,3.2-1.2,3.2c-0.3,0.4-0.2,0.8,0.2,1l1.1,0.6c0.3,0.6,0.6,1.1,0.8,1.4L4.4,13L4.4,13z M16,12.2l-1.9-1
	c-0.4-0.2-0.5-0.7-0.2-1c0,0,1.2-1.5,1.2-3.2c0-2.4-1.5-4.4-3.4-4.4S8.3,4.6,8.3,7c0,1.7,1.3,3.2,1.3,3.2c0.3,0.4,0.3,0.8-0.1,1.1
	l-4.1,2.3V16H16V12.2z"/>
</svg>
