<!DOCTYPE svg PUBLIC "-//W3C//DTD SVG 1.1//EN" "http://www.w3.org/Graphics/SVG/1.1/DTD/svg11.dtd" [
	<!ENTITY ns_flows "http://ns.adobe.com/Flows/1.0/">
]><svg xmlns="http://www.w3.org/2000/svg" width="16" height="16" viewBox="0 0 16 16" preserveAspectRatio="xMinYMid meet" overflow="visible"><path d="M3 16H0v-4l3.2-1.7c.4-.3.6-.8.2-1.3C3.4 9 2 7.2 2 5.2 2 2.3 3.8 0 6 0c.4 0 .7.1 1.1.2-1.2 1.1-2 3-2 5 0 1.7.6 2.7 1 3.5.6.9.1 1-.3 1.3L3 11.4V16zm13-4.1l-3.1-1.6c-.5-.3-.6-.9-.3-1.3 0 0 1.4-1.8 1.4-3.8C14 2.3 12.2 0 10 0S6 2.3 6 5.2C6 7.2 7.5 9 7.5 9c.3.4.2 1-.3 1.3L4 12v4h12v-4.1z" fill="#999"/></svg>