<!DOCTYPE svg PUBLIC "-//W3C//DTD SVG 1.1//EN" "http://www.w3.org/Graphics/SVG/1.1/DTD/svg11.dtd" [
	<!ENTITY ns_flows "http://ns.adobe.com/Flows/1.0/">
]><svg xmlns="http://www.w3.org/2000/svg" width="16" height="16" viewBox="-0.1 0 16 16" preserveAspectRatio="xMinYMid meet" overflow="visible"><path d="M5.9 15c0 .3.1 1 .3 1H.6c-.5 0-.8-.4-.5-.9L1.7 12H6v3zM4.2 7l-2 4h4.1c.1-.2.2-.3.4-.5.3-.3.8-.5.8-.5 0-1.2.3-2.1 1.3-3l.1-.1H4.2zm7.1-1L8.4.4c-.2-.5-.7-.5-.9 0L4.7 6h6.6zm3.1 4v1h.6c.5 0 1 .5 1 1v3c0 .5-.5 1-1 1H8c-.5 0-1-.5-1-1v-3c0-.5.4-1 1-1h.6v-1c0-1.6 1.3-3 2.9-3 1.6 0 2.9 1.3 2.9 3zm-2.9 2c-.5 0-1 .4-1 1 0 .4.2.7.6.9l-.1.1-.5 1h2l-.5-1-.1-.1c.3-.2.6-.5.6-.9 0-.5-.5-1-1-1zm0-3c-.5 0-1 .4-1 1v1h1.9v-1c0-.6-.4-1-.9-1z" fill="#999"/></svg>