<?xml version="1.0" encoding="utf-8"?>
<!-- Generator: Adobe Illustrator 15.1.0, SVG Export Plug-In  -->
<!DOCTYPE svg PUBLIC "-//W3C//DTD SVG 1.1//EN" "http://www.w3.org/Graphics/SVG/1.1/DTD/svg11.dtd" [
	<!ENTITY ns_flows "http://ns.adobe.com/Flows/1.0/">
]>
<svg version="1.1"
	 xmlns="http://www.w3.org/2000/svg" xmlns:xlink="http://www.w3.org/1999/xlink" xmlns:a="http://ns.adobe.com/AdobeSVGViewerExtensions/3.0/"
	 x="0px" y="0px" width="16px" height="16px" viewBox="-0.1 0 16 16" style="overflow:visible;enable-background:new -0.1 0 16 16;"
	 xml:space="preserve" preserveAspectRatio="xMinYMid meet">
<defs>
</defs>
<path style="fill:#999999;" d="M5.9,15c0,0.3,0.1,1,0.3,1H0.6c-0.5,0-0.8-0.4-0.5-0.9L1.7,12h4.3c0,0,0,0,0,0V15z M4.2,7l-2,4h4.1
	c0.1-0.2,0.2-0.3,0.4-0.5C7,10.2,7.5,10,7.5,10c0-1.2,0.3-2.1,1.3-3c0,0,0,0,0.1-0.1H4.2z M11.3,6L8.4,0.4c-0.2-0.5-0.7-0.5-0.9,0
	L4.7,6H11.3z M14.4,10v1H15c0.5,0,1,0.5,1,1v3c0,0.5-0.5,1-1,1l-7,0c-0.5,0-1-0.5-1-1v-3c0-0.5,0.4-1,1-1h0.6v-1c0-1.6,1.3-3,2.9-3
	C13.1,7,14.4,8.3,14.4,10z M11.5,12c-0.5,0-1,0.4-1,1c0,0.4,0.2,0.7,0.6,0.9L11,14l-0.5,1l1,0l1,0L12,14l-0.1-0.1
	c0.3-0.2,0.6-0.5,0.6-0.9C12.5,12.5,12,12,11.5,12z M11.5,9c-0.5,0-1,0.4-1,1v1h1.9v-1C12.4,9.4,12,9,11.5,9z"/>
</svg>
