<svg viewBox="0 0 18 16" fill="none" xmlns="http://www.w3.org/2000/svg" preserveAspectRatio="xMinYMid meet">
<path fill-rule="evenodd" clip-rule="evenodd" d="M10 11V3.41422L12.2929 5.70711C12.6834 6.09764 13.3166 6.09764 13.7071 5.70711C14.0976 5.31659 14.0976 4.68342 13.7071 4.2929L9.70955 0.295347C9.70143 0.287169 9.69317 0.27913 9.68477 0.271235C9.59656 0.188257 9.49697 0.124319 9.39121 0.0794195C9.27105 0.0282899 9.13883 0 9 0C8.86117 0 8.72895 0.0282899 8.60879 0.0794195C8.50303 0.124319 8.40344 0.188257 8.31523 0.271235C8.30683 0.27913 8.29857 0.287169 8.29045 0.295347L4.2929 4.2929C3.90237 4.68342 3.90237 5.31659 4.2929 5.70711C4.68342 6.09764 5.31659 6.09764 5.70711 5.70711L8 3.41422V11C8 11.5523 8.44771 12 9 12C9.55229 12 10 11.5523 10 11ZM0 13C0 14.6569 1.34315 16 3 16L15 16C16.6569 16 18 14.6569 18 13V10C18 9.44771 17.5523 9 17 9C16.4477 9 16 9.44771 16 10V13C16 13.5523 15.5523 14 15 14L3 14C2.44772 14 2 13.5523 2 13V10C2 9.44772 1.55228 9 1 9C0.447715 9 0 9.44772 0 10V13Z" fill="#212529"/>
</svg>
