<?xml version="1.0" encoding="utf-8"?>
<!-- Generator: Adobe Illustrator 20.1.0, SVG Export Plug-In . SVG Version: 6.00 Build 0)  -->
<svg version="1.1" id="full_color" xmlns="http://www.w3.org/2000/svg" xmlns:xlink="http://www.w3.org/1999/xlink" height="16" width="16" x="0px" y="0px"
	 viewBox="0 0 65.2 124.7" style="enable-background:new 0 0 65.2 124.7;" xml:space="preserve" preserveAspectRatio="xMinYMid meet">
<style type="text/css">
	.st0{fill:#566D31;}
</style>
<path class="st0" d="M63.2,92c0-17.3-14.7-36.7-16-35.8c-3.5,2.2,10.1,13.4,10.1,34.3c0,11.7-6.9,23.2-22.1,23.2
	c-14.7,0-24.9-9.4-24.9-23.6c0-13.5,9.3-26.7,14.9-33.5c2.2,3.2,7.4,11.2,8.5,13c1.4,2.3,3.3,7.3-0.2,7.8c-5.1,0.8-5.3-7.3-5.5-9.7
	c-0.1-0.8-1.3-0.9-1.7-0.2c-1.6,2.9-2.8,11.6,2,15.7c3.4,2.9,9.4,3,11.8-3.6c3.8,6.6,4.8,12.7,5.4,16.8c0.1,0.7,1.1,0.7,1.2,0
	c2.3-13.5-4-22.9-6.1-27.1c-2.1-4.2-10.8-16.5-12.3-19c-1.5-2.5-5.6-9.7-5.6-17.4c0-11.7,9.6-22.9,11.4-22.9c1.8,0,12,9.3,12,23.3
	c0,5.3-1.2,9.2-2.6,12c-0.5,0.9-1.7,1-2.3,0.1c-5.6-8.7-5.6-10.5-2.1-13c2.3-1.7-9-6.4-8.6,3.3c0.2,5.1,7.4,15.5,9.2,17.5
	s12-2.2,12-20.7c0-18.5-15.9-30.8-17.9-30.8C31.8,1.7,16,16.7,16,32.5c0,7.8,2.8,14.5,6.1,19.7C21.7,52.5,1.8,68.3,2,92
	c0.2,18.1,12.3,31.1,32.1,31.1C52,123.1,63.2,111.3,63.2,92z"/>
</svg>
