<!DOCTYPE svg PUBLIC "-//W3C//DTD SVG 1.1//EN" "http://www.w3.org/Graphics/SVG/1.1/DTD/svg11.dtd" [
	<!ENTITY ns_flows "http://ns.adobe.com/Flows/1.0/">
]><svg xmlns="http://www.w3.org/2000/svg" width="16" height="16" viewBox="0 0 16 16" preserveAspectRatio="xMinYMid meet" overflow="visible"><path d="M15 5.2V15c0 .5-.5 1-1 1H1c-.5 0-1-.5-1-1V2c0-.5.5-1 1-1h9.8l-2 2H3c-.5 0-1 .4-1 1v9c0 .5.5 1 1 1h9c.5 0 1-.5 1-1V7.2l2-2zm.4-4.6c-.8-.8-2.1-.8-2.8 0l-1 1 2.8 2.8 1-1c.8-.8.8-2 0-2.8zm-4.8 2L4 9.1V12h2.8l1.8-1.8 4.8-4.8-2.8-2.8z" fill="#888"/></svg>