<!DOCTYPE svg PUBLIC "-//W3C//DTD SVG 1.1//EN" "http://www.w3.org/Graphics/SVG/1.1/DTD/svg11.dtd" [
	<!ENTITY ns_flows "http://ns.adobe.com/Flows/1.0/">
]><svg xmlns="http://www.w3.org/2000/svg" width="16" height="16" viewBox="-1.2 0 16 16" preserveAspectRatio="xMinYMid meet" overflow="visible"><path d="M4.2 15l5.4-.4c-.2.5-.5 1.2-.8 1.2 0 0-.7.2-2 .2s-2-.2-2-.2c-.2 0-.4-.3-.6-.8zm-.3-.9l6-.5c.1-.3.3-.8.5-1l-6.8.5c.2.5.3 1 .3 1zm9.8-7.3c0 1.8-1.3 3.6-2.3 4.6l-8.5.7c-.7-.6-2.9-3-2.9-5.3C0 3.1 3.1 0 6.8 0c3.8 0 6.9 3.1 6.9 6.8zM7 3.1c-.6-.6-1.8-.4-2.7.5s-1.2 2.1-.6 2.7c.6.6 1.8.3 2.7-.6s1.2-2 .6-2.6z" fill="#999"/></svg>