<?xml version="1.0" encoding="UTF-8"?>
<svg xmlns="http://www.w3.org/2000/svg" xmlns:xlink="http://www.w3.org/1999/xlink" width="16px" height="16px" viewBox="0 0 16 16" version="1.1" preserveAspectRatio="xMinYMid meet">
<g id="surface1">
<path style=" stroke:none;fill-rule:nonzero;fill:rgb(60%,60%,60%);fill-opacity:1;" d="M 14.855469 12 L 14.855469 13.144531 C 14.855469 13.296875 14.800781 13.429688 14.6875 13.542969 C 14.574219 13.65625 14.441406 13.714844 14.285156 13.714844 L 1.714844 13.714844 C 1.558594 13.714844 1.425781 13.65625 1.3125 13.542969 C 1.199219 13.429688 1.144531 13.296875 1.144531 13.144531 L 1.144531 12 C 1.144531 11.84375 1.199219 11.710938 1.3125 11.597656 C 1.425781 11.484375 1.558594 11.429688 1.714844 11.429688 L 14.285156 11.429688 C 14.441406 11.429688 14.574219 11.484375 14.6875 11.597656 C 14.800781 11.710938 14.855469 11.84375 14.855469 12 Z M 14.855469 7.429688 L 14.855469 8.570312 C 14.855469 8.726562 14.800781 8.859375 14.6875 8.972656 C 14.574219 9.085938 14.441406 9.144531 14.285156 9.144531 L 1.714844 9.144531 C 1.558594 9.144531 1.425781 9.085938 1.3125 8.972656 C 1.199219 8.859375 1.144531 8.726562 1.144531 8.570312 L 1.144531 7.429688 C 1.144531 7.273438 1.199219 7.140625 1.3125 7.027344 C 1.425781 6.914062 1.558594 6.855469 1.714844 6.855469 L 14.285156 6.855469 C 14.441406 6.855469 14.574219 6.914062 14.6875 7.027344 C 14.800781 7.140625 14.855469 7.273438 14.855469 7.429688 Z M 14.855469 2.855469 L 14.855469 4 C 14.855469 4.15625 14.800781 4.289062 14.6875 4.402344 C 14.574219 4.515625 14.441406 4.570312 14.285156 4.570312 L 1.714844 4.570312 C 1.558594 4.570312 1.425781 4.515625 1.3125 4.402344 C 1.199219 4.289062 1.144531 4.15625 1.144531 4 L 1.144531 2.855469 C 1.144531 2.703125 1.199219 2.570312 1.3125 2.457031 C 1.425781 2.34375 1.558594 2.285156 1.714844 2.285156 L 14.285156 2.285156 C 14.441406 2.285156 14.574219 2.34375 14.6875 2.457031 C 14.800781 2.570312 14.855469 2.703125 14.855469 2.855469 Z M 14.855469 2.855469 "/>
</g>
</svg>
