<?xml version="1.0" encoding="utf-8"?>
<!-- Generator: Adobe Illustrator 15.1.0, SVG Export Plug-In  -->
<!DOCTYPE svg PUBLIC "-//W3C//DTD SVG 1.1//EN" "http://www.w3.org/Graphics/SVG/1.1/DTD/svg11.dtd" [
	<!ENTITY ns_flows "http://ns.adobe.com/Flows/1.0/">
]>
<svg version="1.1"
	 xmlns="http://www.w3.org/2000/svg" xmlns:xlink="http://www.w3.org/1999/xlink" xmlns:a="http://ns.adobe.com/AdobeSVGViewerExtensions/3.0/"
	 x="0px" y="0px" width="16px" height="16px" viewBox="-0.7 0 16 16" style="overflow:visible;enable-background:new -0.7 0 16 16;"
	 xml:space="preserve" preserveAspectRatio="xMinYMid meet">
<defs>
</defs>
<path style="fill:#999999;" d="M13.8,5.9c-1.2-1.2-3.1-1.2-4.2,0C9.2,6.2,9,6.6,8.9,7H6.6L5.3,4.9c0.9-1.2,0.9-2.9-0.2-4
	C4-0.3,2-0.3,0.9,0.9c-1.2,1.2-1.2,3.1,0,4.2c0.7,0.7,1.8,1,2.8,0.8L4.8,8l-1.2,2c-1-0.2-2,0-2.8,0.8c-1.2,1.2-1.2,3.1,0,4.2
	c1.2,1.2,3.1,1.2,4.2,0c1.1-1.1,1.2-2.8,0.2-4L6.6,9h2.3C9,9,9.2,9.8,9.6,10.1c1.2,1.2,3.1,1.2,4.2,0C15,8.9,15,7,13.8,5.9z"/>
</svg>
