<?xml version="1.0" encoding="UTF-8"?>
<svg xmlns="http://www.w3.org/2000/svg" xmlns:xlink="http://www.w3.org/1999/xlink" width="12pt" height="12pt" viewBox="0 0 12 12" version="1.1" preserveAspectRatio="xMinYMid meet">
<g id="surface1">
<path style=" stroke:none;fill-rule:nonzero;fill:rgb(60%,60%,60%);fill-opacity:1;" d="M 3.855469 4.929688 L 3.855469 6.214844 C 3.855469 6.394531 3.792969 6.542969 3.667969 6.667969 C 3.542969 6.792969 3.394531 6.855469 3.214844 6.855469 L 1.929688 6.855469 C 1.75 6.855469 1.597656 6.792969 1.472656 6.667969 C 1.347656 6.542969 1.285156 6.394531 1.285156 6.214844 L 1.285156 4.929688 C 1.285156 4.75 1.347656 4.597656 1.472656 4.472656 C 1.597656 4.347656 1.75 4.285156 1.929688 4.285156 L 3.214844 4.285156 C 3.394531 4.285156 3.542969 4.347656 3.667969 4.472656 C 3.792969 4.597656 3.855469 4.75 3.855469 4.929688 Z M 7.285156 4.929688 L 7.285156 6.214844 C 7.285156 6.394531 7.222656 6.542969 7.097656 6.667969 C 6.972656 6.792969 6.820312 6.855469 6.644531 6.855469 L 5.355469 6.855469 C 5.179688 6.855469 5.027344 6.792969 4.902344 6.667969 C 4.777344 6.542969 4.714844 6.394531 4.714844 6.214844 L 4.714844 4.929688 C 4.714844 4.75 4.777344 4.597656 4.902344 4.472656 C 5.027344 4.347656 5.179688 4.285156 5.355469 4.285156 L 6.644531 4.285156 C 6.820312 4.285156 6.972656 4.347656 7.097656 4.472656 C 7.222656 4.597656 7.285156 4.75 7.285156 4.929688 Z M 10.714844 4.929688 L 10.714844 6.214844 C 10.714844 6.394531 10.652344 6.542969 10.527344 6.667969 C 10.402344 6.792969 10.25 6.855469 10.070312 6.855469 L 8.785156 6.855469 C 8.605469 6.855469 8.457031 6.792969 8.332031 6.667969 C 8.207031 6.542969 8.144531 6.394531 8.144531 6.214844 L 8.144531 4.929688 C 8.144531 4.75 8.207031 4.597656 8.332031 4.472656 C 8.457031 4.347656 8.605469 4.285156 8.785156 4.285156 L 10.070312 4.285156 C 10.25 4.285156 10.402344 4.347656 10.527344 4.472656 C 10.652344 4.597656 10.714844 4.75 10.714844 4.929688 Z M 10.714844 4.929688 "/>
</g>
</svg>
