<svg xmlns="http://www.w3.org/2000/svg" viewBox="0 0 16 16" preserveAspectRatio="xMinYMid meet"><title>Artboard</title><path d="M6.72,2.22,3.94,5H.75A.75.75,0,0,0,0,5.75v4.5A.75.75,0,0,0,.75,11H3.94l2.78,2.78A.75.75,0,0,0,8,13.25V2.75a.75.75,0,0,0-1.28-.53ZM14.43,8l1.43-1.43a.5.5,0,0,0,0-.71h0l-.71-.71a.5.5,0,0,0-.71,0h0L13,6.57,11.57,5.15a.5.5,0,0,0-.71,0h0l-.71.71a.5.5,0,0,0,0,.71h0L11.57,8,10.15,9.43a.5.5,0,0,0,0,.71h0l.71.71a.5.5,0,0,0,.71,0h0L13,9.43l1.43,1.43a.5.5,0,0,0,.71,0h0l.71-.71a.5.5,0,0,0,0-.71h0Z" fill="#888"/></svg>