<?xml version="1.0" encoding="utf-8"?>
<!-- Generator: Adobe Illustrator 15.1.0, SVG Export Plug-In  -->
<!DOCTYPE svg PUBLIC "-//W3C//DTD SVG 1.1//EN" "http://www.w3.org/Graphics/SVG/1.1/DTD/svg11.dtd" [
	<!ENTITY ns_flows "http://ns.adobe.com/Flows/1.0/">
]>
<svg version="1.1"
	 xmlns="http://www.w3.org/2000/svg" xmlns:xlink="http://www.w3.org/1999/xlink" xmlns:a="http://ns.adobe.com/AdobeSVGViewerExtensions/3.0/"
	 x="0px" y="0px" width="16px" height="16px" viewBox="0 -0.2 16 16" style="overflow:visible;enable-background:new 0 -0.2 16 16;"
	 xml:space="preserve">
<defs>
</defs>
<path style="fill:#999999;" d="M6.5,9.2l6-2.5c0.6,1.5,0.8,3.1,0,5L6.5,9.2L6.5,9.2z M12.5,11.7C12.5,11.7,12.5,11.7,12.5,11.7
	l-12-5c0,0,0,0,0,0C-0.9,10,0.7,13.8,4,15.2C7.3,16.6,11.1,15,12.5,11.7z M9.8,6l6-2.5C15.1,2,13.9,0.7,12.2,0L9.8,6z M9,3.2
	C5.3,1.7,2,3,0.5,6.7l6,2.5L9,3.2z"/>
</svg>
