<!DOCTYPE svg PUBLIC "-//W3C//DTD SVG 1.1//EN" "http://www.w3.org/Graphics/SVG/1.1/DTD/svg11.dtd" [
	<!ENTITY ns_flows "http://ns.adobe.com/Flows/1.0/">
]><svg xmlns="http://www.w3.org/2000/svg" width="16" height="16" viewBox="0 0 16 16" preserveAspectRatio="xMinYMid meet" overflow="visible"><path d="M2.4 9S1 7.2 1 5.2C1 2.3 2.8 0 5 0s4 2.3 4 5.2C9 7.2 7.6 9 7.6 9c-.3.3-.2.7 0 1-.4.1-.7.3-1 .5-.4.4-.6.9-.6 1.5v3c0 .3.1.7.3 1H0v-4.5l2.2-1.2c.5-.3.6-.8.2-1.3zm12.1 1v1h.5c.5 0 1 .5 1 1v3c0 .5-.5 1-1 1H8c-.5 0-1-.5-1-1v-3c0-.5.4-1 1-1h.6v-1c0-1.6 1.3-3 2.9-3 1.7 0 3 1.3 3 3zm-3 2c-.5 0-1 .4-1 1 0 .4.2.7.6.9l-.1.1-.5 1h2l-.5-1v-.1c.3-.2.6-.5.6-.9-.1-.6-.5-1-1.1-1zm0-3c-.5 0-1 .4-1 1v1h1.9v-1c.1-.6-.3-1-.9-1z" fill="#888"/></svg>