<?xml version="1.0" encoding="utf-8"?>
<!-- Generator: Adobe Illustrator 15.1.0, SVG Export Plug-In  -->
<!DOCTYPE svg PUBLIC "-//W3C//DTD SVG 1.1//EN" "http://www.w3.org/Graphics/SVG/1.1/DTD/svg11.dtd" [
	<!ENTITY ns_flows "http://ns.adobe.com/Flows/1.0/">
]>
<svg version="1.1"
	 xmlns="http://www.w3.org/2000/svg" xmlns:xlink="http://www.w3.org/1999/xlink" xmlns:a="http://ns.adobe.com/AdobeSVGViewerExtensions/3.0/"
	 x="0px" y="0px" width="16px" height="16px" viewBox="0 0 16 16" style="overflow:visible;enable-background:new 0 0 16 16;"
	 xml:space="preserve" preserveAspectRatio="xMinYMid meet">
<defs>
</defs>
<path style="fill:#999999;" d="M15.5,13.4l-2.1-2.1c-0.2-0.2-0.4-0.3-0.7-0.4C13.5,9.8,14,8.5,14,7c0-3.9-3.1-7-7-7C3.1,0,0,3.1,0,7
	s3.1,7,7,7c1.5,0,2.8-0.5,4-1.2c0.1,0.3,0.2,0.5,0.4,0.7l2.1,2.1c0.6,0.6,1.5,0.6,2.1,0S16.1,14,15.5,13.4z M7,11c-2.2,0-4-1.8-4-4
	s1.8-4,4-4c2.2,0,4,1.8,4,4S9.2,11,7,11z"/>
</svg>
