<?xml version="1.0" encoding="UTF-8"?>
<svg xmlns="http://www.w3.org/2000/svg" xmlns:xlink="http://www.w3.org/1999/xlink" width="16px" height="16px" viewBox="0 0 16 16" version="1.1" preserveAspectRatio="xMinYMid meet">
<g id="surface1">
<path style=" stroke:none;fill-rule:nonzero;fill:rgb(60%,60%,60%);fill-opacity:1;" d="M 12.742188 2.6875 L 8 7.429688 L 12.742188 12.167969 C 12.855469 12.28125 12.910156 12.417969 12.910156 12.570312 C 12.910156 12.726562 12.855469 12.859375 12.742188 12.972656 L 11.257812 14.457031 C 11.144531 14.570312 11.011719 14.625 10.855469 14.625 C 10.703125 14.625 10.570312 14.570312 10.457031 14.457031 L 3.832031 7.832031 C 3.71875 7.71875 3.660156 7.582031 3.660156 7.429688 C 3.660156 7.273438 3.71875 7.140625 3.832031 7.027344 L 10.457031 0.402344 C 10.570312 0.289062 10.703125 0.230469 10.855469 0.230469 C 11.011719 0.230469 11.144531 0.289062 11.257812 0.402344 L 12.742188 1.882812 C 12.855469 1.996094 12.910156 2.132812 12.910156 2.285156 C 12.910156 2.441406 12.855469 2.574219 12.742188 2.6875 Z M 12.742188 2.6875 "/>
</g>
</svg>
