<!DOCTYPE svg PUBLIC "-//W3C//DTD SVG 1.1//EN" "http://www.w3.org/Graphics/SVG/1.1/DTD/svg11.dtd" [
	<!ENTITY ns_flows "http://ns.adobe.com/Flows/1.0/">
]><svg xmlns="http://www.w3.org/2000/svg" width="16" height="16" viewBox="0 0 16 16" preserveAspectRatio="xMinYMid meet" overflow="visible"><path d="M14.7 12.3c0-.1 0-.1 0 0 .2-.4.4-.6.5-.9 0-.1 0-.1.1-.2.1-.3.3-.6.4-1v-.1c.1-.3.1-.6.2-.9v-.3c0-.3.1-.7.1-1 0-4.4-3.6-8-8-8C3.6 0 0 3.6 0 8c0 4.4 3.4 8 7.8 8H9c.2 0 .4 0 .5-.1.7-.1 1.3-.4 1.9-.7.7-.3 1.3-.7 1.8-1.2.6-.6 1.1-1.1 1.5-1.7zm-5 1.4c-.1 0-.1-.1-.2-.1-.3-.1-.7-.2-.8-.5v-.4c0-.1.2-.2.2-.3 0-.1-.1-.3-.1-.4 0-.1 0-.3.1-.4.1-.1.3-.8.5-.6 0 0 .3.2.5.3.1 0 .2 0 .4-.1h.4c.1 0 .2.1.3.1.1 0 .3 0 .4-.1.3 0 .3.1.5.3.1 0 .3 0 .4.1.2.1.1.1.2.3l.1.1c-.9.7-1.8 1.4-2.9 1.7zM3.2 5c0-.2-.1-.3-.1-.5.9-1.2 2.3-2.1 3.8-2.4l-.1.1c-.1.3.5 0 .6.2 0 .1-.3.1-.3.1h-.4c0 .1-.1.2-.2.3 0 .1-.2.2-.2.4 0 .3.4.4.6.4.2 0 .3-.1.5 0 .2 0 0 .2.2.2.1-.1.1-.2.2-.3.1-.2.2-.3.1-.4 0-.1-.1 0-.1-.1l.1-.1v-.3h.8c.1.1 0 .2.2.1 0-.1.1-.3.2-.3s.2.1.3.2c.1.1.2.1.3.2 0 .1 0 .2.1.3.2-.1.4-.2.5 0 .2.2 0 .5-.2.6-.3.2-.5.1-.7.2-.2.1-.3.3-.4.5.1-.1.4-.3.6-.3.2 0 .3.2.4.2.1 0 .6-.1.4.1-.1.1-.3.2-.4.3 0 .1-.3-.1-.5 0-.1 0-.1.3-.2.4-.1.2-.4.4-.5.7 0 .1.1.3 0 .4 0 .2-.1.2-.3.3-.1.1-.3.3-.3.6s.3.5.3.8c-.3 0-.3-.2-.5-.5s-.5-.1-.8 0c-.1.1-.2.2-.4.3-.2 0-.1-.1-.1-.2s-.1-.2-.2-.1c-.1 0-.1.2-.1.3 0 .5-.6 1.1 0 1.4.3.1.6.1.8-.1.1-.2.3-.4.6-.4 0 .2-.2.5-.2.7.1.2.5 0 .7.1.3.1 0 .5.3.7.2.1-.4.3-.7-.1-.2-.3-.4-.3-.7-.4-.3-.1-.4 0-.7 0-.3 0-.6-.1-.8-.2-.2-.1-.3-.4-.5-.5l-.3-.3c-.1-.1-.2-.2-.2-.3-.2-.1-.1-.6-.4-.6 0 .3.2.5.3.7.1.1.1.2.2.3 0 .1.1.2.1.3h-.1c-.2-.1-.5-.3-.6-.5-.2-.2-.3-.4-.4-.7-.1-.2-.1-.5-.2-.7-.2-.2-.4-.4-.4-.6 0-.2.1-.5.1-.7.1-.3 0-.5-.1-.8zm5.5-2.8c-.1 0-.3-.1-.4-.1-.1 0-.2-.1-.2-.1h.6c.1.2.3.3 0 .2z" fill="#999"/></svg>