<?xml version="1.0" encoding="utf-8"?>
<!-- Generator: Adobe Illustrator 15.1.0, SVG Export Plug-In  -->
<!DOCTYPE svg PUBLIC "-//W3C//DTD SVG 1.1//EN" "http://www.w3.org/Graphics/SVG/1.1/DTD/svg11.dtd" [
	<!ENTITY ns_flows "http://ns.adobe.com/Flows/1.0/">
]>
<svg version="1.1"
	 xmlns="http://www.w3.org/2000/svg" xmlns:xlink="http://www.w3.org/1999/xlink" xmlns:a="http://ns.adobe.com/AdobeSVGViewerExtensions/3.0/"
	 x="0px" y="0px" width="16px" height="16px" viewBox="0 0 16 16" style="overflow:visible;enable-background:new 0 0 16 16;"
	 xml:space="preserve" preserveAspectRatio="xMinYMid meet">
<defs>
</defs>
<path style="fill:#999999;" d="M14.7,12.3C14.7,12.2,14.7,12.2,14.7,12.3c0.2-0.4,0.4-0.6,0.5-0.9c0-0.1,0-0.1,0.1-0.2
	c0.1-0.3,0.3-0.6,0.4-1c0,0,0-0.1,0-0.1c0.1-0.3,0.1-0.6,0.2-0.9c0-0.1,0-0.2,0-0.3c0-0.3,0.1-0.7,0.1-1c0-4.4-3.6-8-8-8
	C3.6,0,0,3.6,0,8c0,4.4,3.4,8,7.8,8c0,0,0.1,0,0.1,0c0,0,0,0,0.1,0c0,0,0.1,0,0.1,0c0.1,0,0.3,0,0.4,0c0.2,0,0.3,0,0.5,0
	c0.2,0,0.4,0,0.5-0.1c0.7-0.1,1.3-0.4,1.9-0.7l0,0c0,0,0,0,0,0c0.7-0.3,1.3-0.7,1.8-1.2c0,0,0,0,0,0C13.8,13.4,14.3,12.9,14.7,12.3z
	 M9.7,13.7c-0.1,0-0.1-0.1-0.2-0.1c-0.3-0.1-0.7-0.2-0.8-0.5c0-0.1,0-0.3,0-0.4c0-0.1,0.2-0.2,0.2-0.3c0-0.1-0.1-0.3-0.1-0.4
	c0-0.1,0-0.3,0.1-0.4c0.1-0.1,0.3-0.8,0.5-0.6c0,0,0.3,0.2,0.5,0.3c0.1,0,0.2,0,0.4-0.1c0.1,0,0.3,0,0.4,0c0.1,0,0.2,0.1,0.3,0.1
	c0.1,0,0.3,0,0.4-0.1c0.3,0,0.3,0.1,0.5,0.3c0.1,0,0.3,0,0.4,0.1c0.2,0.1,0.1,0.1,0.2,0.3c0,0,0,0,0.1,0.1
	C11.7,12.7,10.8,13.4,9.7,13.7z M3.2,5c0-0.2-0.1-0.3-0.1-0.5C4,3.3,5.4,2.4,6.9,2.1c0,0,0,0-0.1,0.1c-0.1,0.3,0.5,0,0.6,0.2
	c0,0.1-0.3,0.1-0.3,0.1c-0.1,0-0.2,0-0.4,0C6.7,2.6,6.6,2.7,6.5,2.8C6.5,2.9,6.3,3,6.3,3.2c0,0.3,0.4,0.4,0.6,0.4
	c0.2,0,0.3-0.1,0.5,0c0.2,0,0,0.2,0.2,0.2c0.1-0.1,0.1-0.2,0.2-0.3C7.9,3.3,8,3.2,7.9,3.1c0-0.1-0.1,0-0.1-0.1c0,0,0.1-0.1,0.1-0.1
	c0-0.1,0-0.2,0-0.3c0.2,0,0.4,0,0.6,0c0.1,0,0.1,0,0.2,0c0.1,0.1,0,0.2,0.2,0.1c0-0.1,0.1-0.3,0.2-0.3c0.1,0,0.2,0.1,0.3,0.2
	c0.1,0.1,0.2,0.1,0.3,0.2c0,0.1,0,0.2,0.1,0.3c0.2-0.1,0.4-0.2,0.5,0c0.2,0.2,0,0.5-0.2,0.6C9.8,3.9,9.6,3.8,9.4,3.9
	C9.2,4,9.1,4.2,9,4.4c0.1-0.1,0.4-0.3,0.6-0.3c0.2,0,0.3,0.2,0.4,0.2c0.1,0,0.6-0.1,0.4,0.1c-0.1,0.1-0.3,0.2-0.4,0.3
	c0,0.1-0.3-0.1-0.5,0C9.4,4.7,9.4,5,9.3,5.1C9.2,5.3,8.9,5.5,8.8,5.8c0,0.1,0.1,0.3,0,0.4c0,0.2-0.1,0.2-0.3,0.3
	C8.4,6.6,8.2,6.8,8.2,7.1c0,0.3,0.3,0.5,0.3,0.8C8.2,7.9,8.2,7.7,8,7.4c-0.2-0.3-0.5-0.1-0.8,0C7.1,7.5,7,7.6,6.8,7.7
	c-0.2,0-0.1-0.1-0.1-0.2c0-0.1-0.1-0.2-0.2-0.1C6.4,7.4,6.4,7.6,6.4,7.7c0,0.5-0.6,1.1,0,1.4C6.7,9.2,7,9.2,7.2,9
	c0.1-0.2,0.3-0.4,0.6-0.4c0,0.2-0.2,0.5-0.2,0.7c0.1,0.2,0.5,0,0.7,0.1c0.3,0.1,0,0.5,0.3,0.7c0.2,0.1-0.4,0.3-0.7-0.1
	C7.7,9.7,7.5,9.7,7.2,9.6c-0.3-0.1-0.4,0-0.7,0c-0.3,0-0.6-0.1-0.8-0.2C5.5,9.3,5.4,9,5.2,8.9C5.1,8.8,5,8.7,4.9,8.6
	C4.8,8.5,4.7,8.4,4.7,8.3C4.5,8.2,4.6,7.7,4.3,7.7c0,0.3,0.2,0.5,0.3,0.7c0.1,0.1,0.1,0.2,0.2,0.3C4.8,8.8,4.9,8.9,4.9,9
	c0,0-0.1,0-0.1,0C4.6,8.9,4.3,8.7,4.2,8.5C4,8.3,3.9,8.1,3.8,7.8C3.7,7.6,3.7,7.3,3.6,7.1C3.4,6.9,3.2,6.7,3.2,6.5
	c0-0.2,0.1-0.5,0.1-0.7C3.4,5.5,3.3,5.3,3.2,5z M8.7,2.2c-0.1,0-0.3-0.1-0.4-0.1C8.2,2.1,8.1,2,8.1,2c0.2,0,0.4,0,0.6,0
	C8.8,2.2,9,2.3,8.7,2.2z"/>
</svg>
