<?xml version="1.0" encoding="utf-8"?>
<!-- Generator: Adobe Illustrator 15.1.0, SVG Export Plug-In  -->
<!DOCTYPE svg PUBLIC "-//W3C//DTD SVG 1.1//EN" "http://www.w3.org/Graphics/SVG/1.1/DTD/svg11.dtd" [
	<!ENTITY ns_flows "http://ns.adobe.com/Flows/1.0/">
]>
<svg version="1.1"
	 xmlns="http://www.w3.org/2000/svg" xmlns:xlink="http://www.w3.org/1999/xlink" xmlns:a="http://ns.adobe.com/AdobeSVGViewerExtensions/3.0/"
	 x="0px" y="0px" width="16px" height="16px" viewBox="-0.1 -0.1 16 16"
	 style="overflow:visible;enable-background:new -0.1 -0.1 16 16;" xml:space="preserve" preserveAspectRatio="xMinYMid meet">
<defs>
</defs>
<path style="fill:#999999;" d="M15.6,14.1l-2.5-4.9c-0.5-1-1.3-2.6-1.8-3.6L8.8,0.7c-0.5-1-1.3-1-1.8,0L4.5,5.6
	C4,6.6,3.2,8.2,2.7,9.2l-2.5,4.9c-0.5,1,0,1.8,1.1,1.8h4.6c1.1,0,2.9,0,4,0h4.6C15.6,15.9,16.1,15.1,15.6,14.1z M7.9,12.9H4.1L6,9.4
	l1.9-3.5l1.9,3.5l1.9,3.5H7.9z"/>
</svg>
