<!DOCTYPE svg PUBLIC "-//W3C//DTD SVG 1.1//EN" "http://www.w3.org/Graphics/SVG/1.1/DTD/svg11.dtd" [
	<!ENTITY ns_flows "http://ns.adobe.com/Flows/1.0/">
]><svg xmlns="http://www.w3.org/2000/svg" width="16" height="16" viewBox="-0.1 -0.1 16 16" preserveAspectRatio="xMinYMid meet" overflow="visible"><path d="M7 .7L.2 14.1c-.5 1 0 1.8 1.1 1.8h13.2c1.1 0 1.6-.8 1.1-1.8L8.8.7C8.3-.2 7.5-.2 7 .7zM10.6 9c0 1.2-.7 2.1-1.8 2.5l.2.4 1.1 2.4H5.7l1.1-2.4.2-.4c-1-.4-1.8-1.4-1.8-2.5 0-1.5 1.2-2.7 2.7-2.7 1.5 0 2.7 1.2 2.7 2.7z" fill="#76A1F0"/></svg>