<!DOCTYPE svg PUBLIC "-//W3C//DTD SVG 1.1//EN" "http://www.w3.org/Graphics/SVG/1.1/DTD/svg11.dtd" [
	<!ENTITY ns_flows "http://ns.adobe.com/Flows/1.0/">
]><svg xmlns="http://www.w3.org/2000/svg" width="16" height="16" viewBox="-0.1 -0.1 16 16" preserveAspectRatio="xMinYMid meet" overflow="visible"><path d="M15.6 14.1L8.8.7c-.5-1-1.3-1-1.8 0L.2 14.1c-.5 1 0 1.8 1.1 1.8h13.2c1.1 0 1.6-.8 1.1-1.8zM8.3 6.5c.6-.6 1.5-.6 2.1 0s.6 1.5 0 2.1l-1 1-2.1-2.1 1-1zM5 13.9H2.9v-2.1l3.6-3.6 2.1 2.1L5 13.9zm6.9 0h-5v-1h5v1z" fill="#FFB844"/></svg>