<?xml version="1.0" encoding="utf-8"?>
<!-- Generator: Adobe Illustrator 15.1.0, SVG Export Plug-In  -->
<!DOCTYPE svg PUBLIC "-//W3C//DTD SVG 1.1//EN" "http://www.w3.org/Graphics/SVG/1.1/DTD/svg11.dtd" [
	<!ENTITY ns_flows "http://ns.adobe.com/Flows/1.0/">
]>
<svg version="1.1"
	 xmlns="http://www.w3.org/2000/svg" xmlns:xlink="http://www.w3.org/1999/xlink" xmlns:a="http://ns.adobe.com/AdobeSVGViewerExtensions/3.0/"
	 x="0px" y="0px" width="16px" height="16px" viewBox="0 0 16 16" style="overflow:visible;enable-background:new 0 0 16 16;"
	 xml:space="preserve" preserveAspectRatio="xMinYMid meet">
<defs>
</defs>
<path style="fill:#999999;" d="M0,0.1C0.3,0,0.7,0,1,0c8.2,0,15,6.7,15,15c0,0.3,0,0.7-0.1,1h-3c0-0.3,0.1-0.7,0.1-1
	C13,8.4,7.6,3,1,3C0.7,3,0.3,3,0,3.1V0.1z M2.5,11c-1.3,0-2.4,1-2.5,2.3v0.5c0.1,1.2,1,2.1,2.2,2.2h0.5C4,15.8,5,14.8,5,13.5
	C5,12.1,3.9,11,2.5,11z M0,5v3c4.4,0,8,3.6,8,8h3C11,9.9,6.1,5,0,5z"/>
</svg>
