<!DOCTYPE svg PUBLIC "-//W3C//DTD SVG 1.1//EN" "http://www.w3.org/Graphics/SVG/1.1/DTD/svg11.dtd" [
	<!ENTITY ns_flows "http://ns.adobe.com/Flows/1.0/">
]><svg xmlns="http://www.w3.org/2000/svg" width="16" height="16" viewBox="0 0 16 16" preserveAspectRatio="xMinYMid meet" overflow="visible"><path d="M0 .1C.3 0 .7 0 1 0c8.2 0 15 6.7 15 15 0 .3 0 .7-.1 1h-3c0-.3.1-.7.1-1C13 8.4 7.6 3 1 3c-.3 0-.7 0-1 .1v-3zM2.5 11C1.2 11 .1 12 0 13.3v.5C.1 15 1 15.9 2.2 16h.5C4 15.8 5 14.8 5 13.5 5 12.1 3.9 11 2.5 11zM0 5v3c4.4 0 8 3.6 8 8h3C11 9.9 6.1 5 0 5z" fill="#888"/></svg>