<?xml version="1.0" encoding="UTF-8"?>
<svg xmlns="http://www.w3.org/2000/svg" xmlns:xlink="http://www.w3.org/1999/xlink" width="12pt" height="12pt" viewBox="0 0 12 12" version="1.1" preserveAspectRatio="xMinYMid meet">
<g id="surface1">
<path style=" stroke:none;fill-rule:nonzero;fill:rgb(60%,60%,60%);fill-opacity:1;" d="M 11.8125 0.0742188 C 11.960938 0.179688 12.019531 0.324219 11.992188 0.503906 L 10.277344 10.789062 C 10.257812 10.917969 10.183594 11.019531 10.066406 11.089844 C 10.003906 11.125 9.933594 11.144531 9.855469 11.144531 C 9.808594 11.144531 9.753906 11.132812 9.695312 11.109375 L 6.664062 9.871094 L 5.042969 11.847656 C 4.960938 11.949219 4.851562 12 4.714844 12 C 4.65625 12 4.605469 11.992188 4.566406 11.972656 C 4.480469 11.941406 4.414062 11.890625 4.363281 11.816406 C 4.3125 11.742188 4.285156 11.660156 4.285156 11.570312 L 4.285156 9.234375 L 10.070312 2.144531 L 2.914062 8.335938 L 0.269531 7.253906 C 0.101562 7.191406 0.0117188 7.066406 0 6.882812 C -0.0078125 6.707031 0.0625 6.574219 0.214844 6.488281 L 11.355469 0.0585938 C 11.425781 0.0195312 11.496094 0 11.570312 0 C 11.660156 0 11.742188 0.0234375 11.8125 0.0742188 Z M 11.8125 0.0742188 "/>
</g>
</svg>
