<?xml version="1.0" encoding="utf-8"?>
<!-- Generator: Adobe Illustrator 15.1.0, SVG Export Plug-In  -->
<!DOCTYPE svg PUBLIC "-//W3C//DTD SVG 1.1//EN" "http://www.w3.org/Graphics/SVG/1.1/DTD/svg11.dtd" [
	<!ENTITY ns_flows "http://ns.adobe.com/Flows/1.0/">
]>
<svg version="1.1"
	 xmlns="http://www.w3.org/2000/svg" xmlns:xlink="http://www.w3.org/1999/xlink" xmlns:a="http://ns.adobe.com/AdobeSVGViewerExtensions/3.0/"
	 x="0px" y="0px" width="16px" height="16px" viewBox="0 0 16 16" style="overflow:visible;enable-background:new 0 0 16 16;"
	 xml:space="preserve" preserveAspectRatio="xMinYMid meet">
<defs>
</defs>
<path style="fill:#999999;" d="M15.2,6.3c0.4,0.6,0.6,1.2,0.6,1.6c0,1.8-3.5,5.3-7.7,5.5l2.7-2.7c1.8-0.9,3-2.3,3-2.8
	c0,0,0-0.1-0.1-0.2L15.2,6.3z M16,0v3.8L3.8,16H0l3.7-3.7C1.5,11.1,0,9.2,0,8c0-1.8,3.6-5.5,7.9-5.5c1.6,0,3.1,0.5,4.3,1.2L16,0z
	 M5.2,10.8l0.5-0.5c-0.6-0.6-1-1.4-1-2.3c0-1.8,1.4-3.2,3.2-3.2c0.9,0,1.7,0.4,2.3,1l0.5-0.5C9.9,4.8,9,4.5,7.9,4.5
	C4.6,4.5,2.1,7.3,2,8C2.1,8.5,3.3,9.9,5.2,10.8z M6.7,7.8c0.6,0,1.1-0.5,1.1-1.1c0-0.6-0.5-1.1-1.1-1.1c-0.6,0-1.1,0.5-1.1,1.1
	C5.6,7.4,6.1,7.8,6.7,7.8z"/>
</svg>
