<?xml version="1.0" encoding="UTF-8"?>
<svg xmlns="http://www.w3.org/2000/svg" xmlns:xlink="http://www.w3.org/1999/xlink" width="16px" height="16px" viewBox="0 0 16 16" version="1.1">
<g id="surface1">
<path style=" stroke:none;fill-rule:nonzero;fill:rgb(60%,60%,60%);fill-opacity:1;" d="M 10.722656 8.964844 L 13.457031 6.3125 L 9.6875 5.757812 L 8 2.347656 L 6.3125 5.757812 L 2.542969 6.3125 L 5.277344 8.964844 L 4.625 12.722656 L 8 10.945312 L 11.367188 12.722656 Z M 15.429688 5.777344 C 15.429688 5.90625 15.351562 6.050781 15.195312 6.207031 L 11.957031 9.367188 L 12.722656 13.832031 C 12.730469 13.871094 12.730469 13.929688 12.730469 14.007812 C 12.730469 14.304688 12.609375 14.457031 12.367188 14.457031 C 12.253906 14.457031 12.132812 14.417969 12.007812 14.347656 L 8 12.242188 L 3.992188 14.347656 C 3.859375 14.417969 3.742188 14.457031 3.632812 14.457031 C 3.507812 14.457031 3.414062 14.414062 3.351562 14.324219 C 3.289062 14.238281 3.257812 14.132812 3.257812 14.007812 C 3.257812 13.972656 3.265625 13.914062 3.277344 13.832031 L 4.042969 9.367188 L 0.792969 6.207031 C 0.644531 6.042969 0.570312 5.902344 0.570312 5.777344 C 0.570312 5.554688 0.738281 5.417969 1.070312 5.367188 L 5.554688 4.714844 L 7.5625 0.652344 C 7.675781 0.40625 7.820312 0.285156 8 0.285156 C 8.179688 0.285156 8.324219 0.40625 8.4375 0.652344 L 10.445312 4.714844 L 14.929688 5.367188 C 15.261719 5.417969 15.429688 5.554688 15.429688 5.777344 Z M 15.429688 5.777344 "/>
</g>
</svg>
