<?xml version="1.0" encoding="UTF-8"?>
<svg xmlns="http://www.w3.org/2000/svg" xmlns:xlink="http://www.w3.org/1999/xlink" width="12pt" height="12pt" viewBox="0 0 12 12" version="1.1" preserveAspectRatio="xMinYMid meet">
<g id="surface1">
<path style=" stroke:none;fill-rule:nonzero;fill:rgb(60%,60%,60%);fill-opacity:1;" d="M 4.714844 9.214844 L 4.714844 4.5 C 4.714844 4.4375 4.695312 4.386719 4.652344 4.347656 C 4.613281 4.304688 4.5625 4.285156 4.5 4.285156 L 4.070312 4.285156 C 4.007812 4.285156 3.957031 4.304688 3.917969 4.347656 C 3.878906 4.386719 3.855469 4.4375 3.855469 4.5 L 3.855469 9.214844 C 3.855469 9.277344 3.878906 9.328125 3.917969 9.367188 C 3.957031 9.410156 4.007812 9.429688 4.070312 9.429688 L 4.5 9.429688 C 4.5625 9.429688 4.613281 9.410156 4.652344 9.367188 C 4.695312 9.328125 4.714844 9.277344 4.714844 9.214844 Z M 6.429688 9.214844 L 6.429688 4.5 C 6.429688 4.4375 6.410156 4.386719 6.367188 4.347656 C 6.328125 4.304688 6.277344 4.285156 6.214844 4.285156 L 5.785156 4.285156 C 5.722656 4.285156 5.671875 4.304688 5.632812 4.347656 C 5.589844 4.386719 5.570312 4.4375 5.570312 4.5 L 5.570312 9.214844 C 5.570312 9.277344 5.589844 9.328125 5.632812 9.367188 C 5.671875 9.410156 5.722656 9.429688 5.785156 9.429688 L 6.214844 9.429688 C 6.277344 9.429688 6.328125 9.410156 6.367188 9.367188 C 6.410156 9.328125 6.429688 9.277344 6.429688 9.214844 Z M 8.144531 9.214844 L 8.144531 4.5 C 8.144531 4.4375 8.121094 4.386719 8.082031 4.347656 C 8.042969 4.304688 7.992188 4.285156 7.929688 4.285156 L 7.5 4.285156 C 7.4375 4.285156 7.386719 4.304688 7.347656 4.347656 C 7.304688 4.386719 7.285156 4.4375 7.285156 4.5 L 7.285156 9.214844 C 7.285156 9.277344 7.304688 9.328125 7.347656 9.367188 C 7.386719 9.410156 7.4375 9.429688 7.5 9.429688 L 7.929688 9.429688 C 7.992188 9.429688 8.042969 9.410156 8.082031 9.367188 C 8.121094 9.328125 8.144531 9.277344 8.144531 9.214844 Z M 4.5 2.570312 L 7.5 2.570312 L 7.179688 1.789062 C 7.148438 1.746094 7.109375 1.722656 7.066406 1.714844 L 4.941406 1.714844 C 4.898438 1.722656 4.859375 1.746094 4.828125 1.789062 Z M 10.714844 2.785156 L 10.714844 3.214844 C 10.714844 3.277344 10.695312 3.328125 10.652344 3.367188 C 10.613281 3.410156 10.5625 3.429688 10.5 3.429688 L 9.855469 3.429688 L 9.855469 9.777344 C 9.855469 10.148438 9.753906 10.46875 9.542969 10.738281 C 9.332031 11.007812 9.082031 11.144531 8.785156 11.144531 L 3.214844 11.144531 C 2.917969 11.144531 2.667969 11.011719 2.457031 10.75 C 2.246094 10.488281 2.144531 10.175781 2.144531 9.804688 L 2.144531 3.429688 L 1.5 3.429688 C 1.4375 3.429688 1.386719 3.410156 1.347656 3.367188 C 1.304688 3.328125 1.285156 3.277344 1.285156 3.214844 L 1.285156 2.785156 C 1.285156 2.722656 1.304688 2.671875 1.347656 2.632812 C 1.386719 2.589844 1.4375 2.570312 1.5 2.570312 L 3.570312 2.570312 L 4.039062 1.453125 C 4.105469 1.289062 4.226562 1.148438 4.398438 1.03125 C 4.574219 0.914062 4.75 0.855469 4.929688 0.855469 L 7.070312 0.855469 C 7.25 0.855469 7.425781 0.914062 7.601562 1.03125 C 7.773438 1.148438 7.894531 1.289062 7.960938 1.453125 L 8.429688 2.570312 L 10.5 2.570312 C 10.5625 2.570312 10.613281 2.589844 10.652344 2.632812 C 10.695312 2.671875 10.714844 2.722656 10.714844 2.785156 Z M 10.714844 2.785156 "/>
</g>
</svg>
