<!DOCTYPE svg PUBLIC "-//W3C//DTD SVG 1.1//EN" "http://www.w3.org/Graphics/SVG/1.1/DTD/svg11.dtd" [
	<!ENTITY ns_flows "http://ns.adobe.com/Flows/1.0/">
]><svg xmlns="http://www.w3.org/2000/svg" width="16" height="16" viewBox="0 -0.4 16 16" preserveAspectRatio="xMinYMid meet" overflow="visible"><path d="M16 8.6v6c0 .5-.5 1-1 1H1c-.5 0-1-.5-1-1v-6c0-.5.5-1 1-1h1c.5 0 1 .5 1 1v4h10v-4c0-.5.5-1 1-1h1c.5 0 1 .4 1 1zM12.4 4L8.7.3C8.6.1 8.3 0 8 0c-.2 0-.5.1-.7.3L3.6 4c-.4.4-.4 1 0 1.4l.7.7c.4.4 1 .4 1.4 0l.8-.8v4.2c0 .5.5 1.1 1 1.1h1c.6 0 1-.5 1-1.1V5.3l.8.8c.4.4 1 .4 1.4 0l.7-.7c.4-.4.4-1 0-1.4z" fill="#999"/></svg>