<?xml version="1.0" encoding="utf-8"?>
<!-- Generator: Adobe Illustrator 15.1.0, SVG Export Plug-In  -->
<!DOCTYPE svg PUBLIC "-//W3C//DTD SVG 1.1//EN" "http://www.w3.org/Graphics/SVG/1.1/DTD/svg11.dtd" [
	<!ENTITY ns_flows "http://ns.adobe.com/Flows/1.0/">
]>
<svg version="1.1"
	 xmlns="http://www.w3.org/2000/svg" xmlns:xlink="http://www.w3.org/1999/xlink" xmlns:a="http://ns.adobe.com/AdobeSVGViewerExtensions/3.0/"
	 x="0px" y="0px" width="16px" height="16px" viewBox="0 0 16 16" style="overflow:visible;enable-background:new 0 0 16 16;"
	 xml:space="preserve">
<defs>
</defs>
<path style="fill:#999999;" d="M16,11.9V16h-4.6l-0.9-3.6l0.6-0.6L10.3,11H9.7l-0.8,0.9l0.6,0.6L8.6,16H4v-4l3.2-1.7
	C7.7,10,7.8,9.5,7.5,9C7.5,9,6,7.2,6,5.2C6,2.3,7.8,0,10,0s4,2.3,4,5.2c0,2-1.4,3.8-1.4,3.8c-0.3,0.4-0.2,1,0.3,1.2L16,11.9z
	 M6.1,8.7C5.6,7.9,5,6.9,5,5.2c0-2.1,0.8-3.9,2-5C6.7,0.1,6.4,0,6,0C3.8,0,2,2.3,2,5.2C2,7.2,3.4,9,3.4,9c0.3,0.4,0.2,1-0.3,1.3
	L0,12v4h3v-4.6c0,0,2.6-1.3,2.8-1.4C6.2,9.7,6.6,9.6,6.1,8.7z"/>
</svg>
