<!DOCTYPE svg PUBLIC "-//W3C//DTD SVG 1.1//EN" "http://www.w3.org/Graphics/SVG/1.1/DTD/svg11.dtd" [
	<!ENTITY ns_flows "http://ns.adobe.com/Flows/1.0/">
]><svg xmlns="http://www.w3.org/2000/svg" width="16" height="16" viewBox="0 0 16 16" preserveAspectRatio="xMinYMid meet" overflow="visible"><path d="M7 .7L.2 14.1c-.5 1 0 1.8 1.1 1.8h13.2c1.1 0 1.6-.8 1.1-1.8L8.8.7C8.3-.2 7.5-.2 7 .7zm2.4 12.7c0 .8-.7 1.5-1.5 1.5s-1.5-.7-1.5-1.5.7-1.5 1.5-1.5 1.5.6 1.5 1.5zm-.2-7.5v4c0 .5-.5 1-1 1h-.6c-.5 0-1-.5-1-1v-4c0-.6.5-1 1-1h.6c.6 0 1 .4 1 1z" fill="#999"/></svg>