<?xml version="1.0" encoding="UTF-8"?>
<svg xmlns="http://www.w3.org/2000/svg" xmlns:xlink="http://www.w3.org/1999/xlink" width="12pt" height="12pt" viewBox="0 0 12 12" version="1.1" preserveAspectRatio="xMinYMid meet">
<g id="surface1">
<path style=" stroke:none;fill-rule:nonzero;fill:rgb(60%,60%,60%);fill-opacity:1;" d="M 7.867188 8.847656 L 8.847656 7.867188 C 8.890625 7.824219 8.914062 7.773438 8.914062 7.714844 C 8.914062 7.65625 8.890625 7.605469 8.847656 7.558594 L 7.285156 6 L 8.847656 4.441406 C 8.890625 4.394531 8.914062 4.34375 8.914062 4.285156 C 8.914062 4.226562 8.890625 4.175781 8.847656 4.132812 L 7.867188 3.152344 C 7.824219 3.109375 7.773438 3.085938 7.714844 3.085938 C 7.65625 3.085938 7.605469 3.109375 7.558594 3.152344 L 6 4.714844 L 4.441406 3.152344 C 4.394531 3.109375 4.34375 3.085938 4.285156 3.085938 C 4.226562 3.085938 4.175781 3.109375 4.132812 3.152344 L 3.152344 4.132812 C 3.109375 4.175781 3.085938 4.226562 3.085938 4.285156 C 3.085938 4.34375 3.109375 4.394531 3.152344 4.441406 L 4.714844 6 L 3.152344 7.558594 C 3.109375 7.605469 3.085938 7.65625 3.085938 7.714844 C 3.085938 7.773438 3.109375 7.824219 3.152344 7.867188 L 4.132812 8.847656 C 4.175781 8.890625 4.226562 8.914062 4.285156 8.914062 C 4.34375 8.914062 4.394531 8.890625 4.441406 8.847656 L 6 7.285156 L 7.558594 8.847656 C 7.605469 8.890625 7.65625 8.914062 7.714844 8.914062 C 7.773438 8.914062 7.824219 8.890625 7.867188 8.847656 Z M 12 1.929688 L 12 10.070312 C 12 10.367188 11.894531 10.617188 11.683594 10.828125 C 11.476562 11.039062 11.222656 11.144531 10.929688 11.144531 L 1.070312 11.144531 C 0.777344 11.144531 0.523438 11.039062 0.316406 10.828125 C 0.105469 10.617188 0 10.367188 0 10.070312 L 0 1.929688 C 0 1.632812 0.105469 1.382812 0.316406 1.171875 C 0.523438 0.960938 0.777344 0.855469 1.070312 0.855469 L 10.929688 0.855469 C 11.222656 0.855469 11.476562 0.960938 11.683594 1.171875 C 11.894531 1.382812 12 1.632812 12 1.929688 Z M 12 1.929688 "/>
</g>
</svg>
