<svg id="Icon" xmlns="http://www.w3.org/2000/svg" viewBox="0 0 40 40"><title>LetterGet_Coral</title><path d="M34,36H5.87a2,2,0,0,1-2-2L4,17a2,2,0,0,1,.8-1.59L18.8,4.9a2,2,0,0,1,2.4,0l14,10.5A2,2,0,0,1,36,17V34A2,2,0,0,1,34,36Z" fill="#f26d83" stroke="#bf5668" stroke-linecap="round" stroke-linejoin="round"/><rect x="8" y="8" width="24" height="20" rx="2" ry="2" fill="#f9f8ff" stroke="#bf5668" stroke-linecap="round" stroke-linejoin="round"/><g opacity="0.1"><path d="M36.5,17v1a0.5,0.5,0,0,1-.23.42L21.33,27.76a2.47,2.47,0,0,1-1.33.38,2.51,2.51,0,0,1-1.32-.37l-15-9.35A0.5,0.5,0,0,1,3.5,18V16.76A2.48,2.48,0,0,1,4.5,15l0.66-.5a0.5,0.5,0,0,1,.56,0L17,21.55l1.47-1.06a2.49,2.49,0,0,1,3,0L23,21.56l11.33-7.07a0.5,0.5,0,0,1,.56,0L35.5,15A2.52,2.52,0,0,1,36.5,17Z" fill="#231f20"/></g><path d="M36,18L21.06,27.34a2,2,0,0,1-2.12,0L4,18V34a2,2,0,0,0,2,2H34a2,2,0,0,0,2-2V18Z" fill="#f26d83" stroke="#bf5668" stroke-linecap="round" stroke-linejoin="round"/><path d="M4.86,35L18.8,24.89a2,2,0,0,1,2.39,0L35,35" fill="#f26d83" stroke="#bf5668" stroke-linecap="round" stroke-linejoin="round"/><line x1="11.82" y1="4.14" x2="10.15" y2="0.97" fill="none" stroke="#fff" stroke-linecap="round" stroke-linejoin="round" stroke-width="1.5"/><line x1="5.31" y1="11.04" x2="2.05" y2="8.59" fill="none" stroke="#fff" stroke-linecap="round" stroke-linejoin="round" stroke-width="1.5"/><line x1="28.17" y1="4.14" x2="29.84" y2="0.97" fill="none" stroke="#fff" stroke-linecap="round" stroke-linejoin="round" stroke-width="1.5"/><line x1="34.69" y1="11.04" x2="37.94" y2="8.59" fill="none" stroke="#fff" stroke-linecap="round" stroke-linejoin="round" stroke-width="1.5"/></svg>