<svg id="Icon" xmlns="http://www.w3.org/2000/svg" viewBox="0 0 40 40"><title>set-led-purple</title><path d="M28.75,17.79A8.75,8.75,0,0,1,27,24c-1.26,1.63-2.05,2.6-2.05,4.66V28.57a2.36,2.36,0,0,1-1.31,2.2l0,0a8.11,8.11,0,0,1-7.06,0h0a2.31,2.31,0,0,1-1.3-2.08h0c0-2.06-.8-3-2.07-4.65A8.76,8.76,0,1,1,28.75,17.79Z" fill="#c453ea" stroke="#774dcb" stroke-linecap="round" stroke-linejoin="round"/><circle cx="20.03" cy="34.16" r="2.96" fill="#e6e7e8" stroke="#774dcb" stroke-linecap="round" stroke-linejoin="round"/><path d="M25.21,31.91a2.17,2.17,0,0,1-1.34,2l-0.09,0a9.77,9.77,0,0,1-7.54,0h0A2.13,2.13,0,0,1,14.85,32V30.14a0.85,0.85,0,0,1,1-.85L17,29.47a21.15,21.15,0,0,0,6.06,0l1.18-.17a0.85,0.85,0,0,1,1,.85v1.77Z" fill="#e6e7e8" stroke="#774dcb" stroke-linecap="round" stroke-linejoin="round"/><line x1="7.84" y1="18.2" x2="4.84" y2="18.2" fill="none" stroke="#fff" stroke-linecap="round" stroke-linejoin="round" stroke-width="1.5"/><line x1="35.22" y1="18.2" x2="32.22" y2="18.2" fill="none" stroke="#fff" stroke-linecap="round" stroke-linejoin="round" stroke-width="1.5"/><path d="M14.85,31.21a6.89,6.89,0,0,0,1.62.61" fill="#e6e7e8" stroke="#774dcb" stroke-linecap="round" stroke-linejoin="round"/><path d="M25.21,31.21a6.89,6.89,0,0,1-1.62.61" fill="#e6e7e8" stroke="#774dcb" stroke-linecap="round" stroke-linejoin="round"/><line x1="11.41" y1="26.82" x2="9.29" y2="28.94" fill="none" stroke="#fff" stroke-linecap="round" stroke-linejoin="round" stroke-width="1.5"/><line x1="30.77" y1="7.47" x2="28.65" y2="9.59" fill="none" stroke="#fff" stroke-linecap="round" stroke-linejoin="round" stroke-width="1.5"/><line x1="28.65" y1="26.82" x2="30.77" y2="28.94" fill="none" stroke="#fff" stroke-linecap="round" stroke-linejoin="round" stroke-width="1.5"/><line x1="9.29" y1="7.47" x2="11.41" y2="9.59" fill="none" stroke="#fff" stroke-linecap="round" stroke-linejoin="round" stroke-width="1.5"/><line x1="20.03" y1="3.02" x2="20.03" y2="6.02" fill="none" stroke="#fff" stroke-linecap="round" stroke-linejoin="round" stroke-width="1.5"/></svg>