<svg id="Icon" xmlns="http://www.w3.org/2000/svg" viewBox="0 0 40 40"><title>start-when-tilted-left</title><rect x="11.06" y="15.3" width="20.28" height="11.83" rx="1" ry="1" transform="translate(51.2 21.23) rotate(135)" fill="#fff" stroke="#7c87a5" stroke-linecap="round" stroke-linejoin="round"/><path d="M15.85,10.63h7a0,0,0,0,1,0,0V13a1,1,0,0,1-1,1h-5a1,1,0,0,1-1-1V10.63a0,0,0,0,1,0,0Z" transform="translate(41.72 7.37) rotate(135)" fill="#fff"/><path d="M13.43,26.59L15,25a0.84,0.84,0,0,1,.6-0.25h4.08a0.84,0.84,0,0,0,.6-0.25l4.28-4.28a0.84,0.84,0,0,0,.25-0.6V15.59A0.84,0.84,0,0,1,25,15l1.54-1.54a0.84,0.84,0,0,1,1.19,0L32,17.63a0.84,0.84,0,0,1,0,1.19L18.81,32a0.84,0.84,0,0,1-1.19,0l-4.18-4.18A0.84,0.84,0,0,1,13.43,26.59Z" fill="#e6e7e8" stroke="#7c87a5" stroke-linecap="round" stroke-linejoin="round"/><path d="M22.21,17.17a5.07,5.07,0,0,0-5.12,5" fill="none" stroke="#7c87a5" stroke-linecap="round" stroke-linejoin="round" stroke-width="0.75"/><polyline points="21.35 18.65 22.74 17.29 21.38 15.91" fill="none" stroke="#7c87a5" stroke-linecap="round" stroke-linejoin="round" stroke-width="0.75"/><polyline points="15.86 21.33 17.22 22.72 18.6 21.36" fill="none" stroke="#7c87a5" stroke-linecap="round" stroke-linejoin="round" stroke-width="0.75"/><path d="M17.36,11.9l2.4,2.4L18.07,16l-1.8-1.8a0.84,0.84,0,0,1,0-1.19Z" fill="#231f20" stroke="#231f20" stroke-linecap="round" stroke-linejoin="round" opacity="0.1"/><path d="M15.85,10.63h7a0,0,0,0,1,0,0V13a1,1,0,0,1-1,1h-5a1,1,0,0,1-1-1V10.63a0,0,0,0,1,0,0Z" transform="translate(41.72 7.37) rotate(135)" fill="none" stroke="#7c87a5" stroke-linecap="round" stroke-linejoin="round"/><path d="M8.83,17.65h7a0,0,0,0,1,0,0V20a1,1,0,0,1-1,1h-5a1,1,0,0,1-1-1V17.65a0,0,0,0,1,0,0Z" transform="translate(34.69 24.33) rotate(135)" fill="#fff"/><path d="M10.34,18.92l2.4,2.4L11,23l-1.8-1.8a0.84,0.84,0,0,1,0-1.19Z" fill="#231f20" stroke="#231f20" stroke-linecap="round" stroke-linejoin="round" opacity="0.1"/><path d="M8.83,17.65h7a0,0,0,0,1,0,0V20a1,1,0,0,1-1,1h-5a1,1,0,0,1-1-1V17.65a0,0,0,0,1,0,0Z" transform="translate(34.69 24.33) rotate(135)" fill="none" stroke="#7c87a5" stroke-linecap="round" stroke-linejoin="round"/><path d="M31.36,17L20.61,27.78a3.38,3.38,0,0,1-4.78,0L11.05,23l-0.6.6a0.84,0.84,0,0,0,0,1.19L17.62,32a0.84,0.84,0,0,0,1.19,0L32,18.83a0.84,0.84,0,0,0,0-1.19Z" fill="#231f20" stroke="#231f20" stroke-linecap="round" stroke-linejoin="round" opacity="0.1"/><path d="M18.54,4.18a1.37,1.37,0,0,1-1.38,1.26H16.84l-0.18,0a2.34,2.34,0,0,0-.3,0H16a6.75,6.75,0,0,0-1.19.1,7,7,0,0,0-2,.63,7.18,7.18,0,0,0-1.84,1.32,9.61,9.61,0,0,0-.74.91,8.08,8.08,0,0,0-.51.92A6.15,6.15,0,0,0,9.2,11a4.84,4.84,0,0,0,0,.81H9.79a1.59,1.59,0,0,1,1.47,1,1.61,1.61,0,0,1-.34,1.75l-4,4A1.62,1.62,0,0,1,5.77,19a1.58,1.58,0,0,1-1.13-.46l-4-4a1.6,1.6,0,0,1,1.13-2.73H2.38a0.43,0.43,0,0,1,0,0,12.91,12.91,0,0,1,.72-2.48,11.9,11.9,0,0,1,3.2-4.48A12.39,12.39,0,0,1,7.92,3.59a11.37,11.37,0,0,1,3.58-1.4A11.52,11.52,0,0,1,13.69,2a8.88,8.88,0,0,1,1,0,11,11,0,0,1,2.2.45l0.57,0.2h0l0.19,0.08A1.39,1.39,0,0,1,18.54,4.18Z" fill="#3d79cc"/><path d="M1.33,13.79l4,4a0.61,0.61,0,0,0,.85,0l4-4a0.6,0.6,0,0,0-.43-1H8.24c0-.07,0-0.24,0-0.5a6.31,6.31,0,0,1,0-1.43,7.05,7.05,0,0,1,.56-2,8.57,8.57,0,0,1,.59-1.06,10.47,10.47,0,0,1,.84-1,7.76,7.76,0,0,1,2.14-1.55,8.16,8.16,0,0,1,2.31-.72,8.29,8.29,0,0,1,1.76-.1c0.21,0,.4,0,0.52,0l0.19,0a0.39,0.39,0,0,0,.43-0.35,0.4,0.4,0,0,0-.24-0.41h0s-0.23-.1-0.69-0.25a10,10,0,0,0-2-.41A10,10,0,0,0,8.44,4.45,10.49,10.49,0,0,0,7,5.51a11.1,11.1,0,0,0-1.27,1.3A11.29,11.29,0,0,0,4,9.62a11.67,11.67,0,0,0-.66,2.27c-0.08.47-.12,0.78-0.13,0.88H1.75A0.6,0.6,0,0,0,1.33,13.79Z" fill="#4c97ff"/></svg>