<?xml version="1.0" encoding="UTF-8" standalone="no"?>
<!DOCTYPE svg PUBLIC "-//W3C//DTD SVG 1.1//EN" "http://www.w3.org/Graphics/SVG/1.1/DTD/svg11.dtd">
<svg width="100%" height="100%" viewBox="0 0 512 512" version="1.1" xmlns="http://www.w3.org/2000/svg" xmlns:xlink="http://www.w3.org/1999/xlink" xml:space="preserve" xmlns:serif="http://www.serif.com/" style="fill-rule:evenodd;clip-rule:evenodd;stroke-linejoin:round;stroke-miterlimit:2;">
    <g transform="matrix(1.49486,0,0,1.49486,78.7015,54.4613)">
        <g id="Path">
            <path d="M123.82,112.18C120.82,109.45 116.23,109.45 113.24,112.18L6.25,212.54C3.07,215.84 1.2,220.17 0.96,224.74L0.96,264.77C0.96,268.76 3.34,269.81 6.25,267.08L113.3,166.66C116.29,163.91 120.89,163.91 123.88,166.66L230.96,267.09C233.88,269.82 236.25,268.77 236.25,264.78L236.25,224.75C236.01,220.18 234.13,215.85 230.96,212.55L123.82,112.18ZM123.82,3.1C120.83,0.34 116.22,0.34 113.24,3.1L6.25,103.53C3.07,106.83 1.2,111.16 0.96,115.73L0.96,155.76C0.96,159.75 3.34,160.8 6.25,158.07L113.3,57.61C116.3,54.88 120.89,54.88 123.88,57.61L230.96,158.07C233.88,160.8 236.25,159.75 236.25,155.76L236.25,115.73C236.01,111.16 234.13,106.83 230.96,103.53L123.82,3.1Z" style="fill:rgb(33,106,159);fill-rule:nonzero;"/>
        </g>
    </g>
</svg>
