<?xml version="1.0" encoding="UTF-8" standalone="no"?>
<!DOCTYPE svg PUBLIC "-//W3C//DTD SVG 1.1//EN" "http://www.w3.org/Graphics/SVG/1.1/DTD/svg11.dtd">
<svg width="100%" height="100%" viewBox="0 0 512 512" version="1.1" xmlns="http://www.w3.org/2000/svg" xmlns:xlink="http://www.w3.org/1999/xlink" xml:space="preserve" xmlns:serif="http://www.serif.com/" style="fill-rule:evenodd;clip-rule:evenodd;stroke-linejoin:round;stroke-miterlimit:2;">
    <g transform="matrix(1,0,0,1,0,10.6145)">
        <g transform="matrix(7.68587,0,0,7.68587,55.5037,10.9666)">
            <path d="M39.51,18.36L39.15,16.64L38.94,15.65L37.5,8.69L37.14,6.97C37,6.3 36.33,5.79 35.64,5.82L29.09,6.13C28.4,6.16 27.95,6.73 28.09,7.4L28.86,11.12L30.87,20.79C31.01,21.46 31.66,21.85 32.31,21.66L38.56,19.9C39.22,19.72 39.65,19.02 39.51,18.36" style="fill:rgb(41,47,124);fill-rule:nonzero;"/>
        </g>
        <g transform="matrix(7.68587,0,0,7.68587,55.5037,10.9666)">
            <path d="M29.98,48.01L31.64,48.59L32.6,48.93L39.3,51.29L40.96,51.87C41.6,52.1 42.39,51.79 42.72,51.18L45.84,45.41C46.17,44.81 45.91,44.13 45.27,43.9L41.69,42.64L32.38,39.36C31.74,39.13 31.07,39.49 30.89,40.14L29.16,46.4C28.97,47.07 29.34,47.79 29.98,48.01" style="fill:rgb(41,47,124);fill-rule:nonzero;"/>
        </g>
        <g transform="matrix(7.68587,0,0,7.68587,55.5037,10.9666)">
            <path d="M22.31,13.4L20.65,12.84L19.69,12.51L12.96,10.22L11.3,9.66C10.66,9.44 9.87,9.76 9.55,10.37L6.49,16.18C6.17,16.79 6.43,17.46 7.08,17.68L10.68,18.9L20.03,22.08C20.67,22.3 21.34,21.94 21.51,21.28L23.16,15C23.34,14.34 22.95,13.62 22.31,13.4" style="fill:rgb(41,47,124);fill-rule:nonzero;"/>
        </g>
        <g transform="matrix(7.68587,0,0,7.68587,55.5037,10.9666)">
            <path d="M12.78,42.64L13.13,44.36L13.33,45.35L14.76,52.31L15.11,54.03C15.25,54.7 15.92,55.21 16.61,55.18L23.16,54.88C23.85,54.85 24.3,54.28 24.16,53.61L23.39,49.89L21.4,40.22C21.26,39.55 20.61,39.16 19.96,39.34L13.7,41.09C13.07,41.28 12.65,41.97 12.78,42.64" style="fill:rgb(41,47,124);fill-rule:nonzero;"/>
        </g>
        <g transform="matrix(7.68587,0,0,7.68587,55.5037,10.9666)">
            <path d="M9.47,25.68L7.37,27.48L1.97,32.1L0.64,33.24C0.13,33.69 0,34.53 0.36,35.12L3.8,40.7C4.16,41.29 4.88,41.4 5.39,40.96L8.27,38.49L15.76,32.06C16.28,31.62 16.31,30.86 15.83,30.38L11.27,25.76C10.8,25.27 9.98,25.23 9.47,25.68" style="fill:rgb(41,47,124);fill-rule:nonzero;"/>
        </g>
        <g transform="matrix(7.68587,0,0,7.68587,55.5037,10.9666)">
            <path d="M42.71,36.15L44.81,34.35L50.2,29.72L51.53,28.58C52.05,28.14 52.17,27.3 51.81,26.71L48.37,21.12C48.01,20.53 47.29,20.42 46.78,20.86L43.9,23.33L36.41,29.76C35.89,30.2 35.86,30.96 36.34,31.44L40.9,36.06C41.38,36.56 42.19,36.59 42.71,36.15" style="fill:rgb(41,47,124);fill-rule:nonzero;"/>
        </g>
    </g>
</svg>
