<?xml version="1.0" encoding="UTF-8" standalone="no"?>
<!DOCTYPE svg PUBLIC "-//W3C//DTD SVG 1.1//EN" "http://www.w3.org/Graphics/SVG/1.1/DTD/svg11.dtd">
<svg width="100%" height="100%" viewBox="0 0 512 512" version="1.1" xmlns="http://www.w3.org/2000/svg" xmlns:xlink="http://www.w3.org/1999/xlink" xml:space="preserve" xmlns:serif="http://www.serif.com/" style="fill-rule:evenodd;clip-rule:evenodd;stroke-linejoin:round;stroke-miterlimit:2;">
    <g transform="matrix(1.03945,0,0,1.03945,-10.1171,-10.1222)">
        <g id="Fill-1" transform="matrix(3.05417,0,0,3.05417,101.95,60.5635)">
            <path d="M82.979,88.1L98.717,72.362C101.615,69.464 101.615,64.767 98.717,61.87L82.979,46.131C88.773,40.336 88.773,30.941 82.979,25.147C77.184,19.352 67.789,19.352 61.994,25.147L46.256,9.408C43.358,6.51 38.661,6.51 35.763,9.408L9.533,35.639L9.533,98.592L35.763,124.824C38.661,127.721 43.358,127.72 46.256,124.824L61.994,109.084C56.2,103.29 56.2,93.895 61.994,88.1C67.789,82.305 77.184,82.305 82.979,88.1" style="fill:rgb(255,204,51);"/>
        </g>
        <g id="Fill-4" transform="matrix(3.05417,0,0,3.05417,101.95,60.5635)">
            <path d="M9.533,98.592L35.763,72.362C38.661,69.464 38.661,64.767 35.763,61.869L9.533,35.639L9.533,98.592Z" style="fill:rgb(255,153,0);"/>
        </g>
        <g id="black" transform="matrix(3.05417,0,0,3.05417,101.95,60.5635)">
            <path d="M93.414,56.361C95.283,58.229 96.312,60.715 96.312,63.358C96.312,66.001 95.283,68.487 93.414,70.356L75.924,87.846L74.173,86.094C69.352,81.275 61.511,81.275 56.69,86.094C51.872,90.914 51.872,98.756 56.691,103.576L58.442,105.328L40.953,122.818C39.023,124.747 36.489,125.711 33.954,125.711C31.42,125.711 28.886,124.747 26.957,122.818L-0,95.861L0.001,30.855L26.957,3.899C28.826,2.03 31.311,0.999 33.955,0.999C36.598,0.999 39.083,2.03 40.953,3.899L55.064,18.01C61.841,12.938 71.518,13.48 77.676,19.637C80.946,22.908 82.747,27.256 82.747,31.881C82.747,35.67 81.539,39.273 79.304,42.249L93.414,56.361ZM26.957,59.864L4.955,37.862L4.955,88.855L26.957,66.853C27.89,65.919 28.405,64.678 28.405,63.358C28.405,62.039 27.89,60.797 26.957,59.864ZM89.911,66.853C90.844,65.919 91.358,64.678 91.358,63.358C91.358,62.039 90.844,60.797 89.911,59.864L72.421,42.374L74.173,40.622C76.507,38.287 77.793,35.183 77.793,31.881C77.793,28.58 76.507,25.475 74.173,23.141C69.352,18.321 61.511,18.322 56.691,23.14L54.939,24.892L37.449,7.402C36.515,6.469 35.275,5.955 33.955,5.955C32.635,5.955 31.394,6.469 30.461,7.402L5.981,31.881L30.46,56.36C34.319,60.219 34.319,66.498 30.46,70.356L5.981,94.834L30.46,119.314C31.393,120.248 32.635,120.761 33.955,120.761C35.275,120.761 36.515,120.248 37.449,119.314L51.56,105.203C46.489,98.425 47.031,88.748 53.187,82.591C59.345,76.435 69.021,75.892 75.799,80.964L89.911,66.853Z"/>
        </g>
    </g>
</svg>
