<?xml version="1.0" encoding="UTF-8" standalone="no"?>
<!DOCTYPE svg PUBLIC "-//W3C//DTD SVG 1.1//EN" "http://www.w3.org/Graphics/SVG/1.1/DTD/svg11.dtd">
<svg width="100%" height="100%" viewBox="0 0 512 512" version="1.1" xmlns="http://www.w3.org/2000/svg" xmlns:xlink="http://www.w3.org/1999/xlink" xml:space="preserve" xmlns:serif="http://www.serif.com/" style="fill-rule:evenodd;clip-rule:evenodd;stroke-linejoin:round;stroke-miterlimit:2;">
    <g transform="matrix(6.77963,0,0,6.77963,-331.794,-26.7105)">
        <path d="M64.3,15.4L64.3,46.6C64.3,49.4 65.3,51.6 66.4,52.9C67.6,54.1 86.4,67.5 86.6,67.6C86.9,67.5 105.7,54 106.8,52.9C108,51.7 108.9,49.5 108.9,46.6L108.9,15.4L64.3,15.4Z" style="fill:rgb(247,148,32);fill-rule:nonzero;"/>
    </g>
    <g transform="matrix(6.77963,0,0,6.77963,-331.794,-26.7105)">
        <path d="M86.7,71.2L85.3,70.5C84.4,70 65.4,56.4 64.1,55.1C62.2,53.1 61.1,50 61.1,46.6L61.1,12.2L112.3,12.2L112.3,46.6C112.3,50 111.1,53.2 109.2,55.2C107.9,56.5 88.9,70.2 88.1,70.5L86.7,71.2ZM68.8,50.6C70.2,51.9 82.1,60.4 86.7,63.7C91.4,60.4 103.4,51.7 104.7,50.6C105.1,50.2 105.9,48.8 105.9,46.6L105.9,18.7L67.6,18.7L67.6,46.6C67.6,48.6 68.2,50 68.8,50.6Z" style="fill:rgb(247,148,32);fill-rule:nonzero;"/>
    </g>
    <g transform="matrix(6.77963,0,0,6.77963,-331.794,-26.7105)">
        <path d="M86.7,15.1L86.7,67.5C87,67.3 105.8,53.7 106.9,52.5C108.1,51.3 109,49.1 109,46.2L109,15.1L86.7,15.1Z" style="fill:rgb(250,175,65);fill-rule:nonzero;"/>
    </g>
    <g transform="matrix(6.77963,0,0,6.77963,-331.794,-26.7105)">
        <path d="M86.7,22C82.3,22 78.8,25.2 78.8,29L78.8,34.8L81.8,34.8L81.8,29.5C81.8,27.2 84,25.3 86.6,25.3M77.4,46.6L84.3,46.6L85,43.3C84.4,42.9 84.1,42.3 84.1,41.7L77.4,41.7C76,41.6 74.8,42.5 74.7,43.9C74.6,45.3 75.5,46.5 76.9,46.6C77.1,46.7 77.3,46.7 77.4,46.6ZM86.7,35.8L77.4,35.8C76,35.7 74.8,36.6 74.7,38C74.6,39.4 75.5,40.6 76.9,40.7L84.4,40.7C85,39.9 85.9,39.5 86.8,39.5M86.7,47.6L77.4,47.6C76,47.5 74.8,48.4 74.7,49.8C74.6,51.2 75.5,52.4 76.9,52.5L86.8,52.5" style="fill:rgb(229,230,230);fill-rule:nonzero;"/>
    </g>
    <g transform="matrix(6.77963,0,0,6.77963,-331.794,-26.7105)">
        <path d="M86.7,25.3C89.3,25.3 91.4,27.2 91.4,29.6L91.4,34.9L94.4,34.9L94.4,29.1C94.4,25.2 91.1,22.1 86.7,22.1M98.6,44.1C98.5,42.7 97.2,41.6 95.8,41.6L89.2,41.6C89.2,42.2 88.8,42.9 88.3,43.2L89,46.5L95.9,46.5C97.3,46.7 98.5,45.6 98.6,44.1ZM86.7,39.5C87.6,39.5 88.4,40 89,40.7L95.9,40.7C97.3,40.8 98.5,39.9 98.6,38.5C98.7,37.1 97.8,35.9 96.4,35.8L86.7,35.8M86.7,52.5L95.9,52.5C97.3,52.7 98.5,51.7 98.7,50.4C98.9,49 97.9,47.8 96.6,47.6L86.8,47.6" style="fill:white;fill-rule:nonzero;"/>
    </g>
</svg>
