<?xml version="1.0" encoding="UTF-8" standalone="no"?>
<!DOCTYPE svg PUBLIC "-//W3C//DTD SVG 1.1//EN" "http://www.w3.org/Graphics/SVG/1.1/DTD/svg11.dtd">
<svg width="100%" height="100%" viewBox="0 0 512 512" version="1.1" xmlns="http://www.w3.org/2000/svg" xmlns:xlink="http://www.w3.org/1999/xlink" xml:space="preserve" xmlns:serif="http://www.serif.com/" style="fill-rule:evenodd;clip-rule:evenodd;stroke-linejoin:round;stroke-miterlimit:2;">
    <g transform="matrix(14.8766,0,0,14.8766,56.001,77.2817)">
        <rect x="14.667" y="0.538" width="4.888" height="22.916" style="fill:rgb(0,150,255);fill-rule:nonzero;"/>
    </g>
    <g transform="matrix(14.8766,0,0,14.8766,56.001,77.2817)">
        <rect x="7.332" y="7.556" width="4.888" height="15.888" style="fill:rgb(0,150,255);fill-rule:nonzero;"/>
    </g>
    <g transform="matrix(14.8766,0,0,14.8766,56.001,77.2817)">
        <path d="M22,23.454L22,4.205L26.888,4.205L26.888,19.862C26.888,20.617 26.213,23.25 22,23.454Z" style="fill:rgb(0,150,255);fill-rule:nonzero;"/>
    </g>
    <g transform="matrix(14.8766,0,0,14.8766,56.001,77.2817)">
        <path d="M4.888,13.371L4.888,23.489L0,23.489L0,17.558C0,17.036 0.575,13.57 4.888,13.371Z" style="fill:rgb(0,150,255);fill-rule:nonzero;"/>
    </g>
</svg>
