<?xml version="1.0" encoding="UTF-8" standalone="no"?>
<!DOCTYPE svg PUBLIC "-//W3C//DTD SVG 1.1//EN" "http://www.w3.org/Graphics/SVG/1.1/DTD/svg11.dtd">
<svg width="100%" height="100%" viewBox="0 0 512 512" version="1.1" xmlns="http://www.w3.org/2000/svg" xmlns:xlink="http://www.w3.org/1999/xlink" xml:space="preserve" xmlns:serif="http://www.serif.com/" style="fill-rule:evenodd;clip-rule:evenodd;stroke-linejoin:round;stroke-miterlimit:2;">
    <g transform="matrix(0.781246,0,0,0.781246,56.001,55.6931)">
        <path d="M0,341.144C38,300 124.957,190.491 205.534,215.506C249,229 245,278 248.336,312.827C249.205,321.901 257.168,326.326 265.716,323.011C307,307 366.84,213.86 443.911,227.728C501,238 512,298.365 512,319C512,363.011 511,402 512,446C510.774,441.042 493.307,338.653 404.279,366.23C334,388 285,468 261,460C232.461,450.487 276,342 174.345,350.76C136.076,354.058 77,389 0,479.855L0,341.144ZM0,158.639C38,117.494 124.957,7.986 205.534,33C249,46.494 245,95.494 248.336,130.321C249.205,139.395 257.168,143.82 265.716,140.505C307,124.494 366.84,31.354 443.911,45.222C501,55.494 512,115.365 512,136L512,265C510.774,260.042 493.307,156.147 404.279,183.725C334,205.494 285,285.494 261,277.494C232.461,267.981 276,159.494 174.345,168.255C136.076,171.553 77,206.494 0,297.35L0,158.639Z" style="fill:rgb(214,18,33);fill-rule:nonzero;"/>
    </g>
</svg>
