<?xml version="1.0" encoding="UTF-8" standalone="no"?>
<!DOCTYPE svg PUBLIC "-//W3C//DTD SVG 1.1//EN" "http://www.w3.org/Graphics/SVG/1.1/DTD/svg11.dtd">
<svg width="100%" height="100%" viewBox="0 0 512 512" version="1.1" xmlns="http://www.w3.org/2000/svg" xmlns:xlink="http://www.w3.org/1999/xlink" xml:space="preserve" xmlns:serif="http://www.serif.com/" style="fill-rule:evenodd;clip-rule:evenodd;stroke-linejoin:round;stroke-miterlimit:2;">
    <g transform="matrix(13.0928,0,0,13.0928,87.9595,45.5268)">
        <path d="M23.36,17.948C23.459,16.269 23.36,6.505 23.36,6.505L12.876,3.454L2.334,6.505C2.334,6.505 2.235,16.269 2.334,17.948C2.432,19.427 3.807,22.779 7.147,25.737C10.487,28.695 12.847,28.697 12.847,28.697C12.847,28.697 15.205,28.697 18.547,25.737C21.89,22.776 23.262,19.427 23.36,17.948ZM25.628,4.53C25.628,4.53 25.721,16.306 25.628,18.174C25.442,20.138 23.86,24.063 19.763,27.706C15.667,31.349 12.86,31.351 12.86,31.351C12.86,31.351 9.974,31.351 5.958,27.706C1.864,24.063 0.279,20.045 0.093,18.174C-0,16.309 0,4.53 0,4.53L12.85,0.8L25.593,4.53L25.628,4.53Z" style="fill:rgb(79,144,222);fill-rule:nonzero;"/>
    </g>
    <g transform="matrix(13.0928,0,0,13.0928,87.9595,45.5268)">
        <path d="M11.467,17.345C10.167,16.072 8.722,14.959 7.16,14.028L6.316,14.801L5.937,15.15C7.978,16.634 9.672,18.782 11.873,21.838C13.713,18.35 16.702,13.332 19.811,10.891L18.606,9.316C15.592,11.683 12.738,15.15 11.467,17.345Z" style="fill:rgb(79,144,222);fill-rule:nonzero;"/>
    </g>
</svg>
