<?xml version="1.0" encoding="UTF-8" standalone="no"?>
<!DOCTYPE svg PUBLIC "-//W3C//DTD SVG 1.1//EN" "http://www.w3.org/Graphics/SVG/1.1/DTD/svg11.dtd">
<svg width="100%" height="100%" viewBox="0 0 512 512" version="1.1" xmlns="http://www.w3.org/2000/svg" xmlns:xlink="http://www.w3.org/1999/xlink" xml:space="preserve" xmlns:serif="http://www.serif.com/" style="fill-rule:evenodd;clip-rule:evenodd;stroke-linejoin:round;stroke-miterlimit:2;">
    <g transform="matrix(1.15835,0,0,1.15835,-40.5375,-45.5616)">
        <path d="M292.907,383.665L376.657,383.665C389.964,383.665 400.786,372.622 400.786,359.002L400.786,112.342C400.786,98.742 389.983,87.679 376.657,87.679L135.343,87.679C122.037,87.679 111.214,98.721 111.214,112.342L111.214,359.002C111.214,372.602 122.017,383.665 135.343,383.665L219.094,383.665L256,432.996L292.907,383.665ZM195.766,137.012L159.472,137.012L159.472,334.336L195.766,334.336L195.766,278.874C195.766,249.348 207.734,238.757 219.799,235.674C231.864,232.59 244.158,239.506 244.158,260.382L244.158,334.336L280.453,334.336L280.453,249.348C280.453,211.008 255.995,198.714 231.864,198.714C207.864,198.714 195.766,223.365 195.766,223.365L195.766,137.012ZM340.453,334.171C353.781,334.171 364.585,323.164 364.585,309.586C364.585,296.009 353.781,285.001 340.453,285.001C327.126,285.001 316.322,296.009 316.322,309.586C316.322,323.164 327.126,334.171 340.453,334.171Z" style="fill:rgb(189,28,43);"/>
    </g>
</svg>
