<?xml version="1.0" encoding="UTF-8" standalone="no"?>
<!DOCTYPE svg PUBLIC "-//W3C//DTD SVG 1.1//EN" "http://www.w3.org/Graphics/SVG/1.1/DTD/svg11.dtd">
<svg width="100%" height="100%" viewBox="0 0 512 512" version="1.1" xmlns="http://www.w3.org/2000/svg" xmlns:xlink="http://www.w3.org/1999/xlink" xml:space="preserve" xmlns:serif="http://www.serif.com/" style="fill-rule:evenodd;clip-rule:evenodd;stroke-linejoin:round;stroke-miterlimit:2;">
    <path d="M512,51.2C512,22.942 489.058,0 460.8,0L51.2,0C22.942,0 0,22.942 0,51.2L0,460.8C0,489.058 22.942,512 51.2,512L460.8,512C489.058,512 512,489.058 512,460.8L512,51.2Z" style="fill:rgb(70,29,124);"/>
    <g transform="matrix(2.5243,0,0,2.47346,45.3476,-539.835)">
        <path d="M83.5,348.4C80.1,348.4 77.5,351.9 77.5,356.3L77.5,378.4C77.5,382.8 80.2,386.3 83.5,386.3C86.9,386.3 89.5,382.8 89.5,378.4L89.5,356.3C89.6,351.9 86.9,348.4 83.5,348.4Z" style="fill:white;fill-rule:nonzero;"/>
    </g>
    <g transform="matrix(2.5243,0,0,2.47346,45.3476,-539.835)">
        <path d="M83.5,257.2C80.1,257.2 77.5,260.7 77.5,265.2L77.5,287.7C77.5,292.2 80.2,295.7 83.5,295.7C86.9,295.7 89.5,292.2 89.5,287.7L89.5,265.2C89.6,260.8 86.9,257.2 83.5,257.2Z" style="fill:white;fill-rule:nonzero;"/>
    </g>
    <g transform="matrix(2.5243,0,0,2.47346,45.3476,-539.835)">
        <path d="M49.8,314.6L28,314.6C23.6,314.6 20.2,317.3 20.2,320.7C20.2,324.1 23.6,326.8 28,326.8L49.8,326.8C54.2,326.8 57.6,324.1 57.6,320.7C57.6,317.3 54.1,314.6 49.8,314.6Z" style="fill:white;fill-rule:nonzero;"/>
    </g>
    <g transform="matrix(2.5243,0,0,2.47346,45.3476,-539.835)">
        <path d="M138.8,314.6L116.6,314.6C112.2,314.6 108.7,317.3 108.7,320.7C108.7,324.1 112.2,326.8 116.6,326.8L138.8,326.8C143.2,326.8 146.7,324.1 146.7,320.7C146.7,317.3 143.2,314.6 138.8,314.6Z" style="fill:white;fill-rule:nonzero;"/>
    </g>
    <g transform="matrix(2.5243,0,0,2.47346,45.3476,-539.835)">
        <path d="M66.3,339.5C65.3,338.5 63.9,338 62.5,338C60.2,338.1 58.1,339.1 56.5,340.7L41.1,356.3C39.5,357.9 38.5,360.1 38.4,362.4C38.3,363.8 38.9,365.2 39.9,366.3C40.9,367.3 42.3,367.9 43.7,367.8C46,367.7 48.1,366.7 49.7,365.1L65.1,349.5C66.8,347.9 67.7,345.7 67.8,343.4C67.9,341.9 67.3,340.5 66.3,339.5Z" style="fill:rgb(253,208,35);fill-rule:nonzero;"/>
    </g>
    <g transform="matrix(2.5243,0,0,2.47346,45.3476,-539.835)">
        <path d="M129.2,277C128.2,276 126.9,275.5 125.4,275.5C123.1,275.6 120.9,276.6 119.3,278.3L103.6,294.2C101.9,295.8 100.9,298 100.8,300.4C100.7,301.8 101.3,303.2 102.3,304.2C103.3,305.2 104.6,305.7 106.1,305.7C108.4,305.6 110.6,304.6 112.2,302.9L127.9,287C129.6,285.4 130.6,283.2 130.7,280.8C130.8,279.4 130.2,278 129.2,277Z" style="fill:rgb(253,208,35);fill-rule:nonzero;"/>
    </g>
    <g transform="matrix(2.5243,0,0,2.47346,45.3476,-539.835)">
        <path d="M65.1,293.8L49.7,278.2C48.1,276.5 46,275.6 43.7,275.5C40.9,275.4 38.5,277.6 38.4,280.5L38.4,280.9C38.5,283.2 39.5,285.4 41.1,287L56.5,302.6C58.1,304.3 60.2,305.3 62.5,305.3C65.3,305.4 67.7,303.2 67.8,300.3L67.8,299.9C67.7,297.6 66.7,295.4 65.1,293.8Z" style="fill:rgb(253,208,35);fill-rule:nonzero;"/>
    </g>
    <g transform="matrix(2.5243,0,0,2.47346,45.3476,-539.835)">
        <path d="M127.9,356.7L112.2,340.8C110.6,339.1 108.4,338.1 106.1,338C103.3,337.9 100.9,340.2 100.9,343L100.9,343.3C101,345.6 102,347.9 103.7,349.5L119.4,365.4C121,367.1 123.2,368.1 125.5,368.2C128.3,368.3 130.7,366 130.7,363.2L130.7,362.9C130.6,360.5 129.6,358.3 127.9,356.7Z" style="fill:rgb(253,208,35);fill-rule:nonzero;"/>
    </g>
    <g transform="matrix(2.5243,0,0,2.47346,45.3476,-539.835)">
        <path d="M74.9,321.1C74.9,316.1 79,312 84,312C89,312 93.1,316.1 93.1,321.1C93.1,326.1 89,330.2 84,330.2C79,330.2 74.9,326.1 74.9,321.1Z" style="fill:white;fill-rule:nonzero;"/>
    </g>
</svg>
