<?xml version="1.0" encoding="UTF-8" standalone="no"?>
<!DOCTYPE svg PUBLIC "-//W3C//DTD SVG 1.1//EN" "http://www.w3.org/Graphics/SVG/1.1/DTD/svg11.dtd">
<svg width="100%" height="100%" viewBox="0 0 512 512" version="1.1" xmlns="http://www.w3.org/2000/svg" xmlns:xlink="http://www.w3.org/1999/xlink" xml:space="preserve" xmlns:serif="http://www.serif.com/" style="fill-rule:evenodd;clip-rule:evenodd;stroke-linejoin:round;stroke-miterlimit:2;">
    <g id="Group_62" transform="matrix(1,0,0,1,-4510,-1834)">
        <g transform="matrix(1,0,0,1,4510,1834)">
            <path d="M512,51.2C512,22.942 489.058,0 460.8,0L51.2,0C22.942,0 0,22.942 0,51.2L0,460.8C0,489.058 22.942,512 51.2,512L460.8,512C489.058,512 512,489.058 512,460.8L512,51.2Z" style="fill:rgb(70,29,124);"/>
        </g>
        <g transform="matrix(14.5665,0,0,14.5665,4401.84,1736.41)">
            <path d="M25,13.801L35.366,16.491L35.366,18.448L34.076,18.448L34.076,18.475C34.076,18.745 33.857,18.964 33.587,18.964L33.145,18.964L33.145,30.655L33.587,30.655C33.848,30.655 34.062,30.86 34.075,31.118L34.876,31.118C35.146,31.118 35.366,31.337 35.366,31.607L35.366,32.097L36.272,32.097C36.542,32.097 36.761,32.316 36.761,32.586L36.761,33.565C36.761,33.835 36.542,34.054 36.272,34.054L13.728,34.054C13.458,34.054 13.239,33.835 13.239,33.565L13.239,32.586C13.239,32.316 13.458,32.097 13.728,32.097L14.634,32.097L14.634,31.607C14.634,31.337 14.854,31.118 15.124,31.118L16.263,31.118C16.277,30.86 16.49,30.655 16.752,30.655L17.193,30.655L17.193,18.964L16.752,18.964C16.482,18.964 16.262,18.745 16.262,18.475L16.262,18.448L14.634,18.448L14.634,16.491L25,13.801ZM23.331,18.448L19.938,18.448L19.938,18.475C19.938,18.745 19.718,18.964 19.448,18.964L19.007,18.964L19.007,30.655L19.448,30.655C19.71,30.655 19.923,30.86 19.937,31.118L23.332,31.118C23.346,30.86 23.56,30.655 23.821,30.655L24.263,30.655L24.263,18.964L23.821,18.964C23.551,18.964 23.331,18.745 23.331,18.475L23.331,18.448ZM30.401,18.448L27.007,18.448L27.007,18.475C27.007,18.745 26.788,18.964 26.518,18.964L26.076,18.964L26.076,30.655L26.518,30.655C26.779,30.655 26.992,30.86 27.006,31.118L30.401,31.118C30.415,30.86 30.629,30.655 30.89,30.655L31.332,30.655L31.332,18.964L30.89,18.964C30.62,18.964 30.401,18.745 30.401,18.475L30.401,18.448Z" style="fill:white;"/>
        </g>
    </g>
</svg>
