<?xml version="1.0" encoding="UTF-8" standalone="no"?>
<!DOCTYPE svg PUBLIC "-//W3C//DTD SVG 1.1//EN" "http://www.w3.org/Graphics/SVG/1.1/DTD/svg11.dtd">
<svg width="100%" height="100%" viewBox="0 0 512 512" version="1.1" xmlns="http://www.w3.org/2000/svg" xmlns:xlink="http://www.w3.org/1999/xlink" xml:space="preserve" xmlns:serif="http://www.serif.com/" style="fill-rule:evenodd;clip-rule:evenodd;stroke-linejoin:round;stroke-miterlimit:2;">
    <g transform="matrix(5.31887,0,0,5.31887,56.5998,367.591)">
        <g id="Layer-1" serif:id="Layer 1">
            <path d="M0,-37.848C3.947,-34.885 4.167,-31.626 5.508,-26.533C13.252,-20.466 1.342,-4.129 4.584,1.881C15.038,1.868 7.283,0.151 10.528,-2.624C13.084,-5.248 11.672,-0.814 12.279,0.24C41.344,13.059 16.655,-9.188 42.611,5.462C44.025,9.597 46.824,12.133 51.192,11.685C52.431,0.059 60.134,17.448 59.354,8.264C63.041,7.75 59.752,5.275 58.022,4.754C57.333,-1.131 73.641,15.66 74.575,12.678C78.139,6.112 61.927,6.761 66.013,2.109C68.871,1.215 65.139,-0.174 70.013,-0.624C71.494,-1.897 70.132,-1.937 69.247,-3.498C66.714,-8.273 68.057,-0.061 64.773,-1.689C62.414,-8.601 65.409,-5.301 56.877,-4.74C52.415,-3.508 54.662,-8.658 56.024,-9.493C60.474,-13.171 61.716,-5.518 66.96,-7.307C65.308,-13.401 58.933,-14.85 63.729,-20.996C61.028,-21.899 33.958,-18.089 34.808,-23.859C39.392,-28.015 36.402,-30.594 40.315,-36.028C41.24,-37.321 46.986,-40.015 42.602,-40.214C38.297,-40.314 47.295,-42.968 44.431,-44.211C40.598,-44.791 45.767,-47.467 42.702,-48.864C39.643,-49.889 44.468,-55.296 39.649,-55.177C27.68,-54.881 1.038,-55.177 1.038,-55.177C1.038,-55.177 -0.54,-46.47 0,-37.848" style="fill:rgb(70,29,124);fill-rule:nonzero;"/>
        </g>
    </g>
</svg>
