<?xml version="1.0" encoding="UTF-8" standalone="no"?>
<!DOCTYPE svg PUBLIC "-//W3C//DTD SVG 1.1//EN" "http://www.w3.org/Graphics/SVG/1.1/DTD/svg11.dtd">
<svg width="100%" height="100%" viewBox="0 0 208 65" version="1.1" xmlns="http://www.w3.org/2000/svg" xmlns:xlink="http://www.w3.org/1999/xlink" xml:space="preserve" xmlns:serif="http://www.serif.com/" style="fill-rule:evenodd;clip-rule:evenodd;stroke-linejoin:round;stroke-miterlimit:2;">
    <g transform="matrix(6.77083,0,0,6.77083,-78.5733,-121.664)">
        <path d="M14.917,25.625L14.917,17.969L11.605,17.969L11.605,27.569L20.245,27.569L20.245,25.625L14.917,25.625Z" style="fill:white;fill-rule:nonzero;"/>
        <path d="M23.797,17.969C23.005,17.969 22.327,18.177 21.763,18.593C21.199,19.009 20.917,19.513 20.917,20.105L20.917,23.741L27.901,23.741L27.901,24.785C27.901,25.017 27.791,25.213 27.571,25.373C27.351,25.533 27.085,25.613 26.773,25.613L20.917,25.613L20.917,27.569L28.345,27.569C29.145,27.569 29.827,27.361 30.391,26.945C30.955,26.529 31.237,26.025 31.237,25.433L31.237,21.785L24.253,21.785L24.253,20.753C24.253,20.521 24.361,20.325 24.577,20.165C24.793,20.005 25.057,19.925 25.369,19.925L31.237,19.925L31.237,17.969L23.797,17.969Z" style="fill:white;fill-rule:nonzero;"/>
        <path d="M38.965,17.969L38.965,24.785C38.965,25.017 38.855,25.215 38.635,25.379C38.415,25.543 38.149,25.625 37.837,25.625L35.293,25.625L35.293,17.993L31.993,17.993L31.993,27.569L39.409,27.569C40.201,27.569 40.879,27.361 41.443,26.945C42.007,26.529 42.289,26.025 42.289,25.433L42.289,17.969L38.965,17.969Z" style="fill:white;fill-rule:nonzero;"/>
    </g>
</svg>
