<?xml version="1.0" encoding="UTF-8" standalone="no"?><!DOCTYPE svg PUBLIC "-//W3C//DTD SVG 1.1//EN" "http://www.w3.org/Graphics/SVG/1.1/DTD/svg11.dtd"><svg width="100%" height="100%" viewBox="0 0 512 512" version="1.1" xmlns="http://www.w3.org/2000/svg" xmlns:xlink="http://www.w3.org/1999/xlink" xml:space="preserve" xmlns:serif="http://www.serif.com/" style="fill-rule:evenodd;clip-rule:evenodd;stroke-linejoin:round;stroke-miterlimit:2;"><g id="Layer-1" serif:id="Layer 1"><path d="M512,73.901c0,-23.624 -19.18,-42.804 -42.804,-42.804l-426.392,0c-23.624,0 -42.804,19.18 -42.804,42.804l0,364.198c0,23.624 19.18,42.804 42.804,42.804l426.392,0c23.624,0 42.804,-19.18 42.804,-42.804l0,-364.198Zm-142.489,313.459c12.92,11.833 26.645,19.693 42.83,20.652c8.753,0.518 18.202,-0.83 26.348,-3.934c4.333,-1.653 8.984,-8.814 9.04,-13.539c0.053,-4.63 -4.521,-11.239 -8.885,-13.574c-7.851,-4.199 -17.062,-5.857 -25.706,-8.571c-10.314,-3.237 -20.949,-5.706 -30.869,-9.878c-15.414,-6.48 -24.413,-18.255 -24.931,-35.556c-0.53,-17.702 6.88,-31.335 22.159,-39.969c23.993,-13.557 49.093,-11.912 73.945,-2.88c8.647,3.143 16.388,8.775 26.068,14.11c-7.002,9.136 -12.809,16.712 -18.926,24.694c-14.28,-11.132 -29.517,-17.743 -46.951,-16.914c-5.662,0.269 -11.912,2.015 -16.643,5.041c-8.879,5.674 -8.419,17.363 0.93,22.209c7.33,3.797 15.659,5.719 23.619,8.238c11.306,3.577 23.013,6.123 33.947,10.584c15.634,6.38 25.689,17.68 26.349,35.67c0.716,19.499 -6.224,34.796 -23.699,44.493c-30.476,16.911 -80.458,9.373 -106.063,-16.571c5.5,-7.667 11.109,-15.485 17.438,-24.305Zm-189.916,-76.589c-9.042,4.466 -17.437,8.613 -26.52,13.099c-10.963,-14.974 -24.612,-24.16 -43.621,-22.698c-12.856,0.989 -23.567,6.256 -32.103,15.781c-19.275,21.504 -17.852,57.513 2.92,77.184c21.194,20.071 47.761,16.904 72.841,-9.321c8.403,4.098 17.082,8.33 25.708,12.536c-10.7,27.574 -45.649,43.245 -81.712,37.21c-38.344,-6.417 -65.852,-37.755 -66.951,-76.27c-1.19,-41.687 22.751,-74.673 60.596,-83.487c38.306,-8.922 74.61,5.359 88.842,35.966Zm3.847,122.231c21,-53.547 41.348,-105.431 61.732,-157.407l42.005,0c19.816,52.046 39.74,104.377 60.09,157.829l-35.564,0c-3.426,-8.817 -6.803,-17.511 -10.307,-26.532l-71.619,0c-3.324,8.349 -6.76,16.979 -10.395,26.11l-35.942,0Zm84.007,-126.484c-0.843,-0.169 -1.687,-0.339 -2.53,-0.508c-8.547,23.346 -17.094,46.691 -26.133,71.379l53.704,0c-8.633,-24.434 -16.837,-47.653 -25.041,-70.871Zm-235.435,-71.09l447.409,0l0,15.645l-447.409,0l0,-15.645Zm447.409,-52.625l0,-108.079l-48.304,0l0,98.72c0,6.642 -7.245,12.076 -16.301,12.076l-36.832,0l0,-110.494l-48.001,0l0,138.872l107.474,0c22.944,0 41.964,-13.887 41.964,-31.095Zm-160.911,0l0,-52.832l-101.135,0l0,-15.095c0,-6.641 7.245,-12.075 16.302,-12.075l85.135,0l0,-28.077l-108.079,0c-22.944,0 -41.661,13.888 -41.661,31.096l0,52.831l101.437,0l0,15.095c0,6.642 -7.246,12.076 -16.303,12.076l-85.436,0l0,28.076l107.776,0c23.246,0 41.964,-13.887 41.964,-31.095Zm-161.212,2.717l-77.286,0l0,-110.795l-48.001,0l0,139.173l125.287,0l0,-28.378Z" style="fill:#461d7c;"/></g></svg>