<?xml version="1.0" standalone="no"?><!DOCTYPE svg PUBLIC "-//W3C//DTD SVG 1.1//EN" "http://www.w3.org/Graphics/SVG/1.1/DTD/svg11.dtd"><svg width="100%" height="100%" viewBox="0 0 208 65" version="1.1" xmlns="http://www.w3.org/2000/svg" xmlns:xlink="http://www.w3.org/1999/xlink" xml:space="preserve" style="fill-rule:evenodd;clip-rule:evenodd;stroke-linejoin:round;stroke-miterlimit:1.41421;"><g transform="matrix(6.77083,0,0,6.77083,-78.5733,-121.664)"><path d="M14.917,25.625l0,-7.656l-3.312,0l0,9.6l8.64,0l0,-1.944l-5.328,0Z" style="fill:#3a1867;fill-rule:nonzero;"/><path d="M23.797,17.969c-0.792,0 -1.47,0.208 -2.034,0.624c-0.564,0.416 -0.846,0.92 -0.846,1.512l0,3.636l6.984,0l0,1.044c0,0.232 -0.11,0.428 -0.33,0.588c-0.22,0.16 -0.486,0.24 -0.798,0.24l-5.856,0l0,1.956l7.428,0c0.8,0 1.482,-0.208 2.046,-0.624c0.564,-0.416 0.846,-0.92 0.846,-1.512l0,-3.648l-6.984,0l0,-1.032c0,-0.232 0.108,-0.428 0.324,-0.588c0.216,-0.16 0.48,-0.24 0.792,-0.24l5.868,0l0,-1.956l-7.44,0Z" style="fill:#3a1867;fill-rule:nonzero;"/><path d="M38.965,17.969l0,6.816c0,0.232 -0.11,0.43 -0.33,0.594c-0.22,0.164 -0.486,0.246 -0.798,0.246l-2.544,0l0,-7.632l-3.3,0l0,9.576l7.416,0c0.792,0 1.47,-0.208 2.034,-0.624c0.564,-0.416 0.846,-0.92 0.846,-1.512l0,-7.464l-3.324,0Z" style="fill:#3a1867;fill-rule:nonzero;"/></g></svg>