<?xml version="1.0" encoding="UTF-8" standalone="no"?>
<!DOCTYPE svg PUBLIC "-//W3C//DTD SVG 1.1//EN" "http://www.w3.org/Graphics/SVG/1.1/DTD/svg11.dtd">
<svg width="100%" height="100%" viewBox="0 0 512 512" version="1.1" xmlns="http://www.w3.org/2000/svg" xmlns:xlink="http://www.w3.org/1999/xlink" xml:space="preserve" xmlns:serif="http://www.serif.com/" style="fill-rule:evenodd;clip-rule:evenodd;stroke-linejoin:round;stroke-miterlimit:2;">
    <g transform="matrix(16.457,0,0,16.457,58.7152,55.8683)">
        <path d="M22.548,12.452C22.903,12.774 23.484,12.71 23.742,12.355C23.871,12.226 23.968,12 23.968,11.806L23.968,4.258C23.968,3.806 23.581,3.419 23.129,3.419L17.129,3.419C16.935,-1.129 10.452,-1.129 10.258,3.419L4.258,3.419C3.806,3.419 3.419,3.806 3.419,4.258L3.419,10.258C-1.129,10.452 -1.129,16.935 3.419,17.129L3.419,23.129C3.419,23.581 3.806,23.968 4.258,23.968L11.806,23.968C12.258,23.968 12.645,23.548 12.645,23.065C12.645,22.839 12.581,22.677 12.419,22.516C10.935,20.774 13.387,18.581 14.935,20.194C15.548,20.839 15.548,21.839 14.935,22.516C14.613,22.871 14.645,23.419 15,23.71C15.129,23.839 15.355,23.935 15.581,23.935L23.129,23.935C23.581,23.935 23.968,23.548 23.968,23.097L23.968,15.548C23.968,15.097 23.548,14.71 23.065,14.71C22.839,14.71 22.677,14.774 22.516,14.935C21.806,15.581 20.742,15.516 20.097,14.839C18.71,13.226 20.935,11.032 22.548,12.452ZM21.419,17.129C21.71,17.129 22,17.097 22.258,17.032L22.258,22.29L17,22.29C17.452,20.452 16.355,18.581 14.548,18.097C12.71,17.645 10.839,18.742 10.355,20.548C10.226,21.129 10.226,21.71 10.355,22.29L5.097,22.29L5.097,16.161C5.097,15.71 4.71,15.323 4.258,15.323C3.968,15.387 3.677,15.419 3.419,15.452C1.129,15.387 1.129,12.065 3.419,12.032C3.645,12.032 3.806,12.065 4,12.129C4.452,12.258 4.935,12.065 5.097,11.581C5.129,11.516 5.129,11.387 5.129,11.29L5.129,5.129L11.29,5.129C11.742,5.129 12.129,4.742 12.129,4.29C12.129,4.194 12.129,4.097 12.097,4C11.774,3.097 12.226,2.129 13.161,1.839C14.065,1.516 15.032,1.968 15.323,2.903C15.387,3.097 15.419,3.258 15.419,3.484C15.419,3.677 15.387,3.871 15.323,4.065C15.194,4.516 15.387,5 15.871,5.161C15.968,5.194 16.065,5.194 16.161,5.194L22.323,5.194L22.323,10.452C20.484,10 18.613,11.097 18.161,12.935C17.71,14.774 18.806,16.645 20.645,17.097C20.871,17.097 21.129,17.194 21.419,17.129Z" style="fill:rgb(70,29,124);fill-rule:nonzero;"/>
    </g>
</svg>
