<?xml version="1.0" encoding="UTF-8" standalone="no"?>
<!DOCTYPE svg PUBLIC "-//W3C//DTD SVG 1.1//EN" "http://www.w3.org/Graphics/SVG/1.1/DTD/svg11.dtd">
<svg width="100%" height="100%" viewBox="0 0 512 512" version="1.1" xmlns="http://www.w3.org/2000/svg" xmlns:xlink="http://www.w3.org/1999/xlink" xml:space="preserve" xmlns:serif="http://www.serif.com/" style="fill-rule:evenodd;clip-rule:evenodd;stroke-linejoin:round;stroke-miterlimit:2;">
    <g transform="matrix(1.15818,0,0,1.15818,-35.4233,-40.3027)">
        <path d="M142.84,424.907L142.84,383.994L110.291,383.994L110.291,424.935L86.143,424.935L86.143,326.989L110.291,326.989L110.291,364.416L142.84,364.416L142.84,326.989L166.997,326.989L166.997,424.907L142.84,424.907ZM253.552,326.989L231.123,326.989L231.123,424.907L253.552,424.907L253.552,326.989ZM296.306,326.989L273.877,326.989L273.877,424.907L296.306,424.907L296.306,326.989ZM187.36,424.907L187.36,362.08L210.919,362.08L210.919,424.907L187.36,424.907ZM199.284,350.903C192.404,350.853 186.771,345.177 186.771,338.297L186.771,338.203C186.927,331.486 192.496,326.045 199.215,326.045C206.045,326.045 211.663,331.664 211.663,338.493C211.663,345.296 206.087,350.903 199.284,350.941L199.284,350.903ZM130.168,306.327C100.263,306.327 78.938,286.945 78.938,255.686C78.938,223.108 101.366,203.437 131.775,203.437C154.203,203.437 164.063,212.689 166.268,214.885L155.848,230.444C149.164,225.716 141.139,223.246 132.953,223.398C115.786,223.398 103.31,234.995 103.31,254.368C103.31,276.236 117.253,286.366 132.663,286.366C137.088,286.432 141.498,285.837 145.746,284.599L145.746,270.516L127.981,270.516L127.981,253.05L167.016,253.05L167.016,295.608C165.829,296.346 154.531,306.327 130.168,306.327ZM285.222,302.692L285.222,296.496C279.47,301.45 272.151,304.22 264.56,304.318C249.804,304.318 240.795,294.431 240.795,280.403C240.795,257.414 273.419,255.424 281.101,255.424L282.718,255.424C282.718,253.06 283.325,248.639 280.942,246.752C279.643,245.714 277.41,244.387 272.232,244.387C267.078,244.476 261.974,245.424 257.131,247.191C255.766,247.677 254.608,248.125 253.729,248.537L246.487,234.239C247.694,233.506 248.943,232.841 250.225,232.248C257.513,228.961 265.434,227.309 273.429,227.407C284.643,227.407 293.053,230.211 298.81,235.967C305.165,242.313 304.716,250.873 304.716,259.882L304.716,302.692L285.222,302.692ZM229.843,246.303C222.243,246.131 215.079,249.936 210.966,256.33L210.966,302.365L187.36,302.365L187.36,229.183L206.835,229.183L206.835,238.92C207.274,238.192 216.18,226.977 231.235,226.977C231.235,226.977 232.226,226.977 232.796,227.052C233.366,227.127 234.188,227.248 234.188,227.248L229.843,246.303ZM404.793,302.075L380.86,302.075L368.973,257.218L358.114,302.075L335.078,302.075L314.239,229.286L336.546,229.286L347.993,276.245L360.03,229.286L379.842,229.286L391.878,276.245L402.877,229.286L424.306,229.286L404.793,302.075ZM283.007,268.451C277.4,268.451 267.065,268.152 262.785,272.432C261.13,274.062 260.223,276.307 260.28,278.628C260.28,285.711 265.597,287.487 269.429,287.487C274.27,287.529 279.01,286.087 283.007,283.357L283.007,268.451ZM260.402,186.812C236.777,186.812 222.255,169.794 222.255,148.497C222.255,126.19 239.562,109.612 261.579,109.612C277.868,109.612 286.811,117.237 287.848,118.714L278.606,132.947C274.555,130.233 269.825,128.705 264.953,128.536C253.505,128.536 245.879,136.946 245.879,148.058C245.879,159.655 251.598,167.869 263.635,167.869C272.298,167.869 279.634,162.879 280.073,162.589L289.026,177.261C288.586,177.579 278.606,186.812 260.402,186.812ZM186.575,184.625L180.407,119.462L158.418,184.625L136.924,184.625L113.814,119.321L109.066,184.625L86.134,184.625L96.413,86.735L124.449,86.735L148.923,154.104L171.903,86.735L199.939,86.735L210.854,184.625L186.575,184.625Z" style="fill:rgb(222,37,45);fill-rule:nonzero;"/>
    </g>
</svg>
