<?xml version="1.0" encoding="UTF-8" standalone="no"?>
<!DOCTYPE svg PUBLIC "-//W3C//DTD SVG 1.1//EN" "http://www.w3.org/Graphics/SVG/1.1/DTD/svg11.dtd">
<svg width="100%" height="100%" viewBox="0 0 512 512" version="1.1" xmlns="http://www.w3.org/2000/svg" xmlns:xlink="http://www.w3.org/1999/xlink" xml:space="preserve" xmlns:serif="http://www.serif.com/" style="fill-rule:evenodd;clip-rule:evenodd;stroke-linejoin:round;stroke-miterlimit:2;">
    <g transform="matrix(1,0,0,1,-5.50467,0)">
        <g transform="matrix(0.781535,0,0,0.781535,57.1298,55.848)">
            <path d="M264.299,0.438C271.498,-0.014 278.722,0.167 285.889,0.978C326.909,5.558 495.442,35.928 494,215C492.575,391.864 349.043,513.055 233,512C136.872,511.126 29,437.953 29,256C29,82.095 170.484,6.762 264.299,0.438Z" style="fill:rgb(13,127,164);"/>
        </g>
        <g transform="matrix(0.781535,0,0,0.781535,57.1298,55.848)">
            <path d="M267,87C321.991,86.815 418,110.559 418,209C418,307.441 321.399,329.94 271,329C270.576,328.992 270.322,336.387 270.176,343.439C269.811,360.403 255.969,373.972 239.002,374L239,374C221.512,374.028 214.368,366.008 211.608,360.975C210.575,359.075 210.028,356.95 210.015,354.789C209.892,339.205 209.324,245.429 209.095,207.703C209.035,197.853 213.752,188.584 221.751,182.835C222.479,182.312 223.216,181.783 223.956,181.251C234.266,173.84 248.032,173.395 258.8,180.125L258.801,180.126C267.621,185.638 272.938,195.343 272.836,205.744C272.552,234.685 272,291 272,291C272,291 374.508,280.462 366,201C358.696,132.783 275.694,132.931 260.505,133C191.697,133.313 156.485,170.896 140,187C127.723,198.994 90.104,189.535 114,158C145.511,116.416 200.723,87.223 267,87Z" style="fill:white;"/>
        </g>
        <g transform="matrix(0.781535,0,0,0.781535,54.7852,54.285)">
            <circle cx="242" cy="417" r="25" style="fill:white;"/>
        </g>
        <g transform="matrix(0.665331,0,0,0.665331,81.6817,139.578)">
            <circle cx="242" cy="417" r="25" style="fill:rgb(13,127,164);"/>
        </g>
    </g>
</svg>
