<?xml version="1.0" encoding="UTF-8" standalone="no"?>
<!DOCTYPE svg PUBLIC "-//W3C//DTD SVG 1.1//EN" "http://www.w3.org/Graphics/SVG/1.1/DTD/svg11.dtd">
<svg width="100%" height="100%" viewBox="0 0 512 512" version="1.1" xmlns="http://www.w3.org/2000/svg" xmlns:xlink="http://www.w3.org/1999/xlink" xml:space="preserve" xmlns:serif="http://www.serif.com/" style="fill-rule:evenodd;clip-rule:evenodd;stroke-linejoin:round;stroke-miterlimit:2;">
    <g transform="matrix(11.6396,0,0,11.6396,-11.7112,-11.7083)">
        <path d="M21.108,36.667L28.595,36.667C28.436,38.704 26.756,40.236 24.775,40.181C22.803,40.126 21.143,38.545 21.108,36.667Z" style="fill:rgb(93,100,111);"/>
    </g>
    <g transform="matrix(-1.86882,-0.00834901,-0.00834901,1.86882,273.879,234.012)">
        <path d="M0.354,-44.179C-11.934,-44.218 -21.819,-34.559 -21.995,-22.34C-22.172,-10.121 -12.049,-0.038 0.354,-0.083C12.708,-0.127 22.318,-9.766 22.346,-22.142C22.374,-34.456 12.711,-44.14 0.354,-44.179" style="fill:rgb(109,184,193);fill-rule:nonzero;"/>
    </g>
    <g transform="matrix(11.6396,0,0,11.6396,-11.7112,-11.7083)">
        <path d="M28.641,33.391L21.106,33.391L21.106,24.19C21.915,24.406 22.702,24.696 23.515,24.822C28.128,25.536 32.263,21.627 31.849,16.977C31.566,13.81 29.224,11.098 26.195,10.43C22.97,9.72 19.762,11.124 18.138,13.971C17.568,14.971 17.218,16.048 17.212,17.205C17.194,20.673 17.196,24.141 17.19,27.609L17.19,28.357L13.194,28.357C13.194,27.292 13.178,26.229 13.202,25.168C13.212,24.748 13.095,24.453 12.767,24.174C11.853,23.4 10.98,22.576 10.069,21.797C9.79,21.558 9.755,21.364 9.904,21.036C11.193,18.194 12.424,15.325 13.751,12.502C15.937,7.854 21.143,5.139 26.155,5.964C31.39,6.825 35.426,10.944 36.084,16.096C36.751,21.317 34.001,26.25 29.189,28.422C28.78,28.607 28.618,28.812 28.629,29.272C28.662,30.618 28.641,31.966 28.641,33.391ZM14.559,15.92C15.49,15.921 16.236,16.656 16.245,17.582C16.254,18.508 15.484,19.268 14.544,19.261C13.608,19.253 12.883,18.52 12.885,17.582C12.887,16.649 13.623,15.918 14.559,15.92Z" style="fill:rgb(93,100,111);"/>
    </g>
</svg>
