<?xml version="1.0" encoding="UTF-8" standalone="no"?>
<!DOCTYPE svg PUBLIC "-//W3C//DTD SVG 1.1//EN" "http://www.w3.org/Graphics/SVG/1.1/DTD/svg11.dtd">
<svg width="100%" height="100%" viewBox="0 0 512 512" version="1.1" xmlns="http://www.w3.org/2000/svg" xmlns:xlink="http://www.w3.org/1999/xlink" xml:space="preserve" xmlns:serif="http://www.serif.com/" style="fill-rule:evenodd;clip-rule:evenodd;stroke-linejoin:round;stroke-miterlimit:2;">
    <g transform="matrix(0.781247,0,0,0.781247,94.0499,56.0006)">
        <path d="M39.868,7.415C50.093,6.499 59.533,5.371 69.006,4.856C102.442,3.039 135.881,0.282 169.336,0.017C217.984,-0.369 265.892,5.997 312.025,22.408C342.879,33.384 370.95,48.878 392.965,73.858C410.56,93.822 416.156,117.354 414.235,143.337C411.69,177.76 399.02,208.151 378.528,235.621C359.715,260.839 335.18,278.851 307.171,292.372C274.431,308.176 239.938,318.301 203.833,322.724C187.246,324.756 170.619,326.455 154.454,328.256C150.8,371.111 147.13,414.145 143.348,458.497C163.781,459.064 184.846,459.649 206.491,460.25L206.491,508.192C139.324,502.401 72.397,503.298 5.282,512C3.495,496.677 1.792,482.064 0,466.699C4.1,465.663 8.123,464.479 12.217,463.642C26.663,460.688 41.094,457.615 55.62,455.109C60.419,454.281 62.539,452.774 62.776,447.609C63.949,422.026 65.816,396.474 66.821,370.886C68.773,321.17 69.911,271.419 72.132,221.716C74.604,166.391 81.684,111.604 93.824,57.52C93.999,56.737 94.073,55.932 94.327,54.267C77.025,55.046 60.04,55.811 42.067,56.621C41.348,40.52 40.627,24.408 39.868,7.415ZM171.408,53.362C170.972,55.575 170.524,57.152 170.365,58.757C167,92.872 163.032,126.943 160.5,161.12C157.835,197.118 156.591,233.22 154.592,269.269C154.378,273.126 155.22,274.433 159.385,274.139C178.206,272.808 197.076,272.13 215.878,270.604C237.327,268.866 258.541,265.554 278.812,257.855C296.41,251.17 310.962,240.886 319.111,223.193C324.692,211.075 326.394,198.104 327.648,185.005C330.883,151.219 322.516,121.608 296.869,98.034C277.933,80.629 255.435,70.104 230.892,63.435C211.546,58.177 191.85,55.061 171.408,53.362Z" style="fill:url(#_Linear1);fill-rule:nonzero;"/>
    </g>
    <defs>
        <linearGradient id="_Linear1" x1="0" y1="0" x2="1" y2="0" gradientUnits="userSpaceOnUse" gradientTransform="matrix(414.594,-2.46789e-14,2.46789e-14,414.594,0,0.000525907)"><stop offset="0" style="stop-color:rgb(193,39,45);stop-opacity:1"/><stop offset="1" style="stop-color:rgb(241,90,36);stop-opacity:1"/></linearGradient>
    </defs>
</svg>
