<?xml version="1.0" encoding="UTF-8" standalone="no"?>
<!DOCTYPE svg PUBLIC "-//W3C//DTD SVG 1.1//EN" "http://www.w3.org/Graphics/SVG/1.1/DTD/svg11.dtd">
<svg width="100%" height="100%" viewBox="0 0 512 512" version="1.1" xmlns="http://www.w3.org/2000/svg" xmlns:xlink="http://www.w3.org/1999/xlink" xml:space="preserve" xmlns:serif="http://www.serif.com/" style="fill-rule:evenodd;clip-rule:evenodd;stroke-linejoin:round;stroke-miterlimit:2;">
    <g transform="matrix(31.7369,0,0,31.7369,-1815.9,-7695.26)">
        <g transform="matrix(12.6925,0,0,12.6925,58.1187,252.986)">
            <path d="M0.631,-0.267L0.631,-0.269C0.631,-0.448 0.512,-0.546 0.387,-0.546C0.308,-0.546 0.257,-0.509 0.22,-0.459L0.22,-0.536L0.068,-0.536L0.068,0.16L0.22,0.16L0.22,-0.07C0.256,-0.027 0.306,0.01 0.387,0.01C0.514,0.01 0.631,-0.088 0.631,-0.267ZM0.479,-0.269L0.479,-0.267C0.479,-0.177 0.419,-0.119 0.348,-0.119C0.277,-0.119 0.218,-0.178 0.218,-0.267L0.218,-0.269C0.218,-0.358 0.277,-0.417 0.348,-0.417C0.419,-0.417 0.479,-0.358 0.479,-0.269Z" style="fill:rgb(197,24,105);fill-rule:nonzero;"/>
        </g>
        <g transform="matrix(12.6925,0,0,12.6925,65.7341,252.986)">
            <path d="M0.461,-0.163L0.461,-0.165C0.461,-0.263 0.374,-0.299 0.299,-0.324C0.241,-0.344 0.19,-0.358 0.19,-0.388L0.19,-0.39C0.19,-0.411 0.209,-0.427 0.246,-0.427C0.285,-0.427 0.338,-0.408 0.391,-0.377L0.449,-0.482C0.391,-0.521 0.317,-0.544 0.249,-0.544C0.141,-0.544 0.053,-0.483 0.053,-0.374L0.053,-0.372C0.053,-0.268 0.138,-0.233 0.213,-0.211C0.272,-0.193 0.324,-0.182 0.324,-0.149L0.324,-0.147C0.324,-0.123 0.304,-0.107 0.26,-0.107C0.21,-0.107 0.149,-0.129 0.091,-0.171L0.026,-0.071C0.097,-0.015 0.181,0.01 0.256,0.01C0.372,0.01 0.461,-0.044 0.461,-0.163Z" style="fill:rgb(197,24,105);fill-rule:nonzero;"/>
        </g>
    </g>
</svg>
