<?xml version="1.0" encoding="UTF-8" standalone="no"?>
<!DOCTYPE svg PUBLIC "-//W3C//DTD SVG 1.1//EN" "http://www.w3.org/Graphics/SVG/1.1/DTD/svg11.dtd">
<svg width="100%" height="100%" viewBox="0 0 512 512" version="1.1" xmlns="http://www.w3.org/2000/svg" xmlns:xlink="http://www.w3.org/1999/xlink" xml:space="preserve" xmlns:serif="http://www.serif.com/" style="fill-rule:evenodd;clip-rule:evenodd;stroke-linejoin:round;stroke-miterlimit:2;">
    <g transform="matrix(6.5747,0,0,6.5747,-2434.11,-1665.27)">
        <path d="M427.3,319.41C425.88,319.17 425.14,317.84 425.08,315.41L425.08,286.55L418.81,286.55L418.81,304.67C418.896,307.926 417.67,311.084 415.41,313.43C413.427,315.389 410.726,316.452 407.94,316.37C401.81,316.37 397.36,311.25 397.36,304.29L397.36,290.79C397.36,288.464 395.446,286.55 393.12,286.55L391.12,286.55L391.12,304.67C391.023,309.655 392.959,314.47 396.48,318C399.608,321.013 403.797,322.68 408.14,322.64L408.65,322.64C412.65,322.53 415.65,321.19 418.96,318.06C419.131,319.008 419.572,319.887 420.23,320.59C421.271,321.715 422.787,322.28 424.31,322.11C425.66,322.04 426.9,321.335 427.65,320.21L428.05,319.55L427.3,319.41Z" style="fill:rgb(0,114,177);fill-rule:nonzero;"/>
    </g>
    <g transform="matrix(6.5747,0,0,6.5747,-2434.11,-1665.27)">
        <path d="M399.84,278.93C402.095,278.93 403.95,277.075 403.95,274.82C403.95,272.565 402.095,270.71 399.84,270.71C397.585,270.71 395.73,272.565 395.73,274.82C395.73,274.823 395.73,274.827 395.73,274.83C395.73,277.079 397.581,278.93 399.83,278.93C399.833,278.93 399.837,278.93 399.84,278.93" style="fill:rgb(0,114,177);fill-rule:nonzero;"/>
    </g>
    <g transform="matrix(6.5747,0,0,6.5747,-2434.11,-1665.27)">
        <path d="M399.84,268.14C403.505,268.14 406.52,271.155 406.52,274.82C406.52,278.485 403.505,281.5 399.84,281.5C396.175,281.5 393.16,278.485 393.16,274.82C393.16,271.155 396.175,268.14 399.84,268.14M408.05,279.65L408.05,283.19C408.05,283.272 407.982,283.34 407.9,283.34C407.853,283.34 407.808,283.318 407.78,283.28L406.37,281.6C407.014,281.009 407.579,280.337 408.05,279.6M416.27,268.09C419.935,268.09 422.95,271.105 422.95,274.77C422.95,278.435 419.935,281.45 416.27,281.45C412.605,281.45 409.59,278.435 409.59,274.77C409.59,271.105 412.605,268.09 416.27,268.09M399.84,284.3C401.856,284.305 403.82,283.66 405.44,282.46L407.56,285.05C407.681,285.193 407.863,285.27 408.05,285.26C408.24,285.269 408.424,285.192 408.55,285.05L410.66,282.46C412.28,283.66 414.244,284.305 416.26,284.3C421.466,284.269 425.733,279.977 425.733,274.77C425.733,272.228 424.716,269.789 422.91,268L425.31,265.17C425.711,264.585 425.892,263.876 425.82,263.17C425.82,262.17 425.7,261.58 424.95,261.88C424.95,261.88 413.51,266.79 408.05,266.79C402.59,266.79 391.15,261.88 391.15,261.88C390.4,261.58 390.29,262.2 390.29,263.17C390.215,263.875 390.392,264.583 390.79,265.17L393.19,268C391.353,269.793 390.316,272.253 390.316,274.82C390.316,280.046 394.614,284.346 399.84,284.35" style="fill:rgb(0,114,177);fill-rule:nonzero;"/>
    </g>
    <g transform="matrix(6.5747,0,0,6.5747,-2434.11,-1665.27)">
        <path d="M416.27,278.93C418.525,278.93 420.38,277.075 420.38,274.82C420.38,272.565 418.525,270.71 416.27,270.71C414.015,270.71 412.16,272.565 412.16,274.82C412.16,277.075 414.015,278.93 416.27,278.93" style="fill:rgb(0,114,177);fill-rule:nonzero;"/>
    </g>
</svg>
