<?xml version="1.0" encoding="UTF-8" standalone="no"?>
<!DOCTYPE svg PUBLIC "-//W3C//DTD SVG 1.1//EN" "http://www.w3.org/Graphics/SVG/1.1/DTD/svg11.dtd">
<svg width="100%" height="100%" viewBox="0 0 512 512" version="1.1" xmlns="http://www.w3.org/2000/svg" xmlns:xlink="http://www.w3.org/1999/xlink" xml:space="preserve" xmlns:serif="http://www.serif.com/" style="fill-rule:evenodd;clip-rule:evenodd;stroke-linejoin:round;stroke-miterlimit:2;">
    <path d="M512,51.2C512,22.942 489.058,0 460.8,0L51.2,0C22.942,0 0,22.942 0,51.2L0,460.8C0,489.058 22.942,512 51.2,512L460.8,512C489.058,512 512,489.058 512,460.8L512,51.2Z" style="fill:rgb(70,29,124);"/>
    <g transform="matrix(4.91641,0,0,4.91641,10.251,10.139)">
        <path d="M78.432,16.932L38.669,16.932C35.894,16.932 33.648,19.06 33.648,21.751L33.648,77.849C33.648,80.455 35.894,82.668 38.669,82.668L78.432,82.668C81.207,82.668 83.453,80.54 83.453,77.849C83.453,77.849 83.453,21.751 83.453,21.751C83.453,19.145 81.291,16.932 78.432,16.932Z" style="fill:white;fill-rule:nonzero;"/>
    </g>
    <g transform="matrix(0.960235,0,0,0.960235,10.251,10.139)">
        <path d="M365.584,294.1C356.532,294.1 349.184,301.449 349.184,310.5C349.184,319.551 356.532,326.9 365.584,326.9C374.635,326.9 381.984,319.551 381.984,310.5C381.984,301.449 374.635,294.1 365.584,294.1ZM292.56,211.678L322.399,211.678C327.444,211.678 331.54,207.582 331.54,202.537C331.54,197.492 327.444,193.396 322.399,193.396C322.399,193.396 283.419,193.396 283.419,193.396C278.37,193.396 274.278,197.488 274.278,202.537L274.278,245.492L236.371,245.492C231.326,245.492 227.23,249.588 227.23,254.633C227.23,259.678 231.326,263.774 236.371,263.774C236.371,263.774 274.182,263.774 274.182,263.774C274.182,263.774 274.182,310.5 274.182,310.5C274.182,315.548 278.274,319.641 283.323,319.641C283.323,319.641 322.399,319.641 322.399,319.641C327.444,319.641 331.54,315.545 331.54,310.5C331.54,305.455 327.444,301.359 322.399,301.359C322.399,301.359 292.464,301.359 292.464,301.359C292.464,301.359 292.464,263.774 292.464,263.774C292.464,263.774 322.399,263.774 322.399,263.774C327.444,263.774 331.54,259.678 331.54,254.633C331.54,249.588 327.444,245.492 322.399,245.492L292.56,245.492L292.56,211.678ZM365.584,237.205C356.532,237.205 349.184,244.554 349.184,253.605C349.184,262.657 356.532,270.005 365.584,270.005C374.635,270.005 381.984,262.657 381.984,253.605C381.984,244.554 374.635,237.205 365.584,237.205ZM365.584,184.423C356.532,184.423 349.184,191.771 349.184,200.823C349.184,209.874 356.532,217.223 365.584,217.223C374.635,217.223 381.984,209.874 381.984,200.823C381.984,191.771 374.635,184.423 365.584,184.423Z" style="fill:rgb(70,29,124);"/>
    </g>
    <g transform="matrix(4.91641,0,0,4.91641,10.251,10.139)">
        <circle cx="34.318" cy="49.934" r="17.07" style="fill:rgb(253,208,35);"/>
    </g>
    <g transform="matrix(0.960235,0,0,0.960235,10.251,10.139)">
        <path d="M166.134,309.112L166.067,309.006L166.068,309.002L166.135,309.114L166.134,309.112L166.297,309.11L166.209,308.973L166.256,308.688L166.251,308.682L166.266,308.586L166.271,308.594L166.256,308.688L166.299,308.753L166.297,309.11L166.298,309.111L166.298,309.11L166.461,309.106L166.46,308.992L166.299,308.753L166.3,308.639L166.459,308.887L166.46,308.992L166.474,309.012L166.461,309.106L166.461,309.108L166.461,309.106L166.809,309.098L166.599,309.101L166.959,309.09L166.597,309.101C166.597,309.101 167.253,309.07 167.253,309.07C167.253,309.07 166.734,309.09 166.734,309.09C166.734,309.09 167.294,309.068 167.294,309.068C167.294,309.068 166.872,309.081 166.872,309.081L167.528,309.047L167.232,309.059L167.667,309.033L167.007,309.068L167.996,308.995L167.169,309.048C167.169,309.048 168.012,308.993 168.012,308.993C168.012,308.993 167.28,309.035 167.28,309.035L167.606,309.007L168.245,308.963L167.796,308.991L168.371,308.943L167.664,309L167.416,309.016L168.726,308.885L168.673,308.889L168.732,308.884L167.686,308.969L168.058,308.929L168.958,308.843L168.374,308.895L169.072,308.82L168.241,308.906L167.821,308.943L169.26,308.762L169.433,308.743L169.303,308.757L169.458,308.737L169.016,308.787L168.089,308.884L168.501,308.83L169.666,308.69L168.966,308.768L169.769,308.663L168.837,308.783L168.224,308.852L169.865,308.603L170.134,308.567L169.919,308.595L170.171,308.557L169.436,308.657L168.487,308.779L168.95,308.707L170.368,308.501L169.569,308.611L170.463,308.472L169.441,308.628L168.623,308.74L170.471,308.414L170.826,308.358L170.538,308.402L170.87,308.343L169.91,308.498L168.88,308.656L169.432,308.556L171.064,308.279L170.177,308.422L171.151,308.246L170.036,308.445L169.017,308.609L171.085,308.192L171.509,308.115L171.17,308.175L171.553,308.098L170.488,308.296L169.268,308.513L169.968,308.369L171.75,308.021L170.78,308.202L171.833,307.986L170.604,308.235L169.405,308.459L171.714,307.936L172.182,307.838L171.825,307.911L172.22,307.821L171.191,308.039L169.649,308.352L170.562,308.14L172.427,307.729L171.369,307.953L172.508,307.689L171.126,308.005L169.787,308.289L172.368,307.64L172.842,307.528L172.509,307.604L172.871,307.514L172.007,307.719L170.023,308.172L171.194,307.869L173.091,307.402L171.936,307.677L173.174,307.357L171.586,307.76L170.162,308.099L173.068,307.296L173.49,307.186L173.227,307.252L173.507,307.175L172.903,307.335L170.389,307.973L171.838,307.558L173.743,307.041L172.48,307.375L173.828,306.989L171.975,307.508L170.53,307.89L173.84,306.892L174.123,306.81L173.974,306.851L174.128,306.805L173.829,306.892L170.746,307.755L172.47,307.213L174.38,306.645L173.004,307.045L174.469,306.585L172.297,307.251L170.888,307.662L174.74,306.401L174.731,306.404L174.735,306.402L171.094,307.519L173.081,306.837L175,306.214L173.52,306.686L175.091,306.146L172.579,306.986L171.238,307.414L175.329,305.966C175.329,305.966 171.305,307.361 171.305,307.361L175.339,305.96C175.339,305.96 171.432,307.265 171.432,307.265L173.67,306.43L175.601,305.751L174.046,306.29L175.692,305.676L172.885,306.693L171.577,307.146C171.577,307.146 175.908,305.493 175.908,305.493C175.908,305.493 171.632,307.098 171.632,307.098C171.632,307.098 175.92,305.486 175.92,305.486C175.92,305.486 171.758,306.993 171.758,306.993L174.245,305.991L176.182,305.254L174.612,305.843L176.267,305.176L173.318,306.329L171.905,306.859C171.905,306.859 176.474,304.983 176.474,304.983C176.474,304.983 171.955,306.811 171.955,306.811C171.955,306.811 176.48,304.98 176.48,304.98C176.48,304.98 172.073,306.702 172.073,306.702L174.829,305.51L176.741,304.724L175.261,305.323L176.813,304.652L174.026,305.823L172.222,306.552L174.594,305.505C175.259,305.333 175.891,305.053 176.466,304.682L177.017,304.443L176.636,304.603L177.027,304.431L176.498,304.66L176.784,304.463L177.019,304.28L177.272,304.168L177.025,304.275L177.105,304.211L177.324,304.11L177.111,304.206L177.424,303.925L177.531,303.875L177.426,303.923L177.464,303.885L177.56,303.839L177.466,303.883L177.629,303.723L177.734,303.607L177.772,303.589L177.735,303.606L177.775,303.562L177.803,303.548L177.775,303.561L178.013,303.281L178.018,303.278L178.013,303.281L178.06,303.222L178.061,303.221L178.06,303.222L178.121,303.147L230.56,233.913C235.581,227.283 234.276,217.824 227.646,212.803C221.017,207.782 211.558,209.087 206.536,215.717L164.443,271.291L138.281,245.596C132.347,239.769 122.799,239.855 116.971,245.788C111.144,251.722 111.23,261.27 117.163,267.098C117.163,267.098 155.55,304.799 155.55,304.799L160.105,306.662L157.816,305.76L155.62,304.864L156.773,305.349L155.671,304.914L157.19,305.524L160.264,306.815L157.33,305.704L155.923,305.15L156.835,305.517L155.96,305.186L157.539,305.8L160.427,306.962L157.595,305.929L156.205,305.403L157.028,305.722L156.24,305.434L157.562,305.929L160.591,307.104L158.431,306.348L156.479,305.636L157.627,306.067L156.538,305.686L158.135,306.258L160.761,307.244L157.348,306.095L156.819,305.91L157.168,306.035L156.831,305.921L157.626,306.198L160.935,307.379L159.435,306.896L157.064,306.098L158.389,306.559L157.145,306.159L158.752,306.686L161.105,307.505L157.446,306.376L157.45,306.377L157.441,306.374L161.293,307.636L160.143,307.298L157.68,306.537L159.068,306.982L157.775,306.601L159.37,307.078L161.458,307.747C161.458,307.747 158.068,306.793 158.068,306.793C158.068,306.793 161.599,307.833 161.599,307.833L158.081,306.798L161.66,307.872L160.62,307.595L158.321,306.948L159.674,307.342L158.422,307.008L159.978,307.431L161.821,307.969C161.821,307.969 158.712,307.177 158.712,307.177C158.712,307.177 161.96,308.045 161.96,308.045C161.96,308.045 158.723,307.181 158.723,307.181C158.723,307.181 162.035,308.088 162.035,308.088L160.998,307.839L158.984,307.326L160.248,307.659L159.085,307.38L160.593,307.75L162.192,308.171L159.374,307.527L159.396,307.532L159.369,307.526L162.416,308.282L161.365,308.057L159.664,307.669L160.814,307.94L159.761,307.715L161.221,308.036L162.57,308.354L160.291,307.892L160.033,307.837L160.167,307.867L160.039,307.841L160.281,307.892L162.805,308.456L161.769,308.262L160.356,307.975L161.387,308.19L160.448,308.014L161.859,308.288L162.956,308.517L161.173,308.201L160.702,308.112L160.922,308.156L160.72,308.121L161.044,308.181L163.198,308.609L162.231,308.453L161.057,308.244L161.974,308.411L161.146,308.277L162.496,308.506L163.347,308.66L162.012,308.457L161.38,308.355L161.648,308.402L161.411,308.365L161.749,308.419L163.597,308.742L162.748,308.626L161.765,308.476L162.576,308.603L161.851,308.503L163.113,308.686L163.743,308.784L162.774,308.661L162.069,308.564L162.346,308.606L162.109,308.576L162.42,308.617L164,308.855L163.309,308.777L162.476,308.671L163.19,308.764L162.563,308.694L163.691,308.829L164.143,308.888L163.445,308.816L162.769,308.741L163.02,308.772L162.815,308.751L163.072,308.779L164.406,308.947L163.896,308.902L163.189,308.829L163.807,308.895L163.28,308.849L164.22,308.938L164.548,308.973L164.034,308.932L163.481,308.884L163.681,308.904L163.526,308.892L163.718,308.908L164.815,309.019L164.491,308.999L163.902,308.952L164.418,308.994L164,308.968L164.955,309.038L164.203,308.994L164.341,309.004L164.242,308.999L165.225,309.071L164.616,309.04L165.016,309.063L164.722,309.052L165.364,309.083L164.935,309.068L165.014,309.072L164.96,309.071L165.637,309.103L165.329,309.094L165.637,309.103C165.637,309.103 165.445,309.101 165.445,309.101C165.445,309.101 165.733,309.106 165.733,309.106L165.637,309.103L165.774,309.107L165.775,309.109L165.775,309.107L165.864,309.11C165.864,309.11 165.675,309.107 165.675,309.107L166.05,309.113L166.049,309.116L166.05,309.113L166.134,309.112ZM166.348,309.11L166.298,309.111C166.298,309.111 166.508,309.108 166.508,309.108L166.348,309.11ZM166.547,309.023L166.485,308.927L166.474,309.012L166.535,309.103L166.547,309.023ZM166.62,308.923L166.572,308.853L166.547,309.023L166.597,309.101L166.62,308.923ZM166.758,308.913L166.643,308.741L166.62,308.923L166.734,309.09L166.758,308.913ZM166.88,309L166.768,308.843L166.758,308.913L166.872,309.081L166.88,309ZM166.945,308.978L166.891,308.899L166.88,309L166.933,309.074L166.945,308.978ZM167.029,308.857L166.97,308.776L166.945,308.978L167.007,309.068L167.029,308.857ZM167.185,308.901L167.045,308.707L167.029,308.857L167.169,309.048L167.185,308.901ZM167.286,308.967L167.191,308.843L167.185,308.901L167.28,309.035L167.286,308.967ZM167.342,308.915L167.295,308.851L167.286,308.967L167.331,309.027L167.342,308.915ZM167.376,308.566L167.342,308.915L167.416,309.016L167.376,308.566ZM165.919,308.771L166.067,309.006L166.067,309.001L165.921,308.758L165.919,308.771ZM167.607,308.866L167.585,308.836L167.58,308.779L167.379,308.532L167.376,308.563L167.585,308.836L167.598,308.983L167.607,308.866ZM166.145,308.521L166.16,308.415L166.158,308.411L166.142,308.517L166.145,308.521L166.1,308.803L166.208,308.971L166.251,308.682L166.145,308.521ZM167.689,308.914L167.611,308.818L167.607,308.866L167.686,308.969L167.689,308.914ZM167.736,308.834L167.696,308.782L167.689,308.914L167.727,308.96L167.736,308.834ZM167.771,308.492L167.762,308.482L167.736,308.834L167.821,308.943L167.771,308.492ZM168.024,308.804L168.005,308.781L168,308.733L167.768,308.464L167.771,308.492L168.005,308.781L168.018,308.899L168.024,308.804ZM168.09,308.838L168.026,308.764L168.024,308.804L168.089,308.884L168.09,308.838ZM168.129,308.737L168.094,308.694L168.09,308.838L168.122,308.875L168.129,308.737ZM168.163,308.404L168.146,308.384L168.129,308.737L168.224,308.852L168.163,308.404ZM165.126,302.559L165.065,302.551L165.046,302.625L165.09,302.711L165.077,302.764L165.128,302.86L165.096,302.981L165.179,303.141L165.125,303.379L165.184,303.487L165.156,303.615L165.204,303.704L165.16,303.88L165.257,304.041L165.242,304.104L165.259,304.135L165.231,304.265L165.286,304.359L165.252,304.522L165.293,304.588L165.273,304.674L165.382,304.862L165.355,304.992L165.388,305.047L165.36,305.181L165.416,305.27L165.39,305.399L165.418,305.447L165.388,305.579L165.517,305.797L165.498,305.894L165.543,305.965L165.509,306.148L165.57,306.25L165.544,306.392L165.552,306.405L165.539,306.465L165.693,306.703L165.668,306.84L165.721,306.926L165.702,307.044L165.762,307.147L165.732,307.294L165.75,307.323L165.748,307.33L165.906,307.581L165.871,307.786L165.93,307.882L165.911,308.006L165.961,308.089L165.941,308.203L165.993,308.284L165.951,308.571L166.099,308.801L166.142,308.517L165.993,308.284L166.01,308.169L165.961,308.089L165.983,307.966L165.93,307.882L165.962,307.674L165.906,307.581L165.907,307.576L165.75,307.323L165.776,307.17L165.762,307.147L165.785,307.029L165.721,306.926L165.745,306.784L165.693,306.703L165.702,306.653L165.552,306.405L165.581,306.268L165.57,306.25L165.605,306.06L165.543,305.965L165.56,305.869L165.517,305.797L165.544,305.659L165.418,305.447L165.447,305.32L165.416,305.27L165.442,305.139L165.388,305.047L165.414,304.914L165.382,304.862L165.403,304.763L165.293,304.588L165.33,304.434L165.286,304.359L165.313,304.231L165.259,304.135L165.274,304.068L165.257,304.041L165.297,303.869L165.204,303.704L165.235,303.579L165.184,303.487L165.195,303.438L165.136,303.331L165.181,303.146L165.179,303.141L165.208,303.01L165.128,302.86L165.142,302.81L165.09,302.711L165.126,302.559ZM168.43,308.714L168.414,308.695L168.409,308.653L168.16,308.381L168.163,308.404L168.414,308.695L168.428,308.795L168.43,308.714ZM168.487,308.738L168.432,308.678L168.43,308.714L168.487,308.779L168.487,308.738ZM168.52,308.623L168.487,308.586L168.487,308.738L168.516,308.77L168.52,308.623ZM168.551,308.296L168.528,308.272L168.52,308.623L168.623,308.74L168.551,308.296ZM168.826,308.596L168.81,308.579L168.803,308.537L168.548,308.274L168.551,308.296L168.81,308.579L168.825,308.673L168.826,308.596ZM168.879,308.615L168.826,308.56L168.826,308.596L168.88,308.656L168.879,308.615ZM168.909,308.494L168.876,308.459L168.879,308.615L168.909,308.645L168.909,308.494ZM168.935,308.171L168.909,308.144L168.909,308.494L169.017,308.609L168.935,308.171ZM169.208,308.452L169.191,308.434L169.182,308.386L168.929,308.141L168.935,308.171L169.191,308.434L169.21,308.534L169.208,308.452ZM169.266,308.467L169.208,308.41L169.208,308.452L169.268,308.513L169.266,308.467ZM169.296,308.349L169.258,308.311L169.266,308.467L169.3,308.5L169.296,308.349ZM169.314,308.026L169.287,308L169.296,308.349L169.405,308.459L169.314,308.026ZM169.578,308.283L169.558,308.263L169.545,308.202L169.304,307.983L169.314,308.026L169.558,308.263L169.583,308.38L169.578,308.283ZM169.645,308.294L169.576,308.231L169.578,308.283L169.649,308.352L169.645,308.294ZM169.68,308.187L169.634,308.144L169.645,308.294L169.688,308.333L169.68,308.187ZM169.686,307.864L169.662,307.842L169.68,308.187L169.787,308.289L169.686,307.864ZM169.936,308.092L169.91,308.068L169.891,307.989L169.671,307.8L169.686,307.864L169.91,308.068L169.944,308.21L169.936,308.092ZM170.016,308.096L169.931,308.023L169.936,308.092L170.023,308.172L170.016,308.096ZM170.061,308.009L170.002,307.956L170.016,308.096L170.072,308.145L170.061,308.009ZM170.142,307.895L170.046,307.815L170.061,308.009L170.162,308.099L170.142,307.895ZM170.282,307.88L170.127,307.747L170.142,307.895L170.295,308.024L170.282,307.88ZM170.377,307.875L170.273,307.791L170.282,307.88L170.389,307.973L170.377,307.875ZM170.438,307.813L170.362,307.749L170.377,307.875L170.451,307.935L170.438,307.813ZM170.507,307.718L170.421,307.649L170.438,307.813L170.53,307.89L170.507,307.718ZM170.618,307.651L170.484,307.543L170.507,307.718L170.638,307.821L170.618,307.651ZM170.728,307.633L170.604,307.538L170.618,307.651L170.746,307.755L170.728,307.633ZM170.808,307.598L170.712,307.522L170.728,307.633L170.822,307.704L170.808,307.598ZM170.866,307.52L170.79,307.464L170.808,307.598L170.888,307.662L170.866,307.52ZM170.946,307.407L170.834,307.321L170.866,307.52L170.974,307.601L170.946,307.407ZM171.068,307.371L170.926,307.269L170.946,307.407L171.094,307.519L171.068,307.371ZM171.168,307.362L171.052,307.276L171.068,307.371L171.183,307.453L171.168,307.362ZM171.216,307.299L171.15,307.253L171.168,307.362L171.238,307.414L171.216,307.299ZM171.269,307.148L171.175,307.081L171.216,307.299L171.305,307.361L171.269,307.148ZM171.397,307.094L171.242,306.989L171.269,307.148L171.432,307.265L171.397,307.094ZM171.514,307.102L171.38,307.009L171.397,307.094L171.53,307.183L171.514,307.102ZM171.556,307.049L171.497,307.01L171.514,307.102L171.577,307.146L171.556,307.049ZM171.588,306.878L171.507,306.823L171.556,307.049L171.632,307.098L171.588,306.878ZM171.716,306.807L171.554,306.705L171.588,306.878L171.758,306.993L171.716,306.807ZM171.843,306.818L171.697,306.723L171.716,306.807L171.86,306.898L171.843,306.818ZM171.882,306.766L171.824,306.73L171.843,306.818L171.905,306.859L171.882,306.766ZM171.907,306.597L171.829,306.548L171.882,306.766L171.955,306.811L171.907,306.597ZM172.025,306.516L171.867,306.423L171.907,306.597L172.073,306.702L172.025,306.516ZM172.147,306.507L172,306.416L172.025,306.516L172.171,306.602L172.147,306.507ZM172.192,306.445L172.122,306.404L172.147,306.507L172.222,306.552L172.192,306.445ZM172.23,306.307L172.14,306.254L172.192,306.445L172.277,306.493L172.23,306.307ZM172.328,306.229L172.19,306.153L172.23,306.307L172.375,306.393L172.328,306.229ZM174.068,305.623L174.032,305.628L172.375,306.393L174.343,305.567L174.068,305.623ZM172.422,306.173L172.29,306.097L172.328,306.229L172.457,306.301L172.422,306.173ZM172.48,306.087L172.385,306.036L172.422,306.173L172.523,306.23L172.48,306.087ZM173.696,305.678L173.685,305.679L172.523,306.23L173.846,305.656L173.696,305.678ZM172.551,306.004L172.435,305.94L172.48,306.087L172.593,306.148L172.551,306.004ZM173.487,305.696L173.405,305.703L172.664,306.066L173.487,305.696ZM172.624,305.94L172.517,305.884L172.551,306.004L172.664,306.066L172.624,305.94ZM172.675,305.828L172.57,305.772L172.624,305.94L172.724,305.991L172.675,305.828ZM173.196,305.714L173.16,305.716L172.804,305.897L173.196,305.714ZM172.744,305.715L172.64,305.711L172.622,305.652L172.515,305.599L172.55,305.708L172.64,305.711L172.675,305.828L172.804,305.897L172.744,305.715ZM172.889,305.785L172.868,305.719L172.748,305.715L172.889,305.785ZM172.622,305.652L172.743,305.713L172.707,305.602L172.589,305.541L172.622,305.652ZM171.216,300.923L171.103,301.005L171.468,302.057C172.048,303.632 172.514,305.017 172.707,305.602L172.854,305.678C172.7,305.191 172.032,303.114 171.216,300.923ZM119.486,253.981L119.432,254.181C119.327,254.582 119.253,254.988 119.207,255.397L119.187,255.602C119.235,255.055 119.334,254.512 119.486,253.981ZM224.55,218.698C224.597,218.744 224.643,218.79 224.689,218.837L224.626,218.774L224.55,218.698ZM120.466,251.786L120.41,251.877C120.595,251.574 120.801,251.281 121.027,250.999L120.96,251.084C120.782,251.311 120.618,251.546 120.466,251.786ZM121.381,250.583L121.308,250.665C121.405,250.556 121.505,250.449 121.609,250.343C121.842,250.106 122.085,249.885 122.338,249.681L122.254,249.749C122.031,249.934 121.816,250.132 121.609,250.343C121.531,250.422 121.455,250.502 121.381,250.583ZM122.766,249.355L122.679,249.418C122.795,249.334 122.912,249.252 123.031,249.175L122.942,249.234C122.883,249.274 122.825,249.314 122.766,249.355ZM224.313,218.475C224.125,218.304 223.928,218.141 223.722,217.984C223.427,217.761 223.123,217.56 222.811,217.381L222.717,217.328C223.062,217.52 223.398,217.739 223.722,217.984C223.957,218.163 224.181,218.351 224.393,218.548L224.313,218.475Z" style="fill:white;"/>
    </g>
</svg>
