<?xml version="1.0" encoding="UTF-8" standalone="no"?>
<!DOCTYPE svg PUBLIC "-//W3C//DTD SVG 1.1//EN" "http://www.w3.org/Graphics/SVG/1.1/DTD/svg11.dtd">
<svg width="100%" height="100%" viewBox="0 0 512 512" version="1.1" xmlns="http://www.w3.org/2000/svg" xmlns:xlink="http://www.w3.org/1999/xlink" xml:space="preserve" xmlns:serif="http://www.serif.com/" style="fill-rule:evenodd;clip-rule:evenodd;stroke-linejoin:round;stroke-miterlimit:2;">
    <g transform="matrix(3.17938,0,0,3.17938,11.1876,-21.7349)">
        <path d="M41.37,34.89C36.99,34.89 33.43,38.45 33.43,42.83L33.43,131.87C33.43,136.25 36.99,139.81 41.37,139.81L112.64,139.81C117.01,139.81 120.57,136.25 120.57,131.87L120.57,42.83C120.57,38.45 117.01,34.89 112.64,34.89L41.37,34.89ZM112.65,150.26L41.37,150.26C31.23,150.26 22.98,142.01 22.98,131.88L22.98,42.83C22.98,32.69 31.23,24.45 41.37,24.45L112.64,24.45C122.78,24.45 131.02,32.7 131.02,42.83L131.02,131.87C131.03,142.01 122.78,150.26 112.65,150.26" style="fill:rgb(77,92,106);fill-rule:nonzero;"/>
    </g>
    <g transform="matrix(3.17938,0,0,3.17938,11.1876,-21.7349)">
        <path d="M108.22,60.15C108.22,57.41 105.58,55.17 102.25,55L102.25,54.98L52.17,54.98C48.65,54.98 45.8,57.29 45.8,60.15C45.8,63.01 48.66,65.32 52.17,65.32C52.3,65.32 102.12,65.31 102.25,65.31L102.26,65.31C105.59,65.14 108.22,62.9 108.22,60.15" style="fill:rgb(106,152,208);fill-rule:nonzero;"/>
    </g>
    <g transform="matrix(3.17938,0,0,3.17938,11.1876,-21.7349)">
        <path d="M108.22,113.96C108.22,111.22 105.58,108.98 102.25,108.81L102.25,108.79L52.17,108.79C48.65,108.79 45.8,111.1 45.8,113.96C45.8,116.82 48.66,119.13 52.17,119.13C52.3,119.13 102.12,119.12 102.25,119.12L102.26,119.12C105.59,118.94 108.22,116.7 108.22,113.96" style="fill:rgb(69,167,123);fill-rule:nonzero;"/>
    </g>
    <g transform="matrix(3.17938,0,0,3.17938,11.1876,-21.7349)">
        <path d="M108.22,87.35C108.22,84.61 105.58,82.37 102.25,82.2L102.25,82.18L52.17,82.18C48.65,82.18 45.8,84.49 45.8,87.35C45.8,90.21 48.66,92.52 52.17,92.52C52.3,92.52 102.12,92.51 102.25,92.51L102.26,92.51C105.59,92.33 108.22,90.09 108.22,87.35" style="fill:rgb(232,32,55);fill-rule:nonzero;"/>
    </g>
</svg>
