<?xml version="1.0" encoding="UTF-8" standalone="no"?>
<!DOCTYPE svg PUBLIC "-//W3C//DTD SVG 1.1//EN" "http://www.w3.org/Graphics/SVG/1.1/DTD/svg11.dtd">
<svg width="100%" height="100%" viewBox="0 0 512 512" version="1.1" xmlns="http://www.w3.org/2000/svg" xmlns:xlink="http://www.w3.org/1999/xlink" xml:space="preserve" xmlns:serif="http://www.serif.com/" style="fill-rule:evenodd;clip-rule:evenodd;stroke-linejoin:round;stroke-miterlimit:2;">
    <g transform="matrix(0.194968,0,0,0.194968,94.3701,49.8141)">
        <path d="M1025.81,104.167C950.593,104.05 889.502,194.488 889.329,306.265C889.207,417.936 950.016,508.617 1025.18,508.734C1100.35,508.851 1161.44,418.36 1161.61,306.636C1161.78,194.859 1100.98,104.284 1025.81,104.167" style="fill:rgb(253,208,35);fill-rule:nonzero;"/>
    </g>
    <g transform="matrix(0.194968,0,0,0.194968,94.3701,49.8141)">
        <path d="M482.107,342.515C430.14,369.346 420.443,453.692 460.246,530.897C500.096,608.078 574.524,648.988 626.491,622.157C678.458,595.326 688.202,510.956 648.376,433.822C608.595,356.546 534.097,315.613 482.107,342.515" style="fill:rgb(253,208,35);fill-rule:nonzero;"/>
    </g>
    <g transform="matrix(0.194968,0,0,0.194968,94.3701,49.8141)">
        <path d="M329.815,773.681C272.969,735.08 205.933,734.829 179.957,773.175C154.013,811.289 179.117,873.478 235.817,912.107C292.679,950.592 359.583,950.944 385.689,912.686C411.605,874.426 386.472,812.28 329.815,773.681" style="fill:rgb(253,208,35);fill-rule:nonzero;"/>
    </g>
    <g transform="matrix(0.194968,0,0,0.194968,94.3701,49.8141)">
        <path d="M210.197,1122.47C163.513,1119.35 123.972,1142.25 121.919,1173.7C119.977,1205.06 155.914,1232.86 202.594,1236.04C249.176,1239.1 288.606,1216.3 290.718,1184.74C292.709,1153.44 256.678,1125.48 210.197,1122.47" style="fill:rgb(253,208,35);fill-rule:nonzero;"/>
    </g>
    <g transform="matrix(0.194968,0,0,0.194968,94.3701,49.8141)">
        <path d="M1294.26,1074.38L1294.31,1053.45C1294.47,925.991 1257.91,899.765 1078.1,899.555C866.928,899.188 825.019,925.31 824.809,1057.96C824.651,1141.73 845.528,1180.18 901.39,1197.7C931.025,1206.51 941.463,1206.51 1123,1217.26C1318.49,1229.75 1384.79,1242.07 1440.55,1282.3C1512.04,1331.24 1536.38,1399.38 1536.17,1547.71C1535.91,1692.59 1514.88,1771.11 1464.21,1821.67C1394.29,1889.6 1305.22,1908.69 1062.63,1908.33C851.455,1908.01 779.909,1895.68 703.171,1850.21C659.53,1823.93 622.971,1768.01 610.907,1706.96C600.469,1656.29 598.79,1621.41 597.164,1528.88L811.905,1529.2C811.748,1616.48 816.888,1646.17 836.086,1675.86C863.938,1723.01 891.843,1728.31 1073.38,1728.57C1204.25,1728.78 1240.92,1723.53 1274.12,1697.41C1303.86,1676.54 1316.13,1631.16 1316.24,1550.86C1316.34,1474.12 1298.98,1437.4 1251.83,1421.67C1223.92,1411.13 1223.92,1411.13 1030.21,1398.64C831.26,1386.11 789.403,1379.08 730.079,1351.07C637.658,1305.54 601.098,1221.72 601.36,1061.16C601.57,923.264 631.363,837.766 694.306,792.447C765.904,738.473 856.7,722.895 1073.12,723.209C1291.27,723.577 1385.48,746.393 1443.02,811.015C1488.28,861.737 1509.16,931.551 1509,1032.84L1508.95,1074.69L1294.26,1074.38Z" style="fill:rgb(70,29,124);fill-rule:nonzero;"/>
    </g>
</svg>
