<?xml version="1.0" encoding="UTF-8" standalone="no"?>
<!DOCTYPE svg PUBLIC "-//W3C//DTD SVG 1.1//EN" "http://www.w3.org/Graphics/SVG/1.1/DTD/svg11.dtd">
<svg width="100%" height="100%" viewBox="0 0 512 512" version="1.1" xmlns="http://www.w3.org/2000/svg" xmlns:xlink="http://www.w3.org/1999/xlink" xml:space="preserve" xmlns:serif="http://www.serif.com/" style="fill-rule:evenodd;clip-rule:evenodd;stroke-linejoin:round;stroke-miterlimit:2;">
    <g transform="matrix(1,0,0,1,3.41061e-13,27.6914)">
        <g transform="matrix(20.9651,0,0,20.9651,-2931.13,46.4918)">
            <path d="M147.41,8.55L142.64,2.51C142.42,2.23 142.4,2.26 142.76,2.32L145.33,2.8C145.33,2.8 145.38,2.82 145.39,2.85C146.12,4.72 146.84,6.6 147.57,8.47C147.81,9.09 147.82,9.06 147.41,8.55" style="fill:rgb(23,132,141);fill-rule:nonzero;"/>
        </g>
        <g transform="matrix(20.9651,0,0,20.9651,-2931.13,46.4918)">
            <path d="M148.4,9.55C147.25,6.57 146.23,3.81 145,0.65C144.69,-0.15 144.6,-0.13 145.4,0.28C148.06,1.64 150.72,3.01 153.37,4.39C153.63,4.53 153.66,4.48 153.46,4.71C151.95,6.38 150.45,8.04 148.94,9.71C148.59,10.09 148.58,10 148.41,9.56" style="fill:rgb(37,145,151);fill-rule:nonzero;"/>
        </g>
        <g transform="matrix(20.9651,0,0,20.9651,-2931.13,46.4918)">
            <path d="M152.77,12.15L146.82,16.87C145.92,17.58 146.06,17.51 146.45,16.53L148.83,10.52C148.83,10.52 148.89,10.46 148.93,10.48L152.72,11.92C152.97,12.01 152.97,11.98 152.76,12.15" style="fill:rgb(48,157,163);fill-rule:nonzero;"/>
        </g>
        <g transform="matrix(20.9651,0,0,20.9651,-2931.13,46.4918)">
            <path d="M153.03,11.63L149.34,10.23C148.99,10.1 149.06,10.13 149.3,9.86L153.73,4.95C154.02,4.63 153.98,4.59 153.93,5.02C153.66,7.21 153.38,9.37 153.14,11.56C153.14,11.6 153.09,11.63 153.05,11.63L153.03,11.63" style="fill:rgb(71,169,174);fill-rule:nonzero;"/>
        </g>
        <g transform="matrix(20.9651,0,0,20.9651,-2931.13,46.4918)">
            <path d="M157.75,7.18L154.16,8.96C153.74,9.17 153.81,9.15 153.87,8.71L154.29,5.29C154.35,4.84 154.29,4.87 154.7,5.08L157.74,6.67C158.28,6.95 158.31,6.9 157.76,7.17" style="fill:rgb(23,132,141);fill-rule:nonzero;"/>
        </g>
        <g transform="matrix(20.9651,0,0,20.9651,-2931.13,46.4918)">
            <path d="M159.09,1.36L160.01,2.43C160.01,2.43 160.03,2.51 160.01,2.54C160.01,2.54 160,2.54 159.99,2.55L158.95,3.04C158.77,3.13 158.79,3.13 158.81,2.94C158.84,2.43 158.87,1.92 158.91,1.41C158.93,1.12 158.91,1.14 159.1,1.36" style="fill:rgb(23,132,141);fill-rule:nonzero;"/>
        </g>
        <g transform="matrix(20.9651,0,0,20.9651,-2931.13,46.4918)">
            <path d="M160.28,1.91L161.21,1.78C161.64,1.72 161.69,1.68 161.27,1.89L160.51,2.28C160.51,2.28 160.44,2.28 160.42,2.26C160.36,2.19 160.3,2.12 160.24,2.05C160.13,1.92 160.1,1.93 160.28,1.91" style="fill:rgb(23,132,141);fill-rule:nonzero;"/>
        </g>
        <g transform="matrix(20.9651,0,0,20.9651,-2931.13,46.4918)">
            <path d="M156.06,0.99L158.5,0.72C158.55,0.72 158.56,0.74 158.56,0.79C158.44,2.57 158.32,4.33 158.22,6.1C158.19,6.54 158.24,6.51 157.84,6.3L153.14,3.84C152.69,3.6 152.62,3.67 153.04,3.35L156.03,1.01C156.03,1.01 156.06,0.99 156.07,0.99" style="fill:rgb(23,132,141);fill-rule:nonzero;"/>
        </g>
    </g>
</svg>
