<?xml version="1.0" encoding="UTF-8" standalone="no"?>
<!DOCTYPE svg PUBLIC "-//W3C//DTD SVG 1.1//EN" "http://www.w3.org/Graphics/SVG/1.1/DTD/svg11.dtd">
<svg width="100%" height="100%" viewBox="0 0 512 512" version="1.1" xmlns="http://www.w3.org/2000/svg" xmlns:xlink="http://www.w3.org/1999/xlink" xml:space="preserve" xmlns:serif="http://www.serif.com/" style="fill-rule:evenodd;clip-rule:evenodd;stroke-linejoin:round;stroke-miterlimit:2;">
    <g transform="matrix(2.4243,0,0,2.4243,245.109,260.333)">
        <path d="M0,80.515C-23.89,68.849 -47.793,57.208 -71.657,45.489C-75.469,43.617 -75.458,41.259 -71.631,39.183C-48.399,26.577 -25.114,14.068 -1.89,1.449C0.775,0 1.782,0.007 1.762,3.487C1.612,28.78 1.597,54.074 1.539,79.367C1.025,79.749 0.513,80.132 0,80.515" style="fill:rgb(52,52,51);fill-rule:nonzero;"/>
    </g>
    <g transform="matrix(2.4243,0,0,2.4243,264.162,458.804)">
        <path d="M0,-82.236C16.433,-73.364 31.889,-65.017 47.348,-56.675C56.262,-51.865 65.188,-47.079 74.087,-42.239C75.327,-41.564 77.089,-41.193 76.877,-39.192C76.702,-37.54 75.146,-37.297 74.017,-36.742C50.475,-25.168 26.915,-13.63 3.364,-2.073C1.641,-1.227 -0.028,0 -0.022,-3.509C0.02,-29.41 0,-55.31 0,-82.236" style="fill:rgb(52,52,51);fill-rule:nonzero;"/>
    </g>
    <g transform="matrix(2.4243,0,0,2.4243,63.0825,149.42)">
        <path d="M0,-1.156C25.07,-13.475 49.843,-25.62 74.576,-37.844C77.22,-39.151 78.031,-38.689 78.023,-35.716C77.958,-12.424 77.968,10.869 78.014,34.161C78.019,36.731 77.725,37.995 74.727,36.513C50.137,24.355 25.503,12.285 0.892,0.17C0.652,0.052 0.542,-0.331 0,-1.156" style="fill:rgb(41,166,222);fill-rule:nonzero;"/>
    </g>
    <g transform="matrix(2.4243,0,0,2.4243,450.134,147.465)">
        <path d="M0,0.498C-6.183,3.537 -11.977,6.384 -17.77,9.233C-36.422,18.407 -55.084,27.56 -73.714,36.779C-76.354,38.085 -78.078,39.115 -78.046,34.561C-77.88,11.589 -77.953,-11.384 -77.991,-34.356C-77.996,-36.955 -77.979,-38.617 -74.548,-36.916C-50.113,-24.802 -25.613,-12.818 -1.142,-0.778C-0.883,-0.65 -0.722,-0.322 0,0.498" style="fill:rgb(28,106,144);fill-rule:nonzero;"/>
    </g>
    <g transform="matrix(2.4243,0,0,2.4243,450.66,160.675)">
        <path d="M0,78.979C-25.563,65.167 -50.22,51.844 -75.511,38.179C-64.687,32.855 -54.563,27.875 -44.438,22.897C-30.862,16.225 -17.298,9.532 -3.695,2.916C-2.223,2.199 0.035,0 0.026,4.278C-0.028,28.868 0,53.458 0,78.979" style="fill:rgb(28,106,144);fill-rule:nonzero;"/>
    </g>
    <g transform="matrix(2.4243,0,0,2.4243,245.82,260.759)">
        <path d="M0,-2.991C-8.263,1.511 -15.941,5.714 -23.638,9.883C-39.134,18.275 -54.675,26.586 -70.118,35.077C-73.456,36.913 -74.592,36.746 -74.567,32.552C-74.436,10.093 -74.508,-12.366 -74.501,-34.825C-74.5,-37.169 -75.059,-39.904 -70.959,-37.875C-47.577,-26.305 -24.14,-14.844 0,-2.991" style="fill:rgb(41,166,222);fill-rule:nonzero;"/>
    </g>
</svg>
