<?xml version="1.0" encoding="UTF-8" standalone="no"?>
<!DOCTYPE svg PUBLIC "-//W3C//DTD SVG 1.1//EN" "http://www.w3.org/Graphics/SVG/1.1/DTD/svg11.dtd">
<svg width="100%" height="100%" viewBox="0 0 512 512" version="1.1" xmlns="http://www.w3.org/2000/svg" xmlns:xlink="http://www.w3.org/1999/xlink" xml:space="preserve" xmlns:serif="http://www.serif.com/" style="fill-rule:evenodd;clip-rule:evenodd;stroke-linejoin:round;stroke-miterlimit:2;">
    <g transform="matrix(1,0,0,1,5.68434e-14,31.349)">
        <g transform="matrix(13.9087,0,0,13.9087,-21.1365,-33.6536)">
            <path d="M5.728,17.93L5.546,18.359L13.581,26.394L20.119,26.394L20.303,25.993C23.168,19.772 24.805,12.897 24.805,5.693L24.805,5.004L8.174,5.004L8.174,5.693C8.174,10.035 7.307,14.22 5.728,17.93ZM14.156,23.32L8.945,18.037C10.169,14.898 10.918,11.619 11.134,8.078C11.133,8.078 21.777,8.078 21.777,8.078C21.475,13.459 20.28,18.561 18.255,23.32L14.156,23.32Z" style="fill:rgb(0,150,255);fill-rule:nonzero;"/>
        </g>
        <g transform="matrix(1.05945,0,0,1.05945,-21.1365,-33.6536)">
            <path d="M332.587,105.388L332.181,105.522L331.826,105.71L331.468,105.986L331.202,106.276L330.959,106.651L330.803,107.012L330.695,107.451L330.668,107.852L330.702,108.229L330.794,108.602L330.938,108.948L331.18,109.335L331.444,109.628L331.794,109.906L332.137,110.096L332.562,110.244L332.955,110.31L333.327,110.314L333.673,110.268C354.819,105.914 377.084,107.896 394.424,113.991C405.711,117.958 414.902,123.642 420.165,130.524C420.18,130.543 420.194,130.561 420.209,130.58C432.515,145.757 434.756,169.657 428.095,197.041C417.875,239.055 386.609,289.114 336.893,329.391C290.904,366.56 239.27,390.172 198.952,395.363C172.882,398.72 151.623,394.456 140.205,380.618C132.541,370.923 130.31,357.505 131.875,343.303C134.191,322.291 144.848,299.555 159.467,284.049L198.986,323.569C199.701,324.284 200.777,324.497 201.711,324.111C202.645,323.724 203.254,322.812 203.254,321.801L203.254,223.284C203.254,221.904 202.135,220.784 200.754,220.784L102.238,220.784C101.226,220.784 100.315,221.394 99.928,222.328C99.541,223.262 99.755,224.337 100.47,225.052L140.033,264.615C105.458,300.601 90.487,359.012 118.232,396.374C127.025,408.458 141.252,415.148 156.635,419.543C156.679,419.556 156.723,419.567 156.768,419.577C203.888,430.286 276.804,403.771 342.13,352.367C342.137,352.361 342.144,352.356 342.151,352.35C397.942,307.461 434.428,253.675 446.201,207.246C454.202,175.697 450.815,147.483 434.692,127.438C434.686,127.43 434.679,127.421 434.672,127.413C414.033,102.43 377.168,95.601 332.633,105.377L332.587,105.388Z" style="fill:rgb(0,150,255);fill-rule:nonzero;"/>
        </g>
    </g>
</svg>
