<?xml version="1.0" encoding="UTF-8" standalone="no"?>
<!DOCTYPE svg PUBLIC "-//W3C//DTD SVG 1.1//EN" "http://www.w3.org/Graphics/SVG/1.1/DTD/svg11.dtd">
<svg width="100%" height="100%" viewBox="0 0 512 512" version="1.1" xmlns="http://www.w3.org/2000/svg" xmlns:xlink="http://www.w3.org/1999/xlink" xml:space="preserve" xmlns:serif="http://www.serif.com/" style="fill-rule:evenodd;clip-rule:evenodd;stroke-linejoin:round;stroke-miterlimit:2;">
    <g>
        <path d="M512,51.2C512,22.942 489.058,0 460.8,0L51.2,0C22.942,0 0,22.942 0,51.2L0,460.8C0,489.058 22.942,512 51.2,512L460.8,512C489.058,512 512,489.058 512,460.8L512,51.2Z" style="fill:rgb(70,29,124);"/>
    </g>
    <g transform="matrix(1,0,0,1,228.705,231)">
        <g transform="matrix(1.86055,0,0,1.86055,96.2737,-16.5448)">
            <path d="M-0.041,-50.464C-0.042,-50.778 -0.655,-51.364 -0.984,-51.365C-22.65,-51.413 -44.316,-51.42 -65.982,-51.367C-66.332,-51.366 -66.978,-50.588 -66.984,-50.165C-67.171,-38.257 -67.286,-26.349 -67.468,-14.441C-67.472,-14.176 -68.108,-13.698 -68.453,-13.695C-73.285,-13.645 -78.119,-13.65 -82.952,-13.689C-83.24,-13.691 -83.779,-14.092 -83.776,-14.301C-83.575,-27.544 -83.545,-40.794 -83.009,-54.024C-82.681,-62.108 -76.326,-67.64 -68.138,-67.65C-40.305,-67.684 -12.472,-67.669 15.36,-67.611C15.768,-67.61 16.528,-66.814 16.53,-66.387C16.697,-26.854 16.835,12.679 16.899,52.213C16.913,60.81 10.164,67.321 1.574,67.316C-6.467,67.312 -14.508,67.335 -22.548,67.274C-22.868,67.272 -23.501,66.476 -23.45,66.129C-22.858,62.098 -22.41,58.015 -21.356,54.098C-21.002,52.782 -19.186,51.583 -17.763,50.92C-16.669,50.411 -15.144,50.829 -13.811,50.827C0.535,50.805 0.516,50.805 0.483,36.39" style="fill:white;fill-rule:nonzero;"/>
        </g>
        <g transform="matrix(1.86055,0,0,1.86055,-6.442,192.977)">
            <path d="M0,-113.247C8.833,-113.247 17.666,-113.28 26.497,-113.167C27.05,-113.16 28.139,-111.914 28.054,-111.397C25.425,-95.516 22.69,-79.653 19.909,-63.797C19.828,-63.332 19.075,-62.982 18.625,-62.59C18.577,-62.548 18.463,-62.582 18.38,-62.58C4.169,-62.34 4.182,-62.337 7.242,-77.868C7.821,-80.805 8.276,-83.767 8.743,-86.725C8.898,-87.71 8.913,-88.717 8.992,-89.715C8.173,-89.17 7.294,-88.697 6.543,-88.07C-9.256,-74.899 -20.017,-58.545 -23.819,-38.181C-26.646,-23.042 -15.551,-9.721 2.288,-5.578C3.009,-5.41 3.146,-2.586 3.453,-0.98C3.486,-0.807 2.837,-0.296 2.499,-0.291C-20.548,0.038 -37.359,-17.085 -35.732,-39.93C-34.131,-62.402 -24.077,-81.103 -8.465,-97.022C-8.163,-97.329 -7.951,-97.724 -7.697,-98.078C-8.123,-98.162 -8.548,-98.319 -8.974,-98.319C-15.931,-98.316 -22.889,-98.284 -29.846,-98.311C-30.131,-98.312 -30.691,-98.877 -30.657,-99.11C-29.993,-103.55 -29.285,-107.985 -28.492,-112.404C-28.428,-112.757 -27.677,-113.235 -27.243,-113.237C-18.162,-113.285 -9.081,-113.273 0,-113.273L0,-113.247" style="fill:white;fill-rule:nonzero;"/>
        </g>
    </g>
</svg>
