<?xml version="1.0" encoding="UTF-8" standalone="no"?>
<!DOCTYPE svg PUBLIC "-//W3C//DTD SVG 1.1//EN" "http://www.w3.org/Graphics/SVG/1.1/DTD/svg11.dtd">
<svg width="100%" height="100%" viewBox="0 0 512 512" version="1.1" xmlns="http://www.w3.org/2000/svg" xmlns:xlink="http://www.w3.org/1999/xlink" xml:space="preserve" xmlns:serif="http://www.serif.com/" style="fill-rule:evenodd;clip-rule:evenodd;stroke-linejoin:round;stroke-miterlimit:2;">
    <g transform="matrix(0.591266,0,0,0.591266,110.352,403.075)">
        <path d="M0,-497.493C-0.112,-496.377 0.626,-495.575 1.082,-494.687C19.352,-459.122 37.685,-423.591 55.839,-387.967C57.559,-384.592 59.429,-383.389 63.284,-383.421C88.425,-383.628 113.569,-383.487 138.711,-383.589C141.253,-383.599 142.463,-382.785 143.567,-380.52C176.457,-313.036 209.426,-245.591 242.384,-178.142C242.881,-177.125 243.403,-176.122 243.92,-175.099C245.044,-175.424 245.102,-176.441 245.466,-177.18C278.811,-244.822 312.158,-312.463 345.399,-380.156C346.707,-382.818 348.156,-383.612 351.045,-383.599C377.667,-383.477 404.289,-383.545 430.911,-383.491C432.89,-383.487 434.163,-383.793 435.207,-385.79C454.516,-422.737 473.918,-459.635 493.295,-496.546C493.449,-496.841 493.528,-497.177 493.643,-497.493L494.325,-497.493C496.223,-496.496 498.047,-495.308 500.036,-494.551C502.649,-493.555 502.663,-492.366 501.431,-490.022C448.309,-388.977 395.261,-287.894 342.192,-186.821C310.141,-125.775 278.07,-64.739 246.036,-3.684C245.418,-2.508 244.449,-1.451 244.432,0L243.749,0C242.708,-3.627 240.619,-6.761 238.919,-10.068C202.361,-81.196 165.756,-152.299 129.174,-223.415C83.342,-312.512 37.523,-401.615 -8.31,-490.711C-8.668,-491.409 -9.14,-492.049 -9.559,-492.716L-9.559,-493.398C-6.376,-494.277 -3.562,-495.956 -0.683,-497.493L0,-497.493Z" style="fill:rgb(70,29,124);fill-rule:nonzero;"/>
    </g>
    <g transform="matrix(0.591266,0,0,0.591266,338.441,143.105)">
        <path d="M0,-57.808C13.313,-46.618 27.279,-36.257 41.001,-25.586C50.693,-18.048 60.361,-10.478 70.033,-2.914C70.814,-2.304 71.539,-1.622 72.273,-0.988C71.8,0 71.015,-0.349 70.422,-0.361C40.737,-0.934 11.053,-1.562 -18.633,-2.081C-21.145,-2.125 -21.111,-2.926 -20.374,-4.841C-18.623,-9.393 -17.189,-14.072 -15.315,-18.569C-14.211,-21.22 -15.629,-21.584 -17.556,-22.111C-37.1,-27.451 -56.967,-31.032 -77.083,-33.376C-102.431,-36.331 -127.853,-37.538 -153.358,-36.972C-189.601,-36.166 -225.473,-32.509 -260.608,-23.082C-263.267,-22.369 -263.725,-21.468 -262.712,-19.033C-260.795,-14.428 -259.206,-9.688 -257.313,-5.073C-256.4,-2.848 -256.705,-2.09 -259.274,-2.161C-264.845,-2.312 -270.422,-2.207 -275.997,-2.207L-351.38,-2.207C-349.607,-3.638 -348.565,-4.524 -347.476,-5.35C-325.737,-21.837 -303.99,-38.315 -282.253,-54.805C-280.992,-55.762 -279.796,-56.805 -278.57,-57.808L-277.887,-57.808C-275.831,-52.468 -273.555,-47.197 -271.816,-41.755C-271.004,-39.213 -269.885,-38.852 -267.671,-39.504C-259.247,-41.983 -250.68,-43.898 -242.052,-45.477C-224.186,-48.746 -206.222,-51.165 -188.076,-52.522C-177.155,-53.339 -166.229,-54.043 -155.303,-54.341C-137.362,-54.831 -119.434,-54.454 -101.49,-53.198C-84.345,-51.997 -67.327,-50.097 -50.406,-47.218C-37.186,-44.968 -24.157,-41.873 -11.313,-38.005C-10.326,-37.708 -9.234,-36.898 -8.437,-38.495C-5.352,-44.67 -3.026,-51.116 -1.365,-57.808L0,-57.808Z" style="fill:rgb(253,208,35);fill-rule:nonzero;"/>
    </g>
</svg>
