<?xml version="1.0" encoding="UTF-8" standalone="no"?>
<!DOCTYPE svg PUBLIC "-//W3C//DTD SVG 1.1//EN" "http://www.w3.org/Graphics/SVG/1.1/DTD/svg11.dtd">
<svg width="100%" height="100%" viewBox="0 0 512 512" version="1.1" xmlns="http://www.w3.org/2000/svg" xmlns:xlink="http://www.w3.org/1999/xlink" xml:space="preserve" xmlns:serif="http://www.serif.com/" style="fill-rule:evenodd;clip-rule:evenodd;stroke-linejoin:round;stroke-miterlimit:2;">
    <g transform="matrix(2.34107,0,0,2.34107,50.0717,53.1427)">
        <g transform="matrix(0.425387,0,0,0.425387,-26.7245,-17.2772)">
            <ellipse cx="269.608" cy="244.315" rx="192.624" ry="200.83" style="fill:rgb(85,134,198);"/>
        </g>
        <path d="M119.992,36.379L113.198,36.379C111.329,41.945 110.111,47.356 107.73,52.194C105.045,57.654 100.735,61.175 93.769,60.483C88.16,59.926 82.449,60.508 76.791,60.315C73,60.185 71.907,61.517 73.37,64.965C81.845,65.93 83.173,68.146 80.028,76.108C78.44,80.129 76.767,84.117 75.084,88.099C71.712,96.076 68.307,104.04 64.527,112.923C59.651,101.943 55.154,91.954 50.789,81.908C49.34,78.572 48.152,75.115 46.989,71.665C45.792,68.118 47.737,66.295 50.883,65.489C52.308,65.125 53.848,65.208 55.596,65.066C56.926,61.291 55.532,60.293 52.212,60.329C41.552,60.447 30.889,60.447 20.23,60.331C16.843,60.295 15.562,61.38 16.906,64.998C24.553,65.108 28.091,70.431 30.864,76.568C39.561,95.816 48.165,115.105 56.965,134.305C57.711,135.932 59.666,138.082 61.02,138.054C62.417,138.026 64.348,135.879 65.046,134.235C73.234,114.956 81.17,95.57 89.311,76.271C92.797,68.003 95.034,67.041 104.248,69.181L104.248,74.529C104.247,88.355 104.139,102.181 104.279,116.005C104.403,128.357 111.157,136.589 121.632,138.203C129.908,139.477 143.729,132.708 147.969,124.787C146.861,123.731 145.713,122.636 144.73,121.699C141.331,123.864 138.427,126.178 135.156,127.705C127.911,131.087 122.616,128.54 121.045,120.684C120.176,116.337 120.316,111.758 120.284,107.281C120.197,94.5 120.253,81.717 120.253,68.384L139.008,68.384L139.008,60.137L119.992,60.137L119.992,36.379Z" style="fill:white;fill-rule:nonzero;"/>
    </g>
</svg>
