<?xml version="1.0" encoding="UTF-8" standalone="no"?>
<!DOCTYPE svg PUBLIC "-//W3C//DTD SVG 1.1//EN" "http://www.w3.org/Graphics/SVG/1.1/DTD/svg11.dtd">
<svg width="100%" height="100%" viewBox="0 0 512 512" version="1.1" xmlns="http://www.w3.org/2000/svg" xmlns:xlink="http://www.w3.org/1999/xlink" xml:space="preserve" xmlns:serif="http://www.serif.com/" style="fill-rule:evenodd;clip-rule:evenodd;stroke-linejoin:round;stroke-miterlimit:2;">
    <g transform="matrix(7.62432,0,0,7.62432,146.85,-23.9236)">
        <path d="M-10.289,53.353C-11.296,54.364 -11.878,55.723 -11.914,57.149C-11.952,58.678 -11.363,60.156 -10.283,61.239C-9.202,62.322 -7.726,62.914 -6.197,62.879L-6.184,62.879C-4.742,62.845 -3.368,62.256 -2.35,61.235C2.985,55.885 19.94,38.88 19.94,38.88C21.91,39.73 24.09,40.18 26.39,40.09C32.29,39.87 37.43,35.95 39.6,30.46C40.72,27.62 40.69,24.49 40.31,22.47C40.25,22.17 39.98,21.96 39.68,21.96L38.1,22.22C37.93,22.24 37.74,22.3 37.62,22.43L31.74,28.68C31.61,28.82 31.44,28.89 31.25,28.89L29.86,28.88C29.68,28.88 29.51,28.8 29.39,28.68L22.41,21.59C22.28,21.46 22.21,21.28 22.22,21.1L22.26,20.05C22.27,19.88 22.34,19.71 22.47,19.59L28.79,13.65C28.92,13.52 29,13.34 29,13.16L29.06,11.45C29.06,11.13 28.84,10.86 28.53,10.8C25.38,10.21 21.88,10.61 18.31,12.52C15.76,13.88 13.7,16.06 12.51,18.69C10.55,23.04 10.69,27.28 12.13,30.85C12.13,30.85 -4.958,48.003 -10.289,53.353Z" style="fill:rgb(6,178,250);"/>
    </g>
</svg>
