<?xml version="1.0" encoding="UTF-8" standalone="no"?>
<!DOCTYPE svg PUBLIC "-//W3C//DTD SVG 1.1//EN" "http://www.w3.org/Graphics/SVG/1.1/DTD/svg11.dtd">
<svg width="100%" height="100%" viewBox="0 0 512 512" version="1.1" xmlns="http://www.w3.org/2000/svg" xmlns:xlink="http://www.w3.org/1999/xlink" xml:space="preserve" xmlns:serif="http://www.serif.com/" style="fill-rule:evenodd;clip-rule:evenodd;stroke-linejoin:round;stroke-miterlimit:2;">
    <g transform="matrix(9.06422,-8.9948e-16,8.9948e-16,9.06422,60.9318,-7.5845)">
        <path d="M0.696,47.011C-0.212,47.923 -0.21,49.399 0.701,50.309C0.724,50.332 0.747,50.355 0.77,50.379C1.209,50.817 1.804,51.063 2.425,51.063C3.045,51.062 3.64,50.814 4.077,50.374C8.758,45.667 21.776,32.578 21.776,32.578C23.919,33.939 26.445,34.731 29.167,34.731C36.817,34.731 43.025,28.531 43.025,20.873C43.025,13.223 36.817,7.015 29.167,7.015C21.518,7.015 15.309,13.214 15.309,20.873C15.309,24.084 16.403,27.028 18.235,29.376C18.235,29.376 5.341,42.341 0.696,47.011ZM29.149,11.622C34.221,11.622 38.338,15.739 38.338,20.811C38.338,25.882 34.221,29.999 29.149,29.999C24.078,29.999 19.961,25.882 19.961,20.811C19.961,15.739 24.078,11.622 29.149,11.622Z" style="fill:rgb(4,178,250);"/>
    </g>
</svg>
