<?xml version="1.0" encoding="UTF-8" standalone="no"?>
<!DOCTYPE svg PUBLIC "-//W3C//DTD SVG 1.1//EN" "http://www.w3.org/Graphics/SVG/1.1/DTD/svg11.dtd">
<svg width="100%" height="100%" viewBox="0 0 512 512" version="1.1" xmlns="http://www.w3.org/2000/svg" xmlns:xlink="http://www.w3.org/1999/xlink" xml:space="preserve" xmlns:serif="http://www.serif.com/" style="fill-rule:evenodd;clip-rule:evenodd;stroke-linejoin:round;stroke-miterlimit:2;">
    <g transform="matrix(1.10735,0,0,1.10735,-27.4823,-27.4823)">
        <path d="M436.61,410.599C436.61,422.971 426.672,432.909 414.3,432.909L205.295,432.909C192.923,432.909 182.985,422.971 182.985,410.599L182.985,201.594C182.985,189.222 192.923,179.284 205.295,179.284L414.3,179.284C426.672,179.284 436.61,189.222 436.61,201.594L436.61,410.599ZM358.119,295.195L290.276,255.037C283.076,250.777 273.848,255.949 273.848,264.366L273.848,344.784C273.848,353.201 282.975,358.373 290.276,354.114L358.119,313.956C365.218,309.595 365.218,299.353 358.119,295.195ZM130.151,334.643L97.7,334.643C85.328,334.643 75.39,324.705 75.39,312.333L75.39,101.401C75.39,89.029 85.328,79.091 97.7,79.091L114.737,79.091C115.852,79.091 116.866,79.193 117.88,79.395L309.24,79.395C321.612,79.395 331.55,89.334 331.55,101.705L331.55,134.055C331.55,134.664 331.144,135.069 330.536,135.069L153.475,135.069C141.103,135.069 131.165,145.007 131.165,157.379L131.165,333.528C131.165,334.136 130.658,334.643 130.151,334.643Z" style="fill:rgb(4,178,250);"/>
    </g>
</svg>
