<?xml version="1.0" encoding="UTF-8" standalone="no"?>
<!DOCTYPE svg PUBLIC "-//W3C//DTD SVG 1.1//EN" "http://www.w3.org/Graphics/SVG/1.1/DTD/svg11.dtd">
<svg width="100%" height="100%" viewBox="0 0 512 512" version="1.1" xmlns="http://www.w3.org/2000/svg" xmlns:xlink="http://www.w3.org/1999/xlink" xml:space="preserve" xmlns:serif="http://www.serif.com/" style="fill-rule:evenodd;clip-rule:evenodd;stroke-linejoin:round;stroke-miterlimit:2;">
    <g transform="matrix(11.1539,0,0,10.395,-0.539061,6.65081)">
        <path d="M23.806,38.504C23.371,38.379 23.289,37.746 23.317,37.238C23.349,36.66 23.304,36.079 23.334,35.501C23.372,34.791 23.557,34.606 24.25,34.554C24.646,34.525 25.046,34.542 25.444,34.544C26.671,34.549 27.638,33.697 28.114,33.005C28.662,32.208 29.417,31.468 28.731,29.163C27.534,25.141 22.845,14.452 22.245,12.939C22.152,12.705 22.052,12.467 22.001,12.222C21.922,11.839 22.09,11.543 22.487,11.537C23.752,11.517 25.02,11.514 26.285,11.561C26.784,11.579 26.973,12.023 27.129,12.447C27.776,14.213 31.654,24.547 31.654,24.547C31.654,24.547 35.829,13.52 36.211,12.466C36.52,11.615 36.638,11.53 37.558,11.512C38.39,11.495 39.224,11.486 40.056,11.514C40.915,11.542 41.096,11.795 40.796,12.604C40.08,14.538 34.822,28.25 32.933,33.182C32.284,34.876 31.24,36.248 29.872,37.444C29.265,37.975 28.494,38.36 27.719,38.504C26.72,38.69 24.539,38.715 23.806,38.504Z" style="fill:rgb(255,111,0);"/>
    </g>
    <g transform="matrix(11.1539,0,0,10.395,-0.539061,6.65081)">
        <path d="M19.128,26.718C19.417,26.718 19.727,26.677 19.988,26.768C20.237,26.855 20.61,27.077 20.624,27.261C20.688,28.152 20.686,29.052 20.617,29.942C20.603,30.128 20.229,30.329 19.983,30.439C19.8,30.522 19.556,30.477 19.34,30.477C15.068,30.478 10.797,30.478 6.525,30.478C6.308,30.477 6.089,30.485 5.875,30.457C5.376,30.393 5.086,30.113 5.084,29.594C5.081,28.689 5.037,27.78 5.116,26.882C5.147,26.527 5.405,26.149 5.655,25.865C7.401,23.883 15.108,15.278 15.108,15.278C15.108,15.278 9.146,15.26 6.938,15.26C6.685,15.26 6.43,15.27 6.178,15.256C5.39,15.21 5.131,14.975 5.095,14.212C5.067,13.634 5.068,13.052 5.095,12.474C5.131,11.732 5.329,11.557 6.102,11.502C6.246,11.492 6.391,11.498 6.536,11.498C10.735,11.497 14.934,11.497 19.133,11.498C19.314,11.498 19.496,11.49 19.676,11.505C20.325,11.561 20.64,11.781 20.679,12.416C20.734,13.315 20.726,14.225 20.647,15.123C20.615,15.486 20.394,15.888 20.142,16.168C17.895,18.672 12.091,25.033 11.471,25.741C11.31,25.924 10.938,26.308 10.665,26.728L19.128,26.718Z" style="fill:rgb(255,111,0);"/>
    </g>
</svg>
