<?xml version="1.0" encoding="utf-8"?>
<!-- Generator: Adobe Illustrator 15.1.0, SVG Export Plug-In  -->
<!DOCTYPE svg PUBLIC "-//W3C//DTD SVG 1.1//EN" "http://www.w3.org/Graphics/SVG/1.1/DTD/svg11.dtd" [
	<!ENTITY ns_flows "http://ns.adobe.com/Flows/1.0/">
]>
<svg version="1.1"
	 xmlns="http://www.w3.org/2000/svg" xmlns:xlink="http://www.w3.org/1999/xlink" xmlns:a="http://ns.adobe.com/AdobeSVGViewerExtensions/3.0/"
	 x="0px" y="0px" width="32px" height="32px" viewBox="-0.099 -0.913 32 32"
	 style="overflow:visible;enable-background:new -0.099 -0.913 32 32;" xml:space="preserve">
<defs>
</defs>
<g>
	<path style="fill:#FDE364;" d="M20.54,8.838c0.244,0.493,0.889,0.961,1.433,1.04l9.354,1.351c0.544,0.079,0.667,0.458,0.273,0.841
		l-6.765,6.6c-0.394,0.384-0.64,1.142-0.546,1.684l1.61,9.313c0.094,0.542-0.229,0.776-0.716,0.521l-8.372-4.39
		c-0.487-0.256-1.284-0.255-1.771,0.001L6.68,30.204c-0.487,0.256-0.809,0.022-0.717-0.52l1.589-9.317
		c0.092-0.542-0.155-1.299-0.549-1.683l-6.772-6.586c-0.394-0.383-0.271-0.762,0.272-0.842L9.855,9.89
		c0.544-0.08,1.188-0.548,1.431-1.042l4.178-8.478c0.243-0.493,0.641-0.494,0.885,0L20.54,8.838z"/>
</g>
</svg>
