<svg id="Layer_1" data-name="Layer 1" xmlns="http://www.w3.org/2000/svg" width="48" height="48" viewBox="0 0 48 48"><defs><style>.cls-1{fill:#06c;}.cls-2{fill:#fff;}</style></defs><title>48px_sourcefile_20170718_multi</title><circle class="cls-1" cx="24" cy="23.91" r="24"/><path class="cls-2" d="M28.61,18.6H25.05a2.6,2.6,0,0,0-2.36,2c-.08.47-.15,1-.24,1.42-.34,1.8-.67,3.58-1,5.38-.28,1.56.41,2.46,2,2.46,2.18,0,4.37,0,6.54,0a2.66,2.66,0,0,0,2.78-2.38c.38-2.21.77-4.42,1.13-6.64.24-1.42-.45-2.23-1.91-2.23C30.82,18.6,29.72,18.6,28.61,18.6ZM17.42,22.35h0c.34,0,.66,0,1,0,.79,0,1.09-.24,1.24-1s.28-1.48.39-2.23c.09-.6-.15-.9-.75-.92-.77,0-1.56,0-2.34,0a1,1,0,0,0-1,.83q-.25,1.27-.45,2.53a.65.65,0,0,0,.67.83C16.56,22.37,17,22.35,17.42,22.35Zm-.34,2.31h0c-.39,0-.79,0-1.16,0a1,1,0,0,0-1.11.9c-.17.79-.3,1.56-.41,2.34-.09.64.17.92.81.94s1.48,0,2.21,0a1.05,1.05,0,0,0,1.14-1c.15-.79.3-1.57.41-2.36.09-.56-.15-.84-.73-.88Zm13.13,6.56H29a1,1,0,0,0-1.05.84c-.17.82-.32,1.65-.43,2.47-.07.56.17.84.75.86.79,0,1.59,0,2.38,0a.94.94,0,0,0,1-.77c.19-.88.34-1.74.47-2.64.07-.49-.21-.77-.71-.77Zm-8.85-16c.39-.06,1,.21,1.18-.47a6.41,6.41,0,0,0,.22-1.31c0-.17-.19-.49-.3-.49a7.37,7.37,0,0,0-1.58,0c-.15,0-.34.24-.41.41a2.69,2.69,0,0,0-.13.67C20.14,15.19,20.14,15.19,21.36,15.19ZM16.91,31.11a1.81,1.81,0,0,0-.64,0,1.09,1.09,0,0,0-.58.43,8,8,0,0,0-.26,1.37q-.08.51.45.51H17.1a.6.6,0,0,0,.66-.58c0-.21.08-.41.11-.64C18.06,31.11,18.06,31.11,16.91,31.11Zm7.18,4.33c1.16,0,1.16,0,1.35-1.16a2.94,2.94,0,0,0,.09-.69c0-.15-.13-.41-.21-.41a6.26,6.26,0,0,0-1.78.06c-.22.06-.34.64-.43,1C22.88,35.44,22.89,35.44,24.09,35.44ZM12.69,19.26c.84,0,1.07-.26,1.07-1,0-.45-.36-.34-.6-.34-.62,0-.88.26-.83,1C12.36,19.07,12.66,19.22,12.69,19.26Zm11-2.68c.82,0,1-.19,1-.9,0-.47-.28-.43-.58-.43-.62,0-.84.22-.79.94C23.33,16.37,23.63,16.52,23.66,16.58Z"/><path class="cls-2" d="M35.66,13.33c-.15.69-.32,1.39-.45,2.1-.17.88-.47,1.14-1.39,1.14-.66,0-1.33,0-2,0s-.92-.28-.82-1,.26-1.58.41-2.34a1,1,0,0,1,1.09-.86c.69,0,1.41,0,2.1,0a1.11,1.11,0,0,1,1.05.49Z"/><path class="cls-2" d="M28.61,18.6H32a1.72,1.72,0,0,1,1.91,2.23l-1.12,6.64A2.64,2.64,0,0,1,30,29.85c-2.18,0-4.37,0-6.54,0-1.54,0-2.25-.92-2-2.46.34-1.8.67-3.58,1-5.38.09-.47.17-1,.24-1.42a2.62,2.62,0,0,1,2.36-2Z"/><path class="cls-2" d="M17.42,22.35c-.43,0-.86,0-1.28,0a.64.64,0,0,1-.67-.83q.2-1.27.45-2.53a1,1,0,0,1,1-.83c.77,0,1.56,0,2.34,0,.6,0,.84.32.75.92s-.24,1.5-.39,2.23-.45,1-1.24,1c-.36,0-.68,0-1,0Z"/><path class="cls-2" d="M17.08,24.66c.39,0,.79,0,1.16,0,.56,0,.81.32.73.88-.13.79-.26,1.57-.41,2.36a1.08,1.08,0,0,1-1.14,1c-.73,0-1.48,0-2.21,0s-.88-.3-.81-.94c.11-.79.24-1.57.41-2.34a1,1,0,0,1,1.11-.9c.39,0,.77,0,1.16,0Z"/><path class="cls-2" d="M30.21,31.22h1.22c.51,0,.79.28.71.77-.11.88-.28,1.76-.47,2.64a1,1,0,0,1-1,.77c-.79,0-1.59,0-2.38,0-.58,0-.82-.3-.75-.86.11-.82.24-1.65.43-2.47A1,1,0,0,1,29,31.22Z"/><path class="cls-2" d="M21.36,15.19c-1.22,0-1.22,0-1-1.18a2.69,2.69,0,0,1,.13-.67c.08-.17.26-.41.41-.41a7.37,7.37,0,0,1,1.58,0c.13,0,.32.34.3.49a6.2,6.2,0,0,1-.22,1.31C22.35,15.39,21.75,15.13,21.36,15.19Z"/><path class="cls-2" d="M16.91,31.11c1.14,0,1.14,0,1,1.12,0,.21-.08.41-.11.64a.6.6,0,0,1-.66.58H15.88q-.53,0-.45-.51a8.4,8.4,0,0,1,.26-1.37,1,1,0,0,1,.58-.43A1.47,1.47,0,0,1,16.91,31.11Z"/><path class="cls-2" d="M24.09,35.44c-1.2,0-1.22,0-1-1.2.08-.36.21-.94.43-1a5.65,5.65,0,0,1,1.78-.06c.07,0,.21.26.21.41a3.08,3.08,0,0,1-.09.69C25.24,35.44,25.24,35.44,24.09,35.44Z"/><path class="cls-2" d="M12.69,19.26s-.34-.17-.36-.34c-.06-.69.21-1,.83-1,.24,0,.58-.09.6.34C13.78,19,13.56,19.26,12.69,19.26Z"/><path class="cls-2" d="M23.66,16.58c-.06-.06-.34-.21-.36-.39-.06-.71.17-.94.79-.94.28,0,.6-.06.58.43C24.64,16.39,24.49,16.58,23.66,16.58Z"/></svg>