<svg width="76" height="75" viewBox="0 0 76 75" fill="none" xmlns="http://www.w3.org/2000/svg">
<path fill-rule="evenodd" clip-rule="evenodd" d="M47.0191 23.6462C46.8858 20.6049 45.7133 18.5203 44.1708 17.1707C42.5724 15.7723 40.4087 15.021 38.162 15.021C33.7356 15.021 29.5277 17.8441 29.2293 23.6554C29.267 28.2718 33.2029 32.2821 38.225 32.2821C43.1348 32.2821 46.9887 28.4808 47.0191 23.6462ZM26.229 23.5885C26.9346 8.16515 49.4145 8.16515 50.0193 23.5885C50.0193 30.141 44.7774 35.2821 38.225 35.2821C31.5717 35.2821 26.229 29.9393 26.229 23.5885Z" fill="black"/>
<path fill-rule="evenodd" clip-rule="evenodd" d="M36.684 36.9072H39.9675L39.9923 36.9084C44.5462 37.1199 49.0257 38.7071 52.8885 41.6865L52.8943 41.6911C56.927 44.8394 59.1657 49.3062 59.1657 54.2338V58.4677C59.1657 60.7872 57.6967 62.6381 55.6806 62.7874L55.6411 62.7903H21.0104L20.9709 62.7874C18.9548 62.6381 17.4858 60.7872 17.4858 58.4677V54.2338C17.4858 49.3062 19.7245 44.8394 23.7572 41.6911L23.763 41.6865C27.6258 38.707 32.1053 37.1199 36.6592 36.9084L36.684 36.9072ZM36.7339 39.9072C32.6171 40.1034 28.5965 41.5393 25.148 44.1982C21.6936 46.8964 20.0185 50.4932 20.0185 54.2338V58.4677C20.0185 59.1611 20.4089 59.7226 21.0951 59.7903H55.5564C56.2426 59.7226 56.633 59.1611 56.633 58.4677V54.2338C56.633 50.4932 54.9579 46.8964 51.5034 44.1982C48.0549 41.5392 44.0344 40.1034 39.9176 39.9072H36.7339Z" fill="black"/>
<path d="M59.1924 14.5161C56.269 14.5161 53.5472 15.3226 51.2287 16.633C52.2368 18.5484 52.9424 20.8669 53.0432 23.5887V23.6895C53.0432 28.2258 51.0271 32.258 47.8013 34.9798C50.4222 37.9032 54.5553 39.7177 59.0916 39.7177C67.0553 39.7177 73.5069 34.0726 73.5069 27.1169C73.6077 20.0605 67.1561 14.5161 59.1924 14.5161Z" fill="black"/>
</svg>
