<?xml version="1.0" encoding="UTF-8" standalone="no"?>
<svg
   xmlns:dc="http://purl.org/dc/elements/1.1/"
   xmlns:cc="http://creativecommons.org/ns#"
   xmlns:rdf="http://www.w3.org/1999/02/22-rdf-syntax-ns#"
   xmlns:svg="http://www.w3.org/2000/svg"
   xmlns="http://www.w3.org/2000/svg"
   xmlns:sodipodi="http://sodipodi.sourceforge.net/DTD/sodipodi-0.dtd"
   xmlns:inkscape="http://www.inkscape.org/namespaces/inkscape"
   id="svg2"
   version="1.1"
   inkscape:version="0.48.4 r9939"
   width="35"
   height="35"
   sodipodi:docname="f2.svg">
  <sodipodi:namedview
     pagecolor="#ffffff"
     bordercolor="#666666"
     borderopacity="1"
     objecttolerance="10"
     gridtolerance="10"
     guidetolerance="10"
     inkscape:pageopacity="0"
     inkscape:pageshadow="2"
     inkscape:window-width="996"
     inkscape:window-height="632"
     id="namedview10"
     showgrid="false"
     inkscape:zoom="3.5881183"
     inkscape:cx="102.89186"
     inkscape:cy="58.62543"
     inkscape:window-x="0"
     inkscape:window-y="0"
     inkscape:window-maximized="0"
     inkscape:current-layer="svg2" />
  <metadata
     id="metadata4">
    <rdf:RDF>
      <cc:Work
         rdf:about="">
        <dc:format>image/svg+xml</dc:format>
        <dc:type
           rdf:resource="http://purl.org/dc/dcmitype/StillImage" />
        <dc:title></dc:title>
      </cc:Work>
    </rdf:RDF>
  </metadata>
  <defs
     id="defs6" />
  <path
     style="fill:#999"
     d="m 25.997362,21.516621 q -0.848239,2.773972 -3.1637,4.470447 -2.315462,1.696479 -5.226984,1.696479 -2.91152,0 -5.226982,-1.696479 -2.315462,-1.696475 -3.1637,-4.470447 -0.1834029,-0.573133 0.091701,-1.111882 0.2751046,-0.538745 0.8711637,-0.722147 0.573134,-0.183405 1.11188,0.0917 0.538746,0.275105 0.722149,0.871165 0.573134,1.834033 2.120596,2.968838 1.547462,1.134806 3.473192,1.134806 1.925732,0 3.473193,-1.134806 1.547462,-1.134805 2.120597,-2.968838 0.183402,-0.59606 0.733611,-0.871165 0.550208,-0.275104 1.123343,-0.0917 0.573134,0.183402 0.848238,0.722147 0.275104,0.538749 0.0917,1.111882 z m -11.32513,-9.972538 q 0,1.215045 -0.859701,2.074746 -0.859701,0.859701 -2.074745,0.859701 -1.215045,0 -2.0747457,-0.859701 -0.8597009,-0.859701 -0.8597009,-2.074746 0,-1.215048 0.8597009,-2.0747491 0.8597007,-0.8597009 2.0747457,-0.8597009 1.215044,0 2.074745,0.8597009 0.859701,0.8597011 0.859701,2.0747491 z m 11.737786,0 q 0,1.215045 -0.859701,2.074746 -0.859701,0.859701 -2.074745,0.859701 -1.215045,0 -2.074745,-0.859701 -0.859702,-0.859701 -0.859702,-2.074746 0,-1.215048 0.859702,-2.0747491 0.8597,-0.8597009 2.074745,-0.8597009 1.215044,0 2.074745,0.8597009 0.859701,0.8597011 0.859701,2.0747491 z m 5.868892,5.868894 q 0,-2.980298 -1.169193,-5.696956 Q 29.940523,8.999364 27.980406,7.0392448 26.020287,5.0791256 23.303632,3.9099321 20.586976,2.7407354 17.606678,2.7407354 q -2.980297,0 -5.696952,1.1691967 Q 9.1930706,5.0791256 7.2329519,7.0392448 5.272834,8.999364 4.1036399,11.716021 q -1.1691936,2.716658 -1.1691936,5.696956 0,2.980302 1.1691936,5.696959 1.1691941,2.716658 3.129312,4.676777 1.9601187,1.960121 4.6767741,3.129314 2.716655,1.169194 5.696952,1.169194 2.980298,0 5.696954,-1.169194 2.716655,-1.169193 4.676774,-3.129314 1.960117,-1.960119 3.129311,-4.676777 1.169193,-2.716657 1.169193,-5.696959 z m 2.934447,0 q 0,4.791407 -2.361313,8.837735 -2.36131,4.04633 -6.407638,6.407644 -4.046326,2.361314 -8.837728,2.361314 -4.7914,0 -8.8377265,-2.361314 Q 4.7226249,30.297042 2.3613124,26.250712 0,22.204384 0,17.412977 0,12.621574 2.3613124,8.5752454 4.7226249,4.5289166 8.7689515,2.1676024 q 4.0463265,-2.36131391 8.8377265,-2.36131391 4.791402,0 8.837728,2.36131391 4.046328,2.3613142 6.407638,6.407643 2.361313,4.0463286 2.361313,8.8377316 z"
     id="path8"
     inkscape:connector-curvature="0" />
</svg>
