<!DOCTYPE svg PUBLIC "-//W3C//DTD SVG 1.1//EN" "http://www.w3.org/Graphics/SVG/1.1/DTD/svg11.dtd" [
	<!ENTITY ns_flows "http://ns.adobe.com/Flows/1.0/">
]><svg xmlns="http://www.w3.org/2000/svg" width="16" height="16" viewBox="0 0 16 16" preserveAspectRatio="xMinYMid meet" overflow="visible"><path d="M8 0C3.6 0 0 3.6 0 8s3.6 8 8 8 8-3.6 8-8-3.6-8-8-8zm0 14c-3.3 0-6-2.7-6-6s2.7-6 6-6 6 2.7 6 6-2.7 6-6 6zM5.8 6.6c-.6 0-1-.4-1-1C4.7 4.5 5.9 3 8.1 3c1.4 0 3.4 1 3.4 2.6 0 .8-.5 1.5-1.5 1.9-1.5.5-.7 1.6-2 1.6-.6 0-1-.3-1-.9 0-1.2 1.2-1.8 1.2-3 0-.3-.1-.7-.5-.7s-.4.4-.4.7c-.1.9-.6 1.4-1.5 1.4zm2.1 6.5c-.8 0-1.5-.7-1.5-1.5S7 10 7.9 10c.8 0 1.5.7 1.5 1.5s-.7 1.6-1.5 1.6z" fill="#888"/></svg>