<svg id="Layer_1" data-name="Layer 1" xmlns="http://www.w3.org/2000/svg" viewBox="0 0 1231.24 314.44" preserveAspectRatio="xMinYMid meet"><defs><style>.cls-1{fill:#f48020;}.cls-2,.cls-3{fill:#383738;stroke:#4a4a4c;}.cls-2{stroke-width:2.37px;}.cls-3{stroke-width:2.38px;}.cls-4{fill:#585858;}</style></defs><title>Moodle_Logo_UseonBlack_RGB</title><path class="cls-1" d="M1086.3,235.34a53.42,53.42,0,0,0,16.71,29q13.26,12.27,29.48,12.27,11.29,0,24.56-5.89,16.23-6.88,16.22-16.22l58-.49q-12.29,29-41.76,45.2-27.52,15.23-60.43,15.24-42.25,0-70-26.29t-27.75-68.54q0-43.73,27.75-69.51t72-25.8q48.15,0,75.17,31.94,25.07,29.47,25.06,79.1Zm89.91-33.91q-3.43-17.69-14.73-29-12.8-12.28-29.49-12.29-17.21,0-28.74,11.79t-15.47,29.48Z"/><path class="cls-1" d="M965.45,308.54V0h55V308.54Z"/><path class="cls-1" d="M892.69,308.54V290.36q-7.38,9.83-25.06,15.72a92.31,92.31,0,0,1-30,5.41q-39.31,0-63.13-27T750.7,217.65q0-39.3,23.34-65.84t62.15-26.53q43.71,0,56.5,23.58V0h53.55V308.54Zm0-102.68q0-14.75-14-28.26t-28.74-13.51q-21.12,0-33.41,17.2-10.8,15.24-10.8,37.33,0,21.63,10.8,36.85,12.29,17.71,33.41,17.69,12.78,0,27.76-12t15-24.81Z"/><path class="cls-1" d="M647,313.45q-41.77,0-69-26.53t-27.27-68.3q0-41.73,27.27-68.28t69-26.53q41.75,0,69.27,26.53t27.52,68.28q0,41.79-27.52,68.3T647,313.45ZM647,168q-19.89,0-30.58,15.07t-10.68,35.79q0,20.73,9.94,35.05,11.43,16.31,31.32,16.28t31.32-16.28q10.44-14.31,10.44-35.05t-9.94-35Q667.42,168,647,168Z"/><path class="cls-1" d="M448.07,313.45q-41.76,0-69-26.53t-27.27-68.3q0-41.73,27.27-68.28t69-26.53q41.74,0,69.28,26.53t27.5,68.28q0,41.79-27.5,68.3T448.07,313.45Zm0-145.43q-19.89,0-30.59,15.07t-10.69,35.79q0,20.73,9.94,35.05,11.43,16.31,31.34,16.28t31.32-16.28q10.42-14.31,10.44-35.05t-9.94-35Q468.45,168,448.07,168Z"/><path class="cls-1" d="M288.89,309.11V201q0-33.9-28-33.9t-28,33.9V309.11h-55V201q0-33.9-27.52-33.9-28,0-28,33.9V309.11h-55V194.65q0-35.37,24.56-53.54,21.61-16.22,58.46-16.22,37.35,0,55,19.16,15.23-19.16,55.51-19.16,36.86,0,58.45,16.22,24.57,18.16,24.57,53.54V309.11Z"/><path class="cls-2" d="M.76,145.76"/><path class="cls-3" d="M1.73,145.32"/><path class="cls-4" d="M173.86,116.85l55.08-40.1-.7-2.44C135,83.92,80.42,96.44,0,144.13l.73,2.38,21-.67c15.17.52,30.85,1.26,46,1.32-1,24.09.83,32.65.83,32.65,51.92,17.58,101.22,1.53,127.14-43.9A248.72,248.72,0,0,0,173.86,116.85Z"/><path class="cls-4" d="M113.78,110c-.3-1.08-2.23-1.48-4.28-.9a4.73,4.73,0,0,0-3.14,2.19c-18.53,5-49.16,13.72-70.73,21l-1.33.45c-16.68,5.61-24.73,8.49-25.22,12.55-2.29,18.44-.87,42.18-.86,42.48l.19,6.4c-9.74,27.56.06,49.6,8.38,69.77.06-24.92,1.07-45.22-6-71-.2-3.82-1.49-30.36.61-47.34.34-2.75,11.65-6.56,23.63-10.59l1.33-.44c22-7.42,53.57-16.39,71.9-21.29a6.75,6.75,0,0,0,2.29-.25C112.64,112.43,114.08,111.09,113.78,110Z"/></svg>