<?xml version="1.0" encoding="UTF-8"?><svg id="Layer_1" xmlns="http://www.w3.org/2000/svg" viewBox="0 0 4890.54 912" preserveAspectRatio="xMinYMid meet"><defs><style>.cls-1{fill:#f17f21;}.cls-2{fill:#333;}.cls-3,.cls-4{fill:#424343;}.cls-4{stroke:#424343;stroke-miterlimit:10;stroke-width:17.01px;}</style></defs><g><path class="cls-4" d="m3231.77,257.7c0-17.7,15.17-32.88,32.87-32.88h9.27c15.18,0,24.45,7.59,33.72,19.4l358.29,456.92v-445.12c0-17.7,14.33-32.88,32.88-32.88s32.03,15.18,32.03,32.88v532.8c0,17.7-12.65,31.19-30.35,31.19h-3.37c-14.33,0-24.45-8.43-34.57-20.23l-365.87-467.89v456.93c0,17.7-14.34,32.87-32.88,32.87s-32.03-15.17-32.03-32.87V257.7Z"/><path class="cls-4" d="m4026.76,821.59c-119.72,0-217.5-91.89-217.5-226.78v-1.69c0-125.61,88.51-226.78,209.07-226.78,128.99,0,202.33,105.38,202.33,220.87,0,17.71-14.33,30.36-30.35,30.36h-315.3c9.27,94.42,75.88,147.53,153.44,147.53,53.95,0,93.58-21.08,125.61-50.58,5.06-4.22,10.96-7.59,18.55-7.59,16.02,0,28.66,12.65,28.66,27.82,0,7.59-3.37,15.18-10.12,21.08-41.31,39.62-90.2,65.75-164.39,65.75Zm128.98-252.07c-6.74-79.25-52.27-148.37-139.1-148.37-75.87,0-133.2,63.23-141.63,148.37h280.73Z"/><path class="cls-4" d="m4307.5,695.98v-263.03h-35.41c-15.18,0-28.66-13.48-28.66-28.66,0-16.02,13.48-28.66,28.66-28.66h35.41v-102.85c0-17.7,13.49-32.87,32.03-32.87s32.88,15.17,32.88,32.87v102.85h112.97c16.02,0,29.51,13.49,29.51,28.66,0,16.02-13.49,28.66-29.51,28.66h-112.97v254.6c0,53.11,29.51,72.5,73.34,72.5,22.77,0,34.57-5.9,39.62-5.9,15.18,0,27.82,12.65,27.82,27.82,0,11.81-7.59,21.07-18.55,25.29-18.55,7.59-38.78,11.81-64.07,11.81-69.97,0-123.09-34.57-123.09-123.09Z"/></g><g><path class="cls-1" d="m782.79,820.83v-275.2c0-57.53-23.77-86.31-71.28-86.31s-71.31,28.78-71.31,86.31v275.2h-140.1v-275.2c0-57.53-23.37-86.31-70.08-86.31s-71.28,28.78-71.28,86.31v275.2h-140.12v-291.45c0-60.05,20.84-105.5,62.54-136.33,36.7-27.53,86.34-41.31,148.86-41.31s110.08,16.27,140.12,48.8c25.84-32.53,72.95-48.8,141.36-48.8,62.54,0,112.13,13.78,148.83,41.31,41.69,30.83,62.54,76.28,62.54,136.33v291.45h-140.1Z"/><path class="cls-1" d="m2499.9,819.55V33.38h140.22v786.17h-140.22Z"/><path class="cls-1" d="m2321.2,819.55v-46.31c-12.54,16.68-33.81,30.03-63.84,40.05-26.73,9.17-52.17,13.77-76.38,13.77-66.76,0-120.37-22.95-160.85-68.86-40.48-45.88-60.73-102.66-60.73-170.24s19.71-122.79,59.48-167.75c35.2-39.8,92.41-67.6,158.35-67.6,74.26,0,117.64,27.88,143.97,60.08V33.38h136.45v786.17h-136.45Zm0-261.63c0-25.04-11.91-49.04-35.69-72-23.76-22.95-48.19-34.44-73.22-34.44-35.88,0-64.26,14.64-85.13,43.83-18.36,25.91-27.54,57.58-27.54,95.14s9.17,68.05,27.54,93.9c20.86,30.07,49.25,45.06,85.13,45.06,21.69,0,45.26-10.2,70.72-30.66,25.46-20.44,38.19-41.49,38.19-63.22v-77.61Z"/><path class="cls-1" d="m1695.29,832.07c-70.96,0-129.57-22.54-175.89-67.61-46.32-45.06-69.5-103.04-69.5-174.02s23.17-128.93,69.5-173.99c46.32-45.08,104.93-67.6,175.89-67.6s129.78,22.53,176.5,67.6c46.73,45.06,70.11,103.09,70.11,173.99s-23.39,128.95-70.11,174.02c-46.73,45.08-105.59,67.61-176.5,67.61Zm0-370.56c-33.81,0-59.79,12.8-77.94,38.38-18.15,25.6-27.21,55.99-27.21,91.21s8.39,65,25.32,89.31c19.43,27.68,46.02,41.48,79.82,41.48s60.35-13.8,79.8-41.48c17.73-24.32,26.59-54.1,26.59-89.31s-8.44-65.01-25.32-89.31c-19.45-26.85-46.47-40.28-81.07-40.28Z"/><path class="cls-1" d="m1188.29,832.07c-70.94,0-129.57-22.54-175.89-67.61-46.32-45.06-69.47-103.04-69.47-174.02s23.15-128.93,69.47-173.99c46.32-45.08,104.95-67.6,175.89-67.6s129.75,22.53,176.53,67.6c46.73,45.06,70.09,103.09,70.09,173.99s-23.36,128.95-70.09,174.02c-46.77,45.08-105.61,67.61-176.53,67.61Zm0-370.56c-33.78,0-59.76,12.8-77.94,38.38-18.13,25.6-27.23,55.99-27.23,91.21s8.44,65,25.32,89.31c19.43,27.68,46.07,41.48,79.85,41.48s60.35-13.8,79.8-41.48c17.73-24.32,26.62-54.1,26.62-89.31s-8.46-65.01-25.34-89.31c-19.43-26.85-46.44-40.28-81.07-40.28Z"/><path class="cls-1" d="m2806.18,633.03c3,33.38,46.38,105.14,117.71,105.14s102.26-40.08,103.89-56.33l147.72-1.25c-16.11,49.28-81.61,153.99-254.16,153.99-71.78,0-137.46-22.34-184.64-66.98-47.15-44.65-70.72-102.84-70.72-174.64s23.57-133.31,70.72-177.13c47.17-43.83,108.3-65.73,183.41-65.73,81.78,0,145.62,27.12,191.52,81.37,42.58,50.07,63.86,117.26,63.86,201.55h-369.32Zm229.1-86.39c-5.85-30.06-18.36-54.63-37.53-73.86-21.73-20.85-46.77-31.3-75.13-31.3s-53.63,10-73.25,30.03c-19.61,20.04-32.75,45.06-39.42,75.12h225.33Z"/><path class="cls-2" d="m490.78,330.55l139.17-101.6-1.79-6.21c-251.04,30.71-365.28,52.52-581.56,177.88l2,5.7,17.2.16c-1.6,17.32-4.33,60.11-.81,124.44-24,69.46-.61,116.64,21.35,167.94,3.47-53.46,3.11-111.86-13.29-170.03-3.41-63.89-.59-105.93.95-122.27l143.37,1.37s-.94,43.3,4.24,84.06c128.13,45.02,256.97-.15,325.33-111.13-18.92-21.28-56.16-50.31-56.16-50.31Z"/></g><path class="cls-3" d="m4633.7,836.41h-19.36v-96.8h-32.89v-16.68h85.46v16.68h-33.21v96.8Zm94.44,0l-31.64-87.98h-1.26l.94,20.3v67.68h-18.73v-113.48h29.43l30.85,87.98,31.95-87.98h28.33v113.48h-19.99v-66.1l.94-21.56h-1.26l-33.21,87.67h-16.37Z"/></svg>