<svg id="Layer_1" data-name="Layer 1" xmlns="http://www.w3.org/2000/svg" viewBox="0 0 27.26 27.15"><defs><style>.cls-1{fill:#959494;}</style></defs><path class="cls-1" d="M8.32,20a2.79,2.79,0,0,0,2,1.83s.62,4.68-5.06,6.57A5.33,5.33,0,0,1,1.37,28a4.15,4.15,0,0,0,1.68-2.4L2,26a8.87,8.87,0,0,0,1.63-2.66C4,22.07,5,18.9,8.32,20Z" transform="translate(-1.37 -1.42)"/><path class="cls-1" d="M10.75,17.05a7.09,7.09,0,0,0,2.44,2.38l-2.44,1.83A2.13,2.13,0,0,1,9,19.45Z" transform="translate(-1.37 -1.42)"/><path class="cls-1" d="M11.19,16.5A4,4,0,0,0,13.68,19s14.23-14.16,15-17.59C28.63,1.42,15.26,11.12,11.19,16.5Z" transform="translate(-1.37 -1.42)"/></svg>