<svg id="Layer_1" data-name="Layer 1" xmlns="http://www.w3.org/2000/svg" width="48" height="48" viewBox="0 0 48 48"><defs><style>.cls-1{fill:#9c0;}.cls-2{fill:#fff;}</style></defs><title>48px_sourcefile_20170718_multi</title><circle class="cls-1" cx="24" cy="24" r="24"/><path class="cls-2" d="M20.81,29.27v-1.5a6.72,6.72,0,0,1,.83-3.37,10.62,10.62,0,0,1,3-3,13.27,13.27,0,0,0,2.79-2.46,3.56,3.56,0,0,0,.68-2.12,2.24,2.24,0,0,0-1-2,4.63,4.63,0,0,0-2.7-.69,15.57,15.57,0,0,0-6.9,2l-2.19-4.41A19.12,19.12,0,0,1,24.9,9.15a10.12,10.12,0,0,1,6.6,2A6.54,6.54,0,0,1,34,16.46a7,7,0,0,1-1,3.83,14.69,14.69,0,0,1-3.82,3.64,12.61,12.61,0,0,0-2.46,2.18,3.42,3.42,0,0,0-.51,1.95v1.22Zm-.66,6.9a3.43,3.43,0,0,1,.9-2.57,3.65,3.65,0,0,1,2.64-.86,3.57,3.57,0,0,1,2.59.88,3.37,3.37,0,0,1,.92,2.55,3.45,3.45,0,0,1-.92,2.51,3.49,3.49,0,0,1-2.59.92,3.63,3.63,0,0,1-2.62-.9A3.43,3.43,0,0,1,20.16,36.17Z"/></svg>