<?xml version="1.0" encoding="utf-8"?>
<!-- Generator: Adobe Illustrator 15.1.0, SVG Export Plug-In  -->
<!DOCTYPE svg PUBLIC "-//W3C//DTD SVG 1.1//EN" "http://www.w3.org/Graphics/SVG/1.1/DTD/svg11.dtd" [
	<!ENTITY ns_flows "http://ns.adobe.com/Flows/1.0/">
]>
<svg version="1.1"
	 xmlns="http://www.w3.org/2000/svg" xmlns:xlink="http://www.w3.org/1999/xlink" xmlns:a="http://ns.adobe.com/AdobeSVGViewerExtensions/3.0/"
	 x="0px" y="0px" width="16px" height="16px" viewBox="-0.1 -0.1 16 16"
	 style="overflow:visible;enable-background:new -0.1 -0.1 16 16;" xml:space="preserve" preserveAspectRatio="xMinYMid meet">
<defs>
</defs>
<path style="fill:#99CC33;" d="M15.6,14.1L8.8,0.7c-0.5-1-1.3-1-1.8,0L0.2,14.1c-0.5,1,0,1.8,1.1,1.8h13.2
	C15.6,15.9,16.1,15.1,15.6,14.1z M12.3,11.1l-1.2,0.2c-0.1,0.2-0.2,0.4-0.3,0.7l0.7,1c-0.3,0.4-0.6,0.8-1,1l-1-0.7
	c-0.2,0.1-0.4,0.2-0.6,0.3l-0.2,1.2c-0.2,0-0.5,0.1-0.7,0.1c-0.3,0-0.5,0-0.7-0.1L7,13.6c-0.2-0.1-0.4-0.2-0.6-0.3l-1,0.7
	c-0.4-0.3-0.8-0.6-1-1L5,12c-0.1-0.2-0.2-0.4-0.3-0.7l-1.2-0.2c0-0.2-0.1-0.5-0.1-0.7c0-0.3,0-0.5,0.1-0.7l1.2-0.2
	C4.8,9.2,4.8,9,5,8.8l-0.7-1c0.3-0.4,0.6-0.8,1-1l1,0.7C6.5,7.3,6.7,7.2,7,7.2L7.2,6c0.2,0,0.5-0.1,0.7-0.1c0.3,0,0.5,0,0.7,0.1
	l0.2,1.2c0.2,0.1,0.4,0.2,0.6,0.3l1-0.7c0.4,0.3,0.8,0.6,1,1l-0.7,1C11,9,11.1,9.2,11.1,9.4l1.2,0.2c0,0.2,0.1,0.5,0.1,0.7
	C12.4,10.6,12.4,10.9,12.3,11.1z M9,10.4c0,0.6-0.5,1.1-1.1,1.1S6.8,11,6.8,10.4c0-0.6,0.5-1.1,1.1-1.1S9,9.8,9,10.4z"/>
</svg>
