<?xml version="1.0" encoding="UTF-8"?>
<svg xmlns="http://www.w3.org/2000/svg" xmlns:xlink="http://www.w3.org/1999/xlink" width="16px" height="16px" viewBox="0 0 16 16" version="1.1">
<g id="surface1">
<path style=" stroke:none;fill-rule:nonzero;fill:rgb(60%,60%,60%);fill-opacity:1;" d="M 13.144531 8.304688 L 13.144531 11.144531 C 13.144531 11.851562 12.890625 12.457031 12.386719 12.960938 C 11.886719 13.460938 11.28125 13.714844 10.570312 13.714844 L 3.144531 13.714844 C 2.433594 13.714844 1.828125 13.460938 1.324219 12.960938 C 0.824219 12.457031 0.570312 11.851562 0.570312 11.144531 L 0.570312 3.714844 C 0.570312 3.007812 0.824219 2.398438 1.324219 1.898438 C 1.828125 1.394531 2.433594 1.144531 3.144531 1.144531 L 10.570312 1.144531 C 10.945312 1.144531 11.292969 1.21875 11.617188 1.367188 C 11.707031 1.40625 11.757812 1.476562 11.777344 1.570312 C 11.792969 1.671875 11.769531 1.757812 11.695312 1.832031 L 11.257812 2.269531 C 11.199219 2.328125 11.132812 2.355469 11.054688 2.355469 C 11.035156 2.355469 11.007812 2.351562 10.972656 2.339844 C 10.835938 2.304688 10.703125 2.285156 10.570312 2.285156 L 3.144531 2.285156 C 2.75 2.285156 2.414062 2.425781 2.132812 2.707031 C 1.855469 2.984375 1.714844 3.320312 1.714844 3.714844 L 1.714844 11.144531 C 1.714844 11.535156 1.855469 11.871094 2.132812 12.152344 C 2.414062 12.429688 2.75 12.570312 3.144531 12.570312 L 10.570312 12.570312 C 10.964844 12.570312 11.300781 12.429688 11.582031 12.152344 C 11.859375 11.871094 12 11.535156 12 11.144531 L 12 8.875 C 12 8.796875 12.027344 8.730469 12.082031 8.679688 L 12.652344 8.105469 C 12.710938 8.046875 12.78125 8.019531 12.855469 8.019531 C 12.894531 8.019531 12.929688 8.027344 12.964844 8.042969 C 13.082031 8.09375 13.144531 8.179688 13.144531 8.304688 Z M 15.207031 3.9375 L 7.9375 11.207031 C 7.792969 11.347656 7.625 11.417969 7.429688 11.417969 C 7.230469 11.417969 7.0625 11.347656 6.917969 11.207031 L 3.082031 7.367188 C 2.9375 7.222656 2.867188 7.054688 2.867188 6.855469 C 2.867188 6.660156 2.9375 6.492188 3.082031 6.347656 L 4.0625 5.367188 C 4.207031 5.222656 4.375 5.152344 4.570312 5.152344 C 4.769531 5.152344 4.9375 5.222656 5.082031 5.367188 L 7.429688 7.714844 L 13.207031 1.9375 C 13.347656 1.792969 13.519531 1.722656 13.714844 1.722656 C 13.910156 1.722656 14.082031 1.792969 14.222656 1.9375 L 15.207031 2.917969 C 15.347656 3.0625 15.417969 3.230469 15.417969 3.429688 C 15.417969 3.625 15.347656 3.792969 15.207031 3.9375 Z M 15.207031 3.9375 "/>
</g>
</svg>
