<?xml version="1.0" encoding="UTF-8"?>
<svg xmlns="http://www.w3.org/2000/svg" xmlns:xlink="http://www.w3.org/1999/xlink" width="16px" height="16px" viewBox="0 0 16 16" version="1.1">
<g id="surface1">
<path style=" stroke:none;fill-rule:nonzero;fill:rgb(60%,60%,60%);fill-opacity:1;" d="M 11.714844 2.285156 L 4.285156 2.285156 C 3.894531 2.285156 3.554688 2.425781 3.277344 2.707031 C 2.996094 2.984375 2.855469 3.320312 2.855469 3.714844 L 2.855469 11.144531 C 2.855469 11.535156 2.996094 11.871094 3.277344 12.152344 C 3.554688 12.429688 3.894531 12.570312 4.285156 12.570312 L 11.714844 12.570312 C 12.105469 12.570312 12.445312 12.429688 12.722656 12.152344 C 13.003906 11.871094 13.144531 11.535156 13.144531 11.144531 L 13.144531 3.714844 C 13.144531 3.320312 13.003906 2.984375 12.722656 2.707031 C 12.445312 2.425781 12.105469 2.285156 11.714844 2.285156 Z M 14.285156 3.714844 L 14.285156 11.144531 C 14.285156 11.851562 14.035156 12.457031 13.53125 12.960938 C 13.027344 13.460938 12.421875 13.714844 11.714844 13.714844 L 4.285156 13.714844 C 3.578125 13.714844 2.972656 13.460938 2.46875 12.960938 C 1.964844 12.457031 1.714844 11.851562 1.714844 11.144531 L 1.714844 3.714844 C 1.714844 3.007812 1.964844 2.398438 2.46875 1.898438 C 2.972656 1.394531 3.578125 1.144531 4.285156 1.144531 L 11.714844 1.144531 C 12.421875 1.144531 13.027344 1.394531 13.53125 1.898438 C 14.035156 2.398438 14.285156 3.007812 14.285156 3.714844 Z M 14.285156 3.714844 "/>
</g>
</svg>
