<svg id="Layer_1" data-name="Layer 1" xmlns="http://www.w3.org/2000/svg" width="48" height="48" viewBox="0 0 48 48"><defs><style>.cls-1{fill:#06c;}.cls-2{fill:#fff;}</style></defs><title>Module Guide</title><circle class="cls-1" cx="24" cy="24" r="24"/><path id="path1" class="cls-2" d="M24.66,19.5a1.89,1.89,0,0,1,1,.28,1.09,1.09,0,0,1,.37.94,17.87,17.87,0,0,1-.94,3.66,30.22,30.22,0,0,0-1.5,5.91c.09-.09.66-.47,1.88-1.59l.37-.28,1.22,1.22-.38.38a27.77,27.77,0,0,1-2.91,2.44,3.56,3.56,0,0,1-1.69.56A1.55,1.55,0,0,1,21,32.53a1.78,1.78,0,0,1-.47-1.22c0-1.22.75-4.13,2.16-8.91-.19,0-.56.28-1.59,1.31l-.38.28-1.41-1,.38-.38a9.83,9.83,0,0,1,2.72-2.34A4.89,4.89,0,0,1,24.66,19.5Zm0-5.34a2,2,0,1,1-2,2A2,2,0,0,1,24.66,14.16ZM24,11.91A12.09,12.09,0,1,0,36.09,24,12.12,12.12,0,0,0,24,11.91ZM24,9A15,15,0,1,1,9,24,15,15,0,0,1,24,9Z"/></svg>