<svg id="Layer_1" data-name="Layer 1" xmlns="http://www.w3.org/2000/svg" width="48" height="48" viewBox="0 0 48 48"><defs><style>.cls-1{fill:#9c0;}.cls-2{fill:#fff;}</style></defs><title>48px_sourcefile_20170718_multi</title><circle class="cls-1" cx="24.13" cy="24.04" r="24"/><path class="cls-2" d="M11.26,25c.81-.84,1.59-1.72,2.44-2.53a1.2,1.2,0,0,1,1.74.11c1.46,1.48,2.94,2.94,4.41,4.42a4.25,4.25,0,0,1,.39.53c.24-.22.39-.36.54-.51,3.73-3.75,7.48-7.48,11.19-11.25a1.38,1.38,0,0,1,2.27,0c.53.6,1.14,1.14,1.71,1.72a1.24,1.24,0,0,1,0,1.88q-7.34,7.34-14.68,14.66a1.23,1.23,0,0,1-1.91,0q-3.85-3.83-7.69-7.69c-.17-.17-.28-.37-.43-.54C11.26,25.56,11.26,25.28,11.26,25Z"/><path class="cls-2" d="M11.68,24.1h0c.26-.28.54-.56.81-.86V24A11.76,11.76,0,0,1,24.24,12.26a10.41,10.41,0,0,1,7.82,2.94,1.86,1.86,0,0,1,.88-.51,11.47,11.47,0,0,0-8.68-3.41A12.75,12.75,0,0,0,11.51,24c0,.38,0-.22,0,.15Z"/><path class="cls-2" d="M36.16,19.54l-.77.77A11.73,11.73,0,0,1,24.26,35.8c-5.38,0-9.75-3-11.31-7.69l-1.29-1.29c1.29,6.08,6.23,10,12.6,10A12.68,12.68,0,0,0,36.16,19.54Z"/></svg>