<?xml version="1.0" encoding="UTF-8"?>
<svg width="397px" height="143px" viewBox="0 0 397 143" version="1.1" xmlns="http://www.w3.org/2000/svg" xmlns:xlink="http://www.w3.org/1999/xlink">
    <title>Artboard</title>
    <g id="Artboard" stroke="none" stroke-width="1" fill="none" fill-rule="evenodd">
        <g id="Group-35" transform="translate(-0.001687, 13.208248)" fill="#000000">
            <path d="M397.000898,44.1490468 L397.001687,129.791752 L0.00168679233,129.791752 L-5.52891066e-13,114.505694 C19.9922706,109.733459 40.7682657,103.641267 61.2968919,97.4857628 C118.60238,80.3027243 173.980263,62.6263318 205.001687,71.7917523 C249.001687,84.7917523 322.379915,109.730776 347.690801,95.2612642 C357.055829,89.9075448 364.096912,80.9709575 370.846028,71.8357487 L371.938241,70.3531569 C372.119957,70.1059463 372.30154,69.8587242 372.48303,69.6115575 L373.571176,68.1297558 C380.615582,58.5439623 387.640823,49.2435356 397.000898,44.1490468 Z" id="Combined-Shape" fill-opacity="0.0398546766"></path>
            <path d="M334.042367,0.0243766088 C349.707513,0.565784522 373.310512,10.3165026 397.002238,30.5236599 L397.001687,129.791752 L0.00168679233,129.791752 L0.0016544655,99.927694 C50.5437827,73.769355 61.0852748,60.467155 119.853029,76.742712 C179.837671,93.3552824 252.492575,100.020447 270.142307,65.3204032 C287.792038,30.6203596 304.306651,-1.0033233 334.042367,0.0243766088 Z" id="Combined-Shape" fill-opacity="0.045322"></path>
        </g>
    </g>
</svg>