<?xml version="1.0" encoding="UTF-8"?>
<svg width="1282px" height="65px" viewBox="0 0 1282 65" version="1.1" xmlns="http://www.w3.org/2000/svg" xmlns:xlink="http://www.w3.org/1999/xlink">
    <title>Path 2 Copy + Path 2 + Path 2 Copy 2 Mask Copy</title>
    <g id="Login-Page" stroke="none" stroke-width="1" fill="none" fill-rule="evenodd">
        <g id="Path-2-Copy-+-Path-2-+-Path-2-Copy-2-Mask-Copy" transform="translate(0.000000, 0.000000)" fill="#48BAB6">
            <path d="M0.00577151343,7.50476562 C185.242047,6.2295327 384.505024,19.6120737 683.258326,29.061471 C931.861587,36.924651 1059.03158,17.1121206 1281.00518,22.8788645 L1281.00547,65 L0.00547353351,65 Z" id="Combined-Shape" opacity="0.278144621"></path>
            <path d="M1281.00598,2.76714093 L1281.00547,65 L0.00547353351,65 L0.0125941879,31.0328449 C211.829584,18.8461247 331.863721,58.9168772 567.871814,43.1460527 C886.822607,21.8327284 1085.60634,-9.51705429 1281.00598,2.76714093 Z" id="Combined-Shape" opacity="0.200000003"></path>
            <path d="M1001.87181,16.7975788 C1125.98991,37.3665434 1214.30085,22.6981344 1281.01114,6.92821478 L1281.00547,65 L0.00547353351,65 L-7.10542736e-14,46.0019318 C49.5147775,47.5747929 103.238671,47.2645787 164.871814,43.1460527 C550.871814,17.3522835 760.871814,-23.1411606 1001.87181,16.7975788 Z" id="Combined-Shape" opacity="0.200000003"></path>
        </g>
    </g>
</svg>