<?xml version="1.0" encoding="UTF-8"?>
<svg width="398.140745px" height="144.076633px" viewBox="0 0 398.140745 144.076633" version="1.1" xmlns="http://www.w3.org/2000/svg" xmlns:xlink="http://www.w3.org/1999/xlink">
    <title>qubits-full-logo</title>
    <g id="Logo" stroke="none" stroke-width="1" fill="none" fill-rule="evenodd">
        <g id="Artboard" transform="translate(-34.000000, 0.000000)">
            <g id="qubits-full-logo" transform="translate(34.000000, -0.000000)">
                <g id="Qubits-Copy-3" transform="translate(166.891745, 49.335500)" fill="#116CBF" fill-rule="nonzero">
                    <path d="M8.9775,21.3465 C8.9775,17.9455 10.184,15.0385 12.597,12.6255 C15.01,10.2125 17.917,9.006 21.318,9.006 C24.719,9.006 27.6355,10.2125 30.0675,12.6255 C32.4805,15.0385 33.687,17.9455 33.687,21.3465 C33.687,24.7475 32.4805,27.6545 30.0675,30.0675 C27.6355,32.4805 24.719,33.687 21.318,33.687 C17.917,33.687 15.01,32.4805 12.597,30.0675 C10.184,27.6545 8.9775,24.7475 8.9775,21.3465 Z M38.1615,48.279 C39.3205,48.279 40.337,47.88 41.211,47.082 C42.123,46.246 42.598,45.2105 42.636,43.9755 C42.693,42.7405 42.3035,41.667 41.4675,40.755 L41.382,40.6695 L41.268,40.5555 C41.173,40.4415 41.0685,40.3275 40.9545,40.2135 C40.6125,39.9095 40.242,39.6055 39.843,39.3015 C38.684,38.3895 37.373,37.5725 35.91,36.8505 C38.019,34.8555 39.6625,32.547 40.8405,29.925 C42.0565,27.208 42.6645,24.3485 42.6645,21.3465 C42.6645,15.4565 40.5745,10.431 36.3945,6.27 C32.2335,2.09 27.208,0 21.318,0 C15.447,0 10.4215,2.09 6.2415,6.27 C2.0805,10.431 0,15.4565 0,21.3465 C0,27.2175 2.0805,32.243 6.2415,36.423 C10.4215,40.584 15.447,42.6645 21.318,42.6645 C25.213,42.6645 28.6235,43.3485 31.5495,44.7165 C32.4615,45.1345 33.2785,45.6095 34.0005,46.1415 C34.2285,46.2935 34.4375,46.455 34.6275,46.626 C34.6845,46.664 34.7415,46.7115 34.7985,46.7685 L34.827,46.797 L34.8555,46.8255 C35.7485,47.7945 36.8505,48.279 38.1615,48.279 Z" id="Shape"></path>
                    <path d="M67.9155,42.6645 C62.8045,42.6645 58.444,40.85 54.834,37.221 C51.205,33.611 49.3905,29.2505 49.3905,24.1395 L49.3905,4.503 C49.3905,3.268 49.8275,2.2135 50.7015,1.3395 C51.5755,0.4465 52.6395,0 53.8935,0 C55.1285,0 56.183,0.4465 57.057,1.3395 C57.931,2.2135 58.368,3.268 58.368,4.503 L58.368,24.1395 C58.368,26.7805 59.299,29.032 61.161,30.894 C63.023,32.756 65.2745,33.687 67.9155,33.687 C70.5375,33.687 72.7795,32.756 74.6415,30.894 C76.5225,29.032 77.463,26.7805 77.463,24.1395 L77.463,4.503 C77.463,3.268 77.9,2.2135 78.774,1.3395 C79.648,0.4465 80.7025,0 81.9375,0 C83.1725,0 84.2365,0.4465 85.1295,1.3395 C86.0035,2.2135 86.4405,3.268 86.4405,4.503 L86.4405,24.1395 C86.4405,29.2505 84.626,33.611 80.997,37.221 C77.387,40.85 73.0265,42.6645 67.9155,42.6645 Z" id="Path"></path>
                    <path d="M104.3955,25.821 L119.5575,25.821 C120.6405,25.821 121.562,26.2105 122.322,26.9895 C123.101,27.7495 123.4905,28.671 123.4905,29.754 C123.4905,30.837 123.101,31.768 122.322,32.547 C121.562,33.307 120.6405,33.687 119.5575,33.687 L104.3955,33.687 L104.3955,25.821 Z M104.3955,8.9775 L113.943,8.9775 C115.026,8.9775 115.9475,9.367 116.7075,10.146 C117.4865,10.906 117.876,11.8275 117.876,12.9105 C117.876,13.9935 117.4865,14.9245 116.7075,15.7035 C115.9475,16.4635 115.026,16.8435 113.943,16.8435 L104.3955,16.8435 L104.3955,8.9775 Z M119.5575,42.6645 C123.1105,42.6645 126.1505,41.401 128.6775,38.874 C131.2045,36.347 132.468,33.307 132.468,29.754 C132.468,27.341 131.8315,25.099 130.5585,23.028 C129.3425,21.033 127.699,19.4845 125.628,18.3825 C126.445,16.6535 126.8535,14.8295 126.8535,12.9105 C126.8535,9.3575 125.59,6.3175 123.063,3.7905 C120.536,1.2635 117.496,0 113.943,0 L99.921,0 C98.667,0 97.603,0.4465 96.729,1.3395 C95.855,2.2135 95.418,3.268 95.418,4.503 L95.418,38.1615 C95.418,39.4155 95.855,40.4795 96.729,41.3535 C97.603,42.2275 98.667,42.6645 99.921,42.6645 L119.5575,42.6645 Z" id="Shape"></path>
                    <path d="M143.697,42.6645 C144.932,42.6645 145.9865,42.2275 146.8605,41.3535 C147.7345,40.4795 148.1715,39.4155 148.1715,38.1615 L148.1715,4.503 C148.1715,3.268 147.7345,2.2135 146.8605,1.3395 C145.9865,0.4465 144.932,0 143.697,0 C142.443,0 141.379,0.4465 140.505,1.3395 C139.631,2.2135 139.194,3.268 139.194,4.503 L139.194,38.1615 C139.194,39.4155 139.631,40.4795 140.505,41.3535 C141.379,42.2275 142.443,42.6645 143.697,42.6645 Z" id="Path"></path>
                    <path d="M167.808,8.9775 L167.808,38.1615 C167.808,39.4155 168.245,40.4795 169.119,41.3535 C170.012,42.2275 171.076,42.6645 172.311,42.6645 C173.546,42.6645 174.6005,42.2275 175.4745,41.3535 C176.3485,40.4795 176.7855,39.4155 176.7855,38.1615 L176.7855,8.9775 L186.333,8.9775 C187.568,8.9775 188.632,8.5405 189.525,7.6665 C190.399,6.7925 190.836,5.738 190.836,4.503 C190.836,3.268 190.399,2.2135 189.525,1.3395 C188.632,0.4465 187.568,0 186.333,0 L158.289,0 C157.035,0 155.971,0.4465 155.097,1.3395 C154.223,2.2135 153.786,3.268 153.786,4.503 C153.786,5.738 154.223,6.7925 155.097,7.6665 C155.971,8.5405 157.035,8.9775 158.289,8.9775 L167.808,8.9775 Z" id="Path"></path>
                    <path d="M198.702,33.687 C197.448,33.687 196.384,34.124 195.51,34.998 C194.636,35.872 194.199,36.9265 194.199,38.1615 C194.199,39.4155 194.636,40.4795 195.51,41.3535 C196.384,42.2275 197.448,42.6645 198.702,42.6645 L218.3385,42.6645 C221.8915,42.6645 224.9315,41.401 227.4585,38.874 C229.9855,36.347 231.249,33.307 231.249,29.754 C231.249,26.201 229.9855,23.161 227.4585,20.634 C224.9315,18.107 221.8915,16.8435 218.3385,16.8435 L207.1095,16.8435 C206.0265,16.8435 205.105,16.4635 204.345,15.7035 C203.566,14.9245 203.1765,13.9935 203.1765,12.9105 C203.1765,11.8275 203.566,10.906 204.345,10.146 C205.105,9.367 206.0265,8.9775 207.1095,8.9775 L226.746,8.9775 C227.981,8.9775 229.045,8.5405 229.938,7.6665 C230.812,6.7925 231.249,5.738 231.249,4.503 C231.249,3.268 230.812,2.2135 229.938,1.3395 C229.045,0.4465 227.981,0 226.746,0 L207.1095,0 C203.5565,0 200.5165,1.2635 197.9895,3.7905 C195.4625,6.3175 194.199,9.3575 194.199,12.9105 C194.199,16.4825 195.4625,19.5225 197.9895,22.0305 C200.5165,24.5575 203.5565,25.821 207.1095,25.821 L218.3385,25.821 C219.4215,25.821 220.343,26.2105 221.103,26.9895 C221.882,27.7495 222.2715,28.671 222.2715,29.754 C222.2715,30.837 221.882,31.768 221.103,32.547 C220.343,33.307 219.4215,33.687 218.3385,33.687 L198.702,33.687 Z" id="Path"></path>
                </g>
                <path d="M57.3916299,33.4027254 C62.6663835,11.0358561 72.5206143,-2.44116527 83.8065532,0.36839463 C92.0315659,2.41595718 99.4961608,11.114161 104.981911,23.5999055 C122.395144,19.9106743 136.823269,22.3655443 143.007846,31.5189088 C150.235995,42.2298815 143.054101,58.6438154 126.256627,73.968254 C144.719875,89.4811585 153.036708,103.453224 145.668858,109.712633 C139.417695,115.023353 125.447696,114.910919 108.71473,110.420915 C103.190032,128.184741 94.0929638,141.147504 83.8065532,143.708238 C72.2410818,146.587386 62.1791185,132.363182 57.0081672,108.995697 C35.6317433,114.259958 19.3284404,113.21285 15.6347047,105.057826 C11.9406898,96.9325041 19.338804,82.2630263 33.6536047,66.9648644 C21.5717275,54.8159665 14.608874,42.8964885 16.0712012,34.8893907 C17.821249,25.3068541 34.313972,25.5993386 57.2489866,34.0156394 Z" id="Combined-Shape" fill="#FFFFFF"></path>
                <g id="Group-2" transform="translate(0.000000, 0.000000)">
                    <g id="Group">
                        <path d="M83.8065532,143.708238 C100.651238,139.514865 114.306553,107.427148 114.306553,72.0383165 C114.306553,36.6494846 100.651238,4.56176761 83.8065532,0.36839463 C66.9618683,-3.82497835 53.3065532,28.2627387 53.3065532,72.0383165 C53.3065532,115.813894 66.9618683,147.901611 83.8065532,143.708238 Z" id="Oval" fill="#F73800"></path>
                        <path d="M80.8700297,147.124254 C94.365949,151.943262 105.306553,118.443755 105.306553,72.3010118 C105.306553,26.1582682 94.365949,-7.34123842 80.8700297,-2.52223037 C67.3741105,2.29677768 56.4335063,35.7962843 56.4335063,72.3010118 C56.4335063,108.805739 67.3741105,142.305246 80.8700297,147.124254 Z" id="Oval" fill="#FE7C00" style="mix-blend-mode: multiply;" transform="translate(80.870030, 72.301012) rotate(-60.000000) translate(-80.870030, -72.301012) "></path>
                        <path d="M79.3065532,141.852785 C93.0168562,143.204903 107.080358,110.280408 110.277357,68.3138673 C112.787778,26.3473263 98.5804294,-6.57716859 79.3065532,-5.22505019 C60.188,-3.8729318 46.1244981,29.0515631 48.3357497,68.3138673 C51.189337,107.576172 65.3966856,140.500666 79.3065532,141.852785 Z" id="Oval" fill="#116CBF" style="mix-blend-mode: darken;" transform="translate(79.335998, 68.313867) rotate(-300.000000) translate(-79.335998, -68.313867) "></path>
                    </g>
                    <g id="Group-4-Copy" transform="translate(57.109987, 41.473538)" fill="#FFFFFF" fill-rule="nonzero">
                        <path d="M11.5540979,27.1236664 C11.5540979,24.3974357 12.481818,22.024748 14.3372582,19.9718415 C16.1926984,17.8739193 18.4279925,16.7085976 21.0431405,16.509638 C23.6582886,16.3106784 25.9008876,17.1942072 27.7709375,19.194252 C29.6263778,21.2403352 30.5540979,23.8058005 30.5540979,26.8568861 C30.5540979,29.9079717 29.6263778,32.4994894 27.7709375,34.5976774 C25.9008876,36.6502371 23.6582886,37.5967428 21.0431405,37.4712222 C18.4279925,37.3457016 16.1926984,36.2431517 14.3372582,34.1973343 C12.481818,32.1965325 11.5540979,29.8498971 11.5540979,27.1236664 Z M33.5125917,50.5038635 C34.3818858,50.6102057 35.1442995,50.3414256 35.7998328,49.6935467 C36.4838675,49.0088255 36.8401356,48.1002394 36.8686371,46.9718676 C36.9113893,45.8444824 36.6192494,44.8348399 35.9922176,43.9476884 L35.9280893,43.8643674 L35.842585,43.7533592 C35.7713314,43.6436271 35.6929524,43.5333929 35.607448,43.4226687 C35.350935,43.1256096 35.0730459,42.8276654 34.7737807,42.528935 C33.9044866,41.6403344 32.9211866,40.8371947 31.8238809,40.1195117 C33.4057112,38.4287459 34.6383988,36.4069026 35.5219437,34.0603602 C36.43399,31.6039719 36.8900132,28.9910921 36.8900132,26.2405577 C36.8900132,20.8439396 35.3224336,16.3483064 32.1872744,12.8528233 C29.0663659,9.47131446 25.2970495,8.10035658 20.8793251,8.64078449 C16.4758515,9.17946907 12.7065351,11.299366 9.57137589,14.9008572 C6.45046741,18.3540582 4.89001317,22.2520304 4.89001317,26.6934885 C4.89001317,31.1206193 6.45046741,34.9742677 9.57137589,38.353599 C12.7065351,41.8512596 16.4758515,43.8563697 20.8793251,44.269764 C23.8007235,44.5440224 26.3587284,45.3743651 28.5533398,46.7836137 C29.2373746,47.2217187 29.8501557,47.7051815 30.3916832,48.2340184 C30.5626919,48.3874795 30.7194498,48.5480003 30.8619571,48.7155684 C30.9047092,48.7541045 30.9474614,48.8010752 30.9902136,48.8564867 L31.0115897,48.8842017 L31.0329657,48.9119229 C31.7027498,49.8512833 32.5292917,50.3835747 33.5125917,50.5038635 Z" id="Shape" transform="translate(20.890013, 29.526462) rotate(-15.000000) translate(-20.890013, -29.526462) "></path>
                    </g>
                </g>
            </g>
        </g>
    </g>
</svg>