<?xml version="1.0" encoding="UTF-8"?>
<svg width="519px" height="124px" viewBox="0 0 519 124" version="1.1" xmlns="http://www.w3.org/2000/svg" xmlns:xlink="http://www.w3.org/1999/xlink">
    <title>qubits-simple-logo-with-text</title>
    <g id="qubits-simple-logo-with-text" stroke="none" stroke-width="1" fill="none" fill-rule="evenodd">
        <g id="favicon-copy" fill="#3F8AC2">
            <path d="M40.8,110.4 L40.8,120.8 C40.8,122.567311 39.3673112,124 37.6,124 C35.8326888,124 34.4,122.567311 34.4,120.8 L34.4,110.4 L40.8,110.4 Z M56.8,110.4 L56.8,120.8 C56.8,122.567311 55.3673112,124 53.6,124 C51.8326888,124 50.4,122.567311 50.4,120.8 L50.4,110.4 L56.8,110.4 Z M72.8,110.4 L72.8,120.8 C72.8,122.567311 71.3673112,124 69.6,124 C67.8326888,124 66.4,122.567311 66.4,120.8 L66.4,110.4 L72.8,110.4 Z M88.8,110.4 L88.8,120.8 C88.8,122.567311 87.3673112,124 85.6,124 C83.8326888,124 82.4,122.567311 82.4,120.8 L82.4,110.4 L88.8,110.4 Z M93.6,16.8 C100.669245,16.8 106.4,22.5307552 106.4,29.6 L106.4,93.6 C106.4,100.669245 100.669245,106.4 93.6,106.4 L29.6,106.4 C22.5307552,106.4 16.8,100.669245 16.8,93.6 L16.8,29.6 C16.8,22.5307552 22.5307552,16.8 29.6,16.8 L93.6,16.8 Z M61,22 C55.0908432,22 49.8117384,27.6791011 46.3269692,36.5861797 C36.8713191,35.1502412 29.3135542,36.8825341 26.3589838,42 C23.4043506,47.1175748 25.6831834,54.5291444 31.6548031,62.0007233 C25.6829801,69.471517 23.4044825,76.8826535 26.3589838,82 C29.3135542,87.1174659 36.8713191,88.8497588 46.3274239,87.4141394 C49.8117384,96.3208989 55.0908432,102 61,102 C66.9091568,102 72.1882616,96.3208989 75.6730308,87.4138203 C85.1286809,88.8497588 92.6864458,87.1174659 95.6410162,82 C98.5955175,76.8826535 96.3170199,69.471517 90.3459962,62.0002768 C96.3168166,54.5291444 98.5956494,47.1175748 95.6410162,42 C92.6864458,36.8825341 85.1286809,35.1502412 75.6725761,36.5858606 C72.1882616,27.6791011 66.9091568,22 61,22 Z M60.9996637,83.1632823 C64.1832845,84.488189 67.3136838,85.5397117 70.3187488,86.3120581 L70.1408088,86.7619048 C68.9982077,89.6190476 66.8701104,93.7467366 65.0212292,95.3590138 C63.7824447,96.4392692 62.469343,97.1904762 61,97.1904762 C59.530657,97.1904762 58.2175553,96.4392692 56.9787708,95.3590138 C55.1298896,93.7467366 53.0017923,89.6190476 51.8591912,86.7619048 C51.7994706,86.6125699 51.7402172,86.4626378 51.6814387,86.3121078 C54.6114673,85.558949 57.6608519,84.5403976 60.7625476,83.2617741 L60.9996637,83.1632823 Z M120.8,82.4 C122.567311,82.4 124,83.8326888 124,85.6 C124,87.3673112 122.567311,88.8 120.8,88.8 L110.4,88.8 L110.4,82.4 Z M13.6,82.4 L13.6,88.8 L3.2,88.8 C1.4326888,88.8 7.85720776e-14,87.3673112 7.83556444e-14,85.6 C7.81392112e-14,83.8326888 1.4326888,82.4 3.2,82.4 L13.6,82.4 Z M86.7133734,66.0866346 L87.014843,66.4647797 C88.9179007,68.8828727 91.4285356,72.7897036 91.900368,75.1970202 C92.2165044,76.8099668 92.2105178,78.3227498 91.4758464,79.5952381 C90.7411749,80.8677264 89.4340597,81.6293024 87.8791388,82.1619935 C85.5584252,82.957033 80.919693,82.7361749 77.8740341,82.2971251 C77.7149352,82.27419 77.555553,82.2505525 77.3958906,82.2262057 C78.2291259,79.2377018 78.8836339,76.001204 79.3280305,72.5819483 C82.0669121,70.4873111 84.5423025,68.3024936 86.7133734,66.0866346 Z M35.2866266,66.0866346 C37.4576975,68.3024936 39.9330879,70.4873111 42.6717487,72.5815659 C43.1163661,76.001204 43.7708741,79.2377018 44.6044607,82.2261097 L44.1259659,82.2971251 C41.080307,82.7361749 36.4415748,82.957033 34.1208612,82.1619935 C32.5659403,81.6293024 31.2588251,80.8677264 30.5241536,79.5952381 C29.7894822,78.3227498 29.7834956,76.8099668 30.099632,75.1970202 C30.5714644,72.7897036 33.0820993,68.8828727 34.985157,66.4647797 L35.2866266,66.0866346 Z M48.8489278,76.8592473 C49.7145308,77.401833 50.5985224,77.9340143 51.5,78.4544827 C52.4013528,78.974879 53.3041061,79.4742813 54.2066757,79.9525623 C52.7664435,80.4161642 51.3421429,80.8187863 49.9356381,81.1646652 C49.5926008,79.9842913 49.2790203,78.772503 48.997243,77.5289068 L48.8489278,76.8592473 Z M73.1508809,76.8585813 C72.8322239,78.3380251 72.4686667,79.7731944 72.0648459,81.1645579 C70.6578571,80.8187863 69.2335565,80.4161642 67.7933709,79.9525527 C68.6958939,79.4742813 69.5986472,78.974879 70.5,78.4544827 C71.2652682,78.0126549 72.0179353,77.5623862 72.7574492,77.1044773 L73.1508809,76.8585813 Z M61.0001992,46.6538754 C63.2529354,47.6591232 65.5354305,48.8198951 67.8410105,50.1510223 C70.1464429,51.4820643 72.2928212,52.8782836 74.2896509,54.3264872 C74.5460239,56.7805211 74.6820209,59.3376728 74.6820209,62 C74.6820209,64.6623272 74.5460239,67.2194789 74.2902124,69.673091 C72.2928212,71.1217164 70.1464429,72.5179357 67.8410105,73.8489777 C65.5354305,75.1801049 63.2529354,76.3408768 61.0001992,77.3461246 C58.7477404,76.3412205 56.4649108,75.180302 54.1589895,73.8489777 C51.8535571,72.5179357 49.7071788,71.1217164 47.7103491,69.6735128 C47.4539761,67.2194789 47.3179791,64.6623272 47.3179791,62 C47.3179791,59.3376728 47.4539761,56.7805211 47.7097876,54.326909 C49.7071788,52.8782836 51.8535571,51.4820643 54.1589895,50.1510223 C56.3584207,48.8811801 58.5368436,47.7663681 60.6884645,46.7937106 L61.0001992,46.6538754 Z M13.6,66.4 L13.6,72.8 L3.2,72.8 C1.4326888,72.8 7.95517951e-14,71.3673112 7.93353619e-14,69.6 C7.91189287e-14,67.8326888 1.4326888,66.4 3.2,66.4 L13.6,66.4 Z M120.8,66.4 C122.567311,66.4 124,67.8326888 124,69.6 C124,71.3673112 122.567311,72.8 120.8,72.8 L110.4,72.8 L110.4,66.4 Z M79.9441015,58.9070002 C81.0659309,59.9226485 82.1269735,60.9550421 83.1299532,62.0004002 C82.1262979,63.0456153 81.0655738,64.0776748 79.9441015,65.0929998 C79.9811227,64.0720667 80,63.0406744 80,62 C80,61.1163444 79.9863895,60.2393812 79.9595856,59.369989 L79.9441015,58.9070002 Z M42.0559502,58.9072581 C42.0188773,59.9279333 42,60.9593256 42,62 C42,63.0406744 42.0188773,64.0720667 42.0559502,65.0927419 C40.9344262,64.0776748 39.8737021,63.0456153 38.8710048,62.0005983 C39.7210722,61.1134168 40.6138998,60.2357672 41.5501937,59.3697609 L42.0559502,58.9072581 Z M44.1259659,41.7028749 C44.2850648,41.72581 44.444447,41.7494475 44.6041094,41.7737943 C43.7708741,44.7622982 43.1163661,47.998796 42.6719695,51.4180517 C39.9330879,53.5126889 37.4576975,55.6975064 35.2866266,57.9133654 L34.985157,57.5352203 C33.0820993,55.1171273 30.5714644,51.2102964 30.099632,48.8029798 C29.7834956,47.1900332 29.7894822,45.6772502 30.5241536,44.4047619 C31.2588251,43.1322736 32.5659403,42.3706976 34.1208612,41.8380065 C36.4415748,41.042967 41.080307,41.2638251 44.1259659,41.7028749 Z M87.8791388,41.8380065 C89.4340597,42.3706976 90.7411749,43.1322736 91.4758464,44.4047619 C92.2105178,45.6772502 92.2165044,47.1900332 91.900368,48.8029798 C91.4285356,51.2102964 88.9179007,55.1171273 87.014843,57.5352203 C86.9154524,57.6615095 86.8153122,57.7876928 86.714418,57.9137641 C84.5423025,55.6975064 82.0669121,53.5126889 79.3282513,51.4184341 C78.8836339,47.998796 78.2291259,44.7622982 77.3955393,41.7738903 L77.8740341,41.7028749 C80.919693,41.2638251 85.5584252,41.042967 87.8791388,41.8380065 Z M13.6,50.4 L13.6,56.8 L3.2,56.8 C1.4326888,56.8 8.05315125e-14,55.3673112 8.03150793e-14,53.6 C8.00986461e-14,51.8326888 1.4326888,50.4 3.2,50.4 L13.6,50.4 Z M120.8,50.4 C122.567311,50.4 124,51.8326888 124,53.6 C124,55.3673112 122.567311,56.8 120.8,56.8 L110.4,56.8 L110.4,50.4 Z M72.0648459,42.8354421 C72.4686667,44.2268056 72.8322239,45.6619749 73.1508809,47.1414187 C72.2854692,46.598167 71.4014776,46.0659857 70.5,45.5455173 C69.5986472,45.025121 68.6958939,44.5257187 67.7933243,44.0474377 C69.1696761,43.6043996 70.5314743,43.2170509 71.8770977,42.8816951 L72.0648459,42.8354421 Z M49.9356381,42.8353348 C51.3421429,43.1812137 52.7664435,43.5838358 54.2066291,44.0474473 C53.3041061,44.5257187 52.4013528,45.025121 51.5,45.5455173 C50.5985224,46.0659857 49.7145308,46.598167 48.8489278,47.1407527 C49.1536297,45.727653 49.4991424,44.354318 49.8816112,43.0210046 L49.9356381,42.8353348 Z M61,26.8095238 C62.469343,26.8095238 63.7824447,27.5607308 65.0212292,28.6409862 C66.8701104,30.2532634 68.9982077,34.3809524 70.1408088,37.2380952 C70.2005294,37.3874301 70.2597828,37.5373622 70.3185613,37.6878922 C67.3139983,38.4602075 64.1839398,39.5115909 61.0006632,40.8363017 C57.8167155,39.511811 54.6863162,38.4602883 51.6812512,37.6879419 L51.8591912,37.2380952 C53.0017923,34.3809524 55.1298896,30.2532634 56.9787708,28.6409862 C58.2175553,27.5607308 59.530657,26.8095238 61,26.8095238 Z M120.8,34.4 C122.567311,34.4 124,35.8326888 124,37.6 C124,39.3673112 122.567311,40.8 120.8,40.8 L110.4,40.8 L110.4,34.4 Z M13.6,34.4 L13.6,40.8 L3.2,40.8 C1.4326888,40.8 8.15112299e-14,39.3673112 8.12947967e-14,37.6 C8.10783635e-14,35.8326888 1.4326888,34.4 3.2,34.4 L13.6,34.4 Z M37.6,0 C39.3673112,-3.24649801e-16 40.8,1.4326888 40.8,3.2 L40.8,13.6 L34.4,13.6 L34.4,3.2 C34.4,1.4326888 35.8326888,3.24649801e-16 37.6,0 Z M53.6,0 C55.3673112,-3.24649801e-16 56.8,1.4326888 56.8,3.2 L56.8,13.6 L50.4,13.6 L50.4,3.2 C50.4,1.4326888 51.8326888,3.24649801e-16 53.6,0 Z M69.6,0 C71.3673112,-3.24649801e-16 72.8,1.4326888 72.8,3.2 L72.8,13.6 L66.4,13.6 L66.4,3.2 C66.4,1.4326888 67.8326888,3.24649801e-16 69.6,0 Z M85.6,0 C87.3673112,-3.24649801e-16 88.8,1.4326888 88.8,3.2 L88.8,13.6 L82.4,13.6 L82.4,3.2 C82.4,1.4326888 83.8326888,3.24649801e-16 85.6,0 Z" id="Combined-Shape"></path>
        </g>
        <path d="M181,22 C200.329966,22 216,39.1149189 216,60.2272413 C216,70.2543699 212.465312,79.3798045 206.68261,86.1982315 L211.023916,91.4240065 C213.183094,94.0232847 212.826322,97.8807756 210.227044,100.039953 L210.147059,100.105263 C207.517378,102.215718 203.674739,101.794803 201.564285,99.1651221 L201.492432,99.0738254 L197.526046,93.933265 C192.603988,96.8181463 186.976955,98.4544827 181,98.4544827 C161.670034,98.4544827 146,81.3395638 146,60.2272413 C146,39.1149189 161.670034,22 181,22 Z M181,34.8443531 C168.717187,34.8443531 158.76,46.6563745 158.76,61.2272413 C158.76,75.7981082 168.717187,87.6101296 181,87.6101296 C184.453055,87.6101296 187.722308,86.6765838 190.638196,85.0106413 L185.384602,78.2015117 C183.512431,75.7755777 183.951711,72.2929498 186.367647,70.4078947 C188.801141,68.50914 192.302876,68.8870983 194.27516,71.261389 L198.921,76.8537973 C201.635835,72.479694 203.24,67.0757012 203.24,61.2272413 C203.24,46.6563745 193.282813,34.8443531 181,34.8443531 Z M301.036621,30.9702148 L301.036621,55.4526367 C303.697754,53.7140299 306.403239,52.4100749 309.153076,51.5407715 C311.902913,50.6714681 314.679362,50.2368164 317.482422,50.2368164 C325.040039,50.2368164 331.444499,52.8447266 336.695801,58.0605469 C341.947103,63.2763672 344.572754,69.5743815 344.572754,76.9545898 C344.572754,84.0154622 342.071289,89.9143066 337.068359,94.651123 C332.06543,99.3879395 325.46582,101.756348 317.269531,101.756348 C314.360026,101.756348 311.556966,101.383789 308.860352,100.638672 C306.163737,99.8935547 303.555827,98.7936198 301.036621,97.3388672 L301.036621,100 L288.263184,100 C285.637533,100 283.765869,99.4943848 282.648193,98.4831543 C281.530518,97.4719238 280.97168,96.1502279 280.97168,94.5180664 C280.97168,92.9213867 281.539388,91.6174316 282.674805,90.6062012 C283.810221,89.5949707 285.673014,89.0893555 288.263184,89.0893555 L290.125977,89.0893555 L290.125977,41.8808594 L288.263184,41.8808594 C285.637533,41.8808594 283.765869,41.3752441 282.648193,40.3640137 C281.530518,39.3527832 280.97168,38.0310872 280.97168,36.3989258 C280.97168,34.8022461 281.530518,33.498291 282.648193,32.4870605 C283.765869,31.4758301 285.637533,30.9702148 288.263184,30.9702148 L301.036621,30.9702148 Z M333.662109,77.2739258 C333.662109,72.7677409 332.083171,68.9534505 328.925293,65.8310547 C325.767415,62.7086589 321.899902,61.1474609 317.322754,61.1474609 C312.781087,61.1474609 308.931315,62.7086589 305.773438,65.8310547 C302.61556,68.9534505 301.036621,72.7145182 301.036621,77.1142578 C301.036621,81.1236979 302.455892,84.4146322 305.294434,86.9870605 C308.132975,89.5594889 312.142415,90.8457031 317.322754,90.8457031 C322.503092,90.8457031 326.521403,89.5594889 329.377686,86.9870605 C332.233968,84.4146322 333.662109,81.1769206 333.662109,77.2739258 Z M380.706543,30.9702148 L380.706543,42.5195312 L367.720215,42.5195312 L367.720215,30.9702148 L380.706543,30.9702148 Z M382.196777,51.6738281 L382.196777,89.0893555 L395.289551,89.0893555 C397.915202,89.0893555 399.786865,89.5949707 400.904541,90.6062012 C402.022217,91.6174316 402.581055,92.9391276 402.581055,94.5712891 C402.581055,96.1679688 402.022217,97.4719238 400.904541,98.4831543 C399.786865,99.4943848 397.915202,100 395.289551,100 L358.193359,100 C355.567708,100 353.696045,99.4943848 352.578369,98.4831543 C351.460693,97.4719238 350.901855,96.1502279 350.901855,94.5180664 C350.901855,92.9213867 351.460693,91.6174316 352.578369,90.6062012 C353.696045,89.5949707 355.567708,89.0893555 358.193359,89.0893555 L371.286133,89.0893555 L371.286133,62.5844727 L362.504395,62.5844727 C359.914225,62.5844727 358.051432,62.0788574 356.916016,61.067627 C355.780599,60.0563965 355.212891,58.7347005 355.212891,57.1025391 C355.212891,55.5058594 355.771729,54.2019043 356.889404,53.1906738 C358.00708,52.1794434 359.878743,51.6738281 362.504395,51.6738281 L382.196777,51.6738281 Z M425.106934,62.5844727 L425.106934,84.4589844 C425.106934,86.8007812 425.585938,88.3442383 426.543945,89.0893555 C428.03418,90.2602539 430.695312,90.8457031 434.527344,90.8457031 C440.097982,90.8457031 445.242839,89.6570638 449.961914,87.2797852 C451.771484,86.3572591 453.190755,85.8959961 454.219727,85.8959961 C455.638997,85.8959961 456.871989,86.4282227 457.918701,87.4926758 C458.965413,88.5571289 459.48877,89.8522135 459.48877,91.3779297 C459.48877,92.7972005 458.921061,94.0213216 457.785645,95.050293 C456.047038,96.7179362 452.614176,98.2525228 447.487061,99.6540527 C442.359945,101.055583 438.040039,101.756348 434.527344,101.756348 C427.750326,101.756348 422.667562,100.292725 419.279053,97.3654785 C415.890544,94.4382324 414.196289,90.8457031 414.196289,86.5878906 L414.196289,62.5844727 L410.257812,62.5844727 C407.632161,62.5844727 405.760498,62.0788574 404.642822,61.067627 C403.525146,60.0563965 402.966309,58.7347005 402.966309,57.1025391 C402.966309,55.5058594 403.525146,54.2019043 404.642822,53.1906738 C405.760498,52.1794434 407.632161,51.6738281 410.257812,51.6738281 L414.196289,51.6738281 L414.196289,41.8276367 C414.196289,39.2019857 414.701904,37.3303223 415.713135,36.2126465 C416.724365,35.0949707 418.046061,34.5361328 419.678223,34.5361328 C421.274902,34.5361328 422.578857,35.0949707 423.590088,36.2126465 C424.601318,37.3303223 425.106934,39.2019857 425.106934,41.8276367 L425.106934,51.6738281 L445.27832,51.6738281 C447.903971,51.6738281 449.775635,52.1794434 450.893311,53.1906738 C452.010986,54.2019043 452.569824,55.5236003 452.569824,57.1557617 C452.569824,58.7524414 452.010986,60.0563965 450.893311,61.067627 C449.775635,62.0788574 447.903971,62.5844727 445.27832,62.5844727 L425.106934,62.5844727 Z M505.583496,64.4472656 C503.809408,63.3473307 501.946615,62.5223796 499.995117,61.9724121 C498.04362,61.4224447 496.003418,61.1474609 493.874512,61.1474609 C489.652181,61.1474609 486.299154,61.8393555 483.81543,63.2231445 C482.715495,63.8263346 482.165527,64.4827474 482.165527,65.1923828 C482.165527,66.0084635 482.910645,66.8068034 484.400879,67.5874023 C485.536296,68.1551107 488.073242,68.7050781 492.011719,69.2373047 C499.25,70.2307943 504.288411,71.2242839 507.126953,72.2177734 C510.852539,73.530599 513.726562,75.4820964 515.749023,78.0722656 C517.771484,80.6624349 518.782715,83.3945312 518.782715,86.2685547 C518.782715,90.1715495 517.061849,93.4358724 513.620117,96.0615234 C508.688151,99.8580729 502.283691,101.756348 494.406738,101.756348 C491.248861,101.756348 488.330485,101.481364 485.651611,100.931396 C482.972738,100.381429 480.515625,99.5742188 478.280273,98.5097656 C477.748047,98.9710286 477.180339,99.3258464 476.577148,99.5742188 C475.973958,99.8225911 475.353027,99.9467773 474.714355,99.9467773 C473.01123,99.9467773 471.654053,99.3879395 470.642822,98.2702637 C469.631592,97.1525879 469.125977,95.2809245 469.125977,92.6552734 L469.125977,88.9829102 C469.125977,86.3572591 469.631592,84.4855957 470.642822,83.3679199 C471.654053,82.2502441 472.975749,81.6914062 474.60791,81.6914062 C475.920736,81.6914062 477.020671,82.0550944 477.907715,82.7824707 C478.794759,83.509847 479.486654,84.7605794 479.983398,86.534668 C481.651042,87.9539388 483.655762,89.0272624 485.997559,89.7546387 C488.339355,90.482015 491.03597,90.8457031 494.087402,90.8457031 C499.090332,90.8457031 502.975586,90.0651042 505.743164,88.5039062 C507.05599,87.7233073 507.712402,86.9072266 507.712402,86.0556641 C507.712402,84.6363932 506.772135,83.4654948 504.891602,82.5429688 C503.011068,81.6204427 499.125814,80.8398438 493.23584,80.2011719 C484.471842,79.2786458 478.61735,77.5045573 475.672363,74.8789062 C472.727376,72.288737 471.254883,69.0953776 471.254883,65.2988281 C471.254883,61.3958333 472.904785,58.1492513 476.20459,55.559082 C480.675293,52.0109049 486.529785,50.2368164 493.768066,50.2368164 C496.287272,50.2368164 498.708903,50.4763184 501.032959,50.9553223 C503.357015,51.4343262 505.583496,52.1705729 507.712402,53.1640625 C508.386556,52.6673177 509.016357,52.2947591 509.601807,52.0463867 C510.187256,51.7980143 510.728353,51.6738281 511.225098,51.6738281 C512.715332,51.6738281 513.957194,52.232666 514.950684,53.3503418 C515.944173,54.4680176 516.440918,56.339681 516.440918,58.965332 L516.440918,61.6264648 C516.440918,64.0037435 516.157064,65.6181641 515.589355,66.4697266 C514.453939,68.101888 512.910482,68.9179688 510.958984,68.9179688 C509.646159,68.9179688 508.493001,68.5099284 507.499512,67.6938477 C506.506022,66.8777669 505.86735,65.7955729 505.583496,64.4472656 Z" id="Combined-Shape" fill="#231F20"></path>
        <path d="M241.690625,64.23125 L241.690625,88.359375 C241.690625,89.9472178 242.056858,91.1259359 242.829777,91.8743183 C243.604677,92.6246178 244.797791,92.98125 246.390625,92.98125 C247.975264,92.98125 249.680965,92.6665406 251.508222,92.0404176 C253.321787,91.4189864 255.551945,90.3040146 258.2,88.6984783 L258.2,72.8390625 L255.609375,72.8390625 C253.580297,72.8390625 252.147384,72.4266779 251.287007,71.648242 C250.403988,70.8493195 249.957813,69.8065604 249.957813,68.515625 C249.957813,67.2519133 250.403135,66.2217649 251.287007,65.4220705 C252.147384,64.6436346 253.580297,64.23125 255.609375,64.23125 L266.807813,64.23125 L266.807812,91.6962018 C268.446542,91.7407042 269.659605,92.1545799 270.46276,92.9059186 C271.331236,93.7183644 271.76875,94.7539528 271.76875,96.015625 C271.76875,97.2793367 271.323428,98.3094851 270.439555,99.1091795 C269.579179,99.8876154 268.146266,100.3 266.117188,100.3 L258.2,100.3 L258.2,98.6275316 C256.044285,99.5826106 253.980968,100.306178 252.010261,100.798855 C249.901397,101.326071 247.89793,101.589062 246,101.589062 C243.311613,101.589062 240.983856,101.020015 239.014653,99.8890541 C237.040934,98.7554993 235.480407,97.1887136 234.333574,95.1884228 C233.503417,93.7423434 233.082813,91.9358653 233.082812,89.765625 L233.082812,72.8390625 L232.015625,72.8390625 C229.986547,72.8390625 228.553634,72.4266779 227.693257,71.648242 C226.810238,70.8493195 226.364063,69.8065604 226.364062,68.515625 C226.364063,67.2519133 226.809385,66.2217649 227.693257,65.4220705 C228.553634,64.6436346 229.986547,64.23125 232.015625,64.23125 L241.690625,64.23125 Z" id="Path" stroke="#231F20" stroke-width="0.6" fill="#231F20" fill-rule="nonzero"></path>
    </g>
</svg>