<?xml version="1.0" encoding="UTF-8"?>
<svg width="158.671995px" height="144.076633px" viewBox="0 0 158.671995 144.076633" version="1.1" xmlns="http://www.w3.org/2000/svg" xmlns:xlink="http://www.w3.org/1999/xlink">
    <title>qubits-symbol</title>
    <g id="Logo" stroke="none" stroke-width="1" fill="none" fill-rule="evenodd">
        <g id="Artboard" transform="translate(-34.000000, -181.000000)">
            <g id="qubits-symbol" transform="translate(34.000000, 181.000000)">
                <path d="M57.3916299,33.4027254 C62.6663835,11.0358561 72.5206143,-2.44116527 83.8065532,0.36839463 C92.0315659,2.41595718 99.4961608,11.114161 104.981911,23.5999055 C122.395144,19.9106743 136.823269,22.3655443 143.007846,31.5189088 C150.235995,42.2298815 143.054101,58.6438154 126.256627,73.968254 C144.719875,89.4811585 153.036708,103.453224 145.668858,109.712633 C139.417695,115.023353 125.447696,114.910919 108.71473,110.420915 C103.190032,128.184741 94.0929638,141.147504 83.8065532,143.708238 C72.2410818,146.587386 62.1791185,132.363182 57.0081672,108.995697 C35.6317433,114.259958 19.3284404,113.21285 15.6347047,105.057826 C11.9406898,96.9325041 19.338804,82.2630263 33.6536047,66.9648644 C21.5717275,54.8159665 14.608874,42.8964885 16.0712012,34.8893907 C17.821249,25.3068541 34.313972,25.5993386 57.2489866,34.0156394 Z" id="Combined-Shape" fill="#FFFFFF"></path>
                <g id="Group-2" transform="translate(0.000000, 0.000000)">
                    <g id="Group">
                        <path d="M83.8065532,143.708238 C100.651238,139.514865 114.306553,107.427148 114.306553,72.0383165 C114.306553,36.6494846 100.651238,4.56176761 83.8065532,0.36839463 C66.9618683,-3.82497835 53.3065532,28.2627387 53.3065532,72.0383165 C53.3065532,115.813894 66.9618683,147.901611 83.8065532,143.708238 Z" id="Oval" fill="#F73800"></path>
                        <path d="M80.8700297,147.124254 C94.365949,151.943262 105.306553,118.443755 105.306553,72.3010118 C105.306553,26.1582682 94.365949,-7.34123842 80.8700297,-2.52223037 C67.3741105,2.29677768 56.4335063,35.7962843 56.4335063,72.3010118 C56.4335063,108.805739 67.3741105,142.305246 80.8700297,147.124254 Z" id="Oval" fill="#FE7C00" style="mix-blend-mode: multiply;" transform="translate(80.870030, 72.301012) rotate(-60.000000) translate(-80.870030, -72.301012) "></path>
                        <path d="M79.3065532,141.852785 C93.0168562,143.204903 107.080358,110.280408 110.277357,68.3138673 C112.787778,26.3473263 98.5804294,-6.57716859 79.3065532,-5.22505019 C60.188,-3.8729318 46.1244981,29.0515631 48.3357497,68.3138673 C51.189337,107.576172 65.3966856,140.500666 79.3065532,141.852785 Z" id="Oval" fill="#116CBF" style="mix-blend-mode: darken;" transform="translate(79.335998, 68.313867) rotate(-300.000000) translate(-79.335998, -68.313867) "></path>
                    </g>
                    <g id="Group-4-Copy" transform="translate(57.109987, 41.473538)" fill="#FFFFFF" fill-rule="nonzero">
                        <path d="M11.5540979,27.1236664 C11.5540979,24.3974357 12.481818,22.024748 14.3372582,19.9718415 C16.1926984,17.8739193 18.4279925,16.7085976 21.0431405,16.509638 C23.6582886,16.3106784 25.9008876,17.1942072 27.7709375,19.194252 C29.6263778,21.2403352 30.5540979,23.8058005 30.5540979,26.8568861 C30.5540979,29.9079717 29.6263778,32.4994894 27.7709375,34.5976774 C25.9008876,36.6502371 23.6582886,37.5967428 21.0431405,37.4712222 C18.4279925,37.3457016 16.1926984,36.2431517 14.3372582,34.1973343 C12.481818,32.1965325 11.5540979,29.8498971 11.5540979,27.1236664 Z M33.5125917,50.5038635 C34.3818858,50.6102057 35.1442995,50.3414256 35.7998328,49.6935467 C36.4838675,49.0088255 36.8401356,48.1002394 36.8686371,46.9718676 C36.9113893,45.8444824 36.6192494,44.8348399 35.9922176,43.9476884 L35.9280893,43.8643674 L35.842585,43.7533592 C35.7713314,43.6436271 35.6929524,43.5333929 35.607448,43.4226687 C35.350935,43.1256096 35.0730459,42.8276654 34.7737807,42.528935 C33.9044866,41.6403344 32.9211866,40.8371947 31.8238809,40.1195117 C33.4057112,38.4287459 34.6383988,36.4069026 35.5219437,34.0603602 C36.43399,31.6039719 36.8900132,28.9910921 36.8900132,26.2405577 C36.8900132,20.8439396 35.3224336,16.3483064 32.1872744,12.8528233 C29.0663659,9.47131446 25.2970495,8.10035658 20.8793251,8.64078449 C16.4758515,9.17946907 12.7065351,11.299366 9.57137589,14.9008572 C6.45046741,18.3540582 4.89001317,22.2520304 4.89001317,26.6934885 C4.89001317,31.1206193 6.45046741,34.9742677 9.57137589,38.353599 C12.7065351,41.8512596 16.4758515,43.8563697 20.8793251,44.269764 C23.8007235,44.5440224 26.3587284,45.3743651 28.5533398,46.7836137 C29.2373746,47.2217187 29.8501557,47.7051815 30.3916832,48.2340184 C30.5626919,48.3874795 30.7194498,48.5480003 30.8619571,48.7155684 C30.9047092,48.7541045 30.9474614,48.8010752 30.9902136,48.8564867 L31.0115897,48.8842017 L31.0329657,48.9119229 C31.7027498,49.8512833 32.5292917,50.3835747 33.5125917,50.5038635 Z" id="Shape" transform="translate(20.890013, 29.526462) rotate(-15.000000) translate(-20.890013, -29.526462) "></path>
                    </g>
                </g>
            </g>
        </g>
    </g>
</svg>