<?xml version="1.0" encoding="UTF-8"?>
<svg width="124px" height="124px" viewBox="0 0 124 124" version="1.1" xmlns="http://www.w3.org/2000/svg" xmlns:xlink="http://www.w3.org/1999/xlink">
    <title>qubits-simple-logo-without-text</title>
    <g id="qubits-simple-logo-without-text" stroke="none" stroke-width="1" fill="none" fill-rule="evenodd">
        <g id="favicon-copy" fill="#3F8AC2">
            <path d="M40.8,110.4 L40.8,120.8 C40.8,122.567311 39.3673112,124 37.6,124 C35.8326888,124 34.4,122.567311 34.4,120.8 L34.4,110.4 L40.8,110.4 Z M56.8,110.4 L56.8,120.8 C56.8,122.567311 55.3673112,124 53.6,124 C51.8326888,124 50.4,122.567311 50.4,120.8 L50.4,110.4 L56.8,110.4 Z M72.8,110.4 L72.8,120.8 C72.8,122.567311 71.3673112,124 69.6,124 C67.8326888,124 66.4,122.567311 66.4,120.8 L66.4,110.4 L72.8,110.4 Z M88.8,110.4 L88.8,120.8 C88.8,122.567311 87.3673112,124 85.6,124 C83.8326888,124 82.4,122.567311 82.4,120.8 L82.4,110.4 L88.8,110.4 Z M93.6,16.8 C100.669245,16.8 106.4,22.5307552 106.4,29.6 L106.4,93.6 C106.4,100.669245 100.669245,106.4 93.6,106.4 L29.6,106.4 C22.5307552,106.4 16.8,100.669245 16.8,93.6 L16.8,29.6 C16.8,22.5307552 22.5307552,16.8 29.6,16.8 L93.6,16.8 Z M61,22 C55.0908432,22 49.8117384,27.6791011 46.3269692,36.5861797 C36.8713191,35.1502412 29.3135542,36.8825341 26.3589838,42 C23.4043506,47.1175748 25.6831834,54.5291444 31.6548031,62.0007233 C25.6829801,69.471517 23.4044825,76.8826535 26.3589838,82 C29.3135542,87.1174659 36.8713191,88.8497588 46.3274239,87.4141394 C49.8117384,96.3208989 55.0908432,102 61,102 C66.9091568,102 72.1882616,96.3208989 75.6730308,87.4138203 C85.1286809,88.8497588 92.6864458,87.1174659 95.6410162,82 C98.5955175,76.8826535 96.3170199,69.471517 90.3459962,62.0002768 C96.3168166,54.5291444 98.5956494,47.1175748 95.6410162,42 C92.6864458,36.8825341 85.1286809,35.1502412 75.6725761,36.5858606 C72.1882616,27.6791011 66.9091568,22 61,22 Z M60.9996637,83.1632823 C64.1832845,84.488189 67.3136838,85.5397117 70.3187488,86.3120581 L70.1408088,86.7619048 C68.9982077,89.6190476 66.8701104,93.7467366 65.0212292,95.3590138 C63.7824447,96.4392692 62.469343,97.1904762 61,97.1904762 C59.530657,97.1904762 58.2175553,96.4392692 56.9787708,95.3590138 C55.1298896,93.7467366 53.0017923,89.6190476 51.8591912,86.7619048 C51.7994706,86.6125699 51.7402172,86.4626378 51.6814387,86.3121078 C54.6114673,85.558949 57.6608519,84.5403976 60.7625476,83.2617741 L60.9996637,83.1632823 Z M120.8,82.4 C122.567311,82.4 124,83.8326888 124,85.6 C124,87.3673112 122.567311,88.8 120.8,88.8 L110.4,88.8 L110.4,82.4 Z M13.6,82.4 L13.6,88.8 L3.2,88.8 C1.4326888,88.8 7.85720776e-14,87.3673112 7.83556444e-14,85.6 C7.81392112e-14,83.8326888 1.4326888,82.4 3.2,82.4 L13.6,82.4 Z M86.7133734,66.0866346 L87.014843,66.4647797 C88.9179007,68.8828727 91.4285356,72.7897036 91.900368,75.1970202 C92.2165044,76.8099668 92.2105178,78.3227498 91.4758464,79.5952381 C90.7411749,80.8677264 89.4340597,81.6293024 87.8791388,82.1619935 C85.5584252,82.957033 80.919693,82.7361749 77.8740341,82.2971251 C77.7149352,82.27419 77.555553,82.2505525 77.3958906,82.2262057 C78.2291259,79.2377018 78.8836339,76.001204 79.3280305,72.5819483 C82.0669121,70.4873111 84.5423025,68.3024936 86.7133734,66.0866346 Z M35.2866266,66.0866346 C37.4576975,68.3024936 39.9330879,70.4873111 42.6717487,72.5815659 C43.1163661,76.001204 43.7708741,79.2377018 44.6044607,82.2261097 L44.1259659,82.2971251 C41.080307,82.7361749 36.4415748,82.957033 34.1208612,82.1619935 C32.5659403,81.6293024 31.2588251,80.8677264 30.5241536,79.5952381 C29.7894822,78.3227498 29.7834956,76.8099668 30.099632,75.1970202 C30.5714644,72.7897036 33.0820993,68.8828727 34.985157,66.4647797 L35.2866266,66.0866346 Z M48.8489278,76.8592473 C49.7145308,77.401833 50.5985224,77.9340143 51.5,78.4544827 C52.4013528,78.974879 53.3041061,79.4742813 54.2066757,79.9525623 C52.7664435,80.4161642 51.3421429,80.8187863 49.9356381,81.1646652 C49.5926008,79.9842913 49.2790203,78.772503 48.997243,77.5289068 L48.8489278,76.8592473 Z M73.1508809,76.8585813 C72.8322239,78.3380251 72.4686667,79.7731944 72.0648459,81.1645579 C70.6578571,80.8187863 69.2335565,80.4161642 67.7933709,79.9525527 C68.6958939,79.4742813 69.5986472,78.974879 70.5,78.4544827 C71.2652682,78.0126549 72.0179353,77.5623862 72.7574492,77.1044773 L73.1508809,76.8585813 Z M61.0001992,46.6538754 C63.2529354,47.6591232 65.5354305,48.8198951 67.8410105,50.1510223 C70.1464429,51.4820643 72.2928212,52.8782836 74.2896509,54.3264872 C74.5460239,56.7805211 74.6820209,59.3376728 74.6820209,62 C74.6820209,64.6623272 74.5460239,67.2194789 74.2902124,69.673091 C72.2928212,71.1217164 70.1464429,72.5179357 67.8410105,73.8489777 C65.5354305,75.1801049 63.2529354,76.3408768 61.0001992,77.3461246 C58.7477404,76.3412205 56.4649108,75.180302 54.1589895,73.8489777 C51.8535571,72.5179357 49.7071788,71.1217164 47.7103491,69.6735128 C47.4539761,67.2194789 47.3179791,64.6623272 47.3179791,62 C47.3179791,59.3376728 47.4539761,56.7805211 47.7097876,54.326909 C49.7071788,52.8782836 51.8535571,51.4820643 54.1589895,50.1510223 C56.3584207,48.8811801 58.5368436,47.7663681 60.6884645,46.7937106 L61.0001992,46.6538754 Z M13.6,66.4 L13.6,72.8 L3.2,72.8 C1.4326888,72.8 7.95517951e-14,71.3673112 7.93353619e-14,69.6 C7.91189287e-14,67.8326888 1.4326888,66.4 3.2,66.4 L13.6,66.4 Z M120.8,66.4 C122.567311,66.4 124,67.8326888 124,69.6 C124,71.3673112 122.567311,72.8 120.8,72.8 L110.4,72.8 L110.4,66.4 Z M79.9441015,58.9070002 C81.0659309,59.9226485 82.1269735,60.9550421 83.1299532,62.0004002 C82.1262979,63.0456153 81.0655738,64.0776748 79.9441015,65.0929998 C79.9811227,64.0720667 80,63.0406744 80,62 C80,61.1163444 79.9863895,60.2393812 79.9595856,59.369989 L79.9441015,58.9070002 Z M42.0559502,58.9072581 C42.0188773,59.9279333 42,60.9593256 42,62 C42,63.0406744 42.0188773,64.0720667 42.0559502,65.0927419 C40.9344262,64.0776748 39.8737021,63.0456153 38.8710048,62.0005983 C39.7210722,61.1134168 40.6138998,60.2357672 41.5501937,59.3697609 L42.0559502,58.9072581 Z M44.1259659,41.7028749 C44.2850648,41.72581 44.444447,41.7494475 44.6041094,41.7737943 C43.7708741,44.7622982 43.1163661,47.998796 42.6719695,51.4180517 C39.9330879,53.5126889 37.4576975,55.6975064 35.2866266,57.9133654 L34.985157,57.5352203 C33.0820993,55.1171273 30.5714644,51.2102964 30.099632,48.8029798 C29.7834956,47.1900332 29.7894822,45.6772502 30.5241536,44.4047619 C31.2588251,43.1322736 32.5659403,42.3706976 34.1208612,41.8380065 C36.4415748,41.042967 41.080307,41.2638251 44.1259659,41.7028749 Z M87.8791388,41.8380065 C89.4340597,42.3706976 90.7411749,43.1322736 91.4758464,44.4047619 C92.2105178,45.6772502 92.2165044,47.1900332 91.900368,48.8029798 C91.4285356,51.2102964 88.9179007,55.1171273 87.014843,57.5352203 C86.9154524,57.6615095 86.8153122,57.7876928 86.714418,57.9137641 C84.5423025,55.6975064 82.0669121,53.5126889 79.3282513,51.4184341 C78.8836339,47.998796 78.2291259,44.7622982 77.3955393,41.7738903 L77.8740341,41.7028749 C80.919693,41.2638251 85.5584252,41.042967 87.8791388,41.8380065 Z M13.6,50.4 L13.6,56.8 L3.2,56.8 C1.4326888,56.8 8.05315125e-14,55.3673112 8.03150793e-14,53.6 C8.00986461e-14,51.8326888 1.4326888,50.4 3.2,50.4 L13.6,50.4 Z M120.8,50.4 C122.567311,50.4 124,51.8326888 124,53.6 C124,55.3673112 122.567311,56.8 120.8,56.8 L110.4,56.8 L110.4,50.4 Z M72.0648459,42.8354421 C72.4686667,44.2268056 72.8322239,45.6619749 73.1508809,47.1414187 C72.2854692,46.598167 71.4014776,46.0659857 70.5,45.5455173 C69.5986472,45.025121 68.6958939,44.5257187 67.7933243,44.0474377 C69.1696761,43.6043996 70.5314743,43.2170509 71.8770977,42.8816951 L72.0648459,42.8354421 Z M49.9356381,42.8353348 C51.3421429,43.1812137 52.7664435,43.5838358 54.2066291,44.0474473 C53.3041061,44.5257187 52.4013528,45.025121 51.5,45.5455173 C50.5985224,46.0659857 49.7145308,46.598167 48.8489278,47.1407527 C49.1536297,45.727653 49.4991424,44.354318 49.8816112,43.0210046 L49.9356381,42.8353348 Z M61,26.8095238 C62.469343,26.8095238 63.7824447,27.5607308 65.0212292,28.6409862 C66.8701104,30.2532634 68.9982077,34.3809524 70.1408088,37.2380952 C70.2005294,37.3874301 70.2597828,37.5373622 70.3185613,37.6878922 C67.3139983,38.4602075 64.1839398,39.5115909 61.0006632,40.8363017 C57.8167155,39.511811 54.6863162,38.4602883 51.6812512,37.6879419 L51.8591912,37.2380952 C53.0017923,34.3809524 55.1298896,30.2532634 56.9787708,28.6409862 C58.2175553,27.5607308 59.530657,26.8095238 61,26.8095238 Z M120.8,34.4 C122.567311,34.4 124,35.8326888 124,37.6 C124,39.3673112 122.567311,40.8 120.8,40.8 L110.4,40.8 L110.4,34.4 Z M13.6,34.4 L13.6,40.8 L3.2,40.8 C1.4326888,40.8 8.15112299e-14,39.3673112 8.12947967e-14,37.6 C8.10783635e-14,35.8326888 1.4326888,34.4 3.2,34.4 L13.6,34.4 Z M37.6,0 C39.3673112,-3.24649801e-16 40.8,1.4326888 40.8,3.2 L40.8,13.6 L34.4,13.6 L34.4,3.2 C34.4,1.4326888 35.8326888,3.24649801e-16 37.6,0 Z M53.6,0 C55.3673112,-3.24649801e-16 56.8,1.4326888 56.8,3.2 L56.8,13.6 L50.4,13.6 L50.4,3.2 C50.4,1.4326888 51.8326888,3.24649801e-16 53.6,0 Z M69.6,0 C71.3673112,-3.24649801e-16 72.8,1.4326888 72.8,3.2 L72.8,13.6 L66.4,13.6 L66.4,3.2 C66.4,1.4326888 67.8326888,3.24649801e-16 69.6,0 Z M85.6,0 C87.3673112,-3.24649801e-16 88.8,1.4326888 88.8,3.2 L88.8,13.6 L82.4,13.6 L82.4,3.2 C82.4,1.4326888 83.8326888,3.24649801e-16 85.6,0 Z" id="Combined-Shape"></path>
        </g>
    </g>
</svg>