<?xml version="1.0" encoding="UTF-8"?>
<svg width="151px" height="57px" viewBox="0 0 151 57" version="1.1" xmlns="http://www.w3.org/2000/svg" xmlns:xlink="http://www.w3.org/1999/xlink">
    <title>qubits-logo</title>
    <g id="Login-Page" stroke="none" stroke-width="1" fill="none" fill-rule="evenodd">
        <g id="Login-Form-2" transform="translate(-724.000000, -360.000000)">
            <g id="Group-5" transform="translate(719.000000, 360.420000)">
                <g id="qubits-logo" transform="translate(0.203738, 0.000000)">
                    <text id="Qubits-Copy-3" font-family="Aqum" font-size="22.2409639" font-weight="bold" fill="#116CBF">
                        <tspan x="64.0752795" y="36.1729032">Qubits</tspan>
                    </text>
                    <g id="Group-2" transform="translate(-0.000000, 0.000000)">
                        <g id="Group">
                            <path d="M32.6817399,56.1759934 C39.2419323,54.536791 44.560019,41.9936035 44.560019,28.16 C44.560019,14.3263965 39.2419323,1.78320902 32.6817399,0.144006597 C26.1215475,-1.49519583 20.8034607,11.0479917 20.8034607,28.16 C20.8034607,45.2720083 26.1215475,57.8151958 32.6817399,56.1759934 Z" id="Oval" fill="#F73800"></path>
                            <path d="M31.4896591,57.4306404 C36.7573305,59.3006788 41.0511291,46.2352065 41.0801268,28.2480912 C41.1091245,10.260976 36.8574303,-2.79074543 31.5837021,-0.903744427 C26.309974,0.983256578 22.0161754,14.0487289 21.9930505,28.2788047 C21.9702937,42.5088806 26.2219878,55.560602 31.4896591,57.4306404 Z" id="Oval" fill="#FE7C00" style="mix-blend-mode: multiply;" transform="translate(31.536735, 28.261834) rotate(-60.000000) translate(-31.536735, -28.261834) "></path>
                            <path d="M30.977643,55.365532 C36.3329179,55.9012235 41.8045907,43.0756126 43.0267741,26.7184512 C43.9808215,10.3608583 38.411589,-2.48251575 30.8852142,-1.96755582 C23.4194993,-1.45249508 17.9478265,11.3731158 18.8360831,26.679525 C19.9751976,41.9863378 25.54443,54.8297151 30.977643,55.365532 Z" id="Oval" fill="#116CBF" style="mix-blend-mode: darken;" transform="translate(30.937389, 26.699602) rotate(-300.000000) translate(-30.937389, -26.699602) "></path>
                        </g>
                        <g id="Group-4-Copy" transform="translate(22.276827, 16.212134)" fill="#FFFFFF" fill-rule="nonzero">
                            <path d="M4.50765208,10.6027248 C4.50765208,9.53703283 4.86895432,8.60954188 5.5915588,7.8070544 C6.31416329,6.98697016 7.18470255,6.53144231 8.20317659,6.4536684 C9.22165063,6.37589449 10.0950348,6.72126862 10.8233291,7.50309227 C11.5459336,8.30291252 11.9072358,9.30576081 11.9072358,10.4984396 C11.9072358,11.6911183 11.5459336,12.7041506 10.8233291,13.5243387 C10.0950348,14.3266907 9.22165063,14.6966827 8.20317659,14.6476163 C7.18470255,14.5985499 6.31416329,14.1675597 5.5915588,13.3678434 C4.86895432,12.5857238 4.50765208,11.6684168 4.50765208,10.6027248 Z M13.0594265,19.7421159 C13.3979746,19.7836854 13.694898,19.6786185 13.9501966,19.4253606 C14.2165951,19.157701 14.3553444,18.8025318 14.3664443,18.3614479 C14.3830942,17.9207495 14.2693199,17.5260771 14.0251212,17.1792869 L14.0001463,17.1467164 L13.9668465,17.103323 C13.9390967,17.0604284 13.9085718,17.0173375 13.875272,16.9740551 C13.7753726,16.8579337 13.6671481,16.7414664 13.5505988,16.6246918 C13.2120506,16.2773351 12.8291027,15.9633853 12.4017551,15.6828408 C13.0178017,15.0219152 13.4978741,14.2315704 13.8419722,13.3142998 C14.1971702,12.3540901 14.3747693,11.3327073 14.3747693,10.2575149 C14.3747693,8.14796026 13.7642726,6.39060337 12.5432793,5.02420827 C11.3278359,3.70236602 9.85986898,3.16645436 8.13937839,3.37770929 C6.42443777,3.58828276 4.9564708,4.416957 3.73547748,5.82479101 C2.52003413,7.17465791 1.91231246,8.69838729 1.91231246,10.4345669 C1.91231246,12.165146 2.52003413,13.6715491 3.73547748,14.9925401 C4.9564708,16.3597864 6.42443777,17.1435901 8.13937839,17.3051872 C9.27712217,17.4123957 10.2733417,17.7369792 11.128037,18.2878588 C11.3944356,18.4591154 11.6330843,18.6481025 11.8439831,18.8548265 C11.9105828,18.9148149 11.9716324,18.977563 12.0271321,19.0430659 C12.043782,19.0581298 12.0604319,19.0764907 12.0770818,19.0981513 L12.0854068,19.1089851 L12.0937318,19.1198214 C12.3545803,19.4870203 12.6764786,19.6950947 13.0594265,19.7421159 Z" id="Shape" transform="translate(8.143541, 11.541985) rotate(-15.000000) translate(-8.143541, -11.541985) "></path>
                        </g>
                    </g>
                </g>
            </g>
        </g>
    </g>
</svg>