<?xml version="1.0" standalone="no"?>
<!DOCTYPE svg PUBLIC "-//W3C//DTD SVG 1.1//EN" "http://www.w3.org/Graphics/SVG/1.1/DTD/svg11.dtd" >
<svg xmlns="http://www.w3.org/2000/svg" xmlns:xlink="http://www.w3.org/1999/xlink" version="1.1">
<metadata>
Created by FontForge 20170910 at Wed Jul 26 01:51:12 2017
 By Jimmy Wärting
Copyright (c) 2017 by Microsoft. All rights reserved.
</metadata>
<defs>
<font id="TeamsAssets-Regular" horiz-adv-x="2048" >
  <font-face 
    font-family="Teams Assets"
    font-weight="400"
    font-stretch="normal"
    units-per-em="2048"
    panose-1="0 0 5 0 0 0 0 0 0 0"
    ascent="2048"
    descent="0"
    bbox="-242 -560 9137 2574"
    underline-thickness="119"
    underline-position="-178"
    unicode-range="U+0020-F80C"
  />
<missing-glyph horiz-adv-x="600" 
 />
    <glyph glyph-name=".notdef" horiz-adv-x="600" 
 />
    <glyph glyph-name="space" unicode=" " horiz-adv-x="561" 
 />
    <glyph glyph-name="ASD" unicode="&#xe900;" 
d="M1889.5 1772q46.5 -20 82.5 -56t56 -82.5t20 -97.5v-1024q0 -51 -20 -97.5t-56 -82.5t-82.5 -56t-97.5 -20h-1536q-51 0 -97.5 20t-82.5 56t-56 82.5t-20 97.5v1024q0 51 20 97.5t56 82.5t82.5 56t97.5 20h1536q51 0 97.5 -20zM256 1408v-384h1536v384h-1536z" />
    <glyph glyph-name="Activity" unicode="&#xe344;" 
d="M848 1828q34 -28 45 -72l211 -928l181 616q13 41 47 66.5t77 25.5q34 0 62.5 -16.5t46.5 -45.5l154 -258h248q52 0 91 -37q37 -39 37 -91q0 -53 -37 -90q-38 -38 -91 -38h-320q-34 0 -63.5 16.5t-46.5 45.5l-42 70l-237 -808q-12 -42 -46 -67t-77 -25h-4
q-44 0 -77.5 28.5t-43.5 71.5l-229 1007l-103 -259q-14 -36 -47 -58t-72 -22h-384q-54 0 -90 38q-38 36 -38 90q0 53 38 91q37 37 90 37h297l224 560q15 37 47.5 58.5t72.5 21.5q45 0 79 -28z" />
    <glyph glyph-name="AddExpression" unicode="&#xe348;" 
d="M1324 1848q-44 -54 -44 -120q0 -52 26 -96t70 -70t96 -26h64v-64q0 -52 26 -96t70 -70t96 -26q66 0 120 44q72 -177 72 -364q0 -261 -129 -481.5t-349.5 -349.5t-481.5 -129t-481.5 129t-349.5 349.5t-129 481.5t129 481.5t349.5 349.5t481.5 129q187 0 364 -72z
M1334 710q-75 -75 -171 -114q-100 -40 -203 -40q-102 0 -202 40q-95 38 -171 114l-5 4l-94 -93l5 -4q91 -92 214 -143q119 -50 253 -50t253 50q123 51 214 143l5 4l-94 93zM613 1256q-19 -7 -40 -27q-37 -37 -37 -90q0 -25 9 -48q10 -24 28 -40q15 -16 40 -28q25 -10 48 -10
q52 0 90 38q17 16 27 40q9 23 9 48q0 51 -36 90q-39 36 -90 36q-24 0 -48 -9zM1210 1256q-20 -8 -40 -27q-37 -37 -37 -90q0 -27 10 -48q8 -21 27 -40q15 -16 40 -28q25 -10 49 -10q51 0 89 38q18 18 27 40q10 25 10 48q0 50 -37 90q-37 36 -89 36q-25 0 -49 -9zM1773 2029
q19 -19 19 -45v-192h192q26 0 45 -19t19 -45t-19 -45t-45 -19h-192v-192q0 -26 -19 -45t-45 -19t-45 19t-19 45v192h-192q-26 0 -45 19t-19 45t19 45t45 19h192v192q0 26 19 45t45 19t45 -19z" />
    <glyph glyph-name="AddParticipant" unicode="&#xe131;" 
d="M1801 2033.5q35 -14.5 62 -41.5t41.5 -62t14.5 -74v-1723q0 -43 -24 -77t-64 -48q-18 -8 -46 -8q-58 0 -102 49l-292 324l-72 -3q-35 -2 -68.5 -3t-63.5 -2q-37 0 -56 -1q-70 -2 -108 -2q-383 0 -740 85q-69 16 -112 72q-44 55 -44 125v1212q0 39 14.5 74t41.5 62
t62 41.5t74 14.5h1408q39 0 74 -14.5zM895 1664v-384h-384v-128h384v-384h128v384h384v128h-384v384h-128z" />
    <glyph glyph-name="AddText" unicode="&#xe427;" 
d="M988 1768q13 -10 22.5 -23.5t24.5 -38.5q8 -11 24 -54q21 -54 94 -257l36 -103q69 -194 91 -259q32 -96 63 -186q55 -163 105 -316l32 -101q11 -41 11 -46q0 -51 -38 -89q-18 -18 -42 -28.5t-48 -10.5q-40 0 -73.5 24t-47.5 62l-127 362h-415l-133 -364
q-14 -37 -47.5 -60.5t-72.5 -23.5q-52 0 -89 39q-39 37 -39 89q0 5 12 44q8 25 26.5 80t31.5 94q13 37 24 70q31 91 116 330l11 30q14 41 19 52q32 92 49 136l14 37q41 115 50 139q59 166 98 258q18 45 32.5 68.5t39.5 46.5q26 23 73 23q43 0 73 -24zM794 960h231l-113 324z
M1772 1965q19 -19 19 -45v-1792q0 -26 -19 -45t-45 -19t-45 19t-19 45v1792q0 26 19 45t45 19t45 -19z" />
    <glyph glyph-name="AgentCertification" unicode="&#xe623;" 
d="M1121.5 1968.5q20.5 -15.5 57.5 -50.5q86 -82 155 -124q109 -67 217 -67q49 0 95.5 18.5t95.5 48.5q42 26 68 45q29 21 45 21q26 0 45 -19t19 -45v-836h-2q0 -115 -28 -226t-80 -211t-126.5 -183.5t-166.5 -144.5q-94 -62 -202.5 -95.5t-226.5 -33.5t-226.5 33.5
t-202.5 95.5q-92 61 -166.5 144.5t-126.5 183.5t-80 211t-28 226h-2v836q0 26 19 45t45 19q16 0 45 -21q81 -58 156 -91q48 -21 102 -21q110 0 219 67q41 25 76.5 54.5t78.5 69.5q39 36 58.5 51t32.5 15q14 0 34.5 -15.5zM1305 1523q123 -52 247 -52q54 0 111 11v-522
q0 -161 -73 -309q-36 -72 -87.5 -132t-115.5 -104q-135 -95 -300 -95t-300 94q-64 44 -115.5 104.5t-86.5 132.5q-74 146 -74 309v522q57 -11 111 -11q125 0 248 52q105 43 217 130q104 -83 218 -130zM875 1666q-129 -67 -254 -67q-124 0 -238 68v-707h-2q0 -98 23.5 -193
t68.5 -181q45 -87 107.5 -159t140.5 -125q79 -54 172 -83t194 -29t194 29t173 83q154 105 248 284q44 86 67.5 181t23.5 193h-2v707q-114 -68 -238 -68q-125 0 -254 67q-110 57 -212 159q-102 -102 -212 -159z" />
    <glyph glyph-name="Alert" unicode="&#xe625;" 
d="M1348 1955q71 -45 129.5 -107t99.5 -136q42 -75 64 -158.5t22 -170.5v-487q0 -44 17.5 -69t49.5 -39q25 -12 61 -20q77 -16 109 -57q19 -23 19 -71q0 -51 -38 -89q-18 -18 -42 -28.5t-48 -10.5h-1536q-52 0 -89 39q-39 37 -39 89q0 44 17.5 69t49.5 39q25 12 61 20
q77 16 109 57q19 23 19 71v512q0 171 88 322q85 145 230 230q149 88 321 88q176 0 326 -93zM1324 365q19 -19 19 -45q0 -65 -25 -123t-69 -102q-45 -45 -103 -70t-123 -25q-64 0 -122 25t-103 70t-70 103t-25 122q0 26 19 45t45 19h512q26 0 45 -19z" />
    <glyph glyph-name="AlertOff" unicode="&#xe626;" 
d="M2028.5 2029q19.5 -19 19.5 -45t-19 -45l-376 -376q24 -88 24 -180v-487q0 -44 17.5 -69t49.5 -39q25 -12 61 -20q77 -16 109 -57q19 -23 19 -71q0 -51 -38 -89q-18 -18 -42 -28.5t-48 -10.5h-1203l-493 -493q-19 -19 -45 -19t-45 18.5t-19 44.5t15 41l1900 1900
q4 4 16.5 17t25.5 20t27 7q25 0 44.5 -19zM1338 365q19 -19 19 -45q0 -65 -25 -123t-69 -102q-45 -45 -103 -70t-123 -25q-64 0 -122 25t-103 70t-70 103t-25 122q0 26 19 45t45 19h512q26 0 45 -19zM1312 1981q132 -67 220 -179l-1288 -1287q-44 12 -73.5 46t-29.5 79
q0 44 17.5 69t49.5 39q25 12 61 20q77 16 109 57q19 23 19 71v512q0 171 88 322q86 145 231 230q149 88 321 88q143 0 275 -67z" />
    <glyph glyph-name="AlertOffStatus" unicode="&#xe627;" 
d="M2028.5 2029q19.5 -19 19.5 -45t-19 -45l-376 -376q24 -88 24 -180v-487q0 -44 17.5 -69t49.5 -39q25 -12 61 -20q77 -16 109 -57q19 -23 19 -71q0 -51 -38 -89q-18 -18 -42 -28.5t-48 -10.5h-1203l-493 -493q-19 -19 -45 -19t-45 18.5t-19 44.5t15 41l1900 1900
q4 4 16.5 17t25.5 20t27 7q25 0 44.5 -19zM1338 365q19 -19 19 -45q0 -65 -25 -123t-69 -102q-45 -45 -103 -70t-123 -25q-64 0 -122 25t-103 70t-70 103t-25 122q0 26 19 45t45 19h512q26 0 45 -19zM1312 1981q132 -67 220 -179l-1288 -1287q-44 12 -73.5 46t-29.5 79
q0 44 17.5 69t49.5 39q25 12 61 20q77 16 109 57q19 23 19 71v512q0 171 88 322q86 145 231 230q149 88 321 88q143 0 275 -67z" />
    <glyph glyph-name="Announcement" unicode="&#xe62b;" 
d="M1082 2023q59 -25 103 -69t69 -103.5t25 -124.5q0 -33 -4 -53l-147 -890q-11 -62 -58 -103q-23 -20 -52.5 -31t-59.5 -11q-62 0 -112 42q-48 41 -59 103l-143 869q-5 32 -5 58q0 68 23.5 129.5t66.5 108.5t102 73.5t127 26.5q65 0 124 -25zM1033 369.5q35 -14.5 62 -41.5
t41.5 -62t14.5 -74t-14.5 -74t-41.5 -62t-62 -41.5t-74 -14.5t-74 14.5t-62 41.5t-41.5 62t-14.5 74t14.5 74t41.5 62t62 41.5t74 14.5t74 -14.5z" />
    <glyph glyph-name="Approval" unicode="&#xe949;" 
d="M1928 1649q35 -15 62 -42t42 -62t15 -73v-896q0 -38 -15 -73t-42 -62t-62 -42t-73 -15h-1536q-38 0 -73 15t-62 42t-42 62t-15 73v896q0 38 15 73t42 62t62 42t73 15h1536q38 0 73 -15zM865 1336.5q-14 -7.5 -23 -20.5l-304 -442l-106 127q-20 23 -49 23q-26 0 -45 -19
t-19 -45q0 -24 15 -41l160 -192q18 -23 49 -23q16 0 30 7.5t23 20.5l352 512q11 17 11 36q0 26 -19 45t-45 19q-16 0 -30 -7.5zM1804 1293q19 -19 19 -45t-19 -45l-178 -179l178 -179q19 -19 19 -45t-19 -45t-45 -19t-45 19l-179 179l-179 -179q-19 -19 -45 -19t-45 19
t-19 45t19 45l178 179l-178 179q-19 19 -19 45t19 45t45 19t45 -19l179 -178l179 178q19 19 45 19t45 -19zM1151 1536v-1024h704q26 0 45 19t19 45v896q0 26 -19 45t-45 19h-704z" />
    <glyph glyph-name="Archive" unicode="&#xe972;" 
d="M1920 448q0 -38 -15 -73t-42 -62t-62 -42t-73 -15h-1408q-38 0 -73 15t-62 42t-42 62t-15 73v896h1792v-896zM704 1216v-256h640v256h-640zM1968 1782q24 -10 42 -28t28 -42t10 -48v-128q0 -51 -38 -89q-18 -18 -42 -28.5t-48 -10.5h-1792q-52 0 -89 39q-39 37 -39 89
v128q0 24 10.5 48t28.5 42q38 38 89 38h1792q24 0 48 -10z" />
    <glyph glyph-name="At" unicode="&#xe902;" 
d="M1292.5 2012q130.5 -36 247.5 -104q113 -67 207 -161t161 -207q68 -117 104 -247.5t36 -268.5q0 -147 -39 -290q-47 -166 -136 -262q-107 -114 -260 -114q-64 0 -125.5 18t-113.5 52q-53 35 -90.5 85.5t-54.5 112.5q-98 -50 -204 -50q-90 0 -172 35t-144 97t-97 144
t-35 172t35 172t97 144t144 97t172 35q102 0 199 -47q14 37 47.5 61t72.5 24q24 0 48 -10t42 -28t28 -42t10 -48v-657q0 -54 46 -84q41 -27 95 -27q62 0 108 84q34 61 56 175q15 82 15 151q0 104 -27 202t-78 185q-101 171 -276 276q-87 51 -185 78t-202 27
q-207 0 -386 -105q-86 -50 -156 -120.5t-120 -155.5q-52 -86 -79 -184.5t-27 -202.5q0 -208 106 -386q50 -85 120 -155.5t156 -120.5q87 -52 184.5 -79t201.5 -27q72 0 139 16t168 48q4 1 20 6t31 5q24 0 48 -10t42 -28t28 -42t10 -48q0 -78 -99 -128q-80 -41 -207 -60
q-90 -15 -180 -15q-138 0 -268.5 36.5t-246.5 104.5q-114 66 -208 160t-160 208q-68 116 -104.5 246.5t-36.5 268.5t36.5 269t104.5 247q66 113 160 207t208 161q116 67 246.5 103.5t268.5 36.5t268.5 -36zM952 1201q-35 -15 -62 -42t-42 -62t-15 -73t15 -73t42 -62t62 -42
t73 -15t72.5 14.5t61.5 41.5t42 61.5t15 72.5q0 39 -14.5 74.5t-41.5 62.5t-61.5 42t-73.5 15q-38 0 -73 -15z" />
    <glyph glyph-name="AutoTopup" unicode="&#xe50b;" 
d="M1339.5 1886q122.5 -34 231.5 -97q107 -63 194.5 -150.5t150.5 -194.5q63 -109 97 -231.5t34 -252.5q0 -26 -19 -45t-45 -19t-45 19t-19 45q0 112 -29.5 218.5t-84.5 201.5q-54 92 -130 168t-168 130q-95 55 -201.5 84.5t-218.5 29.5q-113 0 -219 -29.5t-200 -84.5
q-93 -54 -169 -130t-130 -168q-55 -95 -84.5 -201.5t-29.5 -218.5q0 -113 29.5 -219t84.5 -200q54 -93 130 -169t169 -130q94 -55 200.5 -84.5t218.5 -29.5q153 0 284 52q57 23 114 56.5t137 86.5q23 15 41 15q26 0 45 -19t19 -45q0 -34 -55 -78q-23 -19 -47 -32l-40 -24
q38 -12 78 -12q51 0 98.5 20.5t82.5 55.5t55 81.5t20 98.5q0 50 -19 96t-53 81t-79.5 55.5t-95.5 22.5q30 -30 53 -59q34 -43 34 -68q0 -26 -19 -45t-45 -19t-83 59q-50 51 -95 115q-21 29 -33 51q-13 22 -13 31q0 24 57 86q52 55 114 104q63 50 85 50q26 0 45 -19t19 -45
q0 -27 -35 -64q-14 -14 -31 -28l-27 -22q71 -7 135.5 -39.5t112.5 -84.5t74.5 -118.5t26.5 -139.5q0 -77 -30 -147.5t-83 -123.5t-123.5 -83t-147.5 -30q-119 0 -219 70q-170 -70 -357 -70q-130 0 -252.5 34t-231.5 98q-107 62 -194.5 149.5t-149.5 194.5q-64 109 -98 231.5
t-34 252.5t34 252.5t98 231.5q62 107 149.5 194.5t194.5 150.5q109 63 231.5 97t252.5 34t252.5 -34zM1358.5 1661q129.5 -51 231.5 -143t166 -215.5t79 -264.5q-49 34 -109 34q-37 0 -66.5 -12.5t-62.5 -37.5q-120 -95 -203 -189q-10 90 -81 138q-55 36 -153 58
q-21 5 -80 16q-83 14 -117 43q-18 15 -18 41q0 23 11 40.5t30 27.5q35 19 81 19q50 0 82.5 -15t57.5 -40q7 -7 22.5 -23t29.5 -24t31 -8q31 0 53.5 18t22.5 49q0 54 -54 96q-45 35 -117 57q-64 18 -116 18q-56 0 -108 -12.5t-93 -38.5q-96 -61 -96 -173q0 -98 70 -151
q52 -39 153 -61q40 -11 81 -18q90 -19 122 -48q19 -18 19 -47q0 -47 -46 -73q-40 -23 -90 -23q-73 0 -117 35q-15 11 -32 31q-32 41 -54 56q-14 10 -37 10q-30 0 -50.5 -19.5t-20.5 -49.5q0 -50 31 -86t83 -59q45 -20 98.5 -30.5t98.5 -10.5q75 0 139 20q73 23 117 73
q11 -53 90 -154q32 -41 66 -79t58 -59q-100 -81 -222.5 -125t-251.5 -44q-202 0 -379 103q-84 49 -152.5 117.5t-117.5 152.5q-103 177 -103 379q0 101 26.5 197t76.5 182q49 84 117.5 152.5t152.5 117.5q86 50 182 76.5t197 26.5q142 0 271.5 -51z" />
    <glyph glyph-name="AvatarBotCertified" unicode="&#xf121;" 
d="M715.5 2029.5q70.5 -18.5 133.5 -53.5q83 16 175 16q130 0 254 -34.5t234 -98.5q107 -63 195.5 -151.5t151.5 -195.5q64 -110 98.5 -234t34.5 -254q0 -92 -16 -175q35 -63 53.5 -133.5t18.5 -143.5q0 -115 -44.5 -219t-124.5 -184t-184 -124.5t-219 -44.5
q-73 0 -143.5 18.5t-133.5 53.5q-83 -16 -175 -16q-130 0 -254 34.5t-233 98.5q-108 63 -196.5 151.5t-151.5 196.5q-64 109 -98.5 233t-34.5 254q0 92 16 175q-35 63 -53.5 133.5t-18.5 143.5q0 115 44.5 219t124.5 184t184 124.5t219 44.5q73 0 143.5 -18.5zM1293 1292
l-362 -364l-129 128q-28 28 -67 28q-18 0 -36 -8t-31 -21t-21 -31t-8 -36q0 -40 28 -68l196 -196q28 -28 68 -28t68 28l430 432q28 28 28 68q0 18 -8 36t-21 31t-31 21t-36 8q-40 0 -68 -28z" />
    <glyph glyph-name="AvatarBotCertifiedStroke" unicode="&#xf120;" 
d="M715.5 2029.5q70.5 -18.5 133.5 -53.5q83 16 175 16q130 0 254 -34.5t234 -98.5q107 -63 195.5 -151.5t151.5 -195.5q64 -110 98.5 -234t34.5 -254q0 -92 -16 -175q35 -63 53.5 -133.5t18.5 -143.5q0 -115 -44.5 -219t-124.5 -184t-184 -124.5t-219 -44.5
q-73 0 -143.5 18.5t-133.5 53.5q-83 -16 -175 -16q-130 0 -254 34.5t-233 98.5q-108 63 -196.5 151.5t-151.5 196.5q-64 109 -98.5 233t-34.5 254q0 92 16 175q-35 63 -53.5 133.5t-18.5 143.5q0 115 44.5 219t124.5 184t184 124.5t219 44.5q73 0 143.5 -18.5zM409.5 1868.5
q-78.5 -33.5 -137.5 -92.5t-92.5 -137.5t-33.5 -163.5q0 -123 82 -257q-21 -112 -21 -194q0 -110 29 -215t83 -196q53 -91 128 -166t166 -128q91 -54 196 -83t215 -29q82 0 194 21q134 -82 257 -82q85 0 163.5 33.5t137.5 92.5t92.5 137.5t33.5 163.5q0 123 -82 257
q21 112 21 194q0 110 -29 215t-83 197q-53 90 -128 165t-165 128q-92 54 -197 83t-215 29q-82 0 -194 -21q-134 82 -257 82q-85 0 -163.5 -33.5zM1397 1312q18 -8 31 -21t21 -31t8 -36q0 -40 -28 -68l-430 -432q-28 -28 -68 -28t-68 28l-196 196q-28 28 -28 68q0 18 8 36
t21 31t31 21t36 8q39 0 67 -28l129 -128l362 364q28 28 68 28q18 0 36 -8z" />
    <glyph glyph-name="AvatarBotMask" unicode="&#xf11e;" 
d="M1539 1914q65 -40 101 -101l373 -650q36 -61 36 -137q0 -75 -36 -137l-378 -654q-36 -62 -101 -100q-64 -39 -137 -39h-751q-74 0 -134.5 37.5t-98.5 101.5l-378 650q-36 62 -36 136q0 76 36 138l378 654q36 61 101 101q65 38 137 38h751q72 0 137 -38z" />
    <glyph glyph-name="AvatarBotMaskInversed" unicode="&#xf11f;" 
d="M2048 1026q0 77 -35 137l-373 650q-36 61 -101 101q-65 38 -137 38h-751q-72 0 -137 -38q-65 -40 -101 -101l-378 -654q-35 -60 -35 -137v1026h2048v-1022zM2048 0h-2048v1022q0 -77 35 -137l378 -650q38 -63 98 -99q64 -40 135 -40h751q73 0 137 39q65 38 101 100
l378 654q35 60 35 137v-1026z" />
    <glyph glyph-name="AvatarBotMaskWithPresence" unicode="&#xf123;" 
d="M1539 1914q64 -37 101 -101l373 -650q36 -61 36 -137q0 -69 -42 -151q-19 -37 -39 -68q-26 -39 -42 -67q-103 56 -219 56q-92 0 -175 -35.5t-146 -98.5t-98.5 -146t-35.5 -175q0 -133 72 -245h-678q-72 0 -134 39q-62 36 -99 100l-378 650q-36 62 -36 136q0 76 36 138
l378 654q36 61 101 101q65 38 137 38h751q72 0 137 -38z" />
    <glyph glyph-name="AvatarMask" unicode="&#xe21d;" 
d="M1292.5 2012q130.5 -36 247.5 -104q113 -67 207 -161t161 -207q68 -117 104 -247.5t36 -268.5q0 -164 -55 -329q-61 48 -135 74.5t-151 26.5q-92 0 -175 -35.5t-146 -98.5t-98.5 -146t-35.5 -175q0 -77 26.5 -151t74.5 -135q-165 -55 -329 -55q-138 0 -268.5 36.5
t-246.5 104.5q-114 66 -208 160t-160 208q-68 116 -104.5 246.5t-36.5 268.5t36.5 269t104.5 247q66 113 160 207t208 161q116 67 246.5 103.5t268.5 36.5t268.5 -36z" />
    <glyph glyph-name="Backspace" unicode="&#xe43f;" 
d="M1873.5 1766.5q49.5 -20.5 87.5 -57.5t60 -85t22 -101v-998q0 -53 -22 -101t-60 -85t-87.5 -57.5t-102.5 -20.5h-1067q-61 0 -115.5 24t-92.5 69l-428 499q-30 36 -46.5 79.5t-16.5 91.5t16.5 92t47.5 79l427 498q38 45 93 69.5t115 24.5h1067q53 0 102.5 -20.5z
M1465 1389l-281 -281l-281 281q-19 19 -45 19t-45 -19t-19 -45t19 -45l281 -281l-281 -281q-19 -19 -19 -45t19 -45t45 -19q27 0 45 18l281 281l281 -281q18 -18 45 -18q26 0 45 19t19 45t-19 45l-281 281l281 281q19 19 19 45t-19 45t-45 19t-45 -19z" />
    <glyph glyph-name="Badge" unicode="&#xe312;" horiz-adv-x="1928" 
d="M1893.5 2201.5q62.5 -26.5 109.5 -73.5t73.5 -109.5t26.5 -131.5q0 -70 -26 -131.5t-74 -109.5q-47 -47 -110 -74t-131 -27t-130 26.5t-110 74.5t-74.5 109.5t-26.5 131.5q0 68 27 131t74 110t109 73.5t131 26.5t131.5 -26.5z" />
    <glyph glyph-name="BadgeCenter" unicode="&#xe41d;" 
d="M1850.5 1895q58.5 -25 102.5 -69t69 -102.5t25 -123.5t-25 -123t-69 -102q-45 -45 -103 -70t-123 -25q-64 0 -122 25t-103 70t-70 103t-25 122q0 65 25 123t70 103q44 44 102 69t123 25t123.5 -25z" />
    <glyph glyph-name="BadgeM2" unicode="&#xe342;" 
d="M1850.5 2023q58.5 -25 102.5 -69t69 -102.5t25 -123.5t-25 -123t-69 -102q-45 -45 -103 -70t-123 -25q-64 0 -122 25t-103 70t-70 103t-25 122q0 65 25 123t70 103q44 44 102 69t123 25t123.5 -25z" />
    <glyph glyph-name="BadgeRTL" unicode="&#xe347;" 
d="M443.5 1895q58.5 -25 102.5 -69t69 -102.5t25 -123.5t-25 -123t-69 -102q-45 -45 -103 -70t-123 -25q-64 0 -122 25t-103 70t-70 103t-25 122q0 65 25 123t70 103q44 44 102 69t123 25t123.5 -25z" />
    <glyph glyph-name="Bing" unicode="&#xe015;" 
d="M767 1850v-1350l541 311l-266 124l-166 416l851 -298v-437l-960 -552l-384 215v1705z" />
    <glyph glyph-name="Birthday" unicode="&#xe303;" 
d="M1800 1393q35 -15 62 -42t42 -62t15 -73v-448h-768v640h576q38 0 73 -15zM1023 0h-576q-38 0 -73 15t-62 42t-42 62t-15 73v448h768v-640zM1023 768h-768v448q0 38 15 73t42 62t62 42t73 15h576v-640zM1919 192q0 -38 -15 -73t-42 -62t-62 -42t-73 -15h-576v640h768v-448
zM662.5 1842.5q29.5 -12.5 51.5 -34.5l226 -228q18 -18 18 -44q0 -25 -19 -44t-44 -19q-22 0 -98 16q-56 12 -133 35q-74 21 -100 31q-54 20 -85 57t-31 91q0 30 12.5 58.5t34.5 49.5q21 21 49.5 32.5t58.5 11.5t59.5 -12.5zM1148 2035q29 -12 51 -34t35 -50.5t13 -60.5
q0 -26 -20 -109q-22 -90 -42 -158q-25 -84 -37 -106q-14 -23 -26.5 -34t-34.5 -11t-34.5 11t-26.5 34q-12 22 -37 106q-20 68 -42 158q-20 83 -20 109q0 32 13 60.5t35 50.5t51 34t61 12t61 -12zM1629.5 1843.5q28.5 -11.5 50.5 -32.5q21 -21 33.5 -49.5t12.5 -58.5
q0 -57 -30.5 -92.5t-85.5 -55.5q-30 -12 -100 -31q-76 -23 -132 -35q-75 -16 -99 -16q-25 0 -44 19t-19 44q0 26 18 44l228 230q21 21 50 33t59 12t58.5 -11.5z" />
    <glyph glyph-name="BlockNotification" unicode="&#xe20d;" 
d="M1275 1950q122 -34 231 -98q107 -63 194.5 -150.5t150.5 -194.5q64 -109 98 -231t34 -252t-34 -252t-98 -231q-63 -107 -150.5 -194.5t-194.5 -150.5q-109 -64 -231 -98t-252 -34t-252 34t-231 98q-107 63 -194.5 150.5t-150.5 194.5q-64 109 -98 231t-34 252t34 252
t98 231q63 107 150.5 194.5t194.5 150.5q109 64 231 98t252 34t252 -34zM645 452q85 -55 182 -84.5t196 -29.5q92 0 179.5 24.5t164.5 70.5q76 45 139 108t108 139q46 77 70.5 164.5t24.5 179.5q0 99 -29.5 196t-84.5 182zM843.5 1685.5q-87.5 -24.5 -164.5 -70.5
q-76 -45 -139 -108t-108 -139q-46 -77 -70.5 -164.5t-24.5 -179.5q0 -99 29.5 -196t84.5 -182l950 950q-85 55 -182 84.5t-196 29.5q-92 0 -179.5 -24.5z" />
    <glyph glyph-name="BlockNotificationLarge" unicode="&#xe20e;" 
d="M1358.5 2248.5q161.5 -44.5 304.5 -129.5q141 -84 256.5 -199.5t199.5 -256.5q85 -143 129.5 -304.5t44.5 -332.5q0 -172 -44.5 -333.5t-129.5 -304.5q-84 -141 -199.5 -256.5t-256.5 -198.5q-144 -85 -305 -130t-332 -45q-172 0 -333 45t-305 130q-141 83 -256.5 198.5
t-198.5 256.5q-85 144 -130 305t-45 333q0 171 45 332t130 305q83 141 198.5 256.5t256.5 199.5q143 85 304.5 129.5t333.5 44.5q171 0 332.5 -44.5zM527 271q112 -73 240 -112t259 -39q121 0 236.5 32.5t217.5 93.5q100 59 183 142t143 184q60 102 92.5 217.5t32.5 236.5
q0 131 -38.5 257.5t-111.5 241.5zM789.5 1898.5q-114.5 -32.5 -217.5 -92.5q-101 -60 -184 -143t-142 -183q-61 -102 -93.5 -217.5t-32.5 -236.5q0 -131 39 -259t112 -240l1254 1254q-115 73 -241.5 111.5t-257.5 38.5q-122 0 -236.5 -32.5z" />
    <glyph glyph-name="Bluetooth" unicode="&#xe409;" 
d="M1113 2010l512 -512q38 -38 38 -90q0 -29 -13 -56t-36 -45l-364 -283l364 -283q23 -18 36 -45t13 -56q0 -53 -38 -91l-512 -512q-18 -18 -41 -27.5t-49 -9.5q-52 0 -89 39q-39 37 -39 89v620l-433 -337q-34 -27 -79 -27q-52 0 -89 39q-39 37 -39 89q0 29 13 56t36 45
l529 411l-529 411q-23 18 -36 45t-13 56q0 24 10.5 48t28.5 42q38 38 89 38q44 0 79 -27l433 -337v620q0 24 10.5 48t28.5 42q38 38 89 38q52 0 90 -38zM1151 437l191 191l-191 148v-339zM1151 1271l191 149l-191 191v-340z" />
    <glyph glyph-name="BluetoothSpeaker" unicode="&#xe424;" 
d="M1005 1581q19 -19 19 -45v-1152q0 -26 -19 -45t-45 -19q-23 0 -39 13l-403 307h-381q-60 0 -94 62q-25 46 -36 134q-7 55 -7 124t7 125q11 87 36 133q34 62 94 62h381l403 307q16 13 39 13q26 0 45 -19zM1668 542l131 151l-131 118v-269zM1652 1564l284 -329
q16 -19 16 -42q0 -28 -21 -48l-222 -199l222 -199q21 -18 21 -48q0 -23 -16 -42l-284 -329q-19 -22 -48 -22q-26 0 -45 19t-19 45v423l-249 -224q-19 -16 -43 -16q-26 0 -45 19t-19 45q0 28 21 47l313 282l-313 281q-21 20 -21 48q0 26 19 45t45 19q24 0 43 -16l249 -224
v423q0 26 18.5 45t44.5 19q30 0 49 -22zM1668 1080l131 118l-131 152v-270z" />
    <glyph glyph-name="Board" unicode="&#xe915;" 
d="M1839 1910q24 -10 42 -28t28 -42t10 -48v-256q0 -51 -38 -89q-18 -18 -42 -28.5t-48 -10.5h-512q-52 0 -89 39q-39 37 -39 89v256q0 24 10.5 48t28.5 42q38 38 89 38h512q24 0 48 -10zM943 630q24 -10 42 -28t28 -42t10 -48v-256q0 -51 -38 -89q-18 -18 -42 -28.5
t-48 -10.5h-512q-52 0 -89 39q-39 37 -39 89v256q0 24 10.5 48t28.5 42q38 38 89 38h512q24 0 48 -10zM943 1270q24 -10 42 -28t28 -42t10 -48v-256q0 -51 -38 -89q-18 -18 -42 -28.5t-48 -10.5h-512q-52 0 -89 39q-39 37 -39 89v256q0 24 10.5 48t28.5 42q38 38 89 38h512
q24 0 48 -10zM943 1910q24 -10 42 -28t28 -42t10 -48v-256q0 -51 -38 -89q-18 -18 -42 -28.5t-48 -10.5h-512q-52 0 -89 39q-39 37 -39 89v256q0 24 10.5 48t28.5 42q38 38 89 38h512q24 0 48 -10zM1839 1270q24 -10 42 -28t28 -42t10 -48v-256q0 -51 -38 -89
q-18 -18 -42 -28.5t-48 -10.5h-512q-52 0 -89 39q-39 37 -39 89v256q0 24 10.5 48t28.5 42q38 38 89 38h512q24 0 48 -10z" />
    <glyph glyph-name="Bold" unicode="&#xe931;" 
d="M1318 1887q154 -42 238 -127q100 -102 100 -260q0 -75 -27 -141t-77 -119q-48 -51 -111 -88.5t-133 -56.5v-5q85 -10 161.5 -44t133.5 -88q59 -56 91.5 -131.5t32.5 -163.5q0 -179 -95 -306q-86 -114 -241 -174q-144 -55 -320 -55h-688v1792h651q156 0 284 -33zM767 898
v-472h216q128 0 206 57q90 64 90 185q0 118 -91 179q-79 51 -202 51h-219zM767 1623v-425h178q55 0 104 14t85 41q38 28 59.5 71.5t21.5 101.5q0 112 -98 161q-75 36 -198 36h-152z" />
    <glyph glyph-name="Bookmark" unicode="&#xe901;" 
d="M1410 2024q150 -29 218 -110q35 -44 35 -107v-1672q0 -51 -38 -89q-18 -18 -42 -28.5t-48 -10.5q-26 0 -50 9.5t-41 27.5l-421 422l-421 -422q-17 -18 -41 -27.5t-50 -9.5q-53 0 -89 38q-18 18 -28.5 41t-10.5 49v1672q0 116 127 176q94 45 269 60q78 5 136 5h108h109
q153 0 278 -24z" />
    <glyph glyph-name="Bot" unicode="&#xe21a;" 
d="M1068 2029q19 -19 19 -45v-192h384q38 0 72.5 -15t62.5 -42q27 -28 42 -62.5t15 -72.5v-512q0 -38 -15 -72.5t-42 -61.5q-28 -28 -62.5 -43t-72.5 -15h-896q-38 0 -72.5 15t-61.5 43q-28 27 -43 61.5t-15 72.5v512q0 38 15 72.5t43 62.5q27 27 61.5 42t72.5 15h384v192
q0 26 19 45t45 19t45 -19zM1900 749q19 -19 19 -45v-74q0 -176 -168 -292q-137 -94 -368 -141q-176 -37 -360 -37q-130 0 -259 20q-168 26 -295 74q-154 57 -241 144q-101 101 -101 232v74q0 26 19 45t45 19h1664q26 0 45 -19zM678 1498q-18 -18 -28.5 -42t-10.5 -48
q0 -52 39 -89q37 -39 89 -39q24 0 48 10.5t42 28.5q38 38 38 89q0 24 -10 48t-28 42t-42 28t-48 10q-51 0 -89 -38zM1190 1498q-18 -18 -28.5 -42t-10.5 -48q0 -52 39 -89q37 -39 89 -39q24 0 48 10.5t42 28.5q38 38 38 89q0 24 -10 48t-28 42t-42 28t-48 10q-51 0 -89 -38z
" />
    <glyph glyph-name="BotAdd" unicode="&#xe21b;" 
d="M941 2029q19 -19 19 -45v-192h384q38 0 72.5 -15t62.5 -42q27 -28 42 -62.5t15 -72.5v-392q107 -18 201 -72t164 -135q70 -82 108.5 -183t38.5 -210q0 -162 -84 -305q-40 -68 -95.5 -123.5t-122.5 -95.5q-69 -41 -146.5 -62.5t-159.5 -21.5q-114 0 -222 43t-193 122
q-72 -5 -129 -5q-186 0 -366 34q-224 42 -361 138q-165 114 -169 298l-1 43q0 46 10 66q13 29 55 29h790q17 67 51 128h-457q-38 0 -72.5 15t-61.5 43q-28 27 -43 61.5t-15 72.5v512q0 38 15 72.5t43 62.5q27 27 61.5 42t72.5 15h384v192q0 26 19 45t45 19t45 -19zM1504 672
h224v-128h-224v-224h-128v224h-224v128h224v224h128v-224zM1257 1050.5q-87 -37.5 -154 -104.5t-105 -155t-38 -183q0 -97 37.5 -184.5t104.5 -153.5q66 -67 153.5 -104.5t184.5 -37.5t184.5 37.5t154.5 104.5t104 154t37 184q0 96 -37 184t-104 155t-155 104t-184 37
t-183 -37.5zM551 1498q-18 -18 -28.5 -42t-10.5 -48q0 -52 39 -89q37 -39 89 -39q24 0 48 10.5t42 28.5q38 38 38 89q0 24 -10 48t-28 42t-42 28t-48 10q-51 0 -89 -38zM1063 1498q-18 -18 -28.5 -42t-10.5 -48q0 -52 39 -89q37 -39 89 -39q24 0 48 10.5t42 28.5
q38 38 38 89q0 24 -10 48t-28 42t-42 28t-48 10q-51 0 -89 -38z" />
    <glyph glyph-name="BotAddS" unicode="&#xe21c;" 
d="M941 2029q19 -19 19 -45v-192h384q38 0 72.5 -15t62.5 -42q27 -28 42 -62.5t15 -72.5v-392q107 -18 201 -72t164 -135q70 -82 108.5 -183t38.5 -210q0 -162 -84 -305q-40 -68 -95.5 -123.5t-122.5 -95.5q-69 -41 -146.5 -62.5t-159.5 -21.5q-114 0 -222 43t-193 122
q-72 -5 -129 -5q-186 0 -366 34q-224 42 -361 138q-165 114 -169 298l-1 43q0 46 10 66q13 29 55 29h790q17 67 51 128h-457q-38 0 -72.5 15t-61.5 43q-28 27 -43 61.5t-15 72.5v512q0 38 15 72.5t43 62.5q27 27 61.5 42t72.5 15h384v192q0 26 19 45t45 19t45 -19zM1504 672
h224v-128h-224v-224h-128v224h-224v128h224v224h128v-224zM1257 1050.5q-87 -37.5 -154 -104.5t-105 -155t-38 -183q0 -97 37.5 -184.5t104.5 -153.5q66 -67 153.5 -104.5t184.5 -37.5t184.5 37.5t154.5 104.5t104 154t37 184q0 96 -37 184t-104 155t-155 104t-184 37
t-183 -37.5zM551 1498q-18 -18 -28.5 -42t-10.5 -48q0 -52 39 -89q37 -39 89 -39q24 0 48 10.5t42 28.5q38 38 38 89q0 24 -10 48t-28 42t-42 28t-48 10q-51 0 -89 -38zM1063 1498q-18 -18 -28.5 -42t-10.5 -48q0 -52 39 -89q37 -39 89 -39q24 0 48 10.5t42 28.5
q38 38 38 89q0 24 -10 48t-28 42t-42 28t-48 10q-51 0 -89 -38z" />
    <glyph glyph-name="BottomLeft" unicode="&#xf702;" 
d="M1882 1883q37 -39 37 -91q0 -26 -9.5 -50t-27.5 -41l-1254 -1253h459q52 0 91 -37q37 -39 37 -91q0 -26 -9.5 -49t-27.5 -41q-38 -38 -91 -38h-768q-26 0 -49.5 10t-40.5 28q-18 17 -28 40.5t-10 49.5v704q0 53 38 91q18 18 41 27.5t49 9.5q52 0 91 -37q37 -39 37 -91
v-395l1253 1254q17 18 41 27.5t50 9.5q52 0 91 -37z" />
    <glyph glyph-name="BottomRight" unicode="&#xf701;" 
d="M369 1910.5q24 -9.5 41 -27.5l1253 -1254v395q0 53 38 91q18 18 41 27.5t49 9.5q52 0 91 -37q37 -39 37 -91v-704q0 -26 -9.5 -49t-27.5 -41q-38 -38 -91 -38h-768q-26 0 -49.5 10t-40.5 28q-18 17 -28 40.5t-10 49.5q0 53 38 91q18 18 41 27.5t49 9.5h459l-1254 1253
q-18 17 -27.5 41t-9.5 50q0 53 38 91q18 18 41 27.5t49 9.5t50 -9.5z" />
    <glyph glyph-name="BrokenBroadcast" unicode="&#xe94a;" 
d="M1188 934q13 -11 26 -35q4 -6 15 -40q10 -29 40 -138q17 -58 16 -54q29 -101 67 -247l16 -62q27 -100 33 -127q7 -31 7 -39q0 -26 -19 -45t-45 -19h-640q-26 0 -45 19t-19 45q0 4 8 39q13 54 48 189q38 146 67 247q38 133 57 192q10 32 17.5 46t20.5 27t38 13q30 0 64 -8
q31 -9 64 -9t64 9q34 8 64 8q23 0 36 -11zM118.5 1508q19.5 -19 19.5 -45q0 -34 -4 -59q-5 -33 -5 -60t5 -59q4 -27 4 -60q0 -26 -19.5 -45t-45.5 -19q-24 0 -38.5 13.5t-22.5 38.5q-11 32 -11 90v82q0 58 11 90q18 52 62 52q25 0 44.5 -19zM435.5 1468q19.5 -19 19.5 -45
q0 -19 -3 -39q-3 -19 -3 -40q0 -19 3 -39q3 -19 3 -40q0 -26 -19 -45t-45 -19q-43 0 -59 45q-11 31 -11 81v34q0 50 11 81q7 20 21 32.5t37 12.5q26 0 45.5 -19zM1147.5 1639q58.5 -25 102.5 -69t69 -102.5t25 -123.5t-25 -123t-69 -102q-45 -45 -103 -70t-123 -25
q-64 0 -122 25t-103 70t-70 103t-25 122q0 65 25 123t70 103q44 44 102 69t123 25t123.5 -25zM1716 1442q11 -31 11 -81v-34q0 -50 -11 -81q-16 -45 -59 -45q-26 0 -45 19t-19 45q0 21 3 40q3 20 3 39q0 21 -3 40q-3 20 -3 39q0 26 19.5 45t44.5 19q43 0 59 -45zM2037 1474
q10 -29 10 -90v-81q0 -60 -10 -89q-18 -53 -62 -53q-26 0 -45.5 19t-19.5 45q0 27 5 60q4 25 4 59q0 33 -4 60q-5 32 -5 59q0 26 19.5 45t44.5 19q45 0 63 -53z" />
    <glyph glyph-name="Bug" unicode="&#xe913;" 
d="M1412 2040.5q18 -7.5 31 -20.5t20.5 -31t7.5 -37q0 -18 -8.5 -37t-22.5 -33q-27 -27 -55 -27q-5 0 -15 2l-80 -81q53 -80 53 -176q0 -51 -20 -106q103 -36 190 -102.5t149 -154.5q62 -89 95.5 -192t33.5 -213v-128q0 -95 -25 -184.5t-71 -169.5q-46 -79 -110.5 -143.5
t-142.5 -109.5q-167 -97 -355 -97h-128q-95 0 -184.5 25t-169.5 72q-79 45 -143.5 109.5t-109.5 143.5q-47 80 -72 169.5t-25 184.5v128q0 109 33.5 212.5t96.5 192.5q62 88 148.5 154.5t189.5 102.5q-20 55 -20 106q0 96 53 176l-80 81q-15 -3 -16 -3q-32 0 -59 34
q-12 14 -19 31.5t-7 32.5q0 19 7.5 36.5t21.5 31.5q28 28 67 28q18 0 37 -8.5t34 -22.5q26 -28 26 -55q0 -5 -2 -15l81 -80q80 53 176 53t176 -53l81 80q-3 15 -3 16q0 15 9.5 31t24.5 28q14 12 31.5 19t32.5 7q19 0 37 -7.5zM635 632q-18 -8 -31 -21t-21 -31t-8 -36t8 -36
t21 -31t31 -21t36 -8t36 8t31 21t21 31t8 36t-8 36t-21 31t-31 21t-36 8t-36 -8zM635 1080q-18 -8 -31 -21t-21 -31t-8 -36t8 -36t21 -31t31 -21t36 -8t36 8t31 21t21 31t8 36t-8 36t-21 31t-31 21t-36 8t-36 -8zM1087 1408h-124v-768q0 -71 -22 -137.5t-64 -123.5
q-42 -58 -98.5 -100.5t-122.5 -63.5q74 -46 155 -67q144 88 216 229q36 -70 90 -128t123 -100q84 23 153 68q-66 23 -122 65t-96 99t-62 123t-22 136v768h-4zM1339 632q-18 -8 -31 -21t-21 -31t-8 -36t8 -36t21 -31t31 -21t36 -8t36 8t31 21t21 31t8 36t-8 36t-21 31t-31 21
t-36 8t-36 -8zM1339 1080q-18 -8 -31 -21t-21 -31t-8 -36t8 -36t21 -31t31 -21t36 -8t36 8t31 21t21 31t8 36t-8 36t-21 31t-31 21t-36 8t-36 -8zM950 1777q-35 -15 -62 -42t-42 -62t-15 -73t15 -74q53 10 113 10h128q60 0 113 -10q15 36 15 74t-15 73t-42 62t-62 42t-73 15
t-73 -15z" />
    <glyph glyph-name="Calendar" unicode="&#xe504;" 
d="M1400 1946q11 -27 11 -74q0 -44 -4 -80h320q38 0 73 -15t62 -42t42 -62t15 -73v-1205q0 -66 -38 -111t-102 -67q-157 -54 -373 -74q-149 -15 -383 -15t-382 15q-216 20 -374 74q-64 22 -102 67t-38 111v1205q0 38 15 73t42 62t62 42t73 15h320l-1 27q-2 36 -2 55
q0 45 11 72q16 38 56 38q41 0 57 -38q11 -27 11 -74q0 -44 -4 -80h512l-1 27q-2 36 -2 55q0 45 11 72q16 38 56 38q41 0 57 -38zM649 1323q-53 -21 -84 -56l97 -83q42 32 87 32q21 0 44.5 -5t41.5 -16q46 -27 46 -69q0 -51 -58 -73q-41 -16 -102 -16v-128q63 0 105 -21
q55 -27 55 -83q0 -24 -12 -43.5t-32 -33.5q-19 -13 -42.5 -20t-45.5 -7q-34 0 -67 11.5t-57 34.5l-91 -91q41 -39 99 -61t116 -22q48 0 95 17t84 48t59 74.5t22 92.5q0 47 -21 90t-58 76q36 28 57.5 69.5t21.5 85.5q0 48 -22.5 89t-61.5 71q-36 28 -82.5 43t-93.5 15
t-100 -21zM1206 1200l67 -109l70 43v-558h128v788z" />
    <glyph glyph-name="CalendarSubscription" unicode="&#xe501;" 
d="M1400 1945q11 -25 11 -74q0 -43 -4 -79h320q38 0 72.5 -15t62.5 -42q27 -28 42 -62.5t15 -72.5v-1205q0 -66 -38 -111t-102 -67q-157 -54 -373 -74q-149 -15 -383 -15t-382 15q-216 20 -374 74q-64 22 -102 67t-38 111v1205q0 38 15 72.5t43 62.5q27 27 61.5 42t72.5 15
h320l-1 27q-2 36 -2 55q0 43 12 72q16 38 55 38q40 0 57 -39q11 -25 11 -74q0 -43 -4 -79h512l-1 27q-2 36 -2 55q0 43 12 72q16 38 55 38q40 0 57 -39zM648.5 1323q-51.5 -21 -83.5 -56l97 -83q42 32 87 32q21 0 44.5 -5t41.5 -16q46 -27 46 -69q0 -51 -58 -73
q-41 -16 -102 -16v-128q63 0 105 -21q55 -27 55 -83q0 -24 -12 -43.5t-32 -33.5q-19 -13 -42.5 -20t-45.5 -7q-34 0 -66 11.5t-58 34.5l-91 -91q41 -41 98 -62t117 -21q48 0 95 17t84 48t59 74.5t22 92.5q0 47 -21 90t-58 76q36 28 57.5 69.5t21.5 85.5q0 48 -22.5 89
t-61.5 71q-36 28 -82.5 43t-93.5 15q-49 0 -100.5 -21zM1206 1200l67 -109l70 43v-558h128v788z" />
    <glyph glyph-name="CallAdd" unicode="&#xe128;" 
d="M656.5 1891.5q31.5 -3.5 57.5 -13.5q28 -11 52.5 -33.5t50.5 -61.5q44 -68 73 -154q31 -93 31 -167q0 -51 -13.5 -92t-38.5 -78q-19 -29 -43.5 -55.5t-47.5 -49.5l-30 -30l309 -444l57 27q60 30 117 44q28 7 62 7q85 0 171 -48q62 -34 141 -110q57 -52 79 -85
q37 -54 37 -107q0 -55 -27 -129q-26 -79 -61 -115q-43 -43 -121 -43q-34 0 -56 8q-323 102 -571 316q-246 211 -382 503q-140 300 -140 637q0 67 7.5 115.5t27.5 82.5q45 79 176 79q51 0 82.5 -3.5zM1644 1901q19 -19 19 -45v-192h192q26 0 45 -19t19 -45t-19 -45t-45 -19
h-192v-192q0 -26 -19 -45t-45 -19t-45 19t-19 45v192h-192q-26 0 -45 19t-19 45t19 45t45 19h192v192q0 26 19 45t45 19t45 -19z" />
    <glyph glyph-name="CallAnimSmall1" unicode="&#xe705;" horiz-adv-x="2047" 
d="M354 1802q62 0 102 -11q85 -23 124 -99l44 -86q28 -55 44.5 -115.5t16.5 -117.5q0 -126 -76 -205l-97 -102l308 -444l130 56q53 22 109 22q59 0 124 -26q98 -40 185 -131l66 -70q51 -54 51 -125q-1 -28 -7.5 -55.5t-20.5 -70.5l-11 -36l-3 -6l-16 -39q-2 -5 -6.5 -10.5
t-6.5 -8.5q-27 -29 -63 -43.5t-76 -14.5q-34 0 -57 8q-254 74 -458.5 221.5t-357.5 364.5q-275 391 -275 864q0 53 3 105q4 56 34 100.5t80 65.5q14 6 22 6l42 2z" />
    <glyph glyph-name="CallAnimSmall2" unicode="&#xe706;" horiz-adv-x="2047" 
d="M354 1802q62 0 102 -11q85 -23 124 -99l44 -86q28 -55 44.5 -115.5t16.5 -117.5q0 -126 -76 -205l-97 -102l308 -444l130 56q53 22 109 22q59 0 124 -26q98 -40 185 -131l66 -70q51 -54 51 -125q-1 -28 -7.5 -55.5t-20.5 -70.5l-11 -36l-3 -6l-16 -39q-2 -5 -6.5 -10.5
t-6.5 -8.5q-27 -29 -63 -43.5t-76 -14.5q-34 0 -57 8q-254 74 -458.5 221.5t-357.5 364.5q-275 391 -275 864q0 53 3 105q4 56 34 100.5t80 65.5q14 6 22 6l42 2zM1066.5 1242.5q43.5 -28.5 73.5 -70.5q49 -70 49 -154q0 -20 -3 -43q-4 -24 -22 -39.5t-41 -15.5q-8 0 -9 1
q-24 4 -39.5 22t-15.5 41l1 9q2 14 2 22q0 52 -32.5 91.5t-84.5 50.5q-23 5 -37 22.5t-14 39.5q0 28 18.5 46.5t44.5 18.5q5 0 15 -2q51 -11 94.5 -39.5z" />
    <glyph glyph-name="CallAnimSmall3" unicode="&#xe707;" horiz-adv-x="2047" 
d="M354 1802q62 0 102 -11q85 -23 124 -99l44 -86q28 -55 44.5 -115.5t16.5 -117.5q0 -126 -76 -205l-97 -102l308 -444l130 56q53 22 109 22q59 0 124 -26q98 -40 185 -131l66 -70q51 -54 51 -125q-1 -28 -7.5 -55.5t-20.5 -70.5l-11 -36l-3 -6l-16 -39q-2 -5 -6.5 -10.5
t-6.5 -8.5q-27 -29 -63 -43.5t-76 -14.5q-34 0 -57 8q-254 74 -458.5 221.5t-357.5 364.5q-275 391 -275 864q0 53 3 105q4 56 34 100.5t80 65.5q14 6 22 6l42 2zM1066.5 1242.5q43.5 -28.5 73.5 -70.5q49 -70 49 -154q0 -20 -3 -43q-4 -24 -22 -39.5t-41 -15.5q-8 0 -9 1
q-24 4 -39.5 22t-15.5 41l1 9q2 14 2 22q0 52 -32.5 91.5t-84.5 50.5q-23 5 -37 22.5t-14 39.5q0 28 18.5 46.5t44.5 18.5q5 0 15 -2q51 -11 94.5 -39.5zM1326 1507q65 -54 114 -124t79 -150q41 -108 41 -228q0 -60 -10 -116q-4 -23 -21.5 -37.5t-41.5 -14.5q-9 0 -11 1
q-23 4 -38 21.5t-15 40.5q0 8 1 12q8 50 8 93q0 83 -24.5 161t-71.5 144q-60 85 -149 142t-195 77q-23 4 -38 21.5t-15 40.5q0 27 18.5 46t44.5 19q8 0 12 -1q172 -30 312 -148z" />
    <glyph glyph-name="CallAnimSmall4" unicode="&#xe708;" horiz-adv-x="2047" 
d="M354 1802q62 0 102 -11q85 -23 124 -99l44 -86q28 -55 44.5 -115.5t16.5 -117.5q0 -126 -76 -205l-97 -102l308 -444l130 56q53 22 109 22q59 0 124 -26q98 -40 185 -131l66 -70q51 -54 51 -125q-1 -28 -7.5 -55.5t-20.5 -70.5l-11 -36l-3 -6l-16 -39q-2 -5 -6.5 -10.5
t-6.5 -8.5q-27 -29 -63 -43.5t-76 -14.5q-34 0 -57 8q-254 74 -458.5 221.5t-357.5 364.5q-275 391 -275 864q0 53 3 105q4 56 34 100.5t80 65.5q14 6 22 6l42 2zM1066.5 1242.5q43.5 -28.5 73.5 -70.5q49 -70 49 -154q0 -20 -3 -43q-4 -24 -22 -39.5t-41 -15.5q-8 0 -9 1
q-24 4 -39.5 22t-15.5 41l1 9q2 14 2 22q0 52 -32.5 91.5t-84.5 50.5q-23 5 -37 22.5t-14 39.5q0 28 18.5 46.5t44.5 18.5q5 0 15 -2q51 -11 94.5 -39.5zM1326 1507q65 -54 114 -124t79 -150q41 -108 41 -228q0 -60 -10 -116q-4 -23 -21.5 -37.5t-41.5 -14.5q-9 0 -11 1
q-23 4 -38 21.5t-15 40.5q0 8 1 12q8 50 8 93q0 83 -24.5 161t-71.5 144q-60 85 -149 142t-195 77q-23 4 -38 21.5t-15 40.5q0 27 18.5 46t44.5 19q8 0 12 -1q172 -30 312 -148zM1351 1962.5q127 -60.5 233 -150.5q104 -88 182 -200t126 -241q66 -178 66 -368
q0 -94 -16 -183q-4 -23 -22 -38t-41 -15q-4 0 -5 1h-6q-23 4 -38 22t-15 41q0 8 1 12q14 84 14 163q0 166 -57 322q-42 112 -110.5 210t-160.5 176q-93 80 -204.5 133t-236.5 74q-23 4 -38 21.5t-15 40.5q0 27 18.5 46t44.5 19q8 0 12 -1q141 -24 268 -84.5z" />
    <glyph glyph-name="CallBlocked" unicode="&#xe110;" 
d="M1401 1751q172 -42 323 -118q160 -82 253 -186q34 -37 52 -75t18 -83q0 -35 -21.5 -80.5t-56.5 -87.5q-36 -43 -77 -70t-78 -27q-75 0 -146 17t-130 51q-64 37 -108.5 92t-62.5 128q-11 39 -15 79q-2 21 -11 81l-507 2q-18 -116 -36 -181.5t-51 -111.5q-36 -50 -99 -83
t-170 -58q-69 -16 -117 -16q-39 0 -80.5 26t-77.5 68q-34 41 -55 87t-21 84q0 45 18 83t52 75q93 105 254 186q149 76 322 118q169 41 314 41t314 -41zM911 437q80 -53 176 -53q64 0 123 25.5t103 69.5t69 102.5t25 122.5q0 96 -53 176zM964.5 999q-58.5 -25 -102.5 -69
t-69.5 -103t-25.5 -123q0 -96 53 -176l443 443q-80 53 -176 53q-64 0 -122.5 -25zM1259 1117q82 -35 144 -97t97 -144t35 -172q0 -91 -34.5 -171.5t-97.5 -143.5t-145 -98t-171 -35q-90 0 -171 35t-144 98t-98 144t-35 171q0 89 35 171t98 145t143.5 97.5t171.5 34.5
q90 0 172 -35z" />
    <glyph glyph-name="CallDisabled" unicode="&#xe117;" 
d="M2029.5 2029q18.5 -19 18.5 -44q0 -27 -19 -46l-1041 -1041l128 -185l56 27q56 29 117 44q28 7 62 7q83 0 172 -47q62 -34 141 -110l16 -16q43 -41 63 -69q37 -54 37 -108q0 -52 -27 -129q-26 -79 -61 -115q-43 -43 -121 -43q-34 0 -57 8q-217 60 -416 195
q-192 129 -339 311l-650 -649q-19 -19 -45 -19t-45 18.5t-19 44.5q0 23 25 48l1921 1921l3 5q17 11 37 11q25 0 43.5 -19zM714.5 1891.5q32.5 -3.5 58.5 -13.5q29 -11 53 -33t50 -61q44 -68 73 -154q31 -93 31 -167q0 -51 -13.5 -92.5t-38.5 -78.5q-16 -24 -35.5 -45.5
t-56.5 -59.5l-29 -30l34 -49l-226 -226q-96 170 -144.5 356t-48.5 381q0 69 7 116.5t27 81.5q23 38 65.5 58t110.5 20q50 0 82.5 -3.5z" />
    <glyph glyph-name="CallDisabledStatus" unicode="&#xe12a;" 
d="M2029 2029q19 -19 19 -45t-19 -45l-1087 -1087l97 -139q19 8 57 26q64 32 116 45q28 7 62 7q84 0 171 -47q62 -34 142 -111l16 -16q43 -41 63 -69q37 -54 37 -107q0 -55 -27 -129q-26 -78 -62 -114q-44 -44 -120 -44q-23 0 -57 8q-206 54 -395 178q-188 123 -325 286
l-608 -607q-19 -19 -45 -19t-45 19t-19 45t19 45l1920 1920q19 19 45 19t45 -19zM639.5 1891.5q31.5 -3.5 57.5 -13.5q28 -12 52 -34.5t50 -60.5q43 -66 74 -154q30 -90 30 -167q0 -94 -52 -170q-19 -29 -43.5 -55.5t-47.5 -49.5l-30 -30l66 -95l-230 -229
q-109 178 -165 377.5t-56 408.5q0 68 7.5 116.5t27.5 82.5q23 38 65.5 57.5t111.5 19.5q51 0 82.5 -3.5z" />
    <glyph glyph-name="CallEnd" unicode="&#xe101;" 
d="M1356 1370q177 -38 342 -113q172 -79 275 -182q36 -36 55.5 -72t19.5 -81q0 -37 -23.5 -81t-62.5 -84q-39 -41 -82.5 -66t-80.5 -25q-75 0 -149 15.5t-138 47.5q-70 35 -119 88.5t-70 126.5q-12 40 -16 70l-12 70l-541 2q-19 -106 -43 -171.5t-63 -109.5
q-41 -45 -105 -73.5t-168 -49.5q-46 -8 -72 -12t-54 -4q-39 0 -83 24.5t-81 63.5q-38 40 -61.5 85t-23.5 83q0 45 19.5 81t55.5 72q104 104 276 182q163 75 342 113q176 38 331 38q154 0 332 -38z" />
    <glyph glyph-name="CallError" unicode="&#xe111;" 
d="M495.5 1830q54.5 -26 85.5 -88q50 -99 73 -159q31 -86 31 -171q0 -55 -12.5 -96t-36.5 -77q-27 -39 -55 -67l-69 -73l309 -456l57 27q68 34 116 46q28 7 62 7q87 0 173 -48q76 -42 140 -113l42 -44q46 -50 64 -94q10 -26 10 -60q0 -30 -6.5 -58t-20.5 -74
q-13 -41 -26 -69t-32 -47q-43 -46 -124 -46q-34 0 -57 8q-316 88 -573 321q-121 110 -217.5 244t-163.5 285q-67 152 -102.5 315t-35.5 329q0 56 2.5 91.5t12.5 67.5q12 38 36 66.5t66 48.5q14 6 59 8l60 2q78 0 132.5 -26zM1444 1152q-15 0 -26 -11t-11 -26v-54
q0 -15 11 -26t26 -11h54q15 0 26 11t11 26v54q0 15 -11 26t-26 11h-54zM1542 1899.5q33 -19.5 51 -52.5l402 -746q16 -31 16 -66q0 -28 -10.5 -53t-29.5 -44t-44.5 -30t-54.5 -11h-802q-29 0 -54.5 11t-43.5 30q-19 18 -30 43t-11 54q0 35 16 66l402 745q18 34 51 53.5
t71 19.5t71 -19.5zM1426 1645q-19 -19 -19 -45v-320q0 -26 19 -45t45 -19t45 19t19 45v320q0 26 -19 45t-45 19t-45 -19z" />
    <glyph glyph-name="CallForward" unicode="&#xe112;" 
d="M657 2024q45 -24 84 -62q40 -39 65 -82.5t25 -80.5q0 -75 -15.5 -149.5t-47.5 -137.5q-35 -69 -88.5 -118t-126.5 -71q-40 -12 -69 -16l-70 -12l-2 -541q106 -19 171.5 -43t109.5 -63q44 -41 72.5 -105.5t49.5 -167.5q8 -46 12 -72t4 -54q0 -40 -24 -83.5t-64 -81.5
t-84 -61t-83 -23q-80 0 -149 69q-27 27 -50.5 59.5t-51.5 77.5q-116 189 -176 394.5t-60 423.5t60 423.5t176 394.5q28 45 51.5 77.5t50.5 59.5q69 69 149 69q36 0 81 -24zM1644 1453l320 -320q19 -19 19 -45t-19 -45l-320 -320q-19 -19 -45 -19t-45 19t-19 45t19 45
l210 211h-933q-26 0 -45 19t-19 45t19 45t45 19h933l-210 211q-19 19 -19 45t19 45t45 19t45 -19z" />
    <glyph glyph-name="CallIn" unicode="&#xe10e;" 
d="M486 1853.5q32 -3.5 57 -14.5q26 -12 50 -34t52 -60q42 -60 74 -153q30 -90 30 -168q0 -94 -52 -170q-19 -29 -43.5 -55.5t-47.5 -49.5l-30 -30l309 -444l57 27q60 30 116 44q28 7 62 7q85 0 171 -48q59 -34 142 -109q26 -25 49 -43q23 -19 37 -38.5t22 -44.5
q8 -27 8 -67q0 -52 -27 -129q-26 -79 -61 -115q-43 -43 -121 -43q-29 0 -57 9q-325 102 -571 316q-122 105 -219 232.5t-163 270.5q-68 146 -103.5 306.5t-35.5 329.5q0 68 7.5 117t27.5 83q46 77 180 77q48 0 80 -3.5zM1708 1709q19 -19 19 -45t-19 -45l-467 -467h298
q25 0 44.5 -19t19.5 -45t-19.5 -45t-44.5 -19h-452q-26 0 -45 19t-19 45v452q0 25 19 44.5t45 19.5t45 -19.5t19 -44.5v-298l467 467q19 19 45 19t45 -19z" />
    <glyph glyph-name="CallMissed" unicode="&#xe10d;" 
d="M1398 1757q170 -38 317 -104q160 -72 260 -169q36 -34 54 -67.5t18 -78.5q0 -57 -13.5 -112.5t-40.5 -98.5q-30 -48 -75.5 -75.5t-105.5 -27.5q-67 0 -139 15t-134 44q-69 33 -116 83t-61 118q-4 17 -6 42q-5 58 -28 84q-13 15 -40 15h-402q-43 0 -58 -51q-7 -22 -9 -45
q-2 -25 -6 -41q-16 -69 -62 -120t-114 -84q-61 -30 -133 -45t-142 -15q-115 0 -180 103q-27 43 -41 98.5t-14 112.5q0 45 18 78.5t54 67.5q75 72 182.5 130t233.5 99q119 39 241 59t231 20q145 0 311 -35zM1259 1117q82 -35 144 -97t97 -144t35 -172t-35 -172t-97 -144
t-144 -97t-172 -35t-172 35t-144 97t-97 144t-35 172t35 172t97 144t144 97t172 35t172 -35zM1042 941q-19 -19 -19 -45v-192q0 -26 19 -45l128 -128q19 -19 45 -19t45 19t19 45q0 33 -51 84q-21 21 -42 39q-20 16 -35 31v166q0 26 -19 45t-45 19t-45 -19z" />
    <glyph glyph-name="CallMissedCentered" unicode="&#xe21f;" horiz-adv-x="2044" 
d="M1491.5 1711q224.5 -78 416.5 -230q34 -27 52.5 -64.5t18.5 -79.5q0 -17 -3 -35l-20 -106q-16 -76 -75 -125q-28 -23 -63 -36t-73 -13q-9 0 -31 2l-88 13q-52 7 -104.5 25t-97.5 46q-110 69 -128 174l-18 95q-4 20 -19.5 32.5t-36.5 12.5h-402q-21 0 -36.5 -12.5
t-19.5 -32.5l-16 -91q-21 -109 -125 -176q-45 -29 -98.5 -47.5t-107.5 -25.5l-89 -13q-20 -2 -30 -2q-69 0 -125 40q-34 24 -56.5 58.5t-30.5 75.5l-20 106q-3 18 -3 35q0 42 18.5 79.5t52.5 64.5q192 152 416.5 230t470.5 78t470.5 -78zM1193.5 1115.5
q81.5 -34.5 143.5 -96.5t96.5 -143.5t34.5 -172.5t-34.5 -172.5t-96.5 -143.5t-143.5 -96.5t-172.5 -34.5t-172.5 34.5t-143.5 96.5t-96.5 143.5t-34.5 172.5t34.5 172.5t96.5 143.5q62 61 144 96t172 35q91 0 172.5 -34.5zM976 939.5q-19 -18.5 -19 -45.5v-191
q0 -26 19 -45l128 -128q18 -19 45 -19t45 19q19 19 19 45t-19 45l-109 109v165q0 27 -18.5 45.5t-45.5 18.5q-26 0 -45 -18.5z" />
    <glyph glyph-name="CallOk" unicode="&#xe129;" 
d="M629 1772q51 -23 96 -86q45 -62 76 -146q32 -86 32 -161q0 -48 -14 -88t-41 -77q-22 -30 -47 -55t-77 -72l320 -425l59 27q59 27 123 41q29 7 63 7q86 0 176 -45q69 -36 148 -106q21 -18 43 -39t38 -41q39 -51 39 -104q0 -50 -28 -123q-16 -40 -31 -67t-35 -45
q-45 -39 -123 -39q-37 0 -59 8q-158 45 -303.5 118.5t-272.5 171.5t-229.5 219t-174.5 259q-152 291 -152 624q0 76 10.5 125.5t36.5 79.5q27 31 74.5 45.5t123.5 14.5q82 0 129 -21zM1900 1778q19 -19 19 -45t-19 -45l-325 -325q-19 -19 -45 -19t-45 19l-187 187
q-19 19 -19 45t19 45t45 19t45 -19l142 -141l280 279q19 19 45 19t45 -19z" />
    <glyph glyph-name="CallOut" unicode="&#xe10f;" 
d="M486 1853.5q32 -3.5 57 -14.5q26 -12 50 -34t52 -60q42 -60 74 -153q30 -90 30 -168q0 -94 -52 -170q-19 -29 -43.5 -55.5t-47.5 -49.5l-30 -30l309 -444l57 27q60 30 116 44q28 7 62 7q85 0 171 -48q67 -37 142 -109q21 -20 43 -42.5t36 -43.5q37 -54 37 -107
q0 -52 -27 -129q-26 -79 -61 -115q-43 -43 -121 -43q-29 0 -57 9q-325 102 -571 316q-122 105 -219 232.5t-163 270.5q-68 146 -103.5 306.5t-35.5 329.5q0 68 7.5 117t27.5 83q46 77 180 77q48 0 80 -3.5zM1644 1641q19 -19 19 -44v-452q0 -26 -19 -45t-45 -19t-45 19
t-19 45v297l-467 -467q-18 -18 -45 -18q-26 0 -45 19t-19 45t19 45l467 467h-298q-26 0 -45 19t-19 45q0 25 19 44t45 19h452q26 0 45 -19z" />
    <glyph glyph-name="CallQualityIndicator" unicode="&#xe12c;" 
d="M1187.5 933.5q13.5 -11.5 26.5 -34.5q5 -8 15 -40q14 -43 56 -192q29 -101 67 -247l19 -74q18 -68 30 -116q7 -29 7 -38q0 -26 -19 -45t-45 -19h-640q-26 0 -45 19t-19 45q0 4 8 38q13 57 48 191q38 146 67 247q34 120 57 192q10 32 17.5 45.5t20.5 26.5t38 13
q30 0 64 -8q31 -9 64 -9t64 9q34 8 64 8q22 0 35.5 -11.5zM395 2023q19 -19 19 -45q0 -22 -21 -47q-20 -25 -43 -49q-21 -20 -46 -48q-80 -93 -127 -230q-44 -129 -44 -260t44 -260q47 -137 127 -230q25 -28 46 -48q23 -24 43 -49q21 -25 21 -47q0 -26 -19 -45t-45 -19
q-32 0 -73 43q-25 24 -58 67q-105 136 -159.5 280.5t-54.5 307.5t54.5 307.5t159.5 280.5q33 43 58 68q42 42 73 42q26 0 45 -19zM621 1796q19 -19 19 -45q0 -10 -14 -30l-34 -47q-61 -80 -90 -140q-49 -98 -49 -190q0 -93 49 -189q31 -64 90 -140l34 -48q14 -20 14 -30
q0 -26 -19 -45t-45 -19q-17 0 -43 16q-46 31 -85 84t-67 120q-27 63 -41.5 128.5t-14.5 122.5t14.5 123t41.5 129q28 66 67 119t85 84q26 16 43 16q26 0 45 -19zM1147.5 1639q58.5 -25 102.5 -69t69 -102.5t25 -123.5t-25 -123t-69 -102q-45 -45 -103 -70t-123 -25
q-64 0 -122 25t-103 70t-70 103t-25 122q0 65 25 123t70 103q44 44 102 69t123 25t123.5 -25zM1519 1799q46 -31 85 -84t68 -119q27 -63 41.5 -129t14.5 -123t-14.5 -122.5t-41.5 -128.5q-29 -67 -68 -120t-85 -84q-24 -16 -42 -16q-26 0 -45 19t-19 45q0 10 14 30l35 48
q60 80 90 140q48 98 48 189q0 90 -48 190q-28 55 -90 140q-22 29 -35 47q-14 20 -14 30q0 26 19 45t45 19q18 0 42 -16zM1776 2000q26 -25 58 -68q105 -136 159.5 -280.5t54.5 -307.5t-54.5 -307.5t-159.5 -280.5q-33 -43 -58 -67q-43 -43 -73 -43q-26 0 -45 19t-19 45
q0 23 20 47q21 27 44 49q24 23 45 48q82 95 128 230q44 129 44 260t-44 260q-46 135 -128 230q-21 26 -45 48q-23 22 -44 49q-20 24 -20 47q0 26 19 45t45 19q29 0 73 -42z" />
    <glyph glyph-name="CallReverse" unicode="&#xe11c;" 
d="M1552 2028.5q37 -19.5 72 -55.5q103 -103 182 -275q75 -165 113 -342q38 -178 38 -332q0 -155 -38 -331q-38 -179 -113 -342q-78 -172 -182 -276q-36 -36 -72 -55.5t-81 -19.5q-38 0 -83 23.5t-85 61.5q-39 37 -63.5 81t-24.5 83q0 75 15.5 150t47.5 139q74 147 216 187
q40 11 85 19t53 9l2 541q-8 1 -53 9t-85 19q-141 40 -217 188q-32 63 -48 138t-16 151q0 36 25.5 80t65.5 82t84.5 62.5t79.5 24.5q45 0 82 -19.5zM236 1703q19 -19 19 -45q0 -103 40 -196.5t111 -163.5q71 -71 164.5 -111.5t196.5 -40.5h363q-18 18 -33 31q-73 68 -101 96
q-56 55 -86 100q-15 21 -15 35q0 26 19 45t45 19t45 -19l320 -320q19 -19 19 -45t-19 -45l-320 -320q-19 -19 -45 -19t-45 19t-19 45q0 25 49 79q29 33 97 99l46 42l32 30h-352q-172 0 -321 88q-71 42 -130 101t-101 130q-88 149 -88 321q0 26 19 45t45 19t45 -19z" />
    <glyph glyph-name="CallStart" unicode="&#xe100;" 
d="M725.5 1891.5q31.5 -3.5 57.5 -13.5q28 -11 53 -34t51 -61q43 -66 74 -154q30 -90 30 -167q0 -51 -13.5 -92t-38.5 -78q-19 -29 -43.5 -55.5t-47.5 -49.5l-30 -30l309 -444l56 27q62 30 117 44q28 7 62 7q85 0 171 -48q64 -36 142 -110l14 -14q44 -42 64 -71
q38 -55 38 -107q0 -55 -27 -129q-14 -39 -28.5 -67t-33.5 -48q-22 -22 -50.5 -32.5t-69.5 -10.5q-35 0 -57 8q-325 102 -571 316q-122 105 -219 232.5t-163 270.5q-139 301 -139 637q0 69 7 116.5t27 81.5q23 39 65 59t111 20q51 0 82.5 -3.5z" />
    <glyph glyph-name="CallStartBig" unicode="&#xe130;" 
d="M792 1978q28 -30 51 -68.5t52 -96.5q34 -71 53 -136.5t19 -132.5q0 -101 -51 -178q-16 -25 -35 -45.5t-36.5 -36.5t-24.5 -23q-26 -26 -38.5 -45t-12.5 -40q0 -10 20 -45q36 -63 117 -181q63 -93 131 -182q26 -34 40.5 -48.5t30.5 -24.5q14 -10 41 -10q20 0 42 8t58 24
l20 9q43 20 77 30.5t69 10.5q94 0 195 -54q77 -42 163 -125q7 -7 30 -29.5t40.5 -43t30.5 -38.5q45 -67 45 -141q0 -68 -53 -149q-50 -76 -125 -131q-77 -56 -146 -56q-33 0 -63 9q-186 56 -353.5 145.5t-309.5 209.5q-142 119 -255.5 264.5t-193.5 311.5q-81 167 -123 352
t-42 381q0 71 2 106t13 66q12 36 39.5 66.5t76.5 59.5q62 34 111 52q68 25 120 25q107 0 175 -70z" />
    <glyph glyph-name="CallTransfer" unicode="&#xe11d;" 
d="M686 2006q56 -37 101 -97q21 -28 32.5 -57t11.5 -53q0 -75 -15.5 -149.5t-47.5 -137.5q-35 -70 -88.5 -119t-126.5 -70q-39 -11 -84 -18.5t-55 -9.5l-2 -541q19 -4 70 -13q32 -5 68 -15q142 -39 218 -187q32 -63 47.5 -138.5t15.5 -151.5q0 -39 -24.5 -83t-63.5 -81
q-40 -38 -84.5 -61.5t-82.5 -23.5q-45 0 -82 19.5t-72 55.5q-103 104 -182 277q-70 152 -112 341q-39 174 -39 331t39 331q42 189 112 341q79 173 182 277q36 36 72 55.5t81 19.5q47 0 111 -42zM1196 1389l256 -256q19 -19 19 -45t-19 -45l-256 -256q-19 -19 -45 -19t-45 19
t-19 45t19 45l146 147h-485q-26 0 -45 19t-19 45t19 45t45 19h485l-146 147q-19 19 -19 45t19 45t45 19t45 -19zM1760 1699q24 -13 49 -37q49 -47 88.5 -120t68.5 -161q26 -83 40 -168t14 -155t-14 -154.5t-40 -166.5q-28 -88 -68 -161.5t-89 -120.5q-25 -24 -49 -37
t-54 -13q-84 0 -147 38q-72 44 -72 125q0 48 10 97.5t31 92.5q22 47 57.5 78.5t83.5 40.5q4 1 10 2t16 2q39 4 56 17q10 7 10 24v272q0 28 -34 37q-20 4 -30 5l-26 3q-93 18 -142 120q-21 43 -31.5 92.5t-10.5 96.5q0 81 72 126q61 38 147 38q30 0 54 -13z" />
    <glyph glyph-name="CallerID" unicode="&#xe114;" 
d="M358 1891.5q32 -3.5 57 -14.5q26 -12 50 -34t52 -60q42 -60 74 -153q30 -90 30 -168q0 -94 -52 -170q-19 -29 -43.5 -55.5t-47.5 -49.5l-30 -30l309 -444l57 27q60 30 116 44q28 7 62 7q85 0 171 -48q64 -36 142 -110q20 -20 41.5 -42.5t36.5 -42.5q38 -53 38 -107
q0 -55 -27 -129q-14 -39 -28.5 -67t-33.5 -48q-41 -43 -120 -43q-34 0 -57 8q-325 102 -571 316q-122 105 -219 232.5t-163 270.5q-68 146 -103.5 307t-35.5 330q0 68 7.5 117t27.5 83q46 77 180 77q48 0 80 -3.5zM1132 1901q19 -19 19 -45v-640q0 -26 -19 -45t-45 -19
t-45 19t-19 45v640q0 26 19 45t45 19t45 -19zM1407 1792v-512h128q51 0 97.5 20t82.5 56t56 82.5t20 97.5t-20 97.5t-56 82.5t-82.5 56t-97.5 20h-128zM1682.5 1890q70.5 -30 123.5 -83t83 -123.5t30 -147.5t-30 -147t-83 -123q-54 -54 -124 -84t-147 -30h-192q-26 0 -45 19
t-19 45v640q0 26 19 45t45 19h192q77 0 147.5 -30z" />
    <glyph glyph-name="Camera" unicode="&#xe40c;" 
d="M1929 1777q35 -15 62 -42t42 -62t15 -73v-1152q0 -38 -15 -73t-42 -62t-62 -42t-73 -15h-1664q-38 0 -73 15t-62 42t-42 62t-15 73v1152q0 38 15 73t42 62t62 42t73 15h1664q38 0 73 -15zM439 1457q-35 -15 -62 -42t-42 -62t-15 -73t15 -73t42 -62t62 -42t73 -15t73 15
t62 42t42 62t15 73t-15 73t-42 62t-62 42t-73 15t-73 -15zM1467.5 1319q58.5 -25 102.5 -69t69 -102.5t25 -123.5t-25 -123t-69 -102q-45 -45 -103 -70t-123 -25q-64 0 -122 25t-103 70t-70 103t-25 122q0 65 25 123t70 103q44 44 102 69t123 25t123.5 -25zM1172 1437
q-82 -35 -144 -97t-97 -144t-35 -172t35 -172t97 -144t144 -97t172 -35t172 35t144 97t97 144t35 172t-35 172t-97 144t-144 97t-172 35t-172 -35z" />
    <glyph glyph-name="Cancel" unicode="&#xe413;" 
d="M1659 1730q24 -10 42 -28t28 -42t10 -48q0 -25 -9.5 -48.5t-27.5 -41.5l-498 -498l498 -498q18 -18 27.5 -41.5t9.5 -48.5q0 -51 -38 -89q-18 -18 -42 -28.5t-48 -10.5q-25 0 -48.5 9.5t-41.5 27.5l-498 498l-498 -498q-18 -18 -41.5 -27.5t-48.5 -9.5q-52 0 -89 39
q-39 37 -39 89q0 25 9.5 48.5t27.5 41.5l498 498l-498 498q-18 18 -27.5 41.5t-9.5 48.5q0 24 10.5 48t28.5 42q38 38 89 38q25 0 48.5 -9.5t41.5 -27.5l498 -498l498 498q18 18 41.5 27.5t48.5 9.5q24 0 48 -10z" />
    <glyph glyph-name="Change" unicode="&#xe919;" 
d="M1837 1901q19 -19 19 -45t-19 -45t-45 -19q-51 0 -97.5 -20t-82.5 -56t-56 -82.5t-20 -97.5v-1024q0 -51 20 -97.5t56 -82.5t82.5 -56t97.5 -20q26 0 45 -19t19 -45t-19 -45t-45 -19q-93 0 -181 47q-86 46 -139 125q-53 -79 -139 -125q-88 -47 -181 -47q-26 0 -45 19
t-19 45t19 45t45 19q51 0 97.5 20t82.5 56t56 82.5t20 97.5v1024q0 51 -20 97.5t-56 82.5t-82.5 56t-97.5 20q-26 0 -45 19t-19 45t19 45t45 19q95 0 181 -46q85 -45 139 -126q54 81 139 126q86 46 181 46q26 0 45 -19zM1261 1389q19 -19 19 -45v-640q0 -26 -19 -45t-45 -19
h-1024q-38 0 -73 15t-62 42t-42 62t-15 73v384q0 38 15 73t42 62t62 42t73 15h1024q26 0 45 -19zM1929 1393q35 -15 62 -42t42 -62t15 -73v-384q0 -38 -15 -73t-42 -62t-62 -42t-73 -15h-128q-26 0 -45 19t-19 45v640q0 26 19 45t45 19h128q38 0 73 -15z" />
    <glyph glyph-name="ChannelFollow" unicode="&#xe990;" 
d="M1889 1900q47 -20 83 -56q33 -33 56 -81q20 -51 20 -99v-832q0 -26 -19 -45t-45 -19t-45 19t-19 45v832q0 25 -11 49q-10 25 -28 40q-15 17 -40 28t-49 11h-1536q-24 0 -49 -11q-25 -12 -40 -28q-18 -15 -28 -40q-11 -24 -11 -49v-1024q0 -24 11 -49q12 -25 28 -40
q15 -16 40 -28q25 -11 49 -11h832q26 0 45 -19t19 -45t-19 -45t-45 -19h-832q-52 0 -98 20t-82 56q-33 33 -56 81q-20 51 -20 99v1024q0 48 20 99q43 94 137 137q49 20 99 20h1536q50 0 97 -20zM1645 749q19 -19 19 -45t-19 -45l-146 -147h485q26 0 45 -19t19 -45t-19 -45
t-45 -19h-485l146 -147q19 -19 19 -45t-19 -45t-45 -19t-45 19l-256 256q-19 19 -19 45t19 45l256 256q19 19 45 19t45 -19zM1792 1024h-1536v512h1536v-512z" />
    <glyph glyph-name="ChannelUnfollow" unicode="&#xe991;" horiz-adv-x="2060" 
d="M1889 1900q47 -20 83 -56q33 -33 56 -81q20 -51 20 -99v-768q0 -26 -19 -45t-45 -19t-45 19t-19 45v768q0 25 -11 49q-10 25 -28 40q-15 17 -40 28t-49 11h-1536q-24 0 -49 -11q-25 -12 -40 -28q-18 -15 -28 -40q-11 -24 -11 -49v-1024q0 -24 11 -49q12 -25 28 -40
q15 -16 40 -28q25 -11 49 -11h1088q26 0 45 -19t19 -45t-19 -45t-45 -19h-1088q-52 0 -98 20t-82 56q-33 33 -56 81q-20 51 -20 99v1024q0 48 20 99q43 94 137 137q49 20 99 20h1536q50 0 97 -20zM2041 697q19 -19 19 -45q0 -27 -19 -46l-158 -158l158 -158q19 -19 19 -45
t-19.5 -45.5t-44.5 -19.5q-26 0 -46 19l-158 158l-158 -158q-20 -19 -46 -19q-25 0 -44.5 19.5t-19.5 45.5t19 45l158 158l-158 158q-19 19 -19 46q0 26 19 45t46 19q26 0 45 -19l158 -158l158 158q19 19 46 19q26 0 45 -19zM1792 1024h-1536v512h1536v-512z" />
    <glyph glyph-name="ChatDeleted" unicode="&#xe322;" 
d="M1799.5 1905q34.5 -15 62.5 -42q27 -27 42 -61.5t15 -72.5v-1596q0 -26 -10.5 -50t-29.5 -43q-18 -19 -42.5 -29.5t-51.5 -10.5q-29 0 -56 13t-47 36l-291 325l-8 3q-106 -2 -180 -8q-83 -7 -180 -7q-226 0 -374 14q-213 18 -366 71q-73 25 -114.5 74t-41.5 123v1085
q0 38 15 72.5t43 61.5q27 27 61.5 42t72.5 15h1408q38 0 72.5 -15zM1362 1581l-339 -338l-339 338q-19 19 -45 19t-45 -19t-19 -45t19 -45l338 -339l-338 -339q-19 -19 -19 -45t19 -45t45 -19t45 19l339 338l339 -338q19 -19 45 -19t45 19t19 45t-19 45l-338 339l338 339
q19 19 19 45t-19 45t-45 19t-45 -19z" />
    <glyph glyph-name="ChatFavourite" unicode="&#xe330;" 
d="M1799.5 1905q34.5 -15 62.5 -42q27 -27 42 -61.5t15 -72.5v-1596q0 -26 -10.5 -50t-29.5 -43q-18 -19 -42.5 -29.5t-51.5 -10.5q-29 0 -56 13t-47 36l-291 325l-8 3q-106 -2 -180 -8q-83 -7 -180 -7q-226 0 -374 14q-213 18 -366 71q-73 25 -114.5 74t-41.5 123v1085
q0 38 15 72.5t43 61.5q27 27 61.5 42t72.5 15h1408q38 0 72.5 -15zM995.5 1527.5q-12.5 -8.5 -19.5 -22.5l-90 -190l-202 -31q-20 -3 -32.5 -19t-12.5 -35q0 -31 67 -98q24 -25 54 -52l41 -38q-10 -61 -22 -108q-13 -52 -13 -111q0 -21 15.5 -38t36.5 -17q23 0 102 45
q27 14 60 35l20 12l23 13q6 -3 44 -25q56 -35 119 -66q30 -14 42 -14q21 0 36.5 17t15.5 38q0 59 -13 111q-12 47 -22 108q14 14 25 23l17 16l53 51q39 39 58 70q9 17 9 28q0 19 -12.5 35t-32.5 19l-202 31l-90 190q-7 14 -19.5 22.5t-27.5 8.5t-27.5 -8.5z" />
    <glyph glyph-name="ChatFilter" unicode="&#xe32f;" 
d="M1799.5 1905q34.5 -15 62.5 -42q27 -27 42 -62t15 -73v-1595q0 -26 -10.5 -50t-29.5 -43q-18 -19 -42.5 -29.5t-51.5 -10.5q-29 0 -56 13t-47 36l-291 325l-8 3q-106 -2 -180 -8q-83 -7 -180 -7q-112 0 -200 2.5t-174 10.5q-215 19 -366 72q-73 25 -114.5 74t-41.5 123
v1084q0 38 15 73t42 62t62 42t73 15h1408q38 0 72.5 -15zM1188 1413h-255l25 178l-126 18l-28 -196h-165v-128h146l-36 -256h-174v-128h156l-27 -188l126 -18l30 206h255l-27 -188l126 -18l30 206h163v128h-145l37 256h172v128h-154l25 178l-126 18zM1133 1029h-255l37 256
h254z" />
    <glyph glyph-name="ChatOff" unicode="&#xe31d;" 
d="M2029.5 2028q18.5 -19 18.5 -44q0 -33 -60 -93q-24 -24 -48 -45q-26 -23 -39 -36q19 -38 19 -81v-1596q0 -26 -10.5 -50t-29.5 -43q-18 -19 -42.5 -29.5t-51.5 -10.5q-29 0 -56 13t-47 36l-291 325l-8 3q-29 0 -56 -3q-39 -4 -56 -5q-56 -5 -121 -6t-127 -1
q-267 0 -529 43l-386 -386q-19 -19 -45 -19q-25 0 -44.5 18.5t-19.5 44.5q0 14 6.5 24.5t19.5 23.5l1920 1920l4 6q16 10 36 10q25 0 43.5 -19zM193 495q-30 30 -47.5 69t-17.5 80v1085q0 38 15 72.5t43 61.5q27 27 61.5 42t72.5 15h1298z" />
    <glyph glyph-name="ChatOk" unicode="&#xe31c;" 
d="M1799.5 1905q34.5 -15 62.5 -42q27 -27 42 -61.5t15 -72.5v-1596q0 -26 -10.5 -50t-29.5 -43q-18 -19 -42.5 -29.5t-51.5 -10.5q-29 0 -56 13t-47 36l-291 325l-8 3q-106 -2 -180 -8q-83 -7 -180 -7q-226 0 -374 14q-213 18 -366 71q-73 25 -114.5 74t-41.5 123v1085
q0 38 15 72.5t43 61.5q27 27 61.5 42t72.5 15h1408q38 0 72.5 -15zM1362 1453l-483 -482l-259 258q-19 19 -45 19t-45 -19t-19 -45t19 -45l304 -304q19 -19 45 -19t45 19l528 528q19 19 19 45t-19 45t-45 19t-45 -19z" />
    <glyph glyph-name="ChevronDown" unicode="&#xe41e;" 
d="M1968 1462q24 -10 42 -28t28 -42t10 -48q0 -54 -37 -91l-896 -896q-37 -37 -91 -37t-91 37l-896 896q-37 37 -37 91q0 24 10.5 48t28.5 42q38 38 89 38q26 0 50 -9.5t41 -27.5l805 -806l805 806q17 18 41 27.5t50 9.5q24 0 48 -10z" />
    <glyph glyph-name="ChevronLeft" unicode="&#xe420;" 
d="M1391 2038q24 -10 42 -28t28 -42t10 -48q0 -26 -9.5 -50t-27.5 -41l-806 -805l806 -805q18 -17 27.5 -41t9.5 -50q0 -51 -38 -89q-18 -18 -42 -28.5t-48 -10.5q-54 0 -91 37l-896 896q-37 37 -37 91t37 91l896 896q37 37 91 37q24 0 48 -10z" />
    <glyph glyph-name="ChevronMedDown" unicode="&#xe447;" 
d="M1781.5 1393.5q9.5 -23.5 9.5 -48.5q0 -54 -37 -91l-640 -640q-18 -18 -42 -28t-49 -10q-52 0 -90 38l-640 640q-38 38 -38 90q0 25 9.5 48.5t28.5 42.5t42.5 28.5t48.5 9.5q24 0 48 -10t42 -28l549 -550l549 550q19 19 42.5 28.5t48.5 9.5q24 0 48 -10t42 -28
q19 -18 28.5 -41.5z" />
    <glyph glyph-name="ChevronMedLeft" unicode="&#xe448;" 
d="M1434 1755q18 -18 28 -42t10 -48q0 -25 -9.5 -48.5t-28.5 -42.5l-550 -550l550 -549q18 -18 28 -42t10 -48q0 -25 -9.5 -48.5t-28.5 -42.5q-18 -18 -42 -28t-48 -10q-25 0 -48.5 9.5t-42.5 27.5l-640 640q-18 18 -28 42t-10 49t10 49t28 42l640 640q37 37 90 37
q54 0 91 -37z" />
    <glyph glyph-name="ChevronMedRight" unicode="&#xe449;" 
d="M1434 1115q18 -18 27.5 -41.5t9.5 -49.5q0 -53 -37 -90l-640 -640q-19 -19 -42.5 -28.5t-48.5 -9.5q-52 0 -90 38q-37 37 -37 91q0 25 9.5 48.5t27.5 41.5l549 549l-550 549q-37 37 -37 91q0 25 9.5 48.5t27.5 41.5q37 38 91 38q25 0 48.5 -9.5t41.5 -27.5z" />
    <glyph glyph-name="ChevronMedUp" unicode="&#xe44a;" 
d="M1072.5 1462.5q23.5 -9.5 41.5 -27.5l640 -640q37 -37 37 -91q0 -53 -37 -90q-18 -18 -41.5 -27.5t-48.5 -9.5q-54 0 -91 37l-550 549l-549 -550q-18 -18 -41.5 -27.5t-48.5 -9.5q-54 0 -91 37q-19 19 -28.5 42.5t-9.5 48.5q0 24 9.5 47.5t27.5 42.5l640 641
q18 18 41.5 27.5t49.5 9.5t49.5 -9.5z" />
    <glyph glyph-name="ChevronRight" unicode="&#xe421;" 
d="M794 2011l896 -896q37 -37 37 -91t-37 -91l-896 -896q-37 -37 -91 -37q-52 0 -89 39q-39 37 -39 89q0 26 9.5 50t27.5 41l806 805l-806 805q-18 17 -27.5 41t-9.5 50q0 24 10.5 48t28.5 42q38 38 89 38q54 0 91 -37z" />
    <glyph glyph-name="ChevronSmallDown" unicode="&#xe44b;" 
d="M1024 1013l292 294q19 19 42.5 28.5t48.5 9.5q24 0 48 -10t42 -28q38 -37 38 -91q0 -53 -37 -90l-383 -384q-18 -18 -42 -28t-49 -10q-52 0 -90 38l-385 385q-18 18 -28 42t-10 48q0 25 9.5 48.5t28.5 42.5t42.5 28.5t48.5 9.5q24 0 48 -10t42 -28z" />
    <glyph glyph-name="ChevronSmallLeft" unicode="&#xe44c;" 
d="M1307 1499q18 -18 28 -42t10 -48q0 -25 -9.5 -48.5t-28.5 -42.5l-295 -295l294 -292q18 -18 28 -42t10 -48q0 -25 -9.5 -48.5t-28.5 -42.5q-37 -38 -91 -38q-53 0 -90 37l-384 383q-18 18 -28 42t-10 49q0 52 38 90l385 386q18 18 41.5 27.5t48.5 9.5q54 0 91 -37z" />
    <glyph glyph-name="ChevronSmallRight" unicode="&#xe44d;" 
d="M1305 1116q18 -18 28 -42t10 -49q0 -53 -37 -90l-386 -385q-38 -38 -90 -38q-25 0 -48.5 9.5t-42.5 28.5q-37 37 -37 91q0 25 9.5 48.5t27.5 41.5l295 294l-294 292q-37 37 -37 91q0 25 9.5 48.5t27.5 41.5q37 38 91 38q53 0 90 -37z" />
    <glyph glyph-name="ChevronSmallUp" unicode="&#xe44e;" 
d="M1112 1307l386 -386q37 -37 37 -90q0 -54 -37 -91q-18 -18 -41.5 -27.5t-48.5 -9.5q-54 0 -91 37l-295 295l-292 -294q-18 -18 -41.5 -27.5t-48.5 -9.5q-54 0 -91 37q-38 37 -38 91q0 53 37 90l383 384q18 18 42 28t49 10q53 0 90 -37z" />
    <glyph glyph-name="ChevronUp" unicode="&#xe41f;" 
d="M1115 1691l896 -896q37 -37 37 -91q0 -51 -38 -89q-18 -18 -42 -28.5t-48 -10.5q-26 0 -50 9.5t-41 27.5l-805 806l-805 -806q-17 -18 -41 -27.5t-50 -9.5q-52 0 -89 39q-39 37 -39 89q0 54 37 91l896 896q37 37 91 37t91 -37z" />
    <glyph glyph-name="ChromeClose" unicode="&#xe8bb;" 
d="M2044 1924l-899 -900l899 -900l-120 -120l-900 899l-900 -899l-120 120l899 900l-899 900l120 120l900 -899l900 899z" />
    <glyph glyph-name="ChromeMaximize" unicode="&#xe922;" 
d="M2048 0h-2048v2048h2048v-2048zM171 1877v-1706h1706v1706h-1706z" />
    <glyph glyph-name="ChromeMinimize" unicode="&#xe921;" 
d="M2048 1024h-2048v171h2048v-171z" />
    <glyph glyph-name="ChromeRestore" unicode="&#xe923;" 
d="M2048 341h-341v-341h-1707v1707h341v341h1707v-1707zM171 1536v-1365h1365v1365h-1365zM512 1877v-170h1195v-1195h170v1365h-1365z" />
    <glyph glyph-name="CircleBig" unicode="&#xf100;" 
d="M1292.5 2012q130.5 -36 247.5 -104q113 -67 207 -161t161 -207q68 -117 104 -247.5t36 -268.5t-36.5 -268.5t-103.5 -246.5q-67 -114 -161 -208t-207 -160q-116 -68 -247 -104.5t-269 -36.5t-268.5 36.5t-246.5 104.5q-114 66 -208 160t-160 208q-68 116 -104.5 246.5
t-36.5 268.5t36.5 269t104.5 247q66 113 160 207t208 161q116 67 246.5 103.5t268.5 36.5t268.5 -36z" />
    <glyph glyph-name="CircleSmall" unicode="&#xe310;" 
d="M1139.5 1304.5q55.5 -23.5 98.5 -65.5q42 -43 65.5 -98.5t23.5 -116.5t-23.5 -116.5t-65.5 -97.5q-43 -43 -98.5 -66.5t-116.5 -23.5t-116.5 23.5t-97.5 66.5q-43 42 -66.5 97.5t-23.5 116.5t23.5 116.5t66.5 98.5q42 42 97.5 65.5t116.5 23.5t116.5 -23.5z" />
    <glyph glyph-name="Click" unicode="&#xe95f;" 
d="M1160.5 1777.5q35.5 -14.5 62.5 -41.5t41.5 -62.5t14.5 -73.5v-204q30 12 64 12q35 0 68.5 -13t59.5 -36q26 23 59.5 36t68.5 13q63 0 117 -39q24 -19 42 -45.5t26 -56.5q30 13 71 13q38 0 73.5 -14.5t62.5 -41.5t41.5 -62.5t14.5 -73.5v-608q0 -142 -89 -257
q-79 -103 -217 -165q-130 -58 -270 -58h-199q-86 0 -159.5 25.5t-140.5 73.5q-52 37 -96.5 80.5t-121.5 124.5l-15 16q-165 174 -294 283q-53 44 -53 114q0 35 13 67t37 56q24 25 55 39t66 14q47 0 166 -41l93 -33q46 -18 73 -26v807q0 39 15 74t42 62t61.5 41.5t73.5 14.5
q38 0 73.5 -14.5zM748 1645q19 -19 19 -45t-19 -45t-45 -19h-64q-26 0 -45 19t-19 45t19 45t45 19h64q26 0 45 -19zM801.5 1973q19.5 -11 37.5 -29t29 -37.5t11 -34.5q0 -26 -19 -45t-45 -19q-15 0 -34.5 11t-37.5 29t-29 37.5t-11 34.5q0 26 19 45t45 19q15 0 34.5 -11z
M1131.5 2033.5q19.5 -14.5 19.5 -38.5v-54q0 -24 -19.5 -38.5t-44.5 -14.5t-44.5 14.5t-19.5 38.5v54q0 24 19.5 38.5t44.5 14.5t44.5 -14.5zM1580 1645q19 -19 19 -45t-19 -45t-45 -19h-64q-26 0 -45 19t-19 45t19 45t45 19h64q26 0 45 -19zM1452 1965q19 -19 19 -45
q0 -15 -11 -34.5t-29 -37.5t-37.5 -29t-34.5 -11q-26 0 -45 19t-19 45q0 15 11 34.5t29 37.5t37.5 29t34.5 11q26 0 45 -19z" />
    <glyph glyph-name="Clipboard" unicode="&#xe920;" 
d="M992.5 2028q46.5 -20 82.5 -56t56 -82.5t20 -97.5h320q38 0 73 -15t62 -42t42 -62t15 -73v-320h64q38 0 73 -15t62 -42t42 -62t15 -73v-896q0 -38 -15 -73t-42 -62t-62 -42t-73 -15h-640q-60 0 -109 36q-52 37 -71 92h-588q-38 0 -73 15t-62 42t-42 62t-15 73v1280
q0 38 15 73t42 62t62 42t73 15h320q0 51 20 97.5t56 82.5t82.5 56t97.5 20t97.5 -20zM1405 1664l1 -91q0 -75 -25 -114q-33 -49 -102 -49h-768q-94 0 -117 90q-9 33 -9 71v93l-36 1q-42 0 -64 -10q-30 -15 -30 -55v-1280q0 -26 19 -45t45 -19h576v832q0 38 15 73t42 62
t62 42t73 15h448v320q0 41 -29 55q-22 10 -65 10zM509 1664v-128l770 -2l2 2v128h-772zM806 1882q-18 -18 -28.5 -42t-10.5 -48h256q0 24 -10 48t-28 42t-42 28t-48 10q-51 0 -89 -38z" />
    <glyph glyph-name="Clippy" unicode="&#xe124;" 
d="M1615 2016.5q75 -31.5 132 -87.5q57 -57 89.5 -132t32.5 -157q0 -83 -31 -156.5t-88 -143.5q-109 -135 -231 -258q-121 -123 -240 -249q-34 -35 -65 -71q-80 -90 -132 -138q-35 -32 -74 -59q-25 -18 -45.5 -27.5t-44.5 -9.5t-47 10t-41 28q-39 37 -39 89q0 53 38 93
l736 769q24 24 37 55t13 64q0 31 -12.5 59.5t-34.5 50.5q-22 21 -51 33t-61 12t-62 -11.5t-50 -33.5l-856 -890q-49 -51 -76.5 -117.5t-27.5 -135.5q0 -71 27 -134t76 -111q48 -48 111.5 -75t133.5 -27q69 0 134 27t114 75l611 604q18 18 41.5 27.5t48.5 9.5q24 0 48 -10
t42 -28t28 -42t10 -48q0 -25 -10 -49t-28 -42l-610 -603q-85 -85 -196.5 -131t-231.5 -46q-121 0 -231 46.5t-194 130.5q-84 83 -131.5 193.5t-47.5 231.5t45.5 233t129.5 199l859 893q56 59 133 90t161 31q83 0 158 -31.5z" />
    <glyph glyph-name="CloudDownload" unicode="&#xe94c;" 
d="M1393.5 1763.5q86.5 -28.5 159.5 -81.5q72 -53 126 -127t83 -161q62 -17 114 -52t91 -85q38 -49 59 -109.5t21 -123.5q0 -77 -29.5 -146.5t-83.5 -123.5t-124 -84t-147 -30h-192q-26 0 -45 19t-19 45t19 45t45 19h192q51 0 97.5 20t82.5 56t56 82.5t20 97.5
q0 111 -59 167q-23 21 -49.5 34t-70.5 31q-36 14 -58 29t-33 39q-13 30 -19 50q-5 17 -19 51q-24 53 -67 98t-97 76t-114.5 48t-117.5 17q-141 0 -246 -77q-39 -29 -66.5 -61t-66.5 -83q-31 -41 -49 -59t-37 -18q-21 0 -41 5.5t-46 15.5q-53 21 -88 21q-65 0 -123 -25
t-102 -69q-45 -45 -70 -103t-25 -123q0 -64 25 -122t70 -103t103 -70t122 -25h128q26 0 45 -19t19 -45q0 -40 -38 -56q-27 -11 -73 -11q-14 0 -40 2q-14 1 -41 1q-90 0 -172 35t-144 97t-97 144t-35 172t35 172t97 144t144 97t172 35q80 0 146 -25q38 63 92 115.5t119 89.5
q136 76 283 76q92 0 178.5 -28.5zM1135 1206q24 -10 42 -28t28 -42t10 -48v-587q36 37 63.5 56t64.5 19q24 0 48 -10t42 -28t28 -42t10 -48q0 -26 -9.5 -50t-27.5 -41l-256 -255q-38 -38 -91 -38t-91 38l-256 255q-18 17 -27.5 41t-9.5 50q0 24 10.5 48t28.5 42q38 38 89 38
q37 0 64.5 -19t63.5 -56v587q0 24 10.5 48t28.5 42q38 38 89 38q24 0 48 -10z" />
    <glyph glyph-name="CodeSnippet" unicode="&#xe93a;" 
d="M1358 1964.5q18 -19.5 18 -44.5q0 -11 -2 -17l-512 -1792q-6 -21 -23.5 -34t-38.5 -13q-8 0 -17 3q-21 5 -34 22.5t-13 38.5q0 9 3 18l512 1792q5 21 22.5 33.5t39.5 12.5q27 0 45 -19.5zM628.5 1525.5q11.5 -25.5 11.5 -53.5q0 -48 -31 -83l-312 -365l312 -365
q31 -35 31 -83q0 -28 -11.5 -53.5t-32.5 -43.5q-37 -31 -84 -31q-28 0 -53.5 11.5t-43.5 33.5l-384 448q-31 37 -31 83t31 83l384 448q18 22 43.5 33.5t53.5 11.5q49 0 84 -31q21 -18 32.5 -43.5zM1537 1600q28 0 53 -11.5t43 -33.5l384 -448q32 -37 32 -83t-32 -83
l-384 -448q-18 -22 -43.5 -33.5t-53.5 -11.5q-48 0 -83 31q-22 18 -33.5 43.5t-11.5 53.5q0 48 31 83l313 365l-313 365q-31 35 -31 83q0 28 11.5 53.5t33.5 43.5q35 31 84 31z" />
    <glyph glyph-name="Collapse" unicode="&#xe94d;" 
d="M1123 1880q18 -8 31 -21t21 -31t8 -36v-344q16 16 34 37q40 49 78 71q23 12 48 12q18 0 36 -8t31 -21t21 -31t8 -36q0 -40 -28 -68l-256 -256q-28 -28 -68 -28t-68 28l-256 256q-28 28 -28 68q0 18 8 36t21 31t31 21t36 8q44 0 89 -43q19 -19 37 -40q11 -14 34 -37v344
q0 18 8 36t21 31t31 21t36 8t36 -8zM1155 772l256 -256q28 -28 28 -68q0 -18 -8 -36t-21 -31t-31 -21t-36 -8q-24 0 -45.5 11.5t-43.5 31.5q-23 21 -37 39q-24 28 -34 38v-344q0 -18 -8 -36t-21 -31t-31 -21t-36 -8t-36 8t-31 21t-21 31t-8 36v344q-17 -18 -34 -37
q-41 -49 -78 -70q-22 -13 -48 -13q-18 0 -36 8t-31 21t-21 31t-8 36q0 40 28 68l256 256q28 28 68 28t68 -28zM1772 1005q19 -19 19 -45t-19 -45t-45 -19h-1280q-26 0 -45 19t-19 45t19 45t45 19h1280q26 0 45 -19z" />
    <glyph glyph-name="Connectors" unicode="&#xe221;" 
d="M1882.5 1882.5q37.5 -37.5 37.5 -90.5v-384h128v-512q0 -128 -51 -246q-25 -59 -74.5 -114.5t-106.5 -101.5q-24 -19 -24 -50v-256h-512v255q0 31 -24 50q-108 86 -162 181q-70 121 -70 285v509h128v384q0 53 37.5 90.5t90.5 37.5h512q53 0 90.5 -37.5zM640 1333
q0 -26 19 -45l181 -181q27 -28 41.5 -63t14.5 -73v-459q1 1 -192 1v-321q0 -26 -19 -45t-45 -19t-45 19t-19 45v321h-256v-321q0 -26 -19 -45t-45 -19t-45 19t-19 45v320h-192v459q0 38 14.5 73t41.5 63l181 181q19 19 19 45v587h384v-587zM1280 1792v-384h512v384h-512z
" />
    <glyph glyph-name="Contact" unicode="&#xe200;" 
d="M1900 749q19 -19 19 -45v-74q0 -176 -168 -292q-137 -94 -368 -141q-176 -37 -360 -37q-130 0 -259 20q-168 26 -295 74q-154 57 -241 144q-101 101 -101 232v74q0 26 19 45t45 19h1664q26 0 45 -19zM1195 1885q82 -35 144 -97t97 -144t35 -172t-35 -172t-97 -144
t-144 -97t-172 -35t-172 35t-144 97t-97 144t-35 172t35 172t97 144t144 97t172 35t172 -35z" />
    <glyph glyph-name="ContactAdd" unicode="&#xe201;" 
d="M1773 749q19 -19 19 -45v-74q0 -173 -168 -291q-137 -95 -368 -142q-94 -19 -187.5 -28t-172.5 -9q-123 0 -259 21q-167 26 -295 73q-151 56 -241 144q-101 99 -101 232v74q0 26 19 45t45 19h1664q26 0 45 -19zM1068 1885q82 -35 144 -97t97 -144t35 -172t-35 -172
t-97 -144t-144 -97t-172 -35t-172 35t-144 97t-97 144t-35 172t35 172t97 144t144 97t172 35t172 -35zM1773 2029q19 -19 19 -45v-192h192q26 0 45 -19t19 -45t-19 -45t-45 -19h-192v-192q0 -26 -19 -45t-45 -19t-45 19t-19 45v192h-192q-26 0 -45 19t-19 45t19 45t45 19
h192v192q0 26 19 45t45 19t45 -19z" />
    <glyph glyph-name="ContactBlocked" unicode="&#xe205;" 
d="M1773 749q19 -19 19 -45v-74q0 -176 -168 -292q-137 -94 -368 -141q-176 -37 -360 -37q-130 0 -259 20q-168 26 -295 74q-154 57 -241 144q-101 101 -101 232v74q0 26 19 45t45 19h1664q26 0 45 -19zM1068 1885q82 -35 144 -97t97 -144t35 -172t-35 -172t-97 -144
t-144 -97t-172 -35t-172 35t-144 97t-97 144t-35 172t35 172t97 144t144 97t172 35t172 -35zM1647 1588q49 -34 113 -34q41 0 78.5 16.5t66.5 45.5t45 66t16 78q0 64 -34 113zM1682 1950q-37 -16 -66 -45t-45.5 -66.5t-16.5 -78.5q0 -64 34 -113l285 285q-49 34 -113 34
q-41 0 -78 -16zM1869.5 2025.5q52.5 -22.5 93.5 -62.5q40 -41 62.5 -93.5t22.5 -109.5q0 -58 -22.5 -110t-62.5 -92t-93 -63t-110 -23q-58 0 -110 22.5t-92 63.5q-41 40 -63.5 92t-22.5 110q0 57 23 110t63 93t92 62.5t110 22.5q57 0 109.5 -22.5z" />
    <glyph glyph-name="ContactBot" unicode="&#xf125;" 
d="M1294 2012q131 -36 247 -104q113 -67 206.5 -160.5t160.5 -206.5q68 -116 104 -247t36 -270t-36 -270t-104 -246q-67 -114 -160.5 -207.5t-206.5 -160.5q-116 -68 -247 -104t-270 -36t-270 36t-246 104q-114 67 -207.5 160.5t-160.5 207.5q-68 115 -104 246t-36 270
t36 270t104 247q67 113 160.5 206.5t207.5 160.5q115 68 246 104t270 36t270 -36zM549 879q-15 0 -26 -10.5t-11 -25.5v-41q0 -96 98 -162q78 -54 211 -80q105 -22 203 -22q104 0 204 21q137 27 212 79q96 65 96 164v41q0 15 -11 25.5t-26 10.5h-950zM929 1289
q22 -22 22 -51t-22 -50t-51 -21t-51 21t-22 50t22 51q23 21 51 21t51 -21zM998 1586.5q-11 -10.5 -11 -25.5v-107h-219q-22 0 -42 -8.5t-35 -23.5q-33 -33 -33 -76v-287q0 -43 33 -76q15 -15 35 -23.5t42 -8.5h512q22 0 42 8.5t35 23.5q33 33 33 76v287q0 43 -33 76
q-15 15 -35 23.5t-42 8.5h-219v107q0 15 -11 25.5t-26 10.5t-26 -10.5zM1221 1289q22 -22 22 -51t-22 -50t-51 -21t-51 21t-22 50t22 51q23 21 51 21t51 -21z" />
    <glyph glyph-name="ContactCard" unicode="&#xe209;" 
d="M1889.5 1772q46.5 -20 82.5 -56t56 -82.5t20 -97.5v-1024q0 -51 -20 -97.5t-56 -82.5t-82.5 -56t-97.5 -20h-1536q-51 0 -97.5 20t-82.5 56t-56 82.5t-20 97.5v1024q0 51 20 97.5t56 82.5t82.5 56t97.5 20h1536q51 0 97.5 -20zM1070 672q-58 -30 -163 -49
q-84 -15 -139 -15t-139 15q-104 18 -162 49q-79 41 -83 96h768q-4 -55 -82 -96zM256 896v-128q0 -102 95 -174q73 -56 208 -88q110 -26 209 -26t209 26q135 32 209 88q94 72 94 174v128h-1024zM816 1398q24 -10 42 -28t28 -42t10 -48q0 -51 -38 -89q-18 -18 -42 -28.5
t-48 -10.5q-52 0 -89 39q-39 37 -39 89q0 24 10.5 48t28.5 42q38 38 89 38q24 0 48 -10zM670.5 1516q-46.5 -20 -82.5 -56t-56 -82.5t-20 -97.5t20 -97.5t56 -82.5t82.5 -56t97.5 -20t97.5 20t82.5 56t56 82.5t20 97.5t-20 97.5t-56 82.5t-82.5 56t-97.5 20t-97.5 -20z
M1216 1152v-128h512v128h-512zM1216 1408v-128h512v128h-512z" />
    <glyph glyph-name="ContactCardGroup" unicode="&#xe217;" 
d="M1889.5 1772q46.5 -20 82.5 -56t56 -82.5t20 -97.5v-1024q0 -51 -20 -97.5t-56 -82.5t-82.5 -56t-97.5 -20h-1536q-51 0 -97.5 20t-82.5 56t-56 82.5t-20 97.5v1024q0 51 20 97.5t56 82.5t82.5 56t97.5 20h1536q51 0 97.5 -20zM256 1024v-227q0 -82 83 -124
q34 -17 75.5 -25t81.5 -8h80v384h-320zM640 1088v-427q0 -77 78 -117q59 -32 146 -32q88 0 147 32q77 40 77 117v427h-448zM355.5 1395q-29.5 -13 -51.5 -35t-35 -51.5t-13 -60.5t13 -60.5t35 -51.5t51.5 -35t60.5 -13t60.5 13t51.5 35t35 51.5t13 60.5t-13 60.5t-35 51.5
t-51.5 35t-60.5 13t-60.5 -13zM803.5 1459q-29.5 -13 -51.5 -35t-35 -51.5t-13 -60.5t13 -60.5t35 -51.5t51.5 -35t60.5 -13t60.5 13t51.5 35t35 51.5t13 60.5t-13 60.5t-35 51.5t-51.5 35t-60.5 13t-60.5 -13zM1216 1152v-128h512v128h-512zM1216 1408v-128h512v128h-512z
" />
    <glyph glyph-name="ContactDelete" unicode="&#xe206;" 
d="M1773 749q19 -19 19 -45v-74q0 -176 -168 -292q-137 -94 -368 -141q-176 -37 -360 -37q-130 0 -259 20q-168 26 -295 74q-154 57 -241 144q-101 101 -101 232v74q0 26 19 45t45 19h1664q26 0 45 -19zM1068 1885q82 -35 144 -97t97 -144t35 -172t-35 -172t-97 -144
t-144 -97t-172 -35t-172 35t-144 97t-97 144t-35 172t35 172t97 144t144 97t172 35t172 -35zM1954 1954q19 -19 19 -45t-19 -45l-135 -136l135 -136q19 -19 19 -45t-19 -45t-45 -19t-45 19l-136 135l-136 -135q-19 -19 -45 -19t-45 19t-19 45t19 45l135 136l-135 136
q-19 19 -19 45t19 45t45 19t45 -19l136 -135l136 135q19 19 45 19t45 -19z" />
    <glyph glyph-name="ContactGroup" unicode="&#xe20b;" 
d="M1408 393q0 -72 -34.5 -124t-94.5 -84q-54 -29 -120.5 -43t-134.5 -14q-66 0 -132.5 14.5t-120.5 43.5q-61 32 -96 84t-35 123v759h768v-759zM512 376h-128q-68 0 -134.5 14t-119.5 43q-61 33 -95.5 85t-34.5 124v382h512v-648zM353.5 1644q46.5 -20 82.5 -56t56 -82.5
t20 -97.5t-20 -97.5t-56 -82.5t-82.5 -56t-97.5 -20t-97.5 20t-82.5 56t-56 82.5t-20 97.5t20 97.5t56 82.5t82.5 56t97.5 20t97.5 -20zM2048 642q0 -72 -34.5 -124t-94.5 -85q-54 -29 -120.5 -43t-134.5 -14h-128v648h512v-382zM1121.5 1772q46.5 -20 82.5 -56t56 -82.5
t20 -97.5t-20 -97.5t-56 -82.5t-82.5 -56t-97.5 -20t-97.5 20t-82.5 56t-56 82.5t-20 97.5t20 97.5t56 82.5t82.5 56t97.5 20t97.5 -20zM1889.5 1644q46.5 -20 82.5 -56t56 -82.5t20 -97.5t-20 -97.5t-56 -82.5t-82.5 -56t-97.5 -20t-97.5 20t-82.5 56t-56 82.5t-20 97.5
t20 97.5t56 82.5t82.5 56t97.5 20t97.5 -20z" />
    <glyph glyph-name="ContactGroupAdd" unicode="&#xe20a;" 
d="M1408 512q0 -72 -34.5 -124t-94.5 -84q-54 -29 -120.5 -43t-134.5 -14q-66 0 -132.5 14.5t-120.5 43.5q-61 32 -96 84t-35 123v640h768v-640zM512 376h-128q-68 0 -134.5 14t-119.5 43q-61 33 -95.5 85t-34.5 124v382h512v-648zM353.5 1644q46.5 -20 82.5 -56t56 -82.5
t20 -97.5t-20 -97.5t-56 -82.5t-82.5 -56t-97.5 -20t-97.5 20t-82.5 56t-56 82.5t-20 97.5t20 97.5t56 82.5t82.5 56t97.5 20t97.5 -20zM1121.5 1772q46.5 -20 82.5 -56t56 -82.5t20 -97.5t-20 -97.5t-56 -82.5t-82.5 -56t-97.5 -20t-97.5 20t-82.5 56t-56 82.5t-20 97.5
t20 97.5t56 82.5t82.5 56t97.5 20t97.5 -20zM1773 2029q19 -19 19 -45v-192h192q26 0 45 -19t19 -45t-19 -45t-45 -19h-192v-192q0 -26 -19 -45t-45 -19t-45 19t-19 45v192h-192q-26 0 -45 19t-19 45t19 45t45 19h192v192q0 26 19 45t45 19t45 -19z" />
    <glyph glyph-name="ContactGroupCall" unicode="&#xe212;" 
d="M1408 512q0 -72 -34.5 -124t-94.5 -84q-54 -29 -120.5 -43t-134.5 -14q-66 0 -132.5 14.5t-120.5 43.5q-61 32 -96 84t-35 123v640h768v-640zM512 376h-128q-68 0 -134.5 14t-119.5 43q-130 68 -130 209v382h512v-648zM353.5 1644q46.5 -20 82.5 -56t56 -82.5t20 -97.5
t-20 -97.5t-56 -82.5t-82.5 -56t-97.5 -20t-97.5 20t-82.5 56t-56 82.5t-20 97.5t20 97.5t56 82.5t82.5 56t97.5 20t97.5 -20zM1121.5 1772q46.5 -20 82.5 -56t56 -82.5t20 -97.5t-20 -97.5t-56 -82.5t-82.5 -56t-97.5 -20t-97.5 20t-82.5 56t-56 82.5t-20 97.5t20 97.5
t56 82.5t82.5 56t97.5 20t97.5 -20zM1681 1978q16 -23 24.5 -52.5t8.5 -58.5q0 -52 -48 -100l73 -103q33 18 65 18q24 0 53 -11.5t54 -31.5q25 -21 41 -46.5t16 -50.5q0 -44 -24 -79q-27 -39 -70 -39q-18 0 -26 4q-80 24 -147 71.5t-117 113.5q-49 65 -76 143t-27 162
q0 57 22.5 85.5t79.5 28.5q61 0 98 -54z" />
    <glyph glyph-name="ContactGroupDelete" unicode="&#xe20c;" 
d="M1408 512q0 -72 -34.5 -124t-94.5 -84q-54 -29 -120.5 -43t-134.5 -14q-66 0 -132.5 14.5t-120.5 43.5q-61 32 -96 84t-35 123v640h768v-640zM512 376h-128q-68 0 -134.5 14t-119.5 43q-130 68 -130 209v382h512v-648zM353.5 1644q46.5 -20 82.5 -56t56 -82.5t20 -97.5
t-20 -97.5t-56 -82.5t-82.5 -56t-97.5 -20t-97.5 20t-82.5 56t-56 82.5t-20 97.5t20 97.5t56 82.5t82.5 56t97.5 20t97.5 -20zM1121.5 1772q46.5 -20 82.5 -56t56 -82.5t20 -97.5t-20 -97.5t-56 -82.5t-82.5 -56t-97.5 -20t-97.5 20t-82.5 56t-56 82.5t-20 97.5t20 97.5
t56 82.5t82.5 56t97.5 20t97.5 -20zM1954 1954q19 -19 19 -45t-19 -45l-135 -136l135 -136q19 -19 19 -45t-19 -45t-45 -19t-45 19l-136 135l-136 -135q-19 -19 -45 -19t-45 19t-19 45t19 45l135 136l-135 136q-19 19 -19 45t19 45t45 19t45 -19l136 -135l136 135
q19 19 45 19t45 -19z" />
    <glyph glyph-name="ContactGroupOk" unicode="&#xe210;" 
d="M1408 512q0 -72 -34.5 -124t-94.5 -84q-54 -29 -120.5 -43t-134.5 -14q-66 0 -132.5 14.5t-120.5 43.5q-61 32 -96 84t-35 123v640h768v-640zM512 376h-128q-68 0 -134.5 14t-119.5 43q-130 68 -130 209v382h512v-648zM353.5 1644q46.5 -20 82.5 -56t56 -82.5t20 -97.5
t-20 -97.5t-56 -82.5t-82.5 -56t-97.5 -20t-97.5 20t-82.5 56t-56 82.5t-20 97.5t20 97.5t56 82.5t82.5 56t97.5 20t97.5 -20zM1121.5 1772q46.5 -20 82.5 -56t56 -82.5t20 -97.5t-20 -97.5t-56 -82.5t-82.5 -56t-97.5 -20t-97.5 20t-82.5 56t-56 82.5t-20 97.5t20 97.5
t56 82.5t82.5 56t97.5 20t97.5 -20zM1965 1965q19 -19 19 -45t-19 -45l-320 -320q-19 -19 -45 -19t-45 19l-128 128q-19 19 -19 45t19 45t45 19q33 0 71 -38l31 -33q12 -16 26 -30l275 274q19 19 45 19t45 -19z" />
    <glyph glyph-name="ContactGroupPair" unicode="&#xe214;" 
d="M1791 397q0 -109 -73 -184q-63 -63 -173 -95q-94 -27 -202 -27q-107 0 -201 27q-111 32 -173 95q-74 74 -74 184v755h896v-755zM765 130h-147q-117 0 -220 30q-119 33 -189 104q-80 82 -80 201v431h636v-766zM570.5 1639q58.5 -25 102.5 -69t69 -102.5t25 -123.5
t-25 -123t-69 -102q-45 -45 -103 -70t-123 -25q-64 0 -122 25t-103 70t-70 103t-25 122q0 65 25 123t70 103q44 44 102 69t123 25t123.5 -25zM1466.5 1895q58.5 -25 102.5 -69t69 -102.5t25 -123.5t-25 -123t-69 -102q-45 -45 -103 -70t-123 -25q-64 0 -122 25t-103 70
t-70 103t-25 122q0 65 25 123t70 103q44 44 102 69t123 25t123.5 -25z" />
    <glyph glyph-name="ContactGroupPairSmall" unicode="&#xe216;" 
d="M1791 397q0 -109 -73 -184q-63 -63 -173 -95q-94 -27 -202 -27q-107 0 -201 27q-111 32 -173 95q-74 74 -74 184v755h896v-755zM765 130h-147q-117 0 -220 30q-119 33 -189 104q-80 82 -80 201v431h636v-766zM570.5 1639q58.5 -25 102.5 -69t69 -102.5t25 -123.5
t-25 -123t-69 -102q-45 -45 -103 -70t-123 -25q-64 0 -122 25t-103 70t-70 103t-25 122q0 65 25 123t70 103q44 44 102 69t123 25t123.5 -25zM1466.5 1895q58.5 -25 102.5 -69t69 -102.5t25 -123.5t-25 -123t-69 -102q-45 -45 -103 -70t-123 -25q-64 0 -122 25t-103 70
t-70 103t-25 122q0 65 25 123t70 103q44 44 102 69t123 25t123.5 -25z" />
    <glyph glyph-name="ContactGroupScreenshare" unicode="&#xe213;" 
d="M1408 512q0 -72 -34.5 -124t-94.5 -84q-54 -29 -120.5 -43t-134.5 -14q-66 0 -132.5 14.5t-120.5 43.5q-61 32 -96 84t-35 123v640h768v-640zM512 376h-128q-68 0 -134.5 14t-119.5 43q-130 68 -130 209v382h512v-648zM353.5 1644q46.5 -20 82.5 -56t56 -82.5t20 -97.5
t-20 -97.5t-56 -82.5t-82.5 -56t-97.5 -20t-97.5 20t-82.5 56t-56 82.5t-20 97.5t20 97.5t56 82.5t82.5 56t97.5 20t97.5 -20zM1121.5 1772q46.5 -20 82.5 -56t56 -82.5t20 -97.5t-20 -97.5t-56 -82.5t-82.5 -56t-97.5 -20t-97.5 20t-82.5 56t-56 82.5t-20 97.5t20 97.5
t56 82.5t82.5 56t97.5 20t97.5 -20zM1771 1771q21 -21 21 -49v-212q0 -28 -21 -49t-49 -21h-212q-28 0 -49 21t-21 49v212q0 28 21 49t49 21h212q28 0 49 -21zM1968 2038q24 -10 42 -28t28 -42t10 -48v-192q0 -51 -38 -89q-18 -18 -42 -28.5t-48 -10.5q-26 0 -45 19t-19 45
t19 45t45 19v192h-192q0 -26 -19 -45t-45 -19t-45 19t-19 45q0 24 10.5 48t28.5 42q38 38 89 38h192q24 0 48 -10z" />
    <glyph glyph-name="ContactGroupVideo" unicode="&#xe211;" 
d="M1408 512q0 -72 -34.5 -124t-94.5 -84q-54 -29 -120.5 -43t-134.5 -14q-66 0 -132.5 14.5t-120.5 43.5q-61 32 -96 84t-35 123v640h768v-640zM512 376h-128q-68 0 -134.5 14t-119.5 43q-130 68 -130 209v382h512v-648zM353.5 1644q46.5 -20 82.5 -56t56 -82.5t20 -97.5
t-20 -97.5t-56 -82.5t-82.5 -56t-97.5 -20t-97.5 20t-82.5 56t-56 82.5t-20 97.5t20 97.5t56 82.5t82.5 56t97.5 20t97.5 -20zM1121.5 1772q46.5 -20 82.5 -56t56 -82.5t20 -97.5t-20 -97.5t-56 -82.5t-82.5 -56t-97.5 -20t-97.5 20t-82.5 56t-56 82.5t-20 97.5t20 97.5
t56 82.5t82.5 56t97.5 20t97.5 -20zM1805 1901q19 -19 19 -45v-256q0 -26 -19 -45t-45 -19h-224q-26 0 -45 19t-19 45v256q0 26 19 45t45 19h224q26 0 45 -19zM2017.5 1889.5q14.5 -14.5 14.5 -33.5v-256q0 -19 -14.5 -33.5t-33.5 -14.5q-14 0 -33 21t-38 53
q-18 29 -29.5 58t-11.5 44q0 14 11.5 43.5t28.5 59.5q19 32 38 52.5t34 20.5q19 0 33.5 -14.5z" />
    <glyph glyph-name="ContactIn" unicode="&#xe208;" 
d="M1773 749q19 -19 19 -45v-74q0 -176 -168 -292q-137 -94 -368 -141q-176 -37 -360 -37q-130 0 -259 20q-168 26 -295 74q-154 57 -241 144q-101 101 -101 232v74q0 26 19 45t45 19h1664q26 0 45 -19zM1068 1885q82 -35 144 -97t97 -144t35 -172t-35 -172t-97 -144
t-144 -97t-172 -35t-172 35t-144 97t-97 144t-35 172t35 172t97 144t144 97t172 35t172 -35zM1789 2029q19 -19 19 -45q0 -33 -38 -71q-16 -16 -33 -30q-18 -15 -30 -27h277q26 0 45 -19t19 -45t-19 -45t-45 -19h-277q14 -14 30 -26q42 -37 60 -65q11 -19 11 -37
q0 -26 -19 -45t-45 -19t-45 19l-192 192q-19 19 -19 45t19 45l192 192q19 19 45 19t45 -19z" />
    <glyph glyph-name="ContactOk" unicode="&#xe202;" 
d="M1773 749q19 -19 19 -45v-74q0 -176 -168 -292q-137 -94 -368 -141q-176 -37 -360 -37q-130 0 -259 20q-168 26 -295 74q-154 57 -241 144q-101 101 -101 232v74q0 26 19 45t45 19h1664q26 0 45 -19zM1068 1885q82 -35 144 -97t97 -144t35 -172t-35 -172t-97 -144
t-144 -97t-172 -35t-172 35t-144 97t-97 144t-35 172t35 172t97 144t144 97t172 35t172 -35zM2029 2029q19 -19 19 -45t-19 -45l-325 -325q-19 -19 -45 -19t-45 19l-187 187q-19 19 -19 45t19 45t45 19t45 -19l142 -141l280 279q19 19 45 19t45 -19z" />
    <glyph glyph-name="ContactPstn" unicode="&#xe219;" 
d="M1455 1846q24 -10 42 -28t28 -42t10 -48q0 -68 -13 -129q-12 -57 -22 -127h291q24 0 48 -10t42 -28t28 -42t10 -48q0 -51 -38 -89q-18 -18 -42 -28.5t-48 -10.5h-328l-36 -256h300q24 0 48 -10t42 -28t28 -42t10 -48q0 -51 -38 -89q-18 -18 -42 -28.5t-48 -10.5h-337
l-48 -338q-6 -45 -44 -78q-37 -32 -83 -32q-52 0 -89 39q-39 37 -39 89q0 84 16 161q15 71 28 159h-253l-48 -338q-6 -45 -44 -78q-37 -32 -83 -32q-52 0 -89 39q-39 37 -39 89q0 84 16 161q15 71 28 159h-300q-52 0 -89 39q-39 37 -39 89q0 24 10.5 48t28.5 42q38 38 89 38
h337l37 256h-310q-52 0 -89 39q-39 37 -39 89q0 24 10.5 48t28.5 42q38 38 89 38h346l39 274q6 45 44 78q37 32 83 32q24 0 48 -10t42 -28t28 -42t10 -48q0 -68 -13 -129q-12 -57 -22 -127h253l39 274q6 45 44 78q37 32 83 32q24 0 48 -10zM951 1216l-36 -256h253l37 256
h-254z" />
    <glyph glyph-name="ContactSend" unicode="&#xe207;" 
d="M1773 749q19 -19 19 -45v-74q0 -176 -168 -292q-137 -94 -368 -141q-176 -37 -360 -37q-130 0 -259 20q-168 26 -295 74q-154 57 -241 144q-101 101 -101 232v74q0 26 19 45t45 19h1664q26 0 45 -19zM1068 1885q82 -35 144 -97t97 -144t35 -172t-35 -172t-97 -144
t-144 -97t-172 -35t-172 35t-144 97t-97 144t-35 172t35 172t97 144t144 97t172 35t172 -35zM2048 1685q0 -39 -69 -60q-51 -16 -141 -22q-48 -3 -110 -3t-109 3q-91 6 -141 22q-70 20 -70 60v215l41 -28q76 -53 120 -81q73 -48 119 -69q27 -11 40 -11q26 0 96 41
q50 29 128 82q72 50 96 66v-215zM2030.5 2037.5q11.5 -10.5 15.5 -25.5l-318 -204l-318 205q4 15 15 25t26 10h554q14 0 25.5 -10.5z" />
    <glyph glyph-name="ContactSkype" unicode="&#xf126;" 
d="M1294 2012q131 -36 247 -104q113 -67 206.5 -160.5t160.5 -206.5q68 -116 104 -247t36 -270t-36 -270t-104 -246q-67 -114 -160.5 -207.5t-206.5 -160.5q-116 -68 -247 -104t-270 -36t-270 36t-246 104q-114 67 -207.5 160.5t-160.5 207.5q-68 115 -104 246t-36 270
t36 270t104 247q67 113 160.5 206.5t207.5 160.5q115 68 246 104t270 36t270 -36zM856 1566q-76 -18 -134 -55q-64 -41 -101 -103t-37 -145q0 -74 26 -125.5t74 -88.5q41 -32 95.5 -52.5t124.5 -37.5q65 -17 117 -26q62 -13 105.5 -29.5t69.5 -40.5q27 -25 27 -67
q0 -67 -67 -105q-28 -16 -62 -24.5t-66 -8.5q-101 0 -166 49q-29 22 -48 46q-30 36 -45 52t-33 28q-23 14 -52 14q-41 0 -72 -28q-30 -27 -30 -70q0 -49 36 -105q57 -88 184 -128q102 -34 226 -34q83 0 160 18t138 56q66 41 103 105.5t37 152.5q0 141 -101 222
q-42 32 -97 53t-125 38l-22 5q-74 16 -97 20q-129 25 -177 63q-28 22 -28 60q0 63 59 98q48 27 115 27q87 0 151 -40q25 -16 49 -38q51 -51 78 -67q20 -12 42 -12q44 0 76 26q34 27 34 69q0 79 -77 140q-67 51 -168 80q-93 26 -167 26q-79 0 -155 -18z" />
    <glyph glyph-name="ContactSkypeOut" unicode="&#xe218;" 
d="M1773 749q19 -19 19 -45v-74q0 -176 -168 -292q-137 -94 -368 -141q-176 -37 -360 -37q-130 0 -259 20q-168 26 -295 74q-154 57 -241 144q-101 101 -101 232v74q0 26 19 45t45 19h1664q26 0 45 -19zM1068 1885q82 -35 144 -97t97 -144t35 -172t-35 -172t-97 -144
t-144 -97t-172 -35t-172 35t-144 97t-97 144t-35 172t35 172t97 144t144 97t172 35t172 -35zM1889 1988.5q14 -14.5 14 -33.5q0 -22 -5 -49q-4 -16 -10 -48h6q34 0 49 -8q23 -12 23 -40q0 -19 -8.5 -29t-24.5 -15q-17 -5 -31 -5h-31l-11 -64h7q30 0 47 -9q21 -12 21 -39
q0 -35 -31 -44q-12 -4 -30 -4h-30q-4 -21 -5 -43q-6 -67 -26 -99q-12 -19 -36 -19q-19 0 -33 14.5t-14 33.5q0 30 7 57q7 34 11 56h-78q-4 -46 -4 -43q-6 -67 -26 -99q-13 -19 -37 -19q-19 0 -33 14.5t-14 33.5q0 30 7 57q7 34 11 56l-6 -1q-34 0 -50 8q-25 13 -25 41
q0 35 35 44q13 4 32 4h31l11 64h-7q-33 0 -48 9q-23 12 -23 40q0 35 33 44q12 4 31 4h30q1 6 2 15.5t2 25.5q4 56 25 87q12 17 35 17q20 0 34 -14.5t14 -33.5q0 -22 -5 -49q-8 -32 -11 -48h77q4 21 5 41q6 59 25 87q12 17 35 17q19 0 33 -14.5zM1698 1761l-11 -64h77l11 64
h-77z" />
    <glyph glyph-name="ConversationNew" unicode="&#xe328;" 
d="M876 1645q19 -19 19 -45t-19 -45t-45 -19h-512q-26 0 -45 -19t-19 -45v-1152q0 -26 19 -45t45 -19h1152q26 0 45 19t19 45v512q0 26 19 45t45 19t45 -19t19 -45v-512q0 -38 -15 -72.5t-42 -61.5q-28 -28 -62.5 -43t-72.5 -15h-1152q-38 0 -72.5 15t-61.5 43
q-28 27 -43 61.5t-15 72.5v1152q0 38 15 72.5t43 62.5q27 27 61.5 42t72.5 15h512q26 0 45 -19zM1760.5 1900q46.5 -20 82.5 -56t56 -82.5t20 -97.5t-19.5 -98t-55.5 -83l-761 -761q-5 -5 -35 -16q-62 -22 -161 -47q-113 -30 -168 -40q-31 -7 -44 -7q-25 0 -44.5 19
t-19.5 45q0 13 7 44q10 55 40 168q25 99 47 161q11 30 16 35l761 761q36 36 83 55.5t98 19.5t97.5 -20z" />
    <glyph glyph-name="CurrencyDollar" unicode="&#xe5a2;" 
d="M1294 2012q131 -36 247 -104q113 -67 206.5 -160.5t160.5 -206.5q68 -116 104 -247t36 -270t-36 -270t-104 -246q-67 -114 -160.5 -207.5t-206.5 -160.5q-116 -68 -247 -104t-270 -36t-270 36t-246 104q-114 67 -207.5 160.5t-160.5 207.5q-68 115 -104 246t-36 270
t36 270t104 247q67 113 160.5 206.5t207.5 160.5q115 68 246 104t270 36t270 -36zM535.5 452.5q-18.5 -18.5 -18.5 -42.5t18.5 -41.5t42.5 -17.5t41.5 18t17.5 41q0 24 -17.5 42.5t-41.5 18.5t-42.5 -18.5zM368.5 620.5q-17.5 -18.5 -17.5 -42.5t18 -41.5t41 -17.5
q24 0 41.5 18.5t17.5 42.5q0 23 -17.5 41t-41.5 18t-41.5 -18.5zM747.5 344.5q-17.5 -17.5 -17.5 -41.5q0 -23 17.5 -41t41.5 -18q23 0 40.5 18t17.5 41q0 24 -17.5 41.5t-40.5 17.5q-24 0 -41.5 -17.5zM260.5 831.5q-17.5 -17.5 -17.5 -41.5q0 -23 17.5 -41t40.5 -18
q24 0 42.5 17.5t18.5 41.5t-18.5 41.5t-42.5 17.5q-23 0 -40.5 -17.5zM981 307q-18 -18 -18 -41q0 -24 18 -41.5t41 -17.5q24 0 41.5 17.5t17.5 41.5q0 23 -17.5 41t-41.5 18q-23 0 -41 -18zM224.5 1066.5q-17.5 -18.5 -17.5 -42.5t17.5 -41.5t41.5 -17.5q23 0 41 17.5
t18 41.5t-17.5 42.5t-41.5 18.5t-41.5 -18.5zM1216.5 343.5q-17.5 -18.5 -17.5 -42.5q0 -23 17.5 -40.5t41.5 -17.5q23 0 41 17.5t18 40.5q0 24 -17.5 42.5t-41.5 18.5t-41.5 -18.5zM261 1300.5q-18 -17.5 -18 -41.5t18 -41t42 -17t41.5 17.5t17.5 40.5q0 24 -17.5 41.5
t-41.5 17.5t-42 -17.5zM1427 451.5q-18 -17.5 -18 -41.5t17.5 -42t41.5 -18t41.5 18t17.5 42t-17.5 41.5t-41.5 17.5q-23 0 -41 -17.5zM368.5 1511.5q-17.5 -17.5 -17.5 -41.5t18 -41.5t41 -17.5q24 0 41.5 17.5t17.5 41.5t-17.5 41.5t-41.5 17.5t-41.5 -17.5zM1115 906
q25 -23 25 -55q0 -33 -22 -52t-57 -25v164q34 -14 54 -32zM985 1516v-100q-44 -3 -83.5 -19.5t-69.5 -44.5q-32 -29 -49.5 -67t-17.5 -83q0 -92 68 -153q49 -45 152 -82v-195q-57 4 -112 22t-92 50v-150q96 -48 204 -48v-114h76v116q100 12 157 61q65 57 65 151
q0 88 -70 148q-51 44 -152 80v204q96 -8 172 -56v147q-36 18 -76 25t-96 10v98h-76zM985 1119q-75 40 -75 92q0 34 20.5 54t54.5 27v-173zM1595.5 618.5q-18.5 -18.5 -18.5 -42.5q0 -23 17.5 -41t41.5 -18t42.5 17.5t18.5 41.5t-17.5 42.5t-41.5 18.5t-42.5 -18.5z
M536.5 1679q-17.5 -18 -17.5 -41q0 -24 17.5 -41.5t41.5 -17.5t41.5 17.5t17.5 41.5q0 23 -17.5 41t-41.5 18t-41.5 -18zM1703.5 829.5q-17.5 -17.5 -17.5 -40.5q0 -24 17.5 -41.5t41.5 -17.5t41.5 17t17.5 42q0 23 -18 40.5t-41 17.5q-24 0 -41.5 -17.5zM749 1787.5
q-18 -17.5 -18 -40.5q0 -24 17.5 -42.5t41.5 -18.5t41.5 18.5t17.5 42.5q0 23 -17.5 40.5t-41.5 17.5q-23 0 -41 -17.5zM1741 1065.5q-18 -17.5 -18 -41.5t18 -41.5t41 -17.5q24 0 41.5 17.5t17.5 41.5t-17.5 41.5t-41.5 17.5q-23 0 -41 -17.5zM982.5 1823.5
q-17.5 -17.5 -17.5 -41.5q0 -23 17.5 -41t41.5 -18t41.5 18t17.5 41q0 24 -17.5 41.5t-41.5 17.5t-41.5 -17.5zM1703.5 1300q-17.5 -18 -17.5 -42t17.5 -41.5t41.5 -17.5t42 17.5t18 41.5t-18 42t-42 18t-41.5 -18zM1217 1787q-18 -18 -18 -42t18 -41.5t42 -17.5t41.5 17.5
t17.5 41.5t-17.5 42t-41.5 18t-42 -18zM1596.5 1511.5q-17.5 -17.5 -17.5 -41.5t17.5 -41.5t41.5 -17.5q23 0 41 17.5t18 41.5t-18 41.5t-41 17.5q-24 0 -41.5 -17.5zM1428.5 1679q-17.5 -18 -17.5 -41q0 -24 17.5 -41.5t41.5 -17.5t41.5 17.5t17.5 41.5q0 23 -17.5 41
t-41.5 18t-41.5 -18z" />
    <glyph glyph-name="CurrencyEuro" unicode="&#xe5a3;" 
d="M1294 2012q131 -36 247 -104q113 -67 206.5 -160.5t160.5 -206.5q68 -116 104 -247t36 -270t-36 -270t-104 -246q-67 -114 -160.5 -207.5t-206.5 -160.5q-116 -68 -247 -104t-270 -36t-270 36t-246 104q-114 67 -207.5 160.5t-160.5 207.5q-68 115 -104 246t-36 270
t36 270t104 247q67 113 160.5 206.5t207.5 160.5q115 68 246 104t270 36t270 -36zM535.5 452.5q-18.5 -18.5 -18.5 -42.5q0 -23 19 -41t42 -18t41 18t18 41q0 24 -17.5 42.5t-41.5 18.5t-42.5 -18.5zM368.5 620.5q-17.5 -18.5 -17.5 -42.5t18 -41.5t41 -17.5q24 0 41.5 18.5
t17.5 42.5q0 23 -17.5 41t-41.5 18t-41.5 -18.5zM747.5 344.5q-17.5 -17.5 -17.5 -41.5q0 -23 17.5 -41t41.5 -18q23 0 40.5 18t17.5 41q0 24 -17.5 41.5t-40.5 17.5q-24 0 -41.5 -17.5zM260.5 831.5q-17.5 -17.5 -17.5 -41.5q0 -23 17.5 -41t40.5 -18q24 0 42.5 17.5
t18.5 41.5t-18.5 41.5t-42.5 17.5q-23 0 -40.5 -17.5zM981 307q-18 -18 -18 -41q0 -24 18 -41.5t41 -17.5q24 0 41.5 17.5t17.5 41.5q0 23 -17.5 41t-41.5 18q-23 0 -41 -18zM224.5 1066.5q-17.5 -18.5 -17.5 -42.5q0 -23 18 -41t41 -18t41 17.5t18 41.5t-17.5 42.5
t-41.5 18.5t-41.5 -18.5zM1216.5 343.5q-17.5 -18.5 -17.5 -42.5q0 -23 17.5 -40.5t41.5 -17.5q23 0 41 17.5t18 40.5q0 24 -17.5 42.5t-41.5 18.5t-41.5 -18.5zM261 1300.5q-18 -17.5 -18 -41.5t18 -41t42 -17t41.5 17.5t17.5 40.5q0 24 -17.5 41.5t-41.5 17.5t-42 -17.5z
M1427 451.5q-18 -17.5 -18 -41.5t17.5 -42t41.5 -18t41.5 18t17.5 42t-17.5 41.5t-41.5 17.5q-23 0 -41 -17.5zM369 1511.5q-18 -17.5 -18 -41.5t18 -41.5t41 -17.5q24 0 41.5 17.5t17.5 41.5t-17.5 41.5t-41.5 17.5q-23 0 -41 -17.5zM836 1374q-86 -74 -117 -204h-73v-107
h57q-3 -27 -3 -52q0 -19 1 -28h-55v-109h71q24 -128 105 -201q80 -74 211 -74q111 0 177 41v141q-67 -51 -154 -51q-65 0 -108.5 39t-62.5 105h244v109h-262v16v32q0 10 2 32h260v107h-242q19 65 65 105q49 43 113 43q78 0 145 -50v150q-32 18 -69.5 24.5t-84.5 6.5
q-132 0 -220 -75zM1595.5 618.5q-18.5 -18.5 -18.5 -42.5q0 -23 18 -41t41 -18q24 0 42.5 17.5t18.5 41.5t-18 42.5t-41 18.5q-24 0 -42.5 -18.5zM536.5 1679q-17.5 -18 -17.5 -41q0 -24 17.5 -41.5t41.5 -17.5t41.5 17.5t17.5 41.5q0 23 -17.5 41t-41.5 18t-41.5 -18z
M1703.5 829.5q-17.5 -17.5 -17.5 -40.5q0 -24 17.5 -41.5t41.5 -17.5q23 0 41 17.5t18 41.5q0 23 -18 40.5t-41 17.5q-24 0 -41.5 -17.5zM749 1787.5q-18 -17.5 -18 -40.5q0 -24 17.5 -42.5t41.5 -18.5t41.5 18.5t17.5 42.5q0 23 -17.5 40.5t-41.5 17.5q-23 0 -41 -17.5z
M1741 1065.5q-18 -17.5 -18 -41.5t18 -41.5t41 -17.5q24 0 41.5 17.5t17.5 41.5t-17.5 41.5t-41.5 17.5q-23 0 -41 -17.5zM982.5 1823.5q-17.5 -17.5 -17.5 -41.5q0 -23 17.5 -41t41.5 -18t41.5 18t17.5 41q0 24 -17.5 41.5t-41.5 17.5t-41.5 -17.5zM1703.5 1300
q-17.5 -18 -17.5 -42q0 -23 18 -41t41 -18q24 0 42 17.5t18 41.5t-18 42t-42 18t-41.5 -18zM1217 1787q-18 -18 -18 -42t18 -41.5t42 -17.5q23 0 41 18t18 41q0 24 -17.5 42t-41.5 18t-42 -18zM1596.5 1511.5q-17.5 -17.5 -17.5 -41.5t17.5 -41.5t41.5 -17.5q23 0 41 17.5
t18 41.5t-18 41.5t-41 17.5q-24 0 -41.5 -17.5zM1428.5 1679q-17.5 -18 -17.5 -41q0 -24 17.5 -41.5t41.5 -17.5t41.5 17.5t17.5 41.5q0 23 -17.5 41t-41.5 18t-41.5 -18z" />
    <glyph glyph-name="CurrencyIndianRupee" unicode="&#xe5a8;" 
d="M1294 2012q131 -36 247 -104q113 -67 206.5 -160.5t160.5 -206.5q68 -116 104 -247t36 -270t-36 -270t-104 -246q-67 -114 -160.5 -207.5t-206.5 -160.5q-116 -68 -247 -104t-270 -36t-270 36t-246 104q-114 67 -207.5 160.5t-160.5 207.5q-68 115 -104 246t-36 270
t36 270t104 247q67 113 160.5 206.5t207.5 160.5q115 68 246 104t270 36t270 -36zM535.5 452.5q-18.5 -18.5 -18.5 -42.5t18.5 -41.5t42.5 -17.5t41.5 18t17.5 41q0 24 -17.5 42.5t-41.5 18.5t-42.5 -18.5zM368.5 620.5q-17.5 -18.5 -17.5 -42.5t18 -41.5t41 -17.5
q24 0 41.5 18.5t17.5 42.5q0 23 -17.5 41t-41.5 18t-41.5 -18.5zM747.5 344.5q-17.5 -17.5 -17.5 -41.5q0 -23 17.5 -41t41.5 -18q23 0 40.5 18t17.5 41q0 24 -17.5 41.5t-40.5 17.5q-24 0 -41.5 -17.5zM260.5 831.5q-17.5 -17.5 -17.5 -41.5q0 -23 17.5 -41t40.5 -18
q24 0 42.5 17.5t18.5 41.5t-18.5 41.5t-42.5 17.5q-23 0 -40.5 -17.5zM981 307q-18 -18 -18 -41q0 -24 18 -41.5t41 -17.5q24 0 41.5 17.5t17.5 41.5q0 23 -17.5 41t-41.5 18q-23 0 -41 -18zM224.5 1066.5q-17.5 -18.5 -17.5 -42.5t17.5 -41.5t41.5 -17.5q23 0 41 17.5
t18 41.5t-17.5 42.5t-41.5 18.5t-41.5 -18.5zM1216.5 343.5q-17.5 -18.5 -17.5 -42.5q0 -23 17.5 -40.5t41.5 -17.5q23 0 41 17.5t18 40.5q0 24 -17.5 42.5t-41.5 18.5t-41.5 -18.5zM261 1300.5q-18 -17.5 -18 -41.5t18 -41t42 -17t41.5 17.5t17.5 40.5q0 24 -17.5 41.5
t-41.5 17.5t-42 -17.5zM1427 451.5q-18 -17.5 -18 -41.5t17.5 -42t41.5 -18t41.5 18t17.5 42t-17.5 41.5t-41.5 17.5q-23 0 -41 -17.5zM369 1511.5q-18 -17.5 -18 -41.5t18 -41.5t41 -17.5q24 0 41.5 17.5t17.5 41.5t-17.5 41.5t-41.5 17.5q-23 0 -41 -17.5zM737 1452
l-2 -112q32 0 48 1q15 1 47 1q64 0 105 -15q57 -22 73 -71h-271v-112h269q-21 -64 -116 -79q-33 -6 -67 -6l-86 1v-127q51 0 81 -4.5t51 -17.5q20 -12 36 -32.5t49 -70.5l136 -212h205l-169 244q-41 58 -61 80q-39 43 -80 58v3q72 13 126 54q61 45 79 109h123v112h-121
q-2 24 -13.5 46t-29.5 38h162v112h-574zM1595.5 618.5q-18.5 -18.5 -18.5 -42.5q0 -23 17.5 -41t41.5 -18t42.5 17.5t18.5 41.5t-17.5 42.5t-41.5 18.5t-42.5 -18.5zM536.5 1679.5q-17.5 -17.5 -17.5 -41.5t17.5 -41.5t41.5 -17.5t41.5 17.5t17.5 41.5q0 23 -17.5 41
t-41.5 18t-41.5 -17.5zM1703.5 829.5q-17.5 -17.5 -17.5 -40.5q0 -24 17.5 -41.5t41.5 -17.5q23 0 41 17.5t18 41.5q0 23 -18 40.5t-41 17.5q-24 0 -41.5 -17.5zM749 1787.5q-18 -17.5 -18 -40.5q0 -24 17.5 -42.5t41.5 -18.5t41.5 18.5t17.5 42.5q0 23 -17.5 40.5
t-41.5 17.5q-23 0 -41 -17.5zM1741 1065.5q-18 -17.5 -18 -41.5t18 -41.5t41 -17.5q24 0 41.5 17.5t17.5 41.5t-17.5 41.5t-41.5 17.5q-23 0 -41 -17.5zM982.5 1823.5q-17.5 -17.5 -17.5 -41.5q0 -23 17.5 -41t41.5 -18t41.5 18t17.5 41q0 24 -17.5 41.5t-41.5 17.5
t-41.5 -17.5zM1703.5 1300q-17.5 -18 -17.5 -42t17.5 -41.5t41.5 -17.5t42 17.5t18 41.5t-18 42t-42 18t-41.5 -18zM1217 1787q-18 -18 -18 -42t18 -41.5t42 -17.5t41.5 17.5t17.5 41.5t-17.5 42t-41.5 18t-42 -18zM1596.5 1511.5q-17.5 -17.5 -17.5 -41.5t17.5 -41.5
t41.5 -17.5q23 0 41 17.5t18 41.5q0 23 -18 41t-41 18q-24 0 -41.5 -17.5zM1428.5 1679q-17.5 -18 -17.5 -41q0 -24 17.5 -41.5t41.5 -17.5t41.5 17.5t17.5 41.5q0 25 -17 42t-42 17q-24 0 -41.5 -18z" />
    <glyph glyph-name="CurrencyIsraeliSekel" unicode="&#xe5a6;" 
d="M1294 2012q131 -36 247 -104q113 -67 206.5 -160.5t160.5 -206.5q68 -116 104 -247t36 -270t-36 -270t-104 -246q-67 -114 -160.5 -207.5t-206.5 -160.5q-116 -68 -247 -104t-270 -36t-270 36t-246 104q-114 67 -207.5 160.5t-160.5 207.5q-68 115 -104 246t-36 270
t36 270t104 247q67 113 160.5 206.5t207.5 160.5q115 68 246 104t270 36t270 -36zM535.5 452.5q-18.5 -18.5 -18.5 -42.5t18.5 -41.5t42.5 -17.5t41.5 18t17.5 41q0 24 -17.5 42.5t-41.5 18.5t-42.5 -18.5zM368.5 620.5q-17.5 -18.5 -17.5 -42.5t18 -41.5t41 -17.5
q24 0 41.5 18.5t17.5 42.5q0 23 -17.5 41t-41.5 18t-41.5 -18.5zM747.5 344.5q-17.5 -17.5 -17.5 -41.5q0 -23 17.5 -41t41.5 -18q23 0 40.5 18t17.5 41q0 24 -17.5 41.5t-40.5 17.5q-24 0 -41.5 -17.5zM260.5 831.5q-17.5 -17.5 -17.5 -41.5q0 -23 17.5 -41t40.5 -18
q24 0 42.5 17.5t18.5 41.5t-18.5 41.5t-42.5 17.5q-23 0 -40.5 -17.5zM981 307q-18 -18 -18 -41q0 -24 18 -41.5t41 -17.5q24 0 41.5 17.5t17.5 41.5q0 23 -17.5 41t-41.5 18q-23 0 -41 -18zM224.5 1066.5q-17.5 -18.5 -17.5 -42.5t17.5 -41.5t41.5 -17.5q23 0 41 17.5
t18 41.5t-17.5 42.5t-41.5 18.5t-41.5 -18.5zM1216.5 343.5q-17.5 -18.5 -17.5 -42.5q0 -23 17.5 -40.5t41.5 -17.5q23 0 41 17.5t18 40.5q0 24 -17.5 42.5t-41.5 18.5t-41.5 -18.5zM261 1300.5q-18 -17.5 -18 -41.5t18 -41t42 -17t41.5 17.5t17.5 40.5q0 24 -17.5 41.5
t-41.5 17.5t-42 -17.5zM1427 451.5q-18 -17.5 -18 -41.5t17.5 -42t41.5 -18t41.5 18t17.5 42t-17.5 41.5t-41.5 17.5q-23 0 -41 -17.5zM369 1511.5q-18 -17.5 -18 -41.5t18 -41.5t41 -17.5q24 0 41.5 17.5t17.5 41.5t-17.5 41.5t-41.5 17.5q-23 0 -41 -17.5zM692 1409v-770
h114v651h182q34 0 51 -22.5t17 -56.5v-387h118v405q0 85 -48.5 132.5t-133.5 47.5h-300zM1240 1409v-572q0 -35 -18 -57t-52 -22h-182v468h-114v-587h303q85 0 132 47.5t47 132.5v590h-116zM1595.5 618.5q-18.5 -18.5 -18.5 -42.5q0 -23 17.5 -41t41.5 -18t42.5 17.5
t18.5 41.5t-17.5 42.5t-41.5 18.5t-42.5 -18.5zM536.5 1679.5q-17.5 -17.5 -17.5 -41.5t17.5 -41.5t41.5 -17.5t41.5 17.5t17.5 41.5q0 23 -17.5 41t-41.5 18t-41.5 -17.5zM1703.5 829.5q-17.5 -17.5 -17.5 -40.5q0 -24 17.5 -41.5t41.5 -17.5q23 0 41 17.5t18 41.5
q0 23 -18 40.5t-41 17.5q-24 0 -41.5 -17.5zM749 1787.5q-18 -17.5 -18 -40.5q0 -24 17.5 -42.5t41.5 -18.5t41.5 18.5t17.5 42.5q0 23 -17.5 40.5t-41.5 17.5q-23 0 -41 -17.5zM1741 1065.5q-18 -17.5 -18 -41.5t18 -41.5t41 -17.5q24 0 41.5 17.5t17.5 41.5t-17.5 41.5
t-41.5 17.5q-23 0 -41 -17.5zM982.5 1823.5q-17.5 -17.5 -17.5 -41.5q0 -23 17.5 -41t41.5 -18t41.5 18t17.5 41q0 24 -17.5 41.5t-41.5 17.5t-41.5 -17.5zM1703.5 1300q-17.5 -18 -17.5 -42t17.5 -41.5t41.5 -17.5t42 17.5t18 41.5t-18 42t-42 18t-41.5 -18zM1217 1787
q-18 -18 -18 -42t18 -41.5t42 -17.5t41.5 17.5t17.5 41.5t-17.5 42t-41.5 18t-42 -18zM1596.5 1511.5q-17.5 -17.5 -17.5 -41.5t17.5 -41.5t41.5 -17.5q23 0 41 17.5t18 41.5q0 23 -18 41t-41 18q-24 0 -41.5 -17.5zM1428.5 1679q-17.5 -18 -17.5 -41q0 -24 17.5 -41.5
t41.5 -17.5t41.5 17.5t17.5 41.5q0 25 -17 42t-42 17q-24 0 -41.5 -18z" />
    <glyph glyph-name="CurrencySaudiRiyal" unicode="&#xe5a7;" 
d="M1294 2012q131 -36 247 -104q113 -67 206.5 -160.5t160.5 -206.5q68 -116 104 -247t36 -270t-36 -270t-104 -246q-67 -114 -160.5 -207.5t-206.5 -160.5q-116 -68 -247 -104t-270 -36t-270 36t-246 104q-114 67 -207.5 160.5t-160.5 207.5q-68 115 -104 246t-36 270
t36 270t104 247q67 113 160.5 206.5t207.5 160.5q115 68 246 104t270 36t270 -36zM535.5 452.5q-18.5 -18.5 -18.5 -42.5t18.5 -41.5t42.5 -17.5t41.5 18t17.5 41q0 24 -17.5 42.5t-41.5 18.5t-42.5 -18.5zM368.5 620.5q-17.5 -18.5 -17.5 -42.5t18 -41.5t41 -17.5
q24 0 41.5 18.5t17.5 42.5q0 23 -17.5 41t-41.5 18t-41.5 -18.5zM747.5 344.5q-17.5 -17.5 -17.5 -41.5q0 -23 17.5 -41t41.5 -18q23 0 40.5 18t17.5 41q0 24 -17.5 41.5t-40.5 17.5q-24 0 -41.5 -17.5zM260.5 831.5q-17.5 -17.5 -17.5 -41.5q0 -23 17.5 -41t40.5 -18
q24 0 42.5 17.5t18.5 41.5t-18.5 41.5t-42.5 17.5q-23 0 -40.5 -17.5zM981 307q-18 -18 -18 -41q0 -24 18 -41.5t41 -17.5q24 0 41.5 17.5t17.5 41.5q0 23 -17.5 41t-41.5 18q-23 0 -41 -18zM224.5 1066.5q-17.5 -18.5 -17.5 -42.5t17.5 -41.5t41.5 -17.5q23 0 41 17.5
t18 41.5t-17.5 42.5t-41.5 18.5t-41.5 -18.5zM1218 343.5q-17 -18.5 -17 -42.5q0 -23 17.5 -40.5t40.5 -17.5q24 0 41.5 17.5t17.5 40.5q0 24 -17.5 42.5t-41.5 18.5t-41 -18.5zM261 1300.5q-18 -17.5 -18 -41.5t18 -41t42 -17t41.5 17.5t17.5 40.5q0 24 -17.5 41.5
t-41.5 17.5t-42 -17.5zM826 1400v-437q0 -76 -25 -110q-32 -41 -103 -41q-60 0 -84 24.5t-24 84.5q0 31 5 66t6 44h-77q-5 -21 -9.5 -43.5t-4.5 -41.5q0 -57 7 -98t26 -70q21 -32 57.5 -49t93.5 -17q113 0 165 69q45 62 45 177v442h-78zM1022 778v-77h86v77h-86zM1427 451.5
q-18 -17.5 -18 -41.5t17.5 -42t41.5 -18t41.5 18t17.5 42t-17.5 41.5t-41.5 17.5q-23 0 -41 -17.5zM369 1511.5q-18 -17.5 -18 -41.5t18 -41.5t41 -17.5q24 0 41.5 17.5t17.5 41.5t-17.5 41.5t-41.5 17.5q-23 0 -41 -17.5zM1147 778v-77h88v77h-88zM1595.5 618.5
q-18.5 -18.5 -18.5 -42.5q0 -23 17.5 -41t41.5 -18t42.5 17.5t18.5 41.5t-17.5 42.5t-41.5 18.5t-42.5 -18.5zM536.5 1679.5q-17.5 -17.5 -17.5 -41.5t17.5 -41.5t41.5 -17.5t41.5 17.5t17.5 41.5q0 23 -17.5 41t-41.5 18t-41.5 -17.5zM1019 1400v-424q0 -74 31.5 -110
t104.5 -36q63 0 98 43q31 40 31 103v180h-76v-175q0 -29 -12.5 -41t-42.5 -12q-36 0 -47.5 19.5t-11.5 58.5v394h-75zM1402 1099q26 -64 40 -116t14 -105q0 -60 -19 -90q-24 -39 -78 -39q-34 0 -75 13v-100q42 -14 77 -14q89 0 137 70q40 60 40 154q0 122 -48 227h-88z
M1703.5 829.5q-17.5 -17.5 -17.5 -40.5q0 -24 17.5 -41.5t41.5 -17.5q23 0 41 17.5t18 41.5q0 23 -18 40.5t-41 17.5q-24 0 -41.5 -17.5zM749 1787.5q-18 -17.5 -18 -40.5q0 -24 17.5 -42.5t41.5 -18.5t41.5 18.5t17.5 42.5q0 23 -17.5 40.5t-41.5 17.5q-23 0 -41 -17.5z
M1741 1065.5q-18 -17.5 -18 -41.5t18 -41.5t41 -17.5q24 0 41.5 17.5t17.5 41.5t-17.5 41.5t-41.5 17.5q-23 0 -41 -17.5zM982.5 1823.5q-17.5 -17.5 -17.5 -41.5q0 -23 17.5 -41t41.5 -18t41.5 18t17.5 41q0 24 -17.5 41.5t-41.5 17.5t-41.5 -17.5zM1703.5 1300
q-17.5 -18 -17.5 -42t17.5 -41.5t41.5 -17.5t42 17.5t18 41.5t-18 42t-42 18t-41.5 -18zM1219 1787q-18 -18 -18 -42t18 -41.5t42 -17.5t41.5 17.5t17.5 41.5t-17.5 42t-41.5 18t-42 -18zM1596.5 1511.5q-17.5 -17.5 -17.5 -41.5t17.5 -41.5t41.5 -17.5q23 0 41 17.5
t18 41.5q0 23 -18 41t-41 18q-24 0 -41.5 -17.5zM1428.5 1679q-17.5 -18 -17.5 -41q0 -24 17.5 -41.5t41.5 -17.5t41.5 17.5t17.5 41.5q0 25 -17 42t-42 17q-24 0 -41.5 -18z" />
    </font>
</defs>
</svg>
