<?xml version="1.0"?>
<svg xmlns="http://www.w3.org/2000/svg" xmlns:xlink="http://www.w3.org/1999/xlink" version="1.1" id="Capa_1" x="0px" y="0px" width="512px" height="512px" viewBox="0 0 550.801 550.801" style="enable-background:new 0 0 550.801 550.801;" xml:space="preserve" class=""><g><g>
	<g>
		<path d="M475.084,131.992c-0.021-2.521-0.828-5.021-2.562-6.993L366.324,3.689c-0.031-0.035-0.062-0.045-0.084-0.077    c-0.633-0.706-1.371-1.284-2.151-1.803c-0.232-0.145-0.464-0.285-0.707-0.422c-0.675-0.367-1.392-0.665-2.13-0.886    c-0.201-0.063-0.38-0.145-0.58-0.197C359.87,0.114,359.037,0,358.193,0H97.2C85.282,0,75.6,9.693,75.6,21.601v507.6    c0,11.907,9.682,21.601,21.6,21.601H453.6c11.908,0,21.601-9.693,21.601-21.601V133.202    C475.2,132.791,475.137,132.393,475.084,131.992z M181.101,495.672c8.931,0,18.845-1.94,24.677-4.271l4.472,23.129    c-5.444,2.722-17.684,5.643-33.626,5.643c-45.291,0-68.618-28.191-68.618-65.506c0-44.709,31.88-69.589,71.529-69.589    c15.356,0,27.021,3.106,32.276,5.833l-6.033,23.514c-6.02-2.525-14.386-4.846-24.877-4.846c-23.517,0-41.784,14.186-41.784,43.331    C139.116,479.155,154.662,495.672,181.101,495.672z M261.776,520.172c-14.964,0-29.742-3.892-37.125-7.973l6.02-24.49    c7.976,4.082,20.218,8.163,32.854,8.163c13.605,0,20.798-5.643,20.798-14.196c0-8.163-6.217-12.824-21.963-18.457    c-21.766-7.583-35.955-19.627-35.955-38.675c0-22.359,18.658-39.467,49.565-39.467c14.771,0,25.66,3.106,33.428,6.613    l-6.602,23.909c-5.258-2.531-14.576-6.223-27.412-6.223c-12.825,0-19.045,5.833-19.045,12.636c0,8.369,7.38,12.055,24.303,18.468    c23.124,8.559,34.014,20.598,34.014,39.065C314.645,501.504,297.738,520.172,261.776,520.172z M400.18,518.216h-34.594    L323.6,387.213h32.463l15.937,55.403c4.472,15.546,8.554,30.512,11.665,46.844h0.58c3.301-15.747,7.383-31.298,11.854-46.259    l16.717-55.982h31.493L400.18,518.216z M97.2,366.752V21.601h250.192v110.521c0,5.962,4.842,10.8,10.801,10.8H453.6v223.837H97.2    V366.752z" data-original="#000000" class="active-path" data-old_color="#000000" fill="#1177D1"/>
		<path d="M377.188,170.058h-66.149h-2.31h-66.15l0,0h-65v29.223v2.193v27.032v2.312v26.924v2.302v29.226h68.462l0,0h131.27v-92.688    h-0.122V170.058z M243.728,286.971H179.89v-26.927h63.837V286.971z M243.728,257.742H179.89v-26.924h63.837V257.742z     M243.728,228.506H179.89v-26.913h62.688h1.149V228.506z M244.891,199.281v-26.913h63.838v26.913H246.04H244.891z     M374.604,286.569h-25.207v-77.098H332.09v77.098h-14.418v-61.13h-17.308v61.13h-12.698v-45.362h-17.31v45.362h-24.321v-26.525    v-2.302v-26.924v-2.312v-26.913h62.688h2.315h63.565V286.569z M374.878,196.581h-0.274v2.7h-63.565v-26.913h63.84V196.581z" data-original="#000000" class="active-path" data-old_color="#000000" fill="#1177D1"/>
	</g>
</g></g> </svg>
