<?xml version="1.0" encoding="utf-8"?>
<!-- Generator: Adobe Illustrator 19.2.0, SVG Export Plug-In . SVG Version: 6.00 Build 0)  -->
<svg version="1.1" id="Layer_1" xmlns="http://www.w3.org/2000/svg" xmlns:xlink="http://www.w3.org/1999/xlink" x="0px" y="0px"
	 viewBox="0 0 1000 1000" style="enable-background:new 0 0 1000 1000;" xml:space="preserve">
<style type="text/css">
	.st0{fill:#1D1D1D;}
	.st1{fill:#FFFFFF;}
</style>
<g>
	<rect class="st0" width="1000" height="1000"/>
	<g>
		<path class="st1" d="M880,347.5c-20.1-19.2-50.3-28.5-90.6-28.5H682h-29v73H490.7l-13.3,56.3c11.1-5.2,26.8-9.7,37.7-12.3
			c10.9-2.6,21.7-1.8,32.3-1.8c36.1,0,65.3,11.2,87.8,33c22.5,21.8,33.7,49.4,33.7,82.5c0,23.3-5.8,45.7-17.3,67.2
			c-11.6,21.5-28,38.4-49.2,49.7c-7.6,4.1-16,3.8-25.2,10.4H682h29V545h66.1c44.9,0,78.3-10.1,100.2-30.6
			c21.9-20.5,32.8-48.8,32.8-85.2C910.1,393.8,900.1,366.7,880,347.5z M788.6,460.4c-8.7,7.5-23.8,10.6-45.3,10.6H711v-79h36.8
			c20.8,0,35,3.8,42.6,11.7c7.5,7.9,11.3,17.1,11.3,28.4C801.7,443.7,797.3,452.9,788.6,460.4z"/>
		<path class="st1" d="M511.5,499.3c-19.5,0-36.3,11.3-44.4,27.6l-97.6-13.3L413.6,319h-58.3H323v152H206V319H94v358h112V545h117
			v132h32.3H459c-16.6-6.6-30.8-11.6-42.5-20.4c-11.9-8.9-21.5-19.3-28.9-30.6c-7.4-11.3-13.2-24-18.1-40.9l97.7-14.1
			c8.1,16.2,24.9,27.3,44.3,27.3c27.4,0,49.6-22.2,49.6-49.6C561,521.5,538.8,499.3,511.5,499.3z"/>
	</g>
</g>
</svg>
