<svg width="76" height="75" viewBox="0 0 76 75" fill="none" xmlns="http://www.w3.org/2000/svg">
<path fill-rule="evenodd" clip-rule="evenodd" d="M17.916 12.5C13.6013 12.5 10.1035 15.9978 10.1035 20.3125V54.6875C10.1035 59.0022 13.6013 62.5 17.916 62.5H58.5462C62.8609 62.5 66.3587 59.0022 66.3587 54.6875V20.3125C66.3587 15.9978 62.8609 12.5 58.5462 12.5H17.916ZM13.2285 20.3125C13.2285 17.7237 15.3272 15.625 17.916 15.625H58.5462C61.1353 15.625 63.2337 17.7237 63.2337 20.3125V54.6875C63.2337 57.2763 61.1353 59.375 58.5462 59.375H17.916C15.3272 59.375 13.2285 57.2763 13.2285 54.6875V20.3125ZM46.1442 33.5684C46.1442 32.7055 45.4448 32.0059 44.5817 32.0059C43.7188 32.0059 43.0193 32.7055 43.0193 33.5684V51.5775C43.0193 52.4403 43.7188 53.14 44.5817 53.14C45.4448 53.14 46.1442 52.4403 46.1442 51.5775V33.5684ZM56.0486 26.2017C56.9117 26.2017 57.6111 26.9013 57.6111 27.7642V51.5775C57.6111 52.4403 56.9117 53.14 56.0486 53.14C55.1858 53.14 54.4861 52.4403 54.4861 51.5775V27.7642C54.4861 26.9013 55.1858 26.2017 56.0486 26.2017ZM33.1163 39.7379C33.9793 39.7379 34.6788 40.4376 34.6788 41.3004V51.5778C34.6788 52.4406 33.9793 53.1403 33.1163 53.1403C32.2534 53.1403 31.5539 52.4406 31.5539 51.5778V41.3004C31.5539 40.4376 32.2534 39.7379 33.1163 39.7379Z" fill="black"/>
<path d="M23.9224 26.0084C23.0763 26.085 22.705 27.115 23.3077 27.7138L28.1883 32.5628C28.7825 33.1532 29.7956 32.7952 29.8871 31.9627L30.4742 26.619C30.5432 25.9908 30.0195 25.4569 29.3901 25.5139L23.9224 26.0084Z" fill="black"/>
<path d="M20.3158 33.3233C19.6899 33.9309 19.6732 34.9301 20.2785 35.5582V35.5582C20.889 36.1918 21.899 36.2061 22.5272 35.5901L26.7931 31.4076C27.4127 30.8001 27.4213 29.8049 26.8123 29.1868V29.1868C26.2075 28.5729 25.2207 28.5619 24.6024 29.1621L20.3158 33.3233Z" fill="black"/>
</svg>
