<?xml version="1.0" encoding="UTF-8"?>
<!-- Created with EazyDraw for Mac ( http://www.eazydraw.com/ ) -->

<svg
    version="1.1"
    xmlns:dc="http://purl.org/dc/elements/1.1/"
    xmlns:cc="http://creativecommons.org/ns#"
    xmlns:rdf="http://www.w3.org/1999/02/22-rdf-syntax-ns#"
    xmlns:svg="http://www.w3.org/2000/svg"
    xmlns:xlink="http://www.w3.org/1999/xlink"
    xmlns="http://www.w3.org/2000/svg"
    width="22.3999988313"
    height="23.9999987478"
    viewBox="0, 0, 22.3999988313, 23.9999987478"
    preserveAspectRatio="none"
    id="svg2">
   <defs
       id="defs_F220240E"/>
   <metadata
       id="metadata7">
      <rdf:RDF>
         <cc:Work
             rdf:about="">
            <dc:format>image/svg+xml</dc:format>
            <dc:type rdf:resource="http://purl.org/dc/dcmitype/StillImage"/>
            <dc:title></dc:title>
         </cc:Work>
      </rdf:RDF>
   </metadata>
   <g
       id="layer_Paper"
       style="fill:#000000;fill-opacity:1;stroke:#000000;stroke-opacity:1;fill-rule:nonzero;stroke-linecap:square;stroke-linejoin:miter;stroke-width:1;stroke-miterlimit:10">
      <path
          style="stroke:none"
          id="9BFB96DD"
          d="M3.199999833043,19.1999989983 L9.59999949913,19.1999989983 L9.59999949913,20.7999989148 L3.199999833043,20.7999989148 L3.199999833043,19.1999989983 z M11.1999994157,9.59999949913 L3.199999833043,9.59999949913
L3.199999833043,11.1999994157 L11.1999994157,11.1999994157 L11.1999994157,9.59999949913 z M14.3999992487,14.3999992487 L14.3999992487,11.1999994157 L9.59999949913,15.9999991652 L14.3999992487,20.7999989148
L14.3999992487,17.5999990817 L22.3999988313,17.5999990817 L22.3999988313,14.3999992487 L14.3999992487,14.3999992487 z M7.199999624348,12.7999993322 L3.199999833043,12.7999993322 L3.199999833043,14.3999992487
L7.199999624348,14.3999992487 L7.199999624348,12.7999993322 z M3.199999833043,17.5999990817 L7.199999624348,17.5999990817 L7.199999624348,15.9999991652 L3.199999833043,15.9999991652 L3.199999833043,17.5999990817
z M17.5999990817,19.1999989983 L19.1999989983,19.1999989983 L19.1999989983,22.3999988313 C19.1749989996,22.8499988078 19.0249990074,23.2249987883 18.724999023,23.5249987726 C18.4249990387,23.824998757 18.0499990583,23.9749987491 17.5999990817,23.9999987478
L1.599999916522,23.9999987478 C0.724999962174,23.9999987478 0,23.2749987857 0,22.3999988313 L0,4.799999749565 C0,3.924999795217 0.724999962174,3.199999833043 1.599999916522,3.199999833043 L6.399999666087,3.199999833043
C6.399999666087,1.424999925652 7.824999591739,0 9.59999949913,0 C11.3749994065,0 12.7999993322,1.424999925652 12.7999993322,3.199999833043 L17.5999990817,3.199999833043 C18.4749990361,3.199999833043 19.1999989983,3.924999795217 19.1999989983,4.799999749565
L19.1999989983,12.7999993322 L17.5999990817,12.7999993322 L17.5999990817,7.999999582609 L1.599999916522,7.999999582609 L1.599999916522,22.3999988313 L17.5999990817,22.3999988313 L17.5999990817,19.1999989983
z M3.199999833043,6.399999666087 L15.9999991652,6.399999666087 C15.9999991652,5.524999711739 15.274999203,4.799999749565 14.3999992487,4.799999749565 L12.7999993322,4.799999749565 C11.9249993778,4.799999749565 11.1999994157,4.074999787391 11.1999994157,3.199999833043
C11.1999994157,2.324999878696 10.4749994535,1.599999916522 9.59999949913,1.599999916522 C8.724999544783,1.599999916522 7.999999582609,2.324999878696 7.999999582609,3.199999833043 C7.999999582609,4.074999787391 7.274999620435,4.799999749565 6.399999666087,4.799999749565
L4.799999749565,4.799999749565 C3.924999795217,4.799999749565 3.199999833043,5.524999711739 3.199999833043,6.399999666087 z"/>
   </g>
</svg>
