<!-- Generated by IcoMoon.io -->
<svg version="1.1" xmlns="http://www.w3.org/2000/svg" width="16" height="16" viewBox="0 0 16 16">
<title>media-gallery</title>
<path d="M1.7 10.25c0 0.387-0.313 0.7-0.7 0.7s-0.7-0.313-0.7-0.7v-5.25c0-2.043 1.657-3.7 3.7-3.7h7.5c0.387 0 0.7 0.313 0.7 0.7s-0.313 0.7-0.7 0.7h-7.5c-1.27 0-2.3 1.030-2.3 2.3v5.25z"></path>
<path d="M15.95 11.2c0 2.043-1.657 3.7-3.7 3.7h-5.25c-2.043 0-3.7-1.657-3.7-3.7v-3c0-2.043 1.657-3.7 3.7-3.7h5.25c2.043 0 3.7 1.657 3.7 3.7v3zM14.55 11.2v-3c0-1.27-1.030-2.3-2.3-2.3h-5.25c-1.27 0-2.3 1.030-2.3 2.3v3c0 1.27 1.030 2.3 2.3 2.3h5.25c1.27 0 2.3-1.030 2.3-2.3z"></path>
<path d="M8.5 11.358c0 0.085 0.024 0.143 0.072 0.173s0.106 0.024 0.174-0.019l2.652-1.678c0.068-0.043 0.102-0.095 0.102-0.157s-0.034-0.115-0.102-0.157l-2.652-1.683c-0.068-0.043-0.126-0.049-0.174-0.019s-0.072 0.088-0.072 0.173v3.366z"></path>
</svg>
