<!-- Generated by IcoMoon.io -->
<svg version="1.1" xmlns="http://www.w3.org/2000/svg" width="24" height="24" viewBox="0 0 24 24">
<title>media-gallery-big</title>
<path d="M3 15c0 0.552-0.448 1-1 1s-1-0.448-1-1v-8c0-2.209 1.791-4 4-4h11c0.552 0 1 0.448 1 1s-0.448 1-1 1h-11c-1.105 0-2 0.895-2 2v8z"></path>
<path d="M18 21h-9c-2.209 0-4-1.791-4-4v-6c0-2.209 1.791-4 4-4h9c2.209 0 4 1.791 4 4v6c0 2.209-1.791 4-4 4zM20 11c0-1.105-0.895-2-2-2h-9c-1.105 0-2 0.895-2 2v6c0 1.105 0.895 2 2 2h9c1.105 0 2-0.895 2-2v-6z"></path>
<path d="M12 16.244c0 0.114 0.032 0.191 0.096 0.231s0.142 0.032 0.232-0.025l3.536-2.237c0.090-0.057 0.136-0.127 0.136-0.21s-0.045-0.153-0.136-0.21l-3.536-2.244c-0.090-0.057-0.168-0.065-0.232-0.025s-0.096 0.117-0.096 0.231v4.488z"></path>
</svg>
