<svg xmlns="http://www.w3.org/2000/svg" style="isolation:isolate" width="16" height="16" preserveAspectRatio="xMinYMid meet"><defs><clipPath id="a"><path d="M0 0h16v16H0z"/></clipPath></defs><g clip-path="url(#a)"><path d="M14.7 5.5l-.096 5.97-5.008 3.23L9.5 8.143 14.7 5.5zM7.8 1.1l5.7 2.3-4.9 3-5.8-2.8 5-2.5zm-.1 7l.1 6.7-5.9-3.2-.1-6.7 5.9 3.2z" vector-effect="non-scaling-stroke" stroke="#000" stroke-miterlimit="10"/><path d="M7.9.1s-.1 0-.1.1L1.6 3.6c-.1 0 0 0 0 .1l6.9 3.5c.1.1.2.1.3 0l6.1-3.7c.1-.1.1-.1 0-.2L8.2.3C8.1.1 8 .1 7.9.1zm-.6.8h.4c.6 0 1.1.3 1.1.6 0 .2-.5.5-1.1.5-.6 0-1.1-.3-1.1-.6 0-.2.3-.4.7-.5zM3.8 2.8h.4c.6 0 1.1.3 1.1.6s-.5.6-1.1.6c-.6 0-1.1-.3-1.1-.6s.3-.5.7-.6zm5.7-.9h.4c.6 0 1.1.3 1.1.6s-.5.6-1.1.6c-.6-.1-1-.3-1-.7 0-.2.3-.4.6-.5zM1.2 4c0 .1 0 .1 0 0l.1 7.9c0 .1 0 .1.1.1l6.7 3.7c.2.1.2.1.2-.1v-8c0-.1 0-.2-.1-.2L1.2 4c.1.1 0 0 0 0zM6 3.9h.4c.6 0 1.1.3 1.1.6s-.5.6-1.1.5c-.6 0-1.1-.2-1-.5 0-.3.2-.5.6-.6zm5.8-1h.4c.6 0 1.1.3 1.1.6s-.5.6-1.1.6c-.6 0-1.1-.3-1.1-.6.1-.3.3-.5.7-.6zM1.9 5.4c0-.1 0-.1 0 0 .3-.1.7.1 1 .5.3.5.3 1.1.1 1.4-.3.2-.8.1-1.2-.4-.3-.5-.4-1.2-.1-1.4.1-.1.1-.1.2-.1zM8.3 5h.4c.6 0 1.1.3 1.1.6s-.5.6-1.1.6c-.6 0-1.1-.3-1.1-.6.1-.3.3-.5.7-.6zm7-1.3s0 .1 0 0L9 7.6c-.1.1-.1.1-.1.2v7.9c0 .1 0 .2.1.1l6.2-3.9c.1-.1.1-.1.1-.2v-8c.1 0 .1 0 0 0zm-.8 1.5c.2 0 .4 0 .5.2.2.3.1 1-.3 1.4-.4.4-.9.5-1.1.2-.2-.3-.1-1 .3-1.4.2-.2.4-.4.6-.4zM6.4 7.6c.3 0 .6.2.9.5.3.5.4 1.1.1 1.4-.3.3-.8.1-1.1-.4-.4-.5-.4-1.1-.1-1.4 0 0 .1 0 .2-.1zM4.1 9c.3 0 .7.2.9.5.3.5.4 1.1.1 1.4-.2.3-.7.1-1.1-.4-.3-.5-.4-1.1-.1-1.4.1 0 .1-.1.2-.1zm-2.2 1.4c.1 0 .1 0 0 0 .3-.1.7.1 1 .5.3.5.4 1.1.1 1.4-.3.3-.8.1-1.1-.4-.3-.5-.4-1.1-.1-1.4 0-.1.1-.1.1-.1zm10.7-1.5c.2 0 .4 0 .5.2.2.3.1 1-.3 1.4-.4.4-.9.5-1.1.2-.2-.3-.1-1 .3-1.4.2-.2.4-.3.6-.4zm-6.3 3.9c.1-.1.1-.1 0 0 .3-.1.7.1 1 .5.3.5.4 1.1.1 1.4-.3.3-.8.1-1.1-.4-.3-.5-.4-1.1-.1-1.4 0-.1.1-.1.1-.1zm4.2-.1c.2 0 .4 0 .5.2.2.3.1 1-.3 1.4-.4.4-.9.5-1.1.2-.2-.3-.1-1 .3-1.4.2-.2.4-.4.6-.4z" fill="#C4CCCB"/></g></svg>