<?xml version="1.0" encoding="UTF-8"?>
<svg width="2372px" height="716px" viewBox="0 0 2372 716" version="1.1" xmlns="http://www.w3.org/2000/svg" xmlns:xlink="http://www.w3.org/1999/xlink">
    <g id="conectime-partner" stroke="none" stroke-width="1" fill="none" fill-rule="evenodd">
        <path d="M824.992,423.136 C845.44,423.136 862.48,416.793333 876.112,404.108 C878.384,401.836 879.52,399.28 879.52,396.44 C879.52,392.653333 877.721333,389.245333 874.124,386.216 C871.852,384.512 869.390667,383.66 866.74,383.66 C863.332,383.66 859.829333,384.985333 856.232,387.636 C848.28,394.262667 837.866667,397.576 824.992,397.576 C815.146667,397.576 806.39,395.304 798.722,390.76 C791.054,386.216 785.09,379.920667 780.83,371.874 C776.57,363.827333 774.44,354.692 774.44,344.468 C774.44,328.374667 778.984,315.452667 788.072,305.702 C797.16,295.951333 808.993333,291.076 823.572,291.076 C830.766667,291.076 837.156667,292.259333 842.742,294.626 C848.327333,296.992667 853.486667,300.732 858.22,305.844 C861.249333,309.252 864.941333,310.956 869.296,310.956 C871.757333,310.956 873.934667,310.293333 875.828,308.968 C879.993333,306.128 882.076,302.625333 882.076,298.46 C882.076,295.62 881.129333,293.158667 879.236,291.076 C864.468,274.036 845.913333,265.516 823.572,265.516 C808.804,265.516 795.550667,268.876667 783.812,275.598 C772.073333,282.319333 762.938,291.691333 756.406,303.714 C749.874,315.736667 746.608,329.321333 746.608,344.468 C746.608,359.236 749.968667,372.631333 756.69,384.654 C763.411333,396.676667 772.736,406.096 784.664,412.912 C796.592,419.728 810.034667,423.136 824.992,423.136 Z M993.491385,423.136 C1008.63805,423.136 1022.12805,419.775333 1033.96138,413.054 C1045.79472,406.332667 1055.02472,397.008 1061.65138,385.08 C1068.27805,373.152 1071.59138,359.614667 1071.59138,344.468 C1071.59138,329.132 1068.23072,315.5 1061.50938,303.572 C1054.78805,291.644 1045.51072,282.319333 1033.67738,275.598 C1021.84405,268.876667 1008.44872,265.516 993.491385,265.516 C978.344718,265.516 964.807385,268.876667 952.879385,275.598 C940.951385,282.319333 931.674051,291.644 925.047385,303.572 C918.420718,315.5 915.107385,329.132 915.107385,344.468 C915.107385,359.614667 918.420718,373.152 925.047385,385.08 C931.674051,397.008 940.951385,406.332667 952.879385,413.054 C964.807385,419.775333 978.344718,423.136 993.491385,423.136 Z M993.491385,397.576 C983.835385,397.576 975.173385,395.304 967.505385,390.76 C959.837385,386.216 953.826051,379.920667 949.471385,371.874 C945.116718,363.827333 942.939385,354.692 942.939385,344.468 C942.939385,334.244 945.116718,325.061333 949.471385,316.92 C953.826051,308.778667 959.837385,302.436 967.505385,297.892 C975.173385,293.348 983.835385,291.076 993.491385,291.076 C1003.14738,291.076 1011.80938,293.348 1019.47738,297.892 C1027.14538,302.436 1033.10938,308.778667 1037.36938,316.92 C1041.62938,325.061333 1043.75938,334.244 1043.75938,344.468 C1043.75938,354.692 1041.62938,363.827333 1037.36938,371.874 C1033.10938,379.920667 1027.14538,386.216 1019.47738,390.76 C1011.80938,395.304 1003.14738,397.576 993.491385,397.576 Z M1243.78277,422.284 C1247.9481,422.284 1251.40344,420.911333 1254.14877,418.166 C1256.8941,415.420667 1258.26677,411.965333 1258.26677,407.8 L1258.26677,407.8 L1258.26677,337.936 C1258.26677,322.6 1255.3321,309.488667 1249.46277,298.602 C1243.59344,287.715333 1235.4521,279.432 1225.03877,273.752 C1214.62544,268.072 1202.88677,265.232 1189.82277,265.232 C1180.3561,265.232 1171.45744,266.888667 1163.12677,270.202 C1154.7961,273.515333 1147.60144,278.201333 1141.54277,284.26 L1141.54277,284.26 L1141.54277,281.136 C1141.54277,276.781333 1140.21744,273.278667 1137.56677,270.628 C1134.9161,267.977333 1131.41344,266.652 1127.05877,266.652 C1122.89344,266.652 1119.4381,267.977333 1116.69277,270.628 C1113.94744,273.278667 1112.57477,276.781333 1112.57477,281.136 L1112.57477,281.136 L1112.57477,407.8 C1112.57477,411.965333 1113.94744,415.420667 1116.69277,418.166 C1119.4381,420.911333 1122.89344,422.284 1127.05877,422.284 C1131.41344,422.284 1134.9161,420.911333 1137.56677,418.166 C1140.21744,415.420667 1141.54277,411.965333 1141.54277,407.8 L1141.54277,407.8 L1141.54277,327.712 C1141.54277,320.896 1143.38877,314.742667 1147.08077,309.252 C1150.77277,303.761333 1155.88477,299.406667 1162.41677,296.188 C1168.94877,292.969333 1176.19077,291.36 1184.14277,291.36 C1197.77477,291.36 1208.70877,295.288667 1216.94477,303.146 C1225.18077,311.003333 1229.29877,322.6 1229.29877,337.936 L1229.29877,337.936 L1229.29877,407.8 C1229.29877,411.965333 1230.67144,415.420667 1233.41677,418.166 C1236.1621,420.911333 1239.61744,422.284 1243.78277,422.284 Z M1377.06615,423.136 C1385.77549,423.136 1394.91082,421.526667 1404.47215,418.308 C1414.03349,415.089333 1422.03282,410.924 1428.47015,405.812 C1431.49949,403.54 1433.01415,400.7 1433.01415,397.292 C1433.01415,393.694667 1431.31015,390.476 1427.90215,387.636 C1425.81949,385.742667 1422.97949,384.796 1419.38215,384.796 C1415.78482,384.796 1412.66082,385.837333 1410.01015,387.92 C1406.03415,390.949333 1400.96949,393.505333 1394.81615,395.588 C1388.66282,397.670667 1382.74615,398.712 1377.06615,398.712 C1362.67682,398.712 1350.51215,394.641333 1340.57215,386.5 C1330.63215,378.358667 1324.62082,367.661333 1322.53815,354.408 L1430.45815,354.408 C1434.24482,354.408 1437.36882,353.224667 1439.83015,350.858 C1442.29149,348.491333 1443.52215,345.509333 1443.52215,341.912 C1443.52215,326.954667 1440.68215,313.701333 1435.00215,302.152 C1429.32215,290.602667 1421.18082,281.609333 1410.57815,275.172 C1399.97549,268.734667 1387.38482,265.516 1372.80615,265.516 C1358.03815,265.516 1344.83215,268.876667 1333.18815,275.598 C1321.54415,282.319333 1312.45615,291.691333 1305.92415,303.714 C1299.39215,315.736667 1296.12615,329.321333 1296.12615,344.468 C1296.12615,359.614667 1299.58149,373.152 1306.49215,385.08 C1313.40282,397.008 1323.01149,406.332667 1335.31815,413.054 C1347.62482,419.775333 1361.54082,423.136 1377.06615,423.136 Z M1417.39415,331.688 L1322.82215,331.688 C1325.09415,319.002667 1330.53749,308.873333 1339.15215,301.3 C1347.76682,293.726667 1358.98482,289.94 1372.80615,289.94 C1385.30215,289.94 1395.43149,293.726667 1403.19415,301.3 C1410.95682,308.873333 1415.69015,319.002667 1417.39415,331.688 L1417.39415,331.688 Z M1543.00954,423.136 C1563.45754,423.136 1580.49754,416.793333 1594.12954,404.108 C1596.40154,401.836 1597.53754,399.28 1597.53754,396.44 C1597.53754,392.653333 1595.73887,389.245333 1592.14154,386.216 C1589.86954,384.512 1587.40821,383.66 1584.75754,383.66 C1581.34954,383.66 1577.84687,384.985333 1574.24954,387.636 C1566.29754,394.262667 1555.88421,397.576 1543.00954,397.576 C1533.16421,397.576 1524.40754,395.304 1516.73954,390.76 C1509.07154,386.216 1503.10754,379.920667 1498.84754,371.874 C1494.58754,363.827333 1492.45754,354.692 1492.45754,344.468 C1492.45754,328.374667 1497.00154,315.452667 1506.08954,305.702 C1515.17754,295.951333 1527.01087,291.076 1541.58954,291.076 C1548.78421,291.076 1555.17421,292.259333 1560.75954,294.626 C1566.34487,296.992667 1571.50421,300.732 1576.23754,305.844 C1579.26687,309.252 1582.95887,310.956 1587.31354,310.956 C1589.77487,310.956 1591.95221,310.293333 1593.84554,308.968 C1598.01087,306.128 1600.09354,302.625333 1600.09354,298.46 C1600.09354,295.62 1599.14687,293.158667 1597.25354,291.076 C1582.48554,274.036 1563.93087,265.516 1541.58954,265.516 C1526.82154,265.516 1513.56821,268.876667 1501.82954,275.598 C1490.09087,282.319333 1480.95554,291.691333 1474.42354,303.714 C1467.89154,315.736667 1464.62554,329.321333 1464.62554,344.468 C1464.62554,359.236 1467.98621,372.631333 1474.70754,384.654 C1481.42887,396.676667 1490.75354,406.096 1502.68154,412.912 C1514.60954,419.728 1528.05221,423.136 1543.00954,423.136 Z M1702.70492,422 C1707.62759,422 1711.65092,420.674667 1714.77492,418.024 C1717.89892,415.373333 1719.46092,411.965333 1719.46092,407.8 C1719.46092,403.634667 1718.27759,400.226667 1715.91092,397.576 C1713.54426,394.925333 1710.65692,393.6 1707.24892,393.6 L1707.24892,393.6 L1697.59292,393.6 C1691.53426,393.6 1686.42226,391.044 1682.25692,385.932 C1678.09159,380.82 1676.00892,374.477333 1676.00892,366.904 L1676.00892,366.904 L1676.00892,296.756 L1700.14892,296.756 C1704.12492,296.756 1707.34359,295.62 1709.80492,293.348 C1712.26626,291.076 1713.49692,288.236 1713.49692,284.828 C1713.49692,281.041333 1712.26626,278.012 1709.80492,275.74 C1707.34359,273.468 1704.12492,272.332 1700.14892,272.332 L1700.14892,272.332 L1676.00892,272.332 L1676.00892,231.436 C1676.00892,227.270667 1674.68359,223.862667 1672.03292,221.212 C1669.38226,218.561333 1665.97426,217.236 1661.80892,217.236 C1657.64359,217.236 1654.23559,218.561333 1651.58492,221.212 C1648.93426,223.862667 1647.60892,227.270667 1647.60892,231.436 L1647.60892,231.436 L1647.60892,272.332 L1634.54492,272.332 C1630.56892,272.332 1627.35026,273.468 1624.88892,275.74 C1622.42759,278.012 1621.19692,281.041333 1621.19692,284.828 C1621.19692,288.236 1622.42759,291.076 1624.88892,293.348 C1627.35026,295.62 1630.56892,296.756 1634.54492,296.756 L1634.54492,296.756 L1647.60892,296.756 L1647.60892,366.904 C1647.60892,377.317333 1649.78626,386.689333 1654.14092,395.02 C1658.49559,403.350667 1664.50692,409.93 1672.17492,414.758 C1679.84292,419.586 1688.31559,422 1697.59292,422 L1697.59292,422 L1702.70492,422 Z M1770.10031,241.376 C1775.21231,241.376 1779.61431,239.53 1783.30631,235.838 C1786.99831,232.146 1788.84431,227.744 1788.84431,222.632 C1788.84431,217.52 1786.99831,213.118 1783.30631,209.426 C1779.61431,205.734 1775.21231,203.888 1770.10031,203.888 C1764.98831,203.888 1760.58631,205.734 1756.89431,209.426 C1753.20231,213.118 1751.35631,217.52 1751.35631,222.632 C1751.35631,227.744 1753.20231,232.146 1756.89431,235.838 C1760.58631,239.53 1764.98831,241.376 1770.10031,241.376 Z M1770.10031,422 C1774.45497,422 1777.95764,420.627333 1780.60831,417.882 C1783.25897,415.136667 1784.58431,411.681333 1784.58431,407.516 L1784.58431,407.516 L1784.58431,281.136 C1784.58431,276.781333 1783.25897,273.278667 1780.60831,270.628 C1777.95764,267.977333 1774.45497,266.652 1770.10031,266.652 C1765.93497,266.652 1762.47964,267.977333 1759.73431,270.628 C1756.98897,273.278667 1755.61631,276.781333 1755.61631,281.136 L1755.61631,281.136 L1755.61631,407.516 C1755.61631,411.681333 1756.98897,415.136667 1759.73431,417.882 C1762.47964,420.627333 1765.93497,422 1770.10031,422 Z M1844.59569,426.544 C1850.08636,426.544 1854.72503,424.603333 1858.51169,420.722 C1862.29836,416.840667 1864.19169,412.249333 1864.19169,406.948 C1864.19169,401.457333 1862.25103,396.771333 1858.36969,392.89 C1854.48836,389.008667 1849.89703,387.068 1844.59569,387.068 C1839.29436,387.068 1834.70303,389.008667 1830.82169,392.89 C1826.94036,396.771333 1824.99969,401.457333 1824.99969,406.948 C1824.99969,412.249333 1826.94036,416.840667 1830.82169,420.722 C1834.70303,424.603333 1839.29436,426.544 1844.59569,426.544 Z M2105.67908,422.284 C2110.03374,422.284 2113.53641,420.911333 2116.18708,418.166 C2118.83774,415.420667 2120.16308,411.965333 2120.16308,407.8 L2120.16308,407.8 L2120.16308,326.576 C2120.16308,307.264 2115.09841,292.212 2104.96908,281.42 C2094.83974,270.628 2081.53908,265.232 2065.06708,265.232 C2054.65374,265.232 2045.18708,267.22 2036.66708,271.196 C2028.14708,275.172 2021.04708,280.662667 2015.36708,287.668 C2010.44441,280.473333 2004.14908,274.935333 1996.48108,271.054 C1988.81308,267.172667 1980.15108,265.232 1970.49508,265.232 C1962.54308,265.232 1955.15908,266.604667 1948.34308,269.35 C1941.52708,272.095333 1935.65774,275.929333 1930.73508,280.852 C1930.54574,276.686667 1929.12574,273.326 1926.47508,270.77 C1923.82441,268.214 1920.41641,266.936 1916.25108,266.936 C1912.08574,266.936 1908.63041,268.261333 1905.88508,270.912 C1903.13974,273.562667 1901.76708,277.065333 1901.76708,281.42 L1901.76708,281.42 L1901.76708,407.8 C1901.76708,411.965333 1903.13974,415.420667 1905.88508,418.166 C1908.63041,420.911333 1912.08574,422.284 1916.25108,422.284 C1920.60574,422.284 1924.10841,420.911333 1926.75908,418.166 C1929.40974,415.420667 1930.73508,411.965333 1930.73508,407.8 L1930.73508,407.8 L1930.73508,327.712 C1930.73508,317.109333 1933.90641,308.4 1940.24908,301.584 C1946.59174,294.768 1954.78041,291.36 1964.81508,291.36 C1974.47108,291.36 1982.18641,294.342 1987.96108,300.306 C1993.73574,306.27 1996.62308,315.026667 1996.62308,326.576 L1996.62308,326.576 L1996.62308,407.8 C1996.62308,411.965333 1997.99574,415.420667 2000.74108,418.166 C2003.48641,420.911333 2006.94174,422.284 2011.10708,422.284 C2015.46174,422.284 2018.96441,420.911333 2021.61508,418.166 C2024.26574,415.420667 2025.59108,411.965333 2025.59108,407.8 L2025.59108,407.8 L2025.59108,327.712 C2025.59108,317.109333 2028.76241,308.4 2035.10508,301.584 C2041.44774,294.768 2049.54174,291.36 2059.38708,291.36 C2069.04308,291.36 2076.75841,294.342 2082.53308,300.306 C2088.30774,306.27 2091.19508,315.026667 2091.19508,326.576 L2091.19508,326.576 L2091.19508,407.8 C2091.19508,411.965333 2092.56774,415.420667 2095.31308,418.166 C2098.05841,420.911333 2101.51374,422.284 2105.67908,422.284 Z M2238.96246,423.136 C2247.67179,423.136 2256.80713,421.526667 2266.36846,418.308 C2275.92979,415.089333 2283.92913,410.924 2290.36646,405.812 C2293.39579,403.54 2294.91046,400.7 2294.91046,397.292 C2294.91046,393.694667 2293.20646,390.476 2289.79846,387.636 C2287.71579,385.742667 2284.87579,384.796 2281.27846,384.796 C2277.68113,384.796 2274.55713,385.837333 2271.90646,387.92 C2267.93046,390.949333 2262.86579,393.505333 2256.71246,395.588 C2250.55913,397.670667 2244.64246,398.712 2238.96246,398.712 C2224.57313,398.712 2212.40846,394.641333 2202.46846,386.5 C2192.52846,378.358667 2186.51713,367.661333 2184.43446,354.408 L2184.43446,354.408 L2292.35446,354.408 C2296.14113,354.408 2299.26513,353.224667 2301.72646,350.858 C2304.18779,348.491333 2305.41846,345.509333 2305.41846,341.912 C2305.41846,326.954667 2302.57846,313.701333 2296.89846,302.152 C2291.21846,290.602667 2283.07713,281.609333 2272.47446,275.172 C2261.87179,268.734667 2249.28113,265.516 2234.70246,265.516 C2219.93446,265.516 2206.72846,268.876667 2195.08446,275.598 C2183.44046,282.319333 2174.35246,291.691333 2167.82046,303.714 C2161.28846,315.736667 2158.02246,329.321333 2158.02246,344.468 C2158.02246,359.614667 2161.47779,373.152 2168.38846,385.08 C2175.29913,397.008 2184.90779,406.332667 2197.21446,413.054 C2209.52113,419.775333 2223.43713,423.136 2238.96246,423.136 Z M2279.29046,331.688 L2184.71846,331.688 C2186.99046,319.002667 2192.43379,308.873333 2201.04846,301.3 C2209.66313,293.726667 2220.88113,289.94 2234.70246,289.94 C2247.19846,289.94 2257.32779,293.726667 2265.09046,301.3 C2272.85313,308.873333 2277.58646,319.002667 2279.29046,331.688 L2279.29046,331.688 Z" id="conecti.me" fill="#000000" fill-rule="nonzero"></path>
        <path d="M513.761424,240.08313 C539.11632,272.420538 554.178635,313.154034 554.178635,357.378973 C554.178635,403.100244 538.028487,445.163814 511,478.08313 L579.366172,546 C624.553116,495.95599 652,429.867971 652,357.378973 C652,286.469438 625.724629,221.628362 582.294955,172 L513.761424,240.08313 Z" id="Path" fill="#F58634"></path>
        <path d="M362.5561,664 C192.330436,661.3381 56,528.825381 56,357.54874 C56,186.188915 192.330436,53.7593806 362.5561,51.014296 C444.92067,50.1824522 526.03603,85.7021829 583,144.596725 L487.726928,239.759657 C456.33012,206.485904 411.94153,185.689809 362.5561,185.689809 C267.699431,185.772993 190.748104,262.718546 190.748104,357.54874 C190.748104,452.378935 267.699431,529.241303 362.5561,529.407671 C410.275917,529.324487 453.332016,509.859342 484.478982,478.582015 L579.835335,573.744947 C520.789349,632.972226 445.920038,662.66905 362.5561,664 Z" id="Path" fill="#282829"></path>
        <ellipse id="Oval" fill="#F58634" cx="362.5" cy="357" rx="120.5" ry="120"></ellipse>
        <g id="MoodlePartnersLogo_TrademarkTM_PrimaryColour_RGB" transform="translate(1552.000000, 477.000000)" fill-rule="nonzero">
            <path d="M13.3354481,187 C5.68437748,187 0,181.069521 0,173.574031 L0,173.499204 C0,166.078542 5.57176844,160 13.5590801,160 C18.4631245,160 21.3988898,161.641429 23.8128469,164.02795 L20.1649485,168.242172 C18.1601903,166.41447 16.1157811,165.295241 13.5162569,165.295241 C9.13084853,165.295241 5.97462331,168.957014 5.97462331,173.425969 L5.97462331,173.499204 C5.97462331,177.974527 9.05789056,181.704759 13.5162569,181.704759 C16.4885012,181.704759 18.3076923,180.510702 20.3521015,178.646382 L24,182.338404 C21.3227597,185.210508 18.3505155,187 13.3354481,187 Z" id="Path" fill="#404441"></path>
            <polygon id="Path" fill="#404441" points="34 186.996708 34 160 53.8141621 160 53.8141621 165.282466 39.7417494 165.282466 39.7417494 170.76576 52.1256008 170.76576 52.1256008 176.048226 39.7417494 176.048226 39.7417494 181.717534 54 181.717534 54 187"></polygon>
            <path d="M78.8631713,187 L72.9135559,178.361646 L68.1138946,178.361646 L68.1138946,187 L62,187 L62,160 L74.701997,160 C81.2477595,160 85.1735234,163.355244 85.1735234,168.908354 L85.1735234,168.985732 C85.1735234,173.343598 82.7550632,176.081463 79.2256016,177.354085 L86,186.995061 L78.8631713,187 Z M78.9834168,169.219512 C78.9834168,166.674268 77.1594101,165.36378 74.1837556,165.36378 L68.1138946,165.36378 L68.1138946,173.114756 L74.3023075,173.114756 C77.277962,173.114756 78.9834168,171.572134 78.9834168,169.29689 L78.9834168,169.219512 Z" id="Shape" fill="#404441"></path>
            <polygon id="Path" fill="#404441" points="104.921242 165.47838 104.921242 187 99.0803769 187 99.0803769 165.47838 91 165.47838 91 160 113 160 113 165.47838"></polygon>
            <polygon id="Path" fill="#404441" points="120 187 120 160 126 160 126 187"></polygon>
            <polygon id="Path" fill="#404441" points="143.774467 165.404939 143.774467 171.150671 156.305302 171.150671 156.305302 176.549024 143.774467 176.549024 143.774467 187 138 187 138 160 158 160 158 165.4"></polygon>
            <polygon id="Path" fill="#404441" points="166 187 166 160 172 160 172 187"></polygon>
            <polygon id="Path" fill="#404441" points="181 186.996708 181 160 200.814162 160 200.814162 165.282466 186.741749 165.282466 186.741749 170.76576 199.125601 170.76576 199.125601 176.048226 186.741749 176.048226 186.741749 181.717534 201 181.717534 201 187"></polygon>
            <path d="M221.158184,187 L211,187 L211,160 L221.158184,160 C229.343504,160 235,165.82311 235,173.420976 L235,173.496707 C235,181.099512 229.343504,187 221.158184,187 Z M229.009928,173.5 C229.009928,168.72561 225.845721,165.36378 221.158184,165.36378 L216.731154,165.36378 L216.731154,181.632927 L221.158184,181.632927 C225.845721,181.632927 229.009928,178.355061 229.009928,173.565854 L229.009928,173.5 Z" id="Shape" fill="#404441"></path>
            <path d="M267.785291,187 C263.444476,187.014856 259.249571,185.52015 256,182.800618 L259.612168,178.711811 C262.109511,180.66336 264.730535,181.899287 267.914055,181.899287 C270.414786,181.899287 271.92268,180.962736 271.92268,179.424231 L271.92268,179.350587 C271.92268,177.887326 270.970504,177.138085 266.331613,176.012623 C260.740547,174.663029 257.12499,173.199768 257.12499,167.9871 L257.12499,167.911856 C257.12499,163.149053 261.172584,160 266.846669,160 C270.894263,160 274.34717,161.200707 277.164729,163.337964 L273.991375,167.687724 C271.529611,166.075575 269.10851,165.100602 266.768733,165.100602 C264.428956,165.100602 263.197228,166.112397 263.197228,167.386747 L263.197228,167.463592 C263.197228,169.187807 264.383211,169.749737 269.189834,170.912021 C274.823258,172.300038 278,174.211563 278,178.787056 L278,178.8623 C277.986446,184.074967 273.779592,187 267.785291,187 Z" id="Path" fill="#404441"></path>
            <polygon id="Path" fill="#404441" points="285 186.996708 285 160 304.810988 160 304.810988 165.282466 290.74083 165.282466 290.74083 170.76576 303.125901 170.76576 303.125901 176.048226 290.744033 176.048226 290.744033 181.717534 305 181.717534 305 187"></polygon>
            <path d="M330.853837,187 L324.906321,178.361646 L320.106659,178.361646 L320.106659,187 L314,187 L314,160 L326.697517,160 C333.240971,160 337.16535,163.355244 337.16535,168.908354 L337.16535,168.985732 C337.16535,173.343598 334.747743,176.081463 331.219526,177.354085 L338,186.995061 L330.853837,187 Z M330.974041,169.219512 C330.974041,166.674268 329.148984,165.36378 326.176072,165.36378 L320.106659,165.36378 L320.106659,173.114756 L326.294582,173.114756 C329.269187,173.114756 330.974041,171.572134 330.974041,169.29689 L330.974041,169.219512 Z" id="Shape" fill="#404441"></path>
            <polygon id="Path" fill="#404441" points="359.117246 187 353.886037 187 343 160 349.539832 160 356.577171 178.880707 363.616152 160 370 160"></polygon>
            <polygon id="Path" fill="#404441" points="378 187 378 160 384 160 384 187"></polygon>
            <path d="M406.332629,187 C398.6825,187 393,181.069521 393,173.574031 L393,173.499204 C393,166.078542 398.571514,160 406.556187,160 C411.458611,160 414.391821,161.641429 416.804981,164.02795 L413.166215,168.242172 C411.160534,166.41447 409.118385,165.295241 406.51972,165.295241 C402.13576,165.295241 398.980577,168.957014 398.980577,173.425969 L398.980577,173.499204 C398.980577,177.974527 402.062826,181.704759 406.51972,181.704759 C409.489397,181.704759 411.309573,180.510702 413.353306,178.646382 L417,182.338404 C414.318887,185.210508 411.34604,187 406.332629,187 Z" id="Path" fill="#404441"></path>
            <polygon id="Path" fill="#404441" points="425 186.996708 425 160 444.81259 160 444.81259 165.282466 430.742432 165.282466 430.742432 170.76576 443.125901 170.76576 443.125901 176.048226 430.744033 176.048226 430.744033 181.717534 445 181.717534 445 187"></polygon>
            <path d="M461.785291,187 C457.444534,187.01456 453.249738,185.519893 450,182.800621 L453.612168,178.711814 C456.111205,180.663363 458.730535,181.899291 461.914055,181.899291 C464.414786,181.899291 465.92268,180.962739 465.92268,179.424234 L465.92268,179.35059 C465.92268,177.887329 464.970504,177.138088 460.331613,176.012626 C454.740547,174.663031 451.12499,173.19977 451.12499,167.987101 L451.12499,167.911857 C451.12499,163.149054 455.172584,160 460.846669,160 C464.895957,160 468.34717,161.200707 471.164729,163.337965 L467.991375,167.687725 C465.529611,166.075576 463.10851,165.100602 460.768733,165.100602 C458.428956,165.100602 457.197228,166.112398 457.197228,167.386748 L457.197228,167.463593 C457.197228,169.187808 458.383211,169.749739 463.189834,170.912023 C468.823258,172.30004 472,174.211565 472,178.787059 L472,178.862303 C471.986446,184.074971 467.779592,187 461.785291,187 Z" id="Path" fill="#404441"></path>
            <path d="M506.761809,178.901646 L502.114973,178.901646 L502.114973,187 L496,187 L496,160 L507.358557,160 C513.992294,160 518,163.817866 518,169.33311 L518,169.410488 C517.998305,175.661646 512.997149,178.901646 506.761809,178.901646 Z M511.805348,169.45 C511.805348,166.789512 509.898127,165.362134 506.841489,165.362134 L502.114973,165.362134 L502.114973,173.615244 L506.961856,173.615244 C510.013408,173.615244 511.805348,171.840488 511.805348,169.527378 L511.805348,169.45 Z" id="Shape" fill="#404441"></path>
            <path d="M540.852144,187 L534.906321,178.361646 L530.108352,178.361646 L530.108352,187 L524,187 L524,160 L536.697517,160 C543.240971,160 547.167043,163.355244 547.167043,168.908354 L547.167043,168.985732 C547.167043,173.343598 544.747743,176.081463 541.219526,177.354085 L548,186.995061 L540.852144,187 Z M540.972348,169.219512 C540.972348,166.674268 539.148984,165.36378 536.174379,165.36378 L530.106659,165.36378 L530.106659,173.114756 L536.292889,173.114756 C539.267494,173.114756 540.972348,171.572134 540.972348,169.29689 L540.972348,169.219512 Z" id="Shape" fill="#404441"></path>
            <path d="M567.963041,187 C559.833598,187 554,180.996285 554,173.574031 L554,173.499204 C554,166.078542 559.909109,160 568.036945,160 C576.164781,160 581.999988,166.003715 581.999988,173.425969 L581.999988,173.499204 C582.004805,180.921458 576.090877,187 567.963041,187 Z M575.939855,173.499204 C575.939855,169.023881 572.63024,165.295241 567.963041,165.295241 C563.295841,165.295241 560.06013,168.957014 560.06013,173.425969 L560.06013,173.499204 C560.06013,177.974527 563.371352,181.704759 568.036945,181.704759 C572.702538,181.704759 575.939855,178.042986 575.939855,173.574031 L575.939855,173.499204 Z" id="Shape" fill="#404441"></path>
            <polygon id="Path" fill="#404441" points="603.114625 187 597.885375 187 587 160 593.539434 160 600.576345 178.880707 607.61654 160 614 160"></polygon>
            <polygon id="Path" fill="#404441" points="621 187 621 160 627 160 627 187"></polygon>
            <path d="M647.162763,187 L637,187 L637,160 L647.162763,160 C655.345375,160 661,165.82311 661,173.420976 L661,173.496707 C660.993648,181.099512 655.345375,187 647.162763,187 Z M655.010322,173.5 C655.010322,168.72561 651.84875,165.36378 647.162763,165.36378 L642.732434,165.36378 L642.732434,181.632927 L647.159587,181.632927 C651.845574,181.632927 655.007146,178.355061 655.007146,173.565854 L655.010322,173.5 Z" id="Shape" fill="#404441"></path>
            <polygon id="Path" fill="#404441" points="670 186.996708 670 160 689.810988 160 689.810988 165.282466 675.744033 165.282466 675.744033 170.76576 688.125901 170.76576 688.125901 176.048226 675.744033 176.048226 675.744033 181.717534 690 181.717534 690 187"></polygon>
            <path d="M713.859784,187 L707.908475,178.361646 L703.108814,178.361646 L703.108814,187 L697,187 L697,160 L709.701997,160 C716.24776,160 720.175217,163.355244 720.175217,168.908354 L720.175217,168.985732 C720.175217,173.343598 717.755063,176.081463 714.225602,177.354085 L721,186.995061 L713.859784,187 Z M713.978336,169.219512 C713.978336,166.674268 712.154329,165.36378 709.178675,165.36378 L703.108814,165.36378 L703.108814,173.114756 L709.29892,173.114756 C712.272881,173.114756 713.978336,171.572134 713.978336,169.29689 L713.978336,169.219512 Z" id="Shape" fill="#404441"></path>
            <path d="M367,145 L10.0334601,145 C5.04441785,145 1,140.944079 1,135.940848 L1,9.05752891 C1,4.05530251 5.04541993,0 10.0334601,0 L367,0 L367,145 Z" id="Path" fill="#F48020"></path>
            <path d="M367,0 L723.96654,0 C728.955582,0 733,4.05592056 733,9.05915211 L733,135.940848 C733,138.343616 732.04883,140.648097 730.354635,142.347111 C728.660439,144.046125 726.362494,145 723.96654,145 L367,145 L367,0 Z" id="Path" fill="#404441"></path>
            <path d="M96.2844708,111 L96.2844708,81.6662697 C96.2844708,75.5328834 93.7873098,72.4661903 88.7929879,72.4661903 C83.798666,72.4661903 81.3009615,75.5328834 81.2998744,81.6662697 L81.2998744,111 L66.5778223,111 L66.5778223,81.6662697 C66.5778223,75.5328834 64.1230599,72.4661903 59.2135349,72.4661903 C54.219213,72.4661903 51.7225956,75.5328834 51.7236828,81.6662697 L51.7236828,111 L37,111 L37,79.9344317 C37,73.5385956 39.1905874,68.6948525 43.5717623,65.4032023 C47.4289356,62.4688368 52.6406855,61.0011027 59.2070121,61 C65.8679198,61 70.7763576,62.7334921 73.9323255,66.2004764 C76.6501759,62.7334921 81.6015558,61 88.7864651,61 C95.3604017,61 100.573782,62.4677341 104.426607,65.4032023 C108.807782,68.6904415 110.998913,73.5341846 111,79.9344317 L111,111 L96.2844708,111 Z" id="Path" fill="#FFFFFF"></path>
            <polygon id="Path" fill="#FFFFFF" points="275 110 275 27 290 27 290 110"></polygon>
            <path d="M256.037473,110.20671 L256.037473,105.304083 C254.753855,107.070233 252.575304,108.483263 249.501822,109.543172 C246.76619,110.514391 244.159767,111 241.682553,111 C234.848238,111 229.359499,108.570859 225.216335,103.712576 C221.073171,98.8542938 219.001059,92.8479587 219,85.6935711 C219,78.6311591 221.017568,72.698733 225.089244,67.9406382 C228.692272,63.7278273 234.549575,60.7846082 241.293337,60.7846082 C248.894963,60.7846082 253.335202,63.7409667 256.031119,67.1440638 L256.031119,27 L270,27 L270,110.20671 L256.037473,110.20671 Z M256.037473,82.5154857 C256.037473,79.8657125 254.819518,77.3254341 252.383609,74.8946504 C249.9477,72.4638667 247.449304,71.2490224 244.888422,71.2501166 C241.215494,71.2501166 238.310407,72.7961833 236.173161,75.8883153 C234.293275,78.6311591 233.353861,81.9877209 233.354919,85.9580009 C233.354919,89.8450649 234.294334,93.1572814 236.173161,95.8946504 C238.309348,99.0776631 241.214435,100.665337 244.888422,100.6577 C247.112513,100.6577 249.525652,99.5764117 252.127839,97.4138902 C254.730025,95.2513687 256.033237,93.0209604 256.037473,90.7226654 L256.037473,82.5154857 Z" id="Shape" fill="#FFFFFF"></path>
            <path d="M190.436453,110.99999 C183.079887,110.99999 177.002141,108.667974 172.203215,104.003942 C167.404289,99.3399107 165.003217,93.3383283 165,85.9991955 C165,78.6622036 167.401072,72.6606213 172.203215,67.9944486 C177.005358,63.3282759 183.083104,60.9967952 190.436453,61.0000033 C197.785513,61.0000033 203.88417,63.3314873 208.732426,67.9944486 C213.580682,72.6574099 216.003201,78.6589922 215.999987,85.9991955 C215.999987,93.3426102 213.577465,99.3441925 208.732426,104.003942 C203.887387,108.663692 197.78873,110.995708 190.436453,110.99999 Z M190.436453,72.6574099 C186.930824,72.6574099 184.237528,73.9810443 182.356563,76.6283132 C180.475598,79.2755821 179.535652,82.4216894 179.536724,86.066635 C179.536724,89.7062283 180.411791,92.7865018 182.161925,95.3074554 C184.175865,98.1720294 186.934041,99.6027107 190.436453,99.5995047 C193.938865,99.5962879 196.695969,98.1656066 198.707764,95.3074554 C200.544761,92.7907836 201.463796,89.7105102 201.464869,86.066635 C201.46594,82.4227598 200.590874,79.3430216 198.839668,76.8274204 C196.823583,74.044202 194.022511,72.6525928 190.436453,72.6525928 L190.436453,72.6574099 Z" id="Shape" fill="#FFFFFF"></path>
            <path d="M137.436448,110.99999 C130.081563,110.99999 124.003434,108.667974 119.20206,104.003942 C114.400687,99.3399107 112,93.3383283 112,85.9991955 C112,78.6622036 114.400687,72.6606213 119.20206,67.9944486 C124.003434,63.3282759 130.081563,60.9967952 137.436448,61.0000033 C144.787043,61.0000033 150.886622,63.3314873 155.735183,67.9944486 C160.583745,72.6574099 163.005345,78.6589922 163,85.9991955 C163,93.3426102 160.578383,99.3441925 155.735183,104.003942 C150.891984,108.663692 144.792406,110.995708 137.436448,110.99999 Z M137.436448,72.6574099 C133.934888,72.6574099 131.241422,73.9810443 129.356049,76.6283132 C127.470676,79.2755821 126.530134,82.4216894 126.534409,86.066635 C126.534409,89.7062283 127.40901,92.7865018 129.158181,95.3074554 C131.172248,98.1720294 133.931671,99.6027107 137.436448,99.5995047 C140.941226,99.5962879 143.698503,98.1656066 145.708281,95.3074554 C147.545393,92.7907836 148.465022,89.7105102 148.467171,86.066635 C148.469312,82.4227598 147.593654,79.3430216 145.840193,76.8274204 C143.826125,74.044202 141.024877,72.6525928 137.436448,72.6525928 L137.436448,72.6574099 Z" id="Shape" fill="#FFFFFF"></path>
            <path d="M305.580286,90.1992313 C305.893389,93.6441384 310.40595,101.049648 317.823594,101.049648 C325.044338,101.049648 328.457809,96.9144779 328.636956,95.2360666 L344,95.1079436 C342.323122,100.192825 335.512318,111 317.565364,111 C310.100917,111 303.269131,108.695388 298.359542,104.087764 C293.449953,99.4801409 291,93.4727739 291,86.0640615 C291,78.3991031 293.451567,72.3057869 298.3547,67.7841127 C303.257834,63.2624386 309.616736,61.0010677 317.431408,61 C325.931464,61 332.570653,63.7994875 337.348975,69.3984625 C341.777612,74.5671578 343.99193,81.5007474 343.99193,90.1992313 L305.580286,90.1992313 Z M329.408417,81.2834721 C328.800501,78.1818279 327.499132,75.6407218 325.504309,73.6601537 C323.2448,71.5098228 320.640448,70.4335896 317.691251,70.4314542 C314.650598,70.4314542 312.111341,71.4644459 310.07348,73.5304292 C308.035618,75.5964126 306.669154,78.1807602 305.974086,81.2834721 L329.408417,81.2834721 Z" id="Shape" fill="#FFFFFF"></path>
            <path d="M64.4462062,60.3209699 L79,49.651848 L78.8117484,49 C52.566883,52.2315364 40.6112855,54.5130044 18,67.6787041 L18.2093487,68.2784043 L20.0074758,68.2963301 C19.84519,70.114986 19.5546983,74.6078482 19.9230872,81.3642527 C17.4125253,88.656802 19.8581728,93.6124764 22.1561403,99 C22.5180377,93.3859592 22.4807119,87.2520696 20.7653506,81.144254 C20.4099447,74.4351085 20.703682,70.020468 20.864345,68.3044782 L35.8579334,68.4478848 C35.8579334,68.4478848 35.758939,72.9945245 36.3009737,77.2755361 C49.7009152,82.0014341 63.1738853,77.2592399 70.3241992,65.6041979 C68.3394434,63.3699889 64.4462062,60.3209699 64.4462062,60.3209699 Z" id="Path" fill="#333434"></path>
            <path d="M420.001611,43 L399.698679,43 C397.151144,43 395,45.2118428 395,47.8280534 L395,105.170323 C395,107.788157 397.151144,110 399.698679,110 C402.346086,110 404.492982,107.838468 404.495649,105.170323 L404.495649,86.8747122 L418.817274,86.8747122 C431.849823,86.8747122 445,80.0199481 445,64.7075648 L445,64.5240565 C445,51.4494995 435.185305,43 420.001611,43 Z M419.091202,77.9510144 L404.495649,77.9510144 L404.495649,52.0146399 L419.455366,52.0146399 C429.598775,52.0146399 435.417338,56.6754248 435.417338,64.8001309 L435.417338,64.9836391 C435.417338,72.8615023 429.009024,77.9510144 419.091202,77.9510144 Z" id="Shape" fill="#FFFFFF"></path>
            <path d="M471.131535,59 C465.51683,59 460.701275,60.0119431 455.544134,62.2678673 C453.973959,62.951435 452.95352,64.514951 452.946499,66.2479621 C452.946499,68.5038863 454.862553,70.4020853 457.132902,70.4020853 C457.725907,70.3872169 458.310789,70.2587348 458.856715,70.0234123 C462.487062,68.344446 466.431397,67.4782938 470.421356,67.4838863 C476.209237,67.4838863 483.107667,69.5109953 483.107667,79.1679621 L483.107667,79.3017062 C479.806207,78.4331754 475.667467,77.6532701 469.971735,77.6532701 C457.039165,77.6532701 449,83.9182938 449,94.0038863 L449,94.1940284 C449,104.57128 458.284759,110 467.455127,110 C474.911214,110 479.903122,106.996398 483.1029,103.791374 L483.1029,105.025687 C483.1029,107.550711 485.017366,109.453744 487.55145,109.453744 C490.085535,109.453744 492,107.471754 492,104.843602 L492,79.0841706 C492,72.8481517 490.287308,67.9495735 486.915943,64.5254028 C483.307851,60.8595261 477.995012,59 471.131535,59 Z M483.191871,86.8767773 L483.191871,90.5523223 C483.191871,97.1589573 476.995677,102.14455 468.799224,102.14455 C463.726289,102.14455 458.265694,99.5663507 458.265694,93.9265403 L458.265694,93.744455 C458.265694,88.3656872 462.908073,85.1558292 470.685091,85.1558292 C474.911095,85.1555035 479.117872,85.7327351 483.191871,86.8719431 L483.191871,86.8767773 Z" id="Shape" fill="#FFFFFF"></path>
            <path d="M526.386627,59 C520.881227,59 515.11935,62.6234235 511.318963,68.1823204 L511.318963,63.8386836 C511.332485,62.5991884 510.841092,61.4065551 509.955725,60.5300485 C509.070358,59.6535419 507.865669,59.1670654 506.613645,59.1804526 C504.069838,59.1804526 502,61.2692308 502,63.8386836 L502,104.3415 C501.986749,105.580995 502.478143,106.773628 503.36351,107.650135 C504.248877,108.526641 505.453565,109.013118 506.70559,109 C509.286498,109 511.318963,106.952473 511.318963,104.3415 L511.318963,88.4648685 C511.318963,77.0005419 517.138911,69.4614576 526.920552,68.3036867 C529.361123,67.9411847 531,66.0679913 531,63.6582311 C531,60.9594273 529.061093,59 526.386627,59 Z" id="Path" fill="#FFFFFF"></path>
            <path d="M561.610114,68.2035541 C564.032626,68.2035541 566,66.2940226 566,63.9483037 C566,61.641357 563.991843,59.6930533 561.610114,59.6930533 L550.425775,59.6930533 L550.425775,49.7124394 C550.392389,47.1242772 548.282325,45.0339501 545.668842,45 C543.058728,45 541.003263,47.0694669 541.003263,49.7124394 L541.003263,59.6930533 L538.2969,59.6930533 C535.936644,59.7235088 534.030754,61.6109251 534,63.9483037 C534,66.2100162 536.008157,68.2035541 538.2969,68.2035541 L541.003263,68.2035541 L541.003263,95.5234249 C541.003263,104.723748 546.329527,110 555.621533,110 C558.402936,110 560.768352,109.567044 563.042414,108.644588 C564.75367,107.998384 565.815661,106.531502 565.815661,104.830372 C565.812964,102.531333 563.931655,100.66826 561.610114,100.66559 C561.247218,100.685107 560.888236,100.749694 560.541599,100.857835 C559.480443,101.156933 558.382254,101.307558 557.278956,101.305331 C552.601958,101.305331 550.427406,99.177706 550.427406,94.6106624 L550.427406,68.2035541 L561.610114,68.2035541 Z" id="Path" fill="#FFFFFF"></path>
            <path d="M598.024416,59 C591.91669,59 586.949477,61.2770046 583.215294,65.7808808 L583.215294,64.2655731 C583.228674,63.0100648 582.742529,61.8020452 581.866663,60.9143671 C580.990798,60.026689 579.799096,59.5342325 578.560725,59.5482277 C576.046811,59.5482277 574,61.6635132 574,64.2655731 L574,105.282382 C573.986919,106.536757 574.472193,107.743772 575.346667,108.631256 C576.221141,109.518741 577.411186,110.011971 578.648457,110 C581.250102,110 583.212104,107.97177 583.212104,105.282382 L583.212104,81.3479589 C583.212104,73.3137553 588.48558,67.7037206 596.038488,67.7037206 C603.503663,67.7037206 607.784973,72.4776677 607.784973,80.8029657 L607.784973,105.282382 C607.771601,106.537607 608.257529,107.745375 609.133046,108.633005 C610.008564,109.520634 611.199851,110.013284 612.437947,110 C614.990144,110 617,107.926489 617,105.282382 L617,79.0644856 C617.003189,66.8708674 609.553965,59 598.024416,59 Z" id="Path" fill="#FFFFFF"></path>
            <path d="M648.373331,59 C634.704929,59 624,70.1611913 624,84.4097585 L624,84.5902415 C624,99.0767906 634.880419,110 649.30873,110 C656.988928,110 662.864554,107.731985 668.322975,102.681657 C669.279521,101.908867 669.837324,100.770732 669.849412,99.5671291 C669.849412,97.2975165 667.892526,95.4495631 665.488635,95.4495631 C664.495292,95.4495631 663.576449,95.802543 662.629462,96.5675989 C658.704101,100.05587 654.530404,101.67862 649.495809,101.67862 C641.328872,101.67862 635.166833,96.3024647 633.817542,88.1695531 L667.450488,88.1695531 C669.961334,88.1669141 671.996351,86.2043698 672,83.7820613 C672,71.4645016 663.884386,59 648.373331,59 Z M648.186252,67.1456891 C657.18263,67.1456891 661.32156,73.9561241 662.296692,80.7457956 L633.820853,80.7457956 C635.132066,72.6735774 640.896768,67.1440919 648.186252,67.1440919 L648.186252,67.1456891 Z" id="Shape" fill="#FFFFFF"></path>
            <path d="M702.388237,59 C696.881221,59 691.119341,62.6234247 687.318951,68.1823236 L687.318951,63.8386853 C687.332474,62.5991897 686.841079,61.4065559 685.955712,60.530049 C685.070345,59.6535421 683.865656,59.1670655 682.61363,59.1804526 C680.069821,59.1804526 678,61.2692316 678,63.8386853 L678,104.341515 C677.987177,105.580879 678.478714,106.773256 679.363983,107.649667 C680.249253,108.526077 681.453683,109.012695 682.705575,109 C685.286485,109 687.318951,106.952489 687.318951,104.341515 L687.318951,88.4648787 C687.318951,77.0005481 693.138902,69.4614612 702.922163,68.30369 C705.361122,67.9411878 707,66.0679938 707,63.6582327 C707,60.959428 705.061092,59 702.388237,59 Z" id="Path" fill="#FFFFFF"></path>
            <path d="M734.788329,187 L732.642971,187 L732.642971,176.765063 L729,176.765063 L729,175.001519 L738.466313,175.001519 L738.466313,176.765063 L734.788329,176.765063 L734.788329,187 Z M745.249337,187 L741.748011,177.697722 L741.607958,177.697722 L741.712997,179.844051 L741.712997,187 L739.644032,187 L739.644032,175 L742.90504,175 L746.322016,184.302278 L749.861538,175 L753,175 L753,187 L750.786207,187 L750.786207,180.012658 L750.889655,177.734177 L750.738462,177.734177 L747.058886,187 L745.249337,187 Z" id="Shape" fill="#404441"></path>
        </g>
    </g>
</svg>