<svg height="146" viewBox="0 0 572 146" width="572" xmlns="http://www.w3.org/2000/svg" xmlns:xlink="http://www.w3.org/1999/xlink"><defs><path id="a" d="m188.05598 101.43084c5.23512 0 9.59772-1.6238567 13.0878-4.87157.58168-.58168.87252-1.23607.87252-1.96317 0-.9694667-.460497-1.8419867-1.38149-2.61756-.58168-.43626-1.211833-.65439-1.89046-.65439-.87252 0-1.769277.3393133-2.69027 1.01794-2.03588 1.6965667-4.701913 2.54485-7.9981 2.54485-2.520613 0-4.762505-.58168-6.725675-1.74504s-3.49008-2.7750983-4.58073-4.835215-1.635975-4.398955-1.635975-7.016515c0-4.1202333 1.16336-7.4285383 3.49008-9.924915s5.356303-3.744565 9.08875-3.744565c1.841987 0 3.477962.3029583 4.907925.908875s2.750862 1.563265 3.962695 2.872045c.775573.87252 1.720803 1.30878 2.83569 1.30878.630153 0 1.187597-.1696567 1.67233-.50897 1.066413-.7271 1.59962-1.6238567 1.59962-2.69027 0-.7271-.242367-1.3572533-.7271-1.89046-3.78092-4.3626-8.531307-6.5439-14.25116-6.5439-3.78092 0-7.174053.8604017-10.1794 2.581205s-5.344185 4.1202333-7.016515 7.19829-2.508495 6.5560183-2.508495 10.433885c0 3.78092.860402 7.2104083 2.581205 10.288465s4.108115 5.489605 7.161935 7.234645 6.495427 2.61756 10.32482 2.61756zm43.69871 0c3.877867 0 7.331592-.860402 10.361175-2.581205 3.029583-1.7208033 5.392658-4.108115 7.089225-7.161935s2.54485-6.5196633 2.54485-10.39753c0-3.92634-.860402-7.41642-2.581205-10.47024s-4.095997-5.4411317-7.12558-7.161935-6.459072-2.581205-10.288465-2.581205c-3.877867 0-7.34371.8604017-10.39753 2.581205s-5.429013 4.108115-7.12558 7.161935-2.54485 6.5439-2.54485 10.47024c0 3.8778667.848283 7.34371 2.54485 10.39753s4.07176 5.4411317 7.12558 7.161935c3.05382 1.720803 6.519663 2.581205 10.39753 2.581205zm0-6.5439c-2.47214 0-4.689795-.58168-6.652965-1.74504s-3.502198-2.7750983-4.617085-4.835215-1.67233-4.398955-1.67233-7.016515.557443-4.9685167 1.67233-7.05287 2.653915-3.70821 4.617085-4.87157 4.180825-1.74504 6.652965-1.74504 4.689795.58168 6.652965 1.74504 3.49008 2.7872167 4.58073 4.87157 1.635975 4.43531 1.635975 7.05287-.545325 4.9563983-1.635975 7.016515-2.61756 3.671855-4.58073 4.835215-4.180825 1.74504-6.652965 1.74504zm64.63919 6.32577c1.066413 0 1.951052-.351432 2.653915-1.054295.702863-.7028633 1.054295-1.5875017 1.054295-2.653915v-17.88666c0-3.92634-.751337-7.2831183-2.25401-10.070335s-3.587027-4.907925-6.25306-6.362125-5.67138-2.1813-9.01604-2.1813c-2.423667 0-4.701913.4241417-6.83474 1.272425s-3.974813 2.0479983-5.52596 3.599145v-.79981c0-1.1148867-.339313-2.0116433-1.01794-2.69027s-1.575383-1.01794-2.69027-1.01794c-1.066413 0-1.951052.3393133-2.653915 1.01794s-1.054295 1.5753833-1.054295 2.69027v32.42866c0 1.0664133.351432 1.9510517 1.054295 2.653915.702863.702863 1.587502 1.054295 2.653915 1.054295 1.114887 0 2.011643-.351432 2.69027-1.054295.678627-.7028633 1.01794-1.5875017 1.01794-2.653915v-20.50422c0-1.74504.472615-3.3204233 1.417845-4.72615s2.25401-2.5206133 3.92634-3.34466 3.526435-1.23607 5.562315-1.23607c3.49008 0 6.289415 1.0058217 8.398005 3.017465s3.162885 4.980635 3.162885 8.906975v17.88666c0 1.0664133.351432 1.9510517 1.054295 2.653915.702863.702863 1.587502 1.054295 2.653915 1.054295zm34.68267.21813c2.229773 0 4.568612-.412023 7.016515-1.23607 2.447903-.8240467 4.495902-1.89046 6.143995-3.19924.775573-.58168 1.16336-1.30878 1.16336-2.1813 0-.9209933-.43626-1.74504-1.30878-2.47214-.533207-.4847333-1.260307-.7271-2.1813-.7271s-1.720803.2666033-2.39943.79981c-1.01794.7755733-2.314602 1.4299633-3.889985 1.96317s-3.090175.79981-4.544375.79981c-3.683973 0-6.798385-1.0421767-9.343235-3.12653s-4.083878-4.8230967-4.617085-8.21623h27.6298c.969467 0 1.769277-.3029583 2.39943-.908875s.94523-1.3693717.94523-2.290365c0-3.8293933-.7271-7.2225267-2.1813-10.1794s-3.538553-5.2593567-6.25306-6.90745-5.937983-2.47214-9.67043-2.47214c-3.78092 0-7.161935.8604017-10.143045 2.581205s-5.30783 4.1202333-6.98016 7.19829-2.508495 6.5560183-2.508495 10.433885.884638 7.34371 2.653915 10.39753 4.229298 5.4411317 7.380065 7.161935c3.150767 1.720803 6.713557 2.581205 10.68837 2.581205zm10.32482-23.41262h-24.21243c.58168-3.2477133 1.975288-5.8410367 4.180825-7.77997s5.077582-2.9084 8.616135-2.9084c3.19924 0 5.792563.9694667 7.77997 2.9084s3.19924 4.5322567 3.6355 7.77997zm32.7195 23.41262c5.23512 0 9.59772-1.6238567 13.0878-4.87157.58168-.58168.87252-1.23607.87252-1.96317 0-.9694667-.460497-1.8419867-1.38149-2.61756-.58168-.43626-1.211833-.65439-1.89046-.65439-.87252 0-1.769277.3393133-2.69027 1.01794-2.03588 1.6965667-4.701913 2.54485-7.9981 2.54485-2.520613 0-4.762505-.58168-6.725675-1.74504s-3.49008-2.7750983-4.58073-4.835215-1.635975-4.398955-1.635975-7.016515c0-4.1202333 1.16336-7.4285383 3.49008-9.924915s5.356303-3.744565 9.08875-3.744565c1.841987 0 3.477962.3029583 4.907925.908875s2.750862 1.563265 3.962695 2.872045c.775573.87252 1.720803 1.30878 2.83569 1.30878.630153 0 1.187597-.1696567 1.67233-.50897 1.066413-.7271 1.59962-1.6238567 1.59962-2.69027 0-.7271-.242367-1.3572533-.7271-1.89046-3.78092-4.3626-8.531307-6.5439-14.25116-6.5439-3.78092 0-7.174053.8604017-10.1794 2.581205s-5.344185 4.1202333-7.016515 7.19829-2.508495 6.5560183-2.508495 10.433885c0 3.78092.860402 7.2104083 2.581205 10.288465s4.108115 5.489605 7.161935 7.234645 6.495427 2.61756 10.32482 2.61756zm41.4447-.29084c1.260307 0 2.290365-.339313 3.090175-1.01794.79981-.6786267 1.199715-1.5511467 1.199715-2.61756s-.302958-1.9389333-.908875-2.61756-1.345135-1.01794-2.217655-1.01794h-2.47214c-1.551147 0-2.859927-.65439-3.92634-1.96317s-1.59962-2.9326367-1.59962-4.87157v-17.95937h6.18035c1.01794 0 1.841987-.29084 2.47214-.87252s.94523-1.30878.94523-2.1813c0-.9694667-.315077-1.74504-.94523-2.32672s-1.4542-.87252-2.47214-.87252h-6.18035v-10.47024c0-1.0664133-.339313-1.9389333-1.01794-2.61756s-1.551147-1.01794-2.61756-1.01794-1.938933.3393133-2.61756 1.01794-1.01794 1.5511467-1.01794 2.61756v10.47024h-3.34466c-1.01794 0-1.841987.29084-2.47214.87252s-.94523 1.3572533-.94523 2.32672c0 .87252.315077 1.59962.94523 2.1813s1.4542.87252 2.47214.87252h3.34466v17.95937c0 2.6660333.557443 5.0654633 1.67233 7.19829s2.653915 3.817275 4.617085 5.053345 4.132352 1.854105 6.507545 1.854105zm17.81395-46.24356c1.30878 0 2.435785-.472615 3.381015-1.417845s1.417845-2.072235 1.417845-3.381015-.472615-2.435785-1.417845-3.381015-2.072235-1.417845-3.381015-1.417845-2.435785.472615-3.381015 1.417845-1.417845 2.072235-1.417845 3.381015.472615 2.435785 1.417845 3.381015 2.072235 1.417845 3.381015 1.417845zm0 46.24356c1.114887 0 2.011643-.351432 2.69027-1.054295.678627-.7028633 1.01794-1.5875017 1.01794-2.653915v-32.35595c0-1.1148867-.339313-2.0116433-1.01794-2.69027s-1.575383-1.01794-2.69027-1.01794c-1.066413 0-1.951052.3393133-2.653915 1.01794s-1.054295 1.5753833-1.054295 2.69027v32.35595c0 1.0664133.351432 1.9510517 1.054295 2.653915.702863.702863 1.587502 1.054295 2.653915 1.054295zm19.6317 1.16336c1.405727 0 2.593323-.496852 3.56279-1.490555.969467-.9937033 1.4542-2.1691817 1.4542-3.526435 0-1.4057267-.496852-2.6054417-1.490555-3.599145s-2.169182-1.490555-3.526435-1.490555-2.532732.4968517-3.526435 1.490555-1.490555 2.1934183-1.490555 3.599145c0 1.3572533.496852 2.5327317 1.490555 3.526435.993703.993703 2.169182 1.490555 3.526435 1.490555zm67.40217-1.09065c1.114887 0 2.011643-.351432 2.69027-1.054295.678627-.7028633 1.01794-1.5875017 1.01794-2.653915v-20.79506c0-4.94428-1.296662-8.79791-3.889985-11.56089s-5.998575-4.14447-10.215755-4.14447c-2.666033 0-5.0897.50897-7.271 1.52691s-3.99905 2.4236667-5.45325 4.21718c-1.260307-1.8419867-2.872045-3.2598317-4.835215-4.253535s-4.180825-1.490555-6.652965-1.490555c-2.03588 0-3.92634.3514317-5.67138 1.054295s-3.247713 1.6844483-4.50802 2.944755c-.048473-1.0664133-.412023-1.926815-1.09065-2.581205s-1.551147-.981585-2.61756-.981585-1.951052.3393133-2.653915 1.01794-1.054295 1.5753833-1.054295 2.69027v32.35595c0 1.0664133.351432 1.9510517 1.054295 2.653915.702863.702863 1.587502 1.054295 2.653915 1.054295 1.114887 0 2.011643-.351432 2.69027-1.054295.678627-.7028633 1.01794-1.5875017 1.01794-2.653915v-20.50422c0-2.7145067.811928-4.94428 2.435785-6.68932s3.720328-2.61756 6.289415-2.61756c2.47214 0 4.447428.763455 5.925865 2.290365s2.217655 3.7688017 2.217655 6.725675v20.79506c0 1.0664133.351432 1.9510517 1.054295 2.653915.702863.702863 1.587502 1.054295 2.653915 1.054295 1.114887 0 2.011643-.351432 2.69027-1.054295.678627-.7028633 1.01794-1.5875017 1.01794-2.653915v-20.50422c0-2.7145067.811928-4.94428 2.435785-6.68932s3.696092-2.61756 6.216705-2.61756c2.47214 0 4.447428.763455 5.925865 2.290365s2.217655 3.7688017 2.217655 6.725675v20.79506c0 1.0664133.351432 1.9510517 1.054295 2.653915.702863.702863 1.587502 1.054295 2.653915 1.054295zm34.68267.21813c2.229773 0 4.568612-.412023 7.016515-1.23607 2.447903-.8240467 4.495902-1.89046 6.143995-3.19924.775573-.58168 1.16336-1.30878 1.16336-2.1813 0-.9209933-.43626-1.74504-1.30878-2.47214-.533207-.4847333-1.260307-.7271-2.1813-.7271s-1.720803.2666033-2.39943.79981c-1.01794.7755733-2.314602 1.4299633-3.889985 1.96317s-3.090175.79981-4.544375.79981c-3.683973 0-6.798385-1.0421767-9.343235-3.12653s-4.083878-4.8230967-4.617085-8.21623h27.6298c.969467 0 1.769277-.3029583 2.39943-.908875s.94523-1.3693717.94523-2.290365c0-3.8293933-.7271-7.2225267-2.1813-10.1794s-3.538553-5.2593567-6.25306-6.90745-5.937983-2.47214-9.67043-2.47214c-3.78092 0-7.161935.8604017-10.143045 2.581205s-5.30783 4.1202333-6.98016 7.19829-2.508495 6.5560183-2.508495 10.433885.884638 7.34371 2.653915 10.39753 4.229298 5.4411317 7.380065 7.161935c3.150767 1.720803 6.713557 2.581205 10.68837 2.581205zm10.32482-23.41262h-24.21243c.58168-3.2477133 1.975288-5.8410367 4.180825-7.77997s5.077582-2.9084 8.616135-2.9084c3.19924 0 5.792563.9694667 7.77997 2.9084s3.19924 4.5322567 3.6355 7.77997z"/></defs><g fill="none" fill-rule="evenodd"><g fill="#fff" transform="translate(.16 -.45)"><path d="m109.22 45.16c13.043307 16.7996867 12.769676 40.3775433-.66 56.87l16.23 16.23c22.717438-25.3547222 23.017443-63.6524978.7-89.36z"/><path d="m73.12 146.37c-40.6-.64-73.12-32.27-73.12-73.18s32.52-72.55 73.12-73.19c20.25.32 38.43 7.71 52.57 22.34l-22.73 22.73c-11.4538506-12.1639015-29.1430706-16.1608852-44.7141454-10.1034252-15.5710748 6.0574599-25.9089558 20.9575471-26.1317069 37.6638805s9.7141898 31.8767517 25.1182256 38.3472127c15.4040359 6.470462 33.1935348 2.946528 44.9676267-8.907668l22.73 22.73c-14.09 14.17-31.94 21.25-51.81 21.57z"/><circle cx="72.5019" cy="73.8186" fill-rule="nonzero" r="28.761622" transform="matrix(.95727564 -.28917702 .28917702 .95727564 -18.249046 24.119736)"/></g><g fill-rule="nonzero"><use fill="#000" xlink:href="#a"/><use fill="#fff" xlink:href="#a"/></g></g></svg>