<svg version="1.1" id="ReadSpeakerLogo" xmlns="http://www.w3.org/2000/svg" xmlns:xlink="http://www.w3.org/1999/xlink" x="0px" y="0px" width="200" height="27" viewBox="0 0 1476.4 202.7" style="enable-background:new 0 0 1476.4 202.7;" xml:space="preserve">
<style type="text/css">
.st0{fill-rule:evenodd;clip-rule:evenodd;fill:#444464;}
.st1{fill-rule:evenodd;clip-rule:evenodd;fill:#EE6600;}
.st2{fill:#EE6600;}
.st3{fill:#444464;}
</style>
    <g id="READSPEAKER_logo">
<path class="st0" d="M1350.7,12.4c-10.7,11-21.6,21.7-32.7,32.4c-1.8,1.7-4.8,2.9-7.3,3.1c-7.5,0.5-15,0.1-22.4,0.7
c-13.2,1-19.1,6.3-20.4,19.4c-0.4,4-0.5,8-0.5,12c-0.1,4,0.1,8,0.5,12c1.2,13.1,7.2,18.4,20.4,19.4c7.5,0.6,15,0.1,22.4,0.7
c2.5,0.2,5.5,1.3,7.3,3.1c11.1,10.6,22,21.4,32.7,32.4c12,12.4,27,11.6,42.3,10.2c0-26,0-51.8,0-77.7c0-25.9,0-53.5,0-79.4
C1377.6-0.9,1362.7,0,1350.7,12.4z"></path>
        <path class="st1" d="M1428.7,16.5l7.7-14.8c0,0,40,22.8,40,78.4c0,55.7-40.5,76.3-40.5,76.3l-7.2-14c0,0,31.8-19.9,31.8-61.9
S1428.7,16.5,1428.7,16.5z"></path>
        <path class="st1" d="M1414.9,45.5l7.6-15c0,0,23.4,17.4,23.4,50.1c0,32.7-23.5,47.9-23.5,47.9l-7.5-15.1c0,0,15.1-11.6,15.1-32.7
C1430.1,59.5,1414.9,45.5,1414.9,45.5z"></path>
</g>
    <g id="READSPEAKER_text">
<g id="READ">
<path class="st2" d="M0,0h50.3C67.3,0,75,1.3,81.8,4.4c15.6,7,25.5,22,25.5,42.7c0,18.7-9.9,38.7-26.4,45.3v0.4
c0,0,2.2,2.2,5.3,7.7l32.1,58.3H86.6l-31-58.3H28.4v58.3H0V0z M53.9,75.8c15.2,0,24.6-11.6,24.6-27.3c0-15-6.4-24.2-28.6-24.2
H28.4v51.4H53.9z"></path>
    <path class="st2" d="M170.3,44c32.3,0,49.7,23.5,49.7,53.2c0,3.3-0.7,10.8-0.7,10.8h-77.4c1.8,19.6,16.9,29.7,33.6,29.7
c18,0,32.3-12.3,32.3-12.3l10.8,20c0,0-17.1,16.1-45.1,16.1c-37.2,0-60.2-26.8-60.2-58.7C113.3,68.1,136.9,44,170.3,44z
M191.8,88.8c-0.4-15.2-9.9-23.3-22.2-23.3c-14.3,0-24.2,8.8-26.8,23.3H191.8z"></path>
    <path class="st2" d="M295.3,88.4h3.7v-1.5c0-14.7-9.2-19.8-21.5-19.8c-16.1,0-30.8,10.8-30.8,10.8l-10.6-20c0,0,17.4-13.9,44-13.9
c29.5,0,46.6,16.3,46.6,44.6v70.1H301v-9.2c0-4.4,0.4-7.9,0.4-7.9H301c0.2,0-8.6,19.8-34.1,19.8c-20,0-38-12.5-38-35
C228.9,90.8,277.1,88.4,295.3,88.4z M274,139.6c14.7,0,25.3-15.8,25.3-29.5v-2.6h-4.8c-14.3,0-37.4,2-37.4,17.6
C257.1,132.6,262.6,139.6,274,139.6z"></path>
    <path class="st2" d="M391.1,44c24.6,0,32.3,14.3,32.3,14.3h0.4c0,0-0.2-2.9-0.2-6.4V0h27.9v158.7h-26.4v-9.2
c0-4.2,0.4-7.3,0.4-7.3h-0.4c0,0-9.5,19.1-35.2,19.1c-30.3,0-49.7-24-49.7-58.7C340.4,67,361.5,44,391.1,44z M396.4,137.8
c14.5,0,28.1-10.6,28.1-35.4c0-17.4-9.2-34.5-27.9-34.5c-15.4,0-28.1,12.5-28.1,34.7C368.5,124,379.9,137.8,396.4,137.8z"></path>
</g>
        <g id="SPEAKER">
<path class="st3" d="M480.9,118.7c0,0,16.9,16.5,38.9,16.5c11.9,0,22.6-6.2,22.6-18.9c0-27.9-73.7-23.1-73.7-71
c0-25.9,22.4-45.3,52.3-45.3c30.8,0,46.6,16.7,46.6,16.7l-12.3,23.1c0,0-15-13.6-34.5-13.6c-13.2,0-23.5,7.7-23.5,18.7
c0,27.7,73.4,20.9,73.4,70.8c0,24.8-18.9,45.7-51.4,45.7c-34.7,0-53.9-21.3-53.9-21.3L480.9,118.7z"></path>
            <path class="st3" d="M583.4,46.6h25.5v8.1c0,4.2-0.4,7.7-0.4,7.7h0.4c0,0,9.7-18.5,36.1-18.5c30.3,0,49.7,24,49.7,58.7
c0,35.6-21.8,58.7-51.2,58.7c-22.2,0-32.1-15.4-32.1-15.4h-0.4c0,0,0.4,4,0.4,9.7v47.1h-27.9V46.6z M638.3,137.8
c15.4,0,28.1-12.5,28.1-34.7c0-21.3-11.4-35.2-27.9-35.2c-14.5,0-28.1,10.6-28.1,35.4C610.4,120.7,619.9,137.8,638.3,137.8z"></path>
            <path class="st3" d="M763.1,44c32.3,0,49.7,23.5,49.7,53.2c0,3.3-0.7,10.8-0.7,10.8h-77.4c1.8,19.6,16.9,29.7,33.6,29.7
c18,0,32.3-12.3,32.3-12.3l10.8,20c0,0-17.1,16.1-45.1,16.1c-37.2,0-60.2-26.8-60.2-58.7C706.2,68.1,729.7,44,763.1,44z
M784.7,88.8c-0.4-15.2-9.9-23.3-22.2-23.3c-14.3,0-24.2,8.8-26.8,23.3H784.7z"></path>
            <path class="st3" d="M888.1,88.4h3.7v-1.5c0-14.7-9.2-19.8-21.5-19.8c-16.1,0-30.8,10.8-30.8,10.8l-10.6-20c0,0,17.4-13.9,44-13.9
c29.5,0,46.6,16.3,46.6,44.6v70.1h-25.7v-9.2c0-4.4,0.4-7.9,0.4-7.9h-0.4c0.2,0-8.6,19.8-34.1,19.8c-20,0-38-12.5-38-35
C821.7,90.8,869.9,88.4,888.1,88.4z M866.8,139.6c14.7,0,25.3-15.8,25.3-29.5v-2.6h-4.8c-14.3,0-37.4,2-37.4,17.6
C849.9,132.6,855.3,139.6,866.8,139.6z"></path>
            <path class="st3" d="M936.5,0h27.9v86.2h13.9l27-39.6h31l-35.4,50.1v0.4l39.8,61.6h-32.1l-29.7-49h-14.5v49h-27.9V0z"></path>
            <path class="st3" d="M1090.1,44c32.3,0,49.7,23.5,49.7,53.2c0,3.3-0.7,10.8-0.7,10.8h-77.4c1.8,19.6,16.9,29.7,33.6,29.7
c18,0,32.3-12.3,32.3-12.3l10.8,20c0,0-17.2,16.1-45.1,16.1c-37.2,0-60.2-26.8-60.2-58.7C1033.1,68.1,1056.6,44,1090.1,44z
M1111.6,88.8c-0.4-15.2-9.9-23.3-22.2-23.3c-14.3,0-24.2,8.8-26.8,23.3H1111.6z"></path>
            <path class="st3" d="M1155.4,46.6h26.8v19.3c0,4.2-0.4,7.9-0.4,7.9h0.4c5.1-16,18.5-28.8,35.6-28.8c2.6,0,5.1,0.4,5.1,0.4V73
c0,0-2.9-0.4-6.6-0.4c-11.9,0-25.3,6.8-30.6,23.5c-1.8,5.5-2.4,11.7-2.4,18.2v44.4h-27.9V46.6z"></path>
</g>
</g>
</svg>