<svg xmlns="http://www.w3.org/2000/svg" style="isolation:isolate" width="16" height="16" preserveAspectRatio="xMinYMid meet"><defs><clipPath id="a"><path d="M0 0h16v16H0z"/></clipPath></defs><g clip-path="url(#a)"><clipPath id="b"><path d="M.35.3h15.3v15.4H.35V.3z" fill="#FFF"/></clipPath><g clip-path="url(#b)"><path d="M9.139 11.539v.85h1.5l-2.6 2.9-2.8-2.9h1.6v-.85h2.3zm-4.695-2.35h-.85v1.5l-2.9-2.6 2.9-2.8v1.6h.85v2.3zm2.406-4.65v-.85h-1.5l2.6-2.9 2.8 2.9h-1.6v.85h-2.3zm4.639 2.25h.85v-1.5l2.9 2.6-2.9 2.8v-1.6h-.85v-2.3zm-.939 4.129h-.145L8.239 9.089l.505-.512 1.879 2.194a.153.153 0 0 1-.073.147zM9.394 7.406L9.25 7.26l-.289-.146-.289.146-1.661-1.39a.37.37 0 0 0 0-.512l-.216-.146a.214.214 0 0 0-.289 0L4.917 6.821a.221.221 0 0 0 0 .293l.144.146.289.146h.217l1.372 1.61a.368.368 0 0 0 0 .512l.144.146a.214.214 0 0 0 .289 0l2.022-2.048a.221.221 0 0 0 0-.22z"/></g></g></svg>