<!DOCTYPE svg PUBLIC "-//W3C//DTD SVG 1.1//EN" "http://www.w3.org/Graphics/SVG/1.1/DTD/svg11.dtd" [
	<!ENTITY ns_flows "http://ns.adobe.com/Flows/1.0/">
]><svg xmlns="http://www.w3.org/2000/svg" width="24" height="24" viewBox="-2 -1 24 24" preserveAspectRatio="xMinYMid meet" overflow="visible"><radialGradient id="a" cx="10" cy="19.5" r="7.492" gradientUnits="userSpaceOnUse"><stop offset="0" stop-color="#76A1F0"/><stop offset="1" stop-color="#6B90D5"/></radialGradient><path d="M20 21c0 1.1-.9 2-2 2H2c-1.1 0-2-.9-2-2v-3c0-1.1.9-2 2-2h16c1.1 0 2 .9 2 2v3z" fill="url(#a)"/><radialGradient id="b" cx="10" cy="19.5" r="6.605" gradientUnits="userSpaceOnUse"><stop offset="0" stop-color="#BBE0F7"/><stop offset="1" stop-color="#82B4FB"/></radialGradient><path d="M2 22c-.6 0-1-.4-1-1v-3c0-.6.4-1 1-1h16c.6 0 1 .4 1 1v3c0 .6-.4 1-1 1H2z" fill="url(#b)"/><radialGradient id="c" cx="10" cy="19.5" r="5.755" gradientUnits="userSpaceOnUse"><stop offset="0" stop-color="#95BFF8"/><stop offset=".557" stop-color="#84ADEF"/><stop offset="1" stop-color="#7CA4EB"/></radialGradient><path fill="url(#c)" d="M2 18h16v3H2z"/><radialGradient id="d" cx="10" cy="11.5" r="7.492" gradientUnits="userSpaceOnUse"><stop offset="0" stop-color="#76A1F0"/><stop offset="1" stop-color="#6B90D5"/></radialGradient><path d="M20 13c0 1.1-.9 2-2 2H2c-1.1 0-2-.9-2-2v-3c0-1.1.9-2 2-2h16c1.1 0 2 .9 2 2v3z" fill="url(#d)"/><radialGradient id="e" cx="10" cy="11.5" r="6.605" gradientUnits="userSpaceOnUse"><stop offset="0" stop-color="#BBE0F7"/><stop offset="1" stop-color="#82B4FB"/></radialGradient><path d="M2 14c-.6 0-1-.4-1-1v-3c0-.6.4-1 1-1h16c.6 0 1 .4 1 1v3c0 .6-.4 1-1 1H2z" fill="url(#e)"/><radialGradient id="f" cx="10" cy="11.5" r="5.755" gradientUnits="userSpaceOnUse"><stop offset="0" stop-color="#95BFF8"/><stop offset=".557" stop-color="#84ADEF"/><stop offset="1" stop-color="#7CA4EB"/></radialGradient><path fill="url(#f)" d="M2 10h16v3H2z"/><radialGradient id="g" cx="10" cy="3.5" r="7.492" gradientUnits="userSpaceOnUse"><stop offset="0" stop-color="#76A1F0"/><stop offset="1" stop-color="#6B90D5"/></radialGradient><path d="M20 5c0 1.1-.9 2-2 2H2C.9 7 0 6.1 0 5V2C0 .9.9 0 2 0h16c1.1 0 2 .9 2 2v3z" fill="url(#g)"/><radialGradient id="h" cx="10" cy="3.5" r="6.605" gradientUnits="userSpaceOnUse"><stop offset="0" stop-color="#BBE0F7"/><stop offset="1" stop-color="#82B4FB"/></radialGradient><path d="M2 6c-.6 0-1-.4-1-1V2c0-.6.4-1 1-1h16c.6 0 1 .4 1 1v3c0 .6-.4 1-1 1H2z" fill="url(#h)"/><radialGradient id="i" cx="10" cy="3.5" r="5.755" gradientUnits="userSpaceOnUse"><stop offset="0" stop-color="#95BFF8"/><stop offset=".557" stop-color="#84ADEF"/><stop offset="1" stop-color="#7CA4EB"/></radialGradient><path fill="url(#i)" d="M2 2h16v3H2z"/></svg>