<!DOCTYPE svg PUBLIC "-//W3C//DTD SVG 1.1//EN" "http://www.w3.org/Graphics/SVG/1.1/DTD/svg11.dtd" [
	<!ENTITY ns_flows "http://ns.adobe.com/Flows/1.0/">
]><svg xmlns="http://www.w3.org/2000/svg" width="24" height="24" viewBox="0 0 24 24" preserveAspectRatio="xMinYMid meet" overflow="visible"><linearGradient id="a" gradientUnits="userSpaceOnUse" x1="5.5" y1="10" x2="5.5" y2="14.001"><stop offset="0" stop-color="#95BFF8"/><stop offset=".557" stop-color="#84ADEF"/><stop offset="1" stop-color="#7CA4EB"/></linearGradient><path fill="url(#a)" d="M5 10h1v4H5z"/><linearGradient id="b" gradientUnits="userSpaceOnUse" x1="15" y1="5" x2="15" y2="9"><stop offset="0" stop-color="#95BFF8"/><stop offset=".557" stop-color="#84ADEF"/><stop offset="1" stop-color="#7CA4EB"/></linearGradient><path fill="url(#b)" d="M18 5h-7v1h7v3h1V5"/><linearGradient id="c" gradientUnits="userSpaceOnUse" x1="5.5" y1="14" x2="5.5" y2="24"><stop offset="0" stop-color="#76A1F0"/><stop offset="1" stop-color="#6B90D5"/></linearGradient><path d="M10 14H1c-.6 0-1 .4-1 1v9h11v-9c0-.6-.4-1-1-1z" fill="url(#c)"/><linearGradient id="d" gradientUnits="userSpaceOnUse" x1="5.5" y1="17" x2="5.5" y2="23"><stop offset="0" stop-color="#E7F4FC"/><stop offset="1" stop-color="#DEEFFC"/></linearGradient><path fill="url(#d)" d="M1 17h9v6H1z"/><linearGradient id="e" gradientUnits="userSpaceOnUse" x1="5.5" y1="18" x2="5.5" y2="22"><stop offset="0" stop-color="#CEE9F9"/><stop offset="1" stop-color="#BBDFF8"/></linearGradient><path fill="url(#e)" d="M2 18h7v4H2z"/><linearGradient id="f" gradientUnits="userSpaceOnUse" x1="5.5" y1="15" x2="5.5" y2="16"><stop offset="0" stop-color="#BBE0F7"/><stop offset="1" stop-color="#82B4FB"/></linearGradient><path fill="url(#f)" d="M1 15h9v1H1z"/><linearGradient id="g" gradientUnits="userSpaceOnUse" x1="18.5" y1="9" x2="18.5" y2="19"><stop offset="0" stop-color="#76A1F0"/><stop offset="1" stop-color="#6B90D5"/></linearGradient><path d="M23 9h-9c-.6 0-1 .4-1 1v9h11v-9c0-.6-.4-1-1-1z" fill="url(#g)"/><linearGradient id="h" gradientUnits="userSpaceOnUse" x1="18.5" y1="12" x2="18.5" y2="18"><stop offset="0" stop-color="#E7F4FC"/><stop offset="1" stop-color="#DEEFFC"/></linearGradient><path fill="url(#h)" d="M14 12h9v6h-9z"/><linearGradient id="i" gradientUnits="userSpaceOnUse" x1="18.5" y1="13" x2="18.5" y2="17"><stop offset="0" stop-color="#CEE9F9"/><stop offset="1" stop-color="#BBDFF8"/></linearGradient><path fill="url(#i)" d="M15 13h7v4h-7z"/><linearGradient id="j" gradientUnits="userSpaceOnUse" x1="18.5" y1="10" x2="18.5" y2="11"><stop offset="0" stop-color="#BBE0F7"/><stop offset="1" stop-color="#82B4FB"/></linearGradient><path fill="url(#j)" d="M14 10h9v1h-9z"/><linearGradient id="k" gradientUnits="userSpaceOnUse" x1="5.5" x2="5.5" y2="10"><stop offset="0" stop-color="#76A1F0"/><stop offset="1" stop-color="#6B90D5"/></linearGradient><path d="M10 0H1C.4 0 0 .4 0 1v9h11V1c0-.6-.4-1-1-1z" fill="url(#k)"/><linearGradient id="l" gradientUnits="userSpaceOnUse" x1="5.5" y1="3" x2="5.5" y2="9"><stop offset="0" stop-color="#E7F4FC"/><stop offset="1" stop-color="#DEEFFC"/></linearGradient><path fill="url(#l)" d="M1 3h9v6H1z"/><linearGradient id="m" gradientUnits="userSpaceOnUse" x1="5.5" y1="4" x2="5.5" y2="8"><stop offset="0" stop-color="#CEE9F9"/><stop offset="1" stop-color="#BBDFF8"/></linearGradient><path fill="url(#m)" d="M2 4h7v4H2z"/><linearGradient id="n" gradientUnits="userSpaceOnUse" x1="5.5" y1="1" x2="5.5" y2="2"><stop offset="0" stop-color="#BBE0F7"/><stop offset="1" stop-color="#82B4FB"/></linearGradient><path fill="url(#n)" d="M1 1h9v1H1z"/></svg>