<?xml version="1.0" encoding="utf-8"?>
<!-- Generator: Adobe Illustrator 15.1.0, SVG Export Plug-In  -->
<!DOCTYPE svg PUBLIC "-//W3C//DTD SVG 1.1//EN" "http://www.w3.org/Graphics/SVG/1.1/DTD/svg11.dtd" [
	<!ENTITY ns_flows "http://ns.adobe.com/Flows/1.0/">
]>
<svg version="1.1"
	 xmlns="http://www.w3.org/2000/svg" xmlns:xlink="http://www.w3.org/1999/xlink" xmlns:a="http://ns.adobe.com/AdobeSVGViewerExtensions/3.0/"
	 x="0px" y="0px" width="24px" height="24px" viewBox="0 0 24 24" style="overflow:visible;enable-background:new 0 0 24 24;"
	 xml:space="preserve" preserveAspectRatio="xMinYMid meet">
<defs>
</defs>
<linearGradient id="SVGID_1_" gradientUnits="userSpaceOnUse" x1="5.5" y1="10" x2="5.5" y2="14.0005">
	<stop  offset="0" style="stop-color:#95BFF8"/>
	<stop  offset="0.5569" style="stop-color:#84ADEF"/>
	<stop  offset="1" style="stop-color:#7CA4EB"/>
	<a:midPointStop  offset="0" style="stop-color:#95BFF8"/>
	<a:midPointStop  offset="0.4" style="stop-color:#95BFF8"/>
	<a:midPointStop  offset="1" style="stop-color:#7CA4EB"/>
</linearGradient>
<rect x="5" y="10" style="fill:url(#SVGID_1_);" width="1" height="4"/>
<linearGradient id="SVGID_2_" gradientUnits="userSpaceOnUse" x1="15" y1="5" x2="15" y2="9">
	<stop  offset="0" style="stop-color:#95BFF8"/>
	<stop  offset="0.5569" style="stop-color:#84ADEF"/>
	<stop  offset="1" style="stop-color:#7CA4EB"/>
	<a:midPointStop  offset="0" style="stop-color:#95BFF8"/>
	<a:midPointStop  offset="0.4" style="stop-color:#95BFF8"/>
	<a:midPointStop  offset="1" style="stop-color:#7CA4EB"/>
</linearGradient>
<polygon style="fill:url(#SVGID_2_);" points="18,5 11,5 11,6 18,6 18,9 19,9 19,6 19,5 "/>
<linearGradient id="SVGID_3_" gradientUnits="userSpaceOnUse" x1="5.5" y1="14" x2="5.5" y2="24">
	<stop  offset="0" style="stop-color:#76A1F0"/>
	<stop  offset="1" style="stop-color:#6B90D5"/>
	<a:midPointStop  offset="0" style="stop-color:#76A1F0"/>
	<a:midPointStop  offset="0.5" style="stop-color:#76A1F0"/>
	<a:midPointStop  offset="1" style="stop-color:#6B90D5"/>
</linearGradient>
<path style="fill:url(#SVGID_3_);" d="M10,14H1c-0.6,0-1,0.4-1,1v1v7v1h1h9h1v-1v-7v-1C11,14.4,10.6,14,10,14z"/>
<linearGradient id="SVGID_4_" gradientUnits="userSpaceOnUse" x1="5.5" y1="17" x2="5.5" y2="23">
	<stop  offset="0" style="stop-color:#E7F4FC"/>
	<stop  offset="1" style="stop-color:#DEEFFC"/>
	<a:midPointStop  offset="0" style="stop-color:#E7F4FC"/>
	<a:midPointStop  offset="0.5" style="stop-color:#E7F4FC"/>
	<a:midPointStop  offset="1" style="stop-color:#DEEFFC"/>
</linearGradient>
<rect x="1" y="17" style="fill:url(#SVGID_4_);" width="9" height="6"/>
<linearGradient id="SVGID_5_" gradientUnits="userSpaceOnUse" x1="5.5" y1="18" x2="5.5" y2="22">
	<stop  offset="0" style="stop-color:#CEE9F9"/>
	<stop  offset="1" style="stop-color:#BBDFF8"/>
	<a:midPointStop  offset="0" style="stop-color:#CEE9F9"/>
	<a:midPointStop  offset="0.5" style="stop-color:#CEE9F9"/>
	<a:midPointStop  offset="1" style="stop-color:#BBDFF8"/>
</linearGradient>
<rect x="2" y="18" style="fill:url(#SVGID_5_);" width="7" height="4"/>
<linearGradient id="SVGID_6_" gradientUnits="userSpaceOnUse" x1="5.5" y1="15" x2="5.5" y2="16">
	<stop  offset="0" style="stop-color:#BBE0F7"/>
	<stop  offset="1" style="stop-color:#82B4FB"/>
	<a:midPointStop  offset="0" style="stop-color:#BBE0F7"/>
	<a:midPointStop  offset="0.5" style="stop-color:#BBE0F7"/>
	<a:midPointStop  offset="1" style="stop-color:#82B4FB"/>
</linearGradient>
<rect x="1" y="15" style="fill:url(#SVGID_6_);" width="9" height="1"/>
<linearGradient id="SVGID_7_" gradientUnits="userSpaceOnUse" x1="18.5" y1="9" x2="18.5" y2="19.0005">
	<stop  offset="0" style="stop-color:#76A1F0"/>
	<stop  offset="1" style="stop-color:#6B90D5"/>
	<a:midPointStop  offset="0" style="stop-color:#76A1F0"/>
	<a:midPointStop  offset="0.5" style="stop-color:#76A1F0"/>
	<a:midPointStop  offset="1" style="stop-color:#6B90D5"/>
</linearGradient>
<path style="fill:url(#SVGID_7_);" d="M23,9h-9c-0.6,0-1,0.4-1,1v1v7v1h1h9h1v-1v-7v-1C24,9.4,23.6,9,23,9z"/>
<linearGradient id="SVGID_8_" gradientUnits="userSpaceOnUse" x1="18.5" y1="12" x2="18.5" y2="18.0005">
	<stop  offset="0" style="stop-color:#E7F4FC"/>
	<stop  offset="1" style="stop-color:#DEEFFC"/>
	<a:midPointStop  offset="0" style="stop-color:#E7F4FC"/>
	<a:midPointStop  offset="0.5" style="stop-color:#E7F4FC"/>
	<a:midPointStop  offset="1" style="stop-color:#DEEFFC"/>
</linearGradient>
<rect x="14" y="12" style="fill:url(#SVGID_8_);" width="9" height="6"/>
<linearGradient id="SVGID_9_" gradientUnits="userSpaceOnUse" x1="18.5" y1="13" x2="18.5" y2="17.0005">
	<stop  offset="0" style="stop-color:#CEE9F9"/>
	<stop  offset="1" style="stop-color:#BBDFF8"/>
	<a:midPointStop  offset="0" style="stop-color:#CEE9F9"/>
	<a:midPointStop  offset="0.5" style="stop-color:#CEE9F9"/>
	<a:midPointStop  offset="1" style="stop-color:#BBDFF8"/>
</linearGradient>
<rect x="15" y="13" style="fill:url(#SVGID_9_);" width="7" height="4"/>
<linearGradient id="SVGID_10_" gradientUnits="userSpaceOnUse" x1="18.5" y1="10" x2="18.5" y2="11">
	<stop  offset="0" style="stop-color:#BBE0F7"/>
	<stop  offset="1" style="stop-color:#82B4FB"/>
	<a:midPointStop  offset="0" style="stop-color:#BBE0F7"/>
	<a:midPointStop  offset="0.5" style="stop-color:#BBE0F7"/>
	<a:midPointStop  offset="1" style="stop-color:#82B4FB"/>
</linearGradient>
<rect x="14" y="10" style="fill:url(#SVGID_10_);" width="9" height="1"/>
<linearGradient id="SVGID_11_" gradientUnits="userSpaceOnUse" x1="5.5" y1="0" x2="5.5" y2="10">
	<stop  offset="0" style="stop-color:#76A1F0"/>
	<stop  offset="1" style="stop-color:#6B90D5"/>
	<a:midPointStop  offset="0" style="stop-color:#76A1F0"/>
	<a:midPointStop  offset="0.5" style="stop-color:#76A1F0"/>
	<a:midPointStop  offset="1" style="stop-color:#6B90D5"/>
</linearGradient>
<path style="fill:url(#SVGID_11_);" d="M10,0H1C0.4,0,0,0.4,0,1v1v7v1h1h9h1V9V2V1C11,0.4,10.6,0,10,0z"/>
<linearGradient id="SVGID_12_" gradientUnits="userSpaceOnUse" x1="5.5" y1="3" x2="5.5" y2="9">
	<stop  offset="0" style="stop-color:#E7F4FC"/>
	<stop  offset="1" style="stop-color:#DEEFFC"/>
	<a:midPointStop  offset="0" style="stop-color:#E7F4FC"/>
	<a:midPointStop  offset="0.5" style="stop-color:#E7F4FC"/>
	<a:midPointStop  offset="1" style="stop-color:#DEEFFC"/>
</linearGradient>
<rect x="1" y="3" style="fill:url(#SVGID_12_);" width="9" height="6"/>
<linearGradient id="SVGID_13_" gradientUnits="userSpaceOnUse" x1="5.5" y1="4" x2="5.5" y2="8">
	<stop  offset="0" style="stop-color:#CEE9F9"/>
	<stop  offset="1" style="stop-color:#BBDFF8"/>
	<a:midPointStop  offset="0" style="stop-color:#CEE9F9"/>
	<a:midPointStop  offset="0.5" style="stop-color:#CEE9F9"/>
	<a:midPointStop  offset="1" style="stop-color:#BBDFF8"/>
</linearGradient>
<rect x="2" y="4" style="fill:url(#SVGID_13_);" width="7" height="4"/>
<linearGradient id="SVGID_14_" gradientUnits="userSpaceOnUse" x1="5.5" y1="1" x2="5.5" y2="2">
	<stop  offset="0" style="stop-color:#BBE0F7"/>
	<stop  offset="1" style="stop-color:#82B4FB"/>
	<a:midPointStop  offset="0" style="stop-color:#BBE0F7"/>
	<a:midPointStop  offset="0.5" style="stop-color:#BBE0F7"/>
	<a:midPointStop  offset="1" style="stop-color:#82B4FB"/>
</linearGradient>
<rect x="1" y="1" style="fill:url(#SVGID_14_);" width="9" height="1"/>
</svg>
