<!DOCTYPE svg PUBLIC "-//W3C//DTD SVG 1.1//EN" "http://www.w3.org/Graphics/SVG/1.1/DTD/svg11.dtd" [
	<!ENTITY ns_flows "http://ns.adobe.com/Flows/1.0/">
]><svg xmlns="http://www.w3.org/2000/svg" width="16" height="16" viewBox="0 0 16 16" preserveAspectRatio="xMinYMid meet" overflow="visible"><path d="M2 5v9c0 1.1.9 2 2 2h8c1.1 0 2-.9 2-2V5H2zm3 8.5c0 .3-.2.5-.5.5s-.5-.2-.5-.5v-6c0-.3.2-.5.5-.5s.5.2.5.5v6zm3.5 0c0 .3-.2.5-.5.5s-.5-.2-.5-.5v-6c0-.3.2-.5.5-.5s.5.2.5.5v6zm3.5 0c0 .3-.2.5-.5.5s-.5-.2-.5-.5v-6c0-.3.2-.5.5-.5s.5.2.5.5v6zM0 4c0-1.1.9-2 2-2h4c0-1.1.9-2 2-2s2 .9 2 2h4c1.1 0 2 .9 2 2H0z" fill="#888"/></svg>