<?xml version="1.0" encoding="UTF-8" standalone="no"?>
<svg
   xmlns:dc="http://purl.org/dc/elements/1.1/"
   xmlns:cc="http://creativecommons.org/ns#"
   xmlns:rdf="http://www.w3.org/1999/02/22-rdf-syntax-ns#"
   xmlns:svg="http://www.w3.org/2000/svg"
   xmlns="http://www.w3.org/2000/svg"
   xmlns:sodipodi="http://sodipodi.sourceforge.net/DTD/sodipodi-0.dtd"
   xmlns:inkscape="http://www.inkscape.org/namespaces/inkscape"
   width="16"
   height="16"
   viewBox="0 0 16 16"
   preserveAspectRatio="xMinYMid meet"
   overflow="visible"
   version="1.1"
   id="svg956"
   sodipodi:docname="warning.svg"
   inkscape:version="0.92.2 5c3e80d, 2017-08-06"
   inkscape:export-filename="/home/mudrd8mz/www/html/mdk/m36/admin/tool/iomadpolicy/pix/warning.png"
   inkscape:export-xdpi="96"
   inkscape:export-ydpi="96">
  <metadata
     id="metadata962">
    <rdf:RDF>
      <cc:Work
         rdf:about="">
        <dc:format>image/svg+xml</dc:format>
        <dc:type
           rdf:resource="http://purl.org/dc/dcmitype/StillImage" />
        <dc:title></dc:title>
      </cc:Work>
    </rdf:RDF>
  </metadata>
  <defs
     id="defs960" />
  <sodipodi:namedview
     pagecolor="#ffffff"
     bordercolor="#666666"
     borderopacity="1"
     objecttolerance="10"
     gridtolerance="10"
     guidetolerance="10"
     inkscape:pageopacity="0"
     inkscape:pageshadow="2"
     inkscape:window-width="1624"
     inkscape:window-height="911"
     id="namedview958"
     showgrid="false"
     inkscape:zoom="14.75"
     inkscape:cx="-0.06779661"
     inkscape:cy="7.3559322"
     inkscape:window-x="0"
     inkscape:window-y="25"
     inkscape:window-maximized="0"
     inkscape:current-layer="svg956" />
  <path
     d="M7 .7L.2 14.1c-.5 1 0 1.8 1.1 1.8h13.2c1.1 0 1.6-.8 1.1-1.8L8.8.7C8.3-.2 7.5-.2 7 .7zm2.4 12.7c0 .8-.7 1.5-1.5 1.5s-1.5-.7-1.5-1.5.7-1.5 1.5-1.5 1.5.6 1.5 1.5zm-.2-7.5v4c0 .5-.5 1-1 1h-.6c-.5 0-1-.5-1-1v-4c0-.6.5-1 1-1h.6c.6 0 1 .4 1 1z"
     fill="#999"
     id="path954"
     style="fill:#ffb844;fill-opacity:1" />
</svg>
