<svg xmlns="http://www.w3.org/2000/svg" height="18px" width="18px" viewBox="0 0 100 100" enable-background="new 0 0 100 100"><g stroke="#999" stroke-miterlimit="10"><circle cx="50" cy="50" r="48.8" fill="#eee" stroke-width="3"/><path d="m50.1 74.7c-.6 0-1.2-.2-1.6-.6-.5-.4-.8-1.1-.8-1.8s.2-1.2.7-1.7c.9-.9 2.5-.9 3.4 0 .5.4.7 1 .7 1.7 0 .9-.4 1.5-.8 1.8-.4.4-1 .6-1.6.6zm0-2.7c-.1 0-.2 0-.2.1-.1.1-.1.2-.1.3 0 .1 0 .2.1.3.1.1.3.1.5 0 .1-.1.1-.2.1-.3 0 0 0-.2-.2-.3 0 0-.2-.1-.2-.1zm0-11.1c-.8 0-1.4-.6-1.4-1.4v-32.4c0-.8.6-1.4 1.4-1.4.8 0 1.4.6 1.4 1.4v32.4c0 .8-.7 1.4-1.4 1.4z" fill="#999" stroke-width="6"/></g></svg>

