<svg id="Layer_1" data-name="Layer 1" xmlns="http://www.w3.org/2000/svg" width="48" height="48" viewBox="0 0 48 48"><defs><style>.cls-1{fill:#9c0;}.cls-2{fill:#fff;}</style></defs><title>48px_sourcefile_20170718_multi</title><circle class="cls-1" cx="24" cy="24.04" r="24"/><path id="path1" class="cls-2" d="M13.48,20V29.5L22.61,36V26.51Zm21-.13L24.47,26.53v9.53l10.05-6.64ZM23.68,11.44l-9.53,6.79,9.41,6.71,10.22-6.79Zm0-2a1.06,1.06,0,0,1,.52.15l11.78,7.82a.9.9,0,0,1,.41.77v.11l0,.09v0a.58.58,0,0,1,0,.19v11a.64.64,0,0,1,0,.19h0v0a.94.94,0,0,1-.39.94L24.07,38.51h0a.68.68,0,0,1-.32.13H23.4a1,1,0,0,1-.32-.13l0,0-11-7.78a.93.93,0,0,1-.36-.94v-.06a.58.58,0,0,1,0-.19V18.47l0-.08,0-.06v-.11a1,1,0,0,1,.38-.75L23.19,9.58A.58.58,0,0,1,23.64,9.41Z"/></svg>