<svg viewBox="0 0 20 17" fill="none" xmlns="http://www.w3.org/2000/svg" preserveAspectRatio="xMinYMid meet">
<rect transform="translate(0 0.0148315)" fill="white"/>
<path d="M5.91784 0.393563C6.04409 -0.111413 6.76174 -0.111412 6.88799 0.393564L7.34096 2.20547C7.74403 3.81775 9.00291 5.07663 10.6152 5.4797L12.4271 5.93268C12.9321 6.05892 12.9321 6.77657 12.4271 6.90282L10.6152 7.35579C9.00291 7.75886 7.74403 9.01774 7.34096 10.63L6.88799 12.4419C6.76174 12.9469 6.04409 12.9469 5.91784 12.4419L5.46487 10.63C5.0618 9.01774 3.80292 7.75886 2.19064 7.35579L0.378731 6.90282C-0.126245 6.77657 -0.126243 6.05892 0.378733 5.93267L2.19064 5.4797C3.80292 5.07663 5.0618 3.81775 5.46487 2.20547L5.91784 0.393563Z" fill="#212529"/>
<path d="M19.7091 2.88224C20.097 2.94613 20.097 3.50382 19.7091 3.56771C18.3868 3.78552 17.3504 4.82191 17.1326 6.14422C17.0687 6.53208 16.511 6.53208 16.4471 6.14422C16.2293 4.82191 15.1929 3.78551 13.8706 3.56771C13.4827 3.50382 13.4827 2.94613 13.8706 2.88224C15.1929 2.66444 16.2293 1.62804 16.4471 0.305732C16.511 -0.0821322 17.0687 -0.0821366 17.1326 0.305727C17.3504 1.62804 18.3868 2.66443 19.7091 2.88224Z" fill="#212529"/>
<path d="M16.7458 12.6955C17.11 12.7634 17.11 13.2852 16.7458 13.3531C15.523 13.5811 14.5663 14.5378 14.3383 15.7606C14.2704 16.1249 13.7486 16.1249 13.6807 15.7606C13.4527 14.5378 12.496 13.5811 11.2732 13.3531C10.9089 13.2852 10.9089 12.7634 11.2732 12.6955C12.496 12.4675 13.4527 11.5109 13.6807 10.288C13.7486 9.92378 14.2704 9.92378 14.3383 10.288C14.5663 11.5109 15.523 12.4675 16.7458 12.6955Z" fill="#212529"/>
</svg>
