<svg width="76" height="76" viewBox="0 0 76 76" fill="none" xmlns="http://www.w3.org/2000/svg">
<path fill-rule="evenodd" clip-rule="evenodd" d="M42.1729 12.9961H25.3213C22.7324 12.9961 20.6338 15.0948 20.6338 17.6836V58.3228C20.6338 60.9115 22.7324 63.0103 25.3213 63.0103H53.4647C56.0535 63.0103 58.1522 60.9115 58.1522 58.3228V28.5669V27.1084C58.1522 26.2455 57.4525 25.5459 56.5897 25.5459H50.31C47.7213 25.5459 45.6225 23.4473 45.6225 20.8584V14.5586C45.6225 13.6988 44.9278 13.0011 44.0694 12.9961L44.06 12.9961L42.1916 12.9962C42.1854 12.9962 42.1791 12.9962 42.1729 12.9961ZM48.7475 15.1277V20.8584C48.7475 21.7214 49.4472 22.4209 50.31 22.4209H56.0022L48.7475 15.1277ZM61.2772 27.1084V28.5669V58.3228C61.2772 62.6374 57.7794 66.1353 53.4647 66.1353H25.3213C21.0066 66.1353 17.5088 62.6374 17.5088 58.3228V17.6836C17.5088 13.3689 21.0066 9.87109 25.3213 9.87109H44.06L44.076 9.87113L44.6782 9.87109C46.7572 9.871 48.751 10.6998 50.2172 12.174L59.0035 21.007C60.4597 22.471 61.2772 24.4518 61.2772 26.5166V27.1084Z" fill="black"/>
<path d="M34.7948 23.0724C35.4051 23.6824 35.4051 24.6718 34.7951 25.2821L30.9567 29.1215C30.6635 29.4146 30.266 29.5793 29.8517 29.5793C29.437 29.5793 29.0395 29.4146 28.7467 29.1215L26.8807 27.2549C26.2707 26.6446 26.2707 25.6556 26.881 25.0452C27.4914 24.4352 28.4807 24.4356 29.0907 25.0456L29.8517 25.8068L32.5851 23.0728C33.1951 22.4624 34.1845 22.4621 34.7948 23.0724Z" fill="black"/>
<path d="M27.7599 37.8643C27.7599 37.0015 27.2105 36.3018 26.3476 36.3018C25.4846 36.3018 24.7851 37.0015 24.7851 37.8643V43.2567C24.7851 44.1195 25.4846 44.8192 26.3476 44.8192C27.2105 44.8192 27.7599 44.1195 27.7599 43.2567V37.8643Z" fill="black"/>
<path d="M54.006 37.874C54.006 37.0112 53.4232 36.3115 52.5603 36.3115C51.6973 36.3115 50.9978 37.0112 50.9978 37.874V43.2663C50.9978 44.1291 51.6973 44.8288 52.5603 44.8288C53.4232 44.8288 54.006 44.1291 54.006 43.2663V37.874Z" fill="black"/>
<path d="M35.7364 37.874C35.7364 37.0112 35.187 36.3115 34.3241 36.3115C33.4611 36.3115 32.7616 37.0112 32.7616 37.874V43.2663C32.7616 44.1291 33.4611 44.8288 34.3241 44.8288C35.187 44.8288 35.7364 44.1291 35.7364 43.2663V37.874Z" fill="black"/>
<path d="M45.9958 37.8347C45.9958 36.9719 45.413 36.2722 44.5501 36.2722C43.6872 36.2722 42.9876 36.9719 42.9876 37.8347V43.227C42.9876 44.0898 43.6872 44.7895 44.5501 44.7895C45.413 44.7895 45.9958 44.0898 45.9958 43.227V37.8347Z" fill="black"/>
<path d="M34.7948 52.0316C35.4051 52.6416 35.4051 53.6309 34.7951 54.2413L30.9567 58.0806C30.6635 58.3738 30.266 58.5384 29.8517 58.5384C29.437 58.5384 29.0395 58.3738 28.7467 58.0806L26.8807 56.2141C26.2707 55.6038 26.2707 54.6147 26.881 54.0044C27.4914 53.3944 28.4807 53.3947 29.0907 54.0047L29.8517 54.7659L32.5851 52.0319C33.1951 51.4216 34.1845 51.4213 34.7948 52.0316Z" fill="black"/>
</svg>
