<?xml version="1.0" encoding="UTF-8" standalone="no"?>
<!DOCTYPE svg PUBLIC "-//W3C//DTD SVG 1.1//EN" "http://www.w3.org/Graphics/SVG/1.1/DTD/svg11.dtd">
<svg width="100%" height="100%" viewBox="0 0 512 512" version="1.1" xmlns="http://www.w3.org/2000/svg" xmlns:xlink="http://www.w3.org/1999/xlink">
    <path fill="#3a1867" d="M265.425,150.6c12.5,12.5 32.8,12.5 45.3,0c12.5,-12.5 12.5,-32.8 -0,-45.3l-96,-96c-12.5,-12.5 -32.8,-12.5 -45.3,0l-96,96c-12.5,12.5 -12.5,32.8 -0,45.3c12.5,12.5 32.8,12.5 45.3,0l41.3,-41.3l-0,274.7c-0,35.3 -28.7,64 -64,64l-64,0c-17.7,0 -32,14.3 -32,32c-0,17.7 14.3,32 32,32l64,0c70.7,0 128,-57.3 128,-128c-0,-35.3 28.7,-64 64,-64l114.7,0l-41.4,41.4c-12.5,12.5 -12.5,32.8 -0,45.3c12.5,12.5 32.8,12.5 45.3,0l96,-96c12.5,-12.5 12.5,-32.8 -0,-45.3l-96,-96c-12.5,-12.5 -32.8,-12.5 -45.3,0c-12.5,12.5 -12.5,32.8 -0,45.3l41.4,41.3l-114.7,0c-23.3,0 -45.2,6.2 -64,17.1l-0,-163.9l41.4,41.4Z"/>
</svg>
