<?xml version="1.0" encoding="utf-8"?>
<!-- Generator: Adobe Illustrator 15.1.0, SVG Export Plug-In  -->
<!DOCTYPE svg PUBLIC "-//W3C//DTD SVG 1.1//EN" "http://www.w3.org/Graphics/SVG/1.1/DTD/svg11.dtd" [
	<!ENTITY ns_flows "http://ns.adobe.com/Flows/1.0/">
]>
<svg version="1.1"
	 xmlns="http://www.w3.org/2000/svg" xmlns:xlink="http://www.w3.org/1999/xlink" xmlns:a="http://ns.adobe.com/AdobeSVGViewerExtensions/3.0/"
	 x="0px" y="0px" width="16px" height="16px" viewBox="-0.1 -0.1 16 16"
	 style="overflow:visible;enable-background:new -0.1 -0.1 16 16;" xml:space="preserve" preserveAspectRatio="xMinYMid meet">
<defs>
</defs>
<path style="fill:#999999;" d="M15.5,13.4l-2.1-2.1c-0.2-0.2-0.4-0.3-0.6-0.3C13.6,9.8,14,8.4,14,7c0-3.9-3.1-7-7-7C3.1,0,0,3.1,0,7
	c0,1.9,0.7,3.6,2,5c1.3,1.3,3.1,2,5,2c1.4,0,2.8-0.4,3.9-1.2c0.1,0.2,0.2,0.4,0.3,0.6l2.1,2.1c0.6,0.6,1.5,0.6,2.1,0
	S16.1,13.9,15.5,13.4z M7,11l0,1.5L7,11c-1.1,0-2.1-0.4-2.8-1.2C3.4,9.1,3,8.1,3,7c0-2.2,1.8-4,4-4c2.2,0,4,1.8,4,4
	c0,1.1-0.4,2.1-1.2,2.8C9.1,10.6,8.1,11,7,11z"/>
</svg>
