<svg xmlns="http://www.w3.org/2000/svg" style="isolation:isolate" width="16" height="16" preserveAspectRatio="xMinYMid meet"><defs><clipPath id="a"><path d="M0 0h16v16H0z"/></clipPath></defs><g clip-path="url(#a)"><clipPath id="b"><path d="M0 2.5h16v11H0v-11z" fill="#FFF"/></clipPath><g clip-path="url(#b)"><path d="M10.915 6.004v.779H8.092c0-.292.097-.584.292-.779.267-.346.56-.671.876-.973.195-.292.487-.584.681-.779a.739.739 0 0 0 .195-.487c0-.194-.097-.292-.195-.389-.194-.195-.584-.195-.778 0-.098.097-.195.195-.195.389h-.779c0-.389.195-.681.487-.973.194-.195.584-.292.876-.292.389 0 .681.097.973.292.292.292.39.584.39.876 0 .195 0 .39-.098.584-.097.195-.194.39-.292.487-.194.195-.292.389-.486.487-.39.292-.487.389-.584.486-.098.098-.098.195-.195.195l1.655.097zm-3.894.682h-.876V3.668c-.292.292-.584.487-.974.584v-.681c.195-.098.487-.195.682-.39.194-.194.389-.389.486-.681h.682v4.186zm7.788 1.947H1.18v3.894h14.602v.973H.207V7.659h15.575v4.868h-.973V8.633z"/><path d="M1.18 8.633h13.629v3.894H1.18V8.633z" fill="#FFF"/></g></g></svg>