<svg xmlns="http://www.w3.org/2000/svg" viewBox="0 0 16 16" width="16" height="16" preserveAspectRatio="xMinYMid meet"><path fill="none" stroke="#000" stroke-width=".75" stroke-miterlimit="10" d="M.48 9h15.04v4.5H.48z"/><path fill="none" d="M0 0h16.02v9H0z"/><path d="M1.84 5.73V1.58h.63v.63c.16-.29.31-.49.45-.58s.28-.14.45-.14c.24 0 .48.08.72.23l-.24.64c-.17-.1-.35-.15-.52-.15-.15 0-.29.05-.41.14s-.21.22-.26.39c-.08.25-.12.52-.12.82v2.17h-.7zM8.26 4.39l.73.09c-.12.43-.33.76-.64.99s-.71.35-1.19.35c-.61 0-1.09-.19-1.44-.56s-.53-.9-.53-1.57c0-.7.18-1.24.54-1.62s.83-.58 1.4-.58c.55 0 1.01.19 1.36.57s.53.91.53 1.59v.19H5.91c.03.46.15.8.39 1.05s.52.36.87.36c.26 0 .48-.07.66-.2s.32-.36.43-.66zM5.95 3.26h2.32c-.03-.35-.12-.62-.27-.79-.22-.27-.51-.41-.87-.41-.32 0-.59.11-.81.32s-.34.51-.37.88zM10.65 6.07l.68.1c.03.21.11.36.24.46.17.13.41.2.71.2.33 0 .58-.06.75-.2.18-.13.3-.31.36-.55.04-.14.05-.44.05-.9-.31.36-.69.54-1.15.54-.57 0-1.01-.21-1.32-.62s-.47-.9-.47-1.48c0-.4.07-.76.21-1.1.14-.33.35-.59.62-.78.27-.18.59-.27.96-.27.49 0 .89.2 1.21.59v-.5h.65v3.59c0 .65-.07 1.1-.2 1.37s-.34.48-.62.64-.64.23-1.05.23c-.5 0-.89-.11-1.2-.33s-.44-.54-.43-.99zm.59-2.49c0 .54.11.94.32 1.19.22.25.49.38.81.38.32 0 .59-.12.81-.37s.33-.64.33-1.17c0-.51-.11-.89-.34-1.15-.23-.26-.5-.39-.81-.39-.31 0-.58.13-.8.38s-.32.63-.32 1.13z"/></svg>